<svg version="1.1" viewBox="0 0 24 24" xmlns="http://www.w3.org/2000/svg">
 <style id="current-color-scheme" type="text/css">.ColorScheme-Text {
            color:#aaaaaa;
        }</style>
 <path class="ColorScheme-Text" d="m12 14.5c1.66 0 2.99-1.34 2.99-3l0.01-6c0-1.66-1.34-3-3-3s-3 1.34-3 3v6c0 1.66 1.34 3 3 3zm-1.2-9.1c0-0.66 0.54-1.2 1.2-1.2s1.2 0.54 1.2 1.2l-0.01 6.2c0 0.66-0.53 1.2-1.19 1.2s-1.2-0.54-1.2-1.2zm6.5 6.1c0 3-2.54 5.1-5.3 5.1s-5.3-2.1-5.3-5.1h-1.7c0 3.41 2.72 6.23 6 6.72v3.28h2v-3.28c3.28-0.48 6-3.3 6-6.72z" fill="currentColor"/>
</svg>
