<svg width="16" height="16" version="1.1" xmlns="http://www.w3.org/2000/svg">
 <path d="m5.1716 6.1707c-0.39174 0.39174-0.39174 1.0225 0 1.4142l2.1213 2.1213c0.39174 0.39174 1.0225 0.39174 1.4142 0l2.8284-2.8284c0.39174-0.39174 0.39174-1.0225 0-1.4142-0.39174-0.39174-1.0225-0.39174-1.4142 0l-2.1213 2.1213-1.4142-1.4142c-0.39174-0.39174-1.0225-0.39174-1.4142 0z" fill="#aaaaaa"/>
 <path d="m8 0a8 8 0 0 0-8 8 8 8 0 0 0 8 8 8 8 0 0 0 8-8 8 8 0 0 0-8-8zm0 2a6 6 0 0 1 6 6 6 6 0 0 1-6 6 6 6 0 0 1-6-6 6 6 0 0 1 6-6z" fill="#aaaaaa"/>
</svg>
