<svg xmlns="http://www.w3.org/2000/svg" width="16" height="16" version="1"><path opacity=".3" d="M1.635 7.167S3.113 4.747 6 4.497V3.62C2.801 3.91 0 6.982 0 6.982s1.6 5.142 6.001 5.612v-.933c-3.23-.461-4.366-4.495-4.366-4.495zM6 9.806v.854c-2.44-.493-3.15-3.37-3.15-3.37s1.204-1.47 3.15-1.71v.938h-.003c-1.021-.14-1.85.943-1.85.943s.478 1.82 1.854 2.344m0-7.805v1.619c.094-.008.156-.015.25-.019 3.638-.139 6.008 3.381 6.008 3.381s-2.723 3.751-5.558 3.751c-.26 0-.472-.026-.7-.072v1.001c.195.028.366.044.578.044 2.638 0 4.547-1.527 6.394-3.335.307.278 1.561.955 1.819 1.25-1.757 1.668-5.851 3.012-8.173 3.012-.224 0-.407-.015-.618-.039V14H16V2H6.002zm0 3.58V4.498c.093-.007.155-.013.25-.017 2.616-.093 4.332 2.548 4.332 2.548s-1.853 2.918-3.84 2.918c-.287 0-.512-.053-.742-.141V6.518c1.018.14 1.191.65 1.804 1.806l1.361-1.301s-.994-1.478-2.67-1.478c-.181 0-.324.015-.495.035" fill="#aaaaaa"/></svg>