<svg width="16px" height="16px" version="1.1" viewBox="0 0 16 16" xmlns="http://www.w3.org/2000/svg">
 <path d="m6 5c-0.55078 0-1 0.44922-1 1s0.44922 1 1 1 1-0.44922 1-1-0.44922-1-1-1zm3.5 3-2 2-1.5-1-2 2v0.5c0 0.5 0.5 0.5 0.5 0.5h7s0.47266-0.03516 0.5-0.5v-1z" fill="#aaaaaa" opacity=".45"/>
 <path d="m4 0c-2.216 0-4 1.784-4 4h2c0-1.108 0.892-2 2-2v-2zm2 0v2h4v-2h-4zm6 0v2c1.108 0 2 0.892 2 2h2c0-2.216-1.784-4-4-4zm-12 6v4h2v-4h-2zm14 0v4h2v-4h-2zm-14 6c0 2.216 1.784 4 4 4v-2c-1.108 0-2-0.892-2-2h-2zm14 0c0 1.108-0.892 2-2 2v2c2.216 0 4-1.784 4-4h-2zm-8 2v2h4v-2h-4z" fill="#aaaaaa" opacity=".45"/>
</svg>
