<svg width="16" height="16" version="1.1" xmlns="http://www.w3.org/2000/svg">
 <path d="m7.9863 0c-0.044152 0-0.081054 0.024432-0.125 0.025391-1.2912 0.028165-2.4916 0.46492-3.4668 1.1855l1.4219 1.4219c0.6259-0.39891 1.371-0.63281 2.1699-0.63281 2.2025 0 4 1.7622 4 3.9277 0 0.13181-0.008704 0.24332-0.021484 0.36914-0.0038 0.037612-0.005153 0.05295-0.001953 0.021484l-0.001953 0.0097656v0.0097656c-0.01073 0.12647-0.028629 0.2524-0.048829 0.37305v0.0039063l-0.001953 0.0019531c-0.092488 0.55617-0.24299 1.0787-0.43555 1.5723l1.5195 1.5176c0.40379-0.82969 0.72166-1.7457 0.89062-2.7637l0.013672-0.082031v-0.025391c0.019798-0.12825 0.039604-0.26183 0.052734-0.41016l0.001953-0.011719c3.02e-4 -0.00393 0.0017-0.028366 0-0.011719v-0.0019531c0.01492-0.14646 0.033203-0.34141 0.033203-0.57227-3.8e-5 -3.2736-2.723-5.9277-6-5.9277zm-4.6797 2.2441c-0.82417 1.008-1.3203 2.2871-1.3203 3.6836 0 0.23901 0.020804 0.43773 0.035156 0.57812v0.0058594l0.0019531 0.0078124c7.7e-6 2.179e-4 -1.5e-6 0.0038863 0 0.0039063 0.016243 0.17864 0.038421 0.35458 0.066406 0.52148 0.57673 3.4689 2.8646 5.7788 4.4961 7.3809l1.3984 1.377 1.4043-1.377c0.87696-0.86111 1.9415-1.9291 2.8301-3.2695l-1.4512-1.4512c-0.78583 1.29-1.8268 2.3577-2.7793 3.293h-0.0019531c-1.6042-1.5753-3.4652-3.5215-3.9238-6.2832v-0.0019532c-0.020353-0.12139-0.037355-0.24976-0.048828-0.37891v-0.0078125l-0.0019531-0.0019531v-0.0039063-0.0019531-0.0078125l-0.0019532-0.0078125c-0.013722-0.13417-0.023438-0.24685-0.023438-0.375 0-0.84345 0.27518-1.6248 0.73828-2.2656l-1.418-1.418zm4.6934 1.7559a2 2 0 0 0-0.67969 0.13477l2.5449 2.5449a2 2 0 0 0 0.13477-0.67969 2 2 0 0 0-2-2zm-1.793 1.1445a2 2 0 0 0-0.20703 0.85547 2 2 0 0 0 2 2 2 2 0 0 0 0.85547-0.20703l-2.6484-2.6484z" fill="#aaaaaa" style="paint-order:fill markers stroke"/>
 <path d="m1.531 0.469-1.061 1.061 14 14 1.062-1.062z" fill="#aaaaaa"/>
</svg>
