<svg width="16" height="16" version="1.1" xmlns="http://www.w3.org/2000/svg">
 <path d="m8 0c-1.3058 0-2.4109 0.83045-2.8242 1.9922l1.8242 1.8223v-0.81445c0-0.554 0.446-1 1-1s1 0.446 1 1v2.8145l2 2v-4.8145c0-1.6602-1.3398-3-3-3zm-3 3.9375v4.0625c0 1.6602 1.3398 3 3 3 1.1038 0 2.063-0.59367 2.584-1.4785l-1.584-1.584v0.0625c0 0.554-0.446 1-1 1s-1-0.446-1-1v-2.0625l-2-2zm-3 4.0625c0 2.9829 2.1555 5.4424 5 5.916v2.084h2v-2.084c1.5188-0.25289 2.8414-1.0718 3.7441-2.2344l-1.4316-1.4316c-0.71824 1.0584-1.9316 1.75-3.3125 1.75-2.216 0-4-1.784-4-4h-2zm10 0c0 0.25432-0.023407 0.50324-0.068359 0.74414l1.5977 1.5977c0.30365-0.71891 0.4707-1.5097 0.4707-2.3418h-2z" fill="#aaaaaa"/>
 <path d="m1.531 0.469-1.061 1.061 14 14 1.062-1.062z" fill="#aaaaaa"/>
</svg>
