<svg width="16" height="16" version="1.1" xmlns="http://www.w3.org/2000/svg">
 <path d="m6 0c-0.78312 0-1.4938 0.2997-2.0273 0.78906l1.4199 1.4199c0.16852-0.12939 0.37758-0.20898 0.60742-0.20898 0.554 0 1 0.446 1 1v0.81445l2 2v-2.8145c0-1.66-1.34-3-3-3zm-2.8555 2.082c-0.092741 0.28956-0.14453 0.59714-0.14453 0.91797v5c0 1.66 1.34 3 3 3s3-1.34 3-3v-0.0625l-2-2v2.0625c0 0.554-0.446 1-1 1s-1-0.446-1-1v-4.0625l-1.8555-1.8555zm-3.1445 5.918c0 2.97 2.16 5.4302 5 5.9102v2.0898h2v-2.0898c2.0142-0.34044 3.6842-1.6783 4.4863-3.4863l-1.5762-1.5762c-0.38285 1.8144-1.9717 3.1523-3.9102 3.1523-2.23 0-4-1.77-4-4h-2zm11.186 0 0.76367 0.76367c0.031861-0.25023 0.050781-0.50471 0.050781-0.76367h-0.81445z" fill="#aaaaaa"/>
 <circle cx="14" cy="4" r="1" fill="#aaaaaa" fill-rule="evenodd" opacity=".35" stop-color="#000000" stroke-linecap="round" stroke-linejoin="round" stroke-width="2" style="paint-order:stroke fill markers"/>
 <circle cx="14" cy="8" r="1" fill="#aaaaaa" fill-rule="evenodd" opacity=".35" stop-color="#000000" stroke-linecap="round" stroke-linejoin="round" stroke-width="2" style="paint-order:stroke fill markers"/>
 <path d="m1.531 0.469-1.061 1.061 14 14 1.062-1.062z" fill="#aaaaaa"/>
</svg>
