<svg width="16" height="16" version="1.1" xmlns="http://www.w3.org/2000/svg">
 <path d="m8 1c-1.662 0-3 1.338-3 3v0.36328c0.72619-0.82315 1.7813-1.346 2.9453-1.3594 0.018401-9.989e-4 0.036029-0.0039062 0.054688-0.0039062 0.025959 0 0.050722 0.0019825 0.076172 0.0039062 0.0084958 6.422e-4 0.016957 0.0011018 0.025391 0.0019532 0.033075 9.145e-4 0.066384 2.072e-4 0.099609 0.0019531h0.0039062c0.98703 0.050282 1.9212 0.46427 2.6211 1.1621h0.001953v0.0019531c0.059795 0.059957 0.11649 0.12251 0.17188 0.18555v-0.35742c0-1.662-1.338-3-3-3zm-5 5v6h3v-2h-1v-2h-0.99805l-0.0019531-0.99805c-7.264e-4 -0.34599 0.043767-0.68159 0.12695-1.002h-1.127zm8.8691 0c0.21261 0.82353 0.16405 1.711-0.17383 2.5293v0.0019531l-0.001953 0.0019531c-0.16592 0.39703-0.40483 0.74243-0.69336 1.043v0.42383h-0.47461c-0.167 0.12893-0.34254 0.24667-0.52539 0.35547v1.6445h3v-6h-1.1309zm-9.8691 7v2h4v1h4v-1h4v-2h-4c0 1.0927-0.90728 2-2 2s-2-0.90728-2-2h-4z" fill="#aaaaaa" fill-rule="evenodd" opacity=".35" stop-color="#000000" stroke-linecap="round" stroke-width="1.8516" style="paint-order:stroke fill markers"/>
 <path d="m8.152 4.006a2.992 2.992 0 0 0-3.152 2.994h2c0-0.408 0.24-0.768 0.617-0.924a0.994 0.994 0 0 1 1.09 0.217 0.994 0.994 0 0 1 0.217 1.09 0.994 0.994 0 0 1-0.924 0.617 1 1 0 0 0-1 1v2h2v-1.18a2.998 2.998 0 0 0 1.771-1.672 3.006 3.006 0 0 0-0.65-3.27 3.001 3.001 0 0 0-1.969-0.872zm-0.152 7.994a1 1 0 0 0-1 1 1 1 0 0 0 1 1 1 1 0 0 0 1-1 1 1 0 0 0-1-1z" color="#000000" fill="#aaaaaa" stroke-width="2" style="-inkscape-stroke:none"/>
</svg>
