<svg width="16" height="16" version="1.1" xmlns="http://www.w3.org/2000/svg">
 <path d="m2 0c-1.108 0-2 0.892-2 2v12c0 1.108 0.892 2 2 2h12c1.108 0 2-0.892 2-2v-12c0-1.108-0.892-2-2-2h-12zm0 3h4c0.666 0.02 1.168 0.83945 0.87695 1.4395l-1.375 2.7812c0.354 0.11 0.7478 0.18945 0.9668 0.43945 0.333 0.36 0.53125 0.80984 0.53125 1.3398v2c0 1.11-0.907 2-2 2h-3v-2h3v-2h-1c-0.666-0.02-1.165-0.83945-0.87305-1.4395l1.25-2.5605h-2.377v-2zm8 0h2c2 0 2 2 2 2v1h-2v-1h-2v6h2v-2h-1v-2h3v4s0 2-2 2h-2s-2 0-2-2v-6c0-2 2-2 2-2z" fill="#aaaaaa" stroke-linecap="round" stroke-linejoin="round" stroke-width="1.9994" style="paint-order:markers stroke fill"/>
</svg>
