<svg width="16" height="16" version="1.1" xmlns="http://www.w3.org/2000/svg">
 <path d="m8.0004 7a4.8 4.8 0 0 0-3.5906 1.6195l3.5906 4.3805 3.5918-4.3828a4.8 4.8 0 0 0-3.5918-1.6172z" fill="#aaaaaa" stroke-width=".6"/>
 <path d="m8 1c-2.2875 0.009378-4.5152 0.73169-6.373 2.0664-0.54386 0.38859-1.0512 0.82595-1.5156 1.3066l7.8887 9.627 7.9043-9.6445c-0.46446-0.48069-0.97177-0.91805-1.5156-1.3066-1.8642-1.3316-4.0977-2.0478-6.3887-2.0488zm0 2c1.8284 3.909e-4 3.6133 0.55767 5.1172 1.5977l-0.0037-0.00148-5.1135 6.2476-5.1094-6.2363c1.5005-1.0419 3.2826-1.6026 5.1094-1.6074z" fill="#aaaaaa"/>
</svg>
