<svg width="16" height="16" version="1.1" xmlns="http://www.w3.org/2000/svg">
 <path d="m15 1-3.3555 3.3555c0.44501 0.98816 0.48045 2.1372 0.052735 3.1738v0.0019531 0.0019531c-0.33842 0.81221-0.97233 1.3943-1.6973 1.8242v1.6426h-0.41797c0.19611 0.3089 0.41797 0.61318 0.41797 1 0 1.0898-0.90541 2-2 2-1.0945 0-2-0.90548-2-2 0-0.38804 0.22227-0.69141 0.41797-1h-0.41797v-1l-5 5h14v-14zm-6.207 6.7578c-0.25344 0.11466-0.50623 0.24219-0.79297 0.24219v0.11523l0.66406-0.23633c0.058023-0.020682 0.073449-0.095694 0.12891-0.12109z" fill="#aaaaaa" opacity=".35"/>
 <path d="m8.1523 3.0078c-0.4375-0.023437-0.87891 0.046876-1.3008 0.22266-1.1172 0.46094-1.8516 1.5586-1.8516 2.7695h2c0-0.40625 0.24219-0.76953 0.61719-0.92578 0.37891-0.15234 0.80469-0.070313 1.0898 0.21875 0.28906 0.28906 0.375 0.71484 0.21875 1.0898s-0.51562 0.61719-0.92578 0.61719c-0.55078 0-1 0.44922-1 1v2h2v-1.1797c0.78906-0.28125 1.4414-0.875 1.7734-1.6719 0.46094-1.1172 0.20312-2.4141-0.65234-3.2695-0.53516-0.53516-1.2383-0.83594-1.9688-0.87109zm-0.15234 7.9922c-0.55078 0-1 0.44922-1 1s0.44922 1 1 1c0.55469 0 1-0.44922 1-1s-0.44531-1-1-1z" color="#000000" fill="#aaaaaa" stroke-width="2" style="-inkscape-stroke:none"/>
</svg>
