<svg width="16" height="16" version="1.1" xmlns="http://www.w3.org/2000/svg">
 <path d="m10 0v2h-3v2.0957c0.25611-0.066037 0.52162-0.1098 0.79297-0.125 2.0674-0.11584 3.8908 1.3845 4.1875 3.4102l3.5195-2.8809-5.5-4.5zm-2.0957 5.9668c-0.36301 0.020339-0.65792 0.12998-0.9043 0.29492v0.085937c0.261-0.2067 0.561-0.34946 0.90625-0.37109 0.093949-0.0067157 0.18313 5.84e-5 0.26953 0.017578-0.082494-0.017261-0.16829-0.027776-0.25781-0.023438h-0.0019532c-0.0044021 2.177e-4 -0.0073125-0.0041531-0.011719-0.0039062zm0.27148 0.027344c0.25921 0.052559 0.49044 0.19649 0.72656 0.32031-0.23645-0.1241-0.46668-0.26594-0.72656-0.32031zm1.2734 0.66016c0.096847 0.10484 0.17176 0.22719 0.25195 0.3457h0.0019531c-0.08077-0.11821-0.1561-0.24121-0.25391-0.3457zm-5.3906 0.93359-3.5586 2.9121 5.5 4.5v-2h0.2793c0.071298-0.13356 0.1535-0.26327 0.25977-0.38281 0.071716-0.080681 0.21861-0.064819 0.30664-0.13281-0.47201-0.36204-0.81525-0.86244-0.80859-1.5234 0.0026851-0.79494 0.33624-1.4282 0.68359-1.8652a1.0001 1.0001 0 0 1 0.0039063-0.0058593c0.036845-0.04573 0.088502-0.076786 0.12695-0.12109h-1.8164a1.0001 1.0001 0 0 1-0.99805-0.94336c-0.0084028-0.15006 0.012624-0.29187 0.021484-0.4375zm5.9414 0.082031v0.025391c0.007672 0.047741 0.022387 0.093056 0.025391 0.14258 1.12e-4 -0.0091064 0.001875-0.0083005 0.001953-0.017578-0.003514-0.052201-0.018543-0.10015-0.027344-0.15039zm-1 2.0117c-0.051643 0.04302-0.10941 0.097844-0.15625 0.13477a1.0001 1.0001 0 0 1-0.029297 0.021484c-0.057092 0.041742-0.098642 0.10065-0.15234 0.14648 0.051064-0.03398 0.11386-0.10972 0.17578-0.15625 0.070347-0.053339 0.10022-0.085781 0.16211-0.13477v-0.011719zm-0.37109 0.38477c-0.025802 0.010968-0.054716 0.021499-0.054687 0.021485 5.29e-5 -2.8e-5 -0.025981 0.017065-0.048828 0.03125a1.0001 1.0001 0 0 1 0.10352-0.052735zm-0.16211 0.089844c-0.0084882 0.005267-0.027384 0.015655-0.027344 0.015625 1.713e-4 -1.27e-4 -0.022934 0.019814-0.041016 0.035156a1.0001 1.0001 0 0 1 0.068359-0.050781zm-0.091797 0.070312c-0.014713 0.012382-0.027197 0.021576-0.033203 0.027344-0.019811 0.019025-0.019801 0.023004-0.027344 0.03125a1.0001 1.0001 0 0 1 0.060547-0.058594zm-0.060547 0.058594c-0.0060194 0.006581-0.020293 0.019873-0.023438 0.023438l-0.0019531 0.001953-0.011719 0.013672c0.0062724-0.008065 0.0075791-0.004021 0.013672-0.011719a1.0001 1.0001 0 0 1 0.023438-0.027344zm-0.19531 0.2832c-0.0052786 0.012-0.027471 0.070675-0.027344 0.070313 1.47e-5 -4.2e-5 -0.0035686 0.013757-0.0058594 0.021484 0.0084248-0.0224 0.023924-0.068679 0.033203-0.091797zm-0.078125 0.38672c-1.066e-4 0.00453-0.0058594 0.009183-0.0058594 0.013672a1.0001 1.0001 0 0 1 0 0.011719h0.0039063c5.807e-4 -0.009478 0.0012456-0.01385 0.0019531-0.025391z" fill="#aaaaaa" opacity=".35"/>
 <path d="m7.848 4.969c1.642-0.092 3.096 1.17 3.188 2.812 0 1.402-0.378 1.922-1.594 2.844-0.191 0.144-0.326 0.25-0.375 0.313-0.05 0.062-0.031 0.033-0.031 0.03 7e-3 0.529-0.472 1-1 1-0.529 0-1.007-0.471-1-1 0-0.502 0.224-0.943 0.468-1.25 0.20902-0.25942 0.45107-0.49038 0.72-0.687 0.203-0.16 0.46-0.384 0.687-0.656 0.093-0.112 0.129-0.308 0.125-0.438v-0.03c-0.026536-0.55643-0.50759-0.98092-1.063-0.938-0.563 0.031-0.969 0.437-0.937 1h-2c-0.092-1.643 1.17-2.908 2.812-3zm0.188 8c1.3333 0 1.3333 2 0 2s-1.3333-2 0-2z" color="#bebebe" color-rendering="auto" dominant-baseline="auto" fill="#aaaaaa" image-rendering="auto" shape-rendering="auto" solid-color="#000000" stop-color="#000000" style="font-feature-settings:normal;font-variant-alternates:normal;font-variant-caps:normal;font-variant-east-asian:normal;font-variant-ligatures:normal;font-variant-numeric:normal;font-variant-position:normal;font-variation-settings:normal;inline-size:0;isolation:auto;mix-blend-mode:normal;shape-margin:0;shape-padding:0;text-decoration-color:#000000;text-decoration-line:none;text-decoration-style:solid;text-indent:0;text-orientation:mixed;text-transform:none;white-space:normal"/>
</svg>
