<svg width="16px" height="16px" version="1.1" viewBox="0 0 16 16" xmlns="http://www.w3.org/2000/svg">
 <path d="m1 1 14 14h-9v-5h-5z" fill="#aaaaaa" opacity=".3"/>
 <path d="m5 11v1c0 0.28-0.1 0.54-0.28 0.72l-0.78 0.78 0.78 0.78c0.18 0.19 0.28 0.45 0.28 0.72v1h-1c-0.28 0-0.54-0.1-0.72-0.28l-0.78-0.78-0.78 0.78c-0.18 0.18-0.45 0.28-0.72 0.28h-1v-1c0-0.27 0.1-0.53 0.28-0.72l0.78-0.78-0.78-0.78c-0.18-0.18-0.28-0.44-0.28-0.72v-1h1c0.27 0 0.54 0.1 0.72 0.28l0.78 0.79 0.78-0.79c0.18-0.18 0.44-0.28 0.72-0.28z" fill="#aaaaaa"/>
</svg>
