<svg width="16" height="16" enable-background="new" version="1.1" xmlns="http://www.w3.org/2000/svg">
 <title>Gnome Symbolic Icons</title>
 <path d="m5.8789 0.22266-1.8496 0.75977 0.76172 1.8496 1.8496-0.76172-0.76172-1.8477zm4.2754 0.0078125-0.76953 1.8457 1.8457 0.76953 0.76953-1.8457-1.8457-0.76953zm-2.1543 2.7695a5 5 0 0 0-5 5 5 5 0 0 0 5 5 5 5 0 0 0 5-5 5 5 0 0 0-5-5zm-7 1-0.76953 1.8457 1.8457 0.76953 0.76953-1.8457-1.8457-0.76953zm14.018 0.029297-1.8496 0.76172 0.76172 1.8496 1.8477-0.76172-0.75977-1.8496zm-7.8848 1.1094a3 3 0 0 0-0.13281 0.86133 3 3 0 0 0 3 3 3 3 0 0 0 0.86133-0.13281 3 3 0 0 1-2.8613 2.1328 3 3 0 0 1-3-3 3 3 0 0 1 2.1328-2.8613zm-5.0625 4.2207-1.8477 0.76172 0.75977 1.8496 1.8496-0.76172-0.76172-1.8496zm11.854 0.025391-0.76953 1.8457 1.8457 0.76953 0.76953-1.8457-1.8457-0.76953zm-9.1543 3.7695-0.76953 1.8457 1.8457 0.76953 0.76953-1.8457-1.8457-0.76953zm6.4395 0.013672-1.8496 0.76172 0.76172 1.8477 1.8496-0.75977-0.76172-1.8496z" fill="#aaaaaa" stroke-linecap="square" stroke-width="1.633" style="paint-order:fill markers stroke"/>
</svg>
