<svg width="16" height="16" version="1.1" xmlns="http://www.w3.org/2000/svg">
 <g transform="translate(-405 615)" fill="#aaaaaa">
  <path transform="translate(405,-615)" d="m8 1.0078c-2.8955 0-5.7908 1.1046-8 3.3125l8 9.6875 1-1.2109v-1.7969h1.0137c0.019481-1.6206 1.3205-2.972 2.9434-2.9961l3.043-3.6836c-2.209-2.2078-5.1045-3.3125-8-3.3125z" opacity=".3"/>
  <path transform="translate(405,-615)" d="m8.002 8.002c-1.3365 0-2.6717 0.50824-3.6914 1.5273l3.6914 4.4727 0.99805-1.209v-1.793h1.0137c0.009864-0.82056 0.34851-1.5731 0.89062-2.1191-0.87507-0.58557-1.8893-0.87891-2.9023-0.87891z"/>
 </g>
 <path d="m13 9c-1.108 0-2 0.91-2 2.031v0.969h-1v4h6v-4h-1v-0.969c0-1.12-0.892-2.031-2-2.031zm0 1c0.554 0 1 0.442 1 1v1h-2v-1c0-0.558 0.446-1 1-1z" color="#000000" fill="#aaaaaa" overflow="visible"/>
</svg>
