<svg width="16" height="16" version="1.1" xmlns="http://www.w3.org/2000/svg">
 <path d="m8 1c-0.55 0-1 0.45-1 1 0 0.03-2.388e-4 0.069609 0.0097656 0.099609-2.29 0.46-4.0098 2.4704-4.0098 4.9004v4.5l-2 2v0.5h14v-0.5l-2-2v-4.5c0-0.059175-0.0058-0.11712-0.0078-0.17578a3 3 0 0 1-0.9922 0.17578 3 3 0 0 1-1.0098-0.18164c0.003618 0.0606 0.009766 0.1201 0.009766 0.18164v5h-6v-5c0-1.662 1.338-3 3-3 0.35655 0 0.69696 0.064588 1.0137 0.17773a3 3 0 0 1-0.013672-0.17773 3 3 0 0 1 0.56836-1.7441c-0.18862-0.062169-0.38025-0.1165-0.57812-0.15625 0.01-0.03 0.0097656-0.069609 0.0097656-0.099609 0-0.55-0.45-1-1-1zm-1.7305 14c0.36 0.62 1.0205 1 1.7305 1s1.3705-0.38 1.7305-1z" fill="#aaaaaa" opacity=".35"/>
 <path class="suggested" d="m14 4a2 2 0 0 1-2 2 2 2 0 0 1-2-2 2 2 0 0 1 2-2 2 2 0 0 1 2 2z" fill="#4285f4"/>
</svg>
