<?xml version="1.0" encoding="UTF-8"?>
<svg width="16" height="16" version="1.1" xmlns="http://www.w3.org/2000/svg">
 <rect x="7" width="2" height="7.003" rx="0" ry="0" color="#bebebe" fill="#555"/>
 <path d="m12.242 2.3438-1.4141 1.4141 0.70703 0.70703c0.938 0.9378 1.4646 2.2088 1.4648 3.5352 0 2.7733-2.2267 5-5 5-2.7719 0-4.9979-2.2247-5-4.9961v-0.00195c-3e-7 -6.704e-4 0-0.001289 0-0.0019563 0.0055403-1.3233 0.53459-2.5899 1.4727-3.5234l0.70898-0.70508-1.4102-1.418-0.70898 0.70508c-1.3139 1.3076-2.0562 3.0838-2.0625 4.9375a1.0001 1.0001 0 0 0 0 0.0039063c0 3.8541 3.1459 7 7 7s7-3.1459 7-7c-2.8e-4 -1.856-0.73824-3.637-2.0508-4.9492z" color="#000000" fill="#555" stroke-linecap="square" stroke-linejoin="round" style="-inkscape-stroke:none;paint-order:fill markers stroke"/>
</svg>
