<svg width="16" height="16" version="1.1" xmlns="http://www.w3.org/2000/svg">
 <path d="m11 10v1c0 0.27 0.1 0.53 0.28 0.72l0.78 0.78-0.78 0.78c-0.18 0.18-0.28 0.44-0.28 0.72v1h1c0.28 0 0.54-0.1 0.72-0.28l0.78-0.79 0.78 0.79c0.18 0.18 0.44 0.28 0.72 0.28h1v-1c0-0.28-0.1-0.54-0.28-0.72l-0.78-0.78 0.78-0.78c0.18-0.19 0.28-0.45 0.28-0.72v-1h-1c-0.28 0-0.54 0.1-0.72 0.28l-0.78 0.78-0.78-0.78c-0.18-0.18-0.44-0.28-0.72-0.28z" fill="#aaaaaa"/>
 <path d="m3 1c-1.662 0-3 1.338-3 3v8c0 1.662 1.338 3 3 3h7v-2h-7c-0.554 0-1-0.446-1-1v-8c0-0.554 0.446-1 1-1h10c0.554 0 1 0.446 1 1v5h2v-5c0-1.662-1.338-3-3-3h-10zm0 9v2h4v-2h-4zm6 0v2h1v-2h-1z" fill="#aaaaaa" opacity=".35"/>
</svg>
