<svg width="16" height="16" version="1.1" xmlns="http://www.w3.org/2000/svg">
 <path d="M12.5 9C10.57 9 9 10.57 9 12.5s1.57 3.5 3.5 3.5 3.5-1.57 3.5-3.5S14.43 9 12.5 9zm-.5 1h1v2h2v1h-3z" fill="#aaaaaa"/>
 <path d="m8 2c-1.66 0-3 1.34-3 3 0 1.65 1.34 3 3 3s3-1.35 3-3c0-1.66-1.34-3-3-3zm0 2c0.55228 0 1 0.44772 1 1s-0.44772 1-1 1-1-0.44772-1-1 0.44772-1 1-1zm0 5a6 4 0 0 0-6 4v2h6.7637a4.5 4.5 0 0 1-0.72852-2h-4.0352a4 2 0 0 1 4-2 4 2 0 0 1 0.26562 0.005859 4.5 4.5 0 0 1 1.2559-1.875 6 4 0 0 0-1.5215-0.13086z" fill="#aaaaaa" opacity=".35"/>
</svg>
