<svg width="16" height="16" version="1.1" xmlns="http://www.w3.org/2000/svg">
 <path d="m7.834 1.334c-3.776 0-6.834 3.0753-6.834 6.834 0 0.02025 0.00178 0.040337 0.00195 0.060547 0.57882-0.7345 1.3728-1.3006 2.2773-1.6309 0.33234-0.90574 0.93966-1.6727 1.707-2.2441-0.13408 0.30448-0.26046 0.61508-0.36523 0.93164 0.76834-0.6521 1.6997-1.1131 2.7637-1.2441 0.28109-0.33131 0.61211-0.62441 0.98828-0.86523 0.83994-0.53901 0.45895-1.8407-0.53906-1.8418z" color="#000000" fill="#aaaaaa" stroke-linecap="round" stroke-linejoin="round" style="-inkscape-stroke:none"/>
 <g fill="#aaaaaa">
  <path d="m8 5c-1.7277 0-3.1412 0.99651-3.9707 2.3652-1.7329 0.42995-3.0282 1.9236-3.0293 3.7266-1e-7 2.164 1.8191 3.9082 4 3.9082h6.375c1.9738 0 3.625-1.5818 3.625-3.5449 9e-6 -1.5315-1.1101-2.6764-2.5176-3.1641-0.61486-1.9267-2.3993-3.2876-4.4805-3.291zm-0.00195 2h0.00195c1.3335 0.00311 2.4467 0.90664 2.6992 2.1348l0.14648 0.71289 0.72266 0.08008c0.83962 0.09328 1.4316 0.75277 1.4316 1.5273 1e-6 0.84849-0.69932 1.5449-1.625 1.5449h-6.375c-1.1328 0-2-0.85889-2-1.9082 5.577e-4 -0.93284 0.6989-1.7321 1.6953-1.873l0.55273-0.078125 0.22266-0.51367c0.4108-0.94231 1.3711-1.6262 2.5273-1.627z" color="#000000" fill="#aaaaaa" stroke-width="2" style="-inkscape-stroke:none"/>
 </g>
</svg>
