<svg width="16" height="16" version="1.1" xmlns="http://www.w3.org/2000/svg">
 <path d="m3 1c-0.554 0-1 0.446-1 1s0.446 1 1 1h10c0.554 0 1-0.446 1-1s-0.446-1-1-1h-10zm2 3c-0.554 0-1 0.446-1 1s0.446 1 1 1h8c0.554 0 1-0.446 1-1s-0.446-1-1-1h-8zm-1 3c-0.554 0-1 0.446-1 1s0.446 1 1 1h5c0.554 0 1-0.446 1-1s-0.446-1-1-1h-5zm3 3c-0.554 0-1 0.446-1 1s0.446 1 1 1h4c0.554 0 1-0.446 1-1s-0.446-1-1-1h-4zm-1 3c-0.554 0-1 0.446-1 1s0.446 1 1 1h2c0.554 0 1-0.446 1-1s-0.446-1-1-1h-2z" fill="#aaaaaa" stroke-linecap="round" stroke-linejoin="round" stroke-width="2" style="paint-order:markers stroke fill"/>
</svg>
