<svg width="32" height="32" version="1.1" xmlns="http://www.w3.org/2000/svg">
 <defs>
  <linearGradient id="b" x1="44.424" x2="44.424" y1="60.535" y2="-5.497" gradientTransform="translate(-6.723 1.226) scale(.50174)" gradientUnits="userSpaceOnUse">
   <stop stop-color="#634215" offset="0"/>
   <stop stop-color="#93700d" offset="1"/>
  </linearGradient>
  <linearGradient id="a" x1="16" x2="16" y1="2" y2="30" gradientUnits="userSpaceOnUse">
   <stop stop-color="#ffbf1d" offset="0"/>
   <stop stop-color="#eef052" offset="1"/>
  </linearGradient>
  <filter id="d" x="-.0348" y="-.037286" width="1.0696" height="1.0746" color-interpolation-filters="sRGB">
   <feGaussianBlur stdDeviation="0.43499999"/>
  </filter>
  <filter id="c" x="-.11492" y="-.021343" width="1.2298" height="1.0427" color-interpolation-filters="sRGB">
   <feGaussianBlur stdDeviation="0.16240466"/>
  </filter>
 </defs>
 <path d="m30.786 27.037-13.021-24c-0.37345-0.66681-1.051-1.037-1.8052-1.037-0.75517 0-1.4348 0.44489-1.8145 1.1107l-12.924 24c-0.30414 0.59318-0.30828 1.4073 0.066207 2.0004 0.37448 0.59215 0.97655 0.88874 1.7317 0.88874h25.945c0.7531 0 1.4338-0.37022 1.7379-0.96341 0.37966-0.59215 0.38276-1.3326 0.08379-1.9994z" filter="url(#d)" opacity=".25"/>
 <path d="M0 0h32v32H0z" fill="none"/>
 <path d="m30.786 27.037-13.021-24c-0.37345-0.66681-1.051-1.037-1.8052-1.037-0.75517 0-1.4348 0.44489-1.8145 1.1107l-12.924 24c-0.30414 0.59318-0.30828 1.4073 0.066207 2.0004 0.37448 0.59215 0.97655 0.88874 1.7317 0.88874h25.945c0.7531 0 1.4338-0.37022 1.7379-0.96341 0.37966-0.59215 0.38276-1.3326 0.08379-1.9994z" fill="url(#a)"/>
 <path transform="translate(.004)" d="M14.416 9.516c.375 3.666.805 7.307 1.125 10.987h1.02c.265-3.534.692-7.047 1-10.578.158-.835-.272-1.828-1.154-2.03-.873-.256-1.847.376-1.963 1.278-.02.113-.028.228-.028.343zm-.111 14.905c-.04 1.092 1.161 1.947 2.186 1.601.993-.253 1.516-1.501 1.007-2.389-.455-.917-1.791-1.219-2.56-.517-.388.32-.646.796-.633 1.305z" filter="url(#c)" font-family="Georgia" font-size="62.458" font-weight="400" opacity=".25" overflow="visible"/>
 <path transform="translate(.004)" d="M14.416 9.516c.375 3.666.805 7.307 1.125 10.987h1.02c.265-3.534.692-7.047 1-10.578.158-.835-.272-1.828-1.154-2.03-.873-.256-1.847.376-1.963 1.278-.02.113-.028.228-.028.343zm-.111 14.905c-.04 1.092 1.161 1.947 2.186 1.601.993-.253 1.516-1.501 1.007-2.389-.455-.917-1.791-1.219-2.56-.517-.388.32-.646.796-.633 1.305z" fill="url(#b)" font-family="Georgia" font-size="62.458" font-weight="400" overflow="visible"/>
</svg>
