<svg width="32" height="32" version="1.1" xmlns="http://www.w3.org/2000/svg" xmlns:xlink="http://www.w3.org/1999/xlink">
 <defs>
  <linearGradient id="c" x1="16" x2="16" y1="1" y2="31" gradientUnits="userSpaceOnUse">
   <stop stop-color="#d4d4d4" offset="0"/>
   <stop stop-color="#f1f1f1" offset="1"/>
  </linearGradient>
  <linearGradient id="b" x1="16" x2="16" y1="5" y2="27" gradientUnits="userSpaceOnUse">
   <stop stop-color="#b3b3b3" offset="0"/>
   <stop stop-color="#d3d3d3" offset="1"/>
  </linearGradient>
  <radialGradient id="a" cx="16.25" cy="16.5" r="2.75" gradientTransform="matrix(1 0 0 2 0 -16.5)" gradientUnits="userSpaceOnUse">
   <stop stop-color="#4d4d4d" offset="0"/>
   <stop stop-color="#262626" offset="1"/>
  </radialGradient>
  <filter id="d" x="-.036" y="-.036" width="1.072" height="1.072" color-interpolation-filters="sRGB">
   <feGaussianBlur stdDeviation="0.45000001"/>
  </filter>
 </defs>
 <g>
  <path d="m16 1c-8.2843 0-15 6.7157-15 15 0 8.2843 6.7157 15 15 15 8.2843 0 15-6.7157 15-15 0-8.2843-6.7157-15-15-15z" filter="url(#d)" opacity=".25"/>
  <path d="m16 1c-8.2843 0-15 6.7157-15 15 0 8.2843 6.7157 15 15 15 8.2843 0 15-6.7157 15-15 0-8.2843-6.7157-15-15-15z" fill="url(#c)"/>
  <path d="M16 27C9.925 27 5 22.075 5 16S9.925 5 16 5s11 4.925 11 11-4.925 11-11 11z" fill="url(#b)"/>
  <path d="M16.25 11a2.75 2.75 0 0 0-2.75 2.75c0 1.14.683 2.112 1.67 2.53L13.5 22H19l-1.67-5.72A2.735 2.735 0 0 0 19 13.75 2.75 2.75 0 0 0 16.25 11z" fill="url(#a)" overflow="visible" stroke-width="1.091"/>
 </g>
 <path d="M16 10.695a2.83 2.83 0 0 0-2.83 2.83c0 1.172.703 2.172 1.72 2.601l-1.72 5.886h5.66l-1.718-5.886a2.814 2.814 0 0 0 1.717-2.602A2.83 2.83 0 0 0 16 10.695z" fill="none" overflow="visible" stroke-width="1.06"/>
</svg>
