<svg width="16px" height="16px" version="1.1">
 <path d="m4 3c-1.108 0-2 0.892-2 2v7c0 1.108 0.892 2 2 2h7c1.108 0 2-0.892 2-2v-3h-1v3c0 0.554-0.446 1-1 1h-7c-0.554 0-1-0.446-1-1v-7c0-0.554 0.446-1 1-1h3v-1h-3z" fill="#363636" style="paint-order:stroke fill markers"/>
 <path d="m8.5 2c-0.277 0-0.5 0.223-0.5 0.5s0.223 0.5 0.5 0.5h3.793l-4.0977 4.0957c-0.19587 0.19587-0.19587 0.51312 0 0.70898s0.51312 0.19587 0.70898 0l4.0957-4.0977v3.793c0 0.277 0.223 0.5 0.5 0.5s0.5-0.223 0.5-0.5v-5c0-0.015983-5.01e-4 -0.031284-0.001953-0.046875-1.19e-4 -0.0012416 1.29e-4 -0.0026653 0-0.0039062-0.001509-0.01495-0.005026-0.030398-0.007813-0.044922-0.006134-0.031968-0.015466-0.062339-0.027343-0.091797-0.004069-0.01009-0.008979-0.01955-0.013672-0.029297-0.002424-0.0050337-0.003274-0.010688-0.00586-0.015625-0.001078-0.0020453-0.002798-0.0038258-0.003906-0.0058593-0.006823-0.012592-0.01364-0.025205-0.021484-0.037109-0.001008-0.001523-0.00288-0.0023919-0.003907-0.0039063-0.001835-0.0027216-0.003971-0.0051296-0.005859-0.0078125-0.016555-0.02353-0.034406-0.046125-0.054687-0.066406-0.020282-0.020281-0.042877-0.038132-0.066407-0.054688-0.022223-0.015636-0.045605-0.029118-0.070312-0.041016-0.009747-0.0046935-0.019207-0.0096036-0.029297-0.013672-0.029457-0.011877-0.059829-0.02121-0.091797-0.027344-0.014515-0.0028217-0.030254-0.0062916-0.044922-0.0078125-0.001294-1.306e-4 -0.002609 1.209e-4 -0.003906 0-0.015918-0.0015302-0.030899-0.0019531-0.046875-0.0019531h-5z" fill="#363636"/>
</svg>
