<svg width="16" height="16" version="1.1" xmlns="http://www.w3.org/2000/svg">
 <path d="m4 3a3 3 0 0 0-3 3 3 3 0 0 0 3 3 3 3 0 0 0 3-3 3 3 0 0 0-3-3zm0 1a2 2 0 0 1 2 2 2 2 0 0 1-2 2 2 2 0 0 1-2-2 2 2 0 0 1 2-2z" fill="#363636" opacity=".35"/>
 <path d="m12 3a3 3 0 0 0-3 3 3 3 0 0 0 3 3 3 3 0 0 0 1.9883-0.75586 4 4 0 0 1-3.9883 3.7559 4 4 0 0 1-1-0.13281v1.0273a5 5 0 0 0 1 0.10547 5 5 0 0 0 5-5v-2a3 3 0 0 0-3-3zm0 1a2 2 0 0 1 2 2 2 2 0 0 1-2 2 2 2 0 0 1-2-2 2 2 0 0 1 2-2z" fill="#363636" opacity=".35"/>
</svg>
