<svg height="16" width="16" xmlns="http://www.w3.org/2000/svg"><path d="M6.904 14q-.963 0-1.927-.068-.946-.05-1.977-.27V2.304q.811-.152 1.775-.22Q5.738 2 6.566 2q1.116 0 2.045.169.947.152 1.623.54.676.39 1.048 1.032.388.625.388 1.555 0 1.403-1.352 2.214 1.116.422 1.521 1.15.406.726.406 1.639 0 1.842-1.352 2.771-1.335.93-3.989.93zM5.57 8.744v3.025q.287.034.625.05.338.018.744.018 1.183 0 1.91-.338.727-.338.727-1.251 0-.811-.609-1.15-.608-.354-1.74-.354zm0-2.012h1.285q1.216 0 1.74-.304.524-.32.524-1.014 0-.71-.54-.997-.541-.287-1.59-.287-.337 0-.726.016-.389 0-.693.034z" style="line-height:1000%;-inkscape-font-specification:'Ubuntu Bold'" font-weight="700" font-family="Ubuntu" letter-spacing="0" word-spacing="0" fill="#363636"/></svg>