<?xml version="1.0" encoding="UTF-8" standalone="no"?>
<!-- Created with Inkscape (http://www.inkscape.org/) -->

<svg
   width="16"
   height="16"
   viewBox="0 0 4.2333332 4.2333335"
   version="1.1"
   id="svg5"
   inkscape:version="1.1.1 (3bf5ae0d25, 2021-09-20, custom)"
   sodipodi:docname="list-add-symbolic.svg"
   xmlns:inkscape="http://www.inkscape.org/namespaces/inkscape"
   xmlns:sodipodi="http://sodipodi.sourceforge.net/DTD/sodipodi-0.dtd"
   xmlns="http://www.w3.org/2000/svg"
   xmlns:svg="http://www.w3.org/2000/svg">
  <sodipodi:namedview
     id="namedview7"
     pagecolor="#ffffff"
     bordercolor="#666666"
     borderopacity="1.0"
     inkscape:pageshadow="2"
     inkscape:pageopacity="0.0"
     inkscape:pagecheckerboard="0"
     inkscape:document-units="px"
     showgrid="false"
     units="px"
     width="16px"
     inkscape:zoom="24.78125"
     inkscape:cx="15.051702"
     inkscape:cy="4.5800757"
     inkscape:window-width="1920"
     inkscape:window-height="996"
     inkscape:window-x="0"
     inkscape:window-y="0"
     inkscape:window-maximized="1"
     inkscape:current-layer="svg5" />
  <defs
     id="defs2" />
  <path
     id="rect846"
     style="fill:#363636;fill-opacity:0.996078;stroke-width:0.87414"
     d="M 7.5 1 C 7.2229996 1 7 1.2229984 7 1.5 L 7 7 L 1.5 7 C 1.2230001 7 1 7.2229984 1 7.5 C 1 7.7770004 1.2229999 8 1.5 8 L 7 8 L 7 13.5 C 7 13.777 7.2229984 14 7.5 14 C 7.7770004 14 8 13.777002 8 13.5 L 8 8 L 13.5 8 C 13.777 8 14 7.7770016 14 7.5 C 14 7.2229996 13.777002 7 13.5 7 L 8 7 L 8 1.5 C 8 1.2229996 7.7770016 1 7.5 1 z "
     transform="scale(0.26458333)" />
</svg>
