<svg width="16" height="16" version="1.1" xmlns="http://www.w3.org/2000/svg">
 <path d="m10.174 0.001953a6 6 0 0 0-6.084 4.998h-3.0898c-0.554 0-1 0.446-1 1v9c0 0.554 0.446 1 1 1h9c0.554 0 1-0.446 1-1v-3.0879a6 6 0 0 0 5-5.9121 6 6 0 0 0-5.8262-5.998zm-0.0293 1a5 5 0 0 1 2e-3 0 5 5 0 0 1 0.99024 0.12891 5 5 0 0 1 2.1953 1.1406 5 5 0 0 1 0.67383 0.73633 5 5 0 0 1 0.2793 0.41406 5 5 0 0 1 0 2e-3 5 5 0 0 1 0.42578 0.90234 5 5 0 0 1 0.28902 1.6738 5 5 0 0 1-0.39453 1.9473 5 5 0 0 1-0.2168 0.44922 5 5 0 0 1 0 2e-3 5 5 0 0 1-0.09961 0.16016 5 5 0 0 1-0.46289 0.66211 5 5 0 0 1-1.5586 1.2363 5 5 0 0 1-3.8848 0.27539 5 5 0 0 1-0.46094-0.18359 5 5 0 0 1-2e-3 -2e-3 5 5 0 0 1-1.6055-1.166 5 5 0 0 1-0.06836-0.08203 5 5 0 0 1-0.25195-0.30664 5 5 0 0 1-0.27734-0.41016 5 5 0 0 1-2e-3 -0.0039 5 5 0 0 1-0.42578-0.90234 5 5 0 0 1-0.14258-0.47461 5 5 0 0 1-0.05859-0.30273 5 5 0 0 1-0.03711-0.19141 5 5 0 0 1-0.04687-0.49414 5 5 0 0 1 0-0.0039 5 5 0 0 1-0.0038-0.20893 5 5 0 0 1 0.02539-0.49805 5 5 0 0 1 0-2e-3 5 5 0 0 1 0.07422-0.49219 5 5 0 0 1 0-2e-3 5 5 0 0 1 0.12305-0.48242 5 5 0 0 1 0-0.0019 5 5 0 0 1 0.17188-0.46875 5 5 0 0 1 0.47852-0.87695 5 5 0 0 1 0.30273-0.39648 5 5 0 0 1 1.123-0.98633 5 5 0 0 1 0.88867-0.45312 5 5 0 0 1 1.957-0.33789zm-8.6445 4.998h2.5a6 6 0 0 0 6 5.9961v2.5039c0 0.277-0.223 0.5-0.5 0.5h-8c-0.277 0-0.5-0.223-0.5-0.5v-8c0-0.277 0.223-0.5 0.5-0.5z" fill="#363636" style="paint-order:normal"/>
 <path d="m1.5 6c-0.277 0-0.5 0.223-0.5 0.5v8c0 0.277 0.223 0.5 0.5 0.5h8c0.277 0 0.5-0.223 0.5-0.5v-2.5059a6 6 0 0 1-6-5.9941zm3.5176 0.36328a5 5 0 0 0 0.02344 0.24219 5 5 0 0 1-0.02344-0.24219zm0.06055 0.48242a5 5 0 0 0 0.04492 0.23828 5 5 0 0 1-0.04492-0.23828zm0.12109 0.53125a5 5 0 0 0 0.05078 0.16797 5 5 0 0 1-0.05078-0.16797zm0.1582 0.46484a5 5 0 0 0 0.07617 0.18359 5 5 0 0 1-0.07617-0.18359zm0.20508 0.44922a5 5 0 0 0 0.08789 0.16602 5 5 0 0 1-0.08789-0.16602zm0.26562 0.45508a5 5 0 0 0 0.08789 0.12891 5 5 0 0 1-0.08789-0.12891zm0.29492 0.40234a5 5 0 0 0 0.0918 0.11328 5 5 0 0 1-0.0918-0.11328zm0.35547 0.39453a5 5 0 0 0 0.07422 0.07227 5 5 0 0 1-0.07422-0.07227zm0.35742 0.32031a5 5 0 0 0 0.09961 0.08203 5 5 0 0 1-0.09961-0.08203zm0.43359 0.31836a5 5 0 0 0 0.05664 0.03711 5 5 0 0 1-0.05664-0.03711zm0.43359 0.25391a5 5 0 0 0 0.05664 0.0293 5 5 0 0 1-0.05664-0.0293zm0.4375 0.19922a5 5 0 0 0 0.08594 0.03516 5 5 0 0 1-0.08594-0.03516zm0.49219 0.16992a5 5 0 0 0 0.05664 0.01562 5 5 0 0 1-0.05664-0.01562zm0.48438 0.11133a5 5 0 0 0 0.0625 0.01172 5 5 0 0 1-0.0625-0.01172zm0.48047 0.0625a5 5 0 0 0 0.10352 0.0078 5 5 0 0 1-0.10352-0.0078z" color="#000000" fill="#363636" opacity=".25" style="paint-order:normal"/>
</svg>
