<svg version="1.1" viewBox="0 0 16 16" xmlns="http://www.w3.org/2000/svg">
 <g>
  <path class="warning" d="m8.039 1c0.38233 0.016107 0.72199 0.24886 0.875 0.59961l1.4883 3.4004h3.8457c0.91921 0.00104 1.3507 1.137 0.66406 1.748l-2.9941 2.6523 1.5215 4.2637c0.31475 0.88725-0.65851 1.6786-1.4629 1.1895l-3.9785-2.4316c-1-0.68347-1-0.50198-1-1.584v-6.5527-2.4141-0.080078l0.083984-0.19141c0.15922-0.364 0.51871-0.59933 0.91602-0.59961 0.013672-2.803e-4 0.027348-2.803e-4 0.04102 0zm-0.04102 1v9.25l4.5 2.75-1.75-4.8984 3.5-3.1016h-4.5z" fill="#f9c440"/>
  <path class="warning" d="m7.998 2 1.75 4h4.5l-3.5 3.1016 1.75 4.8984-4.5-2.75z" fill="#f9c440" opacity=".3"/>
  <path d="m7.998 1c-0.096602 6.89e-5 -0.19145 0.014685-0.28125 0.041016a1.0006 1.0006 0 0 1 0.28125-0.041016zm-0.29883 0.046875c-0.087747 0.027509-0.16972 0.067387-0.24609 0.11719a1.0006 1.0006 0 0 1 0.24609-0.11719zm-0.25 0.11914c-0.0765 0.050377-0.14658 0.10981-0.20703 0.17969a1.0006 1.0006 0 0 1 0.20703-0.17969zm-0.21875 0.19336c-0.05958 0.071437-0.10996 0.15226-0.14844 0.24023a1.0006 1.0006 0 0 1 0.14844-0.24023zm-0.23242 0.43164v0.080078 2.4141l-0.75 1.7148h-4.5l3.5 3.1016-1.75 4.8984 3.6289-2.2168c0.12587 0.17341 0.37459 0.29932 0.87109 0.63867l-3.9785 2.4316a1.0006 1.0006 0 0 1-1.4629-1.1895l1.5215-4.2637-2.9941-2.6523a1.0006 1.0006 0 0 1 0.66406-1.748h3.8457z" fill="#363636" opacity=".75"/>
 </g>
</svg>
