<svg xmlns="http://www.w3.org/2000/svg" width="16" height="16"><path d="M3 3C1.02 3 0 4.172 0 6.607V8.5A1.5 1.5 0 0 0 1.5 10 1.5 1.5 0 0 0 3 8.5 1.5 1.5 0 0 0 1.51 7l-.008-.402c0-.949.112-1.598.338-1.952.226-.353.613-.609 1.16-.646zm4 0C5.02 3 4 4.172 4 6.607V8.5A1.5 1.5 0 0 0 5.5 10 1.5 1.5 0 0 0 7 8.5 1.5 1.5 0 0 0 5.51 7l-.008-.402c0-.949.112-1.598.338-1.952.226-.353.613-.609 1.16-.646zm2.5 2A1.5 1.5 0 0 0 8 6.5 1.5 1.5 0 0 0 9.49 8l.008.402c0 .949-.112 1.598-.338 1.952-.226.353-.613.609-1.16.646v1c1.98 0 3-1.172 3-3.607V6.5A1.5 1.5 0 0 0 9.5 5zm4 0A1.5 1.5 0 0 0 12 6.5 1.5 1.5 0 0 0 13.49 8l.008.402c0 .949-.112 1.598-.338 1.952-.226.353-.613.609-1.16.646v1c1.98 0 3-1.172 3-3.607V6.5A1.5 1.5 0 0 0 13.5 5z" fill="#363636"/></svg>