<svg width="16" height="16" version="1.1" xmlns="http://www.w3.org/2000/svg">
 <path d="m6 5h0.40039c0.069964-5.24e-4 0.13833 0.016281 0.19922 0.050781l2.8008 1.5996c0.12428 0.068756 0.1875 0.20899 0.1875 0.34961s-0.06322 0.28085-0.1875 0.34961l-2.8008 1.5996c-0.060888 0.03448-0.12925 0.051181-0.19922 0.050781h-0.40039v-4z" fill="#363636"/>
 <path d="m0 2v1h1v8.035c0 0.546 0.455 1 1 1h5v1.215l-2.72 1.844c-0.26 0.125-0.352 0.513-0.188 0.75 0.164 0.236 0.541 0.26 0.75 0.062l2.658-1.812 2.658 1.812c0.209 0.198 0.587 0.174 0.75-0.062 0.164-0.237 0.071-0.625-0.187-0.75l-2.721-1.844v-1.215h5c0.545 0 1-0.454 1-1v-8.035h1v-1zm2 1h11v7.5c0 0.5-0.5 0.5-0.5 0.5h-10c-0.5 0-0.5-0.5-0.5-0.5z" color="#000000" fill="#363636" font-family="sans-serif" font-weight="400" overflow="visible" style="font-feature-settings:normal;font-variant-alternates:normal;font-variant-caps:normal;font-variant-ligatures:normal;font-variant-numeric:normal;font-variant-position:normal;isolation:auto;mix-blend-mode:normal;shape-padding:0;text-decoration-color:#000000;text-decoration-line:none;text-decoration-style:solid;text-indent:0;text-orientation:mixed;text-transform:none"/>
</svg>
