<svg width="16" height="16" version="1.1" xmlns="http://www.w3.org/2000/svg">
 <style id="current-color-scheme" type="text/css">.ColorScheme-Text {
            color:#363636;
        }</style>
 <g class="ColorScheme-Text" fill="currentColor">
  <path d="m2.8555 2.2598c-0.23419 0.032324-0.43672 0.19992-0.50195 0.44336-0.086971 0.32458 0.10511 0.65522 0.42969 0.74219l5.8008 1.5547h-5.584c-1.108 0-2 0.892-2 2v5c0 1.108 0.892 2 2 2h10c1.108 0 2-0.892 2-2v-5c0-1.108-0.892-2-2-2h-0.16016c-0.076393-0.087069-0.16831-0.161-0.28906-0.19336l-9.4531-2.5332c-0.081145-0.021743-0.16412-0.024446-0.24219-0.013672zm0.13477 3.7402h10.02c0.554 0 1 0.446 1 1v5c0 0.554-0.446 1-1 1h-10.02c-0.554 0-1-0.446-1-1v-5c0-0.554 0.446-1 1-1zm0.0097656 1v1h4v-1h-4zm7.5 0a2.5 2.5 0 0 0-2.5 2.5 2.5 2.5 0 0 0 2.5 2.5 2.5 2.5 0 0 0 2.5-2.5 2.5 2.5 0 0 0-2.5-2.5zm0 1a1.5 1.5 0 0 1 1.5 1.5 1.5 1.5 0 0 1-1.5 1.5 1.5 1.5 0 0 1-1.5-1.5 1.5 1.5 0 0 1 1.5-1.5zm-7.5 1v1h4v-1h-4zm0 2v1h4v-1h-4z"/>
 </g>
</svg>
