<svg version="1.1" viewBox="0 0 16 16" xmlns="http://www.w3.org/2000/svg">
 <style id="current-color-scheme" type="text/css">.ColorScheme-Text {
            color:#363636;
        }</style>
 <path style="fill:currentColor" class="ColorScheme-Text" d="m4 1c-1.108 0-2 0.892-2 2v10c0 1.108 0.892 2 2 2h8c1.108 0 2-0.892 2-2v-6.5859-1.4141l-4-4h-6zm0 1h5.5859l3.4141 3.4141v7.5859c0 0.554-0.446 1-1 1h-8c-0.554 0-1-0.446-1-1v-10c0-0.554 0.446-1 1-1zm1 2c-0.554 0-1 0.446-1 1v2.293l1.293-1.293h0.70703v-2h-1zm2 0v2h2v-2h-2zm3 0v2h0.70703l1.293 1.293v-1.4668l-1.8262-1.8262h-0.17383zm-4.293 3-1 1h-0.70703v1h0.70703l1 1h4.5859l1-1h0.70703v-1h-0.70703l-1-1h-4.5859zm-1.707 2.707v2.293c0 0.554 0.446 1 1 1h1v-2h-0.70703l-1.293-1.293zm8 0-1.293 1.293h-0.70703v2h1c0.554 0 1-0.446 1-1v-2.293zm-5 1.293v2h2v-2h-2z"/>
</svg>
