<?xml version="1.0" encoding="UTF-8" standalone="no"?>
<!-- Created with Inkscape (http://www.inkscape.org/) -->

<svg
   width="16"
   height="16"
   viewBox="0 0 4.2333332 4.2333335"
   version="1.1"
   id="svg11945"
   inkscape:version="1.1.1 (3bf5ae0d25, 2021-09-20, custom)"
   sodipodi:docname="network-server-symbolic.svg"
   xmlns:inkscape="http://www.inkscape.org/namespaces/inkscape"
   xmlns:sodipodi="http://sodipodi.sourceforge.net/DTD/sodipodi-0.dtd"
   xmlns="http://www.w3.org/2000/svg"
   xmlns:svg="http://www.w3.org/2000/svg">
  <sodipodi:namedview
     id="namedview11947"
     pagecolor="#ffffff"
     bordercolor="#666666"
     borderopacity="1.0"
     inkscape:pageshadow="2"
     inkscape:pageopacity="0.0"
     inkscape:pagecheckerboard="0"
     inkscape:document-units="px"
     showgrid="false"
     units="in"
     inkscape:zoom="32"
     inkscape:cx="6.296875"
     inkscape:cy="5.953125"
     inkscape:window-width="1567"
     inkscape:window-height="932"
     inkscape:window-x="56"
     inkscape:window-y="50"
     inkscape:window-maximized="0"
     inkscape:current-layer="svg11945"
     showguides="true" />
  <defs
     id="defs11942" />
  <path
     id="rect6301"
     style="fill:#363636;fill-opacity:1;stroke-width:5.47725;stroke-linecap:round;stroke-linejoin:round"
     d="M 3 1 C 1.8919999 1 1 1.8919999 1 3 L 1 5 C 1 6.1080001 1.8919999 7 3 7 L 13 7 C 14.108 7 15 6.1080001 15 5 L 15 3 C 15 1.8919999 14.108 1 13 1 L 3 1 z M 3 2 L 13 2 C 13.554 2 14 2.446 14 3 L 14 5 C 14 5.554 13.554 6 13 6 L 3 6 C 2.446 6 2 5.554 2 5 L 2 3 C 2 2.446 2.446 2 3 2 z M 4 3 A 1.0000001 1.0000001 0 0 0 3 4 A 1.0000001 1.0000001 0 0 0 4 5 A 1.0000001 1.0000001 0 0 0 5 4 A 1.0000001 1.0000001 0 0 0 4 3 z M 3 8 C 1.8919999 8 1 8.8919999 1 10 L 1 12 C 1 13.108 1.8919999 14 3 14 L 13 14 C 14.108 14 15 13.108 15 12 L 15 10 C 15 8.8919999 14.108 8 13 8 L 3 8 z M 3 9 L 13 9 C 13.554 9 14 9.446 14 10 L 14 12 C 14 12.554 13.554 13 13 13 L 3 13 C 2.446 13 2 12.554 2 12 L 2 10 C 2 9.446 2.446 9 3 9 z M 4 10 A 1.0000001 1.0000001 0 0 0 3 11 A 1.0000001 1.0000001 0 0 0 4 12 A 1.0000001 1.0000001 0 0 0 5 11 A 1.0000001 1.0000001 0 0 0 4 10 z "
     transform="scale(0.26458333)" />
</svg>
