<svg xmlns="http://www.w3.org/2000/svg" xmlns:xlink="http://www.w3.org/1999/xlink" width="24" height="24"><defs><linearGradient id="b"><stop offset="0" stop-color="#dbdee0" style="stop-color:#b2b2b2;stop-opacity:1"/><stop offset="1" stop-color="#dbdee0" stop-opacity="0" style="stop-color:#b2b2b2;stop-opacity:.5"/></linearGradient><linearGradient id="a"><stop offset="0" stop-color="#dbdee0" style="stop-color:#b2b2b2;stop-opacity:.5"/><stop offset="1" stop-color="#dbdee0" stop-opacity="0" style="stop-color:#b2b2b2;stop-opacity:0"/></linearGradient><linearGradient xlink:href="#a" id="d" x1="11.875" x2="11.875" y1="18.125" y2="6.125" gradientTransform="matrix(-1 0 0 1 471.875 367.875)" gradientUnits="userSpaceOnUse"/><linearGradient xlink:href="#b" id="c" x1="12" x2="12" y1="6" y2="18" gradientTransform="translate(448 368)" gradientUnits="userSpaceOnUse"/></defs><g color="#000" font-family="Sans" font-weight="400"><path fill="url(#c)" d="M460 372c-4.406 0-8 3.594-8 8 0 4.406 3.594 8 8 8v-2c-3.326 0-6-2.674-6-6s2.674-6 6-6a1 1 0 0 0 0-2z" overflow="visible" style="text-indent:0;text-align:start;line-height:normal;text-transform:none;block-progression:tb;marker:none;-inkscape-font-specification:Sans;fill:url(#c)" transform="translate(-448 -368)"/><path fill="url(#d)" d="M460 372c4.406 0 8 3.594 8 8 0 4.406-3.594 8-8 8v-2c3.326 0 6-2.674 6-6s-2.674-6-6-6z" overflow="visible" style="text-indent:0;text-align:start;line-height:normal;text-transform:none;block-progression:tb;marker:none;-inkscape-font-specification:Sans;fill:url(#d)" transform="translate(-448 -368)"/></g></svg>