<svg width="22" height="22" version="1.1" viewBox="0 0 22 22" xmlns="http://www.w3.org/2000/svg">
 <defs>
  <style id="current-color-scheme" type="text/css">.ColorScheme-Text { color:#727272; } .ColorScheme-Highlight { color:#5294e2; }</style>
 </defs>
 <g transform="translate(2.9999 -3)" class="ColorScheme-Text" fill="currentColor">
  <path d="m11.17 8c-0.55935 0.00248-1.136 0.1903-1.5703 0.4668h-0.00195c0.1233-0.078733-0.3899 0.20703-1.5918 0.20703-1.2106 0-1.7304-0.28805-1.6035-0.20703-0.40749-0.2603-1.0397-0.46094-1.5625-0.46094-0.52277 0-0.9962 0.12338-1.4473 0.33203l-0.00977 0.00391-0.00977 0.00586c-1.8464 0.87748-2.4915 2.5397-2.9648 4.4199v0.0039c-0.2028 0.81241-0.3246 1.6795-0.37891 2.498-0.054304 0.8186-0.099884 1.485 0.13281 2.3477l0.001953 0.0059 0.001953 0.0039c0.14483 0.5269 0.39428 1.1337 0.95508 1.6406 0.5608 0.50688 1.3653 0.73242 1.9766 0.73242h0.035156c1.9798-0.03371 3.0764-1.232 3.9355-2.6074-0.27201 0.35787 0.25829-0.06369 0.88281-0.04687l0.060547 2e-3 0.060547-2e-3c0.59876-0.02021 1.1298 0.40151 0.85742 0.04492 0.8601 1.3761 1.9688 2.5759 3.9453 2.6094h0.03321c0.61238 0 1.4174-0.23033 1.9746-0.73633 0.55725-0.506 0.80616-1.1091 0.95117-1.6367l2e-3 -0.0039 2e-3 -0.0059c0.23269-0.86267 0.18712-1.5291 0.13281-2.3477-0.0543-0.81859-0.1761-1.6856-0.37891-2.498v-0.0039c-0.473-1.8783-1.1188-3.5378-2.9609-4.416-0.40794-0.19662-0.90082-0.35017-1.4512-0.34961-0.0037 3.8e-6 -0.0061-0.00197-0.0098-0.00195zm0.0098 2c0.18148-8.64e-4 0.37416 0.04874 0.58789 0.15234 0.77243 0.3671 1.4948 1.5546 1.8848 3.1035 0.32997 1.3218 0.44889 3.1189 0.25391 3.8418-0.17248 0.62759-0.47306 0.90234-0.99805 0.90234-0.78743-0.01333-1.7686-0.79122-2.3984-1.8398-0.44996-0.58095-1.499-0.84642-2.5039-0.8125-1.0124-0.02725-2.0656 0.23153-2.5156 0.8125-0.62995 1.0486-1.6126 1.8266-2.3926 1.8398-0.53241 0-0.8314-0.27476-1.0039-0.90234-0.19498-0.72286-0.076068-2.52 0.25391-3.8418 0.38997-1.549 1.1123-2.7364 1.8848-3.1035 0.21748-0.1006 0.42744-0.14648 0.60742-0.14648s0.32884 0.04589 0.48633 0.14648c0.39747 0.25383 1.2249 0.52148 2.6797 0.52148 1.4474 0 2.2704-0.26765 2.668-0.52148 0.15745-0.10026 0.32509-0.15154 0.50583-0.15234z"/>
  <path d="m4 11h1v1h1v1h-1v1h-1v-1h-1v-1h1zm7.5 0c0.27614 0 0.5 0.22386 0.5 0.5s-0.22386 0.5-0.5 0.5-0.5-0.22386-0.5-0.5 0.22386-0.5 0.5-0.5zm-1 1c0.27614 0 0.5 0.22386 0.5 0.5s-0.22386 0.5-0.5 0.5-0.5-0.22386-0.5-0.5 0.22386-0.5 0.5-0.5zm2 0c0.27614 0 0.5 0.22386 0.5 0.5s-0.22386 0.5-0.5 0.5-0.5-0.22386-0.5-0.5 0.22386-0.5 0.5-0.5zm-1 1c0.27614 0 0.5 0.22386 0.5 0.5s-0.22386 0.5-0.5 0.5-0.5-0.22386-0.5-0.5 0.22386-0.5 0.5-0.5z"/>
 </g>
</svg>
