<svg width="22" height="22" version="1.1" xmlns="http://www.w3.org/2000/svg">
 <defs>
  <style id="current-color-scheme" type="text/css">.ColorScheme-Text { color:#727272; } .ColorScheme-Highlight { color:#5294e2; }</style>
 </defs>
 <path class="ColorScheme-Text" d="m9.5 4a5.5 5.5 0 0 0-5.5 5.5 5.5 5.5 0 0 0 5.5 5.5 5.5 5.5 0 0 0 3.1172-0.969l3.6618 3.662a1 1 0 0 0 0.721 0.307 1 1 0 0 0 1-1 1 1 0 0 0-0.303-0.717l-3.67-3.6697a5.5 5.5 0 0 0 0.973-3.1133 5.5 5.5 0 0 0-5.5-5.5zm0 2a3.5 3.5 0 0 1 3.5 3.5 3.5 3.5 0 0 1-3.5 3.5 3.5 3.5 0 0 1-3.5-3.5 3.5 3.5 0 0 1 3.5-3.5z" fill="currentColor"/>
</svg>
