<svg width="24" height="24" version="1.1" xmlns="http://www.w3.org/2000/svg">
 <defs>
  <style id="current-color-scheme" type="text/css">.ColorScheme-Text { color:#dedede; }</style>
 </defs>
 <g transform="translate(1 1)">
  <path class="ColorScheme-Text" d="m11 4c-0.03657 6.02e-4 -0.07309 0.00321-0.10938 0.00781-1.604 0.00229-2.9499 0.042604-4.1055 0.28125-0.58971 0.12178-1.1829 0.30073-1.7422 0.64649-0.60193 0.37209-1.1391 0.95323-1.3867 1.7422-0.76422 2.4345-1.6562 4.7434-1.6562 7.6562 0 2.1221 1.8835 3.666 3.9531 3.666 1.7841 0 3.0105-1.1613 3.6992-2.4551 0.22601-0.41095 0.46116-0.89972 0.55859-0.92383 0.2584-0.03534 0.52809-0.08666 0.76562-0.08399 0.0039 2.3e-5 0.0078 2.3e-5 0.01172 0h0.02344c0.0039 2.3e-5 0.0078 2.3e-5 0.01172 0 0.23754-0.0027 0.50723 0.04864 0.76562 0.08399 0.09614 0.03483 0.3411 0.54832 0.56055 0.92578 0.68908 1.2928 1.9143 2.4531 3.6973 2.4531 2.0696 0 3.9531-1.544 3.9531-3.666 0-2.9128-0.892-5.2218-1.6562-7.6562-0.24765-0.78892-0.78487-1.3681-1.3867-1.7402v-0.00195c-0.55932-0.34575-1.1525-0.52471-1.7422-0.64649h-2e-3c-1.1863-0.245-2.5508-0.28906-4.2128-0.28906zm0 1c1.6418 0 2.957 0.049778 4.0117 0.26758 0.52731 0.1089 0.99776 0.25857 1.4199 0.51953 0.42216 0.26101 0.79863 0.67864 0.95898 1.1895 0.77526 2.4695 1.6094 4.65 1.6094 7.3574 0 1.5304-1.3582 2.666-2.9531 2.666-1.5537 0-2.6781-1.1205-3.1289-2.3125l0.02344 0.05664-0.47266-1.0508c-0.49427-0.09501-0.96892-0.16175-1.457-0.15625h-0.02344c-0.48808-0.0055-0.96273 0.06124-1.457 0.15625l-0.47266 1.0508 0.023437-0.05664c-0.4508 1.192-1.5752 2.3125-3.1289 2.3125-1.5949 0-2.9531-1.1356-2.9531-2.666 0-2.7074 0.83414-4.8878 1.6094-7.3574 0.16035-0.51085 0.53682-0.92849 0.95898-1.1895 0.42214-0.26096 0.89258-0.41063 1.4199-0.51953 1.0547-0.21781 2.3699-0.26758 4.0117-0.26758z" fill="currentColor"/>
 </g>
 <path class="ColorScheme-Text" d="m9.5 8c-0.277 0-0.5 0.223-0.5 0.5v1.5h-1.5c-0.277 0-0.5 0.223-0.5 0.5s0.223 0.5 0.5 0.5h1.5v1.5c0 0.277 0.223 0.5 0.5 0.5s0.5-0.223 0.5-0.5v-1.5h1.5c0.277 0 0.5-0.223 0.5-0.5s-0.223-0.5-0.5-0.5h-1.5v-1.5c0-0.277-0.223-0.5-0.5-0.5z" fill="currentColor"/>
 <path class="ColorScheme-Text" d="m16 9a1 1 0 0 0-1 1 1 1 0 0 0 1 1 1 1 0 0 0 1-1 1 1 0 0 0-1-1zm-2 2a1 1 0 0 0-1 1 1 1 0 0 0 1 1 1 1 0 0 0 1-1 1 1 0 0 0-1-1z" fill="currentColor"/>
</svg>
