<svg version="1.0" viewBox="0 0 16 16" xmlns="http://www.w3.org/2000/svg">
 <path d="m14.168 0.50195c-0.32292 0.010507-0.67702 0.10607-0.98047 0.26562-1.0539 0.68624-3.3622 2.9529-3.5957 3.5898-0.066059 0.067542-0.083589 0.32346-0.080078 0.60938-0.44132 0.40035-0.28711 1.2075-0.28711 1.9355 0 0.34261-0.72788 0.58487-1.0195 0.65234-0.85068 0.0033-3.2683 0.12584-4.0547 1.1973-0.68686 0.93534-3.4297 5.4138-3.5996 6.3828-0.095304 0.21815-0.1582 0.39301-0.1582 0.48438 1.1484 0 9.4901-3.9524 9.918-4.3242 0.13456-0.11694 0.21713-0.26626 0.25976-0.43164 0.001005-8.64e-4 0.014733-0.008956 0.015626-0.009765 0.28578-0.25961 0.38704-0.6883 0.29102-1.2422-0.05884-0.34028-0.18072-0.69042-0.32226-0.98633-0.0071-0.017965-0.015134-0.038063-0.027344-0.058594-0.0508-0.10145-0.10462-0.19533-0.1582-0.2793-0.08274-0.17735-0.14062-0.38479-0.14062-0.65039 0-0.52708 0.023048-0.85933 0.060546-1.1074 0.012498-0.013964 0.019942-0.036196 0.033204-0.048828 0.035389-0.033739 0.067007-0.079592 0.099609-0.12109 0.41053 0.2696 1.2336 0.087563 1.459-0.10938 0.87084-0.71035 3.0707-2.9077 3.2988-3.3301 0.36446-0.53257 0.45055-1.4869 0.085937-1.8594l-0.30078-0.30859c-0.18216-0.18614-0.47395-0.26051-0.79688-0.25z" fill="#aaaaaa"/>
</svg>
