<svg version="1.1" viewBox="0 0 16 16" xmlns="http://www.w3.org/2000/svg">
 <path d="m3 2c-0.554 0-1 0.446-1 1v4c0 0.554 0.446 1 1 1h4c0.554 0 1-0.446 1-1v-4c0-0.554-0.446-1-1-1z" fill="#aaaaaa" fill-rule="evenodd" stop-color="#000000" stroke-linecap="round" stroke-linejoin="round" stroke-width="2" style="paint-order:stroke fill markers"/>
 <path d="m10 2c-0.554 0-1 0.446-1 1v4c0 0.554 0.446 1 1 1h4c0.554 0 1-0.446 1-1v-4c0-0.554-0.446-1-1-1zm1 2h2v2h-2z" fill="#aaaaaa" fill-rule="evenodd" opacity=".5" stop-color="#000000" stroke-linecap="round" stroke-linejoin="round" stroke-width="2" style="paint-order:stroke fill markers"/>
 <path d="m3 9c-0.554 0-1 0.446-1 1v4c0 0.554 0.446 1 1 1h4c0.554 0 1-0.446 1-1v-4c0-0.554-0.446-1-1-1zm1 2h2v2h-2z" fill="#aaaaaa" fill-rule="evenodd" opacity=".5" stop-color="#000000" stroke-linecap="round" stroke-linejoin="round" stroke-width="2" style="paint-order:stroke fill markers"/>
 <path d="m10 9c-0.554 0-1 0.446-1 1v4c0 0.554 0.446 1 1 1h4c0.554 0 1-0.446 1-1v-4c0-0.554-0.446-1-1-1zm1 2h2v2h-2z" fill="#aaaaaa" fill-rule="evenodd" opacity=".5" stop-color="#000000" stroke-linecap="round" stroke-linejoin="round" stroke-width="2" style="paint-order:stroke fill markers"/>
</svg>
