<svg version="1.1" viewBox="0 0 16 16" xmlns="http://www.w3.org/2000/svg">
 <path d="m5.2148 1c-2.2801 3.61e-5 -4.1638 1.8416-4.2148 4.1211v0.021484c0 0.9829 0.26727 1.7666 0.49219 2.3711l0.0058594 0.021484 0.0097656 0.019531c1.1209 2.6536 3.2219 4.7458 5.8086 7.1738l0.68359 0.64258 0.68359-0.64258c2.5867-2.428 4.6877-4.5202 5.8086-7.1738l0.009765-0.019531 0.005859-0.021484c0.22484-0.60452 0.49219-1.3875 0.49219-2.3711v-0.023438c-0.04777-2.0635-1.5037-3.5607-3.1719-3.9863-1.3165-0.33589-2.8192 0.005261-3.9082 1.0312-0.90788-1.0203-1.6609-1.1643-2.7051-1.1641zm5.4336 1.9902c0.22746-0.0063594 0.45875 0.022203 0.68555 0.080078 0.90396 0.23064 1.6298 0.90649 1.6621 2.0859-0.0025 0.61728-0.15314 1.0892-0.35547 1.6348-0.17334 0.40805-0.38732 0.80968-0.63281 1.209-0.097726 0.15895-0.20019 0.31813-0.30859 0.47656-0.054026 0.078959-0.10942 0.15741-0.16602 0.23633 0.05667-0.079168 0.11192-0.15713 0.16602-0.23633 0.1082-0.1584 0.21093-0.31771 0.30859-0.47656h-0.39062l-0.72266-1.4473c-0.34347-0.68671-1.3006-0.74626-1.7266-0.10742l-0.94531 1.4199-1.2949-3.2363c-0.14649-0.36524-0.49354-0.61062-0.88672-0.62695-0.39303-0.016374-0.75916 0.19917-0.93555 0.55078l-1.4395 2.8789c-0.11179-0.21203-0.21533-0.42565-0.30664-0.64062-0.2021-0.54499-0.3526-1.0176-0.35547-1.6328 0.032041-1.2102 0.99906-2.1582 2.2109-2.1582 0.7937-1.44e-4 1.5224 0.42126 1.918 1.1094l0.86523 1.5059 0.86914-1.5039c0.4447-0.77167 1.0989-1.102 1.7813-1.1211zm-4.75 4.4473 1.1738 2.9336c0.29931 0.74662 1.3128 0.85235 1.7598 0.18359l1.0449-1.5664 0.22852 0.45898c0.10451 0.20321 0.27545 0.3645 0.48438 0.45703-0.74203 0.86047-1.6155 1.7379-2.5898 2.6719-1.1858-1.1367-2.2238-2.1903-3.0547-3.2305l0.95312-1.9082zm-2.2168 0.023438c0.021591 0.0406 0.044095 0.080577 0.066406 0.12109-0.022276-0.040437-0.044856-0.080576-0.066406-0.12109zm0.17188 0.30859c0.027567 0.047576 0.055441 0.095087 0.083984 0.14258-0.028599-0.047539-0.056371-0.094956-0.083984-0.14258zm0.24219 0.39844c0.042303 0.066207 0.086705 0.13115 0.13086 0.19727-0.044032-0.065879-0.088668-0.1313-0.13086-0.19727zm0.1582 0.23828c0.04999 0.074206 0.10006 0.1485 0.15234 0.22266-0.052419-0.074291-0.10222-0.14831-0.15234-0.22266zm6.7344 1.0195c-0.12213 0.15105-0.24828 0.30317-0.37891 0.45508 0.13056-0.15186 0.25695-0.30402 0.37891-0.45508z" fill="#aaaaaa" style="-inkscape-stroke:none"/>
</svg>
