<?xml version="1.0" encoding="UTF-8"?>
<svg width="16" height="16" version="1.1" xmlns="http://www.w3.org/2000/svg">
 <path d="m3 0c-1.662 0-3 1.338-3 3v10c0 1.662 1.338 3 3 3s3-1.338 3-3v-10c0-1.662-1.338-3-3-3zm2.4102 0c0.87 0.71 1.4707 1.79 1.4707 3v1h2.1191c-0.07-1.09 1.25-2 2-2 0.68 0 1 0.010001 1 1v1h1.2207c1.23-0.6 1.7793-1.9695 1.7793-2.6895 0-0.73-2.3895-1.3105-3.6895-1.3105h-5.9004zm-2.4102 2c0.554 0 1 0.446 1 1v10c0 0.554-0.446 1-1 1s-1-0.446-1-1v-10c0-0.554 0.446-1 1-1zm4 3v4.3105c2.77 2.66 6.1309 2.4102 6.1309 2.4102s0.34984-1.5213-1.9102-4.0312l-2.3809-2.6895h-1.8398zm2.9805 2.5293 1.6797 1.7402c-1.8 0.16-2.1497-0.86024-1.6797-1.7402z" fill="#555"/>
</svg>
