<svg version="1.1" viewBox="0 0 16 16" xmlns="http://www.w3.org/2000/svg" xmlns:osb="http://www.openswatchbook.org/uri/2009/osb">
 <path d="m8.9609 0c-0.40445 0.85426-0.79836 1.7203-1.1797 2.5977-0.098141 0.2258-0.19984 0.48108-0.29883 0.71289l1.0449 2.7383c0.187-0.50803 0.37942-1.0353 0.55469-1.4941 0.34667-0.87736 0.65219-1.6225 0.91797-2.2344 0.25422 0.58874 0.55372 1.3279 0.90039 2.2168 0.29698 0.76146 0.60762 1.5996 0.92188 2.4629h-2.9297l0.76367 2h2.7441c0.16178 0.48485 0.40675 1.1359 0.58008 1.5977s0.34213 0.92904 0.50391 1.4023h2.3574c-0.45067-1.2814-0.88478-2.4637-1.3008-3.5488-0.40445-1.0851-0.80242-2.1143-1.1953-3.084-0.38133-0.9697-0.7632-1.8922-1.1445-2.7695-0.38133-0.87735-0.77328-1.7434-1.1777-2.5977h-2.0625z" fill="#aaaaaa"/>
 <path d="m6.675 4h-1.35l-4.1688 11h-1.1562v1h3v-1h-0.77539l1.1426-3h4.2305l1.1426 3h-0.74023v1h4v-1h-1.1211zm-1.1926 2.4492 1.7344 4.5508h-3.4688z" fill="#aaaaaa" />
</svg>
