<svg width="16" height="16" version="1.1" viewBox="0 0 16 16" xmlns="http://www.w3.org/2000/svg">
 <defs>
  <style id="current-color-scheme" type="text/css">.ColorScheme-Text { color:#6e6e6e; } .ColorScheme-Highlight { color:#5294e2; }</style>
 </defs>
 <path class="ColorScheme-Text" d="m8 3.0039c-1.5508 0.0151-3.1121 0.36933-4.4629 1.1348-0.5384 0.35062-1.1848 0.80345-1.6719 1.2598-0.76649 0.75042-1.4225 1.626-1.8652 2.6055 1.2149 2.6796 3.8859 4.6435 6.8242 4.9336 1.9274 0.21811 3.9444-0.11487 5.6387-1.0684 0.5384-0.35062 1.1848-0.80345 1.6719-1.2598 0.76649-0.75042 1.4225-1.626 1.8652-2.6055-1.215-2.6794-3.8858-4.6438-6.8242-4.9336-0.38988-0.04547-0.78327-0.066416-1.1758-0.066406zm0 1.998v0.0019531c1.607-0.0356 3.0303 1.4018 3 3 0.0515 1.7664-1.709 3.2909-3.4492 2.9609-1.7576-0.20634-2.9921-2.1797-2.4141-3.8496 0.36916-1.2294 1.5758-2.1286 2.8633-2.1133zm0 2.002a1 1 0 0 0-1 1 1 1 0 0 0 1 1 1 1 0 0 0 1-1 1 1 0 0 0-1-1z" fill="#aaaaaa"/>
</svg>
