<svg width="16" height="16" version="1.1" xmlns="http://www.w3.org/2000/svg">
 <path d="m8 0a8 8 0 0 0-8 8 8 8 0 0 0 8 8 8 8 0 0 0 8-8 8 8 0 0 0-8-8zm-2.418 1.6191c0.17171 0.0048511 0.34839 0.029054 0.50586 0.076172 0.30022 0.088439 0.64142 0.25844 0.95117 0.4668h0.0019531c0.17778 0.11882 0.29618 0.20685 0.38672 0.29297 0.090792 0.086356 0.16165 0.1925 0.17578 0.30664 0.026216 0.20803-0.079412 0.41188-0.24805 0.5-0.16863 0.088124-0.38694 0.065465-0.55469-0.060547-0.67-0.49738-1.1074-0.64933-1.3984-0.58789-0.17003 0.036112-0.34722 0.23448-0.44727 0.66406v0.0019531c-0.042163 0.176-0.044922 0.22667-0.044922 0.69141 1e-7 0.52869 0.0048702 0.58087 0.099609 1.1328v0.0019532l0.013672 0.074219c0.48752-0.057115 0.91338-0.099574 1.1836-0.11523l0.23633-0.013672-0.0039063 0.0078126c0.57402-0.73537 1.387-1.5793 2.0254-2.0918 0.60595-0.4858 1.1743-0.81765 1.6992-0.98828 0.52431-0.17043 1.0163-0.17688 1.4277 0.021484 0.46881 0.22453 0.75783 0.69779 0.86328 1.3203 0.03776 0.22559 0.037001 0.54522 0.019531 0.85742-0.017509 0.3122-0.041747 0.586-0.11719 0.78125-0.07842 0.20414-0.26826 0.28906-0.46484 0.28906-0.10041 0-0.23375-0.053631-0.3125-0.125-0.040851-0.035027-0.09724-0.085918-0.125-0.16211-0.02852-0.078481-0.023437-0.13435-0.023437-0.19727 0-0.10952 0.019828-0.29926 0.042968-0.48438 0.063374-0.4914 0.005238-0.95943-0.097656-1.1641-0.047129-0.08836-0.17758-0.21534-0.23438-0.24219-0.0022-0.0011-0.005512-7.731e-4 -0.007812-0.0019531-0.03476-0.017768-0.03433-0.019338-0.0625-0.023438-0.028167-0.00409-0.087375-0.0058593-0.19141-0.0058593-0.22292 0-0.20391-0.0034884-0.41992 0.072266h-0.001954c-0.63745 0.21806-1.4107 0.76405-2.248 1.6152-0.14816 0.15006-0.35882 0.37822-0.49219 0.53125 2.9106 0.10334 5.3809 0.74562 6.6133 1.8516 0.29992 0.27004 0.54846 0.63961 0.63086 0.99023 0.04857 0.20218 0.050233 0.45519 0.001953 0.66211v0.0019531c-0.14945 0.65994-0.81123 1.2159-1.7227 1.5762-0.072032 0.02843-0.12407 0.048244-0.19336 0.058594-0.069284 0.01035-0.14308-0.001675-0.19141-0.015625h-0.001953c-0.20252-0.061637-0.35547-0.25318-0.35547-0.4707 0-0.10618 0.042406-0.24068 0.12891-0.32812 0.086505-0.087441 0.18783-0.13651 0.32227-0.19336 0.50948-0.21362 0.89472-0.52702 1.0098-0.74805 0.001099-0.00173 8.53e-4 -0.0041694 0.001953-0.0058594 0.04878-0.089077 0.037109-0.043235 0.037109-0.20703 0-0.16754 0.013759-0.11304-0.050781-0.23438-7e-4 -0.00114-0.001394-0.0027563-0.001953-0.0039063-0.05237-0.10219-0.3755-0.4475-0.60547-0.59961-1.2301-0.81208-3.6617-1.3809-6.1035-1.3809h-0.29688l-0.089844 0.11719v0.0019531c-0.21931 0.2976-0.72598 1.0651-0.91406 1.3887l-0.11719 0.20508 0.074219 0.17578c0.59624 1.3676 1.3585 2.6309 2.1367 3.6035 0.7772 0.97136 1.5806 1.6444 2.1953 1.8535h0.001954c0.2696 0.08731 0.43066 0.079747 0.54492 0.023437 0.11864-0.058224 0.21167-0.15935 0.28906-0.3457 0.07739-0.18635 0.12939-0.45461 0.14258-0.80273 0.042701-1.1641-0.38543-2.8358-1.1953-4.5625-0.044714-0.094888-0.080716-0.18148-0.10742-0.25391-0.026705-0.072426-0.048828-0.11461-0.048828-0.21289 0-0.26724 0.22887-0.47865 0.49219-0.47656 0.095719 4.375e-4 0.22212 0.032281 0.30664 0.10938 0.085088 0.077615 0.12978 0.16803 0.18555 0.28516 0.67402 1.4103 1.1259 2.8269 1.2969 4.0762 0.0599 0.4481 0.065787 1.245-0.001954 1.6152-0.094799 0.50591-0.27043 0.89645-0.54883 1.1797l-0.001953 0.001953c-0.30705 0.30696-0.73904 0.41241-1.1855 0.37891-0.046814-0.00463-0.085895-0.010425-0.14062-0.015625-1.1537-0.20327-2.4809-1.3994-3.709-3.2227-0.47949-0.71288-0.94426-1.5647-1.291-2.3105-0.009288 0.019923-0.015771 0.031873-0.025391 0.052734-0.098213 0.21299-0.2128 0.4702-0.28906 0.6582-0.26004 0.63991-0.43829 1.2453-0.54102 1.8242l-0.0019531 0.001953c-0.030234 0.16343-0.049021 0.43282-0.050781 0.67969-0.0017619 0.24687 0.022106 0.49306 0.037109 0.54688 0.064192 0.22849 0.15719 0.36099 0.26367 0.43359 0.10648 0.072639 0.24212 0.10061 0.45312 0.064453 0.31292-0.052965 0.72707-0.23132 1.1719-0.5332 0.10453-0.07112 0.17345-0.11667 0.24414-0.15039 0.070684-0.03372 0.15289-0.052735 0.21484-0.052735 0.19942 1e-6 0.39375 0.14211 0.46094 0.32813 0.03365 0.092997 0.034309 0.24158 0 0.33203-0.023442 0.061812-0.074872 0.13534-0.13477 0.18945-0.059895 0.054112-0.13011 0.1021-0.24023 0.17578-0.32372 0.22029-0.82246 0.476-1.127 0.57422-0.7324 0.23486-1.3802 0.14773-1.8203-0.29297-0.40783-0.41039-0.55449-1.0448-0.50781-1.8633 0.057664-1.0742 0.52533-2.4846 1.2441-3.873l0.13086-0.25586-0.10156-0.27148c-0.068383-0.18271-0.16209-0.47314-0.24219-0.72852-0.040048-0.12769-0.075088-0.24541-0.10156-0.33789-7.65e-4 -0.00266-0.0012068-0.0051925-0.0019532-0.0078125-0.055109 0.011242-0.091713 0.016788-0.19922 0.042969-0.76425 0.187-1.3177 0.42466-1.6992 0.71094-0.18523 0.13922-0.2984 0.27643-0.35352 0.39453-0.055118 0.1181-0.061047 0.2174-0.023438 0.33789 0.075252 0.24097 0.38808 0.56788 0.97852 0.90039v0.0019532c0.10586 0.060692 0.19124 0.1126 0.25977 0.20312 0.068527 0.09053 0.089844 0.20917 0.089844 0.30469 0 0.051513-0.0064402 0.11701-0.035156 0.17969-0.028714 0.06268-0.067258 0.10437-0.10547 0.14258-0.096472 0.096479-0.27817 0.16568-0.43359 0.13086-0.15542-0.034826-0.2968-0.11853-0.50977-0.25h-0.0019531c-0.62622-0.39-1.049-0.84488-1.2051-1.3652-0.072031-0.23984-0.070927-0.53881 0-0.7793 0.079487-0.27306 0.22839-0.50378 0.46094-0.73633 0.52676-0.53082 1.3638-0.91254 2.4824-1.168 0.0359-0.0081811 0.037892-0.0090251 0.064453-0.015625-0.007386-0.037244-0.015548-0.071313-0.023438-0.11328v-0.0019531c-0.15396-0.82707-0.16483-1.7463-0.0039063-2.3223 0.17728-0.62864 0.53732-1.0613 1.0762-1.2461 0.1414-0.047629 0.30083-0.057585 0.47266-0.052734zm0.10352 4.4707c-0.10304 0.0096177-0.19704 0.015804-0.29688 0.027344-0.050898 0.005883-0.085703 0.011928-0.12891 0.017578 0.027266 0.099622 0.068663 0.23722 0.125 0.41211 0.086137-0.13754 0.20083-0.3108 0.30078-0.45703zm2.584 1.1094c0.55047 0 1 0.45197 1 1.002 1e-7 0.54996-0.45003 1.002-1 1.002-0.54999 0-1-0.45224-1-1.002s0.44956-1.002 1-1.002z" fill="#aaaaaa" style="paint-order:fill markers stroke"/>
</svg>
