<svg xmlns="http://www.w3.org/2000/svg" width="16" height="16" version="1"><path d="M7.193 0c-.63 0-1.959 2.705-1.959 2.705S2.51.828 2.1 1.06c-.362.206-.2 3.227-.2 3.227L5.547 7 0 9a7 7 0 0 0 7 7 6.964 6.964 0 0 0 3.885-1.182c1.956.641 4.513 1.397 4.726 1.123.056-.071.001-.235-.095-.476.161-.251.597-.992.457-1.235-.117-.199-.806-.207-1.221-.201-.07-.115-.128-.221-.201-.34.21-.389.571-1.103.424-1.355-.154-.262-1.087-.307-1.506-.32l-.117-.178c.326-.24 1.628-1.204 1.685-1.533.068-.39-1.594-1.795-1.594-1.795S15.146 5.646 15 5.3C14.817 4.867 12.201 5 12.201 5s.977-2.708.574-2.963c-.338-.214-3.832.664-3.832.664S7.82 0 7.193 0z" opacity=".3" fill="#aaaaaa"/><path d="M.084 10.01c.018.083.045.153.068.23.332 1.082 1.196 1.518 1.196 1.518.209.169.47.341.771.512h-.025s.632 3.758 1.789 3.73c.875-.022 1.559-2.035 2.672-2 1.111.035 1.562 1.988 2.668 2 .638.007 1.194-1.109 1.545-2h.33c1.051.979 3.443 1.629 4.478 1.967.014-.008.033.033.033.033.232-.297-1.215-2.647-2.226-4.156A6.966 6.966 0 0 0 14 9a7 7 0 0 0-7-7C3.394 2 .506 4.755.068 8.08A5.157 5.157 0 0 0 0 9c.004.364.033.69.084 1.01zM3 6h1v1H3z" fill="#aaaaaa"/></svg>