<svg width="16" height="16" version="1.1" xmlns="http://www.w3.org/2000/svg">
 <path d="m8 0a8 8 0 0 0-8 8 8 8 0 0 0 8 8 8 8 0 0 0 8-8 8 8 0 0 0-8-8zm0 2a6 6 0 0 1 4.4727 2h-4.4727a4 4 0 0 0-3.459 2.0098l-1.0918-1.8926a6 6 0 0 1 4.5508-2.1172zm0 4a2 2 0 0 1 2 2 2 2 0 0 1-2 2 2 2 0 0 1-2-2 2 2 0 0 1 2-2zm3.4629 0h2.1953a6 6 0 0 1 0.3418 2 6 6 0 0 1-4.7598 5.8535l2.2246-3.8535-0.007813-0.0039062a4 4 0 0 0 0.54297-1.9961 4 4 0 0 0-0.53711-2zm-9.1621 0.12891 2.2344 3.8711 0.0078126-0.0039062a4 4 0 0 0 3.457 2.0039l-1.0898 1.8887a6 6 0 0 1-4.9102-5.8887 6 6 0 0 1 0.30078-1.8711z" fill="#aaaaaa" fill-rule="evenodd" stop-color="#000000" stroke-linecap="round" stroke-linejoin="round" stroke-width="2" style="paint-order:stroke fill markers"/>
</svg>
