<svg width="16" height="16" version="1.1" xmlns="http://www.w3.org/2000/svg">
 <path d="m8 5c1.1 0 2 0.9 2 2s-0.9 2-2 2v1h-1v-2h1c0.55 0 1-0.45 1-1s-0.45-1-1-1-1 0.45-1 1h-1c0-1.1 0.9-2 2-2zm-1 6h1v1h-1z" fill="#aaaaaa"/>
 <path d="m3 0a1.0001 1.0001 0 0 0-1 1v14a1.0001 1.0001 0 0 0 1 1h10a1.0001 1.0001 0 0 0 1-1v-10a1.0001 1.0001 0 0 0-0.19922-0.59961l-3-4a1.0001 1.0001 0 0 0-0.80078-0.40039zm1 2h5.5l2.5 3.334v8.666h-8z" color="#000000" fill="#aaaaaa" stroke-linecap="round" stroke-linejoin="round" style="-inkscape-stroke:none"/>
</svg>
