<svg width="16" height="16" enable-background="new" version="1.1" xmlns="http://www.w3.org/2000/svg">
 <path d="m2 1c-1.108 0-2 0.892-2 2v10c0 1.108 0.892 2 2 2h12c1.108 0 2-0.892 2-2v-10c0-1.108-0.892-2-2-2zm0 2h12v10h-12z" fill="#aaaaaa" fill-rule="evenodd" stop-color="#000000" stroke-linecap="round" stroke-linejoin="round" stroke-width="2" style="paint-order:stroke fill markers"/>
 <rect x="3" y="4" width="2" height="2" rx="0" ry="0" fill="#aaaaaa" fill-rule="evenodd" stop-color="#000000" stroke-linecap="round" stroke-linejoin="round" stroke-width="2" style="paint-order:stroke fill markers"/>
 <rect x="6" y="4" width="2" height="2" rx="0" ry="0" fill="#aaaaaa" fill-rule="evenodd" stop-color="#000000" stroke-linecap="round" stroke-linejoin="round" stroke-width="2" style="paint-order:stroke fill markers"/>
 <rect x="9" y="4" width="2" height="2" rx="0" ry="0" fill="#aaaaaa" fill-rule="evenodd" stop-color="#000000" stroke-linecap="round" stroke-linejoin="round" stroke-width="2" style="paint-order:stroke fill markers"/>
 <rect x="12" y="4" width="1" height="2" rx="0" ry="0" fill="#aaaaaa" fill-rule="evenodd" stop-color="#000000" stroke-linecap="round" stroke-linejoin="round" stroke-width="1.4142" style="paint-order:stroke fill markers"/>
 <rect x="3" y="7" width="1" height="2" rx="0" ry="0" fill="#aaaaaa" fill-rule="evenodd" stop-color="#000000" stroke-linecap="round" stroke-linejoin="round" stroke-width="1.4142" style="paint-order:stroke fill markers"/>
 <rect x="5" y="7" width="2" height="2" rx="0" ry="0" fill="#aaaaaa" fill-rule="evenodd" stop-color="#000000" stroke-linecap="round" stroke-linejoin="round" stroke-width="2" style="paint-order:stroke fill markers"/>
 <rect x="8" y="7" width="2" height="2" rx="0" ry="0" fill="#aaaaaa" fill-rule="evenodd" stop-color="#000000" stroke-linecap="round" stroke-linejoin="round" stroke-width="2" style="paint-order:stroke fill markers"/>
 <rect x="11" y="7" width="2" height="2" rx="0" ry="0" fill="#aaaaaa" fill-rule="evenodd" stop-color="#000000" stroke-linecap="round" stroke-linejoin="round" stroke-width="2" style="paint-order:stroke fill markers"/>
 <rect x="5" y="10" width="6" height="2" rx="0" ry="0" fill="#aaaaaa" fill-rule="evenodd" stop-color="#000000" stroke-linecap="round" stroke-linejoin="round" stroke-width="3.4641" style="paint-order:stroke fill markers"/>
</svg>
