<svg width="16" height="16" version="1.1" viewBox="0 0 4.2333 4.2333" xmlns="http://www.w3.org/2000/svg" xmlns:xlink="http://www.w3.org/1999/xlink">
 <path transform="scale(.26458)" d="m6 4c-1.108 0-2 0.892-2 2v4c0 1.108 0.892 2 2 2h6c1.108 0 2-0.892 2-2v-4c0-1.108-0.892-2-2-2zm-2 4-2-2v4zm4.9473-3h0.00195c0.016927-1.433e-4 0.033854-1.433e-4 0.050781 0 1.6569 0 3 1.3431 3 3s-1.3431 3-3 3c-1.6569 0-3-1.3431-3-3-2.525e-4 -1.6365 1.3111-2.9713 2.9473-3zm0.00391 1c-1.0855 0.026493-1.9515 0.91421-1.9512 2 0 1.1046 0.89543 2 2 2 1.1046 0 2-0.89543 2-2s-0.89543-2-2-2c-0.016275-1.987e-4 -0.032553-1.987e-4 -0.048828 0z" fill="#aaaaaa" stroke-linecap="round" stroke-linejoin="round" stroke-width=".80126"/>
 <path transform="scale(.26458)" d="m3 0c-1.662 2.9606e-16 -3 1.338-3 3v2h2v-2c0-0.554 0.446-1 1-1h2v-2h-2zm8 0v2h2c0.554 0 1 0.446 1 1v2h2v-2c0-1.662-1.338-3-3-3h-2zm-11 11v2c2.9606e-16 1.662 1.338 3 3 3h2v-2h-2c-0.554 0-1-0.446-1-1v-2h-2zm14 0v2c0 0.554-0.446 1-1 1h-2v2h2c1.662 0 3-1.338 3-3v-2h-2z" fill="#aaaaaa" stroke-linecap="square" style="paint-order:fill markers stroke"/>
</svg>
