<svg width="16px" height="16px" version="1.1" viewBox="0 0 16 16" xmlns="http://www.w3.org/2000/svg">
 <path d="m5.75 1c-0.41406 0-0.75 0.33594-0.75 0.75v4.5c0 0.41406 0.33594 0.75 0.75 0.75h0.19141l-1 2h-3.1914c-0.41406 0-0.75 0.33594-0.75 0.75v4.5c0 0.41406 0.33594 0.75 0.75 0.75h4.5c0.41406 0 0.75-0.33594 0.75-0.75v-4.5c0-0.41406-0.33594-0.75-0.75-0.75h-0.19141l1-2h1.8828l1 2h-0.19141c-0.41406 0-0.75 0.33594-0.75 0.75v4.5c0 0.41406 0.33594 0.75 0.75 0.75h4.5c0.41406 0 0.75-0.33594 0.75-0.75v-4.5c0-0.41406-0.33594-0.75-0.75-0.75h-3.1914l-1-2h0.19141c0.41406 0 0.75-0.33594 0.75-0.75v-4.5c0-0.41406-0.33594-0.75-0.75-0.75z" fill="#aaaaaa"/>
</svg>
