<svg width="16px" height="16px" version="1.1" viewBox="0 0 16 16" xmlns="http://www.w3.org/2000/svg">
 <path d="m2 0v1 6 9h2v-8h2.3828l0.72266 1.4473a1.0001 1.0001 0 0 0 0.89453 0.55273h5a1.0001 1.0001 0 0 0 1-1v-6a1.0001 1.0001 0 0 0-1-1h-3.3828l-0.72266-1.4473a1.0001 1.0001 0 0 0-0.89453-0.55273h-4-1-1zm2 2h3.3828l0.72266 1.4473a1.0001 1.0001 0 0 0 0.89453 0.55273h3v4h-3.3828l-0.72266-1.4473a1.0001 1.0001 0 0 0-0.89453-0.55273h-3v-4z" color="#000000" fill="#aaaaaa" stroke-linejoin="round"/>
</svg>
