<svg width="16" height="16" version="1.1" viewBox="0 0 16 16" xmlns="http://www.w3.org/2000/svg">
 <path d="m8 0.49606c0.50644 0 2.1392 4.2836 2.5489 4.5962 0.40972 0.31264 4.7932 0.61985 4.9497 1.1257 0.1565 0.50587-3.2179 3.4605-3.3744 3.9663-0.1565 0.50587 1.2855 4.9793 0.87578 5.292-0.40972 0.31264-4.4936-2.1449-5-2.1449-0.50644 0-4.5903 2.4575-5 2.1449-0.40972-0.31264 1.0323-4.7861 0.87578-5.292-0.1565-0.50587-3.5309-3.4605-3.3744-3.9663 0.1565-0.50587 4.54-0.81308 4.9497-1.1257 0.40972-0.31264 2.0425-4.5962 2.5489-4.5962z" fill="#aaaaaa"/>
</svg>
