<svg width="24" height="24" version="1.1" xmlns="http://www.w3.org/2000/svg">
 <defs>
  <style id="current-color-scheme" type="text/css">.ColorScheme-Text { color:#727272; } .ColorScheme-Highlight { color:#5294e2; }</style>
 </defs>
 <path class="ColorScheme-Text" d="m6 2c-1.108 0-2 0.892-2 2v16c0 1.108 0.892 2 2 2h12c1.108 0 2-0.892 2-2v-16c0-1.108-0.892-2-2-2zm0 2h12v16h-12z" fill="currentColor"/>
 <path class="ColorScheme-Text" d="m12 10c2.209 0 4 1.7909 4 4s-1.791 4-4 4h-4v-4c0-2.2091 1.7909-4 4-4zm0 2c-1.1046 0-2 0.8954-2 2s0.8954 2 2 2 2-0.8954 2-2-0.8954-2-2-2z" fill="currentColor"/>
</svg>
