<svg version="1.1" viewBox="0 0 24 24" xmlns="http://www.w3.org/2000/svg">
 <style id="current-color-scheme" type="text/css">.ColorScheme-Text {
            color:#727272;
        }</style>
 <path class="ColorScheme-Text" d="m4 4c-1.1 0-1.9902 0.9-1.9902 2l-0.0097656 10c0 1.1 0.9 2 2 2l3 3v-3h13c1.1 0 2-0.9 2-2v-10c0-1.1-0.9-2-2-2h-16zm0 2h16v10h-16zm1 1v2h2v-2zm3 0v2h2v-2zm3 0v2h2v-2zm3 0v2h2v-2zm3 0v2h2v-2zm-12 3v2h2v-2zm3 0v2h2v-2zm3 0v2h2v-2zm3 0v2h2v-2zm3 0v2h2v-2zm-9 3v2h8v-2z" fill="currentColor"/>
</svg>
