<svg version="1.1" viewBox="0 0 24 24" xmlns="http://www.w3.org/2000/svg">
 <defs>
  <style id="current-color-scheme" type="text/css">.ColorScheme-Text {
        color:#727272;
      }</style>
 </defs>
 <path class="ColorScheme-Text" d="m12 1.5c-5.5228 0-10 4.4772-10 10h2c0-4.4183 3.5817-8 8-8s8 3.5817 8 8h2c0-5.5228-4.4772-10-10-10zm0 6c-2.2091 0-4 1.7909-4 4h2c0-1.1046 0.89543-2 2-2 1.1046 0 2 0.89543 2 2h2c0-2.2091-1.7909-4-4-4zm-10 5v9h6l3-3v-6h-9zm14 0v4.1719a3 3 0 0 0-1-0.17188 3 3 0 0 0-3 3 3 3 0 0 0 3 3 3 3 0 0 0 3-3v-4h4v-3h-6zm-12 2h5v3.1719l-1.8281 1.8281h-3.1719zm11 4a1 1 0 0 1 1 1 1 1 0 0 1-1 1 1 1 0 0 1-1-1 1 1 0 0 1 1-1z" fill="currentColor"/>
</svg>
