<svg width="24" height="24" version="1.1" xmlns="http://www.w3.org/2000/svg">
 <defs>
  <style id="current-color-scheme" type="text/css">.ColorScheme-Text { color:#727272; } .ColorScheme-Highlight { color:#5294e2; }</style>
 </defs>
 <path class="ColorScheme-Text" fill="currentColor" d="m6 3v5h-1c-1.66 0-3 1.34-3 3v6h4v4h12v-4h4v-6c0-1.66-1.34-3-3-3h-1v-5zm2 2h8v3h-8zm-3 5h14c0.55 0 1 0.45 1 1v4h-2v-2h-12v2h-2v-4c0-0.55 0.45-1 1-1zm12.947 0.5c-0.52838 0.026782-0.94726 0.46496-0.94726 1 0 0.5523 0.4477 1 1 1s1-0.4477 1-1-0.4477-1-1-1c-0.01726 0-0.03569-8.64e-4 -0.05273 0zm-9.9473 4.5h8v4h-8z"/>
</svg>
