<?xml version="1.0" encoding="UTF-8" standalone="no"?>
<!-- Created with Inkscape (http://www.inkscape.org/) -->

<svg
   width="22"
   height="22"
   viewBox="0 0 5.8208332 5.8208335"
   version="1.1"
   id="svg5"
   inkscape:version="1.1.1 (3bf5ae0d25, 2021-09-20, custom)"
   sodipodi:docname="그리기.svg"
   xmlns:inkscape="http://www.inkscape.org/namespaces/inkscape"
   xmlns:sodipodi="http://sodipodi.sourceforge.net/DTD/sodipodi-0.dtd"
   xmlns="http://www.w3.org/2000/svg"
   xmlns:svg="http://www.w3.org/2000/svg">
  <sodipodi:namedview
     id="namedview7"
     pagecolor="#ffffff"
     bordercolor="#666666"
     borderopacity="1.0"
     inkscape:pageshadow="2"
     inkscape:pageopacity="0.0"
     inkscape:pagecheckerboard="0"
     inkscape:document-units="px"
     showgrid="false"
     units="px"
     width="22px"
     inkscape:zoom="24.46875"
     inkscape:cx="6.3959132"
     inkscape:cy="11.913155"
     inkscape:window-width="1920"
     inkscape:window-height="999"
     inkscape:window-x="0"
     inkscape:window-y="0"
     inkscape:window-maximized="1"
     inkscape:current-layer="svg5" />
  <defs
     id="defs2" />
  <path
     id="rect846"
     style="fill:#dedede;stroke:none;stroke-width:0.264583;stroke-linejoin:round;fill-opacity:1"
     d="m 2.6447998,0.79374999 c -0.070257,2.8707e-4 -0.1376674,0.0285814 -0.1870687,0.0785482 L 1.477946,1.8520833 H 0.52916666 c -0.14657917,0 -0.26458333,0.1180042 -0.26458333,0.2645833 v 1.5875 c 0,0.1465792 0.11800416,0.2645834 0.26458333,0.2645834 H 1.4805298 L 2.4577311,4.9475016 C 2.6241614,5.1166482 2.9117274,4.9982672 2.9104167,4.7609497 V 1.0578166 C 2.9100283,0.95082171 2.8450797,0.85445102 2.7460855,0.8139038 2.7138413,0.80054049 2.6797024,0.79368252 2.6447998,0.79374999 Z" />
  <path
     id="path9"
     style="fill:#dedede;stroke-width:1.19202;fill-opacity:1;opacity:0.35"
     d="M 16.84375 3 C 16.365177 2.9868969 16.025494 3.5640273 16.449219 4.0371094 A 9.5361396 9.5361396 0 0 1 19.482422 11 A 9.5361396 9.5361396 0 0 1 16.4375 17.974609 C 15.90586 18.53605 16.651709 19.344397 17.244141 18.84375 A 10.728158 10.728158 0 0 0 20.673828 11 A 10.728158 10.728158 0 0 0 17.263672 3.1660156 C 17.121561 3.054413 16.97775 3.0036689 16.84375 3 z M 13.537109 4.6894531 C 13.065518 4.7035337 12.770052 5.3260319 13.230469 5.7792969 A 7.1521051 7.1521051 0 0 1 15.505859 11 A 7.1521051 7.1521051 0 0 1 13.222656 16.230469 C 12.663601 16.762109 13.42885 17.597872 14.033203 17.099609 A 8.3441223 8.3441223 0 0 0 16.697266 11 A 8.3441223 8.3441223 0 0 0 14.046875 4.90625 C 13.871946 4.7468176 13.694307 4.6847596 13.537109 4.6894531 z "
     transform="scale(0.26458333)" />
</svg>
