<?xml version="1.0" encoding="UTF-8" standalone="no"?>
<!-- Created with Inkscape (http://www.inkscape.org/) -->

<svg
   width="22"
   height="22"
   viewBox="0 0 5.8208332 5.8208335"
   version="1.1"
   id="svg5"
   inkscape:version="1.1.1 (3bf5ae0d25, 2021-09-20, custom)"
   sodipodi:docname="bluetooth-paired.svg"
   xmlns:inkscape="http://www.inkscape.org/namespaces/inkscape"
   xmlns:sodipodi="http://sodipodi.sourceforge.net/DTD/sodipodi-0.dtd"
   xmlns="http://www.w3.org/2000/svg"
   xmlns:svg="http://www.w3.org/2000/svg">
  <sodipodi:namedview
     id="namedview7"
     pagecolor="#ffffff"
     bordercolor="#666666"
     borderopacity="1.0"
     inkscape:pageshadow="2"
     inkscape:pageopacity="0.0"
     inkscape:pagecheckerboard="0"
     inkscape:document-units="px"
     showgrid="false"
     units="px"
     height="22px"
     showguides="false"
     inkscape:zoom="43.500623"
     inkscape:cx="10.494103"
     inkscape:cy="10.999842"
     inkscape:window-width="1920"
     inkscape:window-height="999"
     inkscape:window-x="0"
     inkscape:window-y="0"
     inkscape:window-maximized="0"
     inkscape:current-layer="svg5" />
  <defs
     id="defs2" />
  <path
     id="path1958"
     style="fill:#dedede;stroke-width:3.78705;stroke-linejoin:round;-inkscape-stroke:none"
     d="M 10.384766 2 C 10.302682 2 10.221972 2.0203639 10.148438 2.0625 C 10.002268 2.1460873 9.9112107 2.2994964 9.9101562 2.4667969 L 9.9101562 10.164062 L 5.5117188 7.2402344 L 5.0214844 8.1171875 L 9.390625 11.017578 L 5 14.183594 L 5.5273438 15.037109 L 9.9101562 11.873047 L 9.9101562 19.523438 C 9.9063767 19.888445 10.304457 20.118481 10.623047 19.935547 L 16.753906 15.671875 C 17.081406 15.492778 17.081406 15.026753 16.753906 14.847656 L 11.351562 10.996094 L 16.753906 7.1445312 C 17.072596 6.9636166 17.072596 6.5070846 16.753906 6.3261719 L 10.623047 2.0625 C 10.549512 2.0203636 10.46685 1.9999998 10.384766 2 z M 10.861328 3.515625 L 15.558594 6.7382812 L 10.861328 10.015625 L 10.861328 3.515625 z M 3.4882812 9 C 3.4106267 9.0013421 3.3344842 9.0207351 3.265625 9.0566406 C 3.1015519 9.1436518 2.9993824 9.3143912 3 9.5 L 3 12.501953 C 3.0011093 12.90274 3.4495815 13.137494 3.78125 12.912109 L 5.78125 11.414062 C 6.0724286 11.215575 6.0724286 10.786376 5.78125 10.587891 L 3.78125 9.0878906 C 3.6951183 9.0287372 3.5927852 8.997978 3.4882812 9 z M 17.472656 9 C 17.381848 9.0053392 17.294115 9.0361314 17.21875 9.0878906 L 15.21875 10.587891 C 14.927571 10.786376 14.927571 11.215575 15.21875 11.414062 L 17.21875 12.912109 C 17.550419 13.137494 17.998891 12.90274 18 12.501953 L 18 9.5 C 18.000618 9.3143912 17.898448 9.1436518 17.734375 9.0566406 C 17.665516 9.0207351 17.589373 9.0013421 17.511719 9 C 17.498656 8.9997472 17.485629 8.9992373 17.472656 9 z M 10.861328 12.015625 L 15.550781 15.259766 L 10.861328 18.515625 L 10.861328 12.015625 z "
     transform="scale(0.26458333)" />
</svg>
