<?xml version="1.0" encoding="UTF-8" standalone="no"?>
<!-- Created with Inkscape (http://www.inkscape.org/) -->

<svg
   width="22"
   height="22"
   viewBox="0 0 5.8208331 5.8208336"
   version="1.1"
   id="svg11945"
   inkscape:version="1.1.1 (3bf5ae0d25, 2021-09-20, custom)"
   sodipodi:docname="mintupdate-installing.svg"
   xmlns:inkscape="http://www.inkscape.org/namespaces/inkscape"
   xmlns:sodipodi="http://sodipodi.sourceforge.net/DTD/sodipodi-0.dtd"
   xmlns="http://www.w3.org/2000/svg"
   xmlns:svg="http://www.w3.org/2000/svg">
  <sodipodi:namedview
     id="namedview11947"
     pagecolor="#ffffff"
     bordercolor="#666666"
     borderopacity="1.0"
     inkscape:pageshadow="2"
     inkscape:pageopacity="0.0"
     inkscape:pagecheckerboard="0"
     inkscape:document-units="px"
     showgrid="false"
     units="in"
     inkscape:zoom="16"
     inkscape:cx="-3.59375"
     inkscape:cy="11.96875"
     inkscape:window-width="1920"
     inkscape:window-height="999"
     inkscape:window-x="0"
     inkscape:window-y="0"
     inkscape:window-maximized="1"
     inkscape:current-layer="svg11945"
     showguides="true" />
  <defs
     id="defs11942" />
  <path
     id="rect923"
     style="fill:#dedede;stroke-width:1.05833;stroke-linecap:round;stroke-linejoin:round"
     d="m 1.0583333,1.3229167 c -0.29315834,0 -0.52916663,0.2360083 -0.52916663,0.5291666 v 2.116619 c 0,0.2931584 0.23600829,0.5291667 0.52916663,0.5291667 h 3.7041666 c 0.2931584,0 0.5291667,-0.2360083 0.5291667,-0.5291667 v -2.116619 c 0,-0.2931583 -0.2360083,-0.5291666 -0.5291667,-0.5291666 z M 2.9036987,1.5875 c 0.00226,-1.139e-4 0.00443,0 0.00672,0 0.07329,0 0.1322917,0.059002 0.1322917,0.1322917 V 3.6493421 L 3.8297072,2.8623907 c 0.051824,-0.051824 0.1352447,-0.051824 0.1870689,0 0.051824,0.051823 0.051825,0.1352458 0,0.1870686 L 2.9104166,4.155771 1.8040573,3.0494593 c -0.051824,-0.051824 -0.051824,-0.1352446 0,-0.1870686 0.051823,-0.051824 0.1352431,-0.051823 0.1870687,0 L 2.778125,3.6493421 V 1.7197917 c 0,-0.071 0.055482,-0.1287617 0.1255737,-0.1322917 z"
     sodipodi:nodetypes="ssssssssssssccssccsscss" />
</svg>
