<?xml version="1.0" encoding="UTF-8" standalone="no"?>
<!-- Created with Inkscape (http://www.inkscape.org/) -->

<svg
   width="22"
   height="22"
   viewBox="0 0 5.8208331 5.8208336"
   version="1.1"
   id="svg11945"
   inkscape:version="1.1.1 (3bf5ae0d25, 2021-09-20, custom)"
   sodipodi:docname="mintupdate-up-to-date.svg"
   xmlns:inkscape="http://www.inkscape.org/namespaces/inkscape"
   xmlns:sodipodi="http://sodipodi.sourceforge.net/DTD/sodipodi-0.dtd"
   xmlns="http://www.w3.org/2000/svg"
   xmlns:svg="http://www.w3.org/2000/svg">
  <sodipodi:namedview
     id="namedview11947"
     pagecolor="#ffffff"
     bordercolor="#666666"
     borderopacity="1.0"
     inkscape:pageshadow="2"
     inkscape:pageopacity="0.0"
     inkscape:pagecheckerboard="0"
     inkscape:document-units="px"
     showgrid="false"
     units="in"
     inkscape:zoom="16"
     inkscape:cx="-4.21875"
     inkscape:cy="9.84375"
     inkscape:window-width="1920"
     inkscape:window-height="999"
     inkscape:window-x="0"
     inkscape:window-y="0"
     inkscape:window-maximized="1"
     inkscape:current-layer="svg11945"
     showguides="true" />
  <defs
     id="defs11942" />
  <path
     id="rect923"
     style="fill:#dedede;stroke-width:1.05833;stroke-linecap:round;stroke-linejoin:round"
     d="m 1.0583333,1.3229167 c -0.29315834,0 -0.52916663,0.2360083 -0.52916663,0.5291667 v 2.1166667 c 0,0.2931583 0.23600829,0.5291666 0.52916663,0.5291666 h 3.7041666 c 0.2931584,0 0.5291667,-0.2360083 0.5291667,-0.5291666 V 1.8520834 c 0,-0.2931584 -0.2360083,-0.5291667 -0.5291667,-0.5291667 z m 3.3393189,0.4661855 c 0.033817,-5e-7 0.067622,0.013362 0.093534,0.039274 0.05182,0.051823 0.051824,0.1352447 0,0.1870687 L 2.5135295,3.993102 1.3296472,2.8092178 c -0.051824,-0.051823 -0.051824,-0.1352447 0,-0.1870687 0.051823,-0.051823 0.1352437,-0.051822 0.1870687,0 L 2.5135295,3.6189648 4.3041178,1.8283763 c 0.025911,-0.025909 0.059718,-0.039273 0.093534,-0.039274 z"
     sodipodi:nodetypes="ssssssssssccccscccs" />
</svg>
