<?xml version="1.0" encoding="UTF-8" standalone="no"?>
<svg
   width="22"
   height="22"
   version="1.1"
   id="svg15"
   sodipodi:docname="nm-signal-75.svg"
   inkscape:version="1.1.1 (3bf5ae0d25, 2021-09-20, custom)"
   xmlns:inkscape="http://www.inkscape.org/namespaces/inkscape"
   xmlns:sodipodi="http://sodipodi.sourceforge.net/DTD/sodipodi-0.dtd"
   xmlns="http://www.w3.org/2000/svg"
   xmlns:svg="http://www.w3.org/2000/svg">
  <sodipodi:namedview
     id="namedview17"
     pagecolor="#ffffff"
     bordercolor="#666666"
     borderopacity="1.0"
     inkscape:pageshadow="2"
     inkscape:pageopacity="0.0"
     inkscape:pagecheckerboard="0"
     showgrid="false"
     inkscape:zoom="16"
     inkscape:cx="-0.59375"
     inkscape:cy="5.03125"
     inkscape:window-width="1920"
     inkscape:window-height="999"
     inkscape:window-x="0"
     inkscape:window-y="0"
     inkscape:window-maximized="1"
     inkscape:current-layer="svg15" />
  <defs
     id="defs3">
    <style
       id="current-color-scheme"
       type="text/css">
   .ColorScheme-Text { color:#dedede; } .ColorScheme-Highlight { color:#4285f4; }
  </style>
  </defs>
  <path
     d="M 11,4 C 7.3288521,4 3.9782833,5.3017063 1.3231644,7.4358842 A 0.64632885,0.64632885 0 0 0 1.1990693,7.5289555 0.64632885,0.64632885 0 0 0 1,7.9943123 0.64632885,0.64632885 0 0 0 1.6463289,8.6406411 0.64632885,0.64632885 0 0 0 2.057394,8.4945708 14.114529,14.114529 0 0 1 11,5.2926577 c 3.397104,0 6.49819,1.2125129 8.942606,3.2019131 A 0.64632885,0.64632885 0 0 0 20.353671,8.6406411 0.64632885,0.64632885 0 0 0 21,7.9943123 0.64632885,0.64632885 0 0 0 20.800931,7.5289555 0.64632885,0.64632885 0 0 0 20.676836,7.4358842 C 18.023009,5.302999 14.67244,4 11,4 Z"
     id="path5"
     style="color:#dedede;fill:#dedede;stroke-width:1.29266;opacity:0.35" />
  <path
     id="path7"
     style="color:#dedede;fill:#dedede;stroke-width:1.29266"
     d="M 11 7.8789062 A 11.527921 11.527921 0 0 0 3.90625 10.330078 A 0.64632885 0.64632885 0 0 0 3.7734375 10.425781 A 0.64632885 0.64632885 0 0 0 3.5722656 10.892578 A 0.64632885 0.64632885 0 0 0 4.21875 11.539062 A 0.64632885 0.64632885 0 0 0 4.6328125 11.390625 A 10.258532 10.258532 0 0 1 11 9.1699219 C 13.408221 9.1699219 15.610466 10.008774 17.367188 11.390625 A 0.64632885 0.64632885 0 0 0 17.78125 11.539062 A 0.64632885 0.64632885 0 0 0 18.427734 10.892578 A 0.64632885 0.64632885 0 0 0 18.226562 10.425781 A 0.64632885 0.64632885 0 0 0 18.09375 10.328125 A 11.529214 11.529214 0 0 0 11 7.8789062 z M 11 11.755859 C 9.2510341 11.755859 7.66177 12.362595 6.3652344 13.339844 A 0.65537745 0.65537745 0 0 0 6.1464844 13.835938 A 0.64632885 0.64632885 0 0 0 7.2285156 14.314453 C 8.2910802 13.533688 9.5806618 13.048828 11 13.048828 C 12.419338 13.048828 13.70892 13.533688 14.771484 14.314453 A 0.64632885 0.64632885 0 0 0 15.853516 13.835938 A 0.65537745 0.65537745 0 0 0 15.634766 13.339844 C 14.338231 12.362595 12.748966 11.755859 11 11.755859 z M 11 15.634766 A 1.2926577 1.2926577 0 0 0 9.7070312 16.925781 A 1.2926577 1.2926577 0 0 0 11 18.21875 A 1.2926577 1.2926577 0 0 0 12.292969 16.925781 A 1.2926577 1.2926577 0 0 0 11 15.634766 z " />
</svg>
