<?xml version="1.0" encoding="UTF-8" standalone="no"?>
<!-- Created with Inkscape (http://www.inkscape.org/) -->

<svg
   width="22"
   height="22"
   viewBox="0 0 5.8208332 5.8208335"
   version="1.1"
   id="svg5"
   inkscape:version="1.1.1 (3bf5ae0d25, 2021-09-20, custom)"
   sodipodi:docname="phone-battery-low.svg"
   xmlns:inkscape="http://www.inkscape.org/namespaces/inkscape"
   xmlns:sodipodi="http://sodipodi.sourceforge.net/DTD/sodipodi-0.dtd"
   xmlns="http://www.w3.org/2000/svg"
   xmlns:svg="http://www.w3.org/2000/svg">
  <sodipodi:namedview
     id="namedview7"
     pagecolor="#ffffff"
     bordercolor="#666666"
     borderopacity="1.0"
     inkscape:pageshadow="2"
     inkscape:pageopacity="0.0"
     inkscape:pagecheckerboard="0"
     inkscape:document-units="px"
     showgrid="false"
     units="px"
     height="22px"
     showguides="false"
     inkscape:zoom="27.68323"
     inkscape:cx="13.70866"
     inkscape:cy="13.166816"
     inkscape:window-width="1920"
     inkscape:window-height="999"
     inkscape:window-x="0"
     inkscape:window-y="0"
     inkscape:window-maximized="1"
     inkscape:current-layer="svg5" />
  <defs
     id="defs2" />
  <path
     id="rect846"
     style="fill:#dedede;fill-opacity:1;stroke-width:0.066146;stroke-linejoin:round;opacity:0.35"
     d="M 0.92604168,0.26458333 V 0.79375001 H 0.5291667 c -0.14657927,0 -0.26458337,0.11800415 -0.26458337,0.26458329 V 5.159375 c 0,0.2198687 0.17700625,0.396875 0.39687502,0.396875 H 2.2489583 c 0.2198688,0 0.396875,-0.1770063 0.396875,-0.396875 V 1.0583333 c 0,-0.14657914 -0.074284,-0.26174998 -0.2645833,-0.26458329 H 1.984375 V 0.26458333 Z"
     sodipodi:nodetypes="ccssssssscccc" />
  <path
     id="rect942"
     style="fill:#dedede;fill-opacity:1;stroke-width:0.999999;stroke-linejoin:round"
     d="M 13 1 C 11.892 1 11 1.8920001 11 3 L 11 19 C 11 20.108 11.892 21 13 21 L 19 21 C 20.108 21 21 20.108 21 19 L 21 3 C 21 1.8920001 20.108 1 19 1 L 13 1 z M 14.474609 19 C 14.483155 18.99957 14.491344 19 14.5 19 L 17.5 19 C 17.777 19 18 19.223 18 19.5 C 18 19.777 17.777 20 17.5 20 L 14.5 20 C 14.223 20 14 19.777 14 19.5 C 14 19.231656 14.209695 19.013342 14.474609 19 z "
     transform="scale(0.26458333)" />
  <path
     id="rect844"
     style="fill:#dedede;stroke-width:0.813075;stroke-linejoin:round"
     d="m 1,13 v 6.5 C 1,20.331 1.6690002,21 2.5,21 h 6 C 9.3310002,21 10,20.331 10,19.5 V 13 Z"
     transform="scale(0.26458333)"
     sodipodi:nodetypes="csssscc" />
</svg>
