<?xml version="1.0" encoding="UTF-8" standalone="no"?>
<svg
   viewbox="0 0 200 200"
   version="1.1"
   id="svg4"
   sodipodi:docname="preferences-devices-scanner.svg"
   width="64"
   height="64"
   inkscape:version="1.1.1 (3bf5ae0d25, 2021-09-20, custom)"
   xmlns:inkscape="http://www.inkscape.org/namespaces/inkscape"
   xmlns:sodipodi="http://sodipodi.sourceforge.net/DTD/sodipodi-0.dtd"
   xmlns="http://www.w3.org/2000/svg"
   xmlns:svg="http://www.w3.org/2000/svg">
  <defs
     id="defs8" />
  <sodipodi:namedview
     id="namedview6"
     pagecolor="#ffffff"
     bordercolor="#666666"
     borderopacity="1.0"
     inkscape:pageshadow="2"
     inkscape:pageopacity="0.0"
     inkscape:pagecheckerboard="0"
     showgrid="false"
     inkscape:zoom="5.6568542"
     inkscape:cx="52.767844"
     inkscape:cy="32.703689"
     inkscape:window-width="1920"
     inkscape:window-height="1006"
     inkscape:window-x="0"
     inkscape:window-y="0"
     inkscape:window-maximized="1"
     inkscape:current-layer="svg4"
     showguides="true" />
  <path
     d="M 2,32 C 2,10.4 10.4,2 32,2 53.6,2 62,10.4 62,32 62,53.6 53.6,62 32,62 10.4,62 2,53.6 2,32"
     id="path2"
     style="stroke-width:0.3;fill:#9497ae;fill-opacity:1;stroke:none" />
  <path
     id="rect1527"
     style="fill:#ffffff;stroke-width:1.05555;stroke-linecap:round;stroke-linejoin:round"
     d="M 19 13 C 15.676 13 13 15.676 13 19 L 13 27 L 51 27 L 51 19 C 51 15.676 48.324 13 45 13 L 19 13 z M 9 30 C 7.892 30 7 30.892 7 32 C 7 33.108 7.892 34 9 34 L 55 34 C 56.108 34 57 33.108 57 32 C 57 30.892 56.108 30 55 30 L 9 30 z M 13 37 L 13 45 C 13 48.324 15.676 51 19 51 L 45 51 C 48.324 51 51 48.324 51 45 L 51 37 L 13 37 z " />
</svg>
