<?xml version="1.0" encoding="UTF-8" standalone="no"?>
<svg
   viewbox="0 0 200 200"
   version="1.1"
   id="svg4"
   sodipodi:docname="preferences-desktop-display.svg"
   width="64"
   height="64"
   inkscape:version="1.1.1 (3bf5ae0d25, 2021-09-20, custom)"
   xmlns:inkscape="http://www.inkscape.org/namespaces/inkscape"
   xmlns:sodipodi="http://sodipodi.sourceforge.net/DTD/sodipodi-0.dtd"
   xmlns="http://www.w3.org/2000/svg"
   xmlns:svg="http://www.w3.org/2000/svg">
  <defs
     id="defs8" />
  <sodipodi:namedview
     id="namedview6"
     pagecolor="#ffffff"
     bordercolor="#666666"
     borderopacity="1.0"
     inkscape:pageshadow="2"
     inkscape:pageopacity="0.0"
     inkscape:pagecheckerboard="0"
     showgrid="false"
     inkscape:zoom="6.4416667"
     inkscape:cx="11.177232"
     inkscape:cy="31.125485"
     inkscape:window-width="1920"
     inkscape:window-height="996"
     inkscape:window-x="0"
     inkscape:window-y="0"
     inkscape:window-maximized="1"
     inkscape:current-layer="svg4"
     showguides="true" />
  <path
     d="M 2,32 C 2,10.4 10.4,2 32,2 53.6,2 62,10.4 62,32 62,53.6 53.6,62 32,62 10.4,62 2,53.6 2,32"
     id="path2"
     style="stroke-width:0.3;fill:#a0cf1d;fill-opacity:1" />
  <path
     id="rect1034"
     style="fill:#ffffff;fill-opacity:1;stroke-width:4;stroke-linecap:round;stroke-linejoin:round"
     d="M 32 8 C 30.892 8 30 8.892 30 10 L 30 13 C 30 14.108 30.892 15 32 15 C 33.108 15 34 14.108 34 13 L 34 10 C 34 8.892 33.108 8 32 8 z M 16.443359 14.441406 C 15.932121 14.441406 15.421034 14.63756 15.029297 15.029297 C 14.245823 15.812772 14.245823 17.073948 15.029297 17.857422 L 17.150391 19.978516 C 17.933865 20.76199 19.195041 20.76199 19.978516 19.978516 C 20.76199 19.195041 20.76199 17.933865 19.978516 17.150391 L 17.857422 15.029297 C 17.465685 14.63756 16.954598 14.441406 16.443359 14.441406 z M 47.556641 14.441406 C 47.045403 14.441406 46.534315 14.63756 46.142578 15.029297 L 44.021484 17.150391 C 43.23801 17.933865 43.23801 19.195041 44.021484 19.978516 C 44.804959 20.76199 46.066135 20.76199 46.849609 19.978516 L 48.970703 17.857422 C 49.754177 17.073948 49.754177 15.812772 48.970703 15.029297 C 48.578966 14.63756 48.067879 14.441406 47.556641 14.441406 z M 32 18 A 14 14 0 0 0 18 32 A 14 14 0 0 0 32 46 A 14 14 0 0 0 46 32 A 14 14 0 0 0 32 18 z M 10 30 C 8.8920004 30 8.0000008 30.892 8 32 C 8.0000008 33.108 8.8920004 34 10 34 L 13 34 C 14.108 34 15 33.108 15 32 C 15 30.892 14.108 30 13 30 L 10 30 z M 51 30 C 49.892 30 49 30.892 49 32 C 49 33.108 49.892 34 51 34 L 54 34 C 55.108 34 56 33.108 56 32 C 56 30.892 55.108 30 54 30 L 51 30 z M 18.564453 43.433594 C 18.053215 43.433594 17.542128 43.629747 17.150391 44.021484 L 15.029297 46.142578 C 14.245823 46.926052 14.245824 48.187228 15.029297 48.970703 C 15.812772 49.754176 17.073948 49.754177 17.857422 48.970703 L 19.978516 46.849609 C 20.76199 46.066135 20.76199 44.804959 19.978516 44.021484 C 19.586778 43.629747 19.075691 43.433594 18.564453 43.433594 z M 45.435547 43.433594 C 44.924309 43.433594 44.413222 43.629747 44.021484 44.021484 C 43.23801 44.804959 43.23801 46.066135 44.021484 46.849609 L 46.142578 48.970703 C 46.926052 49.754177 48.187228 49.754176 48.970703 48.970703 C 49.754176 48.187228 49.754177 46.926052 48.970703 46.142578 L 46.849609 44.021484 C 46.457872 43.629747 45.946785 43.433594 45.435547 43.433594 z M 32 49 C 30.892 49 30 49.892 30 51 L 30 54 C 30 55.108 30.892 56 32 56 C 33.108 56 34 55.108 34 54 L 34 51 C 34 49.892 33.108 49 32 49 z " />
</svg>
