<?xml version="1.0" encoding="UTF-8" standalone="no"?>
<svg
   viewbox="0 0 200 200"
   version="1.1"
   id="svg4"
   sodipodi:docname="preferences-system-network-firewall.svg"
   width="64"
   height="64"
   inkscape:version="1.1.1 (3bf5ae0d25, 2021-09-20, custom)"
   xmlns:inkscape="http://www.inkscape.org/namespaces/inkscape"
   xmlns:sodipodi="http://sodipodi.sourceforge.net/DTD/sodipodi-0.dtd"
   xmlns="http://www.w3.org/2000/svg"
   xmlns:svg="http://www.w3.org/2000/svg">
  <defs
     id="defs8" />
  <sodipodi:namedview
     id="namedview6"
     pagecolor="#ffffff"
     bordercolor="#666666"
     borderopacity="1.0"
     inkscape:pageshadow="2"
     inkscape:pageopacity="0.0"
     inkscape:pagecheckerboard="0"
     showgrid="false"
     inkscape:zoom="6.4416667"
     inkscape:cx="8.9262613"
     inkscape:cy="48.35705"
     inkscape:window-width="1920"
     inkscape:window-height="1011"
     inkscape:window-x="0"
     inkscape:window-y="0"
     inkscape:window-maximized="1"
     inkscape:current-layer="svg4"
     showguides="true" />
  <path
     d="M 2,32 C 2,10.4 10.4,2 32,2 53.6,2 62,10.4 62,32 62,53.6 53.6,62 32,62 10.4,62 2,53.6 2,32"
     id="path2"
     style="stroke-width:0.3;fill:#95c84f;fill-opacity:1" />
  <path
     id="rect975"
     style="fill:#ffffff;stroke-width:0.512805;stroke-linecap:round;stroke-linejoin:round"
     d="m 32.436943,11.000356 c -2.545717,-0.02557 -3.676944,1.329551 -7.122657,3.17033 C 22.845714,15.500139 19.142856,17.059488 14,17.928745 V 36.26014 c 0.771429,2.505506 2.674385,7.721049 7.560101,12.399696 3.90857,3.758259 8.022756,5.522039 10.439897,6.340164 2.417144,-0.84369 6.454186,-2.556339 10.31133,-6.212331 C 47.299899,44.083454 49.254285,38.790814 50,36.234176 V 17.928745 C 45.782855,17.391851 42.774385,16.164865 40.845814,15.193342 36.577243,13.0202 35.471227,11.000356 32.436943,11.000356 Z" />
</svg>
