<?xml version="1.0" encoding="UTF-8" standalone="no"?>
<svg
   viewbox="0 0 200 200"
   version="1.1"
   id="svg4"
   sodipodi:docname="preferences-desktop-wallpaper.svg"
   width="64"
   height="64"
   inkscape:version="1.1.1 (3bf5ae0d25, 2021-09-20, custom)"
   xmlns:inkscape="http://www.inkscape.org/namespaces/inkscape"
   xmlns:sodipodi="http://sodipodi.sourceforge.net/DTD/sodipodi-0.dtd"
   xmlns="http://www.w3.org/2000/svg"
   xmlns:svg="http://www.w3.org/2000/svg">
  <defs
     id="defs8" />
  <sodipodi:namedview
     id="namedview6"
     pagecolor="#ffffff"
     bordercolor="#666666"
     borderopacity="1.0"
     inkscape:pageshadow="2"
     inkscape:pageopacity="0.0"
     inkscape:pagecheckerboard="0"
     showgrid="false"
     inkscape:zoom="12.078125"
     inkscape:cx="31.958603"
     inkscape:cy="32"
     inkscape:window-width="1920"
     inkscape:window-height="996"
     inkscape:window-x="0"
     inkscape:window-y="0"
     inkscape:window-maximized="1"
     inkscape:current-layer="svg4"
     showguides="true" />
  <path
     d="M 2,32 C 2,10.4 10.4,2 32,2 53.6,2 62,10.4 62,32 62,53.6 53.6,62 32,62 10.4,62 2,53.6 2,32"
     id="path2"
     style="fill:#e4728f;fill-opacity:1;stroke-width:0.3"
     sodipodi:nodetypes="csssc" />
  <path
     id="rect9736"
     style="fill:#ffffff;stroke-width:4;stroke-linecap:round;stroke-linejoin:round"
     d="m 20,12 c -2.216,0 -4,1.784 -4,4 v 32 c 0,2.216 1.784,4 4,4 h 24 c 2.216,0 4,-1.784 4,-4 V 16 c 0,-2.216 -1.784,-4 -4,-4 z m 4.5,6 C 26.432997,18 28,19.567003 28,21.5 28,23.432997 26.432997,25 24.5,25 22.567003,25 21,23.432997 21,21.5 21,19.567003 22.567003,18 24.5,18 Z m 12.5,12 7,9 v 8 c 0,0.554 -0.446,1 -1,1 H 21 c -0.554,0 -1,-0.446 -1,-1 v -6 l 6,-7 5,4 z"
     sodipodi:nodetypes="ssssssssssssssccsssscccc" />
</svg>
