<?xml version="1.0" encoding="UTF-8" standalone="no"?>
<svg
   viewbox="0 0 200 200"
   version="1.1"
   id="svg4"
   sodipodi:docname="system-users.svg"
   width="64"
   height="64"
   inkscape:version="1.1.1 (3bf5ae0d25, 2021-09-20, custom)"
   xmlns:inkscape="http://www.inkscape.org/namespaces/inkscape"
   xmlns:sodipodi="http://sodipodi.sourceforge.net/DTD/sodipodi-0.dtd"
   xmlns="http://www.w3.org/2000/svg"
   xmlns:svg="http://www.w3.org/2000/svg">
  <defs
     id="defs8" />
  <sodipodi:namedview
     id="namedview6"
     pagecolor="#ffffff"
     bordercolor="#666666"
     borderopacity="1.0"
     inkscape:pageshadow="2"
     inkscape:pageopacity="0.0"
     inkscape:pagecheckerboard="0"
     showgrid="false"
     inkscape:zoom="8"
     inkscape:cx="27.5625"
     inkscape:cy="32.25"
     inkscape:window-width="1920"
     inkscape:window-height="1006"
     inkscape:window-x="0"
     inkscape:window-y="0"
     inkscape:window-maximized="1"
     inkscape:current-layer="svg4"
     showguides="true" />
  <path
     d="M 2,32 C 2,10.4 10.4,2 32,2 53.6,2 62,10.4 62,32 62,53.6 53.6,62 32,62 10.4,62 2,53.6 2,32"
     id="path2"
     style="opacity:1;fill:#19abda;fill-opacity:1;stroke:none;stroke-width:0.3" />
  <path
     id="path2315"
     style="fill:#ffffff;fill-opacity:1;stroke-width:1.16666"
     d="M 32 15 C 28.134008 15 25 18.134008 25 22 C 25 25.865992 28.134008 29 32 29 C 35.865992 29 39 25.865992 39 22 C 39 18.134008 35.865992 15 32 15 z M 32 34 C 23.71573 34 17 40.71573 17 49 L 47 49 C 47 40.71573 40.28427 34 32 34 z " />
</svg>
