<svg width="16" height="16" version="1.1" xmlns="http://www.w3.org/2000/svg">
 <title>Gnome Symbolic Icon Theme</title>
 <path d="m8 0c-2.216 0-4 1.784-4 4v2h1v-2c0-1.662 1.338-3 3-3s3 1.338 3 3v2h1v-2c0-2.216-1.784-4-4-4z" fill="#dedede"/>
 <path d="m4 6c-1.108 0-2 0.892-2 2v5c0 1.108 0.892 2 2 2h3.2676a5.5 5.5 0 0 1-0.6543-1h-2.6133c-0.554 0-1-0.446-1-1v-5c0-0.554 0.446-1 1-1h4.3574a5.5 5.5 0 0 1 3.1426-1z" fill="#dedede"/>
 <path d="m11.5 7c-2.4853 0-4.5 2.0147-4.5 4.5 0 2.4853 2.0147 4.5 4.5 4.5 2.4853 0 4.5-2.0147 4.5-4.5 0-2.4853-2.0147-4.5-4.5-4.5zm-0.5 1h1v6h1v1h-3v-1h1v-5h-1v-0.66797c0.62074-0.1146 0.61801-0.11239 1-0.33203z" fill="#dedede" style="paint-order:stroke fill markers"/>
</svg>
