<svg width="16" height="16.007" version="1.1" xmlns="http://www.w3.org/2000/svg">
 <path d="m10.957 8.0078a3 3 0 0 0-2.0781 0.87695 3 3 0 0 0 0 4.2441 3 3 0 0 0 3.8594 0.32422l1.7969 1.7969c0.19587 0.19587 0.51116 0.19587 0.70703 0s0.19587-0.51116 0-0.70703l-1.8008-1.8008a3 3 0 0 0-0.32031-3.8574 3 3 0 0 0-2.1641-0.87695zm0.07227 1a2 2 0 0 1 1.3848 0.58594 2 2 0 0 1 0 2.8281 2 2 0 0 1-2.8281 0 2 2 0 0 1 0-2.8281 2 2 0 0 1 1.4434-0.58594z" color="#000000" fill="#dedede" stroke-width="2" style="-inkscape-stroke:none"/>
 <g fill="#dedede" stroke-linecap="round" stroke-linejoin="round" stroke-width="2" style="paint-order:stroke fill markers" aria-label="">
  <path d="m4 0v6h-3c-0.13541 0-0.26562 0.026042-0.39062 0.078125-0.11979 0.052087-0.22657 0.125-0.32031 0.21875-0.088543 0.08854-0.15885 0.19531-0.21094 0.32031-0.052083 0.11979-0.078125 0.2474-0.078125 0.38281v7h4v2h8v-1h-1-1-5v-4h2.0059c6.427e-4 -0.33604 0.042917-0.67285 0.12695-1h-3.1328v3h-3v-6h14v5.8867l0.94922 0.94922c0.01781 0.017799 0.034081 0.036147 0.050781 0.054687v-6.8906c1e-6 -0.13541-0.026038-0.26302-0.078125-0.38281-0.052087-0.125-0.125-0.23177-0.21875-0.32031-0.08854-0.09375-0.19531-0.16667-0.32031-0.21875-0.11979-0.052083-0.2474-0.078125-0.38281-0.078125h-3v-6h-8zm1 1h6v5h-6v-5zm-2.5 7c-0.13541 0-0.2526 0.049478-0.35156 0.14844s-0.14844 0.21615-0.14844 0.35156 0.049478 0.2526 0.14844 0.35156 0.21615 0.14844 0.35156 0.14844 0.2526-0.049478 0.35156-0.14844 0.14844-0.21615 0.14844-0.35156-0.049478-0.2526-0.14844-0.35156-0.21615-0.14844-0.35156-0.14844z"/>
 </g>
</svg>
