<svg width="16" height="16" version="1.1" xmlns="http://www.w3.org/2000/svg">
 <path d="m12.238 1-0.353 0.36-8.969 9.095-0.03 0.045c-0.061 0.099-0.27 0.45-0.583 1.088-0.314 0.638-0.7 1.51-1.012 2.492l-0.291 0.92 0.92-0.291a18.163 18.163 0 0 0 2.492-1.012c0.638-0.314 0.987-0.52 1.088-0.584l0.045-0.029 9.455-9.322zm-8.347 9.89 1.218 1.22-0.177 0.175c7e-3 -5e-3 -0.379 0.227-0.961 0.514-0.214 0.105-0.536 0.222-0.834 0.338l-0.274-0.274c0.116-0.298 0.233-0.62 0.338-0.834 0.287-0.582 0.518-0.966 0.514-0.96z" fill="#dedede" font-size="15" letter-spacing="0" word-spacing="0"/>
</svg>
