<svg height="16" width="16.002" xmlns="http://www.w3.org/2000/svg"><g color="#dedede" fill="#dedede"><path d="M3.5 4.052c-.83 0-1.5.669-1.5 1.5v7c0 .831.67 1.5 1.5 1.5h11c.831 0 1.5-.669 1.5-1.5v-7c0-.831-.669-1.5-1.5-1.5zm.475 1h10.049L9 8.923zM15 5.564v6.988c0 .277-.223.5-.5.5h-11a.499.499 0 0 1-.5-.5V5.566l5.692 4.382c.015.013.034.016.05.026a.56.56 0 0 0 .17.064c.03.006.058.006.088.006.03 0 .059 0 .088-.006a.49.49 0 0 0 .115-.037c.02-.009.037-.016.055-.027.017-.01.035-.013.05-.026zM0 2.052v1h1v-1zm2 0v1h1v-1zm2 0v1h1v-1zm2 0v1h1v-1zm2 0v1h1v-1zm2 0v1h1v-1zm2 0v1h1v-1zm-12 2v1h1v-1zm0 2v1h1v-1zm0 2v1h1v-1zm0 2v.5c0 .177.036.343.092.5H1v-1z" overflow="visible" style="isolation:auto;mix-blend-mode:normal;marker:none"/></g></svg>