<svg height="16" width="16" xmlns="http://www.w3.org/2000/svg">
    <g fill="#dedede">
        <path d="M13.909 1.307l-3.304 3.307c.732.273 1.5.527 2.306.764.8.231 1.592.436 2.375.612a48.514 48.514 0 0 0-.621-2.366 40.298 40.298 0 0 0-.756-2.316z" style="marker:none" color="#000" overflow="visible"/>
        <path d="M12.756 11.656l-.072.084.75.66.091-.103.04-.05.48-.72-.832-.554zm-1.11 1.108l-.34.226.555.832.368-.244.05-.039.422-.37-.658-.751zm-1.353.779l-.676.23.322.948.717-.246.06-.024.218-.11-.442-.896zm-2.326.459l.066.996.801-.053-.066-.998z" style="line-height:normal;font-variant-ligatures:normal;font-variant-position:normal;font-variant-caps:normal;font-variant-numeric:normal;font-variant-alternates:normal;font-feature-settings:normal;text-indent:0;text-align:start;text-decoration-line:none;text-decoration-style:solid;text-decoration-color:#000;text-transform:none;text-orientation:mixed;shape-padding:0;isolation:auto;mix-blend-mode:normal" color="#000" font-weight="400" font-family="sans-serif" white-space="normal" overflow="visible"/>
        <path d="M8 6a2 2 0 0 1 2 2 2 2 0 0 1-2 2 2 2 0 0 1-2-2 2 2 0 0 1 2-2zm0 1a1 1 0 0 0-1 1 1 1 0 0 0 1 1 1 1 0 0 0 1-1 1 1 0 0 0-1-1z"/>
        <path d="M7.574 1.014a6.981 6.981 0 0 0-2.347.558 7.005 7.005 0 0 0-4.082 7.844A7.005 7.005 0 0 0 8 15h.5v-1H8a5.996 5.996 0 0 1-5.877-4.787 5.995 5.995 0 0 1 3.5-6.723 5.995 5.995 0 0 1 7.291 2.069l.287.41.82-.574-.287-.41a7.006 7.006 0 0 0-6.16-2.971z" style="line-height:normal;font-variant-ligatures:normal;font-variant-position:normal;font-variant-caps:normal;font-variant-numeric:normal;font-variant-alternates:normal;font-feature-settings:normal;text-indent:0;text-align:start;text-decoration-line:none;text-decoration-style:solid;text-decoration-color:#000;text-transform:none;text-orientation:mixed;shape-padding:0;isolation:auto;mix-blend-mode:normal" color="#000" font-weight="400" font-family="sans-serif" white-space="normal" overflow="visible"/>
    </g>
</svg>
