<svg width="16" height="16" version="1.1" xmlns="http://www.w3.org/2000/svg">
 <defs>
  <style id="current-color-scheme" type="text/css">.ColorScheme-Text { color:#dedede; } .ColorScheme-Highlight { color:#4285f4; }</style>
 </defs>
 <path d="m12 5c0.5523 0 1-0.44772 1-1s-0.4477-1-1-1-1 0.44772-1 1 0.4477 1 1 1zm-2.8708-5c-0.5341-0.0035-1.0474 0.20677-1.4255 0.58395l-6.6815 6.6645c-0.78275 0.78078-0.78356 2.0485-0.0018 2.8303l4.9484 4.9483c0.78105 0.7811 2.0474 0.7811 2.8285 0l6.6308-6.6308c0.3758-0.3758 0.5866-0.88567 0.5858-1.4171l-0.0073-4.9501c-0.0016-1.0983-0.8886-1.9898-1.9869-1.997zm-0.7193 1.292c0.1891-0.18859 0.4457-0.29372 0.7128-0.29197l4.8903 0.03206c0.5492 0.0036 0.9927 0.44935 0.9935 0.9985l0.0073 4.9501c4e-4 0.26572-0.105 0.52068-0.2929 0.70858l-6.6308 6.6308c-0.39055 0.3906-1.0237 0.3906-1.4142 0l-4.9484-4.9484c-0.39087-0.3908-0.39047-1.0247 9e-4 -1.4151z" fill="#dedede"/>
</svg>
