<svg width="16" height="16" version="1.1" xmlns="http://www.w3.org/2000/svg">
 <g fill="#dedede">
  <g aria-label="1">
   <path d="m3.1889 6.9956h0.82372v-4.479h-0.49552l-1.6925 0.86233 0.30889 0.58561 1.0554-0.47621z" fill="#dedede" stroke-width=".16088"/>
  </g>
  <g aria-label="2">
   <path d="m2.0119 12.983h2.9988v-0.72075h-1.7954c1.1648-1.0232 1.6474-1.7504 1.6474-2.484 0-0.81085-0.59848-1.3257-1.5123-1.3257-0.55987 0-1.0747 0.18662-1.4608 0.52126l0.2188 0.59848c0.35394-0.26385 0.74006-0.39255 1.0747-0.39255 0.50839 0 0.82372 0.28959 0.82372 0.72719 0 0.59848-0.61779 1.2742-1.9949 2.5033z" fill="#dedede" stroke-width=".16088"/>
  </g>
  <rect x="6" y="4" width="8" height="1" rx="0" ry="0"/>
  <rect x="6" y="10" width="8" height="1" rx="0" ry="0"/>
 </g>
</svg>
