<svg height="16" width="16" xmlns="http://www.w3.org/2000/svg">
    <path d="M5.994 2c-1.258.015-2.179-.03-2.932.385a1.88 1.88 0 0 0-.837.998C2.06 3.82 2 4.343 2 5v2h1V5c0-.592.063-1.006.16-1.266.098-.26.201-.371.385-.472C3.91 3.06 4.74 3.015 6 3h1V2H5.998zM9 2v1h1c1.258.015 2.087.06 2.453.262.183.1.29.212.387.472.097.26.16.674.16 1.266v2h1V5c0-.658-.06-1.179-.225-1.617a1.88 1.88 0 0 0-.838-.998c-.752-.416-1.673-.37-2.931-.385h-.004zM2 9v2c0 .658.06 1.179.225 1.617.164.439.461.79.837.998.753.416 1.674.37 2.932.385H7v-1H6c-1.259-.015-2.09-.06-2.455-.262-.184-.1-.287-.212-.385-.472C3.063 12.006 3 11.592 3 11V9zm11 0v2c0 .592-.063 1.006-.16 1.266-.098.26-.202.371-.385.472-.366.202-1.197.247-2.455.262H9v1h1.006c1.258-.015 2.179.03 2.932-.385a1.88 1.88 0 0 0 .837-.998c.165-.438.225-.96.225-1.617V9z" style="line-height:normal;font-variant-ligatures:normal;font-variant-position:normal;font-variant-caps:normal;font-variant-numeric:normal;font-variant-alternates:normal;font-feature-settings:normal;text-indent:0;text-align:start;text-decoration-line:none;text-decoration-style:solid;text-decoration-color:#000;text-transform:none;text-orientation:mixed;shape-padding:0;isolation:auto;mix-blend-mode:normal;marker:none" color="#000" font-weight="400" font-family="sans-serif" white-space="normal" overflow="visible" fill="#dedede"/>
</svg>
