<?xml version="1.0" encoding="UTF-8"?>
<svg width="16" height="16" version="1.1" xmlns="http://www.w3.org/2000/svg">
 <g fill="#555" fill-rule="evenodd" stroke-linecap="round" stroke-linejoin="round">
  <g stroke-width="2">
   <path d="m2 1c-1.108 0-2 0.892-2 2v10c0 1.108 0.892 2 2 2h12c1.108 0 2-0.892 2-2v-10c0-1.108-0.892-2-2-2zm0 2h12v10h-12z" opacity=".35" stop-color="#000000" style="paint-order:stroke fill markers"/>
   <rect x="3" y="4" width="2" height="2" rx="0" ry="0" opacity=".35" stop-color="#000000" style="paint-order:stroke fill markers"/>
   <rect x="6" y="4" width="2" height="2" rx="0" ry="0" opacity=".35" stop-color="#000000" style="paint-order:stroke fill markers"/>
   <rect x="9" y="4" width="2" height="2" rx="0" ry="0" opacity=".35" stop-color="#000000" style="paint-order:stroke fill markers"/>
  </g>
  <rect x="12" y="4" width="1" height="2" rx="0" ry="0" opacity=".35" stop-color="#000000" stroke-width="1.4142" style="paint-order:stroke fill markers"/>
  <rect x="3" y="7" width="1" height="2" rx="0" ry="0" opacity=".35" stop-color="#000000" stroke-width="1.4142" style="paint-order:stroke fill markers"/>
  <g stroke-width="2">
   <rect x="5" y="7" width="2" height="2" rx="0" ry="0" opacity=".35" stop-color="#000000" style="paint-order:stroke fill markers"/>
   <rect x="8" y="7" width="2" height="2" rx="0" ry="0" opacity=".35" stop-color="#000000" style="paint-order:stroke fill markers"/>
   <rect x="11" y="7" width="2" height="2" rx="0" ry="0" opacity=".35" stop-color="#000000" style="paint-order:stroke fill markers"/>
  </g>
  <rect x="5" y="10" width="6" height="2" rx="0" ry="0" opacity=".35" stop-color="#000000" stroke-width="3.4641" style="paint-order:stroke fill markers"/>
 </g>
</svg>
