<svg width="16" height="16" version="1.1" xmlns="http://www.w3.org/2000/svg">
 <path d="m3.004 1.9999v2h6c0.42816 0 1 0.61414 1 1v1h-5c-0.91927 0-1.7356 0.38006-2.25 0.96484-0.5144 0.58479-0.74272 1.3243-0.73633 2.0449 0.00639 0.72062 0.24549 1.4488 0.75781 2.0273 0.51233 0.57854 1.3202 0.96289 2.2285 0.96289h2v-2h-2c-0.39787 0-0.57863-0.11565-0.73047-0.28711s-0.25338-0.44328-0.25586-0.72266c-0.00248-0.27937 0.092951-0.53987 0.23828-0.70508 0.14533-0.16522 0.32569-0.28516 0.74805-0.28516h5v1h2v-4c0-1.6343-1.3198-3-3-3h-6z" fill="#555555"/>
 <rect class="success" x="8" y="10" width="7" height="6" rx="2" ry="2" fill="#ed333b"/>
</svg>
