<svg width="16" height="16" version="1.1" xmlns="http://www.w3.org/2000/svg">
 <path d="m8 14a6 6 0 0 0 4.918-2.582l-8.3359-8.3359a6 6 0 0 0-2.582 4.918 6 6 0 0 0 6 6zm5.834-4.666a6 6 0 0 0 0.16602-1.334 6 6 0 0 0-6-6 6 6 0 0 0-1.334 0.16602l7.168 7.168z" fill="#555555"/>
 <path class="error" d="m8 12a4 4 0 0 0 3.4707-2.0293l-5.4414-5.4414a4 4 0 0 0-2.0293 3.4707 4 4 0 0 0 4 4zm3.9609-4.5391a4 4 0 0 0-3.4219-3.4219z" fill="#ef555c" stroke-width=".66667"/>
 <path d="M 13.5,15 1,2.5 2.5,1 15,13.5 Z" fill="#555555"/>
</svg>
