<svg xmlns="http://www.w3.org/2000/svg" width="16" height="16"><path fill="#555555" d="M2.469 2C1.337 2 .629 3.276 1.195 4.297l5.535 9.937a1.44 1.44 0 0 0 2.545 0l5.536-9.937C15.377 3.277 14.669 2 13.537 2zm8.57 1.959a1 1 0 0 1 .838 1.52l-3 5.5a1 1 0 0 1-1.754 0l-3-5.5a1 1 0 0 1 .856-1.49 1 1 0 0 1 .898.532L8 8.414l2.123-3.893a1 1 0 0 1 .916-.562z" color="#000" font-family="sans-serif" font-weight="400" overflow="visible" style="line-height:normal;font-variant-ligatures:normal;font-variant-position:normal;font-variant-caps:normal;font-variant-numeric:normal;font-variant-alternates:normal;font-feature-settings:normal;text-indent:0;text-align:start;text-decoration-line:none;text-decoration-style:solid;text-decoration-color:#000;text-transform:none;text-orientation:mixed;shape-padding:0;isolation:auto;mix-blend-mode:normal"/></svg>