<svg xmlns="http://www.w3.org/2000/svg" width="16.01" height="16"><path fill="#555555" d="M7.807.008c-.334.038-.655.19-.893.428L.42 6.963c-.545.555-.545 1.55 0 2.104l6.53 6.525c.554.544 1.55.544 2.105 0l6.531-6.49c.566-.557.566-1.582 0-2.139L9.055.436a1.44 1.44 0 0 0-.106-.07A1.525 1.525 0 0 0 7.807.008zM7.02 4h3v2h-3s-.293.013-.56.145c-.267.132-.454.196-.461.853V7h5.021a1 1 0 0 1 1 1v1s.014.71-.355 1.448C11.295 11.186 10.354 12 9.02 12h-3v-2h3c.667 0 .725-.185.856-.447.13-.261.144-.553.144-.553h-5a1 1 0 0 1-1-.978L4 7.008a1 1 0 0 1 0-.031c.014-1.329.837-2.26 1.576-2.625C6.315 3.987 7.021 4 7.021 4z" color="#000" overflow="visible"/></svg>