<svg xmlns="http://www.w3.org/2000/svg" width="16" height="16.048"><path fill="#555555" d="M10.94.048c-1.11 0-2 .914-2 2.017v4.776l-.854.853a.5.5 0 0 0-.016.691l.87.95V14c0 .657.234 1.21.623 1.562.388.353.897.499 1.39.485l-.027-1c-.28.008-.522-.073-.69-.225-.167-.152-.296-.386-.296-.822V9.14a.5.5 0 0 0-.131-.338l-.678-.74.662-.662a.5.5 0 0 0 .147-.353V2.065c0-.585.42-1.017 1-1.017zm-6 9c-1.334 0-2.276.814-2.645 1.552-.37.739-.355 1.448-.355 1.448v1s-.014.708.355 1.447c.37.738 1.311 1.553 2.645 1.553h2v-2h-2c-.667 0-.725-.186-.856-.448a1.57 1.57 0 0 1-.144-.552v-1s.013-.292.144-.553c.13-.262.189-.447.856-.447h2v-2h-1zm8.013-9v1c.58 0 1 .432 1 1.017v4.983a.5.5 0 0 0 .147.353l.662.662-.678.74a.5.5 0 0 0-.13.338v4.86c0 .436-.128.67-.296.822-.168.152-.41.233-.69.225l-.028 1c.493.014 1.001-.132 1.39-.485s.623-.905.623-1.562V9.335l.87-.95a.5.5 0 0 0-.016-.69l-.854-.854V2.065c0-1.103-.89-2.017-2-2.017z" color="#000" font-family="sans-serif" font-weight="400" overflow="visible" style="line-height:normal;font-variant-ligatures:normal;font-variant-position:normal;font-variant-caps:normal;font-variant-numeric:normal;font-variant-alternates:normal;font-feature-settings:normal;text-indent:0;text-align:start;text-decoration-line:none;text-decoration-style:solid;text-decoration-color:#000;text-transform:none;text-orientation:mixed;shape-padding:0;isolation:auto;mix-blend-mode:normal"/></svg>