<svg width="16" height="16" version="1.1" xmlns="http://www.w3.org/2000/svg">
 <path d="m8 0c-3.2633 0-6 2.4949-6 5.6406 0 0.22484 0.021791 0.41159 0.037109 0.56445 0.017273 0.17238 0.038579 0.35339 0.072266 0.54102 0.63747 3.6353 3.1926 6.1127 5.2109 7.9863l0.67969 0.63281 0.67969-0.63281c2.0178-1.8732 4.5736-4.3475 5.2109-7.9863v-0.00391c0.02924-0.16325 0.05648-0.34286 0.07227-0.53711 0.01532-0.15287 0.03711-0.33961 0.03711-0.56445 0-3.1458-2.7367-5.6406-6-5.6406zm0 2c2.2601 0 4 1.6589 4 3.6406 0 0.094267-0.0095 0.20625-0.02539 0.36523l-2e-3 0.011719-2e-3 0.013672c-8e-3 0.10633-0.02491 0.22807-0.04883 0.36133v0.00586c-0.44422 2.5426-2.1699 4.4549-3.9218 6.1445-1.7516-1.6901-3.4776-3.6053-3.9219-6.1445v-0.00586c-0.021001-0.11697-0.038758-0.24724-0.052734-0.38672-0.015932-0.15899-0.025391-0.27097-0.025391-0.36523 0-1.9817 1.7399-3.6406 4-3.6406z" color="#000000" fill="#555555"/>
 <circle cx="8" cy="6" r="2" fill="#555555"/>
</svg>
