<svg width="16" height="16" version="1.1" xmlns="http://www.w3.org/2000/svg">
 <path d="m8 4.5c-0.13299 0-0.26658 0.04455-0.35938 0.14062l-2.5 2.5c-0.0781 0.079545-0.12862 0.18595-0.14062 0.29688v0.5625h6v-0.5625c-0.012-0.11092-0.062525-0.21733-0.14062-0.29688l-2.5-2.5c-0.09279-0.09606-0.22638-0.14062-0.35938-0.14062zm-3 4.5v2h6v-2z" fill="#555555"/>
 <path d="m3 1c-1.108 0-2 0.892-2 2v10c0 1.108 0.892 2 2 2h10c1.108 0 2-0.892 2-2v-10c0-1.108-0.892-2-2-2h-10zm0 2h10v10h-10v-10z" fill="#555555"/>
</svg>
