<svg viewBox="0 0 16 16" xmlns="http://www.w3.org/2000/svg">
  <defs id="defs3051">
    <style type="text/css" id="current-color-scheme">
      .ColorScheme-Text {
        color:#dedede;
      }
      </style>
  </defs>
<path d="m9.00395 2c-3.3137085 0-6 2.6862915-6 6l-0.00195 3-1.34375-1.4550781-0.65625 0.6953121 2.3125 2.53125 0.18945 0.220704 0.1875-0.220704 2.3125-2.53125-0.65625-0.6953121-1.34375 1.4550781v-3c0-2.7614237 2.2385763-5 5-5 2.761424 0 5 2.2385763 5 5 0 2.761424-2.238576 5-5 5-0.7141482 0-1.3854668-0.159922-2-0.429688v1.027344c0.6315719 0.225932 1.290757 0.402344 2 0.402344 3.313708 0 6-2.686292 6-6 0-3.3137085-2.686292-6-6-6zm-1 2v5h5v-1h-4v-4z"
      style="fill:currentColor;fill-opacity:1;stroke:none"
      class="ColorScheme-Text"
      />
</svg>
