<svg xmlns="http://www.w3.org/2000/svg" viewBox="0 0 16 16">
  <defs id="defs3051">
    <style type="text/css" id="current-color-scheme">
      .ColorScheme-Text {
        color:#dedede;
      }
      </style>
  </defs>
 <path style="fill:currentColor;fill-opacity:1;stroke:none" 
     d="M 9.15625 2 L 2 9.125 L 2 12 C 3.075 12.019 4.84375 12 4.84375 12 L 12 4.84375 L 9.15625 2 z M 8.4375 4.15625 L 9.84375 5.5625 L 6.9980469 8.4375 L 5.5605469 6.9980469 L 8.4375 4.15625 z M 4.84375 7.71875 L 6.28125 9.125 L 5.5625 9.84375 L 4.15625 8.4375 L 4.84375 7.71875 z M 12.123047 9 C 11.927047 9.001 11.392547 9.0455 10.560547 9.5625 C 10.300547 9.7245 10.107547 9.9089531 9.8105469 10.126953 C 9.6525469 10.242953 9.0850469 10.620953 8.8730469 10.751953 C 8.2540469 11.134953 8.0320469 11.231953 7.4980469 11.501953 C 6.9810469 11.762953 6.4395469 12.000453 6.0605469 12.189453 C 4.4685469 12.984453 1.9960937 13.001953 1.9960938 13.001953 L 1.9960938 14.001953 C 1.9960938 14.001953 4.4935469 14.033953 6.3105469 13.126953 C 6.5515469 13.006953 6.9790469 12.808953 7.3730469 12.626953 C 7.3730469 12.626953 8.4920469 12.034203 8.4980469 12.033203 C 8.6940469 11.924203 8.8592969 11.841203 9.1542969 11.658203 C 9.3822969 11.517203 9.9292969 11.166953 10.154297 11.001953 C 10.484297 10.758953 10.697047 10.579703 10.873047 10.470703 C 11.258047 10.168703 11.693047 9.9889531 12.123047 10.001953 C 12.089047 10.001953 12.253297 10.011703 12.404297 10.095703 C 12.555297 10.179703 12.714797 10.329703 12.841797 10.470703 C 13.086797 10.802703 13.198047 11.055953 13.248047 11.501953 C 13.212047 12.808953 11.968047 13.006953 10.998047 13.001953 L 10.998047 14.001953 C 12.977047 14.090953 13.998047 13.167703 13.998047 11.470703 C 13.994047 11.182703 13.947797 10.945953 13.841797 10.626953 C 13.735797 10.307953 13.575797 9.9514531 13.341797 9.6894531 C 12.980797 9.2664531 12.799047 9.0809531 12.123047 9.0019531 L 12.123047 9 z "
     class="ColorScheme-Text"
     />
</svg>
