<svg xmlns="http://www.w3.org/2000/svg" viewBox="0 0 16 16">
  <defs id="defs3051">
    <style type="text/css" id="current-color-scheme">
      .ColorScheme-Text {
        color:#dedede;
      }
      .ColorScheme-ViewBackground {
        color:#fcfcfc;
      }
      </style>
  </defs>
<g transform="translate(-421.71429,-531.79074)">
 <path style="fill:currentColor;fill-opacity:1;stroke:none" 
     d="m 423.7143,545.79068 1,0 5,0 0,-1 -5,0 0,-5 5,0 0,-1 -5,0 0,-5 5,0 0,-1 -5,0 -1,0 0,1 0,5 0,1 0,5 0,1 z m 7,0 5,0 0,-1 -5,0 0,1 z m 0,-6 5,0 0,-1 -5,0 0,1 z m 0,-6 5,0 0,-1 -5,0 0,1 z"
     class="ColorScheme-ViewBackground"
     />
 <path style="fill:currentColor;fill-opacity:1;stroke:none" 
     d="m 435.71427,545.79068 0,-13 1,0 0,13 z"
     class="ColorScheme-Text"
     />
 <path style="fill:currentColor;fill-opacity:0.5;stroke:none" 
     d="m 424.7143,533.79068 5,0 0,5 -5,0 0,-5 z m 0,6 5,0 0,5 -5,0 0,-5 z m 6,-6 5,0 0,5 -5,0 0,-5 z m 0,6 5,0 0,5 -5,0 0,-5 z"
     class="ColorScheme-Text"
     />
  </g>
</svg>
