<svg xmlns="http://www.w3.org/2000/svg" viewBox="0 0 16 16">
  <defs id="defs3051">
    <style type="text/css" id="current-color-scheme">
      .ColorScheme-Text {
        color:#dedede;
      }
      </style>
  </defs>
 <path style="fill:currentColor;fill-opacity:1;stroke:none" 
       d="M 8.28125 2 C 5.87276 1.9779 2.98125 3.61871 4.59375 7.3125 L 10.25 7.3125 C 1.25 5.0625 8.75114 -0.1875 10.28125 5.8125 L 11 5.8125 L 11 3.75 C 10.9887 2.625 9.72635 2.01328 8.28125 2 z M 2 8 L 2 8.75 L 2 9 L 14 9 L 14 8.75 L 14 8 L 2 8 z M 8.75 9.5 C 12.71497 13.43247 6.77502 14.69352 5 10.25 L 4.25 10.25 L 4.25 12.5 C 4.39332 14.38685 13.25 15.5 11.75 9.5 L 8.75 9.5 z "
     class="ColorScheme-Text"
     />
</svg>
