<svg xmlns="http://www.w3.org/2000/svg" viewBox="0 0 16 16">
  <defs id="defs3051">
    <style type="text/css" id="current-color-scheme">
      .ColorScheme-Text {
        color:#dedede;
      }
      </style>
  </defs>
 <path style="fill:currentColor;fill-opacity:1;stroke:none" 
     d="M 3.7832031 4 L 1 11 L 2.2636719 11 L 3 9 L 5.4316406 9 L 6.203125 11 L 7.5 11 L 4.75 4 L 3.7832031 4 z M 14 4 L 14 11 L 15 11 L 15 4 L 14 4 z M 4.2207031 5.4921875 C 4.3116031 5.8289675 4.4129244 6.1450394 4.5214844 6.4433594 L 5.2109375 8.3300781 L 3.2265625 8.3300781 L 3.9121094 6.4765625 C 4.0265294 6.1686825 4.1297431 5.8418175 4.2207031 5.4921875 z M 10.5 6 A 2.5 2.5 0 0 0 8 8.5 A 2.5 2.5 0 0 0 10.5 11 A 2.5 2.5 0 0 0 13 8.5 A 2.5 2.5 0 0 0 10.5 6 z M 10.5 7 A 1.5 1.5 0 0 1 12 8.5 A 1.5 1.5 0 0 1 10.5 10 A 1.5 1.5 0 0 1 9 8.5 A 1.5 1.5 0 0 1 10.5 7 z "
     class="ColorScheme-Text"
     />
</svg>
