<svg xmlns="http://www.w3.org/2000/svg" viewBox="0 0 16 16">
  <defs id="defs3051">
    <style type="text/css" id="current-color-scheme">
      .ColorScheme-Text {
        color:#dedede;
      }
      .ColorScheme-Highlight {
        color:#3daee9;
      }
      </style>
  </defs>
  <path 
        style="fill:currentColor;fill-opacity:1;stroke:none"
        d="M 1.0039062 2 A 7 9 0 0 0 7.0039062 10.898438 L 7.0039062 9.8789062 A 6 8 0 0 1 2.0039062 2 L 1.0039062 2 z M 14.003906 2 A 6 8 0 0 1 9.0039062 9.8867188 L 9.0039062 10.896484 A 7 9 0 0 0 15.003906 2.0019531 L 14.003906 2 z M 3.5039062 10 A 1.5 1.5 0 0 0 2.0039062 11.5 A 1.5 1.5 0 0 0 3.5039062 13 A 1.5 1.5 0 0 0 4.9179688 12 L 7 12 L 7 11 L 4.9179688 11 A 1.5 1.5 0 0 0 3.5039062 10 z M 13.503906 10 A 1.5 1.5 0 0 0 12.091797 11 L 11 11 L 11 12 L 12.091797 12 A 1.5 1.5 0 0 0 13.503906 13 A 1.5 1.5 0 0 0 15.003906 11.5 A 1.5 1.5 0 0 0 13.503906 10 z M 3.5039062 11 A 0.500002 0.5 0 0 1 4 11.441406 L 4 11.5625 A 0.500002 0.5 0 0 1 3.5039062 12 A 0.500002 0.5 0 0 1 3.0039062 11.5 A 0.500002 0.5 0 0 1 3.5039062 11 z M 13.503906 11 A 0.500002 0.5 0 0 1 14.003906 11.5 A 0.500002 0.5 0 0 1 13.503906 12 A 0.500002 0.5 0 0 1 13.003906 11.5 A 0.500002 0.5 0 0 1 13.503906 11 z "
        class="ColorScheme-Text"
        />
  <path
        style="fill:currentColor;fill-opacity:1;stroke:none"
        d="m 6,9 0,4 4,0 0,-4 z m 1,1 2,0 0,2 -2,0 z"
        class="ColorScheme-Highlight"
      />
</svg>
