<svg viewBox="0 0 16 16" xmlns="http://www.w3.org/2000/svg">
    <style
        type="text/css"
        id="current-color-scheme">
        .ColorScheme-Text {
            color:#dedede;
        }
    </style>
    <path d="M9.5 1.793l-.354.353-1.5 1.5-.939.94-3.06 3.06L1.792 9.5 6.5 14.207l1.854-1.853.939-.94 2.121-2.121.94-.94L14.207 6.5zm0 1.414L12.793 6.5l-1.147 1.146-.939.94-2.121 2.121-.94.94L6.5 12.792 3.207 9.5l1.147-1.146 3.06-3.061.94-.94zM7.873 2.006a6 6 0 0 0-5.87 5.869l1.175-1.174a5 5 0 0 1 3.529-3.53zm6.123 6.119l-1.174 1.174a5 5 0 0 1-3.529 3.53l-1.166 1.165a6 6 0 0 0 5.87-5.869z" class="ColorScheme-Text" fill="currentColor"/>
</svg>
