<svg version="1.1" viewBox="0 0 16 16" xmlns="http://www.w3.org/2000/svg">
 <defs>
  <style id="current-color-scheme" type="text/css">.ColorScheme-Text {
        color:#dedede;
      }</style>
 </defs>
 <path class="ColorScheme-Text" d="m6 4v2h2v-2zm3 0v1h3v-1zm-3 4v2h2v-2zm3 0v1h3v-1zm1 3v1h2v-1z" color="#dedede" fill="currentColor"/>
 <path d="m4 1c-1.108 0-2 0.892-2 2v1h-0.5c-0.277 0-0.5 0.223-0.5 0.5s0.223 0.5 0.5 0.5h0.5v7h-0.5c-0.277 0-0.5 0.223-0.5 0.5s0.223 0.5 0.5 0.5h0.5c0 1.108 0.892 2 2 2h9c1.108 0 2-0.892 2-2v-10c0-1.108-0.892-2-2-2zm1 1h8c0.554 0 1 0.446 1 1v10c0 0.554-0.446 1-1 1h-8c-0.554 0-1-0.446-1-1v-10c0-0.554 0.446-1 1-1z" fill="#dedede"/>
</svg>
