<svg viewBox="0 0 16 16" xmlns="http://www.w3.org/2000/svg">
  <defs id="defs3051">
    <style type="text/css" id="current-color-scheme">
      .ColorScheme-Text {
        color:#dedede;
      }
      </style>
  </defs>
    <path
        style="fill:currentColor;fill-opacity:1;stroke:none" 
        d="m8 2a3 3 0 0 0-2.8261719 2h-3.1738281v10h12v-10h-3.175781a3 3 0 0 0-2.824219-2zm0 0.9609375a2 2 0 0 1 2 2 2 2 0 0 1-2 2 2 2 0 0 1-2-2 2 2 0 0 1 2-2zm-5 2.0390625h2a3 3 0 0 0 0.7675781 2h-1.7675781v1h8v-1h-1.769531a3 3 0 0 0 0.769531-2h2v7h-10z"
        class="ColorScheme-Text"
    />
</svg>
