<svg version="1.1" viewBox="0 0 16 16" xmlns="http://www.w3.org/2000/svg">
 <defs>
  <style id="current-color-scheme" type="text/css">.ColorScheme-Text {
        color:#dedede;
      }</style>
 </defs>
 <path d="m14 4c-0.554 0-1 0.446-1 1v7l1.5 2 1.5-2v-7c0-0.554-0.446-1-1-1h-1zm0.5 1c0.277 0 0.5 0.223 0.5 0.5v0.5 5 0.5c0 0.277-0.223 0.5-0.5 0.5s-0.5-0.223-0.5-0.5v-0.5-5-0.5c0-0.277 0.223-0.5 0.5-0.5z" class="ColorScheme-Text" fill="currentColor"/>
 <path d="m2 1c-1.108 0-2 0.892-2 2v10c0 1.108 0.892 2 2 2h8c1.108 0 2-0.892 2-2v-10c0-1.108-0.892-2-2-2zm1 1h7c0.554 0 1 0.446 1 1v10c0 0.554-0.446 1-1 1h-7c-0.554 0-1-0.446-1-1v-10c0-0.554 0.446-1 1-1zm6.5 2c-0.277 0-0.5 0.223-0.5 0.5v7c0 0.277 0.223 0.5 0.5 0.5s0.5-0.223 0.5-0.5v-7c0-0.277-0.223-0.5-0.5-0.5z" class="ColorScheme-Text" fill="currentColor"/>
</svg>
