<svg width="16" height="16" version="1.1" xmlns="http://www.w3.org/2000/svg">
 <defs>
  <style id="current-color-scheme" type="text/css">
   .ColorScheme-Text { color:#ffffff; } .ColorScheme-Highlight { color:#5294e2; }
  </style>
 </defs>
 <path style="fill:currentColor" class="ColorScheme-Text" d="m8.0176 0.98242a7 7 0 0 0-7 7 7 7 0 0 0 7 7 7 7 0 0 0 7-7 7 7 0 0 0-7-7zm-0.017578 4.0176c0.84039 0.00125 1.6417 0.35455 2.209 0.97461l0.78906-0.45703-0.17774 1.4746 0.003907 0.0078125h-0.003907l-0.12109 1-2.2988-0.98242 0.9082-0.52539c-0.36292-0.31617-0.82727-0.49104-1.3086-0.49219-0.7138 7.321e-4 -1.3736 0.38183-1.7305 1h-1.0957c0.42361-1.1981 1.5553-1.9994 2.8262-2zm-2.7012 3.0176 2.2988 0.98242-0.89648 0.51758c0.36174 0.31031 0.82223 0.48166 1.2988 0.48242 0.7138-7.321e-4 1.3736-0.38183 1.7305-1h1.0957c-0.42349 1.1978-1.5557 1.999-2.8262 2-0.83446-0.001143-1.6309-0.35003-2.1973-0.96289l-0.80273 0.46289 0.17969-1.4902-0.0039063-0.0097656h0.0039063l0.11914-0.98242z"/>
</svg>
