<svg width="16" height="16" version="1.1" xmlns="http://www.w3.org/2000/svg">
 <g transform="rotate(-90,6,10)" fill="#ee2828" fill-rule="evenodd">
  <path d="m1 4c-0.554 0-1 0.446-1 1v6c0 0.554 0.446 1 1 1h12c0.554 0 1-0.446 1-1v-6c0-0.554-0.446-1-1-1zm0 1h12v6h-12z" style="paint-order:normal"/>
  <path d="m15 6.5879v2.8242a1.5 1.5 0 0 0 1-1.4121 1.5 1.5 0 0 0-1-1.4121z" style="paint-order:normal"/>
 </g>
 <path d="m12.486 2.9999c-0.82662 0.01796-1.7576 0.06328-2.5391 0.55859-0.021047 0.012276-0.039662 0.028176-0.056641 0.044922-0.81186 0.868-0.66513 2.0192-0.79297 2.9023-0.00341 0.00573-0.00682 0.011646-0.00977 0.017578-0.14683 2.2632-0.13711 4.5573 0.24024 6.8184v0.0098c0.12274 0.59864 0.52793 1.2337 1.2773 1.3984 0.0073 0.0016 0.01217 0.0063 0.01953 0.0078v-0.0078c1.1371 0.31927 2.3656 0.3188 3.5039 0.07813 0.58958-0.12484 1.1998-0.45916 1.4121-1.0664 9e-4 -0.0025-9e-4 -0.0053 0-0.0078 0.27712-0.72549 0.27208-1.474 0.35352-2.1523 0.0032-0.0028 0.0068-0.0048 0.0098-0.0078 0.15175-2.1759 0.1415-4.3733-0.16214-6.5489-0.042041-0.30857-0.11074-0.64742-0.27734-0.96094-0.1648-0.31011-0.43393-0.58971-0.83008-0.74219-0.0019-5.778e-4 0.0019-0.0091 0-0.00977-0.0029-0.00111-7e-3 0.00111-0.0098 0-0.6926-0.28474-1.4492-0.30763-2.1191-0.33203-0.0064-1.901e-4 -0.01317-1.901e-4 -0.01953 0zm0.01367 2c0.277 0 0.5 0.223 0.5 0.5v1c0 0.277-0.223 0.5-0.5 0.5s-0.5-0.223-0.5-0.5v-1c0-0.277 0.223-0.5 0.5-0.5z" color="#7b7c7e" fill="#ffffff" fill-rule="evenodd"/>
</svg>
