<svg width="16" height="16" version="1.1" xmlns="http://www.w3.org/2000/svg">
 <path d="m5 7a1 1 0 1 0 0 2 1 1 0 0 0 0-2zm3 0a1 1 0 1 0 0 2 1 1 0 0 0 0-2zm3 0a1 1 0 1 0 0 2 1 1 0 0 0 0-2z" fill="#ffffff"/>
 <path d="m8 5c-0.87353 0-1.6051 0.55834-1.8789 1.3359 0.14058 0.090748 0.27057 0.19282 0.37695 0.3125 0.0014982 0.0016855 4.621e-4 0.0041705 0.0019531 0.0058594 0.001491-0.0016889 4.549e-4 -0.0041739 0.0019531-0.0058594 0.34994-0.39368 0.91471-0.64844 1.498-0.64844s1.1481 0.25476 1.498 0.64844c0.0014982 0.0016855 4.621e-4 0.0041705 0.0019531 0.0058594 0.001491-0.0016889 4.549e-4 -0.0041739 0.0019531-0.0058594 0.10638-0.11968 0.23637-0.22175 0.37695-0.3125-0.27376-0.7776-1.0054-1.3359-1.8789-1.3359zm-1.5 4.3457c-0.0014879 0.00169-4.531e-4 0.0041694-0.0019531 0.0058594-0.34994 0.39368-0.91471 0.64844-1.498 0.64844 0 0.554 0.446 1 1 1h2 2c0.554 0 1-0.446 1-1-0.58333 0-1.1481-0.25476-1.498-0.64844-0.0014951-0.00169-4.631e-4 -0.0041694-0.0019531-0.0058594-0.0014879 0.00169-4.531e-4 0.0041694-0.0019531 0.0058594-0.34994 0.39368-0.91471 0.64844-1.498 0.64844s-1.1481-0.25476-1.498-0.64844c-0.0014951-0.00169-4.631e-4 -0.0041694-0.0019531-0.0058594z" fill="#ffffff" fill-rule="evenodd" style="paint-order:normal"/>
 <g transform="translate(0 2)" fill="#ffffff" stroke-width="1.5">
  <g transform="matrix(.43738 0 0 .5 -145.4 -266.68)">
   <g transform="matrix(0,-1.0825,-1.0825,0,1464.7,557.15)" fill="#ffffff" stroke-width="1.5">
    <g transform="matrix(.00011827 .032712 -.032712 .00011827 18.269 1034.4)" fill="#ffffff" stroke-width="1.5">
     <path d="m345.44 248.29-194.29 194.28c-12.359 12.365-32.397 12.365-44.75 0-12.354-12.354-12.354-32.391 0-44.744l171.91-171.91-171.91-171.9c-12.354-12.359-12.354-32.394 0-44.748 12.354-12.359 32.391-12.359 44.75 0l194.29 194.28c6.177 6.18 9.262 14.271 9.262 22.366 0 8.099-3.091 16.196-9.267 22.373z" fill="#ffffff" stroke-width="1.5"/>
    </g>
   </g>
  </g>
  <g transform="matrix(-.43738 0 0 -.5 161.4 278.68)">
   <g transform="matrix(0,-1.0825,-1.0825,0,1464.7,557.15)" fill="#ffffff" stroke-width="1.5">
    <g transform="matrix(.00011827 .032712 -.032712 .00011827 18.269 1034.4)" fill="#ffffff" stroke-width="1.5">
     <path d="m345.44 248.29-194.29 194.28c-12.359 12.365-32.397 12.365-44.75 0-12.354-12.354-12.354-32.391 0-44.744l171.91-171.91-171.91-171.9c-12.354-12.359-12.354-32.394 0-44.748 12.354-12.359 32.391-12.359 44.75 0l194.29 194.28c6.177 6.18 9.262 14.271 9.262 22.366 0 8.099-3.091 16.196-9.267 22.373z" fill="#ffffff" stroke-width="1.5"/>
    </g>
   </g>
  </g>
 </g>
</svg>
