<svg height="16" width="16" xmlns="http://www.w3.org/2000/svg"><g color="#ffffff" fill="#ffffff"><path d="M13.5 0c-.277 0-.5.223-.5.5v14c0 .277.223.5.5.5h1c.277 0 .5-.223.5-.5V.5c0-.277-.223-.5-.5-.5h-1zm-3 3c-.277 0-.5.223-.5.5v1.031a3.973 3.973 0 0 1 2 3.219V3.5c0-.277-.223-.5-.5-.5h-1zM12 7.813c0 .79-.11 1.482-.469 2.093-.358.611-.89 1.046-1.531 1.531V14.5c0 .277.223.5.5.5h1c.277 0 .5-.223.5-.5V7.812zM4.5 9c-.277 0-.5.223-.5.5v5c0 .277.223.5.5.5h1c.277 0 .5-.223.5-.5v-5c0-.277-.223-.5-.5-.5h-1zm-3 3c-.277 0-.5.223-.5.5v2c0 .277.223.5.5.5h1c.277 0 .5-.223.5-.5v-2c0-.277-.223-.5-.5-.5h-1z" style="marker:none" overflow="visible" opacity=".35"/><path d="M7.813 5C9.455 4.908 10.908 6.17 11 7.813c0 1.4-.378 1.921-1.594 2.843-.19.144-.325.25-.375.313-.05.062-.03.033-.03.031.006.528-.473 1-1 1-.53 0-1.008-.472-1-1 0-.502.223-.943.468-1.25a3.82 3.82 0 0 1 .719-.688c.204-.16.46-.384.687-.656.094-.112.13-.307.125-.437v-.032A.988.988 0 0 0 7.938 7c-.564.032-.97.437-.938 1H5c-.092-1.642 1.17-2.908 2.813-3zM8 13a1 1 0 1 1 0 2 1 1 0 0 1 0-2z" style="marker:none" overflow="visible" stroke-width="2"/></g></svg>