<svg width="16" height="16" version="1.1" xmlns="http://www.w3.org/2000/svg">
 <defs>
  <style id="current-color-scheme" type="text/css">
   .ColorScheme-Text { color:#ffffff; } .ColorScheme-Highlight { color:#5294e2; }
  </style>
 </defs>
 <g style="fill:currentColor" class="ColorScheme-Text">
  <path d="m8 2c-1.8364 0-3.3667 1.2018-3.9375 2.8438-1.7231 0.21836-3.0625 1.6745-3.0625 3.457 0 0.62044 0.17582 1.1939 0.45898 1.6992h13.348c0.11962-0.31151 0.19336-0.64638 0.19336-1 0-1.5464-1.2544-2.8008-2.8008-2.8008 0-2.3195-1.8797-4.1992-4.1992-4.1992z" opacity=".5"/>
  <path d="m1.5833 11h5.8333a0.58333 0.5 0 0 1 0.58334 0.5 0.58333 0.5 0 0 1-0.58334 0.5h-5.8333a0.58333 0.5 0 0 1-0.58334-0.5 0.58333 0.5 0 0 1 0.58334-0.5" opacity=".5"/>
  <path d="m10.571 11h2.8571a0.57142 0.5 0 0 1 0.57143 0.5 0.57142 0.5 0 0 1-0.57143 0.5h-2.8571a0.57142 0.5 0 0 1-0.57143-0.5 0.57142 0.5 0 0 1 0.57143-0.5" opacity=".5"/>
  <path d="m2.4901 13h1.0066a0.50329 0.5 0 0 1 0.50329 0.5 0.50329 0.5 0 0 1-0.50329 0.5h-1.0066a0.50329 0.5 0 0 1-0.5033-0.5 0.50329 0.5 0 0 1 0.5033-0.5" opacity=".5"/>
  <path d="m5.6 13h7.8a0.6 0.5 0 0 1 0.60001 0.5 0.6 0.5 0 0 1-0.60001 0.5h-7.8a0.6 0.5 0 0 1-0.6-0.5 0.6 0.5 0 0 1 0.6-0.5z" opacity=".5"/>
 </g>
</svg>
