<svg version="1.1" viewBox="0 0 22 22" xmlns="http://www.w3.org/2000/svg">
 <style type="text/css">.ColorScheme-Text {
            color:#232629;
        }
        .ColorScheme-NegativeText {
            color:#da4453;
        }</style>
 <path d="m5 3c-0.554 0-1 0.446-1 1v14c0 0.554 0.446 1 1 1h4v-5h-2v-4c0-2.2091 1.7909-4 4-4 3.374 0.00547 5.226 3.9287 3.0859 6.5371 0.15462-0.07589 0.31528-0.137 0.48437-0.19336 0.68766-0.22922 1.519-0.34375 2.4375-0.34375 0.34923 0 0.67127 0.03133 0.99219 0.064453v-8.0645c0-0.554-0.446-1-1-1zm10.008 12.736v2.9336c0.05919 0.03076 0.08108 0.04981 0.19531 0.08789 0.39662 0.13221 1.0618 0.24136 1.7969 0.24219 6.97e-4 1e-6 0.0013-1e-6 2e-3 0 0.55303-0.00107 0.998-0.44667 0.998-1v-2.0684c-0.31983 0.04206-0.64905 0.0682-0.99219 0.06836h-2e-3c-0.71748-8.44e-4 -1.3819-0.10901-1.998-0.26367z" color="#dfdfdf" fill="currentColor"/>
 <g class="ColorScheme-NegativeText" transform="translate(0,1)" color="#da4453" fill="currentColor">
  <path d="m17.008 12c-1.6569 0-3 0.44772-3 1v5c0 0.55228 1.3431 1 3 1s3-0.44772 3-1v-5c0-0.55228-1.3431-1-3-1zm0 1c0.73919 8.7e-4 1.4514 0.09268 2 0.25781v0.48633c-0.54948 0.16443-1.2616 0.25552-2 0.25586-0.73919-8.7e-4 -1.4514-0.09268-2-0.25781v-0.48633c0.54948-0.16443 1.2616-0.25552 2-0.25586z"/>
  <rect x="10" y="15" width="2" height="2"/>
  <rect x="10" y="9" width="2" height="5"/>
 </g>
</svg>
