<svg version="1.1" viewBox="0 0 22 22" xmlns="http://www.w3.org/2000/svg">
 <style type="text/css">.ColorScheme-Text {
            color:#232629;
        }</style>
 <path d="m5 3c-0.554 0-1 0.446-1 1v14c0 0.554 0.446 1 1 1h8v-5c0-0.24726 0.072788-0.46092 0.17383-0.64648a4 4 0 0 1-2.1738 0.64648h-4v-4a4 4 0 0 1 4-4 4 4 0 0 1 3.0898 6.5332c0.15126-0.073462 0.30756-0.13442 0.47266-0.18945 0.68766-0.22922 1.519-0.34375 2.4375-0.34375 0.35201 0 0.67677 0.032753 1 0.066406v-8.0664c0-0.554-0.446-1-1-1h-12zm6 5a2 2 0 0 0 0 4 2 2 0 0 0 0-4z" color="#dfdfdf" fill="currentColor"/>
 <path d="m17 13a3 1 0 0 0-3 1v5a3 1 0 0 0 3 1 3 1 0 0 0 3-1v-5a3 1 0 0 0-3-1zm0 1a3 1 0 0 1 2 0.25781v0.48633a3 1 0 0 1-2 0.25586 3 1 0 0 1-2-0.25781v-0.48633a3 1 0 0 1 2-0.25586zm-2 1.7441a3 1 0 0 0 2 0.25586 3 1 0 0 0 2-0.25586v1a3 1 0 0 1-2 0.25586 3 1 0 0 1-2-0.25781zm0 2a3 1 0 0 0 2 0.25586 3 1 0 0 0 2-0.25586v1a3 1 0 0 1-2 0.25586 3 1 0 0 1-2-0.25781z" color="#232629" fill="#dfdfdf"/>
</svg>
