<svg xmlns="http://www.w3.org/2000/svg" width="22" height="22" version="1"><defs><style id="current-color-scheme" type="text/css">.ColorScheme-Text{color:#dfdfdf;}.ColorScheme-Highlight{color:#5294e2;}</style></defs><defs><style id="current-color-scheme" type="text/css"></style></defs><path d="M11 3c-4.432 0-8 3.568-8 8s3.568 8 8 8 8-3.568 8-8-3.568-8-8-8zM9.5 7h3c.831 0 1.5.68 1.5 1.523v.764c0 .844-.669 1.713-1.5 1.713H12v3.238c0 .422-.21.762-.625.762h-.75c-.415 0-.61-.34-.625-.762V11h-.5C8.669 11 8 10.131 8 9.287v-.763C8 7.679 8.669 7 9.5 7z" fill="currentColor" class="ColorScheme-Text"/></svg>