<svg width="22" height="22" version="1.1" xmlns="http://www.w3.org/2000/svg">
 <defs>
  <style id="current-color-scheme" type="text/css">.ColorScheme-Text { color:#dfdfdf; } .ColorScheme-Highlight { color:#4285f4; }</style>
 </defs>
 <path class="ColorScheme-Text" d="m5 2c-1.662 0-3 1.338-3 3v12c0 1.662 1.338 3 3 3h12c1.662 0 3-1.338 3-3v-12c0-1.662-1.338-3-3-3zm0 2h12c0.554 0 1 0.446 1 1v12c0 0.554-0.446 1-1 1h-12c-0.554 0-1-0.446-1-1v-12c0-0.554 0.446-1 1-1zm0 11v2h5v-2zm7 0v2h5v-2z" fill="currentColor" opacity=".35"/>
</svg>
