<svg width="24" height="24" version="1.1">
 <defs>
  <style id="current-color-scheme" type="text/css">
   .ColorScheme-Text { color:#aaaaaa; } .ColorScheme-Highlight { color:#5294e2; }
  </style>
 </defs>
 <g transform="matrix(.25294 0 0 .25294 -2.0077 -2.3849)" style="fill:currentColor" class="ColorScheme-Text">
  <path d="m16.953 52.395-8.9245 19.749 19.577-8.2165-0.07918-0.08492c0.13501-0.03309 0.26322-0.07714 0.37852-0.13932l0.05953 0.06404 42.75-41.741c1.2779-1.2394-0.08394-4.8584-3.0325-8.0821-2.9525-3.2253-6.3761-4.8306-7.6507-3.591l-42.806 41.68z" opacity=".35"/>
  <path d="m60.291 10.103c-0.9231 0.97558-0.35146 3.2841 1.2703 5.7425l-42.962 41.827c-1.4398-2.1582-1.8639-4.4502-1.4201-5.6287l43.103-41.952z" opacity=".35"/>
  <path d="m28.188 63.625c-0.97103 0.94673-3.2597 0.14947-5.5485-1.6116l42.944-41.809c2.2405 1.7414 4.382 2.4648 5.362 1.5874l-41.536 40.63c-0.02739 0.03694-0.99664 0.98206-1.2213 1.2026z"/>
  <path d="m20.347 59.895c-0.67066-0.73202-1.2506-1.4823-1.7466-2.2231l42.961-41.826c0.50517 0.75975 1.0994 1.5358 1.7893 2.2897 0.7288 0.79668 1.4886 1.4922 2.2344 2.0695l-42.945 41.81c-0.76768-0.58736-1.5475-1.3028-2.294-2.1195z" opacity=".75"/>
  <path d="m67.452 18.445c-0.64288 0.233-2.0199-0.64864-3.0752-1.9689-1.0553-1.3202-1.3891-2.5789-0.74552-2.811 0.64288-0.233 2.0199 0.64864 3.0752 1.9689 1.0553 1.3202 1.3891 2.5789 0.74552 2.811z"/>
  <path d="m11.321 64.6-3.3834 7.5801 7.6219-3.1274c-1.6109 0.0012-4.4103-2.3633-4.2386-4.4527z"/>
 </g>
</svg>
