<?xml version="1.0" encoding="UTF-8"?>
<svg height="16px" viewBox="0 0 16 16" width="16px" xmlns="http://www.w3.org/2000/svg">
    <path d="m 2 0 c -1.105469 0 -2 0.894531 -2 2 c 0.00390625 0.710938 0.382812 1.371094 1 1.726562 v 8.546876 c -0.617188 0.355468 -0.99609375 1.015624 -1 1.726562 c 0 1.105469 0.894531 2 2 2 c 0.710938 -0.003906 1.371094 -0.382812 1.726562 -1 h 8.546876 c 0.355468 0.617188 1.015624 0.996094 1.726562 1 c 1.105469 0 2 -0.894531 2 -2 c 0 -0.714844 -0.382812 -1.375 -1 -1.730469 v -8.542969 c 0.617188 -0.355468 0.996094 -1.015624 1 -1.726562 c 0 -1.105469 -0.894531 -2 -2 -2 c -0.710938 0.00390625 -1.371094 0.382812 -1.726562 1 h -8.542969 c -0.355469 -0.617188 -1.015625 -1 -1.730469 -1 z m 1.726562 3 h 8.546876 c 0.007812 0.015625 0.015624 0.03125 0.027343 0.046875 l -1.125 1.117187 c -0.210937 -0.109374 -0.441406 -0.164062 -0.675781 -0.164062 c -0.632812 0 -1.199219 0.402344 -1.410156 1 h -2.179688 c -0.214844 -0.601562 -0.777344 -1 -1.410156 -1 c -0.222656 0 -0.441406 0.050781 -0.644531 0.148438 l -1.136719 -1.136719 c 0.003906 -0.003907 0.003906 -0.007813 0.007812 -0.011719 z m -0.714843 0.71875 l 1.136719 1.136719 c -0.097657 0.207031 -0.148438 0.433593 -0.148438 0.660156 c 0 0.640625 0.402344 1.210937 1 1.425781 v 2.148438 c -0.597656 0.210937 -1 0.777344 -1 1.410156 c 0 0.222656 0.050781 0.445312 0.144531 0.644531 l -1.128906 1.132813 c -0.003906 -0.003906 -0.011719 -0.003906 -0.015625 -0.007813 v -8.542969 c 0.003906 -0.003906 0.007812 -0.007812 0.011719 -0.007812 z m 9.988281 0.042969 v 8.511719 c -0.003906 0.003906 -0.007812 0.003906 -0.011719 0.007812 l -1.132812 -1.132812 c 0.09375 -0.203126 0.144531 -0.425782 0.144531 -0.648438 c 0 -0.636719 -0.402344 -1.203125 -1 -1.414062 v -2.175782 c 0.597656 -0.210937 1 -0.777344 1 -1.410156 c 0 -0.210938 -0.046875 -0.421875 -0.132812 -0.613281 z m -6.082031 2.238281 h 2.171875 c 0.152344 0.425781 0.484375 0.757812 0.910156 0.910156 v 2.179688 c -0.425781 0.152344 -0.757812 0.484375 -0.910156 0.910156 h -2.175782 c -0.152343 -0.425781 -0.488281 -0.761719 -0.914062 -0.914062 v -2.144532 c 0.433594 -0.15625 0.769531 -0.503906 0.917969 -0.941406 z m -0.007813 5 h 2.179688 c 0.210937 0.597656 0.777344 1 1.410156 1 c 0.222656 0 0.445312 -0.050781 0.644531 -0.144531 l 1.136719 1.132812 c -0.003906 0.003907 -0.003906 0.007813 -0.007812 0.011719 h -8.542969 c -0.003907 -0.003906 -0.003907 -0.011719 -0.007813 -0.015625 l 1.128906 -1.128906 c 0.203126 0.09375 0.425782 0.144531 0.648438 0.144531 c 0.632812 0 1.199219 -0.402344 1.410156 -1 z m 0 0" fill="#555555"/>
</svg>
