<?xml version="1.0" encoding="UTF-8" standalone="no"?>
<svg
   xmlns:dc="http://purl.org/dc/elements/1.1/"
   xmlns:cc="http://creativecommons.org/ns#"
   xmlns:rdf="http://www.w3.org/1999/02/22-rdf-syntax-ns#"
   xmlns:svg="http://www.w3.org/2000/svg"
   xmlns="http://www.w3.org/2000/svg"
   xmlns:sodipodi="http://sodipodi.sourceforge.net/DTD/sodipodi-0.dtd"
   xmlns:inkscape="http://www.inkscape.org/namespaces/inkscape"
   viewBox="0 0 24 24"
   id="svg2"
   version="1.1"
   inkscape:version="0.91 r13725"
   sodipodi:docname="emblem-nowrite.svg">
  <metadata
     id="metadata12">
    <rdf:RDF>
      <cc:Work
         rdf:about="">
        <dc:format>image/svg+xml</dc:format>
        <dc:type
           rdf:resource="http://purl.org/dc/dcmitype/StillImage" />
      </cc:Work>
    </rdf:RDF>
  </metadata>
  <defs
     id="defs10" />
  <sodipodi:namedview
     pagecolor="#ffffff"
     bordercolor="#666666"
     borderopacity="1"
     objecttolerance="10"
     gridtolerance="10"
     guidetolerance="10"
     inkscape:pageopacity="0"
     inkscape:pageshadow="2"
     inkscape:window-width="2560"
     inkscape:window-height="1381"
     id="namedview8"
     showgrid="false"
     inkscape:zoom="9.8333333"
     inkscape:cx="12"
     inkscape:cy="12"
     inkscape:window-x="0"
     inkscape:window-y="30"
     inkscape:window-maximized="1"
     inkscape:current-layer="svg2" />
  <path
     style="opacity:1;fill:#4d4d4d;fill-opacity:1;stroke:none"
     d="M 11.999999,1 C 5.9248678,1.000001 1,5.924869 1,12.000001 1.0000014,18.075132 5.9248678,23 11.999999,23 18.075132,23 23,18.075132 23,12.000001 23,5.924868 18.075132,1 11.999999,1 Z"
     id="path4"
     inkscape:connector-curvature="0" />
  <path
     d="m 12.000001,15.903226 a 1.4193548,1.4193548 0 0 0 1.419357,-1.419358 c 0,-0.787739 -0.638708,-1.419352 -1.419357,-1.419352 a 1.4193548,1.4193548 0 0 0 -1.419353,1.419352 1.4193548,1.4193548 0 0 0 1.419353,1.419358 m 4.258066,-6.3871005 a 1.4193548,1.4193548 0 0 1 1.419352,1.4193565 l 0,7.096772 a 1.4193548,1.4193548 0 0 1 -1.419352,1.419358 l -8.5161287,0 A 1.4193548,1.4193548 0 0 1 6.3225805,18.032254 l 0,-7.096772 c 0,-0.787744 0.6387083,-1.4193565 1.4193578,-1.4193565 l 0.709676,0 0,-1.419353 a 3.548387,3.548387 0 0 1 3.5483867,-3.548385 3.548387,3.548387 0 0 1 3.548385,3.548385 l 0,1.419353 0.709681,0 M 12,5.9677395 a 2.1290323,2.1290323 0 0 0 -2.1290336,2.129033 l 0,1.419353 4.2580686,0 0,-1.419353 A 2.1290323,2.1290323 0 0 0 12,5.9677395 Z"
     style="fill:#ffffff"
     id="path6"
     inkscape:connector-curvature="0" />
</svg>
