<svg width="16" height="16" version="1.1" viewBox="0 0 16 16" xmlns="http://www.w3.org/2000/svg">
 <g transform="translate(-155.5,-318.5)" fill="#555555">
  <path d="m161 324h1.375l1.125 1.0938 1.0938-1.0938h1.4062v1.4688l-1.0938 1.0625 1.0938 1.0625v1.4062h-1.4375l-1.0625-1.0625-1.0625 1.0625h-1.4375v-1.4062l1.0625-1.0625-1.0625-1.0625z" fill="#555555"/>
 </g>
 <path d="m5 0c-1.108 0-2 0.892-2 2v12c0 1.108 0.892 2 2 2h6c1.108 0 2-0.892 2-2v-12c0-1.108-0.892-2-2-2h-4zm0 2h6v12h-6z" fill="#555555"/>
 <rect x="6" y="12" width="4" height="1" fill="#555555" stroke-width="0" style="paint-order:stroke fill markers"/>
</svg>
