<?xml version="1.0" encoding="UTF-8" standalone="no"?>
<svg
   xmlns:dc="http://purl.org/dc/elements/1.1/"
   xmlns:cc="http://creativecommons.org/ns#"
   xmlns:rdf="http://www.w3.org/1999/02/22-rdf-syntax-ns#"
   xmlns:svg="http://www.w3.org/2000/svg"
   xmlns="http://www.w3.org/2000/svg"
   xmlns:sodipodi="http://sodipodi.sourceforge.net/DTD/sodipodi-0.dtd"
   xmlns:inkscape="http://www.inkscape.org/namespaces/inkscape"
   width="64"
   height="64"
   version="1.1"
   id="svg24"
   sodipodi:docname="1cedt.svg"
   inkscape:version="1.0.1 (3bc2e813f5, 2020-09-07)">
  <metadata
     id="metadata30">
    <rdf:RDF>
      <cc:Work
         rdf:about="">
        <dc:format>image/svg+xml</dc:format>
        <dc:type
           rdf:resource="http://purl.org/dc/dcmitype/StillImage" />
        <dc:title></dc:title>
      </cc:Work>
    </rdf:RDF>
  </metadata>
  <defs
     id="defs28" />
  <sodipodi:namedview
     pagecolor="#ffffff"
     bordercolor="#666666"
     borderopacity="1"
     objecttolerance="10"
     gridtolerance="10"
     guidetolerance="10"
     inkscape:pageopacity="0"
     inkscape:pageshadow="2"
     inkscape:window-width="1920"
     inkscape:window-height="998"
     id="namedview26"
     showgrid="false"
     inkscape:zoom="9.1813396"
     inkscape:cx="28.095714"
     inkscape:cy="33.569999"
     inkscape:window-x="0"
     inkscape:window-y="0"
     inkscape:window-maximized="1"
     inkscape:current-layer="svg24" />
  <g
     id="g859"
     transform="matrix(1.375,0,0,1.375,-11.999999,-12)">
    <path
       style="fill:#7f80a1"
       d="m 26.988282,36.675782 -7.070313,12.234374 3.464843,2.003906 7.070312,-12.234374 z"
       id="path10" />
    <path
       style="fill:#0d65d7"
       d="m 40.5625,13.1875 -7.175782,12.421876 3.460938,2 7.179688,-12.421876 z"
       id="path12" />
    <path
       style="fill:#7f80a1"
       d="m 20.445312,24 -8.082031,14 8.082031,14 h 16.164064 l 8.08203,-14 -8.08203,-14 z m 2.308594,4 h 11.546876 l 5.773436,10 -5.773436,10 H 22.753906 L 16.980469,38 Z"
       id="path16" />
    <path
       style="fill:#0d65d7"
       d="m 27.390624,12 -8.08203,14 8.08203,14 h 16.164064 l 8.08203,-14 -8.078124,-14 z m 2.308594,4 H 41.25 l 5.769532,10 -5.773438,10 H 29.703124 L 23.925782,26 Z"
       id="path20" />
  </g>
</svg>
