<?xml version="1.0" encoding="UTF-8" standalone="no"?>
<svg
   xmlns:dc="http://purl.org/dc/elements/1.1/"
   xmlns:cc="http://creativecommons.org/ns#"
   xmlns:rdf="http://www.w3.org/1999/02/22-rdf-syntax-ns#"
   xmlns:svg="http://www.w3.org/2000/svg"
   xmlns="http://www.w3.org/2000/svg"
   xmlns:xlink="http://www.w3.org/1999/xlink"
   xmlns:sodipodi="http://sodipodi.sourceforge.net/DTD/sodipodi-0.dtd"
   xmlns:inkscape="http://www.inkscape.org/namespaces/inkscape"
   width="64"
   height="64"
   version="1"
   id="svg12"
   sodipodi:docname="1cestart.svg"
   inkscape:version="1.0.1 (3bc2e813f5, 2020-09-07)">
  <metadata
     id="metadata18">
    <rdf:RDF>
      <cc:Work
         rdf:about="">
        <dc:format>image/svg+xml</dc:format>
        <dc:type
           rdf:resource="http://purl.org/dc/dcmitype/StillImage" />
        <dc:title></dc:title>
      </cc:Work>
    </rdf:RDF>
  </metadata>
  <defs
     id="defs16">
    <linearGradient
       id="d-7"
       x1="8.5518"
       x2="8.9409"
       y1="3.2215"
       y2="13.052"
       gradientTransform="matrix(4.3609048,0,0,4.358637,-4.9219549,-4.8866478)"
       gradientUnits="userSpaceOnUse">
      <stop
         stop-color="#faed1c"
         offset="0"
         id="stop845" />
      <stop
         stop-color="#fad31c"
         offset="1"
         id="stop847" />
    </linearGradient>
    <linearGradient
       id="linearGradient3486"
       x1="6.576"
       x2="6.576"
       y1="1.58"
       y2="15.33"
       gradientTransform="matrix(4.3609048,0,0,4.358637,-4.9219549,-4.8866478)"
       gradientUnits="userSpaceOnUse">
      <stop
         stop-color="#f10166"
         offset="0"
         id="stop850" />
      <stop
         stop-color="#fc3d4a"
         offset="1"
         id="stop852" />
    </linearGradient>
    <linearGradient
       inkscape:collect="always"
       xlink:href="#d-7"
       id="linearGradient889"
       gradientUnits="userSpaceOnUse"
       gradientTransform="matrix(4.3609048,0,0,4.358637,-4.9219549,-4.8866478)"
       x1="8.5518"
       y1="3.2215"
       x2="8.9409"
       y2="13.052" />
  </defs>
  <sodipodi:namedview
     pagecolor="#ffffff"
     bordercolor="#666666"
     borderopacity="1"
     objecttolerance="10"
     gridtolerance="10"
     guidetolerance="10"
     inkscape:pageopacity="0"
     inkscape:pageshadow="2"
     inkscape:window-width="1920"
     inkscape:window-height="998"
     id="namedview14"
     showgrid="false"
     inkscape:zoom="2"
     inkscape:cx="7.5065825"
     inkscape:cy="50.626515"
     inkscape:window-x="0"
     inkscape:window-y="0"
     inkscape:window-maximized="1"
     inkscape:current-layer="svg12" />
  <style
     type="text/css"
     id="style857">.st0{opacity:0.15;fill:#45413C;}
	.st1{fill:#FFE500;}
	.st2{fill:#EBCB00;}
	.st3{fill:none;stroke:#45413C;stroke-linecap:round;stroke-linejoin:round;stroke-miterlimit:10;}
	.st4{fill:#FFAA54;}
	.st5{fill:#FF8A14;}
	.st6{fill:#FFB0CA;stroke:#45413C;stroke-linecap:round;stroke-linejoin:round;stroke-miterlimit:10;}
	.st7{fill:#FF87AF;stroke:#45413C;stroke-linecap:round;stroke-linejoin:round;stroke-miterlimit:10;}
	.st8{fill:#FFCC99;}
	.st9{fill:#FFFFFF;}
	.st10{fill:#F0F0F0;}
	.st11{fill:#BF8256;}
	.st12{fill:#915E3A;}
	.st13{fill:#DEA47A;}
	.st14{fill:#F0D5A8;}
	.st15{fill:#DEBB7E;}
	.st16{fill:#F7E5C6;}
	.st17{fill:#FF8A14;stroke:#45413C;stroke-linecap:round;stroke-linejoin:round;stroke-miterlimit:10;}
	.st18{fill:#FFF5E3;}
	.st19{fill:#FFF48C;}
	.st20{fill:#FFFACF;}
	.st21{fill:#FFFCE5;}
	.st22{fill:#FF87AF;}
	.st23{fill:#FFB0CA;}
	.st24{fill:#FFE500;stroke:#45413C;stroke-linecap:round;stroke-linejoin:round;stroke-miterlimit:10;}
	.st25{fill:#9CEB60;stroke:#45413C;stroke-linecap:round;stroke-linejoin:round;stroke-miterlimit:10;}
	.st26{fill:#FFFACF;stroke:#45413C;stroke-linecap:round;stroke-linejoin:round;stroke-miterlimit:10;}
	.st27{fill:#00F5BC;stroke:#45413C;stroke-linecap:round;stroke-linejoin:round;stroke-miterlimit:10;}
	.st28{fill:#BF8256;stroke:#45413C;stroke-linecap:round;stroke-linejoin:round;stroke-miterlimit:10;}
	.st29{fill:#FFE3CF;stroke:#45413C;stroke-linecap:round;stroke-linejoin:round;stroke-miterlimit:10;}
	.st30{fill:#FF6242;}
	.st31{fill:#FF866E;}
	.st32{fill:none;stroke:#E04122;stroke-linecap:round;stroke-linejoin:round;stroke-miterlimit:10;}
	.st33{fill:#FFFEF2;stroke:#45413C;stroke-linecap:round;stroke-linejoin:round;stroke-miterlimit:10;}
	.st34{fill:#FF6242;stroke:#45413C;stroke-linecap:round;stroke-linejoin:round;stroke-miterlimit:10;}
	.st35{fill:#FFA694;}
	.st36{fill:#FFFFFF;stroke:#45413C;stroke-linecap:round;stroke-linejoin:round;stroke-miterlimit:10;}
	.st37{fill:#FFFEF2;}
	.st38{fill:#FF6196;}
	.st39{fill:#B89558;}
	.st40{fill:none;stroke:#915E3A;stroke-linecap:round;stroke-linejoin:round;stroke-miterlimit:10;}
	.st41{fill:#DEBB7E;stroke:#45413C;stroke-linecap:round;stroke-linejoin:round;stroke-miterlimit:10;}
	.st42{fill:#6DD627;stroke:#45413C;stroke-linecap:round;stroke-linejoin:round;stroke-miterlimit:10;}
	.st43{fill:#E5F8FF;}
	.st44{fill:#E8F4FA;}
	.st45{fill:#E8F4FA;stroke:#45413C;stroke-linecap:round;stroke-linejoin:round;stroke-miterlimit:10;}
	.st46{fill:#FFCCDD;}
	.st47{fill:#E5F8FF;stroke:#45413C;stroke-linecap:round;stroke-linejoin:round;stroke-miterlimit:10;}
	.st48{fill:#00B8F0;stroke:#45413C;stroke-linecap:round;stroke-linejoin:round;stroke-miterlimit:10;}
	.st49{fill:#00B8F0;}
	.st50{fill:#4ACFFF;}
	.st51{fill:#E04122;}
	.st52{fill:#E04122;stroke:#45413C;stroke-linecap:round;stroke-linejoin:round;stroke-miterlimit:10;}
	.st53{fill:#87898C;}
	.st54{fill:#BDBEC0;}
	.st55{fill:#656769;}
	.st56{fill:#525252;}
	.st57{fill:#FFF48C;stroke:#45413C;stroke-linecap:round;stroke-linejoin:round;stroke-miterlimit:10;}
	.st58{fill:#6DD627;}
	.st59{fill:#EB6D00;}
	.st60{fill:#46B000;}
	.st61{fill:#80DDFF;}
	.st62{fill:#DAEDF7;}
	.st63{fill:#BF8DF2;stroke:#45413C;stroke-linecap:round;stroke-linejoin:round;stroke-miterlimit:10;}
	.st64{fill:#9F5AE5;stroke:#45413C;stroke-linecap:round;stroke-linejoin:round;stroke-miterlimit:10;}
	.st65{fill:#C8FFA1;}
	.st66{fill:#E4FFD1;}
	.st67{fill:#9CEB60;}
	.st68{fill:#E5FEFF;}
	.st69{fill:#B8ECFF;}
	.st70{fill:#E0E0E0;stroke:#45413C;stroke-linecap:round;stroke-linejoin:round;stroke-miterlimit:10;}
	.st71{fill:#E0E0E0;}
	.st72{fill:none;stroke:#4F4B45;stroke-linejoin:round;stroke-miterlimit:10;}
	.st73{fill:none;stroke:#4F4B45;stroke-linecap:round;stroke-linejoin:round;stroke-miterlimit:10;}
	.st74{fill:#E0366F;stroke:#45413C;stroke-linecap:round;stroke-linejoin:round;stroke-miterlimit:10;}
	.st75{fill:none;stroke:#45413C;stroke-miterlimit:10;}
	.st76{fill:#FF866E;stroke:#45413C;stroke-linecap:round;stroke-linejoin:round;stroke-miterlimit:10;}
	.st77{fill:#45413C;stroke:#45413C;stroke-linecap:round;stroke-linejoin:round;stroke-miterlimit:10;}
	.st78{fill:#9F5AE5;}
	.st79{fill:#803EC2;}
	.st80{fill:#803EC2;stroke:#45413C;stroke-linecap:round;stroke-linejoin:round;stroke-miterlimit:10;}
	.st81{fill:#BF8DF2;}
	.st82{fill:#FFAA54;stroke:#45413C;stroke-linecap:round;stroke-linejoin:round;stroke-miterlimit:10;}
	.st83{fill:none;stroke:#45413C;stroke-linejoin:round;stroke-miterlimit:10;}
	.st84{fill:#FFCCDD;stroke:#45413C;stroke-linecap:round;stroke-linejoin:round;stroke-miterlimit:10;}
	.st85{fill:#FF6196;stroke:#45413C;stroke-linecap:round;stroke-linejoin:round;stroke-miterlimit:10;}
	.st86{fill:#FFE5EE;}
	.st87{fill:#F7E5C6;stroke:#45413C;stroke-linecap:round;stroke-linejoin:round;stroke-miterlimit:10;}
	.st88{fill:#E5FFF9;}
	.st89{fill:none;stroke:#45413C;stroke-width:1.0064;stroke-linecap:round;stroke-linejoin:round;stroke-miterlimit:10;}
	.st90{fill:#4AEFF7;}
	.st91{fill:#A6FBFF;}
	.st92{fill:#E5FEFF;stroke:#45413C;stroke-linecap:round;stroke-linejoin:round;stroke-miterlimit:10;}
	.st93{fill:#46B000;stroke:#45413C;stroke-linecap:round;stroke-linejoin:round;stroke-miterlimit:10;}
	.st94{fill:#FFFFFF;stroke:#45413C;stroke-linejoin:round;stroke-miterlimit:10;}
	.st95{fill:#FFFFFF;stroke:#45413C;stroke-miterlimit:10;}
	.st96{fill:#009FD9;}
	.st97{fill:#00DFEB;}
	.st98{fill:#C0DCEB;stroke:#45413C;stroke-linecap:round;stroke-linejoin:round;stroke-miterlimit:10;}
	.st99{fill:#00DFEB;stroke:#45413C;stroke-linecap:round;stroke-linejoin:round;stroke-miterlimit:10;}
	.st100{fill:#FFE5EE;stroke:#45413C;stroke-linecap:round;stroke-linejoin:round;stroke-miterlimit:10;}
	.st101{fill:#8CA4B8;}
	.st102{fill:#ADC4D9;}
	.st103{fill:#656769;stroke:#45413C;stroke-linecap:round;stroke-linejoin:round;stroke-miterlimit:10;}
	.st104{fill:#F0F0F0;stroke:#45413C;stroke-linecap:round;stroke-linejoin:round;stroke-miterlimit:10;}
	.st105{fill:#C0DCEB;}
	.st106{fill:#45413C;}
	.st107{fill:#FFCABF;}
	.st108{fill:#87898C;stroke:#45413C;stroke-linecap:round;stroke-linejoin:round;stroke-miterlimit:10;}
	.st109{fill:#EBCB00;stroke:#45413C;stroke-linecap:round;stroke-linejoin:round;stroke-miterlimit:10;}</style>
  <path
     id="path859"
     style="fill:url(#linearGradient889);stroke-width:3.27605;paint-order:markers stroke fill"
     d="M 32.001953 2 A 30.177476 30.161602 0 0 0 27.435547 2.375 C 27.430085 2.3800725 27.405967 2.404969 27.400391 2.4101562 A 30.002859 29.987362 0 0 0 27.398438 2.4101562 A 30.002859 29.987362 0 0 0 2.4257812 27.214844 C 2.4192532 27.221824 2.3851949 27.256927 2.3789062 27.263672 A 29.348987 29.333491 0 0 0 2.3125 27.707031 C 2.3246661 27.697114 2.3449919 27.680046 2.3574219 27.669922 A 30.002859 29.987362 0 0 0 2 32.017578 A 30.002859 29.987362 0 0 0 4.2089844 43.259766 C 4.2062242 43.264274 4.2000084 43.272858 4.1972656 43.277344 A 30.016087 30.000591 0 0 0 12.712891 54.980469 A 30.002859 29.987362 0 0 0 12.720703 54.988281 A 30.016087 30.000591 0 0 0 29.861328 61.931641 L 29.882812 61.400391 L 29.865234 61.890625 A 30.002859 29.987362 0 0 0 32.001953 62 A 30.002859 29.987362 0 0 0 62 32.011719 A 30.002859 29.987362 0 0 0 45.183594 5.1191406 C 45.187534 5.1121516 45.193407 5.102665 45.197266 5.0957031 A 30.042166 30.02667 0 0 0 32.001953 2.0019531 L 32.001953 2 z M 29.201172 4.0527344 C 29.129088 4.0951682 29.053476 4.1405294 28.966797 4.2050781 C 28.624459 4.4578768 26.916274 5.9470125 25.044922 7.6054688 C 26.915763 5.9470125 28.622726 4.4577445 28.962891 4.2050781 C 29.050444 4.1415931 29.127782 4.0955104 29.201172 4.0527344 z M 45.181641 5.1210938 L 45.181641 5.125 C 45.122725 5.230997 45.041646 5.3579379 44.964844 5.4804688 C 45.043336 5.355152 45.120566 5.2292621 45.181641 5.1210938 z M 22.576172 7.09375 C 17.975056 11.616481 11.337916 18.211151 6.8867188 22.679688 C 11.33031 18.217185 17.966633 11.623766 22.576172 7.09375 z M 8.5449219 36.515625 L 5.7890625 40.787109 C 5.5709397 41.122845 5.4510427 41.318123 5.2578125 41.617188 C 5.4510125 41.317667 5.5705127 41.120384 5.7890625 40.783203 L 8.5449219 36.515625 z M 30.330078 54.662109 C 30.242931 55.642883 30.172575 56.610285 30.119141 57.566406 C 30.045458 58.879678 29.948221 60.382573 29.896484 61.150391 C 29.948245 60.382084 30.04355 58.880879 30.117188 57.568359 C 30.170881 56.612191 30.242701 55.642924 30.330078 54.662109 z " />
  <path
     d="M 30.139901,2.1438277 A 30.002859,29.983205 0 0 0 28.22111,2.3050958 30.002859,29.983205 0 0 1 30.139901,2.1438277 Z M 2.4263473,27.249456 l -0.00872,0.01308 a 30.002859,29.983205 0 0 0 -0.069771,0.435864 30.002859,29.983205 0 0 1 0.078495,-0.448941 z"
     fill="#d8d342"
     id="path863"
     style="stroke-width:3.27605" />
  <path
     style="fill:#fe3838"
     d="m 16.048768,20.001199 v 5.999829 h 3.999887 v 17.999486 h 5.999827 V 20.001199 Z m 25.999253,0 c -6.62721,0 -11.99965,5.372447 -11.99965,11.999657 0,6.627211 5.37244,11.999658 11.99965,11.999658 h 17.396527 c 0.897161,-1.894826 1.490553,-3.897289 1.946723,-5.999829 h -19.34345 c -3.3137,0 -5.99982,-2.686123 -5.99982,-5.999829 0,-3.313705 2.68612,-5.999828 5.99982,-5.999828 1.70344,0.0032 3.32511,0.730279 4.46088,1.999943 h 6.8358 c -1.69195,-4.787864 -6.21582,-7.991772 -11.29568,-7.999772 z"
     id="path892"
     sodipodi:nodetypes="cccccccsssccsscccss" />
</svg>
