<?xml version="1.0" encoding="UTF-8" standalone="no"?>
<svg
   xmlns:dc="http://purl.org/dc/elements/1.1/"
   xmlns:cc="http://creativecommons.org/ns#"
   xmlns:rdf="http://www.w3.org/1999/02/22-rdf-syntax-ns#"
   xmlns:svg="http://www.w3.org/2000/svg"
   xmlns="http://www.w3.org/2000/svg"
   xmlns:sodipodi="http://sodipodi.sourceforge.net/DTD/sodipodi-0.dtd"
   xmlns:inkscape="http://www.inkscape.org/namespaces/inkscape"
   width="64"
   height="64"
   version="1.1"
   id="svg24"
   sodipodi:docname="2064-read-only-memories.svg"
   inkscape:version="1.0.1 (3bc2e813f5, 2020-09-07)">
  <metadata
     id="metadata30">
    <rdf:RDF>
      <cc:Work
         rdf:about="">
        <dc:format>image/svg+xml</dc:format>
        <dc:type
           rdf:resource="http://purl.org/dc/dcmitype/StillImage" />
        <dc:title></dc:title>
      </cc:Work>
    </rdf:RDF>
  </metadata>
  <defs
     id="defs28">
    <linearGradient
       id="linearGradient1005"
       x1=".73911"
       x2="16.388"
       y1="16.296"
       y2=".64687"
       gradientTransform="matrix(3.7795018,0,0,3.7795018,-0.1328155,0.02516333)"
       gradientUnits="userSpaceOnUse">
      <stop
         stop-color="#00a0ff"
         offset="0"
         id="stop954" />
      <stop
         stop-color="#37beff"
         offset="1"
         id="stop956" />
    </linearGradient>
    <linearGradient
       id="w"
       x1="123.64"
       x2="146.53"
       y1="131.03"
       y2="174.71"
       gradientTransform="matrix(4.2812,0,0,3.5908,41,42)"
       gradientUnits="userSpaceOnUse">
      <stop
         stop-color="#fafafa"
         offset="0"
         id="stop959" />
      <stop
         stop-color="#fff"
         offset="1"
         id="stop961" />
    </linearGradient>
    <filter
       id="filter1152"
       x="-.055255"
       y="-.065641"
       width="1.1105"
       height="1.1313"
       color-interpolation-filters="sRGB">
      <feGaussianBlur
         stdDeviation="2.9934784"
         id="feGaussianBlur964" />
    </filter>
  </defs>
  <sodipodi:namedview
     pagecolor="#ffffff"
     bordercolor="#666666"
     borderopacity="1"
     objecttolerance="10"
     gridtolerance="10"
     guidetolerance="10"
     inkscape:pageopacity="0"
     inkscape:pageshadow="2"
     inkscape:window-width="1920"
     inkscape:window-height="998"
     id="namedview26"
     showgrid="false"
     inkscape:zoom="4.5906698"
     inkscape:cx="32.919099"
     inkscape:cy="34.048373"
     inkscape:window-x="0"
     inkscape:window-y="0"
     inkscape:window-maximized="1"
     inkscape:current-layer="svg24" />
  <path
     d="m 61.999612,31.999546 c 0,3.596351 -0.63303,7.044432 -1.793908,10.2403 -0.806945,2.22115 -1.868537,4.32108 -3.151832,6.263504 -0.537537,0.816676 -1.115482,1.605355 -1.728968,2.363276 -1.96403,2.42566 -4.29799,4.537959 -6.918263,6.252372 -0.964904,0.631834 -1.967782,1.20982 -3.006078,1.72769 -4.031964,2.017837 -8.583611,3.152904 -13.400708,3.152904 -4.817097,0 -9.368662,-1.135067 -13.400708,-3.152987 -1.038378,-0.517993 -2.042452,-1.095938 -3.007356,-1.72769 -2.653464,-1.737544 -5.015421,-3.883034 -6.9953655,-6.348853 -0.614641,-0.764065 -1.191431,-1.560001 -1.728968,-2.384016 -1.24899,-1.91014 -2.283617,-3.971105 -3.074605,-6.149293 -1.160713,-3.194754 -1.79263,-6.641598 -1.79263,-10.236588 0,-16.568538 13.4312185,-29.9997569 29.9997565,-29.9997569 8.316842,0 15.842447,3.384461 21.276783,8.8503799 1.566061,1.574596 2.958372,3.323273 4.143371,5.213746 1.12043,1.780425 2.05709,3.688091 2.785653,5.694919 1.161002,3.195909 1.793991,6.644073 1.793991,10.240299 z"
     fill="url(#linearGradient1005)"
     stroke-width="0.117189"
     id="path981"
     style="fill:url(#linearGradient1005)" />
  <path
     d="m 21.324622,44.000001 h 20.283217 c 3.202613,-2.135076 0,-4.270151 0,-4.270151 h -2.135076"
     style="fill:none;stroke:#ffffff;stroke-width:4.27015;stroke-linecap:round;stroke-linejoin:round"
     id="path857" />
  <path
     d="M 9.5817118,36.527237 H 18.122009"
     style="fill:none;stroke:#f8bfd5;stroke-width:4.27015;stroke-linecap:round;stroke-linejoin:round"
     id="path859" />
  <path
     d="m 45.877989,36.527237 h 8.540302"
     style="fill:none;stroke:#f8bfd5;stroke-width:4.27015;stroke-linecap:round;stroke-linejoin:round"
     id="path861" />
  <path
     d="M 21.324622,31.189548 V 21.581709"
     style="stroke:#ffffff;stroke-width:4.27015;stroke-linecap:round;stroke-linejoin:round"
     id="path863" />
  <path
     d="M 40.540301,31.189548 V 21.581709"
     style="stroke:#ffffff;stroke-width:4.27015;stroke-linecap:round;stroke-linejoin:round"
     id="path865" />
  <path
     id="path867"
     style="fill:#ffffff;stroke-width:1.06754"
     d="M 31.855469 2 A 30 30 0 0 0 28.796875 2.171875 L 28.796875 6.6367188 C 28.796875 7.8195505 29.748809 8.7714844 30.931641 8.7714844 C 32.114472 8.7714844 33.068359 7.8195505 33.068359 6.6367188 L 33.068359 2.0195312 A 30 30 0 0 0 32 2 A 30 30 0 0 0 31.855469 2 z M 43.658203 4.359375 A 12.810452 8.5403016 0 0 1 30.931641 11.974609 A 12.810452 8.5403016 0 0 1 18.423828 5.25 A 30 30 0 0 0 16.548828 6.2851562 A 14.945528 10.675377 0 0 0 30.931641 14.109375 A 14.945528 10.675377 0 0 0 45.648438 5.2851562 A 30 30 0 0 0 43.658203 4.359375 z " />
  <circle
     cx="-1403.6719"
     cy="-1237.7544"
     r="0"
     id="circle971"
     style="fill:#5e4aa6;stroke-width:1.00001" />
  <circle
     cx="-1334.7318"
     cy="-1229.7037"
     r="0"
     id="circle973"
     style="fill:#5e4aa6;stroke-width:1.00001" />
  <circle
     cx="-1311.7141"
     cy="-1255.4807"
     r="0"
     id="circle975"
     style="fill:#5e4aa6;stroke-width:1.00001" />
  <circle
     cx="-1322.3726"
     cy="-1228.7968"
     r="0"
     id="circle977"
     style="fill:#5e4aa6;stroke-width:1.00001" />
</svg>
