<?xml version="1.0" encoding="UTF-8" standalone="no"?>
<svg
   xmlns:dc="http://purl.org/dc/elements/1.1/"
   xmlns:cc="http://creativecommons.org/ns#"
   xmlns:rdf="http://www.w3.org/1999/02/22-rdf-syntax-ns#"
   xmlns:svg="http://www.w3.org/2000/svg"
   xmlns="http://www.w3.org/2000/svg"
   xmlns:xlink="http://www.w3.org/1999/xlink"
   xmlns:sodipodi="http://sodipodi.sourceforge.net/DTD/sodipodi-0.dtd"
   xmlns:inkscape="http://www.inkscape.org/namespaces/inkscape"
   height="64"
   width="64"
   version="1.1"
   id="svg12"
   sodipodi:docname="3D-Coat.svg"
   inkscape:version="1.0.1 (3bc2e813f5, 2020-09-07)">
  <metadata
     id="metadata18">
    <rdf:RDF>
      <cc:Work
         rdf:about="">
        <dc:format>image/svg+xml</dc:format>
        <dc:type
           rdf:resource="http://purl.org/dc/dcmitype/StillImage" />
        <dc:title></dc:title>
      </cc:Work>
    </rdf:RDF>
  </metadata>
  <defs
     id="defs16">
    <linearGradient
       inkscape:collect="always"
       id="linearGradient901">
      <stop
         style="stop-color:#72b144;stop-opacity:1"
         offset="0"
         id="stop897" />
      <stop
         style="stop-color:#68d623;stop-opacity:1"
         offset="1"
         id="stop899" />
    </linearGradient>
    <linearGradient
       inkscape:collect="always"
       id="linearGradient871">
      <stop
         style="stop-color:#353938;stop-opacity:1"
         offset="0"
         id="stop867" />
      <stop
         style="stop-color:#1b1b1b;stop-opacity:1"
         offset="1"
         id="stop869" />
    </linearGradient>
    <linearGradient
       inkscape:collect="always"
       xlink:href="#linearGradient871"
       id="linearGradient873"
       x1="3.3785536"
       y1="53.093681"
       x2="3.3785536"
       y2="112.96758"
       gradientUnits="userSpaceOnUse"
       gradientTransform="translate(28.387119,-51.188911)" />
    <linearGradient
       inkscape:collect="always"
       xlink:href="#linearGradient901"
       id="linearGradient888"
       gradientUnits="userSpaceOnUse"
       gradientTransform="translate(28.387119,-51.188911)"
       x1="3.3785536"
       y1="53.093681"
       x2="3.3785536"
       y2="112.96758" />
  </defs>
  <sodipodi:namedview
     pagecolor="#ffffff"
     bordercolor="#666666"
     borderopacity="1"
     objecttolerance="10"
     gridtolerance="10"
     guidetolerance="10"
     inkscape:pageopacity="0"
     inkscape:pageshadow="2"
     inkscape:window-width="1920"
     inkscape:window-height="998"
     id="namedview14"
     showgrid="false"
     inkscape:zoom="4.5906698"
     inkscape:cx="18.943735"
     inkscape:cy="42.417153"
     inkscape:window-x="0"
     inkscape:window-y="0"
     inkscape:window-maximized="1"
     inkscape:current-layer="svg12" />
  <circle
     style="fill:url(#linearGradient873);fill-opacity:1;stroke-width:1.96078;stroke-linecap:round"
     id="path857"
     cx="32"
     cy="32"
     r="30" />
  <path
     id="path890"
     style="fill:url(#linearGradient888);fill-opacity:1;stroke-width:1.96078;stroke-linecap:round"
     d="M 31.855469 2 A 30 30 0 0 0 2.0019531 31.828125 A 30 30 0 0 1 2.0097656 31.367188 A 30 30 0 0 1 2.0253906 30.90625 A 30 30 0 0 1 2.0488281 30.447266 A 30 30 0 0 1 2.078125 29.986328 A 30 30 0 0 1 2.1152344 29.527344 A 30 30 0 0 1 2.1601562 29.070312 A 30 30 0 0 1 2.2109375 28.611328 A 30 30 0 0 1 2.2695312 28.154297 A 30 30 0 0 1 2.3339844 27.699219 A 30 30 0 0 1 2.40625 27.244141 A 30 30 0 0 1 2.484375 26.791016 C 2.651758 27.376565 2.8782817 27.993614 3.1875 28.591797 C 3.4967183 29.18998 3.8896247 29.768635 4.3867188 30.273438 C 4.8838128 30.77824 5.4857868 31.210217 6.2167969 31.515625 C 6.947807 31.821033 7.8073928 32 8.8183594 32 C 9.6706321 32 10.415838 31.872159 11.068359 31.648438 C 11.720881 31.424716 12.280362 31.104226 12.759766 30.720703 C 13.718572 29.953658 14.357067 28.93093 14.783203 27.908203 C 15.20934 26.885476 15.422763 25.862749 15.529297 25.095703 C 15.635831 24.328658 15.636719 23.818359 15.636719 23.818359 L 15.636719 21.091797 C 15.636719 21.091797 15.635654 20.408381 15.976562 19.726562 C 16.147017 19.385653 16.403587 19.044744 16.787109 18.789062 C 17.170632 18.533381 17.681463 18.363281 18.363281 18.363281 C 19.045099 18.363281 19.55593 18.533381 19.939453 18.789062 C 20.322976 19.044744 20.579545 19.385653 20.75 19.726562 C 21.090909 20.408381 21.091797 21.091797 21.091797 21.091797 L 21.091797 47 C 21.091797 47 21.090731 47.681463 21.431641 48.363281 C 21.602095 48.70419 21.858665 49.045099 22.242188 49.300781 C 22.62571 49.556463 23.136541 49.726562 23.818359 49.726562 C 24.500178 49.726562 25.011008 49.556463 25.394531 49.300781 C 25.778054 49.045099 26.034624 48.70419 26.205078 48.363281 C 26.545987 47.681463 26.544922 47 26.544922 47 L 26.544922 23.818359 C 26.544922 23.818359 26.544744 22.455433 27.226562 21.091797 C 27.567472 20.409979 28.078658 19.728161 28.845703 19.216797 C 29.229226 18.961115 29.677202 18.746804 30.199219 18.597656 C 30.721236 18.448509 31.318182 18.363281 32 18.363281 C 32.681818 18.363281 33.278764 18.448509 33.800781 18.597656 C 34.322798 18.746804 34.770774 18.961115 35.154297 19.216797 C 35.921342 19.728161 36.432528 20.409979 36.773438 21.091797 C 37.455256 22.455433 37.455078 23.818359 37.455078 23.818359 L 37.455078 38.818359 C 37.455078 38.818359 37.454901 40.181286 38.136719 41.544922 C 38.477628 42.22674 38.988814 42.908558 39.755859 43.419922 C 40.139382 43.675604 40.587358 43.889915 41.109375 44.039062 C 41.631392 44.18821 42.226385 44.273438 42.908203 44.273438 C 44.27184 44.273438 45.295454 44.016335 46.0625 43.632812 C 46.829546 43.24929 47.340732 42.737926 47.681641 42.226562 C 48.363459 41.203835 48.363281 40.181641 48.363281 40.181641 L 48.363281 29.273438 C 48.363281 29.273438 48.364169 28.590021 48.705078 27.908203 C 48.875533 27.567294 49.130149 27.226385 49.513672 26.970703 C 49.897194 26.715021 50.409979 26.544922 51.091797 26.544922 C 51.773615 26.544922 52.284446 26.715021 52.667969 26.970703 C 53.051492 27.226385 53.306108 27.567294 53.476562 27.908203 C 53.817472 28.590021 53.818359 29.273438 53.818359 29.273438 L 53.818359 37.455078 C 53.818359 37.455078 53.817294 38.136541 54.158203 38.818359 C 54.328658 39.159268 54.585227 39.500178 54.96875 39.755859 C 55.352273 40.011541 55.863104 40.181641 56.544922 40.181641 C 57.22674 40.181641 57.739524 40.011541 58.123047 39.755859 C 58.50657 39.500178 58.761186 39.159268 58.931641 38.818359 C 59.27255 38.136541 59.273438 37.455078 59.273438 37.455078 L 59.273438 27.908203 C 59.273438 27.908203 59.275078 27.373404 59.517578 26.777344 C 59.638828 26.479314 59.821185 26.16485 60.091797 25.896484 C 60.362409 25.628119 60.722041 25.404737 61.201172 25.285156 A 30 30 0 0 1 61.275391 25.605469 A 30 30 0 0 1 61.371094 26.054688 A 30 30 0 0 1 61.462891 26.507812 A 30 30 0 0 1 61.544922 26.960938 A 30 30 0 0 1 61.621094 27.414062 A 30 30 0 0 1 61.691406 27.869141 A 30 30 0 0 1 61.753906 28.326172 A 30 30 0 0 1 61.808594 28.783203 A 30 30 0 0 1 61.857422 29.240234 A 30 30 0 0 1 61.898438 29.699219 A 30 30 0 0 1 61.933594 30.160156 A 30 30 0 0 1 61.960938 30.619141 A 30 30 0 0 1 61.980469 31.078125 A 30 30 0 0 1 61.994141 31.539062 A 30 30 0 0 1 62 32 A 30 30 0 0 0 32 2 A 30 30 0 0 0 31.855469 2 z " />
</svg>
