<?xml version="1.0" encoding="UTF-8" standalone="no"?>
<svg
   xmlns:dc="http://purl.org/dc/elements/1.1/"
   xmlns:cc="http://creativecommons.org/ns#"
   xmlns:rdf="http://www.w3.org/1999/02/22-rdf-syntax-ns#"
   xmlns:svg="http://www.w3.org/2000/svg"
   xmlns="http://www.w3.org/2000/svg"
   xmlns:xlink="http://www.w3.org/1999/xlink"
   xmlns:sodipodi="http://sodipodi.sourceforge.net/DTD/sodipodi-0.dtd"
   xmlns:inkscape="http://www.inkscape.org/namespaces/inkscape"
   width="64"
   height="64"
   version="1.1"
   id="svg24"
   sodipodi:docname="4kvideotomp3.svg"
   inkscape:version="1.0.1 (3bc2e813f5, 2020-09-07)">
  <metadata
     id="metadata30">
    <rdf:RDF>
      <cc:Work
         rdf:about="">
        <dc:format>image/svg+xml</dc:format>
        <dc:type
           rdf:resource="http://purl.org/dc/dcmitype/StillImage" />
        <dc:title></dc:title>
      </cc:Work>
    </rdf:RDF>
  </metadata>
  <defs
     id="defs28">
    <linearGradient
       inkscape:collect="always"
       id="linearGradient984">
      <stop
         style="stop-color:#ffffff;stop-opacity:0.402"
         offset="0"
         id="stop980" />
      <stop
         style="stop-color:#ffffff;stop-opacity:0.102"
         offset="1"
         id="stop982" />
    </linearGradient>
    <linearGradient
       inkscape:collect="always"
       id="linearGradient976">
      <stop
         style="stop-color:#f5f6f6;stop-opacity:1"
         offset="0"
         id="stop972" />
      <stop
         style="stop-color:#e0e3e5;stop-opacity:1"
         offset="1"
         id="stop974" />
    </linearGradient>
    <linearGradient
       inkscape:collect="always"
       id="linearGradient938">
      <stop
         style="stop-color:#e0e3e5;stop-opacity:1"
         offset="0"
         id="stop934" />
      <stop
         style="stop-color:#f3f5f5;stop-opacity:1"
         offset="1"
         id="stop936" />
    </linearGradient>
    <linearGradient
       inkscape:collect="always"
       id="linearGradient899">
      <stop
         style="stop-color:#402d67;stop-opacity:0.94117647"
         offset="0"
         id="stop895" />
      <stop
         style="stop-color:#5f4695;stop-opacity:0.93725491"
         offset="1"
         id="stop897" />
    </linearGradient>
    <linearGradient
       inkscape:collect="always"
       id="linearGradient891">
      <stop
         style="stop-color:#463470;stop-opacity:1"
         offset="0"
         id="stop887" />
      <stop
         style="stop-color:#a68ae3;stop-opacity:1"
         offset="1"
         id="stop889" />
    </linearGradient>
    <linearGradient
       inkscape:collect="always"
       xlink:href="#linearGradient891"
       id="linearGradient893"
       x1="96.429115"
       y1="-217.84161"
       x2="96.429115"
       y2="-159.57314"
       gradientUnits="userSpaceOnUse"
       gradientTransform="translate(-63.261765,220.88445)" />
    <linearGradient
       inkscape:collect="always"
       xlink:href="#linearGradient899"
       id="linearGradient901"
       x1="96.790672"
       y1="-146.30222"
       x2="96.790672"
       y2="-85.599091"
       gradientUnits="userSpaceOnUse"
       gradientTransform="translate(-64.261765,147.71318)" />
    <style
       type="text/css"
       id="style903" />
    <linearGradient
       inkscape:collect="always"
       xlink:href="#linearGradient938"
       id="linearGradient932"
       x1="32.014065"
       y1="48.180531"
       x2="32.014065"
       y2="11.536873"
       gradientUnits="userSpaceOnUse" />
    <linearGradient
       inkscape:collect="always"
       xlink:href="#linearGradient976"
       id="linearGradient978"
       x1="32"
       y1="29.886719"
       x2="32"
       y2="52.079876"
       gradientUnits="userSpaceOnUse"
       gradientTransform="translate(0.50640935,-2.0639238)" />
    <linearGradient
       inkscape:collect="always"
       xlink:href="#linearGradient984"
       id="linearGradient986"
       x1="32"
       y1="3"
       x2="32"
       y2="36.033451"
       gradientUnits="userSpaceOnUse" />
  </defs>
  <sodipodi:namedview
     pagecolor="#ffffff"
     bordercolor="#666666"
     borderopacity="1"
     objecttolerance="10"
     gridtolerance="10"
     guidetolerance="10"
     inkscape:pageopacity="0"
     inkscape:pageshadow="2"
     inkscape:window-width="1920"
     inkscape:window-height="998"
     id="namedview26"
     showgrid="false"
     inkscape:zoom="3.2460938"
     inkscape:cx="-3.6393602"
     inkscape:cy="-18.166448"
     inkscape:window-x="0"
     inkscape:window-y="0"
     inkscape:window-maximized="1"
     inkscape:current-layer="svg24" />
  <circle
     style="fill:url(#linearGradient901);fill-opacity:1;stroke-width:0.964634;stroke-linecap:round;paint-order:stroke fill markers"
     id="path883"
     cx="32"
     cy="32"
     r="30" />
  <circle
     style="fill:url(#linearGradient893);fill-opacity:1;stroke-width:0.93248;stroke-linecap:round;paint-order:stroke fill markers"
     id="circle885"
     cx="32"
     cy="32"
     r="29" />
  <path
     d="M 45.878497,30.785709 V 28.8719 c 0,-7.398769 -5.997858,-13.396628 -13.396627,-13.396628 -7.398768,0 -13.396627,5.997859 -13.396627,13.396628 v 1.913809 0 17.224237 H 18.128334 C 8.4391982,48.018222 6.1196948,34.49705 15.257633,31.275639 V 28.8719 c 0,-9.512562 7.711675,-17.224237 17.224237,-17.224237 9.512563,0 17.224236,7.711675 17.224236,17.224237 v 2.809466 c 7.701993,3.818082 5.672741,15.323976 -2.870699,16.27691 v 0.05165 l -0.95691,2.7e-5 z"
     p-id="8838"
     id="path907"
     style="fill:url(#linearGradient932);fill-opacity:1;stroke-width:0.3;stroke:#5e4492;stroke-opacity:0.93725491;stroke-miterlimit:4;stroke-dasharray:none"
     sodipodi:nodetypes="cssscccccssscccccc" />
  <path
     id="circle940"
     style="fill:url(#linearGradient978);fill-opacity:1;stroke-width:0.3;stroke:#5e4492;stroke-opacity:0.93725491;stroke-miterlimit:4;stroke-dasharray:none"
     d="m 32.506409,27.822795 a 11,11 0 0 0 -11,11 11,11 0 0 0 11,11 11,11 0 0 0 11,-11 11,11 0 0 0 -11,-11 z m 0,3.300781 a 2.5666666,2.5666666 0 0 1 2.566406,2.566406 2.5666666,2.5666666 0 0 1 -2.566406,2.566406 2.5666666,2.5666666 0 0 1 -2.566406,-2.566406 2.5666666,2.5666666 0 0 1 2.566406,-2.566406 z m -5.132813,5.132812 a 2.5666666,2.5666666 0 0 1 2.566407,2.566407 2.5666666,2.5666666 0 0 1 -2.566407,2.568359 2.5666666,2.5666666 0 0 1 -2.566406,-2.568359 2.5666666,2.5666666 0 0 1 2.566406,-2.566407 z m 10.265625,0 a 2.5666666,2.5666666 0 0 1 2.566407,2.566407 2.5666666,2.5666666 0 0 1 -2.566407,2.568359 2.5666666,2.5666666 0 0 1 -2.566406,-2.568359 2.5666666,2.5666666 0 0 1 2.566406,-2.566407 z m -5.132812,1.833985 a 0.73333335,0.73333335 0 0 1 0.732422,0.732422 0.73333335,0.73333335 0 0 1 -0.732422,0.734375 0.73333335,0.73333335 0 0 1 -0.732422,-0.734375 0.73333335,0.73333335 0 0 1 0.732422,-0.732422 z m 0,3.300781 a 2.5666666,2.5666666 0 0 1 2.566406,2.566406 2.5666666,2.5666666 0 0 1 -2.566406,2.566407 2.5666666,2.5666666 0 0 1 -2.566406,-2.566407 2.5666666,2.5666666 0 0 1 2.566406,-2.566406 z" />
  <path
     id="circle917"
     style="opacity:1;fill:url(#linearGradient986);fill-opacity:1;stroke-width:2.0735;stroke-linecap:round;paint-order:stroke fill markers"
     d="M 32 3 A 29 29 0 0 0 3.15625 29 A 64.485756 64.485756 0 0 0 32 35.810547 A 64.485756 64.485756 0 0 0 60.84375 29 A 29 29 0 0 0 32 3 z " />
</svg>
