<?xml version="1.0" encoding="UTF-8" standalone="no"?>
<svg
   xmlns:dc="http://purl.org/dc/elements/1.1/"
   xmlns:cc="http://creativecommons.org/ns#"
   xmlns:rdf="http://www.w3.org/1999/02/22-rdf-syntax-ns#"
   xmlns:svg="http://www.w3.org/2000/svg"
   xmlns="http://www.w3.org/2000/svg"
   xmlns:sodipodi="http://sodipodi.sourceforge.net/DTD/sodipodi-0.dtd"
   xmlns:inkscape="http://www.inkscape.org/namespaces/inkscape"
   width="64"
   height="64"
   viewBox="0 0 16.933333 16.933334"
   version="1.1"
   id="svg8"
   inkscape:version="1.0.2 (e86c870879, 2021-01-15)"
   sodipodi:docname="accessories-media-converter.svg">
  <defs
     id="defs2">
    <linearGradient
       id="linearGradient1005"
       x1="0.73910999"
       x2="16.388"
       y1="16.296"
       y2="0.64687002"
       gradientTransform="matrix(0.9999897,0,0,0.9999897,4.301386,0.89494188)"
       gradientUnits="userSpaceOnUse">
      <stop
         stop-color="#00a0ff"
         offset="0"
         id="stop16" />
      <stop
         stop-color="#37beff"
         offset="1"
         id="stop18" />
    </linearGradient>
    <filter
       id="filter3440"
       x="-0.068743996"
       y="-0.082507998"
       width="1.1375"
       height="1.165"
       color-interpolation-filters="sRGB">
      <feGaussianBlur
         stdDeviation="0.99297596"
         id="feGaussianBlur21" />
    </filter>
  </defs>
  <sodipodi:namedview
     id="base"
     pagecolor="#ffffff"
     bordercolor="#666666"
     borderopacity="1.0"
     inkscape:pageopacity="0.0"
     inkscape:pageshadow="2"
     inkscape:zoom="5.6"
     inkscape:cx="51.475953"
     inkscape:cy="34.024617"
     inkscape:document-units="mm"
     inkscape:current-layer="layer1"
     inkscape:document-rotation="0"
     showgrid="false"
     units="px"
     inkscape:window-width="1920"
     inkscape:window-height="992"
     inkscape:window-x="0"
     inkscape:window-y="0"
     inkscape:window-maximized="1" />
  <metadata
     id="metadata5">
    <rdf:RDF>
      <cc:Work
         rdf:about="">
        <dc:format>image/svg+xml</dc:format>
        <dc:type
           rdf:resource="http://purl.org/dc/dcmitype/StillImage" />
        <dc:title></dc:title>
      </cc:Work>
    </rdf:RDF>
  </metadata>
  <g
     inkscape:label="图层 1"
     inkscape:groupmode="layer"
     id="layer1">
    <g
       id="g861"
       transform="translate(-4.3372768,-0.88824403)">
      <path
         d="m 20.741225,9.3548311 c 0,0.9515379 -0.167493,1.8638359 -0.474639,2.7094529 -0.213504,0.587682 -0.49438,1.143323 -0.833917,1.657233 -0.142222,0.216084 -0.295135,0.424748 -0.457459,0.625282 -0.51965,0.641793 -1.137222,1.200624 -1.830436,1.654233 -0.255295,0.167173 -0.52064,0.320096 -0.795355,0.457119 -1.066821,0.53389 -2.271045,0.834206 -3.54557,0.834206 -1.274525,0 -2.478749,-0.300316 -3.54557,-0.834226 C 8.983544,16.321078 8.717878,16.168165 8.462583,16.001012 7.760519,15.541283 7.135557,14.973591 6.611747,14.321179 6.449124,14.119015 6.296511,13.90843 6.154288,13.690406 5.823821,13.185016 5.550076,12.639685 5.340802,12.063374 c -0.307106,-0.845277 -0.4743,-1.757235 -0.4743,-2.7084529 0,-4.3837867 3.55367,-7.9374567 7.937457,-7.9374567 2.200543,0 4.191682,0.8954677 5.629511,2.3416462 0.414348,0.4166082 0.782735,0.8792873 1.096221,1.3794271 0.296446,0.4710693 0.544271,0.9758093 0.737035,1.5068297 0.307186,0.8455867 0.474659,1.7579347 0.474659,2.7094537 z"
         fill="url(#linearGradient1005)"
         stroke-width="0.0310066"
         id="path62"
         style="fill:url(#linearGradient1005)" />
      <path
         d="m 24.029,10.561 c 3.0389,0.0067 6.1203,0.95377 8.5273,2.8284 1.6921,1.9493 -1.5321,4.037 -2.9842,2.1362 -4.3714,-2.6451 -10.537,-1.7138 -13.826,2.2408 -1.7499,1.9624 -2.7358,4.5812 -2.7242,7.2101 h 2.8889 l -4.6222,6.9333 -4.6222,-6.9333 h 2.8889 c -0.09222,-6.2767 4.4222,-12.248 10.483,-13.873 1.3,-0.35667 2.64,-0.55667 3.99,-0.54222 z m 12.682,7.5111 4.6222,6.9333 h -2.8889 c 0.08189,6.3521 -4.5478,12.39 -10.715,13.93 -4.1613,1.1621 -8.8668,0.31411 -12.287,-2.3446 -1.745,-1.9819 1.524,-4.0494 2.9897,-2.1312 4.2354,2.5697 10.167,1.7547 13.51,-1.9156 1.9356,-1.9944 3.0489,-4.7589 3.0344,-7.5389 h -2.8889 l 4.6222,-6.9333 z"
         stroke-width="1.4638"
         id="path1316"
         style="fill:#1491e6;filter:url(#filter3440)"
         transform="matrix(0.38160752,0,0,0.38160752,3.645068,-0.18615722)" />
      <path
         d="m 12.814715,3.8439998 c 1.159667,0.00256 2.335553,0.3639658 3.254082,1.0793387 0.645718,0.7438676 -0.584661,1.5405496 -1.138793,0.81519 C 13.261845,4.7291385 10.909005,5.0845295 9.6538982,6.5936346 8.9861232,7.3425012 8.6098963,8.341855 8.614323,9.345063 H 9.7167489 L 7.9528827,11.990862 6.1890164,9.345063 H 7.2914423 C 7.2562505,6.9498271 8.9789871,4.6711341 11.291834,4.0510219 c 0.49609,-0.136108 1.007444,-0.2124295 1.522614,-0.2069152 z m 4.839547,2.8662923 1.763866,2.6457994 h -1.102426 c 0.03125,2.4240095 -1.735475,4.7281175 -4.088925,5.3157925 -1.587983,0.443466 -3.383637,0.119867 -4.6888112,-0.894717 -0.6659051,-0.756308 0.5815702,-1.545281 1.1408922,-0.813282 1.61626,0.980617 3.879803,0.669607 5.155517,-0.731007 0.73864,-0.761078 1.163484,-1.816032 1.15795,-2.876901 h -1.102426 l 1.763867,-2.6457994 z"
         fill="#ffffff"
         stroke-width="0.558597"
         id="path2564" />
    </g>
  </g>
</svg>
