<?xml version="1.0" encoding="UTF-8"?>
<svg xmlns="http://www.w3.org/2000/svg" xmlns:xlink="http://www.w3.org/1999/xlink" width="64" height="64" viewBox="0 0 64 64" version="1.1">
<defs>
<linearGradient id="linear0" gradientUnits="userSpaceOnUse" x1="-306.171" y1="15.2498" x2="-273.6694" y2="15.2498" gradientTransform="matrix(1.8462,0,0,-1.8462,567.2244,64.1528)">
<stop offset="0" style="stop-color:rgb(86.27451%,86.27451%,86.27451%);stop-opacity:1;"/>
<stop offset="1" style="stop-color:rgb(70.588235%,70.588235%,70.588235%);stop-opacity:1;"/>
</linearGradient>
<linearGradient id="linear1" gradientUnits="userSpaceOnUse" x1="-284.5038" y1="28.2501" x2="-273.6702" y2="28.2501" gradientTransform="matrix(1.8462,0,0,-1.8462,567.2244,64.1528)">
<stop offset="0" style="stop-color:rgb(47.058824%,47.058824%,47.058824%);stop-opacity:1;"/>
<stop offset="1" style="stop-color:rgb(35.294118%,35.294118%,35.294118%);stop-opacity:1;"/>
</linearGradient>
<linearGradient id="linear2" gradientUnits="userSpaceOnUse" x1="-295.3374" y1="28.2501" x2="-284.5038" y2="28.2501" gradientTransform="matrix(1.8462,0,0,-1.8462,567.2244,64.1528)">
<stop offset="0" style="stop-color:rgb(58.823529%,58.823529%,58.823529%);stop-opacity:1;"/>
<stop offset="1" style="stop-color:rgb(62.745098%,62.745098%,62.745098%);stop-opacity:1;"/>
</linearGradient>
<linearGradient id="linear3" gradientUnits="userSpaceOnUse" x1="-306.171" y1="28.2501" x2="-295.3374" y2="28.2501" gradientTransform="matrix(1.8462,0,0,-1.8462,567.2244,64.1528)">
<stop offset="0" style="stop-color:rgb(62.745098%,62.745098%,62.745098%);stop-opacity:1;"/>
<stop offset="1" style="stop-color:rgb(70.588235%,70.588235%,70.588235%);stop-opacity:1;"/>
</linearGradient>
<linearGradient id="linear4" gradientUnits="userSpaceOnUse" x1="-142.9862" y1="223.0275" x2="-116.9567" y2="229.1687" gradientTransform="matrix(0.4692,-0.4692,-0.4692,-0.4692,183.9172,84.8652)">
<stop offset="0" style="stop-color:rgb(47.058824%,47.058824%,47.058824%);stop-opacity:1;"/>
<stop offset="1" style="stop-color:rgb(31.372549%,31.372549%,31.372549%);stop-opacity:1;"/>
</linearGradient>
<filter id="alpha" filterUnits="objectBoundingBox" x="0%" y="0%" width="100%" height="100%">
  <feColorMatrix type="matrix" in="SourceGraphic" values="0 0 0 0 1 0 0 0 0 1 0 0 0 0 1 0 0 0 1 0"/>
</filter>
<mask id="mask0">
  <g filter="url(#alpha)">
<rect x="0" y="0" width="64" height="64" style="fill:rgb(0%,0%,0%);fill-opacity:0.6;stroke:none;"/>
  </g>
</mask>
<clipPath id="clip1">
  <rect x="0" y="0" width="64" height="64"/>
</clipPath>
<g id="surface5" clip-path="url(#clip1)">
<path style=" stroke:none;fill-rule:nonzero;fill:rgb(0%,0%,0%);fill-opacity:1;" d="M 8.210938 26.542969 L 21.179688 38.84375 C 21.464844 39.109375 21.910156 39.109375 22.195312 38.84375 L 25.753906 35.464844 C 25.890625 35.34375 25.964844 35.167969 25.964844 34.984375 C 25.964844 34.800781 25.890625 34.625 25.753906 34.5 L 12.789062 22.199219 C 12.5 21.933594 12.058594 21.933594 11.769531 22.199219 L 8.210938 25.578125 C 8.078125 25.703125 8 25.875 8 26.058594 C 8 26.242188 8.078125 26.417969 8.210938 26.542969 Z M 8.210938 26.542969 "/>
</g>
<linearGradient id="linear5" gradientUnits="userSpaceOnUse" x1="-224.7546" y1="141.1896" x2="-198.7251" y2="147.3308" gradientTransform="matrix(0.469236,0.469236,-0.469236,0.469236,183.8518,61.9014)">
<stop offset="0" style="stop-color:rgb(50.980392%,50.980392%,50.980392%);stop-opacity:1;"/>
<stop offset="1" style="stop-color:rgb(39.215686%,39.215686%,39.215686%);stop-opacity:1;"/>
</linearGradient>
<mask id="mask1">
  <g filter="url(#alpha)">
<rect x="0" y="0" width="64" height="64" style="fill:rgb(0%,0%,0%);fill-opacity:0.6;stroke:none;"/>
  </g>
</mask>
<clipPath id="clip2">
  <rect x="0" y="0" width="64" height="64"/>
</clipPath>
<g id="surface8" clip-path="url(#clip2)">
<path style=" stroke:none;fill-rule:nonzero;fill:rgb(0%,0%,0%);fill-opacity:1;" d="M 38.65625 48 L 55.34375 48 C 55.519531 48 55.6875 47.925781 55.8125 47.800781 C 55.933594 47.675781 56 47.507812 56 47.332031 L 56 42.667969 C 56 42.492188 55.933594 42.324219 55.8125 42.199219 C 55.6875 42.074219 55.519531 42 55.34375 42 L 38.65625 42 C 38.480469 42 38.3125 42.074219 38.1875 42.199219 C 38.066406 42.324219 38 42.492188 38 42.667969 L 38 47.332031 C 38 47.507812 38.066406 47.675781 38.1875 47.800781 C 38.3125 47.925781 38.480469 48 38.65625 48 Z M 38.65625 48 "/>
</g>
<linearGradient id="linear6" gradientUnits="userSpaceOnUse" x1="-241.3418" y1="90.8886" x2="-216.6895" y2="96.7048" gradientTransform="matrix(0.6636,0,0,0.6636,198.666,-17.3138)">
<stop offset="0" style="stop-color:rgb(50.980392%,50.980392%,50.980392%);stop-opacity:1;"/>
<stop offset="1" style="stop-color:rgb(39.215686%,39.215686%,39.215686%);stop-opacity:1;"/>
</linearGradient>
</defs>
<g id="surface1">
<path style=" stroke:none;fill-rule:nonzero;fill:url(#linear0);" d="M 62 16 L 2 16 L 2 53.144531 C 1.988281 53.890625 2.273438 54.609375 2.792969 55.148438 C 3.3125 55.683594 4.023438 55.988281 4.769531 56 L 59.230469 56 C 59.980469 55.988281 60.691406 55.683594 61.210938 55.148438 C 61.730469 54.609375 62.015625 53.890625 62 53.144531 Z M 62 16 "/>
<path style=" stroke:none;fill-rule:nonzero;fill:url(#linear1);" d="M 42 8 L 42 16 L 62 16 L 62 11 C 62.03125 10.234375 61.757812 9.488281 61.238281 8.925781 C 60.71875 8.363281 59.996094 8.03125 59.230469 8 Z M 42 8 "/>
<path style=" stroke:none;fill-rule:nonzero;fill:url(#linear2);" d="M 22 8 L 22 16 L 42 16 L 42 8 Z M 22 8 "/>
<path style=" stroke:none;fill-rule:nonzero;fill:url(#linear3);" d="M 2 11 L 2 16 L 22 16 L 22 8 L 4.769531 8 C 4.003906 8.03125 3.28125 8.363281 2.761719 8.925781 C 2.242188 9.488281 1.96875 10.234375 2 11 Z M 2 11 "/>
<path style=" stroke:none;fill-rule:nonzero;fill:url(#linear4);" d="M 8.246094 43.457031 L 21.210938 31.15625 C 21.5 30.890625 21.941406 30.890625 22.230469 31.15625 L 25.789062 34.535156 C 25.925781 34.660156 26 34.832031 26 35.015625 C 26 35.199219 25.925781 35.375 25.789062 35.5 L 12.820312 47.800781 C 12.535156 48.066406 12.09375 48.066406 11.804688 47.800781 L 8.246094 44.421875 C 8.109375 44.296875 8.035156 44.125 8.035156 43.941406 C 8.035156 43.757812 8.113281 43.582031 8.246094 43.457031 Z M 8.246094 43.457031 "/>
<use xlink:href="#surface5" mask="url(#mask0)"/>
<path style=" stroke:none;fill-rule:nonzero;fill:url(#linear5);" d="M 8.210938 26.542969 L 21.179688 38.84375 C 21.464844 39.109375 21.90625 39.109375 22.195312 38.84375 L 25.753906 35.464844 C 25.890625 35.339844 25.964844 35.167969 25.964844 34.984375 C 25.964844 34.800781 25.890625 34.625 25.753906 34.5 L 12.789062 22.199219 C 12.5 21.933594 12.058594 21.933594 11.769531 22.199219 L 8.210938 25.578125 C 8.074219 25.703125 8 25.875 8 26.058594 C 8 26.242188 8.078125 26.417969 8.210938 26.542969 Z M 8.210938 26.542969 "/>
<use xlink:href="#surface8" mask="url(#mask1)"/>
<path style=" stroke:none;fill-rule:nonzero;fill:url(#linear6);" d="M 38.65625 48 L 55.34375 48 C 55.519531 48 55.6875 47.925781 55.8125 47.800781 C 55.933594 47.675781 56 47.507812 56 47.332031 L 56 42.667969 C 56 42.492188 55.933594 42.324219 55.8125 42.199219 C 55.6875 42.074219 55.519531 42 55.34375 42 L 38.65625 42 C 38.480469 42 38.3125 42.074219 38.1875 42.199219 C 38.066406 42.324219 38 42.492188 38 42.667969 L 38 47.332031 C 38 47.507812 38.066406 47.675781 38.1875 47.800781 C 38.3125 47.925781 38.480469 48 38.65625 48 Z M 38.65625 48 "/>
</g>
</svg>
