<?xml version="1.0" encoding="UTF-8"?>
<svg width="64" height="64" version="1" xmlns="http://www.w3.org/2000/svg" xmlns:cc="http://creativecommons.org/ns#" xmlns:dc="http://purl.org/dc/elements/1.1/" xmlns:rdf="http://www.w3.org/1999/02/22-rdf-syntax-ns#" xmlns:xlink="http://www.w3.org/1999/xlink">
 <metadata>
  <rdf:RDF>
   <cc:Work rdf:about="">
    <dc:format>image/svg+xml</dc:format>
    <dc:type rdf:resource="http://purl.org/dc/dcmitype/StillImage"/>
    <dc:title/>
   </cc:Work>
  </rdf:RDF>
 </metadata>
 <defs>
  <linearGradient id="linearGradient893" x1="-106.56" x2="-60.51" y1="15.282" y2="45.549" gradientUnits="userSpaceOnUse">
   <stop stop-color="#00e2f4" offset="0"/>
   <stop stop-color="#2a94ec" stop-opacity=".99608" offset="1"/>
  </linearGradient>
  <linearGradient id="linearGradient901" x1="-64.714" x2="-95.381" y1="43.986" y2="22.949" gradientUnits="userSpaceOnUse">
   <stop stop-color="#0ee3aa" offset="0"/>
   <stop stop-color="#249aed" offset="1"/>
  </linearGradient>
 </defs>
 <g transform="matrix(1.1755 0 0 1.1755 130.59 -5.1296)">
  <path d="m-60.718 25.723-10.975 29.259-24.832-6.9983 5.2802-29.579z" fill="#2998ed"/>
  <path d="m-60.51 45.549-11.182 9.4334-24.832-6.9983-10.036-32.702 24.689-7.0899z" fill="url(#linearGradient893)"/>
  <path d="m-81.872 8.1922-25.131 27.124-0.22844 19.354 46.722-9.1218z" fill="url(#linearGradient901)"/>
 </g>
 <g fill="#5e4aa6">
  <circle cx="-1221.1" cy="-1276.3" r="0"/>
  <circle cx="-121.55" cy="-10.813" r="0" fill-rule="evenodd"/>
  <circle cx="-1250.2" cy="-1241.6" r="0"/>
  <circle cx="-150.63" cy="23.857" r="0" fill-rule="evenodd"/>
  <g transform="matrix(3.7796 0 0 3.7796 -1.5892 -.48379)" stroke-width=".26458">
   <circle cx="-306.7" cy="-329.95" r="0"/>
   <circle cx="-15.783" cy="4.8765" r="0" fill-rule="evenodd"/>
   <circle cx="-285.93" cy="-348.86" r="0"/>
   <circle cx="4.9855" cy="-14.033" r="0" fill-rule="evenodd"/>
  </g>
 </g>
 <path d="m17 17h30v30h-30z"/>
 <path d="m19.087 41.393h11.739v2.3478h-11.739z" fill="#f9f9f9"/>
 <g transform="translate(-.20896)" fill="#f9f9f9" stroke-width=".4551" style="font-variant-caps:normal;font-variant-east-asian:normal;font-variant-ligatures:normal;font-variant-numeric:normal" aria-label="AC">
  <path d="m28.747 31.614h-5.351l-0.84442 2.4177h-3.4399l4.9154-13.271h4.0799l4.9154 13.271h-3.4399zm-4.4976-2.4621h3.6354l-1.8133-5.2798z"/>
  <path d="m45.306 33.303q-0.94219 0.48887-1.9644 0.73776-1.0222 0.24888-2.1333 0.24888-3.3155 0-5.2532-1.8488-1.9377-1.8577-1.9377-5.031 0-3.1821 1.9377-5.031 1.9377-1.8577 5.2532-1.8577 1.1111 0 2.1333 0.24888 1.0222 0.24888 1.9644 0.73776v2.7466q-0.95108-0.64887-1.8755-0.95108-0.92442-0.30221-1.9466-0.30221-1.8311 0-2.8799 1.1733-1.0489 1.1733-1.0489 3.2355 0 2.0533 1.0489 3.2266 1.0489 1.1733 2.8799 1.1733 1.0222 0 1.9466-0.30221 0.92442-0.30221 1.8755-0.95108z"/>
 </g>
</svg>
