<?xml version="1.0" encoding="UTF-8"?>
<svg width="64" height="64" version="1.1" xmlns="http://www.w3.org/2000/svg" xmlns:cc="http://creativecommons.org/ns#" xmlns:dc="http://purl.org/dc/elements/1.1/" xmlns:rdf="http://www.w3.org/1999/02/22-rdf-syntax-ns#" xmlns:xlink="http://www.w3.org/1999/xlink">
 <metadata>
  <rdf:RDF>
   <cc:Work rdf:about="">
    <dc:format>image/svg+xml</dc:format>
    <dc:type rdf:resource="http://purl.org/dc/dcmitype/StillImage"/>
   </cc:Work>
  </rdf:RDF>
 </metadata>
 <defs>
  <linearGradient id="a" x1="399.57" x2="399.57" y1="545.8" y2="517.8" gradientTransform="matrix(1.9175 0 0 1.9175 -736.22 -987.8)" gradientUnits="userSpaceOnUse">
   <stop stop-color="#3889e9" offset="0"/>
   <stop stop-color="#5ea5fb" offset="1"/>
  </linearGradient>
  <linearGradient id="c" x1="282.37" x2="281.84" y1="644.85" y2="10.592" gradientUnits="userSpaceOnUse">
   <stop stop-color="#e3e3e3" offset="0"/>
   <stop stop-color="#fffcff" offset="1"/>
  </linearGradient>
  <linearGradient id="linearGradient962" x1="282.37" x2="281.84" y1="644.85" y2="10.592" gradientTransform="matrix(.035991 -.037151 .037151 .035991 10.029 32.887)" gradientUnits="userSpaceOnUse" xlink:href="#c"/>
  <linearGradient id="linearGradient877" x1="-47.197" x2="-34.186" y1="8.2269" y2="-5.2946" gradientTransform="matrix(3.4644 0 0 3.4644 173.03 -37.67)" gradientUnits="userSpaceOnUse">
   <stop stop-color="#4d4d4d" offset="0"/>
   <stop stop-color="#1a1a1a" offset="1"/>
  </linearGradient>
 </defs>
 <rect transform="scale(1,-1)" x="4.5015" y="-59.498" width="54.997" height="54.997" ry="5" fill="url(#linearGradient877)" stroke-width="3.4644"/>
 <circle cx="31.872" cy="31.913" r="0" fill="url(#a)" stroke-width="1.9175"/>
 <circle cx="32" cy="32" r="30" fill="none" stroke-width="2.1429"/>
 <path d="m30.257 12.006c-6.1434 6.3415-12.287 12.683-18.43 19.024-0.99302 1.025-0.96707 2.6611 0.05797 3.6541l19.024 18.43c1.025 0.99302 2.6611 0.96707 3.6541-0.05797l18.43-19.024c0.99302-1.025 0.96707-2.6611-0.05797-3.6541-6.3415-6.1434-12.683-12.287-19.024-18.43-1.025-0.99302-2.6611-0.96707-3.6541 0.05797zm-17.038 20.373c0.24826-0.25627 0.65728-0.26276 0.91354-0.01449 0.25627 0.24826 0.26276 0.65728 0.01449 0.91354-0.24826 0.25627-0.65728 0.26276-0.91354 0.01449-0.25627-0.24826-0.26276-0.65728-0.01449-0.91354zm19.953 19.329c-0.24826 0.25627-0.65728 0.26276-0.91354 0.01449-0.25627-0.24826-0.26276-0.65728-0.01449-0.91354 0.24826-0.25627 0.65728-0.26276 0.91354-0.01449 0.25627 0.24826 0.26276 0.65728 0.01449 0.91354zm8.4727-10.231c-4.9404 5.0997-13.08 5.2288-18.179 0.28841-5.0997-4.9404-5.2288-13.08-0.28841-18.179 4.9404-5.0997 13.08-5.2288 18.179-0.28841 5.0997 4.9404 5.2288 13.08 0.28841 18.179zm9.9576-8.793c-0.24826 0.25627-0.65728 0.26276-0.91354 0.01449-0.25627-0.24826-0.26276-0.65728-0.01449-0.91354 0.24826-0.25627 0.65728-0.26276 0.91354-0.01449 0.25627 0.24826 0.26276 0.65728 0.01449 0.91354zm-19.024-18.43c-0.24826 0.25627-0.65728 0.26276-0.91354 0.01449-0.25627-0.24826-0.26276-0.65728-0.01449-0.91354 0.24826-0.25627 0.65728-0.26276 0.91354-0.01449 0.25627 0.24826 0.26276 0.65728 0.01449 0.91354z" fill="url(#linearGradient962)" stroke-width=".051726"/>
 <path d="m38.617 22.774c-0.26802-0.17049-0.52037-0.22908-0.83608-0.19393-2.5237 0.2803-4.3343 2.3055-5.4319 6.0758-0.32036 0.0051-0.62853 0.04798-0.93819 0.13062 0.12309-3.2121 0.99343-5.4056 2.6108-6.5807 0.47685-0.34644 0.27877-1.0981-0.30684-1.1646-1.2999-0.14757-2.5383-0.08195-3.8153 0.20206-0.31013 0.06901-0.52989 0.20605-0.72835 0.4541-1.5863 1.9827-1.4345 4.6951 0.45528 8.1371-0.22296 0.23015-0.41056 0.47836-0.57103 0.75574-2.1842-2.3583-3.1199-4.5248-2.8071-6.4993 0.09224-0.58214-0.57937-0.97357-1.0405-0.60656-1.0235 0.81486-1.8528 1.7369-2.5549 2.8408-0.17049 0.26802-0.22908 0.52037-0.19393 0.83608 0.2803 2.5237 2.3055 4.3343 6.0758 5.4319 0.0051 0.32036 0.04798 0.62853 0.13062 0.93819-3.2121-0.12309-5.4056-0.99343-6.5807-2.6108-0.34644-0.47685-1.0981-0.27877-1.1646 0.3068-0.14757 1.2999-0.08195 2.5382 0.20206 3.8153 0.06901 0.31013 0.20605 0.52989 0.4541 0.72835 1.9827 1.5863 4.6951 1.4345 8.1371-0.45528 0.23015 0.22296 0.47836 0.41056 0.75574 0.57103-2.3583 2.1842-4.5248 3.1199-6.4993 2.8071-0.58214-0.09224-0.97357 0.57937-0.60656 1.0405 0.81486 1.0235 1.7368 1.8528 2.8408 2.5549 0.26802 0.17049 0.52037 0.22908 0.83608 0.19393 2.5237-0.2803 4.3343-2.3055 5.4319-6.0758 0.32036-0.0051 0.62853-0.04798 0.93819-0.13062-0.12309 3.2121-0.99343 5.4056-2.6108 6.5807-0.47685 0.34644-0.27877 1.0981 0.30684 1.1646 1.2999 0.14757 2.5382 0.08195 3.8153-0.20206 0.31013-0.06901 0.52989-0.20605 0.72835-0.4541 1.5863-1.9827 1.4345-4.6951-0.45528-8.1371 0.22296-0.23015 0.41056-0.47836 0.57099-0.75577 2.1842 2.3583 3.1199 4.5248 2.8071 6.4993-0.09224 0.58214 0.57937 0.97357 1.0405 0.60656 1.0235-0.81486 1.8528-1.7368 2.5549-2.8408 0.17049-0.26802 0.22908-0.52037 0.19393-0.83608-0.2803-2.5237-2.3055-4.3343-6.0758-5.4319-0.0051-0.32036-0.04798-0.62853-0.13062-0.93819 3.2121 0.12309 5.4056 0.99343 6.5807 2.6108 0.34644 0.47685 1.0981 0.27877 1.1646-0.30684 0.14757-1.2999 0.08195-2.5383-0.20206-3.8153-0.06901-0.31013-0.20605-0.52989-0.4541-0.72835-1.9827-1.5863-4.6951-1.4345-8.1371 0.45528-0.23015-0.22296-0.47836-0.41056-0.75574-0.57103 2.3583-2.1842 4.5248-3.1199 6.4993-2.8071 0.58214 0.09224 0.97357-0.57937 0.60656-1.0405-0.81482-1.0235-1.7367-1.8527-2.8407-2.5548zm-3.8864 12.005c-1.2413 1.2813-3.2863 1.3138-4.5677 0.07246-1.2813-1.2413-1.3138-3.2863-0.07246-4.5677 1.2413-1.2813 3.2863-1.3138 4.5677-0.07247 1.2813 1.2413 1.3138 3.2863 0.07246 4.5677z" fill="url(#linearGradient962)" stroke-width=".051726"/>
</svg>
