<?xml version="1.0" encoding="UTF-8"?>
<svg width="64" height="64" version="1.1" viewBox="0 0 16.933 16.933" xmlns="http://www.w3.org/2000/svg" xmlns:cc="http://creativecommons.org/ns#" xmlns:dc="http://purl.org/dc/elements/1.1/" xmlns:rdf="http://www.w3.org/1999/02/22-rdf-syntax-ns#" xmlns:xlink="http://www.w3.org/1999/xlink">
 <defs>
  <linearGradient id="linearGradient4578" x1="-5.1659" x2="-5.1659" y1="1.6017" y2="17.406" gradientTransform="matrix(1 0 0 1 15.999 -.37697)" gradientUnits="userSpaceOnUse">
   <stop stop-color="#06b4f0" offset="0"/>
   <stop stop-color="#0177e1" offset="1"/>
  </linearGradient>
  <linearGradient id="linearGradient4582" x1="-5.1659" x2="-5.1659" y1="1.6017" y2="17.406" gradientTransform="matrix(.75001 0 0 .75001 14.681 1.9969)" gradientUnits="userSpaceOnUse">
   <stop stop-color="#1ca4de" offset="0"/>
   <stop stop-color="#0450b1" offset="1"/>
  </linearGradient>
  <linearGradient id="linearGradient4592" x1="-5.1659" x2="-5.1659" y1="1.6017" y2="17.406" gradientTransform="matrix(.50001 0 0 .50001 13.362 4.3709)" gradientUnits="userSpaceOnUse">
   <stop stop-color="#268bca" offset="0"/>
   <stop stop-color="#0d3c93" offset="1"/>
  </linearGradient>
  <filter id="filter1877-3" x="-.027479" y="-.021303" width="1.055" height="1.0426" color-interpolation-filters="sRGB">
   <feGaussianBlur stdDeviation="0.072702461"/>
  </filter>
  <linearGradient id="linearGradient6752" x1="430.56" x2="433.31" y1="536.57" y2="524.17" gradientTransform="matrix(.52733 0 0 .52733 -216.35 -270.72)" gradientUnits="userSpaceOnUse">
   <stop stop-color="#edf7fc" offset="0"/>
   <stop stop-color="#e7f6fc" offset=".4869"/>
   <stop stop-color="#edfafd" offset="1"/>
  </linearGradient>
 </defs>
 <metadata>
  <rdf:RDF>
   <cc:Work rdf:about="">
    <dc:format>image/svg+xml</dc:format>
    <dc:type rdf:resource="http://purl.org/dc/dcmitype/StillImage"/>
    <dc:title/>
   </cc:Work>
  </rdf:RDF>
 </metadata>
 <g transform="translate(-2.2584 -.65201)">
  <g>
   <circle cx="10.725" cy="9.1187" r="7.9375" fill="url(#linearGradient4578)"/>
   <circle cx="10.725" cy="9.1187" r="5.9531" fill="url(#linearGradient4582)"/>
   <circle cx="10.725" cy="9.1187" r="3.9688" fill="url(#linearGradient4592)"/>
  </g>
  <path transform="matrix(1.1158 0 0 1.1136 77.028 16.055)" d="m-60.157-9.1368c-0.27072 0.07597-0.48865 0.37808-0.48865 0.67158v4.6529c-0.27453-0.1505-0.62705-0.21136-0.99256-0.1119-0.65954 0.17943-1.0729 0.75934-0.93147 1.2951 0.14138 0.53575 0.79112 0.83498 1.4507 0.65552 0.52617-0.14314 0.8889-0.54821 0.94674-0.97531l0.01541-4.397 3.4205-0.95936v3.4697c-0.2745-0.15051-0.62705-0.21137-0.99256-0.11194-0.65954 0.17944-1.0728 0.75936-0.93147 1.2951 0.14139 0.53577 0.79112 0.83498 1.4507 0.65554 0.52619-0.14314 0.8889-0.54818 0.94674-0.97531l0.01548-5.7241c0-0.22008-0.12991-0.38472-0.3054-0.4157l-3.6038 0.97531z" filter="url(#filter1877-3)" image-rendering="optimizeSpeed" opacity=".35" stroke-width=".26458"/>
  <path d="m9.8419 5.8548c-0.29533 0.082877-0.53308 0.41246-0.53308 0.73264v5.0759c-0.29949-0.16418-0.68406-0.23058-1.0828-0.12207-0.71951 0.19574-1.1704 0.82838-1.0162 1.4129 0.15423 0.58445 0.86305 0.9109 1.5826 0.71512 0.57401-0.15616 0.96972-0.59806 1.0328-1.064l0.016801-4.7968 3.7315-1.0466v3.7852c-0.29946-0.1642-0.68406-0.23059-1.0828-0.12212-0.71951 0.19576-1.1703 0.82841-1.0162 1.4129 0.15424 0.58448 0.86305 0.9109 1.5826 0.71514 0.57403-0.15615 0.96972-0.59802 1.0328-1.064l0.01688-6.2445c0-0.24009-0.14172-0.4197-0.33317-0.4535l-3.9315 1.064z" fill="url(#linearGradient6752)" image-rendering="optimizeSpeed" stroke-width=".28864"/>
  <path d="m9.8419 5.8548c-0.29533 0.082877-0.53308 0.41246-0.53308 0.73264v5.0759c-0.29949-0.16418-0.68406-0.23058-1.0828-0.12207-0.71951 0.19574-1.1704 0.82838-1.0162 1.4129 0.15423 0.58445 0.86305 0.9109 1.5826 0.71512 0.57401-0.15616 0.96972-0.59806 1.0328-1.064l0.016801-4.7968 3.7315-1.0466v3.7852c-0.29946-0.1642-0.68406-0.23059-1.0828-0.12212-0.71951 0.19576-1.1703 0.82841-1.0162 1.4129 0.15424 0.58448 0.86305 0.9109 1.5826 0.71514 0.57403-0.15615 0.96972-0.59802 1.0328-1.064l0.01688-6.2445c0-0.24009-0.14172-0.4197-0.33317-0.4535l-3.9315 1.064z" fill="none" image-rendering="optimizeSpeed" stroke="#f56e82" stroke-width=".08659"/>
  <path d="m9.8419 5.8548c-0.29533 0.082877-0.53308 0.41246-0.53308 0.73264v5.0759c-0.29949-0.16418-0.68406-0.23058-1.0828-0.12207-0.71951 0.19574-1.1704 0.82838-1.0162 1.4129 0.15423 0.58445 0.86305 0.9109 1.5826 0.71512 0.57401-0.15616 0.96972-0.59806 1.0328-1.064l0.016801-4.7968 3.7315-1.0466v3.7852c-0.29946-0.1642-0.68406-0.23059-1.0828-0.12212-0.71951 0.19576-1.1703 0.82841-1.0162 1.4129 0.15424 0.58448 0.86305 0.9109 1.5826 0.71514 0.57403-0.15615 0.96972-0.59802 1.0328-1.064l0.01688-6.2445c0-0.24009-0.14172-0.4197-0.33317-0.4535l-3.9315 1.064z" fill="none" image-rendering="optimizeSpeed" stroke="#0ab9f0" stroke-width=".08659"/>
 </g>
</svg>
