<?xml version="1.0" encoding="UTF-8"?>
<svg width="64" height="64" version="1.1" viewBox="0 0 64 64" xmlns="http://www.w3.org/2000/svg" xmlns:xlink="http://www.w3.org/1999/xlink">
 <defs>
  <linearGradient id="linearGradient873" x1="-57.74" x2="-57.74" y1="7.5537" y2="62.113" gradientTransform="translate(90.389)" gradientUnits="userSpaceOnUse">
   <stop stop-color="#ff4b00" offset="0"/>
   <stop stop-color="#f50f2d" offset="1"/>
  </linearGradient>
 </defs>
 <circle cx="32" cy="32" r="30" fill="url(#linearGradient873)" stroke-linecap="round" stroke-width=".40862"/>
 <g transform="matrix(1.4 0 0 1.4 -120.91 -2.2997)">
  <path d="m114.22 15c-0.82843 0-1.5 0.67157-1.5 1.5 0 0.41421 0.16801 0.7891 0.43945 1.0605l4.2422 4.7578c0.76658 0.85945 1.3184 1.939 1.3184 3.1816 0 2.4853-2.0147 4.5-4.5 4.5-1.2426 0-2.4078-0.46545-3.1816-1.3184l-4.7578-5.2422c-0.27145-0.27145-0.64633-0.43945-1.0605-0.43945-0.82843 0-1.5 0.67157-1.5 1.5 0 0.41421 0.16801 0.7891 0.43945 1.0605l4.7578 5.2422c1.2899 1.4213 3.2317 2.1973 5.3027 2.1973 4.1421 0 7.5-3.3579 7.5-7.5 0-2.0711-0.91985-3.8701-2.1973-5.3027l-4.2422-4.7578c-0.27145-0.27145-0.64633-0.43945-1.0605-0.43945z" fill="#f5afb0"/>
  <path d="m104.22 34c0.82843 0 1.5-0.67157 1.5-1.5 0-0.41421-0.16801-0.7891-0.43945-1.0605l-4.2422-4.7578c-0.76658-0.85945-1.3184-1.939-1.3184-3.1816 0-2.4853 2.0147-4.5 4.5-4.5 1.2426 0 2.4078 0.46545 3.1816 1.3184l4.7578 5.2422c0.27145 0.27145 0.64633 0.43945 1.0605 0.43945 0.82843 0 1.5-0.67157 1.5-1.5 0-0.41421-0.16801-0.7891-0.43945-1.0605l-4.7578-5.2422c-1.2899-1.4213-3.2317-2.1973-5.3027-2.1973-4.1421 0-7.5 3.3579-7.5 7.5 0 2.0711 0.91985 3.8701 2.1973 5.3027l4.2422 4.7578c0.27145 0.27145 0.64633 0.43945 1.0605 0.43945z" fill="#f9f9f9"/>
 </g>
</svg>
