<?xml version="1.0" encoding="UTF-8"?>
<!-- Created with Inkscape (http://www.inkscape.org/) -->
<svg width="64" height="64" version="1.1" viewBox="0 0 16.933 16.933" xmlns="http://www.w3.org/2000/svg" xmlns:cc="http://creativecommons.org/ns#" xmlns:dc="http://purl.org/dc/elements/1.1/" xmlns:rdf="http://www.w3.org/1999/02/22-rdf-syntax-ns#" xmlns:xlink="http://www.w3.org/1999/xlink">
 <defs>
  <linearGradient id="linearGradient1492" x1="2.4683" x2="13.642" y1="1.4284" y2="15.037" gradientTransform="scale(.99998)" gradientUnits="userSpaceOnUse">
   <stop stop-color="#a4e20f" offset="0"/>
   <stop stop-color="#19b031" offset="1"/>
  </linearGradient>
 </defs>
 <metadata>
  <rdf:RDF>
   <cc:Work rdf:about="">
    <dc:format>image/svg+xml</dc:format>
    <dc:type rdf:resource="http://purl.org/dc/dcmitype/StillImage"/>
   </cc:Work>
  </rdf:RDF>
 </metadata>
 <path d="m3.4895 4.0609 1.3855-0.015576c0.079109-0.00106 0.14183-0.064978 0.14094-0.14413 0 0-0.030557-1.1726-0.034196-1.4992l2.432e-4 -0.0069c-0.00306-0.26773 0.051612-0.50289 0.14986-0.6987l0.045025-0.088072c-0.00419-6.138e-4 -0.011718 0.00521-0.015002 0.00934l-2.6624 2.667c-0.00443 0.00636-0.0066 0.011367-0.00891 0.017174 0.054679-0.029702 0.13056-0.066983 0.14175-0.071694 0.23338-0.10808 0.51556-0.16795 0.85732-0.1718m10.771-0.40795c-0.11594-0.58182-0.46764-0.86297-0.78709-0.9733-0.34309-0.1193-1.0376-0.2359-1.9068-0.32721-0.70233-0.075546-1.5244-0.059873-2.022-0.038883-0.06344-0.40285-0.35488-0.76776-0.67674-0.89322-0.85843-0.32825-2.1774-0.23206-2.5158-0.13403-0.26686 0.075364-0.56537 0.23199-0.72715 0.46836-0.10991 0.15894-0.18003 0.36178-0.17689 0.64235 0.00161 0.15771 0.010427 0.5325 0.01864 0.86577 0.00832 0.33779 0.016113 0.63342 0.016113 0.63342 0.0033 0.29797-0.23752 0.54206-0.53992 0.55216l-1.3855 0.015465c-0.29573 0.00338-0.52133 0.054083-0.69107 0.13294-0.17251 0.081112-0.2937 0.18513-0.38432 0.31133-0.18357 0.24789-0.21104 0.55069-0.20758 0.85931 0 0 0.00499 0.24746 0.071636 0.73778 0.05687 0.38102 0.50075 3.02 0.90421 3.8152 0.1567 0.31205 0.25916 0.43995 0.56092 0.57466 0.67153 0.27531 2.2053 0.57359 2.9207 0.6559 0.71768 0.08126 1.167 0.26756 1.4285-0.28533 0.0019 2.65e-4 0.053489-0.13875 0.12358-0.34096 0.22453-0.69731 0.24845-1.3161 0.24346-1.7633-5.83e-4 -0.044099 0.067429-0.046849 0.067889-7.939e-4 0.0035 0.31598-0.045109 1.4322 0.81063 1.7229 0.33918 0.11446 1.0373 0.21145 1.7481 0.28515 0.64343 0.06458 1.1108 0.30967 1.129 1.9387 0.01116 0.99101-0.19788 1.1247-1.2961 1.137-0.89224 0.0099-1.2315 0.03785-1.2393-0.66356-0.0064-0.56786 0.56224-0.51025 0.98087-0.51497 0.18635-0.0025 0.04899-0.13856 0.04505-0.4871-0.0039-0.34627 0.21328-0.5507 0.0051-0.55232-1.4494-0.02285-2.3036 0.02356-2.2835 1.8165 0.01825 1.6285 0.65293 1.9239 2.7113 1.9008 1.6133-0.01813 2.1829-0.07939 2.8261-2.1295 0.12682-0.40491 0.43343-1.6403 0.60274-3.712 0.106-1.3077-0.17496-5.2506-0.37472-6.2485m-2.7626 4.3934c-0.19931-0.0065-0.39218 0.01113-0.57368 0.041759 0.05049-0.40412 0.21161-0.89919 0.80108-0.8839 0.66017 0.014317 0.7591 0.62961 0.76602 1.0459-0.27974-0.11973-0.62067-0.19451-0.99566-0.2039" fill="url(#linearGradient1492)" stroke-width=".61876"/>
</svg>
