<?xml version="1.0" encoding="UTF-8"?>
<svg width="64" height="64" version="1.1" viewBox="0 0 64 64" xmlns="http://www.w3.org/2000/svg">
 <g transform="matrix(1.0741 0 0 1.0741 -6.7434 -7.7407)" stroke-linecap="round" stroke-linejoin="round">
  <path d="m36.071 10c-2.8929 0-5.7857 1.9286-5.7857 1.9286-1.4947 0.85409-2.549 1.4279-3.8571 2.1546l-1.9286 2.6668-1.9286-0.51227c-7.9245 4.416-11.571 6.8283-11.571 12.084v17.357c0 6.75 5.7857 8.6786 19.286 16.393 0 0 2.8929 1.9286 5.7857 1.9286 2.8929 0 5.7857-1.9286 5.7857-1.9286 13.5-7.7143 19.286-9.6429 19.286-16.393v-17.357c0-6.75-5.7857-8.6786-19.286-16.393 0 0-2.8929-1.9286-5.7857-1.9286z" fill="#ffd232" stroke-width="7.3087"/>
  <path d="m26.429 14.089c-1.3082 0.72665-2.7303 1.5266-3.8571 2.1546v23.656c0 3.8571 1.9286 6.75 9.6429 10.607 0 0 1.9286 0.96429 3.8571 0.96429 1.9286 0 3.8571-0.96429 3.8571-0.96429 7.7143-3.8571 9.6429-6.75 9.6429-10.607v-5.7857c0-3.8571-1.9286-6.75-9.6429-10.607 0 0-1.9286-0.96429-3.8571-0.96429v4.8214c5.3256 0 9.6429 4.3171 9.6429 9.6429 0 5.3256-4.3173 9.6429-9.6429 9.6429s-9.6429-4.3173-9.6429-9.6429zm7.7143 8.738c-1.0908 0.28495-1.9286 0.67809-1.9286 0.67809v4.6706c0.61448-0.26904 1.2552-0.48484 1.9286-0.62138zm-3.8571 1.7365c-0.68628 0.38417-1.3567 0.76815-1.9286 1.1375v5.5711c0.5475-0.73498 1.1976-1.3834 1.9286-1.9361z" fill="#1e1e1e" stroke-width="3.8571"/>
 </g>
</svg>
