<?xml version="1.0" encoding="UTF-8" standalone="no"?>
<svg
   width="64"
   height="64"
   version="1"
   id="svg10"
   sodipodi:docname="boostnote.svg"
   xml:space="preserve"
   inkscape:version="1.2.1 (9c6d41e410, 2022-07-14, custom)"
   xmlns:inkscape="http://www.inkscape.org/namespaces/inkscape"
   xmlns:sodipodi="http://sodipodi.sourceforge.net/DTD/sodipodi-0.dtd"
   xmlns:xlink="http://www.w3.org/1999/xlink"
   xmlns="http://www.w3.org/2000/svg"
   xmlns:svg="http://www.w3.org/2000/svg"><defs
     id="defs14"><linearGradient
       inkscape:collect="always"
       id="linearGradient1033"><stop
         style="stop-color:#007587;stop-opacity:0.99607843"
         offset="0"
         id="stop1029" /><stop
         style="stop-color:#0d5361;stop-opacity:0.99215686"
         offset="1"
         id="stop1031" /></linearGradient><linearGradient
       inkscape:collect="always"
       xlink:href="#linearGradient1033"
       id="linearGradient1035"
       x1="57.831898"
       y1="0"
       x2="4"
       y2="59.757805"
       gradientUnits="userSpaceOnUse" /></defs><sodipodi:namedview
     id="namedview12"
     pagecolor="#ffffff"
     bordercolor="#999999"
     borderopacity="1"
     inkscape:showpageshadow="0"
     inkscape:pageopacity="0"
     inkscape:pagecheckerboard="0"
     inkscape:deskcolor="#d1d1d1"
     showgrid="false"
     inkscape:zoom="9.0598056"
     inkscape:cx="25.993935"
     inkscape:cy="26.325068"
     inkscape:window-width="1920"
     inkscape:window-height="949"
     inkscape:window-x="0"
     inkscape:window-y="40"
     inkscape:window-maximized="1"
     inkscape:current-layer="svg10" /><circle
     cx="32"
     cy="32"
     r="30"
     stroke-width="1.07143"
     id="circle2"
     style="fill:#ffffff;fill-opacity:1" /><ellipse
     style="opacity:1;fill:url(#linearGradient1035);fill-opacity:1;fill-rule:evenodd;stroke:none;stroke-width:2.04702;stroke-linecap:round;stroke-linejoin:round;paint-order:stroke fill markers"
     id="path4559"
     cx="32"
     cy="32"
     rx="28"
     ry="27.757807" /><g
     id="g3665"
     transform="matrix(1.1666667,0,0,1.1666667,121.90937,-8.8333637)"><path
       d="m -62.065168,20 -30,9.5996 11.105,4.6191 3.8945,0.78125 0.83594,3.9941 4.5645,11.006 9.5996,-30 z m -20.35,18.006 c -0.1251,0.01061 -0.28673,0.03757 -0.43555,0.07617 -1.1382,0.29707 -2.7917,1.5196 -3.6777,2.7207 -1.0049,1.3623 -1.5395,2.9575 -1.5371,4.584 5.88e-4,0.45491 0.0205,0.5321 0.1543,0.58984 0.15166,0.06546 1.4391,-0.0131 1.9609,-0.11914 1.5047,-0.30745 2.7862,-1.0122 3.9316,-2.1602 0.72008,-0.72164 1.1467,-1.3167 1.5645,-2.1875 0.27352,-0.57003 0.45829,-1.2622 0.36328,-1.3574 -0.019,-0.018 -0.16955,0.07009 -0.33398,0.19922 -1.2419,0.79587 -2.2333,1.372 -3.6406,1.6484 0.36522,-1.3839 0.75413,-2.4379 1.4805,-3.4316 0.21043,-0.28353 0.38281,-0.52688 0.38281,-0.54102 0,-0.02641 -0.08779,-0.03209 -0.21289,-0.02149 z"
       fill="#ffffff"
       id="path6" /><path
       d="m -92.065168,29.6 11.105,4.6184 3.895,0.78163 15,-15 z"
       id="path8"
       style="fill:#cce0e3;fill-opacity:1" /><path
       style="fill:#ffffff;fill-opacity:1;stroke:none;stroke-width:1px;stroke-linecap:butt;stroke-linejoin:miter;stroke-opacity:1"
       d="m -80.960168,34.2187 18.89454,-14.21865 -15.00004,14.9999 z"
       id="path372" /><path
       style="fill:#cce0e3;fill-opacity:1;stroke:none;stroke-width:1px;stroke-linecap:butt;stroke-linejoin:miter;stroke-opacity:1"
       d="m -77.065168,35.00003 0.83544,3.99402 14.1641,-18.994 z"
       id="path960" /></g></svg>
