<?xml version="1.0" encoding="UTF-8"?>
<svg width="64" height="64" version="1.1" xmlns="http://www.w3.org/2000/svg">
 <defs>
  <linearGradient id="linearGradient855" x1=".73911" x2="16.388" y1="16.296" y2=".64687" gradientTransform="matrix(4.6519 0 0 4.6519 -7.5505 -7.3532)" gradientUnits="userSpaceOnUse">
   <stop stop-color="#5d00a5" offset="0"/>
   <stop stop-color="#8a05e8" offset="1"/>
  </linearGradient>
 </defs>
 <path d="m23.385 4c-1.077 0-4.8458 4.3076-5.3848 4.3076h-2.6923c-1.077 0-4.8462 3.7692-4.8462 4.8462v3.2308c0 0.53848-4.2842 4.3076-4.3076 5.3848-0.02374 1.077 7.5384 26.385 8.6152 27.461 1.0769 1.076 12.923 10.769 16.154 10.769h2.1538c3.2308 0 15.076-9.6924 16.154-10.769 1.077-1.077 8.6368-26.385 8.6152-27.461-0.02381-1.0705-4.3076-4.8458-4.3076-5.3848v-3.2308c0-1.077-3.7692-4.8462-4.8462-4.8462h-2.6923c-0.53848 0-4.3076-4.3076-5.3848-4.3076zm8.6152 7.5218c1.077 0 2.1409 0.36788 3.2308 1.0937 3.2308 2.1539 7.5384-1.0769 8.6152-1.0769 1.077 0 7.5384 7.8465 7.5384 10.769 0 2.1539-8.077 7.1079-8.077 8.6152 0 1.077 1.6154 1.5967 1.6154 3.8798 0 1.5055-2.1538 4.1972-4.3076 4.1972-2.1538 0-7.5426-4.2271-7.5384-5.2741v-0.64903c0-1.2923 4.8462-2.9203 4.8462-5.3848 0-2.1539-1.6154-2.9529-1.6154-5.3871 0-2.0936 4.3076-2.6923 7.5384-3.2308 1.077 0-3.2308-3.5436-9.1538 0.28606-1.4991 0.96924 1.6154 4.8012 1.0769 8.3295-0.8077 0.75388-2.2873 1.1322-3.7692 1.1322-1.4796 0-2.9614-0.37834-3.7692-1.1322-0.53848-3.5281 2.576-7.36 1.0769-8.3295-5.923-3.8295-10.231-0.28606-9.1538-0.28606 3.2308 0.53848 7.5384 1.1372 7.5384 3.2308 0 2.4339-1.6154 3.2329-1.6154 5.3871 0 2.4641 4.8462 4.0922 4.8462 5.3848v0.64903c0.0043 1.0468-5.3848 5.2741-7.5384 5.2741-2.1538 0-4.3076-2.6915-4.3076-4.1972 0-2.2853 1.6154-2.8029 1.6154-3.8798 0-1.5077-8.077-6.4616-8.077-8.6152 0-2.9229 6.4616-10.769 7.5384-10.769 1.0768 0 5.3848 3.2308 8.6152 1.0769 1.0899-0.72587 2.1582-1.0937 3.2308-1.0937zm0 25.649c2.1539 0 6.9998 3.337 6.9998 3.9833 0 0.6462-4.8462 5.923-6.9998 5.923-2.1539 0-6.9998-5.2771-6.9998-5.923 0-0.6462 4.8462-3.9833 6.9998-3.9833z" fill="url(#linearGradient855)" stroke-width="1.2308"/>
</svg>
