<?xml version="1.0" encoding="UTF-8"?>
<svg id="Flamingo" width="64" height="64" enable-background="new 0 0 1024 1024" image-rendering="optimizeSpeed" version="1.1" viewBox="0 0 64 64" xmlns="http://www.w3.org/2000/svg">
 <defs>
  <linearGradient id="linearGradient1053-3" x1="95.96" x2="95.96" y1="8.8784" y2="61.79" gradientTransform="matrix(.91667 0 0 .91667 -57.835 2.6663)" gradientUnits="userSpaceOnUse">
   <stop stop-color="#ff4b00" offset="0"/>
   <stop stop-color="#f5102c" offset="1"/>
  </linearGradient>
 </defs>
 <rect x="4.4996" y="4.4996" width="55.001" height="55.001" ry="2.75" fill="url(#linearGradient1053-3)" stroke-width="3.4647"/>
 <ellipse cx="22.667" cy="42.667" r="2.6667" fill="#b0b0b0" stroke-width="1.3333" style="paint-order:normal"/>
 <g fill="#fff">
  <path d="m36.971 19.05c0 2.2366-4.971 9.057-4.971 9.057s-4.971-6.8204-4.971-9.057 2.2256-4.0497 4.971-4.0497c2.7454 0 4.971 1.8131 4.971 4.0497z" style="paint-order:markers fill stroke"/>
  <path transform="matrix(1.4003 0 0 1.4091 -13.007 -13.182)" d="m32.14 29.302 3.5163 6.0904h-3.5163-3.5163l1.7581-3.0452z" style="paint-order:markers fill stroke"/>
  <path d="m42.233 45.549c-1.9249-1.1183-5.3093-8.8604-5.3093-8.8604s8.3555-0.92174 10.28 0.19655c1.9249 1.1183 2.3725 3.9643 0.99984 6.3568-1.3727 2.3925-4.046 3.4254-5.9709 2.3071z" style="paint-order:markers fill stroke"/>
  <path d="m16.796 36.885c1.9249-1.1183 10.28-0.19655 10.28-0.19655s-3.3844 7.7421-5.3093 8.8604c-1.9249 1.1183-4.5981 0.08536-5.9709-2.3071-1.3727-2.3925-0.92507-5.2385 0.99983-6.3568z" style="paint-order:markers fill stroke"/>
 </g>
 <g transform="matrix(1.3 0 0 1.3 -567.29 -750.44)">
  <g font-size="12.666px" stroke-width=".76923">
   <text x="730.88" y="132.19" font-family="'Droid Sans'" stroke-width=".76923"/>
  </g>
 </g>
</svg>
