<?xml version="1.0" encoding="UTF-8" standalone="no"?>
<svg
   width="64"
   height="64"
   version="1.1"
   viewBox="0 0 16.933 16.933"
   id="svg8"
   sodipodi:docname="distributor-logo-ubuntu-budgie.svg"
   xml:space="preserve"
   inkscape:version="1.2.1 (9c6d41e410, 2022-07-14)"
   xmlns:inkscape="http://www.inkscape.org/namespaces/inkscape"
   xmlns:sodipodi="http://sodipodi.sourceforge.net/DTD/sodipodi-0.dtd"
   xmlns="http://www.w3.org/2000/svg"
   xmlns:svg="http://www.w3.org/2000/svg"><defs
     id="defs12" /><sodipodi:namedview
     id="namedview10"
     pagecolor="#ffffff"
     bordercolor="#999999"
     borderopacity="1"
     inkscape:showpageshadow="0"
     inkscape:pageopacity="0"
     inkscape:pagecheckerboard="0"
     inkscape:deskcolor="#d1d1d1"
     showgrid="false"
     inkscape:zoom="11.346854"
     inkscape:cx="93.417963"
     inkscape:cy="15.070256"
     inkscape:window-width="3840"
     inkscape:window-height="2074"
     inkscape:window-x="1920"
     inkscape:window-y="0"
     inkscape:window-maximized="1"
     inkscape:current-layer="svg8" /><g
     transform="matrix(1.0385,0,0,1.0385,-0.41261085,-0.32596025)"
     stroke-width="0.92729"
     id="g4"><path
       d="m 8.467,1.588 a 6.879,6.879 0 1 1 0,13.757 6.879,6.879 0 0 1 0,-13.757 z"
       fill="#3d424e"
       id="path2" /></g><g
     id="g937"
     transform="matrix(1.8138691,0,0,1.8138691,-7.1442539,-7.2013492)"
     style="fill:#ffffff;fill-opacity:1"><path
       id="rect359"
       style="fill:#ffffff;fill-rule:evenodd;stroke-width:0.793734;stroke-linecap:square;paint-order:stroke fill markers;fill-opacity:1"
       d="m 9.789906,9.3268957 0.00103,0.00103 c -0.015281,0 -0.030342,3.381e-4 -0.045474,0.00103 -0.015132,6.953e-4 -0.030506,0.00173 -0.045474,0.0031 -0.014969,0.00138 -0.029649,0.00313 -0.044441,0.00517 -0.014792,0.00204 -0.029322,0.00455 -0.043924,0.00723 -0.014602,0.00269 -0.029009,0.00546 -0.043407,0.00878 -0.014398,0.00332 -0.02871,0.00691 -0.04289,0.010852 -0.014181,0.00394 -0.028424,0.00838 -0.042374,0.012919 -0.01395,0.00454 -0.027635,0.00934 -0.04134,0.014469 -0.013705,0.00513 -0.027377,0.010836 -0.040824,0.016536 -0.013447,0.0057 -0.026615,0.011313 -0.03979,0.01757 -0.013175,0.00626 -0.026384,0.01284 -0.039273,0.019637 -0.012889,0.0068 -0.02565,0.013866 -0.03824,0.021187 -0.01259,0.00732 -0.024929,0.014907 -0.037206,0.022737 -0.012278,0.00783 -0.024738,0.015963 -0.036689,0.024287 -0.011951,0.00832 -0.023528,0.017035 -0.035139,0.025838 -0.011611,0.0088 -0.022848,0.017606 -0.034106,0.026871 -0.011258,0.00927 -0.022698,0.018709 -0.033589,0.028422 -0.010891,0.00971 -0.021529,0.019827 -0.032039,0.029972 -0.01051,0.010145 -0.02089,0.020444 -0.031005,0.031005 -0.010115,0.010561 -0.019748,0.021594 -0.029455,0.032555 -0.00971,0.010962 -0.019136,0.021725 -0.028422,0.033072 -0.00929,0.011347 -0.018537,0.022906 -0.027388,0.034622 -0.00885,0.011717 -0.017436,0.023585 -0.025838,0.035656 -0.0084,0.012071 -0.016865,0.024279 -0.024804,0.03669 -0.00794,0.01241 -0.015274,0.02499 -0.022737,0.037723 -0.00746,0.012733 -0.01473,0.025715 -0.021704,0.038757 -0.00697,0.013041 -0.013683,0.026456 -0.020153,0.03979 -0.00647,0.013333 -0.01265,0.026696 -0.018603,0.040307 -0.00595,0.01361 -0.01163,0.027468 -0.017053,0.04134 -0.00542,0.01387 -0.010624,0.02774 -0.015503,0.04186 -0.00488,0.01412 -0.00963,0.02854 -0.013952,0.04289 -0.00432,0.01435 -0.00814,0.02885 -0.011885,0.04341 -0.00925,0.02375 -0.018136,0.04398 -0.026355,0.06201 -0.00822,0.01803 -0.015896,0.0337 -0.023771,0.04857 -0.01575,0.02975 -0.031625,0.05587 -0.050125,0.08836 a 0.863,0.863 0 0 1 -0.069245,0.106969 0.863,0.863 0 0 1 -0.084231,0.0956 0.863,0.863 0 0 1 -0.097666,0.08216 0.54,0.54 0 0 1 -0.07958,0.04134 0.54,0.54 0 0 1 -0.085781,0.02739 0.54,0.54 0 0 1 -0.088882,0.0124 0.54,0.54 0 0 1 -0.089398,-0.0021 c -0.0265,-0.0043 -0.048271,-0.0085 -0.066661,-0.01292 -0.018391,-0.0044 -0.033479,-0.0088 -0.047541,-0.01395 -0.014062,-0.0052 -0.026791,-0.01102 -0.040307,-0.01757 -0.013516,-0.0065 -0.027691,-0.01424 -0.044441,-0.02274 -0.013,-0.0105 -0.024622,-0.01984 -0.035139,-0.02894 -0.010517,-0.0091 -0.020305,-0.01795 -0.028938,-0.02635 -0.00863,-0.0084 -0.016425,-0.01639 -0.023771,-0.0248 -0.00735,-0.0084 -0.014014,-0.01723 -0.02067,-0.02635 -0.00666,-0.0091 -0.013072,-0.0184 -0.019637,-0.02894 -0.00656,-0.01054 -0.0136,-0.02197 -0.02067,-0.03462 -0.014141,-0.02531 -0.029858,-0.05553 -0.049608,-0.09353 0.00275,0.0405 0.00458,0.07375 0.0062,0.105418 0.00162,0.03167 0.00322,0.06166 0.00672,0.0956 0.00175,0.01697 0.00394,0.03464 0.00672,0.05426 0.00278,0.01961 0.00615,0.04095 0.010335,0.06459 0.00419,0.02365 0.00902,0.05 0.014986,0.07906 0.00597,0.02907 0.013062,0.06076 0.021187,0.09663 0.00534,0.01753 0.011328,0.03538 0.01757,0.05271 0.00624,0.01733 0.013037,0.03457 0.020153,0.05167 0.00712,0.01711 0.014253,0.03378 0.02222,0.05064 0.00797,0.01686 0.016527,0.03353 0.025321,0.05012 0.00879,0.0166 0.017791,0.03331 0.027388,0.04961 0.0096,0.0163 0.019596,0.03258 0.029972,0.04857 0.010376,0.01599 0.021424,0.03137 0.032555,0.04702 0.011132,0.01566 0.022759,0.03121 0.034623,0.04651 0.011863,0.0153 0.024119,0.03055 0.03669,0.04547 0.012571,0.01492 0.025501,0.02941 0.038757,0.04392 0.013255,0.01452 0.026391,0.02932 0.040307,0.04341 0.013915,0.01409 0.028339,0.0277 0.042891,0.04134 0.014552,0.01365 0.029276,0.02713 0.044441,0.04031 0.015164,0.01318 0.030755,0.02607 0.046508,0.03876 0.015753,0.01268 0.03174,0.02504 0.048058,0.03721 0.016318,0.01217 0.032749,0.02402 0.049608,0.03566 0.016859,0.01163 0.034299,0.02303 0.051675,0.03411 0.017377,0.01107 0.034838,0.02206 0.052709,0.03256 0.01787,0.01049 0.035919,0.0206 0.054259,0.03049 0.01834,0.0099 0.037023,0.01968 0.055809,0.02894 0.018786,0.0093 0.037635,0.01774 0.056843,0.02635 0.019208,0.0086 0.038787,0.01738 0.058393,0.02532 0.019607,0.0079 0.039446,0.01549 0.059427,0.02274 0.019981,0.0072 0.040128,0.01414 0.06046,0.02067 0.020332,0.0065 0.040835,0.01229 0.061494,0.01809 0.020659,0.0058 0.041565,0.0115 0.062527,0.01654 0.020962,0.005 0.041803,0.0097 0.063044,0.01395 0.021241,0.0043 0.04258,0.0079 0.064077,0.01137 0.021497,0.0034 0.043382,0.0067 0.065111,0.0093 0.021729,0.0026 0.043691,0.005 0.065628,0.0067 0.021937,0.0018 0.044024,0.0027 0.066145,0.0036 0.022121,8.95e-4 0.043863,0.0015 0.066145,0.0015 0.033062,0 0.066285,-8.82e-4 0.0987,-0.0026 0.032415,-0.0017 0.064395,-0.0044 0.096116,-0.0078 0.031722,-0.0034 0.063066,-0.0074 0.094049,-0.0124 0.030983,-0.005 0.061266,-0.01054 0.091465,-0.01705 0.030199,-0.0065 0.060029,-0.01369 0.089399,-0.0217 0.02937,-0.008 0.05832,-0.01689 0.086815,-0.02635 0.028495,-0.0095 0.056656,-0.01962 0.084231,-0.03049 0.027575,-0.01087 0.054521,-0.0224 0.08113,-0.03462 0.02661,-0.01222 0.052949,-0.02524 0.078547,-0.03876 0.0256,-0.01352 0.0509,-0.0276 0.07545,-0.04237 0.02454,-0.01478 0.04839,-0.03001 0.07183,-0.04599 0.02344,-0.01598 0.04644,-0.03299 0.06873,-0.05012 0.02229,-0.01713 0.04401,-0.03447 0.06511,-0.05271 0.0211,-0.01824 0.04163,-0.03703 0.06149,-0.05633 0.01986,-0.01929 0.03878,-0.03913 0.05736,-0.05943 0.01858,-0.0203 0.03649,-0.04128 0.05374,-0.06253 0.025,-0.031 0.04889,-0.06012 0.07131,-0.0894 0.01121,-0.01464 0.02188,-0.02914 0.03255,-0.04392 0.01068,-0.01479 0.0213,-0.03016 0.03152,-0.04547 0.01022,-0.01531 0.02014,-0.0308 0.02997,-0.04702 0.0098,-0.01622 0.01941,-0.03313 0.02894,-0.05064 0.0095,-0.01752 0.01913,-0.03558 0.02842,-0.05478 0.0093,-0.01919 0.01826,-0.03921 0.02739,-0.06046 0.0084,-0.0195 0.01586,-0.03956 0.02274,-0.05943 0.0069,-0.01987 0.01309,-0.03971 0.0186,-0.05994 0.0055,-0.02023 0.0102,-0.0409 0.01447,-0.06149 0.0043,-0.02059 0.0082,-0.04107 0.01137,-0.06201 0.0032,-0.02094 0.0056,-0.04228 0.0078,-0.06356 0.0022,-0.02128 0.0038,-0.04247 0.0052,-0.06408 0.0013,-0.02161 0.0025,-0.04318 0.0031,-0.06511 5.96e-4,-0.02193 0.001,-0.04441 0.001,-0.06666 0,-0.01891 -6.35e-4,-0.0376 -0.0015,-0.05633 -9.15e-4,-0.01873 -0.0023,-0.03729 -0.0041,-0.05581 -0.0018,-0.01852 -0.004,-0.037 -0.0067,-0.05529 -0.0027,-0.01829 -0.0058,-0.03623 -0.0093,-0.05426 -0.0035,-0.01803 -0.0075,-0.036 -0.01189,-0.05374 -0.0044,-0.01774 -0.0093,-0.03528 -0.01447,-0.05271 -0.0052,-0.01743 -0.0106,-0.0351 -0.01654,-0.05219 -0.0059,-0.01709 -0.01242,-0.03391 -0.01912,-0.05064 -0.0067,-0.01673 -0.01375,-0.033271 -0.02119,-0.049608 -0.0074,-0.016337 -0.0151,-0.03214 -0.02325,-0.048058 -0.0082,-0.015919 -0.01648,-0.032068 -0.02532,-0.047541 -0.0088,-0.015474 -0.01787,-0.030472 -0.02739,-0.045474 -0.0095,-0.015002 -0.01981,-0.029936 -0.02997,-0.044441 -0.01016,-0.014505 -0.02022,-0.028394 -0.03101,-0.042374 -0.01079,-0.01398 -0.02219,-0.027911 -0.03359,-0.04134 -0.01139,-0.013429 -0.02316,-0.026422 -0.03514,-0.039273 -0.01198,-0.012852 -0.02415,-0.025476 -0.03669,-0.037723 -0.01254,-0.012247 -0.02516,-0.024039 -0.03824,-0.035656 -0.01308,-0.011617 -0.02672,-0.023146 -0.04031,-0.034106 -0.01359,-0.01096 -0.02726,-0.021763 -0.04134,-0.032039 -0.01408,-0.010276 -0.02834,-0.019889 -0.04289,-0.029455 -0.01456,-0.00957 -0.02944,-0.019076 -0.04444,-0.027905 -0.01501,-0.00883 -0.03004,-0.017256 -0.04547,-0.025321 -0.01543,-0.00807 -0.03119,-0.015462 -0.04703,-0.022737 -0.01584,-0.00728 -0.03184,-0.014211 -0.04806,-0.02067 -0.01622,-0.00646 -0.03251,-0.012471 -0.04909,-0.018086 -0.01658,-0.00562 -0.03372,-0.010756 -0.05064,-0.015503 -0.01692,-0.00475 -0.03392,-0.00907 -0.05116,-0.012919 -0.017237,-0.00385 -0.034662,-0.00741 -0.052193,-0.010335 -0.017531,-0.00293 -0.034906,-0.00526 -0.052709,-0.00723 -0.017803,-0.00198 -0.035689,-0.00365 -0.053743,-0.00465 -0.018053,-0.001 -0.036495,-0.00155 -0.054776,-0.00155 z" /><path
       id="path924"
       style="fill:#ffffff;fill-rule:evenodd;stroke-width:0.793734;stroke-linecap:square;paint-order:stroke fill markers;fill-opacity:1"
       d="m 6.9405253,6.7439989 c -0.016552,4.96e-5 -0.033479,8.635e-4 -0.050125,0.00155 -0.016646,6.867e-4 -0.033406,0.00127 -0.050125,0.00258 -0.016719,0.00132 -0.033354,0.00323 -0.050125,0.00517 -0.016771,0.00194 -0.033323,0.00416 -0.050125,0.00672 -0.016802,0.00256 -0.033829,0.00561 -0.050642,0.00878 -0.016813,0.00317 -0.033839,0.00656 -0.050642,0.010335 -0.016802,0.00378 -0.033354,0.00751 -0.050125,0.011885 -0.016771,0.00438 -0.033406,0.0095 -0.050125,0.014469 -0.016719,0.00497 -0.033478,0.00994 -0.050125,0.015503 -0.016647,0.00556 -0.033572,0.011429 -0.050125,0.01757 -0.016553,0.00614 -0.032653,0.012404 -0.049092,0.01912 -0.016439,0.00672 -0.032788,0.013902 -0.049092,0.021187 -0.016304,0.00728 -0.032944,0.01489 -0.049092,0.022737 -0.016148,0.00785 -0.032087,0.015884 -0.048058,0.024287 -0.015971,0.0084 -0.031768,0.017401 -0.047541,0.026354 -0.015773,0.00895 -0.03147,0.017891 -0.047025,0.027388 -0.015555,0.0095 -0.031192,0.019421 -0.046508,0.029455 -0.015316,0.010034 -0.030419,0.020439 -0.045474,0.031005 -0.015056,0.010566 -0.029666,0.020948 -0.044441,0.032039 -0.014775,0.011091 -0.029451,0.022496 -0.043924,0.034106 -0.014473,0.01161 -0.02874,0.023534 -0.042891,0.035656 -0.014151,0.012122 -0.02805,0.024578 -0.041857,0.037206 -0.013807,0.012629 -0.027897,0.025628 -0.04134,0.038757 -0.013443,0.013129 -0.026732,0.026684 -0.03979,0.040307 -0.013058,0.013623 -0.025587,0.02723 -0.03824,0.04134 -0.012653,0.014111 -0.02498,0.028299 -0.037206,0.042891 -0.012226,0.014592 -0.024394,0.029374 -0.036173,0.044441 -0.011779,0.015067 -0.023312,0.030455 -0.034623,0.045991 -0.011311,0.015536 -0.022251,0.031542 -0.033072,0.047541 -0.010822,0.015999 -0.021727,0.032119 -0.032039,0.048575 -0.010312,0.016456 -0.02019,0.033219 -0.029972,0.050125 -0.0165,0.028625 -0.032326,0.057385 -0.047025,0.086298 -0.014698,0.028913 -0.028422,0.057678 -0.04134,0.086815 -0.012918,0.029137 -0.025014,0.058552 -0.036173,0.087848 -0.011159,0.029296 -0.021067,0.058458 -0.030488,0.087848 -0.00942,0.029391 -0.018132,0.058944 -0.025838,0.088365 -0.00771,0.029421 -0.014658,0.058978 -0.02067,0.088365 -0.00601,0.029387 -0.011164,0.05856 -0.015503,0.087848 -0.00434,0.029288 -0.00765,0.058723 -0.010335,0.087848 -0.00269,0.029125 -0.00463,0.057917 -0.00568,0.086815 -0.00106,0.028897 -0.00158,0.057692 -0.00103,0.086298 5.507e-4,0.028605 0.002,0.057016 0.00413,0.085264 0.00214,0.028249 0.00508,0.056403 0.00878,0.084231 0.0037,0.027828 0.00819,0.055338 0.013436,0.082681 0.00525,0.027343 0.011317,0.054854 0.018086,0.081647 0.00677,0.026793 0.014467,0.052885 0.022737,0.079063 0.00827,0.026179 0.017121,0.052013 0.026871,0.077513 a 1.508,1.508 0 0 0 0.05736,0.1452079 1.508,1.508 0 0 0 0.071829,0.1384902 1.508,1.508 0 0 0 0.085781,0.1307388 1.25,1.25 0 0 0 0.115753,0.1255712 1.25,1.25 0 0 0 0.1317723,0.1085184 1.25,1.25 0 0 0 0.1457246,0.089915 c 0.016344,0.00944 0.032443,0.018314 0.049092,0.026871 0.016649,0.00856 0.033722,0.016604 0.050642,0.024288 0.01692,0.00768 0.034002,0.014888 0.051159,0.021704 0.017156,0.00682 0.034317,0.013167 0.051675,0.01912 0.017359,0.00595 0.034665,0.01144 0.052192,0.016536 0.017527,0.0051 0.035048,0.00971 0.052709,0.013952 0.017661,0.00425 0.035465,0.00797 0.053226,0.011369 0.017761,0.0034 0.035916,0.00674 0.053743,0.0093 0.017826,0.00256 0.035368,0.00447 0.053226,0.0062 0.017857,0.00173 0.035888,0.00323 0.053742,0.00413 0.017854,8.993e-4 0.035409,0.00147 0.053226,0.00155 0.017817,7.73e-5 0.035997,-2.948e-4 0.053742,-0.00103 0.017746,-7.387e-4 0.035069,-0.00207 0.052709,-0.00362 0.01764,-0.00155 0.035209,-0.00333 0.052709,-0.00568 0.0175,-0.00235 0.035383,-0.00512 0.052709,-0.00827 0.017326,-0.00315 0.034558,-0.00691 0.051675,-0.010852 0.017117,-0.00395 0.033767,-0.00819 0.050642,-0.012919 0.016874,-0.00473 0.033528,-0.00999 0.050125,-0.015503 0.016598,-0.00551 0.033322,-0.01128 0.049608,-0.01757 0.016286,-0.00629 0.032117,-0.013094 0.048058,-0.020153 0.015941,-0.00706 0.03198,-0.014397 0.047541,-0.02222 0.015561,-0.00782 0.030844,-0.016223 0.045991,-0.024804 0.015147,-0.00858 0.030258,-0.017538 0.044958,-0.026871 0.014699,-0.00933 0.02919,-0.018858 0.043407,-0.028938 0.014217,-0.01008 0.028157,-0.020701 0.041857,-0.031522 0.0137,-0.010821 0.027158,-0.022033 0.040307,-0.033589 0.013149,-0.011556 0.025676,-0.023371 0.03824,-0.035656 0.012564,-0.012285 0.024745,-0.024715 0.03669,-0.037723 0.011945,-0.013008 0.023848,-0.026581 0.035139,-0.040307 0.011291,-0.013726 0.021952,-0.027936 0.032555,-0.042374 0.010603,-0.014438 0.021124,-0.029297 0.031005,-0.044441 0.00988,-0.015143 0.019296,-0.030147 0.028421,-0.045991 0.00766,-0.013219 0.015244,-0.026871 0.02222,-0.040307 0.00698,-0.013436 0.013334,-0.026674 0.019637,-0.040307 0.0063,-0.013633 0.01245,-0.027529 0.018086,-0.04134 0.00564,-0.013812 0.011043,-0.027886 0.016019,-0.041857 0.00498,-0.013971 0.00963,-0.027747 0.013952,-0.041857 0.00432,-0.014111 0.00821,-0.02866 0.011885,-0.042891 0.00368,-0.014231 0.00678,-0.028042 0.00982,-0.042374 0.00304,-0.014332 0.00586,-0.028993 0.00827,-0.043407 0.00241,-0.014414 0.00442,-0.028931 0.0062,-0.043407 0.00178,-0.014477 0.00349,-0.028887 0.00465,-0.043407 0.00116,-0.01452 0.00203,-0.028863 0.00258,-0.043407 5.503e-4,-0.014544 5.714e-4,-0.029375 5.167e-4,-0.043924 -5.47e-5,-0.014549 -3.806e-4,-0.028873 -0.00103,-0.043407 -6.528e-4,-0.014534 -0.00134,-0.029424 -0.00258,-0.043924 -0.00124,-0.014501 -0.00282,-0.02896 -0.00465,-0.043407 -0.00183,-0.014447 -0.00431,-0.028516 -0.00672,-0.042891 -0.00241,-0.014375 -0.00477,-0.028607 -0.00775,-0.042891 -0.00298,-0.014283 -0.00628,-0.028718 -0.00982,-0.042891 -0.00354,-0.014172 -0.00727,-0.028332 -0.011369,-0.042374 -0.0041,-0.014042 -0.00879,-0.027964 -0.013436,-0.041857 -0.00465,-0.013893 -0.00928,-0.027617 -0.014469,-0.04134 -0.00519,-0.013724 -0.010808,-0.027288 -0.016536,-0.040824 -0.00573,-0.013536 -0.011828,-0.026979 -0.018086,-0.040307 -0.00626,-0.013328 -0.012855,-0.026689 -0.019637,-0.03979 -0.00678,-0.013101 -0.013373,-0.025901 -0.02067,-0.038757 -0.0073,-0.012856 -0.014931,-0.025649 -0.022737,-0.03824 -0.00781,-0.01259 -0.015978,-0.025417 -0.024287,-0.037723 -0.00831,-0.012306 -0.017033,-0.024171 -0.025838,-0.036173 -0.0088,-0.012002 -0.017578,-0.023977 -0.026871,-0.035656 -0.00929,-0.011679 -0.019163,-0.023286 -0.028938,-0.034623 -0.00978,-0.011336 -0.019721,-0.022098 -0.029972,-0.033072 -0.01025,-0.010975 -0.020803,-0.021962 -0.031522,-0.032555 -0.016,-0.01975 -0.029261,-0.037257 -0.040824,-0.053226 -0.011563,-0.015969 -0.021489,-0.030316 -0.030488,-0.044441 -0.009,-0.014125 -0.017009,-0.028155 -0.025321,-0.042374 -0.00831,-0.014219 -0.016854,-0.028708 -0.026355,-0.044958 A 0.866,0.866 0 0 1 7.1472269,7.7273821 0.866,0.866 0 0 1 7.1064033,7.6064616 0.866,0.866 0 0 1 7.0836662,7.4808903 a 0.536,0.536 0 0 1 0.00465,-0.089398 0.536,0.536 0 0 1 0.019637,-0.087848 0.536,0.536 0 0 1 0.033589,-0.083197 0.536,0.536 0 0 1 0.047025,-0.07648 c 0.0165,-0.021 0.031049,-0.037393 0.043924,-0.051159 0.00644,-0.00688 0.012133,-0.013477 0.018086,-0.01912 0.00595,-0.00564 0.01182,-0.010721 0.01757,-0.015503 0.0115,-0.00956 0.022764,-0.017447 0.035139,-0.025838 0.012375,-0.00839 0.02584,-0.017138 0.04134,-0.027388 0.01575,-0.006 0.030114,-0.01095 0.043407,-0.015503 0.013293,-0.00455 0.025472,-0.00861 0.037206,-0.011885 0.011734,-0.00327 0.023032,-0.00611 0.034106,-0.00827 0.011074,-0.00216 0.022277,-0.00395 0.033589,-0.00517 0.011312,-0.00122 0.02269,-0.00162 0.035139,-0.00207 0.012449,-4.434e-4 0.025822,-6.809e-4 0.040307,-5.168e-4 0.028969,3.281e-4 0.062918,0.00187 0.1054178,0.00362 C 7.637298,6.9474145 7.607529,6.9319665 7.579232,6.9176235 7.550935,6.9032795 7.524122,6.8896415 7.492934,6.8757665 7.47734,6.8688265 7.460689,6.8619505 7.442292,6.8545795 7.423896,6.8472095 7.403901,6.8394975 7.381315,6.8313255 7.358729,6.8231555 7.333514,6.8148275 7.305352,6.8054875 7.27719,6.7961475 7.245911,6.7858735 7.210786,6.7749995 c -0.018,-0.00425 -0.036119,-0.00801 -0.054259,-0.011369 -0.018141,-0.00336 -0.036463,-0.00635 -0.054776,-0.00878 -0.018313,-0.00244 -0.036777,-0.0042 -0.055293,-0.00568 -0.018516,-0.00148 -0.03706,-0.0026 -0.05581,-0.0031 l -0.00103,-0.00103 c -0.016437,-5.937e-4 -0.03254,-0.00108 -0.049092,-0.00103 z" /><path
       id="path922"
       style="fill:#ffffff;fill-rule:evenodd;stroke-width:0.793734;stroke-linecap:square;paint-order:stroke fill markers;fill-opacity:1"
       d="m 9.6478252,5.6993148 c -0.02,0.001 -0.04076,0.00212 -0.06201,0.00362 -0.02125,0.0015 -0.043145,0.00372 -0.066145,0.00672 a 1.25,1.25 0 0 0 -0.1669116,0.037718 1.25,1.25 0 0 0 -0.1596771,0.059944 1.25,1.25 0 0 0 -0.1503754,0.08113 c -0.016375,0.00944 -0.032298,0.019313 -0.048058,0.029455 -0.01576,0.010142 -0.031375,0.020708 -0.046508,0.031522 -0.015133,0.010814 -0.029947,0.021619 -0.044441,0.033072 -0.014494,0.011453 -0.02853,0.023597 -0.042374,0.035656 -0.013844,0.01206 -0.027642,0.024056 -0.040824,0.03669 -0.013182,0.012633 -0.025732,0.025581 -0.03824,0.038756 -0.012508,0.013175 -0.024867,0.026623 -0.036689,0.040307 -0.011822,0.013684 -0.023498,0.027697 -0.034623,0.041857 -0.011125,0.01416 -0.021623,0.028804 -0.032039,0.043407 -0.010416,0.014604 -0.020793,0.029426 -0.030489,0.044441 -0.0097,0.015015 -0.018942,0.030081 -0.027905,0.045474 -0.00896,0.015393 -0.017619,0.030769 -0.025838,0.046508 -0.00822,0.015739 -0.015791,0.032006 -0.023254,0.048058 -0.00746,0.016053 -0.014492,0.032242 -0.021187,0.048575 -0.0067,0.016333 -0.013204,0.03251 -0.01912,0.049092 -0.00592,0.016581 -0.011411,0.033328 -0.016536,0.050125 -0.00512,0.016797 -0.00963,0.033662 -0.013952,0.050642 -0.00432,0.01698 -0.00838,0.034028 -0.011885,0.051159 -0.00351,0.01713 -0.00662,0.034427 -0.0093,0.051675 -0.00268,0.017248 -0.00487,0.034342 -0.00672,0.051675 -0.00184,0.017333 -0.00314,0.034807 -0.00413,0.052192 -9.941e-4,0.017385 -0.00193,0.034787 -0.00207,0.052192 -1.328e-4,0.017405 2.933e-4,0.034799 0.00103,0.052192 7.403e-4,0.017393 0.00199,0.034844 0.00362,0.052192 0.00163,0.017348 0.00368,0.034922 0.0062,0.052192 0.00252,0.01727 0.00536,0.034516 0.00878,0.051675 0.00343,0.017159 0.00754,0.034142 0.011885,0.051159 0.00435,0.017016 0.00919,0.033801 0.014469,0.050642 0.00528,0.016841 0.010828,0.033493 0.017053,0.050125 0.00622,0.016633 0.012974,0.033217 0.020153,0.049608 0.00718,0.016392 0.014591,0.032456 0.022737,0.048575 0.00815,0.016118 0.01723,0.032246 0.026355,0.048058 0.00763,0.01325 0.0151,0.026506 0.023254,0.039273 0.00815,0.012768 0.016658,0.024925 0.025321,0.037206 0.00866,0.012282 0.01772,0.024381 0.026871,0.036173 0.00915,0.011792 0.018286,0.023324 0.027905,0.034623 0.00962,0.011299 0.019905,0.02227 0.029972,0.033072 0.010067,0.010802 0.019994,0.021738 0.030489,0.032039 0.010495,0.010301 0.021137,0.020175 0.032039,0.029972 0.010902,0.0098 0.0223,0.019132 0.033589,0.028422 0.011289,0.00929 0.02245,0.01861 0.034106,0.027388 0.011656,0.00878 0.023654,0.017059 0.035656,0.025321 0.012002,0.00826 0.024361,0.016544 0.03669,0.024287 0.012329,0.00774 0.024571,0.015 0.037206,0.022221 0.012635,0.00722 0.025319,0.014492 0.03824,0.021187 0.01292,0.00669 0.026087,0.012955 0.039273,0.01912 0.013186,0.00616 0.026359,0.011939 0.03979,0.01757 0.013431,0.00563 0.027167,0.010926 0.040824,0.016019 0.013656,0.00509 0.027479,0.00992 0.04134,0.014469 0.013861,0.00455 0.027812,0.00891 0.041857,0.012919 0.014045,0.00401 0.028164,0.00791 0.042374,0.011369 0.01421,0.00346 0.028537,0.00639 0.042891,0.0093 0.014354,0.00291 0.02893,0.00592 0.043407,0.00827 0.014477,0.00235 0.028827,0.00441 0.043407,0.0062 0.01458,0.00179 0.02926,0.0029 0.043924,0.00413 0.014664,0.00123 0.029197,0.00244 0.043924,0.0031 0.014727,6.641e-4 0.029672,9.397e-4 0.044441,0.00103 0.014769,9.39e-5 0.029649,-3.67e-5 0.044441,-5.167e-4 0.014791,-4.8e-4 0.029647,-0.00101 0.044441,-0.00207 0.014793,-0.00106 0.029149,-0.0025 0.043924,-0.00413 0.014775,-0.00164 0.029704,-0.00346 0.044441,-0.00568 0.014737,-0.00222 0.029246,-0.00494 0.043924,-0.00775 0.014678,-0.00281 0.029325,-0.0059 0.043924,-0.0093 0.014599,-0.0034 0.029424,-0.00737 0.043924,-0.011368 0.02525,-0.00375 0.046974,-0.00635 0.066661,-0.00827 0.019687,-0.00192 0.037509,-0.00293 0.054259,-0.00362 0.01675,-6.875e-4 0.032654,-9.866e-4 0.049092,-0.00103 0.016438,-4.69e-5 0.033442,0 0.052192,0 a 0.866,0.866 0 0 1 0.127122,0.0062 0.866,0.866 0 0 1 0.125571,0.024804 0.866,0.866 0 0 1 0.119887,0.042891 0.536,0.536 0 0 1 0.07596,0.049092 0.536,0.536 0 0 1 0.06614,0.06046 0.536,0.536 0 0 1 0.05529,0.070795 0.536,0.536 0 0 1 0.04289,0.079063 c 0.0098,0.025 0.01685,0.045436 0.02222,0.063561 0.0027,0.00906 0.0048,0.017321 0.0067,0.025321 0.0019,0.008 0.0034,0.015879 0.0047,0.023254 0.0025,0.01475 0.004,0.028532 0.0052,0.043407 0.0011,0.014875 0.0019,0.030592 0.0031,0.049092 -0.0028,0.016625 -0.0055,0.031699 -0.0083,0.045474 -0.0027,0.013775 -0.0053,0.026451 -0.0083,0.03824 -0.003,0.011789 -0.0062,0.022923 -0.0098,0.033589 -0.0036,0.010666 -0.0078,0.021116 -0.0124,0.031522 -0.0046,0.010406 -0.0097,0.020512 -0.0155,0.031522 -0.0058,0.01101 -0.01225,0.022663 -0.01964,0.035139 -0.01478,0.024953 -0.03281,0.053915 -0.05581,0.089915 0.0335,-0.02275 0.0613,-0.041065 0.08785,-0.058393 0.02655,-0.017328 0.05138,-0.03368 0.07906,-0.053743 0.01384,-0.010031 0.0288,-0.021345 0.04444,-0.033589 0.01565,-0.012244 0.03218,-0.025864 0.05064,-0.04134 0.01846,-0.015477 0.03869,-0.032464 0.06098,-0.052192 0.02229,-0.019729 0.04677,-0.042178 0.0739,-0.067178 0.01247,-0.013438 0.02432,-0.027231 0.03617,-0.04134 0.01185,-0.014109 0.0234,-0.028141 0.03462,-0.042891 0.01122,-0.014749 0.02248,-0.030116 0.03307,-0.045474 0.01059,-0.015358 0.02054,-0.031089 0.03049,-0.047025 0.0099,-0.015935 0.01964,-0.032094 0.02894,-0.048575 0.0093,-0.016481 0.01823,-0.03313 0.02687,-0.050125 0.0086,-0.016996 0.01683,-0.034197 0.0248,-0.051675 0.008,-0.017478 0.01595,-0.035296 0.02325,-0.053226 0.0073,-0.01793 0.01405,-0.03591 0.02067,-0.054259 0.0066,-0.018349 0.01319,-0.037072 0.01912,-0.055809 0.0059,-0.018738 0.0113,-0.037748 0.01654,-0.056843 0.0052,-0.019095 0.0099,-0.03794 0.01447,-0.05736 0.0045,-0.01942 0.0091,-0.039196 0.01292,-0.05891 0.0038,-0.019714 0.0072,-0.039451 0.01033,-0.059427 0.0031,-0.019976 0.0059,-0.040253 0.0083,-0.06046 0.0024,-0.020207 0.004,-0.040571 0.0057,-0.060977 0.0016,-0.020406 0.0032,-0.04092 0.0041,-0.061494 8.99e-4,-0.020574 0.0014,-0.0413 0.0015,-0.062011 1.49e-4,-0.02071 -4.24e-4,-0.041195 -10e-4,-0.06201 -6.09e-4,-0.020815 -0.0012,-0.041639 -0.0026,-0.062527 -0.0014,-0.020889 -0.0035,-0.042114 -0.0057,-0.063044 -0.0021,-0.02093 -0.0043,-0.041586 -0.0072,-0.062527 -0.0029,-0.020941 -0.0066,-0.042124 -0.01033,-0.063044 -0.0037,-0.02092 -0.0074,-0.04166 -0.01188,-0.062527 -0.0045,-0.020867 -0.0097,-0.041744 -0.01499,-0.062527 -0.0053,-0.020783 -0.01093,-0.041343 -0.01705,-0.06201 -0.0061,-0.020667 -0.01269,-0.04149 -0.01964,-0.062011 -0.0069,-0.02052 -0.01445,-0.040635 -0.02222,-0.060977 -0.0078,-0.020342 -0.01568,-0.040845 -0.02429,-0.060977 -0.0086,-0.020132 -0.01794,-0.040053 -0.02739,-0.059943 -0.0094,-0.01989 -0.01916,-0.03981 -0.02946,-0.059427 -0.0103,-0.019617 -0.02088,-0.039081 -0.03204,-0.058393 -0.0165,-0.028625 -0.03402,-0.05651 -0.05168,-0.083714 -0.01765,-0.027204 -0.03552,-0.053809 -0.05426,-0.07958 -0.01874,-0.025771 -0.03811,-0.050604 -0.05788,-0.074929 -0.01976,-0.024326 -0.04026,-0.047928 -0.06098,-0.070795 -0.02072,-0.022867 -0.04144,-0.045265 -0.06304,-0.066661 -0.02161,-0.021396 -0.04372,-0.042098 -0.06615,-0.062011 -0.02243,-0.019912 -0.04554,-0.038944 -0.06873,-0.05736 -0.02319,-0.018415 -0.0464,-0.035803 -0.07028,-0.052709 -0.02388,-0.016906 -0.04836,-0.033191 -0.07286,-0.048575 -0.0245,-0.015384 -0.04936,-0.030074 -0.07441,-0.043924 -0.02505,-0.01385 -0.05042,-0.026971 -0.07596,-0.039273 -0.02554,-0.012302 -0.05103,-0.02388 -0.077,-0.034623 -0.02597,-0.010742 -0.05222,-0.020802 -0.07855,-0.029972 -0.02633,-0.00917 -0.05296,-0.01722 -0.07958,-0.024804 -0.02662,-0.00758 -0.05326,-0.014684 -0.0801,-0.02067 -0.02684,-0.00599 -0.05361,-0.011128 -0.080613,-0.015503 -0.0295,-0.00475 -0.058031,-0.00897 -0.085781,-0.012919 -0.02775,-0.00395 -0.054914,-0.00752 -0.082164,-0.010335 -0.02725,-0.00281 -0.054681,-0.00487 -0.082681,-0.0062 -0.028,-0.00133 -0.056298,-0.00205 -0.086298,-0.00155 z" /></g></svg>
