<?xml version="1.0" encoding="UTF-8"?>
<svg width="64" height="64" version="1.1" xmlns="http://www.w3.org/2000/svg">
 <defs>
  <linearGradient id="linearGradient1005" x1=".73911" x2="16.388" y1="16.296" y2=".64687" gradientTransform="matrix(3.7795 0 0 3.7795 -.13423 .025239)" gradientUnits="userSpaceOnUse">
   <stop stop-color="#00a0ff" offset="0"/>
   <stop stop-color="#37beff" offset="1"/>
  </linearGradient>
 </defs>
 <path d="m61.999 32c0 3.5964-0.63305 7.0444-1.7939 10.24-0.80694 2.2212-1.8685 4.3212-3.1518 6.2636-0.53754 0.8167-1.1155 1.6053-1.729 2.3633-1.964 2.4257-4.2982 4.5378-6.9182 6.2522-0.96489 0.63184-1.9678 1.2098-3.0061 1.7277-4.0321 2.0179-8.5835 3.1529-13.401 3.1529-4.8171 0-9.3685-1.1351-13.401-3.153-1.0384-0.518-2.0425-1.0959-3.0074-1.7277-2.6535-1.7376-5.0155-3.8832-6.9953-6.349-0.61464-0.76408-1.1914-1.56-1.729-2.384-1.249-1.9101-2.2836-3.9712-3.0746-6.1494-1.1607-3.1947-1.7926-6.6415-1.7926-10.237 0-16.569 13.431-30 30-30 8.317 0 15.843 3.3844 21.277 8.8503 1.566 1.5746 2.9584 3.3233 4.1432 5.2136 1.1204 1.7804 2.0571 3.6881 2.7856 5.6951 1.161 3.1959 1.794 6.6442 1.794 10.24z" fill="url(#linearGradient1005)" stroke-width=".11719"/>
 <g transform="matrix(.85714 0 0 .85714 4.5714 4.5714)" fill="none" stroke="#fff" stroke-linecap="round" stroke-width="4">
  <circle cx="32" cy="32" r="6"/>
  <path d="M 22.015,22.187 A 14,14 0 0 1 37.301,19.043 14,14 0 0 1 46,32 14,14 0 0 1 37.301,44.958 14,14 0 0 1 22.015,41.813"/>
  <path d="m10.852 38.065a22 22 0 0 1 0-12.128"/>
  <path d="m36.949 10.564a22 22 0 0 1 11.141 6.432"/>
  <path d="m48.09 47.004a22 22 0 0 1-11.141 6.432"/>
  <path d="m18.612 36.093a14 14 0 0 1-0.07-7.952"/>
 </g>
</svg>
