<?xml version="1.0" encoding="UTF-8" standalone="no"?>
<svg
   width="64"
   height="64"
   version="1.1"
   viewBox="0 0 16.933 16.933"
   id="svg8"
   sodipodi:docname="distributor-logo-opensuse.svg"
   xml:space="preserve"
   inkscape:version="1.2 (dc2aedaf03, 2022-05-15)"
   xmlns:inkscape="http://www.inkscape.org/namespaces/inkscape"
   xmlns:sodipodi="http://sodipodi.sourceforge.net/DTD/sodipodi-0.dtd"
   xmlns="http://www.w3.org/2000/svg"
   xmlns:svg="http://www.w3.org/2000/svg"><defs
     id="defs12" /><sodipodi:namedview
     id="namedview10"
     pagecolor="#ffffff"
     bordercolor="#999999"
     borderopacity="1"
     inkscape:showpageshadow="0"
     inkscape:pageopacity="0"
     inkscape:pagecheckerboard="0"
     inkscape:deskcolor="#d1d1d1"
     showgrid="false"
     inkscape:zoom="2.2262815"
     inkscape:cx="-1.796718"
     inkscape:cy="77.932642"
     inkscape:window-width="1920"
     inkscape:window-height="961"
     inkscape:window-x="0"
     inkscape:window-y="40"
     inkscape:window-maximized="1"
     inkscape:current-layer="svg8" /><path
     id="path327"
     style="fill:#6eb927;fill-opacity:1;stroke-width:1.78114"
     d="M 8.4675335 0.92602344 A 7.5404768 7.5404768 0 0 0 8.4675335 16.006977 A 7.5404768 7.5404768 0 0 0 8.4675335 0.92602344 z M 8.4675335 2.6018571 A 5.8653097 5.8653097 0 1 1 8.4675335 14.331143 A 5.8207811 5.8207811 0 0 1 4.4864595 12.759693 C 4.8248767 12.713384 5.3591841 12.706415 6.0573922 12.786565 C 7.0779873 12.90234 7.6373987 12.941854 8.30889 12.891983 C 9.8406725 12.776208 10.852107 12.52282 11.974227 11.974227 C 12.562005 11.689244 12.686689 11.559393 12.811369 11.215632 C 12.934268 10.889683 12.978896 10.586742 12.918337 10.586742 C 12.895187 10.586742 12.703179 10.661542 12.473412 10.77019 C 11.609558 11.179853 10.852516 11.381246 10.193492 11.347404 C 9.5113155 11.311784 8.4087813 10.91302 7.0800486 10.273589 L 6.4511588 9.9847237 L 5.9793623 8.8075577 L 6.4242876 9.0943563 A 13.225 13.225 0 0 0 9.1744532 10.430166 C 10.317947 10.791738 11.210469 10.74203 12.13132 10.273589 C 12.457269 10.107942 13.07543 9.7034764 13.07543 9.6446995 C 13.07543 9.5378306 12.757922 8.4761287 12.576246 7.9952202 C 12.123835 6.7947294 11.805354 6.3888165 11.059056 6.032588 C 10.229042 5.6371742 9.3097231 5.368073 7.6283248 4.9851273 C 6.8268096 4.8141376 6.0360139 4.6417271 5.2202504 4.540202 L 5.1933792 5.5339202 A 27.109023 27.109023 0 0 0 3.6493178 5.1153493 A 5.8777777 5.8777777 0 0 1 8.4675335 2.6039242 L 8.4675335 2.6018571 z M 9.8550184 6.8428585 A 1.2468013 1.2468013 0 0 1 11.08386 7.8117725 C 11.16401 8.1234722 11.139036 8.3462738 10.980509 8.6757854 A 1.2040539 1.2040539 0 0 1 9.6715707 9.3310297 A 1.2236465 1.2236465 0 0 1 8.7543321 8.62411 C 8.5370323 8.1521065 8.638208 7.5253781 9.0158097 7.1833994 A 1.2948922 1.2948922 0 0 1 9.8529514 6.8449255 L 9.8550184 6.8428585 z M 10.141817 7.4986195 C 9.7036558 7.4986195 9.4293349 7.8189089 9.6715707 8.0468956 C 9.8674965 8.2321344 10.194923 8.2605794 10.45497 8.1269925 C 10.62596 8.0397126 10.683233 7.9080637 10.640485 7.7352929 C 10.608425 7.60527 10.355554 7.4986185 10.141817 7.4986195 z " /></svg>
