<?xml version="1.0" encoding="UTF-8" standalone="no"?>
<svg
   width="64"
   height="64"
   version="1.1"
   id="svg12"
   sodipodi:docname="distributor-logo-void.svg"
   inkscape:version="1.2.1 (9c6d41e410, 2022-07-14)"
   xmlns:inkscape="http://www.inkscape.org/namespaces/inkscape"
   xmlns:sodipodi="http://sodipodi.sourceforge.net/DTD/sodipodi-0.dtd"
   xmlns="http://www.w3.org/2000/svg"
   xmlns:svg="http://www.w3.org/2000/svg">
  <defs
     id="defs16" />
  <sodipodi:namedview
     id="namedview14"
     pagecolor="#ffffff"
     bordercolor="#999999"
     borderopacity="1"
     inkscape:showpageshadow="0"
     inkscape:pageopacity="0"
     inkscape:pagecheckerboard="0"
     inkscape:deskcolor="#d1d1d1"
     showgrid="false"
     inkscape:zoom="16.046875"
     inkscape:cx="31.968841"
     inkscape:cy="31.968841"
     inkscape:window-width="3840"
     inkscape:window-height="2074"
     inkscape:window-x="1920"
     inkscape:window-y="0"
     inkscape:window-maximized="1"
     inkscape:current-layer="svg12" />
  <path
     d="M 32,2 A 30,30 0 0 0 2,32 30,30 0 0 0 32,62 30,30 0 0 0 62,32 30,30 0 0 0 32,2 Z"
     fill="#f2f2f2"
     stroke-width="1.07143"
     id="path2" />
  <g
     transform="matrix(0.90908889,0,0,0.90908889,2.9092464,2.9092464)"
     id="g10">
    <path
       d="m 32,10 a 22,22 0 0 0 -12.92,4.219 l 4.9414,4.9414 A 15.125,15.125 0 0 1 32.0002,16.875 15.125,15.125 0 0 1 47.1252,32 15.125,15.125 0 0 1 44.8317,39.9707 l 4.9441,4.9441 a 22,22 0 0 0 4.2244,-12.915 22,22 0 0 0 -22,-22 z"
       fill="#91cd91"
       id="path4" />
    <path
       d="M 14.224,19.085 A 22,22 0 0 0 9.9996,32 a 22,22 0 0 0 22,22 22,22 0 0 0 12.92,-4.219 L 39.9782,44.8396 A 15.125,15.125 0 0 1 31.9994,47.125 15.125,15.125 0 0 1 16.8744,32 15.125,15.125 0 0 1 19.1679,24.0293 Z"
       fill="#33855a"
       id="path6" />
    <circle
       cx="32"
       cy="32"
       r="8"
       fill="#91cd91"
       id="circle8" />
  </g>
</svg>
