<?xml version="1.0" encoding="UTF-8" standalone="no"?>
<svg
   width="64"
   height="64"
   version="1.1"
   viewBox="0 0 16.933 16.933"
   id="svg10"
   sodipodi:docname="distributor-logo-mageia.svg"
   xml:space="preserve"
   inkscape:version="1.2 (dc2aedaf03, 2022-05-15)"
   xmlns:inkscape="http://www.inkscape.org/namespaces/inkscape"
   xmlns:sodipodi="http://sodipodi.sourceforge.net/DTD/sodipodi-0.dtd"
   xmlns:xlink="http://www.w3.org/1999/xlink"
   xmlns="http://www.w3.org/2000/svg"
   xmlns:svg="http://www.w3.org/2000/svg"><defs
     id="defs14"><linearGradient
       inkscape:collect="always"
       id="linearGradient6397"><stop
         style="stop-color:#8ae5f7;stop-opacity:1"
         offset="0"
         id="stop6393" /><stop
         style="stop-color:#31a1d4;stop-opacity:1"
         offset="1"
         id="stop6395" /></linearGradient><linearGradient
       inkscape:collect="always"
       id="linearGradient1045"><stop
         style="stop-color:#435a84;stop-opacity:1"
         offset="0"
         id="stop1041" /><stop
         style="stop-color:#222940;stop-opacity:1"
         offset="1"
         id="stop1043" /></linearGradient><linearGradient
       inkscape:collect="always"
       xlink:href="#linearGradient1045"
       id="linearGradient1047"
       x1="8.467"
       y1="7.3919101"
       x2="8.467"
       y2="13.228"
       gradientUnits="userSpaceOnUse" /><linearGradient
       inkscape:collect="always"
       xlink:href="#linearGradient6397"
       id="linearGradient6399"
       x1="6.0143628"
       y1="3.7049999"
       x2="6.0143628"
       y2="7.2319999"
       gradientUnits="userSpaceOnUse" /><linearGradient
       inkscape:collect="always"
       xlink:href="#linearGradient1045"
       id="linearGradient11237"
       gradientUnits="userSpaceOnUse"
       x1="8.467"
       y1="7.3919101"
       x2="8.467"
       y2="13.228" /><linearGradient
       inkscape:collect="always"
       xlink:href="#linearGradient6397"
       id="linearGradient11239"
       gradientUnits="userSpaceOnUse"
       x1="6.0143628"
       y1="4.4120002"
       x2="6.0143628"
       y2="7.2319999" /></defs><sodipodi:namedview
     id="namedview12"
     pagecolor="#ffffff"
     bordercolor="#999999"
     borderopacity="1"
     inkscape:showpageshadow="0"
     inkscape:pageopacity="0"
     inkscape:pagecheckerboard="0"
     inkscape:deskcolor="#d1d1d1"
     showgrid="false"
     inkscape:zoom="6.296875"
     inkscape:cx="21.756824"
     inkscape:cy="25.647643"
     inkscape:window-width="1920"
     inkscape:window-height="961"
     inkscape:window-x="0"
     inkscape:window-y="40"
     inkscape:window-maximized="1"
     inkscape:current-layer="svg10" /><g
     id="g11235"
     transform="translate(16.569212,30.058036)"><g
       fill="#f9f9f9"
       stroke-width="0.75"
       id="g8"
       transform="matrix(1.5558516,0,0,1.5558516,-21.275319,-34.764154)"
       style="fill:url(#linearGradient1047);fill-opacity:1"><path
         d="M 6.767,7.392 C 6.6591418,7.3916115 6.554503,7.42873 6.471,7.497 5.7213509,8.1132223 5.2881504,9.03359 5.291,10.004 c 0,1.778 1.426,3.224 3.176,3.224 1.75,0 3.175,-1.446 3.175,-3.224 0,-0.978 -0.43,-1.892 -1.18,-2.507 -0.172084,-0.1401198 -0.418916,-0.1401198 -0.591,0 C 9.4768051,7.8250692 8.9798525,8.0041703 8.467,8.003 7.952,8.003 7.467,7.829 7.064,7.497 6.980026,7.4288772 6.8751309,7.3917931 6.767,7.392 Z M 6.97,8.559 c 0.43,0.282 0.956,0.436 1.497,0.436 0.541,0 1.069,-0.154 1.497,-0.436 1.332051,1.3334094 0.387538,3.611368 -1.497,3.611368 -1.8845379,0 -2.8290515,-2.2779586 -1.497,-3.611368 z"
         id="path6"
         sodipodi:nodetypes="cccssccccccscsc"
         style="fill:url(#linearGradient11237);fill-opacity:1" /></g><g
       fill="#f9f9f9"
       stroke-width="0.75"
       id="g370"
       transform="matrix(1.5558516,0,0,1.5558516,-18.016795,-34.764154)"
       style="fill:url(#linearGradient6399);fill-opacity:1"><path
         d="m 6.0133626,3.705 c -0.471333,6.667e-4 -0.470333,0.7076667 0.001,0.707 0.471333,0 0.471333,-0.707 0,-0.707 z m 1.094,0.705 c -0.471333,0 -0.471333,0.707 0,0.707 0.471333,0 0.471333,-0.707 0,-0.707 z m -0.918,0.353 c -0.663277,0.040802 -0.663277,1.0171975 0,1.058 0.663277,-0.040802 0.663277,-1.0171975 0,-1.058 z m 1.06,1.058 c -0.675978,0.029383 -0.675978,1.0296166 0,1.059 0.675978,-0.029383 0.675978,-1.0296166 0,-1.059 z m -1.764,0.353 c -0.663277,0.040802 -0.663277,1.0171975 0,1.058 0.663277,-0.040802 0.663277,-1.0171975 0,-1.058 z"
         id="path368"
         sodipodi:nodetypes="scsssssccccccccc"
         style="fill:url(#linearGradient11239);fill-opacity:1" /></g></g></svg>
