<?xml version="1.0" encoding="UTF-8" standalone="no"?>
<svg
   width="64"
   height="64"
   version="1.1"
   viewBox="0 0 16.933 16.933"
   id="svg10"
   sodipodi:docname="easystroke.svg"
   xml:space="preserve"
   inkscape:version="1.2.1 (9c6d41e410, 2022-07-14)"
   xmlns:inkscape="http://www.inkscape.org/namespaces/inkscape"
   xmlns:sodipodi="http://sodipodi.sourceforge.net/DTD/sodipodi-0.dtd"
   xmlns:xlink="http://www.w3.org/1999/xlink"
   xmlns="http://www.w3.org/2000/svg"
   xmlns:svg="http://www.w3.org/2000/svg"><defs
     id="defs14"><linearGradient
       inkscape:collect="always"
       id="linearGradient18092"><stop
         style="stop-color:#0ceb29;stop-opacity:0.98039216"
         offset="0"
         id="stop18088" /><stop
         style="stop-color:#01bf41;stop-opacity:0.9254902"
         offset="1"
         id="stop18090" /></linearGradient><linearGradient
       inkscape:collect="always"
       id="linearGradient13944"><stop
         style="stop-color:#009953;stop-opacity:0.93725491"
         offset="0"
         id="stop13940" /><stop
         style="stop-color:#01c040;stop-opacity:0.9254902"
         offset="1"
         id="stop13942" /></linearGradient><linearGradient
       inkscape:collect="always"
       id="linearGradient8891"><stop
         style="stop-color:#006c82;stop-opacity:0.98431373"
         offset="0"
         id="stop8887" /><stop
         style="stop-color:#009952;stop-opacity:0.93725491"
         offset="1"
         id="stop8889" /></linearGradient><linearGradient
       inkscape:collect="always"
       id="linearGradient4944"><stop
         style="stop-color:#006e80;stop-opacity:0.98431373"
         offset="0"
         id="stop4940" /><stop
         style="stop-color:#0045a0;stop-opacity:0.96470588"
         offset="1"
         id="stop4942" /></linearGradient><linearGradient
       inkscape:collect="always"
       id="linearGradient1109"><stop
         style="stop-color:#011bcc;stop-opacity:0.96078432"
         offset="0"
         id="stop1105" /><stop
         style="stop-color:#004d98;stop-opacity:0.96470588"
         offset="1"
         id="stop1107" /></linearGradient><linearGradient
       inkscape:collect="always"
       xlink:href="#linearGradient1109"
       id="linearGradient1103"
       x1="36.187775"
       y1="6.1721115"
       x2="41.392525"
       y2="14.977602"
       gradientUnits="userSpaceOnUse" /><linearGradient
       inkscape:collect="always"
       xlink:href="#linearGradient4944"
       id="linearGradient4938"
       x1="46.398323"
       y1="7.8184905"
       x2="41.395626"
       y2="13.177231"
       gradientUnits="userSpaceOnUse" /><linearGradient
       inkscape:collect="always"
       xlink:href="#linearGradient8891"
       id="linearGradient8893"
       x1="46.595722"
       y1="6.1679773"
       x2="36.183083"
       y2="6.1679773"
       gradientUnits="userSpaceOnUse" /><linearGradient
       inkscape:collect="always"
       xlink:href="#linearGradient13944"
       id="linearGradient13938"
       x1="36.39241"
       y1="7.8184905"
       x2="50.152023"
       y2="13.183949"
       gradientUnits="userSpaceOnUse" /><linearGradient
       inkscape:collect="always"
       xlink:href="#linearGradient18092"
       id="linearGradient17948"
       x1="36.187775"
       y1="6.1721115"
       x2="50.152023"
       y2="13.183949"
       gradientUnits="userSpaceOnUse" /></defs><sodipodi:namedview
     id="namedview12"
     pagecolor="#ffffff"
     bordercolor="#999999"
     borderopacity="1"
     inkscape:showpageshadow="0"
     inkscape:pageopacity="0"
     inkscape:pagecheckerboard="0"
     inkscape:deskcolor="#d1d1d1"
     showgrid="false"
     inkscape:zoom="1.84375"
     inkscape:cx="-1.0847458"
     inkscape:cy="79.728814"
     inkscape:window-width="1920"
     inkscape:window-height="936"
     inkscape:window-x="0"
     inkscape:window-y="40"
     inkscape:window-maximized="1"
     inkscape:current-layer="svg10" /><g
     id="g21692"
     transform="matrix(0.87919589,0,0,0.87919589,-27.925958,1.5275045)"><path
       id="path965"
       d="m 36.185193,6.1695278 5.16e-4,5.168e-4 0.203085,1.6463787 -10e-4,0.0031 c 10e-4,-6.777e-4 0.0021,-0.00139 0.0031,-0.00207 2.53e-4,0.00123 7.8e-4,0.00239 10e-4,0.00362 l 5.17e-4,-0.00258 -0.205151,-1.6505128 -5.17e-4,-5.167e-4 c 1e-5,3.444e-4 -1e-5,6.891e-4 0,0.00103 -5.5e-4,2.875e-4 -10e-4,7.459e-4 -0.0016,0.00103 z"
       style="fill:#000000;fill-opacity:1" /><path
       id="path963"
       d="m 45.021689,7.094001 1.375082,0.7265563 5.17e-4,0.00103 c 1.75e-4,-8.633e-4 3.42e-4,-0.00172 5.17e-4,-0.00258 3.21e-4,2.086e-4 7.12e-4,3.082e-4 0.001,5.168e-4 l -5.16e-4,-0.00103 -1.376633,-0.7286234 -0.0021,5.168e-4 c 8.65e-4,3.284e-4 0.0017,7.049e-4 0.0026,0.00103 -1.33e-4,8.694e-4 -3.82e-4,0.00171 -5.16e-4,0.00258 z"
       style="fill:#000000;fill-opacity:1" /><path
       id="path975"
       d="m 41.392524,14.977602 -1.361647,-1.002503 c -1.009335,0.475666 -2.058417,0.754058 -3.004925,0.671781 -1.240514,-0.107891 -2.237765,-0.650016 -2.771353,-1.548713 -0.533563,-0.898736 -0.51448,-1.985118 0.0041,-3.072103 C 34.65974,9.1855807 35.44153,8.4335859 36.38776,7.8195238 l 10e-4,-0.0031 -0.203085,-1.6463787 -5.16e-4,-5.168e-4 c -1.483348,0.7764396 -2.658063,1.8965441 -3.283973,3.2085265 -0.688372,1.4428162 -0.761306,3.1070012 0.05891,4.4885262 0.820191,1.381499 2.319393,2.138865 3.935083,2.279402 1.474355,0.128236 3.059915,-0.300781 4.497311,-1.16838 z"
       style="fill:url(#linearGradient1103);fill-opacity:1;stroke-width:1.00011;stroke-dasharray:none" /><path
       id="path980"
       d="m 41.395625,13.177231 1.365264,0.800969 c 1.869195,-1.596486 3.139126,-3.700708 3.636399,-6.1566092 l -5.17e-4,-0.00103 -1.375082,-0.7265563 c -0.384803,2.4980696 -1.653145,4.5687305 -3.626064,6.0832305 z"
       style="fill:url(#linearGradient4938);fill-opacity:1" /><path
       id="path985"
       d="m 46.595722,6.1659105 -1.538894,-0.6387081 -0.0016,-0.00155 c 1e-4,0.00121 4.17e-4,0.0024 5.16e-4,0.00362 -0.0016,-5.11e-4 -0.0031,-0.00104 -0.0046,-0.00155 l 0.0036,0.00362 1.540961,0.6366411 0.0015,-5.167e-4 c -4.76e-4,-2.491e-4 -0.0011,-2.677e-4 -0.0015,-5.168e-4 8e-6,-3.443e-4 -9e-6,-6.891e-4 0,-0.00103 z"
       style="fill:#000000;fill-opacity:1" /><path
       id="path998"
       d="m 36.391894,7.8200406 v 0.00103 c 7.6e-5,3.65e-4 4.42e-4,6.685e-4 5.17e-4,0.00103 l 1.373016,-0.7281066 0.0015,0.00103 c -1.91e-4,-0.0012 -3.26e-4,-0.00242 -5.17e-4,-0.00362 3.59e-4,-1.363e-4 6.75e-4,-3.805e-4 10e-4,-5.167e-4 l -0.0021,-0.00103 z"
       style="fill:#000000;fill-opacity:1" /><path
       id="path1018"
       d="m 50.152024,13.183949 -1.419007,-0.499185 c -0.0551,0.141511 -0.122088,0.279568 -0.201534,0.413403 -0.533717,0.89874 -1.53076,1.440824 -2.771353,1.548713 -0.944732,0.08215 -1.99181,-0.195113 -2.999241,-0.66868 L 41.395625,13.177231 C 39.432438,11.657297 38.148367,9.4966348 37.766977,7.0950345 l -0.0015,-0.00103 -1.373016,0.7281066 v 5.167e-4 c 0.495311,2.3940992 1.763771,4.5381982 3.638466,6.1524752 l 1.361647,1.002502 c 1.437245,0.867573 3.021999,1.296575 4.496278,1.168381 1.615844,-0.14051 3.116214,-0.897957 3.936633,-2.279402 0.131289,-0.221076 0.239923,-0.449147 0.326589,-0.682632 z"
       style="fill:url(#linearGradient13938);fill-opacity:1" /><path
       id="path1034"
       d="m 41.38994,4.9396529 c -1.234258,1.249e-4 -2.468323,0.1965398 -3.660686,0.5890998 l -0.0026,0.00258 -1.538894,0.6407752 0.204635,1.6463787 -5.17e-4,0.00155 1.373533,-0.7301737 0.0021,0.00103 c 1.169015,-0.4434694 2.391133,-0.7095248 3.625547,-0.7095035 1.234795,7.7e-6 2.457409,0.2652465 3.626581,0.7089867 l 0.0021,-5.168e-4 1.376633,0.7286234 5.16e-4,0.00103 c 0.94577,0.6142095 1.72698,1.3666159 2.127994,2.2070573 0.441357,0.924995 0.521139,1.849242 0.206185,2.658183 l 1.419007,0.499185 C 50.606928,11.958393 50.462587,10.590084 49.884345,9.3780543 49.257869,8.0650553 48.082226,6.9439222 46.597272,6.1674608 l -0.0015,5.167e-4 -1.540961,-0.6366411 -0.0036,-0.00362 C 43.858666,5.1356932 42.624199,4.939528 41.38994,4.9396529 Z"
       style="fill:url(#linearGradient17948);fill-opacity:1" /><path
       id="path1009"
       d="m 37.72512,5.5287527 -5.17e-4,5.167e-4 -1.537343,0.6387081 v 0.00155 l 5.16e-4,0.00258 1.538894,-0.6407752 0.0026,-0.00258 c -0.0014,4.594e-4 -0.0027,0.00109 -0.0041,0.00155 3.7e-5,-5.154e-4 -3.7e-5,-0.00103 0,-0.00155 z"
       style="fill:#000000;fill-opacity:1" /><path
       id="path1007"
       d="m 41.392524,-0.38343158 c -1.622779,2.0883e-4 -3.051265,0.88063039 -3.990375,2.17966898 -0.851678,1.1779669 -1.262677,2.7288411 -1.215406,4.3712234 l 5.17e-4,5.167e-4 1.537343,-0.6387081 5.17e-4,-5.167e-4 c 0.07842,-1.083223 0.352946,-2.0989622 0.896568,-2.8509327 0.71015,-0.9822466 1.686718,-1.5564635 2.771353,-1.5564635 v 5.168e-4 c 1.072073,-1.52e-5 2.048774,0.5989619 2.762051,1.6019378 0.540629,0.760251 0.814307,1.7606762 0.900186,2.801841 l 0.0016,0.00155 1.538894,0.6387081 C 46.635697,4.5735884 46.22582,3.0372617 45.381866,1.8504966 44.449004,0.53872648 43.028121,-0.38345016 41.393041,-0.38343158 Z"
       style="fill:url(#linearGradient8893);fill-opacity:1" /></g><path
     d="m 61.708081,-0.38321671 c -1.623009,2.175e-5 -3.051605,0.88037802 -3.990823,2.17956531 -0.851864,1.1782235 -1.262655,2.7293616 -1.215182,4.3721396 -1.48413,0.7764755 -2.659411,1.8971602 -3.285556,3.2096338 -0.688376,1.442821 -0.76144,3.10684 0.05878,4.488369 0.820195,1.381507 2.319253,2.138832 3.934947,2.279373 1.474363,0.128236 3.060348,-0.300767 4.497752,-1.168371 1.437255,0.867583 3.021961,1.296565 4.49626,1.168371 1.615864,-0.14052 3.116011,-0.897908 3.93644,-2.279373 0.820429,-1.381507 0.747194,-3.04542 0.05878,-4.488369 C 69.572792,8.0646887 68.396574,6.9434922 66.910929,6.1669954 66.951108,4.5742919 66.54132,3.0375491 65.697176,1.8505178 64.764207,0.53859864 63.34316,-0.38342998 61.707846,-0.38321671 Z m 0,1.50490241 c 1.072081,-1.52e-5 2.049132,0.5988899 2.762417,1.6018738 0.541266,0.7611417 0.815226,1.7630167 0.900767,2.8054972 -2.387712,-0.7860511 -4.943263,-0.7855179 -7.330761,0.0015 0.07827,-1.0838113 0.352441,-2.1002948 0.89633,-2.8526287 0.71015,-0.9822546 1.686732,-1.5563632 2.771375,-1.5563632 z m 0,5.2599606 c 1.235719,7.7e-6 2.459368,0.2654932 3.629338,0.7098303 -0.384324,2.499249 -1.65295,4.5706894 -3.626566,6.0857214 C 59.746664,11.656493 58.462192,9.4945432 58.081514,7.0914766 59.250866,6.647758 60.473278,6.381625 61.708081,6.3816463 Z m -5.001911,1.435826 c 0.49454,2.3962417 1.763699,4.5423247 3.639789,6.1578047 -1.009339,0.475666 -2.058388,0.753912 -3.0049,0.671635 -1.240518,-0.107891 -2.237786,-0.650287 -2.771374,-1.548984 -0.533567,-0.89874 -0.514118,-1.984663 0.0045,-3.071652 0.40145,-0.8414144 1.184472,-1.5943455 2.132114,-2.2087824 z m 10.006807,0.0015 c 0.946213,0.6143303 1.728041,1.3667709 2.129192,2.2075037 0.518574,1.086818 0.538109,2.172741 0.0045,3.07165 -0.533717,0.89874 -1.530772,1.441094 -2.771375,1.548983 -0.944742,0.08215 -1.991701,-0.195114 -2.999142,-0.668691 1.869862,-1.597053 3.139896,-3.702274 3.636803,-6.1592964 z"
     fill="#ffffff"
     stroke-width="0.564256"
     id="path961" /></svg>
