<?xml version="1.0" encoding="UTF-8" standalone="no"?>
<svg
   width="64"
   height="64"
   version="1"
   id="svg14"
   sodipodi:docname="eclipse.svg"
   xml:space="preserve"
   inkscape:version="1.2.1 (9c6d41e410, 2022-07-14, custom)"
   xmlns:inkscape="http://www.inkscape.org/namespaces/inkscape"
   xmlns:sodipodi="http://sodipodi.sourceforge.net/DTD/sodipodi-0.dtd"
   xmlns="http://www.w3.org/2000/svg"
   xmlns:svg="http://www.w3.org/2000/svg"><defs
     id="defs18" /><sodipodi:namedview
     id="namedview16"
     pagecolor="#ffffff"
     bordercolor="#999999"
     borderopacity="1"
     inkscape:showpageshadow="0"
     inkscape:pageopacity="0"
     inkscape:pagecheckerboard="0"
     inkscape:deskcolor="#d1d1d1"
     showgrid="false"
     inkscape:zoom="3.1015625"
     inkscape:cx="46.428212"
     inkscape:cy="24.987406"
     inkscape:window-width="1920"
     inkscape:window-height="949"
     inkscape:window-x="0"
     inkscape:window-y="40"
     inkscape:window-maximized="1"
     inkscape:current-layer="svg14" /><path
     id="rect2"
     style="fill:#f7941e;fill-opacity:1"
     d="M -6.2226562 -25.617188 C -7.8718169 -12.823834 -18.743555 -3 -32 -3 C -45.254311 -3 -56.123612 -12.820979 -57.775391 -25.611328 A 27.5 27.5 0 0 0 -32 -7.5 A 27.5 27.5 0 0 0 -6.2226562 -25.617188 z "
     transform="matrix(0,-1,-1,0,0,0)" /><path
     d="M 34.999895,6.0000475 A 25.938291,25.938291 0 0 0 10.369304,23.642438 H 59.629523 A 25.938291,25.938291 0 0 0 34.998932,6.0000475 Z M 10.365452,23.657845 M 9.4201719,27.357248 A 26.182882,26.182882 0 0 0 9.0738145,30.142995 H 60.92921 a 26.182882,26.182882 0 0 0 -0.346357,-2.785747 z m 51.1620651,0 M 9.0744693,30.162447 m -0.074292,1.837617 M 60.927795,30.162447 m 0.07243,1.837617 M 9.0726108,33.857228 c 0.065934,0.944356 0.1829239,1.872958 0.3463574,2.785747 H 60.581996 c 0.163424,-0.91278 0.280433,-1.841372 0.346357,-2.785747 z m 51.5077672,2.785747 m -51.1601386,0 m 0.9508556,3.714233 A 25.938291,25.938291 0 0 0 35.000723,57.999599 25.938291,25.938291 0 0 0 59.631314,40.357208 Z"
     id="path4"
     style="fill:#2c2255;fill-opacity:1;stroke-width:0.838709" /><path
     d="m 18.245354,39.428626 a 18.199944,18.199944 0 0 0 16.754541,11.14241 18.199944,18.199944 0 0 0 16.746837,-11.14241 z"
     id="path6"
     style="fill:#42347f;fill-opacity:1;stroke-width:0.838709" /><path
     d="M 10.369304,23.642823 A 25.884365,25.884365 0 0 0 9.4184482,27.357056 H 60.581476 A 25.884365,25.884365 0 0 0 59.63062,23.642823 Z m -1.2972036,6.49998 a 26.546881,26.546881 0 0 0 -0.072434,1.857164 c 0,0.624923 0.029717,1.243374 0.072434,1.857165 H 60.927496 c 0.04272,-0.613781 0.07243,-1.232204 0.07243,-1.857165 0,-0.624922 -0.02972,-1.243373 -0.07243,-1.857164 z m 0.3463575,6.49998 a 25.884365,25.884365 0 0 0 0.9508551,3.714233 h 49.260219 a 25.884365,25.884365 0 0 0 0.950856,-3.714233 z"
     fill="#ffffff"
     id="path8"
     style="stroke-width:0.838709" /></svg>
