<?xml version="1.0" encoding="UTF-8" standalone="no"?>
<svg
   width="64"
   height="64"
   version="1.1"
   viewBox="0 0 16.933 16.933"
   id="svg6"
   sodipodi:docname="element-desktop.svg"
   inkscape:version="1.2.1 (9c6d41e410, 2022-07-14, custom)"
   xmlns:inkscape="http://www.inkscape.org/namespaces/inkscape"
   xmlns:sodipodi="http://sodipodi.sourceforge.net/DTD/sodipodi-0.dtd"
   xmlns:xlink="http://www.w3.org/1999/xlink"
   xmlns="http://www.w3.org/2000/svg"
   xmlns:svg="http://www.w3.org/2000/svg">
  <defs
     id="defs10">
    <linearGradient
       inkscape:collect="always"
       id="linearGradient1109">
      <stop
         style="stop-color:#ffffff;stop-opacity:1;"
         offset="0"
         id="stop1105" />
      <stop
         style="stop-color:#acf8af;stop-opacity:1"
         offset="1"
         id="stop1107" />
    </linearGradient>
    <linearGradient
       id="c"
       x1="24.535"
       x2="24.535"
       y1="7.0931001"
       y2="44.483002"
       gradientTransform="matrix(0.38005,0,0,0.38005,-0.6865,-1.2474)"
       gradientUnits="userSpaceOnUse">
      <stop
         stop-color="#76dd38"
         offset="0"
         id="stop239" />
      <stop
         stop-color="#42c440"
         offset=".48433"
         id="stop241" />
      <stop
         stop-color="#14ab4b"
         offset="1"
         id="stop243" />
    </linearGradient>
    <linearGradient
       id="linearGradient1433"
       x1="8.3684998"
       x2="8.3684998"
       y1="5.9541001"
       y2="11.175"
       gradientTransform="translate(-16.617705,-1.7002e-4)"
       gradientUnits="userSpaceOnUse">
      <stop
         stop-color="#fff"
         offset="0"
         id="stop246" />
      <stop
         stop-color="#aaf8ad"
         offset="1"
         id="stop248" />
    </linearGradient>
    <linearGradient
       inkscape:collect="always"
       xlink:href="#linearGradient1109"
       id="linearGradient1111"
       x1="7.619875"
       y1="3.1749001"
       x2="7.619875"
       y2="13.75805"
       gradientUnits="userSpaceOnUse" />
  </defs>
  <sodipodi:namedview
     id="namedview8"
     pagecolor="#ffffff"
     bordercolor="#999999"
     borderopacity="1"
     inkscape:showpageshadow="0"
     inkscape:pageopacity="0"
     inkscape:pagecheckerboard="0"
     inkscape:deskcolor="#d1d1d1"
     showgrid="false"
     inkscape:zoom="6.203125"
     inkscape:cx="12.493703"
     inkscape:cy="41.188917"
     inkscape:window-width="1920"
     inkscape:window-height="949"
     inkscape:window-x="0"
     inkscape:window-y="40"
     inkscape:window-maximized="1"
     inkscape:current-layer="svg6" />
  <circle
     cx="8.4664993"
     cy="8.4665003"
     r="7.9375"
     color="#000000"
     fill="url(#c)"
     overflow="visible"
     stroke-width="0.26458"
     style="isolation:auto;mix-blend-mode:normal;fill:url(#c)"
     id="circle255" />
  <path
     d="m 7.619875,3.1749 c -0.35069,0 -0.63475,0.28405 -0.63475,0.63475 0,0.3507 0.28406,0.63561 0.63475,0.63561 1.6366,0 2.9636,1.3262 2.9636,2.9627 0,0.3507 0.28405,0.63475 0.63475,0.63475 0.3507,0 0.63475,-0.28405 0.63475,-0.63475 0,-2.338 -1.8951,-4.2331 -4.2331,-4.2331 z M 7.408005,5.08 c -2.338,4.5e-6 -4.2331,1.8951 -4.2331,4.2331 0,0.3507 0.28405,0.63475 0.63475,0.63475 0.35069,0 0.63561,-0.28405 0.63561,-0.63475 0,-1.6366 1.3262,-2.9636 2.9627,-2.9636 0.3507,0 0.63475,-0.28405 0.63475,-0.63475 0,-0.35069 -0.28405,-0.63475 -0.63475,-0.63475 z m 5.7153,1.9051 c -0.3507,0 -0.63561,0.28406 -0.63561,0.63475 0,1.6366 -1.3261,2.9636 -2.9627,2.9636 -0.3507,0 -0.63475,0.28405 -0.63475,0.63475 0,0.3507 0.28405,0.63475 0.63475,0.63475 2.3379,0 4.2331,-1.8951 4.2331,-4.2331 0,-0.35069 -0.28405,-0.63475 -0.63475,-0.63475 z m -7.4085,1.9051 c -0.35069,0 -0.63475,0.28405 -0.63475,0.63475 0,2.3379 1.8951,4.2331 4.2331,4.2331 0.3507,0 0.63475,-0.28405 0.63475,-0.63475 0,-0.3507 -0.28405,-0.63561 -0.63475,-0.63561 -1.6366,0 -2.9636,-1.3261 -2.9636,-2.9627 0,-0.3507 -0.28405,-0.63475 -0.63475,-0.63475 z"
     stroke-width="0.26458"
     id="path526"
     style="fill-opacity:1;fill:url(#linearGradient1111)" />
</svg>
