<?xml version="1.0" encoding="UTF-8"?>
<svg width="64" height="64" version="1.1" viewBox="0 0 64 64" xmlns="http://www.w3.org/2000/svg" xmlns:xlink="http://www.w3.org/1999/xlink">
 <defs>
  <linearGradient id="a" x1="24" x2="24" y1="1048.4" y2="1008.4" gradientTransform="translate(73.005 -988.36)" gradientUnits="userSpaceOnUse">
   <stop stop-color="#6e3a84" offset="0"/>
   <stop stop-color="#a75ec4" offset="1"/>
  </linearGradient>
  <linearGradient id="e" x1="396.33" x2="396.33" y1="137.89" y2="463.07" gradientTransform="matrix(.2 0 0 .2 -48.001 -28.001)" gradientUnits="userSpaceOnUse">
   <stop stop-color="#5a1aa9" offset="0"/>
   <stop stop-color="#c063d5" offset="1"/>
  </linearGradient>
 </defs>
 <circle cx="97.005" cy="40.04" r="0" fill="url(#a)"/>
 <path class="shp1" d="m32 62c16.568 0 30-13.432 30-30s-13.432-30-30-30-30 13.432-30 30 13.432 30 30 30z" fill="url(#e)" stroke-width="3.1366"/>
 <path d="m20.608 44.167c-2.3301-1.3674-3.462-2.1895-4.7082-3.4204-1.4995-1.4807-2.1769-2.6168-2.3725-3.9791-0.26905-1.8735 1.0325-3.8031 3.3163-4.9158 4.4762-2.1813 10.54-2.6581 16.357-1.2863 1.2315 0.2906 1.1916 0.1989-0.29753-0.6801-1.96-1.1577-4.9903-3.5498-6.7512-5.3294-2.0888-2.111-3.384-4.3423-3.384-5.7572 0-0.9338 0.4607-1.9237 1.5449-2.5204 2.5368-1.3962 11.441 0.9537 17.403 1.2873 1.888 0.097 3.1514 0.1134 3.1458-0.9801-5e-3 -0.9361-2.5077-1.4493-3.7186-1.362 1.0634-0.3573 2.0827-0.5431 3.4453-0.5721 2.7247-0.058 3.2746 0.2921 3.83 0.5519 1.1188 0.5232 2.1353 1.7258 2.0887 3.2562-0.1503 4.9323-6.0343 2.7378-9.9507 2.0294-4.3206-0.7815-8.0294-1.4218-9.2843 0.053-2.9624 3.482 7.4004 10.313 10.601 12.741-2.6715 0.2035-16.945-1.2767-18.911 3.7211-0.69425 2.2689 3.1206 4.6914 6.6813 5.9195 2.8974 0.9543 6.4201 2.036 10.795 2.3228 3.9639 0.2599 5.9938-0.3061 5.6209-3.3114 3.1493 1.6286 2.9442 4.8719 0.89839 6.3014-3.3135 2.3152-13.237 0.3392-13.836 0.2152-4.8302-1.0005-9.3634-2.4534-12.514-4.2847z" fill="#fff"/>
</svg>
