<?xml version="1.0" encoding="UTF-8"?>
<svg width="64" height="64" version="1.1" viewBox="0 0 64 64" xmlns="http://www.w3.org/2000/svg">
 <g transform="matrix(1.1739 0 0 1.1739 -56.05 5)"></g>
 <path d="m3.5307 3.5c6.9957 7.364 3.9571 12.084 7.7673 20.768 3.5625 8.0677 11.321 2.0301 16.64 7.7235-5.3185 5.7044-13.103-0.35954-16.666 7.6994-3.8365 8.6837-0.77827 13.428-7.7673 20.801 7.3727-6.9957 12.117-3.9396 20.801-7.7673 8.0677-3.5713 2.0301-11.33 7.7235-16.64 5.6518 5.3098-0.35077 13.103 7.6994 16.666 8.6837 3.8453 13.393 0.74538 20.768 7.7498-6.9957-7.3727-3.9045-12.093-7.7498-20.776-3.5625-8.0414-11.33-2.063-16.64-7.7169 5.3098-5.6605 13.077 0.32446 16.64-7.7235 3.8453-8.6837 0.74538-13.402 7.7498-20.776-7.3727 7.0044-12.084 3.9133-20.768 7.7586-8.0502 3.5537-2.0476 11.347-7.6994 16.657-5.7044-5.3098 0.33323-13.068-7.7235-16.64-8.6837-3.8365-13.428-0.77169-20.801-7.7673" fill="#1e3d4d" fill-rule="evenodd" stroke-width="2.1923"/>
</svg>
