<?xml version="1.0" encoding="UTF-8"?>
<svg width="64" height="64" version="1.1" viewBox="0 0 16.933 16.933" xmlns="http://www.w3.org/2000/svg" xmlns:cc="http://creativecommons.org/ns#" xmlns:dc="http://purl.org/dc/elements/1.1/" xmlns:rdf="http://www.w3.org/1999/02/22-rdf-syntax-ns#">
 <metadata>
  <rdf:RDF>
   <cc:Work rdf:about="">
    <dc:format>image/svg+xml</dc:format>
    <dc:type rdf:resource="http://purl.org/dc/dcmitype/StillImage"/>
    <dc:title/>
   </cc:Work>
  </rdf:RDF>
 </metadata>
 <defs>
  <linearGradient id="t" x1="432.94" x2="413.16" y1="79.211" y2="557.18" gradientTransform="matrix(.22336 0 0 .3134 -36.305 -62.244)" gradientUnits="userSpaceOnUse">
   <stop stop-color="#BFF3FF" stop-opacity=".8" offset="0"/>
   <stop stop-color="#0DF" stop-opacity="0" offset="1"/>
  </linearGradient>
  <linearGradient id="s" x1="168.62" x2="168.62" y1="28.256" y2="355.7" gradientTransform="matrix(.2103 0 0 .33287 -36.305 -62.244)" gradientUnits="userSpaceOnUse">
   <stop stop-color="#BFF3FF" offset="0"/>
   <stop stop-color="#0DF" stop-opacity="0" offset="1"/>
  </linearGradient>
  <linearGradient id="r" x1="124.61" x2="114.52" y1="182.33" y2="460.85" gradientTransform="matrix(.21168 0 0 .3307 -36.305 -62.244)" gradientUnits="userSpaceOnUse">
   <stop stop-color="#0DF" stop-opacity=".4" offset="0"/>
   <stop stop-color="#0DF" stop-opacity="0" offset="1"/>
  </linearGradient>
  <linearGradient id="q" x1="189.17" x2="135.66" y1="80.425" y2="167.3" gradientTransform="matrix(.25918 0 0 .27009 -36.305 -62.244)" gradientUnits="userSpaceOnUse">
   <stop stop-color="#BFF3FF" stop-opacity=".8" offset="0"/>
   <stop stop-color="#80EBFF" stop-opacity=".2" offset="1"/>
  </linearGradient>
  <linearGradient id="p" x1="154.6" x2="167.84" y1="205.39" y2="412.29" gradientTransform="matrix(.28127 0 0 .24887 -36.305 -62.244)" gradientUnits="userSpaceOnUse">
   <stop stop-color="#BFF3FF" stop-opacity=".8" offset="0"/>
   <stop stop-color="#80EBFF" stop-opacity=".2" offset="1"/>
  </linearGradient>
  <linearGradient id="o" x1="370.8" x2="360.77" y1="156.69" y2="397.39" gradientTransform="matrix(.23573 0 0 .29696 -36.305 -62.244)" gradientUnits="userSpaceOnUse">
   <stop stop-color="#BFF3FF" offset="0"/>
   <stop stop-color="#0DF" stop-opacity="0" offset="1"/>
  </linearGradient>
  <linearGradient id="n" x1="357.81" x2="352.8" y1="-3.9548" y2="143.3" gradientTransform="matrix(.21577 0 0 .32443 -36.305 -62.244)" gradientUnits="userSpaceOnUse">
   <stop stop-color="#BFF3FF" offset="0"/>
   <stop stop-color="#AAF2FF" stop-opacity=".5" offset="1"/>
  </linearGradient>
  <linearGradient id="a" x1="601.39" x2="593.69" y1="-5.1167" y2="356.45" gradientTransform="matrix(.17012 0 0 .41149 -36.305 -62.244)" gradientUnits="userSpaceOnUse">
   <stop stop-color="#BFF3FF" offset="0"/>
   <stop stop-color="#0DF" stop-opacity="0" offset="1"/>
  </linearGradient>
  <linearGradient id="m" x1="207.43" x2="163.5" y1="205.17" y2="375.54" gradientTransform="matrix(.27261 0 0 .25679 -36.305 -62.244)" gradientUnits="userSpaceOnUse">
   <stop stop-color="#BFF3FF" stop-opacity=".9" offset="0"/>
   <stop stop-color="#80EBFF" stop-opacity=".5" offset="1"/>
  </linearGradient>
  <linearGradient id="l" x1="435.82" x2="113.6" y1="73.239" y2="410.1" gradientTransform="matrix(.26043 0 0 .26879 -36.305 -62.244)" gradientUnits="userSpaceOnUse">
   <stop stop-color="#80EBFF" stop-opacity=".5" offset=".24"/>
   <stop stop-color="#0DF" stop-opacity="0" offset=".7"/>
  </linearGradient>
  <radialGradient id="k" cx="232.09" cy="98.109" r="445.12" gradientTransform="matrix(.2671 0 0 .26208 -36.305 -62.244)" gradientUnits="userSpaceOnUse">
   <stop stop-color="#AAF2FF" offset=".18"/>
   <stop stop-color="#0DF" offset=".43"/>
   <stop stop-color="#0060DF" offset=".69"/>
  </radialGradient>
  <radialGradient id="j" cx="335.7" cy="131.62" r="529" gradientTransform="matrix(.27987 0 0 .25012 -36.305 -62.244)" gradientUnits="userSpaceOnUse">
   <stop stop-color="#80EBFF" offset=".29"/>
   <stop stop-color="#00B3F4" offset="1"/>
  </radialGradient>
  <radialGradient id="i" cx="239.29" cy="34.491" r="175.98" gradientTransform="matrix(.26426 0 0 .26489 -36.305 -62.244)" gradientUnits="userSpaceOnUse">
   <stop stop-color="#0DF" offset="0"/>
   <stop stop-color="#0090ED" offset=".82"/>
  </radialGradient>
  <linearGradient id="h" x1="380.24" x2="417.81" y1=".04915" y2="186.35" gradientTransform="matrix(.20319 0 0 .34452 -36.305 -62.244)" gradientUnits="userSpaceOnUse">
   <stop stop-color="#AAF2FF" offset="0"/>
   <stop stop-color="#0DF" offset=".29"/>
   <stop stop-color="#0090ED" offset=".74"/>
   <stop stop-color="#0250BB" offset="1"/>
  </linearGradient>
  <linearGradient id="g" x1="533.39" x2="575.89" y1="-22.365" y2="255.05" gradientTransform="matrix(.18219 0 0 .38423 -36.305 -62.244)" gradientUnits="userSpaceOnUse">
   <stop stop-color="#AAF2FF" offset="0"/>
   <stop stop-color="#0DF" offset=".29"/>
   <stop stop-color="#0090ED" offset=".61"/>
   <stop stop-color="#0250BB" offset=".89"/>
  </linearGradient>
  <radialGradient id="f" cx="386.78" cy="-118.89" r="866.61" gradientTransform="matrix(.28894 0 0 .24227 -36.305 -62.244)" gradientUnits="userSpaceOnUse">
   <stop stop-color="#80EBFF" offset="0"/>
   <stop stop-color="#00B3F4" offset=".47"/>
   <stop stop-color="#0060DF" offset=".84"/>
   <stop stop-color="#592ACB" offset="1"/>
  </radialGradient>
  <radialGradient id="e" cx="220.93" cy="290.35" r="554.46" fx="222.1" gradientTransform="matrix(.29352 0 0 .23849 -36.305 -62.244)" gradientUnits="userSpaceOnUse">
   <stop stop-color="#321C64" stop-opacity=".8" offset=".3"/>
   <stop stop-color="#212F83" stop-opacity=".5" offset=".37"/>
   <stop stop-color="#0A47AC" stop-opacity=".14" offset=".48"/>
   <stop stop-color="#0250BB" stop-opacity="0" offset=".53"/>
  </radialGradient>
  <radialGradient id="d" cx="386.71" cy="60.773" r="554.46" gradientTransform="matrix(.29352 0 0 .23849 -36.305 -62.244)" gradientUnits="userSpaceOnUse">
   <stop stop-color="#80EBFF" offset="0"/>
   <stop stop-color="#0DF" offset=".26"/>
   <stop stop-color="#0090ED" offset=".53"/>
   <stop stop-color="#0060DF" offset=".86"/>
  </radialGradient>
  <radialGradient id="c" cx="255.21" cy="256.72" r="119.54" fx="254.66" gradientTransform="matrix(.26463 0 0 .26453 -36.305 -62.244)" gradientUnits="userSpaceOnUse">
   <stop stop-color="#7542E5" stop-opacity="0" offset=".91"/>
   <stop stop-color="#0DF" stop-opacity=".4" offset="1"/>
  </radialGradient>
  <radialGradient id="b" cx="268.72" cy="191.79" r="140.64" gradientTransform="matrix(.26463 0 0 .26453 -36.305 -62.244)" gradientUnits="userSpaceOnUse">
   <stop stop-color="#0DF" stop-opacity=".4" offset=".1"/>
   <stop stop-color="#7542E5" stop-opacity=".25" offset=".9"/>
  </radialGradient>
 </defs>
 <circle cx="296.65" cy="5.7567" r="0" enable-background="new" fill="#d5d3cf" stroke-width=".87152"/>
 <circle cx="-15.774" cy="13.461" r="0" enable-background="new" fill="#d5d3cf" stroke-width=".87152"/>
 <g transform="matrix(.12485 0 0 .12485 4.5429 8.0455)" stroke-width=".26458">
  <path id="globe-back" d="m2.4875 14.245 4.006 11.106 6.0197 8.1218 14.133 2.6955 6.7613 0.57519 11.542-2.8836 4.9725-4.7664z" fill="#09204d"/>
  <path d="m62.299-2.1379-1.415-4.6947-4.0459-7.6347-4.6283-4.878-4.9132-3.5078-4.2661-1.6745-5.1188-1.8208-8.4281-0.5363-5.3146 0.9591-4.3364 1.3329-7.6945 4.5031-4.809 5.3648-4.4343 7.2018-1.7444 6.1287-0.32596 9.2989 1.6629 6.3401 3.6678 7.2182 2.587 3.4863 3.5771 3.2794 4.4677 3.0223 5.509 2.396 9.2195 1.0821 4.814 0.13414 7.1248-2.0068 6.3684-3.4951 4.0973-3.4953 3.1771-3.7903 4.4917-8.7925 0.99164-6.0147z" fill="#09204d"/>
  <path d="m29.638-22.659-3.7745 3.7448 6.157 2.4958 4.5801-5.6797z" fill="#0e56d7"/>
  <path d="m32.02-16.419 11.92-0.36168-7.3399-5.318z" fill="#1053d1"/>
  <path d="m43.055-22.138-6.4544 0.03995 7.3399 5.318 6.7875-0.44317z" fill="#0b4fbf"/>
  <path d="m50.728-17.224-3.8586-5.3207 5.3405 3.199z" fill="#0b48b0"/>
  <path d="m55.838-13.965-5.1098-3.2583 1.4819-2.1217z" fill="#0c45a7"/>
  <path d="m50.728-17.224-0.85485 3.6451 4.6735 1.8679z" fill="#0f46af"/>
  <path d="m50.728-17.224 5.1098 3.2583-1.2911 2.2547z" fill="#0c47ad"/>
  <path d="m43.941-16.78 6.7875-0.44317-0.85485 3.6451z" fill="#0e4fc3"/>
  <path d="m43.941-16.78-5.3627 4.8542 6.902 3.38z" fill="#174dca"/>
  <path d="m32.02-16.419 11.92-0.36168-5.3627 4.8542z" fill="#1650d4"/>
  <path d="m49.873-13.579 3.2458 6.2946 1.4277-4.4267z" fill="#1246b2"/>
  <path d="m53.119-7.2839 1.4277-4.4267 3.4006 8.0879z" fill="#133ea1"/>
  <path d="m54.547-11.711 5.1828 3.7956-1.7822 4.2923z" fill="#103d98"/>
  <path d="m55.838-13.965 1.0004-0.5019 2.8913 6.5523z" fill="#0b3785"/>
  <path d="m59.73-7.915 1.1546 1.0824-4.0459-7.6347z" fill="#0b3685"/>
  <path d="m59.73-7.9152-3.8917-6.0501-1.2911 2.2555zm-7.5196-11.43 3.6279 5.3799 1.0004-0.5027z" fill="#0c3b91"/>
  <path d="m62.039 1.5302-1.1549-8.3628 1.415 4.6947-0.27886 3.6681z" fill="#0b3279"/>
  <path d="m59.73-7.915 2.3095 9.4452-1.1549-8.3628z" fill="#0f388d"/>
  <path d="m57.947-3.6227 4.0917 5.1529-2.3095-9.4452z" fill="#0d3481"/>
  <path d="m62.02 1.5302 0.27886-3.6681 0.28151 9.4065-0.54159-5.7384z" fill="#0b2e71"/>
  <path d="m61.353 8.9641 1.2274-1.6954-0.54159-5.7384z" fill="#0e2f77"/>
  <path d="m61.589 13.283-0.98132 0.4728 1.973-6.4875z" fill="#0e2969"/>
  <path d="m60.608 13.756 1.973-6.4875-1.2274 1.6954z" fill="#0c2a69"/>
  <path d="m61.353 8.9641 0.68579-7.4339-2.1021 2.4796z" fill="#123180"/>
  <path d="m60.608 13.756 0.74558-4.792-4.0544 6.8137z" fill="#112b70"/>
  <path d="m57.947-3.6227 4.0917 5.1529-2.1021 2.4796z" fill="#12378c"/>
  <path d="m61.353 8.9641-1.4163-4.9542-2.1375 6.1022z" fill="#122e7b"/>
  <path d="m57.097 22.076 3.5104-8.3197-3.2842 6.0649z" fill="#11296c"/>
  <path d="m57.323 19.821 3.2842-6.0649-3.3088 2.0216z" fill="#142a72"/>
  <path d="m60.608 13.756-3.5104 8.3207 4.4912-8.7935zm-6.6875 12.11 3.1771-3.7893 0.22621-2.2547zm-4.0973 3.4953 4.0973-3.4953-4.3301 1.9915z" fill="#112768"/>
  <path d="m25.91 31.796-4.1396 1.0125 0.1262-2.8889z" fill="#1c226a"/>
  <path d="m2.8949-7.5229 1.1411-0.4228-2.8855 6.5515z" fill="#182b7a"/>
  <path d="m1.1506-1.3942 2.1846-0.40639 0.70087-6.1451z" fill="#1f308d"/>
  <path d="m1.281 6.4741-0.13044-7.8683 2.1846-0.40639z" fill="#1e2b7f"/>
  <path d="m49.873-13.579-4.3933 5.0323 7.6392 1.2623zm-38.337-5.1617 5.6091-3.8364-5.0048 2.487z" fill="#1346b5"/>
  <path d="m12.138-20.09 7.6945-4.5031-2.6897 2.0158-5.0048 2.4873" fill="#1244ac"/>
  <path d="m17.143-22.577 7.0261-3.3488-4.3364 1.3329z" fill="#0e4ab6"/>
  <path d="m43.941-16.78 1.5393 8.2342 4.3933-5.0323zm-22.518-6.1864 6.5451-2.6175-3.7983-0.34131z" fill="#0e4bba"/>
  <path d="m29.484-26.885-5.3146 0.9591 3.7983 0.34131z" fill="#0a4ebc"/>
  <path d="m34.51-25.649-6.5428 0.06509 1.5163-1.3004" fill="#0c54cc"/>
  <path d="m46.869-22.544-3.8144 0.40586 7.6728 4.9148zm-12.359-3.1051 8.5194 1.1218-5.1188-1.8208z" fill="#0b4bb4"/>
  <path d="m46.869-22.544-3.8388-1.9833 4.2661 1.6745z" fill="#0c3889"/>
  <path d="m2.4875 14.245 2.5188 2.0727-3.725-9.8423zm34.764 19.575 2.2143-5.2122-8.0696 2.168zm2.2143-5.2122 6.7467 1.8719 0.4093-5.2164z" fill="#202575"/>
  <path d="m49.59 27.858-2.9691-2.5955 7.1738-4.7672z" fill="#1b2773"/>
  <path d="m53.795 20.495-4.2049 7.3627 4.3301-1.9915 3.4033-6.0451z" fill="#15276d"/>
  <path d="m47.297-22.853-0.42729 0.30876 5.3405 3.199zm-4.2417 0.71436 3.8144-0.40586-3.8388-1.9843z" fill="#0c409d"/>
  <path d="m29.484-26.885 5.027 1.2353 3.4017-0.69902zm13.546 2.3571-8.5194-1.1218 8.5459 3.511z" fill="#0b4cb7"/>
  <path d="m34.51-25.649 2.0904 3.5509 6.4544-0.03995z" fill="#0b55ce"/>
  <path d="m34.51-25.649 2.0904 3.5509-6.9626-0.56064z" fill="#0a52c5"/>
  <path d="m27.967-25.584 1.6705 2.9252 4.8722-2.9903z" fill="#0951c4"/>
  <path d="m21.422-22.967 6.5451-2.6175 1.6705 2.9252z" fill="#0b50c4"/>
  <path d="m17.143-22.577 4.2793-0.38999 2.7468-2.9588zm4.2793-0.38999 4.4412 4.0523 3.7745-3.7448z" fill="#0f4dbf"/>
  <path d="m21.422-22.967-7.2299 6.779 2.9506-6.389z" fill="#1546b6"/>
  <path d="m14.192-16.188 4.6134 0.76728 2.6164-7.5463z" fill="#1549bd"/>
  <path d="m18.806-15.421 2.6164-7.5463 4.4415 4.0523z" fill="#144bc3"/>
  <path d="m7.3293-14.725 0.28098 2.727 3.9248-6.7425z" fill="#173794"/>
  <path d="m4.0361-7.9456 3.2932-6.779 0.28098 2.727z" fill="#192f84"/>
  <path d="m7.6103-11.998 3.9248-6.7425 2.6574 2.5524z" fill="#1a389b"/>
  <path d="m7.3727-6.1521 0.23759-5.8456-3.5742 4.052z" fill="#1d3089"/>
  <path d="m7.3727-6.1521 0.23759-5.8456 4.6381 3.7652z" fill="#1e389f"/>
  <path d="m12.248-8.2325 1.9441-7.9553-6.5822 4.1901z" fill="#1c40af"/>
  <path d="m12.248-8.2325 1.9441-7.9553 4.6134 0.76728z" fill="#1e41b7"/>
  <path d="m3.3352-1.8006 0.70087-6.1451 3.3366 1.7936z" fill="#192c7d"/>
  <path d="m37.251 33.82 6.203-0.96306 2.7569-2.3783zm-36.427-25.915 0.45666-1.4306-0.1307-7.8683zm2.5106-9.7053-2.0539 8.2747 3.725 9.8423-1.8179-11.403z" fill="#162467"/>
  <path d="m5.006 16.318 3.0731 0.43073-2.1518-5.0233z" fill="#1a236a"/>
  <path d="m49.59 27.858-3.3787 2.6206-2.7569 2.3783 6.3684-3.4951zm-18.074 6.8716 4.814 0.13414 7.1248-2.0068-6.203 0.96306zm-23.642-12.7 3.2297 0.62123-3.0241-5.9001z" fill="#132668"/>
  <path d="m21.896 29.92-5.4683-4.2089-2.2727 2.1852 7.614 4.9127zm-19.409-15.674 3.6678 7.2182-1.1491-5.1455zm-1.6629-6.3401 1.6629 6.3401-1.2062-7.7707zm30.571 22.87-9.4984-0.85459 4.0134 1.8767-4.1414 1.0117-4.9831-1.5576 5.509 2.396 9.2195 1.0821 5.7358-0.90962zm-23.317-14.026-3.0728-0.431 2.8672 5.7109zm-4.8907-11.835 1.8179 11.403 0.921-4.5925zm7.9149 17.736-3.2297-0.62123-1.7182-0.5654 2.587 3.4863 3.5771 3.2794 4.4677 3.0223-2.6318-3.3551z" fill="#1b2268"/>
  <path d="m3.3352-1.8006 4.3364 6.7076-0.29897-11.059z" fill="#212a81"/>
  <path d="m3.1884 4.9134 2.7389 6.8118 1.7444-6.8182z" fill="#21267a"/>
  <path d="m5.9273 11.725 1.7444-6.8182 2.168 5.3873z" fill="#262781"/>
  <path d="m8.0791 16.748 8.3141 5.1519-6.5536-11.606z" fill="#272379"/>
  <path d="m6.1553 21.463 1.7182 0.5654-2.8672-5.7109zm18.365 2.9633-2.6241 5.4924 9.4984 0.85459zm-16.441-7.6789 3.0241 5.9001 3.0522 5.2463 2.2727-2.1852-0.03492-3.8099z" fill="#1e226d"/>
  <path d="m46.621 25.262-0.4093 5.2164 3.3787-2.6206zm-14.535-0.74849-0.69028 6.261 8.0696-2.168-0.28733-7.0378z" fill="#222475"/>
  <path d="m3.1884 4.9136 4.483-0.0066-4.3362-6.7076zm35.99 16.654 0.28733 7.0378 7.155-3.3445z" fill="#23277d"/>
  <path d="m39.178 21.568 4.605-4.1698 2.8376 7.8638z" fill="#1e2776"/>
  <path d="m46.621 25.262 3.4808-10.542-6.3184 2.6781z" fill="#222b86"/>
  <path d="m53.795 20.495-7.1738 4.7672 3.4808-10.542z" fill="#192974"/>
  <path d="m57.299 15.778-7.1971-1.0578 3.6932 5.7749 3.5284-0.67388z" fill="#172a75"/>
  <path d="m57.799 10.112-7.6976 4.6079 7.1971 1.0578 4.0544-6.8137z" fill="#172d7d"/>
  <path d="m4.0361-7.9456 3.2932-6.779-4.4343 7.2018zm50.892 8.3906 2.8712 9.6672 2.1375-6.1022z" fill="#18338a"/>
  <path d="m59.937 4.0098-1.9896-7.6326-3.0191 4.0674z" fill="#153791"/>
  <path d="m50.102 14.72 7.6976-4.6082-7.4606-3.321z" fill="#1b318b"/>
  <path d="m50.102 14.72-6.9761-7.0489 0.65774 9.7269z" fill="#242d8d"/>
  <path d="m39.178 21.568-5.3559-4.742 9.9608 0.57228z" fill="#2a2b8f"/>
  <path d="m8.0791 16.748 1.7605-6.4539-3.9123 1.4303zm25.743 0.07752-1.7364 7.6873 7.0925-2.9453z" fill="#27267f"/>
  <path d="m22.735 18.398-5.1558-2.6206-1.1861 6.1226 8.1273 2.527 7.5656 0.08599z" fill="#2d2381"/>
  <path d="m32.086 24.513 1.7367-7.6873-11.087 1.5724z" fill="#2f2485"/>
  <path d="m7.6716 4.907 2.224-7.0994-2.523-3.9597z" fill="#233196"/>
  <path d="m12.248-8.2325 9.7611-2.8453-5.1558 10.533z" fill="#293cb7"/>
  <path d="m50.102 14.72-6.9761-7.0489 7.2132-0.88025z" fill="#25339c"/>
  <path d="m57.799 10.112-2.8712-9.6674-4.5894 6.3464z" fill="#19348f"/>
  <path d="m43.783 17.398-7.9778-7.7135 7.3201-2.0134z" fill="#2a309a"/>
  <path d="m33.823 16.826 9.9608 0.57228-7.9778-7.7135z" fill="#302b96"/>
  <path d="m33.823 16.826-5.4561-4.4425 7.4391-2.6987z" fill="#3630a7"/>
  <path d="m11.535-18.74 0.60324-1.3493-4.809 5.3648zm41.584 11.456 1.8092 7.7289 3.0191-4.0676z" fill="#173da2"/>
  <path d="m12.248-8.2325 4.6052 7.6873-6.9579-1.6473z" fill="#2a36a8"/>
  <path d="m9.8957-2.1924 6.9579 1.6473-4.7053 7.4111z" fill="#312e9f"/>
  <path d="m22.009-11.078 3.8544-7.8368-7.0579 3.494z" fill="#184dcd"/>
  <path d="m7.6716 4.907 4.4767 1.9589-2.3087 3.4284z" fill="#272986"/>
  <path d="m12.148 6.866-2.3087 3.4287 6.5536 11.606 1.1861-6.1226z" fill="#2c2584"/>
  <path d="m17.579 15.778 0.726-10.782-6.157 1.8703z" fill="#32268b"/>
  <path d="m17.579 15.778 10.787-3.3943-10.061-7.3878z" fill="#372999"/>
  <path d="m28.366 12.383-1.0512-8.3363-9.0099 0.94851z" fill="#392da5"/>
  <path d="m27.315 4.0471 7.6085-2.8453 0.88184 8.4829z" fill="#3338bc"/>
  <path d="m22.735 18.398 11.087-1.5724-5.4561-4.4425z" fill="#362896"/>
  <path d="m22.735 18.398-5.1558-2.6206 10.787-3.3943z" fill="#35268f"/>
  <path d="m22.009-11.078 6.6073 0.69902-2.7529-8.5358z" fill="#2648d3"/>
  <path d="m32.02-16.419-6.1567-2.4958 2.7529 8.5358z" fill="#1057dc"/>
  <path d="m32.02-16.419 6.5573 4.4925-9.9611 1.5475z" fill="#1653da"/>
  <path d="m28.617-10.379 9.7709 5.1812-3.4639 6.3994z" fill="#2b46d5"/>
  <path d="m38.388-5.1975 0.19023-6.7288-9.9611 1.5475z" fill="#244ad7"/>
  <path d="m38.388-5.1975 0.19023-6.7288 6.902 3.38z" fill="#2547cf"/>
  <path d="m28.617-10.379 6.307 11.581-11.062-5.5408z" fill="#333cc5"/>
  <path d="m27.315 4.0471 7.6085-2.8453-11.062-5.5408z" fill="#3833b6"/>
  <path d="m34.924 1.2019 9.7566-1.7819-6.2927-4.6174z" fill="#2a41c6"/>
  <path d="m45.48-8.5462-0.79956 7.9662-6.2927-4.6174z" fill="#2045c1"/>
  <path d="m45.48-8.5462 4.6052 6.2541-5.4048 1.7121z" fill="#1b43b7"/>
  <path d="m53.119-7.2839-7.6392-1.2623 4.6052 6.2541z" fill="#1742af"/>
  <path d="m14.192-16.188 2.9506-6.389-5.6091 3.8364zm38.927 8.9038-3.0339 4.9931 4.8431 2.7371z" fill="#1740a9"/>
  <path d="m50.339 6.7911 4.5894-6.3464-4.8431-2.7368z" fill="#1b3ca4"/>
  <path d="m50.339 6.7911-0.25373-9.0832-5.4048 1.7121z" fill="#1f3dad"/>
  <path d="m12.249-8.2325 9.7608-2.8453-3.2032-4.3428zm22.674 9.4343 8.2019 6.4695 1.5547-8.2514z" fill="#2543c3"/>
  <path d="m35.806 9.6848 7.3201-2.0134-8.2019-6.4695z" fill="#2e37b2"/>
  <path d="m22.009-11.078 1.852 6.7388 4.7553-6.0398z" fill="#2d40c7"/>
  <path d="m22.009-11.078-5.1558 10.533 7.0079-3.7938z" fill="#3537b8"/>
  <path d="m23.861-4.3389-5.5561 9.3346 9.0099-0.94851z" fill="#3931b0"/>
  <path d="m27.315 4.0471 1.0512 8.3363 7.4391-2.6987zm-9.0099 0.94851 5.5561-9.3343-7.0079 3.7941z" fill="#3735b8"/>
  <path d="m12.148 6.866 4.7053-7.4111 1.4517 5.5408z" fill="#342892"/>
  <path d="m16.787 31.251 4.9831 1.5576-7.6148-4.9127zm-0.35903-5.5403 5.4683 4.2089 2.6241-5.4924-8.1273-2.527zm14.968 5.0635 0.69028-6.261-7.5656-0.08599zm8.0696-2.168-2.2143 5.2122 8.9599-3.3414z" fill="#232372"/>
  <path d="m7.6716 4.907 2.224-7.0994 2.2526 9.0584z" fill="#2a2f96"/>
  <path d="m9.8957-2.1924 2.3529-6.0401-4.8759 2.0804zm34.785 1.6123-1.5547 8.2514 7.2132-0.88025z" fill="#2636a5"/>
  <path id="globe-lines" d="m62.719 7.2774v-0.01455l-0.28151-9.405v-0.01058c0-0.0034 0-0.0066-0.0016-0.0098s-0.0016-0.0085-0.0026-0.01244v-0.0029l-1.4142-4.6931v-0.0029l-0.0029-0.0077c0-0.0034-0.0026-0.0069-0.0042-0.01005l-0.0019-0.0042-4.0462-7.6347-0.0024-0.0037-5e-3 -0.0079-0.0045-0.0066-0.0029-4e-3 -0.0042-0.0048-0.0029-0.0037-4.6309-4.8796-0.0021-0.0019-0.0032-0.0032c-0.0026-0.0026-0.0058-0.0048-0.0087-0.0071l-0.0061-0.0053-4.9119-3.5065h-0.0024l-0.0045-0.0032a0.095248 0.095248 0 0 0-0.01032-0.0053 0.079373 0.079373 0 0 0-0.01058-0.0053h-0.0021l-4.2631-1.6732h-0.0066l-5.1177-1.8203h-0.0048l-0.0098-0.0026-9e-3 -0.0019h-0.01429l-8.4281-0.5363h-0.01455a0.12038 0.12038 0 0 0-0.01376 0h-0.0053l-5.3146 0.9591h-0.01138l-0.0095 0.0026-4.3317 1.3316-0.0095 0.0037c-0.0037 0.0016-0.0077 0.0032-0.01111 5e-3l-0.0056 0.0026h-0.0019l-7.6945 4.5034h-0.0016l-0.0063 0.0042-0.0061 4e-3 -5e-3 0.0045-0.0048 0.0037-0.0053 0.0058-0.0042 0.0037-0.0019 0.0021-4.8071 5.3625-0.0019 0.0026-0.0034 4e-3 -0.0032 0.0045-0.0042 0.0061-0.0021 0.0026-0.0016 0.0026-4.4375 7.196-0.0021 0.0042-0.0042 0.0074-0.0037 0.0087c0 0.0034-0.0026 0.0066-0.0037 0.01005l-0.0016 0.0042-1.7444 6.129v0.02011a0.06879 0.06879 0 0 0-0.0013 0.01032v0.0026l-0.32596 9.2989v0.02302a0.079373 0.079373 0 0 0 0.0021 0.01138v0.0095l1.6618 6.3366v0.0026l0.0016 0.0048a0.13785 0.13785 0 0 0 0.0053 0.01323c0 0.0021 0.0016 0.0045 0.0026 0.0066l3.6671 7.2161 0.0024 0.0034a0.13017 0.13017 0 0 0 0.0074 0.01191l0.0019 0.0034 2.5855 3.4842 0.0032 4e-3c0.0024 0.0029 0.0053 0.0053 0.0077 0.0079a0.066145 0.066145 0 0 0 0.0058 0.0063l3.5771 3.2808c0.0029 0.0026 0.0058 0.0045 9e-3 0.0069l0.0071 0.0058 4.4674 3.022 0.0032 0.0016 0.01058 0.0063 0.0058 0.0026h0.0019l5.509 2.396 0.0056 0.0019a0.093396 0.093396 0 0 0 0.01217 4e-3l0.0063 0.0019 0.0098 0.0019h0.0056l9.2195 1.0824h0.01244l4.814 0.13388h5e-3a0.15054 0.15054 0 0 0 0.02646-0.0026l0.0058-0.0019h4e-3l7.1248-2.0068 0.0042-0.0016 0.0061-0.0016 0.0056-0.0026 4e-3 -0.0019 0.0085-0.0037 0.0029-0.0016 6.3647-3.4924h0.0019l0.0026-0.0016a0.092073 0.092073 0 0 0 0.01032-0.0074l0.0085-0.0058 4.0973-3.4951 0.0042-0.0045 0.0053-0.0048 0.0053-0.0058h0.0016l3.1765-3.7896 0.0013-0.0019a0.14049 0.14049 0 0 0 0.01111-0.01667l4e-3 -0.0058v-0.0016l4.501-8.7896c0-0.0019 0.0016-0.0042 0.0026-0.0063l0.0045-0.01032v-5e-3a0.079373 0.079373 0 0 0 0.0029-0.01138c0-0.0024 0.0016-0.0048 0.0021-0.0074l0.99137-6.0131v-0.01032zm-50.313 20.842-0.92602-0.84982 2.0841 1.6327zm13.522 3.5316-3.2562-1.5224 7.7072 0.6932zm1.1874-27.723-8.549 0.89957 5.272-8.857zm-2.9839-7.9765 10.445 5.2312-7.1838 2.6865zm3.0614 8.2474 0.99376 7.8802-9.5108-6.9849zm0.86914 8.1337-10.33 3.2509 0.69505-10.326zm-0.57175-8.0022 8.0075 5.318-7.0161 2.5452zm0.12753-0.24897 7.1849-2.6868 0.83263 8.0101zm11.039-9.2536 6.6597-3.144-0.75087 7.4799zm5.6808 4.5126-9.1544 1.6721 3.2506-6.0027zm-9.4145 1.5695-5.9633-10.95 9.2396 4.8987zm-0.33416-0.03122-10.513-5.2651 4.5193-5.7411zm-16.233 3.7594-1.3396-5.1138 6.4676-3.5012zm-0.88634 10.691-5.1095-8.384 5.7921-1.7594zm10.433-2.6558-5.1979 5.5522-4.759-2.4188zm7.6963-2.7675-1.8539 6.6764-5.1008-4.1539zm-0.5027-8.3919 7.7273 6.0951-6.8968 1.8968zm0.15504-0.23204 9.2544-1.6904-1.4745 7.8268zm9.5886-2.0597 0.74135-7.3955 4.2753 5.8064zm5.1109-1.3277 0.23653 8.4697-5.276-6.8727zm-11.418-3.3157 0.17753-6.2864 6.4472 3.1583zm-0.2786-0.0056-9.2036-4.8804 9.3827-1.4576zm-14.332 0.78368-1.7248-6.2763 6.1538 0.65086zm-0.22463 0.23336-6.5282 3.534 4.8029-9.8116zm-5.5614 9.31-5.6696 1.7221 4.333-6.824zm-1.0268 10.373-7.0788-5.0148 2.1116-3.1358zm0.57149 0.71092 4.7571 2.418-5.8517 3.2321zm10.698-3.4131 5.1087 4.1605-10.382 1.4721zm7.4979-2.6257 7.5405 7.2907-9.4147-0.54106zm0.20002-0.19341 6.9208-1.9036 0.62176 9.1965zm8.6824-10.002 5.3204 6.9319-6.7822 0.82786zm5.4715-1.8018 4.4933 2.5399-4.2581 5.8877zm0.04736-0.29262 2.7826-4.5772 1.6594 7.0883zm-0.20452-0.19923-4.2793-5.8115 7.0986 1.1729zm-11.251-9.419 5.027-4.5494 1.443 7.7172zm-9.9447 1.4023 3.1887-5.6583 6.1427 4.2086zm-6.6565-0.63499 3.6147-7.3497 2.5818 8.0051zm-5.381 10.359-4.3809-7.3129 9.2867-2.7066zm-4.6359 7.3526-2.119-8.5215 6.5454 1.5496zm-2.3344 3.4821-1.9431-4.8288 4.0121 1.7555zm7.5548 5.84-1.0972 5.662-6.0617-10.735zm5.2252 2.7646 1.6623 5.6136-7.5669-2.3526zm10.992-1.6118-1.6481 7.2952-8.874-5.803zm9.8016 0.52598-4.2663 3.8628-4.9627-4.3938zm-0.15398-9.4827 6.5687 6.6372-5.9496 2.5217zm0.13414-0.26008 6.7706-0.82654-0.22251 7.4428zm11.451-7.0195 2.7045 9.1068-7.028-3.1284zm-1.5327-7.6955 4.411 3.3448-2.7582 3.716zm-7.5934-1.7026 4.0943-4.6902 3.0252 5.8665zm-0.1852-0.21166-1.433-7.6654 5.5228 2.9807zm-6.9981-3.2487-6.1155-4.1899 11.117-0.33734zm-9.9143 1.3787-2.564-7.9495 5.7342 2.3243zm-6.6674-0.62017-2.9691-4.025 6.5414-3.2384zm-0.20611 0.18917-9.0943 2.6511 6.1104-6.6981zm-5.2143 10.398-6.4822-1.5346 2.1915-5.6263zm-4.6201 7.3817-4.1031-1.7954 2.0373-6.507zm-2.2878 3.5882-3.5295 1.2906 1.5734-6.1506zm6.348 11.283-7.7643-4.8114 1.6441-6.0271zm7.9059 2.8868-7.345 1.1641-0.03175-3.4583zm-0.93476-5.662 8.6366 5.6485-6.9849-0.07937zm10.93-1.6362 5.0135 4.4388-6.6377 2.7585zm9.8158 0.55561 2.6495 7.3426-6.9476-3.448zm0.23627-0.16616 5.9144-2.5069-3.2585 9.8688zm6.5126-10.472 7.0267 3.1278-7.2494 4.3391zm4.7053-6.2102 4.5941 3.2699-1.9608 5.5974zm-0.05291-0.37835 2.7614-3.7202 1.8198 6.9806zm-1.8425-7.749 1.2821-3.9753 3.0538 7.2632zm-0.19261-0.31035-2.9217-5.6659 4.2068 1.6814zm-8.6554-9.0269 6.1176-0.39951-0.77019 3.2855zm-12.113 0.10583 4.3073-5.3416 6.9028 5.0005zm-0.25452-0.12806-2.2177-5.8083 6.4822 0.52201zm-0.2876 0.02646-5.6654-2.2965 3.4729-3.4456zm-12.728 0.97206 2.436-7.0261 4.1348 3.7729zm-6.5351 6.9666 1.7838-7.3005 4.2332 0.70431zm-2.6474 6.2303-2.2875-3.5898 4.4203-1.8859zm-0.12224 0.32649-1.9552 6.2411-0.26273-9.7219zm-2.2513 7.2185-1.5946 6.2324-2.5034-6.2263zm-4.1618-0.27146 0.13229-6.1186 3.9517 6.1118zm6.3036 5.7429-1.5848 5.8091-1.9367-4.5214zm6.3594 11.299-4.8119 0.68155-2.7508-5.368zm0.2614 0.24368 0.03122 3.4086-4.7624-2.7384zm8.0254 2.5455-2.436 5.0987-5.0759-3.9062zm0.28389 0.05159 6.4367 5.9416-8.893-0.79982zm0.31564-0.08731 7.0505 0.07937-0.64319 5.8347zm14.166-2.7961 0.26908 6.5917-6.91-3.8335zm0.27992 0.02408 6.9732 3.4609-6.7044 3.1339zm10.815-6.7555 3.4617 5.413-6.7245 4.4685zm0.24103-0.1397 6.6653 0.97894-3.244 4.3703zm0.12409-0.26273 7.1293-4.2676-0.4638 5.2471zm9.4161-10.17 1.2589 4.4039-3.1591 1.0205zm-1.675-7.4891 3.6107 4.547-1.855 2.1881zm-3.3787-8.2813 4.6894 3.4342-1.6115 3.8827zm-4.8336-2.3614 0.7559-3.2236 3.3773 4.8756zm-5.9795-3.2641-0.81384-4.9254 7.0531 4.5179zm-0.30956-0.1643-6.7203-4.8714 5.9112-0.03651zm-13.674-5.672 4.3886-2.6931 1.8827 3.1985zm-4.2139 3.657-4.0618-3.7081 7.5167 0.28283zm-7.147 3.53-4.2171-0.70298 6.6131-6.2007zm-6.5454 7.0968-4.3174-3.5049 6.1271-3.9007zm-0.18335 0.20928-4.4611 1.9044 0.21748-5.3482zm-4.4629 12.684-4.0081-6.1999 3.7306-4.0216zm-1.7364 7.3238-0.76093 3.7927-1.5012-9.419zm0.19314 0.45349 1.8785 4.3846-2.6823-0.37597zm4.8735 10.267-2.831-0.54477 0.18018-4.6301zm5.349 3.2794-2.0108 1.9341-2.7021-4.6436zm0.23997 0.15504 4.8307 3.7181-6.8383-1.7878zm15.763-1.1575 6.8978 3.825-7.5405 2.0259zm14.261 0.75272-0.37755 4.81-6.2181-1.7261zm6.9195-4.5534-3.8282 6.7052-2.7043-2.3627zm3.7803-4.7404 0.02117 3.5112-3.0638 0.58498zm0.76728-5.9795 3.1151-1.0054-3.5541 5.9726zm2.1611-6.1729 1.7687-2.0862-0.57704 6.2544zm-1.9843-7.6878 1.5875-3.8242 2.0576 8.4149zm-3.3768-8.1046 1.1155-1.9478 3.3625 5.2273zm-0.19367-0.22172-3.2998-4.7624 4.4155 2.8154zm-11.072-10.071 3.3406-0.35665 3.3795 4.66zm-6.7833-0.19579-1.8404-3.1257 7.522 3.0905zm-6.9923-0.61488-1.4816-2.595 5.804-0.05768zm-0.29474 0.04551-7.3106-0.27384 5.8242-2.3283zm-14.775 6.0295 2.6177-5.6678 3.7964-0.34633zm-0.47042 0.35427-2.3928-2.2984 5.0503-3.4551zm-0.17938 0.21352-5.9496 3.7877 3.5477-6.0948zm-6.7258 9.8304-2.986-1.6055 3.1988-3.6263zm-0.09419 0.26458-3.6266 3.9089 0.6297-5.5196zm-4.0978 10.961-1.5332 1.2546 1.6512-6.6523zm0.03836 0.32781 1.5652 9.8193-3.2075-8.4739zm4.8463 11.694-0.17965 4.6142-2.5061-4.9907zm3.0794 5.9054 2.5455 4.3756-5.2386-4.8947zm10.738 7.2518-0.11086 2.5347-6.6809-4.3105zm0.2741 0.10821 3.466 1.6211-3.576 0.8747zm9.2338 0.80643 0.10768 3.5551-5.0389-2.6365zm7.9638-2.1259-2.0439 4.8124-5.4053-2.8111zm0.32014-0.04154 6.2155 1.7245-8.2548 3.0789zm7.1918-3.2239 2.6336 2.3018-2.9945 2.3243zm7.1463-4.9299 3.0376-0.57969-6.6536 6.9147zm3.5752-1.3417-0.0209-3.4223 2.8006-1.7113zm0.24606-3.9113 3.3996-5.7128-0.62335 4.0176zm4.3351-12.337 0.39687 4.2004-0.89824 1.2409zm-2.0637-10.523 0.7768 0.72838 0.77707 5.6263zm-3.9375-6.4173 0.73103-0.3667 2.1132 4.7889zm-5.1116-3.3522 1.2829-1.8367 3.1403 4.6566zm-0.19923-0.20082-3.3461-4.6121 4.6301 2.7725zm-7.5339-4.8293-0.02064-2.0052 3.2218 1.6645zm-0.27913-0.05424-7.3637-3.0254 7.3426 0.96677zm-14.566-3.38 1.1723-1.0054 3.8874 0.95566zm-6.4028 2.4013 2.2796-2.4556 3.1522 0.28336zm-0.58895 0.22516-3.452 0.31485 5.6678-2.7016zm-9.4931 3.9671 0.38179-0.85406 3.1681-1.5745zm-4.1584 6.6962-0.23018-2.2341 3.4475-3.2898zm-0.23944 0.39343-2.8574 3.2395 2.6328-5.4199zm-4.2571 10.125-1.8256 0.33945 2.4095-5.4709zm-0.06059 0.29395-1.7462 7.0304-0.11086-6.6851zm1.543 17.502-2.074-1.7068-0.99323-6.3983zm2.908 5.9138-1.3247-0.43629-0.88607-3.9671zm5.662 5.4588-4.4007-2.3955-0.70642-2.3746zm0.80273 0.75352 1.905 2.4291-5.8247-4.5626zm0.71277 0.45772 6.0588 3.9089-3.9647-1.2393zm11.116 3.4818 4.7095 2.4635-8.1855-1.6139zm5.6503-0.93661 5.2712 2.7413-5.1632 0.81887zm13.991-0.12779-2.1399 1.846-4.8153 0.7477zm3.9552-2.767 0.17806 1.1517-2.7659 0.85617zm7.1772-7.4082-2.8453 5.0534-3.62 1.665zm0.79373-0.84242 1.905-3.5189-2.0373 4.8267zm4.0266-10.844 0.71939-0.99349-1.1565 3.802zm0.69187-7.4981v-0.0085l-0.01032-0.07382 0.0717-0.9419 0.07302 2.4391zm-0.19129-1.3869-0.71965-5.2122 0.8911 2.9577zm-2.141-8.1294-1.3136-2.9768 1.8383 3.4684zm-3.9607-6.1467-2.6233-3.8893 3.3466 3.5274zm-8.7631-8.4107 0.17542-0.12673 2.0166 1.4398zm-0.26458-0.15187-1.3636-0.70457 1.5152 0.59477zm-11.511-2.9731 2.5553-0.52519 3.8451 1.3679zm-0.83369-0.11245-3.4795-0.85512 5.8342 0.37041zm-6.5914 0.06376-2.714-0.24394 3.7972-0.68526zm-9.5777 2.4246 1.5528-1.1641 2.5032-0.76939zm-1.2745 0.60853-1.347 0.66938 2.0709-1.2118zm-5.6503 3.8734-1.5978 1.5256 1.8269-2.0373zm-7.4836 10.765-0.71039 0.26458 2.7598-4.4825zm-0.92602 0.63922 0.76728-0.28389-1.9386 4.4015zm-1.9089 11.421 0.04075 2.45-0.14102 0.44528zm0.13229 3.076 0.69902 4.5029-0.96359-3.6739zm3.6464 9.3147 0.89771 4.0189-2.8635-5.639zm2.8802 5.7432 0.62308 2.0952-1.8526-2.5zm13.919 10.788 0.26008 0.41459-2.722-1.1832zm0.69928 0.59107-0.31961-0.50958 5.9244 1.1673zm14.512 0.50058-0.62123 0.70616-3.2522-0.09049zm0.43153-0.06826 3.8769-0.60192-4.4531 1.2541zm8.9578-3.3469 2.2735-0.70325-4.0092 2.2005zm3.6419-1.5081-0.17859-1.1538 3.3223-1.5279zm7.1965-8.6252-0.15557 1.5504-2.1849 2.6066zm3.5983-6.6107 0.56144-0.2704-2.5696 5.0302zm0.7477-0.66859-0.63022 0.30347 1.2668-4.1653z" fill="url(#b)"/>
  <path id="globe-lines-edge" d="m62.719 7.2774v-0.01455l-0.28151-9.405v-0.01058c0-0.0034 0-0.0066-0.0016-0.0098s-0.0016-0.0085-0.0026-0.01244v-0.0029l-1.4142-4.6931v-0.0029l-0.0029-0.0077c0-0.0034-0.0026-0.0069-0.0042-0.01005l-0.0019-0.0042-4.0462-7.6347-0.0024-0.0037-5e-3 -0.0079-0.0045-0.0066-0.0029-4e-3 -0.0042-0.0048-0.0029-0.0037-4.6309-4.8796-0.0021-0.0019-0.0032-0.0032c-0.0026-0.0026-0.0058-0.0048-0.0087-0.0071l-0.0061-0.0053-4.9119-3.5065h-0.0024l-0.0045-0.0032a0.095248 0.095248 0 0 0-0.01032-0.0053 0.079373 0.079373 0 0 0-0.01058-0.0053h-0.0021l-4.2631-1.6732h-0.0066l-5.1177-1.8203h-0.0048l-0.0098-0.0026-9e-3 -0.0019h-0.01429l-8.4281-0.5363h-0.01455a0.12038 0.12038 0 0 0-0.01376 0h-0.0053l-5.3146 0.9591h-0.01138l-0.0095 0.0026-4.3317 1.3316-0.0095 0.0037c-0.0037 0.0016-0.0077 0.0032-0.01111 5e-3l-0.0056 0.0026h-0.0019l-7.6945 4.5034h-0.0016l-0.0063 0.0042-0.0061 4e-3 -5e-3 0.0045-0.0048 0.0037-0.0053 0.0058-0.0042 0.0037-0.0019 0.0021-4.8071 5.3625-0.0019 0.0026-0.0034 4e-3 -0.0032 0.0045-0.0042 0.0061-0.0021 0.0026-0.0016 0.0026-4.4375 7.196-0.0021 0.0042-0.0042 0.0074-0.0037 0.0087c0 0.0034-0.0026 0.0066-0.0037 0.01005l-0.0016 0.0042-1.7444 6.129v0.02011a0.06879 0.06879 0 0 0-0.0013 0.01032v0.0026l-0.32596 9.2989v0.02302a0.079373 0.079373 0 0 0 0.0021 0.01138v0.0095l1.6618 6.3366v0.0026l0.0016 0.0048a0.13785 0.13785 0 0 0 0.0053 0.01323c0 0.0021 0.0016 0.0045 0.0026 0.0066l3.6671 7.2161 0.0024 0.0034a0.13017 0.13017 0 0 0 0.0074 0.01191l0.0019 0.0034 2.5855 3.4842 0.0032 4e-3c0.0024 0.0029 0.0053 0.0053 0.0077 0.0079a0.066145 0.066145 0 0 0 0.0058 0.0063l3.5771 3.2808c0.0029 0.0026 0.0058 0.0045 9e-3 0.0069l0.0071 0.0058 4.4674 3.022 0.0032 0.0016 0.01058 0.0063 0.0058 0.0026h0.0019l5.509 2.396 0.0056 0.0019a0.093396 0.093396 0 0 0 0.01217 4e-3l0.0063 0.0019 0.0098 0.0019h0.0056l9.2195 1.0824h0.01244l4.814 0.13388h5e-3a0.15054 0.15054 0 0 0 0.02646-0.0026l0.0058-0.0019h4e-3l7.1248-2.0068 0.0042-0.0016 0.0061-0.0016 0.0056-0.0026 4e-3 -0.0019 0.0085-0.0037 0.0029-0.0016 6.3647-3.4924h0.0019l0.0026-0.0016a0.092073 0.092073 0 0 0 0.01032-0.0074l0.0085-0.0058 4.0973-3.4951 0.0042-0.0045 0.0053-0.0048 0.0053-0.0058h0.0016l3.1765-3.7896 0.0013-0.0019a0.14049 0.14049 0 0 0 0.01111-0.01667l4e-3 -0.0058v-0.0016l4.501-8.7896c0-0.0019 0.0016-0.0042 0.0026-0.0063l0.0045-0.01032v-5e-3a0.079373 0.079373 0 0 0 0.0029-0.01138c0-0.0024 0.0016-0.0048 0.0021-0.0074l0.99137-6.0131v-0.01032zm-50.313 20.842-0.92602-0.84982 2.0841 1.6327zm13.522 3.5316-3.2562-1.5224 7.7072 0.6932zm1.1874-27.723-8.549 0.89957 5.272-8.857zm-2.9839-7.9765 10.445 5.2312-7.1838 2.6865zm3.0614 8.2474 0.99376 7.8802-9.5108-6.9849zm0.86914 8.1337-10.33 3.2509 0.69505-10.326zm-0.57175-8.0022 8.0075 5.318-7.0161 2.5452zm0.12753-0.24897 7.1849-2.6868 0.83263 8.0101zm11.039-9.2536 6.6597-3.144-0.75087 7.4799zm5.6808 4.5126-9.1544 1.6721 3.2506-6.0027zm-9.4145 1.5695-5.9633-10.95 9.2396 4.8987zm-0.33416-0.03122-10.513-5.2651 4.5193-5.7411zm-16.233 3.7594-1.3396-5.1138 6.4676-3.5012zm-0.88634 10.691-5.1095-8.384 5.7921-1.7594zm10.433-2.6558-5.1979 5.5522-4.759-2.4188zm7.6963-2.7675-1.8539 6.6764-5.1008-4.1539zm-0.5027-8.3919 7.7273 6.0951-6.8968 1.8968zm0.15504-0.23204 9.2544-1.6904-1.4745 7.8268zm9.5886-2.0597 0.74135-7.3955 4.2753 5.8064zm5.1109-1.3277 0.23653 8.4697-5.276-6.8727zm-11.418-3.3157 0.17753-6.2864 6.4472 3.1583zm-0.2786-0.0056-9.2036-4.8804 9.3827-1.4576zm-14.332 0.78368-1.7248-6.2763 6.1538 0.65086zm-0.22463 0.23336-6.5282 3.534 4.8029-9.8116zm-5.5614 9.31-5.6696 1.7221 4.333-6.824zm-1.0268 10.373-7.0788-5.0148 2.1116-3.1358zm0.57149 0.71092 4.7571 2.418-5.8517 3.2321zm10.698-3.4131 5.1087 4.1605-10.382 1.4721zm7.4979-2.6257 7.5405 7.2907-9.4147-0.54106zm0.20002-0.19341 6.9208-1.9036 0.62176 9.1965zm8.6824-10.002 5.3204 6.9319-6.7822 0.82786zm5.4715-1.8018 4.4933 2.5399-4.2581 5.8877zm0.04736-0.29262 2.7826-4.5772 1.6594 7.0883zm-0.20452-0.19923-4.2793-5.8115 7.0986 1.1729zm-11.251-9.419 5.027-4.5494 1.443 7.7172zm-9.9447 1.4023 3.1887-5.6583 6.1427 4.2086zm-6.6565-0.63499 3.6147-7.3497 2.5818 8.0051zm-5.381 10.359-4.3809-7.3129 9.2867-2.7066zm-4.6359 7.3526-2.119-8.5215 6.5454 1.5496zm-2.3344 3.4821-1.9431-4.8288 4.0121 1.7555zm7.5548 5.84-1.0972 5.662-6.0617-10.735zm5.2252 2.7646 1.6623 5.6136-7.5669-2.3526zm10.992-1.6118-1.6481 7.2952-8.874-5.803zm9.8016 0.52598-4.2663 3.8628-4.9627-4.3938zm-0.15398-9.4827 6.5687 6.6372-5.9496 2.5217zm0.13414-0.26008 6.7706-0.82654-0.22251 7.4428zm11.451-7.0195 2.7045 9.1068-7.028-3.1284zm-1.5327-7.6955 4.411 3.3448-2.7582 3.716zm-7.5934-1.7026 4.0943-4.6902 3.0252 5.8665zm-0.1852-0.21166-1.433-7.6654 5.5228 2.9807zm-6.9981-3.2487-6.1155-4.1899 11.117-0.33734zm-9.9143 1.3787-2.564-7.9495 5.7342 2.3243zm-6.6674-0.62017-2.9691-4.025 6.5414-3.2384zm-0.20611 0.18917-9.0943 2.6511 6.1104-6.6981zm-5.2143 10.398-6.4822-1.5346 2.1915-5.6263zm-4.6201 7.3817-4.1031-1.7954 2.0373-6.507zm-2.2878 3.5882-3.5295 1.2906 1.5734-6.1506zm6.348 11.283-7.7643-4.8114 1.6441-6.0271zm7.9059 2.8868-7.345 1.1641-0.03175-3.4583zm-0.93476-5.662 8.6366 5.6485-6.9849-0.07937zm10.93-1.6362 5.0135 4.4388-6.6377 2.7585zm9.8158 0.55561 2.6495 7.3426-6.9476-3.448zm0.23627-0.16616 5.9144-2.5069-3.2585 9.8688zm6.5126-10.472 7.0267 3.1278-7.2494 4.3391zm4.7053-6.2102 4.5941 3.2699-1.9608 5.5974zm-0.05291-0.37835 2.7614-3.7202 1.8198 6.9806zm-1.8425-7.749 1.2821-3.9753 3.0538 7.2632zm-0.19261-0.31035-2.9217-5.6659 4.2068 1.6814zm-8.6554-9.0269 6.1176-0.39951-0.77019 3.2855zm-12.113 0.10583 4.3073-5.3416 6.9028 5.0005zm-0.25452-0.12806-2.2177-5.8083 6.4822 0.52201zm-0.2876 0.02646-5.6654-2.2965 3.4729-3.4456zm-12.728 0.97206 2.436-7.0261 4.1348 3.7729zm-6.5351 6.9666 1.7838-7.3005 4.2332 0.70431zm-2.6474 6.2303-2.2875-3.5898 4.4203-1.8859zm-0.12224 0.32649-1.9552 6.2411-0.26273-9.7219zm-2.2513 7.2185-1.5946 6.2324-2.5034-6.2263zm-4.1618-0.27146 0.13229-6.1186 3.9517 6.1118zm6.3036 5.7429-1.5848 5.8091-1.9367-4.5214zm6.3594 11.299-4.8119 0.68155-2.7508-5.368zm0.2614 0.24368 0.03122 3.4086-4.7624-2.7384zm8.0254 2.5455-2.436 5.0987-5.0759-3.9062zm0.28389 0.05159 6.4367 5.9416-8.893-0.79982zm0.31564-0.08731 7.0505 0.07937-0.64319 5.8347zm14.166-2.7961 0.26908 6.5917-6.91-3.8335zm0.27992 0.02408 6.9732 3.4609-6.7044 3.1339zm10.815-6.7555 3.4617 5.413-6.7245 4.4685zm0.24103-0.1397 6.6653 0.97894-3.244 4.3703zm0.12409-0.26273 7.1293-4.2676-0.4638 5.2471zm9.4161-10.17 1.2589 4.4039-3.1591 1.0205zm-1.675-7.4891 3.6107 4.547-1.855 2.1881zm-3.3787-8.2813 4.6894 3.4342-1.6115 3.8827zm-4.8336-2.3614 0.7559-3.2236 3.3773 4.8756zm-5.9795-3.2641-0.81384-4.9254 7.0531 4.5179zm-0.30956-0.1643-6.7203-4.8714 5.9112-0.03651zm-13.674-5.672 4.3886-2.6931 1.8827 3.1985zm-4.2139 3.657-4.0618-3.7081 7.5167 0.28283zm-7.147 3.53-4.2171-0.70298 6.6131-6.2007zm-6.5454 7.0968-4.3174-3.5049 6.1271-3.9007zm-0.18335 0.20928-4.4611 1.9044 0.21748-5.3482zm-4.4629 12.684-4.0081-6.1999 3.7306-4.0216zm-1.7364 7.3238-0.76093 3.7927-1.5012-9.419zm0.19314 0.45349 1.8785 4.3846-2.6823-0.37597zm4.8735 10.267-2.831-0.54477 0.18018-4.6301zm5.349 3.2794-2.0108 1.9341-2.7021-4.6436zm0.23997 0.15504 4.8307 3.7181-6.8383-1.7878zm15.763-1.1575 6.8978 3.825-7.5405 2.0259zm14.261 0.75272-0.37755 4.81-6.2181-1.7261zm6.9195-4.5534-3.8282 6.7052-2.7043-2.3627zm3.7803-4.7404 0.02117 3.5112-3.0638 0.58498zm0.76728-5.9795 3.1151-1.0054-3.5541 5.9726zm2.1611-6.1729 1.7687-2.0862-0.57704 6.2544zm-1.9843-7.6878 1.5875-3.8242 2.0576 8.4149zm-3.3768-8.1046 1.1155-1.9478 3.3625 5.2273zm-0.19367-0.22172-3.2998-4.7624 4.4155 2.8154zm-11.072-10.071 3.3406-0.35665 3.3795 4.66zm-6.7833-0.19579-1.8404-3.1257 7.522 3.0905zm-6.9923-0.61488-1.4816-2.595 5.804-0.05768zm-0.29474 0.04551-7.3106-0.27384 5.8242-2.3283zm-14.775 6.0295 2.6177-5.6678 3.7964-0.34633zm-0.47042 0.35427-2.3928-2.2984 5.0503-3.4551zm-0.17938 0.21352-5.9496 3.7877 3.5477-6.0948zm-6.7258 9.8304-2.986-1.6055 3.1988-3.6263zm-0.09419 0.26458-3.6266 3.9089 0.6297-5.5196zm-4.0978 10.961-1.5332 1.2546 1.6512-6.6523zm0.03836 0.32781 1.5652 9.8193-3.2075-8.4739zm4.8463 11.694-0.17965 4.6142-2.5061-4.9907zm3.0794 5.9054 2.5455 4.3756-5.2386-4.8947zm10.738 7.2518-0.11086 2.5347-6.6809-4.3105zm0.2741 0.10821 3.466 1.6211-3.576 0.8747zm9.2338 0.80643 0.10768 3.5551-5.0389-2.6365zm7.9638-2.1259-2.0439 4.8124-5.4053-2.8111zm0.32014-0.04154 6.2155 1.7245-8.2548 3.0789zm7.1918-3.2239 2.6336 2.3018-2.9945 2.3243zm7.1463-4.9299 3.0376-0.57969-6.6536 6.9147zm3.5752-1.3417-0.0209-3.4223 2.8006-1.7113zm0.24606-3.9113 3.3996-5.7128-0.62335 4.0176zm4.3351-12.337 0.39687 4.2004-0.89824 1.2409zm-2.0637-10.523 0.7768 0.72838 0.77707 5.6263zm-3.9375-6.4173 0.73103-0.3667 2.1132 4.7889zm-5.1116-3.3522 1.2829-1.8367 3.1403 4.6566zm-0.19923-0.20082-3.3461-4.6121 4.6301 2.7725zm-7.5339-4.8293-0.02064-2.0052 3.2218 1.6645zm-0.27913-0.05424-7.3637-3.0254 7.3426 0.96677zm-14.566-3.38 1.1723-1.0054 3.8874 0.95566zm-6.4028 2.4013 2.2796-2.4556 3.1522 0.28336zm-0.58895 0.22516-3.452 0.31485 5.6678-2.7016zm-9.4931 3.9671 0.38179-0.85406 3.1681-1.5745zm-4.1584 6.6962-0.23018-2.2341 3.4475-3.2898zm-0.23944 0.39343-2.8574 3.2395 2.6328-5.4199zm-4.2571 10.125-1.8256 0.33945 2.4095-5.4709zm-0.06059 0.29395-1.7462 7.0304-0.11086-6.6851zm1.543 17.502-2.074-1.7068-0.99323-6.3983zm2.908 5.9138-1.3247-0.43629-0.88607-3.9671zm5.662 5.4588-4.4007-2.3955-0.70642-2.3746zm0.80273 0.75352 1.905 2.4291-5.8247-4.5626zm0.71277 0.45772 6.0588 3.9089-3.9647-1.2393zm11.116 3.4818 4.7095 2.4635-8.1855-1.6139zm5.6503-0.93661 5.2712 2.7413-5.1632 0.81887zm13.991-0.12779-2.1399 1.846-4.8153 0.7477zm3.9552-2.767 0.17806 1.1517-2.7659 0.85617zm7.1772-7.4082-2.8453 5.0534-3.62 1.665zm0.79373-0.84242 1.905-3.5189-2.0373 4.8267zm4.0266-10.844 0.71939-0.99349-1.1565 3.802zm0.69187-7.4981v-0.0085l-0.01032-0.07382 0.0717-0.9419 0.07302 2.4391zm-0.19129-1.3869-0.71965-5.2122 0.8911 2.9577zm-2.141-8.1294-1.3136-2.9768 1.8383 3.4684zm-3.9607-6.1467-2.6233-3.8893 3.3466 3.5274zm-8.7631-8.4107 0.17542-0.12673 2.0166 1.4398zm-0.26458-0.15187-1.3636-0.70457 1.5152 0.59477zm-11.511-2.9731 2.5553-0.52519 3.8451 1.3679zm-0.83369-0.11245-3.4795-0.85512 5.8342 0.37041zm-6.5914 0.06376-2.714-0.24394 3.7972-0.68526zm-9.5777 2.4246 1.5528-1.1641 2.5032-0.76939zm-1.2745 0.60853-1.347 0.66938 2.0709-1.2118zm-5.6503 3.8734-1.5978 1.5256 1.8269-2.0373zm-7.4836 10.765-0.71039 0.26458 2.7598-4.4825zm-0.92602 0.63922 0.76728-0.28389-1.9386 4.4015zm-1.9089 11.421 0.04075 2.45-0.14102 0.44528zm0.13229 3.076 0.69902 4.5029-0.96359-3.6739zm3.6464 9.3147 0.89771 4.0189-2.8635-5.639zm2.8802 5.7432 0.62308 2.0952-1.8526-2.5zm13.919 10.788 0.26008 0.41459-2.722-1.1832zm0.69928 0.59107-0.31961-0.50958 5.9244 1.1673zm14.512 0.50058-0.62123 0.70616-3.2522-0.09049zm0.43153-0.06826 3.8769-0.60192-4.4531 1.2541zm8.9578-3.3469 2.2735-0.70325-4.0092 2.2005zm3.6419-1.5081-0.17859-1.1538 3.3223-1.5279zm7.1965-8.6252-0.15557 1.5504-2.1849 2.6066zm3.5983-6.6107 0.56144-0.2704-2.5696 5.0302zm0.7477-0.66859-0.63022 0.30347 1.2668-4.1653z" fill="url(#c)"/>
  <path id="body-outer" d="m90.422-18.229c-2.7667-6.6473-8.3702-13.824-12.77-16.092 3.5813 7.0113 5.6538 14.047 6.4459 19.297 0-0.01508 3e-3 0.01297 0.01 0.0598 3e-3 0.02275 7e-3 0.04604 0.0106 0.06879 6.0059 16.263 2.7342 32.801-1.9809 42.907-7.2954 15.637-24.957 31.662-52.601 30.88-29.868-0.84453-56.179-22.979-61.091-51.971-0.8948-4.5716 0-6.8931 0.44978-10.605-0.54874 2.8617-0.75749 3.6882-1.0319 8.7726 0 0.10848-0.0066 0.2159-0.0066 0.32464 2.65e-4 35.111 28.501 63.574 63.659 63.574a63.648 63.648 0 0 0 62.746-52.817c0.10794-0.81384 0.1942-1.6319 0.28945-2.4526 1.2655-10.903-0.1405-22.363-4.129-31.946z" fill="url(#d)"/>
  <path id="body-outer-shadow-overlay" d="m90.422-18.229c-2.7667-6.6473-8.3702-13.824-12.77-16.092 3.5813 7.0113 5.6538 14.047 6.4459 19.297 0-0.01508 3e-3 0.01297 0.01 0.0598 3e-3 0.02275 7e-3 0.04604 0.0106 0.06879 6.0059 16.263 2.7342 32.801-1.9809 42.907-7.2954 15.637-24.957 31.662-52.601 30.88-29.868-0.84453-56.179-22.979-61.091-51.971-0.8948-4.5716 0-6.8931 0.44978-10.605-0.54874 2.8617-0.75749 3.6882-1.0319 8.7726 0 0.10848-0.0066 0.2159-0.0066 0.32464 2.65e-4 35.111 28.501 63.574 63.659 63.574a63.648 63.648 0 0 0 62.746-52.817c0.10794-0.81384 0.1942-1.6319 0.28945-2.4526 1.2655-10.903-0.1405-22.363-4.129-31.946z" fill="url(#e)"/>
  <path id="body-center" d="m-31.554 6.9202c4.9116 28.992 31.223 51.127 61.091 51.971 27.644 0.78183 45.305-15.244 52.6-30.88 4.715-10.107 7.9871-26.643 1.9809-42.907l-2e-3 -0.0069-8e-3 -0.06191c-7e-3 -0.04683-0.0108-0.07488-0.01-0.0598 0 0.01058 4e-3 0.03598 0.0124 0.10583 2.2576 14.726-5.2421 28.993-16.966 38.639-0.0209 0.05-0.03519 0.08281-0.03519 0.08281-22.845 18.579-44.706 11.21-49.132 8.193a36.298 36.298 0 0 1-0.92602-0.46116c-13.319-6.3575-18.821-18.477-17.642-28.871-11.246 0-15.081-9.474-15.081-9.474s10.097-7.191 23.405-0.93687c12.325 5.7924 23.9 0.9374 23.901 0.93687-0.02381-0.51646-11.103-4.9182-15.423-9.169-2.3079-2.2714-3.4038-3.3662-4.3743-4.1877a18.915 18.915 0 0 0-1.6489-1.2435 74.588 74.588 0 0 0-1.3195-0.87311c-4.6428-3.0141-13.877-2.8479-14.181-2.8402h-0.02963c-2.5235-3.1924-2.3455-13.724-2.2016-15.923-0.03043-0.13652-1.8827 0.96042-2.1254 1.1255a46.364 46.364 0 0 0-6.2226 5.3249 55.662 55.662 0 0 0-5.9448 7.1203c0 0.0032-0.0019 0.0066-0.0029 0.0098 0-0.0032 0.0019-0.0066 0.0029-0.01005a53.632 53.632 0 0 0-8.5416 19.261c-0.03069 0.13943-2.2915 10.013-1.1763 15.135z" fill="url(#f)"/>
  <path id="tail-right" d="m53.972-18.167a34.588 34.588 0 0 1 5.9096 7.7024c0.35057 0.26299 0.67758 0.52519 0.95566 0.78104 14.431 13.282 6.8703 32.067 6.306 33.405 11.724-9.6463 19.224-23.913 16.966-38.639-7.1984-17.92-19.404-25.146-29.372-40.88-0.50402-0.79559-1.0078-1.5933-1.4994-2.4341a19.355 19.355 0 0 1-0.70087-1.3152 11.573 11.573 0 0 1-0.9501-2.5151 0.16589 0.16589 0 0 0-0.14446-0.17065 0.21748 0.21748 0 0 0-0.11959 0c-9e-3 0.0032-0.02222 0.01349-0.03175 0.0172-0.01402 0.0056-0.03175 0.01826-0.04657 0.02646-2.4622 1.1716-17.061 24.26 2.7273 44.022z" fill="url(#g)"/>
  <path id="tail-left" d="m29.484-26.885 8.4281 0.5363 5.1188 1.8208 4.2661 1.6745 4.9132 3.5078 4.6283 4.878 1.6078 3.0339c0.2159 0.13229 0.66144 0.41962 1.0403 0.67679 0.1389 0.09737 0.26458 0.19446 0.39687 0.29104a34.588 34.588 0 0 0-5.9096-7.7024c-19.79-19.762-5.1908-42.85-2.7281-44.023 0.0071-0.0095 0.02196-0.03096 0.02646-0.03598-15.991 9.3544-21.416 26.659-21.914 35.316l-0.0024 0.04842z" fill="url(#h)"/>
  <path id="ear" d="m8.8686-22.282a64.38 64.38 0 0 1 1.3195 0.87311 29.423 29.423 0 0 1-0.17859-15.539c-6.5393 2.9741-11.626 7.6754-15.323 11.827 0.30585-0.0087 9.5396-0.17489 14.182 2.8392z" fill="url(#i)"/>
  <path id="tufts" d="m2.9368 11.163s2.9395-10.938 21.042-10.938c1.9579 0 7.5511-5.453 7.6542-7.0351 0 0-11.575 4.855-23.899-0.93661-13.308-6.2546-23.402 0.93661-23.402 0.93661s3.8364 9.4745 15.081 9.4745c-1.1774 10.393 4.3232 22.513 17.642 28.871 0.29897 0.14287 0.57943 0.29633 0.88369 0.43391-7.7786-4.0137-14.197-11.596-15.002-20.806z" fill="url(#j)"/>
  <path id="tail-flame-small" d="m60.838-9.6839c-0.27807-0.25585-0.60509-0.51804-0.95566-0.78104-0.12964-0.0971-0.25664-0.1942-0.39687-0.29104-3.399-2.3849-9.4854-4.7404-15.349-3.7218 22.897 11.433 16.75 50.805-14.978 49.317a28.303 28.303 0 0 1-8.2831-1.5954 35.19 35.19 0 0 1-1.8698-0.76357c-0.3593-0.16377-0.71806-0.32887-1.0729-0.51222 0.0127 9e-3 0.03016 0.01879 0.04313 0.02646 4.4261 3.0162 26.287 10.386 49.132-8.1929 0 0 0.01429-0.03281 0.03519-0.08281 0.5654-1.3356 8.1265-20.121-6.3049-33.403z" fill="url(#k)"/>
  <path id="highlight-overlay" d="m90.417-18.232c-2.7667-6.6473-8.3705-13.824-12.771-16.092 3.5813 7.0113 5.654 14.047 6.4462 19.297 0 0.01058 4e-3 0.03598 0.0124 0.10583-7.197-17.92-19.404-25.146-29.372-40.88-0.5027-0.79585-1.0078-1.5933-1.4996-2.4341a19.343 19.343 0 0 1-0.7006-1.3152 11.577 11.577 0 0 1-0.94957-2.5135 0.16563 0.16563 0 0 0-0.14472-0.17039 0.21642 0.21642 0 0 0-0.11932 0c-9e-3 0.0032-0.02222 0.01349-0.03175 0.0172-0.01402 0.0056-0.03175 0.01826-0.04657 0.02646 0.0069-0.0095 0.02196-0.03096 0.02646-0.03598-15.991 9.3544-21.413 26.71-21.912 35.367l0.12911-0.02328 8.4281 0.5363 4.7434 1.6872 4.6415 1.8081 4.9132 3.5078 4.6227 4.8754s1.5912 2.9863 1.6139 3.0366c-3.6893-2.1941-9.0507-3.9621-14.314-3.0477 22.897 11.433 16.75 50.805-14.978 49.317a28.293 28.293 0 0 1-8.2855-1.5973 34.873 34.873 0 0 1-1.8698-0.76331c-0.3593-0.16377-0.71806-0.32914-1.0729-0.51222 0.0127 9e-3 0.03016 0.01879 0.04313 0.02778a36.298 36.298 0 0 1-0.92602-0.46116c0.29765 0.14208 0.57757 0.29712 0.88316 0.43338-7.7744-4.0129-14.194-11.597-14.995-20.807 0 0 2.9384-10.936 21.04-10.936 1.9579 0 7.5516-5.454 7.6556-7.0359-0.02381-0.51646-11.103-4.9182-15.423-9.169-2.3079-2.2714-3.4038-3.3662-4.3743-4.1877a18.915 18.915 0 0 0-1.6488-1.2435 29.423 29.423 0 0 1-0.17859-15.539c-6.5393 2.9741-11.626 7.6754-15.324 11.827h-0.02937c-2.5235-3.1924-2.3455-13.724-2.2018-15.923-0.03016-0.13652-1.8825 0.96042-2.1254 1.1255a46.381 46.381 0 0 0-6.221 5.3233 55.684 55.684 0 0 0-5.9445 7.1201 0.068526 0.068526 0 0 1-0.0029 0.0098 0.071965 0.071965 0 0 0 0.0029-0.01005 53.636 53.636 0 0 0-8.5416 19.261c-0.03043 0.13784-0.05609 0.28072-0.08599 0.41962-0.11959 0.55985-0.65827 3.4004-0.73341 4.0099-0.0058 0.04657 0.0056-0.04683 0 0a73.851 73.851 0 0 0-0.93872 8.871c0 0.10848-0.0069 0.2159-0.0069 0.32464 0 35.111 28.501 63.574 63.657 63.574a63.649 63.649 0 0 0 62.747-52.815c0.10795-0.81384 0.19421-1.6319 0.28945-2.4526 1.2652-10.903-0.14049-22.363-4.129-31.946zm-6.315 3.2649c3e-3 0.02275 7e-3 0.04604 0.0106 0.06879l-2e-3 -0.0069c-3e-3 -0.02196-6e-3 -0.04154-8e-3 -0.06191z" fill="url(#l)"/>
  <path id="line-chin" d="m31.633-6.8093s-0.26987 0.11298-0.76728 0.28336c-1.2435 2.1015-5.6644 6.1118-7.3553 6.1051-18.102-0.07937-21.087 10.738-21.087 10.738a23.108 23.108 0 0 0 3.5453 10.388 23.289 23.289 0 0 1-3.031-9.5431s2.9384-10.936 21.041-10.936c1.9579 0 7.5513-5.454 7.6556-7.0359z" fill="url(#m)"/>
  <path id="line-tail-right" d="m84.118-14.896-2e-3 -0.0063c-3e-3 -0.0217-6e-3 -0.04154-9e-3 -0.06165a0.55985 0.55985 0 0 0-9e-3 -0.06006 1.5356 1.5356 0 0 0 0.0119 0.10583 63.245 63.245 0 0 0-1.3673-3.1485c-0.16192-0.34766-0.33575-0.67282-0.5027-1.0123-0.31749-0.65218-0.63499-1.3057-0.96756-1.9296-0.20505-0.38523-0.42068-0.75061-0.63049-1.1255-0.30771-0.54926-0.61276-1.102-0.92999-1.6314-0.23257-0.38708-0.4728-0.75775-0.70907-1.135-0.30929-0.49264-0.61753-0.98688-0.93476-1.4642-0.25082-0.37808-0.50799-0.74426-0.76357-1.1133-0.31564-0.45587-0.63128-0.91226-0.95248-1.3568-0.2667-0.36697-0.53762-0.72574-0.80749-1.0848a92.377 92.377 0 0 0-0.9718-1.2766q-0.42041-0.53815-0.84665-1.067a128.75 128.75 0 0 0-0.99243-1.2221q-0.43497-0.52625-0.87496-1.0485c-0.15875-0.18891-0.3175-0.38284-0.47624-0.57122 0.0688 0.08175 0.1352 0.16668 0.20346 0.24923-5.5152-6.5063-11.501-12.502-16.847-20.941-0.50482-0.79532-1.0086-1.593-1.4996-2.4341a19.067 19.067 0 0 1-0.70087-1.3152 12.991 12.991 0 0 1-0.87575-2.2315c-0.01111-0.04101-0.03122-0.10345-0.03836-0.13467-0.02169-0.08414-0.03519-0.14816-0.03519-0.14816a0.16668 0.16668 0 0 0-0.14499-0.17065 0.2241 0.2241 0 0 0-0.11932 0c-9e-3 0.0032-0.02249 0.01376-0.03228 0.01773-0.0098 4e-3 -0.03122 0.01773-0.0463 0.02487a1.9595 1.9595 0 0 0-0.38628 0.28363 4.5685 4.5685 0 0 0-0.09207 0.08228 6.6261 6.6261 0 0 0-0.50349 0.53101c-0.0064 0.0071-0.01138 0.01111-0.01773 0.01826 0.0016-0.0016 0.0032-0.0016 0.0048-0.0032-3.8139 4.483-13.553 23.967 2.143 41.442-14.695-17.289-5.435-35.973-1.4102-40.868a14.196 14.196 0 0 0 0.78421 1.923 19.659 19.659 0 0 0 0.70087 1.3152c0.49106 0.84189 0.99508 1.6404 1.4996 2.4341 9.968 15.733 22.173 22.96 29.372 40.88a2.4132 2.4132 0 0 1-0.0119-0.10583 0.45163 0.45163 0 0 1 9e-3 0.06006c3e-3 0.02011 6e-3 0.04022 9e-3 0.06165l3e-3 0.0066c6.0059 16.264 2.7339 32.801-1.9812 42.907a52.746 52.746 0 0 1-10.111 14.499 52.863 52.863 0 0 0 10.881-15.266c4.715-10.107 7.9866-26.644 1.9809-42.908z" fill="url(#a)"/>
  <path id="line-tail-left" d="m51.246-62.191c0.0071-0.0095 0.02196-0.03096 0.02646-0.03598-14.405 8.4265-20.235 23.303-21.614 32.5 1.5843-8.4972 7.0309-21.477 19.237-29.671 1.0046-1.5864 1.8899-2.5725 2.3502-2.7929z" fill="url(#n)"/>
  <path id="line-tail-flame-small" d="m67.108 23.804s0.01429-0.03281 0.03519-0.08281c0.56434-1.3374 8.1255-20.123-6.306-33.405-0.27807-0.25585-0.60509-0.51804-0.95566-0.78104-0.12964-0.0971-0.25664-0.1942-0.39687-0.29104-3.2847-2.3047-9.0793-4.5814-14.757-3.8126l-0.01376 0.0016q-0.28918 0.03969-0.57837 0.08916c22.639 11.304 16.884 49.919-13.915 49.351 0.08361 4e-3 0.16748 0.01058 0.25082 0.01402 31.223 1.2218 37.374-37.064 15.682-49.068 4.701-0.04604 9.2481 1.6705 12.056 3.4813 0.14261 0.09181 0.27357 0.18362 0.40666 0.27569 0.36062 0.24897 0.69769 0.4982 0.98555 0.7432 14.942 12.707 8.1215 31.773 7.6101 33.133a19.125 19.125 0 0 1-0.03175 0.08414" fill="url(#o)"/>
  <path id="line-tufts" d="m7.9029-7.1114c10.419 4.5137 20.089 1.6457 23.018 0.5662-2.6987 0.93132-12.671 3.7411-23.188-1.2012-11.964-5.6223-21.33-0.38099-23.103 0.73553l-0.08467 0.05292-0.06879 0.04498-0.05292 0.03439-0.03439 0.02117-0.02381 0.01587 0.03175 0.06879 0.03704 0.08202v0.01588l0.05556 0.11906c0.08996 0.1905 0.22754 0.46301 0.41803 0.79373 1.4128 2.5003 5.6699 8.3686 14.523 8.3686-1.143 10.083 4.0004 21.788 16.467 28.283-11.906-6.879-16.933-19.314-15.531-29.233-9.1967-0.24341-13.311-5.7572-14.486-8.0934 3.3443-1.7727 11.835-5.0878 22.021-0.67467z" fill="url(#p)"/>
  <path id="line-ear" d="m10.178-21.445q-0.15028-0.0881-0.31114-0.18097 0.16615 0.11112 0.32093 0.21642c-0.0034-0.01191-0.0071-0.02355-0.0098-0.03545zm-0.06535-0.23336a29.461 29.461 0 0 1-0.10345-15.27c-6.1991 2.8193-11.09 7.1902-14.733 11.174 3.4686-3.3787 7.9619-7.0042 13.435-9.4883-0.33866 2.5984-0.63049 7.9178 1.4015 13.584z" fill="url(#q)"/>
  <path id="line-body-outer" d="m-30.02 13.584c-0.01773-0.06059-0.03334-0.12144-0.05053-0.1823a58.403 58.403 0 0 1-1.4843-6.4822c-0.48577-2.2304-0.33072-5.3619 0-8.1985-0.24579 1.4724-0.39978 2.9688-0.58207 6.366 0 0.10848-0.0066 0.2159-0.0066 0.32464 0 27.786 17.851 51.404 42.721 60.052-21.559-8.2562-37.53-28.014-40.597-51.879z" fill="url(#r)"/>
  <path id="line-body-head" d="m-30.529 7.1766c-1.1149-5.1212 1.1459-14.995 1.1763-15.134a53.63 53.63 0 0 1 8.5416-19.261l-0.0029 0.01005c0-0.0032 0.0019-0.0066 0.0029-0.0098a55.684 55.684 0 0 1 5.9451-7.1203 46.362 46.362 0 0 1 6.221-5.3233 7.7275 7.7275 0 0 1 0.26855-0.16774c-0.02196 4.8365 0.25241 12.997 2.4931 15.673h0.02937c0.30691-0.01587 9.5716-0.42465 14.312 2.4664a72.304 72.304 0 0 1 1.3472 0.83712 19.009 19.009 0 0 1 1.6875 1.1991c0.99587 0.79585 2.1246 1.8616 4.501 4.0716 3.4395 3.199 10.942 6.3819 14.181 7.8982-3.1562-1.5898-10.603-4.9868-13.963-8.2927-2.3079-2.2714-3.4038-3.3662-4.3743-4.1877a18.915 18.915 0 0 0-1.6489-1.2435 74.588 74.588 0 0 0-1.3195-0.87311c-4.6428-3.0141-13.877-2.8482-14.181-2.8402h-0.02963c-2.3066-2.9178-2.3561-11.963-2.2378-15.177 0.0048-0.12382 0.0095-0.23812 0.01429-0.34395l0.0056-0.1135a31.694 31.694 0 0 1 0.0048-0.09419c4e-3 -0.06932 0.0077-0.13626 0.01164-0.1942-0.0019-0.0082-0.01111-0.01138-0.02513-0.01111-0.0048 0-0.0127 0.0024-0.01879 0.0032a0.2704 0.2704 0 0 0-0.03995 9e-3c-0.01032 0.0029-0.02302 0.0079-0.03492 0.01217a1.1284 1.1284 0 0 0-0.10319 0.04154l-0.06191 0.02805a4.3907 4.3907 0 0 0-0.13097 0.0635l-0.07937 0.03995-0.06482 0.03387-0.09498 0.04974-0.05291 0.02884c-0.56117 0.30188-1.2734 0.72865-1.4176 0.82681a46.364 46.364 0 0 0-6.2237 5.323 55.662 55.662 0 0 0-5.9448 7.1203c0 0.0032-0.0019 0.0066-0.0029 0.0098 0-0.0032 0.0019-0.0066 0.0029-0.01005a53.632 53.632 0 0 0-8.5417 19.261c-0.03069 0.13785-2.2915 10.012-1.1763 15.134 4.1803 24.672 23.859 44.375 48.038 50.22-23.708-6.1472-42.892-25.641-47.012-49.963z" fill="url(#s)"/>
  <path id="line-body-tail" d="m90.422-18.229c-2.441-5.8649-7.0907-12.14-11.173-15.094l-0.11245-0.07937q-0.1897-0.13441-0.37781-0.25982-0.0714-0.04762-0.14288-0.09419-0.17859-0.11509-0.35479-0.22066c-0.0455-0.02646-0.0913-0.05609-0.13679-0.08255a11.249 11.249 0 0 0-0.47254-0.26088c0.17198 0.33654 0.33734 0.67309 0.5027 1.0096a104.48 104.48 0 0 1 0.30374 0.62784c3.0871 6.4597 4.9098 12.818 5.64 17.659 0 0.01058 4e-3 0.03598 0.0124 0.10583 2.2576 14.726-5.2421 28.993-16.966 38.639-0.0209 0.05-0.03519 0.08281-0.03519 0.08281-14.573 11.853-28.744 13.144-38.246 11.743 9.4682 1.7684 24.403 1.0229 39.784-11.486l0.0352-0.08281c11.724-9.6463 19.224-23.913 16.966-38.639a3.3212 3.3212 0 0 1-0.0124-0.10583c-0.64849-4.2973-2.1587-9.7907-4.6486-15.488a42.068 42.068 0 0 1 6.9626 9.918c4.5103 9.1967 6.5454 20.383 5.8829 31.172-0.0497 0.81226-0.0907 1.6213-0.15346 2.4272-3.4575 29.765-28.301 53.668-59.737 55.429a64.996 64.996 0 0 1-12.567-0.51063 64.196 64.196 0 0 0 10.14 0.80669c31.485 0 57.628-22.83 62.746-52.817 0.10794-0.81384 0.1942-1.6319 0.28945-2.4526 1.2655-10.903-0.1405-22.363-4.129-31.946zm-6.3044 3.3337-2e-3 -0.0069-8e-3 -0.06191c3e-3 0.02275 7e-3 0.04604 0.0106 0.06879z" fill="url(#t)"/>
 </g>
</svg>
