<?xml version="1.0" encoding="UTF-8"?>
<svg width="64" height="64" version="1.1" viewBox="0 0 16.933 16.933" xmlns="http://www.w3.org/2000/svg" xmlns:xlink="http://www.w3.org/1999/xlink">
 <defs>
  <linearGradient id="linearGradient924" x1="162.61" x2="162.61" y1="15.335" y2="27.41" gradientTransform="matrix(.54606 0 0 .54606 -64.993 .84862)" gradientUnits="userSpaceOnUse" xlink:href="#linearGradient922"/>
  <linearGradient id="linearGradient922">
   <stop stop-color="#91aab4" offset="0"/>
   <stop stop-color="#648291" offset="1"/>
  </linearGradient>
  <linearGradient id="linearGradient951" x1="156.58" x2="168.85" y1="15.3" y2="27.534" gradientTransform="matrix(.54606 0 0 .54606 -64.993 .87312)" gradientUnits="userSpaceOnUse" xlink:href="#linearGradient922"/>
  <linearGradient id="linearGradient965" x1="162.73" x2="163.37" y1="20.333" y2="19.09" gradientTransform="matrix(.63004 0 0 .63004 -77.215 -.94168)" gradientUnits="userSpaceOnUse">
   <stop stop-color="#fafafa" offset="0"/>
   <stop stop-color="#c8e6f0" offset="1"/>
  </linearGradient>
 </defs>
 <g transform="matrix(1.7768 0 0 1.7768 -33.954 -13.777)">
  <g fill="#5a7882" stroke-width=".54606">
   <path d="m23.223 8.3496h1.3162c0.12811 0 0.21431 0.10426 0.23125 0.23125l0.14513 1.0882c0.01693 0.12699-0.10314 0.23124-0.23125 0.23124h-1.6306c-0.12811 0-0.25095-0.10466-0.23125-0.23124l0.16931-1.0882c0.01971-0.12659 0.10314-0.23125 0.23126-0.23125z"/>
   <path d="m23.223 16.689h1.3162c0.12811 0 0.21431-0.10426 0.23125-0.23124l0.14513-1.0882c0.01693-0.12699-0.10314-0.23125-0.23125-0.23125h-1.6306c-0.12811 0-0.25095 0.10466-0.23125 0.23125l0.16931 1.0882c0.01971 0.12659 0.10314 0.23124 0.23126 0.23124z"/>
   <path d="m27.155 9.8756 0.65811 1.1399c0.06405 0.11095 0.01687 0.23773-0.08464 0.3159l-0.86982 0.6698c-0.10151 0.07815-0.25184 0.0263-0.31589-0.08464l-0.81532-1.4122c-0.06405-0.11095-0.03484-0.26966 0.08465-0.3159l1.027-0.39747c0.11949-0.04622 0.25184-0.02631 0.3159 0.08465z"/>
   <path d="m19.936 14.045 0.65811 1.1399c0.06406 0.11095 0.19745 0.13347 0.31589 0.08464l1.015-0.41841c0.11844-0.04884 0.1487-0.20495 0.08464-0.3159l-0.81532-1.4122c-0.06406-0.11095-0.21611-0.165-0.3159-0.08464l-0.85775 0.69071c-0.09977 0.08037-0.14869 0.20495-0.08463 0.3159z"/>
   <path d="m27.815 14.045-0.65811 1.1399c-0.06406 0.11094-0.19744 0.13348-0.3159 0.08464l-1.015-0.41841c-0.11843-0.04883-0.1487-0.20495-0.08464-0.31589l0.81532-1.4122c0.06406-0.11094 0.21611-0.165 0.3159-0.08464l0.85775 0.69071c0.09978 0.08037 0.1487 0.20495 0.08464 0.3159z"/>
   <path d="m20.597 9.8756-0.65811 1.1399c-0.06405 0.11095-0.01687 0.23773 0.08464 0.31589l0.86982 0.6698c0.10151 0.07815 0.25184 0.0263 0.31589-0.08464l0.81532-1.4122c0.06405-0.11095 0.03484-0.26966-0.08464-0.3159l-1.027-0.39747c-0.11948-0.04622-0.25184-0.0263-0.31589 0.08466z"/>
  </g>
  <g stroke-dashoffset=".42096">
   <circle cx="23.867" cy="12.519" r="3.3384" fill="url(#linearGradient924)" stroke="url(#linearGradient951)" stroke-width=".043342"/>
   <circle transform="rotate(90)" cx="12.519" cy="-23.867" r="1.8783" fill="#2a495d" stroke="#4f6c7a" stroke-width=".96199"/>
   <path d="m23.867 14.398a1.8783 1.8783 0 0 1-1.8622-1.6328 1.8783 1.8783 0 0 1 1.3753-2.0597 1.8783 1.8783 0 0 1 2.2219 1.0942" fill="none" stroke="#00a2f3" stroke-width=".96199"/>
  </g>
  <circle cx="25.462" cy="11.502" r=".73461" fill="url(#linearGradient965)" stroke-width=".54606"/>
 </g>
</svg>
