<?xml version="1.0" encoding="UTF-8"?>
<svg width="64" height="64" version="1.1" viewBox="0 0 16.933 16.933" xmlns="http://www.w3.org/2000/svg">
 <defs>
  <linearGradient id="b" x1="148.93" x2="155.51" y1="873.19" y2="886.31" gradientTransform="matrix(.73261 0 0 .73261 238.52 -125.13)" gradientUnits="userSpaceOnUse">
   <stop stop-color="#e6b793" offset="0"/>
   <stop stop-color="#ea9f68" offset="1"/>
  </linearGradient>
  <linearGradient id="c-7" x1="58.184" x2="64.173" y1="992.95" y2="979.05" gradientTransform="matrix(.73261 0 0 .73261 325.39 -203.62)" gradientUnits="userSpaceOnUse">
   <stop stop-color="#da9e61" offset="0"/>
   <stop stop-color="#ffc08d" offset="1"/>
  </linearGradient>
  <linearGradient id="d" x1="54.138" x2="57.452" y1="1022.3" y2="1020.6" gradientTransform="matrix(.73261 0 0 .73261 325.39 -203.62)" gradientUnits="userSpaceOnUse">
   <stop stop-color="#894e24" offset="0"/>
   <stop stop-color="#75411b" offset="1"/>
  </linearGradient>
  <linearGradient id="e" x1="69.802" x2="65.326" y1="1014" y2="1001.7" gradientTransform="matrix(.73261 0 0 .73261 325.39 -203.62)" gradientUnits="userSpaceOnUse">
   <stop stop-color="#cd7b3c" offset="0"/>
   <stop stop-color="#d99663" offset="1"/>
  </linearGradient>
  <linearGradient id="f" x1="38.672" x2="44.922" y1="1020.1" y2="1022.7" gradientTransform="matrix(.73261 0 0 .73261 325.39 -203.62)" gradientUnits="userSpaceOnUse">
   <stop stop-color="#552c0f" offset="0"/>
   <stop stop-color="#783e16" offset="1"/>
  </linearGradient>
  <linearGradient id="g" x1="26.575" x2="35.322" y1="1014.5" y2="1002.5" gradientTransform="matrix(.73261 0 0 .73261 325.39 -203.62)" gradientUnits="userSpaceOnUse">
   <stop stop-color="#d38755" offset="0"/>
   <stop stop-color="#dda375" offset="1"/>
  </linearGradient>
 </defs>
 <g transform="matrix(.30866 0 0 .30866 -1.4451 -2.3343)" stroke-width="1.1429">
  <g transform="matrix(1.0193,0,0,1.0504,-335.42,-524.68)" stroke-width="1.1429">
   <g transform="matrix(1.0504,0,0,1.0504,-18.149,23.425)" opacity=".03">
    <path d="m374 480.17-7e-4 16.353-13.474 8.4529-0.0655-16.408z"/>
    <path d="m346.92 480.17 7e-4 16.353 13.601 8.4644-0.0617-16.42z"/>
   </g>
   <g transform="matrix(1.0466,0,0,1.0466,-16.799,25.224)" opacity=".03">
    <path d="m374 480.17-7e-4 16.353-13.474 8.4529-0.0655-16.408z"/>
    <path d="m346.92 480.17 7e-4 16.353 13.601 8.4644-0.0617-16.42z"/>
   </g>
   <g transform="matrix(1.043,0,0,1.043,-15.503,26.951)" opacity=".03">
    <path d="m374 480.17-7e-4 16.353-13.474 8.4529-0.0655-16.408z"/>
    <path d="m346.92 480.17 7e-4 16.353 13.601 8.4644-0.0617-16.42z"/>
   </g>
   <g transform="matrix(1.0393,0,0,1.0393,-14.152,28.749)" opacity=".03">
    <path d="m374 480.17-7e-4 16.353-13.474 8.4529-0.0655-16.408z"/>
    <path d="m346.92 480.17 7e-4 16.353 13.601 8.4644-0.0617-16.42z"/>
   </g>
   <g transform="matrix(1.0358,0,0,1.0358,-12.91,30.404)" opacity=".03">
    <path d="m374 480.17-7e-4 16.353-13.474 8.4529-0.0655-16.408z"/>
    <path d="m346.92 480.17 7e-4 16.353 13.601 8.4644-0.0617-16.42z"/>
   </g>
   <g transform="matrix(1.0325,0,0,1.0325,-11.722,31.987)" opacity=".03">
    <path d="m374 480.17-7e-4 16.353-13.474 8.4529-0.0655-16.408z"/>
    <path d="m346.92 480.17 7e-4 16.353 13.601 8.4644-0.0617-16.42z"/>
   </g>
   <g transform="matrix(1.0294,0,0,1.0294,-10.587,33.499)" opacity=".03">
    <path d="m374 480.17-7e-4 16.353-13.474 8.4529-0.0655-16.408z"/>
    <path d="m346.92 480.17 7e-4 16.353 13.601 8.4644-0.0617-16.42z"/>
   </g>
   <g transform="matrix(1.0264,0,0,1.0264,-9.5069,34.938)" opacity=".03">
    <path d="m374 480.17-7e-4 16.353-13.474 8.4529-0.0655-16.408z"/>
    <path d="m346.92 480.17 7e-4 16.353 13.601 8.4644-0.0617-16.42z"/>
   </g>
   <g transform="matrix(1.0235,0,0,1.0235,-8.4806,36.305)" opacity=".03">
    <path d="m374 480.17-7e-4 16.353-13.474 8.4529-0.0655-16.408z"/>
    <path d="m346.92 480.17 7e-4 16.353 13.601 8.4644-0.0617-16.42z"/>
   </g>
   <g transform="matrix(1.0208,0,0,1.0208,-7.5083,37.6)" opacity=".03">
    <path d="m374 480.17-7e-4 16.353-13.474 8.4529-0.0655-16.408z"/>
    <path d="m346.92 480.17 7e-4 16.353 13.601 8.4644-0.0617-16.42z"/>
   </g>
   <g transform="matrix(1.018,0,0,1.018,-6.4819,38.967)" opacity=".03">
    <path d="m374 480.17-7e-4 16.353-13.474 8.4529-0.0655-16.408z"/>
    <path d="m346.92 480.17 7e-4 16.353 13.601 8.4644-0.0617-16.42z"/>
   </g>
   <g transform="matrix(1.0153,0,0,1.0153,-5.5097,40.262)" opacity=".03">
    <path d="m374 480.17-7e-4 16.353-13.474 8.4529-0.0655-16.408z"/>
    <path d="m346.92 480.17 7e-4 16.353 13.601 8.4644-0.0617-16.42z"/>
   </g>
   <g transform="matrix(1.0127,0,0,1.0127,-4.5914,41.486)" opacity=".03">
    <path d="m374 480.17-7e-4 16.353-13.474 8.4529-0.0655-16.408z"/>
    <path d="m346.92 480.17 7e-4 16.353 13.601 8.4644-0.0617-16.42z"/>
   </g>
   <g transform="matrix(1.01,0,0,1.01,-3.6191,42.781)" opacity=".03">
    <path d="m374 480.17-7e-4 16.353-13.474 8.4529-0.0655-16.408z"/>
    <path d="m346.92 480.17 7e-4 16.353 13.601 8.4644-0.0617-16.42z"/>
   </g>
   <g transform="matrix(1.0073,0,0,1.0073,-2.6468,44.076)" opacity=".03">
    <path d="m374 480.17-7e-4 16.353-13.474 8.4529-0.0655-16.408z"/>
    <path d="m346.92 480.17 7e-4 16.353 13.601 8.4644-0.0617-16.42z"/>
   </g>
   <g transform="matrix(1.0049,0,0,1.0049,-1.7825,45.227)" opacity=".03">
    <path d="m374 480.17-7e-4 16.353-13.474 8.4529-0.0655-16.408z"/>
    <path d="m346.92 480.17 7e-4 16.353 13.601 8.4644-0.0617-16.42z"/>
   </g>
   <g transform="matrix(1.0025 0 0 1.0025 -.91828 46.378)" opacity=".03">
    <path d="m374 480.17-7e-4 16.353-13.474 8.4529-0.0655-16.408z"/>
    <path d="m346.92 480.17 7e-4 16.353 13.601 8.4644-0.0617-16.42z"/>
   </g>
  </g>
  <g transform="matrix(1.0504,0,0,1.0504,-346.62,-524.68)" stroke-width="1.1429">
   <path d="m360.46 519.38 13.566 8.3971-13.474 8.4528-13.633-8.4528z" fill="#925c36"/>
   <path d="m337.71 520.17 13.566-8.3971 9.2132 7.5853-13.563 8.4182z" fill="url(#b)"/>
   <path d="m360.47 519.37 13.595 8.4145 9.2826-7.5506-13.633-8.4528z" fill="url(#c-7)"/>
   <path d="m360.46 519.38-7e-4 14.41-13.474 8.4529-0.0655-14.466z" fill="#894e24"/>
   <path d="m360.46 519.38 7e-4 14.41 13.474 8.4529 0.0655-14.466z" fill="#783e16"/>
   <path d="m374 527.77-7e-4 16.353-13.474 8.4529-0.0655-16.408z" fill="url(#d)"/>
   <path d="m360.56 536.18 13.566-8.3972 9.2826 7.5506-13.633 8.4529z" fill="url(#e)"/>
   <path d="m346.92 527.77 7e-4 16.353 13.601 8.4644-0.0617-16.42z" fill="url(#f)"/>
   <path d="m337.71 535.38 13.566 8.3972 9.2826-7.5506-13.633-8.4528z" fill="url(#g)"/>
  </g>
  <g fill="#fbdf45">
   <path d="m17.774 29.685 14.289 8.8554 14.259-8.8287-14.32-8.8523z" opacity=".7"/>
   <path d="m17.774 25.685 14.289 8.8554 14.259-8.8287-14.32-8.8523z" opacity=".7"/>
   <path d="m17.778 25.688 0.0312 4.0373 14.312 8.8437 14.203-8.8437 0.0053-4.0195-14.269 8.8356z" opacity=".35"/>
  </g>
 </g>
</svg>
