<?xml version="1.0" encoding="UTF-8" standalone="no"?>
<svg
   xmlns:dc="http://purl.org/dc/elements/1.1/"
   xmlns:cc="http://creativecommons.org/ns#"
   xmlns:rdf="http://www.w3.org/1999/02/22-rdf-syntax-ns#"
   xmlns:svg="http://www.w3.org/2000/svg"
   xmlns="http://www.w3.org/2000/svg"
   xmlns:xlink="http://www.w3.org/1999/xlink"
   xmlns:sodipodi="http://sodipodi.sourceforge.net/DTD/sodipodi-0.dtd"
   xmlns:inkscape="http://www.inkscape.org/namespaces/inkscape"
   inkscape:version="1.0 (4035a4fb49, 2020-05-01)"
   sodipodi:docname="goland.svg"
   id="svg43"
   viewBox="0 0 16.933 16.933"
   version="1.1"
   height="64"
   width="64">
  <metadata
     id="metadata47">
    <rdf:RDF>
      <cc:Work
         rdf:about="">
        <dc:format>image/svg+xml</dc:format>
        <dc:type
           rdf:resource="http://purl.org/dc/dcmitype/StillImage" />
        <dc:title></dc:title>
      </cc:Work>
    </rdf:RDF>
  </metadata>
  <sodipodi:namedview
     inkscape:current-layer="svg43"
     inkscape:window-maximized="1"
     inkscape:window-y="0"
     inkscape:window-x="0"
     inkscape:cy="-4.6928109"
     inkscape:cx="-19.274009"
     inkscape:zoom="3.1875"
     showgrid="false"
     id="namedview45"
     inkscape:window-height="985"
     inkscape:window-width="1920"
     inkscape:pageshadow="2"
     inkscape:pageopacity="0"
     guidetolerance="10"
     gridtolerance="10"
     objecttolerance="10"
     borderopacity="1"
     bordercolor="#666666"
     pagecolor="#ffffff" />
  <defs
     id="defs15">
    <linearGradient
       id="linearGradient995"
       inkscape:collect="always">
      <stop
         id="stop991"
         offset="0"
         style="stop-color:#b54df8;stop-opacity:1" />
      <stop
         style="stop-color:#bb4dff;stop-opacity:1"
         offset="0.52115548"
         id="stop1001" />
      <stop
         style="stop-color:#7965fe;stop-opacity:1"
         offset="0.67734903"
         id="stop999" />
      <stop
         id="stop993"
         offset="1"
         style="stop-color:#1089f5;stop-opacity:1" />
    </linearGradient>
    <linearGradient
       id="linearGradient979"
       inkscape:collect="always">
      <stop
         id="stop975"
         offset="0"
         style="stop-color:#ba4af7;stop-opacity:1" />
      <stop
         id="stop985"
         offset="0.32743764"
         style="stop-color:#616dff;stop-opacity:1" />
      <stop
         style="stop-color:#0e9ee6;stop-opacity:1"
         offset="0.62712741"
         id="stop987" />
      <stop
         id="stop977"
         offset="1"
         style="stop-color:#39eb63;stop-opacity:1" />
    </linearGradient>
    <filter
       color-interpolation-filters="sRGB"
       height="1.12"
       width="1.12"
       y="-.06"
       x="-.06"
       id="h">
      <feGaussianBlur
         id="feGaussianBlur2"
         stdDeviation="0.85" />
    </filter>
    <linearGradient
       gradientUnits="userSpaceOnUse"
       gradientTransform="matrix(0.26458,0,0,0.26458,0,-18.514763)"
       y2="49"
       y1="15"
       x2="32"
       x1="32"
       id="g">
      <stop
         id="stop5"
         offset="0"
         stop-color="#303030" />
      <stop
         id="stop7"
         offset="1"
         stop-color="#424242" />
    </linearGradient>
    <linearGradient
       gradientUnits="userSpaceOnUse"
       gradientTransform="translate(1111.2,-18.514763)"
       y2="2.0085"
       y1="14.87"
       x2="7.6938"
       x1="7.6938"
       id="linearGradient912">
      <stop
         id="stop10"
         offset="0"
         stop-color="#3aea62" />
      <stop
         id="stop12"
         offset="1"
         stop-color="#b763fd" />
    </linearGradient>
    <linearGradient
       id="linearGradient11422"
       x1="-6.1472"
       x2="-6.1472"
       y1="-137.82"
       y2="-100.78"
       gradientTransform="matrix(0.53033,0,0,0.53033,46.927017,71.861)"
       gradientUnits="userSpaceOnUse">
      <stop
         stop-color="#32b4ff"
         offset="0"
         id="stop830" />
      <stop
         stop-color="#3287ff"
         offset="1"
         id="stop832" />
    </linearGradient>
    <linearGradient
       gradientTransform="translate(-0.07112012)"
       gradientUnits="userSpaceOnUse"
       y2="9.1241407"
       x2="-26.31234"
       y1="1.7067806"
       x1="-32.875301"
       id="linearGradient981"
       xlink:href="#linearGradient979"
       inkscape:collect="always" />
    <linearGradient
       gradientUnits="userSpaceOnUse"
       y2="11.639184"
       x2="-22.361345"
       y1="14.450466"
       x1="-31.970707"
       id="linearGradient997"
       xlink:href="#linearGradient995"
       inkscape:collect="always" />
  </defs>
  <g
     transform="translate(38.360277)"
     id="g1005">
    <path
       style="fill:url(#linearGradient997);fill-opacity:1;stroke:none;stroke-width:0.264578px;stroke-linecap:butt;stroke-linejoin:miter;stroke-opacity:1"
       d="m -22.361345,11.404718 -3.099892,5.40476 -6.509469,-2.359012 2.157198,-6.9694784 5.199282,-1.0120981 z"
       id="path989" />
    <path
       style="fill:url(#linearGradient981);fill-opacity:1;stroke:none;stroke-width:0.264578px;stroke-linecap:butt;stroke-linejoin:miter;stroke-opacity:1"
       d="m -22.33471,4.7882753 -4.48929,1.1093115 -0.974578,-4.3378772 -5.450038,0.010163 -4.19269,6.5100309 1.230708,2.9695725 -1.242246,2.757164 5.692538,2.947418 5.482619,-5.772572 z"
       id="path973" />
  </g>
  <circle
     style="fill:#5e4aa6;stroke-width:0.26458"
     cx="-330.3772"
     cy="-328.508"
     r="0"
     id="circle837" />
  <circle
     style="fill:#5e4aa6;fill-rule:evenodd;stroke-width:0.26458"
     cx="-39.461197"
     cy="6.3120003"
     r="0"
     id="circle839" />
  <g
     style="fill:#5e4aa6;stroke-width:0.26458"
     id="g855"
     transform="translate(-0.02720003,-0.12799959)">
    <circle
       cx="-306.70001"
       cy="-329.95001"
       r="0"
       id="circle847" />
    <circle
       style="fill-rule:evenodd"
       cx="-15.783"
       cy="4.8765001"
       r="0"
       id="circle849" />
    <circle
       cx="-285.92999"
       cy="-348.85999"
       r="0"
       id="circle851" />
    <circle
       style="fill-rule:evenodd"
       cx="4.9854999"
       cy="-14.033"
       r="0"
       id="circle853" />
  </g>
  <path
     style="fill:#000000;fill-opacity:1;stroke-width:0.26458"
     inkscape:connector-curvature="0"
     id="path4"
     d="m 4.49785,4.49785 h 7.9373 v 7.9373 h -7.9373 z" />
  <path
     style="fill:#f9f9f9;stroke-width:0.26458"
     inkscape:connector-curvature="0"
     id="path8"
     d="m 5.05005,10.95175 h 3.1059 v 0.62118 h -3.1059 z" />
  <g
     transform="translate(0.10706,-0.06445)"
     id="g41"
     aria-label="GO"
     stroke-width="0.1127"
     fill="#ffffff">
    <path
       id="path37"
       d="m 6.8538,8.8866 c 0.46431,0 0.8565,-0.18032 1.0819,-0.4012 V 6.9798 H 6.7501 V 7.52525 H 7.34063 V 8.1834 C 7.245964,8.264542 7.08368,8.30962 6.9259,8.30962 c -0.65815,0 -0.99173,-0.43726 -0.99173,-1.163 0,-0.71675 0.38768,-1.1495 0.94215,-1.1495 0.30203,0 0.49136,0.12171 0.65815,0.27949 L 7.88609,5.85287 C 7.66971,5.63198 7.33613,5.42462 6.85379,5.42462 c -0.88805,0 -1.6003,0.64463 -1.6003,1.7446 0,1.1134 0.69421,1.7175 1.6003,1.7175 z" />
    <path
       id="path39"
       d="m 9.9777,8.8866 c 0.88355,0 1.4921,-0.66266 1.4921,-1.7446 0,-1.0819 -0.60856,-1.7175 -1.4921,-1.7175 -0.88354,0 -1.4921,0.6311 -1.4921,1.7175 0,1.0819 0.60856,1.7446 1.4921,1.7446 z m 0,-0.57701 c -0.49587,0 -0.81142,-0.4553 -0.81142,-1.1675 0,-0.71675 0.31555,-1.145 0.81142,-1.145 0.49587,0 0.81142,0.42825 0.81142,1.145 0,0.71225 -0.31555,1.1675 -0.81142,1.1675 z" />
  </g>
</svg>
