<?xml version="1.0" encoding="UTF-8"?>
<svg width="64" height="64" version="1.1" viewBox="0 0 16.933 16.933" xmlns="http://www.w3.org/2000/svg">
 <defs>
  <linearGradient id="b" x1="520" x2="520.03" y1="44" y2="985.85" gradientTransform="matrix(.016817 0 0 .016817 -.14299 -.14349)" gradientUnits="userSpaceOnUse">
   <stop stop-color="#212427" offset="0"/>
   <stop stop-color="#333132" offset="1"/>
  </linearGradient>
 </defs>
 <path d="m16.163 6.4486c-0.0185-0.073151-0.03952-0.15135-0.06138-0.2287-0.04204-0.14715-0.08997-0.29596-0.1421-0.44312-0.10847-0.30691-0.23795-0.60623-0.3893-0.90221-0.0639-0.12444-0.13369-0.25141-0.20684-0.37668h-4.23e-4q-0.5146-0.87462-1.2835-1.6438c-1.5496-1.5496-3.4213-2.3249-5.6133-2.3249s-4.0629 0.77524-5.6125 2.3249c-1.5496 1.5496-2.3249 3.4205-2.3249 5.6125s0.77524 4.0637 2.3249 5.6133c1.1444 1.1444 2.4636 1.8658 3.9502 2.1634 0.53728 0.10762 1.0889 0.1606 1.6623 0.1606 2.192 0 4.0637-0.77439 5.6133-2.324 0.81728-0.81728 1.4193-1.7237 1.8052-2.7209 0.28588-0.73907 0.45404-1.5269 0.50365-2.3669 0.01009-0.17153 0.01513-0.34726 0.01513-0.52551 0-0.70208-0.07904-1.3722-0.24048-2.018z" fill="url(#b)" stroke-width=".26355"/>
 <path d="m9.2349 4.5884c-0.80734 0.10461-1.675 0.4972-2.3814 1.6602-1.6134 2.6571-1.499 3.5813-1.7562 3.8804-0.25845 0.29783-0.95502 0.45905-0.8541 0.79749 0.10092 0.33721 0.20307 0.29414 0.20307 0.29414s1.0153 1.4719 3.9628 1.0892c2.9475-0.38152 3.3561-1.003 3.329-1.3119-0.02708-0.30768-0.64858-0.53412-0.64858-0.53412s-0.46028-1.6233-0.34213-2.2891c0.11815-0.66704 0.56612-1.6368 1.0104-1.846 0.44305-0.21168 0.66458 0.70519 0.89349 0.47874 0.22768-0.22645-0.38398-1.9728-1.0609-1.9863-0.37906-0.0073842-1.3218-0.36552-2.3556-0.23137m0.0025 2.23 0.22522 0.66458 0.68304 0.19445-0.57847 0.41105 0.025845 0.69781-0.5772-0.40982-0.68058 0.23752 0.21906-0.65842-0.43936-0.55135 0.7175-0.0061535m-1.9014 1.3759 0.024614 0.48243 0.43074 0.25845-0.4652 0.16738-0.11692 0.47751-0.31752-0.37167-0.49597 0.032 0.26583-0.40244-0.18953-0.45167 0.47997 0.12553m2.3076-0.2166 0.46151 0.61781 0.78026-0.03077-0.4529 0.62642 0.2646 0.71257-0.74703-0.23137-0.61535 0.47382-0.00492-0.76796-0.64735-0.42213 0.74211-0.24368" fill="#fff" stroke-width="1.2307"/>
</svg>
