<?xml version="1.0" encoding="UTF-8" standalone="no"?>
<svg
   width="64"
   height="64"
   version="1.1"
   viewBox="0 0 64 64"
   id="svg3473"
   sodipodi:docname="insomnia.svg"
   inkscape:version="1.2.2 (b0a8486541, 2022-12-01)"
   xmlns:inkscape="http://www.inkscape.org/namespaces/inkscape"
   xmlns:sodipodi="http://sodipodi.sourceforge.net/DTD/sodipodi-0.dtd"
   xmlns:xlink="http://www.w3.org/1999/xlink"
   xmlns="http://www.w3.org/2000/svg"
   xmlns:svg="http://www.w3.org/2000/svg">
  <defs
     id="defs3477">
    <linearGradient
       inkscape:collect="always"
       xlink:href="#linearGradient1931"
       id="linearGradient1933"
       x1="2"
       y1="32"
       x2="62"
       y2="32"
       gradientUnits="userSpaceOnUse"
       gradientTransform="translate(-1.0470703e-6)" />
    <linearGradient
       inkscape:collect="always"
       id="linearGradient1931">
      <stop
         style="stop-color:#5e4fc1;stop-opacity:1;"
         offset="0"
         id="stop1927" />
      <stop
         style="stop-color:#6801b6;stop-opacity:1"
         offset="1"
         id="stop1929" />
    </linearGradient>
  </defs>
  <sodipodi:namedview
     id="namedview3475"
     pagecolor="#ffffff"
     bordercolor="#999999"
     borderopacity="1"
     inkscape:showpageshadow="0"
     inkscape:pageopacity="0"
     inkscape:pagecheckerboard="0"
     inkscape:deskcolor="#d1d1d1"
     showgrid="false"
     inkscape:zoom="6.640625"
     inkscape:cx="6.7764706"
     inkscape:cy="13.402353"
     inkscape:window-width="1920"
     inkscape:window-height="1002"
     inkscape:window-x="0"
     inkscape:window-y="0"
     inkscape:window-maximized="1"
     inkscape:current-layer="svg3473" />
  <circle
     cx="32"
     cy="32"
     r="30"
     stroke-width="1.30433"
     id="circle2"
     style="fill:url(#linearGradient1933);fill-opacity:1" />
  <path
     d="m32 14c-9.9412 0-18 8.0588-18 18s8.0588 18 18 18 18-8.0588 18-18-8.0588-18-18-18zm-0.6 2.4c8.2843-0.0036 15 6.7157 15 15s-6.7157 15-15 15-15.006-6.7157-15-15c5.46e-4 -0.76006 0.07074-1.5185 0.19219-2.2687 1.5209 1.083 3.3408 1.668 5.2078 1.6687 4.9705 0.0024 9.0029-4.0295 9-9-0.0011-1.8704-0.59045-3.6931-1.6781-5.2148 0.75356-0.11952 1.5151-0.18485 2.2781-0.18516z"
     fill="#fff"
     stroke-width="1.2"
     style="paint-order:normal"
     id="path3471" />
</svg>
