<?xml version="1.0" encoding="UTF-8" standalone="no"?>
<svg
   width="64"
   height="64"
   version="1.1"
   viewBox="0 0 16.933 16.933"
   id="svg8"
   sodipodi:docname="internet-news-reader.svg"
   inkscape:version="1.2.2 (b0a8486541, 2022-12-01)"
   xmlns:inkscape="http://www.inkscape.org/namespaces/inkscape"
   xmlns:sodipodi="http://sodipodi.sourceforge.net/DTD/sodipodi-0.dtd"
   xmlns="http://www.w3.org/2000/svg"
   xmlns:svg="http://www.w3.org/2000/svg">
  <defs
     id="defs12">
    <linearGradient
       id="linearGradient889"
       x1="-27.781"
       x2="-42.333"
       y1="1.0583"
       y2="15.611"
       gradientTransform="translate(43.5235,0.1321999)"
       gradientUnits="userSpaceOnUse">
      <stop
         stop-color="#ff8c55"
         offset="0"
         id="stop241" />
      <stop
         stop-color="#ff5a1e"
         offset="1"
         id="stop243" />
    </linearGradient>
  </defs>
  <sodipodi:namedview
     id="namedview10"
     pagecolor="#ffffff"
     bordercolor="#999999"
     borderopacity="1"
     inkscape:showpageshadow="0"
     inkscape:pageopacity="0"
     inkscape:pagecheckerboard="0"
     inkscape:deskcolor="#d1d1d1"
     showgrid="false"
     inkscape:zoom="4.695631"
     inkscape:cx="-34.287192"
     inkscape:cy="12.564872"
     inkscape:window-width="1920"
     inkscape:window-height="1002"
     inkscape:window-x="0"
     inkscape:window-y="0"
     inkscape:window-maximized="1"
     inkscape:current-layer="svg8" />
  <rect
     x="1.1904999"
     y="1.1905"
     width="14.552"
     height="14.552"
     ry="0.79377002"
     fill="url(#linearGradient889)"
     stroke-width="0.91671"
     id="rect250"
     style="fill:url(#linearGradient889)" />
  <path
     d="m 3.8947115,12.078785 c 0,-0.283477 0.097992,-0.522624 0.2951423,-0.715108 a 0.97991898,0.97991898 0 0 1 0.7197738,-0.295142 c 0.2776437,0 0.5121243,0.09799 0.7046084,0.295142 0.1971504,0.192484 0.2951423,0.431631 0.2951423,0.716274 A 0.96825328,0.96825328 0 0 1 5.614236,12.790392 0.95892072,0.95892072 0 0 1 4.9096276,13.079702 0.98808497,0.98808497 0 0 1 4.1898538,12.790392 0.95775415,0.95775415 0 0 1 3.8947115,12.078785 M 3.836383,7.5151619 V 9.1961896 A 3.8986777,3.8986777 0 0 1 7.7292278,13.096034 H 9.417255 A 5.5832051,5.5832051 0 0 0 3.836383,7.5151619 Z m 0.00233,-3.6781959 v 1.8583464 a 7.3983883,7.3983883 0 0 1 7.3913889,7.3983886 h 1.866512 A 9.2614009,9.2614009 0 0 0 3.8387161,3.836966 Z"
     fill="#ffffff"
     font-family="'Bitstream Vera Serif'"
     font-size="13.59px"
     font-weight="700"
     overflow="visible"
     id="path989"
     style="stroke-width:1.16657" />
</svg>
