<?xml version="1.0" encoding="UTF-8"?>
<svg xmlns="http://www.w3.org/2000/svg" xmlns:xlink="http://www.w3.org/1999/xlink" width="64px" height="64px" viewBox="0 0 64 64" version="1.1">
<defs>
<linearGradient id="linear0" gradientUnits="userSpaceOnUse" x1="11.6194" y1="3.5841" x2="21.9026" y2="22.3063" gradientTransform="matrix(2,0,0,2,0,0)">
<stop offset="0" style="stop-color:rgb(1.960784%,39.215686%,80%);stop-opacity:1;"/>
<stop offset="1" style="stop-color:rgb(1.960784%,23.529412%,56.862745%);stop-opacity:1;"/>
</linearGradient>
<linearGradient id="linear1" gradientUnits="userSpaceOnUse" x1="-11.7085" y1="19.3075" x2="-11.4598" y2="23.1208" gradientTransform="matrix(7.907,0,0,-7.907,125.6144,207.6052)">
<stop offset="0" style="stop-color:rgb(14.117647%,64.705882%,90.196078%);stop-opacity:1;"/>
<stop offset="1" style="stop-color:rgb(21.960784%,80%,96.470588%);stop-opacity:1;"/>
</linearGradient>
<linearGradient id="linear2" gradientUnits="userSpaceOnUse" x1="4.7103" y1="-32.7927" x2="43.1821" y2="-52.4177" gradientTransform="matrix(1.1974,0.0012,0.0012,-1.2038,-6.2362,-0.0532)">
<stop offset="0" style="stop-color:rgb(18.823529%,78.431373%,94.509804%);stop-opacity:1;"/>
<stop offset="1" style="stop-color:rgb(7.058824%,51.372549%,88.627451%);stop-opacity:1;"/>
</linearGradient>
</defs>
<g id="surface1">
<path style=" stroke:none;fill-rule:nonzero;fill:url(#linear0);" d="M 64 20.238281 L 34.230469 0.609375 C 34.15625 0.5625 34.078125 0.515625 33.996094 0.46875 C 33.917969 0.425781 33.832031 0.386719 33.742188 0.347656 C 33.65625 0.308594 33.566406 0.273438 33.472656 0.242188 C 33.378906 0.210938 33.285156 0.179688 33.1875 0.152344 C 33.089844 0.125 32.988281 0.105469 32.890625 0.0859375 C 32.789062 0.0664062 32.683594 0.0507812 32.578125 0.0351562 C 32.476562 0.0234375 32.371094 0.015625 32.269531 0.0078125 C 32.164062 0.00390625 32.058594 0 31.953125 0 C 31.847656 0 31.746094 0.0078125 31.640625 0.015625 C 31.539062 0.0234375 31.433594 0.03125 31.328125 0.046875 C 31.226562 0.0585938 31.125 0.0820312 31.027344 0.105469 C 30.929688 0.125 30.828125 0.148438 30.730469 0.175781 C 30.632812 0.203125 30.539062 0.238281 30.445312 0.269531 C 30.355469 0.304688 30.265625 0.34375 30.179688 0.382812 C 30.09375 0.421875 30.015625 0.464844 29.933594 0.507812 C 29.878906 0.542969 29.824219 0.574219 29.769531 0.609375 L 0 20.238281 L 0 26 L 64 26 Z M 64 20.238281 "/>
<path style=" stroke:none;fill-rule:nonzero;fill:rgb(94.117647%,94.117647%,94.117647%);fill-opacity:1;" d="M 6.019531 22 L 57.980469 22 C 59.097656 22 60 22.902344 60 24.019531 L 60 41.980469 C 60 43.097656 59.097656 44 57.980469 44 L 6.019531 44 C 4.902344 44 4 43.097656 4 41.980469 L 4 24.019531 C 4 22.902344 4.902344 22 6.019531 22 Z M 6.019531 22 "/>
<path style=" stroke:none;fill-rule:nonzero;fill:url(#linear1);" d="M 1.90625 58.246094 C 3.128906 59.382812 4.734375 60.007812 6.402344 59.996094 L 57.644531 60 C 59.28125 60.050781 60.871094 59.449219 62.0625 58.324219 C 63.253906 57.203125 63.949219 55.652344 63.996094 54.015625 L 64 22.023438 Z M 1.90625 58.246094 "/>
<path style=" stroke:none;fill-rule:nonzero;fill:url(#linear2);" d="M 62.121094 58.269531 C 60.886719 59.402344 59.265625 60.019531 57.589844 60 L 6.347656 59.953125 C 4.707031 59.996094 3.113281 59.386719 1.921875 58.257812 C 0.734375 57.128906 0.0390625 55.570312 0 53.929688 L 0.03125 22 Z M 62.121094 58.269531 "/>
</g>
</svg>
