<?xml version="1.0" encoding="UTF-8"?>
<svg xmlns="http://www.w3.org/2000/svg" xmlns:xlink="http://www.w3.org/1999/xlink" width="64" height="64" viewBox="0 0 64 64" version="1.1">
<defs>
<linearGradient id="linear0" gradientUnits="userSpaceOnUse" x1="-306.171" y1="15.2498" x2="-273.6694" y2="15.2498" gradientTransform="matrix(1.8462,0,0,-1.8462,567.2244,64.1528)">
<stop offset="0" style="stop-color:rgb(31.372549%,31.372549%,31.372549%);stop-opacity:1;"/>
<stop offset="1" style="stop-color:rgb(19.607843%,19.607843%,19.607843%);stop-opacity:1;"/>
</linearGradient>
<linearGradient id="linear1" gradientUnits="userSpaceOnUse" x1="-284.5038" y1="28.2501" x2="-273.6702" y2="28.2501" gradientTransform="matrix(1.8462,0,0,-1.8462,567.2244,64.1528)">
<stop offset="0" style="stop-color:rgb(38.823529%,38.823529%,38.823529%);stop-opacity:1;"/>
<stop offset="1" style="stop-color:rgb(39.215686%,39.215686%,39.215686%);stop-opacity:1;"/>
</linearGradient>
<linearGradient id="linear2" gradientUnits="userSpaceOnUse" x1="-295.3374" y1="28.2501" x2="-284.5038" y2="28.2501" gradientTransform="matrix(1.8462,0,0,-1.8462,567.2244,64.1528)">
<stop offset="0" style="stop-color:rgb(59.607843%,59.607843%,59.607843%);stop-opacity:1;"/>
<stop offset="1" style="stop-color:rgb(60%,60%,60%);stop-opacity:1;"/>
</linearGradient>
<linearGradient id="linear3" gradientUnits="userSpaceOnUse" x1="-306.171" y1="28.2501" x2="-295.3374" y2="28.2501" gradientTransform="matrix(1.8462,0,0,-1.8462,567.2244,64.1528)">
<stop offset="0" style="stop-color:rgb(80.784314%,80.784314%,80.784314%);stop-opacity:1;"/>
<stop offset="1" style="stop-color:rgb(81.568627%,81.568627%,81.568627%);stop-opacity:1;"/>
</linearGradient>
<linearGradient id="linear4" gradientUnits="userSpaceOnUse" x1="-178.2472" y1="260.3181" x2="-150.2084" y2="266.9333" gradientTransform="matrix(0.4302,-0.4302,-0.4302,-0.4302,231.1082,83.5458)">
<stop offset="0" style="stop-color:rgb(66.27451%,66.27451%,66.27451%);stop-opacity:1;"/>
<stop offset="1" style="stop-color:rgb(54.901961%,54.901961%,54.901961%);stop-opacity:1;"/>
</linearGradient>
<filter id="alpha" filterUnits="objectBoundingBox" x="0%" y="0%" width="100%" height="100%">
  <feColorMatrix type="matrix" in="SourceGraphic" values="0 0 0 0 1 0 0 0 0 1 0 0 0 0 1 0 0 0 1 0"/>
</filter>
<mask id="mask0">
  <g filter="url(#alpha)">
<rect x="0" y="0" width="64" height="64" style="fill:rgb(0%,0%,0%);fill-opacity:0.6;stroke:none;"/>
  </g>
</mask>
<clipPath id="clip1">
  <rect x="0" y="0" width="64" height="64"/>
</clipPath>
<g id="surface5" clip-path="url(#clip1)">
<path style=" stroke:none;fill-rule:nonzero;fill:rgb(0%,0%,0%);fill-opacity:1;" d="M 39.128906 27.425781 L 51.09375 39.871094 C 51.214844 40 51.382812 40.070312 51.5625 40.070312 C 51.738281 40.070312 51.910156 40 52.03125 39.871094 L 55.316406 36.453125 C 55.574219 36.179688 55.574219 35.75 55.316406 35.476562 L 43.351562 23.035156 C 43.226562 22.90625 43.058594 22.832031 42.878906 22.832031 C 42.703125 22.832031 42.535156 22.90625 42.410156 23.035156 L 39.128906 26.449219 C 38.867188 26.722656 38.867188 27.152344 39.128906 27.425781 Z M 39.128906 27.425781 "/>
</g>
<linearGradient id="linear5" gradientUnits="userSpaceOnUse" x1="-264.3354" y1="174.1841" x2="-236.2965" y2="180.7993" gradientTransform="matrix(0.430062,0.430062,-0.430062,0.430062,231.0568,62.498)">
<stop offset="0" style="stop-color:rgb(89.803922%,89.803922%,89.803922%);stop-opacity:1;"/>
<stop offset="1" style="stop-color:rgb(80.784314%,80.784314%,80.784314%);stop-opacity:1;"/>
</linearGradient>
<mask id="mask1">
  <g filter="url(#alpha)">
<rect x="0" y="0" width="64" height="64" style="fill:rgb(0%,0%,0%);fill-opacity:0.6;stroke:none;"/>
  </g>
</mask>
<clipPath id="clip2">
  <rect x="0" y="0" width="64" height="64"/>
</clipPath>
<g id="surface8" clip-path="url(#clip2)">
<path style=" stroke:none;fill-rule:nonzero;fill:rgb(0%,0%,0%);fill-opacity:1;" d="M 32.699219 44.398438 L 37.078125 27.398438 C 37.175781 27.039062 36.96875 26.664062 36.609375 26.554688 L 32.121094 25.304688 C 31.949219 25.257812 31.765625 25.285156 31.613281 25.375 C 31.460938 25.46875 31.351562 25.617188 31.308594 25.792969 L 26.929688 42.792969 C 26.832031 43.15625 27.039062 43.53125 27.398438 43.636719 L 31.886719 44.886719 C 32.058594 44.933594 32.242188 44.90625 32.394531 44.816406 C 32.546875 44.722656 32.65625 44.574219 32.699219 44.398438 Z M 32.699219 44.398438 "/>
</g>
<linearGradient id="linear6" gradientUnits="userSpaceOnUse" x1="-127.7624" y1="89.47" x2="-99.6985" y2="96.0911" gradientTransform="matrix(0.157466,-0.587669,0.587669,0.157466,-4.7648,-46.052)">
<stop offset="0" style="stop-color:rgb(89.803922%,89.803922%,89.803922%);stop-opacity:1;"/>
<stop offset="1" style="stop-color:rgb(80.784314%,80.784314%,80.784314%);stop-opacity:1;"/>
</linearGradient>
<linearGradient id="linear7" gradientUnits="userSpaceOnUse" x1="-99.1914" y1="181.2644" x2="-71.1526" y2="187.8796" gradientTransform="matrix(-0.430062,-0.430062,0.430062,-0.430062,-99.105,83.5466)">
<stop offset="0" style="stop-color:rgb(66.27451%,66.27451%,66.27451%);stop-opacity:1;"/>
<stop offset="1" style="stop-color:rgb(54.901961%,54.901961%,54.901961%);stop-opacity:1;"/>
</linearGradient>
<mask id="mask2">
  <g filter="url(#alpha)">
<rect x="0" y="0" width="64" height="64" style="fill:rgb(0%,0%,0%);fill-opacity:0.6;stroke:none;"/>
  </g>
</mask>
<clipPath id="clip3">
  <rect x="0" y="0" width="64" height="64"/>
</clipPath>
<g id="surface11" clip-path="url(#clip3)">
<path style=" stroke:none;fill-rule:nonzero;fill:rgb(0%,0%,0%);fill-opacity:1;" d="M 24.875 27.425781 L 12.910156 39.871094 C 12.789062 40 12.617188 40.070312 12.441406 40.070312 C 12.261719 40.070312 12.09375 40 11.972656 39.871094 L 8.6875 36.453125 C 8.425781 36.179688 8.425781 35.75 8.6875 35.476562 L 20.652344 23.03125 C 20.773438 22.902344 20.945312 22.832031 21.121094 22.832031 C 21.300781 22.832031 21.46875 22.902344 21.589844 23.03125 L 24.875 26.449219 C 25.132812 26.722656 25.132812 27.152344 24.875 27.425781 Z M 24.875 27.425781 "/>
</g>
<linearGradient id="linear8" gradientUnits="userSpaceOnUse" x1="-185.2675" y1="95.1169" x2="-157.2286" y2="101.7321" gradientTransform="matrix(-0.4302,0.4302,0.4302,0.4302,-99.0416,62.4968)">
<stop offset="0" style="stop-color:rgb(89.803922%,89.803922%,89.803922%);stop-opacity:1;"/>
<stop offset="1" style="stop-color:rgb(80.784314%,80.784314%,80.784314%);stop-opacity:1;"/>
</linearGradient>
</defs>
<g id="surface1">
<path style=" stroke:none;fill-rule:nonzero;fill:url(#linear0);" d="M 62 16 L 2 16 L 2 53.144531 C 1.988281 53.890625 2.273438 54.609375 2.792969 55.148438 C 3.3125 55.683594 4.023438 55.988281 4.769531 56 L 59.230469 56 C 59.980469 55.988281 60.691406 55.683594 61.210938 55.148438 C 61.730469 54.609375 62.015625 53.890625 62 53.144531 Z M 62 16 "/>
<path style=" stroke:none;fill-rule:nonzero;fill:url(#linear1);" d="M 42 8 L 42 16 L 62 16 L 62 11 C 62.03125 10.234375 61.757812 9.488281 61.238281 8.925781 C 60.71875 8.363281 59.996094 8.03125 59.230469 8 Z M 42 8 "/>
<path style=" stroke:none;fill-rule:nonzero;fill:url(#linear2);" d="M 22 8 L 22 16 L 42 16 L 42 8 Z M 22 8 "/>
<path style=" stroke:none;fill-rule:nonzero;fill:url(#linear3);" d="M 2 11 L 2 16 L 22 16 L 22 8 L 4.769531 8 C 4.003906 8.03125 3.28125 8.363281 2.761719 8.925781 C 2.242188 9.488281 1.96875 10.234375 2 11 Z M 2 11 "/>
<path style=" stroke:none;fill-rule:nonzero;fill:url(#linear4);" d="M 39.160156 44.539062 L 51.125 32.097656 C 51.25 31.96875 51.417969 31.894531 51.59375 31.894531 C 51.773438 31.894531 51.941406 31.96875 52.066406 32.097656 L 55.347656 35.511719 C 55.609375 35.785156 55.609375 36.214844 55.347656 36.488281 L 43.382812 48.929688 C 43.261719 49.058594 43.09375 49.132812 42.914062 49.132812 C 42.738281 49.132812 42.566406 49.058594 42.445312 48.929688 L 39.160156 45.515625 C 38.902344 45.242188 38.902344 44.8125 39.160156 44.539062 Z M 39.160156 44.539062 "/>
<use xlink:href="#surface5" mask="url(#mask0)"/>
<path style=" stroke:none;fill-rule:nonzero;fill:url(#linear5);" d="M 39.128906 27.425781 L 51.09375 39.871094 C 51.214844 40 51.382812 40.070312 51.5625 40.070312 C 51.738281 40.070312 51.910156 40 52.03125 39.871094 L 55.316406 36.453125 C 55.574219 36.179688 55.574219 35.75 55.316406 35.476562 L 43.351562 23.035156 C 43.226562 22.90625 43.058594 22.832031 42.878906 22.832031 C 42.703125 22.832031 42.535156 22.90625 42.410156 23.035156 L 39.128906 26.449219 C 38.867188 26.722656 38.867188 27.152344 39.128906 27.425781 Z M 39.128906 27.425781 "/>
<use xlink:href="#surface8" mask="url(#mask1)"/>
<path style=" stroke:none;fill-rule:nonzero;fill:url(#linear6);" d="M 32.695312 44.394531 L 37.074219 27.394531 C 37.171875 27.035156 36.964844 26.660156 36.605469 26.550781 L 32.117188 25.300781 C 31.945312 25.253906 31.761719 25.28125 31.609375 25.371094 C 31.457031 25.464844 31.347656 25.613281 31.304688 25.789062 L 26.925781 42.789062 C 26.828125 43.152344 27.035156 43.523438 27.394531 43.632812 L 31.882812 44.882812 C 32.054688 44.929688 32.238281 44.902344 32.390625 44.8125 C 32.542969 44.71875 32.65625 44.570312 32.695312 44.394531 Z M 32.695312 44.394531 "/>
<path style=" stroke:none;fill-rule:nonzero;fill:url(#linear7);" d="M 24.839844 44.539062 L 12.875 32.09375 C 12.753906 31.964844 12.582031 31.894531 12.40625 31.894531 C 12.230469 31.894531 12.058594 31.964844 11.9375 32.09375 L 8.652344 35.511719 C 8.394531 35.785156 8.394531 36.214844 8.652344 36.488281 L 20.617188 48.933594 C 20.742188 49.0625 20.910156 49.132812 21.085938 49.132812 C 21.265625 49.132812 21.433594 49.0625 21.558594 48.933594 L 24.839844 45.515625 C 25.101562 45.242188 25.101562 44.8125 24.839844 44.539062 Z M 24.839844 44.539062 "/>
<use xlink:href="#surface11" mask="url(#mask2)"/>
<path style=" stroke:none;fill-rule:nonzero;fill:url(#linear8);" d="M 24.875 27.425781 L 12.910156 39.871094 C 12.789062 40 12.617188 40.074219 12.441406 40.074219 C 12.261719 40.074219 12.09375 40 11.972656 39.871094 L 8.6875 36.453125 C 8.429688 36.179688 8.429688 35.753906 8.6875 35.480469 L 20.652344 23.035156 C 20.773438 22.90625 20.945312 22.832031 21.121094 22.832031 C 21.300781 22.832031 21.46875 22.90625 21.589844 23.035156 L 24.875 26.449219 C 25.136719 26.722656 25.136719 27.152344 24.875 27.425781 Z M 24.875 27.425781 "/>
</g>
</svg>
