<?xml version="1.0" encoding="UTF-8" standalone="no"?>
<svg
   width="64"
   height="64"
   version="1.1"
   viewBox="0 0 64 64"
   id="svg14"
   sodipodi:docname="jupyter.svg"
   xml:space="preserve"
   inkscape:version="1.2.2 (b0a8486541, 2022-12-01)"
   xmlns:inkscape="http://www.inkscape.org/namespaces/inkscape"
   xmlns:sodipodi="http://sodipodi.sourceforge.net/DTD/sodipodi-0.dtd"
   xmlns="http://www.w3.org/2000/svg"
   xmlns:svg="http://www.w3.org/2000/svg"><defs
     id="defs18"><linearGradient
       id="a-3"
       x1="32"
       x2="32"
       y1="2"
       y2="62"
       gradientTransform="translate(0.25274,-63.18672)"
       gradientUnits="userSpaceOnUse"><stop
         stop-color="#f5faff"
         offset="0"
         id="stop891" /><stop
         stop-color="#cfdef0"
         offset="1"
         id="stop893" /></linearGradient></defs><sodipodi:namedview
     id="namedview16"
     pagecolor="#ffffff"
     bordercolor="#999999"
     borderopacity="1"
     inkscape:showpageshadow="0"
     inkscape:pageopacity="0"
     inkscape:pagecheckerboard="0"
     inkscape:deskcolor="#d1d1d1"
     showgrid="false"
     inkscape:zoom="4.695631"
     inkscape:cx="-60.055827"
     inkscape:cy="41.102037"
     inkscape:window-width="1920"
     inkscape:window-height="1002"
     inkscape:window-x="0"
     inkscape:window-y="0"
     inkscape:window-maximized="1"
     inkscape:current-layer="svg14" /><circle
     cx="32"
     cy="-32"
     r="30"
     id="circle898"
     transform="scale(1,-1)"
     style="fill:#f2f2f2;fill-opacity:1" /><g
     id="g3874"
     transform="matrix(1.1428571,0,0,1.1428571,-4.5714289,-4.5714272)"><g
       transform="matrix(1.0320465,0,0,1.0320465,-20.284509,2.000369)"
       stroke-width="1.3043"
       id="g3540"><circle
         cx="61.748001"
         cy="14.068"
         r="1.9565001"
         fill="#767677"
         id="circle3532" /><circle
         cx="41.530998"
         cy="43.416"
         r="2.6087"
         fill="#9e9e9e"
         id="circle3534" /><circle
         cx="39.574001"
         cy="15.372"
         r="1.9565001"
         fill="#616262"
         id="circle3536" /><path
         d="m 50.661,14.72 c -6.5217,0 -11.739,5.2174 -13.043,9.1304 3.913,-3.913 9.1304,-5.2174 13.043,-5.2174 3.913,0 9.1304,1.3043 13.043,5.2174 C 62.3997,19.9374 57.1823,14.72 50.661,14.72 Z M 37.618,32.981 c 1.3043,3.913 6.5217,9.1304 13.043,9.1304 6.5217,0 11.739,-5.2174 13.043,-9.1304 -3.913,3.913 -9.1304,5.2174 -13.043,5.2174 -3.913,0 -9.1304,-1.3043 -13.043,-5.2174 z"
         fill="#f37726"
         id="path3538" /></g><g
       aria-label="Jupyter"
       id="text3596"
       style="font-size:8.61868px;fill:#767677;fill-opacity:1;stroke-width:0.215466"><path
         d="m 17.876811,35.602338 v -0.673334 q 0.336668,0.06733 0.673335,0.06733 0.437667,0 0.639667,-0.235667 Q 19.42548,34.525 19.42548,34.053666 v -6.16101 h 0.774335 v 6.06001 q 0,0.841668 -0.437667,1.279335 -0.437668,0.471334 -1.245669,0.471334 -0.370334,0 -0.639668,-0.101 z"
         id="path3648"
         style="fill:#767677;fill-opacity:1" /><path
         d="m 24.711155,34.053669 -0.134667,-0.606001 h -0.03367 q -0.404001,0.673334 -1.313002,0.673334 -0.774335,0 -1.178336,-0.404 -0.370333,-0.437668 -0.370333,-1.279336 v -2.996337 h 0.740667 V 32.404 q 0,0.538667 0.235667,0.841668 0.235667,0.269333 0.673335,0.269333 0.606001,0 0.909001,-0.370333 0.303001,-0.404001 0.303001,-1.313002 v -2.390337 h 0.774334 v 4.61234 z"
         id="path3650"
         style="fill:#767677;fill-opacity:1" /><path
         d="m 27.572826,33.481335 h -0.06733 q 0.06733,0.538667 0.06733,0.673334 v 1.95267 h -0.774334 v -6.66601 h 0.606001 l 0.134667,0.606 h 0.03367 q 0.437668,-0.707001 1.313003,-0.707001 0.774334,0 1.245668,0.606001 0.505001,0.606001 0.505001,1.784336 0,1.178336 -0.505001,1.784336 -0.471334,0.606001 -1.245668,0.606001 -0.875335,0 -1.313003,-0.639667 z m 0,-1.919003 v 0.168333 q 0,1.010002 0.269334,1.414003 0.303001,0.370333 0.909002,0.370333 0.538667,0 0.808001,-0.437667 0.269334,-0.471334 0.269334,-1.346669 0,-0.875334 -0.269334,-1.313002 -0.269334,-0.437667 -0.841668,-0.437667 -0.572334,0 -0.875335,0.370334 -0.269334,0.336667 -0.269334,1.212002 z"
         id="path3652"
         style="fill:#767677;fill-opacity:1" /><path
         d="M 31.141499,29.441329 H 31.9495 l 0.909001,2.55867 q 0.303001,0.942668 0.370334,1.414002 h 0.03367 q 0.101,-0.505 0.404001,-1.414002 l 0.808001,-2.55867 h 0.808001 l -1.818003,5.218341 q -0.303,0.841668 -0.673334,1.144668 -0.370334,0.303001 -0.909002,0.303001 -0.336667,0 -0.673334,-0.06733 v -0.606001 q 0.235667,0.06733 0.505001,0.06733 0.673334,0 0.942668,-0.740668 l 0.235667,-0.673334 z"
         id="path3654"
         style="fill:#767677;fill-opacity:1" /><path
         d="m 38.076843,33.414001 v 0.572335 q -0.303001,0.134666 -0.740668,0.134666 -0.606001,0 -0.909002,-0.336667 -0.303,-0.370334 -0.303,-1.111001 v -2.659671 h -0.673334 v -0.336667 l 0.673334,-0.336668 0.303,-0.976334 h 0.437668 v 1.077335 h 1.178335 v 0.572334 h -1.178335 v 2.659671 q 0,0.437667 0.134667,0.639667 0.168333,0.202 0.437667,0.202 0.336667,0 0.639668,-0.101 z"
         id="path3656"
         style="fill:#767677;fill-opacity:1" /><path
         d="m 42.419849,31.898999 h -2.895337 q 0,0.774335 0.303,1.178335 0.336667,0.404001 0.976335,0.404001 0.740668,0 1.414002,-0.336667 v 0.673334 q -0.639668,0.303 -1.414002,0.303 -0.942668,0 -1.515002,-0.606001 -0.572335,-0.606 -0.572335,-1.750669 0,-1.144668 0.538668,-1.784336 0.538667,-0.639668 1.380335,-0.639668 0.808002,0 1.279336,0.572335 0.505,0.538667 0.505,1.515002 z m -2.895337,-0.639668 h 2.087336 q 0,-0.639667 -0.269334,-0.942668 -0.235667,-0.336667 -0.740667,-0.336667 -0.976335,0 -1.077335,1.279335 z"
         id="path3658"
         style="fill:#767677;fill-opacity:1" /><path
         d="m 46.123189,29.373995 -0.101,0.707001 q -0.269334,-0.03367 -0.471334,-0.03367 -0.505001,0 -0.841668,0.404001 -0.336667,0.404001 -0.336667,1.111002 v 2.491337 h -0.774335 v -4.61234 h 0.606001 l 0.101,0.841667 h 0.03367 q 0.538667,-0.942668 1.245668,-0.942668 0.303001,0 0.538668,0.03367 z"
         id="path3660"
         style="fill:#767677;fill-opacity:1" /></g></g></svg>
