<?xml version="1.0" encoding="UTF-8"?>
<svg width="64" height="64" version="1.1" viewBox="0 0 16.933 16.933" xmlns="http://www.w3.org/2000/svg" xmlns:cc="http://creativecommons.org/ns#" xmlns:dc="http://purl.org/dc/elements/1.1/" xmlns:rdf="http://www.w3.org/1999/02/22-rdf-syntax-ns#" xmlns:xlink="http://www.w3.org/1999/xlink">
 <defs>
  <linearGradient id="f-67" x2="0" y1="42.827" y2="4.113" gradientTransform="matrix(.39688 0 0 .39688 1.5779 3.1372)" gradientUnits="userSpaceOnUse">
   <stop stop-color="#c6cdd1" offset="0"/>
   <stop stop-color="#e0e5e7" offset="1"/>
  </linearGradient>
  <linearGradient id="b-5" x2="0" y1="45" y2="13" gradientTransform="matrix(.39688 0 0 .39688 1.5779 3.1372)" gradientUnits="userSpaceOnUse">
   <stop stop-color="#0c35f9" offset="0"/>
   <stop stop-color="#2acbd7" offset="1"/>
  </linearGradient>
  <linearGradient id="g-3" x1="8.213" x2="40.551" gradientTransform="matrix(.39688 0 0 .39688 1.5779 3.1372)" gradientUnits="userSpaceOnUse">
   <stop stop-color="#1d1e1e" offset="0"/>
   <stop stop-color="#2c2f32" offset="1"/>
  </linearGradient>
  <linearGradient id="a-2" x1="7" x2="11" gradientTransform="matrix(.39688 0 0 .39688 -11.472 .38729)" gradientUnits="userSpaceOnUse" xlink:href="#h-6"/>
  <linearGradient id="h-6" x1="7" x2="11" gradientTransform="translate(-21,-3)" gradientUnits="userSpaceOnUse">
   <stop stop-color="#1d1e1e" offset="0"/>
   <stop stop-color="#44484c" offset="1"/>
  </linearGradient>
  <linearGradient id="j-2" x1="19" x2="25" gradientTransform="matrix(.39688 0 0 .39688 -23.775 -1.5971)" gradientUnits="userSpaceOnUse" xlink:href="#h-6"/>
  <linearGradient id="i-9" x1="23" x2="28" gradientTransform="matrix(.39688 0 0 .39688 -20.997 3.9592)" gradientUnits="userSpaceOnUse" xlink:href="#h-6"/>
  <linearGradient id="k-1" x1="34" x2="42" gradientTransform="matrix(.39688 0 0 .39688 -32.109 2.7685)" gradientUnits="userSpaceOnUse" xlink:href="#h-6"/>
 </defs>
 <metadata>
  <rdf:RDF>
   <cc:Work rdf:about="">
    <dc:format>image/svg+xml</dc:format>
    <dc:type rdf:resource="http://purl.org/dc/dcmitype/StillImage"/>
    <dc:title/>
   </cc:Work>
  </rdf:RDF>
 </metadata>
 <g transform="translate(-2.6364 -4.1955)">
  <path d="m11.103 4.7247a7.9375 7.9375 0 0 0-6.2563 3.0681c1.6479 0.019886 6.5603 0.30086 7.0683 2.8406 0.406 2.0288-2.4348 2.4345-1.6232 4.4633 0.75001 1.8758 6.4855 2.0083 7.38 2.019a7.9375 7.9375 0 0 0 1.3689-4.4535 7.9375 7.9375 0 0 0-7.9375-7.9375zm-6.2682 3.0835a7.9375 7.9375 0 0 0-0.48937 0.70951c0.1502-0.24399 0.31229-0.48154 0.48937-0.70951zm-0.56018 0.82423a7.9375 7.9375 0 0 0-0.24443 0.44596c0.076835-0.15098 0.15785-0.29983 0.24443-0.44596zm-0.39015 0.74777a7.9375 7.9375 0 0 0-0.14779 0.34467c0.046516-0.11604 0.095806-0.23088 0.14779-0.34467zm-0.3111 0.79116a7.9375 7.9375 0 0 0-0.082166 0.25942c0.025694-0.08703 0.053509-0.17333 0.082166-0.25942zm-0.22738 0.82629a7.9375 7.9375 0 0 0-0.037724 0.19068c0.012164-0.06365 0.024015-0.1274 0.037724-0.19068zm-0.13126 0.81029a7.9375 7.9375 0 0 0-0.011886 0.11162c0.00357-0.03727 0.00779-0.07443 0.011886-0.11162zm-0.031522 1.3601a7.9375 7.9375 0 0 0 0.00827 0.10542c-0.00268-0.03516-0.00605-0.07013-0.00827-0.10542zm0.095086 0.82217a7.9375 7.9375 0 0 0 0.00827 0.04703c-0.00274-0.01568-0.00562-0.03131-0.00827-0.04703zm1.1359 2.943a7.9375 7.9375 0 0 0 0.021187 0.03307c-0.00711-0.011-0.014127-0.02204-0.021187-0.03307zm13.254 0.1881c-0.02107 0.03102-0.04416 0.06028-0.06563 0.09095a7.9375 7.9375 0 0 0 0.06563-0.09095zm-12.798 0.45371a7.9375 7.9375 0 0 0 0.02894 0.03721c-0.00981-0.01228-0.019202-0.02487-0.02894-0.03721zm12.369 0.1142c-0.03725 0.04548-0.07398 0.09137-0.11214 0.13591a7.9375 7.9375 0 0 0 0.11214-0.13591zm-11.856 0.47387a7.9375 7.9375 0 0 0 0.044958 0.04754c-0.015251-0.01559-0.029837-0.03182-0.044958-0.04754zm11.294 0.14521c-0.04002 0.03952-0.08116 0.07767-0.12196 0.11627a7.9375 7.9375 0 0 0 0.12196-0.11627zm-10.705 0.40876a7.9375 7.9375 0 0 0 0.027906 0.02429c-0.00943-0.0079-0.018508-0.01632-0.027906-0.02429zm10.107 0.12557c-0.01855 0.01494-0.0361 0.03123-0.05478 0.04599a7.9375 7.9375 0 0 0 0.05478-0.04599zm-0.61238 0.44492c-0.04482 0.02952-0.08948 0.05925-0.13488 0.08785a7.9375 7.9375 0 0 0 0.13488-0.08785zm-0.71726 0.42169c-0.04399 0.02277-0.08891 0.04368-0.13333 0.06563a7.9375 7.9375 0 0 0 0.13333-0.06563zm-0.71882 0.32763c-0.02298 0.0091-0.04514 0.02002-0.06821 0.02894a7.9375 7.9375 0 0 0 0.06821-0.02894zm-0.72398 0.2465c-0.0492 0.01424-0.09828 0.02856-0.14779 0.04186a7.9375 7.9375 0 0 0 0.14779-0.04186zm-0.81235 0.19172c-0.04301 0.0077-0.08652 0.01319-0.12971 0.02015a7.9375 7.9375 0 0 0 0.12971-0.02015zm-0.74776 0.09509c-0.04129 0.0034-0.08211 0.0086-0.12351 0.01137a7.9375 7.9375 0 0 0 0.12351-0.01137z" fill="url(#f-67)" stroke-width=".26458"/>
  <path d="m4.8462 7.7934c-1.0858 1.391-1.6776 3.1044-1.6808 4.8689 0 4.3855 3.5536 7.9375 7.9375 7.9375 2.6317-3.97e-4 5.0923-1.3053 6.5691-3.4838-0.89336-0.01072-6.6302-0.14327-7.3803-2.0193-0.81161-2.0288 2.0288-2.4344 1.6228-4.4633-0.508-2.54-5.4209-2.8206-7.0683-2.8404" fill="url(#b-5)" fill-rule="evenodd" stroke-width=".26459"/>
  <path d="m4.8458 7.7934c-0.00278 0.00397-0.00556 0.00794-0.00833 0.011509 1.9042 0.05715 6.2047 0.45125 6.6802 2.8285 0.40561 2.0288-2.4523 2.417-1.6407 4.4458 0.75049 1.8756 6.6826 2.7317 7.5763 2.742l0.21868-0.70525c-0.89336-0.01072-6.6298-0.14327-7.3803-2.0193-0.81161-2.0288 2.0288-2.4344 1.6232-4.4633-0.508-2.54-5.4213-2.8206-7.0687-2.84" fill="url(#g-3)" fill-rule="evenodd" stroke-width=".26459"/>
  <g stroke-linecap="round" stroke-linejoin="bevel" stroke-width=".52917">
   <circle transform="rotate(-90)" cx="-7.8997" cy="5.1498" r=".79375" fill="url(#a-2)"/>
   <circle cx="5.1498" cy="7.8997" r=".39687" fill="#fff"/>
   <circle transform="rotate(-90)" cx="-15.043" cy="10.309" r="1.1906" fill="url(#j-2)"/>
   <circle transform="rotate(-90)" cx="-10.876" cy="11.698" r=".99219" fill="url(#i-9)"/>
   <circle transform="rotate(-90)" cx="-17.028" cy="16.659" r="1.5875" fill="url(#k-1)"/>
  </g>
  <g fill="#fff" stroke-linecap="round" stroke-linejoin="bevel" stroke-width=".52917">
   <circle cx="11.698" cy="10.876" r=".59531"/>
   <circle cx="10.309" cy="15.043" r=".79375"/>
   <circle cx="16.659" cy="17.028" r="1.1906"/>
  </g>
 </g>
</svg>
