<?xml version="1.0" encoding="UTF-8" standalone="no"?>
<svg
   width="64"
   height="64"
   version="1.1"
   viewBox="0 0 16.933 16.933"
   id="svg356"
   sodipodi:docname="keepass.svg"
   inkscape:version="1.2.1 (9c6d41e410, 2022-07-14, custom)"
   xmlns:inkscape="http://www.inkscape.org/namespaces/inkscape"
   xmlns:sodipodi="http://sodipodi.sourceforge.net/DTD/sodipodi-0.dtd"
   xmlns:xlink="http://www.w3.org/1999/xlink"
   xmlns="http://www.w3.org/2000/svg"
   xmlns:svg="http://www.w3.org/2000/svg">
  <defs
     id="defs360">
    <linearGradient
       id="linearGradient1399"
       x1="2"
       x2="62"
       y1="32"
       y2="32"
       gradientTransform="matrix(0.26457812,0,0,0.26457812,0.17929035,1.2550343)"
       gradientUnits="userSpaceOnUse"
       xlink:href="#linearGradient4857" />
    <linearGradient
       id="linearGradient4857"
       x1="17.561001"
       x2="47.561001"
       y1="31.438999"
       y2="31.438999"
       gradientTransform="matrix(0.66667,0,0,0.66667,10.293,11.041)"
       gradientUnits="userSpaceOnUse">
      <stop
         stop-color="#143764"
         offset="0"
         id="stop3" />
      <stop
         stop-color="#1e509b"
         offset="1"
         id="stop5" />
    </linearGradient>
    <linearGradient
       id="linearGradient4837"
       x1="7"
       x2="57"
       y1="32"
       y2="32"
       gradientTransform="translate(-5.5543817,-5.3594187)"
       gradientUnits="userSpaceOnUse">
      <stop
         stop-color="#1e509b"
         offset="0"
         id="stop8" />
      <stop
         stop-color="#3278d7"
         offset="1"
         id="stop10" />
    </linearGradient>
    <linearGradient
       id="linearGradient4853"
       x1="12"
       x2="52"
       y1="32"
       y2="32"
       gradientTransform="translate(-5.5543817,-5.3594187)"
       gradientUnits="userSpaceOnUse">
      <stop
         stop-color="#1e64b4"
         offset="0"
         id="stop13" />
      <stop
         stop-color="#3296e6"
         offset="1"
         id="stop15" />
    </linearGradient>
    <linearGradient
       id="linearGradient1429"
       x1="17.561001"
       x2="47.561001"
       y1="31.438999"
       y2="31.438999"
       gradientTransform="matrix(0.1763863,0,0,0.1763863,2.9025933,4.1762413)"
       gradientUnits="userSpaceOnUse"
       xlink:href="#linearGradient4857" />
  </defs>
  <sodipodi:namedview
     id="namedview358"
     pagecolor="#ffffff"
     bordercolor="#999999"
     borderopacity="1"
     inkscape:showpageshadow="0"
     inkscape:pageopacity="0"
     inkscape:pagecheckerboard="0"
     inkscape:deskcolor="#d1d1d1"
     showgrid="false"
     inkscape:zoom="6.640625"
     inkscape:cx="9.0352941"
     inkscape:cy="29.289412"
     inkscape:window-width="1920"
     inkscape:window-height="1005"
     inkscape:window-x="0"
     inkscape:window-y="0"
     inkscape:window-maximized="1"
     inkscape:current-layer="svg356" />
  <g
     id="g562"
     transform="translate(-0.17929105,-1.2550338)">
    <circle
       cx="8.6457911"
       cy="9.7215338"
       r="7.9373436"
       fill="url(#linearGradient1399)"
       id="circle21"
       style="fill:url(#linearGradient1399);stroke-width:0.264578" />
    <circle
       cx="8.6457911"
       cy="9.7215338"
       r="6.6144528"
       fill="url(#linearGradient4837)"
       id="circle23"
       style="fill:url(#linearGradient4837);stroke-width:0.264578" />
    <circle
       cx="8.6457911"
       cy="9.7215338"
       r="5.2915626"
       fill="url(#linearGradient4853)"
       id="circle25"
       style="fill:url(#linearGradient4853);stroke-width:0.264578" />
    <circle
       cx="8.6457911"
       cy="9.7215338"
       r="2.6457813"
       fill="url(#linearGradient1429)"
       id="circle27"
       style="fill:url(#linearGradient1429);stroke-width:0.264578" />
    <g
       transform="matrix(0.26457812,0,0,0.26457812,4.5614981,1.2550343)"
       fill="#ffffff"
       stroke-width="0.75993"
       id="g33">
      <path
         d="M 15.437,18.094 3.023,22.1552 c 0,8.5483 -0.03814,13.235 1.4649,16.626 1.5039,3.3945 4.5899,5.6282 10.95,9.3126 6.3599,-3.6845 9.4456,-5.9181 10.95,-9.3126 1.503,-3.3909 1.4649,-8.0781 1.4649,-16.626 z m 0.25894,9.311 a 2.8447,2.8447 0 0 1 2.8447,2.8447 2.8296,2.8296 0 0 1 -1.7274,2.6159 l 1.7274,5.9192 h -5.6902 l 1.7283,-5.9181 a 2.8287,2.8287 0 0 1 -1.7283,-2.6168 2.8447,2.8447 0 0 1 2.8456,-2.8456 z"
         color="#000000"
         image-rendering="optimizeSpeed"
         opacity="0.5"
         overflow="visible"
         solid-color="#000000"
         style="isolation:auto;mix-blend-mode:normal"
         id="path29" />
      <path
         d="M 15.438,20.68 5.095,24.3006 c 0,13.934 -0.4017,15.004 10.343,21.208 10.656,-6.1592 10.343,-7.2686 10.343,-21.208 z m 0.25894,6.7243 a 2.8447,2.8447 0 0 1 2.8447,2.8456 2.8296,2.8296 0 0 1 -1.7274,2.6159 l 1.7274,5.9192 h -5.6902 l 1.7283,-5.9181 a 2.8287,2.8287 0 0 1 -1.7283,-2.6168 2.8447,2.8447 0 0 1 2.8456,-2.8456 z"
         color="#000000"
         image-rendering="optimizeSpeed"
         overflow="visible"
         solid-color="#000000"
         style="isolation:auto;mix-blend-mode:normal"
         id="path31" />
    </g>
  </g>
</svg>
