<?xml version="1.0" encoding="UTF-8" standalone="no"?>
<svg
   width="64"
   height="64"
   version="1.1"
   viewBox="0 0 16.933 16.933"
   id="svg14"
   sodipodi:docname="keepassxc.svg"
   xml:space="preserve"
   inkscape:version="1.2.1 (9c6d41e410, 2022-07-14, custom)"
   xmlns:inkscape="http://www.inkscape.org/namespaces/inkscape"
   xmlns:sodipodi="http://sodipodi.sourceforge.net/DTD/sodipodi-0.dtd"
   xmlns:xlink="http://www.w3.org/1999/xlink"
   xmlns="http://www.w3.org/2000/svg"
   xmlns:svg="http://www.w3.org/2000/svg"><defs
     id="defs18"><linearGradient
       inkscape:collect="always"
       id="linearGradient7126"><stop
         style="stop-color:#327931;stop-opacity:1"
         offset="0"
         id="stop7122" /><stop
         style="stop-color:#6aae45;stop-opacity:1"
         offset="1"
         id="stop7124" /></linearGradient><linearGradient
       inkscape:collect="always"
       xlink:href="#linearGradient7126"
       id="linearGradient7128"
       x1="8.4665003"
       y1="1.9275312"
       x2="8.4665003"
       y2="15.005469"
       gradientUnits="userSpaceOnUse" /></defs><sodipodi:namedview
     id="namedview16"
     pagecolor="#ffffff"
     bordercolor="#999999"
     borderopacity="1"
     inkscape:showpageshadow="0"
     inkscape:pageopacity="0"
     inkscape:pagecheckerboard="0"
     inkscape:deskcolor="#d1d1d1"
     showgrid="false"
     inkscape:zoom="3.3203125"
     inkscape:cx="-16.263529"
     inkscape:cy="16.715294"
     inkscape:window-width="1920"
     inkscape:window-height="1005"
     inkscape:window-x="0"
     inkscape:window-y="0"
     inkscape:window-maximized="1"
     inkscape:current-layer="svg14" /><circle
     cx="8.4665003"
     cy="8.4664993"
     r="7.9373441"
     style="stroke-width:1.11111;paint-order:stroke markers fill;fill:#515151;fill-opacity:1"
     id="circle2" /><circle
     cx="8.4665003"
     cy="8.4664993"
     r="7.2311258"
     style="fill:#ffffff;fill-opacity:1;stroke-width:1.01225;paint-order:stroke markers fill"
     id="circle320" /><circle
     style="opacity:1;fill:url(#linearGradient7128);fill-opacity:1;fill-rule:evenodd;stroke-width:1.26422;stroke-linecap:round;stroke-linejoin:round;paint-order:stroke fill markers"
     id="path6583"
     cx="8.4665003"
     cy="8.4665003"
     r="6.538969" /><path
     id="path6"
     style="fill:#ffffff;fill-rule:evenodd;stroke-width:1.23556"
     d="M 10.412596 1.5022043 A 7.2311258 7.2311258 0 0 0 10.405878 1.5001373 A 7.2311258 7.2311258 0 0 0 10.270489 1.4639645 A 7.2311258 7.2311258 0 0 0 10.134066 1.4303755 A 7.2311258 7.2311258 0 0 0 9.9971258 1.3993702 A 7.2311258 7.2311258 0 0 0 9.8601859 1.3709488 A 7.2311258 7.2311258 0 0 0 9.7222126 1.3451111 A 7.2311258 7.2311258 0 0 0 9.5837225 1.3223739 A 7.2311258 7.2311258 0 0 0 9.4452324 1.3017037 A 7.2311258 7.2311258 0 0 0 9.3062255 1.2841341 A 7.2311258 7.2311258 0 0 0 9.1667019 1.2691482 A 7.2311258 7.2311258 0 0 0 9.0266615 1.2572628 A 7.2311258 7.2311258 0 0 0 8.8871379 1.2474445 A 7.2311258 7.2311258 0 0 0 8.7470975 1.2407267 A 7.2311258 7.2311258 0 0 0 8.6065404 1.2365927 A 7.2311258 7.2311258 0 0 0 8.4665 1.2355592 A 7.2311258 7.2311258 0 0 0 8.0458621 1.2474445 A 7.2311258 7.2311258 0 0 0 7.6267745 1.2841341 A 7.2311258 7.2311258 0 0 0 7.2107874 1.3451111 A 7.2311258 7.2311258 0 0 0 6.7989344 1.4303755 A 7.2311258 7.2311258 0 0 0 6.4558096 1.5223577 A 2.5344478 2.5344478 0 0 0 5.9302706 3.0638354 A 2.5444479 2.5444479 0 0 0 7.3017361 5.3272185 L 7.3017361 10.424998 L 8.4416958 11.110214 C 8.4516958 7.4413238 8.4593429 5.6238884 8.4582319 5.6083328 L 8.4670168 5.6083328 A 2.5411145 2.5411145 0 0 0 10.412596 1.5022043 z M 8.4582319 1.2784498 C 8.8748988 1.2784498 9.210626 1.6136602 9.210626 2.0303271 A 0.750001 0.750001 0 0 1 8.4582319 2.7827211 A 0.750001 0.750001 0 0 1 7.7068714 2.0303271 C 7.7068714 1.6136602 8.0415652 1.2784498 8.4582319 1.2784498 z " /><path
     d="M 8.4414997,11.108238 9.6115012,10.424904 V 9.8137917 L 9.0892783,9.2560129 9.6115012,8.7937899 V 8.6193459 L 9.0848338,8.0749009 9.6115012,7.5115659 9.0803894,6.9404544 9.6115012,6.4304538 V 5.3004522 c -0.2744448,0.1222224 -0.7244454,0.285556 -1.1600015,0.2788893 0,0 -0.00778,1.8400024 -0.011111,5.5288965 z"
     opacity="0.6"
     id="path8"
     style="fill:#ffffff;fill-rule:evenodd;stroke-width:1.23556" /></svg>
