<?xml version="1.0" encoding="UTF-8" standalone="no"?>
<svg
   width="64"
   height="64"
   version="1.1"
   viewBox="0 0 63.892 63.878"
   id="svg62"
   sodipodi:docname="org.cryptomator.Cryptomator.svg"
   inkscape:version="1.2.2 (b0a8486541, 2022-12-01)"
   xmlns:inkscape="http://www.inkscape.org/namespaces/inkscape"
   xmlns:sodipodi="http://sodipodi.sourceforge.net/DTD/sodipodi-0.dtd"
   xmlns="http://www.w3.org/2000/svg"
   xmlns:svg="http://www.w3.org/2000/svg">
  <defs
     id="defs66" />
  <sodipodi:namedview
     id="namedview64"
     pagecolor="#ffffff"
     bordercolor="#999999"
     borderopacity="1"
     inkscape:showpageshadow="0"
     inkscape:pageopacity="0"
     inkscape:pagecheckerboard="0"
     inkscape:deskcolor="#d1d1d1"
     showgrid="false"
     inkscape:zoom="6.640625"
     inkscape:cx="6.0235294"
     inkscape:cy="29.214118"
     inkscape:window-width="1920"
     inkscape:window-height="1002"
     inkscape:window-x="0"
     inkscape:window-y="0"
     inkscape:window-maximized="1"
     inkscape:current-layer="svg62" />
  <g
     transform="matrix(0.05225533,0,0,0.05225533,2.9927877,7.3737694)"
     id="g60">
    <path
       d="M 552.69,0 C 383.59,0 290.24,143.46 290.24,283.52 h 524.9 C 815.14,143.46 709.81,0 552.69,0 Z"
       fill="#ffffff"
       id="path4" />
    <path
       d="M 552.69,53.2 C 415.32,53.2 339.48,169.74 339.48,283.52 L 552.69,307.7 765.9,283.52 C 765.9,169.74 680.33,53.2 552.69,53.2 Z"
       fill="#484e51"
       id="path6" />
    <path
       d="m 89.8,739.52 a 20,20 0 0 1 -2.23,-39.88 42.8,42.8 0 1 0 -42.22,-21.82 20,20 0 0 1 -35,19.31 82.79,82.79 0 1 1 81.76,42.26 21.78,21.78 0 0 1 -2.31,0.13 z"
       fill="#4e5457"
       id="path8" />
    <rect
       transform="rotate(27.09,142.59,540.04)"
       x="90.269997"
       y="467.98001"
       width="104.68"
       height="144.19"
       rx="49.419998"
       fill="#ffffff"
       id="rect10" />
    <path
       transform="rotate(27.09,180.87,464.19)"
       d="m 149.47,401.27 h 62.8 v 94.55 a 31.4,31.4 0 0 1 -31.4,31.4 31.4,31.4 0 0 1 -31.4,-31.4 z"
       fill="#4e5457"
       id="path12" />
    <circle
       cx="222.59"
       cy="387.53"
       r="75.050003"
       fill="#ffffff"
       id="circle14" />
    <path
       d="m 258.09,321.8 a 75.09,75.09 0 0 0 -91.23,14.64 75.06,75.06 0 0 1 51.58,126.06 75.06,75.06 0 0 0 39.65,-140.7 z"
       fill="#cccccc"
       id="path16" />
    <path
       d="m 1018.3,739.52 a 22.09,22.09 0 0 1 -2.28,-0.13 82.8,82.8 0 1 1 81.77,-42.26 20,20 0 1 1 -35,-19.31 42.8,42.8 0 1 0 -42.23,21.82 20,20 0 0 1 -2.23,39.88 z"
       fill="#4e5457"
       id="path18" />
    <rect
       transform="rotate(152.91,965.51,540.1)"
       x="913.17999"
       y="467.98001"
       width="104.68"
       height="144.19"
       rx="49.419998"
       fill="#ffffff"
       id="rect20" />
    <path
       transform="rotate(152.91,927.24,464.27)"
       d="m 927.25,401.27 a 31.4,31.4 0 0 1 31.4,31.4 v 94.55 h -62.8 v -94.55 a 31.4,31.4 0 0 1 31.4,-31.4 z"
       fill="#4e5457"
       id="path22" />
    <circle
       cx="885.53003"
       cy="387.53"
       r="75.050003"
       fill="#ffffff"
       id="circle24" />
    <path
       d="M 850,321.8 A 75.08,75.08 0 0 1 941.22,336.44 75.06,75.06 0 0 0 889.68,462.5 75.05,75.05 0 0 1 850,321.8 Z"
       fill="#cccccc"
       id="path26" />
    <path
       d="m 248.78,940.2 c -36.67,0 -67,-39.85 -75.51,-99.15 -4.56,-31.83 -2.26,-65.19 6.48,-94 9.41,-31 25.51,-53.59 45.32,-63.72 a 51.72,51.72 0 0 1 23.69,-5.84 H 352.28 V 940.2 Z"
       fill="#4e5457"
       id="path28" />
    <path
       d="m 351.43,940.2 c -21.26,0 -38.85,-39.85 -43.78,-99.15 -2.64,-31.83 -1.31,-65.19 3.76,-94 5.45,-31 14.78,-53.59 26.27,-63.72 4.39,-3.87 9,-5.84 13.73,-5.84 4.73,0 9.34,2 13.75,5.8 l 49.7,43.83 c 17.37,15.32 23.39,64 20.23,102 -2.43,29.28 -10,52.18 -20.19,61.28 l -49.69,43.82 c -4.44,3.99 -9.08,5.98 -13.78,5.98 z"
       fill="#585e62"
       id="path30" />
    <path
       d="m 360.57,699 49.65,43.79 c 11.18,9.9 17.78,47.45 14.78,83.91 -2,24.27 -7.83,41.95 -14.77,48.13 l -49.65,43.79 C 342,935 322.79,899.19 317.75,838.55 c -5.04,-60.64 6,-123.1 24.58,-139.51 6.15,-5.42 12.5,-5.04 18.24,-0.04 z"
       fill="#35393b"
       id="path32" />
    <path
       d="m 850.73,940.2 c 36.66,0 67,-39.85 75.51,-99.15 4.56,-31.83 2.26,-65.19 -6.48,-94 -9.41,-31 -25.51,-53.59 -45.32,-63.72 a 51.72,51.72 0 0 0 -23.69,-5.84 H 747.22 V 940.2 Z"
       fill="#4e5457"
       id="path34" />
    <path
       d="m 748.08,940.2 c 21.26,0 38.85,-39.85 43.78,-99.15 2.64,-31.83 1.31,-65.19 -3.76,-94 -5.45,-31 -14.79,-53.59 -26.27,-63.72 -4.4,-3.87 -9,-5.84 -13.73,-5.84 -4.73,0 -9.34,2 -13.76,5.8 l -49.69,43.83 c -17.38,15.32 -23.39,64 -20.23,102 2.43,29.28 10,52.18 20.19,61.28 l 49.68,43.82 c 4.45,3.99 9.09,5.98 13.79,5.98 z"
       fill="#585e62"
       id="path36" />
    <path
       d="m 738.94,699 -49.65,43.79 c -11.19,9.86 -17.8,47.41 -14.77,83.87 2,24.27 7.83,41.95 14.77,48.13 l 49.65,43.79 c 18.61,16.41 37.78,-19.43 42.82,-80.07 5.04,-60.64 -6,-123.1 -24.58,-139.51 -6.18,-5.38 -12.5,-5 -18.24,0 z"
       fill="#35393b"
       id="path38" />
    <path
       d="m 848.63,451.38 a 83.62,83.62 0 0 1 -0.56,-45.6 C 862.81,352.65 853.13,294 853.13,294 668.06,236.23 553,293.52 553,293.52 c 0,0 -114.79,-57.64 -300,-0.45 0,0 -9.86,58.64 4.72,111.83 a 83.69,83.69 0 0 1 -0.69,45.59 c -5.14,17.57 -10.72,44.5 -10.77,78.8 -0.37,249 306,326.08 306,326.08 0,0 306.58,-76.15 306.95,-325.16 0,-34.3 -5.49,-61.21 -10.58,-78.83 z"
       fill="#ffffff"
       id="path40" />
    <path
       d="M 552.34,808.87 C 501.62,793 290.64,715.62 290.92,529.36 c 0,-29.65 4.89,-52.42 9,-66.31 a 128.3,128.3 0 0 0 0.91,-70 c -6.2,-22.58 -6.9,-47.13 -6.17,-65.29 40.48,-10.23 80.2,-15.37 118.41,-15.32 75.66,0.12 119.86,21 120.3,21.17 l 20.39,10.23 19.24,-10.32 c 0.11,0 44.36,-20.75 120,-20.64 38.21,0.06 77.91,5.32 118.37,15.68 0.67,18.14 -0.1,42.71 -6.37,65.27 a 128.33,128.33 0 0 0 0.69,70 c 4,13.91 8.82,36.69 8.77,66.35 -0.28,187.06 -211.26,263.09 -262.12,278.69 z"
       fill="#49b04a"
       id="path42" />
    <path
       d="M 610.15,478.76 A 57.46,57.46 0 1 0 540,534.68 L 507.71,670.15 552.38,683 597.09,670.29 565.25,534.72 a 57.46,57.46 0 0 0 44.9,-55.96 z"
       fill="#35393b"
       id="path44" />
    <g
       fill="#49b04a"
       id="g58">
      <path
         d="M 454.94,131.08 A 60.64,60.64 0 0 0 394.3,191.72 H 515.58 A 60.64,60.64 0 0 0 454.94,131.08 Z"
         id="path46" />
      <path
         d="m 642.38,131.08 a 60.64,60.64 0 0 0 -60.64,60.64 H 703 a 60.64,60.64 0 0 0 -60.62,-60.64 z"
         id="path48" />
      <circle
         cx="483.23001"
         cy="229.42999"
         r="11.52"
         id="circle50" />
      <circle
         cx="528.52002"
         cy="229.42999"
         r="11.52"
         id="circle52" />
      <circle
         cx="573.79999"
         cy="229.42999"
         r="11.52"
         id="circle54" />
      <circle
         cx="619.09003"
         cy="229.42999"
         r="11.52"
         id="circle56" />
    </g>
  </g>
</svg>
