<?xml version="1.0" encoding="UTF-8" standalone="no"?>
<svg
   width="64"
   height="64"
   version="1.1"
   id="svg12"
   sodipodi:docname="org.freedesktop.Piper.svg"
   inkscape:version="1.2.2 (b0a8486541, 2022-12-01)"
   xmlns:inkscape="http://www.inkscape.org/namespaces/inkscape"
   xmlns:sodipodi="http://sodipodi.sourceforge.net/DTD/sodipodi-0.dtd"
   xmlns="http://www.w3.org/2000/svg"
   xmlns:svg="http://www.w3.org/2000/svg">
  <defs
     id="defs16" />
  <sodipodi:namedview
     id="namedview14"
     pagecolor="#ffffff"
     bordercolor="#999999"
     borderopacity="1"
     inkscape:showpageshadow="0"
     inkscape:pageopacity="0"
     inkscape:pagecheckerboard="0"
     inkscape:deskcolor="#d1d1d1"
     showgrid="false"
     inkscape:zoom="6.640625"
     inkscape:cx="-13.101176"
     inkscape:cy="27.858824"
     inkscape:window-width="1920"
     inkscape:window-height="1002"
     inkscape:window-x="0"
     inkscape:window-y="0"
     inkscape:window-maximized="1"
     inkscape:current-layer="svg12" />
  <g
     id="g303"
     transform="matrix(1.3809524,0,0,1.3809524,-12.190477,-12.190477)">
    <rect
       x="18"
       y="11"
       width="28"
       height="42"
       ry="3"
       fill="#da8d25"
       style="paint-order:stroke fill markers"
       id="rect4" />
    <path
       d="m 29,40 c -1.108,0 -2,0.892 -2,2 v 6 c 0,1.108 0.892,2 2,2 h 6 c 1.108,0 2,-0.892 2,-2 v -6 c 0,-1.108 -0.892,-2 -2,-2 z m 5,1 a 1,1 0 0 1 1,1 1,1 0 0 1 -1,1 1,1 0 0 1 -1,-1 1,1 0 0 1 1,-1 z m -3,2 a 2,2 0 0 1 2,2 2,2 0 0 1 -2,2 2,2 0 0 1 -2,-2 2,2 0 0 1 2,-2 z"
       fill="#ffb22b"
       style="paint-order:stroke fill markers"
       id="path6" />
    <path
       d="M 21,14 V 34 H 43 V 14 Z m 2,2 H 41 V 32 H 23 Z"
       fill="#ffffff"
       stroke-width="1.8257"
       id="path8" />
    <path
       d="m 31,14 v 18 h -4 v 5 H 37 V 32 H 33 V 14 Z"
       fill="#cccccc"
       stroke-width="1.7303"
       id="path10" />
  </g>
</svg>
