<?xml version="1.0" encoding="UTF-8"?>
<svg width="64" height="64" version="1.1" xmlns="http://www.w3.org/2000/svg" xmlns:xlink="http://www.w3.org/1999/xlink">
 <defs>
  <linearGradient id="linearGradient22227">
   <stop stop-color="#bbe3ff" offset="0"/>
   <stop stop-color="#fcffff" offset="1"/>
  </linearGradient>
  <linearGradient id="linearGradient994" x1="35.425" x2="35.425" y1="-94.008" y2="-35.155" gradientTransform="translate(-.7663 95.947)" gradientUnits="userSpaceOnUse">
   <stop stop-color="#d6efff" offset="0"/>
   <stop stop-color="#daeffe" offset="1"/>
  </linearGradient>
  <linearGradient id="linearGradient11351" x1="35.425" x2="35.425" y1="-94.008" y2="-35.155" gradientTransform="matrix(.91667 0 0 .91667 1.9642 90.618)" gradientUnits="userSpaceOnUse">
   <stop stop-color="#6faae6" offset="0"/>
   <stop stop-color="#396ebb" offset="1"/>
  </linearGradient>
  <linearGradient id="linearGradient22229" x1="-51.775" x2="-12.7" y1="-91.068" y2="-91.068" gradientUnits="userSpaceOnUse" xlink:href="#linearGradient22227"/>
  <linearGradient id="linearGradient32180" x1="-51.775" x2="-21.578" y1="-91.068" y2="-91.068" gradientUnits="userSpaceOnUse" xlink:href="#linearGradient22227"/>
 </defs>
 <g>
  <circle cx="32" cy="32" r="30" fill="url(#linearGradient994)" fill-rule="evenodd"/>
  <circle cx="32" cy="32" r="27.5" fill="url(#linearGradient11351)" fill-rule="evenodd"/>
  <g transform="matrix(.95 0 0 .95 62.626 118.52)" aria-label="qb">
   <path d="m-37.4-99.193h0.15625l0.46875-2.8125h2.8125v30.938h-3.4375v-9.0625l0.15625-3.2812h-0.15625q-2.1875 3.125-6.25 3.125-3.5938 0-5.9375-2.6562-2.1875-2.8125-2.1875-8.2812 0-5.625 2.1875-8.4375 2.3438-2.8125 5.9375-2.8125 3.9062 0 6.25 3.2813zm0 8.75v-0.78125q0-4.6875-1.4062-6.4062-1.4062-1.875-4.2188-1.875-2.5 0-3.75 2.0312t-1.25 6.25q0 4.0625 1.25 6.0938t3.9062 2.0312 4.0625-1.7188 1.4062-5.625z" fill="url(#linearGradient22229)"/>
   <path d="m-26.919-83.256h-0.3125l-0.78125 2.6562h-2.5v-30.469h3.5938v7.3438c0 1.1458-0.05208 2.6562-0.15625 4.5313h0.15625c1.3542-2.1875 3.3854-3.2813 6.0938-3.2813 2.3958 0 4.3229 0.9375 5.7812 2.8125 1.5625 1.875 2.3438 4.6354 2.3438 8.2812s-0.78125 6.4062-2.3438 8.2812c-1.4583 1.875-3.3854 2.8125-5.7812 2.8125-2.7083 0-4.7396-0.98958-6.0938-2.9688zm5.4688 0.15625c1.6667 0 2.9167-0.67708 3.75-2.0312 0.83333-1.4583 1.25-3.5417 1.25-6.25s-0.41667-4.7396-1.25-6.0938-2.1354-2.0312-3.9062-2.0312-3.125 0.57292-4.0625 1.7188c-0.83333 1.1458-1.25 3.2812-1.25 6.4062s0.41667 5.3125 1.25 6.5625c0.9375 1.1458 2.3438 1.7188 4.2188 1.7188z" fill="url(#linearGradient32180)"/>
  </g>
 </g>
</svg>
