<?xml version="1.0" encoding="UTF-8"?>
<svg id="SimpleNote" width="64" height="64" enable-background="new 0 0 1024 1024" image-rendering="optimizeSpeed" version="1.1" viewBox="0 0 64 64" xmlns="http://www.w3.org/2000/svg">
 <defs>
  <linearGradient id="linearGradient925" x1="32.791" x2="32.791" y1="54.857" y2="4.8769" gradientTransform="matrix(1.2057 0 0 1.2057 -7.5118 -4.0322)" gradientUnits="userSpaceOnUse">
   <stop stop-color="#ebb300" offset="0"/>
   <stop stop-color="#ffe433" offset="1"/>
  </linearGradient>
  <linearGradient id="linearGradient933" x1="34.203" x2="34.203" y1="51.464" y2="4.8769" gradientTransform="matrix(1.2057 0 0 1.2057 -7.5118 -4.0322)" gradientUnits="userSpaceOnUse">
   <stop stop-color="#03bc6f" offset="0"/>
   <stop stop-color="#00dcb4" offset="1"/>
  </linearGradient>
  <linearGradient id="b" x1="399.57" x2="399.57" y1="545.8" y2="517.8" gradientTransform="matrix(2.1429,0,0,2.1429,-826.36,-1107.5)" gradientUnits="userSpaceOnUse">
   <stop stop-color="#3889e9" offset="0"/>
   <stop stop-color="#5ea5fb" offset="1"/>
  </linearGradient>
 </defs>
 <path d="m49.545 7.7354-0.96554-5.8875s-0.63584 5.9578-7.6537 12.339c-3.2263 2.9437-8.9252 6.1698-8.9252 6.1698l13.399 23.196s1.2717 3.8386-0.42388 7.4417c-1.9781 4.2154-5.9578 6.8056-13.611 7.0176-6.8056 0.18838-11.492-3.8386-12.339-9.3492-0.84776-5.4634 2.7082-9.6788 6.8056-11.28 3.8386-1.4836 10.22-0.84776 10.22-0.84776l-14.883-25.103 0.21194-2.5434s4.7804 0.6123 13.188-1.0597c3.8386-0.77712 7.0648-2.0488 9.4668-3.2263-3.6737-1.6013-7.7478-2.4962-12.01-2.4962-16.555 0-30.002 13.423-30.002 30.002 0 16.555 13.423 30.002 30.002 30.002 16.555 0 30.002-13.423 30.002-30.002-0.047094-10.056-4.9452-18.91-12.482-24.374z" fill="url(#linearGradient925)" stroke-width="1.2057" p-id="736"/>
 <path d="m48.581 1.848s-5.5341 4.2626-14.036 5.9578c-8.407 1.672-13.188 1.0597-13.188 1.0597l-0.21194 2.5434 14.883 25.127s-6.3819-0.63584-10.22 0.84776c-4.0975 1.5778-7.6537 5.8168-6.8056 11.28 0.84776 5.5341 5.5341 9.5374 12.339 9.3492 7.6537-0.21196 11.633-2.8023 13.611-7.0176 1.6955-3.6266 0.42388-7.4417 0.42388-7.4417l-13.399-23.196s5.6989-3.2263 8.9252-6.1698c7.041-6.3819 7.6771-12.339 7.6771-12.339z" fill="url(#linearGradient933)" stroke-width="1.2057" p-id="737"/>
 <g transform="matrix(1 0 0 1 -.045322 .10667)" stroke-width="1.5715">
  <circle cx="32.02" cy="32.044" r="30.001" fill-opacity="0"/>
  <circle cx="32.02" cy="32.044" r="0" fill="url(#b)"/>
 </g>
</svg>
