<?xml version="1.0" encoding="UTF-8"?>
<svg width="64" height="64" version="1.1" xmlns="http://www.w3.org/2000/svg" xmlns:cc="http://creativecommons.org/ns#" xmlns:dc="http://purl.org/dc/elements/1.1/" xmlns:rdf="http://www.w3.org/1999/02/22-rdf-syntax-ns#" xmlns:xlink="http://www.w3.org/1999/xlink">
 <metadata>
  <rdf:RDF>
   <cc:Work rdf:about="">
    <dc:format>image/svg+xml</dc:format>
    <dc:type rdf:resource="http://purl.org/dc/dcmitype/StillImage"/>
    <dc:title/>
   </cc:Work>
  </rdf:RDF>
 </metadata>
 <defs>
  <linearGradient id="linearGradient844" x1="15" x2="35" y1="8" y2="38" gradientTransform="translate(0,16)" gradientUnits="userSpaceOnUse">
   <stop stop-color="#18d862" offset="0"/>
   <stop stop-color="#1cd664" offset="1"/>
  </linearGradient>
 </defs>
 <g transform="matrix(1.3636 0 0 1.3636 -.72727 -22.545)">
  <circle cx="24" cy="40" r="22" fill="url(#linearGradient844)"/>
  <path d="m33.214 48.835c-0.35824 0.58751-1.1273 0.77379-1.7148 0.41317-4.6958-2.8683-10.607-3.5179-17.569-1.9273-0.67086 0.15285-1.3396-0.26748-1.4924-0.93858-0.15356-0.6711 0.2651-1.3398 0.93762-1.4927 7.6185-1.7406 14.153-0.99112 19.425 2.2306 0.58751 0.36063 0.77379 1.1273 0.41317 1.7148zm2.4479-5.4457c-0.45138 0.73367-1.4115 0.96533-2.1446 0.51395-5.3759-3.3044-13.571-4.2613-19.929-2.3312-0.82466 0.24909-1.6957-0.21566-1.9459-1.0389-0.24838-0.82466 0.21661-1.694 1.0398-1.9447 7.2634-2.2039 16.293-1.1363 22.467 2.6574 0.73319 0.45138 0.96485 1.4115 0.51347 2.1437zm0.21016-5.6706c-6.4459-3.8286-17.081-4.1806-23.235-2.3128-0.98825 0.29972-2.0334-0.25817-2.3328-1.2464-0.29949-0.98873 0.25793-2.0331 1.2469-2.3336 7.0647-2.1446 18.809-1.7303 26.23 2.6753 0.89082 0.52756 1.1822 1.6756 0.65438 2.5633-0.52541 0.8889-1.6765 1.1819-2.5626 0.65414z" fill="#111"/>
 </g>
</svg>
