<?xml version="1.0" encoding="UTF-8"?>
<svg xmlns="http://www.w3.org/2000/svg" xmlns:xlink="http://www.w3.org/1999/xlink" width="64px" height="64px" viewBox="0 0 64 64" version="1.1">
<defs>
<linearGradient id="linear0" gradientUnits="userSpaceOnUse" x1="11.7494" y1="12.1142" x2="11.7494" y2="8" gradientTransform="matrix(1.6,0,0,-2,13.2014,68)">
<stop offset="0" style="stop-color:rgb(50.588235%,53.72549%,56.470588%);stop-opacity:1;"/>
<stop offset="1" style="stop-color:rgb(62.352941%,65.882353%,69.019608%);stop-opacity:1;"/>
</linearGradient>
<linearGradient id="linear1" gradientUnits="userSpaceOnUse" x1="2.5" y1="20.2111" x2="29.5" y2="20.2111" gradientTransform="matrix(2,0,0,-2.1112,0,70.6696)">
<stop offset="0" style="stop-color:rgb(33.333333%,35.294118%,37.254902%);stop-opacity:1;"/>
<stop offset="1" style="stop-color:rgb(29.411765%,30.980392%,32.54902%);stop-opacity:1;"/>
</linearGradient>
<linearGradient id="linear2" gradientUnits="userSpaceOnUse" x1="1.7418" y1="29.7613" x2="28.9991" y2="12.2388" gradientTransform="matrix(1.9286,0,0,-2,2.357,70)">
<stop offset="0" style="stop-color:rgb(24.705882%,89.019608%,90.588235%);stop-opacity:1;"/>
<stop offset="1" style="stop-color:rgb(2.352941%,41.960784%,73.72549%);stop-opacity:1;"/>
</linearGradient>
</defs>
<g id="surface1">
<path style=" stroke:none;fill-rule:nonzero;fill:rgb(72.156863%,76.078431%,80%);fill-opacity:1;" d="M 8.03125 8.5 L 55.96875 8.5 C 57.644531 8.5 59 9.855469 59 11.53125 L 59 14 L 5 14 L 5 11.53125 C 5 9.855469 6.355469 8.5 8.03125 8.5 Z M 8.03125 8.5 "/>
<path style=" stroke:none;fill-rule:nonzero;fill:rgb(73.72549%,77.254902%,81.176471%);fill-opacity:1;" d="M 20.667969 50 L 43.335938 50 L 46 54 L 18 54 Z M 20.667969 50 "/>
<path style=" stroke:none;fill-rule:nonzero;fill:url(#linear0);" d="M 28 44 L 36 44 L 36 52 L 28 52 Z M 28 44 "/>
<path style=" stroke:none;fill-rule:nonzero;fill:rgb(26.666667%,28.235294%,29.803922%);fill-opacity:0.996078;" d="M 18 54 L 46 54 L 46 56 L 18 56 Z M 18 54 "/>
<path style=" stroke:none;fill-rule:nonzero;fill:url(#linear1);" d="M 7.894531 9 L 56.105469 9 C 57.734375 9.03125 59.027344 10.371094 59 12 L 59 44 C 59.027344 45.628906 57.734375 46.96875 56.105469 47 L 7.894531 47 C 6.265625 46.96875 4.972656 45.628906 5 44 L 5 12 C 4.972656 10.371094 6.265625 9.03125 7.894531 9 Z M 7.894531 9 "/>
<path style=" stroke:none;fill-rule:nonzero;fill:url(#linear2);" d="M 7.925781 10 L 56.074219 10 C 57.15625 10.019531 58.019531 10.914062 58 12 L 58 44 C 58.019531 45.085938 57.15625 45.980469 56.074219 46 L 7.925781 46 C 6.84375 45.980469 5.980469 45.085938 6 44 L 6 12 C 5.980469 10.914062 6.84375 10.019531 7.925781 10 Z M 7.925781 10 "/>
<path style=" stroke:none;fill-rule:nonzero;fill:rgb(47.45098%,46.666667%,45.490196%);fill-opacity:1;" d="M 33.933594 4 L 60.066406 4 C 61.152344 4.019531 62.015625 4.914062 62 6 L 62 24 C 62.015625 25.085938 61.152344 25.980469 60.066406 26 L 33.933594 26 C 32.847656 25.980469 31.984375 25.085938 32 24 L 32 6 C 31.984375 4.914062 32.847656 4.019531 33.933594 4 Z M 33.933594 4 "/>
<path style=" stroke:none;fill-rule:nonzero;fill:rgb(98.039216%,98.039216%,98.039216%);fill-opacity:1;" d="M 33.964844 5 L 60.035156 5 C 60.578125 5.007812 61.007812 5.457031 61 6 L 61 24 C 61.007812 24.542969 60.578125 24.992188 60.035156 25 L 33.964844 25 C 33.421875 24.992188 32.992188 24.542969 33 24 L 33 6 C 32.992188 5.457031 33.421875 5.007812 33.964844 5 Z M 33.964844 5 "/>
<path style=" stroke:none;fill-rule:nonzero;fill:rgb(60.392157%,43.921569%,83.137255%);fill-opacity:1;" d="M 36.75 8 L 41.25 8 C 41.664062 8 42 8.335938 42 8.75 L 42 13.25 C 42 13.664062 41.664062 14 41.25 14 L 36.75 14 C 36.335938 14 36 13.664062 36 13.25 L 36 8.75 C 36 8.335938 36.335938 8 36.75 8 Z M 36.75 8 "/>
<path style=" stroke:none;fill-rule:nonzero;fill:rgb(9.411765%,70.980392%,63.921569%);fill-opacity:1;" d="M 44.75 8 L 49.25 8 C 49.664062 8 50 8.335938 50 8.75 L 50 13.25 C 50 13.664062 49.664062 14 49.25 14 L 44.75 14 C 44.335938 14 44 13.664062 44 13.25 L 44 8.75 C 44 8.335938 44.335938 8 44.75 8 Z M 44.75 8 "/>
<path style=" stroke:none;fill-rule:nonzero;fill:rgb(94.509804%,54.901961%,3.921569%);fill-opacity:1;" d="M 52.75 8 L 57.25 8 C 57.664062 8 58 8.335938 58 8.75 L 58 13.25 C 58 13.664062 57.664062 14 57.25 14 L 52.75 14 C 52.335938 14 52 13.664062 52 13.25 L 52 8.75 C 52 8.335938 52.335938 8 52.75 8 Z M 52.75 8 "/>
<path style=" stroke:none;fill-rule:nonzero;fill:rgb(88.627451%,31.764706%,7.45098%);fill-opacity:1;" d="M 36.75 16 L 41.25 16 C 41.664062 16 42 16.335938 42 16.75 L 42 21.25 C 42 21.664062 41.664062 22 41.25 22 L 36.75 22 C 36.335938 22 36 21.664062 36 21.25 L 36 16.75 C 36 16.335938 36.335938 16 36.75 16 Z M 36.75 16 "/>
<path style=" stroke:none;fill-rule:nonzero;fill:rgb(33.72549%,71.372549%,5.490196%);fill-opacity:1;" d="M 44.75 16 L 49.25 16 C 49.664062 16 50 16.335938 50 16.75 L 50 21.25 C 50 21.664062 49.664062 22 49.25 22 L 44.75 22 C 44.335938 22 44 21.664062 44 21.25 L 44 16.75 C 44 16.335938 44.335938 16 44.75 16 Z M 44.75 16 "/>
<path style=" stroke:none;fill-rule:nonzero;fill:rgb(0%,47.058824%,83.137255%);fill-opacity:1;" d="M 52.75 16 L 57.25 16 C 57.664062 16 58 16.335938 58 16.75 L 58 21.25 C 58 21.664062 57.664062 22 57.25 22 L 52.75 22 C 52.335938 22 52 21.664062 52 21.25 L 52 16.75 C 52 16.335938 52.335938 16 52.75 16 Z M 52.75 16 "/>
</g>
</svg>
