<?xml version="1.0" encoding="UTF-8" standalone="no"?>
<svg
   width="64"
   height="64"
   version="1.1"
   viewBox="0 0 16.933 16.933"
   id="svg27"
   sodipodi:docname="thunar.svg"
   inkscape:version="1.2.1 (9c6d41e410, 2022-07-14)"
   xmlns:inkscape="http://www.inkscape.org/namespaces/inkscape"
   xmlns:sodipodi="http://sodipodi.sourceforge.net/DTD/sodipodi-0.dtd"
   xmlns:xlink="http://www.w3.org/1999/xlink"
   xmlns="http://www.w3.org/2000/svg"
   xmlns:svg="http://www.w3.org/2000/svg"
   xmlns:rdf="http://www.w3.org/1999/02/22-rdf-syntax-ns#"
   xmlns:cc="http://creativecommons.org/ns#"
   xmlns:dc="http://purl.org/dc/elements/1.1/">
  <sodipodi:namedview
     id="namedview29"
     pagecolor="#ffffff"
     bordercolor="#999999"
     borderopacity="1"
     inkscape:showpageshadow="0"
     inkscape:pageopacity="0"
     inkscape:pagecheckerboard="0"
     inkscape:deskcolor="#d1d1d1"
     showgrid="false"
     inkscape:zoom="4.839262"
     inkscape:cx="53.7272"
     inkscape:cy="30.479854"
     inkscape:window-width="1920"
     inkscape:window-height="1005"
     inkscape:window-x="0"
     inkscape:window-y="0"
     inkscape:window-maximized="1"
     inkscape:current-layer="svg27" />
  <metadata
     id="metadata2">
    <rdf:RDF>
      <cc:Work
         rdf:about="">
        <dc:format>image/svg+xml</dc:format>
        <dc:type
           rdf:resource="http://purl.org/dc/dcmitype/StillImage" />
        <dc:title />
      </cc:Work>
    </rdf:RDF>
  </metadata>
  <defs
     id="defs9">
    <linearGradient
       id="linearGradient892"
       x1="-197.72"
       x2="-197.72"
       y1="263.86"
       y2="273.76"
       gradientTransform="matrix(0.18709,-0.18709,0.18709,0.18709,21.766563,-74.45)"
       gradientUnits="userSpaceOnUse">
      <stop
         offset="0"
         id="stop4" />
      <stop
         stop-opacity="0"
         offset="1"
         id="stop6" />
    </linearGradient>
    <linearGradient
       id="linearGradient954"
       x1="-16.139999"
       x2="-1.0699"
       y1="-55.616001"
       y2="-44.834999"
       gradientTransform="matrix(1,0,0,1.1,16.669,62.435)"
       gradientUnits="userSpaceOnUse">
      <stop
         stop-color="#8255ff"
         offset="0"
         id="stop268" />
      <stop
         stop-color="#8273ff"
         offset="1"
         id="stop270" />
    </linearGradient>
    <linearGradient
       id="linearGradient1006"
       x1="0.52938998"
       x2="16.216999"
       y1="2.7783999"
       y2="14.872"
       gradientTransform="matrix(1,0,0,1.1,16.669,62.435)"
       gradientUnits="userSpaceOnUse">
      <stop
         stop-color="#8255ff"
         offset="0"
         id="stop263" />
      <stop
         stop-color="#8273ff"
         offset="1"
         id="stop265" />
    </linearGradient>
    <linearGradient
       id="linearGradient1064"
       x1="-15.961"
       x2="-0.30109"
       y1="-43.254002"
       y2="-54.195999"
       gradientTransform="matrix(1,0,0,1.1,11.865885,62.362731)"
       gradientUnits="userSpaceOnUse">
      <stop
         stop-color="#8255ff"
         offset="0"
         id="stop258" />
      <stop
         stop-color="#8273ff"
         offset="1"
         id="stop260" />
    </linearGradient>
    <linearGradient
       inkscape:collect="always"
       xlink:href="#linearGradient954"
       id="linearGradient478"
       gradientUnits="userSpaceOnUse"
       gradientTransform="matrix(1,0,0,1.1,16.669,62.435)"
       x1="-16.139999"
       y1="-55.616001"
       x2="-1.0699"
       y2="-44.834999" />
    <linearGradient
       inkscape:collect="always"
       xlink:href="#linearGradient954"
       id="linearGradient674"
       gradientUnits="userSpaceOnUse"
       gradientTransform="matrix(1,0,0,1.1,16.669,62.435)"
       x1="-16.139999"
       y1="-55.616001"
       x2="-1.0699"
       y2="-44.834999" />
  </defs>
  <g
     id="g698"
     transform="translate(4.803393,-0.39056455)">
    <g
       transform="translate(-4.8028203,-0.07259834)"
       id="g309">
      <g
         transform="matrix(1,0,0,1.1,16.669,63.956)"
         fill="url(#linearGradient954)"
         stroke-width="0.66145"
         id="g303"
         style="fill:url(#linearGradient478)">
        <path
           d="m -8.2026,-51.317 h -7.9373 v -3.6379 c 0,-0.36531 0.29614,-0.66144 0.66144,-0.66144 h 5.6223 l 1.6536,1.3229 z"
           fill="url(#linearGradient954)"
           id="path301"
           style="fill:url(#linearGradient674)" />
      </g>
      <rect
         x="0.52938998"
         y="4.2333002"
         width="15.874"
         height="10.848"
         ry="0.79373002"
         fill="url(#linearGradient1006)"
         id="rect305"
         style="fill:url(#linearGradient1006)" />
      <rect
         x="0.97311002"
         y="4.6963"
         width="14.987"
         height="9.9216995"
         ry="0.29919001"
         fill="#fffffc"
         id="rect307" />
    </g>
    <path
       d="M 10.938885,4.1606314 H 3.6629847 l -1.6536,1.4552 h -5.6223 c -0.36531,0 -0.66144,0.32575 -0.66144,0.72759 v 7.9372996 c 0,0.40184 0.29614,0.72759 0.66144,0.72759 H 10.939085 c 0.36531,0 0.66145,-0.32575 0.66145,-0.72759 V 4.8881214 c 0,-0.40184 -0.29614,-0.72759 -0.66145,-0.72759 z"
       fill="url(#linearGradient1064)"
       stroke-width="0.69373"
       id="path311"
       style="fill:url(#linearGradient1064)" />
    <g
       transform="matrix(0,-0.054052,-0.051444,0,23.899885,32.310731)"
       enable-background="new"
       fill="#6437e1"
       stroke="#8255ff"
       id="g321">
      <path
         d="m 417.99,353.36 h 12.005 v 12.011 z"
         color="#000000"
         enable-background="accumulate"
         id="path313" />
      <path
         d="m 403.99,433.36 h -54.021 l -1.5e-4,-52 h 4.0016 l 1.5e-4,47.988 54.021,0.0117 z m 4.0016,-76 -58.023,2e-5 v -4.0117 l 54.022,0.0117 z"
         id="path315" />
      <path
         d="m 395.38,341.93 -2.7949,2.8613 49.554,48.57 -49.554,48.568 2.7949,2.8613 52.486,-51.432 z"
         color="#000000"
         color-rendering="auto"
         enable-background="accumulate"
         image-rendering="auto"
         shape-rendering="auto"
         solid-color="#000000"
         style="font-variant-ligatures:none;font-variant-position:normal;font-variant-caps:normal;font-variant-numeric:normal;font-variant-alternates:normal;font-feature-settings:normal;text-indent:0;text-decoration-line:none;text-decoration-style:solid;text-decoration-color:#000000;text-transform:none;white-space:normal;shape-padding:0;isolation:auto;mix-blend-mode:normal"
         id="path317" />
      <path
         d="m 388.75,397.36 c 0.2538,-1.0158 0.5239,-2.3651 0.80985,-4.0476 0.28572,-1.6825 0.42858,-3.619 0.42858,-5.8095 0,-1.9682 -0.28571,-3.6032 -0.85748,-4.9048 -0.5399,-1.3016 -1.318,-2.3333 -2.3343,-3.0952 -0.98451,-0.79367 -2.1755,-1.3492 -3.5728,-1.6667 -1.3974,-0.31762 -2.9376,-0.47618 -4.6208,-0.47618 h -28.63 l 1.9e-4,20 z"
         id="path319" />
    </g>
  </g>
</svg>
