<?xml version="1.0" encoding="UTF-8"?>
<svg width="64" height="64" fill="none" version="1.1" viewBox="0 0 64 64" xmlns="http://www.w3.org/2000/svg" xmlns:cc="http://creativecommons.org/ns#" xmlns:dc="http://purl.org/dc/elements/1.1/" xmlns:rdf="http://www.w3.org/1999/02/22-rdf-syntax-ns#" xmlns:xlink="http://www.w3.org/1999/xlink">
 <metadata>
  <rdf:RDF>
   <cc:Work rdf:about="">
    <dc:format>image/svg+xml</dc:format>
    <dc:type rdf:resource="http://purl.org/dc/dcmitype/StillImage"/>
   </cc:Work>
  </rdf:RDF>
 </metadata>
 <defs>
  <linearGradient id="a-3-3" x1="99.036" x2="99.036" y1="11.64" y2="199.84" gradientTransform="matrix(.3 0 0 .3 2 1.9995)" gradientUnits="userSpaceOnUse">
   <stop stop-color="#ff4b00" offset="0"/>
   <stop stop-color="#f50f2d" offset="1"/>
  </linearGradient>
  <linearGradient id="linearGradient7013" x1="34.102" x2="34.102" y1="25.742" y2="61.487" gradientUnits="userSpaceOnUse">
   <stop stop-color="#fff" offset="0"/>
   <stop stop-color="#ffcdd6" offset="1"/>
  </linearGradient>
 </defs>
 <circle cx="32" cy="32" r="30" color="#000000" fill="url(#a-3-3)" image-rendering="optimizeSpeed"/>
 <path d="m57.465 47.803a30 30 0 0 1-25.465 14.197 30 30 0 0 1-17.652-5.8359c-2.7521 1.1599-5.6394 2.3377-8.6914 3.5586-0.032184 0.0129-0.065525 0.026163-0.097656 0.039063 2.1751 1.4422 4.7845 2.2812 7.5898 2.2812h31.727c6.8209 0 12.482-4.9651 13.564-11.479l0.001953-0.001953c-0.26435-0.93347-0.59037-1.8565-0.97656-2.7598z" stroke-width="1.0576"/>
 <path d="m34.102 24s3.9218 0.63749 3.9102 2.248c0 0.05796-1.89e-4 0.10415-0.011719 0.16211-0.22972 1.4383-4.1597 1.6546-6.8848 1.8047-0.56795 0.0312-1.083 0.059743-1.502 0.095703-0.35335 0.03025-0.79413 0.054058-1.2949 0.080078h-0.001953c-2.9422 0.15314-7.9461 0.41385-9.3691 2.8984-0.08091 0.15061-0.12695 0.30038-0.12695 0.43945-0.004799 1.0897 2.3243 2.0351 5.125 3.1719 4.0191 1.6312 9.0091 3.6561 9.4727 7.0703 0.02316 0.1854 0.035156 0.38296 0.035156 0.56836-0.009309 4.7022-8.068 8.9731-19.105 13.625a30 30 0 0 0 17.652 5.8359 30 30 0 0 0 25.465-14.197c-1.5152-3.5441-4.0342-6.7596-8.1172-8.8789-5.2511-2.7341-12.164-4.2138-17.324-5.3184-4.0249-0.86155-6.9841-1.4939-7.2578-2.3164-0.02316-0.081119-0.035156-0.16294-0.035156-0.23242 0.01153-1.2862 4.0028-1.5874 6.6172-1.7148 2.7648-0.13897 6.952-0.50895 7.4609-2.502 0.01565-0.06261 0.02617-0.12684 0.03125-0.18945 0.0024-0.03004 0.003906-0.059804 0.003906-0.089844 0.01163-1.8539-4.7422-2.5605-4.7422-2.5605z" fill="url(#linearGradient7013)"/>
</svg>
