<?xml version="1.0" encoding="UTF-8" standalone="no"?>
<svg
   width="64"
   height="64"
   version="1.1"
   viewBox="0 0 64 64"
   id="svg14"
   sodipodi:docname="utilities-energy-monitor.svg"
   inkscape:version="1.2.1 (9c6d41e410, 2022-07-14, custom)"
   xmlns:inkscape="http://www.inkscape.org/namespaces/inkscape"
   xmlns:sodipodi="http://sodipodi.sourceforge.net/DTD/sodipodi-0.dtd"
   xmlns:xlink="http://www.w3.org/1999/xlink"
   xmlns="http://www.w3.org/2000/svg"
   xmlns:svg="http://www.w3.org/2000/svg">
  <defs
     id="defs18">
    <linearGradient
       id="linearGradient8783"
       x1="58.974998"
       x2="55.07"
       y1="3.7576001"
       y2="-3.3891001"
       gradientUnits="userSpaceOnUse"
       xlink:href="#linearGradient8781" />
    <linearGradient
       id="linearGradient8781">
      <stop
         stop-color="#6892c6"
         offset="0"
         id="stop299" />
      <stop
         stop-color="#5a82a1"
         offset=".25781"
         id="stop301" />
      <stop
         stop-color="#dcf6fc"
         offset=".75942"
         id="stop303" />
      <stop
         stop-color="#f8fcf8"
         offset="1"
         id="stop305" />
    </linearGradient>
    <linearGradient
       id="linearGradient66615"
       x1="55.099998"
       x2="58.801998"
       y1="-2.6891"
       y2="3.4349999"
       gradientUnits="userSpaceOnUse"
       xlink:href="#linearGradient66613" />
    <linearGradient
       id="linearGradient66613">
      <stop
         stop-color="#ebfcfc"
         offset="0"
         id="stop281" />
      <stop
         stop-color="#d8f8ef"
         offset=".25956"
         id="stop283" />
      <stop
         stop-color="#596f80"
         offset=".64992"
         id="stop285" />
      <stop
         stop-color="#4883c8"
         offset="1"
         id="stop287" />
    </linearGradient>
    <linearGradient
       id="linearGradient35758"
       x1="210.89999"
       x2="225.83"
       y1="-13.819"
       y2="12.34"
       gradientUnits="userSpaceOnUse"
       xlink:href="#linearGradient35756" />
    <linearGradient
       id="linearGradient35756">
      <stop
         stop-color="#f1f7fd"
         offset="0"
         id="stop290" />
      <stop
         stop-color="#949b7e"
         offset=".27521"
         id="stop292" />
      <stop
         stop-color="#566f98"
         offset=".71852"
         id="stop294" />
      <stop
         stop-color="#7ea0d0"
         offset="1"
         id="stop296" />
    </linearGradient>
    <linearGradient
       id="linearGradient105832"
       x1="43.231998"
       x2="50.706001"
       y1="-0.51481003"
       y2="12.432"
       gradientUnits="userSpaceOnUse"
       xlink:href="#linearGradient105830" />
    <linearGradient
       id="linearGradient105830">
      <stop
         stop-color="#e4f1fd"
         offset="0"
         id="stop272" />
      <stop
         stop-color="#e3f6fa"
         offset=".49011"
         id="stop274" />
      <stop
         stop-color="#96b4c1"
         offset=".80346"
         id="stop276" />
      <stop
         stop-color="#75a5b6"
         offset="1"
         id="stop278" />
    </linearGradient>
    <linearGradient
       id="linearGradient110655"
       x1="43.356998"
       x2="50.313"
       y1="0.036586002"
       y2="12.085"
       gradientUnits="userSpaceOnUse"
       xlink:href="#linearGradient110653" />
    <linearGradient
       id="linearGradient110653">
      <stop
         stop-color="#ecf2f5"
         offset="0"
         id="stop259" />
      <stop
         stop-color="#f3f4f6"
         offset=".17096"
         id="stop261" />
      <stop
         stop-color="#e6f3f9"
         offset=".42739"
         id="stop263" />
      <stop
         stop-color="#a0bac7"
         offset=".71105"
         id="stop265" />
      <stop
         stop-color="#98b4c2"
         offset=".87159"
         id="stop267" />
      <stop
         stop-color="#748e9d"
         offset="1"
         id="stop269" />
    </linearGradient>
    <linearGradient
       id="linearGradient135300"
       x1="50.425999"
       x2="45.342999"
       y1="2.289"
       y2="4.2915001"
       gradientUnits="userSpaceOnUse"
       xlink:href="#linearGradient135298" />
    <linearGradient
       id="linearGradient135298">
      <stop
         stop-color="#52906d"
         offset="0"
         id="stop254" />
      <stop
         stop-color="#adf3cf"
         offset="1"
         id="stop256" />
    </linearGradient>
    <linearGradient
       id="linearGradient159556"
       x1="155.75999"
       x2="182.62"
       y1="25.058001"
       y2="21.826"
       gradientUnits="userSpaceOnUse"
       xlink:href="#linearGradient159554" />
    <linearGradient
       id="linearGradient159554">
      <stop
         stop-color="#8ee242"
         offset="0"
         id="stop249" />
      <stop
         stop-color="#82d932"
         offset="1"
         id="stop251" />
    </linearGradient>
  </defs>
  <sodipodi:namedview
     id="namedview16"
     pagecolor="#ffffff"
     bordercolor="#999999"
     borderopacity="1"
     inkscape:showpageshadow="0"
     inkscape:pageopacity="0"
     inkscape:pagecheckerboard="0"
     inkscape:deskcolor="#d1d1d1"
     showgrid="false"
     inkscape:zoom="6.515625"
     inkscape:cx="5.9856115"
     inkscape:cy="24.172662"
     inkscape:window-width="1920"
     inkscape:window-height="989"
     inkscape:window-x="0"
     inkscape:window-y="0"
     inkscape:window-maximized="1"
     inkscape:current-layer="svg14" />
  <g
     transform="matrix(2.3720782,0,0,2.3720782,-80.525583,18.032916)"
     id="g377">
    <g
       id="g361">
      <path
         d="m 53.812,-2.627 c 0,0 1.6226,-1.3958 2.4491,-0.94098 0.82646,0.45487 1.6769,1.7691 2.3508,2.8834 0.67387,1.1142 1.651,3.3438 1.0974,3.9768 -0.55356,0.63302 -2.1224,1.2843 -2.1224,1.2843 l -4.5478,-6.7522 z"
         fill="url(#linearGradient8783)"
         id="path347"
         style="fill:url(#linearGradient8783)" />
      <path
         d="m 53.87,-1.9631 c 0,0 1.7606,-1.3187 2.1465,-1.0218 0.38591,0.29695 1.3256,1.3338 2.1056,2.7965 0.79739,1.4953 1.5278,2.7899 0.85622,3.3161 -0.67156,0.52614 -1.969,1.3586 -1.969,1.3586 l -3.8981,-5.9274 z"
         fill="url(#linearGradient66615)"
         id="path349"
         style="fill:url(#linearGradient66615)" />
      <path
         transform="scale(0.26458)"
         d="m 211.18,-13.83 c -1.7541,0.0025 -3.877,1.1341 -5.4629,2.1777 2.0342,-1.2755 4.7449,-2.5218 6.502,-1.5547 3.1237,1.7192 6.3378,6.6871 8.8848,10.898 2.547,4.2113 6.2387,12.639 4.1465,15.031 -0.52306,0.59814 -1.2846,1.2003 -2.1348,1.7676 1.0205,-0.64667 1.9583,-1.3492 2.5684,-2.0469 2.0923,-2.3926 -1.6015,-10.82 -4.1484,-15.031 -2.547,-4.2113 -5.7611,-9.1792 -8.8848,-10.898 -0.43926,-0.24177 -0.93784,-0.34452 -1.4707,-0.34375 z m -8.1074,4.0879 -2.5996,1.5195 0.0137,0.019531 2.4746,-1.4473 c 0,0 0.0799,-0.065397 0.11133,-0.091797 z"
         fill="url(#linearGradient35758)"
         id="path351"
         style="fill:url(#linearGradient35758)" />
      <path
         d="m 52.24,-5.2945 c 0,0 -0.35156,-0.17238 -0.69191,0.024122 -0.34035,0.1965 -16.239,9.3758 -16.239,9.3758 0,0 -0.50429,0.22486 -0.22381,1.2716 0.28048,1.0468 1.3356,3.9039 2.8027,6.2914 1.4671,2.3875 3.8546,5.9997 4.8801,5.4077 1.0255,-0.59207 16.115,-9.3042 16.115,-9.3042 0,0 0.42499,-0.18511 0.42024,-0.89597 -0.0048,-0.71085 -0.8097,-3.491 -2.3579,-6.2725 -1.5482,-2.7816 -3.4674,-5.1716 -4.7054,-5.898 z"
         fill="url(#linearGradient105832)"
         id="path353"
         style="fill:url(#linearGradient105832)" />
      <path
         d="m 51.952,-4.6604 c 0,0 -0.33163,-0.1626 -0.65267,0.022754 -0.32105,0.18536 -15.319,8.8442 -15.319,8.8442 0,0 -0.4757,0.21211 -0.21112,1.1995 0.26458,0.98742 1.2598,3.6825 2.6438,5.9347 1.384,2.2521 3.6361,5.6595 4.6034,5.101 0.96735,-0.5585 15.202,-8.7766 15.202,-8.7766 0,0 0.40089,-0.17462 0.39641,-0.84516 -0.0045,-0.67055 -0.76378,-3.293 -2.2242,-5.9169 -1.4604,-2.6238 -3.2708,-4.8784 -4.4386,-5.5635 z"
         fill="url(#linearGradient110655)"
         id="path355"
         style="fill:url(#linearGradient110655)" />
      <path
         transform="scale(0.26458)"
         d="m 168.95,16.055 c 0.0634,0.03352 0.12434,0.06818 0.18946,0.10156 0.1326,0.06798 0.26815,0.13586 0.4082,0.20312 0.14005,0.06727 0.28394,0.13481 0.43164,0.20117 0.1477,0.06637 0.29954,0.13199 0.45508,0.19726 0.15554,0.06527 0.31494,0.12937 0.47852,0.19336 0.16357,0.06399 0.3321,0.12694 0.5039,0.18945 0.17181,0.06251 0.34712,0.1247 0.52735,0.18555 0.18023,0.06085 0.36388,0.1207 0.55273,0.17969 0.18885,0.05899 0.38241,0.11689 0.58008,0.17383 0.19767,0.05693 0.40074,0.11328 0.60742,0.16797 0.20668,0.05469 0.41692,0.1079 0.63281,0.16016 0.21589,0.05226 0.43682,0.10467 0.66211,0.1543 0.22529,0.04963 0.45652,0.09772 0.69141,0.14453 0.23489,0.04681 0.47407,0.09097 0.71875,0.13476 0.24468,0.0438 0.49337,0.08636 0.74804,0.12695 0.25468,0.0406 0.51445,0.07999 0.7793,0.11719 0.26486,0.0372 0.53531,0.07185 0.81055,0.10547 0.27524,0.03361 0.55598,0.06587 0.8418,0.0957 0.28581,0.02984 0.57646,0.05812 0.87304,0.08398 0.29659,0.02586 0.5987,0.04861 0.90625,0.07031 0.30755,0.0217 0.62074,0.04125 0.93946,0.05859 0.0672,0.0037 0.13738,0.0063 0.20507,0.0098 -0.22348,-1.42 1.4244,-1.4503 3.123,-1.5977 1.6283,-0.14125 12.391,-0.79102 12.391,-0.79102 l -7.0781,-9.1211 c 0,0 -17.265,2.1818 -22.168,4.752 -1.1275,0.59103 -1.6558,1.2711 0.18945,3.7031 z"
         fill="#e0eef8"
         id="path357" />
      <path
         transform="scale(0.26458)"
         d="m 171.62,19.094 c 0.11641,0.03505 0.21833,0.07075 0.33789,0.10547 0.52747,0.15318 1.0838,0.30248 1.6719,0.44531 0.29402,0.07142 0.59731,0.14138 0.90625,0.20898 0.30893,0.0676 0.62356,0.13235 0.94726,0.19531 0.32371,0.06296 0.65582,0.12413 0.99414,0.18164 0.33833,0.05751 0.68432,0.11283 1.0371,0.16406 0.3528,0.05123 0.71296,0.09844 1.0801,0.14258 0.36712,0.04414 0.7398,0.08487 1.1211,0.12109 0.38129,0.03622 0.77071,0.06821 1.166,0.0957 0.39529,0.02749 0.79784,0.05042 1.207,0.06836 0.40916,0.01794 0.82514,0.03149 1.248,0.03906 0.0192,3.44e-4 0.0393,-3.22e-4 0.0586,0 -0.48614,-0.70047 -0.82191,-1.3038 -0.89453,-1.7246 -0.002,-0.0095 -0.002,-0.018 -0.004,-0.02734 -0.0677,-0.0035 -0.13788,-0.0061 -0.20507,-0.0098 -0.31872,-0.01735 -0.63191,-0.03689 -0.93946,-0.05859 -0.30755,-0.0217 -0.60966,-0.04445 -0.90625,-0.07031 -0.29658,-0.02586 -0.58723,-0.05415 -0.87304,-0.08398 -0.28582,-0.02983 -0.56656,-0.06209 -0.8418,-0.0957 -0.27524,-0.03361 -0.54569,-0.06827 -0.81055,-0.10547 -0.26485,-0.0372 -0.52462,-0.07659 -0.7793,-0.11719 -0.25466,-0.04059 -0.50336,-0.08316 -0.74804,-0.12695 -0.24468,-0.0438 -0.48386,-0.08796 -0.71875,-0.13476 -0.23489,-0.04681 -0.46612,-0.0949 -0.69141,-0.14453 -0.22529,-0.04963 -0.44622,-0.10204 -0.66211,-0.1543 -0.21589,-0.05225 -0.42613,-0.10546 -0.63281,-0.16016 -0.20668,-0.05469 -0.40975,-0.11104 -0.60742,-0.16797 -0.19767,-0.05693 -0.39123,-0.11484 -0.58008,-0.17383 -0.18885,-0.05899 -0.3725,-0.11884 -0.55273,-0.17969 -0.18023,-0.06085 -0.35554,-0.12303 -0.52735,-0.18555 -0.1718,-0.06251 -0.34033,-0.12546 -0.5039,-0.18945 -0.16358,-0.06399 -0.32298,-0.12809 -0.47852,-0.19336 -0.15554,-0.06527 -0.30738,-0.1309 -0.45508,-0.19726 -0.1477,-0.06637 -0.29159,-0.13391 -0.43164,-0.20117 -0.14005,-0.06727 -0.2756,-0.13515 -0.4082,-0.20312 -0.0651,-0.03338 -0.1261,-0.06805 -0.18946,-0.10156 0.60785,0.80114 1.4798,1.7982 2.666,3.0391 z"
         fill="#e0eef8"
         id="path359" />
    </g>
    <path
       d="M 52.389,4.4241 50.5165,2.0105 c 0,0 -4.5681,0.5773 -5.8653,1.2573 -0.46311,0.24276 -0.54673,0.54152 1.5137,2.545 l -6.4843,1.0118 c 0,0 8.5095,0.96858 9.3534,0.97619 0.8439,0.00761 1.2328,0.094412 1.137,-0.22828 -0.0958,-0.32269 -1.7929,-1.9725 -1.8855,-2.5093 -0.0661,-0.38306 0.37285,-0.39078 0.82524,-0.43003 0.43081,-0.037372 3.2783,-0.209 3.2783,-0.209 z"
       fill="none"
       stroke="#ddeef7"
       stroke-linecap="round"
       stroke-linejoin="round"
       stroke-width="0.79373"
       id="path363" />
    <g
       id="g375">
      <path
         d="M 52.389,4.4241 50.5165,2.0105 c 0,0 -4.5681,0.5773 -5.8653,1.2573 -0.46311,0.24276 -0.54673,0.54152 1.5137,2.545 l -6.4843,1.0118 c 0,0 8.5095,0.96858 9.3534,0.97619 0.8439,0.00761 1.2328,0.094412 1.137,-0.22828 -0.0958,-0.32269 -1.7929,-1.9725 -1.8855,-2.5093 -0.0661,-0.38306 0.37285,-0.39078 0.82524,-0.43003 0.43081,-0.037372 3.2783,-0.209 3.2783,-0.209 z"
         fill="url(#linearGradient135300)"
         id="path365"
         style="fill:url(#linearGradient135300)" />
      <path
         transform="scale(0.26458)"
         d="m 168.95,16.055 c 1.0194,1.3436 2.7599,3.2214 5.5313,5.916 l -24.508,3.8242 c 0,0 32.162,3.6607 35.352,3.6895 3.1896,0.02876 4.659,0.35636 4.2969,-0.86328 -0.36209,-1.2196 -6.7749,-7.4554 -7.125,-9.4844 -0.002,-0.0095 -0.002,-0.018 -0.004,-0.02734 -0.0677,-0.0035 -0.13788,-0.0061 -0.20507,-0.0098 -0.31872,-0.01735 -0.63191,-0.03689 -0.93946,-0.05859 -0.30755,-0.0217 -0.60966,-0.04445 -0.90625,-0.07031 -0.29658,-0.02586 -0.58723,-0.05415 -0.87304,-0.08398 -0.28582,-0.02983 -0.56656,-0.06209 -0.8418,-0.0957 -0.27524,-0.03361 -0.54569,-0.06827 -0.81055,-0.10547 -0.26485,-0.0372 -0.52462,-0.07659 -0.7793,-0.11719 -0.25467,-0.04059 -0.50336,-0.08316 -0.74804,-0.12695 -0.24468,-0.0438 -0.48386,-0.08796 -0.71875,-0.13476 -0.23489,-0.04681 -0.46612,-0.0949 -0.69141,-0.14453 -0.22529,-0.04963 -0.44622,-0.10204 -0.66211,-0.1543 -0.21589,-0.05226 -0.42613,-0.10546 -0.63281,-0.16016 -0.20668,-0.05469 -0.40975,-0.11103 -0.60742,-0.16797 -0.19767,-0.05693 -0.39123,-0.11484 -0.58008,-0.17383 -0.18885,-0.05899 -0.3725,-0.11884 -0.55273,-0.17969 -0.18023,-0.06085 -0.35554,-0.12303 -0.52735,-0.18555 -0.1718,-0.06251 -0.34033,-0.12546 -0.5039,-0.18945 -0.16358,-0.06399 -0.32298,-0.12809 -0.47852,-0.19336 -0.15554,-0.06527 -0.30738,-0.1309 -0.45508,-0.19726 -0.1477,-0.06637 -0.29159,-0.13391 -0.43164,-0.20117 -0.14005,-0.06727 -0.2756,-0.13515 -0.4082,-0.20312 -0.0651,-0.03338 -0.1261,-0.06805 -0.18946,-0.10156 z"
         fill="#adfe71"
         id="path367" />
      <path
         transform="scale(0.26458)"
         d="m 190.93,7.5996 c 0,0 -17.265,2.1818 -22.168,4.752 -0.81906,0.42936 -1.3245,0.90391 -0.83203,2.0645 0.18117,-0.25694 0.47567,-0.45382 0.83203,-0.64062 4.9029,-2.5701 22.168,-4.752 22.168,-4.752 l 6.0215,7.7617 c 0.17572,-0.01063 1.0566,-0.06445 1.0566,-0.06445 z m -17.695,14.566 -23.26,3.6289 c 0,0 2.1229,0.24173 5.2988,0.59766 l 19.209,-2.998 c -0.44434,-0.43204 -0.85524,-0.83727 -1.248,-1.2285 z"
         fill="#4c8065"
         id="path369" />
      <path
         transform="scale(0.26458)"
         d="m 171.62,19.094 c 0.80323,0.84024 1.7463,1.789 2.8652,2.877 l -24.508,3.8242 c 0,0 32.162,3.6607 35.352,3.6895 3.1896,0.02876 4.659,0.35636 4.2969,-0.86328 -0.28699,-0.96668 -4.3727,-5.083 -6.2305,-7.7598 -0.0192,-3.22e-4 -0.0394,3.44e-4 -0.0586,0 -0.42291,-0.0076 -0.83886,-0.02112 -1.248,-0.03906 -0.40914,-0.01794 -0.81172,-0.04087 -1.207,-0.06836 -0.39528,-0.02749 -0.78473,-0.05948 -1.166,-0.0957 -0.38129,-0.03623 -0.75397,-0.07696 -1.1211,-0.12109 -0.36712,-0.04414 -0.72728,-0.09135 -1.0801,-0.14258 -0.35279,-0.05123 -0.69878,-0.10655 -1.0371,-0.16406 -0.33832,-0.05751 -0.67043,-0.11868 -0.99414,-0.18164 -0.3237,-0.06296 -0.63833,-0.12771 -0.94726,-0.19531 -0.30894,-0.0676 -0.61223,-0.13757 -0.90625,-0.20898 -0.58804,-0.14283 -1.1444,-0.29213 -1.6719,-0.44531 -0.11956,-0.03472 -0.22148,-0.07042 -0.33789,-0.10547 z"
         fill="url(#linearGradient159556)"
         id="path371"
         style="fill:url(#linearGradient159556)" />
      <path
         transform="scale(0.26458)"
         d="m 197.01,15.438 c -0.26076,0.01572 -10.644,0.64175 -12.252,0.78125 -1.7098,0.14833 -3.369,0.17717 -3.1191,1.625 0.0882,0.51092 0.56087,1.2904 1.2246,2.1875 -0.19504,-0.34778 -0.32526,-0.65156 -0.36719,-0.89453 -0.24983,-1.4478 1.4093,-1.4767 3.1191,-1.625 1.6283,-0.14125 12.391,-0.79102 12.391,-0.79102 z m -42.586,9.6621 -4.4512,0.69531 c 0,0 32.162,3.6607 35.352,3.6895 3.1896,0.02876 4.659,0.35636 4.2969,-0.86328 -0.0721,-0.24295 -0.39101,-0.6897 -0.84766,-1.2578 0.32295,1.1778 -1.1483,0.85661 -4.3066,0.82812 -2.3746,-0.0214 -20.778,-2.0535 -30.043,-3.0918 z"
         fill="#4c8065"
         id="path373" />
    </g>
  </g>
</svg>
