<?xml version="1.0" encoding="UTF-8"?>
<svg width="64" height="64" version="1.1" xmlns="http://www.w3.org/2000/svg">
 <defs>
  <linearGradient id="linearGradient1100" x1="399.57" x2="399.57" y1="545.8" y2="517.8" gradientTransform="matrix(2.1429,0,0,2.1429,-826.36,-1107.5)" gradientUnits="userSpaceOnUse">
   <stop stop-color="#3889e9" offset="0"/>
   <stop stop-color="#5ea5fb" offset="1"/>
  </linearGradient>
 </defs>
 <circle cx="32.02" cy="32.044" r="0" fill="url(#linearGradient1100)" stroke-width="1.5715"/>
 <g transform="translate(-86.583 -51.87)" stroke-width="1.8667">
  <path d="m118.58 102.27c-1.537 0-2.9779-0.0534-4.3279-0.1611l-6.454 7.6095c-0.49009 0.57792-1.4363 0.23203-1.4363-0.52491v-8.6835c-7.5992-2.8532-10.182-9.2348-10.182-19.571 0-14.623 5.1692-21.331 22.4-21.331 17.231 0 22.4 6.7078 22.4 21.331 0 14.623-5.1692 21.331-22.4 21.331z" fill="#9179ee"/>
  <path d="m144.72 80.843c0-17.12-6.0308-24.973-26.133-24.973-20.103 0-26.133 7.853-26.133 24.973 0 12.184 3.0544 19.674 12.062 22.981v5.7641c0 2.1218 2.6622 3.0908 4.0411 1.4713l4.648-5.4591c1.6705 0.14448 3.4625 0.21616 5.3827 0.21616 20.103 0 26.133-7.8531 26.133-24.973zm-30.406 20.819c1.3324 0.10565 2.755 0.15829 4.2722 0.15829 17.01 0 22.113-6.5966 22.113-20.977 0-14.381-5.1031-20.978-22.113-20.978-17.01 0-22.113 6.5966-22.113 20.978 0 10.165 2.5495 16.44 10.051 19.246v8.5396c0 0.74443 0.93415 1.0845 1.418 0.51613z" clip-rule="evenodd" fill="#fff" fill-rule="evenodd"/>
  <path d="m110.26 76.654-0.0758 0.042-0.0668 0.05525c-0.51632 0.42709-1.2902 1.5994-0.61227 3.0485 0.56485 1.2074 1.8236 3.673 4.0352 5.5307 2.1629 1.817 4.4725 2.7942 5.9896 3.1142l0.0954 0.02016h0.087c4e-3 3.73e-4 0.0133 0.0013 0.028 0.0035 0.036 0.0051 0.0795 0.0125 0.14802 0.02445l0.16091-0.91933-0.16091 0.91933c0.0118 0.0021 0.0239 0.0043 0.0366 0.0065 0.46686 0.0825 1.5859 0.28037 2.5239-0.65427 0.60199-0.59995 1.1515-1.2255 1.388-1.5068 0.16613-0.15157 0.70765-0.46555 1.3927-0.23389 1.2973 0.43848 2.8398 1.4278 3.5853 1.9294 0.57717 0.38864 1.8836 1.3246 2.4726 1.7498l5.6e-4 3.73e-4c0.0489 0.03528 0.16371 0.15101 0.22568 0.31173 0.0496 0.12843 0.0763 0.30501-0.0429 0.56056-0.22138 0.47376-0.89507 1.3782-1.8075 2.1693-0.92904 0.80565-1.8958 1.3108-2.6704 1.3108 3e-3 0 0-3.73e-4 -9e-3 -0.0014-0.0345-0.0046-0.16278-0.02203-0.41683-0.07914-0.28559-0.06406-0.67143-0.16467-1.143-0.30654-0.94211-0.28355-2.2062-0.72539-3.6661-1.3535-2.9221-1.257-6.6007-3.2476-10.045-6.1792-2.1663-1.8439-4.2101-4.3934-5.8016-6.7799-1.6048-2.4067-2.6784-4.5395-2.9705-5.5246l-0.0205-0.06907-0.0308-0.06497c-0.0727-0.15363-0.17524-0.48197-0.17729-0.85437-2e-3 -0.35965 0.0882-0.7033 0.32597-0.98827 0.78404-0.93959 1.6142-1.8629 3.4456-2.7489 0.1706-0.08252 0.43783-0.15529 0.70049-0.15952 0.26926-0.0043 0.40964 0.06255 0.46564 0.11174 0.70074 0.61443 1.787 1.6991 2.5187 2.626 0.37819 0.47882 0.83496 1.0871 1.2158 1.6155 0.1904 0.26432 0.35822 0.504 0.48608 0.69459 0.064 0.09557 0.11517 0.17453 0.15288 0.23539 0.0258 0.04181 0.0396 0.06627 0.0454 0.07672 3e-3 0.01064 0.0175 0.05581 0.0302 0.13813 0.0159 0.1036 0.0233 0.23109 0.0127 0.36437-0.0222 0.27253-0.11181 0.49149-0.2729 0.63915-0.54694 0.50083-1.2884 0.96451-1.5792 1.1256zm8.8357-10.488c5.6e-4 -5.23e-4 1e-3 -1e-3 2e-3 -0.0017 0.0134-0.0125 0.0409-0.0285 0.0842-0.0285 7.4515 0 13.395 5.6707 13.398 12.55-1e-3 0.0017-3e-3 0.0039-6e-3 0.0069-0.0134 0.0125-0.0411 0.02838-0.0842 0.02838s-0.0707-0.01586-0.0842-0.02838c-3e-3 -3e-3 -5e-3 -0.0053-6e-3 -0.0069-3e-3 -6.9506-5.9733-12.489-13.217-12.489-0.0433 0-0.0707-0.01586-0.0842-0.0285-5.6e-4 -5.6e-4 -1e-3 -0.0011-2e-3 -0.0017zm2e-3 7.7091c-5.6e-4 -5.59e-4 -1e-3 -0.0011-2e-3 -0.0014 5.6e-4 -5.6e-4 1e-3 -0.0011 2e-3 -0.0017 0.0134-0.0125 0.0409-0.02856 0.0842-0.02856 2.9288 0 5.2056 2.2198 5.2086 4.8421-1e-3 0.0017-3e-3 0.0039-6e-3 0.0069-0.0134 0.0125-0.0409 0.02838-0.0842 0.02838-0.0431 0-0.0707-0.01586-0.0842-0.02838-3e-3 -3e-3 -5e-3 -0.0053-6e-3 -0.0069-3e-3 -2.6938-2.3068-4.7818-5.0279-4.7818-0.0433 0-0.0707-0.01586-0.0842-0.02856zm0-3.8537c-5.6e-4 -5.41e-4 -1e-3 -1e-3 -2e-3 -0.0015 5.6e-4 -5.23e-4 1e-3 -1e-3 2e-3 -0.0017 0.0134-0.0125 0.0409-0.02851 0.0842-0.02851 5.1903 0 9.3001 3.9452 9.3033 8.6958-1e-3 0.0017-3e-3 0.0039-6e-3 0.0069-0.0134 0.0125-0.0411 0.02838-0.0842 0.02838-0.0433 0-0.0709-0.01586-0.0842-0.02838-3e-3 -3e-3 -5e-3 -0.0053-6e-3 -0.0069-3e-3 -4.8222-4.1403-8.6356-9.1226-8.6356-0.0433 0-0.0707-0.01586-0.0842-0.0285z" fill="#fff" stroke="#fff" stroke-linecap="round"/>
 </g>
</svg>
