<?xml version="1.0" encoding="UTF-8"?>
<svg width="64" height="64" version="1.1" xmlns="http://www.w3.org/2000/svg">
 <defs>
  <linearGradient id="linearGradient1100" x1="399.57" x2="399.57" y1="545.8" y2="517.8" gradientTransform="matrix(2.1429,0,0,2.1429,-826.36,-1107.5)" gradientUnits="userSpaceOnUse">
   <stop stop-color="#3889e9" offset="0"/>
   <stop stop-color="#5ea5fb" offset="1"/>
  </linearGradient>
  <linearGradient id="linearGradient10326" x1="109.9" x2="109.9" y1="50.261" y2="13.739" gradientTransform="matrix(1.385 0 0 1.385 -49.004 24.874)" gradientUnits="userSpaceOnUse">
   <stop stop-color="#14aa4b" offset="0"/>
   <stop stop-color="#76dd38" offset="1"/>
  </linearGradient>
  <filter id="g" x="-.053572" y="-.068181" width="1.1071" height="1.1364" color-interpolation-filters="sRGB">
   <feGaussianBlur stdDeviation="0.81521739"/>
  </filter>
  <linearGradient id="linearGradient2716" x1="32" x2="32" y1="17.652" y2="46.348" gradientTransform="matrix(1.385 0 0 1.385 58.888 24.874)" gradientUnits="userSpaceOnUse">
   <stop stop-color="#fbfbfb" offset="0"/>
   <stop stop-color="#c4e4de" offset="1"/>
  </linearGradient>
 </defs>
 <circle cx="32.02" cy="32.044" r="0" fill="url(#linearGradient1100)" stroke-width="1.5715"/>
 <g transform="translate(-71.207 -37.193)">
  <path d="m103.21 43.902 25.291 25.291-25.291 25.291-25.291-25.291z" fill="url(#linearGradient10326)" stroke="#323232" stroke-width=".5"/>
  <path transform="matrix(1.385 0 0 1.385 58.886 24.874)" d="m14.392 17.652-0.65217 0.65217v1.3043l0.65217 0.65217h1.9565v25.435l0.65218 0.65217h1.9565l28.696-26.739v-1.3043l-0.65217-0.65217h-11.739l-0.65218 0.65217v1.3043l0.65218 0.65217h1.9565v1.3043l-14.348 13.043v-14.348h1.9565l0.65218-0.65217v-1.3043l-0.65218-0.65217zm20.08 15.652-0.92479 0.65217-0.43826 1.3043 0.48913 0.65217h1.4113l0.92478-0.65217 0.43565-1.3043-0.48652-0.65217m-4.7948 3.913-0.39261 1.3043h1.1739l-2.4783 6.5217h3.913l0.48131-1.3043h-1.1335l2.4783-6.5217m1.5639 0-0.45652 1.3043h0.97826l-2.4783 6.5217h3.3274l0.45653-1.3043h-0.7187l1.3709-3.913h2.7717l-1.86 5.2174h3.2609l0.52174-1.3043h-0.71609l1.3683-3.913h2.6087l-1.8261 5.2174h3.4187l0.59869-1.3043h-0.91174l1.8522-5.2174-1.0448-1.3043h-1.5639l-1.3044 1.3043h-1.1087l-1.11-1.3043h-1.2378l-1.2391 1.3043h-1.3044l-1.1739-1.3043" filter="url(#g)" opacity=".25"/>
  <path d="m78.819 49.322-0.90323 0.90323v1.8064l0.90323 0.90323h2.7097v35.227l0.90324 0.90323h2.7097l39.743-37.033v-1.8064l-0.90323-0.90323h-16.258l-0.90325 0.90323v1.8064l0.90325 0.90323h2.7097v1.8064l-19.871 18.064v-19.871h2.7097l0.90325-0.90323v-1.8064l-0.90325-0.90323zm27.81 21.677-1.2808 0.90323-0.60697 1.8064 0.67743 0.90323h1.9546l1.2808-0.90323 0.60336-1.8064-0.67381-0.90323m-6.6406 5.4194-0.54375 1.8064h1.6258l-3.4324 9.0323h5.4194l0.6666-1.8064h-1.5699l3.4324-9.0323m2.1659 0-0.63226 1.8064h1.3549l-3.4324 9.0323h4.6083l0.63228-1.8064h-0.99537l1.8986-5.4194h3.8387l-2.576 7.2259h4.5162l0.72259-1.8064h-0.99176l1.895-5.4194h3.613l-2.5291 7.2259h4.7348l0.82916-1.8064h-1.2627l2.5652-7.2259-1.447-1.8064h-2.1659l-1.8065 1.8064h-1.5355l-1.5373-1.8064h-1.7143l-1.7161 1.8064h-1.8065l-1.6258-1.8064" fill="url(#linearGradient2716)" stroke="#323232" stroke-width=".5"/>
 </g>
</svg>
