<?xml version="1.0" encoding="UTF-8"?>
<svg id="Activity-Monitor" width="64" height="64" enable-background="new 0 0 1024 1024" image-rendering="optimizeSpeed" version="1.1" viewBox="0 0 64 64" xmlns="http://www.w3.org/2000/svg" xmlns:cc="http://creativecommons.org/ns#" xmlns:dc="http://purl.org/dc/elements/1.1/" xmlns:rdf="http://www.w3.org/1999/02/22-rdf-syntax-ns#">
 <metadata>
  <rdf:RDF>
   <cc:Work rdf:about="">
    <dc:format>image/svg+xml</dc:format>
    <dc:type rdf:resource="http://purl.org/dc/dcmitype/StillImage"/>
   </cc:Work>
  </rdf:RDF>
 </metadata>
 <g transform="translate(-61,-2)" stroke-linecap="round" stroke-linejoin="round" stroke-width="2">
  <path d="m84 6c-2.77 0-5 2.23-5 5v31c0 2.77 2.23 5 5 5h32c2.77 0 5-2.23 5-5v-31c0-2.77-2.23-5-5-5zm6 7h20c1.662 0 3 1.338 3 3v21c0 1.662-1.338 3-3 3h-20c-1.662 0-3-1.338-3-3v-21c0-1.662 1.338-3 3-3z" fill="#1c9ef1"/>
  <path d="m70 21c-2.77 0-5 2.23-5 5v31c0 2.77 2.23 5 5 5h32c2.77 0 5-2.23 5-5v-31c0-2.77-2.23-5-5-5zm6 7h20c1.662 0 3 1.338 3 3v21c0 1.662-1.338 3-3 3h-20c-1.662 0-3-1.338-3-3v-21c0-1.662 1.338-3 3-3z" fill="#fd9206"/>
  <rect x="99" y="40" width="8" height="7" ry="0" fill="#1c9ef1"/>
 </g>
</svg>
