<?xml version="1.0" encoding="UTF-8"?>
<svg id="Activity-Monitor" width="64" height="64" enable-background="new 0 0 1024 1024" image-rendering="optimizeSpeed" version="1.1" viewBox="0 0 64 64" xmlns="http://www.w3.org/2000/svg" xmlns:cc="http://creativecommons.org/ns#" xmlns:dc="http://purl.org/dc/elements/1.1/" xmlns:rdf="http://www.w3.org/1999/02/22-rdf-syntax-ns#" xmlns:xlink="http://www.w3.org/1999/xlink">
 <metadata>
  <rdf:RDF>
   <cc:Work rdf:about="">
    <dc:format>image/svg+xml</dc:format>
    <dc:type rdf:resource="http://purl.org/dc/dcmitype/StillImage"/>
   </cc:Work>
  </rdf:RDF>
 </metadata>
 <defs>
  <linearGradient id="linearGradient11086" x1="-75.448" x2="-43.345" y1="53.045" y2="18.996" gradientTransform="matrix(1.0714 0 0 1.0714 90.439 -2.3339)" gradientUnits="userSpaceOnUse">
   <stop stop-color="#14ab4b" offset="0"/>
   <stop stop-color="#76dd38" offset="1"/>
  </linearGradient>
 </defs>
 <path d="m32.116 4c-15.299 0-27.748 12.448-27.755 27.748a27.693 27.693 0 0 0 3.702 13.872l-3.9368 14.379 14.716-3.8585c4.0539 2.2107 8.6178 3.3731 13.263 3.3754h0.01021c15.298 0 27.751-12.449 27.758-27.748a27.576 27.576 0 0 0-8.122-19.63c-5.2405-5.2439-12.212-8.1355-19.636-8.139zm-9.9832 14.948a23.084 23.084 0 0 0-0.02041 0.02042 5.4565 5.4565 0 0 0-0.01361-0.01361c0.01062-9.31e-4 0.02359-6e-3 0.03403-0.0068z" color="#000000" fill="#fafafa" stroke-width="34.843" style="-inkscape-stroke:none"/>
 <path d="m32.093 9.5006c-12.294 0-22.298 10.003-22.303 22.298a22.253 22.253 0 0 0 2.9748 11.147l-3.1635 11.555 11.825-3.1005c3.2576 1.7765 6.9249 2.7105 10.658 2.7123h0.0083c12.293 0 22.3-10.004 22.306-22.298a22.159 22.159 0 0 0-6.5265-15.774c-4.211-4.2138-9.812-6.5374-15.778-6.5402zm-7.8963 12c0.37219 0 0.74379 0.0032 1.0691 0.01914 0.34218 0.01784 0.80039-0.1286 1.2522 0.95696 0.46496 1.1155 1.581 3.8584 1.7198 4.1368 0.1397 0.27939 0.23209 0.6039 0.04647 0.97609-0.18561 0.37123-0.27842 0.60338-0.55777 0.92962-0.27847 0.32438-0.58544 0.72673-0.83666 0.9761-0.27842 0.27843-0.56865 0.57687-0.24334 1.1347 0.32527 0.55776 1.4432 2.3833 3.1005 3.8606 2.128 1.8974 3.9235 2.4876 4.4814 2.767 0.55684 0.27843 0.88324 0.23002 1.2085-0.14217 0.32531-0.37122 1.3923-1.6268 1.7636-2.1845 0.37215-0.5578 0.74406-0.46274 1.255-0.27616 0.51088 0.18561 3.2492 1.5316 3.806 1.8101 0.55776 0.27935 0.92937 0.4192 1.0691 0.65073 0.13873 0.2325 0.13866 1.35-0.32536 2.6521-0.46496 1.3011-2.6917 2.4892-3.7622 2.6494-0.95997 0.14343-2.1731 0.20227-3.508-0.22146-0.80995-0.25684-1.8479-0.60198-3.1771-1.1757-5.5909-2.413-9.242-8.0381-9.5204-8.4103-0.27842-0.37118-2.2776-3.0207-2.2776-5.7637 0-2.742 1.4413-4.0902 1.9522-4.6481 0.51092-0.55776 1.1125-0.69722 1.4846-0.69722z" fill="url(#linearGradient11086)" stroke-width=".03139"/>
</svg>
