<?xml version="1.0" encoding="UTF-8"?>
<!-- Created with Inkscape (http://www.inkscape.org/) -->
<svg width="64" height="64" version="1.1" viewBox="0 0 16.933 16.933" xmlns="http://www.w3.org/2000/svg">
 <path d="m8.0274 1.194-5.7085 3.262c-0.24747 0.14141-0.50185 0.22383-0.50185 0.50185v7.026c0 0.27802 0.26046 0.36392 0.50185 0.50185l5.7085 3.262c0.31366 0.18109 0.60542 0.15751 0.87825 0l5.7085-3.262c0.25093-0.14338 0.50185-0.22383 0.50185-0.50185v-7.026c0-0.27802-0.26046-0.36391-0.50185-0.50185l-5.7085-3.262c-0.31366-0.1811-0.56458-0.1811-0.87825 0z" fill="#aa57ff" stroke-width=".93084" style="paint-order:stroke markers fill"/>
 <path d="m8.4628 8.4665h-2.4967s-1.4981 0-1.4981-1.4981 1.4981-1.4981 1.4981-1.4981h5.9922m-3.488 2.9961h2.4967s1.4981 0 1.4981 1.4981-1.4981 1.4981-1.4981 1.4981h-5.9922" fill="none" stroke="#fff" stroke-linecap="round" stroke-linejoin="round" stroke-width=".99855"/>
</svg>
