<?xml version="1.0" encoding="UTF-8"?>
<!-- Created with Inkscape (http://www.inkscape.org/) -->
<svg width="64" height="64" version="1.1" viewBox="0 0 16.933 16.933" xmlns="http://www.w3.org/2000/svg" xmlns:cc="http://creativecommons.org/ns#" xmlns:dc="http://purl.org/dc/elements/1.1/" xmlns:rdf="http://www.w3.org/1999/02/22-rdf-syntax-ns#">
 <metadata>
  <rdf:RDF>
   <cc:Work rdf:about="">
    <dc:format>image/svg+xml</dc:format>
    <dc:type rdf:resource="http://purl.org/dc/dcmitype/StillImage"/>
   </cc:Work>
  </rdf:RDF>
 </metadata>
 <path d="m8.0274 1.194-5.7085 3.262c-0.24747 0.14141-0.50185 0.22383-0.50185 0.50185v7.026c0 0.27802 0.26046 0.36392 0.50185 0.50185l5.7085 3.262c0.31366 0.18109 0.60542 0.15751 0.87825 0l5.7085-3.262c0.25093-0.14338 0.50185-0.22383 0.50185-0.50185v-7.026c0-0.27802-0.26046-0.36391-0.50185-0.50185l-5.7085-3.262c-0.31366-0.1811-0.56458-0.1811-0.87825 0z" fill="#ff5b1f" stroke-width=".93084" style="paint-order:stroke markers fill"/>
 <g fill="#5e4aa6" stroke-width=".26458">
  <circle cx="-330.35" cy="-328.38" r="0"/>
  <circle cx="-312.11" cy="-326.25" r="0"/>
  <circle cx="-306.02" cy="-333.07" r="0"/>
  <circle cx="-308.84" cy="-326.01" r="0"/>
 </g>
 <path d="m7.6003 4.1372c-0.23985 0-0.43295 0.19309-0.43295 0.43295v3.4635c0 0.23985 0.19309 0.43295 0.43295 0.43295s0.43295-0.19309 0.43295-0.43295v-3.0306h1.4432a2.0203 2.0203 0 0 1 2.0203 2.0203 2.0203 2.0203 0 0 1-2.0203 2.0203h-3.175v0.00731a1.8761 1.8761 0 0 0-1.7318 1.8687 1.8761 1.8761 0 0 0 1.8761 1.8761h1.1545c0.23985 0 0.43295-0.19309 0.43295-0.43295v-1.4432c0-0.23984-0.19309-0.43294-0.43295-0.43294-0.23986 0-0.43295 0.19309-0.43295 0.43294v1.0102h-0.72156a1.0102 1.0102 0 0 1-1.0102-1.0102 1.0102 1.0102 0 0 1 1.0102-1.0102h3.0306a2.8863 2.8863 0 0 0 2.8863-2.8863 2.8863 2.8863 0 0 0-2.8863-2.8863z" fill="#fff" fill-rule="evenodd" stroke-width="1.0909" style="paint-order:stroke fill markers"/>
</svg>
