<?xml version="1.0" encoding="UTF-8" standalone="no"?>
<svg
   width="64"
   height="64"
   version="1.1"
   id="svg4059"
   sodipodi:docname="xfce4-statusnotifier-plugin.svg"
   inkscape:version="1.2.1 (9c6d41e410, 2022-07-14)"
   xmlns:inkscape="http://www.inkscape.org/namespaces/inkscape"
   xmlns:sodipodi="http://sodipodi.sourceforge.net/DTD/sodipodi-0.dtd"
   xmlns:xlink="http://www.w3.org/1999/xlink"
   xmlns="http://www.w3.org/2000/svg"
   xmlns:svg="http://www.w3.org/2000/svg">
  <defs
     id="defs4063">
    <linearGradient
       id="a-6"
       x1="99.036003"
       x2="99.036003"
       y1="11.64"
       y2="199.84"
       gradientTransform="matrix(0.3,0,0,0.3,1.9999985,1.9994991)"
       gradientUnits="userSpaceOnUse">
      <stop
         stop-color="#ff4b00"
         offset="0"
         id="stop3661" />
      <stop
         stop-color="#f50f2d"
         offset="1"
         id="stop3663" />
    </linearGradient>
    <linearGradient
       id="linearGradient951"
       x1="220.50999"
       x2="217.88"
       y1="314.42001"
       y2="-128.39999"
       gradientUnits="userSpaceOnUse"
       xlink:href="#a-3" />
    <linearGradient
       id="a-3">
      <stop
         stop-color="#c52828"
         offset="0"
         id="stop3655" />
      <stop
         stop-color="#ff5454"
         offset="1"
         id="stop3657" />
    </linearGradient>
  </defs>
  <sodipodi:namedview
     id="namedview4061"
     pagecolor="#ffffff"
     bordercolor="#999999"
     borderopacity="1"
     inkscape:showpageshadow="0"
     inkscape:pageopacity="0"
     inkscape:pagecheckerboard="0"
     inkscape:deskcolor="#d1d1d1"
     showgrid="false"
     inkscape:zoom="4.839262"
     inkscape:cx="7.8524369"
     inkscape:cy="30.066568"
     inkscape:window-width="1920"
     inkscape:window-height="1005"
     inkscape:window-x="1920"
     inkscape:window-y="0"
     inkscape:window-maximized="1"
     inkscape:current-layer="svg4059" />
  <circle
     cx="32"
     cy="32"
     r="30"
     color="#000000"
     fill="url(#a-6)"
     id="circle3684"
     style="fill:url(#a-6)" />
  <path
     d="m32.002 16c-2.2088 0-4.002 1.7921-4.002 4.002 0 2.2087 1.7932 3.998 4.002 3.998 2.2066 0 3.998-1.7893 3.998-3.998 0-2.2098-1.7914-4.002-3.998-4.002zm0 11c-2.3418 0-4.002 1.8263-4.002 4.0742v13.854c0 2.2502 1.6601 4.0723 4.002 4.0723 2.3406 0 3.998-1.8221 3.998-4.0723v-13.854c0-2.2502-1.6574-4.0742-3.998-4.0742z"
     fill="#ffffff"
     fill-opacity=".97238"
     id="path4057" />
</svg>
