<?xml version="1.0" encoding="UTF-8" standalone="no"?>
<svg
   xmlns:dc="http://purl.org/dc/elements/1.1/"
   xmlns:cc="http://creativecommons.org/ns#"
   xmlns:rdf="http://www.w3.org/1999/02/22-rdf-syntax-ns#"
   xmlns:svg="http://www.w3.org/2000/svg"
   xmlns="http://www.w3.org/2000/svg"
   xmlns:xlink="http://www.w3.org/1999/xlink"
   xmlns:sodipodi="http://sodipodi.sourceforge.net/DTD/sodipodi-0.dtd"
   xmlns:inkscape="http://www.inkscape.org/namespaces/inkscape"
   height="64"
   width="64"
   version="1.1"
   id="svg8"
   sodipodi:docname="zotero.svg"
   inkscape:version="1.0 (4035a4fb49, 2020-05-01)">
  <metadata
     id="metadata14">
    <rdf:RDF>
      <cc:Work
         rdf:about="">
        <dc:format>image/svg+xml</dc:format>
        <dc:type
           rdf:resource="http://purl.org/dc/dcmitype/StillImage" />
        <dc:title></dc:title>
      </cc:Work>
    </rdf:RDF>
  </metadata>
  <defs
     id="defs12">
    <radialGradient
       gradientUnits="userSpaceOnUse"
       gradientTransform="matrix(0.057428,0,0,0.057428,103.83996,56.098396)"
       r="470.16"
       cy="512.01"
       cx="512.01"
       id="a-3">
      <stop
         id="stop4"
         offset="0"
         stop-color="#14c878" />
      <stop
         id="stop6"
         offset="1"
         stop-color="#149632" />
    </radialGradient>
    <linearGradient
       id="a"
       x1="-6.1472"
       x2="-6.1472"
       y1="-137.82"
       y2="-100.78"
       gradientTransform="matrix(2.0044363,0,0,2.0044363,43.49944,271.60788)"
       gradientUnits="userSpaceOnUse">
      <stop
         stop-color="#ff8214"
         offset="0"
         id="stop864" />
      <stop
         stop-color="#ff6464"
         offset="1"
         id="stop866" />
    </linearGradient>
    <clipPath
       id="SVGID_2_">
      <use
         width="100%"
         height="100%"
         xlink:href="#SVGID_1_"
         id="use869" />
    </clipPath>
    <rect
       id="SVGID_1_"
       x="247.79"
       y="352.04"
       width="99.69"
       height="99.8" />
    <linearGradient
       id="a-36"
       x1="-6.1472"
       x2="-6.1472"
       y1="-137.82"
       y2="-100.78"
       gradientTransform="matrix(2.0044363,0,0,2.0044363,43.499439,271.60788)"
       gradientUnits="userSpaceOnUse">
      <stop
         stop-color="#14dc78"
         offset="0"
         id="stop908" />
      <stop
         stop-color="#14a03c"
         offset="1"
         id="stop910" />
    </linearGradient>
  </defs>
  <sodipodi:namedview
     inkscape:document-rotation="0"
     pagecolor="#c8c8c8"
     bordercolor="#666666"
     borderopacity="1"
     objecttolerance="10"
     gridtolerance="10"
     guidetolerance="10"
     inkscape:pageopacity="0"
     inkscape:pageshadow="2"
     inkscape:window-width="1920"
     inkscape:window-height="932"
     id="namedview10"
     showgrid="false"
     inkscape:zoom="4"
     inkscape:cx="-16.059596"
     inkscape:cy="-2.8619312"
     inkscape:window-x="0"
     inkscape:window-y="36"
     inkscape:window-maximized="1"
     inkscape:current-layer="svg8" />
  <path
     d="m 31.975105,2.0001189 a 6.8486174,6.8220666 0 0 0 -3.398676,0.910486 L 8.4233771,14.500815 a 6.8486174,6.8220666 0 0 0 -3.422863,5.909627 v 23.18042 a 6.8486174,6.8220666 0 0 0 3.422863,5.90536 L 28.576429,61.086431 a 6.8486174,6.8220666 0 0 0 6.847144,0 l 20.15163,-11.590209 a 6.8486174,6.8220666 0 0 0 3.424283,-5.90536 V 20.410442 A 6.8486174,6.8220666 0 0 0 55.575203,14.500815 L 35.423573,2.9106049 a 6.8486174,6.8220666 0 0 0 -3.26068,-0.909064 6.8486174,6.8220666 0 0 0 -0.187788,-0.0014 z"
     style="fill:#ffffff;fill-opacity:1;stroke-width:1.50004"
     id="path827" />
  <g
     style="image-rendering:optimizeSpeed"
     id="g19"
     fill="#5e4aa6"
     transform="translate(91.864184,1.335144e-5)">
    <circle
       id="circle11"
       r="0"
       cy="-1241.6"
       cx="-1248.7" />
    <circle
       id="circle13"
       fill-rule="evenodd"
       r="0"
       cy="23.855"
       cx="-149.14999" />
    <circle
       id="circle15"
       r="0"
       cy="-1241.6"
       cx="-1248.7" />
    <circle
       id="circle17"
       fill-rule="evenodd"
       r="0"
       cy="23.855"
       cx="-149.14999" />
  </g>
  <circle
     cx="-1248.6936"
     cy="-1241.6389"
     r="0"
     fill="#5e4aa6"
     stroke-width="1.00001"
     id="circle875" />
  <circle
     cx="-149.14687"
     cy="23.855019"
     r="0"
     fill="#5e4aa6"
     fill-rule="evenodd"
     stroke-width="1.00001"
     id="ellipse877" />
  <circle
     cx="-1316.1913"
     cy="-1241.6389"
     r="0"
     fill="#5e4aa6"
     stroke-width="1.00001"
     id="circle915" />
  <circle
     cx="-216.6445"
     cy="23.855019"
     r="0"
     fill="#5e4aa6"
     fill-rule="evenodd"
     stroke-width="1.00001"
     id="ellipse927" />
  <path
     inkscape:connector-curvature="0"
     id="path849"
     d=""
     style="fill:#000000;stroke-width:1.33333" />
  <path
     inkscape:connector-curvature="0"
     id="path847"
     d=""
     style="fill:#000000;stroke-width:1.33333" />
  <path
     inkscape:connector-curvature="0"
     id="path849-3"
     d=""
     style="fill:#000000;stroke-width:1.33333" />
  <path
     inkscape:connector-curvature="0"
     id="path847-6"
     d=""
     style="fill:#000000;stroke-width:1.33333" />
  <path
     d="m 19.500233,17.000032 v 4.999201 h 2.500192 14.79726 L 20.047931,42.937315 a 2.5002411,2.5002411 0 0 0 -0.01423,0.0166 2.5002411,2.5002411 0 0 0 -0.06164,0.08298 2.5002411,2.5002411 0 0 0 -0.05927,0.08535 2.5002411,2.5002411 0 0 0 -0.05571,0.08773 2.5002411,2.5002411 0 0 0 -0.05098,0.0901 2.5002411,2.5002411 0 0 0 -0.04861,0.09128 2.5002411,2.5002411 0 0 0 -0.04386,0.09365 2.5002411,2.5002411 0 0 0 -0.03913,0.09602 2.5002411,2.5002411 0 0 0 -0.03675,0.09721 2.5002411,2.5002411 0 0 0 -0.03201,0.09839 2.5002411,2.5002411 0 0 0 -0.02727,0.09958 2.5002411,2.5002411 0 0 0 -0.02371,0.100768 2.5002411,2.5002411 0 0 0 -0.02015,0.101957 2.5002411,2.5002411 0 0 0 -0.01541,0.101957 2.5002411,2.5002411 0 0 0 -0.01071,0.103136 2.5002411,2.5002411 0 0 0 -0.0071,0.104325 2.5002411,2.5002411 0 0 0 -0.0024,0.103135 2.5002411,2.5002411 0 0 0 0.0024,0.103136 2.5002411,2.5002411 0 0 0 0.006,0.103135 2.5002411,2.5002411 0 0 0 0.01071,0.103136 2.5002411,2.5002411 0 0 0 0.01423,0.103135 2.5002411,2.5002411 0 0 0 0.01896,0.101947 2.5002411,2.5002411 0 0 0 0.02252,0.100767 2.5002411,2.5002411 0 0 0 0.02727,0.09958 2.5002411,2.5002411 0 0 0 0.032,0.09958 2.5002411,2.5002411 0 0 0 0.03557,0.09721 2.5002411,2.5002411 0 0 0 0.03912,0.09484 2.5002411,2.5002411 0 0 0 0.04386,0.09484 2.5002411,2.5002411 0 0 0 0.04623,0.09247 2.5002411,2.5002411 0 0 0 0.05098,0.0901 2.5002411,2.5002411 0 0 0 0.05572,0.08773 2.5002411,2.5002411 0 0 0 0.05808,0.08535 2.5002411,2.5002411 0 0 0 0.06165,0.08298 2.5002411,2.5002411 0 0 0 0.0652,0.08061 2.5002411,2.5002411 0 0 0 0.06758,0.07825 2.5002411,2.5002411 0 0 0 0.07231,0.07469 2.5002411,2.5002411 0 0 0 0.07468,0.07113 2.5002411,2.5002411 0 0 0 0.07706,0.06875 2.5002411,2.5002411 0 0 0 0.08061,0.06639 2.5002411,2.5002411 0 0 0 0.08298,0.06165 2.5002411,2.5002411 0 0 0 0.08535,0.05809 2.5002411,2.5002411 0 0 0 0.08773,0.05571 2.5002411,2.5002411 0 0 0 0.0901,0.05098 2.5002411,2.5002411 0 0 0 0.09246,0.04742 2.5002411,2.5002411 0 0 0 0.09365,0.04386 2.5002411,2.5002411 0 0 0 0.09602,0.03912 2.5002411,2.5002411 0 0 0 0.09721,0.03556 2.5002411,2.5002411 0 0 0 0.0984,0.03201 2.5002411,2.5002411 0 0 0 0.09958,0.02727 2.5002411,2.5002411 0 0 0 0.100768,0.02371 2.5002411,2.5002411 0 0 0 0.101957,0.01896 2.5002411,2.5002411 0 0 0 0.103135,0.01423 2.5002411,2.5002411 0 0 0 0.103136,0.01071 2.5002411,2.5002411 0 0 0 0.103135,0.0071 2.5002411,2.5002411 0 0 0 0.103136,0.0024 h 20.000337 2.500194 V 41.999634 H 42.000791 27.20116 L 43.950918,21.062753 a 2.5002411,2.5002411 0 0 0 0.01304,-0.01541 2.5002411,2.5002411 0 0 0 0.06164,-0.08298 2.5002411,2.5002411 0 0 0 0.05928,-0.08535 2.5002411,2.5002411 0 0 0 0.05572,-0.08773 2.5002411,2.5002411 0 0 0 0.05097,-0.0901 2.5002411,2.5002411 0 0 0 0.04742,-0.09128 2.5002411,2.5002411 0 0 0 0.04505,-0.09365 2.5002411,2.5002411 0 0 0 0.03912,-0.09602 2.5002411,2.5002411 0 0 0 0.03675,-0.09721 2.5002411,2.5002411 0 0 0 0.03201,-0.0984 2.5002411,2.5002411 0 0 0 0.02845,-0.09958 2.5002411,2.5002411 0 0 0 0.02371,-0.100768 2.5002411,2.5002411 0 0 0 0.01897,-0.101957 2.5002411,2.5002411 0 0 0 0.01541,-0.101946 2.5002411,2.5002411 0 0 0 0.01185,-0.103136 2.5002411,2.5002411 0 0 0 0.0059,-0.103135 2.5002411,2.5002411 0 0 0 0.0036,-0.103136 2.5002411,2.5002411 0 0 0 -0.0024,-0.104325 2.5002411,2.5002411 0 0 0 -0.006,-0.103136 2.5002411,2.5002411 0 0 0 -0.01067,-0.103136 2.5002411,2.5002411 0 0 0 -0.01423,-0.101945 2.5002411,2.5002411 0 0 0 -0.01897,-0.101957 2.5002411,2.5002411 0 0 0 -0.02252,-0.101946 2.5002411,2.5002411 0 0 0 -0.02726,-0.09958 2.5002411,2.5002411 0 0 0 -0.03082,-0.0984 2.5002411,2.5002411 0 0 0 -0.03556,-0.09721 2.5002411,2.5002411 0 0 0 -0.03912,-0.09602 2.5002411,2.5002411 0 0 0 -0.04386,-0.09484 2.5002411,2.5002411 0 0 0 -0.04742,-0.09129 2.5002411,2.5002411 0 0 0 -0.04979,-0.09129 2.5002411,2.5002411 0 0 0 -0.05572,-0.08773 2.5002411,2.5002411 0 0 0 -0.05809,-0.08535 2.5002411,2.5002411 0 0 0 -0.06165,-0.08298 2.5002411,2.5002411 0 0 0 -0.0652,-0.08061 2.5002411,2.5002411 0 0 0 -0.06757,-0.07825 2.5002411,2.5002411 0 0 0 -0.07231,-0.07469 2.5002411,2.5002411 0 0 0 -0.0735,-0.07231 2.5002411,2.5002411 0 0 0 -0.07824,-0.06875 2.5002411,2.5002411 0 0 0 -0.08061,-0.0652 2.5002411,2.5002411 0 0 0 -0.0818,-0.06165 2.5002411,2.5002411 0 0 0 -0.08654,-0.05927 2.5002411,2.5002411 0 0 0 -0.08773,-0.05452 2.5002411,2.5002411 0 0 0 -0.08891,-0.05098 2.5002411,2.5002411 0 0 0 -0.09247,-0.04861 2.5002411,2.5002411 0 0 0 -0.09365,-0.04268 2.5002411,2.5002411 0 0 0 -0.09602,-0.04031 2.5002411,2.5002411 0 0 0 -0.09721,-0.03556 2.5002411,2.5002411 0 0 0 -0.0984,-0.032 2.5002411,2.5002411 0 0 0 -0.09958,-0.02727 2.5002411,2.5002411 0 0 0 -0.100767,-0.02371 2.5002411,2.5002411 0 0 0 -0.101952,-0.01896 2.5002411,2.5002411 0 0 0 -0.103137,-0.01541 2.5002411,2.5002411 0 0 0 -0.103137,-0.01071 2.5002411,2.5002411 0 0 0 -0.103137,-0.006 2.5002411,2.5002411 0 0 0 -0.103138,-0.0024 H 22.000447 Z"
     style="fill:#ff3232;fill-opacity:1;stroke-width:1.21394;stroke-linecap:round"
     id="rect969" />
</svg>
