<svg xmlns="http://www.w3.org/2000/svg" width="16" height="16" viewBox="0 0 4.233 4.233"><g transform="translate(-1.323 -291.444)" paint-order="stroke markers fill"><circle r="1.852" cy="293.56" cx="3.44" fill="#b5bbc0"/><circle cx="3.44" cy="293.56" r=".926" opacity=".15"/><g stroke-width="3.714" fill="#fff"><path d="M3.44 292.777a.784.784 0 0 0-.784.783.784.784 0 0 0 .784.784.784.784 0 0 0 .783-.784.784.784 0 0 0-.783-.783zm0 .356a.427.427 0 0 1 .427.427.427.427 0 0 1-.427.428.427.427 0 0 1-.428-.428.427.427 0 0 1 .428-.427z"/><path d="M3.297 292.456h.285v.499h-.285zM3.297 294.166h.285v.498h-.285zM4.544 293.418v.285h-.499v-.285zM2.834 293.418v.285h-.498v-.285zM4.321 294.24l-.201.202-.353-.353.202-.201zM3.112 293.032l-.201.201-.353-.353.202-.201zM2.76 294.442l-.202-.202.353-.352.201.201zM3.969 293.233l-.202-.201.353-.353.201.201z"/></g></g></svg>