<svg xmlns="http://www.w3.org/2000/svg" width="16" height="16" viewBox="0 0 4.233 4.233"><g transform="translate(-.163 -75.565) scale(.26923)" stroke-width="3.714"><rect ry=".265" y="285.888" x="1.587" height="7.408" width="11.642" fill="#5ca4ed" paint-order="stroke markers fill"/><path d="M6.085 281.919a.264.264 0 0 0-.264.264v5.292c0 .147.118.265.264.265h4.077l1.48 1.315c.19.04.264-.07.264-.265v-1.05h3.175a.264.264 0 0 0 .265-.265v-5.292a.264.264 0 0 0-.265-.264z" fill="#a0ecff" paint-order="markers stroke fill"/><path d="M4.233 290.642h2.91c.147 0 .304.123.265.265l-.508 1.847c-.04.141-.176.172-.285.27l-2.382 2.116c-.19.04-.264-.07-.264-.265v-3.968c0-.147.118-.265.264-.265z" fill="#5ca4ed" paint-order="markers stroke fill"/></g></svg>