<svg xmlns="http://www.w3.org/2000/svg" width="16" height="16" viewBox="0 0 4.233 4.233"><g transform="translate(-.163 -75.565) scale(.26923)" stroke-width="3.714" paint-order="stroke markers fill"><circle r="6.879" cy="288.533" cx="8.467" fill="#71aa75"/><path d="M5.595 285.662a.132.132 0 0 0 0 .187l5.426 5.426a.794.794 0 0 0 1.138-1.104.132.132 0 0 0-.001-.002.132.132 0 0 0-.015-.017.132.132 0 0 0-.187 0 .132.132 0 0 0 0 .187.53.53 0 1 1-.748.748l-5.426-5.425a.132.132 0 0 0-.187 0z" fill="#fff"/><path d="M5.957 286.024a3.175 3.175 0 0 0 0 4.49l4.49-4.49a3.175 3.175 0 0 0-4.49 0z" fill="#fff"/></g></svg>