<svg width="22" xmlns="http://www.w3.org/2000/svg" height="22"><g fill="#6c7a89"><path d="M3 3v16h16V3H3zm1 4h14v11H4V7z"/><path d="M11 8c-.834 0-1.612.256-2.16.735a2.48 2.48 0 0 0-.84 1.89h1.714c0-.396.136-.653.338-.829.202-.177.495-.296.948-.296.452 0 .745.12.947.296.202.176.338.433.338.829 0 .344-.076.49-.18.62-.447.394-.987.731-1.422 1.054-.49.322-.969.744-.969 1.326V14h1.714v-.375c.61-.546 1.517-1.022 2.083-1.522.298-.374.489-.884.489-1.478a2.48 2.48 0 0 0-.84-1.89C12.612 8.255 11.833 8 11 8zm-1.286 7.5V17h1.714v-1.5z"/></g></svg>