<svg width="22" xmlns="http://www.w3.org/2000/svg" height="22"><g fill="#cf000f" stroke-width="2"><path d="M11 3a8 8 0 0 0-8 8 8 8 0 0 0 8 8 8 8 0 0 0 8-8 8 8 0 0 0-8-8zm0 1a7 7 0 0 1 7 7 7 7 0 0 1-7 7 7 7 0 0 1-7-7 7 7 0 0 1 7-7z"/><path d="M11 6a5 5 0 0 0-3.318 1.268l.709.709A4 4 0 0 1 11 7a4 4 0 0 1 4 4h1a5 5 0 0 0-5-5zM6.475 8.889A5 5 0 0 0 6 11h1a4 4 0 0 1 .238-1.348l-.763-.763z"/><path d="M12.344 8.166l-2.146 4.977a1.2 1.2 0 0 0-.278.585l-.007.014h.006c-.09.562.221 1.086.719 1.212.499.126 1.021-.19 1.208-.727l.007.002v-.03l.024-.075c.044-.182.047-.371.007-.55z"/></g></svg>