<svg xmlns="http://www.w3.org/2000/svg" width="22" height="22"><g fill="#6c7a89"><path d="M3 3v16h16V3H3zm1 4h14v11H4V7z"/><path d="M11.465 14.16l-1.427-1.411.017-.017a9.843 9.843 0 0 0 2.085-3.669h1.646V7.94H9.853V6.816H8.729v1.123H4.796v1.118h6.276a8.828 8.828 0 0 1-1.781 3.012 8.79 8.79 0 0 1-1.298-1.882H6.87c.41.916.972 1.78 1.675 2.562l-2.86 2.82.798.798 2.809-2.81 1.747 1.748.427-1.146zm3.164-2.85h-1.124l-2.528 6.743H12.1l.63-1.686h2.669l.634 1.686h1.124L14.63 11.31zm-1.472 3.933l.91-2.432.91 2.432h-1.82z"/></g></svg>