<svg width="22" xmlns="http://www.w3.org/2000/svg" height="22"><path d="M13.08 3.001a.817.817 0 0 0-.341.089c-.164.09-.164.09-.605.022-.242-.038-.675-.08-.962-.095-.454-.023-.522-.018-.522.036 0 .043-.07.077-.215.106a2.017 2.017 0 0 0-.387.129c-.096.046-.184.075-.197.061-.014-.01.003-.025.036-.026.05 0 .049-.006-.004-.041-.053-.034-.049-.047.022-.034.104.01.235-.04.235-.09 0-.046-.229-.052-.376-.014-.058.014-.089.046-.076.079.015.036-.03.061-.136.079-.087.013-.226.04-.308.06-.144.033-.145.032-.052-.029.053-.035.094-.078.094-.098 0-.068-.131-.037-.43.106-.164.079-.33.136-.37.123-.148-.045-1.74 1.26-2.078 1.703-.077.102-.152.162-.197.148-.046-.009-.096.035-.142.121-.04.074-.191.317-.338.54-.332.507-.441.708-.52.97a2.93 2.93 0 0 1-.12.327c-.032.067-.086.317-.12.554-.064.434-.128.626-.198.584-.02-.008-.047-.004-.058.012-.056.088-.162.925-.195 1.544-.034.652-.03.719.049.914.046.116.157.484.247.819.358 1.346.483 1.741.713 2.25.69 1.535 1.807 2.763 3.516 3.87.779.503 2.036.996 2.913 1.14v-.007c.223.031.613.057 1.185.043.725-.008.914-.023 1.267-.104.269-.063.414-.116.414-.15 0-.05-.054-.051-.223-.036-1.14.099-1.43.064-2.003-.242-.409-.219-.53-.255-.415-.122.077.089-.052.081-.362-.02a1.646 1.646 0 0 0-.35-.081c-.086 0-.093-.01-.056-.077.072-.128.052-.165-.086-.165-.14 0-.303-.07-.572-.243-.135-.092-.196-.105-.292-.079-.104.027-.148.009-.319-.138-.27-.233-.345-.318-.347-.402-.002-.076-.087-.094-.153-.034-.025.023-.2-.096-.462-.312-.232-.193-.4-.35-.374-.364.09-.028.053-.123-.066-.166-.192-.07-.279-.154-.249-.243.02-.063-.02-.12-.185-.252a1.898 1.898 0 0 1-.275-.259c-.058-.085-.056-.087.062-.071.184.026.157-.05-.12-.326-.266-.267-.44-.36-.61-.329-.078.015-.15-.01-.248-.089-.192-.154-.402-.453-.335-.476.034-.012.005-.07-.084-.159a.641.641 0 0 1-.183-.358.696.696 0 0 0-.145-.322c-.257-.262-.391-.684-.622-1.948-.19-1.038-.191-1.015-.017-1.753.12-.506.126-.6.039-.6-.083 0-.086.012.066-.355.341-.823.979-1.72 1.342-1.887.163-.076.275-.204.275-.32 0-.033-.03-.032-.067-.018-.052.02-.047 0 .019-.087.165-.219.373-.372.694-.51.192-.083.348-.18.378-.232.047-.082.042-.089-.044-.067-.052.014-.087.025-.078.012.008-.006.164-.14.347-.3.304-.266.775-.566.633-.402-.032.036-.037.073-.014.087.022.012.062-.005.09-.038.063-.072.435-.239.811-.366.772-.26 1.853-.322 2.49-.146.75.207 1.546.673 2.176 1.277.438.42.718.808.878 1.209a.922.922 0 0 0 .122.237c.066.039.348 1.15.376 1.48.021.249.043.324.092.324.053 0 .06.061.048.346-.013.319-.023.354-.142.473-.124.124-.128.14-.1.386l.028.255-.26.391c-.23.349-.678.893-.488.594.058-.092.061-.113.012-.113-.032 0-.14.118-.24.263-.18.26-.335.398-.583.518-.07.034-.234.117-.364.186-.322.17-.673.25-1.106.25-.835 0-1.716-.396-2.26-1.02-.226-.258-.552-.837-.552-.98 0-.042-.02-.07-.058-.056-.045.017-.07-.05-.107-.28-.062-.4-.06-.512.02-.914.12-.6.455-1.068 1.06-1.474.428-.287.722-.364 1.322-.364.428.003.547.017.735.091.124.049.25.09.278.09.12-.003-.273-.254-.587-.373-.276-.105-.419-.131-.751-.146-.687-.03-1.216.172-1.725.657-.29.275-.57.7-.57.86a.529.529 0 0 1-.087.2c-.189.29-.298 1.218-.195 1.641.282 1.154.847 1.761 2.21 2.366.43.19.556.303.234.21-.294-.085-.704-.252-.837-.342-.147-.1-.175-.104-.175-.024 0 .042-.078.013-.263-.1-.145-.086-.28-.149-.301-.136-.11.065.602.534 1.082.714.708.261 1.512.371 2.111.275.352-.056.945-.306.878-.37-.028-.017-.083-.015-.165.014-.205.075-.658.155-1.044.184-.295.023-.415.012-.619-.047l-.25-.073.51-.03a4.48 4.48 0 0 0 1.407-.271c.854-.298 1.608-.928 2.085-1.743.177-.301.235-.354.235-.21 0 .116.102.079.12-.043a.632.632 0 0 0-.034-.243.463.463 0 0 1-.002-.32c.045-.16.056-.168.12-.115.16.13.18.123.154-.06a1.99 1.99 0 0 1 .044-.514c.037-.186.07-.45.074-.587l.008-.25.024.234c.026.24.1.318.125.13.013-.1-.036-.355-.099-.526-.03-.077-.027-.077.039 0 .103.121.116.057.046-.201a1.559 1.559 0 0 1-.036-.574c.026-.33.005-.394-.1-.293-.069.065-.195-.18-.2-.387-.003-.114-.03-.186-.09-.232a.883.883 0 0 1-.169-.2l-.082-.136.12.09c.067.05.13.086.14.072.012-.01-.036-.114-.106-.233-.069-.119-.15-.28-.18-.358-.095-.24-.305-.41-.35-.281-.008.023-.057-.037-.108-.133l-.095-.174.095-.014a.253.253 0 0 0 .142-.07c.04-.05.091-.011.284.215.128.15.364.464.524.698.16.233.296.403.305.378.021-.06-.065-.222-.376-.704-.137-.215-.25-.412-.25-.44a.609.609 0 0 0-.07-.178l-.071-.128.092.077c.16.136.149.035-.02-.188-.71-.938-1.666-1.605-2.84-1.98-.364-.118-.458-.12-.363-.011.05.058.04.058-.077 0a.724.724 0 0 1-.186-.129c-.042-.047-.141-.068-.255-.063zm-2.183.178c.03-.015.068-.013.083 0v.002c.014.008-.012.022-.057.022-.05-.001-.06-.01-.026-.024zm.297.034c.095-.013.233-.01.322.002.045.004.004.016-.163.015-.187 0-.259-.004-.159-.017zm.617.043a.278.278 0 0 1 .149 0c.04.005.008.018-.075.018-.081 0-.115-.004-.074-.018zm-1.032.014c.047-.01.073-.004.06.016-.013.019-.05.038-.085.038-.088 0-.075-.028.025-.054zm1.355.03c.031-.015.067-.014.08 0v.004c.015.008-.01.022-.055.022-.05-.001-.059-.013-.025-.026zm-1.61.033h.148l-.17.03v.004a2.185 2.185 0 0 0-.256.057c-.055.02-.048.01.02-.031a.615.615 0 0 1 .258-.06zM9.445 3.5c.009.008-.12.057-.285.108-.205.066-.314.082-.344.054-.03-.027-.108-.02-.249.025a2.232 2.232 0 0 0-.33.137l-.122.07.115-.088c.166-.128.554-.252.594-.19.024.037.102.028.318-.041.157-.049.294-.089.303-.075zm.558.006c.01.009-.085.043-.209.079-.249.069-.25.07-.25.045 0-.024.44-.143.46-.124zm-1.916.385c.012 0-.014.037-.056.081a.333.333 0 0 1-.098.081c-.012 0 .014-.036.056-.08a.335.335 0 0 1 .098-.082zm-.504.406c.002.002-.01.019-.036.05-.056.07-.092.089-.092.056 0-.008.035-.04.076-.07.034-.026.05-.039.052-.036zm6.849 4.306c-.04-.008-.073.023-.092.097-.02.07 0 .138.066.223h.002c.161.208.26.086.145-.178-.038-.085-.082-.134-.121-.142zm2.808.027c.011.03.01.064-.004.078-.014.014-.024-.01-.022-.054.002-.047.012-.056.026-.024zm-2.708 1.047c-.02-.013-.052.078-.068.2-.017.13-.062.258-.112.312l-.087.093.02-.1c.011-.057.033-.163.05-.234.048-.202-.037-.16-.12.059-.096.255-.09.33.024.374v.002c.188.072.234.05.283-.139.058-.215.063-.536.01-.567zm-.821 1.254c-.009-.008-.102.02-.207.065-.105.044-.282.1-.394.122-.193.04-.267.125-.148.17.03.01.158.024.287.024.233.003.236.001.358-.182.067-.102.113-.186.104-.2zm-3.449.911c-.09 0-.02.118.205.335.134.129.251.235.257.235.007 0 .012-.023.012-.051 0-.06-.419-.519-.474-.519zm-.132.406c-.018 0-.034.053-.034.115 0 .117.162.27.596.565.113.073.2.114.21.087.015-.045-.71-.767-.772-.767zm1.01.48l.117.07c.064.038.118.07.118.083 0 .032-.036.014-.134-.067z" fill="#f62459"/></svg>