<svg xmlns="http://www.w3.org/2000/svg" width="22" height="22"><path d="M4.334 3C3.595 3 3 3.595 3 4.334v13.332C3 18.405 3.595 19 4.334 19h13.332c.739 0 1.334-.595 1.334-1.334V4.334C19 3.595 18.405 3 17.666 3H4.334zM4 4h14v14H4V4zm1 1v1h3V5H5zm4 0v1h4V5H9zm5 0v1h3V5h-3zM5 7v1h3V7H5zm4 0v1h4V7H9zm5 0v1h3V7h-3zM5 9v1h3V9H5zm4 0v1h4V9H9zm5 0v1h3V9h-3zm-9 2v1h3v-1H5zm4 0v1h4v-1H9zm5 0v1h3v-1h-3zm-9 2v1h3v-1H5zm4 0v1h4v-1H9zm5 0v1h3v-1h-3zm-9 2v1h3v-1H5zm4 0v1h4v-1H9zm5 0v1h3v-1h-3z" color="#000" fill="#25bb70"/></svg>