<svg xmlns="http://www.w3.org/2000/svg" width="22" height="22"><g fill="#22a7f0"><path d="M11.514 4.786c0 .283-.23.51-.513.51a.511.511 0 0 1-.514-.51V3.53c0-.283.23-.511.514-.511.284 0 .513.228.513.511v1.257zM11.435 13.675c0 .232-.19.42-.423.42h-.023a.422.422 0 0 1-.423-.42v-1.358c0-.233.19-.422.423-.422h.023c.234 0 .423.188.423.422v1.358z"/><path d="M16.34 17.675a.606.606 0 0 0 .117-.679l-4.25-9.01c-.003-.024-.003-.05-.003-.076a.37.37 0 0 1 .085-.234 2.08 2.08 0 0 0 .833-1.666c0-1.154-.94-2.087-2.1-2.089a2.082 2.082 0 0 0-2.102 2.09c0 .68.325 1.284.832 1.665a.358.358 0 0 1 .086.234c0 .026 0 .052-.003.077l-4.25 9.01a.604.604 0 0 0 .116.678l-.67 1.361 1.06-1.147a.613.613 0 0 0 .709-.33l4.052-8.588a.202.202 0 0 1 .16-.077h.02c.065 0 .122.03.158.077l4.052 8.588a.61.61 0 0 0 .708.33l1.06 1.147-.67-1.361zM11.023 7.212a1.201 1.201 0 1 1 0-2.403c.667 0 1.206.538 1.206 1.201 0 .664-.54 1.202-1.206 1.202z"/><path d="M15.625 13.036a.275.275 0 0 1-.277.274H6.651a.276.276 0 0 1-.276-.274v-.002c0-.152.124-.274.276-.274h8.697a.277.277 0 0 1 .277.276z"/></g></svg>