<svg width="22" xmlns="http://www.w3.org/2000/svg" height="22"><defs><linearGradient id="c"><stop stop-color="#f27935"/><stop offset="1" stop-color="#f2784b"/></linearGradient><linearGradient id="b"><stop stop-color="#383e51"/><stop offset="1" stop-color="#655c6f" stop-opacity="0"/></linearGradient><linearGradient id="a"><stop stop-color="#f7ab89"/><stop offset="1" stop-color="#f9bda3"/></linearGradient></defs><g transform="translate(-326 -534.362)" fill="#22a7f0"><path d="M336 540.612l-3 .75.824.824 2.176-.543v-1.03zm-5.133 1.283l-1.867.467v9l8 2v-9l-5.938-1.484.63-.156-.825-.827zM339 540.862v1.031l3.938.985-4.938 1.234v9l7-1.75v-9l-6-1.5zm5 2.781v6.44l-5-1.25v-3.94l5-1.25zm-5 6.22l3.941.984-3.941.986v-1.97z" fill-rule="evenodd"/><rect width="3" x="336" y="537.362" rx="0" height="3" stroke-width="2"/></g></svg>