<svg width="16" height="16" version="1.1" xmlns="http://www.w3.org/2000/svg">
 <g fill="#363636">
  <path d="m8 0a8 8 0 0 0-8 8 8 8 0 0 0 8 8 8 8 0 0 0 8-8 8 8 0 0 0-8-8zm0 1a7 7 0 0 1 7 7 7 7 0 0 1-7 7 7 7 0 0 1-7-7 7 7 0 0 1 7-7z"/>
  <path d="m8.708 5.663q0 1.19-0.085 2.167-0.085 0.963-0.212 1.926h-0.822q-0.127-0.963-0.212-1.926-0.085-0.977-0.085-2.167v-2.663h1.416zm0.241 6.388q0 0.382-0.255 0.666-0.254 0.283-0.694 0.283t-0.694-0.283q-0.255-0.284-0.255-0.666t0.255-0.666q0.255-0.283 0.694-0.283 0.44 0 0.694 0.283 0.255 0.284 0.255 0.666z" font-family="Ubuntu" font-weight="400" letter-spacing="0" word-spacing="0"/>
 </g>
</svg>
