<svg width="16" height="16" version="1" xmlns="http://www.w3.org/2000/svg">
 <path d="m8 0v1h1v1h-1v1h1v1h-1v1c1.105 0 2 0.9 2 2v4c0 1.1-0.895 2-2 2s-2-0.9-2-2v-4c0-1.1 0.895-2 2-2-0.552 0-1-0.5-1-1h1v-1h-1v-1h1v-1h-1v-1zm0 6c-0.552 0-1 0.4-1 1 0 0.5 0.448 1 1 1s1-0.5 1-1c0-0.6-0.448-1-1-1zm0 3c-0.552 0-1 0.4-1 1v1c0 0.5 0.448 1 1 1s1-0.5 1-1v-1c0-0.6-0.448-1-1-1z" fill="#363636"/>
 <path d="m3 0c-1.108 0-2 0.892-2 2v12c0 1.108 0.892 2 2 2h10c1.108 0 2-0.892 2-2v-12c0-1.108-0.892-2-2-2h-10zm0 1h10c0.554 0 1 0.446 1 1v12c0 0.554-0.446 1-1 1h-10c-0.554 0-1-0.446-1-1v-12c0-0.554 0.446-1 1-1z" fill="#363636" stroke-linecap="round" stroke-linejoin="round" stroke-width="2"/>
</svg>
