<svg width="16" height="16" version="1.1" xmlns="http://www.w3.org/2000/svg">
 <g fill="#363636">
  <path d="m7 0c-1.108 0-2 0.892-2 2v7c0 1.108 0.892 2 2 2h7c1.108 0 2-0.892 2-2v-7c0-1.108-0.892-2-2-2h-7zm0 1h7c0.554 0 1 0.446 1 1v7c0 0.554-0.446 1-1 1h-7c-0.554 0-1-0.446-1-1v-7c0-0.554 0.446-1 1-1z" stroke-linecap="round" stroke-linejoin="round" stroke-width="1.0016"/>
  <g aria-label="A">
   <path d="m12.181 9-0.47684-1.6594h-2.4033l-0.48161 1.6594h-1.4925l2.265-7h1.8072l2.2745 7zm-0.82016-2.8992-0.44823-1.5259q-0.02861-0.085831-0.08583-0.28134-0.05722-0.1955-0.12398-0.42916-0.06199-0.23842-0.11921-0.47684-0.05722-0.23842-0.08106-0.40531-0.01907 0.1049-0.05245 0.24796-0.02861 0.14305-0.07153 0.30518-0.03815 0.15736-0.08106 0.31948t-0.08106 0.30518-0.07153 0.25272q-0.02861 0.10967-0.04292 0.16213l-0.44346 1.5259z" fill="#363636" stroke-width=".24414"/>
  </g>
  <path d="m2 5c-1.108 0-2 0.892-2 2v7c0 1.108 0.892 2 2 2h7c1.108 0 2-0.892 2-2v-2h-1v2c0 0.554-0.446 1-1 1h-7c-0.554 0-1-0.446-1-1v-7c0-0.554 0.446-1 1-1h1v-1h-1zm0.11133 2.7227v5.0156h0.45312v-0.74609h1.123v-1.0996c-0.17996-0.2199-0.34104-0.45677-0.45312-0.72266v1.291h-0.66992v-3.207h0.43555v-0.53125h-0.88867zm2.2871 3.8086c-0.2619 0.79515-0.59351 1.6615-0.85547 2.1992l0.5 0.26953c0.26364-0.63828 0.56751-1.4745 0.8125-2.2266-0.16079-0.066115-0.31184-0.15041-0.45703-0.24219zm1.0566 0.41406c-0.059049 0.35177-0.11882 0.73737-0.17383 1.0078h2.5312c-0.038462 0.23077-0.092759 0.37792-0.1543 0.43945-0.076923 0.09231-0.15427 0.10742-0.27734 0.10742-0.13846 0-0.49222-0.008302-0.86914-0.039062 0.084615 0.13846 0.13879 0.33822 0.14648 0.48437 0.36154 0.015381 0.72188 0.023193 0.92188 0.007813 0.22308-0.02308 0.36935-0.08479 0.50781-0.26172 0.1-0.12308 0.16905-0.33828 0.23828-0.73828h0.43945v-0.48438h-0.37695c0.014938-0.12548 0.026067-0.32071 0.039062-0.46875h-0.49219c-0.012996 0.14768-0.024125 0.34925-0.039062 0.46875h-2.0156c0.021088-0.14159 0.049009-0.31698 0.072266-0.47266-0.17027-0.002649-0.33594-0.02114-0.49805-0.050782zm1.4062 0.054688c0.16757 0.15351 0.31455 0.30677 0.4043 0.43164l0.30664-0.30078c-0.030305-0.03879-0.089385-0.088224-0.12891-0.13086h-0.58203z" opacity=".35"/>
 </g>
</svg>
