<svg width="16" height="16" version="1.1" xmlns="http://www.w3.org/2000/svg">
 <path d="m10.626 7.93c0.736 0 0.199 1.63 0.795 2.06 0.599 0.43 1.979-0.58 2.209 0.12 0.22 0.7-1.49 0.69-1.719 1.39-0.228 0.7 1.169 1.7 0.569 2.13-0.597 0.44-1.118-1.2-1.854-1.2-0.737 0-1.258 1.64-1.854 1.2-0.596-0.43 0.796-1.43 0.569-2.13-0.228-0.7-1.943-0.69-1.715-1.39 0.227-0.7 1.609 0.31 2.205-0.12 0.595-0.43 0.059-2.06 0.795-2.06z" fill="#363636"/>
 <path class="ColorScheme-Text" d="m2 2c-1.108 0-2 0.892-2 2v9c0 1.108 0.892 2 2 2h12c1.108 0 2-0.892 2-2v-8c0-1.108-0.892-2-2-2h-7.6289c-0.57985-0.0229-0.60474 0.076886-1.0391-0.35742-0.43381-0.43381-0.61297-0.64213-1.332-0.64258zm0 1h2c0.31116-1.7e-6 0.52033 1.383e-4 0.99805 0.4707 0.47877 0.47161 0.6388 0.5293 1 0.5293h8.002c0.554 0 1 0.446 1 1v1h-14v-2c0-0.554 0.446-1 1-1zm-1 4h14v6c0 0.554-0.446 1-1 1h-12c-0.554 0-1-0.446-1-1z" color="#363636" fill="currentColor"/>
</svg>
