<svg width="16" height="16" version="1.1" xmlns="http://www.w3.org/2000/svg">
 <defs>
  <style id="current-color-scheme" type="text/css">.ColorScheme-Text { color:#363636; }</style>
 </defs>
 <path class="ColorScheme-Text" d="m8.0611 1.0018c-0.095591 0.00746-0.19096 0.036597-0.27917 0.087928l-0.48855 0.28137c-0.31365 0.18251-0.41664 0.58075-0.23555 0.89687l4.2399 7.4036 1.5529-1.0464-4.1788-7.2893c-0.11318-0.19758-0.30554-0.31939-0.51472-0.33413-0.031378-0.002237-0.0641-0.00255-0.095965 0zm-1.5005 2.5235c-0.20918 0.014742-0.41027 0.12776-0.52345 0.32533l-0.42748 0.7386 1.614 0.94083 0.42748-0.7386c0.18108-0.31612 0.078098-0.71436-0.23555-0.89687l-0.47983-0.28137c-0.11762-0.068443-0.24963-0.096772-0.37514-0.087928zm-1.2214 1.5475-3.6554 6.3924 1.614 0.93204 3.6554-6.3836zm-5.3391 2.8665v1.8817h2.1637l1.0731-1.8817zm6.3163 0-1.0731 1.8817h5.6793l-1.0818-1.8817zm6.604 0 1.0818 1.8817h1.998v-1.8817zm0.20952 1.1695-1.5529 1.0463 0.77645 1.3541 1.5529-1.0463zm1.0556 1.8465-1.5529 1.0463c0.04626 1.8708 1.4638 1.6379 2.0065 2.8049 1.0334-1.1089 0.72094-2.814-0.45365-3.8513zm-12.781 0.99358-0.84624 3.0511 2.4602-2.1103z" fill="currentColor" opacity="1"/>
</svg>
