<svg width="16" height="16" version="1.1" xmlns="http://www.w3.org/2000/svg">
 <g transform="translate(-591.99 -300)" fill="#363636">
  <path d="m595.99 302c-1.258 0.015-2.179-0.03-2.932 0.385a1.88 1.88 0 0 0-0.837 0.998c-0.165 0.438-0.225 0.96-0.225 1.617v7c0 0.658 0.06 1.179 0.225 1.617 0.164 0.439 0.461 0.789 0.837 0.996 0.753 0.415 1.674 0.372 2.932 0.387h8.012c1.258-0.015 2.179 0.03 2.932-0.385a1.88 1.88 0 0 0 0.838-0.998c0.164-0.438 0.224-0.96 0.224-1.617v-7c0-0.658-0.06-1.179-0.225-1.617a1.875 1.875 0 0 0-0.837-0.996c-0.753-0.415-1.674-0.372-2.932-0.387h-8.008zm6e-3 1h8c1.259 0.015 2.09 0.06 2.455 0.262 0.184 0.1 0.287 0.213 0.385 0.472 0.097 0.26 0.16 0.674 0.16 1.266v7c0 0.592-0.063 1.006-0.16 1.266-0.098 0.26-0.202 0.371-0.385 0.472-0.366 0.202-1.196 0.247-2.455 0.262h-8c-1.259-0.015-2.09-0.06-2.455-0.262-0.183-0.1-0.287-0.213-0.385-0.472-0.097-0.26-0.16-0.674-0.16-1.266v-7c0-0.592 0.063-1.006 0.16-1.266 0.098-0.26 0.203-0.371 0.387-0.472 0.366-0.202 1.194-0.247 2.453-0.262z" font-family="sans-serif" font-weight="400" overflow="visible" style="font-feature-settings:normal;font-variant-alternates:normal;font-variant-caps:normal;font-variant-ligatures:normal;font-variant-numeric:normal;font-variant-position:normal;isolation:auto;mix-blend-mode:normal;shape-padding:0;text-decoration-color:#000000;text-decoration-line:none;text-decoration-style:solid;text-indent:0;text-orientation:mixed;text-transform:none;white-space:normal"/>
  <path d="m604.43 305a1.53 1.53 0 0 0-1.057 0.44c-0.273 0.265-0.461 0.602-0.61 0.974-0.296 0.743-0.443 1.6-0.573 2.484-0.13 0.882-0.239 1.749-0.397 2.34-0.079 0.297-0.175 0.519-0.248 0.624-0.072 0.104-0.063 0.086-0.091 0.086-0.045 0-0.088-0.01-0.181-0.1a1.938 1.938 0 0 1-0.328-0.492c-0.23-0.458-0.448-1.135-0.647-1.823-0.198-0.689-0.382-1.566-0.59-2.13-0.36-0.608-0.52-0.995-1.597-1.27-0.832 0.018-1.293 0.437-1.657 1.892-0.064 0.353-0.127 1.69-0.193 1.882-0.02 0.06-0.03 0.069-0.043 0.093l-2.222 0.5 2.337 0.552c0.236 0.056 0.475-0.14 0.606-0.296a1.46 1.46 0 0 0 0.259-0.487c-0.083-2.557 0.7-4.108 1.58-2.486 0.178 0.48 0.362 1.351 0.565 2.056 0.204 0.705 0.424 1.423 0.72 2.01 0.147 0.294 0.315 0.56 0.535 0.773 0.221 0.214 0.521 0.378 0.856 0.378 0.372 0 0.704-0.238 0.896-0.516 0.193-0.277 0.308-0.6 0.404-0.96 0.192-0.719 0.295-1.6 0.422-2.466 0.128-0.865 0.28-1.667 0.507-2.235 0.113-0.284 0.244-0.491 0.365-0.608 0.12-0.117 0.237-0.206 0.404-0.207l1.544-8e-3v-1z" font-family="sans-serif" font-weight="400" overflow="visible" style="font-feature-settings:normal;font-variant-alternates:normal;font-variant-caps:normal;font-variant-ligatures:normal;font-variant-numeric:normal;font-variant-position:normal;isolation:auto;mix-blend-mode:normal;shape-padding:0;text-decoration-color:#000000;text-decoration-line:none;text-decoration-style:solid;text-indent:0;text-orientation:mixed;text-transform:none;white-space:normal"/>
  <circle cx="606" cy="305.5" r=".5"/>
 </g>
</svg>
