<?xml version="1.0" encoding="UTF-8" standalone="no"?>
<svg
   xmlns:dc="http://purl.org/dc/elements/1.1/"
   xmlns:cc="http://creativecommons.org/ns#"
   xmlns:rdf="http://www.w3.org/1999/02/22-rdf-syntax-ns#"
   xmlns:svg="http://www.w3.org/2000/svg"
   xmlns="http://www.w3.org/2000/svg"
   xmlns:xlink="http://www.w3.org/1999/xlink"
   xmlns:sodipodi="http://sodipodi.sourceforge.net/DTD/sodipodi-0.dtd"
   xmlns:inkscape="http://www.inkscape.org/namespaces/inkscape"
   style="isolation:isolate"
   viewBox="0 0 48 48"
   width="48"
   height="48"
   version="1.1"
   id="svg30"
   sodipodi:docname="deb.svg"
   inkscape:version="1.0.2 (e86c870879, 2021-01-15)">
  <metadata
     id="metadata34">
    <rdf:RDF>
      <cc:Work
         rdf:about="">
        <dc:format>image/svg+xml</dc:format>
        <dc:type
           rdf:resource="http://purl.org/dc/dcmitype/StillImage" />
        <dc:title></dc:title>
      </cc:Work>
    </rdf:RDF>
  </metadata>
  <sodipodi:namedview
     pagecolor="#ffffff"
     bordercolor="#666666"
     borderopacity="1"
     objecttolerance="10"
     gridtolerance="10"
     guidetolerance="10"
     inkscape:pageopacity="0"
     inkscape:pageshadow="2"
     inkscape:window-width="1268"
     inkscape:window-height="1394"
     id="namedview32"
     showgrid="false"
     inkscape:zoom="4.0833333"
     inkscape:cx="105.31425"
     inkscape:cy="-25.027859"
     inkscape:window-x="1284"
     inkscape:window-y="38"
     inkscape:window-maximized="0"
     inkscape:current-layer="svg30"
     inkscape:document-rotation="0" />
  <linearGradient
     id="_lgradient_32"
     x1="0"
     y1="0.5"
     x2="1"
     y2="0.5"
     gradientTransform="matrix(-46,0,0,-46,47,47)"
     gradientUnits="userSpaceOnUse"
     xlink:href="#linearGradient1423">
    <stop
       offset="0%"
       stop-opacity="1"
       style="stop-color:#ffbb24;stop-opacity:1"
       id="stop2" />
    <stop
       offset="97.82608695652173%"
       stop-opacity="1"
       style="stop-color:#f7f206;stop-opacity:1"
       id="stop4" />
  </linearGradient>
  <path
     d="M 30,5 V 5 C 28.896,5 28,4.104 28,3 v 0 c 0,-1.104 0.896,-2 2,-2 v 0 h 10 c 3.863,0 7,3.137 7,7 v 32 c 0,3.863 -3.137,7 -7,7 H 7.9999999 c -3.863,0 -7,-3.137 -7,-7 V 8 c 0,-3.863 3.137,-7 7,-7 H 18 v 0 c 1.104,0 2,0.896 2,2 v 0 c 0,1.104 -0.896,2 -2,2 V 5 H 9.9999999 c -2.76,0 -5,2.24 -5,5 v 28 c 0,2.76 2.24,5 5,5 H 38 c 2.76,0 5,-2.24 5,-5 V 10 C 43,7.24 40.76,5 38,5 Z"
     fill="url(#_lgradient_32)"
     id="path7-2"
     style="isolation:isolate;fill:url(#linearGradient904);fill-opacity:1" />
  <defs
     id="defs14">
    <linearGradient
       id="linearGradient1431"
       x1="0"
       y1="0.5"
       x2="1"
       y2="0.5">
      <stop
         offset="0%"
         style="stop-color:#fec021;stop-opacity:1"
         id="stop1427" />
      <stop
         offset="97.82608695652173%"
         style="stop-color:#f8e90b;stop-opacity:1"
         id="stop1429" />
    </linearGradient>
    <linearGradient
       id="linearGradient1423"
       x1="0"
       y1="0.5"
       x2="1"
       y2="0.5">
      <stop
         offset="0%"
         style="stop-color:#fec021;stop-opacity:1"
         id="stop1419" />
      <stop
         offset="97.82608695652173%"
         style="stop-color:#38F9D7"
         id="stop1421" />
    </linearGradient>
    <linearGradient
       id="_lgradient_33"
       x1="0"
       y1="0.5"
       x2="1"
       y2="0.5"
       gradientUnits="objectBoundingBox"
       spreadMethod="pad">
      <stop
         offset="0%"
         style="stop-color:#43E97B"
         id="stop9" />
      <stop
         offset="97.82608695652173%"
         style="stop-color:#38F9D7"
         id="stop11" />
    </linearGradient>
    <linearGradient
       id="_lgradient_22"
       x1="0"
       y1="0.5"
       x2="1"
       y2="0.5"
       gradientTransform="matrix(45.333332,0,0,58.934665,8.9251713,-114.20136)"
       gradientUnits="userSpaceOnUse">
      <stop
         offset="0%"
         stop-opacity="1"
         style="stop-color:rgb(242,55,239)"
         id="stop2-3" />
      <stop
         offset="98.69565217391305%"
         stop-opacity="1"
         style="stop-color:rgb(252,82,82)"
         id="stop4-6" />
    </linearGradient>
    <linearGradient
       id="linearGradient900"
       x1="0"
       y1="0.5"
       x2="1"
       y2="0.5"
       gradientTransform="matrix(-46,0,0,-46,47,47)"
       gradientUnits="userSpaceOnUse"
       xlink:href="#linearGradient1423">
      <stop
         offset="0%"
         stop-opacity="1"
         style="stop-color:#ffbb24;stop-opacity:1"
         id="stop2-5" />
      <stop
         offset="97.82608695652173%"
         stop-opacity="1"
         style="stop-color:#f7f206;stop-opacity:1"
         id="stop4-3" />
    </linearGradient>
    <linearGradient
       inkscape:collect="always"
       xlink:href="#_lgradient_22"
       id="linearGradient904"
       gradientUnits="userSpaceOnUse"
       gradientTransform="matrix(-46,0,0,-46,47,47)"
       x1="0"
       y1="0.5"
       x2="1"
       y2="0.5" />
    <linearGradient
       inkscape:collect="always"
       xlink:href="#_lgradient_22"
       id="linearGradient907"
       gradientUnits="userSpaceOnUse"
       gradientTransform="matrix(24.2678,0,0,31.548854,11.866101,8.2262574)"
       x1="0"
       y1="0.5"
       x2="1"
       y2="0.5" />
  </defs>
  <clipPath
     id="_clipPath_fogIZqJTQx9B4msy0nvwBFTdjbriuCmw">
    <path
       d="M 24 6 L 24 6 C 24.828 6 25.5 6.896 25.5 8 L 25.5 20 L 22.5 20 L 22.5 8 C 22.5 6.896 23.172 6 24 6 Z"
       style="stroke:none;fill:url(#_lgradient_33);stroke-miterlimit:10;"
       id="path18" />
  </clipPath>
  <g
     clip-path="url(#_clipPath_fogIZqJTQx9B4msy0nvwBFTdjbriuCmw)"
     id="g21" />
  <linearGradient
     id="_lgradient_34"
     x1="0"
     y1="0.5"
     x2="1"
     y2="0.5"
     gradientTransform="matrix(8,0,0,14,20,18)"
     gradientUnits="userSpaceOnUse">
    <stop
       offset="0%"
       stop-opacity="1"
       style="stop-color:#ffbb24;stop-opacity:1"
       id="stop23" />
    <stop
       offset="97.82608695652173%"
       stop-opacity="1"
       style="stop-color:#f7f206;stop-opacity:1"
       id="stop25" />
  </linearGradient>
  <path
     d="m 33.31384,21.728438 c 0.02998,0.851515 -0.238396,1.265495 -0.48036,1.996384 l -0.436821,0.226975 c -0.356165,0.723752 0.03569,0.459661 -0.219837,1.03495 -0.557445,0.516762 -1.688754,1.616664 -2.050629,1.717304 -0.264805,-0.0057 0.179153,-0.326188 0.236968,-0.451096 -0.745165,0.533892 -0.59813,0.801551 -1.738002,1.127025 l -0.03355,-0.0778 c -2.810068,1.381123 -6.713615,-1.355428 -6.662225,-5.089102 -0.02998,0.236969 -0.08565,0.17773 -0.147748,0.272657 -0.144891,-1.920727 0.849373,-3.850017 2.526708,-4.638717 1.640932,-0.84723 3.563797,-0.50035 4.738644,0.64452 -0.645238,-0.88292 -1.930004,-1.81937 -3.451737,-1.73229 -1.491756,0.025 -2.887155,1.01497 -3.353239,2.08989 -0.763722,0.50248 -0.852942,1.93714 -1.185553,2.1998 -0.448241,3.438891 0.842948,4.924223 3.026337,6.672219 0.342604,0.24125 0.09636,0.278366 0.142752,0.462515 -0.725893,-0.354738 -1.389689,-0.890057 -1.935714,-1.546001 0.289786,0.443244 0.602412,0.87364 1.007113,1.211962 -0.684494,-0.241251 -1.59882,-1.730865 -1.865051,-1.791535 1.179129,2.204802 4.783611,3.867146 6.671503,3.042041 -0.87364,0.03355 -1.983535,0.01856 -2.96424,-0.360449 -0.413267,-0.221265 -0.972853,-0.679498 -0.872927,-0.765149 2.575956,1.004258 5.236848,0.760153 7.465204,-1.105613 0.567438,-0.461802 1.186981,-1.246222 1.366134,-1.256929 -0.269801,0.423973 0.0464,0.204135 -0.160596,0.577431 0.56387,-0.951441 -0.246246,-0.387571 0.583141,-1.643073 l 0.306203,0.440389 c -0.114201,-0.790844 0.94002,-1.750136 0.832243,-2.999218 0.241964,-0.38186 0.269801,0.41184 0.01356,1.29048 0.356166,-0.97499 0.09422,-1.13202 0.184864,-1.93643 0.0985,0.27052 0.229116,0.55745 0.295496,0.84295 -0.231971,-0.94216 0.236968,-1.58668 0.354024,-2.13414 -0.115629,-0.0528 -0.358307,0.41612 -0.41398,-0.69663 0.0086,-0.48321 0.12919,-0.25338 0.175585,-0.37258 -0.09065,-0.0542 -0.329043,-0.42468 -0.473936,-1.13559 0.104208,-0.16773 0.280507,0.43325 0.423972,0.45752 -0.09208,-0.5653 -0.250529,-0.99569 -0.257667,-1.42966 -0.418263,-0.91289 -0.147748,0.12206 -0.486784,-0.39185 -0.444671,-1.44964 0.369729,-0.3369 0.424687,-0.99498 0.673788,1.01996 1.058504,2.60236 1.235516,3.25759 -0.1349,-0.79869 -0.352596,-1.57312 -0.618829,-2.32185 0.205563,0.0906 -0.33047,-1.64307 0.266946,-0.49535 -0.637387,-2.44677 -2.725131,-4.73365 -4.64657,-5.806431 0.234827,0.224831 0.531037,0.506771 0.425401,0.551021 -0.956437,-0.593851 -0.78799,-0.640241 -0.925032,-0.8914806 -0.777997,-0.33047 -0.830102,0.0271 -1.344008,5.3e-4 -1.467488,-0.81297 -1.750136,-0.7266 -3.101282,-1.23551 l 0.06138,0.29977 c -0.971425,-0.33832 -1.132021,0.12777 -2.182674,5.4e-4 -0.06353,-0.0514 0.336894,-0.18843 0.666651,-0.2384 -0.940021,0.12991 -0.895767,-0.19343 -1.815803,0.0357 0.226975,-0.16631 0.466798,-0.27623 0.708763,-0.41684 -0.766577,0.0485 -1.830078,0.46537 -1.501749,0.0857 -1.249792,0.58243 -3.470295,1.4004 -4.715804,2.6209206 l -0.03925,-0.27336 c -0.571007,0.71518 -2.48959,2.13699 -2.642335,3.06488 l -0.152744,0.0371 c -0.296924,0.52533 -0.489638,1.12061 -0.725179,1.66092 -0.388285,0.69163 -0.568866,0.26623 -0.513906,0.37473 -0.764436,1.6188 -1.144155,2.9778 -1.47177,4.09412 0.233399,0.36473 0.0057,2.19552 0.0935,3.660864 -0.383289,7.238942 4.864265,14.265898 10.600032,15.888272 0.840807,0.314768 2.090599,0.303348 3.154101,0.334039 -1.254075,-0.374723 -1.416099,-0.197711 -2.638768,-0.643096 -0.881492,-0.433966 -1.074921,-0.929314 -1.699459,-1.495325 l 0.247674,0.456092 c -1.224809,-0.453951 -0.712331,-0.560301 -1.708738,-0.890771 l 0.264091,-0.359735 c -0.39685,-0.03141 -1.051367,-0.698056 -1.230521,-1.068497 l -0.434679,0.01784 c -0.521044,-0.671648 -0.79941,-1.15629 -0.77871,-1.532441 l -0.140611,0.261236 C 17.434134,34.234606 15.673291,31.996972 16.586902,32.51873 16.417026,32.357421 16.19148,32.255353 15.947374,31.790696 l 0.185578,-0.221979 c -0.438248,-0.590278 -0.808689,-1.347577 -0.780139,-1.600247 0.234113,0.33047 0.39685,0.392567 0.55816,0.449668 -1.109895,-2.876448 -1.172706,-0.158455 -2.0128,-2.928553 l 0.177012,-0.01428 C 13.939571,27.25975 13.856061,27.027779 13.746857,26.798662 l 0.0778,-0.80512 c -0.798698,-0.962861 -0.223407,-4.101974 -0.108492,-5.824274 0.08065,-0.69877 0.667365,-1.44465 1.114176,-2.61307 l -0.271941,-0.0493 c 0.520331,-0.94716 2.969236,-3.80505 4.104113,-3.65802 0.549594,-0.72089 -0.109205,-0.003 -0.216983,-0.18415 1.20768,-1.30475 1.5874,-0.92146 2.401799,-1.157 0.877923,-0.54388 -0.75373,0.21342 -0.337607,-0.20699 1.518879,-0.40542 1.076347,-0.92146 3.057742,-1.12703 0.209132,0.1242 -0.485355,0.19201 -0.658799,0.35332 1.264781,-0.64738 4.004188,-0.49963 5.783588,0.3583 2.06419,1.00783 4.383907,3.98635 4.475982,6.78856 l 0.104208,0.0293 c -0.05282,1.11418 0.162737,2.40323 -0.211987,3.58592 l 0.253386,-0.5603"
     fill="url(#_lgradient_22)"
     id="path7-7"
     style="isolation:isolate;fill:url(#linearGradient907);stroke-width:0.713757" />
</svg>
