<?xml version="1.0" encoding="UTF-8" standalone="no"?><!-- Generator: Gravit.io --><svg xmlns="http://www.w3.org/2000/svg" xmlns:xlink="http://www.w3.org/1999/xlink" style="isolation:isolate" viewBox="0 0 48 48" width="48pt" height="48pt"><linearGradient id="_lgradient_2" x1="0.14751311708662493" y1="0.23579545454545453" x2="0.8791566929979193" y2="0.9708209973455983" gradientTransform="matrix(39.009,0,0,44,4.496,2)" gradientUnits="userSpaceOnUse"><stop offset="0%" stop-opacity="1" style="stop-color:rgb(247,241,7)"/><stop offset="83.88839793817618%" stop-opacity="1" style="stop-color:rgb(255,187,36)"/></linearGradient><path d=" M 33.752 2.07 C 33.605 2.023 33.449 2 33.288 2 L 33.288 2 L 9.428 2 C 6.706 2 4.496 4.21 4.496 6.932 L 4.496 27.143 L 4.496 27.143 C 4.496 28.299 5.328 29.238 6.353 29.238 L 6.353 29.238 C 7.378 29.238 8.211 28.299 8.211 27.143 L 8.211 27.143 L 8.211 27.143 L 8.211 27.143 L 8.211 9.15 C 8.211 7.516 9.537 6.19 11.17 6.19 L 33.288 6.19 L 33.288 6.19 C 33.449 6.19 33.605 6.167 33.752 6.12 C 33.899 6.167 34.055 6.19 34.217 6.19 L 34.217 6.19 L 36.83 6.19 C 38.463 6.19 39.789 7.516 39.789 9.15 L 39.789 12.476 L 39.789 12.476 C 39.789 13.633 40.622 14.571 41.647 14.571 L 41.647 14.571 C 42.672 14.571 43.504 13.633 43.504 12.476 L 43.504 12.476 L 43.504 6.932 C 43.504 4.21 41.294 2 38.572 2 L 34.217 2 L 34.217 2 C 34.055 2 33.899 2.023 33.752 2.07 L 33.752 2.07 Z  M 13.783 41.81 L 13.783 41.81 C 14.809 41.81 15.641 42.748 15.641 43.905 L 15.641 43.905 C 15.641 45.061 14.809 46 13.783 46 L 13.783 46 L 9.428 46 C 6.706 46 4.496 43.79 4.496 41.068 L 4.496 35.524 L 4.496 35.524 C 4.496 34.367 5.328 33.429 6.353 33.429 L 6.353 33.429 C 7.378 33.429 8.211 34.367 8.211 35.524 L 8.211 35.524 L 8.211 38.85 C 8.211 40.484 9.537 41.81 11.17 41.81 L 13.783 41.81 L 13.783 41.81 L 13.783 41.81 L 13.783 41.81 Z  M 39.789 21.905 L 39.789 21.905 C 39.789 20.748 40.622 19.81 41.647 19.81 L 41.647 19.81 C 42.672 19.81 43.504 20.748 43.504 21.905 L 43.504 21.905 L 43.504 41.068 C 43.504 43.79 41.294 46 38.572 46 L 22.142 46 L 22.142 46 C 21.117 46 20.285 45.061 20.285 43.905 L 20.285 43.905 C 20.285 42.748 21.117 41.81 22.142 41.81 L 22.142 41.81 L 36.83 41.81 C 38.463 41.81 39.789 40.484 39.789 38.85 L 39.789 21.905 L 39.789 21.905 L 39.789 21.905 Z  M 35.405 26.589 C 35.15 24.995 34.11 23.656 31.03 22.406 C 29.96 21.915 28.767 21.562 28.411 20.752 C 28.285 20.28 28.269 20.014 28.348 19.728 C 28.578 18.801 29.684 18.512 30.561 18.778 C 31.126 18.968 31.661 19.403 31.983 20.097 C 33.492 19.12 33.488 19.127 34.542 18.456 C 34.156 17.858 33.95 17.582 33.698 17.326 C 32.791 16.313 31.555 15.791 29.578 15.831 C 29.235 15.874 28.89 15.921 28.548 15.964 C 27.561 16.213 26.621 16.732 26.069 17.426 C 24.415 19.303 24.886 22.589 26.9 23.941 C 28.883 25.43 31.797 25.769 32.169 27.161 C 32.531 28.865 30.917 29.417 29.312 29.221 C 28.129 28.975 27.471 28.374 26.76 27.281 C 25.451 28.038 25.451 28.038 24.106 28.812 C 24.425 29.51 24.76 29.826 25.295 30.43 C 27.827 32.999 34.163 32.872 35.299 28.985 C 35.346 28.852 35.651 27.962 35.405 26.589 L 35.405 26.589 L 35.405 26.589 Z  M 22.315 16.037 L 19.045 16.037 C 19.045 18.861 19.032 21.665 19.032 24.49 C 19.032 26.287 19.125 27.935 18.833 28.44 C 18.354 29.433 17.115 29.311 16.55 29.118 C 15.975 28.835 15.683 28.433 15.344 27.865 C 15.251 27.702 15.181 27.576 15.158 27.566 C 14.271 28.108 13.387 28.653 12.5 29.194 C 12.942 30.101 13.593 30.889 14.427 31.4 C 15.673 32.148 17.348 32.377 19.099 31.975 C 20.238 31.643 21.222 30.955 21.737 29.909 C 22.481 28.536 22.321 26.875 22.315 25.038 C 22.331 22.041 22.315 19.044 22.315 16.037 L 22.315 16.037 Z " fill-rule="evenodd" fill="url(#_lgradient_2)"/></svg>