<?xml version="1.0" encoding="UTF-8" standalone="no"?>
<!-- Generator: Gravit.io -->

<svg
   xmlns:dc="http://purl.org/dc/elements/1.1/"
   xmlns:cc="http://creativecommons.org/ns#"
   xmlns:rdf="http://www.w3.org/1999/02/22-rdf-syntax-ns#"
   xmlns:svg="http://www.w3.org/2000/svg"
   xmlns="http://www.w3.org/2000/svg"
   xmlns:sodipodi="http://sodipodi.sourceforge.net/DTD/sodipodi-0.dtd"
   xmlns:inkscape="http://www.inkscape.org/namespaces/inkscape"
   style="isolation:isolate"
   viewBox="0 0 48 48"
   width="48pt"
   height="48pt"
   version="1.1"
   id="svg9"
   sodipodi:docname="text-html.svg"
   inkscape:version="0.92.5 (2060ec1f9f, 2020-04-08)">
  <metadata
     id="metadata15">
    <rdf:RDF>
      <cc:Work
         rdf:about="">
        <dc:format>image/svg+xml</dc:format>
        <dc:type
           rdf:resource="http://purl.org/dc/dcmitype/StillImage" />
        <dc:title />
      </cc:Work>
    </rdf:RDF>
  </metadata>
  <defs
     id="defs13" />
  <sodipodi:namedview
     pagecolor="#ffffff"
     bordercolor="#666666"
     borderopacity="1"
     objecttolerance="10"
     gridtolerance="10"
     guidetolerance="10"
     inkscape:pageopacity="0"
     inkscape:pageshadow="2"
     inkscape:window-width="3840"
     inkscape:window-height="2160"
     id="namedview11"
     showgrid="false"
     showguides="true"
     inkscape:guide-bbox="true"
     inkscape:snap-to-guides="true"
     inkscape:snap-global="true"
     inkscape:zoom="8.3057392"
     inkscape:cx="19.685498"
     inkscape:cy="15.161246"
     inkscape:window-x="0"
     inkscape:window-y="0"
     inkscape:window-maximized="1"
     inkscape:current-layer="svg9"
     inkscape:object-paths="true"
     inkscape:snap-midpoints="true" />
  <linearGradient
     id="_lgradient_25"
     x1="0.22078557924020603"
     y1="0.04723996636961164"
     x2="0.9022490870014594"
     y2="0.9061460265379022"
     gradientTransform="matrix(58,0,0,58.666667,6.6666667,2.6666667)"
     gradientUnits="userSpaceOnUse">
    <stop
       offset="2.608695652173913%"
       stop-opacity="1"
       style="stop-color:#ea8bf3;stop-opacity:1"
       id="stop2" />
    <stop
       offset="98.69565217391305%"
       stop-opacity="1"
       style="stop-color:#826ef5;stop-opacity:1"
       id="stop4" />
  </linearGradient>
  <path
     style="fill:url(#_lgradient_25);fill-rule:evenodd;stroke-width:1.33333337"
     d="M 13.007812 2.6660156 C 9.5078125 2.6660156 6.6660156 5.5078125 6.6660156 9.0078125 L 6.6660156 18.666016 C 6.6660156 20.138016 7.7480781 21.333984 9.0800781 21.333984 C 10.410745 21.333984 11.492188 20.138016 11.492188 18.666016 L 11.492188 11.804688 C 11.492187 9.7046875 13.196875 8 15.296875 8 L 48.703125 8 C 50.803125 8 52.507812 9.7046875 52.507812 11.804688 L 52.507812 29.333984 L 52.507812 30.666016 L 52.507812 52.195312 C 52.507813 54.295313 50.803125 56 48.703125 56 L 15.296875 56 C 13.196875 56 11.492188 54.295313 11.492188 52.195312 L 11.492188 29.333984 C 11.492188 27.861984 10.410745 26.666016 9.0800781 26.666016 C 7.7480781 26.666016 6.6660156 27.861984 6.6660156 29.333984 L 6.6660156 54.992188 C 6.6660156 58.492188 9.5078125 61.333984 13.007812 61.333984 L 50.992188 61.333984 C 54.341087 61.333984 57.257891 58.53436 57.261719 54.878906 L 57.310547 9.0253906 C 57.314218 5.5146012 54.341087 2.6660156 50.992188 2.6660156 L 13.007812 2.6660156 z M 35.857422 19.478516 A 1.50015 1.50015 0 0 0 34.462891 20.587891 L 28.462891 41.587891 A 1.5002355 1.5002355 0 1 0 31.349609 42.412109 L 37.349609 21.412109 A 1.50015 1.50015 0 0 0 35.857422 19.478516 z M 23.929688 23.064453 A 1.50015 1.50015 0 0 0 22.607422 23.833984 L 18.607422 30.75 A 1.50015 1.50015 0 0 0 18.607422 32.25 L 22.607422 39.166016 A 1.5003821 1.5003821 0 1 0 25.205078 37.666016 L 21.638672 31.5 L 25.205078 25.333984 A 1.50015 1.50015 0 0 0 23.929688 23.064453 z M 40.835938 23.070312 A 1.50015 1.50015 0 0 0 39.607422 25.337891 L 43.171875 31.5 L 39.607422 37.662109 A 1.50015 1.50015 0 1 0 42.203125 39.164062 L 46.203125 32.25 A 1.50015 1.50015 0 0 0 46.203125 30.75 L 42.203125 23.835938 A 1.50015 1.50015 0 0 0 40.835938 23.070312 z "
     transform="scale(0.75)"
     id="path7" />
</svg>
