<?xml version="1.0" encoding="UTF-8" standalone="no"?>
<!-- Generator: Gravit.io -->

<svg
   width="48pt"
   height="48pt"
   style="isolation:isolate"
   inkscape:version="1.1 (1:1.1+202105261517+ce6663b3b7)"
   sodipodi:docname="text-x-python.svg"
   version="1.1"
   viewBox="0 0 48 48"
   id="svg17"
   xmlns:inkscape="http://www.inkscape.org/namespaces/inkscape"
   xmlns:sodipodi="http://sodipodi.sourceforge.net/DTD/sodipodi-0.dtd"
   xmlns:xlink="http://www.w3.org/1999/xlink"
   xmlns="http://www.w3.org/2000/svg"
   xmlns:svg="http://www.w3.org/2000/svg"
   xmlns:rdf="http://www.w3.org/1999/02/22-rdf-syntax-ns#"
   xmlns:cc="http://creativecommons.org/ns#"
   xmlns:dc="http://purl.org/dc/elements/1.1/">
  <metadata
     id="metadata2">
    <rdf:RDF>
      <cc:Work
         rdf:about="">
        <dc:format>image/svg+xml</dc:format>
        <dc:type
           rdf:resource="http://purl.org/dc/dcmitype/StillImage" />
      </cc:Work>
    </rdf:RDF>
  </metadata>
  <defs
     id="defs9">
    <linearGradient
       id="linearGradient12526"
       x1="5.4805"
       x2="10.986"
       y1="5.3323"
       y2="12.463"
       gradientTransform="matrix(43.5,0,0,44,5,2)"
       gradientUnits="userSpaceOnUse"
       inkscape:collect="always">
      <stop
         stop-color="#3373a3"
         offset="0"
         id="stop1" />
      <stop
         stop-color="#ffd642"
         offset="1"
         id="stop2" />
    </linearGradient>
    <linearGradient
       inkscape:collect="always"
       xlink:href="#linearGradient12526"
       id="linearGradient864"
       gradientUnits="userSpaceOnUse"
       gradientTransform="matrix(43.5,0,0,44,5,2)"
       x1="0.043249335"
       y1="0.12053145"
       x2="0.10354023"
       y2="0.18936364" />
  </defs>
  <sodipodi:namedview
     bordercolor="#666666"
     borderopacity="1"
     gridtolerance="10"
     guidetolerance="10"
     inkscape:current-layer="svg17"
     inkscape:cx="35.090543"
     inkscape:cy="32"
     inkscape:document-units="pt"
     inkscape:guide-bbox="true"
     inkscape:pagecheckerboard="true"
     inkscape:pageopacity="0"
     inkscape:pageshadow="2"
     inkscape:snap-global="true"
     inkscape:snap-to-guides="true"
     inkscape:window-height="707"
     inkscape:window-maximized="1"
     inkscape:window-width="1366"
     inkscape:window-x="0"
     inkscape:window-y="35"
     inkscape:zoom="7.765625"
     objecttolerance="10"
     pagecolor="#858585"
     showgrid="false"
     showguides="true"
     id="namedview11" />
  <g
     transform="matrix(3.854 0 0 3.7688 -6.6363 -8.129)"
     fill="url(#linearGradient864)"
     stroke-width=".2432"
     style="isolation:isolate"
     id="g15">
    <path
       d="m7.93 12c0.27 0 0.531-0.023 0.758-0.063 0.672-0.117 0.816-0.152 0.816-0.605v-1h-1.668v-0.332h2.332c0.461 0 0.762-0.281 0.887-0.801 0.145-0.598 0.152-0.973 0-1.594-0.113-0.465-0.426-0.938-0.887-0.938h-0.332v1c0 0.516-0.465 1-1 1h-1.668c-0.441 0-0.668 0.227-0.668 0.664v1.668c0 0.426 0.176 0.867 0.605 0.938 0.27 0.043 0.551 0.063 0.824 0.063zm0.57-0.668c-0.184 0-0.332-0.148-0.332-0.332s0.148-0.332 0.332-0.332c0.188 0 0.336 0.148 0.336 0.332s-0.148 0.332-0.336 0.332zm-0.43-6.332c-0.27 0-0.531 0.023-0.758 0.063-0.672 0.117-0.816 0.152-0.816 0.605v1h1.668v0.332h-2.332c-0.461 0-0.762 0.281-0.887 0.801-0.145 0.598-0.152 0.973 0 1.594 0.113 0.465 0.426 0.938 0.887 0.938h0.332v-1c0-0.516 0.465-1 1-1h1.668c0.441 0 0.668-0.227 0.668-0.664v-1.668c0-0.426-0.176-0.867-0.605-0.938-0.27-0.043-0.551-0.063-0.824-0.063zm-0.57 0.668c0.184 0 0.332 0.148 0.332 0.332s-0.148 0.332-0.332 0.332c-0.188 0-0.336-0.148-0.336-0.332s0.148-0.332 0.336-0.332zm5.379 2.3263m-0.01376 5.0838c-7.45e-4 0.72745-0.56857 1.2843-1.2203 1.2843h-7.3917c-0.6811 0-1.234-0.56543-1.234-1.2619v-5.1062c0-0.29293 0.21043-0.53067 0.46964-0.53067 0.25895 0 0.46938 0.23774 0.46938 0.53067v4.5495c0 0.41791 0.33186 0.75727 0.74052 0.75727h6.5007c0.40866 0 0.74052-0.33937 0.74052-0.75727v-8.0376c0-0.41791-0.33186-0.75727-0.74052-0.75727h-6.5007c-0.40866 0-0.74052 0.33937-0.74052 0.75727v1.3654c0 0.29293-0.21043 0.53067-0.46938 0.53067-0.25921 0-0.46964-0.23774-0.46964-0.53067v-1.9221c0-0.69651 0.55293-1.2619 1.234-1.2619h7.3917c0.6517 0 1.2303 0.5666 1.2296 1.2653z"
       id="path13"
       style="fill-opacity:1;fill:url(#linearGradient864)" />
  </g>
</svg>
