<?xml version="1.0" encoding="UTF-8" standalone="no"?>
<!-- Generator: Gravit.io -->

<svg
   xmlns:dc="http://purl.org/dc/elements/1.1/"
   xmlns:cc="http://creativecommons.org/ns#"
   xmlns:rdf="http://www.w3.org/1999/02/22-rdf-syntax-ns#"
   xmlns:svg="http://www.w3.org/2000/svg"
   xmlns="http://www.w3.org/2000/svg"
   xmlns:sodipodi="http://sodipodi.sourceforge.net/DTD/sodipodi-0.dtd"
   xmlns:inkscape="http://www.inkscape.org/namespaces/inkscape"
   style="isolation:isolate"
   viewBox="0 0 48 48"
   width="48pt"
   height="48pt"
   version="1.1"
   id="svg9"
   sodipodi:docname="text-x-generic.svg"
   inkscape:version="0.92.5 (2060ec1f9f, 2020-04-08)">
  <metadata
     id="metadata15">
    <rdf:RDF>
      <cc:Work
         rdf:about="">
        <dc:format>image/svg+xml</dc:format>
        <dc:type
           rdf:resource="http://purl.org/dc/dcmitype/StillImage" />
        <dc:title></dc:title>
      </cc:Work>
    </rdf:RDF>
  </metadata>
  <defs
     id="defs13" />
  <sodipodi:namedview
     pagecolor="#ffffff"
     bordercolor="#666666"
     borderopacity="1"
     objecttolerance="10"
     gridtolerance="10"
     guidetolerance="10"
     inkscape:pageopacity="0"
     inkscape:pageshadow="2"
     inkscape:window-width="3840"
     inkscape:window-height="2160"
     id="namedview11"
     showgrid="false"
     showguides="true"
     inkscape:guide-bbox="true"
     inkscape:snap-to-guides="true"
     inkscape:snap-global="true"
     inkscape:zoom="20.85965"
     inkscape:cx="29.171791"
     inkscape:cy="34.055284"
     inkscape:window-x="0"
     inkscape:window-y="0"
     inkscape:window-maximized="1"
     inkscape:current-layer="svg9">
    <sodipodi:guide
       position="7.2628256,50.156642"
       orientation="1,0"
       id="guide4525"
       inkscape:locked="false" />
    <sodipodi:guide
       position="2.5168207,52.349872"
       orientation="1,0"
       id="guide4527"
       inkscape:locked="false" />
    <sodipodi:guide
       position="-3.1640032,41.27586"
       orientation="0,1"
       id="guide4529"
       inkscape:locked="false" />
    <sodipodi:guide
       position="35.7029,51.846507"
       orientation="1,0"
       id="guide4531"
       inkscape:locked="false" />
    <sodipodi:guide
       position="40.484859,50.983597"
       orientation="1,0"
       id="guide4533"
       inkscape:locked="false" />
    <sodipodi:guide
       position="-13.73465,43.86459"
       orientation="0,1"
       id="guide4535"
       inkscape:locked="false" />
    <sodipodi:guide
       position="4.6381411,56.161057"
       orientation="1,0"
       id="guide4537"
       inkscape:locked="false" />
    <sodipodi:guide
       position="38.255675,55.190284"
       orientation="1,0"
       id="guide4539"
       inkscape:locked="false" />
    <sodipodi:guide
       position="-9.6717826,4.0988224"
       orientation="0,1"
       id="guide4541"
       inkscape:locked="false" />
    <sodipodi:guide
       position="-13.914423,6.795416"
       orientation="0,1"
       id="guide4543"
       inkscape:locked="false" />
  </sodipodi:namedview>
  <linearGradient
     id="_lgradient_25"
     x1="0.22078557924020603"
     y1="0.04723996636961164"
     x2="0.9022490870014594"
     y2="0.9061460265379022"
     gradientTransform="matrix(43.5,0,0,44,5,2)"
     gradientUnits="userSpaceOnUse">
    <stop
       offset="2.608695652173913%"
       stop-opacity="1"
       style="stop-color:#ea8bf3;stop-opacity:1"
       id="stop2" />
    <stop
       offset="98.69565217391305%"
       stop-opacity="1"
       style="stop-color:#826ef5;stop-opacity:1"
       id="stop4" />
  </linearGradient>
  <path
     d="m 43,22 v 0 0 0 M 42.94696,41.159588 C 42.944089,43.901178 40.755675,46 38.244,46 H 9.756 C 7.131,46 5,43.869 5,41.244 V 22 22 c 0,-1.104 0.811,-2 1.81,-2 v 0 c 0.998,0 1.809,0.896 1.809,2 v 0 17.146 c 0,1.575 1.279,2.854 2.854,2.854 h 25.054 c 1.575,0 2.854,-1.279 2.854,-2.854 V 23 23 23 22 8.854 C 39.381,7.279 38.102,6 36.527,6 H 11.473 C 9.898,6 8.619,7.279 8.619,8.854 V 14 14 c 0,1.104 -0.811,2 -1.809,2 v 0 C 5.811,16 5,15.104 5,14 V 14 6.756 C 5,4.131 7.131,2 9.756,2 h 28.488 c 2.511675,0 4.741663,2.1354107 4.73891,4.7685028 z M 12.932,10 h 22.366 c 0.797,0 1.444,0.647 1.444,1.444 v 1.112 C 36.742,13.353 36.095,14 35.298,14 H 12.932 c -0.797,0 -1.444,-0.647 -1.444,-1.444 V 11.444 C 11.488,10.647 12.135,10 12.932,10 Z m 0,16 h 15.06722 c 0.797,0 1.444,0.647 1.444,1.444 v 1.112 c 0,0.797 -0.647,1.444 -1.444,1.444 H 12.932 c -0.797,0 -1.444,-0.647 -1.444,-1.444 V 27.444 C 11.488,26.647 12.135,26 12.932,26 Z m 0,8 h 22.366 c 0.797,0 1.444,0.647 1.444,1.444 v 1.112 C 36.742,37.353 36.095,38 35.298,38 H 12.932 c -0.797,0 -1.444,-0.647 -1.444,-1.444 V 35.444 C 11.488,34.647 12.135,34 12.932,34 Z m 0,-16 h 18.626723 c 0.797,0 1.444,0.647 1.444,1.444 v 1.112 c 0,0.797 -0.647,1.444 -1.444,1.444 L 12.932,22 c -0.797,0 -1.444,-0.647 -1.444,-1.444 V 19.444 C 11.488,18.647 12.135,18 12.932,18 Z"
     id="path7"
     inkscape:connector-curvature="0"
     style="fill:url(#_lgradient_25);fill-rule:evenodd"
     sodipodi:nodetypes="ccccssssccccccssssccccssssccccccssssscssssssscscccssssssscccccsscsssscccc" />
</svg>
