<?xml version="1.0" encoding="UTF-8" standalone="no"?>
<!-- Generator: Gravit.io -->

<svg
   style="isolation:isolate"
   viewBox="0 0 48 48"
   width="48pt"
   height="48pt"
   version="1.1"
   id="svg9"
   sodipodi:docname="text-x-java.svg"
   inkscape:version="1.1 (1:1.1+202105261517+ce6663b3b7)"
   xmlns:inkscape="http://www.inkscape.org/namespaces/inkscape"
   xmlns:sodipodi="http://sodipodi.sourceforge.net/DTD/sodipodi-0.dtd"
   xmlns:xlink="http://www.w3.org/1999/xlink"
   xmlns="http://www.w3.org/2000/svg"
   xmlns:svg="http://www.w3.org/2000/svg"
   xmlns:rdf="http://www.w3.org/1999/02/22-rdf-syntax-ns#"
   xmlns:cc="http://creativecommons.org/ns#"
   xmlns:dc="http://purl.org/dc/elements/1.1/">
  <metadata
     id="metadata15">
    <rdf:RDF>
      <cc:Work
         rdf:about="">
        <dc:format>image/svg+xml</dc:format>
        <dc:type
           rdf:resource="http://purl.org/dc/dcmitype/StillImage" />
      </cc:Work>
    </rdf:RDF>
  </metadata>
  <defs
     id="defs13">
    <linearGradient
       id="gradiente"
       x1="0.43738323"
       y1="0.0069166725"
       x2="0.44858003"
       y2="0.98593986"
       gradientTransform="matrix(43.5,0,0,44,5,2)"
       gradientUnits="userSpaceOnUse">
      <stop
         offset="2.608695652173913%"
         stop-opacity="1"
         style="stop-color:#f07d2b;stop-opacity:1"
         id="stop2" />
      <stop
         offset="98.69565217391305%"
         stop-opacity="1"
         style="stop-color:#ef2424;stop-opacity:1"
         id="stop4" />
    </linearGradient>
    <linearGradient
       inkscape:collect="always"
       id="linearGradient1119">
      <stop
         style="stop-color:#f07d2b;stop-opacity:1"
         offset="0"
         id="stop1115" />
      <stop
         style="stop-color:#f02424;stop-opacity:1"
         offset="1"
         id="stop1117" />
    </linearGradient>
    <linearGradient
       inkscape:collect="always"
       xlink:href="#linearGradient1119"
       id="linearGradient873"
       x1="8.129343"
       y1="4.2511544"
       x2="8.2209291"
       y2="12.43933"
       gradientUnits="userSpaceOnUse" />
  </defs>
  <sodipodi:namedview
     pagecolor="#858585"
     bordercolor="#666666"
     borderopacity="1"
     objecttolerance="10"
     gridtolerance="10"
     guidetolerance="10"
     inkscape:pageopacity="0"
     inkscape:pageshadow="2"
     inkscape:window-width="1366"
     inkscape:window-height="707"
     id="namedview11"
     showgrid="false"
     showguides="true"
     inkscape:guide-bbox="true"
     inkscape:snap-to-guides="true"
     inkscape:snap-global="true"
     inkscape:zoom="7.765625"
     inkscape:cx="22.985915"
     inkscape:cy="32.257545"
     inkscape:window-x="0"
     inkscape:window-y="35"
     inkscape:window-maximized="1"
     inkscape:current-layer="g24"
     inkscape:pagecheckerboard="true"
     inkscape:document-units="pt" />
  <path
     d="m 43,22 v 0 0 0 M 42.94696,41.159588 C 42.944089,43.901178 40.755675,46 38.244,46 H 9.756 C 7.131,46 5,43.869 5,41.244 V 22 22 c 0,-1.104 0.811,-2 1.81,-2 v 0 c 0.998,0 1.809,0.896 1.809,2 v 0 17.146 c 0,1.575 1.279,2.854 2.854,2.854 h 25.054 c 1.575,0 2.854,-1.279 2.854,-2.854 V 23 23 23 22 8.854 C 39.381,7.279 38.102,6 36.527,6 H 11.473 C 9.898,6 8.619,7.279 8.619,8.854 V 14 14 c 0,1.104 -0.811,2 -1.809,2 v 0 C 5.811,16 5,15.104 5,14 V 14 6.756 C 5,4.131 7.131,2 9.756,2 h 28.488 c 2.511675,0 4.741663,2.1354107 4.73891,4.7685028 z"
     id="path7"
     inkscape:connector-curvature="0"
     style="fill:url(#gradiente);fill-rule:evenodd;fill-opacity:1"
     sodipodi:nodetypes="ccccssssccccccssssccccssssccccccsssss" />
  <g
     transform="matrix(4.8898668,0,0,4.1504391,-15.009088,-10.059929)"
     style="fill:#ffffff;fill-rule:evenodd;stroke-width:0.229771"
     id="g24">
    <path
       d="m 7.168,9.973 c 0,0 -0.242,0.133 0.172,0.18 0.504,0.055 0.758,0.047 1.312,-0.055 0,0 0.145,0.09 0.348,0.164 C 7.762,10.766 6.195,10.231 7.168,9.973"
       id="path8"
       style="stroke-width:0.229771;fill-opacity:1;fill:url(#linearGradient873)" />
    <path
       d="m 7.02,9.316 c 0,0 -0.273,0.191 0.141,0.23 0.535,0.055 0.961,0.059 1.691,-0.078 0,0 0.102,0.098 0.262,0.152 -1.5,0.414 -3.168,0.031 -2.094,-0.305"
       id="path10"
       style="stroke-width:0.229771;fill-opacity:1;fill:url(#linearGradient873)" />
    <path
       d="m 8.293,8.203 c 0.305,0.332 -0.078,0.633 -0.078,0.633 0,0 0.773,-0.379 0.418,-0.855 C 8.301,7.54 8.047,7.317 9.426,6.559 c 0,0 -2.168,0.512 -1.133,1.645"
       id="path12"
       style="stroke-width:0.229771;fill-opacity:1;fill:url(#linearGradient873)" />
    <path
       d="m 9.934,10.461 c 0,0 0.176,0.137 -0.199,0.246 -0.715,0.207 -2.977,0.27 -3.602,0.008 -0.227,-0.094 0.195,-0.223 0.328,-0.25 0.141,-0.027 0.219,-0.023 0.219,-0.023 -0.25,-0.168 -1.621,0.332 -0.695,0.473 2.523,0.391 4.602,-0.176 3.949,-0.453"
       id="path14"
       style="stroke-width:0.229771;fill-opacity:1;fill:url(#linearGradient873)" />
    <path
       d="m 7.285,8.637 c 0,0 -1.148,0.258 -0.406,0.352 0.313,0.039 0.938,0.031 1.52,-0.016 0.477,-0.039 0.953,-0.117 0.953,-0.117 0,0 -0.168,0.066 -0.289,0.145 C 7.895,9.294 5.641,9.157 6.29,8.86 6.841,8.606 7.286,8.637 7.286,8.637"
       id="path16"
       style="stroke-width:0.229771;fill-opacity:1;fill:url(#linearGradient873)" />
    <path
       d="M 9.348,9.73 C 10.536,9.144 9.989,8.582 9.606,8.656 9.512,8.676 9.469,8.691 9.469,8.691 c 0,0 0.035,-0.051 0.102,-0.074 0.758,-0.25 1.34,0.746 -0.246,1.141 0,0 0.02,-0.016 0.023,-0.027"
       id="path18"
       style="stroke-width:0.229771;fill-opacity:1;fill:url(#linearGradient873)" />
    <path
       d="m 8.633,5.332 c 0,0 0.656,0.625 -0.625,1.582 -1.027,0.77 -0.234,1.211 0,1.711 C 7.41,8.113 6.969,7.66 7.266,7.238 7.7,6.625 8.899,6.324 8.633,5.332"
       id="path20"
       style="stroke-width:0.229771;fill-opacity:1;fill:url(#linearGradient873)" />
    <path
       d="m 7.402,11.316 c 1.141,0.066 2.891,-0.039 2.93,-0.551 0,0 -0.078,0.191 -0.941,0.348 -0.973,0.172 -2.172,0.152 -2.883,0.043 0,0 0.145,0.113 0.895,0.16"
       id="path22"
       style="stroke-width:0.229771;fill-opacity:1;fill:url(#linearGradient873)" />
  </g>
</svg>
