<?xml version="1.0" encoding="UTF-8" standalone="no"?><!-- Generator: Gravit.io --><svg xmlns="http://www.w3.org/2000/svg" xmlns:xlink="http://www.w3.org/1999/xlink" style="isolation:isolate" viewBox="0 0 48 48" width="48pt" height="48pt"><linearGradient id="_lgradient_2" x1="0.019336070977031994" y1="0.8892045454545455" x2="1.0166214225258132" y2="-0.015071263482280828" gradientTransform="matrix(39.009,0,0,44,4.496,2)" gradientUnits="userSpaceOnUse"><stop offset="0%" stop-opacity="1" style="stop-color:rgb(248,171,149)"/><stop offset="48.75%" stop-opacity="1" style="stop-color:rgb(241,125,173)"/><stop offset="98.33333333333333%" stop-opacity="1" style="stop-color:rgb(238,115,200)"/></linearGradient><path d=" M 33.752 2.07 C 33.605 2.023 33.449 2 33.288 2 L 33.288 2 L 9.428 2 C 6.706 2 4.496 4.21 4.496 6.932 L 4.496 27.143 L 4.496 27.143 C 4.496 28.299 5.328 29.238 6.353 29.238 L 6.353 29.238 C 7.378 29.238 8.211 28.299 8.211 27.143 L 8.211 27.143 L 8.211 27.143 L 8.211 27.143 L 8.211 9.15 C 8.211 7.516 9.537 6.19 11.17 6.19 L 33.288 6.19 L 33.288 6.19 C 33.449 6.19 33.605 6.167 33.752 6.12 C 33.899 6.167 34.055 6.19 34.217 6.19 L 34.217 6.19 L 36.83 6.19 C 38.463 6.19 39.789 7.516 39.789 9.15 L 39.789 12.476 L 39.789 12.476 C 39.789 13.633 40.622 14.571 41.647 14.571 L 41.647 14.571 C 42.672 14.571 43.504 13.633 43.504 12.476 L 43.504 12.476 L 43.504 6.932 C 43.504 4.21 41.294 2 38.572 2 L 34.217 2 L 34.217 2 C 34.055 2 33.899 2.023 33.752 2.07 L 33.752 2.07 L 33.752 2.07 L 33.752 2.07 Z  M 13.783 41.81 L 13.783 41.81 C 14.809 41.81 15.641 42.748 15.641 43.905 L 15.641 43.905 C 15.641 45.061 14.809 46 13.783 46 L 13.783 46 L 9.428 46 C 6.706 46 4.496 43.79 4.496 41.068 L 4.496 35.524 L 4.496 35.524 C 4.496 34.367 5.328 33.429 6.353 33.429 L 6.353 33.429 C 7.378 33.429 8.211 34.367 8.211 35.524 L 8.211 35.524 L 8.211 38.85 C 8.211 40.484 9.537 41.81 11.17 41.81 L 13.783 41.81 L 13.783 41.81 L 13.783 41.81 L 13.783 41.81 L 13.783 41.81 L 13.783 41.81 Z  M 39.789 21.905 L 39.789 21.905 C 39.789 20.748 40.622 19.81 41.647 19.81 L 41.647 19.81 C 42.672 19.81 43.504 20.748 43.504 21.905 L 43.504 21.905 L 43.504 41.068 C 43.504 43.79 41.294 46 38.572 46 L 22.142 46 L 22.142 46 C 21.117 46 20.285 45.061 20.285 43.905 L 20.285 43.905 C 20.285 42.748 21.117 41.81 22.142 41.81 L 22.142 41.81 L 36.83 41.81 C 38.463 41.81 39.789 40.484 39.789 38.85 L 39.789 21.905 L 39.789 21.905 L 39.789 21.905 L 39.789 21.905 L 39.789 21.905 Z  M 16.219 14.566 L 16.219 33.765 L 19.542 33.765 C 19.554 31.263 19.516 28.76 19.565 26.259 C 19.647 25.084 19.712 23.587 20.832 22.944 C 21.448 22.59 22.273 22.504 22.952 22.724 C 23.946 23.047 24.113 24.329 24.156 25.252 C 24.172 28.09 24.158 30.927 24.163 33.765 L 27.473 33.765 C 27.466 30.576 27.498 27.354 27.473 24.165 C 27.439 22.563 26.783 20.809 25.25 20.077 C 23.94 19.453 22.389 19.639 21.059 20.143 C 20.432 20.381 19.566 21.538 19.566 21.538 C 19.558 19.214 19.55 16.89 19.542 14.566 L 16.219 14.566 L 16.219 14.566 L 16.219 14.566 L 16.219 14.566 Z  M 23.837 14.235 L 23.837 16.221 L 21.851 16.221 L 21.851 16.883 L 23.837 16.883 L 23.837 18.869 L 24.499 18.869 L 24.499 16.883 L 26.485 16.883 L 26.485 16.221 L 24.499 16.221 L 24.499 14.235 L 23.837 14.235 L 23.837 14.235 Z  M 29.133 14.235 L 29.133 16.221 L 27.147 16.221 L 27.147 16.883 L 29.133 16.883 L 29.133 18.869 L 29.795 18.869 L 29.795 16.883 L 31.781 16.883 L 31.781 16.221 L 29.795 16.221 L 29.795 14.235 L 29.133 14.235 Z " fill-rule="evenodd" fill="url(#_lgradient_2)"/></svg>