<?xml version="1.0" encoding="UTF-8" standalone="no"?><!-- Generator: Gravit.io --><svg xmlns="http://www.w3.org/2000/svg" xmlns:xlink="http://www.w3.org/1999/xlink" style="isolation:isolate" viewBox="0 0 48 48" width="48pt" height="48pt"><linearGradient id="_lgradient_0" x1="-0.09922769667434159" y1="-0.17897727272727282" x2="1.1073947174768046" y2="1.093146621078037" gradientTransform="matrix(39.009,0,0,44,4.496,2)" gradientUnits="userSpaceOnUse"><stop offset="0%" stop-opacity="1" style="stop-color:rgb(84,51,255)"/><stop offset="51.73913043478261%" stop-opacity="1" style="stop-color:rgb(32,189,255)"/><stop offset="98.26086956521739%" stop-opacity="1" style="stop-color:rgb(165,254,203)"/></linearGradient><path d=" M 33.752 2.07 C 33.605 2.023 33.449 2 33.288 2 L 33.288 2 L 9.428 2 C 6.706 2 4.496 4.21 4.496 6.932 L 4.496 27.143 L 4.496 27.143 C 4.496 28.299 5.328 29.238 6.353 29.238 L 6.353 29.238 C 7.378 29.238 8.211 28.299 8.211 27.143 L 8.211 27.143 L 8.211 27.143 L 8.211 27.143 L 8.211 9.15 C 8.211 7.516 9.537 6.19 11.17 6.19 L 33.288 6.19 L 33.288 6.19 C 33.449 6.19 33.605 6.167 33.752 6.12 C 33.899 6.167 34.055 6.19 34.217 6.19 L 34.217 6.19 L 36.83 6.19 C 38.463 6.19 39.789 7.516 39.789 9.15 L 39.789 12.476 L 39.789 12.476 C 39.789 13.633 40.622 14.571 41.647 14.571 L 41.647 14.571 C 42.672 14.571 43.504 13.633 43.504 12.476 L 43.504 12.476 L 43.504 6.932 C 43.504 4.21 41.294 2 38.572 2 L 34.217 2 L 34.217 2 C 34.055 2 33.899 2.023 33.752 2.07 L 33.752 2.07 Z  M 13.783 41.81 L 13.783 41.81 C 14.809 41.81 15.641 42.748 15.641 43.905 L 15.641 43.905 C 15.641 45.061 14.809 46 13.783 46 L 13.783 46 L 9.428 46 C 6.706 46 4.496 43.79 4.496 41.068 L 4.496 35.524 L 4.496 35.524 C 4.496 34.367 5.328 33.429 6.353 33.429 L 6.353 33.429 C 7.378 33.429 8.211 34.367 8.211 35.524 L 8.211 35.524 L 8.211 38.85 C 8.211 40.484 9.537 41.81 11.17 41.81 L 13.783 41.81 L 13.783 41.81 L 13.783 41.81 L 13.783 41.81 Z  M 39.789 21.905 L 39.789 21.905 C 39.789 20.748 40.622 19.81 41.647 19.81 L 41.647 19.81 C 42.672 19.81 43.504 20.748 43.504 21.905 L 43.504 21.905 L 43.504 41.068 C 43.504 43.79 41.294 46 38.572 46 L 22.142 46 L 22.142 46 C 21.117 46 20.285 45.061 20.285 43.905 L 20.285 43.905 C 20.285 42.748 21.117 41.81 22.142 41.81 L 22.142 41.81 L 36.83 41.81 C 38.463 41.81 39.789 40.484 39.789 38.85 L 39.789 21.905 L 39.789 21.905 L 39.789 21.905 Z  M 16.003 14 L 16.003 18 L 28.003 18 L 27.656 20.666 L 21.336 20.666 L 21.336 24.666 L 27.258 24.666 L 26.669 29.112 L 24.003 30.086 L 21.336 29.154 L 21.336 27.334 L 17.336 27.334 L 17.336 32.047 L 24.003 34 L 31.005 32.047 L 31.997 14.001 L 16.003 14 Z " fill-rule="evenodd" fill="url(#_lgradient_0)"/></svg>