<svg width="16" height="16" version="1.1" xmlns="http://www.w3.org/2000/svg">
 <g fill="#363636" stroke-linecap="round" stroke-linejoin="round" stroke-width="166667" style="paint-order:stroke fill markers" aria-label="">
  <path d="m14.68 4.3203q0.64062 0.64062 0.97656 1.4609 0.34375 0.8125 0.34375 1.7188 0 0.27344-0.01563 0.65625t-0.07031 0.82812q-0.04687 0.44531-0.14844 0.92188-0.09375 0.46875-0.25 0.92188-0.23437 0.67188-0.54687 1.1016-0.3125 0.42188-0.64844 0.66406-0.33594 0.23438-0.67969 0.32031-0.34375 0.085937-0.64062 0.085937-0.25781 0-0.47656-0.08594-0.21094-0.09375-0.40625-0.23438-0.1875-0.14062-0.35938-0.32031-0.16406-0.1875-0.32812-0.375-0.16406-0.1875-0.32812-0.35937-0.15625-0.17188-0.32812-0.30469-0.17188-0.14062-0.36719-0.22656-0.1875-0.085937-0.41406-0.09375h-3.9844q-0.22656 0.0078-0.42188 0.09375-0.1875 0.08594-0.35938 0.22656-0.17188 0.13281-0.33594 0.30469-0.15625 0.17188-0.32031 0.35938t-0.33594 0.375q-0.16406 0.17969-0.35938 0.32031-0.1875 0.14062-0.40625 0.23438-0.21094 0.085937-0.46875 0.085937-0.29688 0-0.64062-0.085937-0.34375-0.085938-0.67969-0.32031-0.33594-0.24219-0.64844-0.66406-0.3125-0.42969-0.54688-1.1016-0.15625-0.45312-0.25781-0.92188-0.09375-0.47656-0.14844-0.92188-0.046875-0.44531-0.0625-0.82812t-0.015625-0.65625q0-0.90625 0.33594-1.7188 0.34375-0.82031 0.98438-1.4609 0.63281-0.64062 1.4531-0.97656 0.82031-0.34375 1.7266-0.34375h7q0.90625 0 1.7188 0.34375 0.82031 0.33594 1.4609 0.97656zm-0.10938 6.1797q0.14844-0.41406 0.23438-0.85938 0.08594-0.44531 0.125-0.85156 0.04687-0.41406 0.05469-0.75 0.015622-0.33594 0.015622-0.53906 0-0.72656-0.28125-1.3594-0.27344-0.64062-0.75-1.1094-0.46875-0.47656-1.1094-0.75-0.63281-0.28125-1.3594-0.28125h-7q-0.72656 0-1.3672 0.28125-0.63281 0.27344-1.1094 0.75-0.46875 0.46875-0.75 1.1094-0.27344 0.63281-0.27344 1.3594 0 0.20312 0.0078125 0.53906 0.015625 0.33594 0.054688 0.75 0.046875 0.40625 0.13281 0.85156 0.085938 0.44531 0.23438 0.85938 0.19531 0.5625 0.42969 0.86719 0.23438 0.30469 0.45312 0.44531 0.22656 0.14062 0.40625 0.16406 0.1875 0.023437 0.28125 0.023437 0.17188 0 0.375-0.20312 0.21094-0.21094 0.4375-0.46875 0.1875-0.21875 0.39844-0.44531 0.21875-0.23438 0.47656-0.42188 0.26562-0.19531 0.58594-0.32031t0.71094-0.14062h4.0312q0.39062 0.01563 0.71094 0.14062 0.32031 0.125 0.57812 0.32031 0.26562 0.1875 0.47656 0.42188 0.21875 0.22656 0.40625 0.44531 0.22656 0.25781 0.42969 0.46875 0.21094 0.20312 0.38281 0.20312 0.09375 0 0.27344-0.02344 0.1875-0.02344 0.40625-0.16406 0.22656-0.14062 0.46094-0.44531 0.23438-0.30468 0.42969-0.86718zm-10.57-3.5h1v1h-1v1h-1v-1h-1v-1h1v-1h1zm9 1q0.21094 0 0.39062 0.078125 0.17969 0.078125 0.3125 0.21875 0.14062 0.13281 0.21875 0.3125t0.078125 0.39062-0.078125 0.39062-0.21875 0.32031q-0.13281 0.13281-0.3125 0.21094-0.17969 0.078125-0.39062 0.078125-0.21094 0-0.39062-0.078125-0.17969-0.078125-0.32031-0.21094-0.13281-0.14062-0.21094-0.32031t-0.078125-0.39062 0.078125-0.39062 0.21094-0.3125q0.14062-0.14062 0.32031-0.21875 0.17969-0.078125 0.39062-0.078125zm-2-2q0.21094 0 0.39062 0.078125 0.17969 0.078125 0.3125 0.21875 0.14062 0.13281 0.21875 0.3125t0.078125 0.39062-0.078125 0.39062-0.21875 0.32031q-0.13281 0.13281-0.3125 0.21094-0.17969 0.078125-0.39062 0.078125-0.21094 0-0.39062-0.078125-0.17969-0.078125-0.32031-0.21094-0.13281-0.14062-0.21094-0.32031t-0.078125-0.39062 0.078125-0.39062 0.21094-0.3125q0.14062-0.14062 0.32031-0.21875 0.17969-0.078125 0.39062-0.078125z" stroke-width="166667"/>
 </g>
</svg>
