<svg xmlns="http://www.w3.org/2000/svg" width="16" height="16"><path d="M11 1A10 10 0 0 0 1 11a10 10 0 0 0 .604 3.393A10 10 0 0 0 5 15a10 10 0 0 0 5.514-1.664A2 2 0 0 1 10 12a2 2 0 0 1 2-2 2 2 0 0 1 1.334.514A10 10 0 0 0 15 5a10 10 0 0 0-.604-3.393A10 10 0 0 0 11 1zm-.004.998H11c.868.004 1.718.207 2.549.457.249.83.45 1.679.453 2.545v.002c0 1.444-.369 2.88-1.035 4.162A3 3 0 0 0 12 9a3 3 0 0 0-3 3 3 3 0 0 0 .164.969 9.077 9.077 0 0 1-4.16 1.033c-.869-.003-1.72-.206-2.553-.457-.249-.83-.45-1.68-.453-2.547 0-2.356.97-4.697 2.637-6.363a9.111 9.111 0 0 1 6.361-2.637z" style="font-variation-settings:normal" fill="#363636"/><path d="M15.477.007a98.578 98.578 0 0 1-9.264 7.868l.7.7A100.934 100.934 0 0 0 15.995.78z" style="font-variation-settings:normal" fill="#363636"/></svg>