<svg xmlns="http://www.w3.org/2000/svg" width="16" height="16"><path d="M8 0C3.588 0 0 3.588 0 8s3.588 8 8 8 8-3.588 8-8-3.588-8-8-8zm0 1c.023 0 .045.004.068.004.34.003.67.036.996.086A6.986 6.986 0 0 1 15 8c0 .31-.026.612-.064.91a6.975 6.975 0 0 1-1.03-.244l.36-.93-.932-.361-.36.926a7 7 0 0 1-2.11-1.559l.763-.615L11 5.35l-.764.615a6.932 6.932 0 0 1-1.052-2.4l.962-.149-.152-.988-.969.15A7.096 7.096 0 0 1 9 2c0-.31.026-.612.064-.91a7.043 7.043 0 0 0-.996-.086C8.028 1.33 8 1.662 8 2c0 .246.011.49.033.73l-1.004.157.153.988 1.011-.156A7.94 7.94 0 0 0 9.46 6.592l-.795.638.627.778.795-.64a8.04 8.04 0 0 0 2.527 1.866l-.363.938.932.361.363-.935c.386.124.78.227 1.19.293A6.987 6.987 0 0 1 8 15c-.057 0-.112-.006-.168-.008.07-.559.065-1.133.014-1.713l1.023-.158-.154-.988-1.008.156a7.91 7.91 0 0 0-1.27-2.87l.797-.64L6.607 8l-.804.646a8.036 8.036 0 0 0-2.524-1.859l.37-.951-.934-.361-.361.935a7.96 7.96 0 0 0-1.094-.28 6.973 6.973 0 0 0-.198.977c.318.054.627.138.93.233l-.361.931.933.362.358-.924a7 7 0 0 1 2.107 1.56l-.76.612.627.78.762-.614A6.94 6.94 0 0 1 6.7 12.445l-.949.149.154.988.953-.148c.04.495.041.986-.02 1.462A6.987 6.987 0 0 1 1 8c0-.303.025-.6.063-.893A6.987 6.987 0 0 1 8 1zM6.846 14.896z" fill="#363636"/></svg>
