<?xml version="1.0" encoding="utf-8"?>
<svg viewBox="0 0 100 100" xmlns="http://www.w3.org/2000/svg">
  <defs>
    <clipPath id="clip-3">
      <rect x="-240" y="-180" transform="scale(0.5,0.5)" width="1440" height="1080" fill="none" stroke-width="0.5"/>
    </clipPath>
  </defs>
  <g transform="matrix(1, 0, 0, 1, -189.999433, -129.999998)">
    <g clip-path="url(#clip-3)" data-paper-data="{&quot;isPaintingLayer&quot;:true}" fill-rule="nonzero" stroke="none" stroke-linecap="butt" stroke-linejoin="miter" stroke-miterlimit="10" stroke-dasharray="" stroke-dashoffset="0" style="mix-blend-mode: normal">
      <path d="M224.9515,139.31178c-5.2017,0 -10.0318,2.78872 -12.6327,7.30372l-15.04776,26.0808c-2.60085,4.515 -2.60085,10.0924 0,14.6074l15.04776,26.0808c2.6009,4.515 7.431,7.3037 12.6327,7.3037h30.0956c5.2017,0 10.0318,-2.7887 12.6327,-7.3037l15.0477,-26.0808c2.6009,-4.515 2.6009,-10.0924 0,-14.6074l-15.0477,-26.0808c-2.6009,-4.515 -7.431,-7.30372 -12.6327,-7.30372zM272.2711,143.9596l15.0743,26.0808c3.5566,6.1617 3.5566,13.7575 0,19.9192l-15.0478,26.0808c-3.5563,6.1617 -10.138,9.9596 -17.2505,9.9596h-30.0956c-7.1125,0 -13.6943,-3.7979 -17.2505,-9.9596l-15.0478,-26.0808c-3.55626,-6.1617 -3.55626,-13.7575 0,-19.9192l15.0478,-26.0808c3.5562,-6.16168 10.138,-9.9596 17.2505,-9.9596h30.0956c7.1125,0 13.6942,3.79792 17.224,9.9596z" fill="#000000" stroke-width="1"/>
      <path d="M233.0733,202.0439c-0.6635,0 -1.3535,-0.1594 -1.9905,-0.5312l-13.0042,-7.5162c-2.8397,-1.6466 -4.6179,-4.7009 -4.6179,-7.9942v-12.0046c0,-3.2933 1.7782,-6.3476 4.6179,-7.9942l13.0042,-7.5162c1.9108,-1.0889 4.3259,-0.4515 5.4406,1.4607c1.0881,1.9123 0.4511,4.3291 -1.4597,5.4446l-13.0042,7.5162c-0.3981,0.2124 -0.637,0.6374 -0.637,1.0889v12.0046c0,0.4515 0.2389,0.8765 0.637,1.0889l13.0042,7.5162c1.9108,1.0889 2.5478,3.5323 1.4597,5.4446c-0.7166,1.2748 -2.0701,1.9919 -3.4501,1.9919z" fill="#000000" stroke-width="1"/>
      <path d="M246.9002,202.0439c-1.38,0 -2.707,-0.7171 -3.4501,-1.9919c-1.0881,-1.9123 -0.4512,-4.3291 1.4597,-5.4446l13.0042,-7.5162c0.3981,-0.2124 0.6369,-0.6374 0.6369,-1.0889v-12.0046c0,-0.4515 -0.2388,-0.8765 -0.6369,-1.0889l-13.0042,-7.5162c-1.9109,-1.0889 -2.5478,-3.5323 -1.4597,-5.4446c1.0881,-1.9122 3.5297,-2.5496 5.4406,-1.4607l13.0042,7.5162c2.8397,1.6466 4.6178,4.7009 4.6178,7.9942v12.0046c0,3.2933 -1.7781,6.3476 -4.6178,7.9942l-13.0042,7.5162c-0.6104,0.3718 -1.3005,0.5312 -1.9905,0.5312z" fill="#000000" stroke-width="1"/>
    </g>
  </g>
</svg>