<?xml version="1.0" encoding="utf-8"?>
<svg viewBox="0 0 100 100" xmlns="http://www.w3.org/2000/svg">
  <defs>
    <clipPath id="clip-2">
      <rect x="-240" y="-180" transform="scale(0.5,0.5)" width="1440" height="1080" fill="none" stroke-width="0.5"/>
    </clipPath>
    <clipPath id="clip-1">
      <path d="M218,202v-41h45v41z"/>
    </clipPath>
  </defs>
  <g transform="matrix(1, 0, 0, 1, -190.000501, -129.999998)">
    <g clip-path="url(#clip-2)" data-paper-data="{&quot;isPaintingLayer&quot;:true}" fill-rule="nonzero" stroke="none" stroke-linecap="butt" stroke-linejoin="miter" stroke-miterlimit="10" stroke-dasharray="" stroke-dashoffset="0" style="mix-blend-mode: normal">
      <path d="M224.9526,139.31178c-5.2017,0 -10.0318,2.78872 -12.6327,7.30372l-15.04775,26.0808c-2.60085,4.515 -2.60085,10.0924 0,14.6074l15.04775,26.0808c2.6009,4.515 7.431,7.3037 12.6327,7.3037h30.0956c5.2017,0 10.0318,-2.7887 12.6327,-7.3037l15.0477,-26.0808c2.6009,-4.515 2.6009,-10.0924 0,-14.6074l-15.0477,-26.0808c-2.6009,-4.515 -7.431,-7.30372 -12.6327,-7.30372zM272.2722,143.9596l15.0743,26.0808c3.5565,6.1617 3.5565,13.7575 0,19.9192l-15.0478,26.0808c-3.5563,6.1617 -10.138,9.9596 -17.2505,9.9596h-30.0956c-7.1125,0 -13.6942,-3.7979 -17.2505,-9.9596l-15.04778,-26.0808c-3.55626,-6.1617 -3.55626,-13.7575 0,-19.9192l15.04778,-26.0808c3.5563,-6.16168 10.138,-9.9596 17.2505,-9.9596h30.0956c7.1125,0 13.6942,3.79792 17.224,9.9596z" fill="#000000" stroke-width="1"/>
      <g clip-path="url(#clip-1)" fill="#000000" stroke-width="1">
        <path d="M236.9436,202c-1.9678,0 -3.5564,-1.5573 -3.5564,-3.4864c0,-0.7903 0.2846,-1.5805 0.7825,-2.1848l6.8756,-8.3674c2.0627,-2.5334 5.1923,-3.9977 8.4879,-3.9744h4.7892c0.8536,0 1.5411,-0.6973 1.5411,-1.5341l-0.0474,-12.9693c0,-0.8368 -0.6875,-1.5108 -1.5411,-1.5108h-27.55c-0.8536,0 -1.5411,0.674 -1.5648,1.5108l-0.0474,12.9229c0,0.4183 0.1659,0.7902 0.4504,1.0924c0.3082,0.2789 0.6876,0.4416 1.1144,0.4416l3.58,-0.0465h0.0475c1.9678,0 3.5563,1.534 3.58,3.4631c0.0238,1.9292 -1.5648,3.4864 -3.5326,3.5097l-3.5801,0.0232c-4.7893,0.0697 -8.7013,-3.6956 -8.7724,-8.3906c0,-0.0465 0,-0.0929 0,-0.1394l0.0474,-12.9229c0.0237,-4.6486 3.912,-8.4371 8.6776,-8.4371h27.5737c4.7656,0 8.6302,3.7885 8.6539,8.4603l0.0474,12.9694c0.0237,4.695 -3.8409,8.5068 -8.6301,8.53h-0.0237h-4.7893c-1.138,0 -2.2287,0.5114 -2.9399,1.3946l-6.8757,8.3673c-0.6876,0.8135 -1.7071,1.3016 -2.7977,1.2784z"/>
      </g>
    </g>
  </g>
</svg>