<?xml version="1.0" encoding="utf-8"?>
<svg viewBox="0 0 100 100" xmlns="http://www.w3.org/2000/svg">
  <defs>
    <clipPath id="clip-1">
      <rect x="-240" y="-180" transform="scale(0.5,0.5)" width="1440" height="1080" fill="none" stroke-width="0.5"/>
    </clipPath>
  </defs>
  <g transform="matrix(1, 0, 0, 1, -189.999814, -129.798292)">
    <g clip-path="url(#clip-1)" data-paper-data="{&quot;isPaintingLayer&quot;:true}" fill-rule="nonzero" stroke="none" stroke-linecap="butt" stroke-linejoin="miter" stroke-miterlimit="10" stroke-dasharray="" stroke-dashoffset="0" style="mix-blend-mode: normal">
      <path d="M224.9521,139.28849c-5.2017,0 -10.0318,2.77641 -12.6327,7.27171l-15.04775,25.9664c-2.60085,4.4953 -2.60085,10.0482 0,14.5434l15.04775,25.9665c2.6009,4.4952 7.431,7.2717 12.6327,7.2717h30.0955c5.2017,0 10.0319,-2.7765 12.6327,-7.2717l15.0478,-25.9665c2.6008,-4.4952 2.6008,-10.0481 0,-14.5434l-15.0478,-25.9664c-2.6008,-4.4953 -7.431,-7.27171 -12.6327,-7.27171zM272.2716,143.9159l15.0743,25.9665c3.5561,6.1347 3.5561,13.6972 0,19.8318l-15.0477,25.9665c-3.5563,6.1347 -10.138,9.9159 -17.2506,9.9159h-30.0955c-7.1125,0 -13.6943,-3.7812 -17.2505,-9.9159l-15.04779,-25.9665c-3.55626,-6.1346 -3.55626,-13.6971 0,-19.8318l15.04779,-25.9665c3.5562,-6.13463 10.138,-9.9159 17.2505,-9.9159h30.0955c7.1126,0 13.6943,3.78127 17.224,9.9159z" fill="#000000" stroke-width="1"/>
      <path d="M253.0042,166.8415c0,-2.1905 1.7823,-3.9663 3.9809,-3.9663c2.1986,0 3.9809,1.7758 3.9809,3.9663c0,2.1906 -1.7823,3.9664 -3.9809,3.9664c-2.1986,0 -3.9809,-1.7758 -3.9809,-3.9664z" fill="#000000" stroke-width="1"/>
      <path d="M241.327,170.8079h-16.7198c-2.2027,0 -3.9809,-1.7717 -3.9809,-3.9664c0,-2.1947 1.7782,-3.9663 3.9809,-3.9663h16.7198c2.2027,0 3.9809,1.7716 3.9809,3.9663c0,2.1947 -1.7782,3.9664 -3.9809,3.9664z" fill="#000000" stroke-width="1"/>
      <path d="M253.0042,193.284c0,-2.1906 1.7823,-3.9664 3.9809,-3.9664c2.1986,0 3.9809,1.7758 3.9809,3.9664c0,2.1905 -1.7823,3.9663 -3.9809,3.9663c-2.1986,0 -3.9809,-1.7758 -3.9809,-3.9663z" fill="#000000" stroke-width="1"/>
      <path d="M241.327,197.2503h-16.7198c-2.2027,0 -3.9809,-1.7716 -3.9809,-3.9663c0,-2.1948 1.7782,-3.9664 3.9809,-3.9664h16.7198c2.2027,0 3.9809,1.7716 3.9809,3.9664c0,2.1947 -1.7782,3.9663 -3.9809,3.9663z" fill="#000000" stroke-width="1"/>
      <path d="M220.8917,180.0627c0,-2.1905 1.7823,-3.9663 3.9809,-3.9663c2.1986,0 3.9809,1.7758 3.9809,3.9663c0,2.1906 -1.7823,3.9664 -3.9809,3.9664c-2.1986,0 -3.9809,-1.7758 -3.9809,-3.9664z" fill="#000000" stroke-width="1"/>
      <path d="M257.2505,184.0291h-16.7197c-2.2028,0 -3.9809,-1.7716 -3.9809,-3.9664c0,-2.1947 1.7781,-3.9663 3.9809,-3.9663h16.7197c2.2028,0 3.9809,1.7716 3.9809,3.9663c0,2.1948 -1.7781,3.9664 -3.9809,3.9664z" fill="#000000" stroke-width="1"/>
    </g>
  </g>
</svg>