<?xml version="1.0" encoding="utf-8"?>
<svg viewBox="0 0 100 100" xmlns="http://www.w3.org/2000/svg">
  <defs>
    <clipPath id="clip-1">
      <rect x="-240" y="-180" transform="scale(0.5,0.5)" width="1440" height="1080" fill="none" stroke-width="0.5"/>
    </clipPath>
  </defs>
  <g transform="matrix(1, 0, 0, 1, -189.99986, -129.966063)">
    <g clip-path="url(#clip-1)" data-paper-data="{&quot;isPaintingLayer&quot;:true}" fill-rule="nonzero" stroke="none" stroke-linecap="butt" stroke-linejoin="miter" stroke-miterlimit="10" stroke-dasharray="" stroke-dashoffset="0" style="mix-blend-mode: normal">
      <path d="M258.5775,174.3397c-0.4777,0 -0.982,-0.0796 -1.4597,-0.2919l-17.1178,-6.7676l-17.1179,6.7941c-2.0435,0.7962 -4.3524,-0.1858 -5.1751,-2.2293c-0.7962,-2.0435 0.1858,-4.3524 2.2293,-5.1752l18.5775,-7.3513c0.9289,-0.3716 1.9904,-0.3716 2.9193,0l18.5775,7.3513c2.0435,0.7962 3.052,3.1317 2.2293,5.1752c-0.5839,1.5393 -2.0701,2.4947 -3.6624,2.4947z" fill="#000000" stroke-width="1"/>
      <path d="M258.5775,187.6093c-0.4777,0 -0.982,-0.0796 -1.4597,-0.2919l-17.1178,-6.7675l-17.1179,6.794c-2.0435,0.7962 -4.3524,-0.1858 -5.1751,-2.2293c-0.7962,-2.0435 0.1858,-4.3524 2.2293,-5.1751l18.5775,-7.3514c0.9289,-0.3716 1.9904,-0.3716 2.9193,0l18.5775,7.3514c2.0435,0.7961 3.052,3.1316 2.2293,5.1751c-0.5839,1.5393 -2.0701,2.4947 -3.6624,2.4947z" fill="#000000" stroke-width="1"/>
      <path d="M258.5775,200.879c-0.4777,0 -0.982,-0.0797 -1.4597,-0.292l-17.1178,-6.7675l-17.1179,6.7941c-2.0435,0.7962 -4.3524,-0.1858 -5.1751,-2.2293c-0.7962,-2.0435 0.1858,-4.3525 2.2293,-5.1752l18.5775,-7.3514c0.9289,-0.3715 1.9904,-0.3715 2.9193,0l18.5775,7.3514c2.0435,0.7962 3.052,3.1317 2.2293,5.1752c-0.5839,1.5393 -2.0701,2.4947 -3.6624,2.4947z" fill="#000000" stroke-width="1"/>
      <path d="M224.9522,139.30786c-5.2017,0 -10.0319,2.78664 -12.6327,7.29834l-15.04778,26.0615c-2.60084,4.5117 -2.60084,10.085 0,14.5966l15.04778,26.0616c2.6008,4.5117 7.431,7.2983 12.6327,7.2983h30.0955c5.2017,0 10.0319,-2.7866 12.6327,-7.2983l15.0478,-26.0616c2.6008,-4.5116 2.6008,-10.0849 0,-14.5966l-15.0478,-26.0615c-2.6008,-4.5117 -7.431,-7.29834 -12.6327,-7.29834zM272.2717,143.9522l15.0743,26.0616c3.556,6.1571 3.556,13.7473 0,19.9045l-15.0478,26.0615c-3.5562,6.1571 -10.138,9.9523 -17.2505,9.9523h-30.0955c-7.1125,0 -13.6943,-3.7952 -17.2505,-9.9523l-15.04781,-26.0615c-3.55626,-6.1572 -3.55626,-13.7474 0,-19.9045l15.04781,-26.0616c3.5562,-6.15708 10.138,-9.9522 17.2505,-9.9522h30.0955c7.1125,0 13.6943,3.79512 17.224,9.9522z" fill="#000000" stroke-width="1"/>
    </g>
  </g>
</svg>