<?xml version="1.0" encoding="utf-8"?>
<svg viewBox="0 0 100 100" xmlns="http://www.w3.org/2000/svg">
  <defs>
    <clipPath id="clip-1">
      <rect x="-240" y="-180" transform="scale(0.5,0.5)" width="1440" height="1080" fill="none" stroke-width="0.5"/>
    </clipPath>
  </defs>
  <g transform="matrix(1, 0, 0, 1, -190.000486, -129.999998)">
    <g clip-path="url(#clip-1)" data-paper-data="{&quot;isPaintingLayer&quot;:true}" fill-rule="nonzero" stroke="none" stroke-linecap="butt" stroke-linejoin="miter" stroke-miterlimit="10" stroke-dasharray="" stroke-dashoffset="0" style="mix-blend-mode: normal">
      <path d="M224.9526,139.31178c-5.2017,0 -10.0318,2.78872 -12.6327,7.30372l-15.04776,26.0808c-2.60085,4.515 -2.60085,10.0924 0,14.6074l15.04776,26.0808c2.6009,4.515 7.431,7.3037 12.6327,7.3037h30.0955c5.2017,0 10.0319,-2.7887 12.6327,-7.3037l15.0478,-26.0808c2.6009,-4.515 2.6009,-10.0924 0,-14.6074l-15.0478,-26.0808c-2.6008,-4.515 -7.431,-7.30372 -12.6327,-7.30372zM272.2721,143.9596l15.0743,26.0808c3.5566,6.1617 3.5566,13.7575 0,19.9192l-15.0477,26.0808c-3.5563,6.1617 -10.138,9.9596 -17.2506,9.9596h-30.0955c-7.1125,0 -13.6943,-3.7979 -17.2505,-9.9596l-15.0478,-26.0808c-3.55626,-6.1617 -3.55626,-13.7575 0,-19.9192l15.0478,-26.0808c3.5562,-6.16168 10.138,-9.9596 17.2505,-9.9596h30.0955c7.1126,0 13.6943,3.79792 17.224,9.9596z" fill="#000000" stroke-width="1"/>
      <path d="M257.0382,201.0612c-1.0085,0 -2.0435,-0.3984 -2.8132,-1.1686l-9.9522,-9.9596c-1.5658,-1.5669 -1.5658,-4.09 0,-5.6305c1.5658,-1.5669 4.0871,-1.5669 5.6263,0l9.9523,9.9596c1.5658,1.567 1.5658,4.0901 0,5.6305c-0.7697,0.7702 -1.7782,1.1686 -2.8132,1.1686z" fill="#000000" stroke-width="1"/>
      <path d="M236.2049,193.4919c-9.5011,0 -17.2505,-7.7552 -17.2505,-17.2633c0,-9.508 7.7494,-17.2632 17.2505,-17.2632c9.5011,0 17.2505,7.7552 17.2505,17.2632c0,9.5081 -7.7229,17.2633 -17.2505,17.2633zM236.2049,166.933c-5.1221,0 -9.2887,4.1698 -9.2887,9.2956c0,5.1259 4.1666,9.2957 9.2887,9.2957c5.1221,0 9.2888,-4.1698 9.2888,-9.2957c0,-5.1258 -4.1667,-9.2956 -9.2888,-9.2956z" fill="#000000" stroke-width="1"/>
    </g>
  </g>
</svg>