<?xml version="1.0" encoding="UTF-8" standalone="no"?>
<!-- Created with Inkscape (http://www.inkscape.org/) -->

<svg
   width="16"
   height="16"
   viewBox="0 0 4.2333332 4.2333335"
   version="1.1"
   id="svg11945"
   inkscape:version="1.1.1 (3bf5ae0d25, 2021-09-20, custom)"
   sodipodi:docname="evolution-symbolic.svg"
   xmlns:inkscape="http://www.inkscape.org/namespaces/inkscape"
   xmlns:sodipodi="http://sodipodi.sourceforge.net/DTD/sodipodi-0.dtd"
   xmlns="http://www.w3.org/2000/svg"
   xmlns:svg="http://www.w3.org/2000/svg">
  <sodipodi:namedview
     id="namedview11947"
     pagecolor="#ffffff"
     bordercolor="#666666"
     borderopacity="1.0"
     inkscape:pageshadow="2"
     inkscape:pageopacity="0.0"
     inkscape:pagecheckerboard="0"
     inkscape:document-units="px"
     showgrid="false"
     units="in"
     inkscape:zoom="12.375"
     inkscape:cx="-17.89899"
     inkscape:cy="8.7272727"
     inkscape:window-width="1920"
     inkscape:window-height="1006"
     inkscape:window-x="0"
     inkscape:window-y="0"
     inkscape:window-maximized="1"
     inkscape:current-layer="svg11945" />
  <defs
     id="defs11942" />
  <path
     id="rect923"
     style="fill:#363636;stroke-width:0.999999"
     d="M 2 2 C 0.892 2 0 2.8919999 0 4 L 0 12 C 2.9605947e-16 13.108 0.892 14 2 14 L 8.2597656 14 A 4.4999996 4.4999996 0 0 1 8 12.5 A 4.4999996 4.4999996 0 0 1 12.5 8 A 4.4999996 4.4999996 0 0 1 16 9.671875 L 16 4 C 16 2.8919999 15.108 2 14 2 L 2 2 z M 1.890625 4 C 1.9790082 3.9981006 2.0698819 4.02075 2.1523438 4.0683594 L 8.0546875 7.4765625 L 13.958984 4.0683594 C 14.198873 3.9298593 14.504078 4.0101111 14.642578 4.25 C 14.781078 4.4898889 14.698873 4.7950937 14.458984 4.9335938 L 8.0546875 8.6425781 L 1.6523438 4.9335938 C 1.412455 4.7950939 1.3302501 4.4898889 1.46875 4.25 C 1.5596406 4.0925728 1.7218934 4.0036262 1.890625 4 z M 12.5 9 A 3.4999999 3.4999999 0 0 0 9 12.5 A 3.4999999 3.4999999 0 0 0 12.5 16 A 3.4999999 3.4999999 0 0 0 16 12.5 A 3.4999999 3.4999999 0 0 0 12.5 9 z M 12 10 L 13 10 L 13 12 L 15 12 L 15 13 L 13 13 L 12 13 L 12 12 L 12 10 z "
     transform="scale(0.26458333)" />
</svg>
