<svg width="16" height="16" version="1.1" xmlns="http://www.w3.org/2000/svg">
 <path d="m7 0c-1.108 0-2 0.892-2 2v1h-2c-1.108 0-2 0.892-2 2v9c0 1.108 0.892 2 2 2h6c1.108 0 2-0.892 2-2v-1h2c1.108 0 2-0.892 2-2v-4.5859-1.4141l-5-5h-1-2zm0 1h2v4 1h5v5c0 0.554-0.446 1-1 1h-2v-2.5859-1.4141l-5-5v-1c0-0.1385 0.027656-0.27092 0.078125-0.39062 0.15141-0.35916 0.50638-0.60938 0.92188-0.60938zm3 0.41406 3.5859 3.5859h-3.5859v-3.5859zm-7 2.5859h2v2.1875c0.31492-0.11353 0.64805-0.1875 1-0.1875v-1.5859l3.5859 3.5859h-0.77344c0.11353 0.31492 0.1875 0.64805 0.1875 1h1v5c0 0.554-0.446 1-1 1h-3-1-2c-0.554 0-1-0.446-1-1v-9c0-0.1385 0.027656-0.27092 0.078125-0.39062 0.15141-0.35916 0.50638-0.60938 0.92188-0.60938z" fill="#363636"/>
 <g>
  <path d="m6 7c1.1 0 2 0.9 2 2s-0.9 2-2 2v1h-1v-2h1c0.55 0 1-0.45 1-1s-0.45-1-1-1-1 0.45-1 1h-1c0-1.1 0.9-2 2-2zm-1 6h1v1h-1z" fill="#363636"/>
 </g>
</svg>
