<?xml version="1.0" encoding="UTF-8" standalone="no"?>
<!-- Created with Inkscape (http://www.inkscape.org/) -->

<svg
   width="16"
   height="16"
   viewBox="0 0 4.2333332 4.2333335"
   version="1.1"
   id="svg11945"
   inkscape:version="1.1.1 (3bf5ae0d25, 2021-09-20, custom)"
   sodipodi:docname="libreoffice-draw-symbolic.svg"
   xmlns:inkscape="http://www.inkscape.org/namespaces/inkscape"
   xmlns:sodipodi="http://sodipodi.sourceforge.net/DTD/sodipodi-0.dtd"
   xmlns="http://www.w3.org/2000/svg"
   xmlns:svg="http://www.w3.org/2000/svg">
  <sodipodi:namedview
     id="namedview11947"
     pagecolor="#ffffff"
     bordercolor="#666666"
     borderopacity="1.0"
     inkscape:pageshadow="2"
     inkscape:pageopacity="0.0"
     inkscape:pagecheckerboard="0"
     inkscape:document-units="px"
     showgrid="false"
     units="in"
     inkscape:zoom="9.8943124"
     inkscape:cx="-16.524645"
     inkscape:cy="0.3032045"
     inkscape:window-width="1920"
     inkscape:window-height="1006"
     inkscape:window-x="0"
     inkscape:window-y="0"
     inkscape:window-maximized="1"
     inkscape:current-layer="svg11945" />
  <defs
     id="defs11942" />
  <path
     id="rect923"
     style="fill:#363636;stroke-width:6;stroke-linejoin:round"
     d="M 3.9472656,0 C 2.863385,0.027277 2,0.90931271 2,2 v 12 c 0,1.108 0.8919999,2 2,2 h 8 c 1.108,0 2,-0.892 2,-2 V 6 L 8,0 H 4 C 3.982687,0 3.96447,-4.3296823e-4 3.9472656,0 Z M 9,0 14,5 V 2 C 14,0.89200022 13.108,0 12,0 Z M 7.0000001,6 c 0.7146637,-1.326e-4 1.37509,0.381083 1.7324219,1 H 8.0000001 V 8 L 6.6347657,9.9511719 C 5.6928639,9.7762511 5.0072844,8.9579787 5.0000001,8 c 10e-8,-1.1045695 0.8954305,-1.9999999 2,-2 z M 8.5000002,7.5000001 H 12 V 11 H 10.09961 L 8.5000002,8.9280001 Z M 8.0000001,9 10,12 H 6.0000001 Z"
     transform="scale(0.26458333)"
     sodipodi:nodetypes="ssssssccssccsscccccccccccccccccc" />
</svg>
