<?xml version="1.0" encoding="UTF-8" standalone="no"?>
<!-- Created with Inkscape (http://www.inkscape.org/) -->

<svg
   width="16"
   height="16"
   viewBox="0 0 4.2333332 4.2333335"
   version="1.1"
   id="svg11945"
   inkscape:version="1.1.1 (3bf5ae0d25, 2021-09-20, custom)"
   sodipodi:docname="utilities-system-monitor-symbolic.svg"
   xmlns:inkscape="http://www.inkscape.org/namespaces/inkscape"
   xmlns:sodipodi="http://sodipodi.sourceforge.net/DTD/sodipodi-0.dtd"
   xmlns="http://www.w3.org/2000/svg"
   xmlns:svg="http://www.w3.org/2000/svg">
  <sodipodi:namedview
     id="namedview11947"
     pagecolor="#ffffff"
     bordercolor="#666666"
     borderopacity="1.0"
     inkscape:pageshadow="2"
     inkscape:pageopacity="0.0"
     inkscape:pagecheckerboard="0"
     inkscape:document-units="px"
     showgrid="false"
     units="in"
     inkscape:zoom="32"
     inkscape:cx="9.90625"
     inkscape:cy="11.484375"
     inkscape:window-width="1920"
     inkscape:window-height="996"
     inkscape:window-x="0"
     inkscape:window-y="0"
     inkscape:window-maximized="1"
     inkscape:current-layer="svg11945"
     showguides="true"
     inkscape:lockguides="false" />
  <defs
     id="defs11942" />
  <path
     id="rect3929"
     style="fill:#363636;fill-opacity:1;stroke-width:0.66146;stroke-linecap:round;stroke-linejoin:round"
     d="m 1.5803945,0.49134186 c -0.056444,0 -0.107061,0.040666 -0.1224732,0.098185 L 0.99502969,1.9150277 H 0.396875 c -0.0732896,0 -0.13229167,0.059002 -0.13229167,0.1322917 0,0.07329 0.0590021,0.1322916 0.13229167,0.1322916 h 0.6857463 c 0.00818,7.925e-4 0.016317,7.131e-4 0.024288,0 h 0.00336 v -2.583e-4 c 0.052126,-0.00607 0.097539,-0.043212 0.1126546,-0.097152 L 1.5875,1.1179187 2.3577581,3.4950346 c 0.00575,0.031851 0.02357,0.060636 0.049351,0.080615 0.00139,0.00108 0.00296,0.00208 0.00439,0.0031 0.00206,0.00147 0.00405,0.00304 0.0062,0.00439 0.00143,8.99e-4 0.00293,0.00174 0.00439,0.00258 0.00991,0.00571 0.020732,0.010337 0.032298,0.013436 0.035113,0.00941 0.070167,0.0037 0.099219,-0.012919 2.303e-4,-1.295e-4 5.457e-4,-1.274e-4 7.751e-4,-2.584e-4 0.00166,-9.629e-4 0.00329,-0.00207 0.00491,-0.0031 1.664e-4,-1.049e-4 3.509e-4,-1.529e-4 5.167e-4,-2.584e-4 0.00161,-0.00104 0.00308,-0.00225 0.00465,-0.00336 1.512e-4,-1.061e-4 3.659e-4,-1.517e-4 5.167e-4,-2.583e-4 0.00166,-0.00119 0.0033,-0.00235 0.00491,-0.00362 h 2.585e-4 c 0.00164,-0.00128 0.00334,-0.00278 0.00491,-0.00413 0.00148,-0.00127 0.00272,-0.00254 0.00413,-0.00388 l 2.584e-4,-2.583e-4 2.584e-4,-2.584e-4 c 0.00299,-0.00286 0.0058,-0.0059 0.00853,-0.00904 l 2.583e-4,-2.584e-4 c 0.00132,-0.00153 0.00262,-0.00306 0.00388,-0.00465 l 2.583e-4,-2.584e-4 c 0.00125,-0.0016 0.00244,-0.00325 0.00362,-0.00491 l 2.584e-4,-2.583e-4 c 0.00114,-0.00161 0.00229,-0.00324 0.00336,-0.00491 1.056e-4,-1.64e-4 1.536e-4,-3.521e-4 2.584e-4,-5.167e-4 3.679e-4,-5.786e-4 6.739e-4,-0.00122 0.00103,-0.00181 8.004e-4,-0.0013 0.00157,-0.00255 0.00233,-0.00388 8.895e-4,-0.00156 0.00175,-0.00305 0.00258,-0.00465 1.192e-4,-2.312e-4 3.99e-4,-8.015e-4 5.167e-4,-0.00103 8.215e-4,-0.00162 0.00156,-0.00325 0.00233,-0.00491 1.624e-4,-3.56e-4 3.576e-4,-6.76e-4 5.168e-4,-0.00103 6.866e-4,-0.00154 0.00143,-0.00308 0.00207,-0.00465 2.038e-4,-5.108e-4 3.19e-4,-0.00104 5.167e-4,-0.00155 2.327e-4,-5.98e-4 5.502e-4,-0.00121 7.751e-4,-0.00181 5.601e-4,-0.00152 0.00105,-0.00311 0.00155,-0.00465 7.173e-4,-0.00215 0.00145,-0.00425 0.00207,-0.00646 L 3.0244924,2.179611 h 0.8119659 c 0.07329,0 0.1322917,-0.059002 0.1322917,-0.1322916 0,-0.07329 -0.059002,-0.1322917 -0.1322917,-0.1322917 H 2.9319915 c -0.061516,-0.00375 -0.119053,0.035984 -0.1356505,0.097927 L 2.4913417,2.9710357 1.7170787,0.58952706 c -0.016005,-0.059731 -0.069942,-0.098839 -0.1289327,-0.098185 -4.2e-4,-8.7e-6 -8.724e-4,4.7e-6 -0.00129,0 -0.00218,-2.42e-5 -0.00429,-2e-7 -0.00646,-2e-7 z"
     sodipodi:nodetypes="sccsssccccccccscccccccscccccccccccccssccscccccccccsssccccccss" />
</svg>
