<?xml version="1.0" encoding="UTF-8" standalone="no"?>
<!-- Created with Inkscape (http://www.inkscape.org/) -->

<svg
   width="16"
   height="16"
   viewBox="0 0 4.2333332 4.2333335"
   version="1.1"
   id="svg11945"
   inkscape:version="1.1.1 (3bf5ae0d25, 2021-09-20, custom)"
   sodipodi:docname="weather-symboliv.svg"
   xmlns:inkscape="http://www.inkscape.org/namespaces/inkscape"
   xmlns:sodipodi="http://sodipodi.sourceforge.net/DTD/sodipodi-0.dtd"
   xmlns="http://www.w3.org/2000/svg"
   xmlns:svg="http://www.w3.org/2000/svg">
  <sodipodi:namedview
     id="namedview11947"
     pagecolor="#ffffff"
     bordercolor="#666666"
     borderopacity="1.0"
     inkscape:pageshadow="2"
     inkscape:pageopacity="0.0"
     inkscape:pagecheckerboard="0"
     inkscape:document-units="px"
     showgrid="false"
     units="in"
     inkscape:zoom="36.946329"
     inkscape:cx="4.9260645"
     inkscape:cy="8.9454083"
     inkscape:window-width="1920"
     inkscape:window-height="996"
     inkscape:window-x="0"
     inkscape:window-y="0"
     inkscape:window-maximized="1"
     inkscape:current-layer="svg11945" />
  <defs
     id="defs11942" />
  <path
     id="rect1573-3"
     style="fill:#363636;fill-opacity:1;stroke-width:2;stroke-linecap:round;stroke-linejoin:round;opacity:0.4"
     d="M 11.886719 1 C 11.673544 1.0082246 11.482079 1.1537001 11.423828 1.3710938 L 11.164062 2.3359375 C 11.092372 2.603499 11.250017 2.8775259 11.517578 2.9492188 C 11.78514 3.0209114 12.059166 2.8632646 12.130859 2.5957031 L 12.388672 1.6289062 C 12.460365 1.361345 12.302718 1.089271 12.035156 1.0175781 C 11.984988 1.0041357 11.935913 0.99810202 11.886719 1 z M 7.6699219 1.1699219 C 7.5893583 1.172098 7.5085589 1.1930469 7.4335938 1.2363281 C 7.1937047 1.3748281 7.1115 1.6800328 7.25 1.9199219 L 7.75 2.7871094 C 7.8885 3.0269984 8.1937047 3.10725 8.4335938 2.96875 C 8.6734826 2.83025 8.7537344 2.5269984 8.6152344 2.2871094 L 8.1152344 1.4199219 C 8.0200156 1.2549982 7.8471617 1.1651344 7.6699219 1.1699219 z M 9.8886719 3.6855469 A 2.9999999 2.9999999 0 0 0 9.0625 3.8417969 A 5.9999999 5.9999999 0 0 1 11.208984 6.0214844 A 4.4999997 4.4999997 0 0 1 11.5 6 A 4.4999997 4.4999997 0 0 1 12.96875 6.2480469 A 2.9999999 2.9999999 0 0 0 10.777344 3.7851562 A 2.9999999 2.9999999 0 0 0 9.8886719 3.6855469 z M 15 3.8652344 C 14.919436 3.8674105 14.838637 3.8903125 14.763672 3.9335938 L 13.896484 4.4335938 C 13.656595 4.5720936 13.576344 4.8772984 13.714844 5.1171875 C 13.853344 5.3570766 14.156595 5.4373281 14.396484 5.2988281 L 15.263672 4.7988281 C 15.503561 4.6603281 15.583813 4.3570766 15.445312 4.1171875 C 15.350096 3.9522638 15.17724 3.8604469 15 3.8652344 z M 15.308594 8.1054688 A 4.4999997 4.4999997 0 0 1 15.652344 8.7636719 C 15.657722 8.7490996 15.661912 8.7340649 15.666016 8.71875 C 15.737709 8.4511885 15.580061 8.1791148 15.3125 8.1074219 L 15.308594 8.1054688 z "
     transform="scale(0.26458333)" />
  <path
     id="path923"
     style="fill:#363636;fill-opacity:1;stroke-width:0.661458;stroke-linecap:round;stroke-linejoin:round"
     d="m 1.5875,1.0583333 c -0.73062672,0 -1.3229167,0.59229 -1.32291667,1.3229167 -3e-8,0.7306267 0.59228995,1.3229166 1.32291667,1.3229166 h 1.4552083 c 0.5114388,0 0.9260417,-0.4146028 0.9260417,-0.9260416 0,-0.5114387 -0.4146029,-0.9260417 -0.9260417,-0.9260417 -0.07778,2.72e-4 -0.1552149,0.010342 -0.230477,0.029972 C 2.6093298,1.3840966 2.1252101,1.0584904 1.5875,1.0583333 Z"
     sodipodi:nodetypes="csccsccc" />
</svg>
