<svg height="24" viewBox="0 0 24 24" width="24" xmlns="http://www.w3.org/2000/svg"><style type="text/css" id="current-color-scheme">.ColorScheme-Text{color:#363636;}</style><g style="fill:currentColor;fill-opacity:1;stroke:none" class="ColorScheme-Text"><path d="m4 4v16h9v-1h-8v-14h7v1h1v-1h6v8h1v-9zm8 2h-1v1h1zm0 1v1h1v-1zm0 1h-1v1h1zm0 1v1h1v-1zm0 1h-1v1 1h2v-1h-1z"/><path d="m16.5 13-.207031.207031-3.292969 3.292969.707031.707031 2.292969-2.292969v5.085938h1v-5.085938l2.292969 2.292969.707031-.707031-3.292969-3.292969z"/></g></svg>