<svg xmlns="http://www.w3.org/2000/svg" viewBox="0 0 24 24">
  <defs id="defs3051">
    <style type="text/css" id="current-color-scheme">
      .ColorScheme-Text {
        color:#363636;
      }
      </style>
  </defs>
 <path style="fill:currentColor;fill-opacity:1;stroke:none" 
     d="M 4 4 L 4 5 L 14 5 L 14 4 L 4 4 z M 4 6 L 4 7 L 10 7 L 10 6 L 4 6 z M 18 8 L 14 15 L 16 15 L 16 20 L 20 13 L 18 13 L 18 8 z M 4 10 L 4 11 L 12 11 L 12 10 L 4 10 z M 4 12 L 4 13 L 8 13 L 8 12 L 4 12 z M 4 16 L 4 17 L 11 17 L 11 16 L 4 16 z M 4 18 L 4 19 L 6 19 L 6 18 L 4 18 z M 11 19 L 11 20 L 13 20 L 13 19 L 11 19 z "
     class="ColorScheme-Text"
     />
</svg>
