<svg xmlns="http://www.w3.org/2000/svg" viewBox="0 0 24 24">
  <defs id="defs3051">
    <style type="text/css" id="current-color-scheme">
      .ColorScheme-Text {
        color:#363636;
      }
      </style>
  </defs>
 <path style="fill:currentColor;fill-opacity:1;stroke:none" 
     d="M 4 4 L 4 5 L 20 5 L 20 4 L 4 4 z M 7 6 L 7 7 L 20 7 L 20 6 L 7 6 z M 20 9 L 16 12 L 20 15 L 20 12.75 L 20 12 L 20 11.25 L 20 9 z M 4 10 L 4 11 L 14 11 L 14 10 L 4 10 z M 12 12 L 12 13 L 14 13 L 14 12 L 12 12 z M 4 16 L 4 17 L 20 17 L 20 16 L 4 16 z M 7 18 L 7 19 L 20 19 L 20 18 L 7 18 z M 4 19 L 4 20 L 6 20 L 6 19 L 4 19 z "
     class="ColorScheme-Text"
     />
</svg>
