<svg xmlns="http://www.w3.org/2000/svg" viewBox="0 0 24 24">
  <defs id="defs3051">
    <style type="text/css" id="current-color-scheme">
      .ColorScheme-Text {
        color:#363636;
      }
      .ColorScheme-Highlight {
        color:#3daee9;
      }
      </style>
  </defs>
 <path 
     style="fill:currentColor;fill-opacity:1;stroke:none" 
     d="M 4 10 L 4 13 L 7 13 L 7 10 L 4 10 z M 17 10 L 17 13 L 20 13 L 20 10 L 17 10 z M 5 11 L 6 11 L 6 12 L 5 12 L 5 11 z M 18 11 L 19 11 L 19 12 L 18 12 L 18 11 z "
     class="ColorScheme-Text"
     />
 <path 
     style="fill:currentColor;fill-opacity:1;stroke:none" 
     d="M 10 9 L 10 11 L 7 11 L 7 12 L 10 12 L 10 13 L 14 13 L 14 12 L 17 12 L 17 11 L 14 11 L 14 9 L 10 9 z M 11 10 L 13 10 L 13 12 L 11 12 L 11 10 z "
     class="ColorScheme-Highlight"
     />
</svg>
