<svg width="24" height="24" version="1.1">
  <defs>
    <style id="current-color-scheme" type="text/css">
      .ColorScheme-Text { color:#363636; }
    </style>
  </defs>
 <path d="m4 1c-1.662 0-3 1.338-3 3v16c0 1.662 1.338 3 3 3h16c1.662 0 3-1.338 3-3v-16c0-1.662-1.338-3-3-3zm0 1h16c1.108 0 2 0.892 2 2v16c0 1.108-0.892 2-2 2h-16c-1.108 0-2-0.892-2-2v-16c0-1.108 0.892-2 2-2zm3 2c-0.725 0-1.4567 0.21227-2.0312 0.67187s-0.96875 1.1892-0.96875 2.0781v4a0.5 0.5 0 0 0 0.5 0.5 0.5 0.5 0 0 0 0.5-0.5v-2.25h4v2.25a0.5 0.5 0 0 0 0.5 0.5 0.5 0.5 0 0 0 0.5-0.5v-4c0-0.8889-0.39425-1.6185-0.96875-2.0781-0.5745-0.45965-1.3062-0.67187-2.0312-0.67187zm5 0v13h-2l2.5 3 2.5-3h-2v-13zm6 0v13h-2l2.5 3 2.5-3h-2v-13zm-11 1c0.52495 0 1.0433 0.16272 1.4062 0.45312s0.59375 0.68577 0.59375 1.2969v0.75h-4v-0.75c0-0.61114 0.23085-1.0065 0.59375-1.2969 0.3629-0.29035 0.88125-0.45312 1.4062-0.45312zm-1 7v5h-2l2.5 3 2.5-3h-2v-5z" style="fill:currentColor" class="ColorScheme-Text"/>
</svg>
