<svg xmlns="http://www.w3.org/2000/svg" viewBox="0 0 24 24">
  <defs id="defs3051">
    <style type="text/css" id="current-color-scheme">
      .ColorScheme-Text {
        color:#363636;
      }
      </style>
  </defs>
 <path 
     style="fill:#b3b3b3" 
     d="M 18.96875 8.03125 C 18.981591 8.1033604 19 8.1740888 19 8.25 L 19 15.75 C 19 16.442524 18.442524 17 17.75 17 L 5.25 17 C 5.1740888 17 5.1033604 16.981591 5.03125 16.96875 C 5.1355573 17.554489 5.6333877 18 6.25 18 L 18.75 18 C 19.442524 18 20 17.442524 20 16.75 L 20 9.25 C 20 8.6333877 19.554489 8.1355573 18.96875 8.03125 z "
     />
 <path style="fill:currentColor;fill-opacity:1;stroke:none" 
     d="M 5.25 7 C 4.5574765 7 4 7.5574765 4 8.25 L 4 15.75 C 4 16.442524 4.5574765 17 5.25 17 L 17.75 17 C 18.442524 17 19 16.442524 19 15.75 L 19 8.25 C 19 7.5574765 18.442524 7 17.75 7 L 5.25 7 z M 15 9 L 16 9 L 16 13 L 15 13 L 10 13 L 10 15 L 7 12.5 L 10 10 L 10 12 L 13 12 L 14 12 L 15 12 L 15 9 z "
     class="ColorScheme-Text"
     />
</svg>
