<svg xmlns="http://www.w3.org/2000/svg" viewBox="0 0 24 24">
  <defs id="defs3051">
    <style type="text/css" id="current-color-scheme">
      .ColorScheme-Text {
        color:#363636;
      }
      </style>
  </defs>
 <path style="fill:currentColor;fill-opacity:1;stroke:none" 
     d="M 16.316406 8.609375 L 16.316406 15.265625 L 17.376953 15.265625 L 17.376953 8.609375 L 16.316406 8.609375 z M 6.7148438 9.0175781 L 4 15.265625 L 5.2324219 15.265625 L 5.7988281 13.839844 L 8.4960938 13.839844 L 9.0761719 15.265625 L 10.341797 15.265625 L 7.6582031 9.0175781 L 6.7148438 9.0175781 z M 7.1425781 10.349609 C 7.2313241 10.650209 7.3296245 10.932952 7.4355469 11.199219 L 8.109375 12.882812 L 6.171875 12.882812 L 6.8417969 11.228516 C 6.9534448 10.953715 7.0538324 10.661676 7.1425781 10.349609 z M 13.039062 10.902344 C 12.392079 10.902344 11.845027 11.108245 11.398438 11.517578 C 10.951844 11.924111 10.728516 12.465025 10.728516 13.140625 C 10.728516 13.810558 10.936462 14.352511 11.351562 14.767578 C 11.766666 15.182711 12.313711 15.390625 12.992188 15.390625 C 13.415876 15.390625 13.775449 15.325095 14.070312 15.193359 C 14.368042 15.058826 14.613926 14.879517 14.808594 14.65625 C 15.006125 14.432917 15.142365 14.189115 15.216797 13.925781 C 15.294087 13.659515 15.332031 13.442371 15.332031 13.273438 C 15.332031 12.932771 15.302308 12.661271 15.242188 12.460938 C 15.147718 12.143137 14.995048 11.862474 14.783203 11.619141 C 14.571358 11.375807 14.314262 11.195525 14.013672 11.078125 C 13.715944 10.960792 13.391182 10.902344 13.039062 10.902344 z M 13.039062 11.839844 C 13.442713 11.839844 13.745962 11.968897 13.949219 12.226562 C 14.155337 12.484163 14.257813 12.805979 14.257812 13.195312 C 14.257815 13.418648 14.210612 13.630592 14.113281 13.828125 C 14.015951 14.025658 13.867453 14.181495 13.669922 14.298828 C 13.475254 14.416228 13.252967 14.476564 13.003906 14.476562 C 12.657512 14.476562 12.371599 14.356741 12.142578 14.119141 C 11.916419 13.878674 11.802734 13.560043 11.802734 13.162109 C 11.802734 12.764176 11.91955 12.445545 12.154297 12.205078 C 12.389044 11.961745 12.684081 11.839844 13.039062 11.839844 z M 19.300781 13.917969 C 19.10325 13.917969 18.934288 13.985649 18.796875 14.123047 C 18.662325 14.260447 18.595703 14.426427 18.595703 14.621094 C 18.595703 14.81576 18.665323 14.981741 18.802734 15.119141 C 18.940147 15.253741 19.106113 15.322266 19.300781 15.322266 C 19.492587 15.322266 19.655556 15.252696 19.792969 15.115234 C 19.930381 14.977834 20 14.812894 20 14.621094 C 20 14.426427 19.93038 14.260447 19.792969 14.123047 C 19.658419 13.985647 19.495449 13.917969 19.300781 13.917969 z "
     class="ColorScheme-Text"
     />
</svg>
