<svg id="svg3521" version="1.1" viewBox="0 0 24 24" xmlns="http://www.w3.org/2000/svg">
    <defs id="defs4339">
        <style id="current-color-scheme" type="text/css">.ColorScheme-Text {
        color:#363636;
      }</style>
    </defs><g transform="translate(1,1)">
    <g id="layer1" transform="translate(0 -1030.4)">
        <path id="rect4298" class="ColorScheme-Text" transform="translate(0,1030.4)" d="m8 4v10h1v-8h7v8h1v-10h-9zm-2.9141 10.301-0.707 0.707 1.4141 1.414-1.4141 1.414 0.707 0.707 1.4141-1.414 1.4141 1.414 0.707-0.707-1.4141-1.414 1.4141-1.414-0.707-0.707-1.4141 1.414-1.4141-1.414zm8.0001 0-0.707 0.707 1.414 1.414-1.414 1.414 0.707 0.707 1.414-1.414 1.414 1.414 0.707-0.707-1.414-1.414 1.414-1.414-0.707-0.707-1.414 1.414-1.414-1.414z" fill="currentColor"/>
    </g>
</g></svg>
