<svg xmlns="http://www.w3.org/2000/svg" viewBox="0 0 24 24">
  <defs id="defs3051">
    <style type="text/css" id="current-color-scheme">
      .ColorScheme-Text {
        color:#363636;
      }
      </style>
  </defs><g transform="translate(1,1)">
 <path 
    style="fill:currentColor;fill-opacity:1;stroke:none" 
    d="M 11 3 C 10.51354 4.7025 9.33743 6.17195 8.8125 7.34375 C 8.6288 7.69215 8.5 8.0773 8.5 8.5 C 8.5 9.885 9.615 11 11 11 C 12.385 11 13.5 9.885 13.5 8.5 C 13.5 8.0773 13.40246 7.69215 13.21875 7.34375 C 12.69384 6.17195 11.48645 4.7025 11 3 z M 6.5 11 C 6.01354 12.7025 4.83743 14.17195 4.3125 15.34375 C 4.1288 15.69215 4 16.0773 4 16.5 C 4 17.885 5.115 19 6.5 19 C 7.885 19 9 17.885 9 16.5 C 9 16.0773 8.90246 15.69215 8.71875 15.34375 C 8.19384 14.17195 6.98645 12.7025 6.5 11 z M 15.5 11 C 15.01354 12.7025 13.83743 14.17195 13.3125 15.34375 C 13.1288 15.69215 13 16.0773 13 16.5 C 13 17.885 14.115 19 15.5 19 C 16.885 19 18 17.885 18 16.5 C 18 16.0773 17.90246 15.69215 17.71875 15.34375 C 17.19384 14.17195 15.98645 12.7025 15.5 11 z "
    class="ColorScheme-Text"
    />  
</g></svg>
