<svg version="1.1" viewBox="0 0 24 24" xmlns="http://www.w3.org/2000/svg">
    <defs>
        <style type="text/css" id="current-color-scheme">.ColorScheme-Text {
        color:#363636;
      }</style>
    </defs><g transform="translate(1,1)">
    <path class="ColorScheme-Text" d="m10.579382 18.140844c-3.0576267-0.134796-5.7660567-2.256808-6.6092292-5.178226-0.2163849-0.74973-0.2834733-1.300725-0.2625996-2.156724 0.0275439-1.1295303 0.2530145-2.0200707 0.7624989-3.0116403 1.2102073-2.355331 3.5578872-3.8374181 6.2497289-3.9454452 1.412363-0.056679 2.838517 0.3125982 4.085535 1.0578803 0.857468 0.5124663 1.78735 1.411271 2.329007 2.2511699 0.539549 0.8366309 0.901911 1.7893256 1.059858 2.7864937 0.08218 0.5187936 0.08919 1.5468516 0.01382 2.0260446-0.256089 1.628217-0.939212 2.97083-2.082797 4.093526-1.080964 1.061219-2.426989 1.740793-3.959315 1.998957-0.418001 0.07042-1.051428 0.101551-1.586506 0.07796z" fill="currentColor" fill-opacity=".5"/>
    <path class="ColorScheme-Text" d="m11 3c-4.418278 0-8 3.581722-8 8s3.581722 8 8 8 8-3.581722 8-8-3.581722-8-8-8zm0 1a7 7 0 0 1 7 7 7 7 0 0 1-7 7 7 7 0 0 1-7-7 7 7 0 0 1 7-7zm-3 3.0371094c-0.240631 0-0.285719 0.00835-0.423828 0.076172-0.196744 0.096612-0.372138 0.2720064-0.46875 0.46875-0.06701 0.1364636-0.07617 0.1842797-0.07617 0.4101563 0 0.2199463 0.0093 0.2761342 0.07031 0.40625 0.128242 0.2735029 0.360806 0.4753041 0.640625 0.5546875 0.07193 0.020407 0.204416 0.030031 0.318359 0.023437 0.361715-0.02093 0.657793-0.2206576 0.820312-0.5507813 0.08009-0.1626882 0.08789-0.1989581 0.08789-0.4335937 0-0.2264971-0.0091-0.27362-0.07617-0.4101563-0.09661-0.1967436-0.272006-0.3721379-0.46875-0.46875-0.138109-0.0678186-0.183197-0.0761715-0.423828-0.0761715zm6 0c-0.240632 0-0.28572 0.00835-0.423828 0.076172-0.196744 0.096612-0.37214 0.2720064-0.46875 0.46875-0.06703 0.1364636-0.07617 0.1842797-0.07617 0.4101563 0 0.2199463 0.0093 0.2761342 0.07031 0.40625 0.128242 0.2735029 0.360807 0.4753041 0.640626 0.5546875 0.07193 0.020406 0.204415 0.030027 0.318359 0.023437 0.361715-0.02093 0.657792-0.2206576 0.820312-0.5507813 0.08014-0.1626882 0.08789-0.1989581 0.08789-0.4335937 0-0.2264971-0.0091-0.27362-0.07617-0.4101563-0.09661-0.1967436-0.272006-0.3721379-0.46875-0.46875-0.13811-0.0678186-0.183198-0.0761715-0.423829-0.0761715zm-6.822266 5.9863286 0.01758 0.07422c0.0098 0.04069 0.05244 0.166157 0.09375 0.279297 0.493965 1.353051 1.696757 2.345003 3.105469 2.5625 1.031171 0.159206 2.141757-0.114951 2.958985-0.732422 0.351957-0.265927 0.742778-0.689066 0.988281-1.070312 0.162933-0.253023 0.40294-0.790858 0.462891-1.039063l0.01758-0.07422h-3.82227z" fill="currentColor"/>
</g></svg>
