<svg xmlns="http://www.w3.org/2000/svg" viewBox="0 0 24 24">
  <defs id="defs3051">
    <style type="text/css" id="current-color-scheme">
      .ColorScheme-Text {
        color:#363636;
      }
      </style>
  </defs>
  <path
     style="fill:currentColor;fill-opacity:1;stroke:none" 
     d="M 4.7070312 4 C 5.1604012 4.0923 5.5 4.4912263 5.5 4.9726562 C 5.5 5.2614563 5.3751475 5.5181287 5.1796875 5.6992188 C 5.0702975 5.5696287 5.0039062 5.4043731 5.0039062 5.2207031 C 5.0039062 5.1803431 5.005626 5.1425171 5.015625 5.1035156 C 4.712915 5.2733656 4.5078125 5.5917337 4.5078125 5.9648438 C 4.5078125 6.5151337 4.94971 6.9589844 5.5 6.9589844 C 6.05008 6.9589844 6.4941406 6.5151337 6.4941406 5.9648438 C 6.4941404 4.9333338 5.7110213 4.10135 4.7070312 4 z M 8.7070312 4 C 9.1604013 4.0923 9.5 4.4912263 9.5 4.9726562 C 9.5 5.2614563 9.3751485 5.5181287 9.1796875 5.6992188 C 9.0702975 5.5696287 9.0039062 5.4043731 9.0039062 5.2207031 C 9.0039062 5.1803431 9.005626 5.1425171 9.015625 5.1035156 C 8.712915 5.2733656 8.5078125 5.5917337 8.5078125 5.9648438 C 8.5078125 6.5151337 8.949709 6.9589844 9.5 6.9589844 C 10.05008 6.9589844 10.494141 6.5151338 10.494141 5.9648438 C 10.494141 4.9333338 9.7110213 4.10135 8.7070312 4 z M 13.707031 4 C 14.160401 4.0923 14.5 4.4912263 14.5 4.9726562 C 14.5 5.2614564 14.375146 5.5181288 14.179688 5.6992188 C 14.070296 5.5696287 14.003906 5.4043731 14.003906 5.2207031 C 14.003906 5.1803431 14.005605 5.1425171 14.015625 5.1035156 C 13.712915 5.2733656 13.507815 5.5917336 13.507812 5.9648438 C 13.507812 6.5151338 13.94971 6.9589844 14.5 6.9589844 C 15.05008 6.9589844 15.494141 6.5151338 15.494141 5.9648438 C 15.494141 4.9333338 14.711021 4.10135 13.707031 4 z M 17.707031 4 C 18.160401 4.0923 18.5 4.4912263 18.5 4.9726562 C 18.5 5.2614564 18.375146 5.5181288 18.179688 5.6992188 C 18.070297 5.5696287 18.003906 5.4043731 18.003906 5.2207031 C 18.003906 5.1803431 18.005605 5.1425171 18.015625 5.1035156 C 17.712915 5.2733656 17.507812 5.5917336 17.507812 5.9648438 C 17.507812 6.5151337 17.94971 6.9589844 18.5 6.9589844 C 19.05008 6.9589844 19.494141 6.5151337 19.494141 5.9648438 C 19.494141 4.9333338 18.711021 4.10135 17.707031 4 z M 5 8 L 5 10 L 4 10 L 4 11 L 4 15 L 4 16 L 4 19 L 4 20 L 20 20 L 20 19 L 20 16 L 20 15 L 20 11 L 20 10 L 19 10 L 19 8 L 18 8 L 18 10 L 15 10 L 15 8 L 14 8 L 14 10 L 10 10 L 10 8 L 9 8 L 9 10 L 6 10 L 6 8 L 5 8 z M 5 11 L 19 11 L 19 15 L 18.455078 15 C 17.095248 15 16 13.904752 16 12.544922 L 16 12 L 15 12 L 15 12.544922 C 15 13.904752 13.904752 15 12.544922 15 L 11.455078 15 C 10.095248 15 9 13.904752 9 12.544922 L 9 12 L 8 12 L 8 12.544922 C 8 13.904753 6.9047529 15 5.5449219 15 L 5 15 L 5 11 z M 8.5 14.658203 C 9.036219 15.467346 9.952476 16 11 16 L 13 16 C 14.04752 16 14.96378 15.467353 15.5 14.658203 C 16.03622 15.467353 16.95248 16 18 16 L 19 16 L 19 17 L 5 17 L 5 16 L 6 16 C 7.047521 16 7.963781 15.467346 8.5 14.658203 z M 5 18 L 19 18 L 19 19 L 5 19 L 5 18 z "
     class="ColorScheme-Text"
     />
</svg>
