<?xml version="1.0" encoding="UTF-8" standalone="no"?>
<!-- Created with Inkscape (http://www.inkscape.org/) -->

<svg
   width="22"
   height="22"
   viewBox="0 0 5.8208332 5.8208335"
   version="1.1"
   id="svg5"
   inkscape:version="1.1.1 (3bf5ae0d25, 2021-09-20, custom)"
   sodipodi:docname="audio-volume-muted-panel.svg"
   xmlns:inkscape="http://www.inkscape.org/namespaces/inkscape"
   xmlns:sodipodi="http://sodipodi.sourceforge.net/DTD/sodipodi-0.dtd"
   xmlns="http://www.w3.org/2000/svg"
   xmlns:svg="http://www.w3.org/2000/svg">
  <sodipodi:namedview
     id="namedview7"
     pagecolor="#ffffff"
     bordercolor="#666666"
     borderopacity="1.0"
     inkscape:pageshadow="2"
     inkscape:pageopacity="0.0"
     inkscape:pagecheckerboard="0"
     inkscape:document-units="px"
     showgrid="false"
     units="px"
     width="22px"
     inkscape:zoom="12.04041"
     inkscape:cx="-4.028102"
     inkscape:cy="15.323398"
     inkscape:window-width="1920"
     inkscape:window-height="999"
     inkscape:window-x="0"
     inkscape:window-y="0"
     inkscape:window-maximized="1"
     inkscape:current-layer="svg5" />
  <defs
     id="defs2" />
  <path
     id="rect846"
     class="error"
     style="fill:#d33636;fill-opacity:1;stroke:none;stroke-width:0.999999;stroke-linejoin:round"
     d="M 9.9960938,3 C 9.7305555,3.001085 9.4757761,3.1080241 9.2890625,3.296875 L 6.75,5.8359375 11,10.085938 V 3.9980469 C 10.998532,3.5936567 10.753058,3.2294212 10.378906,3.0761719 10.257038,3.0256649 10.128009,2.999745 9.9960938,3 Z M 1.6916875,2.4489454 C 1.5690723,2.4484665 1.4551144,2.490206 1.3694219,2.5758985 1.1735534,2.771767 1.2081702,3.1216415 1.4475469,3.3610547 L 5.0859375,7 H 2 C 1.446,7 1,7.4460003 1,8 v 6 c 0,0.554 0.446,1 1,1 h 3.5957031 l 3.6933594,3.699219 C 9.9180904,19.338513 11.004954,18.891089 11,17.994141 v -5.080079 l 6.138672,6.138672 c 0.239395,0.239395 0.591241,0.273994 0.787109,0.07813 0.195869,-0.195868 0.159317,-0.545761 -0.08008,-0.785156 L 11,11.5 6.0429688,6.5429688 2.1545782,2.6540235 C 2.0199281,2.5193542 1.8493358,2.449561 1.6916875,2.4489454 Z"
     transform="scale(0.26458333)"
     sodipodi:nodetypes="cccccccssscssssccccsssccss" />
</svg>
