<svg width="22" height="22" version="1.1" xmlns="http://www.w3.org/2000/svg">
 <defs>
  <style id="current-color-scheme" type="text/css">
   .ColorScheme-Text { color:#363636; } .ColorScheme-Highlight { color:#4285f4; }
  </style>
 </defs>
 <g transform="translate(-1 .013)" class="ColorScheme-Text" fill="currentColor">
  <g transform="translate(4,3.009)" paint-order="stroke fill markers">
   <path d="m8 3c-2.84 0-5.432 1.007-7.486 2.658a0.5 0.5 0 0 0-0.096 0.072 0.5 0.5 0 0 0-0.154 0.36 0.5 0.5 0 0 0 0.5 0.5 0.5 0.5 0 0 0 0.318-0.113 10.919 10.919 0 0 1 6.918-2.477c2.628 0 5.027 0.938 6.918 2.477a0.5 0.5 0 0 0 0.318 0.113 0.5 0.5 0 0 0 0.5-0.5 0.5 0.5 0 0 0-0.154-0.36 0.5 0.5 0 0 0-0.096-0.072c-2.053-1.65-4.645-2.658-7.486-2.658zm0 3-0.045 2e-3a2 2 0 0 1 0.09 0zm-0.074 4e-3a8.817 8.817 0 0 0-3.399 0.71 2 2 0 0 1 0.432 0.9 7.87 7.87 0 0 1 1.201-0.391 2 2 0 0 1 0.365-0.575 2 2 0 0 1 1.4-0.644zm0.18 0a2 2 0 0 1 1.24 0.517l0.02 0.018a2 2 0 0 1 0.472 0.684c0.415 0.099 0.816 0.229 1.203 0.39a2 2 0 0 1 0.43-0.9 8.82 8.82 0 0 0-3.366-0.71zm-1.676 3.232a6.102 6.102 0 0 0-2.016 0.989 0.507 0.507 0 0 0-0.168 0.384 0.5 0.5 0 0 0 0.836 0.37c0.822-0.605 1.82-0.979 2.918-0.979s2.096 0.375 2.918 0.978a0.5 0.5 0 0 0 0.836-0.369 0.507 0.507 0 0 0-0.168-0.384 6.102 6.102 0 0 0-2.016-0.989 2 2 0 0 1-0.105 0.125 2 2 0 0 1-2.82 0.11 2 2 0 0 1-0.215-0.235z"/>
   <circle cx="8" cy="13" r="1"/>
  </g>
  <path d="m7.683 10.278a1 1 0 0 1 0.05 1.411 1 1 0 0 1-1.411 0.055 1 1 0 0 1-0.06-1.411 1 1 0 0 1 1.411-0.064m5.01 9e-3a1 1 0 0 1 0.05 1.411 1 1 0 0 1-1.411 0.055 1 1 0 0 1-0.06-1.411 1 1 0 0 1 1.411-0.064m5.01 9e-3a1 1 0 0 1 0.05 1.411 1 1 0 0 1-1.41 0.055 1 1 0 0 1-0.06-1.411 1 1 0 0 1 1.41-0.064" opacity=".35"/>
 </g>
</svg>
