<svg width="22" height="22" version="1.1" xmlns="http://www.w3.org/2000/svg">
 <defs>
  <style id="current-color-scheme" type="text/css">
   .ColorScheme-Text { color:#363636; } .ColorScheme-Highlight { color:#4285f4; }
  </style>
 </defs>
 <g transform="translate(-1,-1)" class="ColorScheme-Text" fill="currentColor">
  <g transform="translate(4,3)" opacity=".35">
   <path d="m8 3c-2.84 0-5.432 1.007-7.486 2.658a0.5 0.5 0 0 0-0.096 0.072 0.5 0.5 0 0 0-0.154 0.36 0.5 0.5 0 0 0 0.5 0.5 0.5 0.5 0 0 0 0.318-0.113 10.919 10.919 0 0 1 6.918-2.477c2.628 0 5.027 0.938 6.918 2.477a0.5 0.5 0 0 0 0.318 0.113 0.5 0.5 0 0 0 0.5-0.5 0.5 0.5 0 0 0-0.154-0.36 0.5 0.5 0 0 0-0.096-0.072c-2.053-1.65-4.645-2.658-7.486-2.658z" fill-rule="evenodd" paint-order="stroke fill markers"/>
   <path d="M 8,9 C 6.647,9 5.417,9.469 4.414,10.225 a 0.507,0.507 0 0 0 -0.168,0.384 0.5,0.5 0 0 0 0.836,0.37 C 5.904,10.375 6.902,10 8,10 c 0.926,0 1.772,0.278 2.51,0.723 0.144,-0.31 0.328,-0.592 0.55,-0.836 C 10.164,9.34 9.13,9 8,9 Z"/>
   <path d="m8 6a8.918 8.918 0 0 0-5.488 1.897 0.5 0.5 0 0 0-0.102 0.074 0.5 0.5 0 0 0-0.156 0.361 0.5 0.5 0 0 0 0.5 0.5 0.5 0.5 0 0 0 0.32-0.115 7.936 7.936 0 0 1 4.926-1.717c1.863 0 3.567 0.648 4.926 1.717a0.5 0.5 0 0 0 0.32 0.115 0.5 0.5 0 0 0 0.5-0.5 0.5 0.5 0 0 0-0.156-0.361 0.5 0.5 0 0 0-0.102-0.075 8.919 8.919 0 0 0-5.488-1.896z" fill-rule="evenodd" paint-order="stroke fill markers"/>
   <circle cx="8" cy="13" r="1" fill-rule="evenodd" paint-order="stroke fill markers"/>
  </g>
  <path d="m17 13c-1.108 0-2 0.892-2 2-0.554 0-1 0.446-1 1v2c0 0.554 0.446 1 1 1h4c0.554 0 1-0.446 1-1v-2c0-0.554-0.446-1-1-1 0-1.108-0.892-2-2-2zm0 1c0.554 0 1 0.446 1 1h-2c0-0.554 0.446-1 1-1z" fill-rule="evenodd"/>
 </g>
</svg>
