<svg width="16" height="16" version="1.1" viewBox="0 0 16 16" xmlns="http://www.w3.org/2000/svg">
 <defs>
  <style id="current-color-scheme" type="text/css">.ColorScheme-Text { color:#727272; } .ColorScheme-Highlight { color:#7e57c2; }</style>
 </defs>
 <path style="fill:currentColor" class="ColorScheme-Text" d="m7.5977 2c-2.298 0.0017291-4.388 1.2684-5.3848 3.2969-1.2627 0.89507-2.2112 2.1952-2.2129 3.791v0.0019532 0.0019531c2.1142e-7 2.7956 2.4493 4.9082 5.1992 4.9082h0.0019531 0.0019531c0.94394-0.0016 1.8325-0.3117 2.6445-0.77539 0.49661-0.02045 0.97065-0.16224 1.4473-0.29688 0.49684 0.14506 0.9831 0.34533 1.5039 0.3457h0.001953c2.7499 0 5.1992-2.1145 5.1992-4.9102 0-2.5209-2.016-4.3996-4.4238-4.7617-1.1119-0.96455-2.4738-1.5994-3.9727-1.6016h-0.0019531-0.0039063zm0.0019532 2a4 3.6364 0 0 1 3.1934 1.4551 3.2 2.9091 0 0 1 0.007812 0 3.2 2.9091 0 0 1 3.1992 2.9082 3.2 2.9091 0 0 1-3.1992 2.9102 3.2 2.9091 0 0 1-1.5098-0.3457 4 3.6364 0 0 1-1.6914 0.3457 4 3.6364 0 0 1-0.27344-0.013672 3.2 2.9091 0 0 1-2.127 0.74023 3.2 2.9091 0 0 1-3.1992-2.9082 3.2 2.9091 0 0 1 1.8145-2.6211 4 3.6364 0 0 1 3.7852-2.4707z"/>
</svg>
