<svg width="16" height="16" version="1.1" xmlns="http://www.w3.org/2000/svg">
 <defs>
  <style id="current-color-scheme" type="text/css">.ColorScheme-Text { color:#727272; } .ColorScheme-Highlight { color:#7e57c2; }</style>
 </defs>
 <path style="fill:currentColor" class="ColorScheme-Text" d="m8.0059 0.29297a2.0002 2.0002 0 0 0-1.8711 1.2813l-1.125 2.9141-3.1152 0.16602a2.0002 2.0002 0 0 0-1.1562 3.5469l2.4238 1.9746-0.80078 3.0195a2.0002 2.0002 0 0 0 3.0215 2.1914l2.6172-1.6953 2.6172 1.6953a2.0002 2.0002 0 0 0 3.0215-2.1914l-0.80078-3.0195 2.4238-1.9746a2.0002 2.0002 0 0 0-1.1562-3.5469l-3.1152-0.16602-1.125-2.9141a2.0002 2.0002 0 0 0-1.8594-1.2813zm-0.0058594 2 1.5898 4.125 4.4102 0.23242-3.4277 2.7891 1.1328 4.2676-3.7051-2.3984-3.7051 2.3984 1.1328-4.2676-3.4277-2.7891 4.4102-0.23242 1.5898-4.125z"/>
</svg>
