<svg width="16" height="16" version="1.1" viewBox="0 0 16 16" xmlns="http://www.w3.org/2000/svg">
 <defs>
  <style id="current-color-scheme" type="text/css">.ColorScheme-Text { color:#727272; } .ColorScheme-Highlight { color:#7e57c2; }</style>
 </defs>
 <path class="ColorScheme-Text" style="fill:currentColor" d="m6.502 1a1.0001 1.0001 0 0 0-0.99609 0.91602l-0.089844 1.0762c-0.15675 0.08122-0.30847 0.16829-0.45703 0.26367l-0.97656-0.45898a1.0001 1.0001 0 0 0-1.291 0.4043l-1.5 2.5977a1.0001 1.0001 0 0 0 0.29492 1.3223l0.83008 0.57617c-0.0055498 0.099388-0.026998 0.19726-0.027344 0.29688a1.0001 1.0001 0 0 0 0 0.0039063c2.21e-5 0.10206 0.019909 0.20285 0.025391 0.30469l-0.82812 0.57422a1.0001 1.0001 0 0 0-0.29492 1.3223l1.5 2.5977a1.0001 1.0001 0 0 0 1.291 0.4043l0.97656-0.45898c0.1482 0.094299 0.29882 0.18146 0.45508 0.26172l0.087891 1.0762a1.0001 1.0001 0 0 0 0.99609 0.91992h3a1.0001 1.0001 0 0 0 0.99609-0.91602l0.089843-1.0762c0.15675-0.08122 0.30847-0.16829 0.45703-0.26367l0.97656 0.45898a1.0001 1.0001 0 0 0 1.291-0.4043l1.5-2.5977a1.0001 1.0001 0 0 0-0.29492-1.3223l-0.83008-0.57617c0.0055-0.099388 0.027003-0.19726 0.027344-0.29688a1.0001 1.0001 0 0 0 0-0.0019532 1.0001 1.0001 0 0 0 0-0.0019531c-2.4e-5 -0.10206-0.019911-0.20285-0.025391-0.30469l0.82812-0.57422a1.0001 1.0001 0 0 0 0.29492-1.3223l-1.5-2.5977a1.0001 1.0001 0 0 0-1.291-0.4043l-0.97656 0.45898c-0.1482-0.094304-0.29883-0.18146-0.45508-0.26172l-0.087891-1.0762a1.0001 1.0001 0 0 0-0.99609-0.91992h-3zm0.91992 2h1.1582l0.083984 1.0508a4 4 0 0 1 2.4414 1.3867l0.93164-0.4375 0.58008 1.0039-0.83984 0.58203a4 4 0 0 1 0.25976 1.4141 4 4 0 0 1-0.26758 1.4102l0.84766 0.58789-0.58008 1.0039-0.93359-0.43945a4 4 0 0 1-2.4355 1.3828l-0.089844 1.0547h-1.1582l-0.085938-1.0703a4 4 0 0 1-2.3828-1.3945l-0.98828 0.46484-0.58008-1.0039 0.90625-0.62695a4 4 0 0 1-0.25195-1.3691 4 4 0 0 1 0.25195-1.3691l-0.90625-0.62891 0.58008-1.0039 0.98828 0.46484a4 4 0 0 1 2.3809-1.3926l0.089844-1.0703zm0.61523 2a3 3 0 0 0-3 3 3 3 0 0 0 3 3 3 3 0 0 0 3-3 3 3 0 0 0-3-3zm-0.037109 2c0.56413 0 1 0.43587 1 1s-0.43587 1-1 1-1-0.43587-1-1 0.43587-1 1-1z"/>
</svg>
