<svg width="16" height="16" version="1.1" xmlns="http://www.w3.org/2000/svg" xmlns:osb="http://www.openswatchbook.org/uri/2009/osb">
 <g transform="translate(-41 -867)" fill="#dedede">
  <g>
   <rect transform="scale(-1,1)" x="-49" y="875" width="6" height="1" color="#000000" enable-background="new"/>
   <rect transform="scale(-1,1)" x="-49" y="880" width="6" height="1" color="#000000" enable-background="new"/>
   <rect transform="scale(-1,1)" x="-49" y="870" width="6" height="1" color="#000000" enable-background="new"/>
  </g>
  <g>
   <g transform="matrix(1.3334 0 0 1.0799 -.58324 -174)" color="#dedede" aria-label="1">
    <path d="m39.196 968.56v-0.54427h0.90885v-2.5026l-0.88021 0.54948v-0.57552l0.91927-0.59635h0.69271v3.125h0.84115v0.54427z" fill="#dedede" stroke-width=".056887"/>
   </g>
   <g transform="matrix(1.3159 0 0 1.0943 -.58324 -175)" color="#dedede" aria-label="2">
    <path d="m39.671 961.39v-0.50782q0.14323-0.3151 0.40625-0.61458 0.26562-0.29948 0.66667-0.625 0.38542-0.3125 0.53906-0.51563 0.15625-0.20312 0.15625-0.39843 0-0.47917-0.48177-0.47917-0.23438 0-0.35938 0.1276-0.1224 0.125-0.15885 0.37761l-0.73698-0.0417q0.0625-0.51041 0.38021-0.77864 0.32031-0.26823 0.86979-0.26823 0.59375 0 0.91146 0.27083 0.31771 0.27083 0.31771 0.76042 0 0.25781-0.10156 0.46614-0.10156 0.20834-0.26042 0.38542-0.15886 0.17448-0.35417 0.32812-0.19271 0.15365-0.375 0.29948-0.18229 0.14584-0.33333 0.29427-0.14844 0.14844-0.22135 0.31771h1.7031v0.60157z" fill="#dedede" stroke-width=".12313"/>
   </g>
   <g transform="matrix(1.265 0 0 1.1383 -.58324 -176)" color="#dedede" aria-label="3">
    <path d="m43.938 928.47q0 0.51563-0.33854 0.79688-0.33854 0.28125-0.96354 0.28125-0.59115 0-0.9401-0.27083-0.34896-0.27344-0.40885-0.78646l0.74479-0.0651q0.07031 0.52865 0.60156 0.52865 0.26302 0 0.40885-0.13021t0.14583-0.39844q0-0.24479-0.17708-0.375-0.17708-0.1302-0.52604-0.1302h-0.25521v-0.59115h0.23958q0.3151 0 0.47396-0.1276 0.15885-0.13021 0.15885-0.3698 0-0.22656-0.1276-0.35416-0.125-0.13021-0.36719-0.13021-0.22656 0-0.36719 0.125-0.13802 0.125-0.15885 0.35417l-0.73177-0.0521q0.05729-0.47396 0.39323-0.74219 0.33594-0.26822 0.8776-0.26822 0.57552 0 0.89844 0.26041 0.32552 0.25781 0.32552 0.71615 0 0.34375-0.20312 0.5651-0.20052 0.22136-0.58073 0.29427v0.0104q0.42188 0.0495 0.64844 0.27865 0.22917 0.22656 0.22917 0.58072z" fill="#dedede" stroke-width=".12352"/>
   </g>
  </g>
 </g>
</svg>
