<svg width="16" height="16" version="1.1" xmlns="http://www.w3.org/2000/svg" xmlns:osb="http://www.openswatchbook.org/uri/2009/osb">
 <g transform="translate(-72,-540)">
  <path d="m80 540c-4.4138 0-8 3.5865-8 8s3.5862 8 8 8 8-3.5865 8-8-3.5862-8-8-8zm-0.0391 1.002-0.0215 0.61719 0.91602 0.13672 0.61719-0.59766c0.61182 0.13138 1.1912 0.34494 1.7324 0.625l-0.21485 0.34571 0.60938 0.54101-0.60938 0.50977 0.23829 0.60937 1.3555-0.64453 0.84766 0.64453 0.0449-0.13867c0.184 0.23127 0.34988 0.47679 0.50391 0.73047l-0.85547 0.1543-0.50781-0.54297-1.5586 0.10156-0.94921 1.4922 0.64453 1.5918 2.1016 0.64454 0.40625 2.4746 0.50781 1.2871 0.35742-0.20312c-1.1938 2.1559-3.4911 3.6191-6.1269 3.6191-3.862 0-7-3.1382-7-7 0-0.8121 0.14531-1.5888 0.40039-2.3144l0.0332 0.13672 1.084 0.30468 1.4238 1.0508 0.0332 1.5254 0.91601 1.2539 0.54102 3.3906 0.98242 0.60937-0.26953-1.2539 1.6602-2.3047 0.71093-1.5586-1.6602-1.5605-1.7969-0.84571-0.74414 0.43946-0.88281-1.3223-0.50781 0.23828-0.43945-0.74609 0.77929-0.40625 0.74414 0.43945 1.2891-1.5918 1.8633-1.1523-0.50782-0.94922-1.5254 0.54297-0.18945-0.21094c0.91545-0.44771 1.9383-0.70687 3.0234-0.71289z" fill="#dedede"/>
 </g>
</svg>
