<svg width="16" height="15.974" enable-background="new" version="1.1" xmlns="http://www.w3.org/2000/svg">
 <path d="m14.706 1.2591a0.50005 0.50005 0 0 0-0.02486-0.022097 0.50005 0.50005 0 0 0-0.04834-0.034527 0.50005 0.50005 0 0 0-0.01243-0.00691 0.50005 0.50005 0 0 0-0.03729-0.020716 0.50005 0.50005 0 0 0-0.03038-0.013811 0.50005 0.50005 0 0 0-0.04696-0.016573 0.50005 0.50005 0 0 0-0.01657-0.00552 0.50005 0.50005 0 0 0-0.03729-0.00691 0.50005 0.50005 0 0 0-0.01105-0.00276 0.50005 0.50005 0 0 0-0.03315-0.00276 0.50005 0.50005 0 0 0-0.04972-0.00276 0.50005 0.50005 0 0 0-0.03315 0.00276 0.50005 0.50005 0 0 0-0.01657 0 0.50005 0.50005 0 0 0-0.01657 0.00276 0.50005 0.50005 0 0 0-0.03314 0.00552 0.50005 0.50005 0 0 0-0.04281 0.00967 0.50005 0.50005 0 0 0-0.0097 0.00414 0.50005 0.50005 0 0 0-0.01243 0.00414 0.50005 0.50005 0 0 0-0.029 0.01243 0.50005 0.50005 0 0 0-0.0041 0.00138l-12.728 5.6569a0.50005 0.50005 0 0 0 0.00691 0.91565l4.7661 2.0426 2.0426 4.7661a0.50005 0.50005 0 0 0 0.91565 0.0069l5.643-12.698a0.50005 0.50005 0 0 0 0.04557-0.12568 0.50005 0.50005 0 0 0 0.0028-0.016573 0.50005 0.50005 0 0 0 0.0041-0.031765 0.50005 0.50005 0 0 0 0.0041-0.042813 0.50005 0.50005 0 0 0 0-0.00829 0.50005 0.50005 0 0 0 0-0.016573 0.50005 0.50005 0 0 0-0.0014-0.031764 0.50005 0.50005 0 0 0-0.0014-0.017954 0.50005 0.50005 0 0 0-0.0055-0.033146 0.50005 0.50005 0 0 0-0.0041-0.015192 0.50005 0.50005 0 0 0-0.0069-0.031765 0.50005 0.50005 0 0 0-0.0055-0.016573 0.50005 0.50005 0 0 0-0.01105-0.030384 0.50005 0.50005 0 0 0-0.02072-0.045575 0.50005 0.50005 0 0 0-0.01657-0.030383 0.50005 0.50005 0 0 0-0.0083-0.013811 0.50005 0.50005 0 0 0-0.0097-0.01243 0.50005 0.50005 0 0 0-0.03177-0.040051 0.50005 0.50005 0 0 0-0.03453-0.037289zm-2.6006 1.9155-5.6334 5.6334-3.5853-1.5357zm0.70711 0.70711-4.0976 9.2186-1.5357-3.5853z" color="#000000" color-rendering="auto" dominant-baseline="auto" enable-background="accumulate" fill="#dedede" image-rendering="auto" shape-rendering="auto" solid-color="#000000" style="font-feature-settings:normal;font-variant-alternates:normal;font-variant-caps:normal;font-variant-ligatures:normal;font-variant-numeric:normal;font-variant-position:normal;isolation:auto;mix-blend-mode:normal;shape-padding:0;text-decoration-color:#000000;text-decoration-line:none;text-decoration-style:solid;text-indent:0;text-orientation:mixed;text-transform:none;white-space:normal"/>
</svg>
