<svg version="1.1" viewBox="0 0 16 16" xmlns="http://www.w3.org/2000/svg">
 <defs>
  <style id="current-color-scheme" type="text/css">.ColorScheme-Text {
        color:#dedede;
      }</style>
 </defs>
 <path d="m4 2c-1.108 0-2 0.892-2 2v3.0391c0.064835-0.010837 0.1234-0.039062 0.19141-0.039062h0.80859v-3c0-0.554 0.446-1 1-1h9l-2.5352 2.5352 0.70703 0.70703 3.5352-3.5352-0.70703-0.70703zm10 6.9609c-0.064835 0.010837-0.1234 0.039062-0.19141 0.039062h-0.80859v3c0 0.554-0.446 1-1 1h-9l2.5352-2.5352-0.70703-0.70703-3.5352 3.5352 0.70703 0.70703h10c1.108 0 2-0.892 2-2z" fill="#dedede"/>
 <path d="m7 5v1h1v4h-1v1h1 1 1v-1h-1v-5h-1-1z" fill="#dedede"/>
</svg>
