<svg version="1.1" viewBox="0 0 16 16" xmlns="http://www.w3.org/2000/svg">
 <defs>
  <style id="current-color-scheme" type="text/css">.ColorScheme-Text {
        color:#dedede;
      }</style>
 </defs>
 <path d="m4.1211 2 1 1h7.8789l-2.5352 2.5352 0.70703 0.70703 3.5352-3.5352-0.70703-0.70703h-9.8789zm-1.1328 0.28125c-0.58954 0.34713-0.98828 0.98238-0.98828 1.7188v3.0391c0.064835-0.010837 0.1234-0.039062 0.19141-0.039062h0.80859v-3c0-0.46744 0.32386-0.84054 0.75586-0.95117l-0.76758-0.76758zm11.012 6.6797c-0.064835 0.010837-0.1234 0.039062-0.19141 0.039062h-0.80859v1.8789l1 1v-2.918zm-9.1719 0.79688-3.5352 3.5352 0.70703 0.70703h10c0.73637 0 1.3716-0.39874 1.7188-0.98828l-0.76758-0.76758c-0.11064 0.432-0.48374 0.75586-0.95117 0.75586h-9l2.5352-2.5352-0.70703-0.70703z" fill="#dedede"/>
 <rect transform="rotate(45)" x="1.3137" y="-.5" width="20" height="1" ry="0" fill="#dedede"/>
</svg>
