<svg version="1.1" viewBox="0 0 16 16" xmlns="http://www.w3.org/2000/svg">
 <defs>
  <style id="current-color-scheme" type="text/css">.ColorScheme-Text {
        color:#dedede;
      }</style>
 </defs>
 <g fill="#dedede">
  <rect x="10" y="3" width="2.0118" height="10" rx="1.0059" ry="1.0059" stroke-width="1.8311"/>
  <rect x="14" y="3" width="2" height="10" rx="1" ry="1" stroke-width="1.8257"/>
  <path d="m1.8812 3.0087c-0.2513 0.031145-0.45989 0.14032-0.62812 0.32931-0.16823 0.18899-0.25308 0.41133-0.25308 0.66471v7.9948c0 0.25338 0.084865 0.47572 0.25308 0.66471 0.16823 0.18899 0.37685 0.29815 0.62812 0.32931 0.2513 0.03116 0.47935-0.0244 0.68911-0.1677l5.7994-3.9973c0.18484-0.12669 0.31359-0.29945 0.38419-0.5092 0.070627-0.21183 0.070627-0.42139 0-0.63118-0.070627-0.20976-0.19836-0.38045-0.38114-0.5092l-5.8025-4.0005c-0.20907-0.14538-0.4385-0.19955-0.68911-0.1677z" stroke-width="1.5611"/>
 </g>
</svg>
