<svg width="16" height="16" version="1.1" xmlns="http://www.w3.org/2000/svg">
 
 <g fill="#dedede">
  <path d="m3 6c-1.108 0-2 0.892-2 2v5c0 1.108 0.892 2 2 2h9c1.108 0 2-0.892 2-2v-5c0-1.108-0.892-2-2-2h-9zm0 1h9c0.554 0 1 0.446 1 1v5c0 0.554-0.446 1-1 1h-9c-0.554 0-1-0.446-1-1v-5c0-0.554 0.446-1 1-1z"/>
  <path d="m7 8h1v4h1v1h-3v-1h1v-3h-1v-1z" color="#dedede"/>
  <path d="m7.5 0c-1.939 0-3.5 1.561-3.5 3.5v2.5h1v-2.5c0-1.385 1.115-2.5 2.5-2.5s2.5 1.115 2.5 2.5v0.5h1v-0.5c0-1.939-1.561-3.5-3.5-3.5z"/>
 </g>
</svg>
