<svg width="16" height="16" version="1.1" xmlns="http://www.w3.org/2000/svg">
 <defs>
  <style id="current-color-scheme" type="text/css">.ColorScheme-Text { color:#555555; } .ColorScheme-Highlight { color:#4285f4; }</style>
 </defs>
 <path d="m14 1v7l-7 7-7-7 7-7zm-1 1h-5.562l-6 6 5.562 5.563 6-6v-3.563zm-2 1a1 1 0 1 0 0 2 1 1 0 0 0 0-2z" fill="#dedede"/>
 <path d="m14.117 3.988a2.507 2.507 0 0 0-1.126-0.737c-0.584-0.187-1.248-0.118-1.849 0.302a0.52 0.52 0 0 0-0.128 0.7 0.52 0.52 0 0 0 0.702 0.12c0.368-0.258 0.675-0.264 0.993-0.162 0.319 0.102 0.627 0.372 0.84 0.71 0.213 0.337 0.324 0.73 0.277 1.103-0.047 0.372-0.21 0.719-0.653 1.029-1.773 1.242-2.035 3.212-1.12 4.447 0.51 0.689 1.358 1.11 2.365 1.09l0.497-1.034c-0.966 0.217-1.674-0.132-2.061-0.655-0.572-0.773-0.532-2.032 0.893-3.03a2.503 2.503 0 0 0 1.07-1.74c0.08-0.637-0.107-1.245-0.43-1.759-0.082-0.128-0.17-0.27-0.27-0.384zm1.614 7.263c-0.081 0.04-0.162 0.06-0.24 0.092l-0.545 1.183c0.066-0.01 0.14-0.016 0.207-0.03zm-0.412 0.174c-0.086 0.032-0.176 0.044-0.258 0.067l-0.505 1.078c0.077-4e-3 0.148 4e-3 0.226-5e-3z" color="#000000" fill="#dedede" font-family="Sans" font-weight="400" overflow="visible" style="text-decoration-line:none;text-indent:0;text-transform:none"/>
</svg>
