<svg height="16" width="16" xmlns="http://www.w3.org/2000/svg">
    <path d="M11.5.416a44.122 44.122 0 0 0-1.334 2.26c-.43.788-.818 1.562-1.166 2.322h2V13h1V5h2a43.07 43.07 0 0 0-1.18-2.324A50.17 50.17 0 0 0 11.5.416zM3 2v3h3V2zm1 1h1v1H4zM3 6v3h3V6zm1 1h1v1H4zm-1 3v3h3v-3zm1 1h1v1H4z" fill="#dedede" font-family="sans-serif" font-weight="400" overflow="visible" style="line-height:normal;font-variant-ligatures:none;font-variant-position:normal;font-variant-caps:normal;font-variant-numeric:normal;font-variant-alternates:normal;font-feature-settings:normal;text-indent:0;text-align:start;text-decoration-line:none;text-decoration-style:solid;text-decoration-color:#000;text-transform:none;shape-padding:0;isolation:auto;mix-blend-mode:normal;marker:none" white-space="normal" color="#000"/>
</svg>
