<svg height="16" width="16" xmlns="http://www.w3.org/2000/svg">
    <g color="#000" font-weight="400" font-family="sans-serif" white-space="normal" fill="#dedede">
        <path d="M3.994 7c-1.258.015-2.179-.03-2.932.385a1.88 1.88 0 0 0-.837.998C.06 8.82 0 9.343 0 10v2c0 .658.06 1.179.225 1.617.164.439.461.79.837.998.753.416 1.674.37 2.932.385h2.012c1.258-.015 2.179.03 2.932-.385a1.88 1.88 0 0 0 .838-.998C9.94 13.18 10 12.657 10 12v-2c0-.658-.06-1.179-.225-1.617a1.88 1.88 0 0 0-.837-.998c-.753-.416-1.674-.37-2.932-.385H3.998zM4 8h2c1.259.015 2.087.06 2.453.262.184.1.29.212.387.472.097.26.16.674.16 1.266v2c0 .592-.063 1.006-.16 1.266-.098.26-.202.371-.385.472C8.09 13.94 7.26 13.985 6 14H4c-1.259-.015-2.09-.06-2.455-.262-.183-.1-.287-.212-.385-.472C1.063 13.006 1 12.592 1 12v-2c0-.592.063-1.006.16-1.266.098-.26.202-.371.385-.472C1.91 8.06 2.74 8.015 4 8z" style="line-height:normal;font-variant-ligatures:normal;font-variant-position:normal;font-variant-caps:normal;font-variant-numeric:normal;font-variant-alternates:normal;font-feature-settings:normal;text-indent:0;text-align:start;text-decoration-line:none;text-decoration-style:solid;text-decoration-color:#000;text-transform:none;text-orientation:mixed;shape-padding:0;isolation:auto;mix-blend-mode:normal;marker:none" overflow="visible"/>
        <path d="M6.994 2c-1.258.015-2.179-.03-2.932.385a1.88 1.88 0 0 0-.837.998C3.06 3.82 3 4.343 3 5v1h1V5c0-.592.063-1.006.16-1.266.098-.26.202-.371.385-.472C4.91 3.06 5.74 3.015 7 3h5c1.259.015 2.087.06 2.453.262.184.1.29.212.387.472.097.26.16.674.16 1.266v4c0 .592-.063 1.006-.16 1.266-.098.26-.202.371-.385.472-.367.203-1.197.247-2.46.262H11v1h1.006c1.258-.015 2.179.03 2.932-.385a1.88 1.88 0 0 0 .837-.998C15.94 10.18 16 9.657 16 9V5c0-.658-.06-1.179-.225-1.617a1.88 1.88 0 0 0-.838-.998c-.752-.416-1.673-.37-2.931-.385H6.998z" style="line-height:normal;font-variant-ligatures:normal;font-variant-position:normal;font-variant-caps:normal;font-variant-numeric:normal;font-variant-alternates:normal;font-feature-settings:normal;text-indent:0;text-align:start;text-decoration-line:none;text-decoration-style:solid;text-decoration-color:#000;text-transform:none;text-orientation:mixed;shape-padding:0;isolation:auto;mix-blend-mode:normal;marker:none" overflow="visible" opacity=".5"/>
    </g>
</svg>
