<?xml version="1.0" encoding="UTF-8" standalone="no"?>
<!-- Created with Inkscape (http://www.inkscape.org/) -->

<svg
   width="16"
   height="16"
   viewBox="0 0 4.2333332 4.2333335"
   version="1.1"
   id="svg11945"
   inkscape:version="1.1.1 (3bf5ae0d25, 2021-09-20, custom)"
   sodipodi:docname="battery-missing.svg"
   xmlns:inkscape="http://www.inkscape.org/namespaces/inkscape"
   xmlns:sodipodi="http://sodipodi.sourceforge.net/DTD/sodipodi-0.dtd"
   xmlns="http://www.w3.org/2000/svg"
   xmlns:svg="http://www.w3.org/2000/svg">
  <sodipodi:namedview
     id="namedview11947"
     pagecolor="#ffffff"
     bordercolor="#666666"
     borderopacity="1.0"
     inkscape:pageshadow="2"
     inkscape:pageopacity="0.0"
     inkscape:pagecheckerboard="0"
     inkscape:document-units="px"
     showgrid="false"
     units="in"
     inkscape:zoom="48.3125"
     inkscape:cx="7.9896507"
     inkscape:cy="8"
     inkscape:window-width="1920"
     inkscape:window-height="996"
     inkscape:window-x="0"
     inkscape:window-y="0"
     inkscape:window-maximized="1"
     inkscape:current-layer="svg11945"
     showguides="true" />
  <defs
     id="defs11942" />
  <path
     id="rect15908"
     style="opacity:0.35;fill:#dedede;stroke-width:0.999999"
     d="M 6,1 V 3 H 5 C 4.4460003,3 4,3.4460001 4,4 v 9 c 0,1.108 0.8919998,2 2,2 h 4 c 1.108,0 2,-0.892 2,-2 V 4 C 12,3.4460001 11.554,3 11,3 H 10 V 1 Z"
     transform="scale(0.26458333)"
     sodipodi:nodetypes="ccssssssssccc" />
  <path
     id="path2"
     d="m 2.0923787,1.5875 c -0.1147339,0 -0.2091334,0.032736 -0.2837036,0.098702 -0.073139,0.064532 -0.1249144,0.1378844 -0.1550293,0.2196248 l 0.1850016,0.077515 C 1.8845364,1.8456711 1.9690511,1.776636 2.0923787,1.776636 c 0.07457,0 0.1325624,0.020308 0.1741496,0.060461 0.043021,0.040153 0.064596,0.093197 0.064596,0.1591634 0,0.034417 -0.00863,0.068303 -0.025838,0.1012858 -0.015775,0.031549 -0.032401,0.056288 -0.049609,0.074931 -0.015775,0.017209 -0.04293,0.043731 -0.081649,0.079582 -0.068834,0.063098 -0.1169304,0.118558 -0.1441772,0.1658813 -0.027248,0.045889 -0.040824,0.1008328 -0.040824,0.1653646 v 0.1012858 h 0.2025716 v -0.0863 c 0,-0.078875 0.043782,-0.157289 0.1312582,-0.2361613 l 0.010335,-0.010852 c 0.037285,-0.034417 0.066223,-0.062722 0.0863,-0.084233 0.021511,-0.022945 0.045617,-0.060629 0.072864,-0.1136882 0.027247,-0.053059 0.040824,-0.1054708 0.040824,-0.1570963 0,-0.1190361 -0.040733,-0.2164844 -0.1224731,-0.2924887 C 2.3289705,1.6263337 2.2228765,1.5875 2.0923787,1.5875 Z m -0.00207,1.2950113 c -0.041587,10e-8 -0.076739,0.01421 -0.1054199,0.042892 -0.027248,0.028681 -0.040824,0.0632 -0.040824,0.1033529 0,0.040153 0.013578,0.074672 0.040824,0.1033528 C 2.0135688,3.16079 2.0487208,3.175 2.090308,3.175 c 0.041587,0 0.076106,-0.014211 0.1033529,-0.042891 0.028681,-0.028681 0.042891,-0.0632 0.042891,-0.1033528 0,-0.040153 -0.014211,-0.074672 -0.042891,-0.1033529 -0.027247,-0.028681 -0.061766,-0.042892 -0.1033522,-0.042892 z"
     class="error"
     style="fill:#d33636;fill-opacity:1;stroke-width:0.264583" />
</svg>
