<svg width="16" height="16" version="1.1" xmlns="http://www.w3.org/2000/svg">
 <path class="ColorScheme-Text" d="m7.998 0v7.041l-3.293-3.293-0.0019531 0.0019531c-0.35575-0.35595-0.99609-0.99609-0.99609-0.99609l-0.70703 0.70703 4.5449 4.541-4.5449 4.541 0.70703 0.70703s0.64035-0.64009 0.99609-0.99609h0.0019531l3.2949-3.293v3.5391a4.5 4.5 0 0 1 1-2.8145v-0.26953l0.11719 0.11914a4.5 4.5 0 0 1 0.74805-0.66992l-0.86523-0.86523 4-4-4-4h-1.002zm0.0019531 12.5v3.5h1l0.32617-0.32617a4.5 4.5 0 0 1-1.3262-3.1738zm1-11.084 2.5859 2.5859-2.5859 2.5859v-5.1719z" fill="#dedede"/>
 <path d="m12.5 9c-1.933 0-3.5 1.567-3.5 3.5s1.567 3.5 3.5 3.5 3.5-1.567 3.5-3.5-1.567-3.5-3.5-3.5zm-1.4141 1.5859c0.12781 0 0.25558 0.04855 0.35352 0.14648l1.0605 1.0605 1.0605-1.0605c0.19587-0.19587 0.51116-0.19587 0.70703 0s0.19587 0.51116 0 0.70703l-1.0605 1.0605 1.0605 1.0605c0.19587 0.19587 0.19587 0.51116 0 0.70703s-0.51116 0.19587-0.70703 0l-1.0605-1.0605-1.0605 1.0605c-0.19587 0.19587-0.51116 0.19587-0.70703 0s-0.19587-0.51116 0-0.70703l1.0605-1.0605-1.0605-1.0605c-0.19587-0.19587-0.19587-0.51116 0-0.70703 0.09793-0.09793 0.22571-0.14648 0.35352-0.14648z" fill="#dedede"/>
</svg>
