<?xml version="1.0" encoding="UTF-8" standalone="no"?>
<!-- Created with Inkscape (http://www.inkscape.org/) -->

<svg
   width="16"
   height="16"
   viewBox="0 0 4.2333332 4.2333335"
   version="1.1"
   id="svg11945"
   inkscape:version="1.1.1 (3bf5ae0d25, 2021-09-20, custom)"
   sodipodi:docname="media-playlist-repeat-song-symbolic.svg"
   xmlns:inkscape="http://www.inkscape.org/namespaces/inkscape"
   xmlns:sodipodi="http://sodipodi.sourceforge.net/DTD/sodipodi-0.dtd"
   xmlns="http://www.w3.org/2000/svg"
   xmlns:svg="http://www.w3.org/2000/svg">
  <sodipodi:namedview
     id="namedview11947"
     pagecolor="#ffffff"
     bordercolor="#666666"
     borderopacity="1.0"
     inkscape:pageshadow="2"
     inkscape:pageopacity="0.0"
     inkscape:pagecheckerboard="0"
     inkscape:document-units="px"
     showgrid="false"
     units="in"
     inkscape:zoom="45.254834"
     inkscape:cx="6.7617086"
     inkscape:cy="6.6180775"
     inkscape:window-width="1920"
     inkscape:window-height="996"
     inkscape:window-x="0"
     inkscape:window-y="0"
     inkscape:window-maximized="1"
     inkscape:current-layer="svg11945"
     showguides="true" />
  <defs
     id="defs11942" />
  <path
     id="rect866"
     style="fill:#dedede;fill-opacity:1;stroke-width:5.00001;stroke-linecap:round;stroke-linejoin:round"
     d="M 12.410156 0 C 12.22656 0.0019529 12.023438 0.072267043 11.898438 0.25976562 C 11.798439 0.45976541 11.900001 0.6593737 12 0.859375 L 13.5 2.359375 L 9.5 2.359375 L 8.3984375 2.359375 L 5.2988281 2.359375 L 3 2.359375 C 2.900002 2.359375 2.1996094 2.358984 1.5996094 2.9589844 C 0.99960938 3.4589845 1 4.2593763 1 4.359375 L 1 8.6582031 C 1 8.9582046 1.2000019 9.2597656 1.5 9.2597656 C 1.7999999 9.2597656 2.000001 8.9582031 2 8.6582031 L 2 4.2597656 C 2 4.0597644 2.0988261 3.758595 2.2988281 3.5585938 C 2.5988281 3.2585954 2.7999991 3.2597656 3 3.2597656 L 6.1992188 3.2597656 L 8.3984375 3.2597656 L 9.5 3.2597656 L 13.5 3.2597656 L 12 4.7597656 C 11.799999 4.9597669 11.799999 5.2589831 12 5.4589844 C 12.200001 5.6589856 12.499217 5.7589844 12.699219 5.4589844 C 13.599218 4.5589844 14.498438 3.6593747 15.398438 2.859375 C 14.498438 1.8593747 13.599219 0.9585936 12.699219 0.05859375 C 12.624218 0.02108946 12.520314 -0.00117165 12.410156 0 z M 8.7988281 4.4589844 L 6.4667969 5.3164062 L 6.4667969 6.1601562 L 7.9316406 5.6582031 L 7.9316406 10.458984 L 8.9257812 10.458984 L 8.9257812 4.4589844 L 8.7988281 4.4589844 z M 14.898438 5.7597656 C 14.598439 5.7597656 14.398438 6.059375 14.398438 6.359375 L 14.398438 10.759766 C 14.398438 10.959763 14.299611 11.258983 14.099609 11.458984 C 13.799609 11.758984 13.598439 11.759761 13.398438 11.759766 L 10.199219 11.759766 L 8.0996094 11.759766 L 7 11.759766 L 3 11.759766 L 4.5 10.259766 C 4.7000013 10.059764 4.7000013 9.758595 4.5 9.5585938 C 4.2999991 9.3585963 3.9988294 9.3585963 3.7988281 9.5585938 L 1.0996094 12.259766 L 3.7988281 14.958984 C 3.9988283 15.158986 4.4000013 15.059376 4.5 14.859375 C 4.5999987 14.659375 4.4984362 14.459767 4.3984375 14.259766 L 2.8984375 12.759766 L 6.8984375 12.759766 L 8 12.759766 L 11.099609 12.759766 L 13.398438 12.759766 C 13.498436 12.759766 14.198828 12.758203 14.798828 12.158203 C 15.398828 11.658203 15.398438 10.859764 15.398438 10.759766 L 15.398438 6.359375 C 15.398436 6.0593765 15.198437 5.7597645 14.898438 5.7597656 z "
     transform="scale(0.26458333)" />
</svg>
