<?xml version="1.0" encoding="UTF-8" standalone="no"?>
<!-- Created with Inkscape (http://www.inkscape.org/) -->

<svg
   width="16"
   height="16"
   viewBox="0 0 4.2333332 4.2333335"
   version="1.1"
   id="svg11945"
   inkscape:version="1.1.1 (3bf5ae0d25, 2021-09-20, custom)"
   sodipodi:docname="network-cellular-4g-symbolic.svg"
   xmlns:inkscape="http://www.inkscape.org/namespaces/inkscape"
   xmlns:sodipodi="http://sodipodi.sourceforge.net/DTD/sodipodi-0.dtd"
   xmlns="http://www.w3.org/2000/svg"
   xmlns:svg="http://www.w3.org/2000/svg">
  <sodipodi:namedview
     id="namedview11947"
     pagecolor="#ffffff"
     bordercolor="#666666"
     borderopacity="1.0"
     inkscape:pageshadow="2"
     inkscape:pageopacity="0.0"
     inkscape:pagecheckerboard="0"
     inkscape:document-units="px"
     showgrid="false"
     units="in"
     inkscape:zoom="22.627417"
     inkscape:cx="13.390835"
     inkscape:cy="5.1486213"
     inkscape:window-width="1920"
     inkscape:window-height="996"
     inkscape:window-x="0"
     inkscape:window-y="0"
     inkscape:window-maximized="1"
     inkscape:current-layer="svg11945"
     showguides="false" />
  <defs
     id="defs11942" />
  <path
     id="path841"
     style="fill:#dedede;fill-opacity:1"
     d="M 12.394531 2 C 11.105444 2 10.136155 2.4045695 9.4863281 3.2128906 C 8.8417844 4.0159286 8.5195312 5.2251546 8.5195312 6.8417969 L 8.5195312 9.109375 C 8.5353806 10.620354 8.8975272 11.789687 9.6054688 12.619141 C 10.318693 13.443311 11.2981 13.855469 12.544922 13.855469 C 13.950238 13.855469 15.01702 13.430664 15.746094 12.580078 L 16 12.261719 L 16 7.9511719 L 12.441406 7.9511719 L 12.441406 9.1875 L 14.548828 9.1875 L 14.548828 11.849609 L 14.335938 12.048828 C 13.929135 12.429214 13.33464 12.619141 12.552734 12.619141 C 11.723281 12.619141 11.086362 12.309534 10.642578 11.691406 C 10.198794 11.067995 9.9765625 10.175964 9.9765625 9.0136719 L 9.9765625 6.6601562 C 9.9924121 5.4714487 10.194409 4.6072401 10.580078 4.0683594 C 10.965748 3.5241954 11.57289 3.2519531 12.402344 3.2519531 C 13.094436 3.2519531 13.609144 3.4564792 13.947266 3.8632812 C 14.29067 4.2648004 14.490714 4.8244612 14.548828 5.5429688 L 16 5.5429688 C 15.936602 4.4070927 15.594114 3.5327667 14.970703 2.9199219 C 14.352575 2.3070771 13.493425 2 12.394531 2 z M 4.2871094 2.1582031 L 0 10.154297 L 0 11.017578 L 4.359375 11.017578 L 4.359375 13.697266 L 5.7617188 13.697266 L 5.7617188 11.017578 L 7.0449219 11.017578 L 7.0449219 9.8222656 L 5.7617188 9.8222656 L 5.7617188 2.1582031 L 4.2871094 2.1582031 z M 4.359375 4.3378906 L 4.359375 9.8222656 L 1.5527344 9.8222656 L 4.359375 4.3378906 z "
     transform="scale(0.26458333)" />
</svg>
