<?xml version="1.0" encoding="UTF-8" standalone="no"?>
<!-- Created with Inkscape (http://www.inkscape.org/) -->

<svg
   width="16"
   height="16"
   viewBox="0 0 4.2333332 4.2333335"
   version="1.1"
   id="svg11945"
   inkscape:version="1.1.1 (3bf5ae0d25, 2021-09-20, custom)"
   sodipodi:docname="network-cellular-2g-symbolic.svg"
   xmlns:inkscape="http://www.inkscape.org/namespaces/inkscape"
   xmlns:sodipodi="http://sodipodi.sourceforge.net/DTD/sodipodi-0.dtd"
   xmlns="http://www.w3.org/2000/svg"
   xmlns:svg="http://www.w3.org/2000/svg">
  <sodipodi:namedview
     id="namedview11947"
     pagecolor="#ffffff"
     bordercolor="#666666"
     borderopacity="1.0"
     inkscape:pageshadow="2"
     inkscape:pageopacity="0.0"
     inkscape:pagecheckerboard="0"
     inkscape:document-units="px"
     showgrid="false"
     units="in"
     inkscape:zoom="22.627417"
     inkscape:cx="4.7950679"
     inkscape:cy="9.8773978"
     inkscape:window-width="1920"
     inkscape:window-height="1011"
     inkscape:window-x="0"
     inkscape:window-y="0"
     inkscape:window-maximized="1"
     inkscape:current-layer="svg11945"
     showguides="false" />
  <defs
     id="defs11942" />
  <path
     id="path4792"
     style="font-size:4.29437px;line-height:1.25;font-family:'Roboto Condensed';-inkscape-font-specification:'Roboto Condensed, ';stroke-width:0.107359;fill:#dedede;fill-opacity:1"
     d="M 0.90382089,0.52916666 C 0.65121604,0.53441427 0.45023801,0.62117554 0.30127363,0.78909912 0.14750388,0.96243956 0.07079673,1.1897319 0.07079673,1.4707113 h 0.37103679 c 0,-0.2012987 0.0416991,-0.3552296 0.12557363,-0.4614706 0.0852723,-0.10763885 0.20553389,-0.16123046 0.36070169,-0.16123046 0.12301566,0 0.22268606,0.0502458 0.29817296,0.15089518 0.075487,0.10064928 0.1131713,0.23213398 0.1131713,0.39429118 0,0.1272095 -0.025792,0.2481403 -0.077515,0.3627686 C 1.2116131,1.8691955 1.12049,2.0145801 0.98908654,2.1921142 L 0.11885586,3.3450154 V 3.6240683 H 1.8257284 V 3.3072916 H 0.56120611 L 1.2407511,2.418457 C 1.5552803,2.0060745 1.7125569,1.6486357 1.7125569,1.3466878 1.7125569,1.0992583 1.6425415,0.90162051 1.5027508,0.75344236 1.36296,0.60386631 1.1713445,0.52916666 0.92810884,0.52916666 c -0.008257,0 -0.0161396,-1.6928e-4 -0.024288,0 z m 2.34352621,0 C 2.9220374,0.53564154 2.6759767,0.64288124 2.5094075,0.85007729 2.3388629,1.0625592 2.2536092,1.3824659 2.2536092,1.8102254 v 0.5999634 c 0.00419,0.3998013 0.1000016,0.7091542 0.287321,0.9286255 0.1887175,0.2180736 0.4478243,0.3271118 0.7777303,0.3271118 0.3718433,0 0.6540656,-0.1123841 0.8469768,-0.3374472 l 0.067179,-0.083716 V 2.1037476 H 3.2912719 V 2.4308593 H 3.8493774 V 3.135726 L 3.7925335,3.187919 C 3.6848944,3.2885684 3.5276178,3.3388143 3.3207274,3.3388143 3.1012561,3.3388143 2.9327562,3.2569062 2.815332,3.0933511 2.6979078,2.9283982 2.6391153,2.6924068 2.6391153,2.3848674 V 1.7621663 c 0.00419,-0.314529 0.057633,-0.5431597 0.1596802,-0.6857462 0.1020472,-0.14398442 0.2626699,-0.21600752 0.4821412,-0.21600752 0.1831258,0 0.3192944,0.0535917 0.4087607,0.16123042 0.090864,0.106241 0.1443029,0.2548187 0.15968,0.4449341 H 4.2328165 C 4.2160417,1.1660271 4.1254349,0.93471986 3.9604817,0.77256266 3.7969266,0.61040538 3.5696342,0.52916666 3.2788696,0.52916666 c -0.010659,0 -0.021029,-2.0886e-4 -0.031523,0 z" />
</svg>
