<?xml version="1.0" encoding="UTF-8" standalone="no"?>
<!-- Created with Inkscape (http://www.inkscape.org/) -->

<svg
   width="16"
   height="16"
   viewBox="0 0 4.2333332 4.2333335"
   version="1.1"
   id="svg11945"
   inkscape:version="1.1.1 (3bf5ae0d25, 2021-09-20)"
   sodipodi:docname="network-cellular-signal-low-symbolic.svg"
   xmlns:inkscape="http://www.inkscape.org/namespaces/inkscape"
   xmlns:sodipodi="http://sodipodi.sourceforge.net/DTD/sodipodi-0.dtd"
   xmlns="http://www.w3.org/2000/svg"
   xmlns:svg="http://www.w3.org/2000/svg">
  <sodipodi:namedview
     id="namedview11947"
     pagecolor="#ffffff"
     bordercolor="#666666"
     borderopacity="1.0"
     inkscape:pageshadow="2"
     inkscape:pageopacity="0.0"
     inkscape:pagecheckerboard="0"
     inkscape:document-units="px"
     showgrid="false"
     units="in"
     inkscape:zoom="32"
     inkscape:cx="5.15625"
     inkscape:cy="8.1875"
     inkscape:window-width="1920"
     inkscape:window-height="1009"
     inkscape:window-x="-8"
     inkscape:window-y="-8"
     inkscape:window-maximized="1"
     inkscape:current-layer="svg11945"
     showguides="false" />
  <defs
     id="defs11942" />
  <path
     id="rect14842"
     style="fill:#dedede;fill-opacity:1;stroke-width:1.10493;opacity:0.3"
     d="M 14 1 C 13.446 1 13 1.446 13 2 L 13 14 C 13 14.554 13.446 15 14 15 C 14.554 15 15 14.554 15 14 L 15 2 C 15 1.446 14.554 1 14 1 z M 10 4 C 9.446 4 9 4.446 9 5 L 9 14 C 9 14.554 9.446 15 10 15 C 10.554 15 11 14.554 11 14 L 11 5 C 11 4.446 10.554 4 10 4 z M 6 7 C 5.446 7 5 7.446 5 8 L 5 14 C 5 14.554 5.446 15 6 15 C 6.554 15 7 14.554 7 14 L 7 8 C 7 7.446 6.554 7 6 7 z "
     transform="scale(0.26458333)" />
  <rect
     style="fill:#dedede;fill-opacity:1;stroke-width:0.140923"
     id="rect15286"
     width="0.5291667"
     height="1.0583334"
     x="0.26458314"
     y="2.9104166"
     ry="0.26458335" />
</svg>
