<?xml version="1.0" encoding="UTF-8" standalone="no"?>
<!-- Created with Inkscape (http://www.inkscape.org/) -->

<svg
   width="16"
   height="16"
   viewBox="0 0 4.2333332 4.2333335"
   version="1.1"
   id="svg11945"
   inkscape:version="1.1.1 (3bf5ae0d25, 2021-09-20, custom)"
   sodipodi:docname="network-cellular-hspa-symbolic.svg"
   xmlns:inkscape="http://www.inkscape.org/namespaces/inkscape"
   xmlns:sodipodi="http://sodipodi.sourceforge.net/DTD/sodipodi-0.dtd"
   xmlns="http://www.w3.org/2000/svg"
   xmlns:svg="http://www.w3.org/2000/svg">
  <sodipodi:namedview
     id="namedview11947"
     pagecolor="#ffffff"
     bordercolor="#666666"
     borderopacity="1.0"
     inkscape:pageshadow="2"
     inkscape:pageopacity="0.0"
     inkscape:pagecheckerboard="0"
     inkscape:document-units="px"
     showgrid="false"
     units="in"
     inkscape:zoom="22.627417"
     inkscape:cx="13.390835"
     inkscape:cy="5.1486213"
     inkscape:window-width="1920"
     inkscape:window-height="996"
     inkscape:window-x="0"
     inkscape:window-y="0"
     inkscape:window-maximized="1"
     inkscape:current-layer="svg11945"
     showguides="false" />
  <defs
     id="defs11942" />
  <path
     id="path841"
     style="fill:#dedede;fill-opacity:1"
     d="M 0 2.1582031 L 0 13.697266 L 1.4511719 13.697266 L 1.4511719 8.3632812 L 6.09375 8.3632812 L 6.09375 13.697266 L 7.5527344 13.697266 L 7.5527344 2.1582031 L 6.09375 2.1582031 L 6.09375 7.1191406 L 1.4511719 7.1191406 L 1.4511719 2.1582031 L 0 2.1582031 z M 12.576172 4.9628906 C 11.7837 4.9628906 11.131606 5.1971927 10.619141 5.6621094 C 10.111959 6.121743 9.8574219 6.6991094 9.8574219 7.3964844 C 9.8574219 7.7874372 9.9346794 8.1248664 10.087891 8.4101562 C 10.241102 8.6901628 10.470921 8.9421705 10.777344 9.1640625 C 11.089049 9.3859545 11.623416 9.6531381 12.378906 9.9648438 C 13.028733 10.255417 13.466184 10.508 13.693359 10.724609 C 13.920534 10.941218 14.035156 11.200814 14.035156 11.501953 C 14.035155 11.855925 13.912945 12.138283 13.669922 12.349609 C 13.426897 12.555652 13.072339 12.658203 12.607422 12.658203 C 12.110806 12.658203 11.725895 12.523347 11.451172 12.253906 C 11.176448 11.984466 11.031474 11.612202 11.015625 11.136719 L 9.6054688 11.136719 C 9.6054687 11.923907 9.8827699 12.573472 10.4375 13.085938 C 10.99223 13.598402 11.71457 13.855469 12.607422 13.855469 C 13.468574 13.855469 14.155504 13.633237 14.667969 13.189453 C 15.180434 12.740386 15.4375 12.143361 15.4375 11.398438 C 15.4375 10.801442 15.250103 10.309498 14.875 9.9238281 C 14.499897 9.5328756 13.79078 9.1353178 12.75 8.7285156 C 12.094891 8.4432266 11.680204 8.2134071 11.505859 8.0390625 C 11.336799 7.8647187 11.253906 7.6348992 11.253906 7.3496094 C 11.253906 6.990356 11.369104 6.7054666 11.601562 6.4941406 C 11.839304 6.2775309 12.164086 6.1679688 12.576172 6.1679688 C 12.977691 6.1679687 13.307532 6.3053546 13.566406 6.5800781 C 13.82528 6.8495184 13.955078 7.1768305 13.955078 7.5625 L 15.349609 7.5625 C 15.349609 6.8017272 15.097026 6.1794086 14.589844 5.6933594 C 14.082662 5.2073101 13.410909 4.9628906 12.576172 4.9628906 z "
     transform="scale(0.26458333)" />
</svg>
