<svg width="16" height="16.007" version="1.1" xmlns="http://www.w3.org/2000/svg">
 <path d="m7 2v5h-1l2 2 2-2h-1v-5z" fill="#00a6ff"/>
 <g fill="#dedede" stroke-linecap="round" stroke-linejoin="round" stroke-width="2" style="paint-order:stroke fill markers" aria-label="">
  <path d="m4 0v6h-3c-0.13541 0-0.26562 0.026042-0.39062 0.078125-0.11979 0.052087-0.22657 0.125-0.32031 0.21875-0.088543 0.08854-0.15885 0.19531-0.21094 0.32031-0.052083 0.11979-0.078125 0.2474-0.078125 0.38281v7h4v2h8v-2h4v-7c0-0.13541-0.026038-0.26302-0.078125-0.38281-0.052087-0.125-0.125-0.23177-0.21875-0.32031-0.08854-0.09375-0.19531-0.16667-0.32031-0.21875-0.11979-0.052083-0.2474-0.078125-0.38281-0.078125h-3v-6h-8zm1 1h6v4 1 1h4v6h-3v-3h-8v3h-3v-6h4v-1-1-4zm-2.5 7c-0.13541 0-0.2526 0.049478-0.35156 0.14844s-0.14844 0.21615-0.14844 0.35156 0.049478 0.2526 0.14844 0.35156 0.21615 0.14844 0.35156 0.14844 0.2526-0.049478 0.35156-0.14844 0.14844-0.21615 0.14844-0.35156-0.049478-0.2526-0.14844-0.35156-0.21615-0.14844-0.35156-0.14844zm2.5 3h6v4h-6v-4z" fill="#dedede"/>
 </g>
</svg>
