<svg width="16" height="16" version="1.1" xmlns="http://www.w3.org/2000/svg">
 <path d="m7 4v2.1016a5 5 0 0 0-4 4.8984 5 5 0 0 0 5 5 5 5 0 0 0 5-5 5 5 0 0 0-4-4.8984v-2.1016h-2z" fill="#dedede" opacity=".3"/>
 <path d="m8 0c-1.108 0-2 0.892-2 2v4.418a5 5 0 0 0-3 4.582 5 5 0 0 0 5 5 5 5 0 0 0 5-5 5 5 0 0 0-3-4.582v-4.418c0-1.108-0.892-2-2-2zm0 1c0.554 0 1 0.446 1 1v4.1016 1.0254a4 4 0 0 1 0.78516 0.29492 4 4 0 0 1 0.0019532 0 4 4 0 0 1 0.18945 0.10156 4 4 0 0 1 2.0234 3.4766 4 4 0 0 1-4 4 4 4 0 0 1-4-4 4 4 0 0 1 2.625-3.7539 4 4 0 0 1 0.0097656-0.0039063 4 4 0 0 1 0.14844-0.050781 4 4 0 0 1 0.0097657-0.0039062 4 4 0 0 1 0.080078-0.023438 4 4 0 0 1 0.082031-0.023438 4 4 0 0 1 0.044922-0.011719v-1.0273-4.1016c0-0.554 0.446-1 1-1z" fill="#dedede"/>
</svg>
