<svg width="16" height="16" version="1.1" xmlns="http://www.w3.org/2000/svg">
 <path d="m2 1c-1.108 0-2 0.892-2 2v8c0 1.108 0.892 2 2 2h1.522l2.478 3 2-3h6c1.108 0 2-0.892 2-2v-8c0-1.108-0.892-2-2-2zm0 1h12c0.554 0 1 0.446 1 1v8c0 0.554-0.446 1-1 1h-6.434l-1.566 2.4-1.966-2.4h-2.034c-0.554 0-1-0.446-1-1v-8c0-0.554 0.446-1 1-1zm-0.7 11c0.153 0.017 0.322 0.021 0.524 0z" fill="#dedede" opacity=".5"/>
 <path d="m5 6a1 1 0 1 0 0 2 1 1 0 0 0 0-2zm3 0a1 1 0 1 0 0 2 1 1 0 0 0 0-2zm3 0a1 1 0 1 0 0 2 1 1 0 0 0 0-2z" fill="#dedede"/>
</svg>
