<?xml version="1.0" encoding="UTF-8"?>
<svg width="32" height="32" version="1.1" viewBox="0 0 32 32" xmlns="http://www.w3.org/2000/svg" xmlns:cc="http://creativecommons.org/ns#" xmlns:dc="http://purl.org/dc/elements/1.1/" xmlns:rdf="http://www.w3.org/1999/02/22-rdf-syntax-ns#" xmlns:xlink="http://www.w3.org/1999/xlink">
 <metadata>
  <rdf:RDF>
   <cc:Work rdf:about="">
    <dc:format>image/svg+xml</dc:format>
    <dc:type rdf:resource="http://purl.org/dc/dcmitype/StillImage"/>
    <dc:title/>
   </cc:Work>
  </rdf:RDF>
 </metadata>
 <defs>
  <linearGradient id="c" x2="0" y1="541.04" y2="538.61" gradientTransform="translate(-384.57 -515.81)" gradientUnits="userSpaceOnUse">
   <stop stop-color="#bd8d48" offset="0"/>
   <stop stop-color="#e8b971" offset="1"/>
  </linearGradient>
  <linearGradient id="b" x2="0" y1="538.8" y2="522.8" gradientTransform="translate(-384.57,-515.8)" gradientUnits="userSpaceOnUse">
   <stop stop-color="#c6cdd1" offset="0"/>
   <stop stop-color="#e0e5e7" offset="1"/>
  </linearGradient>
  <linearGradient id="a" x2="0" y1="22" y2="15" gradientUnits="userSpaceOnUse">
   <stop stop-color="#42a603" offset="0"/>
   <stop stop-color="#78da06" offset="1"/>
  </linearGradient>
  <filter id="f" x="-.038571" y="-.03375" width="1.0771" height="1.0675" color-interpolation-filters="sRGB">
   <feGaussianBlur stdDeviation="0.22500022"/>
  </filter>
  <filter id="e" x="-.019286" y="-.27" width="1.0386" height="1.54" color-interpolation-filters="sRGB">
   <feGaussianBlur stdDeviation="0.225"/>
  </filter>
  <linearGradient id="linearGradient863" x1="399.57" x2="399.57" y1="545.8" y2="517.8" gradientTransform="translate(-384.57 -515.8)" gradientUnits="userSpaceOnUse">
   <stop stop-color="#343b40" offset="0"/>
   <stop stop-color="#555e63" offset="1"/>
  </linearGradient>
 </defs>
 <rect x="1" y=".99997" width="30" height="30" rx="8" ry="8" fill="url(#linearGradient863)"/>
 <path d="m9 22v1h14v-1l-5-8v-6h1v-1h-6v0.99973h1v6.0003z" fill-rule="evenodd" filter="url(#f)" opacity=".25"/>
 <path d="m9 22v1h14v-1l-5-8v-6h1v-1h-6v0.99973h1v6.0003z" fill="url(#b)" fill-rule="evenodd"/>
 <rect x="2" y="22.99" width="28" height="2" color="#000000" color-rendering="auto" filter="url(#e)" image-rendering="auto" opacity=".25" shape-rendering="auto"/>
 <rect x="2" y="22.99" width="28" height="2" color="#000000" color-rendering="auto" fill="url(#c)" image-rendering="auto" shape-rendering="auto"/>
 <path d="m14 16-3.7 6h11.4l-3.7-6h-2z" fill="url(#a)" fill-rule="evenodd"/>
</svg>
