<svg width="16" height="16" version="1.1" xmlns="http://www.w3.org/2000/svg">
 <defs>
  <style id="current-color-scheme" type="text/css">.ColorScheme-Text { color:#363636; } .ColorScheme-Highlight { color:#5294e2; }</style>
 </defs>
 <g transform="translate(-1113,-60.993)" style="fill:currentColor" class="ColorScheme-Text">
  <path d="m1127 61a1 1 0 0 0-1 1v1h-11.49c-0.822 0-1.5 0.678-1.5 1.5v8.994c0 0.823 0.678 1.5 1.5 1.5h11.49v2.006h1v-4h2l0.01-7.003-2.005 3e-3v-3.5s0-0.5 0.5-0.5h1.5v-1zm-12.49 3h11.49v9.994h-11.49a0.488 0.488 0 0 1-0.5-0.5v-8.994c0-0.286 0.214-0.5 0.5-0.5zm12.5 2.994h1v1h-1zm0 2h1v1h-1zm0 2h1v1h-1z"/>
  <path d="m1122.7 64.98a0.385 0.385 0 0 0-0.178 0.01l-4.09 1.124c-0.252 0.069-0.455 0.348-0.455 0.625v4.261a2.237 2.237 0 0 0-0.869 0.04c-0.803 0.196-1.288 0.774-1.084 1.29 0.203 0.517 1.019 0.777 1.822 0.58 0.685-0.168 1.155-0.62 1.13-1.086v-4.014l3-0.823v3.013a2.237 2.237 0 0 0-0.87 0.04c-0.803 0.196-1.288 0.774-1.084 1.29 0.203 0.517 1.019 0.777 1.822 0.58 0.666-0.164 1.132-0.597 1.13-1.053v-5.492c0-0.207-0.115-0.354-0.278-0.384z"/>
 </g>
</svg>
