<svg xmlns="http://www.w3.org/2000/svg" viewBox="0 0 16 16">
  <defs id="defs3051">
    <style type="text/css" id="current-color-scheme">
      .ColorScheme-NegativeText {
        color:#da4453;
      }
      </style>
  </defs>
        <path
           style="fill:currentColor;fill-opacity:1;stroke:none" 
           class="ColorScheme-NegativeText"
           d="m 7.9997739,2.5974132 c -3.0209992,0 -5.8744582,1.3332678 -7.82888564,3.6583298 -0.25960384,0.30878 -0.21870885,0.769328 0.0905674,1.028905 0.13683446,0.114927 0.30310611,0.170742 0.46916892,0.170742 0.2084413,0 0.41511121,-0.0879 0.55973641,-0.259824 1.6753732,-1.9933813 4.1208776,-3.1371963 6.7094129,-3.1371963 2.5885351,0 5.0340651,1.1442857 6.7094121,3.1371963 0.144651,0.171919 0.351269,0.259824 0.559737,0.259824 0.166089,0 0.333819,-0.05532 0.470654,-0.170742 0.308779,-0.259133 0.348685,-0.720622 0.08908,-1.028905 C 13.874728,3.930681 11.020773,2.5974132 7.9997739,2.5974132 Z m 0,3.0941398 c -2.158006,0 -4.1956293,0.952804 -5.5914249,2.613092 -0.2595776,0.30878 -0.2201935,0.769328 0.089083,1.028906 0.1368345,0.114926 0.3030799,0.170742 0.4691689,0.170742 0.2084412,0 0.4155818,-0.08791 0.5597364,-0.259825 C 4.6430782,7.91539 6.274232,7.152509 7.9997741,7.152509 c 1.7255424,0 3.3561989,0.762881 4.4734369,2.091959 0.144651,0.172416 0.351791,0.259825 0.559736,0.259825 0.166088,0 0.332308,-0.05532 0.469168,-0.170742 0.309251,-0.259578 0.348634,-0.720597 0.08908,-1.028906 C 12.194877,6.644384 10.157776,5.691553 7.9997711,5.691553 Z m 0,3.214401 c -1.2954832,0 -2.5187559,0.570413 -3.3554488,1.566371 -0.2596039,0.308779 -0.2187089,0.769328 0.090567,1.028905 0.1368345,0.114926 0.30308,0.172226 0.4691689,0.172226 0.2084413,0 0.4155817,-0.08939 0.5597364,-0.261309 0.5586319,-0.6648 1.3734535,-1.045237 2.2359761,-1.045237 0.8625228,0 1.6773704,0.380437 2.2359755,1.045237 0.144652,0.172416 0.351766,0.261309 0.559737,0.261309 0.166089,0 0.332334,-0.0568 0.469169,-0.172226 0.309276,-0.259604 0.350145,-0.720152 0.09057,-1.028905 C 10.518506,9.476367 9.2952335,8.905954 7.9997765,8.905954 Z m -0.062358,2.773442 C 7.366044,11.733836 6.8165132,12.161224 6.7971573,12.797384 6.7971573,13.461581 7.3355983,14 7.9997739,14 8.6639495,14 9.2023903,13.461581 9.2023903,12.797384 9.1007514,11.943462 8.5087876,11.624955 7.9374162,11.679396 Z"
            />
</svg>
