<svg width="16" height="16" version="1.1" xmlns="http://www.w3.org/2000/svg">
 <g fill="#363636" fill-rule="evenodd">
  <path d="m1 4c-0.554 0-1 0.446-1 1v6c0 0.554 0.446 1 1 1h4.25c1.311e-4 -0.07965 0.00894-0.16059 0.029297-0.24219l0.18945-0.75781h-4.4688v-6h4.4648l0.66797-1h-5.1328zm7.75 0c-1.311e-4 0.079648-0.0089401 0.16059-0.029297 0.24219l-0.18945 0.75781h4.4688v6h-4.4648l-0.66797 1h5.1328c0.554 0 1-0.446 1-1v-6c0-0.554-0.446-1-1-1h-4.25z" style="paint-order:normal"/>
  <path d="m15 6.5879v2.8242a1.5 1.5 0 0 0 1-1.4121 1.5 1.5 0 0 0-1-1.4121z" style="paint-order:normal"/>
  <path d="m2 6v4h2c-0.79859-1.711e-4 -1.2749-0.89013-0.83203-1.5547l1.6309-2.4453h-2.7988zm8 0c0.79859 1.713e-4 1.2749 0.89013 0.83203 1.5547l-1.6309 2.4453h2.7988v-4h-2z" style="paint-order:normal"/>
 </g>
 <path d="m7.334 4-3.334 5h3l-0.75 3h0.41602l3.334-5h-3l0.75-3z" enable-background="new" fill="#363636"/>
</svg>
