<svg width="16" height="16" version="1.1" xmlns="http://www.w3.org/2000/svg">
 <g fill="#363636">
  <g transform="translate(-442,-176)">
   <path d="m449.99 176.71h9.3e-4c2e-3 -6e-5 4e-3 -6e-5 6e-3 0 0.0532 2.6e-4 0.0964 0.0413 0.0966 0.092 2.1e-4 0.0511-0.0431 0.0926-0.0966 0.0929-0.054 2.1e-4 -0.0978-0.0415-0.0976-0.0929 1.3e-4 -0.0485 0.0395-0.0886 0.0902-0.092z" opacity=".5"/>
   <path d="m449.42 177.23h1.1561c0.0938 0 0.16868 0.0713 0.16868 0.16059 0 0.0893-0.0749 0.16146-0.16868 0.16146h-1.1561c-0.0938 0-0.16867-0.0722-0.16867-0.16146 0-0.0893 0.0749-0.16059 0.16867-0.16059z" opacity=".5"/>
   <path d="m448.84 177.24c4e-3 -1.2e-4 7e-3 -1.2e-4 0.0109 0 0.0858-6e-5 0.15547 0.0659 0.15591 0.14757 7e-5 0.082-0.0697 0.1485-0.15591 0.14844-0.0861 6e-5 -0.15598-0.0664-0.15592-0.14844 2.2e-4 -0.0778 0.0634-0.14217 0.14497-0.14757z" opacity=".5"/>
   <path d="m447.17 176c-0.6499 0-1.1735 0.49846-1.1735 1.1172v0.88281h0.99976l2.4e-4 -0.30555c3.5e-4 -0.44615 0.26945-0.70394 0.73808-0.70394h2.2238c-0.0455-8e-3 -0.0823-0.0412-0.082-0.0868 1.4e-4 -0.0485 0.0395-0.0886 0.0902-0.092h9.3e-4c2e-3 -6e-5 4e-3 -6e-5 6e-3 0 0.0532 2.6e-4 0.0964 0.0413 0.0966 0.092 1.7e-4 0.0456-0.0366 0.079-0.082 0.0868h2.2247c0.46862 0 0.78336 0.25779 0.78361 0.70394l1.7e-4 0.30555h0.99946v-0.88281c3.4e-4 -0.61873-0.5232-1.1172-1.1731-1.1172zm-1.1735 14v0.88282c0 0.61872 0.52357 1.1172 1.1735 1.1172h5.653c0.6499 0 1.1735-0.49846 1.1735-1.1172v-0.88282h-0.99998v0.30556c0 0.44614-0.29205 0.80555-0.76067 0.80555h-4.4787c-0.46863 0-0.76066-0.35941-0.76066-0.80555v-0.30556z"/>
  </g>
  <ellipse cx="8" cy="14.42" rx=".46683" ry=".44444"/>
  <path d="m4 2v12h8v-12h-7.0663zm0.99998 1h6v10h-6z"/>
  <path d="m11 3v10h-6v-10z" opacity=".35"/>
 </g>
</svg>
