<?xml version="1.0" encoding="UTF-8" standalone="no"?>
<!-- Created with Inkscape (http://www.inkscape.org/) -->

<svg
   width="16"
   height="16"
   viewBox="0 0 4.2333332 4.2333335"
   version="1.1"
   id="svg11945"
   inkscape:version="1.1.1 (3bf5ae0d25, 2021-09-20, custom)"
   sodipodi:docname="folder-documents-symbolic.svg"
   xmlns:inkscape="http://www.inkscape.org/namespaces/inkscape"
   xmlns:sodipodi="http://sodipodi.sourceforge.net/DTD/sodipodi-0.dtd"
   xmlns="http://www.w3.org/2000/svg"
   xmlns:svg="http://www.w3.org/2000/svg">
  <sodipodi:namedview
     id="namedview11947"
     pagecolor="#ffffff"
     bordercolor="#666666"
     borderopacity="1.0"
     inkscape:pageshadow="2"
     inkscape:pageopacity="0.0"
     inkscape:pagecheckerboard="0"
     inkscape:document-units="px"
     showgrid="false"
     units="in"
     inkscape:zoom="22.627417"
     inkscape:cx="-2.3422912"
     inkscape:cy="7.35833"
     inkscape:window-width="1920"
     inkscape:window-height="996"
     inkscape:window-x="0"
     inkscape:window-y="0"
     inkscape:window-maximized="1"
     inkscape:current-layer="svg11945"
     showguides="true" />
  <defs
     id="defs11942" />
  <path
     id="rect843"
     style="fill:#363636;stroke-width:5.00001;stroke-linecap:round;stroke-linejoin:round"
     d="M 5,1 C 3.8920001,1 3,1.8919999 3,3 v 10 c 0,1.108 0.8920001,2 2,2 h 6 c 1.108,0 2,-0.892 2,-2 V 5.5000001 c 0.0035,-0.8405179 -0.174359,-1.170327 -0.5,-1.5 L 10,1.5 C 9.5370297,1.0712056 9.1954984,1 8.5000001,1 Z m 0,1 h 3 v 2 c 0,1.1079999 0.8920001,2 2,2 h 2 v 7 c 0,0.554 -0.446,1 -1,1 H 5 C 4.446,14 4,13.554 4,13 V 3 C 4,2.446 4.446,2 5,2 Z m 4,0 3,3 H 10 C 9.4459999,5 9,4.5540001 9,4 Z"
     transform="scale(0.26458333)"
     sodipodi:nodetypes="ssssssccccsscsscssssssccssc" />
</svg>
