<?xml version="1.0" encoding="UTF-8" standalone="no"?>
<!-- Created with Inkscape (http://www.inkscape.org/) -->

<svg
   width="16"
   height="16"
   viewBox="0 0 4.2333332 4.2333335"
   version="1.1"
   id="svg11945"
   inkscape:version="1.1.1 (3bf5ae0d25, 2021-09-20, custom)"
   sodipodi:docname="folder-downloads.svg"
   xmlns:inkscape="http://www.inkscape.org/namespaces/inkscape"
   xmlns:sodipodi="http://sodipodi.sourceforge.net/DTD/sodipodi-0.dtd"
   xmlns="http://www.w3.org/2000/svg"
   xmlns:svg="http://www.w3.org/2000/svg">
  <sodipodi:namedview
     id="namedview11947"
     pagecolor="#ffffff"
     bordercolor="#666666"
     borderopacity="1.0"
     inkscape:pageshadow="2"
     inkscape:pageopacity="0.0"
     inkscape:pagecheckerboard="0"
     inkscape:document-units="px"
     showgrid="false"
     units="in"
     inkscape:zoom="32"
     inkscape:cx="5.1875"
     inkscape:cy="8.90625"
     inkscape:window-width="1567"
     inkscape:window-height="932"
     inkscape:window-x="56"
     inkscape:window-y="50"
     inkscape:window-maximized="0"
     inkscape:current-layer="svg11945"
     showguides="false" />
  <defs
     id="defs11942" />
  <path
     id="path8764"
     style="fill:#363636;fill-opacity:1;stroke-width:5.00001;stroke-linecap:round;stroke-linejoin:round"
     d="M 7.5 1 C 7.223 1 7 1.223 7 1.5 L 7 11.265625 L 3.34375 7.609375 C 3.1478817 7.4135048 2.8325889 7.4135048 2.6367188 7.609375 C 2.4408485 7.805243 2.4408485 8.1205361 2.6367188 8.3164062 L 7 12.666016 C 7.2380831 12.918445 7.3252145 13.00205 7.5 13 C 7.6814399 13.001206 7.8346318 12.848514 8 12.664062 L 12.363281 8.3164062 C 12.559151 8.1205361 12.559151 7.805243 12.363281 7.609375 C 12.167411 7.4135048 11.852118 7.4135048 11.65625 7.609375 L 8 11.265625 L 8 1.5 C 8 1.223 7.777 1 7.5 1 z M 1.5 14 C 1.2230001 14 1 14.222998 1 14.5 C 1 14.777 1.2229999 15 1.5 15 L 13.5 15 C 13.777 15 14 14.777002 14 14.5 C 14 14.223 13.777002 14 13.5 14 L 1.5 14 z "
     transform="scale(0.26458333)" />
</svg>
