<?xml version="1.0" encoding="UTF-8" standalone="no"?>
<!-- Created with Inkscape (http://www.inkscape.org/) -->

<svg
   width="16"
   height="16"
   viewBox="0 0 4.2333332 4.2333335"
   version="1.1"
   id="svg11945"
   inkscape:version="1.1.1 (3bf5ae0d25, 2021-09-20, custom)"
   sodipodi:docname="folder-symbolic.svg"
   xmlns:inkscape="http://www.inkscape.org/namespaces/inkscape"
   xmlns:sodipodi="http://sodipodi.sourceforge.net/DTD/sodipodi-0.dtd"
   xmlns="http://www.w3.org/2000/svg"
   xmlns:svg="http://www.w3.org/2000/svg">
  <sodipodi:namedview
     id="namedview11947"
     pagecolor="#ffffff"
     bordercolor="#666666"
     borderopacity="1.0"
     inkscape:pageshadow="2"
     inkscape:pageopacity="0.0"
     inkscape:pagecheckerboard="0"
     inkscape:document-units="px"
     showgrid="false"
     units="in"
     inkscape:zoom="22.627417"
     inkscape:cx="1.2374369"
     inkscape:cy="4.6182912"
     inkscape:window-width="1920"
     inkscape:window-height="996"
     inkscape:window-x="0"
     inkscape:window-y="0"
     inkscape:window-maximized="1"
     inkscape:current-layer="svg11945"
     showguides="true" />
  <defs
     id="defs11942" />
  <path
     id="rect2790"
     style="fill:#3e91ff;stroke-width:5.00001;stroke-linecap:round;stroke-linejoin:round"
     d="M 1.9746094 2 C 1.432669 2.0136385 1 2.4546561 1 3 L 1 4 L 1 7 L 1 12 C 1 13.108 1.8919999 14 3 14 L 13 14 C 14.108 14 15 13.108 15 12 L 15 7 L 15 6 C 15.019067 4.8921642 14.108 4 13 4 L 8 4 L 8 3 C 8 2.446 7.5540001 2 7 2 L 6 2 L 3 2 L 2 2 C 1.9913437 2 1.9832116 1.9997835 1.9746094 2 z M 2 3 L 3 3 L 6 3 L 7 3 L 7 4 A 1.0000001 1.0000001 0 0 0 8 5 L 13 5 C 13.554 5 14 5.4459999 14 6 L 14 7 L 14 12 C 14 12.554 13.554 13 13 13 L 3 13 C 2.446 13 2 12.554 2 12 L 2 7 L 2 4 L 2 3 z "
     transform="scale(0.26458333)" />
</svg>
