<?xml version="1.0" encoding="UTF-8" standalone="no"?>
<!-- Created with Inkscape (http://www.inkscape.org/) -->

<svg
   width="16"
   height="16"
   viewBox="0 0 4.2333332 4.2333335"
   version="1.1"
   id="svg11945"
   inkscape:version="1.1.1 (3bf5ae0d25, 2021-09-20, custom)"
   sodipodi:docname="start-here-symbolic.svg"
   xmlns:inkscape="http://www.inkscape.org/namespaces/inkscape"
   xmlns:sodipodi="http://sodipodi.sourceforge.net/DTD/sodipodi-0.dtd"
   xmlns="http://www.w3.org/2000/svg"
   xmlns:svg="http://www.w3.org/2000/svg">
  <sodipodi:namedview
     id="namedview11947"
     pagecolor="#ffffff"
     bordercolor="#666666"
     borderopacity="1.0"
     inkscape:pageshadow="2"
     inkscape:pageopacity="0.0"
     inkscape:pagecheckerboard="0"
     inkscape:document-units="px"
     showgrid="false"
     units="in"
     inkscape:zoom="16.104167"
     inkscape:cx="0.80724451"
     inkscape:cy="6.9857698"
     inkscape:window-width="1920"
     inkscape:window-height="996"
     inkscape:window-x="0"
     inkscape:window-y="0"
     inkscape:window-maximized="1"
     inkscape:current-layer="svg11945"
     showguides="false" />
  <defs
     id="defs11942" />
  <path
     id="path923"
     style="fill:#363636;stroke-width:0.529167;stroke-linecap:round;stroke-linejoin:round;fill-opacity:1"
     d="M 1.0583333,0.79375 A 0.26458336,0.26458336 0 0 0 0.79375,1.0583333 0.26458336,0.26458336 0 0 0 1.0583333,1.3229167 0.26458336,0.26458336 0 0 0 1.3229167,1.0583333 0.26458336,0.26458336 0 0 0 1.0583333,0.79375 Z m 1.0583334,0 A 0.26458336,0.26458336 0 0 0 1.8520833,1.0583333 0.26458336,0.26458336 0 0 0 2.1166667,1.3229167 0.26458336,0.26458336 0 0 0 2.38125,1.0583333 0.26458336,0.26458336 0 0 0 2.1166667,0.79375 Z m 1.0583333,0 A 0.26458336,0.26458336 0 0 0 2.9104166,1.0583333 0.26458336,0.26458336 0 0 0 3.175,1.3229167 0.26458336,0.26458336 0 0 0 3.4395833,1.0583333 0.26458336,0.26458336 0 0 0 3.175,0.79375 Z M 1.0583333,1.8520833 A 0.26458336,0.26458336 0 0 0 0.79375,2.1166667 0.26458336,0.26458336 0 0 0 1.0583333,2.38125 0.26458336,0.26458336 0 0 0 1.3229167,2.1166667 0.26458336,0.26458336 0 0 0 1.0583333,1.8520833 Z m 1.0583334,0 A 0.26458336,0.26458336 0 0 0 1.8520833,2.1166667 0.26458336,0.26458336 0 0 0 2.1166667,2.38125 0.26458336,0.26458336 0 0 0 2.38125,2.1166667 0.26458336,0.26458336 0 0 0 2.1166667,1.8520833 Z m 1.0583333,0 A 0.26458336,0.26458336 0 0 0 2.9104166,2.1166667 0.26458336,0.26458336 0 0 0 3.175,2.38125 0.26458336,0.26458336 0 0 0 3.4395833,2.1166667 0.26458336,0.26458336 0 0 0 3.175,1.8520833 Z M 1.0583333,2.9104166 A 0.26458336,0.26458336 0 0 0 0.79375,3.175 0.26458336,0.26458336 0 0 0 1.0583333,3.4395833 0.26458336,0.26458336 0 0 0 1.3229167,3.175 0.26458336,0.26458336 0 0 0 1.0583333,2.9104166 Z m 1.0583334,0 A 0.26458336,0.26458336 0 0 0 1.8520833,3.175 0.26458336,0.26458336 0 0 0 2.1166667,3.4395833 0.26458336,0.26458336 0 0 0 2.38125,3.175 0.26458336,0.26458336 0 0 0 2.1166667,2.9104166 Z m 1.0583333,0 A 0.26458336,0.26458336 0 0 0 2.9104166,3.175 0.26458336,0.26458336 0 0 0 3.175,3.4395833 0.26458336,0.26458336 0 0 0 3.4395833,3.175 0.26458336,0.26458336 0 0 0 3.175,2.9104166 Z" />
</svg>
