<?xml version="1.0" encoding="UTF-8" standalone="no"?>
<svg
   viewbox="0 0 200 200"
   version="1.1"
   id="svg4"
   sodipodi:docname="folder-images.svg"
   width="22"
   height="22"
   inkscape:version="1.1.1 (3bf5ae0d25, 2021-09-20, custom)"
   xmlns:inkscape="http://www.inkscape.org/namespaces/inkscape"
   xmlns:sodipodi="http://sodipodi.sourceforge.net/DTD/sodipodi-0.dtd"
   xmlns="http://www.w3.org/2000/svg"
   xmlns:svg="http://www.w3.org/2000/svg">
  <defs
     id="defs8" />
  <sodipodi:namedview
     id="namedview6"
     pagecolor="#ffffff"
     bordercolor="#666666"
     borderopacity="1.0"
     inkscape:pageshadow="2"
     inkscape:pageopacity="0.0"
     inkscape:pagecheckerboard="0"
     showgrid="false"
     inkscape:zoom="13.0625"
     inkscape:cx="8.1148326"
     inkscape:cy="14.813397"
     inkscape:window-width="1920"
     inkscape:window-height="996"
     inkscape:window-x="0"
     inkscape:window-y="0"
     inkscape:window-maximized="1"
     inkscape:current-layer="svg4"
     showguides="true" />
  <path
     d="M 1,11 C 1,3.8 3.8,1 11,1 18.2,1 21,3.8 21,11 21,18.2 18.2,21 11,21 3.8,21 1,18.2 1,11"
     id="path2"
     style="fill:#e7a12e;fill-opacity:1;stroke-width:0.1" />
  <path
     id="rect20156"
     style="opacity:1;fill:#ffffff;fill-opacity:1;stroke:none;stroke-width:1.14286;stroke-linecap:round;stroke-miterlimit:4;stroke-dasharray:none"
     d="M 6,4 C 4.892,4 4,4.892 4,6 v 10 c 0,1.108 0.892,2 2,2 h 10 c 1.108,0 2,-0.892 2,-2 V 6 C 18,4.892 17.108,4 16,4 Z m 0,1 h 10 c 0.554,0 1,0.446 1,1 v 5.586063 L 15.705078,10.289188 C 15.510051,10.095373 15.254972,9.998172 15,9.998172 c -0.254971,0 -0.510051,0.0972 -0.705078,0.291016 L 9.998047,14.185672 7.708984,12.291141 c -0.3909,-0.392545 -1.0251152,-0.392545 -1.4160153,0 L 5,13.586063 V 6 C 5,5.446 5.446,5 6,5 Z m 2,1 c -1.1045696,1e-7 -1.9999999,0.89543 -2,2 1e-7,1.104569 0.8954304,2 2,2 1.104569,0 2,-0.895431 2,-2 C 10,6.89543 9.104569,6.0000001 8,6 Z"
     sodipodi:nodetypes="ssssssssssssccscccccsssssss" />
</svg>
