<?xml version="1.0" encoding="UTF-8" standalone="no"?>
<svg
   viewbox="0 0 200 200"
   version="1.1"
   id="svg4"
   sodipodi:docname="user-trash-full.svg"
   width="22"
   height="22"
   inkscape:version="1.1.1 (3bf5ae0d25, 2021-09-20, custom)"
   xmlns:inkscape="http://www.inkscape.org/namespaces/inkscape"
   xmlns:sodipodi="http://sodipodi.sourceforge.net/DTD/sodipodi-0.dtd"
   xmlns="http://www.w3.org/2000/svg"
   xmlns:svg="http://www.w3.org/2000/svg">
  <defs
     id="defs8" />
  <sodipodi:namedview
     id="namedview6"
     pagecolor="#ffffff"
     bordercolor="#666666"
     borderopacity="1.0"
     inkscape:pageshadow="2"
     inkscape:pageopacity="0.0"
     inkscape:pagecheckerboard="0"
     showgrid="false"
     inkscape:zoom="13.0625"
     inkscape:cx="1.3779904"
     inkscape:cy="16.574163"
     inkscape:window-width="1920"
     inkscape:window-height="996"
     inkscape:window-x="0"
     inkscape:window-y="0"
     inkscape:window-maximized="1"
     inkscape:current-layer="svg4"
     showguides="false"
     inkscape:lockguides="false" />
  <path
     d="M 1,11 C 1,3.8 3.8,1 11,1 18.2,1 21,3.8 21,11 21,18.2 18.2,21 11,21 3.8,21 1,18.2 1,11"
     id="path2"
     style="fill:#d370a0;fill-opacity:1;stroke-width:0.1" />
  <path
     id="rect843"
     style="fill:#ffffff;fill-opacity:1;stroke-width:5.00001;stroke-linecap:round;stroke-linejoin:round"
     d="M 8 3 C 7.445999 3 7 3.4505799 7 4 L 7 5 L 4 5 L 4 6 L 5 6 L 17 6 L 18 6 L 18 5 L 15 5 L 15 4 C 15 3.4460002 14.554 3 14 3 L 8 3 z M 8 4 L 14 4 L 14 5 L 8 5 L 8 4 z M 5.0917969 7 L 6 17 C 6.100312 18.103451 6.891999 19 8 19 L 14 19 C 15.108 19 15.899687 18.103451 16 17 L 16.908203 7 L 5.0917969 7 z " />
  <path
     d="m 8.4746186,9.0001911 c -0.264915,0.01334 -0.474609,0.231655 -0.474609,0.5 v 6.9999999 c 0,0.277001 0.222999,0.5 0.499999,0.5 0.277002,0 0.5,-0.223 0.5,-0.5 V 9.5001911 c 0,-0.277002 -0.222999,-0.5 -0.5,-0.5 -0.0087,0 -0.01686,-4.3e-4 -0.0254,0 z m 2.5000004,0 c -0.264915,0.01334 -0.47461,0.231656 -0.47461,0.5 v 6.9999999 c 0,0.277001 0.223,0.5 0.5,0.5 0.277002,0 0.5,-0.223 0.5,-0.5 V 9.5001911 c 0,-0.277002 -0.222999,-0.5 -0.5,-0.5 -0.0087,0 -0.01686,-4.3e-4 -0.0254,0 z m 2.499999,0 c -0.264914,0.01334 -0.474609,0.231655 -0.474609,0.5 v 6.9999999 c 0,0.277001 0.223,0.5 0.5,0.5 0.277002,0 0.5,-0.223 0.5,-0.5 V 9.5001911 c 0,-0.277002 -0.223,-0.5 -0.5,-0.5 -0.0087,0 -0.01686,-4.3e-4 -0.0254,0 z"
     style="fill:#b76391;fill-opacity:1;stroke-width:5.00001;stroke-linecap:round;stroke-linejoin:round"
     id="path9431" />
</svg>
