<svg width="64" height="64" version="1.1" xmlns="http://www.w3.org/2000/svg">
 <path d="M44.004 25c-1.662 0-3 1.338-3 3v6c0 1.662 1.338 3 3 3h12c1.662 0 3-1.338 3-3v-6c0-1.662-1.338-3-3-3h-12zm-36.5.002a2.517 2.517 0 0 0-2.5 2.5v10c0 1.368 1.132 2.5 2.5 2.5h5c1.368 0 2.5-1.132 2.5-2.5v-10c0-1.368-1.132-2.5-2.5-2.5h-5zm15 1a2.517 2.517 0 0 0-2.5 2.5V37h2v-8.5c0-.294.206-.5.5-.5h11.004c.295 0 .5.206.5.5V37h2v-8.498c0-1.367-1.132-2.5-2.5-2.5H22.504zm21.5.998h12c.554 0 1 .446 1 1v6c0 .554-.446 1-1 1h-12c-.554 0-1-.446-1-1v-6c0-.554.446-1 1-1zm-36.5.002h.5c0 .554.446 1 1 1h2c.554 0 1-.446 1-1h.5c.294 0 .5.206.5.5v10c0 .294-.206.5-.5.5h-5a.478.478 0 0 1-.5-.5v-10c0-.294.206-.5.5-.5zM18.004 38a2 2 0 0 0 2 2h16a2 2 0 0 0 2-2h-20zm29 0a2 2 0 0 0-2 2h10a2 2 0 0 0-2-2h-6z" fill="#aaaaaa"/>
</svg>
