<svg width="16" height="16" version="1.1" xmlns="http://www.w3.org/2000/svg">
 <path d="m11 2 5 6-5 6h-11v-12zm-0.9375 2h-8.0625v8h8.0625l3.334-4z" fill="#aaaaaa"/>
 <path d="m9 5h-1c-0.28 0-0.53 0.11-0.71 0.29l-1.29 1.3-1.29-1.3c-0.18-0.18-0.43-0.29-0.71-0.29h-1v1c0 0.28 0.11 0.53 0.29 0.71l1.3 1.29-1.3 1.29c-0.18 0.18-0.29 0.43-0.29 0.71v1h1c0.28 0 0.53-0.11 0.71-0.29l1.29-1.3 1.29 1.3c0.18 0.18 0.43 0.29 0.71 0.29h1v-1c0-0.28-0.11-0.53-0.29-0.71l-1.3-1.29 1.3-1.29c0.18-0.18 0.29-0.43 0.29-0.71z" fill="#aaaaaa"/>
</svg>
