<svg width="16px" height="16px" version="1.1" xmlns="http://www.w3.org/2000/svg">
 <path d="m4 1c-1.662 0-3 1.338-3 3v8c0 1.662 1.338 3 3 3h8c1.662 0 3-1.338 3-3v-3h-2v3c0 0.554-0.446 1-1 1h-8c-0.554 0-1-0.446-1-1v-8c0-0.554 0.446-1 1-1h3v-2z" fill="#aaaaaa" stop-color="#000000" stroke-linecap="round" stroke-linejoin="round" stroke-width="4"/>
 <rect x="9" y="1" width="6" height="2" fill="#aaaaaa" stop-color="#000000" stroke-linecap="round" stroke-linejoin="round" stroke-width="4.3818"/>
 <rect x="13" y="1" width="2" height="6" fill="#aaaaaa" stop-color="#000000" stroke-linecap="round" stroke-linejoin="round" stroke-width="4.3818"/>
 <rect x="9" y="5" width="2" height="2" fill="#aaaaaa" stop-color="#000000" stroke-linecap="round" stroke-linejoin="round" stroke-width="4"/>
</svg>
