<svg xmlns="http://www.w3.org/2000/svg" height="16px" viewBox="0 0 16 16" width="16px"><path d="m 8 0 c 0.554688 0 1 0.445312 1 1 v 6.5 s 0 0.5 0.5 0.5 s 0.5 -0.5 0.5 -0.5 v -4.5 c 0 -0.554688 0.445312 -1 1 -1 s 1 0.445312 1 1 v 8.5 c 0 0.5 0.5 0.5 0.5 0.5 l 1.792969 -1.707031 c 0.1875 -0.195313 0.445312 -0.300781 0.71875 -0.300781 c 1.082031 0.082031 1.144531 1.265624 0.695312 1.714843 l -3 3 c -0.707031 0.792969 -1.757812 1.289063 -2.707031 1.292969 h -6 c -3 0 -3 -3 -3 -3 v -8 c 0 -0.554688 0.445312 -1 1 -1 s 1 0.445312 1 1 v 3.5 s 0 0.5 0.5 0.5 s 0.5 -0.5 0.5 -0.5 v -6.5 c 0 -0.554688 0.445312 -1 1 -1 s 1 0.445312 1 1 v 5.5 s 0 0.5 0.5 0.5 s 0.5 -0.5 0.5 -0.5 v -6.5 c 0 -0.554688 0.445312 -1 1 -1 z m 0 0" fill="#aaaaaa"/></svg>
