<svg width="16" height="16" version="1.1" xmlns="http://www.w3.org/2000/svg">
 <path d="m8 0c-4.4 0-8 3.6-8 8s3.6 8 8 8 8-3.6 8-8-3.6-8-8-8zm0 2c-0.03 0 0.03-0.02 0.2 0.2 0.2 0.21 0.43 0.63 0.63 1.19 0.16 0.45 0.29 1 0.4 1.61h-2.46c0.11-0.6 0.24-1.16 0.4-1.61 0.2-0.56 0.44-0.98 0.62-1.2 0.18-0.21 0.24-0.19 0.21-0.19zm-2.67 0.63-0.04 0.08a12.8 12.8 0 0 0-0.56 2.29h-1.92a6 6 0 0 1 2.52-2.37zm5.34 0a6 6 0 0 1 2.53 2.37h-1.92a12.8 12.8 0 0 0-0.56-2.29l-0.04-0.08zm-8.57 4.37h2.45c-0.02 0.33-0.04 0.66-0.04 1s0.02 0.67 0.04 1h-2.46a6.04 6.04 0 0 1 0-2zm4.45 0h2.92c0.02 0.33 0.04 0.66 0.04 1s-0.02 0.67-0.04 1h-2.93c-0.02-0.33-0.04-0.66-0.04-1s0.02-0.67 0.04-1zm4.92 0h2.45a6.04 6.04 0 0 1 0 2h-2.45c0.02-0.33 0.04-0.66 0.04-1s-0.02-0.67-0.04-1zm-8.65 4h1.92c0.13 0.84 0.32 1.61 0.56 2.29l0.04 0.08a6 6 0 0 1-2.54-2.37zm3.96 0h2.46c-0.11 0.6-0.24 1.16-0.4 1.61-0.2 0.56-0.44 0.98-0.62 1.2-0.18 0.21-0.24 0.19-0.21 0.19s-0.03 0.02-0.2-0.2a4.11 4.11 0 0 1-0.63-1.19c-0.16-0.45-0.29-1-0.4-1.61zm4.5 0h1.92a6 6 0 0 1-2.52 2.37l0.04-0.08c0.24-0.68 0.43-1.45 0.56-2.29z" fill="#aaaaaa"/>
</svg>
