<svg xmlns="http://www.w3.org/2000/svg" width="16.01" height="16"><path fill="#aaaaaa" d="M7.807.008c-.334.038-.655.19-.893.428L.42 6.963c-.545.555-.545 1.55 0 2.104l6.53 6.525c.554.544 1.55.544 2.105 0l6.53-6.49c.567-.557.567-1.582 0-2.139L9.056.436a1.443 1.443 0 0 0-.106-.07A1.525 1.525 0 0 0 7.807.008zM7 4h2s.707-.013 1.445.352c.74.365 1.562 1.296 1.576 2.625v.016L11.98 9H6s.014.292.145.553c.13.262.188.447.855.447h3v2H7c-1.333 0-2.275-.814-2.645-1.552C3.986 9.709 4 9 4 9V7s-.014-.708.355-1.447C4.725 4.814 5.667 4 7 4zm0 2c-.667 0-.725.186-.855.448C6.014 6.709 6 7 6 7h4.021v-.002c-.007-.658-.194-.721-.46-.853C9.294 6.013 9 6 9 6z" color="#000" overflow="visible"/></svg>