<svg version="1.1" viewBox="0 0 16 16" xmlns="http://www.w3.org/2000/svg">
 <defs>
  <style id="current-color-scheme" type="text/css">.ColorScheme-Text {
        color:#aaaaaa;
      }</style>
 </defs>
 <path d="m6 1v2h-2c-1.662 0-3 1.338-3 3v4c0 1.662 1.338 3 3 3h4.0156a5 5 0 0 1-0.90234-2h-3.1133c-0.554 0-1-0.446-1-1v-4c0-0.554 0.446-1 1-1h2v2l4-3-4-3zm5 2v2h1a5 5 0 0 1 3 1c0-1.662-1.338-3-3-3h-1z" fill="#aaaaaa"/>
 <path d="m12 6c-2.2091 0-4 1.7909-4 4s1.7909 4 4 4 4-1.7909 4-4-1.7909-4-4-4zm0.10938 1h0.89062v6h-1.4961v-4.248l-1.2441 0.52148-0.5625-1.0723 2.4121-1.2012z" fill="#aaaaaa" stop-color="#000000" stroke-linecap="round" stroke-linejoin="round" stroke-width="5.3333"/>
</svg>
