<svg width="16px" height="16px" version="1.1" xmlns="http://www.w3.org/2000/svg">
 <path d="m4.1992 1.0117 3.6914 3.6914c0.49349 0.21072 0.9233 0.5816 1.2539 1.043 0.11672 0.16289 0.22074 0.3401 0.31445 0.52539l3.7598 3.7598c0.15868-0.46009 0.25-0.97409 0.25-1.5195 0-1.9336-1.1172-3.5-2.5-3.5v-4h-6.7695zm-1.2305 0.89453v14.105h4v-4.4492l0.36328-0.10547c0.83984-0.23438 1.6367-1.4219 1.6367-2.9453 0-0.2256-0.016939-0.44385-0.048828-0.6543l-5.9512-5.9512zm6.9844 6.9844c-0.11274 1.4924-0.88483 2.69-1.9844 3.2344v3.8867h3v-4c0.54252 0 1.0418-0.2445 1.4512-0.6543l-2.4668-2.4668z" fill="#aaaaaa"/>
 <g fill="#aaaaaa">
  <path d="m1.5312 0.46875-1.0625 1.0625 14 14 1.0625-1.0625z"/>
 </g>
</svg>
