<svg width="16" height="16" version="1.1" xmlns="http://www.w3.org/2000/svg">
 <g fill="#aaaaaa">
  <path d="m7.9922 0c-2.8395 0.0057-5.2866 1.9983-5.8691 4.7773-0.528 2.533 0.68905 5.0352 2.873 6.3262l0.0019531 0.89844c0.0011 0.5515 0.4485 0.99805 1 0.99805h4c0.55151 1e-6 0.9989-0.44654 1-0.99805l0.001953-0.90039c2.1829-1.293 3.4001-3.7971 2.8711-6.3301-0.58528-2.7804-3.0376-4.7705-5.8789-4.7715zm-0.51367 1.998a0.50005 0.50005 0 0 1 0.050781 0 0.50005 0.50005 0 0 1 0.074219 0.99023c-1.5297 0.32516-2.2448 1.2116-2.6191 2.6387a0.50074 0.50074 0 1 1-0.96875-0.25391c0.43698-1.6658 1.5192-2.9656 3.3809-3.3613a0.50005 0.50005 0 0 1 0.082031-0.013672z" color="#bebebe" overflow="visible"/>
  <path d="m5.9978 15c0 0.554 0.446 1 1 1h2c0.554 0 1-0.446 1-1v-1h-4z"/>
 </g>
</svg>
