<svg width="16" height="16" version="1.1" xmlns="http://www.w3.org/2000/svg">
 <path d="m13.643 2.3574-0.69336 0.69336c1.3128 1.3125 2.0505 3.0928 2.0508 4.9492-0.0081 2.0151-0.88426 3.929-2.4043 5.252l0.66992 0.76758c1.7367-1.5184 2.7334-3.7126 2.7344-6.0195-0.0076-2.1188-0.85539-4.1481-2.3574-5.6426zm-2.1191 2.1191-0.69531 0.69531c0.75018 0.75001 1.1717 1.7673 1.1719 2.8281-0.0063 1.1509-0.50802 2.2434-1.377 2.998l0.66406 0.75976c1.0858-0.94727 1.7101-2.3169 1.7129-3.7578-0.0064-1.3236-0.5374-2.5907-1.4766-3.5234zm-2.1094 2.1094-0.70703 0.70703c0.18755 0.1875 0.29293 0.44183 0.29297 0.70703-0.0015774 0.29112-0.12994 0.56709-0.35156 0.75586l0.65234 0.76172c0.44335-0.37961 0.69875-0.93394 0.69922-1.5176-7.08e-5 -0.53042-0.21084-1.0391-0.58594-1.4141z" fill="#aaaaaa" style="paint-order:stroke fill markers"/>
 <path d="m4 0c-0.55424 0-1 0.44576-1 1v14c0 0.55424 0.44576 1 1 1h8c0.55424 0 1-0.44576 1-1v-1h-2-1-5v-12h5 1 2v-1c0-0.55424-0.44576-1-1-1h-8z" fill="#aaaaaa"/>
</svg>
