<svg height="16" width="16" xmlns="http://www.w3.org/2000/svg"><path style="fill:#aaaaaa" d="M7.262.996a1.982 1.982 0 0 0-1.465.692A1.99 1.99 0 0 0 4.297 1c-1.11 0-2 .89-2 2H5v4.5a.499.499 0 1 0 1 0V3h6.02c-.344-.598-.98-1-1.723-1-.414 0-.8.125-1.121.34A1.982 1.982 0 0 0 7.262.996zM3 4v7.52A2.474 2.474 0 0 0 5.48 14h4.04a2.47 2.47 0 0 0 2.43-2h.257A2.808 2.808 0 0 0 15 9.207V6.793A2.808 2.808 0 0 0 12.207 4H7v3.5C7 8.332 6.332 9 5.5 9S4 8.332 4 7.5V4H3zm9 2h.207a.77.77 0 0 1 .793.793v2.414a.77.77 0 0 1-.793.793H12V6zM1 15v1h14v-1H1z"/></svg>
