<svg width="16px" height="16px" version="1.1" viewBox="0 0 16 16" xmlns="http://www.w3.org/2000/svg">
 <path d="m2 1c-1.108 0-2 0.892-2 2v7c0 1.108 0.892 2 2 2h2v-2h-2v-7h10v3h2v-3c0-1.108-0.892-2-2-2z" fill="#aaaaaa" fill-rule="evenodd" stop-color="#000000" stroke-linecap="round" stroke-width="2" style="paint-order:stroke fill markers"/>
 <path d="m9 7-1 1h-1c-1.108 0-2 0.892-2 2v4c0 1.108 0.892 2 2 2h7c1.108 0 2-0.892 2-2v-4c0-1.108-0.892-2-2-2h-1l-1-1zm0.82812 2h1.3438l1 1h1.8281v4h-7v-4h1.8281zm0.67188 1a1.5 1.5 0 0 0-1.5 1.5 1.5 1.5 0 0 0 1.5 1.5 1.5 1.5 0 0 0 1.5-1.5 1.5 1.5 0 0 0-1.5-1.5z" fill="#aaaaaa" fill-rule="evenodd" stop-color="#000000" stroke-linecap="round" stroke-width="2" style="paint-order:stroke fill markers"/>
</svg>
