<svg width="16px" height="16px" version="1.1" xmlns="http://www.w3.org/2000/svg">
 <path d="m14.285 0.59375c-0.38281 0.011719-0.74609 0.17188-1.0156 0.44141l-3.5352 3.5352 1.4141 1.4141 2.5352-2.5352c0.57422 0.27344 1.2578 0.15625 1.707-0.29297 0.58594-0.58594 0.58594-1.5352 0-2.1211-0.29297-0.29297-0.69141-0.45313-1.1055-0.44141zm-5.2578 4.6836-0.28125 0.28125 3.5313 3.5312c0.095119-0.09259 0.18939-0.18157 0.28516-0.27734l-3.5352-3.5352zm-1.3438 1.3438-7.1406 7.1445c0.65459 0.65097 4.9462 1.3001 10.629-3.6562l-3.4883-3.4883z" fill="#aaaaaa"/>
 <g fill="#aaaaaa">
  <path d="m1.5312 0.46875-1.0625 1.0625 14 14 1.0625-1.0625z"/>
 </g>
</svg>
