<svg height="16" width="16" xmlns="http://www.w3.org/2000/svg"><path d="M2 2.523v11s0 1.5 1.5 1.5h10c1.5 0 1.5-1.5 1.5-1.5v-11s0-1.5-1.5-1.5h-10c-1.5 0-1.5 1.5-1.5 1.5zm1.5-.5h10s.5 0 .5.5v2c0 .5-.5.5-.5.5h-10c-.5 0-.5-.5-.5-.5v-2s0-.5.5-.5zm-.314 4h1.625c.11 0 .187.08.187.19v1.625c0 .1-.077.18-.188.18H3.185a.181.181 0 0 1-.187-.19V6.203c0-.1.077-.18.188-.18zm3 0h1.625c.11 0 .187.08.187.19v1.625c0 .1-.077.18-.188.18H6.185a.181.181 0 0 1-.187-.19V6.203c0-.1.077-.18.188-.18zm3 0h1.625c.11 0 .187.08.187.19v1.625c0 .1-.077.18-.188.18H9.185a.181.181 0 0 1-.187-.19V6.203c0-.1.077-.18.188-.18zm3 0h1.625c.11 0 .187.08.187.19v1.625c0 .1-.077.18-.188.18h-1.625a.181.181 0 0 1-.187-.19V6.203c0-.1.077-.18.188-.18zm-9 3h1.625c.11 0 .187.08.187.19v1.625c0 .1-.077.18-.188.18H3.185a.181.181 0 0 1-.187-.19V9.203c0-.1.077-.18.188-.18zm3 0h1.625c.11 0 .187.08.187.19v1.625c0 .1-.077.18-.188.18H6.185a.181.181 0 0 1-.187-.19V9.203c0-.1.077-.18.188-.18zm3 0h1.625c.11 0 .187.08.187.19v1.625c0 .1-.077.18-.188.18H9.185a.181.181 0 0 1-.187-.19V9.203c0-.1.077-.18.188-.18zm3 0h1.625c.11 0 .187.08.187.19v1.625c0 .1-.077.18-.188.18h-1.625a.181.181 0 0 1-.187-.19V9.203c0-.1.077-.18.188-.18zm-9 3h1.625c.11 0 .187.08.187.19v1.625c0 .1-.077.18-.188.18H3.185a.181.181 0 0 1-.187-.19v-1.625c0-.1.077-.18.188-.18zm3 0h1.625c.11 0 .187.08.187.19v1.625c0 .1-.077.18-.188.18H6.185a.181.181 0 0 1-.187-.19v-1.625c0-.1.077-.18.188-.18zm3 0h1.625c.11 0 .187.08.187.19v1.625c0 .1-.077.18-.188.18H9.185a.181.181 0 0 1-.187-.19v-1.625c0-.1.077-.18.188-.18zm3 0h1.625c.11 0 .187.08.187.19v1.625c0 .1-.077.18-.188.18h-1.625a.181.181 0 0 1-.187-.19v-1.625c0-.1.077-.18.188-.18z" fill="#dedede"/></svg>