<svg width="16" height="16" version="1.1" xmlns="http://www.w3.org/2000/svg">
 <g transform="translate(1)" fill="#dedede">
  <path d="m4.994 0c-1.258 0.015-2.179-0.03-2.932 0.385a1.88 1.88 0 0 0-0.837 0.998c-0.165 0.437-0.225 0.96-0.225 1.617v10c0 0.658 0.06 1.179 0.225 1.617 0.164 0.439 0.461 0.789 0.837 0.996 0.753 0.415 1.674 0.372 2.932 0.387h5.012c1.258-0.015 2.179 0.03 2.932-0.385a1.88 1.88 0 0 0 0.837-0.998c0.165-0.438 0.225-0.96 0.225-1.617v-10c0-0.658-0.06-1.179-0.225-1.617a1.875 1.875 0 0 0-0.838-0.996c-0.752-0.415-1.673-0.372-2.931-0.387h-5.008zm6e-3 1h5c1.259 0.015 2.09 0.06 2.455 0.262 0.184 0.1 0.287 0.213 0.385 0.472 0.097 0.26 0.16 0.674 0.16 1.266v10c0 0.592-0.063 1.006-0.16 1.266-0.098 0.26-0.202 0.371-0.385 0.472-0.366 0.202-1.197 0.247-2.455 0.262h-5c-1.259-0.015-2.09-0.06-2.455-0.262-0.184-0.1-0.287-0.213-0.385-0.472-0.097-0.26-0.16-0.674-0.16-1.266v-10c0-0.592 0.063-1.006 0.16-1.266 0.098-0.26 0.203-0.371 0.387-0.472 0.366-0.202 1.193-0.247 2.453-0.262z" font-family="sans-serif" font-weight="400" overflow="visible" style="font-feature-settings:normal;font-variant-alternates:normal;font-variant-caps:normal;font-variant-ligatures:normal;font-variant-numeric:normal;font-variant-position:normal;isolation:auto;mix-blend-mode:normal;shape-padding:0;text-decoration-color:#000000;text-decoration-line:none;text-decoration-style:solid;text-indent:0;text-orientation:mixed;text-transform:none;white-space:normal"/>
  <path d="m7 4c-0.283 0-0.551 0.055-0.799 0.166a1.85 1.85 0 0 0-0.646 0.46v3e-3l-2e-3 2e-3a2.157 2.157 0 0 0-0.409 0.719 2.683 2.683 0 0 0-0.144 0.9c0 0.327 0.047 0.632 0.145 0.908 0.096 0.271 0.231 0.51 0.408 0.711l2e-3 2e-3c0.18 0.2 0.398 0.358 0.642 0.469l2e-3 2e-3h2e-3c0.247 0.106 0.517 0.158 0.8 0.158 0.281 0 0.549-0.052 0.796-0.158v-2e-3c0.245-0.11 0.458-0.268 0.635-0.469 0.181-0.201 0.321-0.44 0.418-0.713a2.7 2.7 0 0 0 0.144-0.908h6e-3c0-0.322-0.047-0.623-0.144-0.898a2.102 2.102 0 0 0-0.418-0.723 1.779 1.779 0 0 0-0.639-0.463 1.95 1.95 0 0 0-0.799-0.166zm0 1c0.552 0 1 0.56 1 1.25s-0.448 1.25-1 1.25-1-0.56-1-1.25 0.448-1.25 1-1.25zm0 4v2e-3c-2.998 8e-3 -3 1.998-3 1.998v0.998l3 2e-3c1.25 0 2.5-3e-3 3-4e-3v-0.998s-2e-3 -1.99-3-1.998zm0 1.002c1.997 4e-3 1.893 0.99 1.893 0.99 0 2e-3 0 6e-3 2e-3 8e-3h-3.79l2e-3 -6e-3s-0.104-0.986 1.893-0.99z" font-family="Ubuntu" font-weight="400" letter-spacing="0" overflow="visible" word-spacing="0" style="font-feature-settings:normal;font-variant-alternates:normal;font-variant-caps:normal;font-variant-ligatures:normal;font-variant-numeric:normal;font-variant-position:normal;isolation:auto;mix-blend-mode:normal;shape-padding:0;text-decoration-color:#000000;text-decoration-line:none;text-decoration-style:solid;text-indent:0;text-orientation:mixed;text-transform:none;white-space:normal"/>
  <path d="m11 1h1v14h-1z"/>
 </g>
</svg>
