<svg width="16.262" height="16" version="1.1" xmlns="http://www.w3.org/2000/svg">
 <path d="m8.338 1a5.868 5.868 0 0 0-1.512 0.212c-1.31 0.358-2.25 1.164-2.537 2.561a0.475 0.475 0 0 0 0.067 0.375 0.463 0.463 0 0 0 0.335 0.184l0.834 0.085c0.078 0.01 0.153 0.018 0.23 0.024l0.538 0.056c0.143 0.015 0.275-3e-3 0.379-0.08s0.16-0.197 0.195-0.341c0.021-0.087 0.052-0.161 0.084-0.235 0.069-0.127 0.147-0.245 0.242-0.347 0.103-0.098 0.23-0.177 0.38-0.237l7e-3 -4e-3c0.035-0.016 0.075-0.024 0.112-0.037a1.54 1.54 0 0 1 0.75-0.04c0.05 0.01 0.102 0.02 0.15 0.038l0.027 0.01a0.933 0.933 0 0 1 0.522 0.469 1.041 1.041 0 0 1 0.076 0.271c0.042 0.245 0.038 0.506 0.037 0.778-9e-3 0.016-8e-3 0.038-0.021 0.052-0.225 0.038-0.464 0.069-0.698 0.1-0.715 0.073-1.433 0.158-2.136 0.373h-2e-3c-0.72 0.224-1.357 0.595-1.817 1.225-0.079 0.108-0.127 0.224-0.19 0.336-0.015 0.029-0.033 0.056-0.048 0.086-0.373 0.723-0.441 1.51-0.268 2.32 0.19 0.88 0.722 1.535 1.582 1.842 0.179 0.063 0.357 0.102 0.536 0.136 0.709 0.138 1.422 0.068 2.119-0.17 0.498-0.168 0.892-0.484 1.257-0.824 0.054-0.043 0.114-0.08 0.166-0.125 0.01 0.01 0.022 0.027 0.032 0.037 0.222 0.331 0.474 0.646 0.795 0.907 0.133 0.109 0.261 0.18 0.406 0.181 0.144 0 0.273-0.072 0.406-0.183 0.412-0.347 0.818-0.694 1.229-1.04h2e-3c0.108-0.092 0.187-0.195 0.207-0.322 0.02-0.126-0.026-0.252-0.106-0.373a2.196 2.196 0 0 0-0.135-0.18c-0.018-0.023-0.03-0.046-0.048-0.069a2.24 2.24 0 0 1-0.362-0.64l-2e-3 -2e-3c-3e-3 -0.02-0.01-0.036-0.011-0.055a8.584 8.584 0 0 1-0.102-0.961c0.015-0.483 8e-3 -0.962 8e-3 -1.438v-0.132c-2e-3 -0.57 2e-3 -1.141-4e-3 -1.71-7e-3 -0.483-0.055-0.98-0.28-1.447-0.39-0.815-1.099-1.231-1.911-1.459a5.466 5.466 0 0 0-1.518-0.207zm0.916 5.488c4e-3 0.206 2e-3 0.432-8e-3 0.658 0 0.045-6e-3 0.088-8e-3 0.133-0.034 0.494-0.133 0.991-0.4 1.37a1.562 1.562 0 0 1-0.317 0.327c-0.065 0.049-0.141 0.09-0.219 0.129-0.047 0.023-0.09 0.05-0.142 0.068a1.063 1.063 0 0 1-0.447 0.06c-0.104-8e-3 -0.192-0.052-0.282-0.093a0.986 0.986 0 0 1-0.2-0.135c-0.047-0.04-0.092-0.079-0.13-0.129a0.937 0.937 0 0 1-0.197-0.646 1.223 1.223 0 0 1 0.133-0.857 1.41 1.41 0 0 1 0.156-0.225c0.016-0.019 0.035-0.037 0.053-0.055 0.052-0.056 0.105-0.112 0.166-0.16l0.021-0.015c0.264-0.189 0.577-0.278 0.906-0.334 0.299-0.047 0.61-0.084 0.914-0.096zm5.8 4.19a4.54 4.54 0 0 0-0.286 0.01c-0.56 0.03-1.105 0.155-1.592 0.478h-2e-3c-0.031 0.021-0.076 0.05-0.117 0.105a0.259 0.259 0 0 0-0.028 0.239 0.248 0.248 0 0 0 0.184 0.134c0.062 8e-3 0.106-2e-3 0.135-4e-3h2e-3c0.374-0.04 0.74-0.087 1.103-0.084h2e-3c0.22 0 0.424-0.01 0.617 0.043h2e-3v2e-3c0.09 0.023 0.132 0.049 0.15 0.073 0.02 0.024 0.033 0.063 0.032 0.152-3e-3 0.06-8e-3 0.118-0.018 0.17v2e-3c-0.09 0.494-0.282 0.962-0.474 1.441-0.013 0.029-0.034 0.068-0.041 0.125-8e-3 0.06 0.015 0.151 0.078 0.203a0.255 0.255 0 0 0 0.215 0.05c0.061-0.017 0.104-0.048 0.138-0.073h2e-3a0.79 0.79 0 0 0 0.088-0.074c0.68-0.666 0.998-1.494 1.018-2.428a0.446 0.446 0 0 0-0.088-0.287 0.482 0.482 0 0 0-0.25-0.158 2.976 2.976 0 0 0-0.87-0.12zm-14.753 0.298a0.237 0.237 0 0 0-0.092 2e-3 0.266 0.266 0 0 0-0.164 0.111 0.256 0.256 0 0 0-0.041 0.188 0.324 0.324 0 0 0 0.062 0.13c0.037 0.051 0.077 0.085 0.11 0.114v2e-3c0.376 0.333 0.774 0.637 1.19 0.914 2.039 1.361 4.3 2.007 6.81 2.024h2e-3c0.821-7e-3 1.705-0.101 2.576-0.3 1.316-0.292 2.563-0.769 3.703-1.509 0.073-0.048 0.153-0.094 0.229-0.158v-2e-3h2e-3a0.507 0.507 0 0 0 0.14-0.18 0.352 0.352 0 0 0-0.203-0.467 0.485 0.485 0 0 0-0.242-0.01l-2e-3 2e-3h-4e-3a1.654 1.654 0 0 0-0.283 0.098 15.493 15.493 0 0 1-5.39 1.121 16.024 16.024 0 0 1-3.87-0.371 15.79 15.79 0 0 1-4.023-1.465v-2e-3c-0.138-0.07-0.276-0.146-0.424-0.217h-2e-3a0.305 0.305 0 0 0-0.084-0.025zm13.037 0.399v4e-3h-8e-3zm1.676 2.142 4e-3 2e-3 -6e-3 4e-3c0-2e-3 0-4e-3 2e-3 -6e-3z" color="#000000" fill="#dedede" font-family="sans-serif" font-weight="400" overflow="visible" solid-color="#000000" style="font-feature-settings:normal;font-variant-alternates:normal;font-variant-caps:normal;font-variant-ligatures:normal;font-variant-numeric:normal;font-variant-position:normal;isolation:auto;mix-blend-mode:normal;shape-padding:0;text-decoration-color:#000000;text-decoration-line:none;text-decoration-style:solid;text-indent:0;text-orientation:mixed;text-transform:none;white-space:normal"/>
</svg>
