<svg width="16" height="16" version="1.1" xmlns="http://www.w3.org/2000/svg">
 <g fill="#dedede">
  <path d="m4 1c-1.108 0-2 0.892-2 2v11.102c0 1.108 0.892 2 2 2h1.5996c-0.57575-0.29041-1.0979-0.62441-1.5449-1h-0.054688c-0.554 0-1-0.446-1-1v-0.08398c-0.26939-0.32772-0.51476-0.65816-0.71094-0.98243-0.3839-0.63474-0.3839-1.4356 0-2.0703 0.19618-0.32426 0.44155-0.65471 0.71094-0.98242v-6.9824c0-0.554 0.446-1 1-1h8c0.554 0 1 0.446 1 1v4.707c0.35583 0.15495 0.68972 0.32774 1 0.51953v-5.2266c0-1.108-0.892-2-2-2z" stroke-linecap="round" stroke-linejoin="round" stroke-width=".97302"/>
  <path d="m9.5 8c-3.461 0-5.3567 1.8315-6.3555 3.4824a1.0001 1.0001 0 0 0 0 1.0352c0.99881 1.6509 2.8944 3.4824 6.3555 3.4824 3.461 0 5.3567-1.8315 6.3555-3.4824a1.0001 1.0001 0 0 0 0-1.0352c-0.99881-1.6509-2.8944-3.4824-6.3555-3.4824zm0 1c3.1429 0 4.5925 1.5 5.5 3-0.9075 1.5-2.3571 3-5.5 3-3.1429 0-4.5925-1.5-5.5-3 0.9075-1.5 2.3571-3 5.5-3z" color="#000000" color-rendering="auto" dominant-baseline="auto" image-rendering="auto" shape-rendering="auto" solid-color="#000000" stop-color="#000000" style="font-feature-settings:normal;font-variant-alternates:normal;font-variant-caps:normal;font-variant-east-asian:normal;font-variant-ligatures:normal;font-variant-numeric:normal;font-variant-position:normal;font-variation-settings:normal;inline-size:0;isolation:auto;mix-blend-mode:normal;shape-margin:0;shape-padding:0;text-decoration-color:#000000;text-decoration-line:none;text-decoration-style:solid;text-indent:0;text-orientation:mixed;text-transform:none;white-space:normal"/>
  <path d="m9.4512 10a2 2 0 0 0-1.9512 2 2 2 0 0 0 2 2 2 2 0 0 0 2-2 2 2 0 0 0-2-2 2 2 0 0 0-0.048828 0zm0.048828 1a1 1 0 0 1 1 1 1 1 0 0 1-1 1 1 1 0 0 1-1-1 1 1 0 0 1 1-1z"/>
 </g>
</svg>
