<svg height="16" width="16" xmlns="http://www.w3.org/2000/svg"><path d="M7 0C5.237 0 5 1 5 1.5s0 1 .25 1.5H1v5.5S2 8 3 8c.5 0 1 .5 1 1s-.5 1-1 1c-1 0-2-.5-2-.5V15h5.5S6 14 6 13c0-.5.5-1 1-1s1 .5 1 1c0 1-.5 2-.5 2H13v-4.25c.5.25 1 .25 1.5.25.546 0 1.5-.233 1.5-2 0-1.763-1-2-1.5-2s-1 0-1.5.25V3H8.75C9 2.5 9 2 9 1.5 9 .954 8.767 0 7 0zm0 1c.5 0 1 .5 1 1 0 1-.5 2-.5 2H8v.031l4-.002V8.5s1-.5 2-.5c.5 0 1 .5 1 1s-.5 1-1 1c-1 0-2-.5-2-.5v4.465H8.764c.232-.488.236-.977.236-1.465 0-.546-.233-1.5-2-1.5-1.763 0-2 1-2 1.5 0 .488.004.977.236 1.465H2.023V10.76c.493.238.985.24 1.477.24.546 0 1.5-.233 1.5-2 0-1.763-1-2-1.5-2-.492 0-.984.002-1.477.24V4.033L6 4.031V4h.5S6 3 6 2c0-.5.5-1 1-1z" fill="#dedede"/></svg>