<svg xmlns="http://www.w3.org/2000/svg" width="16" height="16" enable-background="new"><defs><filter id="a" color-interpolation-filters="sRGB"><feBlend mode="darken" in2="BackgroundImage"/></filter></defs><path style="marker:none" d="M10 1v1H6V1zm2 2c1 0 1 1 1 1v4.063c1.141.232 2 1.225 2 2.437v.5h-1v2h-1v-2h-1v2h-1v-2h-1v-.5c0-1.212.859-2.205 2-2.438V4H4v10h9c0 1-1 1-1 1H4c-1 0-1-1-1-1V4s0-1 1-1h2zm-1 2v2.563c-1.12.581-2 1.592-2 2.937V12h1v1H5V5h2z" color="#000" overflow="visible" fill="#dedede" enable-background="accumulate"/></svg>