<svg xmlns="http://www.w3.org/2000/svg" height="16" width="16"><path d="M4.5 4c-.277 0-.5.223-.5.5v7c0 .277.223.5.5.5h7c.277 0 .5-.223.5-.5v-7c0-.277-.223-.5-.5-.5zM5 5h6v6H5z" fill="#dedede"/><rect width="2" height="3" x="4" rx=".5" ry=".5" fill="#dedede"/><rect width="2" height="3" x="7" rx=".5" ry=".5" fill="#dedede"/><rect width="2" height="3" x="10" rx=".5" ry=".5" fill="#dedede"/><rect width="2" height="3" x="4" y="13" rx=".5" ry=".5" fill="#dedede"/><rect width="2" height="3" x="7" y="13" rx=".5" ry=".5" fill="#dedede"/><rect width="2" height="3" x="10" y="13" rx=".5" ry=".5" fill="#dedede"/><rect width="2" height="3" x="-6" y="13" rx=".5" ry=".5" transform="rotate(-90)" fill="#dedede"/><rect width="2" height="3" x="-9" y="13" rx=".5" ry=".5" transform="rotate(-90)" fill="#dedede"/><rect width="2" height="3" x="-12" y="13" rx=".5" ry=".5" transform="rotate(-90)" fill="#dedede"/><rect width="2" height="3" x="-6" rx=".5" ry=".5" transform="rotate(-90)" fill="#dedede"/><rect width="2" height="3" x="-9" rx=".5" ry=".5" transform="rotate(-90)" fill="#dedede"/><rect width="2" height="3" x="-12" rx=".5" ry=".5" transform="rotate(-90)" fill="#dedede"/><path d="M4 2c-1.108 0-2 .892-2 2v8c0 1.108.892 2 2 2h8c1.108 0 2-.892 2-2V4c0-1.108-.892-2-2-2zm.5 1h7c.831 0 1.5.669 1.5 1.5v7c0 .831-.669 1.5-1.5 1.5h-7c-.831 0-1.5-.669-1.5-1.5v-7C3 3.669 3.669 3 4.5 3z" fill="#dedede"/></svg>