<svg height="16" width="16" xmlns="http://www.w3.org/2000/svg"><path d="M6.5 1C3.474 1 1 3.474 1 6.5S3.474 12 6.5 12a5.46 5.46 0 0 0 3.112-.975l3.681 3.682a1 1 0 1 0 1.414-1.414l-3.681-3.682A5.46 5.46 0 0 0 12 6.5C12 3.474 9.526 1 6.5 1zm0 1.25a4.25 4.25 0 0 1 4.25 4.25 4.25 4.25 0 0 1-4.25 4.25A4.25 4.25 0 0 1 2.25 6.5 4.25 4.25 0 0 1 6.5 2.25z" fill="#dedede" font-family="sans-serif" font-weight="400" overflow="visible" style="line-height:normal;font-variant-ligatures:normal;font-variant-position:normal;font-variant-caps:normal;font-variant-numeric:normal;font-variant-alternates:normal;font-feature-settings:normal;text-indent:0;text-align:start;text-decoration-line:none;text-decoration-style:solid;text-decoration-color:#000;text-transform:none;text-orientation:mixed;shape-padding:0;isolation:auto;mix-blend-mode:normal" color="#000"/></svg>