<svg width="24" height="24" fill="none" viewBox="0 0 24 24" xmlns="http://www.w3.org/2000/svg"><path d="M8.204 4.82a.75.75 0 0 1 .634 1.36A7.51 7.51 0 0 0 4.5 12.991c0 4.148 3.358 7.51 7.499 7.51s7.499-3.362 7.499-7.51a7.51 7.51 0 0 0-4.323-6.804.75.75 0 1 1 .637-1.358 9.01 9.01 0 0 1 5.186 8.162c0 4.976-4.029 9.01-9 9.01C7.029 22 3 17.966 3 12.99a9.01 9.01 0 0 1 5.204-8.17ZM12 2.496a.75.75 0 0 1 .743.648l.007.102v7.5a.75.75 0 0 1-1.493.102l-.007-.102v-7.5a.75.75 0 0 1 .75-.75Z" fill="#d7e2ff"/></svg>