<?xml version="1.0" encoding="UTF-8" standalone="no"?>
<svg
   viewbox="0 0 200 200"
   version="1.1"
   id="svg4"
   sodipodi:docname="system-shutdown.svg"
   width="64"
   height="64"
   inkscape:version="1.1.1 (3bf5ae0d25, 2021-09-20, custom)"
   xmlns:inkscape="http://www.inkscape.org/namespaces/inkscape"
   xmlns:sodipodi="http://sodipodi.sourceforge.net/DTD/sodipodi-0.dtd"
   xmlns="http://www.w3.org/2000/svg"
   xmlns:svg="http://www.w3.org/2000/svg">
  <defs
     id="defs8" />
  <sodipodi:namedview
     id="namedview6"
     pagecolor="#ffffff"
     bordercolor="#666666"
     borderopacity="1.0"
     inkscape:pageshadow="2"
     inkscape:pageopacity="0.0"
     inkscape:pagecheckerboard="0"
     showgrid="false"
     inkscape:zoom="13.2"
     inkscape:cx="32.007576"
     inkscape:cy="31.969697"
     inkscape:window-width="1920"
     inkscape:window-height="1006"
     inkscape:window-x="0"
     inkscape:window-y="0"
     inkscape:window-maximized="1"
     inkscape:current-layer="svg4"
     showguides="true" />
  <path
     d="M 2,32 C 2,10.4 10.4,2 32,2 53.6,2 62,10.4 62,32 62,53.6 53.6,62 32,62 10.4,62 2,53.6 2,32"
     id="path2"
     style="stroke-width:0.3;fill:#f01346;fill-opacity:1;stroke:none;opacity:1" />
  <path
     id="path1167"
     style="opacity:1;fill:#ffffff;fill-opacity:1;stroke-width:0.964866"
     d="M 38 15.03125 L 38 19.353516 A 14 14 0 0 1 46 32 A 14 14 0 0 1 32 46 A 14 14 0 0 1 18 32 A 14 14 0 0 1 26 19.378906 L 26 15.076172 A 18 18 0 0 0 14 32 A 18 18 0 0 0 32 50 A 18 18 0 0 0 50 32 A 18 18 0 0 0 38 15.03125 z " />
  <rect
     style="opacity:1;fill:#ffffff;fill-opacity:1;stroke-width:0.894427"
     id="rect1041"
     width="4"
     height="16"
     x="30"
     y="14" />
</svg>
