<svg height="16" width="16" xmlns="http://www.w3.org/2000/svg"><path d="M1.75 1a.748.748 0 0 0-.75.75v13.5c0 .415.335.75.75.75h12.5c.416 0 .75-.335.75-.75V1.75a.748.748 0 0 0-.75-.75zM2 2h1v1H2zm2.5 0h7c.277 0 .5.223.5.5v5c0 .277-.223.5-.5.5h-7a.499.499 0 0 1-.5-.5v-5c0-.277.223-.5.5-.5zM13 2h1v1h-1zM2 4h1v1H2zm11 0h1v1h-1zM2 6h1v1H2zm11 0h1v1h-1zM2 8h1v1H2zm11 0h1v1h-1zM4.5 9h7c.277 0 .5.223.5.5v5c0 .277-.223.5-.5.5h-7a.499.499 0 0 1-.5-.5v-5c0-.277.223-.5.5-.5zM2 10h1v1H2zm11 0h1v1h-1zM2 12h1v1H2zm11 0h1v1h-1zM2 14h1v1H2zm11 0h1v1h-1z" fill="#dedede" overflow="visible" style="marker:none" color="#bebebe"/></svg>