<?xml version="1.0" encoding="UTF-8"?>
<svg width="16" height="16" version="1.1" xmlns="http://www.w3.org/2000/svg">
 <path d="m8 4c2.21 0 4 1.79 4 4v0.5c0 0.83-0.67 1.5-1.5 1.5-0.44 0-0.86-0.2-1.15-0.53-0.35 0.32-0.83 0.53-1.35 0.53-1.1 0-2-0.9-2-2s0.9-2 2-2 2 0.9 2 2v0.5c0 0.28 0.22 0.5 0.5 0.5s0.5-0.22 0.5-0.5v-0.5c0-1.66-1.34-3-3-3s-3 1.34-3 3 1.34 3 3 3h2.5s0.5 0 0.5 0.5c-0.03 0.5-0.5 0.5-0.5 0.5h-2.5c-2.21 0-4-1.79-4-4s1.79-4 4-4zm0 3c-0.55 0-1 0.45-1 1s0.45 1 1 1 1-0.45 1-1-0.45-1-1-1z" fill="#555"/>
 <path d="m3 1c-1.108 0-2 0.892-2 2v10c0 1.108 0.892 2 2 2h10c1.108 0 2-0.892 2-2v-10c0-1.108-0.892-2-2-2h-10zm0 2h10v10h-10v-10z" fill="#555" stroke-linecap="round" stroke-linejoin="round" stroke-width="2"/>
</svg>
