<svg width="16" height="16" version="1.1" xmlns="http://www.w3.org/2000/svg">
 <path d="m5.5 4c2 0 2 3 0 3s-2-3 0-3zm3 5c0.45 0 0.83 0.21 1.07 0.47 0.24 0.27 0.74 1.27 0.85 1.38 0.1 0.11 0.15 0.15 0.33 0.15h1.25v1h-1.25c-0.45 0-0.83-0.211-1.07-0.471-0.24-0.27-0.74-1.269-0.85-1.379-0.1-0.11-0.15-0.15-0.33-0.15s-0.23 0.04-0.33 0.15c-0.11 0.11-0.61 1.109-0.85 1.379-0.24 0.26-0.62 0.471-1.07 0.471h-2.25v-1h2.25c0.18 0 0.23-0.04 0.33-0.15 0.11-0.11 0.61-1.11 0.85-1.38 0.24-0.26 0.62-0.47 1.07-0.47z" fill="#aaaaaa"/>
 <path d="m3 0c-1.108 0-2 0.892-2 2v12c0 1.108 0.892 2 2 2h10c1.108 0 2-0.892 2-2v-9l-5-5zm0 2h6v2c0 1.108 0.892 2 2 2h2v8h-10z" fill="#aaaaaa" fill-rule="evenodd" stop-color="#000000" stroke-linecap="round" stroke-linejoin="round" stroke-width="2" style="paint-order:stroke fill markers"/>
</svg>
