<svg version="1.1" viewBox="0 0 22 22" xmlns="http://www.w3.org/2000/svg">
 <defs>
  <style id="current-color-scheme" type="text/css">.ColorScheme-Text {
        color:#dedede;
      }</style>
 </defs>
  <path
     class="ColorScheme-Text"
     d="M 10.990234 2 A 9 9 0 0 0 2 11 A 9 9 0 0 0 11 20 A 9 9 0 0 0 20 11 A 9 9 0 0 0 11 2 A 9 9 0 0 0 10.990234 2 z M 10.90625 4 A 7 7 0 0 1 11 4 A 7 7 0 0 1 18 11 A 7 7 0 0 1 11 18 A 7 7 0 0 1 4 11 A 7 7 0 0 1 10.90625 4 z M 15 7 L 11 8.3320312 C 9.6037715 8.3320312 8.3320313 9.6036572 8.3320312 11 L 7 15 L 11 13.667969 C 12.396228 13.667969 13.667969 12.396228 13.667969 11 L 15 7 z M 11 9.6679688 C 11.698148 9.6679688 12.332031 10.301828 12.332031 11 C 12.332008 11.698057 11.698092 12.332031 11 12.332031 C 10.301885 12.332031 9.6679687 11.698057 9.6679688 11 C 9.6679343 10.301828 10.301863 9.6679688 11 9.6679688 z " fill="currentColor"/>
</svg>
