<svg version="1.1" viewBox="0 0 22 22" xmlns="http://www.w3.org/2000/svg">
 <defs>
  <style id="current-color-scheme" type="text/css">.ColorScheme-Text {
        color:#dedede;
      }</style>
 </defs>
 <path class="ColorScheme-Text" d="m17 13.016-4 4v2h2l4-4zm-0.31055 1.6895 0.5918 0.5918-2.9688 3-0.59375-0.59375z" fill="currentColor"/>
 <path d="m7 3c-1.662 0-3 1.338-3 3v10c0 1.662 1.338 3 3 3h5v-1h-5c-1.108 0-2-0.892-2-2v-10c0-1.108 0.892-2 2-2h5v5h5v3h1v-4l-5-5h-1zm6 1.4141 3.5859 3.5859h-3.5859z" class="ColorScheme-Text" fill="currentColor"/>
</svg>
