<svg version="1.1" viewBox="0 0 22 22" xmlns="http://www.w3.org/2000/svg">
 <defs>
  <style id="current-color-scheme" type="text/css">.ColorScheme-Text {
        color:#dedede;
      }</style>
 </defs>
 <path class="ColorScheme-Text" d="m6.5 13a3.5 3.5 0 0 1 3.5 3.5 3.5 3.5 0 0 1-3.5 3.5 3.5 3.5 0 0 1-3.5-3.5 3.5 3.5 0 0 1 3.5-3.5zm0.5 1.5-2 2 2 2z" fill="currentColor"/>
 <path d="m7 3c-1.662 0-3 1.338-3 3v6h1v-6c0-1.108 0.892-2 2-2h8c1.108 0 2 0.892 2 2v7h-5v5h-1v1h1 1l5-5v-1-7c0-1.662-1.338-3-3-3h-8zm6 11h3.5859l-3.5859 3.5859v-3.5859z" class="ColorScheme-Text" fill="currentColor"/>
</svg>
