<svg version="1.1" viewBox="0 0 22 22" xmlns="http://www.w3.org/2000/svg">
 <defs>
  <style id="current-color-scheme" type="text/css">.ColorScheme-Text { color:#dedede; }</style>
 </defs>
 <path d="m6 9c-1.662 0-3 1.338-3 3v4c0 1.662 1.338 3 3 3h8c1.662 0 3-1.338 3-3v-4c0-1.662-1.338-3-3-3h-8zm0 1h8c1.108 0 2 0.892 2 2v4c0 1.108-0.892 2-2 2h-8c-1.108 0-2-0.892-2-2v-4c0-1.108 0.892-2 2-2z" class="ColorScheme-Text" fill="currentColor"/>
 <path d="m16 2c-2.77 0-5 2.23-5 5v2h1v-2c0-2.216 1.784-4 4-4s4 1.784 4 4v2h1v-2c0-2.77-2.23-5-5-5z" class="ColorScheme-Text" fill="currentColor"/>
</svg>
