<svg xmlns="http://www.w3.org/2000/svg" viewBox="0 0 22 22">
  <defs id="defs3051">
    <style type="text/css" id="current-color-scheme">
      .ColorScheme-Text {
        color:#dedede;
      }
      </style>
  </defs>
 <path 
    style="fill:currentColor;fill-opacity:1;stroke:none" 
	d="m4 3v1 7 2h2v-2h-1v-7h12v7h-1v2h2v-2-8h-13-1m4 8v2h2v-2h-2m4 0v2h2v-2h-2m-6 3v2h2v-2h-2m4 0v2h2v-2h-2m4 0v2h2v-2h-2m-10 3v2h1 1v-2h-2m4 0v2h2v-2h-2m4 0v2h2v-2h-2m4 0v2h1 1v-2h-2"
    class="ColorScheme-Text"
    />
</svg>
