<svg xmlns="http://www.w3.org/2000/svg" viewBox="0 0 22 22">
  <defs id="defs3051">
    <style type="text/css" id="current-color-scheme">
      .ColorScheme-Text {
        color:#dedede;
      }
      </style>
  </defs>
 <path 
     style="fill:currentColor;fill-opacity:1;stroke:none" 
     d="M 11 3 A 8 7.9999914 0 0 0 10.193359 3.0410156 C 7.9781007 3.2609055 6.0390519 4.3804736 4.7324219 6.0273438 C 4.5681981 6.2343306 4.4148513 6.44885 4.2714844 6.671875 A 8 7.9999914 0 0 0 4.2578125 6.6953125 C 4.1186928 6.9133575 3.9889588 7.1372489 3.8710938 7.3691406 A 8 7.9999914 0 0 0 3.8691406 7.375 C 3.7565457 7.5969449 3.6544255 7.8251922 3.5625 8.0585938 A 8 7.9999914 0 0 0 3.5058594 8.2128906 C 3.4362008 8.401092 3.3720515 8.5904937 3.3164062 8.7851562 A 8 7.9999914 0 0 0 3.2539062 9.0214844 C 3.2090992 9.198613 3.1675988 9.376901 3.1347656 9.5585938 A 8 7.9999914 0 0 0 3.0917969 9.8398438 C 3.0692022 9.9963134 3.048625 10.153178 3.0351562 10.3125 A 8 7.9999914 0 0 0 3 11 A 8 7.9999914 0 0 0 3.0410156 11.806641 C 3.2609055 14.0219 4.3804736 15.960948 6.0273438 17.267578 C 6.2343306 17.431802 6.44885 17.585149 6.671875 17.728516 A 8 7.9999914 0 0 0 6.6953125 17.742188 C 6.9133575 17.881307 7.1372489 18.011041 7.3691406 18.128906 C 7.3691406 18.128906 7.3710938 18.128906 7.3710938 18.128906 A 8 7.9999914 0 0 0 7.375 18.130859 C 7.5969449 18.243454 7.8251922 18.345575 8.0585938 18.4375 A 8 7.9999914 0 0 0 8.2128906 18.494141 C 8.401092 18.563799 8.5904937 18.627949 8.7851562 18.683594 A 8 7.9999914 0 0 0 9.0214844 18.746094 C 9.198613 18.790901 9.376901 18.832401 9.5585938 18.865234 A 8 7.9999914 0 0 0 9.8398438 18.908203 C 9.9963134 18.930798 10.153178 18.951375 10.3125 18.964844 A 8 7.9999914 0 0 0 11 19 A 8 7.9999914 0 0 0 12 18.929688 L 12 17.921875 A 7 7 0 0 1 11 18 C 10.763555 18 10.53107 17.987519 10.300781 17.964844 A 7 7 0 0 1 9.6777344 17.871094 A 7 7 0 0 1 9.609375 17.861328 C 9.609375 17.861328 9.6074219 17.861328 9.6074219 17.861328 A 7 7 0 0 1 4.765625 14.181641 A 7 7 0 0 1 4.7539062 14.160156 A 7 7 0 0 1 4.4863281 13.560547 C 4.4752533 13.532247 4.4657947 13.503089 4.4550781 13.474609 A 7 7 0 0 1 4.2734375 12.927734 C 4.2554901 12.864605 4.2408237 12.800182 4.2246094 12.736328 A 7 7 0 0 1 4.1210938 12.279297 C 4.1038531 12.185357 4.0915996 12.089377 4.078125 11.994141 A 7 7 0 0 1 4.0292969 11.589844 C 4.0131018 11.394712 4 11.199454 4 11 C 4 10.763555 4.0124807 10.53107 4.0351562 10.300781 A 7 7 0 0 1 4.1289062 9.6777344 A 7 7 0 0 1 4.1386719 9.6074219 A 7 7 0 0 1 7.8183594 4.765625 A 7 7 0 0 1 7.8398438 4.7539062 A 7 7 0 0 1 8.4394531 4.4863281 C 8.4677527 4.4752533 8.4969107 4.4657947 8.5253906 4.4550781 A 7 7 0 0 1 9.0722656 4.2734375 C 9.1353948 4.2554901 9.1998178 4.2408237 9.2636719 4.2246094 A 7 7 0 0 1 9.7207031 4.1210938 C 9.8146433 4.1038531 9.9106235 4.0915996 10.005859 4.078125 A 7 7 0 0 1 10.410156 4.0292969 C 10.605288 4.0131018 10.800546 4 11 4 A 7 7 0 0 1 11.699219 4.0351562 A 7 7 0 0 1 12.322266 4.1289062 A 7 7 0 0 1 12.390625 4.1386719 C 12.390625 4.1386719 12.392578 4.1386719 12.392578 4.1386719 A 7 7 0 0 1 17.234375 7.8183594 A 7 7 0 0 1 17.238281 7.8242188 C 17.24092 7.8294115 17.243468 7.8346434 17.246094 7.8398438 A 7 7 0 0 1 17.513672 8.4394531 C 17.524747 8.4677527 17.534205 8.4969107 17.544922 8.5253906 A 7 7 0 0 1 17.726562 9.0722656 C 17.74451 9.1353948 17.759176 9.1998178 17.775391 9.2636719 A 7 7 0 0 1 17.878906 9.7207031 C 17.896147 9.8146433 17.9084 9.9106235 17.921875 10.005859 A 7 7 0 0 1 17.970703 10.410156 C 17.986898 10.605288 18 10.800546 18 11 A 7 7 0 0 1 17.919922 12 L 18.927734 12 A 8 7.9999914 0 0 0 19 11 C 19 10.73027 18.986759 10.463892 18.960938 10.201172 A 8 7.9999914 0 0 0 18.958984 10.193359 C 18.739094 7.9781007 17.619526 6.0390519 15.972656 4.7324219 C 15.765669 4.5681981 15.55115 4.4148513 15.328125 4.2714844 C 15.326152 4.270216 15.32424 4.2688449 15.322266 4.2675781 A 8 7.9999914 0 0 0 15.304688 4.2578125 C 15.086641 4.1186928 14.862751 3.9889588 14.630859 3.8710938 C 14.630859 3.8710938 14.628906 3.8710938 14.628906 3.8710938 A 8 7.9999914 0 0 0 14.625 3.8691406 C 14.403055 3.7565457 14.174808 3.6544255 13.941406 3.5625 A 8 7.9999914 0 0 0 13.787109 3.5058594 C 13.598908 3.4362008 13.409506 3.3720515 13.214844 3.3164062 A 8 7.9999914 0 0 0 12.978516 3.2539062 C 12.801387 3.2090992 12.623099 3.1675988 12.441406 3.1347656 A 8 7.9999914 0 0 0 12.160156 3.0917969 C 12.003686 3.0692022 11.846822 3.048625 11.6875 3.0351562 A 8 7.9999914 0 0 0 11 3 z M 11 5 C 7.676 5 5 7.676 5 11 L 8 11 C 8 9.338 9.338 8 11 8 L 11 5 z M 11 9 C 9.892 9 9 9.892 9 11 C 9 12.108 9.892 13 11 13 L 11 12 C 10.446 12 10 11.554 10 11 C 10 10.446 10.446 10 11 10 C 11.554 10 12 10.446 12 11 L 13 11 C 13 9.892 12.108 9 11 9 z M 14 13 L 14 14 L 13 14 L 13 15 L 14 15 L 14 17 L 13 17 L 13 18 L 14 18 L 14 19 L 15 19 L 15 18 L 17 18 L 17 19 L 18 19 L 18 18 L 19 18 L 19 17 L 18 17 L 18 15 L 19 15 L 19 14 L 18 14 L 18 13 L 17 13 L 17 14 L 15 14 L 15 13 L 14 13 z M 15 15 L 17 15 L 17 17 L 15 17 L 15 15 z "
     class="ColorScheme-Text"
     />
</svg>
