<svg xmlns="http://www.w3.org/2000/svg" viewBox="0 0 22 22">
  <defs id="defs3051">
    <style type="text/css" id="current-color-scheme">
      .ColorScheme-Text {
        color:#dedede;
      }
      </style>
  </defs>
 <path 
    style="fill:currentColor;fill-opacity:1;stroke:none" 
    d="m10.5 1033.3622c-1.385 0-2.5 1.115-2.5 2.5v2.5l-5 5 6 6 7-7-3-3v-3.5c0-1.385-1.115-2.5-2.5-2.5m0 1c.831 0 1.5.669 1.5 1.5v2.5l-2-2-1 1v-1.5c0-.831.669-1.5 1.5-1.5m-.5 3.4141l4.535156 4.5371c-3.53535 4.0497-5.535933-1.9511-10.121094 1.0488l5.585938-5.5859m7.5 3.5859c0 0-1.5 2.6716-1.5 3.5 0 .8284.67157 1.5 1.5 1.5.82843 0 1.5-.6716 1.5-1.5 0-.8284-1.5-3.5-1.5-3.5z" transform="translate(0-1030.3622)"
    class="ColorScheme-Text"
    />  
</svg>
