<svg xmlns="http://www.w3.org/2000/svg" viewBox="0 0 22 22">
  <defs id="defs3051">
    <style type="text/css" id="current-color-scheme">
      .ColorScheme-Text {
        color:#dedede;
      }
      .ColorScheme-Highlight {
        color:#3daee9;
      }
      </style>
  </defs>
 <path 
     style="fill:currentColor;fill-opacity:1;stroke:none" 
     d="M 3 9 L 3 12 L 6 12 L 6 11 L 7 11 L 7 10 L 6 10 L 6 9 L 3 9 z M 16 9 L 16 10 L 11 10 L 11 11 L 16 11 L 16 12 L 19 12 L 19 9 L 16 9 z M 4 10 L 5 10 L 5 11 L 4 11 L 4 10 z M 17 10 L 18 10 L 18 11 L 17 11 L 17 10 z "
     class="ColorScheme-Text"
     />
 <path 
     style="fill:currentColor;fill-opacity:1;stroke:none" 
     d="M 7 8 L 7 12 L 11 12 L 11 8 L 7 8 z M 8 9 L 10 9 L 10 11 L 8 11 L 8 9 z "
     class="ColorScheme-Highlight"
     />
</svg>
