<svg version="1.1" viewBox="0 0 22 22" xmlns="http://www.w3.org/2000/svg">
 <defs>
  <style id="current-color-scheme" type="text/css">.ColorScheme-Text { color:#dedede; }</style>
 </defs>
 <path d="m10.961 2c-0.01883 0.0015-0.036118 0.011995-0.054688 0.015625-0.03086 0.00594-0.060204 0.011552-0.089844 0.023438-0.03213 0.012815-0.060513 0.03113-0.089844 0.050781-0.01632 0.010899-0.035461 0.01429-0.050781 0.027344l-8.373 7.1348c-0.21084 0.17965-0.23629 0.49424-0.056641 0.70508 0.17965 0.21084 0.49424 0.23629 0.70508 0.056641l1.0488-0.89453v6.8809c0 1.662 1.338 3 3 3h8c1.662 0 3-1.338 3-3v-6.8809l1.0488 0.89453c0.21084 0.17965 0.52542 0.1542 0.70508-0.056641 0.17965-0.21084 0.1542-0.52543-0.05664-0.70508l-2.6973-2.2988v-3.4531c0-0.277-0.223-0.5-0.5-0.5h-1c-0.277 0-0.5 0.223-0.5 0.5v1.75l-3.6758-3.1328c-0.01532-0.013054-0.034462-0.016445-0.050781-0.027344-0.02933-0.019651-0.057714-0.037967-0.089844-0.050781-0.02965-0.011886-0.058984-0.017496-0.089844-0.023438-0.03149-0.00616-0.06168-0.011693-0.09375-0.011719-0.01317 1.04e-5 -0.025953-0.0049462-0.039062-0.0039062zm0.039062 1.1543 6 5.1133v7.7324c0 1.108-0.892 2-2 2h-2v-3c0-1.108-0.892-2-2-2s-2 0.892-2 2v3h-2c-1.108 0-2-0.892-2-2v-7.7324l6-5.1133z" class="ColorScheme-Text" fill="currentColor"/>
</svg>
