<svg xmlns="http://www.w3.org/2000/svg" viewBox="0 0 22 22">
  <defs id="defs3051">
    <style type="text/css" id="current-color-scheme">
      .ColorScheme-Text {
        color:#dedede;
      }
      </style>
  </defs>
 <path 
     style="fill:currentColor;fill-opacity:1;stroke:none" 
     d="M 15 4 L 3 7.4179688 L 3 8.4609375 L 3 13 L 3 13.582031 L 4 13.867188 L 4 16 L 4 16.300781 L 10 18 L 10 17 L 10 15.576172 L 15 17 L 15 15.957031 L 15 5.0429688 L 15 4 z M 19.029297 4.4277344 L 18.257812 5.0585938 C 19.395072 6.8308338 19.99974 8.8922969 20 10.998047 C 19.996 13.101927 19.38858 15.160517 18.25 16.929688 L 19.033203 17.572266 C 20.314753 15.619026 20.99831 13.334187 21 10.998047 C 20.996 8.6628469 20.311497 6.3794244 19.029297 4.4277344 z M 14 5.328125 L 14 15.671875 L 4 12.824219 L 4 8.1757812 L 14 5.328125 z M 16.689453 6.34375 L 15.908203 6.9824219 C 16.619993 8.2012119 16.99667 9.5866269 17 10.998047 C 16.998 12.409947 16.621596 13.796065 15.910156 15.015625 L 16.691406 15.65625 C 17.544636 14.25208 17.99719 12.641117 18 10.998047 C 17.996 9.3561169 17.542683 7.74659 16.689453 6.34375 z M 2 7.703125 L 1 7.9882812 L 1 8 L 1 9 L 1 12 L 1 13 L 1 13.011719 L 2 13.296875 L 2 13 L 2 12.253906 L 2 8.7460938 L 2 8 L 2 7.703125 z M 5 14.152344 L 9 15.291016 L 9 16.716797 L 5 15.583984 L 5 14.152344 z "
     class="ColorScheme-Text"
     />
</svg>
