<?xml version="1.0" encoding="UTF-8" standalone="no"?>
<!-- Created with Inkscape (http://www.inkscape.org/) -->
<svg id="svg3521" xmlns:rdf="http://www.w3.org/1999/02/22-rdf-syntax-ns#" xmlns="http://www.w3.org/2000/svg" height="22" viewBox="0 0 22 22" width="22" version="1.1" xmlns:cc="http://creativecommons.org/ns#" xmlns:dc="http://purl.org/dc/elements/1.1/">
 <defs id="defs4339">
  <style id="current-color-scheme" type="text/css">.ColorScheme-Text {
        color:#dedede;
      }</style>
 </defs>
 <metadata id="metadata3526">
  <rdf:RDF>
   <cc:Work rdf:about="">
    <dc:format>image/svg+xml</dc:format>
    <dc:type rdf:resource="http://purl.org/dc/dcmitype/StillImage"/>
    <dc:title/>
   </cc:Work>
  </rdf:RDF>
 </metadata>
 <g id="layer1" transform="translate(0 -1030.4)">
  <path id="rect4314" class="ColorScheme-Text" style="fill:currentColor" d="m3 5v1h16v-1h-16zm8.801 2.0996c-1.142-0.0148-2.211 0.6908-3.0686 1.9004h-5.7324v1h5.1328c-0.4347 0.852-0.7718 1.871-1.0039 3h-4.1289v1h3.9512c-0.0348 0.267-0.0705 0.534-0.0918 0.807 0.0156-0.109 0.0325-0.215 0.0508-0.323 0.0575-0.16 0.1241-0.322 0.1836-0.484h7.0512a1.9977 1.9977 0 0 0 1.328 1.322 1.9977 1.9977 0 0 0 2.488 -1.322h1.039v-1h-0.996a1.9977 1.9977 0 0 0 -1.369 -1.5l-0.008-0.002a1.9977 1.9977 0 0 0 -2.488 1.334 1.9977 1.9977 0 0 0 -0.041 0.168h-6.6273c0.4324-1.092 0.9164-2.14 1.4727-3h6.0646l0.002 0.002c0.285 0.327 0.58 0.697 0.885 1.115-0.147-0.399-0.315-0.768-0.493-1.117h3.598v-1h-4.201c-0.471-0.663-1.002-1.1818-1.578-1.5039l-0.121-0.0645c-0.423-0.214-0.86-0.3254-1.299-0.33v-0.002zm0.189 0.8926c0.605 0.0676 1.271 0.3976 1.996 1.0078h-4.2829c0.6629-0.7019 1.4149-1.1054 2.2869-1.0078zm4.067 4.4648a0.97972 0.97972 0 0 1 0.255 0.035l0.026 0.008a0.97972 0.97972 0 0 1 0.652 1.217 0.97972 0.97972 0 0 1 -1.213 0.66 0.97972 0.97972 0 0 1 -0.668 -1.209 0.97972 0.97972 0 0 1 0.948 -0.711zm-8.9593 2.957a1.9977 1.9977 0 0 0 -1.959 1.418 1.9977 1.9977 0 0 0 -0.041 0.168h-2.0977v1h2.1445a1.9977 1.9977 0 0 0 1.3262 1.322 1.9977 1.9977 0 0 0 2.4902 -1.322h10.039v-1h-9.9961a1.9977 1.9977 0 0 0 -1.3691 -1.5l-0.0078-0.002a1.9977 1.9977 0 0 0 -0.5293 -0.084zm-0.0411 1.043a0.97972 0.97972 0 0 1 0.2559 0.035l0.0254 0.008a0.97972 0.97972 0 0 1 0.6523 1.217 0.97972 0.97972 0 0 1 -1.2129 0.66 0.97972 0.97972 0 0 1 -0.6679 -1.209 0.97972 0.97972 0 0 1 0.9472 -0.711z" transform="translate(0,1030.4)"/>
 </g>
</svg>
