<svg xmlns="http://www.w3.org/2000/svg" viewBox="0 0 22 22">
  <defs id="defs3051">
    <style type="text/css" id="current-color-scheme">
      .ColorScheme-Text {
        color:#dedede;
      }
      </style>
  </defs>
 <path 
    style="fill:currentColor;fill-opacity:1;stroke:none" 
    d="m 572.2358,586.12673 a 2.0001775,9.0008017 44.989465 0 0 -7.44473,5.09893 2.0001775,9.0008017 44.989465 0 0 -3.5427,4.11427 c 1.07597,0.3428 1.91461,1.1816 2.25728,2.258 a 2.0001775,9.0008017 44.989465 0 0 4.11296,-3.54387 2.0001775,9.0008017 44.989465 0 0 4.94884,-7.77933 2.0001775,9.0008017 44.989465 0 0 -0.33203,-0.14853 m -11.513,10.65853 c -3.99989,1.07227 -0.99997,3.6048 -3.99989,5.33453 3.99989,0 5.99982,-2.00186 5.99982,-3.3368 0,-0.66546 0.068,-1.88973 -1.99993,-2.0004"
     transform="translate(-553.72253,-583.11926)"
    class="ColorScheme-Text"
    />  
</svg>
