<svg xmlns="http://www.w3.org/2000/svg" viewBox="0 0 22 22">
  <defs id="defs3051">
    <style type="text/css" id="current-color-scheme">
      .ColorScheme-Text {
        color:#dedede;
      }
      </style>
  </defs>
 <path 
    style="fill:currentColor;fill-opacity:1;stroke:none" 
    d="m 11.515627,6 -5.1953127,9.002 -2.3164063,-4.0059 -0.00391,0 c 0,0 -2.9908787,0.066 -2.99999995,0 l 0,1 2.41601565,0 2.9062499,5 c 0,0 5.7825404,-9.9915 5.7714844,-10 l 7.906254,0 0,1 1,0 0,-1 0,-1 c -3.161458,0 -9.484375,0 -9.484375,0 z m 3.484375,3 c -2.209139,0 -4,1.7909 -4,4 0,2.2091 1.790861,4 4,4 1.149118,0 2.241964,-0.4977 3,-1.3613 l 0,1.3613 1,0 0,-4 0,-4 -1,0 0,1.3613 C 17.241966,9.4977 16.14912,9.0018 15.000002,9 Z m 0,1 c 1.656854,0 3,1.3431 3,3 0,1.6569 -1.343146,3 -3,3 -1.656854,0 -3,-1.3431 -3,-3 0,-1.6569 1.343146,-3 3,-3 z"
    class="ColorScheme-Text"
    />  
</svg>
