<svg version="1.1" viewBox="0 0 22 22" xmlns="http://www.w3.org/2000/svg">
 <defs>
  <style id="current-color-scheme" type="text/css">.ColorScheme-Text {
        color:#dedede;
      }</style>
 </defs>
 <path class="ColorScheme-Text" d="m16.5 13c-1.933 0-3.5 1.567-3.5 3.5s1.567 3.5 3.5 3.5 3.5-1.567 3.5-3.5-1.567-3.5-3.5-3.5zm-0.5 1h1v2h2v1h-2v2h-1v-2h-2v-1h2z" fill="currentColor"/>
 <path d="m4 3c-0.55218 1.143e-4 -0.99989 0.44782-1 1v7.0703c-1.75e-5 0.2652 0.10548 0.51947 0.29297 0.70703l7.7773 7.7793c0.39055 0.39047 1.0235 0.39047 1.4141 0l0.39062-0.39062a4.5 4.5 0 0 1-0.51367-0.90039l-0.58398 0.58398-7.7773-7.7793v-7.0703h7.0703l7.7793 7.7773-0.58398 0.58398a4.5 4.5 0 0 1 0.90039 0.51367l0.39062-0.39062c0.39047-0.39055 0.39047-1.0235 0-1.4141l-7.7793-7.7773c-0.18756-0.18749-0.44183-0.29299-0.70703-0.29297h-7.0703z" class="ColorScheme-Text" fill="currentColor"/>
 <path d="m7.9512 6a2 2 0 0 0-1.9512 2 2 2 0 0 0 2 2 2 2 0 0 0 2-2 2 2 0 0 0-2-2 2 2 0 0 0-0.048828 0zm0.048828 1a1 1 0 0 1 1 1 1 1 0 0 1-1 1 1 1 0 0 1-1-1 1 1 0 0 1 1-1z" class="ColorScheme-Text" fill="currentColor"/>
</svg>
