<svg version="1.1" viewBox="0 0 22 22" xmlns="http://www.w3.org/2000/svg"><style type="text/css" id="current-color-scheme">.ColorScheme-Text { color: #dedede; }.ColorScheme-NegativeText { color: #da4453; }</style>
    <path d="m7.1210938 5 1 1h9.8789062v2h-7.878906l3 3h4.878906v4.878906l1 1v-10.878906c0-0.553998-0.446002-1-1-1h-10.878906zm-3.8769532 0.3652344c-0.1456632 0.1736455-0.2441406 0.3893501-0.2441406 0.6347656v2 3 6c0 0.553998 0.446002 1 1 1h11.878906l-1-1h-10.878906v-6h4.8789062l-3-3h-1.8789062v-1.8789062l-0.7558594-0.7558594zm1.7558594 8.6347656v1h3v-1h-3zm4 0v1h3.878906l-1-1h-2.878906z" fill="currentColor" class="ColorScheme-Text"/>
    <path d="M 3.7070312,3 3,3.7070312 18.292969,19 19,18.292969 Z" fill="currentColor" class="ColorScheme-NegativeText"/>
</svg>
