<svg version="1.1" viewBox="0 0 22 22" xmlns="http://www.w3.org/2000/svg">
 <defs>
  <style id="current-color-scheme" type="text/css">.ColorScheme-Text {
        color:#dedede;
      }</style>
 </defs>
 <rect class="ColorScheme-Text" x="7" y="5" width="12" height="1" ry="0" fill="currentColor"/>
 <path d="m4 4c-0.554 0-1 0.446-1 1v1c0 0.554 0.446 1 1 1h1c0.554 0 1-0.446 1-1v-1c0-0.554-0.446-1-1-1zm0 1h1v1h-1z" class="ColorScheme-Text" fill="currentColor"/>
 <rect class="ColorScheme-Text" x="7" y="11" width="12" height="1" ry="0" fill="currentColor"/>
 <path d="m4 10c-0.554 0-1 0.446-1 1v1c0 0.554 0.446 1 1 1h1c0.554 0 1-0.446 1-1v-1c0-0.554-0.446-1-1-1zm0 1h1v1h-1z" class="ColorScheme-Text" fill="currentColor"/>
 <rect class="ColorScheme-Text" x="7" y="17" width="12" height="1" ry="0" fill="currentColor"/>
 <path d="m4 16c-0.554 0-1 0.446-1 1v1c0 0.554 0.446 1 1 1h1c0.554 0 1-0.446 1-1v-1c0-0.554-0.446-1-1-1zm0 1h1v1h-1z" class="ColorScheme-Text" fill="currentColor"/>
</svg>
