<svg version="1.1" viewBox="0 0 22 22" xmlns="http://www.w3.org/2000/svg"><style type="text/css" id="current-color-scheme">.ColorScheme-Text { color: #dedede; }</style>
    <path d="m3 6v10h16v-10zm3 1h10v1h1v1h1v4h-1v1h-1v1h-10v-1h-1v-1h-1v-4h1v-1h1zm5 1c-1.6568542 0-3 1.343146-3 3s1.3431458 3 3 3c1.656854 0 3-1.343146 3-3s-1.343146-3-3-3zm-0.05078 1h2e-3c0.01628-1.99e-4 0.03255-1.99e-4 0.04883 0 1.104569 0 2 0.895431 2 2s-0.895431 2-2 2c-1.1045695 0-2-0.895431-2-2-3.498e-4 -1.085038 0.8645304-1.97245 1.949219-2z" fill="currentColor" class="ColorScheme-Text"/>
</svg>
