<svg version="1.1" viewBox="0 0 22 22" xmlns="http://www.w3.org/2000/svg">
 <defs>
  <style id="current-color-scheme" type="text/css">.ColorScheme-Text {
        color:#dedede;
      }</style>
 </defs>
 <path class="ColorScheme-Text" d="m16.5 13c-1.933 0-3.5 1.567-3.5 3.5s1.567 3.5 3.5 3.5 3.5-1.567 3.5-3.5-1.567-3.5-3.5-3.5zm-0.5 1h1v2h2v1h-2v2h-1v-2h-2v-1h2z" fill="currentColor"/>
 <path class="ColorScheme-Text" d="m7 10v5h1v-2h4v2h0.26367a4.5 4.5 0 0 1 0.73633-1.3223v-3.6777h-1v2h-4v-2h-1z" fill="currentColor"/>
 <path class="ColorScheme-Text" fill="currentColor" d="m5 3c-1.662 0-3 1.338-3 3v10c0 1.662 1.338 3 3 3h7v-1h-7c-1.108 0-2-0.892-2-2v-8c0-1.108 0.892-2 2-2h11c1.108 0 2 0.892 2 2v4h1v-6c0-1.662-1.338-3-3-3h-11z"/>
</svg>
