<svg version="1.1" viewBox="0 0 22 22" xmlns="http://www.w3.org/2000/svg">
    <style id="current-color-scheme" type="text/css">.ColorScheme-Text { color: #dedede; }</style>
    <path class="ColorScheme-Text" d="m5 3v8h-2v8h14v-8h-11v-7h12v15h1v-16h-14zm2 2v1h6v-1h-6zm0 2v1h4v-1h-4zm-3 5h12v6h-12v-6zm2.9609 0.53906c-0.35618-0.005389-0.72096 0.17089-0.99609 0.45898-0.25847 0.27064-0.40712 0.56463-0.54102 0.79883-0.1395 0.244-0.21928 0.46998-0.30078 0.64648l-0.021484 0.048829-0.089844 0.39844c-0.060631 0.26971 0.042698 0.54916 0.3125 0.60938 0.26971 0.06063 0.60384-0.12082 0.66406-0.39062 0.02833-0.29704 0.20139-0.56242 0.30469-0.81641 0.14521-0.25399 0.26462-0.46748 0.39453-0.60352 0.18542-0.19415 0.24057-0.1584 0.25586-0.15234 0.015292 0.0061 0.1158 0.07454 0.15039 0.33984 0.00405 0.0311-0.0060199 0.18626-0.029297 0.30859-0.036624 0.11469-0.047591 0.24884-0.068359 0.35742 0.0041099 0.43961 0.11451 1.0681 1.0039 0.95703s1.037-0.67986 1.1523-0.8457c0.072757 0.08508 0.14273 0.16996 0.24414 0.27539 0.14374 0.14944 0.30945 0.31111 0.56641 0.41211 0.25695 0.101 0.64875 0.07004 0.91016-0.13477 0.04952-0.0388 0.057559-0.07052 0.099609-0.10938 0.04353 0.07058 0.05189 0.090479 0.10742 0.17578 0.15064 0.23246 0.46156 0.29815 0.69336 0.14648 0.23246-0.15064 0.29815-0.46156 0.14648-0.69336-0.18284-0.28087-0.28142-0.45771-0.34961-0.57812-0.0341-0.06021-0.052709-0.10085-0.10937-0.17578-0.028331-0.03747-0.06119-0.09225-0.18164-0.1582-0.12046-0.06595-0.38629-0.069097-0.51562 0.007813-0.11286 0.09243-0.19032 0.2399-0.27734 0.34961-0.03156 0.05098-0.065774 0.093328-0.16016 0.17578-0.09968 0.02886-0.12522-0.024258-0.20898-0.11133-0.1006-0.10458-0.20902-0.23936-0.32422-0.36719-0.057602-0.06391-0.11488-0.12683-0.19531-0.19141-0.08043-0.06457-0.18615-0.15682-0.40625-0.16602-0.26742-0.01118-0.45252 0.12318-0.57227 0.23242s-0.20303 0.22157-0.2793 0.33008c-0.15253 0.21702-0.31117 0.43768-0.30664 0.43359 4e-3 -0.0036-0.011783-0.002353-0.017578-0.001953 0.012862-0.05233 0.017073-0.0583 0.03125-0.13281 0.032491-0.17077 0.06959-0.37784 0.037109-0.62695-0.066097-0.50694-0.32058-0.9593-0.77344-1.1387-0.11321-0.044842-0.23088-0.066563-0.34961-0.06836zm-1.9609 3.4609v1h7v-1h-7zm8 0v1h2v-1h-2z" fill="currentColor"/>
    <path d="m14 5v1h3v-1z" fill="#da4453"/>
</svg>
