<svg width="32" height="32" version="1.1" xmlns="http://www.w3.org/2000/svg">
 <path d="m16 1c-8.2768 0-15 6.7232-15 15 0 8.2768 6.7232 15 15 15 8.2768 0 15-6.7232 15-15 0-8.2768-6.7232-15-15-15z" color="#000000" fill="#5294e2" opacity=".99" overflow="visible" stroke-width="1.0343"/>
 <path d="m16 6a6 6 0 0 0-6 6h2a4 4 0 0 1 3.9395-4 4 4 0 0 1 0.060547 0 4 4 0 0 1 4 4 4 4 0 0 1-4 4v2a6 6 0 0 0 6-6 6 6 0 0 0-6-6z" fill="#ffffff" stroke-linecap="round" stroke-linejoin="round" stroke-miterlimit="2" stroke-width="2.1818"/>
 <circle cx="16" cy="24" r="2" fill="#ffffff" stroke-linecap="round" stroke-linejoin="round" stroke-miterlimit="2" stroke-width="2"/>
 <rect x="15" y="16" width="2" height="4" fill="#ffffff" stroke-linecap="round" stroke-linejoin="round" stroke-miterlimit="2" stroke-width="1.4142"/>
</svg>
