<svg width="32" height="32" version="1.1" viewBox="0 0 32 32" xmlns="http://www.w3.org/2000/svg">
 <path d="m6 16a10 10 0 0 1 10-10 10 10 0 0 1 10 10 10 10 0 0 1-10 10 10 10 0 0 1-10-10z" fill="#ffcc33"/>
 <path d="m16 2c-0.554 0-1 0.446-1 1v1c0 0.554 0.446 1 1 1s1-0.446 1-1v-1c0-0.554-0.446-1-1-1zm-9.1914 3.8066c-0.25562 0-0.51312 0.0971-0.70898 0.29297-0.39174 0.39174-0.39174 1.0243 0 1.416l0.70898 0.70703c0.39174 0.39174 1.0223 0.39174 1.4141 0 0.39174-0.39174 0.39174-1.0243 0-1.416l-0.70703-0.70703c-0.19587-0.19587-0.45141-0.29297-0.70703-0.29297zm18.385 0c-0.25562 0-0.51312 0.0971-0.70898 0.29297l-0.70703 0.70703c-0.39174 0.39174-0.39174 1.0243 0 1.416 0.39174 0.39174 1.0243 0.39174 1.416 0l0.70703-0.70703c0.39174-0.39174 0.39174-1.0243 0-1.416-0.19587-0.19587-0.45141-0.29297-0.70703-0.29297zm-22.193 9.1934c-0.554 0-1 0.446-1 1s0.446 1 1 1h1c0.554 0 1-0.446 1-1s-0.446-1-1-1zm25 0c-0.554 0-1 0.446-1 1s0.446 1 1 1h1c0.554 0 1-0.446 1-1s-0.446-1-1-1zm-20.484 8.4844c-0.25562 0-0.51116 0.0971-0.70703 0.29297l-0.70898 0.70703c-0.39174 0.39174-0.39174 1.0243 0 1.416 0.39174 0.39174 1.0243 0.39174 1.416 0l0.70703-0.70898c0.39174-0.39174 0.39174-1.0223 0-1.4141-0.19587-0.19587-0.45141-0.29297-0.70703-0.29297zm16.969 0c-0.25562 0-0.51116 0.0971-0.70703 0.29297-0.39174 0.39174-0.39174 1.0223 0 1.4141l0.70703 0.70898c0.39174 0.39174 1.0243 0.39174 1.416 0 0.39174-0.39174 0.39174-1.0243 0-1.416l-0.70703-0.70703c-0.19587-0.19587-0.45336-0.29297-0.70898-0.29297zm-8.4844 3.5156c-0.554 0-1 0.446-1 1v1c0 0.554 0.446 1 1 1s1-0.446 1-1v-1c0-0.554-0.446-1-1-1z" fill="#ffcc33"/>
</svg>
