<svg width="32" height="32" version="1.1" viewBox="0 0 32 32" xmlns="http://www.w3.org/2000/svg">
 <path d="m14.98 3a10 10 0 0 0-9.9805 10 10 10 0 0 0 10 10h9a7 7 0 0 0 7-7 7 7 0 0 0-6.834-6.998 10 10 0 0 0-9.166-6.002 10 10 0 0 0-0.019531 0z" fill="#ececec" style="fill:#e6e6e6"/>
 <path d="m7.9062 15a7 7 0 0 0-6.9062 7 7 7 0 0 0 7 7 7 7 0 0 0 0.09375 0h5.9062c2.7614 0 5-2.2386 5-5 0-2.6494-2.0619-4.8129-4.668-4.9844a7 7 0 0 0-6.332-4.0156 7 7 0 0 0-0.09375 0z" opacity=".9" style="fill:#f2f2f2"/>
</svg>
