<?xml version="1.0" encoding="UTF-8"?>
<svg width="64" height="64" version="1.1" xmlns="http://www.w3.org/2000/svg" xmlns:cc="http://creativecommons.org/ns#" xmlns:dc="http://purl.org/dc/elements/1.1/" xmlns:rdf="http://www.w3.org/1999/02/22-rdf-syntax-ns#" xmlns:xlink="http://www.w3.org/1999/xlink">
 <metadata>
  <rdf:RDF>
   <cc:Work rdf:about="">
    <dc:format>image/svg+xml</dc:format>
    <dc:type rdf:resource="http://purl.org/dc/dcmitype/StillImage"/>
    <dc:title/>
   </cc:Work>
  </rdf:RDF>
 </metadata>
 <defs>
  <linearGradient id="linearGradient881" x1="81" x2="81" y1="53" y2="105" gradientTransform="translate(-49 -41)" gradientUnits="userSpaceOnUse">
   <stop stop-color="#2e2e2e" offset="0"/>
   <stop stop-color="#666" offset="1"/>
  </linearGradient>
 </defs>
 <g transform="matrix(.86614 0 0 .86614 4.2835 4.0669)">
  <g>
   <path d="m14.499 0.5h35c1.1998 0 1.4834 1.1788 2.1656 2.1656l7.4903 10.834c0.68227 0.98687-0.62185 2-1.8216 2h-50.669c-1.1998 0-2.5024-1.0131-1.8202-2l7.4889-10.834c0.68219-0.98693 0.96588-2.1656 2.1656-2.1656z" fill="#dbdcde"/>
   <path d="m15.24 0.5h33.521c1.1491 0 1.394 1.1986 2.0741 2.1656l7.5032 10.669c0.68011 0.96703-0.92505 2.1656-2.0741 2.1656h-48.527c-1.1491 0-2.7542-1.1986-2.0741-2.1656l7.5032-10.669c0.68011-0.96703 0.92505-2.1656 2.0741-2.1656z" fill="#e2e3e7"/>
   <path d="m8 13c-1.6447 0-3 1.3553-3 3v44c0 1.6447 1.3553 3 3 3h48c1.6447 0 3-1.3553 3-3v-44c0-1.6447-1.3553-3-3-3zm0 1h48c1.108 0 2 0.892 2 2v44c0 1.108-0.892 2-2 2h-48c-1.108 0-2-0.892-2-2v-44c0-1.108 0.892-2 2-2z" color="#000000" color-rendering="auto" dominant-baseline="auto" fill="#b0b0b0" image-rendering="auto" shape-rendering="auto" solid-color="#000000" stop-color="#000000" stroke="#696969" stroke-width="2" style="font-feature-settings:normal;font-variant-alternates:normal;font-variant-caps:normal;font-variant-east-asian:normal;font-variant-ligatures:normal;font-variant-numeric:normal;font-variant-position:normal;font-variation-settings:normal;inline-size:0;isolation:auto;mix-blend-mode:normal;paint-order:stroke markers fill;shape-margin:0;shape-padding:0;text-decoration-color:#000000;text-decoration-line:none;text-decoration-style:solid;text-indent:0;text-orientation:mixed;text-transform:none;white-space:normal"/>
   <path d="m8 14h48c1.108 0 2 0.892 2 2v44c0 1.108-0.892 2-2 2h-48c-1.108 0-2-0.892-2-2v-44c0-1.108 0.892-2 2-2z" color="#000000" color-rendering="auto" dominant-baseline="auto" fill="url(#linearGradient881)" image-rendering="auto" shape-rendering="auto" solid-color="#000000" stop-color="#000000" style="font-feature-settings:normal;font-variant-alternates:normal;font-variant-caps:normal;font-variant-east-asian:normal;font-variant-ligatures:normal;font-variant-numeric:normal;font-variant-position:normal;font-variation-settings:normal;inline-size:0;isolation:auto;mix-blend-mode:normal;paint-order:stroke markers fill;shape-margin:0;shape-padding:0;text-decoration-color:#000000;text-decoration-line:none;text-decoration-style:solid;text-indent:0;text-orientation:mixed;text-transform:none;white-space:normal"/>
  </g>
  <circle cx="32" cy="24" r="2" fill="#72d406"/>
 </g>
</svg>
