<svg xmlns="http://www.w3.org/2000/svg" viewBox="0 0 22 22">
  <defs id="defs3051">
    <style type="text/css" id="current-color-scheme">
      .ColorScheme-Text {
        color:#dedede;
      }
      </style>
  </defs>
 <path 
     style="fill:currentColor;fill-opacity:1;stroke:none" 
     d="M 3 3.9941406 L 3 4.9941406 L 3 12.994141 L 3 13.994141 L 3.0117188 13.994141 L 3 14.005859 L 6.9921875 17.998047 L 7.0039062 17.998047 L 8.4101562 17.998047 L 10.001953 17.998047 L 10.001953 16.998047 L 9.0019531 16.998047 L 7.9980469 16.998047 L 7.9980469 12.998047 L 6.9980469 12.998047 L 3.9980469 12.998047 L 3.9980469 4.9980469 L 17.998047 4.9980469 L 17.998047 10 L 19.001953 10 C 19.002675 10.01886 19.003906 7.9934091 19.003906 4.9980469 L 19.003906 3.9980469 L 19 3.9980469 L 19 3.9941406 L 3 3.9941406 z M 17.001953 10 L 16.001953 11 L 11.001953 16 L 11.001953 17 L 11.001953 18 L 13.001953 18 L 14.001953 17 L 18.001953 13 L 19.001953 12 L 17.001953 10 z M 16.720703 11.6875 L 17.283203 12.28125 L 12.314453 17.28125 L 11.720703 16.6875 L 16.720703 11.6875 z "
	 class="ColorScheme-Text"
     />
</svg>
