<svg xmlns="http://www.w3.org/2000/svg" viewBox="0 0 22 22">
  <defs id="defs3051">
    <style type="text/css" id="current-color-scheme">
      .ColorScheme-Text {
        color:#dedede;
      }
      .ColorScheme-Highlight {
        color:#3daee9;
      }
      </style>
  </defs>
  <g transform="translate(-421.71429,-525.79074)">
 <path 
     style="fill:currentColor;fill-opacity:1;stroke:none" 
	 d="M 12 7 L 12 15 L 12 19 L 13 19 L 13 17.638672 A 4 4 0 0 0 16 19 A 4 4 0 0 0 20 15 A 4 4 0 0 0 16 11 A 4 4 0 0 0 13 12.361328 L 13 7 L 12 7 z M 6 11 A 4 4 0 0 0 2 15 A 4 4 0 0 0 6 19 A 4 4 0 0 0 9 17.638672 L 9 19 L 10 19 L 10 11 L 9 11 L 9 12.361328 A 4 4 0 0 0 6 11 z M 6 12 A 3 3 0 0 1 9 15 A 3 3 0 0 1 6 18 A 3 3 0 0 1 3 15 A 3 3 0 0 1 6 12 z M 16 12 A 3 3 0 0 1 19 15 A 3 3 0 0 1 16 18 A 3 3 0 0 1 13 15 A 3 3 0 0 1 16 12 z "
     transform="translate(421.71429,525.79074)"
      class="ColorScheme-Text"
     />
 <path 
     style="fill:currentColor;fill-opacity:1;stroke:none" 
	 d="m 434.71429,528.79074 3,4 3,-4 z"
	 class="ColorScheme-Highlight"
     />
 </g>
</svg>
