<svg xmlns="http://www.w3.org/2000/svg" viewBox="0 0 22 22">
  <defs id="defs3051">
    <style type="text/css" id="current-color-scheme">
      .ColorScheme-Text {
        color:#dedede;
      }
      .ColorScheme-Highlight {
        color:#3daee9;
      }
      </style>
  </defs>
 <path 
    style="fill:currentColor;fill-opacity:1;stroke:none" 
	d="M 7.6875 4.6113281 L 2.6875 8.6113281 L 3.3125 9.390625 L 8.3125 5.390625 L 7.6875 4.6113281 z M 9.3847656 4.6816406 L 8.6152344 5.3203125 L 13.615234 11.320312 L 14.384766 10.681641 L 9.3847656 4.6816406 z M 18.583984 4.7226562 L 14.583984 10.722656 L 15.416016 11.277344 L 19.416016 5.2773438 L 18.583984 4.7226562 z M 2 9.9980469 L 2 16.998047 L 3 16.998047 L 3 9.9980469 L 2 9.9980469 z M 3 16.998047 L 3 17.998047 L 9 17.998047 L 9 16.998047 L 3 16.998047 z M 13.609375 11.689453 L 9.609375 16.689453 L 10.390625 17.3125 L 14.390625 12.3125 L 13.609375 11.689453 z M 15.390625 11.689453 L 14.609375 12.3125 L 18.609375 17.3125 L 19.390625 16.689453 L 15.390625 11.689453 z "
	class="ColorScheme-Text"
    />
  <path
    style="fill:currentColor;fill-opacity:1;stroke:none" 
    d="M 8.5 3 A 1.4999959 1.5 0 0 0 7 4.5 A 1.4999959 1.5 0 0 0 8.5 6 A 1.4999959 1.5 0 0 0 10 4.5 A 1.4999959 1.5 0 0 0 8.5 3 z M 19.5 3 A 1.4999959 1.5 0 0 0 18 4.5 A 1.4999959 1.5 0 0 0 19.5 6 A 1.4999959 1.5 0 0 0 21 4.5 A 1.4999959 1.5 0 0 0 19.5 3 z M 2.5 8 A 1.4999959 1.5 0 0 0 1 9.5 A 1.4999959 1.5 0 0 0 2.5 11 A 1.4999959 1.5 0 0 0 4 9.5 A 1.4999959 1.5 0 0 0 2.5 8 z M 14.5 10 A 1.4999959 1.5 0 0 0 13 11.5 A 1.4999959 1.5 0 0 0 14.5 13 A 1.4999959 1.5 0 0 0 16 11.5 A 1.4999959 1.5 0 0 0 14.5 10 z M 2.5 16 A 1.4999959 1.5 0 0 0 1 17.5 A 1.4999959 1.5 0 0 0 2.5 19 A 1.4999959 1.5 0 0 0 4 17.5 A 1.4999959 1.5 0 0 0 2.5 16 z M 9.5 16 A 1.4999959 1.5 0 0 0 8 17.5 A 1.4999959 1.5 0 0 0 9.5 19 A 1.4999959 1.5 0 0 0 11 17.5 A 1.4999959 1.5 0 0 0 9.5 16 z M 19.5 16 A 1.4999959 1.5 0 0 0 18 17.5 A 1.4999959 1.5 0 0 0 19.5 19 A 1.4999959 1.5 0 0 0 21 17.5 A 1.4999959 1.5 0 0 0 19.5 16 z "
	class="ColorScheme-Highlight"
     id="path10" />
</svg>
