<svg xmlns="http://www.w3.org/2000/svg" viewBox="0 0 22 22">
  <defs id="defs3051">
    <style type="text/css" id="current-color-scheme">
      .ColorScheme-Text {
        color:#dedede;
      }
      </style>
  </defs>
 <path 
    style="fill:currentColor;fill-opacity:1;stroke:none" 
	d="M 18.513672 3.0078125 A 2 9 45 0 0 11.068359 8.1054688 A 2 9 45 0 0 7.5253906 12.21875 C 8.6014506 12.56139 9.4405631 13.400494 9.7832031 14.476562 A 2 9 45 0 0 13.896484 10.933594 A 2 9 45 0 0 18.845703 3.15625 A 2 9 45 0 0 18.513672 3.0078125 z M 16.5 11 C 16.01355 12.70252 14.823758 14.166141 14.298828 15.337891 C 14.115128 15.686281 14 16.07729 14 16.5 C 14 17.885 15.115 19 16.5 19 C 17.885 19 19 17.885 19 16.5 C 19 16.07729 18.886825 15.686281 18.703125 15.337891 C 18.178205 14.166141 16.98645 12.70252 16.5 11 z M 7 13.664062 C 2.99999 14.735864 6 17.26795 3 19 C 7.00339 19 9 16.99918 9 15.664062 C 9 14.999182 9.0676 13.774622 7 13.664062 z M 17.642578 14.859375 C 18.161428 15.219975 18.5 15.81754 18.5 16.5 C 18.5 17.608 17.608 18.5 16.5 18.5 C 15.81752 18.5 15.219975 18.161458 14.859375 17.642578 C 15.182895 17.867438 15.57446 18 16 18 C 17.108 18 18 17.108 18 16 C 18 15.57446 17.867438 15.182895 17.642578 14.859375 z "
    class="ColorScheme-Text"
    />  
</svg>
