<svg viewBox="0 0 22 22" xmlns="http://www.w3.org/2000/svg"><style type="text/css" id="current-color-scheme">
      .ColorScheme-Text {
        color:#dedede;
      }
      </style><g class="ColorScheme-Text" fill="currentColor"><path d="m6 14c0 2.77 2.23 5 5 5s5-2.23 5-5z" fill-rule="evenodd" opacity=".66"/><path d="m7.482 10c-.34.586-.65 1.148-.886 1.676a4.958 4.958 0 0 0 -.596 2.324h10c0-.845-.228-1.627-.596-2.324a18.518 18.518 0 0 0 -.886-1.676z" fill-rule="evenodd" opacity=".33"/><path d="m11 3c-.973 3.405-3.354 6.332-4.404 8.676a4.958 4.958 0 0 0 -.596 2.324c0 2.77 2.23 5 5 5s5-2.23 5-5c0-.845-.228-1.627-.596-2.324-1.05-2.344-3.431-5.271-4.404-8.676zm0 2.393c1.194 2.668 2.747 5.027 3.492 6.691l.012.03.016.029a3.94 3.94 0 0 1 .48 1.857c0 2.233-1.767 4-4 4a3.97 3.97 0 0 1 -4-4c0-.665.177-1.283.48-1.857l.016-.03.012-.029c.745-1.664 2.298-4.023 3.492-6.691z"/></g></svg>