<svg id="svg6" version="1.1" viewBox="0 0 22 22" xmlns="http://www.w3.org/2000/svg">
    <defs id="defs3051">
        <style id="current-color-scheme" type="text/css">.ColorScheme-Text {
        color:#dedede;
      }</style>
    </defs>
    <path id="path4" class="ColorScheme-Text" d="m6.5 4c-1.932997 0-3.5 1.7909-3.5 4v6c0 2.2091 1.567003 4 3.5 4s3.5-1.7909 3.5-4v-6c0-2.2091-1.567003-4-3.5-4zm9 0c-1.932997 0-3.5 1.7909-3.5 4v6c0 2.2091 1.567003 4 3.5 4s3.5-1.7909 3.5-4v-6c0-2.2091-1.567003-4-3.5-4zm-9 1c1.3807119 0 2.5 1.3431 2.5 3v6c0 1.6569-1.1192881 3-2.5 3s-2.5-1.3431-2.5-3v-6c0-1.6569 1.1192881-3 2.5-3zm9 0c1.380712 0 2.5 1.3431 2.5 3v6c0 1.6569-1.119288 3-2.5 3s-2.5-1.3431-2.5-3v-6c0-1.6569 1.119288-3 2.5-3zm-5.5 12v2h2v-2z" fill="currentColor"/>
</svg>
