<svg xmlns="http://www.w3.org/2000/svg" viewBox="0 0 22 22">
  <defs id="defs3051">
    <style type="text/css" id="current-color-scheme">
      .ColorScheme-Text {
        color:#dedede;
      }
      </style>
  </defs>
 <path 
    style="fill:currentColor;fill-opacity:1;stroke:none" 
	d="m2 3v16h14l4-8-4-8h-14m5.427734 4v.591797c-.7107 0-.720703.239159-.720703 1.105469v1.017578c0 .41547-.123616 1.032712-.722656 1.289062.59904.25635.722656.875556.722656 1.291016v1.00781c0 .86631.009983 1.105469.720703 1.105469v.591797c-1.06609 0-1.513672-.352246-1.513672-1.253906v-1.222656c0-.556911-.020485-1.201172-.609375-1.201172h-.304688v-.644532h.304688c.58887 0 .609375-.644261.609375-1.201171v-1.222656c0-.90166.447582-1.253906 1.513672-1.253906m3.136719 0c1.0661 0 1.521485.352246 1.521485 1.253906v1.222656c-.00001.556911.0404 1.201171.61914 1.201171h.294922v.644532h-.294922c-.57874 0-.61914.644261-.61914 1.201172v1.222656c-.00001.90166-.455385 1.253906-1.521485 1.253906v-.591797c.71082 0 .728516-.239159.728516-1.105469v-1.00781c0-.41546.123606-1.034666.722656-1.291016-.59905-.25635-.722656-.873592-.722656-1.289062v-1.017578c0-.86631-.017786-1.105469-.728516-1.105469v-.591797"
    class="ColorScheme-Text"
    />  
</svg>
