<svg xmlns="http://www.w3.org/2000/svg" viewBox="0 0 22 22">
  <defs id="defs3051">
    <style type="text/css" id="current-color-scheme">
      .ColorScheme-Text {
        color:#dedede;
      }
      </style>
  </defs>
 <path 
     style="fill:currentColor;fill-opacity:1;stroke:none" 
     d="M 5 3 L 5 4 L 5 5 L 3 5 L 3 8 L 5 8 L 5 14 L 3 14 L 3 17 L 5 17 L 5 19 L 6 19 L 12 19 L 12 18 L 9 18 L 9 4 L 18 4 L 18 12 L 19 12 L 19 4 L 19 3 L 5 3 z M 6 4 L 8 4 L 8 18 L 6 18 L 6 4 z M 16 14 L 16 16 L 14 16 L 14 17 L 16 17 L 16 19 L 17 19 L 17 17 L 19 17 L 19 16 L 17 16 L 17 14 L 16 14 z "
     class="ColorScheme-Text"
     />
</svg>
