<svg version="1.1" viewBox="0 0 22 22" xmlns="http://www.w3.org/2000/svg">
 <defs>
  <style id="current-color-scheme" type="text/css">.ColorScheme-Text {
        color:#dedede;
      }</style>
 </defs>
 <path class="ColorScheme-Text" d="m17.5 12a3.5 3.5 0 0 0-3.5 3.5 3.5 3.5 0 0 0 3.5 3.5 3.5 3.5 0 0 0 3.5-3.5 3.5 3.5 0 0 0-3.5-3.5zm0 1.0859 2.5 2.5-0.70703 0.70703-1.293-1.293v3h-1v-3l-1.293 1.293-0.70703-0.70703 2.5-2.5z" fill="currentColor"/>
 <path d="m5 4c-1.662 0-3 1.338-3 3v8c0 1.662 1.338 3 3 3h8v-7l-4 4-3-2-2.8203 2.8203c-0.11293-0.25091-0.17969-0.52638-0.17969-0.82031v-8c0-1.108 0.892-2 2-2h12c1.108 0 2 0.892 2 2v4h1v-4c0-1.662-1.338-3-3-3h-12zm2.5 3c-0.82843 0-1.5 0.67157-1.5 1.5s0.67157 1.5 1.5 1.5 1.5-0.67157 1.5-1.5-0.67157-1.5-1.5-1.5z" class="ColorScheme-Text" fill="currentColor"/>
</svg>
