<svg version="1.1" viewBox="0 0 22 22" xmlns="http://www.w3.org/2000/svg">
 <defs>
  <style id="current-color-scheme" type="text/css">.ColorScheme-Text {
        color:#dedede;
      }</style>
 </defs>
 <g class="ColorScheme-Text" fill="currentColor">
  <path d="m5 3c-1.108 0-2 0.892-2 2v3c0 1.108 0.892 2 2 2h3c1.108 0 2-0.892 2-2v-3c0-1.108-0.892-2-2-2h-3zm0 1h3c0.554 0 1 0.446 1 1v3c0 0.554-0.446 1-1 1h-3c-0.554 0-1-0.446-1-1v-3c0-0.554 0.446-1 1-1z"/>
  <path d="m14 3c-1.108 0-2 0.892-2 2v3c0 1.108 0.892 2 2 2h3c1.108 0 2-0.892 2-2v-3c0-1.108-0.892-2-2-2zm0 1h3c0.554 0 1 0.446 1 1v3c0 0.554-0.446 1-1 1h-3c-0.554 0-1-0.446-1-1v-3c0-0.554 0.446-1 1-1z"/>
  <path d="m5 12c-1.108 0-2 0.892-2 2v3c0 1.108 0.892 2 2 2h3c1.108 0 2-0.892 2-2v-3c0-1.108-0.892-2-2-2zm0 1h3c0.554 0 1 0.446 1 1v3c0 0.554-0.446 1-1 1h-3c-0.554 0-1-0.446-1-1v-3c0-0.554 0.446-1 1-1z"/>
  <path d="m14 12c-1.108 0-2 0.892-2 2v3c0 1.108 0.892 2 2 2h3c1.108 0 2-0.892 2-2v-3c0-1.108-0.892-2-2-2zm0 1h3c0.554 0 1 0.446 1 1v3c0 0.554-0.446 1-1 1h-3c-0.554 0-1-0.446-1-1v-3c0-0.554 0.446-1 1-1z"/>
 </g>
</svg>
