<svg version="1.1" viewBox="0 0 22 22" xmlns="http://www.w3.org/2000/svg"><style type="text/css" id="current-color-scheme">.ColorScheme-Text { color: #dedede; }.ColorScheme-NegativeText { color: #da4453; }</style>
    <path d="m18.292969 3.4238281-3.166016 3.1660157-2.126953-2.125-2e-3 0.00195-2e-3 -0.00195-3.2049844 3.2050781 0.7070314 0.7070312 2.5-2.5 2.123047 2.1230469 0.0059-0.00391 0.0039 0.00391 3.869106-3.8691406zm-14.292969 2.6972657v10.878906h-1v1h1v1h1v-1h10.878906l-1-1h-9.878906v-4.576172h3.4609375s4.5371565 4.533156 4.5351565 4.535156l2e-3 -2e-3 2e-3 2e-3 0.919922-0.917968-0.708984-0.708985-0.212891 0.214844-4.123047-4.123047h-3.875094v-1.423828h2.8789062l-1-1h-1.8789062v-1.8789062z" fill="currentColor" class="ColorScheme-Text"/>
    <path d="M 3.7070311,2.957031 2.9999999,3.6640622 18.292969,18.957031 19,18.25 Z" fill="currentColor" class="ColorScheme-NegativeText"/>
</svg>
