<?xml version="1.0" encoding="UTF-8" standalone="no"?>
<!-- Created with Inkscape (http://www.inkscape.org/) -->

<svg
   width="22"
   height="22"
   viewBox="0 0 5.8208333 5.8208336"
   version="1.1"
   id="svg5"
   inkscape:version="1.1.1 (3bf5ae0d25, 2021-09-20, custom)"
   sodipodi:docname="window-restore.svg"
   xmlns:inkscape="http://www.inkscape.org/namespaces/inkscape"
   xmlns:sodipodi="http://sodipodi.sourceforge.net/DTD/sodipodi-0.dtd"
   xmlns="http://www.w3.org/2000/svg"
   xmlns:svg="http://www.w3.org/2000/svg">
  <sodipodi:namedview
     id="namedview7"
     pagecolor="#ffffff"
     bordercolor="#666666"
     borderopacity="1.0"
     inkscape:pageshadow="2"
     inkscape:pageopacity="0.0"
     inkscape:pagecheckerboard="0"
     inkscape:document-units="px"
     showgrid="false"
     units="px"
     height="24px"
     inkscape:zoom="32"
     inkscape:cx="1.8125"
     inkscape:cy="15.140625"
     inkscape:window-width="1920"
     inkscape:window-height="996"
     inkscape:window-x="0"
     inkscape:window-y="0"
     inkscape:window-maximized="1"
     inkscape:current-layer="svg5" />
  <defs
     id="defs2" />
  <path
     id="rect846-1"
     style="fill:#dedede;stroke-width:0.0855522"
     d="m 4.9883902,0.83248612 c 0.023937,0.023937 0.038729,0.057018 0.038733,0.093544 3.6e-6,0.035083 -0.00998,0.0647941 -0.038733,0.093544 l -0.00365,0.00365 -1.5676549,1.5676549 h 1.003317 c 0.073284,0 0.1322775,0.05899 0.1322775,0.1322776 -6e-7,0.071004 -0.055609,0.1287874 -0.1257002,0.1322775 -0.00229,1.132e-4 -0.00427,0 -0.00658,0 L 3.152162,2.8557996 3.097716,2.8554341 c -0.00229,0 -0.00465,4.787e-4 -0.00694,3.655e-4 C 3.055731,2.8540396 3.024249,2.8386306 3.001617,2.8148736 2.978984,2.7911156 2.965442,2.7586546 2.965442,2.7231566 c -10e-8,-0.00229 -1.132e-4,-0.00429 -10e-8,-0.00658 l -3.663e-4,-0.047864 3.653e-4,-1.2682802 c 1e-7,-0.073285 0.05899,-0.1322774 0.1322775,-0.1322775 0.073296,-1e-7 0.1322776,0.05899 0.1322777,0.1322777 l -1e-7,1.0033596 1.567655,-1.56765508 3.654e-4,-3.654e-4 3.655e-4,-3.654e-4 3.654e-4,-3.654e-4 3.654e-4,-3.654e-4 3.654e-4,-3.654e-4 3.654e-4,-3.654e-4 3.654e-4,-3.655e-4 3.654e-4,-3.654e-4 3.654e-4,-3.654e-4 3.654e-4,-3.654e-4 c 0.024808,-0.0248085 0.05846,-0.038737 0.093544,-0.038733 0.036526,3.8e-6 0.069607,0.014796 0.093544,0.038733 z M 2.8167166,3.0041598 c 0.023908,0.023909 0.038733,0.056901 0.038733,0.093544 0,0.00229 1.202e-4,0.00427 0,0.00658 v 0.048234 1.267883 c 10e-8,0.073285 -0.058987,0.1322775 -0.1322776,0.1322777 -0.07329,2e-7 -0.1322775,-0.05899 -0.1322776,-0.1322776 l 1e-7,-1.0033281 -1.5665589,1.5665588 c -0.00152,0.00168 -0.00314,0.00314 -0.00475,0.00475 -0.050049,0.050049 -0.13040698,0.051671 -0.18233838,0.00475 -0.00168,-0.00152 -0.00314,-0.00314 -0.00475,-0.00475 -0.051663,-0.051663 -0.0470004,-0.1400883 0,-0.1870887 l 0.00475,-0.00475 1.56655888,-1.5665588 -1.0033735,2e-7 c -0.073289,4.9e-6 -0.1322775,-0.05899 -0.1322777,-0.1322777 -1e-7,-0.073284 0.058989,-0.1322774 0.1322777,-0.1322776 l 1.2679285,1e-7 h 0.054811 c 0.036645,-1e-7 0.069636,0.014825 0.093544,0.038733 z"
     sodipodi:nodetypes="cssccsssccccsscccsccccccccccccsscccscccscccscsscccsccscc" />
</svg>
