<svg width="22" height="22" version="1.1" xmlns="http://www.w3.org/2000/svg">
 <defs>
  <style id="current-color-scheme" type="text/css">
   .ColorScheme-Text { color:#ffffff; } .ColorScheme-Highlight { color:#4285f4; }
  </style>
 </defs>
 <g transform="translate(-.99978 -1.0133)" class="ColorScheme-Text" fill="currentColor">
  <path d="m9 11a1 1 0 1 0 0 2 1 1 0 0 0 0-2zm3 0a1 1 0 1 0 0 2 1 1 0 0 0 0-2zm3 0a1 1 0 1 0 0 2 1 1 0 0 0 0-2z"/>
  <path d="m12 9a1.99 1.99 0 0 0-1.879 1.336c0.14 0.09 0.27 0.193 0.377 0.312 2e-3 2e-3 0 5e-3 2e-3 6e-3 2e-3 -1e-3 0-4e-3 2e-3 -6e-3 0.35-0.393 0.915-0.648 1.498-0.648s1.148 0.255 1.498 0.648c2e-3 2e-3 0 5e-3 2e-3 6e-3 2e-3 -1e-3 0-4e-3 2e-3 -6e-3a1.82 1.82 0 0 1 0.377-0.312 1.99 1.99 0 0 0-1.88-1.336zm-1.5 4.346c-2e-3 1e-3 0 4e-3 -2e-3 6e-3 -0.35 0.393-0.915 0.648-1.498 0.648 0 0.554 0.446 1 1 1h4c0.554 0 1-0.446 1-1-0.583 0-1.148-0.255-1.498-0.648-2e-3 -2e-3 0-5e-3 -2e-3 -6e-3 -2e-3 1e-3 0 4e-3 -2e-3 6e-3 -0.35 0.393-0.915 0.648-1.498 0.648s-1.148-0.255-1.498-0.648c-1e-3 -2e-3 0-5e-3 -2e-3 -6e-3z"/>
  <path d="m6.002 7a1 1 0 0 0-0.854 0.475l-2.894 3.86a1 1 0 0 0-0.02 1.308l2.938 3.918a1 1 0 1 0 1.63-1.155l3e-3 -2e-3 -2.551-3.402 2.55-3.402-3e-3 -2e-3a1 1 0 0 0-0.799-1.598zm11.996 0a1 1 0 0 0-0.799 1.598l-4e-3 2e-3 2.551 3.402-2.55 3.402 1e-3 2e-3a1 1 0 1 0 1.63 1.154l2.939-3.917a1 1 0 0 0-0.02-1.307l-2.894-3.861a1 1 0 0 0-0.854-0.475z"/>
 </g>
</svg>
