<svg width="22" height="22" version="1.1" xmlns="http://www.w3.org/2000/svg">
 <defs>
  <style id="current-color-scheme" type="text/css">.ColorScheme-Text { color:#ffffff; } .ColorScheme-Highlight { color:#4285f4; }</style>
 </defs>
 <path class="ColorScheme-Text" d="m8 6c1.1045 0 2 0.8955 2 2v1h2v-1c0-1.1045 0.89537-2 2-2 1.1045 0 2 0.8955 2 2s-0.8955 2-2 2h-1v2h1c1.1045 2.5e-4 2 0.8955 2 2s-0.8955 2-2 2-2-0.8955-2-2v-1h-2v1c0 1.1045-0.89537 2-2 2-1.1045 0-2-0.8955-2-2s0.8955-2 2-2h1v-2h-1c-1.1045 0-2-0.8955-2-2s0.8955-2 2-2zm0 1c-0.55225 0-1 0.44775-1 1 0 0.55213 0.44775 1 1 1h1v-1c0-0.55225-0.44775-1-1-1zm6 0c-0.55225 0-1 0.44775-1 1v1h1c0.55225 0 1-0.44775 1-1s-0.44775-1-1-1zm-4 3v2h2v-2zm-2 3c-0.55225 0-1 0.44775-1 1s0.44775 1 1 1 1-0.44775 1-1v-1zm5 0v1c0 0.55225 0.44775 1 1 1s1-0.44775 1-1-0.44775-1-1-1z" fill="currentColor"/>
 <path class="ColorScheme-Text" d="m6 3c-1.662 0-3 1.338-3 3v10c0 1.662 1.338 3 3 3h10c1.662 0 3-1.338 3-3v-10c0-1.662-1.338-3-3-3zm0 1h10c1.108 0 2 0.892 2 2v10c0 1.108-0.892 2-2 2h-10c-1.108 0-2-0.892-2-2v-10c0-1.108 0.892-2 2-2z" fill="currentColor"/>
</svg>
