<?xml version="1.0" encoding="UTF-8" standalone="no"?>
<!-- Created with Inkscape (http://www.inkscape.org/) -->

<svg
   width="16"
   height="16"
   viewBox="0 0 4.2333332 4.2333335"
   version="1.1"
   id="svg11945"
   inkscape:version="1.1.1 (3bf5ae0d25, 2021-09-20, custom)"
   sodipodi:docname="folder-videos-symbolic.svg"
   xmlns:inkscape="http://www.inkscape.org/namespaces/inkscape"
   xmlns:sodipodi="http://sodipodi.sourceforge.net/DTD/sodipodi-0.dtd"
   xmlns="http://www.w3.org/2000/svg"
   xmlns:svg="http://www.w3.org/2000/svg">
  <sodipodi:namedview
     id="namedview11947"
     pagecolor="#ffffff"
     bordercolor="#666666"
     borderopacity="1.0"
     inkscape:pageshadow="2"
     inkscape:pageopacity="0.0"
     inkscape:pagecheckerboard="0"
     inkscape:document-units="px"
     showgrid="false"
     units="in"
     inkscape:zoom="22.627417"
     inkscape:cx="3.7565048"
     inkscape:cy="3.7786019"
     inkscape:window-width="1920"
     inkscape:window-height="996"
     inkscape:window-x="0"
     inkscape:window-y="0"
     inkscape:window-maximized="1"
     inkscape:current-layer="svg11945"
     showguides="true" />
  <defs
     id="defs11942" />
  <path
     id="rect20156"
     style="opacity:1;fill:#dedede;fill-opacity:1;stroke:none;stroke-width:1.14286;stroke-linecap:round;stroke-miterlimit:4;stroke-dasharray:none"
     d="M 3,1 C 1.892,1 1,1.892 1,3 v 10 c 0,1.108 0.892,2 2,2 h 10 c 1.108,0 2,-0.892 2,-2 V 3 C 15,1.892 14.108,1 13,1 Z m 0,1 h 10 c 0.554,0 1,0.446 1,1 v 10 c 0,0.554 -0.446,1 -1,1 H 3 C 2.446,14 2,13.554 2,13 V 3 C 2,2.446 2.446,2 3,2 Z M 6.0117188,3.9980469 C 5.8353207,3.9958204 5.6614723,4.0402933 5.5078125,4.1269531 5.1930907,4.3039955 4.9982475,4.6369461 4.9980469,4.9980469 v 6.0000001 c 5.754e-4,0.776534 0.847346,1.256188 1.5136719,0.857422 L 11.515625,8.8574219 c 0.642737,-0.3892231 0.642737,-1.3217144 0,-1.7109375 L 6.5117188,4.140625 c -0.151182,-0.090776 -0.3236781,-0.1399641 -0.5,-0.1425781 z M 6,5 11,8 6,11 Z"
     transform="scale(0.26458333)"
     sodipodi:nodetypes="ssssssssssssssssssccccccccccccc" />
</svg>
