<?xml version="1.0" encoding="UTF-8" standalone="no"?>
<!-- Created with Inkscape (http://www.inkscape.org/) -->

<svg
   width="16"
   height="16"
   viewBox="0 0 4.2333332 4.2333335"
   version="1.1"
   id="svg11945"
   inkscape:version="1.1.1 (3bf5ae0d25, 2021-09-20)"
   sodipodi:docname="folder-music-symbolic.svg"
   xmlns:inkscape="http://www.inkscape.org/namespaces/inkscape"
   xmlns:sodipodi="http://sodipodi.sourceforge.net/DTD/sodipodi-0.dtd"
   xmlns="http://www.w3.org/2000/svg"
   xmlns:svg="http://www.w3.org/2000/svg">
  <sodipodi:namedview
     id="namedview11947"
     pagecolor="#ffffff"
     bordercolor="#666666"
     borderopacity="1.0"
     inkscape:pageshadow="2"
     inkscape:pageopacity="0.0"
     inkscape:pagecheckerboard="0"
     inkscape:document-units="px"
     showgrid="false"
     units="in"
     inkscape:zoom="16"
     inkscape:cx="26.5"
     inkscape:cy="11.625"
     inkscape:window-width="1920"
     inkscape:window-height="1009"
     inkscape:window-x="-8"
     inkscape:window-y="-8"
     inkscape:window-maximized="1"
     inkscape:current-layer="svg11945"
     showguides="true" />
  <defs
     id="defs11942" />
  <path
     id="rect17629"
     style="opacity:1;fill:#dedede;stroke-width:0.999999"
     d="m 8.5,1 c -0.032674,0 -0.06481,0.00384 -0.095703,0.00977 -0.032566,0.00625 -0.063795,0.015141 -0.09375,0.027344 -0.00186,7.562e-4 -0.00401,0.00118 -0.00586,0.00195 -0.022864,0.00964 -0.043491,0.022368 -0.064453,0.035156 -0.00525,0.00251 -0.010463,0.00512 -0.015625,0.00781 -0.00149,9.842e-4 -0.00242,0.00291 -0.00391,0.00391 -0.00196,0.00129 -0.00392,0.00259 -0.00586,0.00391 -0.023625,0.016428 -0.046015,0.034519 -0.066406,0.054687 l -0.00195,0.00195 c -0.019258,0.019258 -0.036825,0.040302 -0.052734,0.0625 -0.00264,0.00322 -0.00525,0.00648 -0.00781,0.00977 v 0.00195 c -0.00333,0.0045 -0.00659,0.00906 -0.00977,0.013672 -0.014095,0.022489 -0.026685,0.045584 -0.037109,0.070312 -0.011318,0.026849 -0.020809,0.054954 -0.027344,0.083984 -6.72e-4,0.0026 -0.00132,0.0052 -0.00195,0.00781 v 0.00195 c -5.1e-6,0.0013 -5.1e-6,0.0026 0,0.00391 -0.00555,0.028328 -0.00919,0.058034 -0.00977,0.087891 -5.1e-6,0.0013 -5.1e-6,0.0026 0,0.00391 v 0.00195 C 7.9999897,1.4974237 8,1.49867 8,1.5 V 9.0527344 C 7.3420597,8.3800309 6.440965,8.0005855 5.5,8 3.5670034,7.9999999 1.9999999,9.5670034 2,11.5 1.9999999,13.432997 3.5670034,15 5.5,15 7.4329966,15 9.0000001,13.432997 9,11.5 V 2.0117188 c 2.487646,0.1481321 3.654327,1.4082636 4.302734,2.7050781 0.690203,1.3804044 0.69336,2.78125 0.69336,2.78125 0.003,0.2747035 0.227236,0.4954436 0.501953,0.4941406 0.274717,0.0013 0.498947,-0.2194371 0.501953,-0.4941406 0,0 0.0047,-1.6039224 -0.804688,-3.2226563 C 13.385948,2.6566576 11.667629,1 8.5019531,1 Z m -3,8 c 1.3807119,-10e-8 2.5000001,1.119288 2.5,2.5 10e-8,1.380712 -1.1192881,2.5 -2.5,2.5 C 4.1192881,14 2.9999999,12.880712 3,11.5 2.9999999,10.119288 4.1192881,8.9999999 5.5,9 Z"
     transform="scale(0.26458333)"
     sodipodi:nodetypes="sssccccccsccccscccccccsccssccsccccsssssss" />
</svg>
