<?xml version="1.0" encoding="UTF-8" standalone="no"?>
<!-- Created with Inkscape (http://www.inkscape.org/) -->

<svg
   width="16"
   height="16"
   viewBox="0 0 4.2333332 4.2333335"
   version="1.1"
   id="svg11945"
   inkscape:version="1.1.1 (3bf5ae0d25, 2021-09-20, custom)"
   sodipodi:docname="accessories-scanner-symbolic.svg"
   xmlns:inkscape="http://www.inkscape.org/namespaces/inkscape"
   xmlns:sodipodi="http://sodipodi.sourceforge.net/DTD/sodipodi-0.dtd"
   xmlns="http://www.w3.org/2000/svg"
   xmlns:svg="http://www.w3.org/2000/svg">
  <sodipodi:namedview
     id="namedview11947"
     pagecolor="#ffffff"
     bordercolor="#666666"
     borderopacity="1.0"
     inkscape:pageshadow="2"
     inkscape:pageopacity="0.0"
     inkscape:pagecheckerboard="0"
     inkscape:document-units="px"
     showgrid="false"
     units="in"
     inkscape:zoom="22.627417"
     inkscape:cx="-2.3201941"
     inkscape:cy="7.380427"
     inkscape:window-width="1920"
     inkscape:window-height="1006"
     inkscape:window-x="0"
     inkscape:window-y="0"
     inkscape:window-maximized="1"
     inkscape:current-layer="svg11945"
     showguides="true" />
  <defs
     id="defs11942" />
  <path
     id="rect843"
     style="fill:#dedede;stroke-width:5.00001;stroke-linecap:round;stroke-linejoin:round"
     d="M 5 1 C 3.8920001 1 3 1.8919999 3 3 L 3 6 L 13 6 L 13 5.5 C 13.0035 4.6594821 12.825641 4.329673 12.5 4 L 10 1.5 C 9.5370297 1.0712056 9.1954983 1 8.5 1 L 5 1 z M 9 2 L 12 5 L 10 5 C 9.4459999 5 9 4.5540001 9 4 L 9 2 z M 2 7 C 1.446 7 1 7.446 1 8 C 1 8.554 1.446 9 2 9 L 14 9 C 14.554 9 15 8.554 15 8 C 15 7.446 14.554 7 14 7 L 2 7 z M 3 10 L 3 13 C 3 14.108 3.8920001 15 5 15 L 11 15 C 12.108 15 13 14.108 13 13 L 13 10 L 3 10 z "
     transform="scale(0.26458333)" />
</svg>
