<?xml version="1.0" encoding="UTF-8" standalone="no"?>
<!-- Created with Inkscape (http://www.inkscape.org/) -->

<svg
   width="16"
   height="16"
   viewBox="0 0 4.2333332 4.2333335"
   version="1.1"
   id="svg11945"
   inkscape:version="1.1.1 (3bf5ae0d25, 2021-09-20, custom)"
   sodipodi:docname="calendar-symbolic.svg"
   xmlns:inkscape="http://www.inkscape.org/namespaces/inkscape"
   xmlns:sodipodi="http://sodipodi.sourceforge.net/DTD/sodipodi-0.dtd"
   xmlns="http://www.w3.org/2000/svg"
   xmlns:svg="http://www.w3.org/2000/svg">
  <sodipodi:namedview
     id="namedview11947"
     pagecolor="#ffffff"
     bordercolor="#666666"
     borderopacity="1.0"
     inkscape:pageshadow="2"
     inkscape:pageopacity="0.0"
     inkscape:pagecheckerboard="0"
     inkscape:document-units="px"
     showgrid="false"
     units="in"
     inkscape:zoom="31.999999"
     inkscape:cx="5.4375002"
     inkscape:cy="6.6093752"
     inkscape:window-width="1920"
     inkscape:window-height="996"
     inkscape:window-x="0"
     inkscape:window-y="0"
     inkscape:window-maximized="1"
     inkscape:current-layer="svg11945" />
  <defs
     id="defs11942" />
  <path
     id="rect5547"
     style="opacity:1;fill:#dedede;fill-opacity:1;stroke-width:5.00001;stroke-linecap:round;stroke-linejoin:round"
     d="M 2 0 C 0.89200002 0 0 0.89200002 0 2 L 0 14 C 0 15.108 0.89200002 16 2 16 L 14 16 C 15.108 16 16 15.108 16 14 L 16 2 C 16 0.89200002 15.108 0 14 0 L 13 0 C 13 1.1045695 12.104569 1.9999999 11 2 C 9.8954305 1.9999999 9.0000001 1.1045695 9 0 L 7 0 C 6.9999999 1.1045695 6.1045695 1.9999999 5 2 C 3.8954305 1.9999999 3.0000001 1.1045695 3 0 L 2 0 z M 4.7636719 5 C 5.5558261 5 6.1789074 5.1997973 6.6347656 5.5996094 C 7.0943668 5.9956865 7.3242188 6.5455703 7.3242188 7.2480469 C 7.3242187 7.6553337 7.2082286 8.0828605 6.9765625 8.53125 C 6.7486305 8.9759027 6.3727304 9.4828218 5.8496094 10.050781 L 3.8554688 12.185547 L 7.6445312 12.185547 L 7.6445312 13.273438 L 2.15625 13.273438 L 2.15625 12.335938 L 4.875 9.3710938 C 5.2673407 8.933915 5.5465281 8.5707514 5.7109375 8.2792969 C 5.8790849 7.9841082 5.9628906 7.6877668 5.9628906 7.3925781 C 5.9628906 7.0039743 5.8532686 6.6903139 5.6328125 6.4511719 C 5.4160906 6.2120298 5.1218744 6.09375 4.7519531 6.09375 C 4.3110368 6.09375 3.9694387 6.2270632 3.7265625 6.4960938 C 3.4836863 6.7651281 3.3613281 7.13449 3.3613281 7.6015625 L 2 7.6015625 C 2 7.1045977 2.1117435 6.6577959 2.3359375 6.2617188 C 2.5638695 5.8619048 2.8881445 5.550538 3.3066406 5.3300781 C 3.7288739 5.1096221 4.214395 5 4.7636719 5 z M 11.326172 5 C 12.09217 5 12.700048 5.2040417 13.148438 5.6113281 C 13.596826 6.0186153 13.820313 6.5686685 13.820312 7.2636719 C 13.820313 7.6634858 13.717231 8.0201135 13.511719 8.3339844 C 13.306207 8.6441211 13.026851 8.8890057 12.671875 9.0683594 C 13.097845 9.2663991 13.424413 9.5390494 13.652344 9.8828125 C 13.88401 10.226579 14 10.613432 14 11.046875 C 14 11.764298 13.757243 12.33558 13.271484 12.757812 C 12.785732 13.176311 12.139132 13.384766 11.332031 13.384766 C 10.521194 13.384766 9.8703513 13.174186 9.3808594 12.751953 C 8.8951032 12.32972 8.6523438 11.760561 8.6523438 11.046875 C 8.6523438 10.609696 8.7683339 10.218595 9 9.8710938 C 9.2316661 9.5235926 9.5580649 9.255189 9.9765625 9.0683594 C 9.6253234 8.889003 9.3461368 8.6441211 9.140625 8.3339844 C 8.9388511 8.020112 8.8378906 7.6634858 8.8378906 7.2636719 C 8.8378906 6.5686685 9.061378 6.0186153 9.5097656 5.6113281 C 9.9581548 5.2040413 10.563911 5 11.326172 5 z M 11.261719 6.09375 C 10.944473 6.106676 10.691118 6.2171484 10.501953 6.4238281 C 10.300175 6.64055 10.199219 6.9370597 10.199219 7.3144531 C 10.199219 7.6881123 10.300179 7.9846183 10.501953 8.2050781 C 10.707465 8.4255342 10.98453 8.5371094 11.332031 8.5371094 C 11.679532 8.5371094 11.954476 8.4255342 12.15625 8.2050781 C 12.361762 7.9846221 12.464844 7.6881123 12.464844 7.3144531 C 12.464844 6.9594799 12.361762 6.6693382 12.15625 6.4414062 C 11.950738 6.2097401 11.673673 6.09375 11.326172 6.09375 C 11.304443 6.09375 11.282884 6.0928886 11.261719 6.09375 z M 11.320312 9.6289062 C 10.92424 9.6289051 10.60633 9.7533858 10.367188 10 C 10.13178 10.246615 10.015625 10.573182 10.015625 10.980469 C 10.015625 11.380282 10.131615 11.700311 10.363281 11.939453 C 10.598685 12.178595 10.921008 12.296875 11.332031 12.296875 C 11.743055 12.296875 12.063084 12.180885 12.291016 11.949219 C 12.522682 11.717553 12.638672 11.395228 12.638672 10.980469 C 12.638672 10.576918 12.516314 10.252474 12.273438 10.005859 C 12.034294 9.755511 11.71639 9.6289074 11.320312 9.6289062 z "
     transform="scale(0.26458333)" />
</svg>
