<?xml version="1.0" encoding="UTF-8" standalone="no"?>
<svg
   width="16"
   height="16"
   enable-background="new"
   version="1.1"
   id="svg4"
   sodipodi:docname="preferences-desktop-keyboard-symbolic.svg"
   inkscape:version="1.1.1 (3bf5ae0d25, 2021-09-20, custom)"
   xmlns:inkscape="http://www.inkscape.org/namespaces/inkscape"
   xmlns:sodipodi="http://sodipodi.sourceforge.net/DTD/sodipodi-0.dtd"
   xmlns="http://www.w3.org/2000/svg"
   xmlns:svg="http://www.w3.org/2000/svg">
  <defs
     id="defs8" />
  <sodipodi:namedview
     id="namedview6"
     pagecolor="#ffffff"
     bordercolor="#666666"
     borderopacity="1.0"
     inkscape:pageshadow="2"
     inkscape:pageopacity="0.0"
     inkscape:pagecheckerboard="0"
     showgrid="false"
     inkscape:zoom="22.627417"
     inkscape:cx="-0.35355339"
     inkscape:cy="9.0377085"
     inkscape:window-width="1920"
     inkscape:window-height="996"
     inkscape:window-x="0"
     inkscape:window-y="0"
     inkscape:window-maximized="1"
     inkscape:current-layer="svg4" />
  <path
     id="path1613"
     style="fill:#dedede;stroke-width:2;stroke-linecap:round;stroke-linejoin:round;fill-opacity:1"
     d="M 2 4 A 1 1 0 0 0 1 5 A 1 1 0 0 0 2 6 A 1 1 0 0 0 3 5 A 1 1 0 0 0 2 4 z M 5 4 A 1 1 0 0 0 4 5 A 1 1 0 0 0 5 6 A 1 1 0 0 0 6 5 A 1 1 0 0 0 5 4 z M 8 4 A 1 1 0 0 0 7 5 A 1 1 0 0 0 8 6 A 1 1 0 0 0 9 5 A 1 1 0 0 0 8 4 z M 11 4 A 1 1 0 0 0 10 5 A 1 1 0 0 0 11 6 A 1 1 0 0 0 12 5 A 1 1 0 0 0 11 4 z M 14 4 A 1 1 0 0 0 13 5 A 1 1 0 0 0 14 6 A 1 1 0 0 0 15 5 A 1 1 0 0 0 14 4 z M 2 7 A 1 1 0 0 0 1 8 A 1 1 0 0 0 2 9 A 1 1 0 0 0 3 8 A 1 1 0 0 0 2 7 z M 5 7 A 1 1 0 0 0 4 8 A 1 1 0 0 0 5 9 A 1 1 0 0 0 6 8 A 1 1 0 0 0 5 7 z M 8 7 A 1 1 0 0 0 7 8 A 1 1 0 0 0 8 9 A 1 1 0 0 0 9 8 A 1 1 0 0 0 8 7 z M 11 7 A 1 1 0 0 0 10 8 A 1 1 0 0 0 11 9 A 1 1 0 0 0 12 8 A 1 1 0 0 0 11 7 z M 14 7 A 1 1 0 0 0 13 8 A 1 1 0 0 0 14 9 A 1 1 0 0 0 15 8 A 1 1 0 0 0 14 7 z M 4 10 C 3.446 10 3 10.446 3 11 C 3 11.554 3.446 12 4 12 L 12 12 C 12.554 12 13 11.554 13 11 C 13 10.446 12.554 10 12 10 L 4 10 z " />
</svg>
