<svg width="16" height="16" version="1.1" xmlns="http://www.w3.org/2000/svg">
 <path d="m10.608 0.0051218-3.6024 6.4949h3.582l-4.2754 6.1504 1.3574 0.14062-2.6562 2.1523s0.9269 0.40659 1.7598 0.51758c0.19132 0.0255 0.91315 0.06055 1.2227 0.06055 4.139-5.94e-4 7.5045-3.3669 7.5039-7.5059v-0.0039c-0.016398-2.5294-1.32-5.118-3.9785-6.5684zm-2.6239 0.45777-0.88477 0.10742c-3.5882 0.43325-6.2589 3.3858-6.5059 6.9434-0.031899 0.26371-0.039504 0.81353-0.027344 1.002 0.16823 2.5172 1.5492 4.8093 3.7715 6.0508l0.67578 0.37695 0.28125-3.2832 0.7207 0.86133 2.5078-5.0215h-3.7461zm-1.7383 1.4043-3.0234 6.6328h3.6836l-1.1035 2.209-1.2969-1.5508-0.33594 3.8945c-1.5906-1.2194-2.6733-2.9972-2.6699-5.0371-6.171e-4 -2.9396 2.0007-5.3611 4.7461-6.1484zm4.3574 0.18164 0.17578 0.085937c2.5515 1.2397 3.7058 3.5833 3.7207 5.8828-5.63e-4 3.5976-2.906 6.5034-6.5039 6.5039-0.18058 0-0.47568-0.02189-0.76758-0.03711l2.8613-2.4453-1.9883-0.20703 4.4004-6.332h-3.8027z" fill="#dedede"/>
</svg>
