<?xml version="1.0" encoding="UTF-8" standalone="no"?>
<!-- Created with Inkscape (http://www.inkscape.org/) -->

<svg
   width="16"
   height="16"
   viewBox="0 0 4.2333332 4.2333335"
   version="1.1"
   id="svg11945"
   inkscape:version="1.1.1 (3bf5ae0d25, 2021-09-20, custom)"
   sodipodi:docname="preferences-desktop-wallpaper-symbolic.svg"
   xmlns:inkscape="http://www.inkscape.org/namespaces/inkscape"
   xmlns:sodipodi="http://sodipodi.sourceforge.net/DTD/sodipodi-0.dtd"
   xmlns="http://www.w3.org/2000/svg"
   xmlns:svg="http://www.w3.org/2000/svg">
  <sodipodi:namedview
     id="namedview11947"
     pagecolor="#ffffff"
     bordercolor="#666666"
     borderopacity="1.0"
     inkscape:pageshadow="2"
     inkscape:pageopacity="0.0"
     inkscape:pagecheckerboard="0"
     inkscape:document-units="px"
     showgrid="false"
     units="in"
     inkscape:zoom="22.627417"
     inkscape:cx="4.0437669"
     inkscape:cy="12.484854"
     inkscape:window-width="1567"
     inkscape:window-height="932"
     inkscape:window-x="56"
     inkscape:window-y="50"
     inkscape:window-maximized="0"
     inkscape:current-layer="svg11945" />
  <defs
     id="defs11942" />
  <path
     id="path1220"
     style="fill:#dedede;fill-opacity:1;stroke-width:3.99999;stroke-linecap:round;stroke-linejoin:round"
     d="M 3 2 C 1.8919999 2 1 2.8919999 1 4 L 1 12 C 1 13.108 1.8919999 14 3 14 L 13 14 C 14.108 14 15 13.108 15 12 L 15 4 C 15 2.8919999 14.108 2 13 2 L 3 2 z M 3 3 L 13 3 C 13.554 3 14 3.446 14 4 L 14 10.470703 L 11.830078 8.2929688 C 11.438341 7.9012316 10.807753 7.9012316 10.416016 8.2929688 L 9.1835938 9.5253906 L 6.9511719 7.2929688 C 6.7553033 7.0971002 6.4997597 7 6.2441406 7 C 5.9885215 7 5.7329779 7.0971002 5.5371094 7.2929688 L 2 10.830078 L 2 4 C 2 3.446 2.446 3 3 3 z M 4 4 A 1.0000001 1.0000001 0 0 0 3 5 A 1.0000001 1.0000001 0 0 0 4 6 A 1.0000001 1.0000001 0 0 0 5 5 A 1.0000001 1.0000001 0 0 0 4 4 z "
     transform="scale(0.26458333)" />
</svg>
