<?xml version="1.0" encoding="UTF-8" standalone="no"?>
<svg
   viewbox="0 0 200 200"
   version="1.1"
   id="svg4"
   sodipodi:docname="audio-speakers.svg"
   width="64"
   height="64"
   inkscape:version="1.1.1 (3bf5ae0d25, 2021-09-20, custom)"
   xmlns:inkscape="http://www.inkscape.org/namespaces/inkscape"
   xmlns:sodipodi="http://sodipodi.sourceforge.net/DTD/sodipodi-0.dtd"
   xmlns="http://www.w3.org/2000/svg"
   xmlns:svg="http://www.w3.org/2000/svg">
  <defs
     id="defs8" />
  <sodipodi:namedview
     id="namedview6"
     pagecolor="#ffffff"
     bordercolor="#666666"
     borderopacity="1.0"
     inkscape:pageshadow="2"
     inkscape:pageopacity="0.0"
     inkscape:pagecheckerboard="0"
     showgrid="false"
     inkscape:zoom="12.883333"
     inkscape:cx="28.874516"
     inkscape:cy="31.630014"
     inkscape:window-width="1920"
     inkscape:window-height="996"
     inkscape:window-x="0"
     inkscape:window-y="0"
     inkscape:window-maximized="1"
     inkscape:current-layer="svg4"
     showguides="true" />
  <path
     d="M 2,32 C 2,10.4 10.4,2 32,2 53.6,2 62,10.4 62,32 62,53.6 53.6,62 32,62 10.4,62 2,53.6 2,32"
     id="path2"
     style="stroke-width:0.3;fill:#60baff;fill-opacity:1;stroke:none" />
  <g
     id="g21"
     transform="scale(0.25)"
     style="fill:#ffffff">
    <path
       class="st2"
       d="m 84.9,48 c -19.7,0 -36.1,15.9 -36.8,35.6 0,9.7 -0.1,19.4 -0.1,29 0,5.1 4.2,9.2 9.2,9.2 5,0 9.2,-4.2 9.2,-9.2 V 94.2 c 0,-5.1 -4.1,-9.2 -9.2,-9.2 0,-15.2 12.5,-27.7 27.7,-27.7 15.2,0 27.7,12.5 27.7,27.7 -5.1,0 -9.2,4.1 -9.2,9.2 v 18.5 c 0,5.1 4.1,9.2 9.2,9.2 5.1,0 9.2,-4.1 9.2,-9.2 0,-9.7 -0.1,-19.4 -0.1,-29 C 121,63.9 104.6,48 84.9,48 Z"
       id="path13"
       style="fill:#ffffff" />
    <path
       class="st2"
       d="M 115.7,134.2 H 54.2 c -3.4,0 -6.2,2.8 -6.2,6.2 v 61.5 c 0,3.4 2.8,6.2 6.2,6.2 h 61.5 c 3.4,0 6.2,-2.8 6.2,-6.2 v -61.5 c -0.1,-3.5 -2.8,-6.2 -6.2,-6.2 z m -3.1,64.6 H 57.2 v -55.4 h 55.4 z"
       id="path15"
       style="fill:#ffffff" />
    <path
       class="st2"
       d="m 201.8,48 h -61.5 c -3.4,0 -6.2,2.8 -6.2,6.2 v 61.5 c 0,3.4 2.8,6.2 6.2,6.2 h 61.5 c 3.4,0 6.2,-2.8 6.2,-6.2 V 54.2 c 0,-3.4 -2.8,-6.2 -6.2,-6.2 z m -3,64.6 H 143.4 V 57.2 h 55.4 z"
       id="path17"
       style="fill:#ffffff" />
    <path
       class="st2"
       d="m 171.1,134.2 c -20.4,0 -36.9,16.5 -36.9,36.9 0,20.4 16.5,36.9 36.9,36.9 20.4,0 36.9,-16.5 36.9,-36.9 0,-20.4 -16.5,-36.9 -36.9,-36.9 z m 0,64.6 c -15.3,0 -27.7,-12.4 -27.7,-27.7 0,-15.3 12.4,-27.7 27.7,-27.7 15.3,0 27.7,12.4 27.7,27.7 0,15.3 -12.4,27.7 -27.7,27.7 z"
       id="path19"
       style="fill:#ffffff" />
  </g>
</svg>
