<?xml version="1.0" encoding="UTF-8" standalone="no"?>
<svg
   viewbox="0 0 200 200"
   version="1.1"
   id="svg4"
   sodipodi:docname="audio-card.svg"
   width="64"
   height="64"
   inkscape:version="1.1.1 (3bf5ae0d25, 2021-09-20, custom)"
   xmlns:inkscape="http://www.inkscape.org/namespaces/inkscape"
   xmlns:sodipodi="http://sodipodi.sourceforge.net/DTD/sodipodi-0.dtd"
   xmlns="http://www.w3.org/2000/svg"
   xmlns:svg="http://www.w3.org/2000/svg">
  <defs
     id="defs8" />
  <sodipodi:namedview
     id="namedview6"
     pagecolor="#ffffff"
     bordercolor="#666666"
     borderopacity="1.0"
     inkscape:pageshadow="2"
     inkscape:pageopacity="0.0"
     inkscape:pagecheckerboard="0"
     showgrid="false"
     inkscape:zoom="9.1098921"
     inkscape:cx="39.462597"
     inkscape:cy="39.846795"
     inkscape:window-width="1920"
     inkscape:window-height="1006"
     inkscape:window-x="0"
     inkscape:window-y="0"
     inkscape:window-maximized="1"
     inkscape:current-layer="svg4"
     showguides="false" />
  <path
     d="M 2,32 C 2,10.4 10.4,2 32,2 53.6,2 62,10.4 62,32 62,53.6 53.6,62 32,62 10.4,62 2,53.6 2,32"
     id="path2"
     style="stroke-width:0.3;fill:#60baff;fill-opacity:1;stroke:none" />
  <path
     id="rect845"
     style="fill:#ffffff;stroke-width:2;stroke-linecap:round;stroke-linejoin:round"
     d="m 17,20 v 24 h 10 v -1 c 0,-1.108 0.892,-2 2,-2 h 8 c 1.108,0 2,0.826958 2,2 v 1 h 10 c 2.216,0 4,-1.784 4,-4 V 24 c 0,-2.216 -1.784,-4 -4,-4 z"
     sodipodi:nodetypes="cccsssscssssc" />
  <path
     id="rect949"
     style="fill:#0070c0;fill-opacity:1;stroke-width:2;stroke-linecap:round;stroke-linejoin:round"
     d="m 12,16 c -0.554,0 -1,0.446 -1,1 v 2 c 0,0.554 0.446,1 1,1 h 3 v 30 h 4 V 18 c 0,-1.108 -0.892,-2 -2,-2 z"
     sodipodi:nodetypes="cssscccscc" />
  <path
     id="rect5039"
     style="fill:#72a9d2;fill-opacity:1;stroke-width:2;stroke-linecap:round;stroke-linejoin:round"
     d="m 32,23 v 1 h 2 v -1 z m 4,0 v 1 h 2 v -1 z m -5,2 c -1.108,0 -2,0.892 -2,2 v 8 c 0,1.108 0.892,2 2,2 h 8 c 1.108,0 2,-0.892 2,-2 v -8 c 0,-1.108 -0.892,-2 -2,-2 z m 0,2 h 8 v 8 h -8 z m -4,1 v 2 h 1 v -2 z m 15,0 v 2 h 1 v -2 z m -15,4 v 2 h 1 v -2 z m 15,0 v 2 h 1 v -2 z m -10,6 v 1 h 2 v -1 z m 4,0 v 1 h 2 v -1 z"
     sodipodi:nodetypes="ccccccccccsssssssssccccccccccccccccccccccccccccccccccc" />
  <path
     id="path1039"
     style="fill:#0070c0;fill-opacity:1;stroke-width:0.8;stroke-linecap:round;stroke-linejoin:round"
     d="M 50.000001,38 C 41.36,38 38,41.36 38,50.000001 c 0,8.64 3.36,12.000001 12.000001,12.000001 C 58.64,62.000002 62,58.640001 62,50.000001 62,41.36 58.64,38 50.000001,38 Z" />
  <path
     id="rect16117"
     style="fill:#ffffff;fill-opacity:1;stroke-width:2;stroke-linecap:round;stroke-linejoin:round"
     d="M 50.5 42 C 50.46731 42 50.435187 42.003766 50.404297 42.009766 C 50.371717 42.015966 50.340507 42.024939 50.310547 42.037109 C 50.308647 42.037865 50.306588 42.038262 50.304688 42.039062 C 50.281818 42.048662 50.261194 42.061449 50.240234 42.074219 C 50.234934 42.076719 50.229749 42.079331 50.224609 42.082031 C 50.223109 42.083015 50.222203 42.084937 50.220703 42.085938 C 50.218703 42.087238 50.216844 42.088544 50.214844 42.089844 C 50.191224 42.106284 50.168828 42.124351 50.148438 42.144531 L 50.146484 42.146484 C 50.127204 42.165764 50.10967 42.186784 50.09375 42.208984 C 50.09115 42.212184 50.088437 42.21545 50.085938 42.21875 L 50.085938 42.220703 C 50.082637 42.225203 50.079372 42.229795 50.076172 42.234375 C 50.062072 42.256865 50.049502 42.279968 50.039062 42.304688 C 50.027763 42.331517 50.018219 42.359642 50.011719 42.388672 C 50.011047 42.391272 50.010466 42.393884 50.009766 42.396484 L 50.009766 42.398438 C 50.00976 42.399738 50.00976 42.401044 50.009766 42.402344 C 50.004166 42.430694 50.0006 42.460374 50 42.490234 C 49.999995 42.491534 49.999995 42.492841 50 42.494141 L 50 42.496094 C 49.999994 42.497394 50 42.4987 50 42.5 L 50 50.671875 C 49.145907 49.614693 47.859318 49.000055 46.5 49 C 44.014718 48.999999 42 51.014718 42 53.5 C 42 55.985282 44.014718 58 46.5 58 C 48.809532 57.9986 50.743055 56.249067 50.974609 53.951172 L 51 53.5 L 51 43.011719 C 53.487646 43.15985 55.654327 45.419982 56.302734 46.716797 C 56.992937 48.097201 56.996094 49.498047 56.996094 49.498047 C 56.999094 49.77275 57.223331 49.993491 57.498047 49.992188 C 57.772762 49.993488 57.996994 49.772752 58 49.498047 C 58 49.498047 58.004701 47.894125 57.195312 46.275391 C 56.385942 44.656658 53.667629 42 50.501953 42 L 50.5 42 z M 46.5 50 A 3.4999999 3.4999999 0 0 1 50 53.5 A 3.4999999 3.4999999 0 0 1 46.5 57 A 3.4999999 3.4999999 0 0 1 43 53.5 A 3.4999999 3.4999999 0 0 1 46.5 50 z " />
</svg>
