<?xml version="1.0" encoding="UTF-8" standalone="no"?>
<svg
   viewbox="0 0 200 200"
   version="1.1"
   id="svg4"
   sodipodi:docname="media-removable.svg"
   width="64"
   height="64"
   inkscape:version="1.1.1 (3bf5ae0d25, 2021-09-20, custom)"
   xmlns:inkscape="http://www.inkscape.org/namespaces/inkscape"
   xmlns:sodipodi="http://sodipodi.sourceforge.net/DTD/sodipodi-0.dtd"
   xmlns="http://www.w3.org/2000/svg"
   xmlns:svg="http://www.w3.org/2000/svg">
  <defs
     id="defs8" />
  <sodipodi:namedview
     id="namedview6"
     pagecolor="#ffffff"
     bordercolor="#666666"
     borderopacity="1.0"
     inkscape:pageshadow="2"
     inkscape:pageopacity="0.0"
     inkscape:pagecheckerboard="0"
     showgrid="false"
     inkscape:zoom="12.375"
     inkscape:cx="31.959596"
     inkscape:cy="32"
     inkscape:window-width="1920"
     inkscape:window-height="1006"
     inkscape:window-x="0"
     inkscape:window-y="0"
     inkscape:window-maximized="1"
     inkscape:current-layer="svg4"
     showguides="true" />
  <path
     d="M 2,32 C 2,10.4 10.4,2 32,2 53.6,2 62,10.4 62,32 62,53.6 53.6,62 32,62 10.4,62 2,53.6 2,32"
     id="path2"
     style="stroke-width:0.3;fill:#1fa9b7;fill-opacity:1" />
  <path
     id="rect845"
     style="fill:#9ddfe4;fill-opacity:1"
     d="m 25,10 h 14 c 1.108,0 2,0.892 2,2 v 14 c 0,1.108 -0.892,2 -2,2 H 25 c -1.108,0 -2,-0.892 -2,-2 V 12 c 0,-1.108 0.892,-2 2,-2 z" />
  <path
     id="rect949"
     style="fill:#ffffff;stroke-width:0.970142"
     d="m 23,22 c -1.662,0 -3,1.338 -3,3 v 19 c 0,5.54 4.46,10 10,10 h 4 c 5.54,0 10,-4.46 10,-10 V 25 c 0,-1.662 -1.338,-3 -3,-3 z"
     sodipodi:nodetypes="sccssccss" />
  <path
     id="rect6784"
     style="fill:#1a8497;fill-opacity:1"
     d="M 27 12 C 26.446 12 26 12.446 26 13 L 26 19 C 26 19.554 26.446 20 27 20 C 27.554 20 28 19.554 28 19 L 28 13 C 28 12.446 27.554 12 27 12 z M 32 12 C 31.446 12 31 12.446 31 13 L 31 19 C 31 19.554 31.446 20 32 20 C 32.554 20 33 19.554 33 19 L 33 13 C 33 12.446 32.554 12 32 12 z M 37 12 C 36.446 12 36 12.446 36 13 L 36 19 C 36 19.554 36.446 20 37 20 C 37.554 20 38 19.554 38 19 L 38 13 C 38 12.446 37.554 12 37 12 z " />
</svg>
