<?xml version="1.0" encoding="UTF-8" standalone="no"?>
<svg
   viewbox="0 0 200 200"
   version="1.1"
   id="svg4"
   sodipodi:docname="ipod.svg"
   width="64"
   height="64"
   inkscape:version="1.1.1 (3bf5ae0d25, 2021-09-20, custom)"
   xmlns:inkscape="http://www.inkscape.org/namespaces/inkscape"
   xmlns:sodipodi="http://sodipodi.sourceforge.net/DTD/sodipodi-0.dtd"
   xmlns="http://www.w3.org/2000/svg"
   xmlns:svg="http://www.w3.org/2000/svg">
  <defs
     id="defs8" />
  <sodipodi:namedview
     id="namedview6"
     pagecolor="#ffffff"
     bordercolor="#666666"
     borderopacity="1.0"
     inkscape:pageshadow="2"
     inkscape:pageopacity="0.0"
     inkscape:pagecheckerboard="0"
     showgrid="false"
     inkscape:zoom="6.4416667"
     inkscape:cx="5.9767141"
     inkscape:cy="9.3143596"
     inkscape:window-width="1920"
     inkscape:window-height="1006"
     inkscape:window-x="0"
     inkscape:window-y="0"
     inkscape:window-maximized="1"
     inkscape:current-layer="svg4"
     showguides="true" />
  <path
     d="M 2,32 C 2,10.4 10.4,2 32,2 53.6,2 62,10.4 62,32 62,53.6 53.6,62 32,62 10.4,62 2,53.6 2,32"
     id="path2"
     style="stroke-width:0.3;fill:#6876e7;fill-opacity:1;stroke:none" />
  <rect
     style="fill:#ffffff;fill-opacity:1;stroke-width:4;stroke-linecap:round;stroke-linejoin:round"
     id="rect9864"
     width="28"
     height="44"
     x="18"
     y="10"
     ry="4" />
  <rect
     style="fill:#5561c9;fill-opacity:1;stroke-width:2.3094;stroke-linecap:round;stroke-linejoin:round"
     id="rect845"
     width="20"
     height="16"
     x="22"
     y="14" />
  <path
     id="path4266"
     style="fill:#c3c7ec;fill-opacity:1;stroke-width:2;stroke-linecap:round;stroke-linejoin:round"
     d="M 32 34 A 8 8 0 0 0 24 42 A 8 8 0 0 0 32 50 A 8 8 0 0 0 40 42 A 8 8 0 0 0 32 34 z M 32 38 A 4 4 0 0 1 36 42 A 4 4 0 0 1 32 46 A 4 4 0 0 1 28 42 A 4 4 0 0 1 32 38 z " />
</svg>
