<?xml version="1.0" encoding="UTF-8" standalone="no"?>
<svg
   viewbox="0 0 200 200"
   version="1.1"
   id="svg4"
   sodipodi:docname="network-card.svg"
   width="64"
   height="64"
   inkscape:version="1.1.1 (3bf5ae0d25, 2021-09-20, custom)"
   xmlns:inkscape="http://www.inkscape.org/namespaces/inkscape"
   xmlns:sodipodi="http://sodipodi.sourceforge.net/DTD/sodipodi-0.dtd"
   xmlns="http://www.w3.org/2000/svg"
   xmlns:svg="http://www.w3.org/2000/svg">
  <defs
     id="defs8" />
  <sodipodi:namedview
     id="namedview6"
     pagecolor="#ffffff"
     bordercolor="#666666"
     borderopacity="1.0"
     inkscape:pageshadow="2"
     inkscape:pageopacity="0.0"
     inkscape:pagecheckerboard="0"
     showgrid="false"
     inkscape:zoom="9.1098921"
     inkscape:cx="39.517482"
     inkscape:cy="39.90168"
     inkscape:window-width="1920"
     inkscape:window-height="996"
     inkscape:window-x="0"
     inkscape:window-y="0"
     inkscape:window-maximized="1"
     inkscape:current-layer="svg4"
     showguides="false" />
  <path
     d="M 2,32 C 2,10.4 10.4,2 32,2 53.6,2 62,10.4 62,32 62,53.6 53.6,62 32,62 10.4,62 2,53.6 2,32"
     id="path2"
     style="stroke-width:0.3;fill:#53a4ff;fill-opacity:1;stroke:none" />
  <path
     id="rect845"
     style="fill:#ffffff;stroke-width:2;stroke-linecap:round;stroke-linejoin:round"
     d="m 17,20 v 24 h 10 v -1 c 0,-1.108 0.892,-2 2,-2 h 8 c 1.108,0 2,0.826958 2,2 v 1 h 10 c 2.216,0 4,-1.784 4,-4 V 24 c 0,-2.216 -1.784,-4 -4,-4 z"
     sodipodi:nodetypes="cccsssscssssc" />
  <path
     id="rect949"
     style="fill:#0070c0;fill-opacity:1;stroke-width:2;stroke-linecap:round;stroke-linejoin:round"
     d="m 12,16 c -0.554,0 -1,0.446 -1,1 v 2 c 0,0.554 0.446,1 1,1 h 3 v 30 h 4 V 18 c 0,-1.108 -0.892,-2 -2,-2 z"
     sodipodi:nodetypes="cssscccscc" />
  <path
     id="rect5039"
     style="fill:#91c5ff;fill-opacity:1;stroke-width:2;stroke-linecap:round;stroke-linejoin:round"
     d="m 32,23 v 1 h 2 v -1 z m 4,0 v 1 h 2 v -1 z m -5,2 c -1.108,0 -2,0.892 -2,2 v 8 c 0,1.108 0.892,2 2,2 h 8 c 1.108,0 2,-0.892 2,-2 v -8 c 0,-1.108 -0.892,-2 -2,-2 z m 0,2 h 8 v 8 h -8 z m -4,1 v 2 h 1 v -2 z m 15,0 v 2 h 1 v -2 z m -15,4 v 2 h 1 v -2 z m 15,0 v 2 h 1 v -2 z m -10,6 v 1 h 2 v -1 z m 4,0 v 1 h 2 v -1 z"
     sodipodi:nodetypes="ccccccccccsssssssssccccccccccccccccccccccccccccccccccc" />
  <path
     id="path1039"
     style="fill:#2864a7;fill-opacity:1;stroke-width:0.8;stroke-linecap:round;stroke-linejoin:round"
     d="M 50.000001,38 C 41.36,38 38,41.36 38,50.000001 c 0,8.64 3.36,12.000001 12.000001,12.000001 C 58.64,62.000002 62,58.640001 62,50.000001 62,41.36 58.64,38 50.000001,38 Z" />
  <path
     id="path1050"
     style="fill:#ffffff;stroke-width:1.10188"
     d="M 50.360823,43 A 6.9999999,6.9999999 0 0 0 45.54637,44.921875 8.9999992,2.9999998 30 0 0 44.456527,44.804688 8.9999992,2.9999998 30 0 0 42.565902,45.5 8.9999992,2.9999998 30 0 0 43.554183,48.378906 6.9999999,6.9999999 0 0 0 43.360824,50 6.9999999,6.9999999 0 0 0 50.360823,57 6.9999999,6.9999999 0 0 0 55.169417,55.085938 8.9999992,2.9999998 30 0 0 58.155745,54.5 8.9999992,2.9999998 30 0 0 57.167464,51.628906 6.9999999,6.9999999 0 0 0 57.360823,50 a 6.9999999,6.9999999 0 0 0 -7,-7 z m 0,1 a 6,6 0 0 1 6,6 6,6 0 0 1 -0.05469,0.769531 6,6 0 0 1 -0.06641,0.402344 6,6 0 0 1 -0.02147,0.101563 6,6 0 0 1 -0.105482,0.416015 6,6 0 0 1 -1.376951,2.414063 7.999999,1.9999999 30 0 1 -5.375,-2.371094 7.999999,1.9999999 30 0 1 -4.738281,-3.470703 6,6 0 0 1 1.361328,-2.363281 7.999999,1.9999999 30 0 1 0.0039,0 6,6 0 0 1 0.378913,-0.371093 6,6 0 0 1 0.380859,-0.312499 6,6 0 0 1 3.613277,-1.214844 z m -6.074218,1.644532 a 7.999999,1.9999999 30 0 1 0.572266,0.03126 6.9999999,6.9999999 0 0 0 -0.996094,1.728516 7.999999,1.9999999 30 0 1 -0.429688,-1.404297 7.999999,1.9999999 30 0 1 0.853516,-0.355468 z m 0.121092,3.65039 a 8.9999992,2.9999998 30 0 0 4.453126,3.302734 8.9999992,2.9999998 30 0 0 5.089845,2.205078 A 6,6 0 0 1 50.360823,56 a 6,6 0 0 1 -5.999999,-6 6,6 0 0 1 0.04687,-0.705078 z m 12.451173,3.30664 A 7.999999,1.9999999 30 0 1 57.288557,54 7.999999,1.9999999 30 0 1 55.860823,54.330078 6.9999999,6.9999999 0 0 0 56.85887,52.601562 Z" />
</svg>
