<svg height="24" width="24" xmlns:xlink="http://www.w3.org/1999/xlink" xmlns="http://www.w3.org/2000/svg"><defs><linearGradient id="a"><stop offset="0" stop-color="#dbdee0"/><stop offset="1" stop-color="#dbdee0" stop-opacity="0"/></linearGradient><linearGradient id="b"><stop offset="0" stop-color="#dbdee0"/><stop offset="1" stop-color="#dbdee0" stop-opacity="0"/></linearGradient><linearGradient gradientTransform="matrix(-1 0 0 1 471.875 367.875)" gradientUnits="userSpaceOnUse" xlink:href="#b" id="d" x1="5.875" x2="3.875" y1="31.125" y2="4.125"/><linearGradient gradientTransform="translate(448 368)" gradientUnits="userSpaceOnUse" xlink:href="#a" id="c" x1="12" x2="23" y1="6" y2="10"/></defs><g font-weight="400" color="#000" font-family="Sans"><path d="M460 372c-4.406 0-8 3.594-8 8 0 4.406 3.594 8 8 8v-2c-3.326 0-6-2.674-6-6s2.674-6 6-6a1 1 0 0 0 0-2z" style="text-indent:0;text-align:start;line-height:normal;text-transform:none;block-progression:tb;marker:none;-inkscape-font-specification:Sans" fill="url(#c)" overflow="visible" transform="translate(-448 -368)"/><path d="M460 372c4.406 0 8 3.594 8 8 0 4.406-3.594 8-8 8v-2c3.326 0 6-2.674 6-6s-2.674-6-6-6z" style="text-indent:0;text-align:start;line-height:normal;text-transform:none;block-progression:tb;marker:none;-inkscape-font-specification:Sans" fill="url(#d)" overflow="visible" transform="translate(-448 -368)"/></g></svg>