<svg width="16" height="16" enable-background="new" version="1.1" xmlns="http://www.w3.org/2000/svg">
 <path d="m12.5 8c2 0 2 3 0 3s-2-3 0-3zm0 4c2.5 0 2.5 1.5 2.5 1.5v0.5h-5v-0.5s0-1.5 2.5-1.5z" color="#000000" fill="#aaaaaa" stroke-linecap="round" stroke-linejoin="round" stroke-width="2" style="-inkscape-stroke:none"/>
 <path class="ColorScheme-Text" d="m2.5 2c-0.831 0-1.5 0.669-1.5 1.5v0.5 2 6c0 1.108 0.892 2 2 2h6v-0.5s0.022526-0.76375 0.54492-1.3906c0.031394-0.037673 0.066219-0.073338 0.10156-0.10938h-6.6465v-6h10v1.0488c0.55044 0.1056 1.0383 0.37927 1.373 0.75586 0.31245 0.3515 0.49765 0.7669 0.57812 1.1953h0.048828v-3c0-1.108-0.892-2-2-2h-1-4l-2-2h-3.5z" color="#aaaaaa" fill="currentColor"/>
</svg>
