<svg width="16" height="16" version="1.1" xmlns="http://www.w3.org/2000/svg">
 <path d="m2 1c-1 0-1 1-1 1v12s0 1 1 1h12c1 0 1-1 1-1v-12s0-1-1-1h-9zm1 2h10v7h-3a2 2 0 0 1-0.029297 0.33398c-0.00119 0.0072-0.00264 0.01436-0.00391 0.02149a2 2 0 0 1-0.087887 0.32812 2 2 0 0 1-0.14648 0.31641 2 2 0 0 1-0.73242 0.73242 2 2 0 0 1-0.31641 0.14648 2 2 0 0 1-0.32812 0.08789c-0.00713 0.0013-0.014329 0.0027-0.021484 0.0039a2 2 0 0 1-0.33398 0.029304 2 2 0 0 1-0.33398-0.029297 2 2 0 0 1-0.021484-0.003906 2 2 0 0 1-0.32812-0.087891 2 2 0 0 1-0.31641-0.14648 2 2 0 0 1-0.73242-0.73242 2 2 0 0 1-0.14648-0.31641 2 2 0 0 1-0.087891-0.32812 2 2 0 0 1-0.0039062-0.021485 2 2 0 0 1-0.029297-0.33398h-3zm0 9h1.5352a4 4 0 0 0 0.83203 1h-2.3672zm8.4648 0h1.5352v1h-2.3672a4 4 0 0 0 0.83203-1z" fill="#aaaaaa"/>
 <path d="m7 10v-3h-2l3-3 3 3h-2v3z" fill="#aaaaaa" stroke-width=".5"/>
</svg>
