<svg width="16" height="16" version="1.1" xmlns="http://www.w3.org/2000/svg">
 <defs>
  <style id="current-color-scheme" type="text/css">.ColorScheme-Text { color:#aaaaaa; } .ColorScheme-Highlight { color:#5294e2; }</style>
 </defs>
 <path d="m8 0.023438c-0.43359 0.003907-0.81641 0.28125-0.94922 0.6875l-1.4023 4.2891-4.6562 0.015625c-0.97266 0.00391-1.3672 1.25-0.57422 1.8125l3.6406 2.5742-1.5 4.2891c-0.31641 0.90625 0.6953 1.6914 1.4961 1.1641l3.8984-2.5859 0.046875 0.03125 0.046875-0.03125 3.8984 2.5859c0.01785 0.01175 0.03665 0.01883 0.05469 0.0293v-5.3145l-0.058596-0.16797 0.058594-0.041016v-2.3613h3.3398l0.24219-0.17188c0.79297-0.5625 0.39844-1.8086-0.57422-1.8125l-4.6562-0.015625-1.4023-4.2891c-0.13281-0.40625-0.51563-0.68359-0.94922-0.6875zm0 4.2109 0.67578 2.0703c0.13281 0.41016 0.51562 0.6875 0.94531 0.69141l2.2539 0.0078124-1.7031 1.2031c-0.36328 0.25781-0.51172 0.72269-0.36719 1.1445l0.76562 2.1914-1.9609-1.3008c-0.20312-0.058591-0.40625-0.11328-0.60938-0.16797-0.20312 0.054688-0.40625 0.10938-0.60938 0.16797l-1.9609 1.3008 0.76562-2.1914c0.14453-0.42187-0.0039079-0.88675-0.36719-1.1445l-1.7031-1.2031 2.2539-0.0078124c0.42969-0.00391 0.8125-0.28125 0.94531-0.69141z" fill="#aaaaaa" opacity=".35"/>
 <path class="ColorScheme-Highlight" d="M13 8v5h2V8zm0 6v2h2v-2z" fill="currentColor"/>
</svg>
