<svg height="16" width="16" xmlns="http://www.w3.org/2000/svg">
    <g fill="#363636" font-weight="400">
        <path d="M13.238 1l-.353.36-8.969 9.095-.03.045c-.061.099-.27.45-.583 1.088-.314.638-.7 1.51-1.012 2.492L2 15l.92-.291a18.163 18.163 0 0 0 2.492-1.012c.638-.314.987-.52 1.088-.584l.045-.029L16 3.762zm-8.347 9.89l1.218 1.22-.177.175c.007-.005-.379.227-.961.514-.214.105-.536.222-.834.338l-.274-.274c.116-.298.233-.62.338-.834.287-.582.518-.966.514-.96z" font-family="Ubuntu" font-size="15" letter-spacing="0" style="line-height:125%;-inkscape-font-specification:Ubuntu;text-align:center" text-anchor="middle" word-spacing="0"/>
        <path color="#000" d="M12 1H5.5C4 1 3.007 1.64 2.526 2.558c-.482.918-.525 2.018-.525 3.07v.373h-2c.347.76.736 1.537 1.166 2.325.43.78.875 1.533 1.334 2.258.449-.725.889-1.478 1.32-2.258A43.07 43.07 0 0 0 5 6H3v-.37c0-1.013.079-1.975.41-2.606C3.74 2.393 4.25 2 5.5 2H12z" font-family="sans-serif" overflow="visible" style="line-height:normal;font-variant-ligatures:none;font-variant-position:normal;font-variant-caps:normal;font-variant-numeric:normal;font-variant-alternates:normal;font-feature-settings:normal;text-indent:0;text-align:start;text-decoration-line:none;text-decoration-style:solid;text-decoration-color:#000;text-transform:none;shape-padding:0;isolation:auto;mix-blend-mode:normal;marker:none" white-space="normal"/>
    </g>
</svg>
