<svg width="16" height="16" version="1.1" xmlns="http://www.w3.org/2000/svg" xmlns:osb="http://www.openswatchbook.org/uri/2009/osb">
 <g transform="translate(-112,-540)" fill="#363636">
  <path d="m117 540c-1.1043 0-1.9996 1.0964-2 2.4492v0.55078l2.8574 5-2.8574 5v0.55078c3.5e-4 1.3528 0.89568 2.4492 2 2.4492h5.0001c1.1043 0 1.9996-1.0964 2-2.4492v-0.55078l-2.8399-5 2.8399-5v-0.55078c-3.5e-4 -1.3528-0.89568-2.4492-2-2.4492zm2.0254 1.0117c1.3676-6e-5 1.7391 0.014 3.1016 0.0469 0.67682 0.17004 0.86793 1.018 0.83203 1.6367-1.0012 1.7695-2.9591 5.3047-2.9591 5.3047s2.1352 3.4832 2.9591 5.3047c0.0359 0.61876-0.15521 1.4667-0.83203 1.6367-2.7251 0.0657-2.4862 0.0535-5.1798 0.0117-0.72645-0.13044-0.95349-1.0129-0.92579-1.6504 0.96305-1.7934 2.9785-5.3028 2.9785-5.3028s-2.1426-3.4783-2.9785-5.3027c-0.0277-0.63749 0.19934-1.52 0.92579-1.6504 1.3468-0.0209 0.71053-0.0351 2.0781-0.0352z"/>
  <path d="m117.75 544 1.7461 3.4375 1.7539-3.4375zm1.75 5-0.39453 3.0254c-1.2117 0.15729-2.1019 0.99363-2.1016 1.9746h5c1e-3 -0.0339 1e-3 -0.0677 0-0.10156-0.0615-0.94679-0.94648-1.729-2.1191-1.873z"/>
  <rect x="114" y="540" width="11" height="1" rx=".5" ry=".5"/>
  <rect x="114" y="555" width="11" height="1" rx=".5" ry=".5"/>
 </g>
</svg>
