<svg xmlns="http://www.w3.org/2000/svg" width="64" height="64" viewBox="0 0 16.933 16.933"><g transform="translate(0 -280.07)"><circle cx="8.466" cy="288.53" r="7.144" fill="#4e99f3" style="paint-order:stroke markers fill"/><g fill="#fff" fill-opacity=".993" stroke-width="1.317"><path d="M11.302 285.346c-.56-.323-1.333-.337-2.016-.035-.631.279-1.087.894-1.356 1.356a.27.27 0 0 0-.24.466 2.69 2.69 0 0 0-.045.105l-1.308 2.872a.27.27 0 0 0-.232.487l.009.004-.294.647h-.731a.27.27 0 0 0 0 .54h1.35a.27.27 0 0 0 0-.54h-.026l.187-.412a.27.27 0 0 0 .075.012.269.269 0 0 0 .146-.496l1.354-2.975a.268.268 0 0 0 .246-.479c.23-.389.6-.88 1.084-1.093.52-.23 1.12-.227 1.527.009.3.173.473.448.513.819.075.693.011 1.158-.19 1.382a.496.496 0 0 1-.059.055v.604c.166-.056.326-.148.461-.299.312-.347.418-.936.325-1.8-.058-.536-.335-.972-.78-1.229z"/><path d="M10.534 289.898c.176 0 .342.04.492.11v-2.134c0-.149.014-.135-.135-.135h-.528c-.15 0-1.653.124-2.05 2.088l-.256 1.623c0 .15.121.337.27.337h1.281a1.165 1.165 0 0 1-.247-.716c0-.647.526-1.173 1.173-1.173z"/><path d="M11.161 290.423a.915.915 0 0 0-.627-.255.9.9 0 1 0-.295 1.754.896.896 0 0 0 1.042-.347.898.898 0 0 0-.12-1.152z"/></g></g></svg>