<svg xmlns="http://www.w3.org/2000/svg" width="64" height="64" viewBox="0 0 16.933 16.933"><circle cx="8.466" cy="8.466" r="7.144" fill="#c83737" style="paint-order:stroke fill markers"/><path fill="#fff" d="M6.614 1.57a7.144 7.144 0 0 0-2.116.964v5.138l1.059-1.059 1.057 1.058V1.57z"/><path fill-rule="evenodd" d="M15 11.041A27 27 0 0 0 5 32a27 27 0 0 0 10 20.951v-41.91z" opacity=".2" style="paint-order:fill markers stroke" transform="scale(.26458)"/><path fill="#fff" d="m9.264 10.66-.532 1.442h1.065zm-.222-.386h.445l1.104 2.898h-.407l-.264-.743H8.613l-.264.743h-.413zm2.945 1.806q-.433 0-.6.099-.167.099-.167.338 0 .19.124.303.127.11.342.11.297 0 .476-.21.18-.211.18-.56v-.08zm.713-.148v1.241h-.358v-.33q-.122.198-.305.293-.182.093-.446.093-.334 0-.532-.186-.196-.188-.196-.503 0-.367.245-.553.246-.187.733-.187h.501v-.034q0-.247-.163-.381-.16-.136-.454-.136-.186 0-.363.045t-.34.134v-.33q.196-.076.38-.113.185-.039.36-.039.472 0 .705.245.233.244.233.741z" aria-label="Aa" opacity=".5"/></svg>