<svg xmlns="http://www.w3.org/2000/svg" width="64" height="64"><circle cx="32" cy="32" r="27" fill="#3d4144" style="paint-order:stroke fill markers"/><path fill="#24a9f7" d="M25 5.934a27 27 0 0 0-8 3.642v19.42l4.002-4.002L25 28.992V5.933z"/><path fill-rule="evenodd" d="M15 11.041A27 27 0 0 0 5 32a27 27 0 0 0 10 20.951z" opacity=".2" style="paint-order:fill markers stroke"/><path fill="#d52337" d="M48.723 24.006v.012c-.153 0-.31 0-.455.027-2.668.306-5.438 5.567-5.637 10.791-3.52 2.23-7.265 4.293-11.008 5.893-1.81-.614-6.086-2.2-8.865-1.578-1.732.377-2.97 2.374-2.695 3.752-.02-.049-.053-.091-.057-.145.006.135.054.279.123.424.007.017.007.038.014.055l-.006-.041c.428.877 1.822 1.843 2.195 1.843 2.03.38 6.199-.868 8.752-1.816 4.363 1.966 9.638 4.586 13.475 6.725.585 1.558 1.477 3.117 2.485 4.447a27 27 0 0 0 1.734-1.24c-.1-.26-.2-.52-.299-.795l.053-.055c.263.158.416.25.717.438a27 27 0 0 0 2.043-1.89 19.55 19.55 0 0 0-3.645-2.923c.045.167.058.347.057.531-.836-3.62-1.45-8.232-1.844-12.115 6.018-4.318 9.132-9.91 4.357-11.965-.54-.375-1.035-.347-1.494-.375zm.324.314c.368.02.772.116 1.213.3 3.282 1.362.38 4.76-4.685 8.286.06-5.05.907-8.721 3.472-8.586zm-6.15 13.5c.462 3.37.611 4.696 1.18 9.194-2.85-1.658-6.118-3.55-9.112-4.934 2.888-1.185 5.33-2.587 7.932-4.26zM22.83 40.95c.551.017 1.13.088 1.676.173l.365.031c1.197.17 2.022.324 2.574.473v.022c.342.138.737.312 1.107.468-2.077 1.269-7.587 2.046-8.435.92-.241-1.74 1.12-2.138 2.713-2.088z" style="paint-order:stroke fill markers"/></svg>