<svg xmlns="http://www.w3.org/2000/svg" width="64" height="64" viewBox="0 0 16.933 16.933"><g stroke-width="3.78"><path fill="#5ad85d" d="m51.062 12.941-2.799 2.8c8.982 8.983 8.982 23.546 0 32.528l2.807 2.806a27 27 0 0 0 .86-37.277 27 27 0 0 0-.868-.857zm7.828 16.674.018.232c-.006-.077-.011-.155-.018-.232zm.104 2.674-.008.267c.002-.089.007-.178.008-.267zm-.162 2.674a22.5 22.5 0 0 1-.034.275l.034-.275zm-.44 2.72-.031.139.031-.139zm-.705 2.631-.027.084.027-.084zm-3.582 7.19-.086.12.086-.12zm-1.627 2.086c-.063.074-.126.149-.19.222.065-.073.127-.149.19-.222z" style="paint-order:stroke fill markers" transform="scale(.26458)"/><path fill="#ffce3d" d="m51.061 12.943-2.797 2.799c6.456 6.455 8.272 15.795 5.447 23.873.072-.205.147-.407.213-.615l3.813 1.207a27 27 0 0 0 1.074-5.065 27 27 0 0 0 .184-2.822v-.031a27 27 0 0 0-7.934-19.346zm2.65 26.672a22.907 22.907 0 0 1-5.447 8.654l.022.022a22.87 22.87 0 0 0 5.425-8.676zm5.18-10 .018.232c-.006-.077-.011-.155-.018-.232zm-1.203 10.699-.027.084.027-.084zm-3.582 7.19-.086.12.086-.12zm-1.627 2.085c-.063.074-.126.15-.19.223.065-.073.127-.149.19-.223z" style="paint-order:stroke fill markers" transform="scale(.26458)"/><path fill="#ff584c" d="m51.072 12.932-2.809 2.81a22.884 22.884 0 0 1 5.952 10.311l3.863-1.035a27 27 0 0 0-7.006-12.086zm3.404 14.209.026.111-.026-.111zm.211 1.107.028.17-.028-.17zm.139.977c.016.137.037.273.05.41-.014-.137-.033-.273-.05-.41zm4.064.39.018.233c-.006-.077-.01-.155-.018-.232zm-3.964.604c.015.2.032.4.043.6-.01-.2-.028-.4-.043-.6zm.054.961c.01.264.02.527.02.791 0-.263-.01-.527-.02-.791zm.016 1.006zm3.998.103-.008.268c.002-.09.007-.178.008-.268zm-4.04 1.106zm-.097 1.139a23.03 23.03 0 0 1-.09.742c.036-.246.063-.494.09-.742zm3.975.43a22.5 22.5 0 0 1-.033.275l.033-.276zm-4.131.72c-.034.211-.068.423-.108.633.04-.21.074-.422.108-.633zm3.691 2-.031.139.031-.139zm-.705 2.631-.027.084.027-.084zm-1.209 3.068-.101.21a27 27 0 0 0 .101-.21zm-1.246 2.368c-.045.077-.094.15-.14.226a27 27 0 0 0 .14-.226zm-5.064.353-.166.213c.056-.07.11-.142.166-.213zm-.602.74c-.117.138-.233.277-.353.412.12-.135.236-.273.353-.412zm4.54.66-.087.122.086-.122zm-5.25.143zm4.898.336-.166.223a27 27 0 0 0 .166-.223zm-1.276 1.607c-.063.074-.125.15-.19.223.065-.073.127-.149.19-.223zm-.465.53-.097.105a27 27 0 0 0 .097-.105z" style="paint-order:stroke fill markers" transform="scale(.26458)"/></g><path fill="#7e57c2" d="M13.518 3.416a7.144 7.144 0 0 0-10.103 0 7.144 7.144 0 0 0 0 10.103 7.144 7.144 0 0 0 10.103 0l-.748-.748a6.085 6.085 0 0 0 0-8.606zm2.063 4.42.005.061a7.144 7.144 0 0 0-.005-.061zm.028.707-.002.07a7.144 7.144 0 0 0 .002-.07zm-.043.707-.01.073a7.144 7.144 0 0 0 .01-.073zm-.117.72-.008.037a7.144 7.144 0 0 0 .008-.037zm-.186.696-.007.022a7.144 7.144 0 0 0 .007-.022zm-.948 1.903-.022.031a7.144 7.144 0 0 0 .022-.031zm-.43.552-.05.058a7.144 7.144 0 0 0 .05-.058z" style="paint-order:stroke fill markers"/><g fill="#fff"><path d="M9.742 9.67a1.587 1.587 0 0 1-1.276.645 1.587 1.587 0 0 1-1.274-.644 3.704 2.381 0 0 0-2.43 2.232h7.41a3.704 2.381 0 0 0-2.43-2.234z" style="paint-order:stroke markers fill" transform="translate(0 .001)"/><g style="paint-order:stroke markers fill" transform="translate(.264 -278.48)"><circle cx="8.202" cy="284.83" r="1.587"/><path d="M6.615 284.83a1.587 2.646 0 0 0 1.587 2.645 1.587 2.646 0 0 0 1.588-2.646z"/></g></g></svg>