<svg xmlns="http://www.w3.org/2000/svg" width="64" height="64" viewBox="0 0 16.933 16.933"><defs><linearGradient id="a" x1="43" x2="49" y1="44" y2="50" gradientUnits="userSpaceOnUse"><stop offset="0"/><stop offset="1" stop-opacity="0"/></linearGradient></defs><circle cx="8.466" cy="8.466" r="7.144" fill="#ececec" style="paint-order:stroke fill markers"/><rect width="4.233" height=".529" x="5.821" y="9.525" fill="#666" ry=".265" style="paint-order:stroke markers fill"/><path fill="#666" d="M4.502 4.725a.264.264 0 0 0-.262.13.264.264 0 0 0 .097.362l2.842 1.64-2.842 1.641a.264.264 0 0 0-.097.362c.074.127.235.17.362.097l3.207-1.852a.26.26 0 0 0 .127-.225c.002-.008.001-.015.002-.022 0-.008 0-.015-.002-.023a.26.26 0 0 0-.127-.224L4.602 4.758a.266.266 0 0 0-.1-.033z" style="paint-order:stroke markers fill"/><path fill="url(#a)" d="M58.895 34.105 34.09 58.91a27 27 0 0 0 24.805-24.805z" opacity=".15" style="paint-order:stroke fill markers" transform="scale(.26458)"/></svg>