<svg xmlns="http://www.w3.org/2000/svg" width="64" height="64" viewBox="0 0 16.933 16.933"><circle cx="8.466" cy="8.46" r="7.144" fill="#5f5f5f" style="paint-order:stroke markers fill"/><circle cx="8.466" cy="8.46" r="6.085" fill="#fff" opacity=".1" style="paint-order:stroke markers fill"/><path fill="#c5f533" d="M7.634 6.025c-1.075 0-1.86.824-2.363 1.784-.654 1.25-1.345 3.1-.012 3.1 1.402 0 2.568-.778 3.392-1.367.299.545.734 1.367 1.342 1.367.608 0 1.162-.24 1.432-.452l1.01-1.407-.11-.125c-1.277.633-1.713 1.068-2.431-.298l.906-.834 1.331-1.648-.098-.121L9.638 8.12c-.387-.802-1.184-2.095-2.005-2.096m-.896 1.037c.76 0 1.207 1.121 1.655 1.952-.66.375-1.523.839-2.156.71-.75-.154-.94-.939-.638-1.528.268-.552.596-1.133 1.138-1.133"/></svg>