<svg xmlns="http://www.w3.org/2000/svg" width="64" height="64"><circle cx="32" cy="32" r="27" fill="#4db6ac" style="paint-order:stroke fill markers"/><path fill="#d7f1f1" d="M25.996 15.02a.996.996 0 0 0-.695 1.709l1.77 1.77a8.99 8.99 0 0 0-3.837 5.52h17.53a8.993 8.993 0 0 0-4.461-5.896l1.396-1.394a.996.996 0 0 0-.695-1.71.996.996 0 0 0-.713.301l-1.998 1.998a8.96 8.96 0 0 0-5.348.238l-2.236-2.236a.996.996 0 0 0-.713-.3zm3.004 5a1 1 0 0 1 1 1 1 1 0 0 1-1 1 1 1 0 0 1-1-1 1 1 0 0 1 1-1zm6 0a1 1 0 0 1 1 1 1 1 0 0 1-1 1 1 1 0 0 1-1-1 1 1 0 0 1 1-1zm-16 6c-1.108 0-2 .892-2 2v7c0 1.108.892 2 2 2s2-.892 2-2v-7c0-1.108-.892-2-2-2zm4 0v14c0 1.662 1.338 3 3 3h1v4c0 1.108.892 2 2 2s2-.892 2-2v-4h2v4c0 1.108.892 2 2 2s2-.892 2-2v-4h1c1.662 0 3-1.338 3-3v-14zm22 0c-1.108 0-2 .892-2 2v7c0 1.108.892 2 2 2s2-.892 2-2v-7c0-1.108-.892-2-2-2z"/></svg>