<svg xmlns="http://www.w3.org/2000/svg" width="64" height="64"><g stroke-width=".692" transform="translate(-2.667 -1454.4) scale(1.4444)"><circle cx="24.001" cy="1029.1" r="18.693" fill="#55a73e"/><circle cx="24.001" cy="1029.1" r="15.231" opacity=".15"/><path fill="#ececec" d="m23.298 1021.6-2.598 1.5 13.5 23.383 2.799 1.848-.201-3.348z"/><path fill="#ccc" d="M35 1026.4c0 4.008-1.191 4.96-2.64 6.653a9.62 9.62 0 0 1-2.64 2.15c-1.367.765-3.447 1.189-5.125 1.189a9.509 9.509 0 0 1-4.609-1.19c-.986-.794-2.986 2.206-1.661 2.6 1.857 1.042 4.006 1.606 6.287 1.606s4.93-.564 6.786-1.606a12.723 12.723 0 0 0 2.704-2.02c2.41-2.345 3.925-5.734 3.925-9.365-1.028-.01-2.115 0-3.027-.01z"/><path fill="#ccc" d="m24.701 1021.6 2.598 1.5-13.5 23.383-2.799 1.848.201-3.348z"/><path fill="#363c3e" d="M27.114 1021.4H26v-3h-4v3h-1.13a1.88 1.88 0 0 0-1.87 1.86v4.895h.016c-.016.16.082.337.293.546l3.756 3.313c.26.257.602.386.927.386v-.016l.016.016c.342 0 .683-.129.927-.386l3.756-3.313c.212-.209.293-.402.293-.546H29v-4.88a1.897 1.897 0 0 0-1.886-1.875z"/><path fill="#fff" d="M24.007 1027.4h-.013a1.995 1.995 0 0 1-1.994-1.987c0-1.096.9-1.986 1.994-1.986v-.026l.013.026c1.095.013 1.994.89 1.994 1.986 0 1.097-.9 1.974-1.994 1.987z"/></g></svg>