<svg xmlns="http://www.w3.org/2000/svg" width="64" height="64"><path fill="#393939" d="M32 5c14.912 0 27 12.087 27 26.999s-12.088 27-27 27-27-12.088-27-27 12.088-27 27-27z"/><path fill="#78cfff" d="M41.414 17.936c-.765.211-2.05 1.903-2.7 2.027-.749.142-2.977-1.33-3.495-.784-.515.55 1.118 2.706 1.027 3.452-.097.743-2.228 2.426-1.862 3.082.367.651 2.944-.224 3.627.091.688.317 1.633 2.807 2.375 2.665.743-.142.693-2.807 1.21-3.356.518-.546 3.214-.679 3.306-1.426.092-.743-2.471-1.504-2.843-2.16-.368-.657.317-3.274-.371-3.591-.082-.037-.17-.027-.28 0M28.56 27.303c-1.49.207-1.688 5.622-2.774 6.668-1.087 1.046-6.42 1-6.685 2.49-.267 1.486 4.742 3.36 5.402 4.73.656 1.363-1.032 6.453.294 7.164 1.33.715 4.654-3.522 6.144-3.728 1.49-.207 5.8 2.985 6.882 1.939 1.092-1.046-1.898-5.526-1.632-7.016.266-1.495 4.618-4.61 3.961-5.966-.656-1.362-5.805.115-7.13-.601-1.33-.715-2.966-5.882-4.462-5.668"/></svg>