<svg xmlns="http://www.w3.org/2000/svg" width="64" height="64" viewBox="0 0 16.933 16.933"><circle cx="8.466" cy="8.466" r="7.144" fill="#d2f490"/><path fill="#96d123" d="M32.09 12c-.865-.004-1.732.183-2.393.56l-6.638 3.794-6.637 3.793c-.46.262-.886.661-1.252 1.128l.283.166 12.55 7.317c1.698.99 3.109 2.674 3.997 4.568.889-1.893 2.3-3.577 3.998-4.568l12.55-7.317.263-.154c-.337-.409-.716-.762-1.127-1.002l-13.207-7.703c-.658-.384-1.522-.578-2.387-.582zm17.701 11.029-.24.14-12.541 7.315c-2.086 1.217-4.008 4.566-4.014 6.988 0 .014.004.028.004.041l-.002.674.063 13.686c.45-.09.88-.227 1.242-.433l6.638-3.793 6.637-3.793c1.322-.756 2.402-2.607 2.408-4.13l.035-7.644.034-7.644c.002-.452-.1-.933-.264-1.406zm-35.564.012a4.165 4.165 0 0 0-.213 1.234l-.035 7.645-.033 7.644c-.007 1.523 1.055 3.383 2.37 4.15l13.208 7.704c.408.237.898.394 1.416.486l.062-13.717-.002-.674c0-.013.004-.027.004-.04-.006-2.423-1.928-5.773-4.013-6.99L14.45 23.17l-.223-.129z" style="isolation:isolate" transform="scale(.26458)"/></svg>