<svg xmlns="http://www.w3.org/2000/svg" width="64" height="64" viewBox="0 0 16.933 16.933"><g transform="translate(0 -280.07)"><circle cx="8.466" cy="288.53" r="7.144" fill="#34b05c" style="paint-order:stroke markers fill"/><g stroke-width=".969" opacity=".15" paint-order="stroke markers fill"><path d="M8.467 285.53a3.004 3.004 0 0 0-3.005 3.004 3.004 3.004 0 0 0 3.005 3.005 3.004 3.004 0 0 0 3.004-3.005 3.004 3.004 0 0 0-3.004-3.004zm0 1.366a1.639 1.639 0 0 1 1.638 1.638 1.639 1.639 0 0 1-1.638 1.64 1.639 1.639 0 0 1-1.64-1.64 1.639 1.639 0 0 1 1.64-1.638z"/><path d="M7.92 284.3h1.093v1.911H7.921zm0 6.555h1.093v1.911H7.921zm4.78-2.868v1.092h-1.91v-1.092zm-6.555 0v1.092H4.234v-1.092zm5.701 3.153-.772.773-1.352-1.352.773-.772zm-4.635-4.634-.772.772-1.352-1.352.773-.772zm-1.351 5.407-.773-.772 1.352-1.352.772.772zm4.635-4.635-.773-.772 1.352-1.352.772.772z"/></g><g fill="#fff" paint-order="stroke markers fill"><rect width="3.175" height="5.027" x="6.879" y="288.53" opacity=".65" rx="1.587" ry="1.253"/><path d="M6.88 284.42a3.44 3.44 0 1 0 3.174.002v2.519l-1.587 1.587-1.588-1.587z"/></g></g></svg>