<svg xmlns="http://www.w3.org/2000/svg" width="64" height="64" viewBox="0 0 16.933 16.933"><g transform="translate(0 -280.07)"><circle cx="8.466" cy="288.53" r="7.144" fill="#008d93" style="paint-order:stroke markers fill"/><circle cx="8.467" cy="288.53" r="5.821" fill="#169ba1" paint-order="stroke markers fill"/><path fill="#fff" d="M6.294 286.417a2.018 2.018 0 0 0-1.452.614 2.125 2.125 0 0 0-.609 1.502 2.154 2.154 0 0 0 .609 1.501 2.023 2.023 0 0 0 1.435.614h.018a2.007 2.007 0 0 0 1.528-.59c.257-.252.46-.548.644-.85a4.3 4.3 0 0 0 .643.85c.377.367.89.62 1.529.59h.018a2 2 0 0 0 .766-.159c.25-.105.477-.26.669-.455l.001-.002a2.123 2.123 0 0 0 .607-1.499c0-.28-.054-.557-.158-.814l-.002-.005a2.13 2.13 0 0 0-.449-.684 2.022 2.022 0 0 0-1.453-.614c-.671 0-1.202.277-1.594.661a4.145 4.145 0 0 0-.578.736 4.15 4.15 0 0 0-.577-.736 2.231 2.231 0 0 0-1.595-.661zm-.007.605c.537 0 .88.192 1.193.51.25.252.468.595.684.97-.247.436-.486.835-.754 1.106-.296.298-.602.463-1.103.434h-.02c-.19 0-.383-.04-.559-.117a1.458 1.458 0 0 1-.465-.325l-.006-.005a1.526 1.526 0 0 1-.419-1.063 1.526 1.526 0 0 1 .42-1.062l.005-.006a1.406 1.406 0 0 1 1.025-.442zm4.359 0a1.413 1.413 0 0 1 1.025.442l.005.007a1.525 1.525 0 0 1 .42 1.062 1.536 1.536 0 0 1-.42 1.063l-.006.004a1.408 1.408 0 0 1-1.025.442h-.019c-.5.03-.807-.135-1.103-.433-.268-.27-.507-.67-.754-1.107.217-.374.435-.717.684-.97.314-.317.657-.51 1.193-.51zm-.365.605v.604h-.605v.605h.605v.605h.605v-.605h.604v-.605h-.604v-.604zm-4.838.604v.605h1.814v-.605z"/></g></svg>