<svg xmlns="http://www.w3.org/2000/svg" width="64" height="64" viewBox="0 0 16.933 16.933"><g transform="translate(0 -280.07)"><circle cx="8.466" cy="288.53" r="7.144" fill="#a2ca4c" style="paint-order:stroke markers fill"/><path fill="#fff" d="M6.95 284.627a.783.783 0 0 0-.247.027c-.297.103-.483.324-.585.694-.09.322-.087.901.006 1.405.016.088.033.168.037.18.005.019-.027.03-.167.062-.685.158-1.184.394-1.485.7a.91.91 0 0 0-.253.407.947.947 0 0 0 0 .414c.084.284.321.55.695.786.26.162.337.18.42.095.04-.04.049-.059.049-.107 0-.092-.028-.13-.15-.2-.766-.437-.9-.874-.39-1.264.26-.196.623-.352 1.112-.473.213-.053.262-.06.262-.032 0 .039.157.55.239.77l.084.23-.111.216c-.443.865-.726 1.747-.76 2.392-.029.497.06.852.277 1.073.236.24.57.29.998.152a3.4 3.4 0 0 0 .669-.347c.135-.091.165-.118.183-.166.018-.048.018-.063 0-.113-.027-.075-.083-.117-.16-.117-.049 0-.083.016-.21.103-.289.199-.56.322-.785.36-.311.055-.511-.084-.603-.414-.04-.143-.037-.6.007-.838.066-.377.181-.768.347-1.18.098-.244.285-.654.31-.68.013-.015.03.008.071.106.214.486.54 1.08.86 1.56.762 1.145 1.596 1.89 2.24 1.997l-.008.001c.283.046.521-.024.705-.211.15-.155.25-.372.306-.675.034-.189.034-.719 0-.976-.104-.771-.382-1.655-.798-2.535-.065-.138-.101-.172-.185-.172a.166.166 0 0 0-.17.165c0 .032.032.119.085.234.512 1.105.788 2.175.76 2.95-.017.46-.131.738-.346.845-.113.057-.256.055-.445-.007-.864-.296-2.034-1.776-2.788-3.527l-.075-.175.11-.189c.123-.214.435-.695.578-.892l.097-.13h.255c1.546 0 3.075.353 3.887.895.165.111.365.313.425.432.043.082.047.104.047.213 0 .107-.004.133-.04.198-.099.193-.36.394-.698.537-.156.067-.198.11-.198.202 0 .077.05.142.125.165.048.014.064.012.15-.023.545-.218.92-.556.996-.899a.993.993 0 0 0-.002-.356c-.04-.177-.186-.403-.353-.555-.743-.675-2.318-1.11-4.188-1.155l-.134-.004.157-.178c.084-.099.233-.264.336-.37.532-.546 1.025-.904 1.457-1.053a.673.673 0 0 1 .307-.055c.133 0 .165.004.223.034a.53.53 0 0 1 .21.215c.087.176.117.485.074.815a3.41 3.41 0 0 0-.025.29c0 .076.003.087.046.125a.13.13 0 0 0 .105.042c.074 0 .143-.04.163-.094.061-.16.093-.725.054-.963-.062-.366-.217-.613-.463-.733-.437-.213-1.07-.005-1.81.596a8.815 8.815 0 0 0-1.246 1.302l-.035.04-.207.013c-.174.01-.458.038-.787.078l-.072.009-.03-.176a3.179 3.179 0 0 1-.065-.74c0-.295.004-.352.032-.47.069-.299.205-.484.384-.523.247-.052.553.072.983.395.138.105.305.016.285-.15-.01-.071-.075-.133-.293-.28a2.152 2.152 0 0 0-.558-.279 1.13 1.13 0 0 0-.28-.042zm.33 2.534c0 .006-.059.098-.131.206a9.263 9.263 0 0 0-.23.353 2.55 2.55 0 0 1-.113.176c-.014.015-.034-.025-.096-.226-.09-.277-.127-.426-.116-.439.02-.02.685-.09.685-.07zm1.35 1.047a.488.488 0 0 0-.49.488.488.488 0 0 0 .49.488.488.488 0 0 0 .488-.488.488.488 0 0 0-.489-.488z"/></g></svg>