<svg xmlns="http://www.w3.org/2000/svg" width="64" height="64" viewBox="0 0 16.933 16.933"><defs><clipPath id="a"><circle cx="8.467" cy="288.53" r="6.879" fill="#d86eb0" stroke-opacity=".039" stroke-width=".491" style="paint-order:stroke markers fill"/></clipPath></defs><circle cx="8.467" cy="8.468" r="7.144" fill="#4d4d4d" style="paint-order:stroke markers fill"/><circle cx="8.466" cy="8.468" r="4.498" opacity=".15" style="paint-order:stroke markers fill"/><path fill="#fff" d="M11.793 5.322h-.851v1.116c-.634-.874-1.394-1.266-2.487-1.266-1.888 0-3.315 1.428-3.315 3.315s1.439 3.28 3.384 3.28c1.07 0 1.737-.345 2.416-1.255v1.105h.852zm-3.315.633c1.392 0 2.462 1.082 2.462 2.486 0 1.439-1.059 2.544-2.416 2.544-1.427 0-2.52-1.117-2.52-2.555a2.47 2.47 0 0 1 2.474-2.475z" aria-label="a" font-size="11.082" font-weight="400" letter-spacing="0" word-spacing="0"/><g fill="none" stroke="#fff" stroke-opacity=".937" stroke-width=".127" clip-path="url(#a)" transform="translate(-.326 -291.3) scale(1.0385)"><path d="M1.485 287.74c.72.155 1.391.625 1.983 1.98.674 1.545 1.623 2.23 2.772 2.284 1.48.07 2.673-1.226 3.459-2.385 1.602-2.362 4.519-2.136 5.816-1.251" opacity=".35"/><path d="M1.493 288.13c.894-.35 2.083-.424 2.872.827.722 1.143 1.576 2.867 4.049 2.709 1.478-.095 2.956-.71 3.718-2.15.53-.933 1.26-1.872 2.293-2.104.382-.081.655-.07.976.057" opacity=".35"/><path d="M1.775 290.25c.947-.444 2.745-.953 4.197-.53 1.297.38 2.937 1.847 6.056 1.504.824-.09 1.522-.563 2.183-1.464.478-.652.75-1.02 1.306-1.167" opacity=".35"/></g></svg>