<svg xmlns="http://www.w3.org/2000/svg" width="64" height="64"><circle cx="32" cy="32" r="27" fill="#3f444f"/><path fill="#54a1ea" d="M31.999 15.043c-7.203 0-13.043 5.84-13.043 13.043v6.865a5.87 5.87 0 0 0-3.913 5.526 5.87 5.87 0 0 0 9.186 4.843c.13.583.624 1.026 1.249 1.026.722 0 1.304-.582 1.304-1.304v-9.13c0-.723-.582-1.304-1.304-1.304-.626 0-1.123.445-1.251 1.031a5.87 5.87 0 0 0-1.358-.688v-6.865a9.13 9.13 0 0 1 18.26 0v6.865a5.867 5.867 0 0 0-3.913 5.526 5.87 5.87 0 1 0 11.74 0 5.867 5.867 0 0 0-3.914-5.526v-6.865c0-7.203-5.84-13.043-13.043-13.043zM20.912 37.216a3.26 3.26 0 1 1 0 6.522 3.26 3.26 0 0 1 0-6.522zm22.173 0a3.26 3.26 0 1 1 0 6.522 3.26 3.26 0 0 1 0-6.522z" style="paint-order:normal"/></svg>