<svg xmlns="http://www.w3.org/2000/svg" width="64" height="64"><rect width="54" height="54" x="5" y="5" fill="#443838" rx="27" ry="27"/><g stroke-width="1.217"><path fill="#e82626" d="M21.043 22.26v6.087l2.435 1.218 3.652-1.218V22.26l-3.652-1.217zm15.826 0v6.087l2.435 1.218 2.435-1.218h2.434V22.26H41.74l-2.435-1.217z"/><path fill="#e83b3b" d="M21.043 16.174h20.696v6.087H21.043z"/><path fill="#be1818" d="M21.043 35.652v6.087l2.435 1.218 3.652-1.218v-6.087l-3.652-1.217zm15.826 0v6.087l2.435 1.218 2.435-1.218h2.434v-6.087H41.74l-2.435-1.217z"/><path fill="#d81818" d="M21.043 28.347h20.696v7.304H21.043z"/><path fill="#a81515" d="M21.043 41.74h20.696v6.086H21.043z"/></g></svg>