<svg xmlns="http://www.w3.org/2000/svg" width="64" height="64" viewBox="0 0 16.933 16.933"><circle cx="8.466" cy="8.466" r="7.144" fill="#f0f0f0" style="paint-order:stroke fill markers"/><g fill-rule="evenodd" stroke-width=".015"><path fill="#d5833f" d="m8.466 13.366 4.498-2.543-.03-4.782-4.468 2.448z"/><path fill="#c77838" d="m8.467 13.376-4.498-2.542.03-4.783 4.468 2.448z"/><path fill="#eaa463" d="m3.986 6.064 4.502-2.507 4.462 2.508-4.486 2.458z"/></g><g paint-order="stroke markers fill" transform="translate(8.937 -115.54) scale(.44445)"><circle cx="8.466" cy="288.53" r="7.144" fill="#b5bbc0"/><circle cx="8.467" cy="288.53" r="3.44" opacity=".15"/><g fill="#fff"><path d="M8.467 285.62a2.91 2.91 0 0 0-2.91 2.91 2.91 2.91 0 0 0 2.91 2.91 2.91 2.91 0 0 0 2.91-2.91 2.91 2.91 0 0 0-2.91-2.91zm0 1.323a1.587 1.587 0 0 1 1.587 1.587 1.587 1.587 0 0 1-1.587 1.588 1.587 1.587 0 0 1-1.588-1.588 1.587 1.587 0 0 1 1.588-1.587z"/><path d="M7.938 284.43h1.058v1.852H7.938zm0 6.35h1.058v1.852H7.938zm4.63-2.778v1.058h-1.852v-1.058zm-6.35 0v1.058H4.366v-1.058zm5.522 3.056-.747.747-1.31-1.31.748-.747zm-4.49-4.49-.747.747-1.31-1.31.748-.747zm-1.309 5.237-.748-.748 1.31-1.31.748.749zm4.49-4.49-.748-.748 1.31-1.31.748.749z"/></g></g></svg>