<svg xmlns="http://www.w3.org/2000/svg" width="64" height="64"><circle cx="32" cy="32" r="27" fill="#ffc831" color="#000" style="fill:#deb247;fill-opacity:1"/><path d="M31.588 50.04c-.58-.077-.685-.102-1.133-.261-1.36-.486-2.79-1.613-3.89-3.068-.724-.957-1.227-2.012-1.576-3.306-.168-.622-.297-1.223-.297-1.384 0-.082.038-.347.083-.59.139-.732.613-3.34.613-3.37 0-.015-.075.045-.166.134a24.935 24.935 0 0 1-2.167 1.813c-.854.617-1.685 1.026-2.403 1.185-.375.083-.424.088-.903.086-.65-.003-1.003-.067-1.537-.28-.863-.343-1.66-.902-2.632-1.847-.667-.649-1.017-1.08-1.25-1.547-.21-.417-.278-.738-.276-1.31v-.378l-.286-.207c-1.238-.896-1.898-1.65-2.727-3.117-.726-1.286-1.067-2.211-1.065-2.887.003-.454.031-.592.204-.947.14-.287.176-.34.362-.514.359-.338.522-.443 1.005-.647.324-.137.588-.225.964-.322 1.37-.355 3.5-.625 5.517-.698 2.36-.086 4.448.174 8.17 1.018.56.127.72.155.737.128.036-.059.06-.523.04-.806a7.313 7.313 0 0 0-.148-1.085c-.08-.308-.16-.524-.433-1.16-.501-1.165-.64-1.737-.64-2.64 0-.795.112-1.332.415-2.002.235-.52.487-.873.932-1.306.209-.204.48-.443.603-.531a8.71 8.71 0 0 0 .287-.214l.065-.053-.086-.16c-.28-.52-.723-.961-1.72-1.713-.694-.523-.793-.663-.795-1.113 0-.234.007-.285.07-.418a1.012 1.012 0 0 1 1.374-.48c.158.08.756.523 1.261.933.388.315.967.901 1.19 1.205.18.242.465.728.553.94.037.09.05.1.144.1.057 0 .229-.018.382-.039.43-.06 1.058-.099 1.571-.099.513 0 1.14.04 1.571.1.153.02.325.038.381.038.095 0 .108-.01.145-.1a6.31 6.31 0 0 1 .552-.94c.224-.304.803-.89 1.19-1.205.504-.409 1.104-.853 1.26-.932a1.012 1.012 0 0 1 1.376.479c.062.133.071.184.07.418-.001.45-.101.59-.795 1.113-.997.752-1.44 1.193-1.72 1.713l-.086.16.065.053c.035.03.165.126.287.214.123.088.394.327.603.53.445.434.697.787.932 1.307.303.67.414 1.207.415 2.002 0 .903-.139 1.475-.64 2.64-.273.636-.354.852-.433 1.16a7.312 7.312 0 0 0-.148 1.085c-.02.283.004.747.04.806.017.027.177 0 .738-.128 3.723-.844 5.808-1.104 8.17-1.018 2.016.073 4.146.343 5.516.698.376.097.64.185.964.322.483.204.646.31 1.005.647.186.175.223.227.362.514.173.355.202.493.204.947.002.676-.34 1.6-1.065 2.887-.83 1.467-1.489 2.221-2.727 3.117l-.286.207.002.378c.001.572-.066.893-.276 1.31-.234.466-.584.898-1.251 1.547-.972.945-1.77 1.504-2.632 1.847-.534.213-.888.277-1.537.28-.479.002-.528-.003-.903-.086-.718-.159-1.549-.568-2.403-1.185a24.933 24.933 0 0 1-2.167-1.813c-.091-.089-.166-.15-.166-.134 0 .03.474 2.638.613 3.37a4.9 4.9 0 0 1 .083.59c0 .161-.129.762-.297 1.384-.349 1.294-.851 2.35-1.575 3.306-1.097 1.45-2.538 2.588-3.877 3.061-.57.202-.487.181-.987.245-.452.057-.684.063-.986.022zm.786-2.035c1.448-.225 3.423-2.012 4.244-3.84.149-.332.182-.44.134-.44-.012 0-.315.103-.673.229-.482.169-.86.28-1.452.423-.44.108-.841.203-.893.211-.221.038-1.526.153-1.733.153-.207 0-1.512-.115-1.733-.153a38.408 38.408 0 0 1-.893-.21c-.592-.145-.97-.255-1.452-.424a18.423 18.423 0 0 0-.673-.23c-.048 0-.015.109.134.44.815 1.816 2.8 3.618 4.23 3.842.291.045.462.045.76-.001zm.387-5.35c.566-.051.671-.07 1.36-.237.566-.138.93-.246 1.506-.448 1.097-.383 1.52-.557 1.52-.623 0-.106-.375-2.087-.4-2.112-.015-.016-.11 0-.259.045-1.38.415-2.55.66-3.54.741-.352.03-.778.053-.947.053-.169 0-.595-.024-.947-.053-.99-.081-2.16-.326-3.54-.74-.149-.046-.244-.062-.26-.046-.024.025-.4 2.006-.4 2.112 0 .066.424.24 1.52.623 1.088.38 1.957.593 2.76.676.756.077.89.078 1.627.01zm-12.54-3.435c.819-.191 1.902-.931 3.514-2.4.988-.9 2.808-2.66 2.787-2.694a.457.457 0 0 0-.138-.064l-.124-.043-1.23.336c-2.618.715-3.082.815-6.574 1.423-1.269.221-2.322.407-2.34.414-.048.017-.044.365.005.481.072.173.346.504.761.92.952.955 1.743 1.489 2.43 1.638.254.055.648.05.909-.01zm24.458.012c.694-.147 1.48-.675 2.44-1.638.416-.417.69-.748.762-.92.049-.117.053-.465.005-.482a213.7 213.7 0 0 0-2.34-.414c-3.492-.608-3.956-.708-6.575-1.423l-1.228-.336-.125.043a.458.458 0 0 0-.137.064c-.022.034 1.798 1.794 2.786 2.694 1.593 1.451 2.684 2.2 3.493 2.398.25.06.668.067.919.014zm-11.86-1.227c.66-.054 1.49-.217 2.424-.477.998-.278 1.09-.31 1.1-.381.008-.06-.143-.804-.168-.83-.008-.007-.371.066-.807.163-1.351.3-2.338.424-3.367.424-1.03 0-2.016-.124-3.366-.424-.437-.097-.8-.17-.808-.163-.025.026-.176.77-.167.83.01.072.1.103 1.1.381 1.629.454 2.736.584 4.059.477zm-.165-3.144a14.44 14.44 0 0 0 2.462-.402.771.771 0 0 0-.02-.182 2.647 2.647 0 0 1-.014-.698c.024-.13.126-.34.23-.471l.077-.098-.36-.174c-.455-.218-.76-.402-.953-.575a2.405 2.405 0 0 1-.677-1.124c-.062-.214-.072-.299-.072-.597 0-.514.103-.823.397-1.19.236-.296.557-.558 1.036-.846l.28-.169v-.207c0-.163-.01-.216-.046-.249-.077-.069-.959-.508-1.26-.627-.64-.253-1.282-.334-2.193-.277-.522.033-.82.097-1.273.277-.301.119-1.183.558-1.26.627-.037.033-.047.086-.047.25v.206l.281.169c.48.288.8.55 1.036.845.294.368.396.677.397 1.191 0 .298-.01.383-.072.597-.13.45-.37.848-.677 1.124-.194.173-.498.357-.952.575l-.36.174.076.098a1.3 1.3 0 0 1 .23.471c.028.151.02.497-.015.698a.768.768 0 0 0-.02.182c.027.026.913.207 1.383.282.468.075 1.242.146 1.666.154.088.002.412-.014.72-.034zm-15.857-.843c4.812-.838 4.766-.829 6.943-1.411 2.113-.565 2.156-.579 2.901-.915 1.453-.655 1.77-.81 1.906-.928.16-.141.122-.22-.212-.444-.293-.195-.451-.268-.707-.326l-1.426-.325c-3.532-.804-4.973-1.025-7.013-1.078-2.542-.065-6.392.476-7.103.997-.086.063-.09.071-.076.204.039.373.43 1.218.998 2.16.572.947 1.009 1.428 1.875 2.066.198.145.363.265.368.266.004 0 .7-.119 1.546-.266zm32.327-.006c.846-.615 1.314-1.132 1.88-2.075.567-.945.95-1.775.988-2.145.013-.133.01-.14-.076-.204-.356-.261-1.668-.574-3.21-.766-1.428-.178-2.779-.258-3.893-.23-2.023.049-3.479.273-7.012 1.077l-1.427.325c-.256.058-.414.131-.707.326-.494.33-.454.385.632.889.21.097.688.314 1.062.483.737.332.755.338 2.746.874 2.062.555 2.526.654 5.493 1.172a910.025 910.025 0 0 1 3.114.545c.019.001.203-.12.41-.27zm-19.929-8.496c.344-.156.721-.298.993-.373.988-.271 2.638-.271 3.626 0 .272.075.65.217.993.373.157.072.297.13.31.13.014 0 .045-.093.07-.206.072-.336.192-.676.473-1.338.296-.696.392-.954.47-1.269.216-.86.096-1.687-.338-2.325-.21-.312-.792-.793-1.34-1.11-.235-.136-1.512-.284-2.451-.284-.939 0-2.216.148-2.451.284-.548.317-1.129.798-1.34 1.11-.434.638-.554 1.465-.338 2.325.079.315.174.573.47 1.269.281.662.401 1.002.474 1.338.024.113.055.206.069.206.013 0 .153-.058.31-.13z" style="fill:#091c19;stroke-width:.0266643;fill-opacity:1"/></svg>