<svg xmlns="http://www.w3.org/2000/svg" width="64" height="64"><rect width="54" height="54" x="5" y="5" fill="#fdcf71" rx="27" ry="27"/><path d="m23.795 32-3.366 3.39-3.39-3.39 3.39-3.39ZM32 23.795l5.797 5.797 3.39-3.39-5.798-5.773L32 17.039l-3.39 3.39-5.773 5.774 3.39 3.39zm11.571 4.816L40.205 32l3.39 3.39L46.96 32ZM32 40.205l-5.797-5.797-3.366 3.39 5.797 5.796L32 46.96l3.39-3.389 5.797-5.797-3.39-3.366Zm0-4.816L35.39 32 32 28.61 28.61 32Z" style="fill:#814b13;fill-opacity:1;stroke-width:.45834726"/></svg>