<svg xmlns="http://www.w3.org/2000/svg" width="64" height="64"><path fill="#3a5d7f" d="M31.665 5.002a27 27 0 1 1 0 53.996 27 27 0 0 1 0-53.996z"/><path fill="#fff" d="M8.326 4.236A4.238 4.238 0 0 0 5.47 5.472a4.235 4.235 0 0 0-.346 5.589l.89-.89a2.99 2.99 0 0 1 .338-3.818 2.992 2.992 0 0 1 3.112-.7v1.07l1.598-1.598a4.238 4.238 0 0 0-2.736-.89zm3.484 1.637-.891.89a2.99 2.99 0 0 1-.338 3.818 2.992 2.992 0 0 1-3.111.7v-1.07l-1.058 1.057-.541.541a4.238 4.238 0 0 0 5.592-.347 4.235 4.235 0 0 0 .346-5.589z" style="paint-order:stroke markers fill" transform="scale(3.7796)"/></svg>