<svg xmlns="http://www.w3.org/2000/svg" width="64" height="64"><circle cx="32" cy="32" r="27" fill="#3f3f3f"/><path fill="#fff" d="M32 5a27 27 0 0 0-12 2.867v48.266A27 27 0 0 0 32 59a27 27 0 0 0 27-27A27 27 0 0 0 32 5z" opacity=".1"/><path fill="#ffa119" d="M22.551 16.572A1.516 1.523 0 0 0 21 18.094v27.813a1.516 1.523 0 0 0 2.272 1.319l11.984-6.952 11.986-6.954a1.516 1.523 0 0 0 0-2.639L35.256 23.73l-11.984-6.953a1.516 1.523 0 0 0-.721-.204z"/><rect width="5.786" height="5.786" x="24.286" y="11.75" fill="#313131" rx="1.446" ry="1.446"/><rect width="5.786" height="5.786" x="24.286" y="29.107" fill="#313131" rx="1.446" ry="1.446"/><rect width="5.786" height="5.786" x="24.286" y="37.786" fill="#313131" rx="1.446" ry="1.446"/><rect width="5.786" height="5.786" x="24.286" y="46.464" fill="#313131" rx="1.446" ry="1.446"/><rect width="5.786" height="5.786" x="24.286" y="20.429" fill="#313131" rx="1.446" ry="1.446"/></svg>