<svg xmlns="http://www.w3.org/2000/svg" width="64" height="64"><g transform="translate(3.826 3.826) scale(1.1739)"><circle cx="24" cy="24" r="23" fill="#28416e" style="paint-order:stroke fill markers"/><path fill="#a5c8f3" d="m21 12-5 5 2 18v1h2v-3h2v3h2v-3l3-1 3 1v3h2v-3h2v3h2v-6l-2-3 2-3v-6l-4-3c0-1.662-3.338-3-5-3z"/><path fill="#428ce6" d="M15 12v6h9v-3c0-1.662-1.338-3-3-3zm9 6v6h6v-6zm6 0h6v-3c0-1.662-1.338-3-3-3h-6c1.662 0 3 1.338 3 3zm0 6v6h6v-6zm0 6h-6v3h2v3h2v-3h2zm-6 0v-6h-9v6z"/><path fill="#1d5aa5" d="M15 12c-1.662 0-3 1.338-3 3v19h2v-3h2v3h2V15c0-1.662-1.338-3-3-3z"/></g></svg>