<svg xmlns="http://www.w3.org/2000/svg" width="64" height="64" version="1"><circle cx="32" cy="32" r="27" fill="#f0f0f0" style="paint-order:stroke fill markers"/><path fill="#4b81c4" d="M27.265 16.762c-8.457.23-14.313 7.085-14.313 15.958 0 8.873 6.677 16.307 14.43 16.423 7.018.096 14.568-7.306 17.077-13.05 1.167 2.788 3.457 6.383 7.54 6.383 0 0-1.904-5.034-1.904-9.66S52 23.428 52 23.428c-4.158 0-6.463 3.677-7.61 6.445-2.537-4.994-9.855-13.02-17.124-13.113z"/><path fill="#fff" d="M28.19 25.332a5.714 7.616 0 1 1-11.428 0 5.714 7.616 0 1 1 11.429 0z" opacity=".9"/><g stroke-width=".778"><path fill="#75bfd4" d="M28.19 25.333c-.946-.846-4.053-5.91-11.428-2.69 0-3.213 1.28-7.786 5.47-7.786 5.365.166 5.959 7.263 5.959 10.476Z"/><path fill="#272b2d" d="M24.381 26.286a1.905 1.905 0 0 1-3.81 0 1.905 1.905 0 1 1 3.81 0z"/><path fill="#fff" d="M22.952 25.428a.952.952 0 0 1-1.904 0 .952.952 0 1 1 1.904 0z" opacity=".35"/></g><path fill="#75bfd4" d="M22.476 39.143c0 1.84-5.301 3.333-7.142 3.333a3.333 3.333 0 1 1 0-6.667c1.84 0 7.142 1.493 7.142 3.334z"/></svg>