<svg xmlns="http://www.w3.org/2000/svg" width="64" height="64"><circle cx="32" cy="32" r="27" fill="#ffc831"/><path fill="#fd4932" d="M26 12.5c-.75 0-3.375 3-3.75 3h-1.875c-.75 0-3.375 2.626-3.375 3.376v2.25c0 .375-2.984 3-3 3.75S19.25 43.25 20 44s9 7.5 11.25 7.5h1.5C35 51.5 43.25 44.75 44 44s6.015-18.375 6-19.125c-.017-.746-3-3.375-3-3.75v-2.25c0-.75-2.625-3.375-3.375-3.375H41.75c-.375 0-3-3-3.75-3z"/><path fill="#fff" d="M32 17.739c-.747 0-1.491.256-2.25.762-2.25 1.5-5.25-.75-6-.75s-5.25 5.464-5.25 7.5c0 1.5 5.625 4.95 5.625 6 0 .75-1.125 1.11-1.125 2.701 0 1.049 1.5 2.924 3 2.924s5.253-2.945 5.25-3.674v-.451c0-.9-3.375-2.034-3.375-3.75 0-1.5 1.125-2.055 1.125-3.75 0-1.458-3-1.875-5.25-2.25-.75 0 2.25-2.468 6.375.199 1.044.675-1.125 3.344-.75 5.8.563.526 1.595.788 2.625.788 1.032 0 2.063-.262 2.625-.787.375-2.457-1.794-5.126-.75-5.801C38 20.533 41 23 40.25 23c-2.25.376-5.25.793-5.25 2.25 0 1.696 1.125 2.25 1.125 3.75 0 1.717-3.375 2.85-3.375 3.75v.452c-.003.729 3.75 3.674 5.25 3.674s3-1.875 3-2.924c0-1.59-1.125-1.951-1.125-2.701 0-1.05 5.625-4.5 5.625-6 0-2.036-4.5-7.5-5.25-7.5s-3.75 2.25-6 .75c-.759-.506-1.5-.762-2.25-.762zM32 35.6c-1.5 0-4.875 2.325-4.875 2.775S30.5 42.5 32 42.5s4.875-3.675 4.875-4.125S33.5 35.6 32 35.6z"/></svg>