<svg xmlns="http://www.w3.org/2000/svg" width="64" height="64" viewBox="0 0 16.933 16.933"><circle cx="8.466" cy="8.466" r="7.144" fill="#2196f3" style="paint-order:stroke fill markers"/><g fill="#fff"><g transform="translate(4.07 3.89) scale(.16297)"><rect width="16.695" height="12.328" x=".524" y="14.445" ry="2.636"/><rect width="16.695" height="12.328" x="19.651" y="14.445" ry="2.636"/><rect width="16.695" height="12.328" x=".305" y="29.384" ry="2.636"/><rect width="16.695" height="12.328" x="19.432" y="29.384" ry="2.636"/></g><path d="M8.575 4.233a4.233 4.233 0 0 0-2.83 1.1h1.37a3.465 3.465 0 0 1 1.461-.331 3.465 3.465 0 0 1 3.468 3.46v.005A3.465 3.465 0 0 1 8.58 11.93a3.465 3.465 0 0 1-1.468-.33H5.74a4.233 4.233 0 0 0 2.84 1.1 4.233 4.233 0 0 0 4.232-4.233v-.005a4.233 4.233 0 0 0-4.237-4.229z"/></g></svg>