<svg xmlns="http://www.w3.org/2000/svg" width="64" height="64"><path fill="#9f7642" d="M32 5c14.912 0 27 12.088 27 27S46.912 59 32 59 5 46.912 5 32 17.088 5 32 5z"/><path fill="#fff" d="M20.261 28.478v12.913a4.685 4.685 0 0 0 4.696 4.696h11.739a4.685 4.685 0 0 0 4.695-4.696h1.174a4.685 4.685 0 0 0 4.696-4.696v-1.174a4.685 4.685 0 0 0-4.696-4.695h-1.174v-2.348zm21.13 4.696h1.174c1.3 0 2.348 1.047 2.348 2.348v1.173a2.343 2.343 0 0 1-2.348 2.348H41.39zM24.957 17.913c-2.348 0-4.109 1.878-4.109 3.052 0 2.165 2.935 2.818 2.935 3.991 0 1.41-1.174 1.77-2.348 2.348 2.348 0 4.109-1.056 4.109-2.348 0-2.347-2.935-2.732-2.935-4.108 0-1.761 2.678-2.935 2.348-2.935zm7.043 0c-2.347 0-4.108 1.878-4.108 3.052 0 2.165 2.935 2.818 2.935 3.991 0 1.41-1.174 1.77-2.348 2.348 2.348 0 4.109-1.056 4.109-2.348 0-2.347-2.935-2.732-2.935-4.108 0-1.761 2.677-2.935 2.348-2.935zm6.457 0c-2.348 0-4.109 1.878-4.109 3.052 0 2.165 2.935 2.818 2.935 3.991 0 1.41-1.174 1.77-2.348 2.348 2.348 0 4.109-1.056 4.109-2.348 0-2.347-2.935-2.732-2.935-4.108 0-1.761 2.678-2.935 2.348-2.935z"/></svg>