<svg xmlns="http://www.w3.org/2000/svg" width="64" height="64"><g transform="translate(0 -1058.5)"><circle cx="-251.33" cy="1061.6" r="27" fill="#e0e0e0" transform="rotate(-15)"/><circle cx="32" cy="1090.5" r="10" fill="#bdbdbd"/><circle cx="32" cy="1090.5" r="5" fill="#424242"/><rect width="9" height="10" x="44" y="1089.5" fill="#4a606a" ry="1"/><path fill="#f6744a" d="M43 1097.5c-.554 0-1 .446-1 1v16c0 1.662 1.338 3 3 3h7c1.662 0 3-1.338 3-3v-16c0-.554-.446-1-1-1H43z"/><g fill="#fff"><rect width="7" height="1" x="45" y="1100.5" ry=".5"/><rect width="5" height="1" x="46" y="1102.5" ry=".453"/><rect width="3" height="1" x="47" y="1104.5" ry=".453"/></g><path fill="#ffd54f" d="M46 1091.5h1v5h-1zm4 0h1v5h-1zm-2 2h1v3h-1z"/></g></svg>