<svg xmlns="http://www.w3.org/2000/svg" width="64" height="64"><g stroke-width=".852"><path fill="#ce5050" d="M32 5c14.912 0 27 12.088 27 27S46.911 59 32 59 5 46.911 5 32 17.088 5 32 5z"/><path fill="#f0f0f0" d="M17.908 19.086v19.956l10.565 7.044V25.543zm2.348 0 9.391 5.87h4.696l9.391-5.87c-4.696 0-7.043.61-11.739 4.696-4.696-3.986-7.043-4.696-11.739-4.696zm25.826 0-10.565 6.457v20.543l10.565-7.044zM29.647 26.13v21.13h4.696V26.13z"/></g><circle cx="48" cy="46" r="15" fill="#4d4d4d"/><path fill="#fff" fill-rule="evenodd" d="M48 39c-1.938.021-3.89.518-5.578 1.59-.673.49-1.481 1.125-2.09 1.763-.958 1.051-1.778 2.276-2.332 3.649 1.519 3.752 4.857 6.502 8.53 6.908 2.409.306 4.93-.16 7.048-1.496.673-.49 1.481-1.125 2.09-1.764.958-1.052 1.778-2.277 2.332-3.648-1.518-3.752-4.857-6.503-8.53-6.908-.487-.065-.98-.094-1.47-.094zm.004 3c2.14-.047 4.034 1.868 3.994 3.996.069 2.352-2.275 4.383-4.592 3.943-2.34-.274-3.984-2.9-3.215-5.125.493-1.636 2.1-2.831 3.815-2.812zM48 44a2 1.999 0 0 0-2 2.002A2 1.999 0 0 0 48 48a2 1.999 0 0 0 2-1.998 2 1.999 0 0 0-2-1.998z"/></svg>