<svg xmlns="http://www.w3.org/2000/svg" width="64" height="64"><defs><linearGradient id="d" x1="1326.1" x2="1324.9" y1="200.9" y2="89.862" gradientTransform="matrix(.00256 .19867 .22983 -.00221 -12.936 -218.81)" gradientUnits="userSpaceOnUse"><stop offset="0" stop-color="#5596ea"/><stop offset="1" stop-color="#5596ea" stop-opacity=".15"/></linearGradient><linearGradient id="c" x1="1142.6" x2="1280.9" y1="62.713" y2="200.87" gradientTransform="rotate(-5.893 115.837 2147.352) scale(.19868)" gradientUnits="userSpaceOnUse"><stop offset="0" stop-color="#343434"/><stop offset="1" stop-color="#4d4d4d"/></linearGradient><linearGradient id="a" x1="31.982" x2="31.982" y1="10.883" y2="42.169" gradientUnits="userSpaceOnUse"><stop offset="0" stop-color="#fe44ff"/><stop offset="1" stop-color="#ffe680"/></linearGradient><radialGradient id="b" cx="18.033" cy="56.263" r="27" gradientTransform="matrix(1.2 -.15949 .14686 1.105 -14.461 -8.051)" gradientUnits="userSpaceOnUse"><stop offset="0" stop-color="#4afefc"/><stop offset="1" stop-color="#4abdfe" stop-opacity="0"/></radialGradient></defs><circle cx="32" cy="32" r="27" fill="url(#a)"/><circle cx="32" cy="32" r="27" fill="url(#b)"/><path fill="url(#c)" d="M36.93 36.294c-3.635 3.392-10.629-1.988-13.58-5.367C20.314 27.45 8.977 15.73 8.149 14.97c-.829-.76-1.488-1.7-.756-2.633.763-.91 1.818-.458 2.733.196.914.654 14.724 9.327 18.75 11.58 3.916 2.192 10.623 7.925 8.055 12.18z" transform="translate(1.086 -.494)"/><path fill="url(#d)" d="M42.406 39.938c-16.413 12.656-30.168.492-32.248-3.71 1.23 7.293 6.915 13.82 15.504 16.331 6.487 1.897 16.453 2.097 21.093-5.13z" transform="translate(1.086 -.494)"/><path fill="#bfbfbf" d="M43.79 40.338c-1.16.53-1.034.915-2.063.75-.71-.115-6.858-4.776-6.858-4.776-.312-.747.062-1.776.764-2.59.652-.854 1.58-1.432 2.376-1.282 0 0 5.83 5.055 6.087 5.725.375.973-.026.93-.307 2.173z"/><path fill="#282828" d="M44.107 50.648c4.58-2.59 5.913-7.103 4.105-10.405-1.405-2.566-3.713-3.05-5.307-1.81-1.58 1.23-1.72 2.697-1.248 4.154.961 2.97 4.83 4.997 2.45 8.061z"/></svg>