<svg xmlns="http://www.w3.org/2000/svg" width="64" height="64" image-rendering="optimizeSpeed"><circle cx="32.02" cy="32.044" r="30.001" fill="none"/><g transform="matrix(1.4359 0 0 1.4444 -13.949 -14.222)"><ellipse cx="32" cy="32" fill="#6f467c" rx="19.5" ry="18" style="paint-order:normal"/><path fill="#fff" d="M26.15 23c-3.949-.002-7.15 3.166-7.15 7.071s3.201 7.072 7.15 7.072h11.7c3.949 0 7.15-3.166 7.15-7.072S41.799 23 37.85 23a7.171 7.171 0 0 0-5.853 3.016A7.168 7.168 0 0 0 26.15 23z" style="paint-order:normal"/><path fill="#c6557f" d="M32.001 33.286c-2.599 0-5.201 1.929-5.201 3.857 0 1.929 4.194 9 5.201 9s5.199-7.071 5.199-9-2.6-3.857-5.199-3.857z"/><path fill="#2f5b93" d="M26.8 28.143c-1.436 0-2.6 1.151-2.6 2.571 0 1.42 1.164 2.572 2.6 2.572s2.6-1.151 2.6-2.572c0-1.42-1.164-2.571-2.6-2.571zm10.4 0c-1.436 0-2.6 1.151-2.6 2.571 0 1.42 1.164 2.572 2.6 2.572s2.6-1.151 2.6-2.572c0-1.42-1.164-2.571-2.6-2.571zm-11.05 1.286c.359 0 .65.288.65.643s-.291.642-.65.642-.65-.287-.65-.642.291-.643.65-.643zm10.4 0c.359 0 .65.288.65.643s-.291.642-.65.642-.65-.287-.65-.642.291-.643.65-.643z" style="paint-order:normal"/></g></svg>