<svg xmlns="http://www.w3.org/2000/svg" width="64" height="64" viewBox="0 0 16.933 16.933"><rect width="14.287" height="14.287" x="-15.61" y="-15.61" fill="#ececec" rx="7.144" ry="7.144" transform="matrix(0 -1 -1 0 0 0)"/><circle cx="8.532" cy="8.466" r="4.233" fill="#333"/><circle cx="8.466" cy="-8.466" r="2.91" fill="#e91e63" transform="scale(1 -1)"/><g fill="#fff" stroke-width=".579"><path d="M9.589 7.344a1.587 1.587 0 0 0-2.245 0l1.123 1.123z" opacity=".2"/><path d="M9.589 7.344a1.587 1.587 0 0 1 0 2.245L8.467 8.466zM7.344 9.589a1.587 1.587 0 0 1 0-2.245l1.123 1.123z" opacity=".4"/><path d="M7.344 9.589a1.587 1.587 0 0 0 2.245 0L8.466 8.467z" opacity=".6"/></g></svg>