<svg xmlns="http://www.w3.org/2000/svg" width="64" height="64"><g transform="translate(3 -3)"><circle cx="29" cy="35" r="27" fill="#4d4d4d" style="paint-order:stroke markers fill"/><path fill="#fff" d="M22.241 22.4a.588.588 0 0 0-.594.59v5.119a.59.59 0 0 0 .594.591h.456l-1.05 1.05 1.05 1.05-1.047 11.55a2.092 2.092 0 0 0-2.1 2.096c0 .381.115.738.292 1.05l-.292.004-1.05 2.1h21l-1.05-2.1-.294-.004c.18-.312.295-.669.295-1.05a2.095 2.095 0 0 0-2.101-2.096L35.3 30.8l1.05-1.05-1.05-1.05h.46a.586.586 0 0 0 .595-.591V22.99a.586.586 0 0 0-.594-.59H34.25v2.1h-2.1v-2.1h-2.1v2.1h-2.1v-2.1h-2.1v2.1h-2.1v-2.1"/></g></svg>