<svg xmlns="http://www.w3.org/2000/svg" width="64" height="64" viewBox="0 0 16.933 16.933"><circle cx="8.466" cy="8.466" r="7.144" fill="#3a81cc" fill-rule="evenodd" style="paint-order:fill markers stroke"/><g color="#000"><g stroke-width=".9"><path fill="#71abe3" d="M11.006 5.927v5.08h4.128a7.143 7.144 0 0 0 .476-2.54 7.143 7.144 0 0 0-.47-2.54zm-5.079 5.079v4.128a7.143 7.144 0 0 0 2.54.476 7.143 7.144 0 0 0 2.539-.47v-4.134z" display="block" style="isolation:auto;mix-blend-mode:normal;paint-order:fill markers stroke"/><path fill="#1f609e" d="M5.927 1.792a7.143 7.144 0 0 0-4.128 4.135h4.128z" display="block" style="isolation:auto;mix-blend-mode:normal;paint-order:fill markers stroke"/><path fill="#2777c4" d="M8.466 1.323a7.143 7.144 0 0 0-2.54.47v4.134h5.08V1.799a7.143 7.144 0 0 0-2.54-.476z" display="block" style="isolation:auto;mix-blend-mode:normal;paint-order:fill markers stroke"/><path fill="#4893db" d="M11.006 1.799v4.128h4.134a7.143 7.144 0 0 0-4.134-4.128z" display="block" style="isolation:auto;mix-blend-mode:normal;paint-order:fill markers stroke"/><path fill="#2777c4" d="M1.799 5.927a7.143 7.144 0 0 0-.476 2.54 7.143 7.144 0 0 0 .47 2.54h4.133v-5.08z" display="block" style="isolation:auto;mix-blend-mode:normal;paint-order:fill markers stroke"/></g><path fill="#4893db" d="M5.926 5.926h5.08v5.08h-5.08z" display="block" overflow="visible" style="isolation:auto;mix-blend-mode:normal;paint-order:fill markers stroke"/><path fill="#4893db" d="M1.792 11.006a7.143 7.144 0 0 0 4.135 4.128v-4.128z" display="block" style="isolation:auto;mix-blend-mode:normal;paint-order:fill markers stroke"/><path fill="#8abae8" d="M11.006 11.006v4.135a7.143 7.144 0 0 0 4.128-4.135z" display="block" style="isolation:auto;mix-blend-mode:normal;paint-order:fill markers stroke"/></g><g color="#000" style="paint-order:fill markers stroke"><path fill="#fff" d="M10.737 6.328a4.41 4.41 0 0 0-.144.005c-.008-.001-.015-.005-.024-.005H6.507a.176.176 0 0 0-.176.175v4.13a4.41 4.41 0 0 0-.005.104 4.41 4.41 0 0 0 4.41 4.41 4.41 4.41 0 0 0 4.41-4.41 4.41 4.41 0 0 0-4.41-4.41z" overflow="visible" style="isolation:auto;mix-blend-mode:normal" transform="translate(3.153 3.152) scale(.83993)"/><path fill="#5299dc" d="M13.004 10.737a2.267 2.267 0 0 1-2.268 2.268 2.267 2.267 0 0 1-2.267-2.268 2.267 2.267 0 0 1 2.268-2.267 2.267 2.267 0 0 1 2.267 2.267z" overflow="visible" style="isolation:auto;mix-blend-mode:normal" transform="translate(3.153 3.152) scale(.83993)"/><path fill="#fff" d="M10.648 9.855v.794h-.794v.265h.794l.017.793h.248v-.793h.793l.017-.265h-.81v-.794z" overflow="visible" style="isolation:auto;mix-blend-mode:normal" transform="translate(3.153 3.152) scale(.83993)"/></g></svg>