<svg xmlns="http://www.w3.org/2000/svg" width="64" height="64"><circle cx="32" cy="32" r="27" fill="#fa6e6e"/><circle cx="32" cy="32" r="22" fill="#fff"/><path fill="#fa6e6e" d="M32.006 14.391c-.352 0-3.245-.133-6.069 1.243-2.161 1.052-.564 4.251 1.573 3.15 1.873-.966 3.674-.871 4.496-.871 7.865 0 14.087 6.222 14.087 14.087 0 7.865-6.222 14.087-14.087 14.087S17.92 39.866 17.919 32c0-.82-.095-2.622.871-4.496 1.101-2.137-2.098-3.734-3.15-1.573-1.375 2.824-1.242 5.716-1.242 6.07.002 9.742 7.865 17.608 17.609 17.608 9.743 0 17.609-7.865 17.609-17.609 0-9.743-7.866-17.609-17.61-17.609z"/><rect width="4.696" height="18.783" x="29.652" y="22.609" fill="#65b5f7" ry="2.348" style="paint-order:stroke fill markers"/><rect width="4.696" height="18.783" x="-46.061" y="2.321" fill="#65b5f7" ry="2.348" style="paint-order:stroke fill markers" transform="rotate(240)"/><rect width="4.696" height="18.783" x="9.365" y="-53.105" fill="#65b5f7" ry="2.348" style="paint-order:stroke fill markers" transform="rotate(120)"/></svg>