<svg xmlns="http://www.w3.org/2000/svg" width="64" height="64" fill-rule="evenodd" stroke-linejoin="round" stroke-miterlimit="2" clip-rule="evenodd"><rect width="54" height="54" x="5" y="5" fill="#93d32c" rx="27" ry="27" style="paint-order:stroke fill markers"/><g fill-rule="nonzero" stroke-width=".021"><path fill="#274c61" d="M17.797 22.88c0-1.23-.005-2.434.002-3.637a5.515 5.515 0 0 1 1.236-3.5c1.154-1.443 2.666-2.293 4.477-2.62 1.713-.308 3.34-.028 4.879.75 1.345.677 2.419 1.66 3.097 3.03.36.725.542 1.495.542 2.307-.002 1.132-.002 2.263-.002 3.395v.26c.283.021.556.017.818.067 1.545.291 2.413 1.206 2.662 2.746.005.035.002.072.002.107v4.234c0 .036-.004.07-.004.076-4.608 2.198-7.034 5.811-7.258 10.935h-.203c-3.712 0-7.423.029-11.135-.014-1.517-.017-2.657-.863-2.903-2.507a3.195 3.195 0 0 1-.037-.468c-.002-4.02-.01-8.039.004-12.06.005-1.543.87-2.671 2.378-3.001.4-.087.821-.067 1.233-.096.063.002.125 0 .211-.003zm11.537-.001c-.034-1.121-.023-2.218-.111-3.307-.096-1.181-.615-2.195-1.496-2.998-1.326-1.208-3.201-1.506-4.72-.698-1.663.887-2.429 2.363-2.533 4.197-.05.864-.01 1.734-.01 2.601v.205zm-3.027 12.557v-.275c0-1.217.002-2.435-.001-3.652 0-.132.03-.224.137-.31.532-.419.82-.972.91-1.643.215-1.626-1.351-3.047-2.94-2.645-.982.25-1.618.885-1.824 1.872-.207.985.113 1.819.913 2.447a.335.335 0 0 1 .146.302c-.005 1.217-.003 2.435-.003 3.652v.25c.9.002 1.765.002 2.662.002z"/><path fill="#fff" d="M39.991 30.888c5.596.05 10.047 4.492 10.044 10.064A10.007 10.007 0 0 1 39.963 51a10.005 10.005 0 0 1-10.03-10.066c.009-5.597 4.488-10.009 10.06-10.046zm-2.816 16.389c.922 0 1.803-.005 2.684.003.164.002.233-.054.293-.203 1.314-3.248 2.635-6.495 3.952-9.74l.531-1.321c-.05-.01-.076-.02-.102-.02-.832-.002-1.662.004-2.493-.005-.156-.002-.173.094-.209.192l-1.222 3.482c-.183.521-.369 1.042-.57 1.61-.05-.125-.08-.204-.11-.282-.593-1.603-1.188-3.205-1.776-4.81-.053-.144-.121-.192-.273-.19-.795.009-1.591.003-2.386.003-.061 0-.121.007-.203.013.03.084.052.152.078.217l.554 1.42c.816 2.083 1.628 4.168 2.45 6.252.077.197.096.365-.002.566-.179.366-.324.75-.482 1.123-.235.551-.467 1.104-.714 1.69z"/></g></svg>