<svg xmlns="http://www.w3.org/2000/svg" width="64" height="64"><style>.st0{fill:#f08705}.st1{fill:#df6c0c}.st2{fill:#fff}.st3{fill:#333}</style><circle cx="32" cy="32" r="27" fill="#f08705" style="paint-order:stroke fill markers"/><circle cx="32" cy="32" r="23" fill="#fff" stroke-width=".852" opacity=".1" style="paint-order:stroke fill markers"/><path fill="#fff" stroke-width=".334" d="m27 25-6.506 11h3.375l5.826-9.951h4.644L40.2 36h3.361L37 25z" opacity=".5"/><path fill="#fff" d="M28 16c-1.108 0-2 .892-2 2v6c0 1.108.892 2 2 2h8c1.108 0 2-.892 2-2v-6c0-1.108-.892-2-2-2h-8zm0 2h8v6h-8v-6z" style="paint-order:stroke fill markers"/><rect width="8" height="6" x="28" y="18" fill="#fff" stroke-width=".632" opacity=".5" rx="0" ry="0" style="paint-order:stroke fill markers"/><path fill="#fff" d="M17 36c-1.108 0-2 .892-2 2v6c0 1.108.892 2 2 2h8c1.108 0 2-.892 2-2v-6c0-1.108-.892-2-2-2zm0 2h8v6h-8z" style="paint-order:stroke fill markers"/><rect width="8" height="6" x="17" y="38" fill="#fff" stroke-width=".632" opacity=".5" rx="0" ry="0" style="paint-order:stroke fill markers"/><path fill="#fff" d="M39 36c-1.108 0-2 .892-2 2v6c0 1.108.892 2 2 2h8c1.108 0 2-.892 2-2v-6c0-1.108-.892-2-2-2zm0 2h8v6h-8z" style="paint-order:stroke fill markers"/><rect width="8" height="6" x="39" y="38" fill="#fff" stroke-width=".632" opacity=".5" rx="0" ry="0" style="paint-order:stroke fill markers"/></svg>