<svg xmlns="http://www.w3.org/2000/svg" width="64" height="64" image-rendering="optimizeSpeed"><rect width="54" height="54" x="5" y="5" fill="#dd3f80" rx="27" ry="27"/><rect width="38" height="14" x="12.827" y="16" fill="#fff" rx="3.145" ry="3.145"/><g fill="none" stroke-miterlimit="10"><path stroke="#abacae" stroke-width=".87" d="M15.443 20.238v5.357m2.922-5.357v5.357m3.409-6.818v8.279m3.409-6.818v5.357m3.408-5.357v5.357M32 18.777v8.279m3.409-6.818v5.357m3.408-5.357v5.357m3.409-6.818v8.279m3.409-6.818v5.357m2.922-5.357v5.357" class="st8"/><path stroke="#de3e80" stroke-width="1.067" d="M27.13 16.83v12.66" class="st9"/></g><circle cx="32" cy="42" r="8" fill="#f0f0f0" class="st10"/><rect width="2" height="5" x="31" y="35" opacity=".15" rx="1" ry="1" style="paint-order:stroke fill markers"/><rect width="12" height="2" x="10" y="36" fill="#1a1a1a" rx="1" ry="1" style="paint-order:stroke fill markers"/><rect width="10" height="2" x="12" y="46" fill="#1a1a1a" rx="1" ry="1" style="paint-order:stroke fill markers"/><rect width="10" height="2" x="10" y="41" fill="#1a1a1a" rx="1" ry="1" style="paint-order:stroke fill markers"/><rect width="12" height="2" x="-54" y="36" fill="#1a1a1a" rx="1" ry="1" style="paint-order:stroke fill markers" transform="scale(-1 1)"/><rect width="10" height="2" x="-52" y="46" fill="#1a1a1a" rx="1" ry="1" style="paint-order:stroke fill markers" transform="scale(-1 1)"/><rect width="10" height="2" x="-54" y="41" fill="#1a1a1a" rx="1" ry="1" style="paint-order:stroke fill markers" transform="scale(-1 1)"/></svg>