<svg xmlns="http://www.w3.org/2000/svg" width="64" height="64"><rect width="54" height="54" x="5" y="5" fill="gray" rx="27" ry="27"/><path fill="#ccc" d="M32 8c-6.094 0-11 4.906-11 11v6h-3c-1.108 0-2 .892-2 2v22c0 1.108.892 2 2 2h28c1.108 0 2-.892 2-2V27c0-1.108-.892-2-2-2h-3v-6c0-6.094-4.906-11-11-11zm0 4c3.878 0 7 3.122 7 7v6H25v-6c0-3.878 3.122-7 7-7z"/><path fill="#f4d984" d="M16 35v8h32v-8z"/><path fill="#222" d="M21.708 35 16 43h4.018l5.71-8zm7.25 0-5.707 8h4.019l5.708-8zm7.252 0-5.709 8h4.02l5.707-8zm7.25 0-5.707 8h4.018l5.708-8z"/><circle cx="46" cy="45" r="16" fill="#333"/><g fill="#fff"><circle cx="37" cy="45" r="3"/><circle cx="46" cy="45" r="3"/><circle cx="55" cy="45" r="3"/></g></svg>