<svg xmlns="http://www.w3.org/2000/svg" width="64" height="64" image-rendering="optimizeSpeed"><rect width="54" height="54" x="5" y="5" fill="#333" rx="27" ry="27"/><path fill="#feb512" fill-rule="evenodd" d="M35.062 13.308h-5.007l2.471 3.781z" clip-rule="evenodd"/><path fill="#ffa11c" fill-rule="evenodd" d="M21.948 31.028c0-.254.422-.46.953-.46h.082c.022.002.726 0 .726 0l-1.268 3.423-1.418-.555s.925-2.154.925-2.408z" clip-rule="evenodd"/><path fill="#ff9106" fill-rule="evenodd" d="M29.851 13.52c.047-.127.13-.212.226-.212.07 0 .135.047.182.124l2.145 3.325c.054.085.198.094.264 0l2.19-3.325c.048-.077.112-.124.183-.124.096 0 .179.085.226.212l-.001-.003 14.387 35.77c.078.176.047.23-.157.096L28.337 36.595 15.361 49.54l14.49-36.02z" clip-rule="evenodd"/><path fill="#fff" fill-rule="evenodd" d="m31.65 15.59-8.217 21.664 6.287-3.404 14.408 9.06L33.39 15.658l-.722 1.098c-.066.095-.21.086-.264.002l-.754-1.168z" clip-rule="evenodd" opacity=".2"/><path fill="#feb512" fill-rule="evenodd" d="M22.9 31.489h22.541c.149 0 .14.049-.002.14L14.493 50.631c-.188.115-.231.066-.136-.14l7.591-19.494s-.07.447.953.492z" clip-rule="evenodd"/><path fill="#fff" fill-rule="evenodd" d="M21.384 32.472c.027.386.404.507.794.511l18.836-.17-25.653 15.11zm12.642-19.164-1.499 2.336-1.43-2.336z" clip-rule="evenodd" opacity=".35"/></svg>