<svg xmlns="http://www.w3.org/2000/svg" width="64" height="64" viewBox="0 0 16.933 16.933"><g transform="translate(0 -280.07)"><circle cx="8.466" cy="288.53" r="7.144" fill="#fc0" style="paint-order:stroke markers fill"/><path fill="#fff" d="M9.257 288.795a.682.682 0 0 1-.694.669c-.425 0-.659-.373-.697-.718-.072-.66.286-1.019.598-1.203a1.84 1.84 0 0 1 .412-.176s.338 1.034.364 1.194c.029.177.016.234.016.234m1.658-2.073a2.713 2.713 0 0 0-1.301-.385l-.106-.371.004.004-.012-.033-.03-.11c-.072-.318.058-.469.125-.523l.036-.025c.308-.197.744.118.769.137.194.18.549.225.74.04.194-.186.148-.535-.045-.721-.301-.29-1.227-.756-2.014-.25-.707.454-.722 1.093-.605 1.462l.141.5a2.78 2.78 0 0 0-.67.282c-.775.457-1.163 1.23-1.066 2.116.1.911.807 1.573 1.682 1.573.93 0 1.686-.728 1.686-1.623-.013-.213-.01-.211-.04-.402-.03-.186-.315-1.062-.315-1.062.176.04.34.103.481.191 1.598 1 .933 2.593.903 2.662-.44 1.017-1.4 1.625-2.633 1.666a3.016 3.016 0 0 1-2.168-.814 3.074 3.074 0 0 1-.986-2.24c0-1.267.826-2.417 2.057-2.861.257-.093.463-.357.322-.663-.112-.24-.414-.324-.67-.23-1.616.583-2.701 2.092-2.701 3.753 0 1.099.47 2.166 1.29 2.928a4.02 4.02 0 0 0 2.892 1.081c1.614-.054 2.927-.896 3.512-2.248.365-.821.569-2.68-1.277-3.834"/></g></svg>