<svg xmlns="http://www.w3.org/2000/svg" width="64" height="64"><rect width="54" height="54" x="5" y="5" fill="#f43d53" rx="27" ry="27"/><path fill="#fff" d="M26.039 24c-.046.031-.055 15.936-.01 15.986.017.018.066.018.108 0 .041-.018 2.784-1.573 6.095-3.457v.002C40.17 32.015 40 32.114 40 32.023c0-.085-13.893-8.07-13.961-8.023zM12 13.826A26.958 26.958 0 0 0 9.525 17H12v-3.174zm40 0V17h2.475A26.96 26.96 0 0 0 52 13.826zM9 19v5h3v-5H9zm43 0v5h3v-5h-3zM9 26v5h3v-5H9zm43 0v5h3v-5h-3zM9 33v5h3v-5H9zm43 0v5h3v-5h-3zM9 40v5h3v-5H9zm43 0v5h3v-5h-3zM9.525 47A26.96 26.96 0 0 0 12 50.174V47H9.525zM52 47v3.174A26.958 26.958 0 0 0 54.475 47H52z"/></svg>