<svg xmlns="http://www.w3.org/2000/svg" width="64" height="64"><defs><style id="current-color-scheme" type="text/css">.ColorScheme-Text{color:#4d4d4d}</style></defs><g stroke-width="3.78"><path fill="#5ad85d" d="m51.062 12.941-2.799 2.8c8.982 8.983 8.982 23.546 0 32.528l2.807 2.806a27 27 0 0 0 .86-37.277 27 27 0 0 0-.868-.857zm7.828 16.674.018.232c-.006-.077-.011-.155-.018-.232zm.104 2.674-.008.267c.002-.089.007-.178.008-.267zm-.162 2.674a22.5 22.5 0 0 1-.034.275zm-.44 2.72-.031.139zm-.705 2.631-.027.084zm-3.582 7.19-.086.12zm-1.627 2.086c-.063.074-.126.149-.19.222.065-.073.127-.149.19-.222z" style="paint-order:stroke fill markers"/><path fill="#ffce3d" d="m51.061 12.943-2.797 2.799c6.456 6.455 8.272 15.795 5.447 23.873.072-.205.147-.407.213-.615l3.813 1.207a27 27 0 0 0 1.074-5.065 27 27 0 0 0 .184-2.822v-.031a27 27 0 0 0-7.934-19.346zm2.65 26.672a22.907 22.907 0 0 1-5.447 8.654l.022.022a22.87 22.87 0 0 0 5.425-8.676zm5.18-10 .018.232c-.006-.077-.011-.155-.018-.232zm-1.203 10.699-.027.084zm-3.582 7.19-.086.12zm-1.627 2.085c-.063.074-.126.15-.19.223.065-.073.127-.149.19-.223z" style="paint-order:stroke fill markers"/><path fill="#ff584c" d="m51.072 12.932-2.809 2.81a22.884 22.884 0 0 1 5.952 10.311l3.863-1.035a27 27 0 0 0-7.006-12.086zm3.404 14.209.026.111zm.211 1.107.028.17zm.139.977c.016.137.037.273.05.41-.014-.137-.033-.273-.05-.41zm4.064.39.018.233c-.006-.077-.01-.155-.018-.232zm-3.964.604c.015.2.032.4.043.6-.01-.2-.028-.4-.043-.6zm.054.961c.01.264.02.527.02.791 0-.263-.01-.527-.02-.791zm4.014 1.109-.008.268c.002-.09.007-.178.008-.268zm-4.137 2.245a23.03 23.03 0 0 1-.09.742c.036-.246.063-.494.09-.742zm3.975.43a22.5 22.5 0 0 1-.033.275l.033-.276zm-4.131.72c-.034.211-.068.423-.108.633.04-.21.074-.422.108-.633zm3.691 2-.031.139zm-.705 2.631-.027.084zm-1.209 3.068-.101.21a27 27 0 0 0 .101-.21zm-1.246 2.368c-.045.077-.094.15-.14.226a27 27 0 0 0 .14-.226zm-5.064.353-.166.213c.056-.07.11-.142.166-.213zm-.602.74c-.117.138-.233.277-.353.412.12-.135.236-.273.353-.412zm4.54.66-.087.122.086-.122zm-.352.479-.166.223a27 27 0 0 0 .166-.223zm-1.276 1.607c-.063.074-.125.15-.19.223.065-.073.127-.149.19-.223zm-.465.53-.097.105a27 27 0 0 0 .097-.105z" style="paint-order:stroke fill markers"/></g><path fill="#387fe7" stroke-width="3.78" d="M51.093 12.911a27.001 27.001 0 0 0-38.185 0 27.001 27.001 0 0 0 0 38.185 27.001 27.001 0 0 0 38.185 0l-2.827-2.827a22.999 22.999 0 0 0 0-32.527zm7.797 16.706.02.23a27.001 27.001 0 0 0-.02-.23zm.106 2.672-.007.265a27.001 27.001 0 0 0 .007-.265zm-.162 2.672-.038.276a27.001 27.001 0 0 0 .038-.276zm-.443 2.722-.03.14a27.001 27.001 0 0 0 .03-.14zm-.703 2.63-.026.083a27.001 27.001 0 0 0 .026-.083zm-3.583 7.193-.083.117a27.001 27.001 0 0 0 .083-.117zm-1.625 2.086-.189.22a27.001 27.001 0 0 0 .19-.22z" style="paint-order:stroke fill markers"/><circle cx="32" cy="32" r="16" fill="#fff" stroke-linecap="round" stroke-linejoin="round" stroke-width="1.911" opacity=".2"/><path fill="#fff" d="M32 22.016a5 5 0 1 0 0 10 5 5 0 0 0 0-10zm0 2a3 3 0 1 1 0 6 3 3 0 0 1 0-6zm-5.182 10A2.813 2.813 0 0 0 24 36.834v5.182h2v-6h12v6h2v-5.182a2.813 2.813 0 0 0-2.818-2.818z"/></svg>