<svg xmlns="http://www.w3.org/2000/svg" width="64" height="64"><g stroke-width=".741" transform="matrix(1.35 0 0 1.35 -519.57 -675.13)"><rect width="40" height="40" x="388.57" y="503.8" fill="#1da0f6" rx="20"/><path fill="#fff" fill-rule="evenodd" d="M409.75 508.24c3.83 3.306 4.787 6.657 4.787 11.922l1.57-4.069a10.714 10.714 0 0 1 3.112 6.193c.122 1.855-.181 3.498-.66 4.934 1.953-1.244 4.42-2.665 5.476-4.934-.705-7.508-6.74-13.472-14.285-14.046zm-2.691.089c-7.509.704-13.472 6.74-14.046 14.285 3.306-3.83 6.656-4.787 11.922-4.787l-4.069-1.57a10.713 10.713 0 0 1 6.193-3.112c1.855-.122 3.498.181 4.934.66-1.244-1.953-2.665-4.42-4.934-5.477zm-8.481 12.043c-1.953 1.243-4.42 2.664-5.477 4.934.705 7.508 6.74 13.472 14.285 14.046-3.829-3.306-4.786-6.657-4.786-11.922l-1.571 4.068a10.713 10.713 0 0 1-3.111-6.193c-.122-1.855.181-3.498.66-4.934zm25.546 4.606c-3.306 3.829-6.656 4.786-11.922 4.786l4.069 1.571a10.714 10.714 0 0 1-6.193 3.111c-1.856.122-3.498-.18-4.934-.66 1.243 1.954 2.665 4.42 4.934 5.477 7.508-.705 13.472-6.74 14.046-14.285z"/></g></svg>