<svg xmlns="http://www.w3.org/2000/svg" width="64" height="64"><style>.st6{fill:#2b2b2b}</style><path fill="#ececec" stroke-width="3.993" d="M835.78 451.4c0 193.9-157.19 351.08-351.08 351.08-47.067 0-91.991-9.288-133.07-26.079-40.994-16.791-78.148-41.173-109.67-71.271a1.233 1.233 0 0 0-.357-.268c-.536-.536-1.072-.982-1.608-1.518-65.555-63.858-106.37-153.17-106.37-251.95 0-193.9 157.19-351.08 351.08-351.08 29.384 0 57.963 3.572 85.203 10.449a349.653 349.653 0 0 1 97.796 40.994c15.451 9.467 30.098 20.095 43.852 31.706a352.317 352.317 0 0 1 98.957 137c16.344 40.548 25.275 84.668 25.275 130.93z" style="fill:#e5e5e5" transform="translate(-5.276 -2.715) scale(.0769)"/><g stroke-width="4.841"><path fill="#0c0c0c" d="M627 347.8c1.9 17.1-1.4 34.9.5 52.3 2 18.9-.6 38.8-4 57.4-.4-15.1-.8-30.4-1.6-45.2-.8-15.6-7-31.6-11.2-46.8 4.5 32 6.5 64.4 7.3 96.5.6 24.8.7 50.6-3.4 74.8-4 23.6-16.3 47.3-24 69.2-11.4 32.4-7.8 75.7-10.5 111.3 0 0-2.7 6.2-7.3-24-6.2-40.8.4-85.5 1.2-127v-1c0-.5-.1-1.4-.1-1.4s-1.3 3.8-1.5 4.9c-.1.4-.3 1.5-.3 1.8v.1c-.1.5-.2 1.1-.3 1.8-.1.4-.1.7-.2 1.1-.1.7-.3 1.6-.4 2.4-.1.4-.2.9-.2 1.3-.6 3.3-1.4 7.4-2.4 12.3-4.9 23.5-8.4 47.3-11.7 71-.1.5-.1.9-.2 1.4-2.7 16.4-7.8 23.4-17.9 34.9-10.7 12.2-23.6 27.5-38.1 36.1-.4.3-1 .6-1.6 1-19.4 13.2-37.4 29.9-57.7 40.9-1.4.8-1.9.8-1-.2.7-.8 1.4-1.5 2.1-2.3 5.2-5.6 10.2-11.8 13.6-18.1l.3-.6c11.2-22.8 21.3-46.7 31.4-70.2 0 0-2.8 4.2-6.3 9.2-4.4 6.2-10.2 13.8-12.6 16.7-19 23-32.4 56.4-52.3 78.3-7.2 7.9-19.5 10.9-27.6 18.6-7.6 7.2-18.5 11.9-28.4 13.6-16 2.7-33 12.5-49.3 18.5 0 0 9.6-11.5 16.6-20.6 14.6-19.2 28.1-39.4 40.4-60.3-.3.2-8.6 7-14 18.7-9.4 20.7-32.9 36.2-49.2 52.2-12 11.8-28.9 18.7-45.2 22.2-27.5-1.1-55.5-4.1-82.2-10.7-22.2-5.6-62.7-18.5-70.8-33.8-1.1-2.2-1.6-11 3-19.4 8-14.6 24.1-26.7 33.9-40.9 18.4-26.9 44.7-67.7 71.2-83.6 14.7-8.8 34.4-14.1 51.6-21.1 7.9-2.7 11.7-4.1 19.5-7-19.4 4.3-38.1 11.6-56.6 18.6 0 0 .1.2 10-13 11-14.6 25.5-26.7 38.3-39.5 22.5-22.5 77.3-58.9 77.3-58.9s-29.1 17.4-44.3 17.6c-9.2.1-18.2 5.5-25.8 10.3 9.4-10.6 19.5-20.9 29.2-31.1 19.6-20.8 46.5-35.7 70.5-51.3-11.9 2.5-25.1 1.3-37-.5 22.6-14.2 44.6-30.3 63.5-48.8 46.5-45.7 69.4-112.7 105.4-165.6 16.5-24.2 39.3-45.3 61.2-65.1 0 0 14.6 2.2 16.8 10.6 5.4 20.9 14.6 41.7 21.7 62.5 7.4 21.3 8.2 45.5 10.7 67.9z" style="fill:#0c0c0c" transform="translate(4.188 .618) scale(.06344)"/><path fill="#117c13" d="M554.9 445.7c-2.6 1 11.8 56.4 16.4 81.5 2.2 12 3.8 24.5 2.7 36.7 0 0-1.3 3.8-1.5 4.9-.1.4-.3 1.5-.3 1.8v.1c-.1.6-.2 1.1-.3 1.8-.1.4-.1.7-.2 1.1-.1.7-.3 1.6-.4 2.4-.1.4-.2.9-.2 1.3-.6 3.3-1.4 7.4-2.4 12.3-4.9 23.5-8.4 47.3-11.7 71-.1.5-.1.9-.2 1.4-2.7 16.4-7.8 23.4-17.9 34.9-10.7 12.2-23.6 27.5-38.1 36.1-.4.3-1 .6-1.6 1-19.4 13.2-37.4 29.9-57.7 40.9-1.4.8-1.9.8-1-.2.7-.8 1.4-1.5 2.1-2.3 5.2-5.6 10.2-11.8 13.6-18.1l.3-.6c11.2-22.8 21.3-46.7 31.4-70.2.5-.9.7-1.4 1.1-2.3 1-2 1.7-4.2 2.2-6.6 5.8-30.3 12-65.5 5.3-95.8-6-26.9-6.4-20.3-6.4-20.3-1.5 13-3.9 26.1-7.5 38.6-2.8 9.5-7.9 17.8-8.6 22.7-1.9 12.9 3.3 26.1 3.6 26.9-.3-.5-4.8-8.1-5.8-19.4-1.1-12.3 6.3-25.6 9-36.9 4.4-18.3-4.4-44.7-.5-58 10.1-35.1 49.7-89.3 65.8-137.9 8.4 26 14.9 54.3 23.9 78.5.8 2.2 1.1 2.9.3 1.9-4.2-9.7-15.4-29.2-15.4-29.2z" style="fill:#117c13" transform="translate(4.188 .618) scale(.06344)"/><path fill="#2b2b2b" d="M41.856 17.219c.006 0 1.269 2.366 1.421 3.64.095.825.305 2.487.305 2.487s-.406-2.493-.787-3.679c-.26-.824-.939-2.448-.939-2.448zm-.266 1.605s.723 1.744.894 2.664c.127.691.362 2.093.362 2.093s-.413-1.801-.666-2.683c-.203-.692-.59-2.074-.59-2.074zm-1.466 3.273c.641 2.03 1.326 4.136 1.542 6.235.152 1.51-.076 4.606-.076 4.606-.007 0 .063-3.85-.305-5.69a36.875 36.875 0 0 0-.869-3.49c-.406-1.338-.387-1.344-.387-1.344l.095-.317zm1.351 12.807s-.019 1.358-.095 2.024c-.076.685-.228 1.376-.317 2.068-.082.64-.254 1.338-.203 1.954.026.31-.05.082-.006-.755.05-1.047.336-2.113.444-3.153.063-.71.177-2.138.177-2.138zm.216-11.304s.28.654.501 1.472c.19.704.317 1.414.394 2.144.063.634.215 1.694.215 1.694-.07-.952-.14-1.922-.285-2.861-.032-.222-.127-.533-.203-.8a7.651 7.651 0 0 0-.35-1.014c-.113-.248-.17-.381-.272-.635zm-3.279 5.272s.165.672.31 1.459c.115.64.165 1.306.267 1.94.14.889.767 2.659.767 2.659s-.387-1.65-.564-2.43c-.146-.647-.197-1.37-.305-2.042a5.08 5.08 0 0 0-.253-.971c-.09-.247-.134-.368-.222-.615zm-1.111 1.034s2.068 7.783 1.06 11.126c-.628 2.087-3.254 5.804-3.254 5.804-.007-.006 3-4.503 3.178-6.971.196-2.69-.229-5.31-.654-7.993-.108-.653-.33-1.966-.33-1.966z" class="st6"/><path fill="#2b2b2b" d="M36.654 33.686s.216.622.292 1.39c.076.793.083 1.617.064 2.416-.032 1.244-.533 3.743-.533 3.743s.615-2.709.66-3.996c.019-.635-.077-1.332-.127-1.992a4.747 4.747 0 0 0-.172-.952 17.062 17.062 0 0 1-.184-.609zm-4.339 4.206c.45 2.867.121 5.887-.945 8.481-.907 2.22-4.618 5.671-4.618 5.671s1.872-1.623 2.633-2.581c.793-.996 1.35-2.22 1.865-3.394.856-1.948 1.123-4.434.8-6.521-.318-2.068-.083-1.307-.083-1.307l.348-.349zm.933 3.832c0 .057.006.114 0 .177 0 .14 0 .482.044 1.034.026.305.083.704.064 1.11a4.44 4.44 0 0 1-.21 1.04c-.24.756-.856 2.246-.856 2.246s.755-1.567.977-2.347c.044-.158.159-.488.19-.907s-.05-.863-.057-.983a19.992 19.992 0 0 0-.203-2.201c.026.336.038.5.051.83z" class="st6"/><path fill="#2b2b2b" d="M29.556 44.09c-.285 1.598-1.383 4.789-1.383 4.789s1.06-2.461 1.326-3.705c.165-.786.558-1.884.336-2.683-.006 0-.184 1.06-.279 1.599zm-12.224 7.809c-.203.551-.628 1.09-1.015 1.573 0 0 .863-.996.952-1.212.038-.095.336-.825.222-.882.006 0-.095.35-.159.52zm3.489-1.307c-.108 1.072-1.104 3.197-1.104 3.197s.977-1.668 1.142-2.512c.038-.178.222-1.637.02-1.694.005 0-.02.673-.058 1.009zm4.612-3.375c-.165 1.478-1.294 4.44-1.294 4.44s1.116-2.309 1.32-3.482c.113-.666.418-1.75.113-2.398.007 0-.082.952-.14 1.44zM40.27 15.392c-.73.342-1.465.837-1.935 1.503-.45.647-1.237 2.036-1.237 2.036.007 0 1.136-1.598 1.777-2.214.101-.095.647-.634.716-.678.127-.076.68-.647.68-.647zm-.882 3.47a1.297 1.297 0 0 0-.348-.013 4.367 4.367 0 0 0-1.104.292c-.742.304-1.421.85-2.055 1.364 0 0 .628-.375.805-.464.14-.07.565-.317.977-.507.133-.063.45-.19.761-.285.66-.203 1.383-.324 1.383-.324-.171-.019-.254-.038-.419-.063zm-1.186 1.668s-.05.362-1.256.222c-.679-.076-1.389.304-1.776.856l-.19.298c.14-.126.21-.19.349-.323 0 0 .437-.362.685-.47.228-.101.621-.095.875.026.133.063.362.07.552.057.31-.013.584-.247.749-.66.006.007.006 0 .012-.006zm-.476 1.928c-.031-.057-3.171 1.98-4.269 3.28-1.211 1.434-3.907 4.11-3.907 4.11 0 .007 1.516-.837 2.15-1.357.97-.787 1.637-2.043 2.595-2.842.583-.488 1.072-1.142 1.668-1.63.603-.489 1.763-1.56 1.763-1.56zm-.576 5.145c-3.008 1.662-6.313 3.102-9.085 5.132-.92.672-1.858 1.32-2.797 1.966-.298.21-.61.406-.926.584-.21.12-.317.184-.533.298.767-.241 1.567-.52 2.258-.907.546-.305 1.066-.749 1.56-1.136a18.63 18.63 0 0 1 2.088-1.389c.336-.19.5-.285.83-.488a9.042 9.042 0 0 1 1.409-.692 82.816 82.816 0 0 0 4.688-2.023c.215-.533.317-.8.507-1.345zm-7.036 5.537c.045-.018.083-.037.127-.05.102-.038.349-.133.723-.342.21-.121.47-.305.755-.406 1.002-.362 3.051-1.06 3.051-1.06s-2.055.628-3.063.945c-.299.096-.584.324-.667.362-.17.076-1.319.685-1.528.825.247-.115.361-.165.602-.273zm2.988 1.365c0-.007-3.901.73-5.43 1.68-.964.603-2.112.933-3.077 1.491-.621.362-1.826 1.263-1.826 1.263 0 .006 1.788-.926 2.727-1.256 1.091-.38 2.08-1.053 3.16-1.421 1.484-.495 4.446-1.757 4.446-1.757zm-9.033 4.605s-.476-.063-1.573.47a18.85 18.85 0 0 0-2.037 1.135c.438-.222.654-.33 1.079-.565.12-.057.615-.342 1.072-.552.33-.152.844-.304 1.186-.405.108-.032.165-.045.273-.083zm5.367 1.136c-1.504.019-3.153-.045-4.587.355a16.07 16.07 0 0 0-1.897.672c.616-.165.92-.247 1.523-.425a6.611 6.611 0 0 1 1.345-.254 139.33 139.33 0 0 0 3.616-.348zm-4.276 2.372a7.716 7.716 0 0 0-.856.013c-1.472.101-3.052.177-4.434.621-.958.311-2.842 1.193-2.842 1.193s2.448-.99 3.717-1.199c1.75-.292 3.546-.533 5.335-.603a40.35 40.35 0 0 1-.92-.025zm-5.037 1.814c-1.135.197-2.353.438-3.362.99-1.154.628-.932.59-.932.59a21.6 21.6 0 0 0 1.04-.45 13.036 13.036 0 0 1 1.928-.717c.54-.159.8-.241 1.326-.413zm1.872 1.738c-1.396.153-2.792.311-4.18.457a9.076 9.076 0 0 0-3.249.97 26.9 26.9 0 0 0 1.726-.507c.748-.228 1.51-.342 2.283-.431a61.574 61.574 0 0 0 3.42-.489zm-4.155 2.366c0-.006-2.29-.513-3.28-.076-1.193.52-1.332.812-1.332.812.45-.215.672-.323 1.097-.558l.305-.152c.393-.165.888-.222 1.364-.197.615.038 1.846.171 1.846.171z" class="st6"/><path fill="#4e4f4e" d="M582.4 35.3c15.7 58 16 117.6 13.3 176.8-3 64.4-27.3 132-48.3 192.8-22.1 64.1-57.5 118.3-90.8 176.4-30.6 53.3-79.1 98.3-126.8 136.2-41.6 33-87.6 58.2-137.1 76.4-15.4 5.6-32.6 7.6-48.9 8.1-12 .3-20.6-.4-21-.4 35.4-7.4 71.3-18.1 102.7-36.2 87.1-50.3 169.1-119.1 220.2-206.9 32.5-55.7 63.2-110.4 84.6-171.6 19.7-56.6 41.2-115.9 47.1-175.7 4.5-45.7 4.3-92.5-3.9-137.9 2.8-9.5 4-14.3 6.1-23.8 1.2-5.8 1.8-8.6 2.8-14.2z" style="fill:#4e4f4e" transform="translate(4.188 .618) scale(.06344)"/><path fill="#666" d="M582.4 35.3c15.7 58 16 117.6 13.3 176.8-3 64.4-27.3 132-48.3 192.8-22.1 64.1-57.5 118.3-90.8 176.4-30.6 53.3-79.1 98.3-126.8 136.2-41.6 33-87.6 58.2-137.1 76.4-15.4 5.6-32.5 7.6-48.9 8.1h-.1c38.5-8 78.8-19.7 111.8-41.5 86-56.8 168.7-125.5 216.9-218.7 30-58 57-115 77.2-177.5 18.7-57.8 38.5-118.8 41.5-179.7 2.3-45.2-.7-91.1-11.5-135.2 1.2-5.7 1.8-8.5 2.8-14.1z" style="fill:#666" transform="translate(4.188 .618) scale(.06344)"/></g></svg>