<svg xmlns="http://www.w3.org/2000/svg" width="64" height="64"><g stroke-width=".741" transform="matrix(1.35 0 0 1.35 -.4 -22)"><circle cx="24" cy="40" r="19.259" fill="#33393e"/><path fill="#e99f4b" d="m27.64 20.379-4.768 13.484 18.773-3.138a19.99 19.99 0 0 0-14.01-10.346"/><path fill="#f6d152" d="m42.879 33.664-14.139 2.64 12.125 14.584c3.235-5.045 4.072-11.403 2.014-17.225"/><path fill="#369557" d="m39.04 53.102-9.37-10.844-6.654 17.723c6.017.26 11.979-2.199 16.026-6.88"/><path fill="#4c8fbf" d="m20.237 59.631 4.768-13.484-18.773 3.138a19.99 19.99 0 0 0 14.01 10.346"/><path fill="#8e52a8" d="m5.12 46.326 14.14-2.64L7.135 29.102C3.899 34.147 3.062 40.505 5.12 46.327"/><circle cx="24" cy="40" r="2.963" fill="#fff"/><path fill="#e06959" d="m8.915 26.898 9.371 10.844 6.653-17.723c-6.016-.26-11.978 2.199-16.025 6.88"/></g></svg>