<svg xmlns="http://www.w3.org/2000/svg" width="64" height="64" viewBox="0 0 16.933 16.933"><path fill="#1dc99a" d="M15.61 8.466a7.144 7.144 0 0 1-7.144 7.144 7.144 7.144 0 0 1-7.143-7.144 7.144 7.144 0 0 1 7.143-7.143 7.144 7.144 0 0 1 7.144 7.143z"/><rect width="7.937" height="7.937" x="4.498" y="4.498" fill="#303030" rx="1.323" ry="1.323" style="paint-order:markers stroke fill"/><path fill="#f0f0f0" d="M5.82 10.756h3.107v.621H5.82z"/><path fill="#fff" d="M6.348 6.429v1.867h.283q.484 0 .738-.24.256-.24.256-.697 0-.455-.254-.693t-.74-.237zm-.789-.597h.832q.697 0 1.037.1.343.1.587.337.215.207.32.477.104.271.104.613 0 .347-.105.62-.104.27-.32.477-.245.238-.59.338-.344.098-1.033.098H5.56zm5.614.096v.648q-.252-.113-.492-.17-.24-.057-.453-.057-.283 0-.418.078t-.135.241q0 .123.09.193.092.068.332.117l.336.068q.51.102.726.311t.215.595q0 .506-.302.754-.299.246-.916.246-.29 0-.584-.056-.293-.055-.586-.164v-.666q.293.156.566.236.274.078.528.078.259 0 .396-.086t.137-.246q0-.144-.094-.221-.092-.078-.37-.14l-.306-.068q-.46-.098-.673-.313-.21-.215-.21-.58 0-.457.294-.703.296-.246.849-.246.252 0 .519.039.266.037.55.112z" aria-label="DS"/></svg>