<svg xmlns="http://www.w3.org/2000/svg" width="64" height="64" version="1.0"><circle cx="32" cy="32" r="27" fill="#ececec" style="paint-order:stroke fill markers"/><g stroke-width=".395"><path fill="#1c71d8" d="M32 11.768v.002c-.708 0-1.415.27-1.957.812L11.97 30.064a2.752 2.752 0 0 0-.81 1.956h-.002c-.001.735.29 1.44.812 1.959l18.074 18.21a2.762 2.762 0 0 0 3.914 0l18.231-18.231a2.75 2.75 0 0 0 .81-1.959H53a2.75 2.75 0 0 0-.812-1.956L33.957 12.582A2.758 2.758 0 0 0 32 11.768z"/><path fill="#26a269" d="m26.463 26.463 5.536-5.536V32l-5.536 5.536z"/><path fill="#813d9c" d="m20.935 31.99-5.544 5.546 5.537 5.537 5.535-5.537z"/><path fill="#98c1f1" d="M37.536 37.536 26.463 48.61V37.536L37.499 26.38z"/><path fill="#2ec27e" d="M37.536 15.391 32 20.927V32l11.074-11.073z"/><path fill="#613583" d="m20.94 20.917-4.215 4.212-5.031 5.044A2.752 2.752 0 0 0 11 31.999a2.752 2.752 0 0 0 .811 1.959l3.579 3.579 11.072-11.073zm-9.927 12.05a2.752 2.752 0 0 0 .108.538 2.752 2.752 0 0 1-.108-.539z"/><path fill="#f5c211" d="M32 10.998c-.708 0-1.416.27-1.957.813l-9.116 9.116 5.536 5.537L37.53 15.386l-3.574-3.574A2.759 2.759 0 0 0 32 10.999z"/><path fill="#e01b24" d="m43.072 20.926-.022 11.73 5.22 5.22 3.918-3.919a2.752 2.752 0 0 0 .81-1.958 2.75 2.75 0 0 0-.81-1.957z"/><path fill="#ff7800" d="m32 32 11.073-11.074V32l-5.536 5.537z"/><path fill="#fff" d="m32 20.927 5.536 5.537 5.537-5.537-5.537-5.536z" opacity=".2"/><path fill="#dc8add" d="m20.927 20.927-9.117 9.116a2.752 2.752 0 0 0-.184.204l9.302-9.32z"/><path fill="#e5a50a" d="m20.927 20.927 5.536 5.537L32 20.927z"/><path fill="#ffa348" d="m37.536 37.536 5.54 5.533L43.074 32z"/><path fill="#3584e4" d="M26.463 37.536 31.999 32l-5.53-5.496z"/><path fill="#f66151" d="m43.072 32 .005 11.068 5.529-5.528z"/><path fill="#c061cb" d="m26.463 37.536-5.535 5.536v.002l5.535 5.535z"/><path fill="#1a5fb4" d="m32 32-5.536-5.537-5.537 5.536z"/><path fill="#3584e4" d="m32 32-5.536 5.536-5.529-5.545z"/></g></svg>