<svg xmlns="http://www.w3.org/2000/svg" width="64" height="64" viewBox="0 0 16.933 16.933"><circle cx="8.466" cy="8.466" r="7.144" fill="#4d4d4d" style="paint-order:stroke fill markers"/><g fill="#fff"><rect width="8.467" height="8.467" x="-12.7" y="-12.7" opacity=".1" rx="4.233" ry="4.233" transform="matrix(0 -1 -1 0 0 0)"/><rect width="6.879" height="6.879" x="-11.906" y="-11.906" opacity=".25" rx="3.44" ry="3.44" transform="matrix(0 -1 -1 0 0 0)"/><path d="m8.467 5.556-.786.943a2.117 2.117 0 1 0 1.571 0z"/></g><circle cx="4.366" cy="4.63" r=".661" opacity=".15" style="paint-order:stroke fill markers"/><circle cx="4.366" cy="4.63" r=".397" fill="#0090ff" style="paint-order:stroke fill markers"/><path d="M8.202 2.91h.529v1.058h-.529zm1.448.121.51.137-.273 1.022-.511-.137zm1.365.492.458.264-.529.916-.458-.264zm1.193.827.374.374-.748.749-.374-.374zm.938 1.109.265.458-.916.53-.265-.459zm.62 1.314.137.511-1.022.274-.137-.511zm.257 1.429v.529h-1.058v-.529z" opacity=".25" style="paint-order:stroke fill markers"/></svg>