<svg xmlns="http://www.w3.org/2000/svg" width="64" height="64" viewBox="0 0 16.933 16.933"><circle cx="8.466" cy="8.466" r="7.144" fill="#7091e3" style="paint-order:stroke markers fill"/><circle cx="8.467" cy="8.466" r="5.82" opacity=".1" style="paint-order:stroke markers fill"/><path fill="#fff" d="M8.466 4.233a7.486 7.486 0 0 1-.177.42c-.005.012-.013.022-.018.034-.058.124-.115.24-.178.361l-.038.075a9.002 9.002 0 0 1-.177.32c-.02.036-.044.073-.065.109C7.272 6.438 6.56 7.362 6 8.139c-.445.584-.7 1.214-.776 1.822 0 1.51 1.45 2.739 3.242 2.739s3.243-1.228 3.243-2.739c0-.951-.777-1.93-1.673-3.183-.283-.39-.557-.799-.803-1.184a15.237 15.237 0 0 1-.766-1.36zm0 1.144c0 1.46.368 2.66.764 4.14h.932l-.848 1.017-.847 1.023-.848-1.023-.848-1.017h.974c.412-1.538.722-2.683.722-4.14z"/></svg>