<svg xmlns="http://www.w3.org/2000/svg" width="64" height="64" viewBox="0 0 16.933 16.933"><path fill="#04a" d="M8.38 1.323a7.144 7.144 0 1 1 0 14.287 7.144 7.144 0 0 1 0-14.287z"/><path fill="#f0f0f0" d="m2.135 5.171-.075.147c.381.211 1.477.762 1.997 1.088.658.403 1.548 1.225 1.617 1.362-.685 1.192-.374 2.246-.455 2.358-.058.093-.596.684-.422.771.171.087.444-.048.486-.075.086-.052.174-.13.137.022-.073.31-.402 1.057.053.899.056-.032.79-.841.877-.868 1.458.38 3.089.205 3.391.064.157.01.602.29.856.425.253.132.945.463.74-.14-.063-.19-.518-.674-.444-.708.162-.064.564.169.718.212.463.13.525-.05.233-.445-.289-.395-.332-.334-.423-.517-.071-.145 0-.308.052-.347.094-.072 1.475-.838 1.798-1.131.48-.437 0-.98-.117-1.057-.994-.716-2.015-.562-2.029-.676-.007-.13-.004-.503-.02-.633-.1-.877-.506-.656-.561-.656-.405.064-.257.685-.084 1.268.012.15-.143.083-.233-.074-.311-.836-.443-.822-.53-.846-.083-.02-.375.16-.37.498.002.096.116.556.116.697-.191.167-.2.548-.402.686-.585.122-1.99-.288-2.165-.307-.608-.114-.872.343-.971.233-.788-.904-1.993-1.575-2.514-1.691-.203-.044-.885-.345-1.131-.497-.04-.023-.084-.041-.128-.063m10.842.792c-.19.205-.156.97-.117.963.194-.04.176-1.024.117-.963m.55.117c-.02-.063-.522.64-.434.9.04.111.503-.704.435-.9m-2.6 1.194c.006-.006.015.003.022.01.058.194.123.377.506.424.045.005-.212.156-.39.062-.16-.096-.175-.451-.138-.495m.993.97a.26.26 0 0 1 .086 0c.093.024-.68.427-.74.372-.037-.035.413-.326.655-.372m.201.256c.081.006-.447.553-.506.496-.044-.04.342-.509.506-.496"/></svg>