<svg xmlns="http://www.w3.org/2000/svg" width="64" height="64" viewBox="0 0 16.933 16.933"><g transform="translate(0 -280.07)"><circle cx="8.466" cy="288.53" r="7.144" fill="#e0605a" style="paint-order:stroke markers fill"/><circle cx="8.467" cy="288.53" r="5.594" opacity=".15" paint-order="stroke markers fill"/><path fill="#5f4645" fill-rule="evenodd" d="M11.164 285.359a.428.428 0 0 0-.308.108l-1.668 1.483a.417.417 0 0 0-.116.458c-.117.111-.031.615-.06.79-.038.215-.483.313-.852.298-.477.02-.946.121-1.288.427-.19.17-1.682 2.587-1.575 2.78.06.108 3.154-1.258 4.12-1.866.175-.11.165-.24.137-.467-.02-.155-.082-.308-.134-.443-.23-.338-.154-.84.004-1.181a.43.43 0 0 0 .408-.09l1.668-1.482a.417.417 0 0 0 .032-.596l-.072-.079a.43.43 0 0 0-.295-.14"/><g fill="#fff" transform="translate(0 -.333)"><path d="M8.467 285.69c-.813 0-1.852.226-1.852 1.324 0 .292.273.529.529.529.255 0 .529-.237.529-.53v-.264c0-.234.238-.529.794-.529.555 0 .793.37.793.794 0 1.058-1.058 1.058-1.058 3.175h.53c0-1.829 1.587-1.694 1.587-3.175 0-.847-.926-1.323-1.852-1.323z"/><circle cx="8.467" cy="291.51" r=".529"/></g></g></svg>