<svg xmlns="http://www.w3.org/2000/svg" width="64" height="64"><g stroke-width=".741"><g stroke-opacity=".55" stroke-width="2.074" transform="matrix(1.35 0 0 1.35 -519.57 -675.13)"><rect width="40" height="40" x="388.57" y="503.8" fill="#434b55" rx="20"/><rect width="34.074" height="34.074" x="-425.61" y="-540.84" fill="#2c363f" rx="17.037" transform="scale(-1)"/><rect width="26.667" height="26.667" x="-421.9" y="-537.13" fill="#2e5d89" rx="13.333" transform="scale(-1)"/><rect width="20" height="20" x="-418.57" y="-533.8" fill="#274f74" rx="10" transform="scale(-1)"/><g fill="#197cf1"><path d="M408.57 510.47a13.304 13.304 0 0 0-13.333 13.333 13.304 13.304 0 0 0 13.333 13.333 13.304 13.304 0 0 0 13.333-13.333 13.304 13.304 0 0 0-13.333-13.333m0 .952a12.354 12.354 0 0 1 12.381 12.381c0 6.86-5.522 12.381-12.381 12.381s-12.381-5.522-12.381-12.38a12.354 12.354 0 0 1 12.381-12.382"/><path d="M408.57 512.69a11.087 11.087 0 0 0-11.111 11.111 11.087 11.087 0 0 0 11.111 11.111 11.087 11.087 0 0 0 11.111-11.111 11.087 11.087 0 0 0-11.111-11.111m0 2.222a8.867 8.867 0 0 1 8.889 8.89 8.867 8.867 0 0 1-8.889 8.888 8.867 8.867 0 0 1-8.889-8.889 8.867 8.867 0 0 1 8.889-8.889"/><path d="M408.57 516.37c-1.072 0-2.087.23-3.005.635l1.73 4.328 1.163-.309 1.899-4.43a7.45 7.45 0 0 0-1.787-.223m2.677.502-1.836 4.282 1.045.602 4.474-1.79a7.402 7.402 0 0 0-3.684-3.095m-6.51.566a7.402 7.402 0 0 0-3.094 3.684l4.282 1.836.602-1.045zm10.627 3.355-4.328 1.73.308 1.163 4.43 1.899a7.45 7.45 0 0 0 .224-1.787 7.43 7.43 0 0 0-.635-3.005m-14.004 1.219a7.45 7.45 0 0 0-.223 1.786c0 1.072.23 2.087.635 3.005l4.327-1.73-.308-1.162zm9.85 2.628-.602 1.044 1.79 4.475a7.402 7.402 0 0 0 3.095-3.684zm-4.531 1.2-4.474 1.79a7.402 7.402 0 0 0 3.684 3.095l1.835-4.282zm3.161.425-1.163.308-1.899 4.43a7.45 7.45 0 0 0 1.787.223 7.41 7.41 0 0 0 3.005-.635z"/></g></g><g stroke-linejoin="round" transform="matrix(1.35 0 0 1.35 -519.57 -675.13)"><circle cx="643.01" cy="166.83" r="2" fill="#2c3e50" color="#000" transform="rotate(37.5)"/><path fill="#fff" d="M401.57 513.8a3 3 0 0 0-3 3 3 3 0 0 0 3 3 3 3 0 0 0 3-3 3 3 0 0 0-3-3m4 5.5a1.5 1.5 0 0 0-1.5 1.5 1.5 1.5 0 0 0 1.5 1.5 1.5 1.5 0 0 0 1.5-1.5 1.5 1.5 0 0 0-1.5-1.5" opacity=".25"/></g></g></svg>