<svg xmlns="http://www.w3.org/2000/svg" width="64" height="64"><circle cx="32" cy="32" r="27" fill="#ffb030"/><path fill="#fff" d="M45.189 19.756a30.947 30.947 0 0 0-7.84-2.463c-.337.61-.732 1.431-1.004 2.085a28.756 28.756 0 0 0-8.688 0 22.271 22.271 0 0 0-1.017-2.085 30.847 30.847 0 0 0-7.845 2.47c-4.962 7.497-6.307 14.807-5.634 22.015 3.29 2.458 6.48 3.95 9.615 4.927a23.917 23.917 0 0 0 2.059-3.391 20.254 20.254 0 0 1-3.243-1.578c.272-.202.538-.413.795-.63 6.253 2.925 13.046 2.925 19.224 0 .26.217.526.428.795.63a20.2 20.2 0 0 1-3.249 1.58 23.804 23.804 0 0 0 2.06 3.392c3.138-.977 6.33-2.47 9.62-4.93.79-8.355-1.347-15.599-5.648-22.022zm-19.502 17.59c-1.877 0-3.416-1.752-3.416-3.886 0-2.134 1.506-3.89 3.416-3.89s3.45 1.753 3.416 3.89c.003 2.134-1.506 3.886-3.416 3.886zm12.625 0c-1.877 0-3.416-1.752-3.416-3.886 0-2.134 1.506-3.89 3.416-3.89s3.45 1.753 3.416 3.89c0 2.134-1.506 3.886-3.416 3.886z"/></svg>