<svg xmlns="http://www.w3.org/2000/svg" width="64" height="64" viewBox="0 0 16.933 16.933"><circle cx="8.467" cy="288.53" r="6.879" fill="#b6057c" style="paint-order:stroke markers fill" transform="translate(-.326 -291.168) scale(1.0385)"/><path fill="#fff" fill-rule="evenodd" d="M7.592 4.233c-1.818.086-3.241 1.735-3.168 2.631.07.873 2.281 1.639 2.255 1.665-.452.382-.75.64-1.128.985-.908.83-1.535 1.445-1.217 2.309.367.996 1.17.955 2.112.77 2.432-.48 6.433-3.556 6.23-4.69-.165-.919-2.402-2.734-3.724-3.384a2.798 2.798 0 0 0-1.36-.286zm.376 1.575c.227-.021.492.036.787.18.645.311 1.313 1.139 0 1.61-.357.128-1.502-.308-1.467-.913.031-.558.3-.841.68-.877z"/></svg>