<svg xmlns="http://www.w3.org/2000/svg" width="64" height="64" viewBox="0 0 16.933 16.933"><circle cx="8.467" cy="288.53" r="6.879" fill="#f6476b" style="paint-order:stroke markers fill" transform="translate(-.326 -291.168) scale(1.0385)"/><path fill="#fff" d="M11.077 7.854c.009.229-.066.34-.134.536l-.122.06c-.1.195.01.124-.062.278-.156.14-.474.434-.575.461-.074 0 .05-.087.066-.12-.208.143-.167.215-.487.302l-.01-.021c-.787.37-1.881-.364-1.867-1.366-.008.064-.024.048-.041.073-.04-.515.238-1.033.708-1.245.46-.227 1-.134 1.328.173-.18-.237-.54-.488-.967-.465-.418.006-.81.273-.94.561-.214.135-.239.52-.332.59-.126.924.236 1.322.848 1.791.096.065.027.075.04.125a1.66 1.66 0 0 1-.543-.415c.082.119.17.234.283.325-.192-.065-.448-.465-.523-.481.33.592 1.34 1.038 1.87.816-.245.01-.556.005-.831-.096-.116-.06-.273-.183-.245-.206.722.27 1.468.204 2.093-.296.159-.124.333-.335.383-.338-.076.114.013.055-.045.155.158-.255-.07-.104.163-.44l.086.118c-.032-.213.263-.47.233-.805.068-.103.076.11.004.346.1-.262.026-.304.052-.52.028.073.064.15.083.227-.065-.253.066-.426.099-.573-.032-.014-.1.112-.116-.187.003-.13.036-.068.05-.1-.026-.015-.093-.114-.134-.305.03-.045.079.116.12.123-.027-.152-.071-.267-.073-.384-.117-.245-.041.033-.136-.105-.125-.389.103-.09.119-.267.188.274.296.698.346.874a3.575 3.575 0 0 0-.174-.623c.058.024-.092-.44.075-.133-.178-.656-.764-1.27-1.302-1.558.065.06.149.136.119.148-.268-.16-.221-.172-.26-.24-.217-.088-.232.008-.376 0-.411-.218-.49-.194-.87-.33l.018.08c-.272-.091-.317.034-.612 0-.018-.014.095-.05.187-.064-.263.035-.251-.052-.509.009.064-.045.13-.074.199-.112-.215.013-.513.125-.421.023-.35.156-.973.376-1.322.703l-.011-.073c-.16.192-.698.574-.74.823l-.044.01c-.083.14-.137.3-.203.445-.109.186-.16.072-.144.1-.214.435-.32.8-.412 1.1.065.097 0 .589.026.982-.108 1.943 1.363 3.829 2.971 4.264.236.085.586.081.884.09-.351-.1-.397-.054-.74-.173-.247-.116-.3-.25-.476-.401l.07.122c-.344-.121-.2-.15-.48-.238l.074-.097c-.11-.008-.294-.187-.344-.287l-.122.005c-.146-.18-.224-.31-.219-.41l-.039.07c-.044-.077-.538-.678-.282-.538-.048-.043-.11-.07-.18-.195l.053-.06c-.123-.158-.227-.361-.22-.43.067.09.112.106.157.121-.31-.772-.328-.042-.564-.785l.05-.004c-.038-.058-.062-.12-.092-.182l.021-.216c-.224-.259-.062-1.101-.03-1.563.022-.188.187-.388.312-.702l-.076-.013c.146-.254.832-1.02 1.15-.981.155-.194-.03 0-.06-.05.338-.35.445-.247.673-.31.246-.146-.211.057-.095-.056.426-.109.302-.247.857-.302.059.033-.136.051-.184.094.354-.173 1.122-.134 1.62.097.58.27 1.23 1.07 1.255 1.822l.03.008c-.015.299.045.644-.06.962l.071-.15"/></svg>