<svg xmlns="http://www.w3.org/2000/svg" width="64" height="64" viewBox="0 0 16.933 16.933"><path fill="#04a" d="M8.38 1.323a7.144 7.144 0 1 1 0 14.287 7.144 7.144 0 0 1 0-14.287z"/><g fill="#fff"><path d="M10.69 4.22c-.02.013-.03.024-.024.016-.23.39-.233.901-.337 1.36a.17.17 0 0 1 0 .023c-.051.502-.215 1.013-.084 1.495a.17.17 0 0 1 .014.03c.024.032.055.06.073.065.014.002.034-.004.082-.037.051-.036.084-.101.1-.196a.17.17 0 0 1 .029-.07c.205-.817.352-1.674.297-2.513a.17.17 0 0 1 0-.009c-.007-.039-.019-.062-.056-.107a.385.385 0 0 0-.048-.051c-.006-.005 0-.006-.024-.004a.17.17 0 0 1-.022-.001zm1.892.398a.159.159 0 0 1-.017 0c-.354.173-.536.59-.78.924a.159.159 0 0 1-.019.047c-.308.546-.7 1.088-.742 1.72.002.1.059.157.118.17a.228.228 0 0 0 .2-.087c.003-.01 0-.018.006-.026a.159.159 0 0 1 .004-.006c.559-.768.981-1.68 1.328-2.565a.159.159 0 0 1 .001-.002c.024-.059.025-.081.004-.125-.006-.013-.069-.055-.103-.05z"/><path d="M7.084 4.873c-.057.01-.141.061-.202.085-.213.08-.33.264-.382.477-.051.22-.034.463 0 .712.035.248.084.504.138.7.047.17.08.252.096.308v.042c0 .019-.009.017-.021.032-.007.004.006.021 0 .021a.09.09 0 0 1-.053.022c-.038.002-.068-.012-.107-.022-.026-.006-.06-.027-.053-.02-.012-.008-.034-.01-.042-.022 0 .005.007.005 0-.01-.009-.017-.018-.057-.032-.086-.03-.064-.054-.139-.095-.233a8.48 8.48 0 0 0-.308-.637 2.048 2.048 0 0 0-.414-.552.696.696 0 0 0-.265-.159.43.43 0 0 0-.287.042.866.866 0 0 0-.425.574c-.052.228-.027.492.011.721.039.23.1.418.138.573.017.066.037.127.042.16a.932.932 0 0 1-.02.148c-.04.14-.139.372-.139.372s-1.852 4.919 2.123 4.574c.033-.002.107-.021.138-.021.78-.157 1.52-.393 2.176-.658.129-.062.298-.123.488-.212.38-.178.857-.407 1.316-.658.459-.253.885-.521 1.21-.807.326-.286.564-.6.52-.913-.07-.504-.404-.878-.849-1.167-.447-.29-1.004-.491-1.56-.637a15.933 15.933 0 0 0-1.507-.33c-.206-.031-.4-.04-.52-.063-.036-.006-.055-.015-.075-.021-.01-.001-.011-.005-.02-.01-.013-.008-.036-.009-.043-.022-.007-.012 0-.028 0-.042v-.329a6.685 6.685 0 0 0-.075-.903c-.053-.314-.135-.614-.307-.817a.602.602 0 0 0-.425-.212.58.58 0 0 0-.17 0z"/></g></svg>