<svg xmlns="http://www.w3.org/2000/svg" width="64" height="64" viewBox="0 0 16.933 16.933"><path fill="#f16f41" d="M8.38 1.323a7.144 7.144 0 1 1 0 14.287 7.144 7.144 0 0 1 0-14.287z"/><path fill="#fff" d="M8.468 3.704a4.762 4.762 0 1 0 0 9.525 4.762 4.762 0 0 0 0-9.525zm1.697 1.327a.634.634 0 0 1 .473.949.636.636 0 1 1-.473-.949zm-1.698.673c.256 0 .504.035.739.1a.892.892 0 0 0 1.196.693c.47.463.776 1.091.82 1.792l-.905.013a1.857 1.857 0 0 0-2.632-1.519l-.442-.793a2.753 2.753 0 0 1 1.225-.286zm-1.532.464.465.78a1.855 1.855 0 0 0 0 3.038l-.465.778A2.765 2.765 0 0 1 5.794 9.16a.89.89 0 0 0 0-1.385 2.767 2.767 0 0 1 1.14-1.606zM5.229 7.83a.636.636 0 1 1 0 1.273.636.636 0 0 1 0-1.272zm5.088.8.906.015a2.754 2.754 0 0 1-.821 1.79.889.889 0 0 0-1.196.693 2.76 2.76 0 0 1-1.963-.185l.442-.792a1.856 1.856 0 0 0 2.632-1.52zm-.31 2.01a.637.637 0 1 1 .156 1.264.637.637 0 0 1-.155-1.265z"/></svg>