<svg xmlns="http://www.w3.org/2000/svg" width="64" height="64" viewBox="0 0 16.933 16.933"><path fill="#3d424e" d="M8.38 1.323a7.144 7.144 0 1 1 0 14.287 7.144 7.144 0 0 1 0-14.287z"/><path fill="#fff" d="M9.793 5.367c-.427-.015-.917.055-1.205.19-1.182.493-1.778 2.57-3.028 2.45-.435-.052-.773-.28-1.03-.695-.407.13-.35 1.126-.099 1.644 1.013 2.082 2.894 2.982 5.018 2.473 1.642-.491 2.738-1.736 2.88-3.303.011-.087.017-.15.023-.218.026-.088.08-.122.196-.194.207-.128.209-.177-.033-.26-.145-.05-.212-.093-.314-.445-.558-1.123-1.51-1.605-2.408-1.642zm.619 1.138a.365.365 0 1 1 0 .729.365.365 0 0 1 0-.73zm.124.145a.122.122 0 1 0 0 .243.122.122 0 0 0 0-.243zM7.905 8.028a.751.751 0 0 1 .119.014c.254.048.523.338.554.6.03.254-.144.584-.38.716-.167.094-.563.146-.878.117-.276-.027-.91-.158-1.09-.226l-.156-.06.434-.212c.362-.176.474-.263.678-.528.236-.307.45-.435.719-.421z"/></svg>