<svg xmlns="http://www.w3.org/2000/svg" width="64" height="64" viewBox="0 0 16.933 16.933"><path fill="#2883b6" d="M8.467 1.323a7.144 7.144 0 1 1 0 14.288 7.144 7.144 0 0 1 0-14.288z"/><path fill="#fff" d="M7.818 3.76c.224.599.49 1.281.887 1.8-.437-.216-.923-.36-1.303-.668.047.12.03.249.026.35a5.317 5.317 0 0 1-.952-.377c.08.15.093.31.073.45-.326.03-.679-.072-.98-.126.138.125.203.29.259.456-.322.056-.654.115-.98.146.138.093.24.228.319.357-.253.212-.573.403-.834.563a.638.638 0 0 1 .463.125 9.444 9.444 0 0 1-.563.88 2.02 2.02 0 0 1 .49-.073c-.062.352-.106.72-.238 1.052.147-.107.306-.161.47-.218.157.267.173.703.231.938a.498.498 0 0 1 .258-.29c1.78 1.748 4.71 1.442 4.967 4.034.08-1.01-.398-1.724-.952-2.215-.46-.408-2.555-1.378-2.653-1.442-1.801-1.194-1.558-2.807-.29-3.215a2.727 2.727 0 0 1 3.015.946c.176.223.427.631.662.807.445.334 2.036 1.109 1.409 2.03.545-.14.961-.53 1.098-1.077-.427-.183-1.07-.57-1.019-1.112.062-.026.13-.02.199-.02-1.436-2.5-1.819-1.63-3.261-3.955.18.644.572 1.438 1.044 1.879-.783-.47-1.291-1.313-1.845-2.025zm2.95 3.155c.163.227.3.48.496.675-.19-.066-.945-.563-.496-.675z"/></svg>