<svg xmlns="http://www.w3.org/2000/svg" width="64" height="64" viewBox="0 0 16.933 16.933"><path fill="#49bf3d" d="M8.38 1.323a7.144 7.144 0 1 1 0 14.287 7.144 7.144 0 0 1 0-14.287z"/><path fill="#fff" d="M8.467 4.233a4.233 4.233 0 1 0 0 8.467 4.233 4.233 0 0 0 0-8.467zm0 .941a3.293 3.293 0 1 1 0 6.585 3.268 3.268 0 0 1-2.235-.882c.19-.026.49-.03.882.015.573.065.887.087 1.264.059.86-.065 1.428-.207 2.058-.515.33-.16.4-.233.47-.426.069-.183.094-.353.06-.353-.013 0-.121.042-.25.103-.485.23-.91.343-1.28.324-.383-.02-1.002-.244-1.748-.603l-.353-.162-.265-.661.25.161a7.425 7.425 0 0 0 1.544.75c.642.203 1.143.175 1.66-.088.183-.093.53-.32.53-.353 0-.06-.178-.656-.28-.926-.254-.674-.433-.902-.852-1.102-.466-.222-.982-.373-1.926-.588-.45-.096-.894-.193-1.352-.25l-.015.558a15.22 15.22 0 0 0-.867-.235 3.3 3.3 0 0 1 2.705-1.41zm.779 2.381a.7.7 0 0 1 .69.544c.045.175.031.3-.058.485a.676.676 0 0 1-.735.368.687.687 0 0 1-.515-.397c-.122-.265-.065-.617.147-.809a.727.727 0 0 1 .47-.19zm.161.368c-.246 0-.4.18-.264.308.11.104.294.12.44.045.096-.049.128-.123.104-.22-.018-.073-.16-.133-.28-.133z" overflow="visible"/></svg>