<svg xmlns="http://www.w3.org/2000/svg" xmlns:bx="https://boxy-svg.com" width="63.987" height="63.987" viewBox="0 0 16.9 16.9"><path bx:origin="-3.742381 -3.629666" fill="#1c90ed" d="M15.6 8.45a7.15 7.15 0 0 1-7.15 7.15A7.15 7.15 0 0 1 1.3 8.45 7.15 7.15 0 0 1 8.45 1.3a7.15 7.15 0 0 1 7.15 7.15z"/><g fill="#fff" stroke-width=".264"><path d="M7.2 12.674c-.617-.04-1.034-.108-1.44-.238-.583-.185-.958-.437-1.291-.87-.414-.535-.684-1.447-.751-2.302-.024-.3-.027-.478-.008-.55a.343.343 0 0 1 .206-.238c.05-.022.056-.022 3.734-.022 2.417 0 3.724-.004 3.8-.011.126-.012.324-.046.418-.072.131-.036.288-.097.288-.112a1.28 1.28 0 0 0-.055-.109c-.116-.216-.169-.3-.168-.564 0-.29.068-.556.214-.843.06-.118.207-.34.224-.34.018 0 .197.108.28.167.331.24.59.686.655 1.05.014.077.015.08.043.074a3.08 3.08 0 0 1 .726-.018c.274.038.479.113.644.235.044.033.08.063.08.068a1.31 1.31 0 0 1-.37.6c-.306.296-.743.458-1.235.46h-.107l-.025.062c-.48 1.176-1.087 1.948-1.913 2.545-.83.6-1.893.949-3.119 1.023-.14.009-.719.012-.83.005z"/><rect width="1.056" height="1.056" x="4.754" y="7.131" ry=".211"/><rect width="1.056" height="1.056" x="6.075" y="7.131" ry=".211"/><rect width="1.056" height="1.056" x="7.395" y="7.131" ry=".211"/><rect width="1.056" height="1.056" x="8.716" y="7.131" ry=".211"/><rect width="1.056" height="1.056" x="10.036" y="7.131" ry=".211"/><rect width="1.056" height="1.056" x="6.075" y="5.811" ry=".211"/><rect width="1.056" height="1.056" x="7.395" y="5.811" ry=".211"/><rect width="1.056" height="1.056" x="8.716" y="5.811" ry=".211"/><rect width="1.056" height="1.056" x="8.716" y="4.49" ry=".211"/></g></svg>