<svg xmlns="http://www.w3.org/2000/svg" width="64" height="64"><path fill="#696859" d="M32 5c14.912 0 27 12.088 27 27S46.911 59 32 59 5 46.911 5 32 17.088 5 32 5z"/><path fill="#dcb200" d="M21.54 17.913a3.67 3.67 0 0 1 2.422 1.101l8.034 8.034 8.145-8.034c.94-.811 1.573-1.064 2.421-1.101m-24.651 3.522v21.13c0-.936.325-1.871 1-2.531l8.034-7.924-8.034-8.034c-.739-.67-1.069-1.655-1-2.641m28.173 0c0 1.008-.12 1.939-.88 2.64L37.17 32.11l7.923 7.924c.665.669.991 1.582.991 2.53m-14.087-5.502-8.034 8.034c-.66.669-1.6.99-2.53.99h21.13c-.936 0-1.872-.325-2.522-.99"/></svg>