<svg xmlns="http://www.w3.org/2000/svg" width="64" height="64" viewBox="0 0 16.933 16.933"><g transform="translate(0 -280.07)"><circle cx="8.466" cy="288.53" r="7.144" fill="#7091e3" style="paint-order:stroke markers fill"/><path d="M8.467 284.83a3.705 3.705 0 0 0-3.705 3.703 3.705 3.705 0 0 0 3.705 3.705 3.705 3.705 0 0 0 3.704-3.705 3.705 3.705 0 0 0-3.704-3.703zm0 1.851a1.852 1.852 0 0 1 1.853 1.852 1.852 1.852 0 0 1-1.853 1.853 1.852 1.852 0 0 1-1.852-1.853 1.852 1.852 0 0 1 1.852-1.852z" opacity=".15" style="paint-order:stroke markers fill"/></g><path fill="#fff" d="M8.466 4.012c-.76 0-1.43.413-1.87 1.022-.4.552-.593 1.28-.57 2.05-.697.364-1.248.89-1.541 1.505-.323.677-.357 1.457.027 2.105.385.647 1.088 1.003 1.845 1.068.692.06 1.435-.14 2.11-.547.673.406 1.416.608 2.108.547.757-.065 1.46-.42 1.846-1.068.384-.648.35-1.428.027-2.105-.294-.616-.845-1.142-1.542-1.506.019-.746-.173-1.467-.569-2.024-.437-.615-1.104-1.047-1.87-1.047zm0 .706c.503 0 .961.28 1.296.75.254.358.382.827.422 1.316a5.478 5.478 0 0 0-3.437.001c.036-.508.165-.985.42-1.338.333-.46.791-.73 1.3-.73zm0 2.466c.58 0 1.154.125 1.702.333-.18 1.172-.775 2.143-1.7 2.853a4.49 4.49 0 0 1-1.702-2.853 4.803 4.803 0 0 1 1.7-.333zm-2.345.673a5.18 5.18 0 0 0 1.707 2.888c-.473.223-.965.353-1.41.315-.58-.051-1.048-.305-1.299-.727-.25-.421-.24-.93.002-1.44.189-.395.556-.748 1-1.036zm4.692.001c.444.288.81.64.999 1.035.243.51.252 1.019.002 1.44-.25.422-.718.676-1.3.727-.443.038-.934-.092-1.406-.314a5.08 5.08 0 0 0 1.705-2.888z"/></svg>