<svg xmlns="http://www.w3.org/2000/svg" width="64" height="64" fill="none"><circle cx="32" cy="32" r="27" fill="#D0C5AC"/><path fill="#5A5A5A" fill-rule="evenodd" d="M22.438 12.875h-5.625a1.687 1.687 0 0 1-1.664-1.972c.619-.495 1.26-.963 1.92-1.403h5.369a1.687 1.687 0 1 1 0 3.375Zm7.312 4.5v18l2.25-.563V29.75h26.908c-.063-.76-.157-1.51-.281-2.25H32V17.375h-2.25Zm-13.5 24.75v2.25H7.997a26.871 26.871 0 0 1-1.034-2.25h9.287ZM29.75 50h1.125L32 52.25V59a27.45 27.45 0 0 1-2.25-.092V50Zm6.188-11.25a1.687 1.687 0 1 0 0 3.375h6.75a1.687 1.687 0 1 0 0-3.375h-6.75Zm0 5.625a1.687 1.687 0 1 0 0 3.375h11.25a1.687 1.687 0 1 0 0-3.375h-11.25Z" clip-rule="evenodd"/><path fill="#333" d="M15.125 43.375v-.25a1 1 0 0 1 1-1h4.625V35.75a1.5 1.5 0 0 1 1.5-1.5h.375a1.5 1.5 0 0 1 1.5 1.5v1.875l5.942-3.781a1 1 0 0 1 .537-.157H31a1 1 0 0 1 1 1v.142a1 1 0 0 1-.46.841l-7.415 4.767v5.626L30.875 50v2.25H29.75l-5.625-3.375v1.875a1.5 1.5 0 0 1-1.5 1.5h-.375a1.5 1.5 0 0 1-1.5-1.5v-6.375h-4.625a1 1 0 0 1-1-1Zm15.438-17.562h.625a2.5 2.5 0 0 1 2.5 2.5v.625a2.5 2.5 0 0 1-2.5 2.5h-.625a2.5 2.5 0 0 1-2.5-2.5v-.625a2.5 2.5 0 0 1 2.5-2.5Z"/><path fill="#DB295B" fill-rule="evenodd" d="M27.5 17.375V6.125c0-.316.13-.602.34-.807a27.207 27.207 0 0 1 5.569-.282c.484.126.841.566.841 1.089v11.25c0 .621-.504 1.125-1.125 1.125h-4.5a1.125 1.125 0 0 1-1.125-1.125Zm12.25 7.875a1 1 0 0 0-1 1V31a1 1 0 0 0 1 1h11.5a1 1 0 0 0 1-1v-4.75a1 1 0 0 0-1-1h-11.5Z" clip-rule="evenodd"/><path fill="#E10B4F" stroke="#E10B4F" d="m31.368 52.72-4.417.285a.5.5 0 0 1-.462-.756l2.805-4.681a.5.5 0 0 1 .898.085l1.613 4.396a.5.5 0 0 1-.437.67Z"/></svg>