<svg xmlns="http://www.w3.org/2000/svg" width="64" height="64" viewBox="0 0 16.933 16.933"><circle cx="8.466" cy="8.46" r="7.144" fill="#0dbc8a" style="paint-order:stroke markers fill"/><path fill="#fff" d="M7.62 3.175a.635.635 0 1 0 0 1.27 2.963 2.963 0 0 1 2.964 2.963.635.635 0 1 0 1.269 0A4.233 4.233 0 0 0 7.62 3.175zM7.408 5.08a4.233 4.233 0 0 0-4.233 4.233.635.635 0 1 0 1.27 0A2.963 2.963 0 0 1 7.408 6.35a.635.635 0 1 0 0-1.269zm5.715 1.905a.635.635 0 0 0-.635.635 2.963 2.963 0 0 1-2.963 2.963.635.635 0 1 0 0 1.27 4.233 4.233 0 0 0 4.233-4.233.635.635 0 0 0-.635-.635zM5.715 8.89a.635.635 0 0 0-.635.635 4.233 4.233 0 0 0 4.233 4.233.635.635 0 1 0 0-1.27A2.963 2.963 0 0 1 6.35 9.525a.635.635 0 0 0-.635-.635z"/></svg>