<svg xmlns="http://www.w3.org/2000/svg" width="64" height="64" viewBox="0 0 16.933 16.933"><circle cx="8.467" cy="288.53" r="6.879" fill="#666" style="paint-order:stroke markers fill" transform="translate(-.326 -291.168) scale(1.0385)"/><path fill="#fff" d="M8.467 4.23a4.234 4.234 0 1 0 0 8.467 4.234 4.234 0 0 0 0-8.467zm0 .353a3.882 3.882 0 0 1 3.735 2.826 6.733 6.733 0 0 1-1.645 2.145c-.33.285-.689.54-1.086.719-.398.179-.835.28-1.27.255a2.197 2.197 0 0 1-.936-.268 7.061 7.061 0 0 0 2.004-1.616c.368-.43.69-.92.813-1.473a2 2 0 0 0 .015-.843 1.558 1.558 0 0 0-.38-.748 1.526 1.526 0 0 0-.705-.418 1.854 1.854 0 0 0-.823-.03c-.545.1-1.03.416-1.42.809-.688.692-1.113 1.67-1.035 2.642.04.486.202.964.482 1.364.062.089.13.174.204.255a6.348 6.348 0 0 1-1.255.3 3.88 3.88 0 0 1 3.302-5.92zm.024.784c.273 0 .548.083.765.247.197.148.342.36.424.59.083.232.104.484.076.728-.057.488-.303.936-.6 1.327a5.723 5.723 0 0 1-2.25 1.75 2.004 2.004 0 0 1-.425-.521c-.231-.41-.307-.897-.262-1.365.044-.468.205-.92.421-1.338.25-.485.592-.944 1.07-1.207.238-.132.509-.212.781-.211zm3.821 2.577a3.88 3.88 0 0 1-6.837 2.992c.44-.1.87-.243 1.281-.426.18.138.38.25.59.331.61.234 1.3.2 1.917-.014.616-.213 1.163-.596 1.64-1.041a7.056 7.056 0 0 0 1.41-1.842z"/><circle cx="11.718" cy="291.87" r="3.175" fill="#f55" paint-order="stroke markers fill" transform="translate(.982 -279.17)"/><g style="fill:#000"><path fill="none" d="M9.955 9.955h5.49v5.49h-5.49Z"/><path d="m20.38 8.18-1.23 1.85a8 8 0 0 1-.22 7.58H5.07A8 8 0 0 1 15.58 6.46l1.85-1.23A10 10 0 0 0 3.35 18.61a2 2 0 0 0 1.72 1h13.85a2 2 0 0 0 1.74-1 10 10 0 0 0-.27-10.44zm-9.79 6.84a2 2 0 0 0 2.83 0l5.66-8.49-8.49 5.66a2 2 0 0 0 0 2.83z" style="fill:#fff" transform="translate(9.955 9.955) scale(.22878)"/></g></svg>