<svg xmlns="http://www.w3.org/2000/svg" width="64" height="64"><circle cx="32" cy="32" r="27" fill="#7e57c2"/><circle cx="32" cy="32" r="23" fill="#fff" opacity=".1"/><path fill="#fff" d="M30.826 15.565a3.514 3.514 0 0 0-3.522 3.522v3.521H22.61a2.343 2.343 0 0 0-2.348 2.348v4.696h3.522c1.95 0 3.521 1.57 3.521 3.522s-1.57 3.521-3.521 3.521H20.26v4.696c0 1.3 1.047 2.348 2.348 2.348h4.695v-3.522c0-1.95 1.571-3.522 3.522-3.522s3.522 1.571 3.522 3.522v3.522h4.695a2.343 2.343 0 0 0 2.348-2.348v-4.696h3.522c1.95 0 3.522-1.57 3.522-3.521s-1.571-3.522-3.522-3.522H41.39v-4.696c0-1.3-1.047-2.348-2.348-2.348h-4.695v-3.521a3.514 3.514 0 0 0-3.522-3.522z"/></svg>