<svg xmlns="http://www.w3.org/2000/svg" width="64" height="64" viewBox="0 0 16.933 16.933"><g transform="translate(0 -280.07)"><circle cx="8.466" cy="288.53" r="7.144" fill="#ececec" style="paint-order:stroke markers fill"/><g stroke-width=".955"><path fill="#43557d" d="m4.383 286.01 1.905 1.664 1.966 1.717a.416.416 0 0 0 .48.074c.03-.015.862-.734 1.934-1.671l1.949-1.702.067-.057v5.144l-.036.07a.347.347 0 0 1-.173.168l-.053.024-3.868.002c-3.011.002-3.88 0-3.921-.012a.352.352 0 0 1-.24-.232zm4.084 2.624a.575.575 0 0 1-.183-.108c-.033-.028-.863-.665-1.844-1.415-1.302-.996-1.786-1.372-1.791-1.392-.005-.02 0-.039.016-.06l.023-.03 3.853-.003 3.853-.003.029.028c.031.031.036.061.014.09-.008.01-.814.629-1.792 1.376-.978.747-1.803 1.38-1.834 1.407-.089.076-.161.11-.244.115a.396.396 0 0 1-.1-.005z"/><path fill="#caa343" d="M12.682 287.278v.883l-.095-.008c-.23-.019-.616.068-.98.208-.08.03-.24.1-.354.156-.33.16-.5.262-1.343.805a14.1 14.1 0 0 1-.424.26c-1.02.601-2.05.965-3.118 1.091-.185.022-.847.033-1.1.017-.311-.019-.85-.08-.875-.095l-.017-.364c.003.026 0 .077 0 .174 0 .148-.006.19-.017.19-.03 0-.426-.067-.555-.095a2.211 2.211 0 0 1-.476-.165.602.602 0 0 0-.104-.043c0 .007.236.154.32.2.186.1.422.196.676.268l.147.043h.018c.002 0 .097.022.207.043.436.086.824.114 1.378.104.547-.01.926-.046 1.403-.138.937-.183 1.822-.516 2.996-1.118.26-.133.667-.345 1.386-.736a3.64 3.64 0 0 1 .572-.268c.105-.036.257-.07.32-.07h.035l.052.009a.417.417 0 0 1 .32.216c.028.057.027.083.026.174-.001.163-.057.3-.208.476l-.078.087.078-.061c.172-.13.352-.324.416-.442.08-.15.07-.315-.017-.494a.814.814 0 0 0-.511-.407l-.07-.008a58.626 58.626 0 0 0-.008-.892zm-8.306 2.953-.009-.286c-.036 0-.448-.054-.606-.078a6.66 6.66 0 0 1-.64-.13v.113c.312.142.67.256 1.056.32.08.014.159.032.173.035.013.002.023.001.026.026z"/></g></g></svg>