<svg xmlns="http://www.w3.org/2000/svg" width="64" height="64" viewBox="0 0 16.933 16.933"><circle cx="8.466" cy="8.466" r="7.144" fill="#ff7643" style="paint-order:stroke fill markers"/><path fill="#fff" d="M8.25 4.23c-.257.005-.51.015-.677.04-.747.114-1.346.376-1.731.758a1.54 1.54 0 0 0-.42.72c-.045.174-.06.575-.013.728.157.54.53.954 1.23 1.37.298.176.528.292 1.19.591.795.357 1.037.501 1.15.68.044.072.06.11.054.197-.012.138-.081.207-.243.266-.108.038-.147.05-.352.05-.375-.004-.705-.074-1.163-.237a4.232 4.232 0 0 1-.905-.444c-.266-.174-.287-.18-.366-.138-.059.033-.491.418-.81.73-.209.203-.212.244-.068.384.141.14.539.435.757.561.237.14.395.217.662.316.448.166.824.235 1.528.295.16.013.732.015.933 0 1.102-.088 2.001-.448 2.474-.975.17-.187.272-.348.352-.572.078-.218.098-.646.04-.906-.094-.421-.348-.802-.757-1.123-.41-.322-.826-.536-1.825-.936-.698-.278-.96-.426-1.028-.581-.037-.083-.015-.23.04-.286.11-.111.322-.151.596-.118.51.063 1.166.297 1.744.62.112.062.22.114.244.119.093.024.15-.013.527-.444.463-.53.458-.509.203-.69-.76-.544-1.64-.86-2.65-.955a7.062 7.062 0 0 0-.717-.02z"/><path d="m4.54 12.393-.748.748a6.614 6.614 0 0 0 4.674 1.94 6.614 6.614 0 0 0 4.674-1.94l-.747-.748a5.556 5.556 0 0 1-3.927 1.63 5.556 5.556 0 0 1-3.926-1.63z" opacity=".15" style="paint-order:stroke fill markers"/></svg>