<svg xmlns="http://www.w3.org/2000/svg" width="64" height="64" viewBox="0 0 16.933 16.933"><circle cx="8.466" cy="8.466" r="7.144" fill="#8bc34a" style="paint-order:stroke fill markers"/><path d="M8.467 1.323a7.144 7.144 0 0 0-.265.01v5.413h.53v-5.41a7.144 7.144 0 0 0-.265-.013z" opacity=".35" style="paint-order:markers stroke fill"/><path fill="#fff" d="M8.467 6.35a1.06 1.06 0 0 0-1.059 1.058v2.117a1.06 1.06 0 0 0 1.059 1.058 1.06 1.06 0 0 0 1.058-1.058V7.408A1.06 1.06 0 0 0 8.467 6.35zm0 .529c.292 0 .529.211.529.529 0 .265-.237.53-.53.53a.548.548 0 0 1-.529-.53c0-.318.238-.53.53-.53zm0 1.587a.53.53 0 0 1 .529.53v.529a.53.53 0 0 1-1.059 0v-.53a.53.53 0 0 1 .53-.529z"/></svg>