<svg xmlns="http://www.w3.org/2000/svg" width="64" height="64" image-rendering="optimizeSpeed"><defs><linearGradient id="a" x1="59.092" x2="46.289" y1="216.78" y2="169" gradientTransform="translate(6.26 -46.199) scale(.33929)" gradientUnits="userSpaceOnUse"><stop offset="0" stop-color="#0cc"/><stop offset="1" stop-color="#31e5d2"/></linearGradient></defs><path fill="#76e5cd" d="M58.182 25.136a29.422 29.422 0 0 0-.209-.778c-.057-.194-.114-.392-.18-.6a25.065 25.065 0 0 0-2.331-5.257c-1.161-1.974-2.62-3.845-4.368-5.592-4.152-4.153-8.989-6.673-14.51-7.554a27.67 27.67 0 0 0-2.863-.306 30.585 30.585 0 0 0-3.317-.006c-6.77.35-12.602 2.972-17.495 7.866Q5 20.817 5 32c0 7.456 2.637 13.823 7.909 19.094 3.243 3.24 6.896 5.485 10.93 6.724a27.154 27.154 0 0 0 6.564 1.141h.023c.487.026.95.04 1.402.04h.171a33.33 33.33 0 0 0 2.12-.071 28.296 28.296 0 0 0 3.358-.44 29.7 29.7 0 0 0 1.338-.295c4.622-1.161 8.704-3.524 12.28-7.099 2.78-2.78 4.827-5.863 6.14-9.256 1.055-2.725 1.639-5.651 1.748-8.78.011-.346.017-.7.017-1.058v-.172a28.092 28.092 0 0 0-.818-6.693z"/><path fill="#1ca8a8" d="M51 43.147v2.254a2.708 2.708 0 0 1-2.714 2.715H40.82a8.142 8.142 0 0 0-7.402 4.75H30.58a8.142 8.142 0 0 0-7.402-4.75h-7.464A2.708 2.708 0 0 1 13 45.4v-2.254z"/><path fill="#ccc" d="M32.79 29.462a9.59 9.59 0 0 0-.111 1.011H32v21.375h1.42a8.142 8.142 0 0 1 7.401-4.75h7.465A2.708 2.708 0 0 0 51 44.384V32.29a2.708 2.708 0 0 0-2.714-2.714zm-1.579 0c.053.335.091.672.11 1.011H32v21.375h-1.42a8.142 8.142 0 0 0-7.402-4.75h-7.464A2.708 2.708 0 0 1 13 44.384V32.29a2.708 2.708 0 0 1 2.714-2.714z"/><path d="M51.001 42.233a2.533 2.533 0 0 1-2.542 2.492h-.17v.339h.17a2.88 2.88 0 0 0 2.542-1.52zm-10.857 2.492 8.143.339v-.34z" opacity=".25"/><path d="M51.001 43.543a2.533 2.533 0 0 1-2.542 2.492h-.17v.339h.17a2.883 2.883 0 0 0 2.533-1.502c.004-.065.009-.13.009-.194zm-8.822 2.492 6.108.339v-.34z" opacity=".25"/><path fill="#f0f0f0" d="M48.286 18.259A2.708 2.708 0 0 1 51 20.973v20.018a2.708 2.708 0 0 1-2.714 2.715h-8.143A8.143 8.143 0 0 0 32 51.849V27.08c0-4.497 3.646-8.822 8.143-8.822z"/><path fill="#ececec" d="M15.714 18.259A2.708 2.708 0 0 0 13 20.973v20.018a2.708 2.708 0 0 0 2.714 2.715h8.143A8.143 8.143 0 0 1 32 51.849V27.08c0-4.497-3.646-8.822-8.143-8.822z"/><path fill="#0cc" d="M44.893 21.991v2.036h-4.071c-1.485.062-2.872.44-4.072 1.113v-1.883c1.198-.793 2.587-1.266 4.072-1.266z"/><path fill="#dedcd9" d="M46.929 26.062v1.357h-6.107c-1.485.062-2.872.44-4.072 1.113v-1.204c1.199-.793 2.588-1.266 4.072-1.266zm0 2.715v1.357h-6.107c-1.485.062-2.872.44-4.072 1.113v-1.204c1.199-.793 2.588-1.266 4.072-1.266zm0 2.714v1.357h-6.107c-1.485.062-2.872.44-4.072 1.113v-1.204c1.199-.793 2.588-1.266 4.072-1.266zM22.5 36.92h-5.429v1.357H22.5zm-5.429-10.858v1.357h6.786a9.232 9.232 0 0 1 3.393.778V26.93a7.207 7.207 0 0 0-3.393-.868zm0 2.715v1.357h6.786a9.232 9.232 0 0 1 3.393.778v-1.267a7.207 7.207 0 0 0-3.393-.868zm0 2.714v1.357h6.786a9.232 9.232 0 0 1 3.393.778V32.36a7.207 7.207 0 0 0-3.393-.868zm0-8.143v1.357h6.786a9.232 9.232 0 0 1 3.393.778v-1.267a7.207 7.207 0 0 0-3.393-.868zm0 10.857v1.357h6.786a9.232 9.232 0 0 1 3.393.778v-1.267a7.207 7.207 0 0 0-3.393-.868zm27.143 0v1.357h-3.393c-1.484.062-2.872.44-4.071 1.113v-1.204c1.198-.793 2.587-1.266 4.071-1.266z"/><path fill="url(#a)" d="M21.969 11.134s-2.792 6.934-2.784 10.581c.005 2.714.373 5.777 2.107 7.866 1.332 1.604 5.642 2.702 5.642 2.702l1.31-.35s3.183-3.108 3.535-5.162c.458-2.676-.755-5.512-2.107-7.866-1.817-3.163-7.703-7.772-7.703-7.772z"/><path fill="#1ca8a8" d="M28.341 37.537c-3.655-13.64-3.558-15.163-5.346-22.67 2.216 7.364 3.002 8.678 6.657 22.319z"/><path fill="#1ca8a8" d="M24.566 21.335c1.227-2.124 1.667-2.55 2.102-3.256-.394.73-.555 1.316-1.783 3.44zm.851 3.297c1.703-2.95 2.314-3.541 2.917-4.523-.545 1.015-.77 1.829-2.474 4.779zm.937 3.538c1.802-3.121 2.448-3.747 3.087-4.785-.578 1.074-.817 1.934-2.618 5.055z"/><path fill="#1ca8a8" d="M24.819 21.267c-2.126-1.226-2.718-1.374-3.449-1.77.706.437 1.139.863 3.263 2.09zm.912 3.282c-2.95-1.704-3.775-1.911-4.788-2.458.98.605 1.58 1.198 4.532 2.9zm.957 3.531c-3.121-1.802-3.993-2.021-5.065-2.6 1.036.641 1.673 1.267 4.795 3.07z"/></svg>