<svg xmlns="http://www.w3.org/2000/svg" width="64" height="64" viewBox="0 0 16.933 16.933"><circle cx="8.466" cy="8.466" r="7.144" fill="#35383b" style="paint-order:stroke fill markers"/><path fill="#e6e7e8" d="m5.636 8.972 1.02-2.885.92 2.885zm2.844 2.471h.73L7.079 5.39h-.862L3.96 11.443h.73l.721-1.915h2.405zm2.518-.431c-.423 0-.738-.207-.738-.705 0-.622.373-.82 1.634-.987.008 0 .406-.058.406-.058v1.095c-.29.398-.88.655-1.302.655zm1.318-.058.1.49h.555V8.175c0-.995-.688-1.285-1.567-1.285-.63 0-1.219.158-1.558.34l.19.53a3.435 3.435 0 0 1 1.385-.298c.614 0 .879.282.879.821v.506l-.448.05c-1.144.165-2.272.323-2.272 1.492 0 .83.622 1.21 1.352 1.21.464 0 .995-.149 1.384-.588z"/></svg>