<svg xmlns="http://www.w3.org/2000/svg" width="64" height="64" viewBox="0 0 16.933 16.933"><circle cx="8.466" cy="8.466" r="7.144" fill="#ececec" style="paint-order:stroke fill markers"/><path fill="#3c6eac" d="M12.229 5.027c.26 0 .47.268.47.53v5.29c0 .26-.21.52-.47.529h-2.69l-1.057-.55-1.042.228-1.025-.26-1.162.116c-.259.026-.341-.202-.337-.463l.067-3.925c.004-.261.45-.42.686-.53l2.072-.966z"/><path fill="#6ae5e8" d="M4.704 5.027c-.26 0-.47.268-.47.53v5.29c0 .26.21.529.47.529h1.495l1.059 1.21 1.058-1.21h1.327a9.476 9.476 0 0 0 .777-.58c1.167-1.015 1.522-2.887.44-4.098-.74-.827-2.063-1.075-2.925-.283-.573.526-.743 1.48-.175 2.078.367.385.993.497 1.395.1.25-.248.322-.745.05-1.007-.16-.156-.442-.199-.605-.021-.092.1-.117.335-.005.432.06.05.162.064.216-.004.026-.033.033-.09-.006-.117-.018-.012-.046-.015-.058.006-.004.007-.005.02.005.025.003.002.01.003.01-.001v-.004c-.005-.001 0-.003 0-.003.004-.001.009.002.009.005.002.01-.008.02-.017.022-.023.005-.04-.017-.045-.038-.008-.046.037-.08.078-.086.087-.01.15.07.155.15.012.147-.13.253-.265.258-.241.011-.409-.219-.414-.443-.006-.375.354-.634.706-.632.565.003.95.546.937 1.077-.02.824-.816 1.383-1.595 1.35-1.169-.05-2.024-1.185-1.961-2.292.057-1.014.723-1.812 1.592-2.243z"/></svg>