<svg xmlns="http://www.w3.org/2000/svg" width="64" height="64" version="1"><circle cx="32" cy="32" r="27" fill="#f0f0f0" style="paint-order:stroke markers fill"/><g stroke-width=".78"><path fill="#f04242" d="M18.3 16c-1.219 0-2.2 1.019-2.2 2.285v23.999c0 3.428 4.4 5.714 6.6 5.714h2.2V18.285c0-1.266-.982-2.285-2.2-2.285zm8.999 6.6c0 1.218 1.014 2.2 2.273 2.2h13.642c3.41 0 5.684-4.4 5.684-6.6V16H29.572c-1.26 0-2.273.98-2.273 2.2z"/><path fill="#14a4df" d="M28.356 27.199a1.033.913 0 0 0-1.057.914v11.773a1.033.913 0 0 0 1.549.79l11.534-5.887a1.033.913 0 0 0 0-1.58L28.848 27.32a1.033.913 0 0 0-.492-.122z"/></g></svg>