<svg xmlns="http://www.w3.org/2000/svg" width="64" height="64" image-rendering="optimizeSpeed"><circle cx="-32" cy="32" r="27" fill="#f0f0f0" transform="rotate(-90)"/><g transform="matrix(.07031 0 0 .08529 47.064 -3.81)"><path fill="#ffaa41" d="m-216.35 437.3-138.48 3.862s-26.169 11.532-41.931 30.897c-12.874 15.816-21.333 58.115 8.828 97.103 27.007 34.911 82.759 44.69 105.93 35.31 25.876-10.473 70.621-123.58 70.621-123.58z"/><path fill="#be824b" d="m-214.38 454.53-1.963-17.231-138.48 3.862s-3.384 1.502-8.414 4.288c44.426 4.43 107.35 22.117 148.86 9.081z"/><path fill="#594759" d="M-447.42 270.15c-3.789 0-7.267.512-10.399 1.594-4.068 1.408-9.562 6.254-9.562 15.081 0 26.873 34.464 102.23 51.916 138.66 5.886 12.29 18.236 20.085 31.839 20.085l.386-.002c39.686-.431 139.02-2.113 171.86-8.68 0 .001-167.73-166.74-236.04-166.74z"/><path fill="#ffaa41" d="M-383.62 427.92c-6.847 0-12.946-3.853-15.916-10.057l-.072-.149a116.719 116.719 0 0 1-10.157-33.103c-2.994-19.975-4.004-39.335-.898-43.373 5.103-6.635 28.043-6.187 53.258-2.029 5.798.956 11.29 3.252 15.948 6.835 27.488 21.148 55.873 45.468 80.948 68.438 3.719 3.406 1.553 9.622-3.481 9.913-30.479 1.766-71.61 3.004-119.63 3.525z"/><circle cx="-427.66" cy="308.75" r="16.552" fill="#be824b"/><g fill="#908490" transform="translate(-467.38 182.99)"><circle cx="75.123" cy="132.65" r="8.636"/><circle cx="36.887" cy="160.4" r="6.952"/></g><path fill="#594759" d="M-376.9 527.78c-13.277-26.87-3.913-41.025-16.099-59.976-1.299 1.376-2.568 2.783-3.763 4.252-12.874 15.816-21.333 58.115 8.828 97.103 27.007 34.911 82.759 44.69 105.93 35.31 5.82-2.356 12.595-9.928 19.599-20.211-45.233 7.254-94.164-15.329-114.5-56.478z"/><path fill="#be824b" d="M-341.46 346.04c-4.658-3.583-10.15-5.879-15.948-6.835-21.899-3.612-42.046-4.409-50.319-.214 48.129 23.41 109.62 65.795 137.63 85.727 2.036-.109 4.152-.213 6.102-.327 5.035-.291 7.2-6.506 3.481-9.913-25.073-22.969-53.459-47.29-80.947-68.438z"/><path fill="#ffaa41" d="m-206.41 437.3 138.48 3.862s26.169 11.532 41.931 30.897c12.874 15.816 21.333 58.115-8.828 97.103-27.007 34.911-82.759 44.69-105.93 35.31-25.876-10.473-70.621-123.58-70.621-123.58z"/><path fill="#be824b" d="m-208.38 454.53 1.963-17.231 138.48 3.862s3.384 1.502 8.414 4.288c-44.426 4.43-107.35 22.117-148.86 9.081z"/><path fill="#594759" d="M-211.38 436.89c32.833 6.567 132.17 8.248 171.86 8.68l.386.002c13.603 0 25.953-7.795 31.839-20.085 17.452-36.435 51.916-111.79 51.916-138.67 0-8.828-5.494-13.674-9.564-15.081-3.132-1.082-6.61-1.594-10.399-1.594-68.305 0-236.04 166.74-236.04 166.74z"/><path fill="#ffaa41" d="M-158.76 424.39c-5.035-.291-7.2-6.507-3.481-9.913 25.074-22.97 53.46-47.292 80.948-68.438 4.658-3.583 10.151-5.879 15.948-6.835 25.215-4.158 48.154-4.606 53.258 2.029 3.106 4.039 2.095 23.399-.898 43.373a116.709 116.709 0 0 1-10.157 33.103l-.072.149c-2.97 6.204-9.069 10.057-15.916 10.057-48.022-.522-89.153-1.76-119.63-3.525z"/><circle cx="4.897" cy="308.75" r="16.552" fill="#be824b"/><g fill="#908490" transform="translate(-467.38 182.99)"><circle cx="436.88" cy="132.65" r="8.636"/><circle cx="475.11" cy="160.4" r="6.952"/></g><path fill="#594759" d="M-45.862 527.78c13.277-26.87 3.913-41.025 16.099-59.976 1.299 1.376 2.568 2.783 3.763 4.252 12.874 15.816 21.333 58.115-8.828 97.103-27.007 34.911-82.759 44.69-105.93 35.31-5.82-2.356-12.595-9.928-19.599-20.211 45.233 7.254 94.164-15.329 114.5-56.478z"/><path fill="#be824b" d="M-81.297 346.04c4.658-3.583 10.15-5.879 15.948-6.835 21.899-3.612 42.046-4.409 50.319-.214-48.129 23.41-109.62 65.795-137.63 85.727-2.036-.109-4.152-.213-6.102-.327-5.035-.291-7.2-6.506-3.481-9.913 25.073-22.969 53.459-47.29 80.947-68.438z"/><path fill="#908490" d="M-211.38 423.5a4.406 4.406 0 0 1-3.742-2.073l-44.138-70.621a4.41 4.41 0 0 1 1.405-6.082c2.051-1.289 4.793-.672 6.078 1.401l40.397 64.634 40.396-64.633c1.302-2.073 4.043-2.689 6.078-1.401a4.41 4.41 0 0 1 1.405 6.082l-44.138 70.621a4.402 4.402 0 0 1-3.741 2.072z"/><path fill="#463246" d="M-211.38 569.16a8.826 8.826 0 0 1-8.828-8.828v-88.276a8.826 8.826 0 0 1 8.828-8.828 8.826 8.826 0 0 1 8.828 8.828v88.276a8.826 8.826 0 0 1-8.828 8.828zm0-119.17c-7.31 0-13.241-5.927-13.241-13.241v-17.655c0-7.315 5.931-13.241 13.241-13.241s13.241 5.927 13.241 13.241v17.655c0 7.315-5.931 13.241-13.241 13.241z"/><path fill="#594759" d="M-211.38 480.88c-9.751 0-17.655-7.904-17.655-17.655V445.57c0-9.751 7.904-17.655 17.655-17.655s17.655 7.904 17.655 17.655v17.655c0 9.751-7.904 17.655-17.655 17.655z"/></g></svg>