<svg xmlns="http://www.w3.org/2000/svg" width="64" height="64"><g stroke-width=".741"><path fill="#3aa5ff" d="M31.974 5a26.94 26.94 0 0 0-27 26.999 26.942 26.942 0 0 0 27 27.001c14.958 0 27-12.044 27-27.001A26.94 26.94 0 0 0 31.974 5z"/><g color="#000"><path fill="#b5ddff" d="M44.053 34.996a1 1 0 0 0-.129.008s-1.437.13-3.135.521-3.688.973-4.982 2.268c-.347.347-.68.632-1.012.92-1.217-.866-2.404-1.436-3.566-1.691a1 1 0 0 0-.215-.024h-.33l-.875 2h1.043c.676.156 1.437.483 2.262 1.002-.827.52-1.59.845-2.266 1h-1.916l-.875 2h2.957a1 1 0 0 0 .215-.023c1.163-.256 2.35-.823 3.568-1.69.333.288.664.572 1.01.918 1.295 1.295 3.284 1.876 4.982 2.268a25.97 25.97 0 0 0 3.135.521 1 1 0 0 0 .18-1.992s-1.313-.12-2.865-.478c-1.552-.358-3.312-1.027-4.018-1.733-.28-.28-.556-.54-.832-.79a23.1 23.1 0 0 0 .832-.794c.705-.705 2.466-1.376 4.018-1.734a23.99 23.99 0 0 1 2.865-.479 1 1 0 0 0-.05-1.998zm-40.063.002a1 1 0 0 0-.082 1.996s1.313.12 2.865.479c1.552.358 3.315 1.029 4.02 1.734.28.28.558.543.834.793-.276.25-.554.511-.834.791-.705.705-2.468 1.374-4.02 1.732a23.99 23.99 0 0 1-2.865.479 1 1 0 0 0 .182 1.992s1.437-.13 3.135-.521c1.698-.392 3.687-.973 4.982-2.268.346-.346.68-.63 1.012-.918 1.217.867 2.403 1.434 3.566 1.69A1 1 0 0 0 17 43h.314l.875-2h-1.025c-.677-.155-1.436-.48-2.262-1 .825-.52 1.582-.846 2.258-1.002h1.904l.875-2H17a1 1 0 0 0-.215.023c-1.163.256-2.349.825-3.566 1.692-.333-.288-.665-.574-1.012-.92-1.295-1.295-3.284-1.876-4.982-2.268-1.698-.392-3.135-.521-3.135-.521a1 1 0 0 0-.1-.006z" style="isolation:auto;mix-blend-mode:normal;text-decoration-color:#000;text-decoration-line:none;text-decoration-style:solid;text-indent:0;text-transform:none;white-space:normal" transform="matrix(1.35 0 0 1.35 -.426 -22)"/><path fill="#fff" d="M16.014 27.986a1 1 0 0 0-.908 1.46l3.275 6.552h1.559a1 1 0 0 1 .4.086l.15-.342-3.595-7.19a1 1 0 0 0-.881-.566zm15.988 0a1 1 0 0 0-.92.611l-7 16a1.001 1.001 0 0 0 1.834.803l7-16a1 1 0 0 0-.914-1.414zm-9 6a1 1 0 0 0-.92.611l-7 16a1.001 1.001 0 0 0 1.834.803l7-16a1 1 0 0 0-.914-1.414zm2.967 0a1 1 0 0 0-.899.64l-4 10a1 1 0 1 0 1.858.745l4-10a1 1 0 0 0-.96-1.385zm1.687 9.928-.324.744 3.793 6.826a1 1 0 1 0 1.748-.97L29.254 44h-1.197a1 1 0 0 1-.4-.086z" style="isolation:auto;mix-blend-mode:normal;text-decoration-color:#000;text-decoration-line:none;text-decoration-style:solid;text-indent:0;text-transform:none;white-space:normal" transform="matrix(1.35 0 0 1.35 -.426 -22)"/></g></g></svg>