<svg xmlns="http://www.w3.org/2000/svg" width="64" height="64" viewBox="0 0 16.933 16.933"><g transform="translate(0 -280.07)"><rect width="14.287" height="14.287" x="-295.68" y="-15.61" fill="#268bcf" rx="7.144" ry="7.144" transform="matrix(0 -1 -1 0 0 0)"/><rect width="11.642" height="11.642" x="-294.35" y="-14.288" opacity=".15" rx="5.821" ry="5.821" transform="matrix(0 -1 -1 0 0 0)"/><path fill="#f0f0f0" d="M8.512 285.036c-1.7 0-3.386.43-3.386.962v.77c0 .531 1.686 1.039 3.386 1.039 1.7 0 3.386-.508 3.386-1.04v-.769c0-.532-1.686-.962-3.386-.962" opacity=".5"/><path fill="#f0f0f0" d="M8.82 288.422c-1.378 0-3.167-.282-3.559-.673a.405.405 0 0 0-.135.289v.77c0 .53 1.994.846 3.694.846s3.078-.315 3.078-.847v-.77c0-.1-.054-.197-.146-.288-.392.39-1.555.673-2.932.673m0 2.155c-1.378 0-3.167-.399-3.559-.789a.405.405 0 0 0-.135.29v.769c0 .531 1.994.962 3.694.962s3.078-.43 3.078-.962v-.77c0-.1-.054-.197-.146-.289-.392.39-1.555.79-2.932.79" opacity=".5"/><path fill="#fff" d="m9.79 287.74-.12.608c-.149.04-.29.1-.42.171l-.54-.342-.523.505.351.523c-.074.127-.13.26-.171.403l-.626.12v.728l.626.12c.04.144.097.285.171.412l-.35.514.522.514.54-.352c.13.072.271.132.42.172l.12.608h.754l.12-.608c.148-.04.289-.1.42-.172l.54.352.522-.514-.351-.514a1.8 1.8 0 0 0 .171-.412l.626-.12v-.728l-.626-.12a1.722 1.722 0 0 0-.171-.403l.35-.523-.522-.505-.54.342a1.906 1.906 0 0 0-.42-.171l-.12-.608zm.377 1.525a.822.822 0 1 1 0 1.645.822.822 0 0 1 0-1.645z"/></g></svg>