<svg xmlns="http://www.w3.org/2000/svg" width="64" height="64"><path fill="#e9e9e9" d="M32 5c14.912 0 27 12.088 27 27S46.912 59 32 59 5 46.912 5 32 17.088 5 32 5z"/><path fill="#666" d="M28.245 20.591c-7.59 2.761-11.763 10.139-9.295 16.447 2.471 6.31 10.659 9.194 18.246 6.433 7.585-2.761 11.763-10.144 9.29-16.458-2.47-6.31-10.659-9.19-18.246-6.43m.854 2.17c6.182-2.252 12.785.074 14.794 5.205 2.008 5.127-1.353 11.083-7.54 13.334-6.186 2.252-12.792-.077-14.796-5.21-2.009-5.126 1.357-11.079 7.543-13.33"/><path fill="#99f" d="M34.348 20.848c0 1.619-1.316 2.935-2.935 2.935s-2.935-1.316-2.935-2.935 1.316-2.935 2.935-2.935 2.935 1.316 2.935 2.935m12.913 4.695c0 1.619-1.316 2.935-2.935 2.935s-2.935-1.316-2.935-2.935 1.316-2.935 2.935-2.935 2.935 1.316 2.935 2.935m-2.348 12.914c0 1.619-1.316 2.935-2.935 2.935s-2.935-1.316-2.935-2.935 1.316-2.935 2.935-2.935 2.935 1.316 2.935 2.935m-15.261 4.695c0 1.619-1.316 2.935-2.935 2.935s-2.935-1.316-2.935-2.935 1.316-2.935 2.935-2.935 2.935 1.316 2.935 2.935m-7.043-11.739c0 1.619-1.316 2.935-2.935 2.935s-2.935-1.316-2.935-2.935 1.316-2.935 2.935-2.935 2.935 1.316 2.935 2.935"/></svg>