<svg xmlns="http://www.w3.org/2000/svg" width="64" height="64" viewBox="0 0 16.933 16.933"><circle cx="8.466" cy="8.466" r="7.144" fill="#ececec" style="paint-order:stroke fill markers"/><path fill="#7e6651" fill-rule="evenodd" d="M12.437 4.495c-.083-.013-.158.033-.203.084a.56.56 0 0 0-.103.197c-.047.14-.22.658-.842 1.17-.622.512-1.694 1.144-3.554 1.19-1.412.017-2.277-.892-2.637-2.12v.726l-.006 2.04.012.027s.101.217-.006.51c-.107.293-.529.674-1.472.947l-.115.033.022.118c.052.284.26.575.568.873.308.298.72.6 1.2.872.96.545 2.19.977 3.384.996 1.194.02 2.363-.383 3.136-1.5.774-1.118 1.15-3.056.842-5.833v-.002a.557.557 0 0 0-.059-.199.234.234 0 0 0-.167-.129z" color="#000" style="isolation:auto;mix-blend-mode:normal;text-decoration-color:#000;text-decoration-line:none;text-decoration-style:solid;text-indent:0;text-transform:none;white-space:normal"/><path fill="#333" d="M6.686 10.308c1.736.37 2.62.027 3.138-.4-.137-.188-.228-.394-.228-.394s.464.18.678.473c.213.294.079.474.023.85-.124-.33-.356-.453-.387-.584-.466.686-1.625.657-3.224.055z"/><g stroke-width=".265" color="#000"><path fill="#eb9329" d="m12.234 12 .245-.488c-.912-.667-2.614-1.344-2.614-1.344l-.268.147s1.545 1.37 2.637 1.685z"/><path fill="#8e9c9c" d="m12.242 11.101-.128.084a.825.825 0 0 0-.292.302c-.09.21-.124.34-.11.545l.186-.031s.967.277 1.425.423l.053-.103.189-.365-1.323-.678z" style="isolation:auto;mix-blend-mode:normal;text-decoration-color:#000;text-decoration-line:none;text-decoration-style:solid;text-indent:0;text-transform:none;white-space:normal"/><path fill="#233333" d="M14.888 13.747c-.33-1.072-.447-1.923-1.31-1.847-.694.06-.743 1.014-.024 1.277a15.443 15.443 0 0 1 1.334.57z"/><path fill="#fff" fill-rule="evenodd" d="M6.024 6.868c-.294 0-.59.097-.815.298-.226.2-.375.506-.375.892s.15.692.375.893c.226.2.521.298.815.298s.59-.097.816-.298c.226-.2.375-.507.375-.893s-.15-.692-.375-.892a1.226 1.226 0 0 0-.816-.298z" style="isolation:auto;mix-blend-mode:normal;text-decoration-color:#000;text-decoration-line:none;text-decoration-style:solid;text-indent:0;text-transform:none;white-space:normal"/><path fill="#1b2a2a" fill-rule="evenodd" d="M3.802 7.661a1.144 1.144 0 0 0-.19.014 1.041 1.041 0 0 0-.446.182c-.524.377-.662 1.232-.015 2.127.647.894 1.504 1.033 2.028.656.524-.377.662-1.231.015-2.126-.425-.587-.94-.849-1.392-.853z"/></g><g fill-rule="evenodd" color="#000"><path fill="#fff" d="M31.269 25.957c-1.237 0-2.48.409-3.427 1.25-.946.841-1.572 2.124-1.572 3.75s.626 2.909 1.572 3.75c.947.841 2.19 1.25 3.427 1.25s2.48-.409 3.427-1.25c.946-.842 1.574-2.122 1.574-3.75s-.628-2.908-1.574-3.75c-.947-.841-2.19-1.25-3.427-1.25z" style="isolation:auto;mix-blend-mode:normal;text-decoration-color:#000;text-decoration-line:none;text-decoration-style:solid;text-indent:0;text-transform:none;white-space:normal" transform="scale(.26458)"/><path fill="#1e2d2d" d="M32.77 28.957c-.613 0-1.232.203-1.709.627s-.791 1.077-.791 1.873.314 1.45.791 1.873 1.096.627 1.709.627 1.232-.202 1.709-.627c.477-.424.791-1.077.791-1.873s-.314-1.45-.791-1.873a2.566 2.566 0 0 0-1.709-.627zm-8.5 0c-.49 0-.986.162-1.367.501s-.633.862-.633 1.499.251 1.16.633 1.499.877.501 1.367.501.986-.162 1.367-.501.633-.862.633-1.499-.251-1.16-.633-1.499-.877-.501-1.367-.501z" style="isolation:auto;mix-blend-mode:normal;text-decoration-color:#000;text-decoration-line:none;text-decoration-style:solid;text-indent:0;text-transform:none;white-space:normal" transform="scale(.26458)"/><path fill="#fff" d="M25.27 28.957c-.245 0-.493.081-.683.25s-.317.431-.317.75.126.58.317.75.438.25.683.25.493-.081.683-.25.317-.431.317-.75-.126-.58-.317-.75-.438-.25-.683-.25zm8.75 0c-.306 0-.616.102-.855.314s-.395.538-.395.936.157.725.396.936.548.314.854.314.616-.101.855-.314c.238-.212.395-.538.395-.936s-.157-.725-.396-.936a1.283 1.283 0 0 0-.854-.314z" style="isolation:auto;mix-blend-mode:normal;text-decoration-color:#000;text-decoration-line:none;text-decoration-style:solid;text-indent:0;text-transform:none;white-space:normal" transform="scale(.26458)"/></g></svg>