<svg xmlns="http://www.w3.org/2000/svg" width="64" height="64"><circle cx="32" cy="32" r="27" fill="#eee"/><path fill="#333" d="M31.995 14.921c-9.725 0-17.609 7.884-17.609 17.609a17.608 17.608 0 0 0 11.786 16.599c.63-.025 1.13-.53 1.13-1.164v-2.518H26.13c-1.738 0-3.809-.462-4.45-2.348-.857-2.516-3.3-3.131-2.594-3.522.148-.082.3-.133.457-.156.136-.021.275-.02.415-.003.977.123 2.004 1.104 2.65 1.92 1.156 1.458 1.797 1.76 3.046 1.76 1.186 0 1.65-.293 1.65-.293 0-1.12.512-1.981 1.305-2.535-4.5-.705-7.761-2.994-7.761-7.737 0-2.273.63-4.103 1.701-5.53-.481-1.655-.428-3.335.06-5.035 1.647 0 3.495.896 4.67 1.857 1.436-.454 3.032-.683 4.72-.683 1.684 0 3.283.228 4.73.679 1.175-.96 3.02-1.853 4.665-1.853.48 1.67.533 3.323.077 4.95 1.13 1.439 1.8 3.296 1.8 5.616 0 4.743-3.341 7.035-7.876 7.738.791.554 1.302 1.414 1.302 2.534v5.16c0 .634.501 1.139 1.13 1.164a17.61 17.61 0 0 0 11.786-16.6c.005-9.724-7.884-17.608-17.609-17.608z"/></svg>