<svg xmlns="http://www.w3.org/2000/svg" width="64" height="64"><g transform="translate(3.826 -14.957) scale(1.1739)"><circle cx="24" cy="40" r="23" fill="#2c2f3f"/><circle cx="24" cy="40" r="19.593" fill="#fff" opacity=".1"/><path fill="#149287" d="M17.723 28.672a.5.5 0 0 0-.223.07 13 13 0 0 0 2.857 23.736.5.5 0 0 0 .641-.478v-4.603a8 8 0 0 0 1 .34v6.054c-2.295-.334-4.493-1.171-6.359-2.56a13.996 13.996 0 0 1-4.795-16.018.5.5 0 0 0-.5-.678.5.5 0 0 0-.44.336A15 15 0 0 0 22.448 54.92a.5.5 0 0 0 .551-.497V47.93A8 8 0 0 0 24 48a8 8 0 0 0 1.002-.072v6.496a.5.5 0 0 0 .553.497 14.997 14.997 0 0 0 12.54-20.05.5.5 0 0 0-.505-.335.5.5 0 0 0-.435.678A13.996 13.996 0 0 1 32.36 51.23c-1.866 1.389-4.061 2.228-6.358 2.562V47.73a8 8 0 0 0 1.002-.328V52a.5.5 0 0 0 .64.479 13.001 13.001 0 0 0 8.913-9.114 13.004 13.004 0 0 0-6.056-14.623.5.5 0 0 0-.287-.07.5.5 0 0 0-.213.936 11.996 11.996 0 0 1 5.591 13.498c-1.023 3.82-3.891 6.813-7.587 8.133v-4.291A2.5 2.5 0 0 0 30 44.5a2.5 2.5 0 0 0-1.547-2.308C29.29 38.222 31 39.597 31 38.086v-.549C31 36.117 26.706 29 24 29s-7 7.118-7 8.537v.55c0 1.51 1.709.134 2.547 4.103A2.5 2.5 0 0 0 18 44.5a2.5 2.5 0 0 0 1.998 2.445v4.295c-3.698-1.32-6.566-4.313-7.59-8.134A11.996 11.996 0 0 1 18 29.608a.5.5 0 0 0-.278-.936zM20.5 43a1.5 1.5 0 0 1 1.5 1.5 1.5 1.5 0 0 1-1.5 1.5 1.5 1.5 0 0 1-1.5-1.5 1.5 1.5 0 0 1 1.5-1.5zm7 0a1.5 1.5 0 0 1 1.5 1.5 1.5 1.5 0 0 1-1.5 1.5 1.5 1.5 0 0 1-1.5-1.5 1.5 1.5 0 0 1 1.5-1.5z"/></g></svg>