<svg xmlns="http://www.w3.org/2000/svg" width="64" height="64" viewBox="0 0 16.934 16.934"><circle cx="8.467" cy="8.467" r="7.144" fill="#333" style="paint-order:markers stroke fill;fill:#3893d4;fill-opacity:1"/><path d="M8.276 13.42a4.193 4.193 0 0 1-1.09-.188 2.735 2.735 0 0 1-1.314-.855 2.56 2.56 0 0 1-.633-1.802c.001-.004.065-.005.81-.005.445 0 .809.001.809.002 0 .006.035.175.047.229.064.278.14.457.258.605.123.155.354.302.601.383a1.84 1.84 0 0 0 1.126-.008c.322-.104.601-.297.79-.544.034-.043.081-.114.104-.153.04-.07.08-.206.1-.337.024-.167.026-.324.006-.676a4.883 4.883 0 0 1-.01-.474l.001-.047-.023.048a1.16 1.16 0 0 1-.342.415c-.102.08-.24.157-.394.218a3.253 3.253 0 0 1-.968.196c-.692-.03-1.325-.243-1.787-.604a2.832 2.832 0 0 1-.286-.26 2.016 2.016 0 0 1-.3-.353c-.26-.388-.403-.873-.479-1.621-.059-.584-.054-1.074.016-1.525a3.31 3.31 0 0 1 .236-.824 2.9 2.9 0 0 1 .258-.483 2.77 2.77 0 0 1 .6-.643 2.87 2.87 0 0 1 1.24-.558c.18-.033.3-.043.531-.043a1.949 1.949 0 0 1 1.59.758c.057.075.102.147.146.233.03.059.03.057.03.055l-.002-.113a21.53 21.53 0 0 1-.006-.418l-.002-.306.048-.002a164.7 164.7 0 0 1 1.698 0l.014.002v3.543c-.001 3.316-.002 3.546-.006 3.593a2.6 2.6 0 0 1-.947 1.79 3.41 3.41 0 0 1-.926.525 3.907 3.907 0 0 1-1.544.246zm.481-4.445A1.08 1.08 0 0 0 9.21 8.8c.226-.148.432-.39.573-.671.04-.08.1-.28.134-.448a3.303 3.303 0 0 0-.04-1.431 3.477 3.477 0 0 0-.145-.45 1.231 1.231 0 0 0-.619-.616 1.398 1.398 0 0 0-.96-.077 1.34 1.34 0 0 0-.277.105 1.19 1.19 0 0 0-.59.642c-.21.488-.264 1.083-.16 1.75.052.332.2.657.416.916.039.047.141.15.188.188.17.14.363.231.556.261.068.01.107.012.273.012.137 0 .17-.002.2-.006z" style="fill:#fff;stroke-width:.00295223;fill-opacity:1"/></svg>