<svg xmlns="http://www.w3.org/2000/svg" width="64" height="64" viewBox="0 0 16.933 16.933"><circle cx="8.466" cy="8.466" r="7.144" fill="#333" style="paint-order:stroke fill markers"/><path fill="#ebebeb" d="M12.276 4.572v6.096a.338.338 0 0 1-.338.338H7.11a.338.338 0 0 1-.338-.338V4.572a.338.338 0 0 1 .338-.339h4.827a.338.338 0 0 1 .338.339z"/><g fill="#3f3f3f" stroke-width=".769"><path d="M9.524 5.932a.823.823 0 0 0-.822.823.823.823 0 0 0 .113.414.823.823 0 0 0-.771.821.823.823 0 0 0 .822.823.823.823 0 0 0 .658-.33.823.823 0 0 0 .659.33.823.823 0 0 0 .823-.823.823.823 0 0 0-.77-.82.823.823 0 0 0 .112-.415.823.823 0 0 0-.824-.823z"/><path fill-rule="evenodd" d="M9.736 8.467h-.423s0 .635-.635.635v.211h1.693v-.211c-.635 0-.635-.635-.635-.635z"/></g><path fill="#fff" d="M11.218 4.89v9.906a.55.55 0 0 1-.55.55H2.826a.55.55 0 0 1-.55-.55V4.89a.55.55 0 0 1 .55-.55h7.842a.55.55 0 0 1 .55.55z" style="paint-order:stroke fill markers" transform="translate(3.256 3.256) scale(.61539)"/><path fill="#f34235" d="M8.056 8.043a.828.828 0 0 0-.648.315.828.828 0 0 0-.648-.315.833.833 0 0 0-.834.833c0 .01.003.019.003.027h-.003c0 .855 1.482 2.103 1.482 2.103S8.89 9.758 8.89 8.903h-.003c0-.009.003-.017.003-.027a.834.834 0 0 0-.834-.833z"/></svg>