<svg xmlns="http://www.w3.org/2000/svg" width="64" height="64" viewBox="0 0 16.933 16.933"><g transform="translate(0 -280.07)"><rect width="14.287" height="14.287" x="-295.68" y="-15.61" fill="#268bcf" rx="7.144" ry="7.144" transform="matrix(0 -1 -1 0 0 0)"/><rect width="11.642" height="11.642" x="-294.35" y="-14.288" opacity=".15" rx="5.821" ry="5.821" transform="matrix(0 -1 -1 0 0 0)"/><path fill="#fff" d="M6.173 285.888h1.412c.194 0 .352.158.352.352v1.412a.353.353 0 0 1-.352.352H6.173a.353.353 0 0 1-.352-.352v-1.412c0-.194.158-.352.352-.352m3.175 3.175h1.412c.195 0 .352.158.352.352v1.412a.352.352 0 0 1-.352.352H9.348a.352.352 0 0 1-.352-.352v-1.412c0-.194.158-.352.352-.352m0 0"/><g fill="#ffcf36"><path d="M5.82 288.533a.528.528 0 0 0-.528.53v2.116c0 .294.235.53.529.53h2.116c.294 0 .53-.236.53-.53v-2.116a.528.528 0 0 0-.53-.53m-2.116.265h2.116c.147 0 .265.118.265.265v2.116a.264.264 0 0 1-.265.265H5.821a.264.264 0 0 1-.265-.265v-2.116c0-.147.118-.265.265-.265m0 0"/><path d="M6.085 289.063h1.588c.146 0 .264.118.264.264v1.588a.265.265 0 0 1-.264.264H6.085a.265.265 0 0 1-.264-.264v-1.588c0-.146.119-.264.264-.264m2.911-3.705a.528.528 0 0 0-.53.53v2.116c0 .294.236.53.53.53h2.116c.294 0 .53-.236.53-.53v-2.116a.528.528 0 0 0-.53-.53m-2.116.265h2.116c.147 0 .265.118.265.265v2.116a.264.264 0 0 1-.265.265H8.996a.264.264 0 0 1-.265-.265v-2.116c0-.147.118-.265.265-.265m0 0"/><path d="M9.26 285.888h1.588c.146 0 .264.118.264.264v1.588a.265.265 0 0 1-.264.264H9.26a.265.265 0 0 1-.264-.264v-1.588c0-.146.119-.264.264-.264m0 0"/></g></g></svg>