<svg xmlns="http://www.w3.org/2000/svg" width="64" height="64" viewBox="0 0 16.933 16.933"><g transform="translate(0 -280.07)"><circle cx="8.466" cy="288.53" r="7.144" fill="#3a3a3a" style="paint-order:stroke markers fill"/><circle cx="8.467" cy="288.53" r="5.821" fill="#fff" opacity=".1" paint-order="stroke markers fill"/><path fill="#fff" d="M8.45 284.3c-.301 0-.493.221-.512.513v.595c.027.267.255.48.529.48a.54.54 0 0 0 .198-.034.541.541 0 0 0 .33-.446v-.579a.538.538 0 0 0-.545-.529zm-1.025 1.24a3.308 3.308 0 0 0-.96.546.98.98 0 0 1 .298.33c.003.004-.002.013 0 .017a.949.949 0 0 1 .083.199c.002.005 0 .011 0 .016a1.013 1.013 0 0 1 .017.43c-.013.064-.042.124-.066.182a.949.949 0 0 1-.877.595.875.875 0 0 1-.496-.149c-.021.06-.053.118-.066.182v.017c-.02.098-.04.196-.05.297v.017c-.01.102-.016.21-.016.314v.033c0 .099.007.202.016.298v.033c.011.095.03.188.05.281.018.092.04.177.066.265a1.32 1.32 0 0 1 .562-.166c.192-.01.37.046.513.15a.879.879 0 0 1 .314.412 1.032 1.032 0 0 1 .066.38c0 .269-.22.622-.38.795.065.05.128.102.198.148.084.056.16.118.248.166.126.068.262.13.397.182.026.01.055.012.083.016a.56.56 0 0 1-.017-.116c0-.42.474-.76 1.059-.76.584 0 1.058.34 1.058.76 0 .038-.01.08-.017.116.16-.055.317-.12.463-.198.113-.06.21-.127.315-.199.032-.022.068-.042.099-.066.025-.018.042-.046.066-.066a1.023 1.023 0 0 1-.182-.182.868.868 0 0 1-.182-.397 1.135 1.135 0 0 1-.016-.198c0-.129.029-.255.066-.364.001-.005-.002-.012 0-.017a.82.82 0 0 1 .066-.148c.03-.05.062-.09.1-.133.039-.046.084-.079.132-.115a.81.81 0 0 1 .297-.15.971.971 0 0 1 .182-.032c.149-.009.4.051.595.165.024-.083.05-.162.067-.248.019-.093.038-.186.05-.281 0-.011-.002-.022 0-.033a3.33 3.33 0 0 0 0-.662c-.011-.1-.03-.199-.05-.297-.002-.005 0-.012 0-.017-.015-.07-.043-.133-.067-.198a.874.874 0 0 1-.496.149.943.943 0 0 1-.678-.281 1.005 1.005 0 0 1-.115-.15.947.947 0 0 1-.05-.992.947.947 0 0 1 .116-.181 1.01 1.01 0 0 1 .165-.15 3.16 3.16 0 0 0-.942-.545c.007.037.016.078.016.116 0 .42-.474.76-1.058.76-.366 0-.686-.128-.877-.33a.76.76 0 0 1-.099-.132.585.585 0 0 1-.082-.298c0-.038.009-.08.016-.116zm-2.299.364a.551.551 0 0 0-.33.248.54.54 0 0 0 .165.744l.43.265.165.099a.65.65 0 0 0 .215.05.633.633 0 0 0 .414-.166.52.52 0 0 0 .165-.38.552.552 0 0 0-.182-.414l-.198-.115-.447-.265a.514.514 0 0 0-.397-.066zm6.483 0a.516.516 0 0 0-.199.066l-.446.265-.199.116c-.006.004-.01.01-.016.016a.47.47 0 0 0-.166.38.52.52 0 0 0 .166.38.632.632 0 0 0 .628.132l.165-.098.43-.265a.54.54 0 0 0 .166-.744.525.525 0 0 0-.53-.248zm-3.142 1.571a1.058 1.058 0 1 1 0 2.117c-.293 0-.553-.123-.744-.315-.048-.047-.095-.092-.133-.148a1.066 1.066 0 0 1-.182-.596c0-.073.003-.146.017-.215.099-.482.53-.843 1.042-.843zm0 .53c-.22 0-.4.14-.48.33a.497.497 0 0 0-.05.198.529.529 0 1 0 .53-.529zm-2.696 1.769c-.123.013-.156.044-.215.066l-.115.066-.43.264a.54.54 0 0 0-.166.745.545.545 0 0 0 .744.181l.43-.264.15-.1a.614.614 0 0 0 .164-.264.331.331 0 0 0 .017-.1.638.638 0 0 0-.165-.413.58.58 0 0 0-.182-.148.46.46 0 0 0-.232-.033zm5.408.033a.564.564 0 0 0-.563.562c0 .145.041.25.133.347l.165.116.43.264a.545.545 0 0 0 .744-.181.54.54 0 0 0-.165-.745l-.43-.264c-.038-.022-.074-.047-.116-.066a.614.614 0 0 0-.198-.033zm-2.712 1.372a.545.545 0 0 0-.199.033.689.689 0 0 0-.182.116.49.49 0 0 0-.181.33v.581c0 .292.244.529.545.529a.538.538 0 0 0 .546-.53v-.578a.537.537 0 0 0-.53-.48z"/></g></svg>