<svg xmlns="http://www.w3.org/2000/svg" width="64" height="64" viewBox="0 0 16.933 16.933"><defs><linearGradient id="b" x1="32" x2="53.891" y1="43.543" y2="43.543" gradientUnits="userSpaceOnUse"><stop offset="0" stop-color="#d1fffa"/><stop offset="1" stop-color="#a1fff5"/></linearGradient><linearGradient id="a" x1="10" x2="53.891" y1="32" y2="32" gradientUnits="userSpaceOnUse"><stop offset="0" stop-color="#fff"/><stop offset="1" stop-color="#fff" stop-opacity="0"/></linearGradient><linearGradient id="c" x1="32" x2="32" y1="32" y2="6" gradientUnits="userSpaceOnUse"><stop offset="0" stop-color="#fff"/><stop offset="1" stop-color="#fff"/></linearGradient></defs><circle cx="8.466" cy="8.46" r="7.144" fill="#52cec0" fill-rule="evenodd"/><path d="M32.002 9.975v1.023H29v-.793a22.001 22.001 0 0 0-1 .148v.645h-2.553A22.001 22.001 0 0 0 22.842 12H24v3.006h-2.996V12.95a22.001 22.001 0 0 0-1.002.592v1.463h-1.977A22.001 22.001 0 0 0 16 16.916v2.057h-1.715a22.001 22.001 0 0 0-.701 1.002H16v3.006h-2.998v-2.057A22.001 22.001 0 0 0 12 22.865v.116h-.055a22.001 22.001 0 0 0-.416 1.002H12v3.004h-1.401a22.001 22.001 0 0 0-.217 1.002H12v3.003h-1.95a22.001 22.001 0 0 0-.05.983 22.001 22.001 0 0 0 0 .015c.007 0 .013.004.02.004H12V35h-1.766a22.001 22.001 0 0 0 .15 1H12v2.967h-.83a22.001 22.001 0 0 0 .336 1.002H12v1.106a22.001 22.001 0 0 0 1.568 2.902H16v3.004h-.066A22.001 22.001 0 0 0 17 48.03v-.048h3.002v2.41a22.001 22.001 0 0 0 2.91 1.596H24v.459a22.001 22.001 0 0 0 1.002.365v-.824H28v1.605a22.001 22.001 0 0 0 1 .15V51.99h3.002v1.988a22.001 22.001 0 0 0 1.002-.035V51.99H36v1.61a22.001 22.001 0 0 0 1.002-.226V51.99H40v.48a22.001 22.001 0 0 0 1.002-.447v-.033h.072a22.001 22.001 0 0 0 1.948-1.002h-2.02v-3.004h3v2.426a22.001 22.001 0 0 0 1.002-.717v-1.71h2.07a22.001 22.001 0 0 0 1.928-2.06v-1.945h1.418a22.001 22.001 0 0 0 .614-1.002h-2.032V39.97H52v1.125a22.001 22.001 0 0 0 1.002-2.568V36h.616a22.001 22.001 0 0 0 .15-1h-.766v-3.006h1a22.001 22.001 0 0 0 .002-.02 22.001 22.001 0 0 0-.035-.982h-.967V27.99h.625a22.001 22.001 0 0 0-.224-1.002h-.4V25.49A22.001 22.001 0 0 0 52 22.87v.11h-2.998v-3.005h1.434a22.001 22.001 0 0 0-.717-1.002h-.717v-.942A22.001 22.001 0 0 0 48 16.891v2.082h-2.996v-2.967h2.094a22.001 22.001 0 0 0-1.11-1h-.984v-.748a22.001 22.001 0 0 0-1.002-.7v1.448h-3V12h.166a22.001 22.001 0 0 0-2.55-1.002h-1.616v-.426A22.001 22.001 0 0 0 36 10.355v.643h-2.996v-.973a22.001 22.001 0 0 0-1.002-.05zm-7 2.025H28v3.006h-2.998V12zM29 12h3.002v3.006H29V12zm4.004 0H36v3.006h-2.996V12zm3.998 0H40v3.006h-2.998V12zM17 16.006h3.002v2.967H17v-2.967zm4.004 0H24v2.967h-2.996v-2.967zm3.998 0H28v2.967h-2.998v-2.967zm3.998 0h3.002v2.967H29v-2.967zm4.004 0H36v2.967h-2.996v-2.967zm3.998 0H40v2.967h-2.998v-2.967zm4 0h3v2.967h-3v-2.967zM17 19.975h3.002v3.006H17v-3.006zm4.004 0H24v3.006h-2.996v-3.006zm3.998 0H28v3.006h-2.998v-3.006zm3.998 0h3.002v3.006H29v-3.006zm4.004 0H36v3.006h-2.996v-3.006zm3.998 0h2.997v3.006h-2.998v-3.006zm4 0h3v3.006h-3v-3.006zm4.001 0H48v3.006h-2.996v-3.006zm-32.002 4.007H16v3.004h-2.998v-3.004zm3.999 0h3.002v3.004H17v-3.004zm4.003 0H24v3.004h-2.996v-3.004zm3.998 0H28v3.004h-2.998v-3.004zm3.998 0h3.002v3.004H29v-3.004zm4.004 0H36v3.004h-2.996v-3.004zm3.998 0H40v3.004h-2.998v-3.004zm4 0h3v3.004h-3v-3.004zm4.002 0H48v3.004h-2.996v-3.004zm3.998 0H52v3.004h-2.998v-3.004zm-36 4.006H16v3.004h-2.998v-3.004zm3.998 0h3.002v3.004H17v-3.004zm4.004 0H24v3.004h-2.996v-3.004zm3.998 0H28v3.004h-2.998v-3.004zm3.998 0h3.002v3.004H29v-3.004zm4.004 0H36v3.004h-2.996v-3.004zm3.998 0H40v3.004h-2.998v-3.004zm4 0h3v3.004h-3v-3.004zm4.002 0H48v3.004h-2.996v-3.004zm3.998 0H52v3.004h-2.998v-3.004zm-36 4.006H16V35h-2.998v-3.006zm3.998 0h3.002V35H17v-3.006zm4.004 0h2.996V35h-2.996v-3.006zm3.998 0h2.998V35h-2.998v-3.006zm3.998 0h3.002V35h-3.002v-3.006zm4.004 0h2.996V35h-2.996v-3.006zm3.998 0h2.998V35H37v-3.006zm4 0h3V35h-3v-3.006zm4.002 0h2.996V35h-2.996v-3.006zm3.998 0h2.998V35H49v-3.006zM13 36h2.998v2.967H13V36zm3.998 0H20v2.967h-3.002V36zm4.004 0h2.996v2.967h-2.996V36zM25 36h2.998v2.967H25V36zm3.998 0H32v2.967h-3.002V36zm4.004 0h2.996v2.967h-2.996V36zM37 36h2.998v2.967H37V36zm4 0h3v2.967h-3V36zm4.002 0h2.996v2.967h-2.996V36zM49 36h2.998v2.967H49V36zm-36 3.97h2.998v3.006H13V39.97zm3.998 0H20v3.006h-3.002V39.97zm4.004 0h2.996v3.006h-2.996V39.97zm3.998 0h2.998v3.006H25V39.97zm3.998 0H32v3.006h-3.002V39.97zm4.004 0h2.996v3.006h-2.996V39.97zm3.998 0h2.998v3.006H37V39.97zm4 0h3v3.006h-3V39.97zm4.002 0h2.996v3.006h-2.996V39.97zm-28.004 4.008H20v3.004h-3.002v-3.004zm4.003 0H24v3.004h-2.997v-3.004zm3.998 0h2.998v3.004H25v-3.004zm3.998 0H32v3.004h-3.002v-3.004zm4.004 0h2.996v3.004h-2.996v-3.004zm3.998 0h2.998v3.004H37v-3.004zm4 0h3v3.004h-3v-3.004zm4.002 0h2.996v3.004h-2.996v-3.004zm-24 4.006h2.996v3.004h-2.996v-3.004zm3.998 0h2.998v3.004H25v-3.004zm3.998 0H32v3.004h-3.002v-3.004zm4.004 0h2.996v3.004h-2.996v-3.004zm3.998 0h2.998v3.004H37v-3.004z" opacity=".1" style="paint-order:stroke markers fill" transform="scale(.26458)"/><circle cx="8.467" cy="8.46" r="5.821" fill-rule="evenodd" opacity=".25"/><g fill-rule="evenodd"><path fill="#a1fff5" d="M8.467 2.64a5.82 5.82 0 0 0-5.821 5.82 5.82 5.82 0 0 0 5.82 5.821 5.82 5.82 0 0 0 5.821-5.82 5.82 5.82 0 0 0-5.82-5.821zm0 .529a5.292 5.292 0 0 1 5.291 5.291 5.292 5.292 0 0 1-5.291 5.292A5.292 5.292 0 0 1 3.175 8.46a5.292 5.292 0 0 1 5.292-5.291z"/><path fill="#fff" d="M4.256 9.6c.048.096.136.228.268.36.228.228.509.369.84.369.413 0 .717-.23.94-.638.151-.277.237-.54.41-1.17.298-1.096.487-1.441.866-1.441.366 0 .518.335.715 1.42.115.631.178.895.305 1.175.19.417.482.654.9.654.53 0 .73-.294.889-.927l.016-.066c.098-.395.152-.484.277-.484.088 0 .13.056.22.334l.038.117.043.127c.234.655.65.975 1.494.898a.25.25 0 0 0-.045-.496c-.598.054-.817-.114-.98-.57a3.564 3.564 0 0 1-.076-.23c-.151-.468-.308-.678-.694-.678-.457 0-.61.25-.76.862l-.017.065c-.108.431-.189.55-.404.55-.366 0-.518-.335-.715-1.42-.115-.632-.177-.896-.305-1.176-.189-.416-.482-.654-.9-.654-.413 0-.717.23-.94.638-.15.277-.237.54-.409 1.17-.299 1.096-.487 1.442-.867 1.442a.681.681 0 0 1-.489-.223 1.088 1.088 0 0 1-.174-.23.25.25 0 1 0-.446.223z"/><path fill="url(#a)" d="M32 10a22 22 0 0 0-22 22 22 22 0 0 0 22 22 22 22 0 0 0 21.89-20H51.9A20 20 0 0 1 32 52a20 20 0 0 1-20-20 20 20 0 0 1 20-20z" transform="scale(.26458)"/><path fill="url(#b)" d="M52.887 33.086a1 1 0 0 0-1 1 1 1 0 0 0 0 .004A20 20 0 0 1 32 52v2a22 22 0 0 0 21.84-19.613 1 1 0 0 0 .047-.301 1 1 0 0 0-.002-.047A22 22 0 0 0 53.89 34h-.008a1 1 0 0 0-.996-.914z" transform="scale(.26458)"/><path fill="url(#c)" d="M32 10a1 1 0 0 0-.094.004A22 22 0 0 0 10 32h2a20 20 0 0 1 20-20 1 1 0 0 0 1-1 1 1 0 0 0-1-1z" transform="scale(.26458)"/></g></svg>