<svg xmlns="http://www.w3.org/2000/svg" width="64" height="64" viewBox="0 0 16.933 16.933"><circle cx="8.466" cy="8.466" r="7.144" fill="#f0f0f0" style="paint-order:stroke fill markers"/><g fill-rule="evenodd"><path fill="#f7d83f" d="M4.792 3.92a.557.557 0 0 0-.559.558v8.192c0 .31.25.559.559.559h7.075c.31 0 .558-.25.558-.559V6.313L10.047 3.92z" style="paint-order:fill markers stroke" transform="matrix(1.0012 0 0 .99475 .789 -.724)"/><path fill="#ffec8c" d="M12.425 6.313 10.047 3.92v1.795c0 .331.265.598.594.598z" style="paint-order:fill markers stroke" transform="matrix(1.0012 0 0 .99475 .789 -.724)"/></g><g fill-rule="evenodd"><path fill="#638df5" d="M4.792 3.92a.557.557 0 0 0-.559.558v8.192c0 .31.25.559.559.559h7.075c.31 0 .558-.25.558-.559V6.313L10.047 3.92z" style="paint-order:fill markers stroke" transform="matrix(1.0012 0 0 .99475 -.005 .07)"/><path fill="#88aaf8" d="M12.425 6.313 10.047 3.92v1.795c0 .331.265.598.594.598z" style="paint-order:fill markers stroke" transform="matrix(1.0012 0 0 .99475 -.005 .07)"/></g><path fill="#fff" d="M8.466 9.26h.529v1.058h-.529z" opacity=".5"/><path fill="#fff" d="M5.292 6.085v-.264h3.704v.264zm0-.529v-.264h3.704v.264zm0 1.323v-.265h6.085v.265zm0 .529v-.264h6.085v.264zm0 .794v-.265h1.852v.265zm0 .529v-.264h1.852v.264zm0 .529v-.264h1.852v.264zm0 .53v-.265h1.852v.264zm0 .529v-.265h1.852v.265zm0 .529v-.265H6.35v.265zm0 .793v-.265h6.085v.265zm0 .53v-.265h4.497v.265zm2.381-4.234h.264v2.91h-.264zm.264 2.911v-.265h3.44v.265z" color="#000" opacity=".35" style="paint-order:normal"/><path fill="#fff" d="M9.525 7.937h.529v2.381h-.529zm1.058.794h.529v1.587h-.529z" opacity=".5"/></svg>