<svg xmlns="http://www.w3.org/2000/svg" width="64" height="64" viewBox="0 0 16.933 16.933"><path fill="#3aa2f4" d="M15.393 6.648 1.561 10.354c.311 1.182.928 2.237 1.855 3.164 1.294 1.294 2.837 1.989 4.629 2.082h.006c.129.007.25.01.37.01h.129c.129-.001.254-.006.373-.012l.105-.007a7.485 7.485 0 0 0 1.242-.194c1.223-.308 2.303-.933 3.249-1.879.735-.735 1.277-1.55 1.625-2.448a6.996 6.996 0 0 0 .462-2.323c.003-.092.005-.186.005-.28V8.42a7.43 7.43 0 0 0-.217-1.77v-.003z"/><path fill="#5db860" d="M8.467 1.323a7.44 7.44 0 0 0-.423.011c-1.79.092-3.334.786-4.628 2.081C2.02 4.81 1.323 6.494 1.323 8.466c0 .607.067 1.187.199 1.739l13.83-3.706a6.75 6.75 0 0 0-.679-1.604 7.41 7.41 0 0 0-1.155-1.48C12.42 2.316 11.14 1.65 9.68 1.417a7.313 7.313 0 0 0-1.213-.094z"/><path fill="#feea3a" fill-rule="evenodd" d="M5.469 1.96a6.987 6.987 0 0 0-1.63 1.063l4.78 4.78L1.426 9.73c.107.642.297 1.248.572 1.82l8.174-2.19.102-.028 5.315-1.424a7.275 7.275 0 0 0-.252-1.463 6.754 6.754 0 0 0-.127-.398l-.004-.008-4.464 1.196L5.468 1.96z" style="paint-order:fill markers stroke"/><g transform="translate(-1.881 -1.968) scale(1.2222)"><circle cx="8.466" cy="7.59" r="1.74" fill="#fff" style="paint-order:stroke fill markers"/><path fill="#f54c3f" d="M8.467 5.074A2.381 2.381 0 0 0 6.106 7.75c.203 1.86 2.206 4.004 2.206 4.004a.37.37 0 0 0 .103.082l.002.001.067.021.066-.02.002-.002a.396.396 0 0 0 .103-.082s1.974-2.148 2.173-4.008a2.381 2.381 0 0 0-2.361-2.673zm0 3.913c-.845 0-1.532-.687-1.532-1.532s.687-1.532 1.532-1.532a1.533 1.533 0 0 1 0 3.064z"/></g></svg>