<svg xmlns="http://www.w3.org/2000/svg" xmlns:xlink="http://www.w3.org/1999/xlink" width="64" height="64"><rect width="54" height="54" x="5" y="5" fill="#4b69a4" color="#000" rx="27" ry="27"/><g transform="matrix(.89781 0 0 .89477 4.112 2.441)"><path d="M21.382 30.132c-6.922 0-12.596 5.674-12.596 12.596s5.674 12.596 12.596 12.596 12.596-5.674 12.596-12.596V30.132zm0 5.786h6.81v6.81a6.772 6.772 0 0 1-6.81 6.81 6.772 6.772 0 0 1-6.81-6.81 6.772 6.772 0 0 1 6.81-6.81z" color="#000" opacity=".35" style="font-feature-settings:normal;font-variant-alternates:normal;font-variant-caps:normal;font-variant-east-asian:normal;font-variant-ligatures:normal;font-variant-numeric:normal;font-variant-position:normal;font-variation-settings:normal;inline-size:0;isolation:auto;mix-blend-mode:normal;shape-margin:0;shape-padding:0;text-decoration-color:#000;text-decoration-line:none;text-decoration-style:solid;text-indent:0;text-orientation:mixed;text-transform:none;white-space:normal"/><path d="M40.743 10.746c-6.922 0-12.6 5.674-12.6 12.596v12.596h12.6c6.922 0 12.596-5.674 12.596-12.596s-5.674-12.596-12.596-12.596zm0 5.786a6.772 6.772 0 0 1 6.81 6.81 6.772 6.772 0 0 1-6.81 6.81h-6.814v-6.81a6.775 6.775 0 0 1 6.814-6.81z" color="#000" opacity=".35" style="font-feature-settings:normal;font-variant-alternates:normal;font-variant-caps:normal;font-variant-east-asian:normal;font-variant-ligatures:normal;font-variant-numeric:normal;font-variant-position:normal;font-variation-settings:normal;inline-size:0;isolation:auto;mix-blend-mode:normal;shape-margin:0;shape-padding:0;text-decoration-color:#000;text-decoration-line:none;text-decoration-style:solid;text-indent:0;text-orientation:mixed;text-transform:none;white-space:normal"/><path id="a" fill="#fff" stroke-width=".203" d="M34.052 30.071v12.644c0 6.998-5.674 12.672-12.672 12.672-1.062 0-1.817-.12-2.8-.377-1.433-.375-2.604-1.55-2.604-2.916 0-1.653 1.199-2.854 2.992-2.854.853 0 1.162.164 2.412.164a6.69 6.69 0 0 0 6.689-6.678v-5.813a.944.944 0 0 0-.945-.942l-4.394-.001a2.944 2.944 0 0 1-2.96-2.948c-.001-1.651 1.336-2.952 2.991-2.952" shape-rendering="auto"/><use xlink:href="#a" width="1" height="1" fill="#fff" transform="rotate(180 31.061 33.035)"/></g></svg>