<svg xmlns="http://www.w3.org/2000/svg" width="64" height="64" viewBox="0 0 16.933 16.933"><circle cx="8.466" cy="8.466" r="6.879" fill="#fff" fill-rule="evenodd" style="paint-order:normal"/><g stroke-width=".178"><path fill="#ee4055" d="M4.95 5.612c-.4 0-.78.056-1.007.319-.35.4-.213 1.2-.213 1.686 0 .744-.051 1.534.1 2.268.163.784.735 1.635 1.378 2.167.466.384.966.658 1.544.881a5.11 5.11 0 0 0 1.676.293c.521 0 1.043-.055 1.539-.212a5.306 5.306 0 0 0 1.437-.693c.44-.34.796-.674 1.08-1.099.202-.314.373-.654.5-1.002.313-.862.223-1.874.223-2.77 0-.405.106-1.134-.167-1.479-.41-.516-1.322-.333-2-.333H5.83c-.258 0-.572-.035-.88-.035zm5.77 2.208a.68.68 0 0 1 .346.1c.273.163.359.558.166.8-.177.229-.44.41-.663.598l-1.15.997c-.252.229-.515.548-.89.582-.374.036-.623-.242-.865-.46L6.459 9.389c-.25-.202-.598-.43-.77-.694-.244-.37.04-.815.481-.87.284-.035.481.122.678.284l1.124.972c.116.1.308.363.47.384.183.026.462-.335.578-.436l.835-.718c.243-.218.526-.496.862-.496"/><path fill="#51bbb7" d="m4.74 3.355 1.032-.592a6.364 6.364 0 0 1 2.667-.581v-.859c-.976.077-1.9.2-2.81.592-.231.1-.727.248-.86.473-.126.214-.03.72-.03.967z"/><path fill="#ef4155" d="M8.44 1.323v.859a6.19 6.19 0 0 1 2.58.552l1.118.621c0-.247.106-.808-.029-1.015-.133-.205-.61-.346-.83-.44a7.299 7.299 0 0 0-2.84-.577z"/><path fill="#fbb74b" d="M12.138 2.353c0 .275-.09.74.018.994.07.166.33.297.462.415.324.293.635.613.892.97.703.971 1.236 2.213 1.238 3.434.002 1.357-.278 2.63-1.035 3.78a6.33 6.33 0 0 1-.97 1.137c-.158.147-.502.332-.587.532-.105.247-.018.697-.018.965.808-.306 1.558-1.163 2.063-1.832 1.88-2.504 1.88-6.06 0-8.562-.505-.67-1.255-1.527-2.063-1.833z"/><path fill="#83edb9" d="M4.711 2.382c-.903.609-1.68 1.312-2.274 2.233-1.607 2.492-1.454 5.799.32 8.16.508.676 1.206 1.41 1.983 1.776 0-.26.085-.697-.017-.936-.084-.193-.405-.351-.557-.497a6.81 6.81 0 0 1-1.001-1.173 6.374 6.374 0 0 1-1.032-3.923 6.304 6.304 0 0 1 1.414-3.521l.705-.736.458-.395c.103-.167.076-.81 0-.988z"/><path fill="#51bbb7" d="M4.74 13.606c0 .241-.094.73.03.94.132.225.628.372.86.472.909.391 1.832.516 2.81.592v-.83a6.242 6.242 0 0 1-2.754-.623c-.282-.138-.664-.3-.86-.55z"/><path fill="#ef4155" d="M8.44 14.78v.83c.963 0 1.952-.197 2.839-.577.22-.093.697-.234.83-.44.132-.203.03-.746.03-.987l-1.119.621a6.19 6.19 0 0 1-2.58.553m4.96-1.174.03.028z"/></g></svg>