<svg xmlns="http://www.w3.org/2000/svg" width="64" height="64"><rect width="54" height="54" x="5" y="5" fill="#f0f0f0" ry="27"/><g stroke-width=".75"><path fill="#47a5bf" d="m27.929 13.98-4.831 1.628.763 4.883-4.17 2.288-2.34-2.289-4.884 4.883 3.255 3.255v8.85l.815.053v2.645l3.255 1.27V38.65c2.417.524 3.506.752 4.883.863v2.544l3.255.968v-3.002h8.14v3.002l3.255-.968v-2.544c1.377-.11 2.466-.337 4.883-.863v2.796l3.255-1.27V37.53l.815-.052v-8.851l3.255-3.255-4.883-4.883-2.342 2.29-4.17-2.29.763-4.883-4.835-1.627-1.83 3.254h-4.475L27.93 13.98zm-4.881 14.65a4.07 4.07 0 1 1 0 8.138 4.07 4.07 0 0 1 0-8.14zm17.904 0a4.07 4.07 0 1 1 0 8.138 4.07 4.07 0 0 1 0-8.14zM32 31.88a1.624 1.624 0 0 1 1.626 1.629v3.255c0 .902-.724 1.628-1.626 1.628a1.625 1.625 0 0 1-1.629-1.628V33.51c0-.901.727-1.629 1.629-1.629zm-19.024 5.7.053 3.255c3.933 6.008 9.864 9.54 18.972 9.156 9.114.385 15.04-3.148 18.971-9.156l.052-3.255-2.747.863v2.393c-.796.512-3.256 1.184-4.883 1.628v-2.647l-3.257.51v2.137c-.922.777-2.639 1.291-4.884 1.628v-3.255h-6.509v3.255c-2.245-.337-3.961-.85-4.883-1.628v-2.137l-3.257-.51v2.647c-1.628-.444-4.087-1.116-4.883-1.629v-2.392z"/><path fill="#4d4d4d" d="M26.667 32.57a2 2 0 1 1-4 0 2 2 0 1 1 4 0zm14.666 0a2 2 0 1 1-4 0 2 2 0 1 1 4 0z" style="fill:#d95e59;fill-opacity:1" transform="translate(-7.066 -7.063) scale(1.2208)"/></g></svg>