<svg xmlns="http://www.w3.org/2000/svg" width="64" height="64" viewBox="0 0 16.933 16.933"><path fill="#bb80db" d="M15.61 8.466a7.144 7.144 0 0 1-7.144 7.144 7.144 7.144 0 0 1-7.143-7.144 7.144 7.144 0 0 1 7.143-7.143 7.144 7.144 0 0 1 7.144 7.143z"/><rect width="7.937" height="7.937" x="4.498" y="4.498" fill="#303030" rx="1.323" ry="1.323" style="paint-order:markers stroke fill"/><path fill="#f0f0f0" d="M5.292 11.02h3.106v.621H5.292z"/><path fill="#fff" d="M6.854 8.887c.464 0 .856-.18 1.082-.402V6.98H6.75v.545h.59v.658c-.094.082-.256.127-.414.127-.658 0-.992-.438-.992-1.163 0-.717.388-1.15.942-1.15.302 0 .492.122.658.28l.352-.424a1.404 1.404 0 0 0-1.032-.428c-.888 0-1.6.644-1.6 1.744 0 1.114.694 1.718 1.6 1.718zm3.124 0c.883 0 1.492-.663 1.492-1.745s-.609-1.718-1.492-1.718-1.492.632-1.492 1.718c0 1.082.608 1.745 1.492 1.745zm0-.577c-.496 0-.812-.456-.812-1.168 0-.717.316-1.145.812-1.145s.811.428.811 1.145c0 .712-.315 1.168-.811 1.168z" aria-label="GO"/></svg>