<svg xmlns="http://www.w3.org/2000/svg" width="64" height="64" viewBox="0 0 16.933 16.933"><circle cx="8.466" cy="8.466" r="7.144" fill="#6cce86" style="paint-order:stroke fill markers"/><g stroke-width="3.78" style="paint-order:stroke markers fill"><path d="M8.467 1.323a7.144 7.144 0 0 0-5.431 2.506l11.935 7.575a7.144 7.144 0 0 0 .64-2.938 7.144 7.144 0 0 0-7.144-7.143z" opacity=".08"/><path fill="#fff" d="M14.97 5.53 3.04 13.1a7.144 7.144 0 0 0 5.427 2.51 7.144 7.144 0 0 0 7.143-7.144 7.144 7.144 0 0 0-.64-2.935z" opacity=".15"/></g><path fill="#fff" d="m12.17 6.88-1.587 1.058c-.05.342-.118.681 0 1.058l1.588 1.058z"/><path fill="#fff" d="M5.556 6.35a.264.264 0 0 0-.264.265v3.704c0 .146.118.264.264.264h4.763a.264.264 0 0 0 .264-.264V6.615a.264.264 0 0 0-.264-.265zm2.381.794A1.323 1.323 0 0 1 9.26 8.467 1.323 1.323 0 0 1 7.937 9.79a1.323 1.323 0 0 1-1.322-1.323 1.323 1.323 0 0 1 1.322-1.323z"/></svg>