<svg xmlns="http://www.w3.org/2000/svg" width="64" height="64" viewBox="0 0 16.933 16.933"><circle cx="8.466" cy="8.466" r="7.144" fill="#f0f0f0" style="paint-order:stroke fill markers"/><g transform="translate(2.822 -183.18) scale(.66665)"><path fill="#67d388" d="M8.45 281.65a17.984 16.236 0 0 0-6.333 1.048v4.17c.03 1.967.157 3.596 1.069 4.799 1.099 1.443 2.925 2.715 5.28 3.742 2.35-1.024 4.19-2.299 5.287-3.742.911-1.203 1.033-2.832 1.064-4.8v-4.145a17.984 16.236 0 0 0-6.366-1.072z" style="paint-order:markers stroke fill"/><path d="M8.467 281.66v13.758c2.35-1.024 4.188-2.299 5.286-3.742.912-1.203 1.033-2.832 1.064-4.8v-4.146a17.984 16.236 0 0 0-6.35-1.07z" opacity=".1"/><rect width="4.233" height=".794" x="207.09" y="198.97" fill="#fff" ry="0" style="paint-order:markers stroke fill" transform="rotate(45)"/><rect width="6.35" height=".794" x="-199.77" y="210.53" fill="#fff" ry="0" style="paint-order:markers stroke fill" transform="rotate(-45)"/></g></svg>