<svg xmlns="http://www.w3.org/2000/svg" width="64" height="64" viewBox="0 0 16.933 16.933"><path fill="#fff" d="M5.128 9.457c.95 2.065 2.323 4.23 3.339 4.23 1.015 0 2.388-2.165 3.338-4.23a8.792 8.792 0 0 1-.064.026 8.792 8.792 0 0 1-.122.048 8.792 8.792 0 0 1-.122.045 8.792 8.792 0 0 1-.123.044 8.792 8.792 0 0 1-.124.043 8.792 8.792 0 0 1-.124.04 8.792 8.792 0 0 1-.125.04 8.792 8.792 0 0 1-.125.036 8.792 8.792 0 0 1-.127.035 8.792 8.792 0 0 1-.126.033 8.792 8.792 0 0 1-.127.031 8.792 8.792 0 0 1-.127.03 8.792 8.792 0 0 1-.128.026 8.792 8.792 0 0 1-.128.026 8.792 8.792 0 0 1-.129.023 8.792 8.792 0 0 1-.129.022 8.792 8.792 0 0 1-.129.02 8.792 8.792 0 0 1-.13.017 8.792 8.792 0 0 1-.13.017 8.792 8.792 0 0 1-.129.013 8.792 8.792 0 0 1-.13.012 8.792 8.792 0 0 1-.13.01 8.792 8.792 0 0 1-.131.008 8.792 8.792 0 0 1-.13.006 8.792 8.792 0 0 1-.131.004 8.792 8.792 0 0 1-.131.002 8.792 8.792 0 0 1-.087 0 8.792 8.792 0 0 1-.131 0 8.792 8.792 0 0 1-.13-.003 8.792 8.792 0 0 1-.131-.005 8.792 8.792 0 0 1-.131-.007 8.792 8.792 0 0 1-.13-.01 8.792 8.792 0 0 1-.13-.01 8.792 8.792 0 0 1-.13-.013 8.792 8.792 0 0 1-.13-.014 8.792 8.792 0 0 1-.13-.016 8.792 8.792 0 0 1-.13-.019 8.792 8.792 0 0 1-.129-.02 8.792 8.792 0 0 1-.128-.022 8.792 8.792 0 0 1-.129-.025 8.792 8.792 0 0 1-.128-.026 8.792 8.792 0 0 1-.128-.028 8.792 8.792 0 0 1-.127-.03 8.792 8.792 0 0 1-.127-.03 8.792 8.792 0 0 1-.126-.035 8.792 8.792 0 0 1-.126-.035 8.792 8.792 0 0 1-.125-.038 8.792 8.792 0 0 1-.125-.039 8.792 8.792 0 0 1-.124-.04 8.792 8.792 0 0 1-.123-.044 8.792 8.792 0 0 1-.123-.045 8.792 8.792 0 0 1-.122-.046 8.792 8.792 0 0 1-.122-.049 8.792 8.792 0 0 1-.024-.01z"/><path fill="#3891ff" d="M15.61 8.467a7.144 7.144 0 0 1-7.144 7.143 7.144 7.144 0 0 1-7.143-7.143 7.144 7.144 0 0 1 7.143-7.144 7.144 7.144 0 0 1 7.144 7.144"/><path fill="#fff" d="M14.552 8.467a6.085 6.085 0 0 1-6.085 6.085A6.085 6.085 0 0 1 2.38 8.467 6.085 6.085 0 0 1 8.467 2.38a6.085 6.085 0 0 1 6.085 6.086" opacity=".1"/><path fill="#fff" d="M5.128 9.457a8.792 8.792 0 0 0 .024.01 8.792 8.792 0 0 0 .122.049 8.792 8.792 0 0 0 .122.046 8.792 8.792 0 0 0 .123.045 8.792 8.792 0 0 0 .123.043 8.792 8.792 0 0 0 .124.04 8.792 8.792 0 0 0 .125.04 8.792 8.792 0 0 0 .125.037 8.792 8.792 0 0 0 .126.036 8.792 8.792 0 0 0 .127.034 8.792 8.792 0 0 0 .126.031 8.792 8.792 0 0 0 .127.03 8.792 8.792 0 0 0 .128.028 8.792 8.792 0 0 0 .128.026 8.792 8.792 0 0 0 .129.024 8.792 8.792 0 0 0 .128.022 8.792 8.792 0 0 0 .13.02 8.792 8.792 0 0 0 .13.02 8.792 8.792 0 0 0 .128.015 8.792 8.792 0 0 0 .13.015 8.792 8.792 0 0 0 .13.013 8.792 8.792 0 0 0 .13.01 8.792 8.792 0 0 0 .131.01 8.792 8.792 0 0 0 .13.007 8.792 8.792 0 0 0 .131.005 8.792 8.792 0 0 0 .13.003 8.792 8.792 0 0 0 .132 0 8.792 8.792 0 0 0 .087 0 8.792 8.792 0 0 0 .131-.002 8.792 8.792 0 0 0 .13-.004 8.792 8.792 0 0 0 .13-.006 8.792 8.792 0 0 0 .132-.008 8.792 8.792 0 0 0 .13-.01 8.792 8.792 0 0 0 .13-.012 8.792 8.792 0 0 0 .13-.014 8.792 8.792 0 0 0 .13-.016 8.792 8.792 0 0 0 .13-.018 8.792 8.792 0 0 0 .129-.02 8.792 8.792 0 0 0 .128-.021 8.792 8.792 0 0 0 .13-.024 8.792 8.792 0 0 0 .127-.025 8.792 8.792 0 0 0 .128-.027 8.792 8.792 0 0 0 .127-.03 8.792 8.792 0 0 0 .127-.03 8.792 8.792 0 0 0 .127-.034 8.792 8.792 0 0 0 .126-.035A8.792 8.792 0 0 0 11 9.744a8.792 8.792 0 0 0 .125-.039 8.792 8.792 0 0 0 .124-.04 8.792 8.792 0 0 0 .124-.043 8.792 8.792 0 0 0 .123-.044 8.792 8.792 0 0 0 .122-.046 8.792 8.792 0 0 0 .122-.047 8.792 8.792 0 0 0 .064-.027c.593-1.287 1.058-2.547 1.058-3.188 0-1.67-1.968-3.022-4.396-3.022S4.07 4.6 4.07 6.27c0 .641.466 1.9 1.058 3.188zm0 0c.95 2.065 2.323 4.23 3.339 4.23 1.015 0 2.388-2.165 3.338-4.23a8.792 8.792 0 0 1-.064.026 8.792 8.792 0 0 1-.122.048 8.792 8.792 0 0 1-.122.045 8.792 8.792 0 0 1-.123.044 8.792 8.792 0 0 1-.124.043 8.792 8.792 0 0 1-.124.04 8.792 8.792 0 0 1-.125.04 8.792 8.792 0 0 1-.125.036 8.792 8.792 0 0 1-.127.035 8.792 8.792 0 0 1-.126.033 8.792 8.792 0 0 1-.127.031 8.792 8.792 0 0 1-.127.03 8.792 8.792 0 0 1-.128.026 8.792 8.792 0 0 1-.128.026 8.792 8.792 0 0 1-.129.023 8.792 8.792 0 0 1-.129.022 8.792 8.792 0 0 1-.129.02 8.792 8.792 0 0 1-.13.017 8.792 8.792 0 0 1-.13.017 8.792 8.792 0 0 1-.129.013 8.792 8.792 0 0 1-.13.012 8.792 8.792 0 0 1-.13.01 8.792 8.792 0 0 1-.131.008 8.792 8.792 0 0 1-.13.006 8.792 8.792 0 0 1-.131.004 8.792 8.792 0 0 1-.131.002 8.792 8.792 0 0 1-.087 0 8.792 8.792 0 0 1-.131 0 8.792 8.792 0 0 1-.13-.003 8.792 8.792 0 0 1-.131-.005 8.792 8.792 0 0 1-.131-.007 8.792 8.792 0 0 1-.13-.01 8.792 8.792 0 0 1-.13-.01 8.792 8.792 0 0 1-.13-.013 8.792 8.792 0 0 1-.13-.014 8.792 8.792 0 0 1-.13-.016 8.792 8.792 0 0 1-.13-.019 8.792 8.792 0 0 1-.129-.02 8.792 8.792 0 0 1-.128-.022 8.792 8.792 0 0 1-.129-.025 8.792 8.792 0 0 1-.128-.026 8.792 8.792 0 0 1-.128-.028 8.792 8.792 0 0 1-.127-.03 8.792 8.792 0 0 1-.127-.03 8.792 8.792 0 0 1-.126-.035 8.792 8.792 0 0 1-.126-.035 8.792 8.792 0 0 1-.125-.038 8.792 8.792 0 0 1-.125-.039 8.792 8.792 0 0 1-.124-.04 8.792 8.792 0 0 1-.123-.044 8.792 8.792 0 0 1-.123-.045 8.792 8.792 0 0 1-.122-.046 8.792 8.792 0 0 1-.122-.049 8.792 8.792 0 0 1-.024-.01z"/><path fill="#3292fe" d="M7.543 7.732q-.129.22-.283.322-.155.103-.358.103-.356 0-.589-.36-.232-.363-.232-.923 0-.563.232-.921.233-.36.589-.36.203 0 .358.102.154.103.283.325v-.372h.625v2.256q0 .605-.297.923-.295.32-.858.32-.182 0-.353-.035t-.342-.11v-.625q.164.121.32.18.156.06.314.06.306 0 .448-.173.143-.172.143-.54zm-.41-1.562q-.193 0-.3.184-.108.184-.108.52 0 .345.104.524.104.177.304.177.194 0 .302-.184.108-.183.108-.517 0-.336-.108-.52t-.302-.184zm2.254 1.624v1.318h-.622V5.648h.622v.368q.128-.22.284-.323.157-.105.36-.105.36 0 .59.37.231.367.231.947t-.23.95q-.232.367-.591.367-.203 0-.36-.103-.156-.105-.284-.325zM9.8 6.17q-.2 0-.307.19-.106.189-.106.545 0 .356.106.547.107.188.307.188t.304-.188q.106-.189.106-.547 0-.359-.106-.547Q10 6.17 9.8 6.17z" aria-label="gp"/></svg>