<svg xmlns="http://www.w3.org/2000/svg" width="64" height="64"><circle cx="32" cy="32" r="27" fill="#37474f" style="paint-order:stroke fill markers"/><path fill="#a341b4" d="M32 8A24 24 0 0 0 8 32a24 24 0 0 0 9.348 18.971H46.68A24 24 0 0 0 56 32 24 24 0 0 0 32 8z"/><g fill-rule="evenodd"><path fill="#f4416b" d="M32 8.004a24 24 0 0 0-24 24 24 24 0 0 0 3.28 12.05L33.524 8.08A24 24 0 0 0 32 8.004z"/><path fill="#8a5cd8" d="m53.166 20.729-39.961 26.2a24 24 0 0 0 7.533 6.255l15.416 2.455A24 24 0 0 0 56 32.004a24 24 0 0 0-2.834-11.275z"/><path fill="#46a9d6" d="m53.977 41.617-38.553 7.705A24 24 0 0 0 32 56.004a24 24 0 0 0 21.977-14.387z"/></g></svg>