<svg xmlns="http://www.w3.org/2000/svg" width="64" height="64" version="1"><circle cx="32" cy="30.583" r="27" fill="#f0f0f0" style="paint-order:stroke fill markers"/><g transform="translate(8.615 8.615) scale(.73077)"><rect width="14" height="14" x="-54" y="-54" fill="#df82d9" rx="7" ry="7" transform="matrix(0 -1 -1 0 0 0)"/><path fill="#72acef" d="m8 38 8.43-12.768 6.842 11.851z"/><path fill="#4c95eb" d="m6 27 14-7v14z"/><path fill="#3a8ae9" d="m8 17.849 14.988-3.067L19.447 28z"/><path fill="#3074c3" d="m14 9.232 15.272.917L22.43 22Z"/><rect width="40" height="40" x="-48" y="-58" fill="#d761cf" rx="20" ry="20" transform="matrix(0 -1 -1 0 0 0)"/><rect width="14" height="14" x="-56" y="-36" fill="#df82d9" rx="7" ry="7" transform="matrix(0 -1 -1 0 0 0)"/><g fill="#fff" transform="matrix(1.3333 0 0 1.2727 8.667 -2.364)"><ellipse cx="26" cy="22" rx="4" ry="5"/><ellipse cx="30" cy="21" rx="4" ry="5"/></g><ellipse cx="45.5" cy="26" fill="#1b1b1b" rx="1.5" ry="2"/><path fill-rule="evenodd" d="M50.598 36c-2.185.525-3.53 2.285-5.685 2.763-1.551.302-3.593-.98-5.046-.264-.814.4-2.923 1.458-1.221 2.14 0 0 1.003.405 2.267.767 1.265.361 2.73.773 4.28.511 1.75-.296 3.16-1.31 4.355-2.202 1.195-.892 2.08-1.73 2.08-1.73.824-.758.192-1.976-1.03-1.986z" opacity=".6"/><ellipse cx="51.5" cy="24" fill="#1b1b1b" rx="1.5" ry="2"/></g></svg>