<svg xmlns="http://www.w3.org/2000/svg" width="64" height="64"><path fill="#388e3c" d="M32 5A27 27 0 0 0 5 32a27 27 0 0 0 8.908 20h36.184A27 27 0 0 0 59 32 27 27 0 0 0 32 5z" style="paint-order:stroke fill markers"/><path fill="#fbc02d" d="M13.928 52.02a27 27 0 0 0 5.799 4H23c.554 0 1-.446 1-1v-3H13.928zm13.072 0v3c0 .554.446 1 1 1h16.322a27 27 0 0 0 5.748-4H27z"/><path fill="#43a047" fill-rule="evenodd" d="m18 37-9.746 7.797a27 27 0 0 0 1.297 2.17L14 44v2l-3.48 2.32A27 27 0 0 0 11.918 50H12l.107.215A27 27 0 0 0 13.908 52H18v-5l6-5h3l-6 5v5h29.092a27 27 0 0 0 6.355-8.613L53 39h-2l-2-2H18z"/><circle cx="53.5" cy="39.5" r="1.5" fill="#fbc02d"/><circle cx="53.5" cy="39.5" r=".5" fill="#263238"/><circle cx="10.5" cy="39.5" r="1.5" fill="#fbc02d"/><circle cx="10.5" cy="39.5" r=".5" fill="#263238"/><path fill="#43a047" fill-rule="evenodd" d="M32 5a27 27 0 0 0-21.822 11.146L10 17.999l-2 2v2l3 3h38l6.084-6.953a27 27 0 0 0-1.937-2.835L48 21h-3l6.655-7.487A27 27 0 0 0 32 5z"/><circle cx="53.5" cy="21.5" r="1.5" fill="#fbc02d"/><g fill="#263238"><circle cx="53.5" cy="21.5" r=".5"/><rect width="28" height="16" x="18" y="23" ry="1"/><rect width="14" height="6" x="15" y="13" ry="1"/></g><rect width="9" height="1" x="16" y="14" fill="#90a4ae" ry="0"/><path fill="#90a4ae" d="M16 16h5v1h-5zm6 0h2v1h-2z"/><rect width="17" height="6" x="33" y="43" fill="#eceff1" ry="1"/><g fill="#37474f"><rect width="9" height="1" x="34" y="44" ry="0"/><path d="M34 46h5v1h-5z"/><path fill-rule="evenodd" d="m45 48 2-3 2 3z"/></g><rect width="2" height="2" x="26" y="16" fill="#90a4ae" ry="0"/><path fill="#90a4ae" fill-rule="evenodd" d="M21 26h2v10h-2zm4 0h2v10h-2zm4 0h2v10h-2zm4 0h2v10h-2zm4 0h2v10h-2zm4 0h2v10h-2z" opacity=".5" style="paint-order:fill markers stroke"/><circle cx="10.5" cy="21.5" r="1.5" fill="#fbc02d"/><circle cx="10.5" cy="21.5" r=".5" fill="#263238"/></svg>