<svg xmlns="http://www.w3.org/2000/svg" width="64" height="64"><rect width="52" height="52" x="6" y="6" fill="#ccc" rx="26" ry="26"/><g transform="translate(7.404 4.919) scale(.84525)"><g stroke-width=".397"><path fill="#ff6d00" d="M12.407 42.827c-3.246 3.246-3.42 9.162-3.42 9.162s5.912-.174 9.162-3.42c3.25-3.246 4.595-7.163 3.008-8.746-1.588-1.587-5.504-.242-8.75 3.004z"/><path fill="#c62828" d="M13.391 43.97c-2.044 2.044-2.155 5.766-2.155 5.766s3.722-.112 5.766-2.155c2.044-2.044 2.893-4.512 1.893-5.508s-3.456-.15-5.504 1.897z"/><path fill="#546e7a" d="M17.581 44.005c1.944 2.075 4.496 1.857 4.706 1.516l1.778-2.889c.107-.175.008-.452-.068-.524L19.2 37.311c-.075-.076-.341-.163-.516-.056l-2.889 1.778c-.337.21-.718 2.293 1.786 4.972z"/><path fill="#0288d1" d="M30.644 49.283c-.397.321-.929.25-.996-.226-.186-1.318-.063-3.964-1.722-5.623-1.62-1.619-4.25-1.857-4.25-1.857l9.904-4.88s1.865 2.876.838 6.971c-.857 3.385-2.322 4.429-3.774 5.615zM11.812 31.018c-.389.333-.25.929.226.996 1.318.186 3.964.063 5.623 1.722 1.619 1.62 1.956 3.913 1.956 3.913l4.786-10.13s-2.532-1.187-6.214-.23c-2.54.662-5.06 2.595-6.377 3.73z"/><path fill="#fff" d="M36.969 14.288a20.315 20.315 0 0 1 5.841 4.075c.73.73 1.353 1.476 1.893 2.206a20.328 20.328 0 0 1 2.226 3.806c-1.044 2.742-3.012 5.932-4.936 7.857-7.861 7.86-16.543 12.349-21.035 9.17-.262-.187-.52-.357-.754-.568-3.853-3.464.56-13.38 8.575-21.396 2.011-2.011 5.364-4.067 8.19-5.15z"/></g><circle cx="6.508" cy="42.815" r="3.531" fill="#455a64" transform="rotate(-45)"/><circle cx="-4.111" cy="43.135" r="2.555" fill="#455a64" transform="rotate(-45)"/><path fill="#e53935" d="M36.969 14.288c-.734 3.623 5.662 10.718 9.96 10.087 1.337-3.456 1.885-5.801 2.25-9.837.186-2.043-.413-2.627-2.306-2.404-5.02.587-7.003.968-9.904 2.154z"/></g></svg>