<svg xmlns="http://www.w3.org/2000/svg" width="64" height="64" viewBox="0 0 16.933 16.933"><circle cx="8.466" cy="8.466" r="7.144" fill="#f4782e" style="paint-order:stroke fill markers"/><path fill="#fff" d="M4.548 11.56c0-.243.084-.448.253-.613a.84.84 0 0 1 .617-.253c.238 0 .439.084.604.253.169.165.253.37.253.614a.83.83 0 0 1-.253.609.822.822 0 0 1-.604.248.847.847 0 0 1-.617-.248.821.821 0 0 1-.253-.61m-.05-3.912v1.441a3.342 3.342 0 0 1 3.337 3.343h1.447a4.786 4.786 0 0 0-4.784-4.784zM4.5 4.495v1.593a6.342 6.342 0 0 1 6.336 6.342h1.6A7.939 7.939 0 0 0 4.5 4.495z" font-family="Bitstream Vera Serif" font-size="13.59" font-weight="700" overflow="visible"/></svg>