<svg xmlns="http://www.w3.org/2000/svg" width="64" height="64" viewBox="0 0 16.933 16.933"><circle cx="8.466" cy="8.466" r="7.144" fill="#147add"/><circle cx="8.466" cy="8.466" r="6.085" fill="#fff" opacity=".1"/><path fill="#fff" d="M11.368 4.234h-3.14a.054.054 0 0 0-.054.054v.997c0 .034.027.06.06.06h.431c.174 0 .315.135.33.305v4.72a.872.872 0 0 1-.004.112c0 .005 0 .01-.002.016a.79.79 0 0 1-.009.063l-.008.036-.012.047a.722.722 0 0 1-.135.249l-.008.008a.726.726 0 0 1-.131.12c-.176.124-.412.179-.677.153a1.646 1.646 0 0 1-.941-.43c-.27-.246-.438-.55-.473-.856-.031-.275.051-.516.231-.68l.002-.001.021-.018a.88.88 0 0 1 .49-.191l.006-.001.061-.004h.033l.01-.001h.02c.031.001.061.002.093.005h.011L7.582 9a1.55 1.55 0 0 1 .528.154c.05.028.06-.002.062-.022V7.63a.093.093 0 0 0-.072-.09c-.891-.197-1.766.007-2.383.569-.539.49-.8 1.198-.715 1.94.076.663.415 1.299.957 1.792.528.48 1.2.78 1.894.846.095.009.191.013.285.013.662 0 1.277-.227 1.73-.64.43-.39.687-.928.725-1.512l.004-3.833V5.672a.333.333 0 0 1 .333-.326h.431a.06.06 0 0 0 .06-.06v-.998a.054.054 0 0 0-.053-.054"/></svg>