<svg xmlns="http://www.w3.org/2000/svg" width="64" height="64"><path fill="#e6e6e6" d="M32 5a27.002 27.002 0 0 0-21.281 10.436c5.606.068 22.314 1.025 24.042 9.664 1.38 6.9-8.282 8.28-5.521 15.182 2.55 6.379 22.052 6.832 25.101 6.869a27 27 0 0 0 4.66-15.152C59 17.087 46.912 5 32 5z"/><g fill-rule="evenodd" stroke-width=".741"><path fill="#5d417a" d="M10.717 15.438A26.997 26.997 0 0 0 5 32c0 14.918 12.088 27 27 27a27.001 27.001 0 0 0 22.345-11.85c-3.039-.037-22.553-.488-25.104-6.87-2.761-6.9 6.9-8.28 5.52-15.181-1.728-8.64-18.44-9.595-24.044-9.662"/><path fill="#303335" d="m10.716 15.438-.028.04c6.477.194 21.105 1.534 22.723 9.62C34.79 32 25.069 33.32 27.83 40.223c2.553 6.38 22.731 9.292 25.771 9.327l.744-2.4c-3.039-.036-22.552-.487-25.104-6.868-2.761-6.901 6.9-8.281 5.521-15.182-1.728-8.64-18.44-9.595-24.045-9.66"/></g><g stroke-linecap="round" stroke-linejoin="bevel" stroke-width="1.482" transform="matrix(1.35 0 0 1.35 -.4 -.4)"><circle cx="-12" cy="9" r="2" fill="#303335" transform="rotate(-90)"/><circle cx="9" cy="12" r="1" fill="#fff"/><circle cx="-30" cy="22" r="3" fill="#303335" transform="rotate(-90)"/><circle cx="-19.5" cy="25.5" r="2.5" fill="#303335" transform="rotate(-90)"/><g fill="#fff"><circle cx="25.5" cy="19.5" r="1.5"/><circle cx="22" cy="30" r="2"/></g><circle cx="-35" cy="38" r="4" fill="#303335" transform="rotate(-90)"/><circle cx="38" cy="35" r="3" fill="#fff"/></g></svg>