<svg xmlns="http://www.w3.org/2000/svg" width="64" height="64"><circle cx="32" cy="32" r="27" fill="#455a64" style="paint-order:stroke fill markers"/><path fill="#b0bec5" d="M35 49v6h1v-6h-1zm-16 4v.316a25 25 0 0 0 1 .616V53h-1zm4 0v2h1v-2h-1zm4 0v2h1v-2h-1zm4 0v2h1v-2h-1zm8 0v2h1v-2h-1zm4 0v1.432a25 25 0 0 0 1-.532V53h-1zm-22 1v.416a25 25 0 0 0 1 .484V54h-1zm4 0v1h1v-1h-1zm4 0v1h1v-1h-1zm4 0v1h1v-1h-1zm4 0v1h1v-1h-1zm4 0v1h.73a25 25 0 0 0 .27-.121V54h-1z"/><path fill="#eee" d="M48 39v2h1v-1h1v-1zm3 0v1h1v1h1v-2zm-3 3v2h2v-1h-1v-1zm4 0v1h-1v1h2v-2z"/><path fill="#ffd54f" d="M35.5 46.998a1.5 1.5 0 0 0-1.5 1.5c0 .828 1 3.5 1.5 3.5s1.5-2.672 1.5-3.5a1.5 1.5 0 0 0-1.5-1.5zm0 1a.5.5 0 1 1 0 1 .5.5 0 0 1 0-1z"/><path fill="#eceff1" fill-rule="evenodd" d="M10.988 37.998a1 1 0 0 0-.987 1v3.998a1 1 0 0 0 1.555.832l3-2a1 1 0 0 0 0-1.663l-3-2a1 1 0 0 0-.568-.167z" font-weight="400" overflow="visible" style="isolation:auto;mix-blend-mode:normal;text-decoration-color:#000;text-decoration-line:none;text-decoration-style:solid;text-indent:0;text-transform:none;white-space:normal"/><rect width="19" height="2" x="27" y="40" fill="#eee" rx="1" ry="1"/><rect width="10" height="2" x="17" y="40" fill="#42a5f5" ry="1"/><circle cx="27" cy="41" r="3" fill="#78909c"/><path fill="#b0bec5" fill-rule="evenodd" d="m34 55 1-2h1l1 2z"/><path fill="#263238" d="M17.041 12A25 25 0 0 0 15 13.7v.3h4v-2h-1.959zM21 12v2h4v-2h-4zm6 0v2h4v-2h-4zm6 0v2h4v-2h-4zm6 0v2h4v-2h-4zm6 0v2h4v-.287A25 25 0 0 0 46.95 12H45z"/><rect width="30" height="17.96" x="17" y="17.04" fill="#81d4fa" ry="0"/><path fill="#81d4fa" d="M12.01 17.039A25 25 0 0 0 7 32a25 25 0 0 0 .211 3h5.79V17.039h-.991zm38.99 0V35h5.799A25 25 0 0 0 57 32a25 25 0 0 0-5.002-14.961H51z"/></svg>