<svg xmlns="http://www.w3.org/2000/svg" width="64" height="64" viewBox="0 0 16.933 16.933"><circle cx="8.466" cy="8.466" r="7.144" fill="#b3bebe" style="paint-order:stroke fill markers"/><path fill="#edeeef" d="M8.467 1.852A6.614 6.614 0 0 0 2.91 4.89v5.958h11.113v-5.97a6.614 6.614 0 0 0-5.556-3.026z"/><path fill="#aeaeae" d="M3.201 5.159h.714v.357h-.714zm1.072 0h1.071v.357H4.273zm1.429 0h1.786v.357H5.702zm-2.501.715H4.63v.357H3.201zm1.786 0h.714v.357h-.714zM3.201 7.302h.714v.357h-.714zm1.072 0h1.071v.357H4.273zm-1.072.715h.714v.357h-.714zm1.072 0h1.786v.357H4.273zm2.143 0h1.071v.357H6.416zM3.201 9.445h2.143v.357H3.201zm2.501 0h1.071v.357H5.702zm-2.501.715h1.786v.357H3.201zm2.144 0h1.786v.357H5.345zm3.214-5.001h.714v.357h-.714zm1.072 0h1.071v.357H9.631zm1.428 0h1.786v.357h-1.786zm-2.5.715h1.429v.357H8.559zm1.786 0h.714v.357h-.714zM8.559 7.302h.714v.357h-.714zm0 .715h.714v.357h-.714zm1.072 0h1.786v.357H9.631zm2.143 0h1.071v.357h-1.071zM8.559 9.445h2.143v.357H8.559zm0 .715h1.786v.357H8.559zm2.143 0h1.786v.357h-1.786z"/><path fill="#d6dadc" d="M1.652 10.583a7.144 7.144 0 0 0 6.815 5.027 7.144 7.144 0 0 0 6.822-5.027H1.652z"/><path fill="#286da8" d="m10.583 11.112-2.5 1.43 2.5 1.442v-.73h2.442a6.614 6.614 0 0 0 1.13-1.426v-.001h-3.572v-.715z"/><path fill="#12b78c" d="M5.82 11.906v.714H3.323a6.614 6.614 0 0 0 1.611 1.43h.888v.476a6.614 6.614 0 0 0 .26.102l2.24-1.293-2.5-1.429z"/><path fill="#286da8" d="M4.498 3.704h2.91v.529h-2.91z" style="paint-order:stroke fill markers"/><path fill="#12b78c" d="M9.26 3.704h2.91v.529H9.26z" style="paint-order:stroke fill markers"/></svg>