<svg xmlns="http://www.w3.org/2000/svg" width="64" height="64"><circle cx="32" cy="32" r="27" fill="#f0f0f0" style="paint-order:stroke fill markers"/><path fill="#81bdf8" d="M24.811 15.997v23.408h14.406V15.997z"/><path fill="#1b92f4" fill-rule="evenodd" d="M33.354 24.984a1.351 1.351 0 1 0 .001 2.702 1.351 1.351 0 0 0 0-2.702m15.755 8.103a.9.9 0 1 0 0 1.802.9.9 0 0 0 0-1.802m-31.962-5.402a1.351 1.351 0 1 0 .001 2.702 1.351 1.351 0 0 0 0-2.702m10.6.99a.61.61 0 0 0-.175.05c-.455.2-.61.85-.01 2.216.599 1.366 1.453 2.312 1.909 2.112s.338-1.468-.26-2.834c-.524-1.196-1.038-1.595-1.463-1.542m-5.391.571c-.356-.03-.844.324-.401.827.59.671.9 1.867.375 2.107-.529.24-.49-.892-.537-1.493-.046-.602-1.51-.963-2.05-.218s.003 1.549.538 1.71c.535.164.618.776.936 1.412.318.637 1.869.477 2.247 0s.613-1.364-.123-2.182-.514-1.578-.713-1.996c-.05-.105-.154-.157-.272-.168m17.55.07c-.478-.112-.675.788-.787 1.633s-.535 1.716-.17 1.885c.507.225.766-1.16 1.338-1.677.573-.519.097-1.727-.381-1.84m-15.109.17a.9.9 0 1 0 0 1.801.9.9 0 0 0 0-1.801m10.941.212c-.585.044-1.168 1.042-1.454 1.734-.328.79.068 2.332-.703 2.91-.772.579-1.336.595-1.722.364s.33-.202-.1-1.083c-.43-.882-1.462-.606-1.732.08s.29.656.097 1.061c-.193.406-1.833.843-2.2-.372s-1.668-2.538-2.073-2.21.048 1.535 1.109 2.5-.272 1.483-1.194.758c-.922-.727-2.006.552-2.845 1.407-.84.854-1.59.913-2.188.4-.597-.51-.072-1.903-.761-3.302-.69-1.399-2.059-.702-2.251.243s1.728 1.582 1.356 2.107-1.863.406-2.302-.583c-.439-.99-1.395-.67-1.414.14-.019.81.74.245 1.333.837l15.305 15.306L47.307 36.69c1.801-1.8-.26-1.029-.686-.624-.424.405-1.735.734-1.89.29-.154-.444 1.469-1.188 1.932-1.69s.915-1.925.167-2.448-1.81.42-2.27 1.115c-.462.694-.06 2.463-.678 3.003s-.957.212-1.073-.25c-.116-.464 1.333-1.114.725-2.266-.608-1.151-1.732-.63-2.252-.09-.52.54.313 1.372.506 2.221.193.85-1.781.828-2.553.519s-1.023-2.25-1.35-2.365-1.164.642-2.225.315c-1.06-.328-.18-.982.148-1.753s.845-2.631.182-2.923a.51.51 0 0 0-.249-.044m9.316-1.113a1.351 1.351 0 1 0 .001 2.702 1.351 1.351 0 0 0 0-2.702M13.995 32.19a.9.9 0 1 0 .001 1.801.9.9 0 0 0 0-1.801"/></svg>