<svg xmlns="http://www.w3.org/2000/svg" width="64" height="64"><path fill="#f9d546" d="M32 5c14.912 0 27 12.088 27 27S46.912 59 32 59 5 46.912 5 32 17.088 5 32 5z"/><path fill="#b545ab" d="m29.652 15.565-1.133 3.398a13.5 13.5 0 0 0-3.264 1.362l-3.215-1.607-3.322 3.322 1.605 3.21a13.5 13.5 0 0 0-1.348 3.264l-3.409 1.138v4.696l3.399 1.132a13.5 13.5 0 0 0 1.361 3.265L18.72 41.96l3.322 3.323 3.21-1.605a13.5 13.5 0 0 0 3.265 1.348l1.137 3.409h4.696l1.133-3.399a13.5 13.5 0 0 0 3.264-1.362l3.215 1.607 3.322-3.322-1.605-3.21a13.5 13.5 0 0 0 1.348-3.264l3.409-1.137V29.65l-3.399-1.133a13.5 13.5 0 0 0-1.361-3.265l1.607-3.214-3.323-3.322-3.21 1.605a13.5 13.5 0 0 0-3.264-1.348l-1.137-3.409zM32 22.608A9.391 9.391 0 0 1 41.39 32 9.391 9.391 0 0 1 32 41.39 9.391 9.391 0 0 1 22.609 32a9.391 9.391 0 0 1 9.39-9.391z"/><path fill="#e44040" fill-rule="evenodd" d="M20.261 21.435h5.87L32 35.522l5.869-14.087h5.87l-8.218 18.783h-7.043z"/></svg>