<svg xmlns="http://www.w3.org/2000/svg" xmlns:bx="https://boxy-svg.com" width="63.987" height="63.987" viewBox="0 0 16.9 16.9"><path bx:origin="-3.742381 -3.629666" fill="#1c90ed" d="M15.6 8.45a7.15 7.15 0 0 1-7.15 7.15A7.15 7.15 0 0 1 1.3 8.45 7.15 7.15 0 0 1 8.45 1.3a7.15 7.15 0 0 1 7.15 7.15z"/><path fill="#47ceff" d="M9.426 10.054a2.975 2.975 0 1 1-5.95 0 2.975 2.975 0 0 1 5.95 0z"/><g fill="none" stroke="#fff" stroke-width=".5"><path stroke-opacity=".28" d="M10.822 11.921c-.64.596-2.395-.25-3.92-1.889-1.527-1.64-2.246-3.45-1.607-4.045s2.395.25 3.922 1.889c1.526 1.638 2.245 3.45 1.605 4.045z"/><path stroke-opacity=".65" d="M11.414 11.33c-.638.594-2.394-.25-3.92-1.89-1.527-1.638-2.246-3.45-1.607-4.045.64-.596 2.396.25 3.922 1.889 1.526 1.639 2.245 3.45 1.605 4.045z"/><path stroke-opacity=".28" d="M12.266 10.884c-.64.596-2.395-.25-3.92-1.889C6.818 7.355 6.1 5.545 6.738 4.95c.64-.595 2.395.25 3.922 1.889 1.526 1.638 2.244 3.45 1.605 4.045z"/></g><path fill="#f9b400" d="M12.716 6.555a1.91 1.91 0 1 1-3.82 0 1.91 1.91 0 0 1 3.82 0z"/></svg>