<svg xmlns="http://www.w3.org/2000/svg" width="64" height="64" viewBox="0 0 16.933 16.933"><circle cx="8.466" cy="8.466" r="7.144" fill="#f9ce1d" style="paint-order:stroke fill markers"/><path fill="#fff" d="m9.847 2.547 4.538 4.538a6.085 6.085 0 0 0-4.538-4.538z" opacity=".5" style="paint-order:stroke fill markers"/><path fill="#fff" d="M8.195 2.391a6.085 6.085 0 0 0-5.814 6.075 6.085 6.085 0 0 0 6.085 6.086 6.085 6.085 0 0 0 6.072-5.818z" style="paint-order:stroke fill markers"/><path fill="#ccc" fill-rule="evenodd" d="M10.72 7.329c-.136-.046-.302-.07-.457.017-.26.145-.353.432-.353.694 0 .261.066.534.126.795.06.262.112.513.11.69-.001.179-.026.247-.134.301-.086.044-.14.047-.194.036a.45.45 0 0 1-.194-.109c-.15-.129-.322-.373-.517-.636s-.417-.546-.716-.747a1.422 1.422 0 0 0-1.133-.205h-.009c-.29.078-.507.298-.658.569-.15.27-.244.598-.29.947-.006.055.007.113.003.17-.101-.007-.187-.042-.29-.044l-.498-.012-.215-.005-.01.43.215.005.5.011c.11.005.194.037.302.046.013.517.093 1.033.34 1.43l.004.007.005.006c.382.524 1.034.676 1.519.488a.818.818 0 0 0 .514-.567c.064-.274-.013-.594-.237-.94-.213-.33-.58-.542-1.007-.682-.214-.07-.474-.073-.715-.109.004-.06-.01-.121-.003-.18.04-.306.124-.587.239-.792.113-.204.248-.321.391-.361a.943.943 0 0 1 .793.143c.223.15.423.392.611.646.188.253.36.516.582.706.11.095.238.174.389.204a.73.73 0 0 0 .472-.074c.266-.133.368-.42.371-.679s-.062-.529-.122-.79c-.06-.263-.115-.516-.115-.7 0-.183.029-.261.133-.32.002 0 .036-.01.112.015.075.026.174.08.266.143.184.125.339.274.339.274l.153.15.3-.307-.154-.15s-.174-.17-.397-.322a1.547 1.547 0 0 0-.37-.195zm-3.983 3.02c.192.03.412.032.575.085.372.122.646.3.78.508.183.282.209.483.18.61-.03.126-.112.209-.252.263-.277.107-.746.02-1.01-.338-.175-.284-.249-.7-.273-1.129z" color="#000" font-weight="400" overflow="visible" style="isolation:auto;mix-blend-mode:normal;text-decoration-color:#000;text-decoration-line:none;text-decoration-style:solid;text-indent:0;text-transform:none;white-space:normal"/></svg>