<svg xmlns="http://www.w3.org/2000/svg" width="64" height="64"><path fill="#429bd4" d="M32 5c14.912 0 27 12.088 27 27S46.912 59 32 59 5 46.912 5 32 17.088 5 32 5z"/><circle cx="21.435" cy="42.565" r="3.522" fill="#fff" opacity=".5"/><path fill="#fff" d="M17.913 28.478v5.87h2.935a8.805 8.805 0 0 1 8.804 8.804v2.935h5.87v-2.935c0-8.105-6.57-14.674-14.674-14.674" opacity=".75"/><path fill="#fff" d="M17.913 16.739v5.87h3.522a19.957 19.957 0 0 1 19.957 19.957v3.521h5.87v-3.521A25.826 25.826 0 0 0 21.434 16.74z"/></svg>