<svg xmlns="http://www.w3.org/2000/svg" width="64" height="64"><rect width="54" height="54" x="5" y="5" fill="#cd5050" rx="27" ry="27" style="paint-order:markers stroke fill"/><path fill="#fff" d="M43.107 21.689a26.064 26.064 0 0 0-6.602-2.075 19.362 19.362 0 0 0-.845 1.756 24.24 24.24 0 0 0-7.317 0 18.757 18.757 0 0 0-.856-1.756 25.976 25.976 0 0 0-6.607 2.08c-4.178 6.314-5.31 12.47-4.744 18.54 2.771 2.07 5.457 3.326 8.097 4.15a20.129 20.129 0 0 0 1.734-2.857 17.05 17.05 0 0 1-2.731-1.329c.229-.17.453-.347.67-.53 5.265 2.463 10.985 2.463 16.188 0 .22.183.443.36.67.53-.866.522-1.782.97-2.736 1.332.5 1.002 1.08 1.959 1.734 2.856 2.643-.823 5.331-2.08 8.102-4.152.665-7.036-1.135-13.136-4.757-18.545zM26.684 36.501c-1.58 0-2.877-1.476-2.877-3.273 0-1.797 1.269-3.275 2.877-3.275 1.608 0 2.905 1.476 2.877 3.275.002 1.797-1.269 3.273-2.877 3.273zm10.631 0c-1.58 0-2.877-1.476-2.877-3.273 0-1.797 1.269-3.275 2.877-3.275s2.905 1.476 2.877 3.275c0 1.797-1.269 3.273-2.877 3.273z"/></svg>