<svg xmlns="http://www.w3.org/2000/svg" width="64" height="64"><path fill="#fad25a" d="M32 5c14.912 0 27 12.087 27 26.999s-12.088 27-27 27-27-12.088-27-27 12.088-27 27-27z"/><path fill="#f7e8b1" d="M32 16.151c-9.725 0-17.609 7.884-17.609 17.609.003.292.013.584.03.876l10.535 3.829A7.043 7.043 0 0 0 32 45.499a7.043 7.043 0 0 0 7.043-7.044l10.524-3.875c.02-.273.034-.547.041-.82 0-9.725-7.884-17.609-17.608-17.609z"/><path fill="#659862" fill-rule="evenodd" d="M34.708 36.693a4.273 4.273 0 0 0-1.523-1.24c-1.957-.965-4.179-.275-4.996 1.577s.095 4.142 2.052 5.107c1.942.96 4.169.244 4.996-1.578 2.02-4.596 4.053-9.197 6.079-13.794 1.957 5.31 1.251 6.181-2.98 9.772 7.637-2.634 7.262-6.439 2.837-14.516-2.205 5.007-4.484 10.173-6.465 14.672"/></svg>