<svg xmlns="http://www.w3.org/2000/svg" width="64" height="64"><circle cx="32" cy="32" r="27" fill="#f0f0f0" style="paint-order:stroke fill markers"/><path fill="#20bd4d" d="M45.376 41.534v7.635l.002-.001z"/><path fill="#00913a" d="m25.33 37.748-6.682-3.829v-7.566l13.364-7.658.004-.002 13.36 7.655V33.9l-6.678 3.778.02 7.653 6.658 3.837v.001l6.68-3.818V22.476L32.032 11 11.967 22.442V45.35l6.68 3.848v-.007l6.683-3.845z"/><path fill="#3fb66c" d="M11.967 22.442V45.35l6.68 3.848v-.007l6.683-3.845v-7.599l-6.682-3.829v-7.566l13.368-7.66 13.36 7.655v22.821l6.68-3.818V22.442h-.058L32.03 11l-.007-.013-.008.005-.007-.005L32 11 12.034 22.442z"/><path fill="#2fd36d" d="M45.373 49.168V33.9l-6.677 3.778.02 7.653z"/><path fill="#2fd36d" d="m32.016 10.992-.004-.003v7.706l.004-.002 13.36 7.655v15.186l6.68-3.834V22.442h-.058L32.03 11l-.007-.013zm-13.368 38.2v-7.666l-6.68-3.826.02 7.653z"/><path fill="none" stroke="#00913a" stroke-miterlimit="10" stroke-width=".096" d="M11.967 22.442V45.35"/><path fill="none" stroke="#00913a" stroke-linejoin="round" stroke-miterlimit="10" stroke-width=".096" d="m18.65 18.65 13.366-7.658m0 7.701-13.368 7.66"/><path fill="none" stroke="#00913a" stroke-miterlimit="10" stroke-width=".096" d="m18.648 33.919 6.682 3.829M11.967 45.35l6.68 3.849m33.388-26.757V45.35"/><path fill="none" stroke="#00913a" stroke-linejoin="round" stroke-miterlimit="10" stroke-width=".096" d="m45.35 18.65-13.365-7.658m0 7.701 13.368 7.66"/><path fill="none" stroke="#00913a" stroke-miterlimit="10" stroke-width=".096" d="m45.353 33.919-6.682 3.829"/><g fill="none" stroke="#00913a" stroke-miterlimit="10" stroke-width=".096"><path d="m11.989 45.353 13.34-7.605"/><path stroke-linejoin="round" d="m25.33 45.347-13.39-7.64 6.694-3.784-6.667-3.842 6.678-3.727-6.68-3.911 6.686-3.793 6.682 3.872-.014-7.693 6.697 3.864-.007-7.706"/><path d="M25.33 37.715v7.636l-6.682 3.84.003-30.541m33.361 26.703L38.67 37.748"/><path stroke-linejoin="round" d="m38.67 45.347 13.39-7.64-6.692-3.784 6.667-3.842-6.678-3.727 6.68-3.911-6.687-3.793-6.682 3.872.014-7.693-6.697 3.864.008-7.706"/><path d="M38.67 37.715v7.636l6.683 3.84-.003-30.541"/></g><path fill="none" stroke="#00913a" stroke-miterlimit="10" stroke-width=".096" d="m52.035 45.35-6.682 3.85"/></svg>