<svg xmlns="http://www.w3.org/2000/svg" width="64" height="64" viewBox="0 0 16.933 16.933"><path fill="#2f8dac" d="M8.466 1.323A7.144 7.144 0 0 0 1.644 6.35h13.638a7.144 7.144 0 0 0-6.815-5.027z" style="paint-order:stroke fill markers"/><circle cx="8.466" cy="8.466" r="6.35" fill="#fff" style="paint-order:stroke fill markers"/><path fill="#26a4ca" d="M14.866 5.3 3.402 13.5a7.144 7.144 0 0 0 5.064 2.11 7.144 7.144 0 0 0 7.143-7.144 7.144 7.144 0 0 0-.743-3.165z" style="paint-order:markers stroke fill"/><path fill="#49bde3" d="M2.07 5.304a7.144 7.144 0 0 0-.747 3.163 7.144 7.144 0 0 0 7.143 7.143 7.144 7.144 0 0 0 5.063-2.11z" style="paint-order:markers stroke fill"/><path fill="#ffe236" d="m11.359 9.918 1.076-.396.309-1.052.704.867 1.171.05-.61.9.309 1.058-1.033-.283-1.038.73.007-1.12"/></svg>