<svg xmlns="http://www.w3.org/2000/svg" width="64" height="64"><g stroke-width=".852"><path fill="#383838" d="M32 5c14.912 0 27 12.087 27 26.999s-12.088 27-27 27-27-12.088-27-27 12.088-27 27-27z"/><path d="M32 14.872c-1.23 0-2.255.98-2.255 2.199 0 1.218 1.026 2.199 2.255 2.199 1.23 0 2.219-.98 2.219-2.2 0-1.217-.99-2.198-2.219-2.198zm-16.714 1.95 11.202 6.74 4.555 29.366V29.803H33.1v23.125l4.376-29.367 11.238-6.738L33.1 21.965v5.356h-2.057v-5.356z" style="display:inline;overflow:visible;visibility:visible;fill:#ff9409;fill-opacity:1;fill-rule:nonzero;stroke:none;stroke-width:.648499;marker:none;enable-background:accumulate"/></g></svg>