<svg xmlns="http://www.w3.org/2000/svg" width="64" height="64" viewBox="0 0 16.933 16.933"><g transform="translate(0 -280.07)"><circle cx="8.466" cy="288.53" r="7.144" fill="#00abec" style="paint-order:stroke markers fill"/><circle cx="8.467" cy="288.53" r="5.821" fill="#fff" opacity=".15" paint-order="stroke markers fill"/></g><path fill="#fff" d="M10.985 10.46q-.3.452-.849.82-.549.362-1.454.362-1.28 0-2.05-.832-.763-.832-.763-2.128v-.238q0-1.001.379-1.703.385-.708.996-1.075.611-.374 1.302-.374 1.313 0 1.913.86.605.855.605 2.14v.47H6.921q.023.843.498 1.437.481.588 1.32.588.554 0 .939-.226.384-.226.673-.605zm-2.44-4.308q-.622 0-1.052.453-.43.453-.538 1.302h3.062v-.08q-.04-.61-.356-1.143-.312-.532-1.115-.532z" aria-label="e"/></svg>