<svg xmlns="http://www.w3.org/2000/svg" width="64" height="64" viewBox="0 0 16.933 16.933"><circle cx="8.466" cy="288.53" r="7.144" fill="#57dee3" style="paint-order:stroke markers fill" transform="translate(0 -280.07)"/><path fill="#fff" d="M5.662 10.459c-.548-.116-1.061-.528-1.341-1.077-.17-.333-.18-.38-.18-.912 0-.507.016-.594.155-.895.195-.424.504-.753.902-.961l.314-.164 3.34-.034-.072.242-.505 1.672-.43 1.43-.271.289c-.202.215-.344.31-.557.378-.304.096-.976.112-1.355.032zm1.327-.496c.375-.181.465-.358.869-1.706l.395-1.316c.017-.055-.262-.07-1.28-.07-1.255.001-1.313.006-1.567.132a1.789 1.789 0 0 0-.788.892c-.118.33-.093.928.052 1.246.187.413.605.76 1.053.875.328.085 1.043.055 1.266-.053zm1.091.456c.014-.054.248-.843.52-1.753.488-1.633.498-1.658.739-1.918.298-.32.394-.343 1.321-.317.669.018.72.028 1.05.202.413.216.737.568.933 1.014.19.431.199 1.18.019 1.604-.254.595-.721 1.019-1.3 1.18-.248.068-.628.086-1.81.086-1.4 0-1.495-.006-1.471-.098zm3.417-.498c.511-.251.838-.762.879-1.373.045-.668-.29-1.238-.907-1.544-.238-.118-.343-.132-.964-.132-.97-.001-.899-.085-1.437 1.71a49.2 49.2 0 0 0-.42 1.448c0 .025.586.038 1.303.028 1.198-.016 1.324-.027 1.546-.137z"/></svg>