<svg xmlns="http://www.w3.org/2000/svg" width="64" height="64"><circle cx="32" cy="32" r="27" fill="#f0f0f0" style="paint-order:markers stroke fill"/><g stroke-width=".778"><path fill="#5ae2b5" d="M35.99 34.488c-.133.172-.541.41-.541.928 0 .429.279.84.774 1.186 2.36 1.64 6.807 1.424 6.818 1.424a9.772 9.772 0 0 0 4.966-1.37c3.085-1.8 4.985-4.172 4.992-7.744.043-3.676-1.312-6.12-1.86-7.203C47.662 14.91 40.159 11 31.999 11c-11.482 0-20.836 9.22-20.998 20.7.078-5.993 6.037-11.555 13.125-11.555.574 0 3.848.056 6.89 1.652 2.68 1.408 4.085 3.827 5.061 5.512 1.419 2.677 1.48 5.135-.085 7.178z" class="cls-5"/><path fill="#0b5ead" d="M48.907 42.254c-2.013 1.98-5.134 2.45-7.619 2.462-7.763 0-14.526-5.969-14.526-12.82a5.164 5.164 0 0 1 2.696-4.48c-7.022.295-8.826 7.61-8.826 11.898 0 12.118 11.17 13.347 13.576 13.347 1.298 0 3.255-.378 4.43-.748l.215-.073a21.047 21.047 0 0 0 10.925-8.66c.364-.575-.278-1.256-.873-.926z" class="cls-1"/><path fill="#008ef5" d="M27.715 50.599a12.994 12.994 0 0 1-3.73-3.5c-4.85-6.642-1.904-16.05 5.474-19.683.512-.242 1.386-.678 2.55-.657a5.308 5.308 0 0 1 4.214 2.133 5.228 5.228 0 0 1 1.043 3.06c0-.034 3.05-14.192-13.125-13.056-7.184.504-13.125 6.833-13.125 12.829-.028 3.171.65 6.31 1.987 9.185 4.52 9.644 15.548 14.377 25.654 11.008-3.46 1.09-7.854.611-10.929-1.312z" class="cls-3"/><rect width="28" height="14" x="24" y="39" fill="#50e6ff" rx="7" ry="7"/></g><path d="M29.181 45.323q.366 0 .555-.16.188-.161.188-.475 0-.31-.188-.47-.19-.165-.555-.165h-.856v1.27zm.052 2.624q.466 0 .7-.197.237-.197.237-.594 0-.39-.233-.583-.234-.197-.704-.197h-.908v1.571zm1.439-2.158q.498.145.772.535.273.39.273.956 0 .868-.587 1.294-.587.426-1.784.426h-2.568v-6H29.1q1.25 0 1.808.378.563.378.563 1.21 0 .437-.205.747-.205.305-.595.454zM33.051 43h4.176v1.17h-2.629v1.117h2.472v1.17h-2.472v1.374h2.717V49H33.05zm4.907 0h5.53v1.17h-1.99V49h-1.547v-4.83h-1.993zm9.331 4.907h-2.42L44.489 49h-1.555l2.222-6H47l2.222 6h-1.555zm-2.034-1.113H46.9l-.82-2.387z" aria-label="BETA" opacity=".85"/></svg>