<svg xmlns="http://www.w3.org/2000/svg" width="64" height="64"><rect width="54" height="54" x="5" y="5" fill="#e3e7ee" rx="27" ry="27"/><rect width="48" height="48" x="8" y="8" fill="#8d74de" rx="24" ry="24"/><rect width="34" height="34" x="15" y="15" fill="#e5e9f0" rx="5" ry="5"/><path fill="#9aa0aa" d="M34 42c-.554 0-1 .335-1 .75V45h1v-2h1v2h1v-2h1v2h1v-2.25c0-.415-.446-.75-1-.75h-3zm8 0c-.554 0-1 .335-1 .75v1.5c0 .415.446.75 1 .75h3c.554 0 1-.335 1-.75v-1.5c0-.415-.446-.75-1-.75h-3zm-2.5 1a.499.499 0 1 0 0 1 .499.499 0 1 0 0-1zm2.5 0h3v1h-3v-1z"/><path fill="#333" d="M22 15v5c0 1.662 1.338 3 3 3h14c1.662 0 3-1.338 3-3v-5H22z"/><path fill="#fbe604" d="M26 19v1h4v-1h-4zm8 0v1h4v-1h-4z"/></svg>