<svg xmlns="http://www.w3.org/2000/svg" width="64" height="64" viewBox="0 0 16.933 16.933"><circle cx="8.466" cy="8.466" r="7.144" fill="#698bcf" style="paint-order:stroke fill markers"/><g style="paint-order:stroke markers fill"><path d="M8.467 1.323a7.144 7.144 0 0 0-5.431 2.506l11.935 7.575a7.144 7.144 0 0 0 .64-2.938 7.144 7.144 0 0 0-7.144-7.143z" opacity=".08"/><path fill="#fff" d="M14.97 5.53 3.04 13.1a7.144 7.144 0 0 0 5.427 2.51 7.144 7.144 0 0 0 7.143-7.144 7.144 7.144 0 0 0-.64-2.935z" opacity=".15"/><path fill="#fff" d="m10.319 8.467-4.234 2.645V5.821z"/></g></svg>