<svg xmlns="http://www.w3.org/2000/svg" width="64" height="64" viewBox="0 0 16.933 16.933"><circle cx="8.466" cy="8.466" r="7.144" fill="#246541" style="paint-order:stroke fill markers"/><rect width="4.962" height="8.779" x="8.823" y="2.703" opacity=".1" rx=".382" ry=".382" style="paint-order:markers stroke fill" transform="rotate(4.61)"/><rect width="4.199" height="8.015" x="9.204" y="3.084" fill="#fff" rx="0" ry="0" style="paint-order:markers stroke fill" transform="rotate(4.61)"/><g fill="#246541" stroke-width=".721" transform="rotate(4.61)"><rect width="1.336" height="1.145" x="11.495" y="9" rx="0" ry="0" style="paint-order:markers stroke fill"/><rect width="1.336" height="1.145" x="11.495" y="7.346" rx="0" ry="0" style="paint-order:markers stroke fill"/><rect width="1.336" height="1.145" x="11.495" y="5.692" rx="0" ry="0" style="paint-order:markers stroke fill"/><rect width="1.336" height="1.145" x="11.495" y="4.039" rx="0" ry="0" style="paint-order:markers stroke fill"/><rect width="1.336" height="1.145" x="9.777" y="9" rx="0" ry="0" style="paint-order:markers stroke fill"/><rect width="1.336" height="1.145" x="9.777" y="7.346" rx="0" ry="0" style="paint-order:markers stroke fill"/><rect width="1.336" height="1.145" x="9.777" y="5.692" rx="0" ry="0" style="paint-order:markers stroke fill"/><rect width="1.336" height="1.145" x="9.777" y="4.039" rx="0" ry="0" style="paint-order:markers stroke fill"/></g><path fill="#357e56" d="M32 5A27 27 0 0 0 5 32a27 27 0 0 0 27 27 27 27 0 0 0 12.869-3.295l-9.55-50.477A27 27 0 0 0 31.998 5z" style="paint-order:markers stroke fill" transform="scale(.26458)"/><path fill="#fff" d="m8.295 6.085-1.15.173L6.42 7.67 5.307 6.536l-1.15.174 1.807 1.843-1.182 2.295 1.15-.174.727-1.412 1.112 1.134 1.149-.173L7.113 8.38z" style="paint-order:markers stroke fill"/></svg>