<svg xmlns="http://www.w3.org/2000/svg" width="64" height="64" viewBox="0 0 16.933 16.933"><circle cx="8.466" cy="8.466" r="7.144" fill="#673773" style="paint-order:stroke fill markers"/><g stroke-width=".917" transform="rotate(4.371 -27.182 41.523) scale(.73384)"><rect width="2.911" height="6.307" x="12.141" y="2.396" fill="#592c64" rx=".137" ry=".127" style="paint-order:markers stroke fill"/><rect width="6.307" height="11.16" x="7.774" y="1.426" fill="#592c64" rx=".485" ry=".485" style="paint-order:markers stroke fill"/><rect width="5.337" height="10.189" x="8.259" y="1.911" fill="#fff" rx="0" ry="0" style="paint-order:markers stroke fill"/><g fill="#673773"><rect width="3.881" height=".485" x="8.987" y="3.124" rx="0" ry="0" style="paint-order:markers stroke fill"/><rect width="3.881" height=".485" x="8.987" y="10.401" rx="0" ry="0" style="paint-order:markers stroke fill"/><rect width="3.881" height=".485" x="8.987" y="8.946" rx="0" ry="0" style="paint-order:markers stroke fill"/><rect width="3.881" height=".485" x="8.987" y="7.49" rx="0" ry="0" style="paint-order:markers stroke fill"/><rect width="3.881" height=".485" x="8.987" y="6.035" rx="0" ry="0" style="paint-order:markers stroke fill"/><rect width="3.881" height=".485" x="8.987" y="4.579" rx="0" ry="0" style="paint-order:markers stroke fill"/></g><g fill="#fff"><rect width="1.455" height="1.455" x="13.111" y="2.881" rx="0" ry="0" style="paint-order:markers stroke fill"/><rect width=".485" height="1.456" x="14.081" y="4.822" rx="0" ry="0" style="paint-order:markers stroke fill"/><rect width=".485" height="1.456" x="14.081" y="6.763" rx="0" ry="0" style="paint-order:markers stroke fill"/></g></g><path fill="#885195" d="M8.466 1.323a7.144 7.144 0 0 0-7.143 7.144 7.144 7.144 0 0 0 7.143 7.143 7.144 7.144 0 0 0 3.405-.872L9.344 1.383a7.144 7.144 0 0 0-.877-.06z" style="paint-order:markers stroke fill"/><path fill="#fff" d="m8.427 6.085-.879.136.434 2.813-2.191-2.54H5.79v-.001l-.88.135v.001l.652 4.219.879-.136L6.007 7.9l2.192 2.541.88-.135v-.001z" style="paint-order:markers stroke fill"/></svg>