<svg xmlns="http://www.w3.org/2000/svg" width="64" height="64" viewBox="0 0 16.933 16.933"><circle cx="8.466" cy="8.466" r="7.144" fill="#f0f0f0" style="paint-order:stroke markers fill"/><path d="M8.483 3.403h.082v6.405h-.082z"/><path d="m8.522 9.75.03.058-4.653 2.29-.03-.056z"/><path d="m8.554 9.756-.03.057 4.653 2.291.03-.057z"/><path d="m4.69 7.43.968-.448 1.223 1.794V6.417l.822-.38v3.439l-.969.447L5.512 8.13v2.359l-.822.38z" aria-label="N"/><path fill="#999" d="m9.447 8.64 3.77 1.747a.365.365 0 1 1-.308.664L9.14 9.304a.365.365 0 1 1 .309-.664zm.033-1.463 3.769 1.748a.365.365 0 1 1-.308.664L9.17 7.84a.365.365 0 1 1 .308-.664zm.005-1.447 3.77 1.747a.365.365 0 1 1-.309.664L9.177 6.394a.365.365 0 1 1 .308-.665z"/></svg>