<svg xmlns="http://www.w3.org/2000/svg" width="64" height="64" image-rendering="optimizeSpeed"><path fill="#f0f0f0" d="M58.182 25.136a29.455 29.455 0 0 0-.209-.778c-.057-.195-.114-.392-.18-.601a25.075 25.075 0 0 0-2.331-5.257c-1.161-1.974-2.62-3.844-4.367-5.592-4.153-4.153-8.99-6.673-14.51-7.554a27.67 27.67 0 0 0-2.863-.306 30.586 30.586 0 0 0-3.318-.005c-6.77.348-12.602 2.971-17.496 7.865Q5 20.816 5 32c0 7.457 2.637 13.823 7.908 19.095 3.244 3.24 6.896 5.485 10.932 6.724a27.151 27.151 0 0 0 6.564 1.141h.023c.486.026.95.04 1.401.04H32a33.339 33.339 0 0 0 2.12-.071 28.297 28.297 0 0 0 3.357-.44 29.7 29.7 0 0 0 1.339-.295c4.622-1.161 8.703-3.524 12.279-7.1 2.78-2.78 4.828-5.862 6.14-9.255 1.056-2.726 1.64-5.652 1.748-8.78.011-.347.017-.701.017-1.059v-.171a28.092 28.092 0 0 0-.818-6.694z"/><path fill="#666" fill-rule="evenodd" d="M32 7A25 25 0 0 0 7 32a25 25 0 0 0 25 25 25 25 0 0 0 25-25A25 25 0 0 0 32 7zm0 2a23 23 0 0 1 23 23 23 23 0 0 1-23 23A23 23 0 0 1 9 32 23 23 0 0 1 32 9z" style="paint-order:stroke fill markers" transform="translate(3.2 3.2) scale(.90001)"/><path fill="#666" d="M23 20.109h4.333l10.545 19.896V20.109H41v23.783h-4.333L26.122 23.996v19.896H23z" aria-label="N"/></svg>