<svg xmlns="http://www.w3.org/2000/svg" width="64" height="64" viewBox="0 0 16.933 16.933"><ellipse cx="8.413" cy="8.377" fill="#333" rx="5.22" ry="5.005" style="paint-order:stroke fill markers"/><path fill="#333" d="M28.475 5.264A27 27 0 0 0 5 32a27 27 0 0 0 23.475 26.74V5.263z" style="paint-order:stroke fill markers" transform="scale(.26458)"/><path fill="#4bd239" d="M8.467 1.323a7.144 7.144 0 0 0-.993.077v4.415l.106-.002c2.305-.015 3.8 1.99 3.8 1.99s-1.772 2.202-3.618 2.202c-.1 0-.195-.005-.288-.015v.58c.068.006.138.007.208.007 1.718 0 2.961-.896 4.162-1.958.2.163 1.017.56 1.184.734-1.143.98-3.808 1.769-5.32 1.769-.08 0-.157-.003-.234-.008v4.418a7.144 7.144 0 0 0 .992.078 7.144 7.144 0 0 0 7.144-7.144 7.144 7.144 0 0 0-7.144-7.143zm-.993 9.248c-.063-.004-.11-.012-.17-.02-2.102-.27-2.82-2.64-2.82-2.64s.94-1.423 2.82-1.57c.06-.003.108-.008.17-.01v.632c.05-.003.12-.006.172-.006 1.09 0 1.737.869 1.737.869l-.887.765c-.356-.61-.518-.913-1.022-1.03v-.598c-.062.004-.11.01-.17.016-1.267.14-2.03 1.005-2.03 1.005s.44 1.69 2.03 1.979c.06.013.107.02.17.027v-.478c-.065-.013-.112-.03-.17-.05-.896-.308-1.187-1.379-1.187-1.379s.519-.636 1.184-.555h.002c.07.009.113.021.171.035v1.949c0 .1.22.032.333.032 1.293 0 2.5-1.715 2.5-1.715S9.174 6.28 7.474 6.331v-.514c-.062.002-.11.005-.17.01-2.083.17-3.886 1.975-3.886 1.975S4.44 10.824 7.303 11.1c.063.007.108.01.171.013v-.542z" color="#bebebe"/></svg>