<svg xmlns="http://www.w3.org/2000/svg" width="64" height="64" viewBox="0 0 16.933 16.933"><path fill="#2f8dac" d="M8.466 1.323A7.144 7.144 0 0 0 1.644 6.35h13.638a7.144 7.144 0 0 0-6.815-5.027z" style="paint-order:stroke fill markers"/><circle cx="8.466" cy="8.466" r="6.35" fill="#fff" style="paint-order:stroke fill markers"/><path fill="#26a4ca" d="M14.866 5.3 3.402 13.5a7.144 7.144 0 0 0 5.064 2.11 7.144 7.144 0 0 0 7.143-7.144 7.144 7.144 0 0 0-.743-3.165z" style="paint-order:markers stroke fill"/><path fill="#49bde3" d="M2.07 5.304a7.144 7.144 0 0 0-.747 3.163 7.144 7.144 0 0 0 7.143 7.143 7.144 7.144 0 0 0 5.063-2.11z" style="paint-order:markers stroke fill"/><path fill="#fff" d="M3.206 8.732c-.197 0-.358.147-.358.33v.383l2.32 1.34v-.983L3.39 8.78a.381.381 0 0 0-.184-.048m2.35 0v.982l2.32 1.338v-.98m-5.028-.314v.982l2.32 1.34v-.983zm2.707.268v.982l2.32 1.338v-.98zm-2.707 1.026v.982l2.32 1.34v-.983m.387-1.07v.98l1.78 1.024a.377.377 0 0 0 .183.048c.197 0 .357-.148.357-.33v-.384"/></svg>