<svg xmlns="http://www.w3.org/2000/svg" width="64" height="64" version="1"><path fill="#f0f0f0" d="M32 5C17.042 5 5 17.042 5 32s12.042 27 27 27 27-12.042 27-27S46.958 5 32 5z"/><path fill="#2971d5" d="M31.811 14.94A17.06 17.06 0 0 0 14.751 32a17.06 17.06 0 0 0 17.06 17.06A17.06 17.06 0 0 0 48.871 32a17.06 17.06 0 0 0-17.06-17.06zm1.939 3.877a12.795 12.795 0 0 1 12.795 12.795A12.795 12.795 0 0 1 33.75 44.407a12.795 12.795 0 0 1-12.795-12.795A12.795 12.795 0 0 1 33.75 18.817z"/><rect width="12.407" height="12.407" x="13.201" y="25.796" fill="#fc924d" rx="2.481" ry="2.481"/><rect width="7.754" height="7.754" x="41.116" y="35.102" fill="#fc924d" rx="1.551" ry="1.551"/><rect width="6.204" height="6.204" x="38.015" y="16.491" fill="#fc924d" rx="1.241" ry="1.241"/></svg>