<svg xmlns="http://www.w3.org/2000/svg" width="64" height="64" viewBox="0 0 16.933 16.933"><circle cx="8.466" cy="8.466" r="7.144" fill="#2f3234" style="paint-order:stroke fill markers"/><path fill="#c83737" d="M6.614 1.57a7.144 7.144 0 0 0-2.116.964v5.138l1.059-1.059 1.057 1.058V1.57z"/><path fill-rule="evenodd" d="M3.969 2.921a7.144 7.144 0 0 0-2.646 5.546 7.144 7.144 0 0 0 2.646 5.543z" opacity=".2" style="paint-order:fill markers stroke"/><path fill="#1c95f5" d="M54.039 16.461a15.187 24.95 48.947 0 0-14.305 7.816 15.187 24.95 48.947 0 0-8.842 27.84 15.187 24.95 48.947 0 0 15.875 2.473 27 27 0 0 0 7.194-6.92 12.647 20.767 48.713 0 1-17.373-.347 12.647 20.767 48.713 0 1 7.345-23.221 12.647 20.767 48.713 0 1 11.027-6.268 27 27 0 0 0-.922-1.373z" style="paint-order:stroke fill markers" transform="scale(.26458)"/></svg>