<svg xmlns="http://www.w3.org/2000/svg" width="64" height="64"><rect width="54" height="54" x="5" y="5" fill="#50e279" fill-opacity=".996" rx="27" ry="27"/><path fill="#fff" d="m16.085 15.892 1.158.87C13.57 18.453 23 26.183 23 26.183s1.836-1.652 4.525-1.826c2.667-2.733 13.768-.653 13.352 1.59-3.732.058-4.914-.418-4.914-.418s.185.212.26.941c-.272.225-4.13-.64-4.937-.578-2.296.175-3.845.233-5.492.415 1.133.374 10.161 1.982 13.047 4.772-.77.297-1.106.175-1.364.27-.226.083-.454.543-.95.546-.356.001-.235-.315-.969-.662-4.568.181-6.049-2.606-6.5-2.947-2.016-.482-5.413-1.57-5.413-1.57s2.876 2.295 4.453 3.57c.131.105 2.293.507 5.042 1.848 1.477-1.21 5.46.843 4.72 2.722-.659 1.674-5.082-.05-4.92-2.328-1.009-.315-2.874-1.216-4.068-1.647 1.144.893 5.64 4.638 6.543 5.697 3.956-.486 9.93.502 13.636 2.876-.845.223-4.866.987-5.672.772-1.496-.566-3.727-2.4-3.964-2.605a97.71 97.71 0 0 0-3.53-.506c.751.762 3.234 3.63 4.013 4.837.323-.068 1.97.328 2.426.638 1.69-1.725 4.432 1.302 6.117 2.764-.442.898-7.395-.485-6.466-2.499-.497-.066-1.491-.612-1.858-.641.375.49 1.192 1.157 2.27 2.287 1.036-.295 4.942 3.933 5.047 4.858-2.923-.712-4.367-1.332-4.82-1.86-.893-1.044-.555-2.542-.47-2.814-1.149-1.028-1.363-1.333-1.739-1.537-.01.01.001.317.019.465 1.888 1.392.976 5.245-.11 5.382-.472.06-1.561-5.436-.201-5.64.03-.11.049-.434.05-.447-.717-.781-4.697-5.013-4.956-5.191.129.334.34.883.534 1.56 2.35 1.537 2.74 3.994 2.562 6.881-.563-.986-6.085-5.481-3.67-7.474.017-.307-.074-1.005.129-1.397-.766-.765-3.15-3.119-3.364-3.117.266.546.431.858.563 1.448 1.818.907 1.29 3.25.462 3.3-.872.052-2.805-2.637-.987-3.207-.147-.677-.414-1.597-.522-1.997a356.84 356.84 0 0 1-3.993-3.17c.74 1.23 1.462 3.145 1.823 4.243 2.178 2.468 1.575 6.284 1.355 10.221-2.555-1.897-4.142-8.37-2.516-9.983-.543-1.872-1.363-5.039-1.363-5.039-3.513-2.727-5.457-4.77-5.457-4.77s2.34 3.035 2.607 4.662c2.05.397 3.763 3.968 2.133 4.578-2.382.89-4.94-2.89-2.907-4.297 0 0-1.8-3.315-3.193-6.223-5.495-6.031-4.967-7.842-3.319-8.044z"/></svg>