<svg xmlns="http://www.w3.org/2000/svg" width="64" height="64"><g color="#000" transform="scale(2)"><rect width="27" height="27" x="2.5" y="2.5" fill="#40b3e9" rx="13.5" ry="13.5"/><path fill="#fff" d="M17.466 9.539c-1.632 0-3.046.94-3.746 2.304a2.905 2.905 0 0 0-1.57-.461 2.941 2.941 0 0 0-2.933 2.95c0 .258.04.509.103.748a4.428 4.428 0 0 0-1.936 3.675 4.402 4.402 0 0 0 4.4 4.424h8.432a4.402 4.402 0 0 0 4.399-4.424 4.414 4.414 0 0 0-3.002-4.193 4.27 4.27 0 0 0 .069-.784c0-2.341-1.888-4.24-4.216-4.24z"/></g></svg>