<svg xmlns="http://www.w3.org/2000/svg" width="64" height="64"><circle cx="32" cy="32" r="27" fill="#ececec" fill-rule="evenodd" style="paint-order:stroke fill markers"/><g transform="translate(8.351 8.342) scale(.73915)"><path fill="#e3954f" d="M50.52 8.965a3.8 3.8 0 0 0-.925.19h-.003l-.013-.027-.198.098a3.576 3.576 0 0 0-.478.235L24.762 22.447l9.34 21.187c8.207-3.592 16.548-9.917 24.839-13.227a3.688 3.688 0 0 0 .51-.203c.065-.032.127-.07.19-.106.104-.056.205-.118.304-.185.152-.107.298-.224.436-.356.134-.135.261-.281.38-.44a6.136 6.136 0 0 0 .389-.58c.077-.136.145-.28.211-.426.036-.074.07-.15.103-.227.067-.164.123-.335.177-.51.027-.082.053-.164.077-.249a7.62 7.62 0 0 0 .116-.51c.024-.107.046-.216.066-.327.028-.173.048-.352.066-.531.014-.113.025-.226.035-.341.013-.182.017-.37.02-.558a8.87 8.87 0 0 0 .006-.401c-.002-.162-.013-.327-.021-.492-.006-.16-.015-.32-.026-.483-.005-.057-.013-.115-.019-.172-.06-.615-.16-1.247-.301-1.89l-.018-.081a18.862 18.862 0 0 0-.571-2.003l-.008-.027c-.004-.01-.01-.021-.013-.032-.236-.67-.51-1.335-.82-1.987-.018-.038-.031-.077-.05-.116a19.7 19.7 0 0 0-2.019-3.348c-.03-.04-.057-.082-.087-.121a17.858 17.858 0 0 0-.957-1.163c-.045-.05-.092-.096-.137-.146a15.457 15.457 0 0 0-.88-.885c-.052-.048-.103-.098-.156-.145-.34-.307-.685-.587-1.033-.84-.027-.02-.054-.036-.082-.056a10.348 10.348 0 0 0-1.173-.724 7.974 7.974 0 0 0-.978-.441c-.03-.011-.061-.016-.092-.027a6.07 6.07 0 0 0-1.134-.27 4.676 4.676 0 0 0-.933-.044z"/><circle cx="31" cy="32" r="23" fill="#edd448"/><path fill="#e3954f" d="m42.945 12.637-16.25 8.02A13 6 0 0 0 31 21a13 6 0 0 0 13-6 13 6 0 0 0-1.055-2.363zm5.223 16.371a7.366 11.862 28.506 0 0-9.57 6.656 7.366 11.862 28.506 0 0-2.352 6.055l16.629-8.5a7.366 11.862 28.506 0 0-2.113-3.328 7.366 11.862 28.506 0 0-2.594-.883z"/><path d="M48.168 29.007a7.366 11.862 28.506 0 0-9.57 6.658 7.366 11.862 28.506 0 0-.157 14.447A7.366 11.862 28.506 0 0 46 49.336a23.65 23.378 0 0 0 6.51-9.245 7.366 11.862 28.506 0 0-1.75-10.2 7.366 11.862 28.506 0 0-2.592-.884zM31 9a23 23 0 0 0-11.062 2.863A13 6 0 0 0 18.001 15a13 6 0 0 0 13 6 13 6 0 0 0 13-6 13 6 0 0 0-2.01-3.201A23 23 0 0 0 31 9z" opacity=".3"/><path fill="#e3954f" d="M13.683 27.759a11.588 6.3 64.81 0 0-1.419.2l-7.402 3.645a11.588 6.3 64.81 0 0-.615.304l-.061.029.003.002a11.588 6.3 64.81 0 0-.582.466 11.588 6.3 64.81 0 0 1.28 14.417 11.588 6.3 64.81 0 0 9.663 5.8l7.42-3.652-.006-.01a11.588 6.3 64.81 0 0 .828-.606 11.588 6.3 64.81 0 0-1.28-14.417 11.588 6.3 64.81 0 0-7.829-6.178z"/><ellipse cx="-14.123" cy="37.675" opacity=".2" rx="6.569" ry="11.438" transform="matrix(.70813 -.70609 .51863 .855 0 0)"/></g></svg>