<svg xmlns="http://www.w3.org/2000/svg" width="64" height="64"><g stroke-width=".741" transform="translate(-517.807 -672.822) scale(1.3455)"><rect width="40.132" height="40.132" x="388.54" y="503.75" fill="#ececec" fill-opacity=".902" rx="20.066"/><path fill="#1ebc7e" d="M408.68 507.73c-1.746 0-3.428.28-5.003.797v15.213a5.003 5.003 0 1 0 5.003-5.003v-5.003c5.526 0 10.006 4.48 10.006 10.006s-4.48 10.006-10.006 10.006-10.006-4.48-10.006-10.006v-12.492c-3.657 2.934-6.006 7.438-6.006 12.492 0 8.841 7.167 16.01 16.01 16.01 8.841 0 16.01-7.167 16.01-16.01 0-8.842-7.167-16.01-16.01-16.01" color="#000"/></g></svg>