<svg xmlns="http://www.w3.org/2000/svg" width="64" height="64"><g transform="translate(5 5)"><circle cx="27" cy="27" r="27" fill="#f17d1e"/><circle cx="27" cy="27" r="23" fill="#fff" opacity=".1"/><path fill="#fff" d="M24.688 10.125c-.566 0-1.026.435-1.026.975v3.902c0 2.216-1.933 5.309-3.8 8.238-1.975 3.093-5.92 6.292-6.305 9.266-.047.363-.06.717-.057 1.066 12.316.41 23.225-6.49 23.342-6.566l.938-.603c-.617-1.058-2.41-2.116-3.079-3.163-1.869-2.93-4.25-6.022-4.25-8.238V11.1c0-.54-.461-.975-1.028-.975zm14.238 17.967-.746.475c-6.178 3.935-15.636 7.055-24.438 6.883 1.246 4.525 6.21 7.58 6.463 7.73.166.098 1.333.695 6.679.695 5.344 0 6.692-.597 6.856-.695.308-.18 7.504-4.563 6.696-10.738-.186-1.41-.756-2.87-1.51-4.35z"/></g></svg>