<svg xmlns="http://www.w3.org/2000/svg" width="64" height="64" viewBox="0 0 16.933 16.933"><defs><linearGradient id="a" x1="43" x2="49" y1="44" y2="50" gradientTransform="scale(.26458)" gradientUnits="userSpaceOnUse"><stop offset="0"/><stop offset="1" stop-opacity="0"/></linearGradient></defs><circle cx="8.466" cy="8.466" r="7.144" fill="#72787e" style="paint-order:stroke fill markers"/><rect width="4.233" height=".529" x="5.821" y="9.525" fill="#fff" ry=".265" style="paint-order:stroke markers fill"/><path fill="#fff" d="M4.502 4.725a.264.264 0 0 0-.262.13.264.264 0 0 0 .097.362l2.842 1.64-2.842 1.641a.264.264 0 0 0-.097.362c.074.127.235.17.362.097l3.207-1.852a.26.26 0 0 0 .127-.225c.002-.008.001-.015.002-.022 0-.008 0-.015-.002-.023a.26.26 0 0 0-.127-.224L4.602 4.758a.266.266 0 0 0-.1-.033z" style="paint-order:stroke markers fill"/><path fill="url(#a)" d="m15.582 9.024-6.563 6.562a7.144 7.144 0 0 0 6.563-6.562z" opacity=".25" style="paint-order:stroke fill markers"/><g paint-order="stroke markers fill" transform="translate(.982 -279.17)"><circle cx="11.718" cy="291.87" r="3.175" fill="#ccc"/><circle cx="11.718" cy="291.87" r="1.588" opacity=".15"/><g fill="#fff"><path d="M11.718 290.52a1.343 1.343 0 0 0-1.343 1.344 1.343 1.343 0 0 0 1.343 1.343 1.343 1.343 0 0 0 1.343-1.343 1.343 1.343 0 0 0-1.343-1.344zm0 .61a.733.733 0 0 1 .733.734.733.733 0 0 1-.733.732.733.733 0 0 1-.733-.732.733.733 0 0 1 .733-.733z"/><path d="M11.474 289.97h.488v.854h-.488zm0 2.93h.488v.855h-.488zm2.137-1.282v.489h-.855v-.489zm-2.931 0v.489h-.855v-.489zm2.55 1.41-.346.346-.604-.605.345-.345zm-2.073-2.072-.345.345-.605-.604.345-.345zm-.605 2.418-.345-.346.605-.604.345.345zm2.073-2.073-.345-.345.604-.604.345.345z"/></g></g></svg>