<svg xmlns="http://www.w3.org/2000/svg" width="64" height="64"><circle cx="32" cy="32" r="27" fill="gray" style="paint-order:fill markers stroke"/><path d="M25.291 21.217c.103 4.402-1.322 8.23-5.325 11.096l5.969 2.865c-.371-4.885 1.724-8.407 5.325-11.095zm13.241 0c-.103 4.402 1.32 8.23 5.325 11.096l-5.969 2.865c.371-4.885-1.724-8.407-5.325-11.095zm-1.111 15.779c-3.772 1.995-7.681 2.365-11.828-.007l-.004 6.621c4.08-2.446 8.003-2.08 11.828.008z" opacity=".35"/><path fill="#fff" d="M40.4 17.83a8.4 8.4 0 1 1-16.8-.001 8.4 8.4 0 0 1 16.8 0zm-12.6 22.4a8.4 8.4 0 1 1-16.8 0 8.4 8.4 0 0 1 16.8 0zm25.2 0a8.4 8.4 0 1 1-16.8 0 8.4 8.4 0 0 1 16.8 0z"/></svg>