<svg xmlns="http://www.w3.org/2000/svg" width="64" height="64"><circle cx="32" cy="32" r="27" fill="#f35a23" style="paint-order:stroke fill markers"/><circle cx="32" cy="32" r="24" fill="#8bc34a" style="paint-order:stroke fill markers"/><g transform="translate(2.783 2.783) scale(.91304)"><circle cx="32" cy="32" r="23" fill="#239bd1" style="paint-order:stroke fill markers"/><path fill="#28b2f0" d="M32.001 9A23.001 23.001 0 0 0 9 32.001 23.001 23.001 0 0 0 31.839 55L55 31.839A23.001 23.001 0 0 0 32.001 9Z" style="paint-order:stroke fill markers"/><path fill="#6fcdf9" d="M31.84 55 55 31.84a23 23 0 0 0-.162-.002 23 23 0 0 0-23 23 23 23 0 0 0 .002.162z"/></g></svg>