<svg xmlns="http://www.w3.org/2000/svg" width="64" height="64"><rect width="54" height="54" x="5" y="5" fill="#d40000" rx="27" ry="27"/><g fill="#f9f9f9"><g transform="translate(14.96 14.704) scale(.61598)"><rect width="16.695" height="12.328" x=".415" y="14.445" ry="2.636"/><rect width="16.695" height="12.328" x="19.542" y="14.445" ry="2.636"/><rect width="16.695" height="12.328" x=".415" y="29.384" ry="2.636"/><rect width="16.695" height="12.328" x="19.542" y="29.384" ry="2.636"/></g><path d="M31.986 16a16 16 0 0 0-10.695 4.156h5.178a13.095 13.095 0 0 1 5.52-1.251 13.095 13.095 0 0 1 13.106 13.08V32a13.095 13.095 0 0 1-13.091 13.095 13.095 13.095 0 0 1-5.55-1.251H21.27A16 16 0 0 0 32.004 48 16 16 0 0 0 48 32v-.018A16 16 0 0 0 31.986 16z"/></g></svg>