<svg xmlns="http://www.w3.org/2000/svg" width="64" height="64"><defs><linearGradient id="a" x1="42" x2="44" y1="51" y2="55" gradientUnits="userSpaceOnUse"><stop offset="0"/><stop offset="1" stop-opacity="0"/></linearGradient></defs><circle cx="31.998" cy="31.998" r="27.999" fill="#7e57c2" style="paint-order:stroke fill markers"/><path fill="url(#a)" d="m57.314 43.893-27.693 15.99a28 28 0 0 0 2.38.12 28 28 0 0 0 25.313-16.11z" opacity=".1" style="paint-order:stroke fill markers"/><path d="M31.998 3.998A27.999 27.999 0 0 0 6.705 20.002h19.094l1.203-2C27.57 17.05 28.675 16 29.998 16h24.977A27.999 27.999 0 0 0 31.998 3.998z" opacity=".2"/><path fill="#fff" d="M16.17 14a24 24 0 0 0-4.875 6.002H25.8l1.203-2C27.57 17.05 28.675 16 29.998 16h19.82a24 24 0 0 0-1.976-2z" style="paint-order:stroke fill markers"/><path d="M32 4a28 28 0 0 0-18.467 7h36.951A28 28 0 0 0 32 4z" opacity=".15" style="paint-order:stroke fill markers"/><rect width="15.001" height="1.999" x="34.999" y="17.998" opacity=".25" ry="1.002" style="paint-order:stroke markers fill"/><path fill="#fff" d="M34.711 24a5.5 5.429 0 0 0-5.406 4.461 6.188 6.107 0 0 0-2.156-.39 6.188 6.107 0 0 0-6.188 6.108 6.188 6.107 0 0 0 .08.946 4.125 4.071 0 0 0-1.455-.268 4.125 4.071 0 0 0-4.125 4.072 4.125 4.071 0 0 0 4.125 4.07h26.125v-.073a3.438 3.393 0 0 0 2.75-3.319 3.438 3.393 0 0 0-3.438-3.393 3.438 3.393 0 0 0-.69.074 5.5 5.429 0 0 0 .003-.074 5.5 5.429 0 0 0-4.337-5.304 5.5 5.429 0 0 0 .212-1.481 5.5 5.429 0 0 0-5.5-5.43z"/><circle cx="25" cy="50.5" r="2.5" fill="#fff" opacity=".35"/><circle cx="32" cy="50.5" r="2.5" fill="#fff" opacity=".35"/><circle cx="39" cy="50.5" r="2.5" fill="#fff" opacity=".75"/></svg>