<svg xmlns="http://www.w3.org/2000/svg" width="64" height="64"><circle cx="32" cy="32" r="27" fill="#4bae4f" style="paint-order:stroke fill markers"/><path fill="#fff" d="m14.882 14.004 1.245.935c-3.95 1.82 6.193 10.133 6.193 10.133s1.974-1.777 4.866-1.964c2.868-2.94 14.806-.702 14.359 1.71-4.013.063-5.284-.45-5.284-.45s.198.228.28 1.013c-.294.241-4.443-.689-5.31-.622-2.47.188-4.136.25-5.906.447 1.218.401 10.927 2.13 14.03 5.13-.827.32-1.19.189-1.466.29-.243.09-.489.586-1.023.588-.382.001-.251-.338-1.04-.712-4.913.196-6.506-2.801-6.99-3.169-2.17-.518-5.823-1.688-5.823-1.688s3.094 2.469 4.79 3.839c.14.114 2.466.546 5.421 1.987 1.59-1.3 5.873.907 5.077 2.928-.71 1.8-5.466-.055-5.291-2.504-1.086-.338-3.092-1.308-4.375-1.77 1.23.96 6.064 4.987 7.035 6.126 4.255-.523 10.68.54 14.663 3.093-.909.24-5.232 1.061-6.099.83-1.609-.609-4.008-2.58-4.263-2.801-.925-.156-3-.455-3.797-.545.809.82 3.479 3.905 4.317 5.202.347-.073 2.118.352 2.609.686 1.818-1.855 4.766 1.4 6.578 2.972-.476.966-7.953-.521-6.954-2.687-.534-.071-1.604-.658-1.998-.69.403.528 1.282 1.245 2.44 2.46 1.115-.317 5.316 4.23 5.429 5.224-3.144-.766-4.696-1.432-5.183-2-.96-1.123-.597-2.734-.505-3.027-1.237-1.104-1.467-1.433-1.871-1.652-.01.013.001.34.02.5 2.03 1.497 1.05 5.64-.118 5.787-.508.064-1.68-5.845-.217-6.066.034-.117.053-.466.055-.48-.772-.84-5.052-5.39-5.33-5.582.139.36.366.95.574 1.679 2.528 1.651 2.946 4.294 2.755 7.398-.606-1.06-6.543-5.894-3.946-8.037.018-.33-.08-1.08.138-1.502-.823-.823-3.388-3.354-3.618-3.352.287.587.464.922.606 1.557 1.955.975 1.387 3.495.497 3.549-.938.056-3.017-2.836-1.062-3.45-.157-.727-.445-1.717-.56-2.147a383.086 383.086 0 0 1-4.295-3.408c.795 1.323 1.572 3.382 1.96 4.562 2.342 2.653 1.694 6.758 1.457 10.991-2.747-2.04-4.453-9.002-2.705-10.735-.584-2.013-1.466-5.42-1.466-5.42-3.778-2.932-5.868-5.13-5.868-5.13s2.517 3.264 2.804 5.014c2.205.428 4.046 4.268 2.293 4.923-2.562.958-5.312-3.107-3.126-4.62 0 0-1.936-3.565-3.434-6.692-5.909-6.487-5.341-8.434-3.569-8.651z"/></svg>