<svg xmlns="http://www.w3.org/2000/svg" width="64" height="64"><path fill="#f0f0f0" d="M32 5A27 27 0 0 0 5 32a27 27 0 0 0 3.945 14.002h46.102A27 27 0 0 0 59 32 27 27 0 0 0 32 5z" style="paint-order:stroke fill markers"/><path fill="#666" d="M8.945 46.002A27 27 0 0 0 32 59a27 27 0 0 0 23.047-12.998H8.945z" style="paint-order:stroke markers fill"/><path d="M21 48a3 3 0 0 0-3 3 3 3 0 0 0 3 3 3 3 0 0 0 3-3 3 3 0 0 0-3-3zm0 1a2 2 0 0 1 2 2 2 2 0 0 1-2 2 2 2 0 0 1-2-2 2 2 0 0 1 2-2z" opacity=".35" style="paint-order:fill markers stroke"/><rect width="4" height="4" x="29" y="49" opacity=".35" rx="1" ry="1" style="paint-order:fill markers stroke"/><rect width="4" height="4" x="35" y="49" opacity=".35" rx="1" ry="1" style="paint-order:fill markers stroke"/><rect width="4" height="4" x="41" y="49" opacity=".35" rx="1" ry="1" style="paint-order:fill markers stroke"/><path fill="#ccc" d="M32.002 14.502A13.002 13.002 0 0 0 19 27.504a13.002 13.002 0 0 0 13.002 12.998A13.002 13.002 0 0 0 45.004 27.5a13.002 13.002 0 0 0-13.002-13.002zm0 5.265a7.733 7.733 0 0 1 7.733 7.733 7.733 7.733 0 0 1-7.733 7.73 7.733 7.733 0 0 1-7.733-7.73 7.733 7.733 0 0 1 7.733-7.733z" opacity=".15" style="paint-order:stroke markers fill"/><g fill="#ccc" style="paint-order:stroke markers fill"><path d="M32.002 16.503A10.999 10.999 0 0 0 21.003 27.5a10.999 10.999 0 0 0 10.999 11.003A10.999 10.999 0 0 0 43 27.505a10.999 10.999 0 0 0-11-10.999zm0 5A5.998 5.998 0 0 1 38 27.505a5.998 5.998 0 0 1-5.998 5.998A5.998 5.998 0 0 1 26 27.505a5.998 5.998 0 0 1 6.002-6.002z"/><path d="M30.002 12.005h4v7h-4zm0 24h4v7h-4zm17.5-10.5v4h-7v-4zm-24 0v4h-7v-4zm20.87 11.547L41.55 39.88l-4.951-4.95 2.827-2.828zm-16.97-16.97-2.823 2.827-4.952-4.951 2.828-2.827zm-4.947 19.797-2.828-2.827 4.952-4.95 2.827 2.826zm16.97-16.97-2.827-2.827 4.951-4.951 2.827 2.827z"/></g></svg>