<svg xmlns="http://www.w3.org/2000/svg" width="64" height="64" fill="none"><circle cx="32" cy="32" r="27" fill="#006400"/><path fill="#489648" d="M11.75 48.313v1.546A27.163 27.163 0 0 0 14 52.125v-2.688l9-6.75v-9l-9-9V11.876a27.163 27.163 0 0 0-2.25 2.266v11.671l9 9v6.75l-9 6.75Z"/><path fill="#489648" d="M16.25 23.563V10.066a27.034 27.034 0 0 1 2.25-1.455v13.825l9 9v13.5l-9 6.75v3.7a27.03 27.03 0 0 1-2.25-1.454v-3.37l9-6.75v-11.25l-9-9Z"/><path fill="#489648" d="M20.75 21.313V7.447A27.27 27.27 0 0 1 23 6.535v13.652l9 9v18l-9 6.75v3.526a26.807 26.807 0 0 1-2.25-.912v-3.74l9-6.75v-15.75l-9-9Z"/><path fill="#489648" d="M32 5c-1.533 0-3.037.128-4.5.373V18.5l9 9H50V23H38.75L32 16.25V5ZM12.875 35.375H5.209c.192 1.544.515 3.048.957 4.5h6.709v-4.5Z"/><path fill="#489648" d="M37.625 14V5.587c6.378 1.351 11.925 4.955 15.769 9.94a10.13 10.13 0 0 0-2.831-.402c-2.412 0-4.626.843-6.365 2.25H41L37.625 14Zm-11.25 44.413A27.11 27.11 0 0 0 32 59c3.156 0 6.185-.541 9-1.536V54.5a2.25 2.25 0 0 1 2.25-2.25h6.61a27.164 27.164 0 0 0 3.218-3.375h-1.953v-4.5h4.878A26.884 26.884 0 0 0 59 32h-.89a10.1 10.1 0 0 1-7.547 3.375A10.1 10.1 0 0 1 43.016 32H36.5l-1.125 1.125V47.75l-9 6.75v3.913Z"/><path fill="#006400" fill-rule="evenodd" d="M41 39.625a2 2 0 0 1 2-2h3.625v4.5H41v-2.5Zm10.125-2h3.625a2 2 0 0 1 2 2v2.5h-5.625v-4.5Zm-4.5 6.75H41v2.5a2 2 0 0 0 2 2h3.625v-4.5Z" clip-rule="evenodd"/><path fill="#DD8D15" fill-rule="evenodd" d="M45.25 39.875a2 2 0 0 0-2 2v2.75a2 2 0 0 0 2 2h7.25a2 2 0 0 0 2-2v-2.75a2 2 0 0 0-2-2h-7.25ZM45.5 54.5h1.43a26.961 26.961 0 0 1-3.671 2.048A2.25 2.25 0 0 1 45.5 54.5Z" clip-rule="evenodd"/><path fill="#F29100" fill-rule="evenodd" d="M50.563 29.75a4.5 4.5 0 1 0 0-9 4.5 4.5 0 0 0 0 9ZM12.874 42.125a4.5 4.5 0 1 0 0-9 4.5 4.5 0 0 0 0 9Z" clip-rule="evenodd"/><path fill="#fff" fill-rule="evenodd" d="M50.563 26.938a1.687 1.687 0 1 0 0-3.375 1.687 1.687 0 0 0 0 3.375ZM12.874 39.313a1.687 1.687 0 1 0 0-3.375 1.687 1.687 0 0 0 0 3.374Z" clip-rule="evenodd"/><path fill="#fff" fill-rule="evenodd" d="M50.563 26.938a1.687 1.687 0 1 0 0-3.375 1.687 1.687 0 0 0 0 3.375ZM12.874 39.313a1.687 1.687 0 1 0 0-3.375 1.687 1.687 0 0 0 0 3.374Z" clip-rule="evenodd"/></svg>