<svg xmlns="http://www.w3.org/2000/svg" width="64" height="64"><path fill="#f0f0f0" d="M32 5c14.912 0 27 12.088 27 27S46.912 59 32 59 5 46.912 5 32 17.088 5 32 5z"/><path fill="#33678e" d="M48.679 36.186c-4.507.894-4.816-.579-4.816-.579 4.756-6.796 6.741-15.427 5.027-17.542-4.681-5.757-12.782-3.035-12.922-2.96l-.043.005a16.97 16.97 0 0 0-3.003-.298c-2.035-.031-3.582.514-4.756 1.375 0 0-14.448-5.737-13.782 7.212.142 2.754 4.096 20.848 8.814 15.39a85.828 85.828 0 0 1 3.393-3.685 4.5 4.5 0 0 0 2.857.704l.076-.065c-.022.25-.01.492.038.78-1.218 1.309-.86 1.536-3.29 2.023-2.456.488-1.017 1.358-.076 1.587 1.147.275 3.793.664 5.582-1.743l-.076.276c.477.368.812 2.386.758 4.226-.054 1.834-.092 3.089.28 4.074.375.985.748 3.198 3.94 2.537 2.674-.547 4.054-1.975 4.247-4.36.136-1.694.444-1.445.466-2.96l.244-.715c.286-2.3.043-3.04 1.688-2.689l.4.032c1.213.054 2.799-.19 3.724-.607 2.002-.893 3.193-2.386 1.218-1.996"/><path fill="none" stroke="#f0f0f0" stroke-linecap="round" stroke-linejoin="round" stroke-width=".692" d="M31.98 37.498c-.123 4.27.034 8.565.466 9.62.432 1.046 1.365 3.063 4.56 2.42 2.66-.55 3.642-1.63 4.059-3.97.31-1.733.908-6.543.986-7.535M28.156 16.084S13.692 10.39 14.37 23.338c.148 2.754 4.104 20.85 8.82 15.377a79.124 79.124 0 0 1 3.279-3.578m9.496-20.094c-.515.152 8.035-3.008 12.894 2.97 1.723 2.11-.27 10.73-5.021 17.537"/><path fill="none" stroke="#f0f0f0" stroke-linecap="round" stroke-linejoin="bevel" stroke-width=".692" d="M43.838 35.555s.31 1.477 4.81.579c1.963-.383.79 1.109-1.217 2.007-1.64.736-5.335.908-5.384-.103-.162-2.626 1.943-1.826 1.791-2.483-.152-.584-1.075-1.164-1.693-2.602-.54-1.261-7.412-10.945 1.904-9.507.329-.069-2.43-8.545-11.151-8.678-8.722-.137-8.442 10.337-8.442 10.337"/><path fill="none" stroke="#f0f0f0" stroke-linecap="round" stroke-linejoin="round" stroke-width=".692" d="M29.54 36.453c-1.217 1.32-.854 1.531-3.288 2.017-2.459.486-1.001 1.365-.059 1.585 1.144.275 3.79.673 5.576-1.747.545-.736-.005-1.904-.746-2.204-.368-.142-.844-.324-1.468.349m0 0"/><path fill="none" stroke="#f0f0f0" stroke-linecap="round" stroke-linejoin="round" stroke-width=".692" d="M29.462 36.428c-.123-.775.26-1.683.672-2.753.619-1.605 2.052-3.215.908-8.31-.854-3.799-6.572-.79-6.586-.27 0 .525.26 2.607-.099 5.06-.46 3.181 2.106 5.876 5.06 5.6"/><path fill="#fff" stroke="#f0f0f0" stroke-width=".692" d="M28.097 25.007c-.039.177.32.643.796.707.47.064.863-.31.898-.481.03-.177-.329-.368-.8-.432s-.869.03-.894.206"/><path fill="#fff" stroke="#f0f0f0" stroke-width=".348" d="M42.375 24.649c.04.176-.324.643-.8.706-.476.05-.859-.319-.898-.48-.03-.177.329-.369.8-.432s.869.029.893.206"/><path fill="none" stroke="#f0f0f0" stroke-linecap="round" stroke-linejoin="round" stroke-width=".692" d="M44.05 23.446c.063 1.38-.315 2.322-.369 3.79-.064 2.13 1.055 4.579-.633 7.023"/></svg>