<svg xmlns="http://www.w3.org/2000/svg" width="64" height="64" version="1"><circle cx="32" cy="32" r="27" fill="#4f4f4f"/><g stroke-width="1.3"><path fill="#fff" d="m43.05 11.85-1.379 2.521-2.521 1.379 2.521 1.379 1.379 2.521 1.379-2.521 2.521-1.379-2.521-1.379zm-6.5 2.6-.46.84-.84.46.84.46.46.84.46-.84.84-.46-.84-.46zM32 15.1c-9.319 0-16.9 7.581-16.9 16.9 0 9.319 7.581 16.9 16.9 16.9S48.9 41.319 48.9 32h-1.447c0 8.52-6.932 15.453-15.453 15.453-8.521 0-15.453-6.932-15.453-15.453S23.478 16.547 32 16.547zm14.95 4.55-.92 1.68-1.68.92 1.68.92.92 1.68.92-1.68 1.68-.92-1.68-.92zm1.95 6.497-.688 1.262-1.262.691 1.262.688.688 1.262.69-1.262 1.26-.688-1.26-.69z"/><path fill="#0092ee" d="M31.916 31.912s-1.85-.34-3.482-.584c-1.632-.244-3.416.176-3.872.706-.457.53.602 1.534.84 1.936.237.402.11.456-.31.84-.351.32-1.775.496-2.236.545v.015l-.073-.007-.072.007v-.015c-.46-.049-1.885-.225-2.235-.545-.42-.384-.548-.438-.31-.84.237-.402 1.296-1.407.84-1.936-.28-.324-1.055-.606-1.988-.721-.012.228-.018.457-.018.687 0 7.18 5.82 13 13 13 .094 0 .187-.005.28-.007.386-1.44.888-3.908.005-4.52-1.266-.876-2.703.073-2.703.073s-1.023.56-1.535-.024c-.511-.584-.608-1.51-.56-2.143.049-.633.585-2.362 1.559-1.924.974.439 2.918.776 3.336.244 1.072-1.364-.466-4.787-.466-4.787"/><path fill="#bee34a" d="M31.916 31.912s6.822-2.031 7.211-.083c.39 1.948-2.045 2.045-.584 3.02 1.159.771 2.131.748 2.485.705v-.024l.072.014.073-.014v.024c.354.043 1.326.067 2.485-.706 1.461-.974-.974-1.071-.585-3.02.126-.626.896-.841 1.883-.846C44.436 24.279 38.836 19 32 19c-.208 0-.415.006-.621.015-.288 1.123-.528 2.716.123 3.545.419.533 2.363.195 3.337-.243.974-.439 1.51 1.29 1.558 1.924.049.633-.048 1.558-.56 2.143-.511.584-1.534.024-1.534.024s-1.437-.95-2.703-.073c-1.266.876.317 5.576.317 5.576"/><path fill="#f15976" d="M20.166 33.969c-.237.402-.11.457.31.84.351.32 1.775.496 2.236.546v.014l.072-.007.073.007v-.014c.46-.05 1.884-.226 2.235-.546.42-.383.548-.438.31-.84-.237-.402-1.296-1.406-.84-1.936.457-.53 2.241-.95 3.873-.706 1.631.243 3.482.584 3.482.584s-1.583-4.7-.317-5.577c1.267-.876 2.704.074 2.704.074s1.022.56 1.534-.025c.511-.584.608-1.51.56-2.143-.049-.633-.585-2.362-1.559-1.923-.974.438-2.918.775-3.336.243-.651-.83-.411-2.422-.124-3.545-6.663.314-12.014 5.643-12.36 12.297.933.116 1.709.398 1.988.721.456.53-.603 1.535-.84 1.936"/><path fill="#10e7c4" d="M45 32c0-.343-.017-.682-.044-1.018-.986.004-1.757.22-1.882.846-.39 1.948 2.046 2.046.584 3.02-1.158.772-2.13.748-2.485.706v-.024l-.072.013a1.433 1.433 0 0 1-.073-.013v.024c-.354.043-1.326.066-2.484-.706-1.462-.974.974-1.072.584-3.02s-7.212.084-7.212.084 1.538 3.423.466 4.787c-.418.532-2.362.195-3.336-.244s-1.51 1.29-1.558 1.924c-.05.633.048 1.559.56 2.143.511.584 1.534.024 1.534.024s1.437-.95 2.703-.073c.883.612.381 3.08-.004 4.52C39.33 44.843 45 39.086 45 32"/></g></svg>