<svg xmlns="http://www.w3.org/2000/svg" width="64" height="64" viewBox="0 0 16.933 16.933"><path fill="#c86fc3" d="M15.61 8.466a7.144 7.144 0 0 1-7.144 7.144 7.144 7.144 0 0 1-7.143-7.144 7.144 7.144 0 0 1 7.143-7.143 7.144 7.144 0 0 1 7.144 7.143z"/><rect width="7.937" height="7.937" x="4.498" y="4.498" fill="#303030" rx="1.323" ry="1.323" style="paint-order:markers stroke fill"/><path fill="#f0f0f0" d="M5.05 10.951h3.106v.621H5.05zm.621-5.591v3.416h.621V7.534h.622c.747 0 1.242-.305 1.242-1.071v-.016c0-.692-.337-1.087-1.141-1.087zm4.356 0c-.673 0-1.257.338-1.257.955v.019c0 .433.435.818 1.108.986.56.15.77.285.77.472v.019c0 .205-.322.345-.62.345-.375 0-.633-.14-.932-.383l-.406.44c.392.355.833.545 1.337.564.71 0 1.23-.444 1.23-1.022v-.02c0-.511-.402-.725-1.074-.911-.561-.15-.777-.255-.777-.48v-.057c0-.169.34-.305.621-.305.28 0 .491.02.79.225l.346-.471c-.353-.214-.65-.376-1.136-.376zm-3.735.621h.621c.374 0 .622.13.622.466v.016c0 .28-.248.45-.622.45h-.62z"/></svg>