<svg xmlns="http://www.w3.org/2000/svg" width="64" height="64" viewBox="0 0 16.933 16.933"><circle cx="8.466" cy="8.466" r="7.144" fill="#f0f0f0" style="paint-order:stroke fill markers"/><path fill="#714f79" d="M11.824 5.298c-.898-.731-2.09-1.133-3.357-1.133s-2.46.402-3.358 1.133c-.906.737-1.405 1.72-1.405 2.766 0 1 .455 1.94 1.284 2.665a.513.513 0 0 0-.035.106l-.272 1.34c-.032.159.011.254.053.306.05.06.121.092.204.092.062 0 .13-.018.199-.055l1.584-.823a5.7 5.7 0 0 0 1.745.27c1.268 0 2.46-.403 3.358-1.134.906-.737 1.405-1.72 1.405-2.767s-.499-2.029-1.405-2.766z"/><path fill="#f4f0f4" d="M9.103 8.808a2.521 2.521 0 0 1 1.679-.617c.633 0 1.23.219 1.679.617.453.401.702.936.702 1.506a1.99 1.99 0 0 1-.642 1.45.294.294 0 0 1 .017.058l.137.73c.016.086-.006.138-.027.166a.124.124 0 0 1-.102.05.204.204 0 0 1-.1-.03l-.792-.447a2.638 2.638 0 0 1-.872.146 2.52 2.52 0 0 1-1.679-.617c-.453-.401-.702-.936-.702-1.506s.25-1.105.702-1.506z"/><g fill="#f95" stroke-width=".889" transform="translate(-71.791 -102.918) scale(.20756)"><circle cx="393.04" cy="545.5" r="2.084" opacity=".837"/><circle cx="397.79" cy="545.5" r="2.084" opacity=".837"/><circle cx="402.78" cy="545.5" r="2.084" opacity=".837"/></g><path fill="#f0f0f0" d="M8.963 6.799c-.143.422-.008.86.302.978s.676-.129.819-.55c.143-.423.008-.86-.301-.979s-.676.129-.82.55"/><path fill-opacity=".302" d="M10.108 7.14c-.008.029-.014.057-.024.087-.144.422-.51.668-.82.55-.309-.118-.444-.556-.3-.978a.61.61 0 0 1 .033-.084c-.1.394.036.782.325.891.288.11.625-.098.786-.468"/><path fill="#754d78" d="M9.103 6.981a.354.354 0 1 0 .665.239.354.354 0 1 0-.665-.239"/><path fill="#2d2d2d" d="M9.27 7.04a.177.177 0 1 0 .332.12.177.177 0 1 0-.333-.12"/><path fill="#f0f0f0" d="M9.278 7.11c-.012.03-.007.064.014.088s.053.037.085.03a.09.09 0 0 0 .067-.06.09.09 0 0 0-.013-.088.09.09 0 0 0-.086-.03.087.087 0 0 0-.067.06M6.15 6.816c-.141.323-.05.673.206.782.255.108.578-.066.719-.389.142-.322.05-.673-.205-.781-.256-.109-.578.065-.72.388"/><path fill-opacity=".302" d="M7.135 6.809a.743.743 0 0 1-.06.402c-.142.323-.466.494-.722.386-.195-.084-.293-.311-.264-.558.024.174.115.318.264.381.255.11.58-.062.722-.385a.77.77 0 0 0 .06-.226"/><path fill="#754d78" d="M6.349 6.924a.267.267 0 0 0 .128.238.264.264 0 0 0 .4-.238.264.264 0 1 0-.528 0"/><path fill="#2d2d2d" d="M6.481 6.924a.132.132 0 1 0 .264 0 .132.132 0 1 0-.264 0"/><path fill="#f0f0f0" d="M6.504 6.97a.065.065 0 0 0 .032.059.068.068 0 0 0 .068 0 .065.065 0 0 0 .032-.06.065.065 0 0 0-.032-.058.068.068 0 0 0-.068 0 .065.065 0 0 0-.032.059"/><path fill="#de6e00" d="M7.284 8.723c.167.62.292.847.74.847.476 0 .697-.259.74-.847-.531-.154-.939-.16-1.48 0"/><path fill="#ffc894" d="M8.906 8.685s-.02-.29-.364-.601c-.345-.312-.487-.281-.547-.273-.004.356.024 1.388.03 1.76.283-.148.571-.729.881-.885"/><path fill="#eb953e" d="M7.993 7.806c-.082.002-.227.044-.485.277-.344.312-.365.602-.365.602.288.145.598.737.882.884.008-.374.008-1.386.008-1.76-.011-.001-.024-.004-.04-.004"/></svg>