<svg xmlns="http://www.w3.org/2000/svg" width="64" height="64"><g stroke-width=".741" transform="matrix(1.35 0 0 1.35 -519.57 -675.11)"><rect width="40" height="40" x="388.57" y="503.8" fill="#1da4f7" rx="20"/><path fill="#fff" fill-rule="evenodd" d="M408.57 503.8c-1.452 0-2.864.16-4.227.451l-1.773 3.549-2.68-2.01a19.942 19.942 0 0 0-10.254 11.584l3.934-1.574 3 2 1-3 13-7-.793-3.961c-.4-.024-.801-.039-1.207-.039m14.81 6.568-.811 2.432 1 1-4 6 2 7 6.633.83c.239-1.239.367-2.519.367-3.83 0-3.425-.857-6.641-2.361-9.453l-1.639-.547.596-1.193a19.947 19.947 0 0 0-1.785-2.238m-34.414 9.432a20.203 20.203 0 0 0-.381 3.381l6.984 2.619-1-3-2-3zm6.603 6 5 12v4.338a20.003 20.003 0 0 0 8 1.662c.199 0 .395-.008.592-.014l6.408-10.986-16-9z" opacity=".25"/><path fill="#fcfcfc" d="m410.311 513.447-3.678.344v14.204l3.638-.496v-6.071l4.85 6.72 3.798-1.145-4.971-6.453 5.012-6.109-3.88-.84-4.81 6.109zm-8.285 3.474a.276.276 0 0 0-.12.039l-1.415 1.375c-.06.06-.084.16-.04.23l1.657 2.597a6.526 6.526 0 0 0-.687 1.527l-3.072.611c-.086.022-.161.07-.161.153v1.909c0 .08.079.17.16.19l2.991.688c.16.622.401 1.214.727 1.756l-1.738 2.483c-.048.07-.024.17.04.23l1.415 1.336c.06.054.169.083.243.039l2.708-1.566c.533.29 1.091.532 1.697.687l.647 2.864c.018.083.074.153.16.153h2.021a.23.23 0 0 0 .203-.153l.727-2.864a7.539 7.539 0 0 0 1.779-.726l2.667 1.68c.074.044.18.022.242-.039l1.414-1.336c.061-.06.085-.16.04-.228l-.97-1.527-.323.114c-.046.022-.094 0-.12-.039 0 0-.612-.875-1.414-1.985-.961 1.776-2.918 2.978-5.173 2.978-3.206 0-5.82-2.432-5.82-5.46 0-2.229 1.417-4.144 3.436-5.002v-1.413a7.206 7.206 0 0 0-1.05.42h-.04l-2.71-1.68a.21.21 0 0 0-.12-.037" color="#000"/></g></svg>