<svg xmlns="http://www.w3.org/2000/svg" width="64" height="64"><defs><clipPath id="a"><circle cx="8.467" cy="288.53" r="6.879" fill="#d86eb0" stroke-opacity=".039" stroke-width=".491" style="paint-order:stroke markers fill"/></clipPath></defs><circle cx="32" cy="32" r="27" fill="#5d6875" style="paint-order:stroke markers fill"/><rect width="12" height="20" x="26" y="20.04" fill="#fff" rx="6" ry="6" style="paint-order:stroke markers fill"/><path fill="#fff" d="M23.5 33.54a.499.499 0 0 0-.5.5.499.499 0 0 0 .006.062A9 9 0 0 0 32 43.04a9 9 0 0 0 8.996-8.95.499.499 0 0 0 .002-.036 9 9 0 0 0 0-.014.499.499 0 0 0-.5-.498.499.499 0 0 0-.498.498h-.002a7.998 7.998 0 0 1-7.998 8 7.998 7.998 0 0 1-7.996-8h-.006a.499.499 0 0 0-.498-.498z" style="paint-order:stroke markers fill"/><g fill="none" stroke="#fff" stroke-opacity=".937" stroke-width=".127" clip-path="url(#a)" transform="translate(-1.232 -1101) scale(3.9251)"><path d="M1.485 287.74c.72.155 1.391.625 1.983 1.98.674 1.545 1.623 2.23 2.772 2.284 1.48.07 2.673-1.226 3.459-2.385 1.602-2.362 4.519-2.136 5.816-1.251" opacity=".35"/><path d="M1.493 288.13c.894-.35 2.083-.424 2.872.827.722 1.143 1.576 2.867 4.049 2.709 1.478-.095 2.956-.71 3.718-2.15.53-.933 1.26-1.872 2.293-2.104.382-.081.655-.07.976.057" opacity=".35"/><path d="M1.775 290.25c.947-.444 2.745-.953 4.197-.53 1.297.38 2.937 1.847 6.056 1.504.824-.09 1.522-.563 2.183-1.464.478-.652.75-1.02 1.306-1.167" opacity=".35"/></g></svg>