<svg xmlns="http://www.w3.org/2000/svg" width="64" height="64" viewBox="0 0 16.933 16.933"><defs><linearGradient id="a" x1="10.583" x2="10.583" y1="283.51" y2="294.62" gradientTransform="translate(2.267 -187.51) scale(.6792)" gradientUnits="userSpaceOnUse"><stop offset="0" stop-color="#69e17c"/><stop offset="1" stop-color="#5eda82"/></linearGradient></defs><circle cx="8.466" cy="8.466" r="7.144" fill="#e6e6e6" style="paint-order:stroke fill markers"/><g stroke-width=".679"><path fill="#fff" d="M7.658 3.967A3.774 3.774 0 0 0 3.884 7.74v3.774h3.774a3.774 3.774 0 0 0 3.774-3.774 3.774 3.774 0 0 0-3.774-3.774z" style="paint-order:stroke markers fill"/><path fill="url(#a)" d="M9.455 5.047A3.774 3.774 0 0 1 13.23 8.82v3.774H9.455A3.774 3.774 0 0 1 5.681 8.82a3.774 3.774 0 0 1 3.774-3.774z" opacity=".65" style="paint-order:stroke markers fill"/><rect width="3.234" height=".359" x="8.017" y="8.28" fill="#fff" ry=".18" style="paint-order:stroke markers fill"/><rect width="2.696" height=".359" x="8.017" y="9.36" fill="#fff" ry=".18" style="paint-order:stroke markers fill"/></g></svg>