<svg xmlns="http://www.w3.org/2000/svg" width="64" height="64"><circle cx="31.998" cy="31.998" r="27.001" fill="#38c5d7"/><path fill="#fff" d="M21.5 37.25v10.14c0 .613.514 1.11 1.147 1.11h17.956c.633 0 1.147-.497 1.147-1.11V37.25z"/><path fill="#ffad00" d="M21.5 35.36c0-.613.513-1.11 1.146-1.11h17.957c.634 0 1.147.497 1.147 1.11v1.89H21.5z"/><path fill="#fff" d="M14 20v10.139c0 .613.514 1.11 1.147 1.11h17.956c.633 0 1.147-.497 1.147-1.11V20z"/><path fill="#ffad00" d="M14 18.11c0-.613.513-1.11 1.146-1.11h17.957c.634 0 1.147.498 1.147 1.11V20H14z"/><path fill="#fff" d="M37.25 21.5v6c0 .414.341.75.762.75h11.226c.42 0 .762-.336.762-.75v-6z"/><path fill="#ffad00" d="M37.25 20c0-.414.34-.75.761-.75H49.24c.42 0 .76.336.76.75v1.5H37.25z"/></svg>