<svg xmlns="http://www.w3.org/2000/svg" width="64" height="64" viewBox="0 0 16.934 16.934"><circle cx="8.467" cy="8.467" r="7.144" fill="#333" style="paint-order:markers stroke fill"/><path d="M7.924 13.87c-.504-.05-1-.161-1.328-.299a3.233 3.233 0 0 1-.149-.064 8.278 8.278 0 0 1-.059-.316l-.101-.563c-.158-.853-.328-1.87-.316-1.882.006-.007.978.644 2.102 1.406 1.029.698 1.229.834 1.698 1.148.47.316.442.294.419.307a4.178 4.178 0 0 1-.484.157 6.008 6.008 0 0 1-.716.113 9.25 9.25 0 0 1-1.066-.007zm2.472-.54a20.962 20.962 0 0 1-1.043-.718 18.668 18.668 0 0 0-.667-.461 1.916 1.916 0 0 1-.318-.22c-.068-.058-.098-.104-.068-.104.018 0 .92-.168 1.58-.294.765-.146 2.171-.422 3.121-.611.174-.035.32-.06.326-.054.01.01-.068.163-.198.381a5.249 5.249 0 0 1-1.302 1.483 7.532 7.532 0 0 1-.68.457 5.784 5.784 0 0 1-.536.268c-.01 0-.107-.057-.215-.126zm-4.541-.115a4.568 4.568 0 0 1-1.213-.892 5.64 5.64 0 0 1-.862-1.108 7.339 7.339 0 0 1-.285-.53c0-.015.427-.655.788-1.181.299-.437.598-.884.756-1.133.019-.028.037-.048.041-.044.02.02.276 1.26.491 2.379.19.988.228 1.185.302 1.555.085.429.194.961.21 1.023.006.024.004.037-.006.037-.008 0-.108-.048-.222-.106zM10.7 11.02c-.005-.014.01-.043.042-.079.027-.032.186-.262.352-.513.268-.404.459-.68.87-1.263a69.19 69.19 0 0 0 1.522-2.217 1.53 1.53 0 0 1 .118-.173c.017-.002.111.271.162.468.098.38.128.665.127 1.182-.003.744-.114 1.403-.334 1.979l-.04.104-.07.014-.282.055-1.216.232a86.865 86.865 0 0 1-1.205.225c-.027.006-.04.002-.046-.014zm-7.412-.941c-.173-.439-.246-.905-.247-1.573 0-.54.034-.863.143-1.351.043-.196.168-.589.195-.616.01-.01.132-.037.273-.061.255-.044.733-.132 1.27-.234.898-.17 1.294-.237 1.325-.225.01.004.02.019.02.033 0 .029.004.021-.253.383l-.312.441-.436.618a110.965 110.965 0 0 0-1.673 2.408 6.082 6.082 0 0 1-.233.336 1.01 1.01 0 0 1-.072-.16zm8.515-1.434a8.626 8.626 0 0 0-.05-.295 51.386 51.386 0 0 1-.095-.537l-.36-2.132c-.058-.355-.247-1.427-.313-1.772a1.393 1.393 0 0 1-.036-.261c.016-.016.296.141.547.308a5.276 5.276 0 0 1 1.531 1.555c.16.25.368.635.44.816l.026.068-.084.132c-.091.144-.218.322-.59.833-.133.184-.325.456-.426.605-.255.374-.541.752-.572.752-.005 0-.013-.032-.018-.072zm-.864-2.378a10.765 10.765 0 0 0-.53-.37 155.816 155.816 0 0 1-3.405-2.348 2.59 2.59 0 0 1-.289-.24c0-.01.289-.1.434-.134.146-.034.466-.09.652-.112.094-.012.316-.018.652-.018.447 0 .536.005.727.03.34.047.58.094.815.162.21.06.55.189.55.208l.055.32c.03.17.1.592.157.936.1.618.162.98.232 1.368.033.185.035.243.008.243a.224.224 0 0 1-.058-.045zm-7.362-.153a5.235 5.235 0 0 1 2.098-2.308c.227-.136.592-.32.635-.32.032 0 .109.053 1.11.756.593.415.766.534.965.661.172.11.34.242.34.268 0 .006-.017.015-.037.019a275.771 275.771 0 0 1-3.108.584 1673.23 1673.23 0 0 1-1.993.37c-.021.006-.022.002-.01-.03z" style="fill:#d47938;stroke-width:.0135848;fill-opacity:1"/></svg>