<svg xmlns="http://www.w3.org/2000/svg" width="64" height="64"><path fill="#ff7f23" d="M31.312 5.006c-13.104.305-24.371 10.15-26.09 23.55-1.897 14.787 8.546 28.325 23.332 30.221 14.787 1.898 28.31-8.543 30.223-23.33 1.897-14.786-8.545-28.325-23.348-30.222a27.166 27.166 0 0 0-4.118-.218z"/><path fill="#fff" d="M31.389 8.006c-11.648.27-21.663 9.021-23.191 20.933-1.686 13.144 7.596 25.177 20.74 26.863 13.144 1.686 25.164-7.594 26.865-20.738 1.686-13.144-7.595-25.18-20.754-26.865a24.149 24.149 0 0 0-3.66-.193z" opacity=".1"/><path fill="#fff" d="M44.653 15.162a4.08 4.08 0 0 1 2.742.91l-3.632 3.614a.296.296 0 0 0 0 .39l2.821 2.805a4.098 4.098 0 0 1-4.735-.81l.016.032a4.102 4.102 0 0 1 .13-5.805 4.09 4.09 0 0 1 2.658-1.136zm3.131 1.281a4.06 4.06 0 0 1-.13 5.66c-.194.178-.39.357-.617.503l-2.707-2.709 3.454-3.454zm-.136 2.085a.287.287 0 0 0-.204.04c-.146.065-.228.243-.163.389 0 .016.015.016.015.033a.91.91 0 0 1-.112 1.004c-.113.113-.13.308-.017.422l.017.017a.463.463 0 0 0 .211 0 .31.31 0 0 0 .227-.114c.405-.47.485-1.134.193-1.685a.26.26 0 0 0-.167-.106zm-8.152 2.833c.58.046 1.036.32 1.494.694-.502.016-.972.21-1.33.567L29.64 32.64 27.5 30.5c7.393-7.382 10.256-9.281 11.997-9.14zm1.527 1.314c.357 0 .713.132.989.4.276.275.42.648.404 1.021-.016.39-.178.747-.47 1.006L31.39 34.41 30.045 33l9.987-9.926c.275-.267.634-.4.99-.4zm1.556 2.509c-.34 3.016-4.588 7.296-8.95 11.462l-1.88-1.881 10.552-9.29a1.59 1.59 0 0 0 .277-.292zm-15.47 5.642 1.996 2.044-4.524.97a.183.183 0 0 1-.211-.144c-.016-.065 0-.114.048-.163l.049-.063 2.643-2.644zm2.563 2.644 1.118 1.037-2.48.633a.12.12 0 0 1-.146 0 .148.148 0 0 1 0-.163l1.508-1.507zm1.588 1.54 1.962 1.96a54.7 54.7 0 0 1-11.478 7.363v.03h-.017a.523.523 0 0 0-.275.57l.453 1.944a.31.31 0 0 1-.13.325c-.097.081-.242.081-.323 0l-2.757-2.839 8.463-8.479 4.103-.874zm-13.004 9.76 2.758 2.74-4.735-.308c-.065-.016-.131-.065-.147-.114a.33.33 0 0 1 0-.178l2.124-2.14z"/></svg>