<svg xmlns="http://www.w3.org/2000/svg" width="64" height="64" version="1"><circle cx="32" cy="32" r="27" fill="#666" style="paint-order:stroke fill markers"/><g fill="#fff"><rect width="24" height="5" x="20" y="37.975" paint-order="markers stroke fill" ry="1.025"/><circle cx="16" cy="20" r="2" style="paint-order:stroke fill markers"/><circle cx="22" cy="20" r="2" style="paint-order:stroke fill markers"/><circle cx="28" cy="20" r="2" style="paint-order:stroke fill markers"/><circle cx="34" cy="20" r="2" style="paint-order:stroke fill markers"/><circle cx="40" cy="20" r="2" style="paint-order:stroke fill markers"/><circle cx="46" cy="20" r="2" style="paint-order:stroke fill markers"/><circle cx="13" cy="26" r="2" style="paint-order:stroke fill markers"/><circle cx="19" cy="26" r="2" fill="#f60" style="paint-order:stroke fill markers"/><circle cx="25" cy="26" r="2" style="paint-order:stroke fill markers"/><circle cx="31" cy="26" r="2" style="paint-order:stroke fill markers"/><circle cx="37" cy="26" r="2" style="paint-order:stroke fill markers"/><circle cx="43" cy="26" r="2" style="paint-order:stroke fill markers"/><circle cx="49" cy="26" r="2" fill="#f60" style="paint-order:stroke fill markers"/><circle cx="15" cy="32" r="2" style="paint-order:stroke fill markers"/><circle cx="21" cy="32" r="2" fill="#f60" style="paint-order:stroke fill markers"/><circle cx="27" cy="32" r="2" style="paint-order:stroke fill markers"/><circle cx="33" cy="32" r="2" style="paint-order:stroke fill markers"/><circle cx="39" cy="32" r="2" style="paint-order:stroke fill markers"/><circle cx="45" cy="32" r="2" fill="#f60" style="paint-order:stroke fill markers"/><circle cx="51" cy="32" r="2" style="paint-order:stroke fill markers"/></g></svg>