<svg xmlns="http://www.w3.org/2000/svg" width="64" height="64"><g stroke-width=".927" transform="translate(-1.23 -1.23) scale(1.0385)"><circle cx="32" cy="32" r="26" fill="#f7c42a" style="paint-order:markers stroke fill"/><g fill="#fff"><path d="M16.587 34.058c.849-.295 1.737-.578 2.17-1.013.276-.275.414-.597.484-.94.068-.346.068-.714.068-1.081 0 0-3.31 0-3.31 1.103 0 0 0 1.104.588 1.931z" opacity=".35"/><path d="M40.274 19.99c-1.103 0-2.573 2.94-4.228 4.78s-3.127 1.84-4.23 2.392-1.84 1.654-2.945 2.39-2.572 1.105-5.517 1.289-4.045.183-4.045.183c0 .368 0 .734-.069 1.08a1.773 1.773 0 0 1-.16.485l-.003.01a1.773 1.773 0 0 1-.005.007 1.773 1.773 0 0 1-.308.431l-.006.009c-.434.434-1.322.717-2.17 1.013.345 1.364.463 2.441 1.618 3.586 2.207 2.206 4.383 1.846 6.62 2.206s4.414 0 6.62 0 2.207 0 4.414 2.207l.584.584a16.926 16.926 0 0 0 4.933-2.79 16.922 16.922 0 0 0 4.401-5.494c-1.535-.849-3.297-2.084-3.297-3.334 0-2.207-1.104-11.034-2.207-11.034zm-.552 3.125c.92.184 1.286 2.39.918 3.862-.366 1.472-1.465 2.206-2.388 2.021s-1.656-1.284-1.288-2.756c.368-1.472 1.84-3.31 2.758-3.127zm-7.217 4.737c.322 0 .598.136.782.411.368.551.365 1.653-.37 2.207-.738.554-2.204.553-2.572 0l-.002.002c-.367-.552.369-1.656 1.104-2.206.368-.276.736-.414 1.058-.414z"/><g stroke-width=".791"><path d="M30.343 30.472c-.367-.553.369-1.656 1.104-2.207.735-.551 1.471-.551 1.839 0s.367 1.651-.369 2.205c-.737.554-2.205.554-2.573.001zm9.379-7.357c.92.184 1.287 2.39.92 3.862-.367 1.472-1.468 2.207-2.39 2.022s-1.656-1.285-1.288-2.757c.368-1.472 1.84-3.31 2.758-3.127z" opacity=".35"/><path d="M45.79 34.334a16.922 16.922 0 0 1-4.413 5.517 16.926 16.926 0 0 1-4.932 2.792l1.364 1.364a16.913 16.913 0 0 0 5.775-3.052 16.922 16.922 0 0 0 4.414-5.517z" opacity=".5"/></g></g></g></svg>