<svg xmlns="http://www.w3.org/2000/svg" width="64" height="64" viewBox="0 0 16.933 16.933"><rect width="14.816" height="14.816" x="1.058" y="1.058" fill="#f0f0f0" ry="7.408" style="paint-order:stroke markers fill"/><path d="M8.467 1.058c-1.577 0-3.035.49-4.234 1.323H12.7a7.386 7.386 0 0 0-4.233-1.323z" opacity=".35" style="paint-order:stroke markers fill"/><rect width="2.646" height=".529" x="7.144" y="1.58" opacity=".35" ry=".265" style="paint-order:stroke markers fill"/><g stroke-width=".052"><path fill="#fff" d="M5.085 8.47a3.39 3.39 0 0 0 3.39 3.392 3.39 3.39 0 0 0 3.388-3.393 3.39 3.39 0 0 0-3.389-3.392A3.39 3.39 0 0 0 5.085 8.47z"/><path fill="#afe164" d="M6.806 7.773V4.567A4.241 4.241 0 0 0 4.54 6.884L6.806 9.15V7.773z"/><path fill="#d7e664" d="m7.777 6.802 2.268-2.268a4.217 4.217 0 0 0-1.579-.305c-.59 0-1.15.12-1.66.338v3.206z"/><path fill="#ffaa64" d="M12.361 6.802H9.156l.97.97 2.268 2.268a4.215 4.215 0 0 0-.033-3.238z"/><path fill="#ff6469" d="M10.127 9.151v3.206a4.24 4.24 0 0 0 2.267-2.317l-2.267-2.268v1.38z"/><path fill="#c3b4fa" d="M9.156 10.122 6.888 12.39a4.223 4.223 0 0 0 3.238-.034V9.151l-.97.971z"/><path fill="#7dd2f0" d="M7.777 10.122H4.572a4.241 4.241 0 0 0 2.316 2.268l2.268-2.268z"/><path fill="#7de6c3" d="M6.806 9.151 4.54 6.884a4.217 4.217 0 0 0-.306 1.578c0 .59.121 1.15.339 1.66h3.205z"/><path fill="#ffe669" d="M9.156 6.802h3.205a4.241 4.241 0 0 0-2.316-2.268L7.777 6.802z"/></g></svg>