<svg xmlns="http://www.w3.org/2000/svg" width="64" height="64"><rect width="54" height="54" x="5" y="5" fill="#3e4245" rx="27" ry="27" style="paint-order:stroke markers fill"/><path fill="#fff" d="M16 15h19v2H16z"/><circle cx="40" cy="16" r="2" fill="#72d406"/><circle cx="47" cy="16" r="2" fill="#72d406"/><path fill="#fff" d="M11 31h24v2H11z"/><circle cx="40" cy="32" r="2" fill="#72d406"/><circle cx="47" cy="32" r="2" fill="#72d406"/><path fill="#fff" d="M16 47h19v2H16z"/><path d="M6.906 22c-.386.974-.72 1.974-.992 3h52.172a26.803 26.803 0 0 0-.992-3zM5.672 38c.23 1.023.517 2.025.86 3h50.937c.343-.975.629-1.977.86-3z" opacity=".25" style="paint-order:fill markers stroke"/><circle cx="40" cy="48" r="2" fill="#72d406"/><circle cx="47" cy="48" r="2" fill="#72d406"/><circle cx="46" cy="46" r="18" fill="#5687e3" fill-rule="evenodd" style="paint-order:fill markers stroke"/><path fill="#fff" d="M46 34a12 12 0 1 0 0 24 12 12 0 0 0 0-24zm0 2c.346 0 .664.028 1 .062.08.008.17-.01.25 0 .106.014.208.046.312.064.288.044.534.118.814.186.512.128 1.02.298 1.5.5.262.112.498.242.75.376v.062c.056.026.088.134.186.188.036.02.03.044.064.062.056.032.136.068.124.126-.016.08-.132.062-.188.124.008.116-.094.11-.124.188.018.05.116.064.124.124-.01.064-.148.06-.124.126.108.084.21.02.312 0 .224-.028.424-.012.562-.126-.018-.106.2-.09.188-.186.058.04.13.08.188.124-.022.02-.04.052-.064.062-.04.02-.086.04-.124.064l-.188.124c-.046.032-.14.188-.186.188-.06 0-.146-.076-.188-.064-.06.02-.058.102-.126.126-.132.048-.392-.072-.436.126.056.114.274.06.374.124a.62.62 0 0 1 .188.25 1.18 1.18 0 0 1 0 .376c-.062.16-.254.126-.438.124h-.126c-.308-.02-.61-.16-.75.062.01.17.04.29 0 .438-.026.108-.192.22-.186.312 0 .048.112.12.124.188.008.036-.016.09 0 .126.052.098.16-.02.25 0 .088.02.188.15.188.25a.52.52 0 0 1-.062.25c-.088.132-.25.114-.376.186-.104.06-.124.21-.186.314-.066.112-.152.152-.126.312a.73.73 0 0 1-.376.374c-.054.024-.136.028-.186.064-.04.028-.07.122-.126.186-.07.08-.15.128-.186.188-.03.046-.034.124-.064.188-.044.084-.132.102-.186.186-.026.04-.036.136-.064.188-.064.116-.136.212-.124.314.01.096.12.1.124.186.006.048-.064.072-.062.126.002.076.056.126.062.186.014.148-.096.212-.124.314-.014.048.012.084 0 .124-.024.074-.124.162-.126.25 0 .062.12.1.126.188.004.058-.074.132-.064.188.022.108.23.228.314.312.114.114.262.192.312.312.042.102.048.3.126.376.056.056.176.064.25.124.068.054.112.066.186.126.122.096.306.326.5.312.102-.02.2-.104.314-.126.118-.02.254-.072.374-.06.092.02.216.066.312.06.1-.02.2-.012.314-.06.198-.088.524-.23.812-.19.22.032.22.278.374.376.176.02.298-.034.438 0 .106.026.24.166.25.25.01.086-.114.196-.126.25-.026.116.02.24 0 .312-.016.06-.064.13-.06.188 0 .052.07.18.124.25.066.084.17.16.25.25.146.168.21.34.312.562.026.056-.024.116 0 .188-.044.336-.156.566-.376.938-.102.12-.252.224-.25.374-.006.36.204.59.188.938-.036.468.036.5 0 .75.16.08.046.334 0 .5-.068.198-.148.242-.186.376.106.046.256.026.374 0l-.188.186a10.406 10.406 0 0 1-1.5 1.25 9.88 9.88 0 0 1-3.436 1.5A9.97 9.97 0 0 1 46 56c-.38 0-.756-.02-1.126-.062-.292-.034-.588-.068-.874-.126-.566-.116-1.098-.354-1.626-.562-.018-.034-.066-.084-.06-.126.102-.044.298.148.374 0 .038-.07-.05-.24 0-.312.036-.048.238-.048.312-.062.106-.02.252-.034.312-.062.066-.042.138-.19.126-.314-.006-.058-.08-.072-.126-.124-.038-.044.026-.084 0-.126-.048-.07-.168-.084-.186-.186.142-.028.354.12.56.062.1-.028.268-.22.314-.312.014-.028-.016-.09 0-.126.018-.036.056-.104.062-.124.014-.054-.012-.028 0-.064.036-.1.128-.176.188-.25.046-.056.146-.128.188-.186.048-.062.03-.07.062-.126.03-.18-.106-.34-.062-.5.048-.18.326-.292.5-.374.06-.028.138-.046.186-.064.12-.04.264-.084.376-.124.188-.068.22-.204.312-.376.044-.08.118-.19.126-.25.008-.052-.01-.062 0-.124.01-.058-.016-.12 0-.188.02-.086.062-.28.062-.374 0-.08-.06-.116-.062-.188-.014-.26.092-.234.186-.376.048-.07.092-.2.126-.25.162-.24.458-.322.438-.686-.008-.12-.1-.4-.188-.438-.05-.022-.114-.036-.188-.062-.236-.088-.44-.356-.686-.376H45.5c-.096 0-.204-.048-.312-.062-.068-.02-.21.02-.25 0-.062-.03-.076-.154-.126-.188-.04-.028-.126-.04-.186-.062-.1-.036-.138-.118-.25-.126-.036 0-.086.02-.126 0-.062-.02-.13-.026-.188-.06-.072-.046-.158-.064-.186-.126.066-.216-.144-.25-.188-.376-.02-.058.02-.198 0-.25-.026-.074-.106-.124-.188-.186a.748.748 0 0 0-.438-.188c-.092-.02-.202.02-.312 0a.712.712 0 0 1-.376-.188c-.084-.098-.112-.204-.186-.25-.07-.044-.14-.08-.188-.126-.022-.02-.042-.016-.062-.06-.036-.076-.108-.1-.064-.19-.08-.04-.038.078-.124.064-.078-.11-.136-.22-.312-.188-.08.02-.156.186-.25.188-.08 0-.148-.172-.25-.188-.08-.02-.196.072-.25.062-.086-.02-.11-.072-.188-.124-.058-.04-.156-.128-.188-.126-.1 0-.174.2-.312.126-.068-.086.142-.108.062-.188-.06-.058-.076.034-.124.062-.056.036-.126.04-.188.064-.138.052-.268.066-.376.124a.37.37 0 0 0-.186.188c-.046.084-.118.246-.188.25-.084 0-.112-.092-.188-.126-.23-.1-.372.06-.562.064-.176 0-.446-.272-.438-.44.006-.1.052-.248.064-.374.008-.1.122-.22.124-.312.002-.124-.232-.174-.312-.188-.188-.034-.412.084-.626 0-.04-.068.04-.12.064-.186.012-.036-.014-.084 0-.126.022-.064.156-.12.186-.188.022-.052-.02-.12 0-.186.026-.072.12-.136.126-.188.008-.068-.072-.144-.126-.188-.166.02-.28.014-.374.062-.216.1-.158.37-.376.438a1.828 1.828 0 0 1-.25.062c-.036.02-.084-.004-.124 0 .004-.02-.004-.04 0-.062.008-.046.052-.08.062-.126A9.82 9.82 0 0 1 36.876 42h.06c.078.02.124.12.19.126.182.02.222-.17.374-.25.156.02.234-.02.376 0 .096.02.236.116.312.124.064 0 .064-.07.124-.062.06.02.178.114.188.186.01.09-.088.214-.062.314.094.096.304.13.436.186.088-.074.014-.208 0-.312 0-.046.006-.144 0-.186-.008-.072-.06-.126-.06-.188 0-.286.244-.388.436-.5.082-.048.178-.152.25-.188.102-.05.166-.014.25-.062.152-.086.258-.216.376-.314.054-.13-.006-.308 0-.436.054-.034.128 0 .186 0 .092-.02.136-.136.188-.188.03-.03.088-.032.126-.062.09-.072.106-.156.186-.188a.52.52 0 0 1 .126-.062c.06-.02.154-.028.25-.064.06-.02.226-.036.25-.06.03-.032-.008-.144 0-.19.048-.224.36-.236.562-.312.14-.052.28-.214.438-.186-.03.108-.152.12-.126.25.034.18.25-.038.314-.064.12-.052.34-.126.5-.186.14-.05.38-.09.25-.25-.11-.02-.156.084-.25.124-.066.02-.07-.056-.126-.062-.054 0-.07.072-.126.062-.054-.02-.116-.12-.124-.188-.022-.168.12-.188.188-.312-.046-.152-.248-.066-.376-.126a.226.226 0 0 1 .188-.186c.086-.02.324.016.376.062.03.026-.046.084 0 .126.052.046.12.02.186 0 .024-.114-.144-.052-.124-.126.136-.088.396-.04.562-.062a1.36 1.36 0 0 0 .312-.126c.08-.046.104-.138.188-.062.024.082-.016.144-.062.188-.154.136-.318.28-.438.436.074.072.188.05.312.064.048.02.138-.01.188 0 .06.02.14-.02.188 0 .084.02.104.186.186.186.136 0 .08-.16 0-.25.024-.094.098-.182.064-.25-.062-.124-.3.038-.314-.124-.006-.1.09-.112.126-.188-.016-.192.144-.2.126-.374-.01-.072-.076-.058-.126-.126-.026-.036-.032-.16-.062-.186-.104-.088-.3-.02-.314-.188-.004-.1.014-.206 0-.314-.012-.1-.1-.416-.186-.436-.112-.024-.18.186-.314.25a.752.752 0 0 1-.312.062c-.048-.02-.12-.03-.124-.126-.008-.084.094-.12.124-.186.008-.016-.004-.04 0-.064.146-.04.29-.09.438-.124.084-.02.166-.046.25-.062.06-.012.128.01.188 0A10.016 10.016 0 0 1 46 36zm-4.062.938c-.064.364-.406.51-.814.5-.09.088-.012.252-.06.374-.044.102-.212.196-.314.188-.074 0-.188-.118-.188-.188 0-.086.138-.088.064-.186.002-.02.04-.044.06-.064.042-.024.086-.038.126-.062.362-.224.734-.386 1.126-.562zm8.374.374c-.036.02-.03.044-.062.064-.076.046-.13.102-.188.124-.08.03-.174.05-.186.126-.01.06.064.066.06.124-.028.074-.044.098-.06.188.1.166.31-.038.436-.064.056-.02.096-.014.126-.06.034-.056.036-.112.062-.19.028-.084.136-.112.126-.186-.008-.074-.19-.136-.314-.126zm-10.936 1.25c.094.076.228.24.06.314a1.032 1.032 0 0 1-.31.06c-.02 0-.046-.046-.064-.06.104-.1.206-.218.314-.314zm.374.376c.048 0 .068.12.126.124.054 0 .092-.07.124-.062.084.022.142.188.062.25-.066.02-.076-.07-.124-.062-.136.024-.212.32-.314.312-.096-.02-.16-.242-.06-.312 0-.06-.006-.064 0-.126.028-.036.106-.13.186-.124zm-.5.062c.028 0 .052-.02.062 0-.014.106-.042.138-.124.188-.142.086-.266.192-.314.374-.012.054-.18.2-.25.188-.156-.034.09-.33.126-.376.04-.05.08-.066.126-.124.044-.056.08-.156.124-.188a.492.492 0 0 1 .25-.062zm13.562.312c.16-.02.24.156.314.25.06.08.214.196.312.25.056.03.124.098.186.126.13.058.37.246.376.374.002.064-.072.128-.062.188.098.02.184-.152.186-.25.184.26.342.536.5.812.076.132.18.24.25.376-.088.026-.11.04-.124.124-.02.112.042.294-.126.314-.104.02-.228-.092-.374-.126-.06-.02-.14.02-.188 0-.11-.036-.092-.184-.186-.25a1.002 1.002 0 0 0-.314-.126c-.054 0-.068.02-.124 0-.068-.02-.194.028-.25 0a.642.642 0 0 1-.188-.186c-.022-.074.184-.126.188-.188.004-.048-.054-.114-.064-.188-.006-.044.01-.094 0-.124-.014-.052-.104-.06-.186-.064h-.188c-.088 0-.266-.008-.376 0-.066 0-.124-.006-.186 0-.174.02-.302-.02-.438 0a1.256 1.256 0 0 0-.376.126l-.124.062a.822.822 0 0 1-.126.064c-.054.026-.132.108-.186.124-.08.02-.172-.02-.314 0-.1 0-.246-.066-.25-.188 0-.186.326-.09.5-.124.066-.02.108-.078.188-.126.04-.02.028-.038.064-.062.06-.042.176-.14.186-.188.008-.044-.006-.09 0-.124.008-.042.072-.07.126-.126.084-.084.146-.196.25-.25.07-.036.154-.066.186-.124.008-.064 0-.066 0-.126A.26.26 0 0 1 52 39.5c.108-.024.186.006.312 0 .054 0 .13.026.188 0 .048-.032.076-.1.126-.126a.494.494 0 0 1 .186-.06zm1.126 1.188h-.25c-.088 0-.2-.046-.25 0 .074.12.208.158.374.188a.386.386 0 0 0 .126-.188zM40.25 39.374h.188c.05 0 .104-.02.124 0-.032.132-.334.112-.436.064.004-.05.06-.056.124-.064zm-.438.25c-.086.064-.174.146-.312.188-.076.024-.174.022-.188-.062-.016-.104.12-.052.188-.062.088-.02.21-.06.312-.064zm13 0c-.066.022-.098.168 0 .188.046-.028.076-.1.064-.186-.026-.028-.044-.02-.064 0zm-.124.314c0 .112.02.214 0 .312.064.124.218.02.25-.062.038-.208-.03-.276-.126-.25-.032.02-.09-.026-.124 0zm-16.564 4.686c.114.102.18.246.314.314a.94.94 0 0 0 .186.062c.054.02.076-.016.126 0 .106.036.228.086.312.126.128.056.266.248.376.312.004.064-.02.14 0 .186.052.07.102.14.186.188.102.056.156.144.25.188.034.02.074-.02.126 0 .132.04.2.22.312.188.074-.022.052-.116.064-.188.05-.054.108-.126.186-.126.124 0 .142.192.188.314.026.068.108.114.126.186a1.886 1.886 0 0 1 0 .564c-.034.092-.176.086-.25.186-.036.048-.036.154-.064.188-.048.06-.088.07-.124.126a.9.9 0 0 0-.064.124c-.06.128-.174.22-.124.376.02.06.126.112.126.186 0 .088-.174.154-.188.25-.01.07.04.158.062.25.016.07.146.142.188.188.07.08.124.214.186.314.126.194.19.434.314.624.066.098.206.146.25.25.02.052-.02.14 0 .188.072.16.4.358.562.436.076.04.18.024.25.064.106.06.32.22.376.312.046.084.038.304.06.438.032.176-.006.31 0 .5.008.104.064.146.064.25v.186c-.002.124.01.25 0 .376a1.184 1.184 0 0 0 0 .188c.006.06.06.068.062.124.004.06-.068.142-.062.188.014.126.1.196.126.312.02.092.074.328.06.438-.006.058-.052.12-.06.188-.006.052.006.076 0 .124-.006.046.01.088 0 .126-.064-.04-.126-.084-.188-.126a10.406 10.406 0 0 1-1.5-1.25l-.188-.186a10.4 10.4 0 0 1-1-1.25c-.028-.04-.036-.086-.062-.126a9.648 9.648 0 0 1-.876-1.626c-.018-.04-.044-.08-.062-.124a10.036 10.036 0 0 1-.562-1.938A10.016 10.016 0 0 1 36 46c0-.476.06-.918.126-1.376zM40 45.688c.096-.044.078.11 0 .124-.074.02-.072-.088 0-.124z"/></svg>