<svg xmlns="http://www.w3.org/2000/svg" width="64" height="64"><circle cx="32" cy="32" r="27" fill="#f0f0f0" style="paint-order:stroke fill markers"/><rect width="20" height="15" x="22" y="33" fill="#6d7680" fill-rule="evenodd" rx="2.584" ry="2.584" style="paint-order:stroke fill markers"/><rect width="38" height="28" x="13" y="17" fill="#2f3337" rx="6" ry="6"/><rect width="34" height="24" x="15" y="19" fill="#191b1e" rx="4" ry="4"/><g opacity=".5"><path fill="#fff" d="M22 22h10v1H22zm0 6h8v1h-8zm0 2h8v1h-8zm0 2h6v1h-6zm0-8h8v1h-8zm0 2h6v1h-6zm0 8h10v1H22zm0 2h6v1h-6z"/><path fill="#41f045" d="M18 22h3v1h-3zm0 2h3v1h-3zm0 2h3v1h-3zm0 2h3v1h-3zm0 2h3v1h-3zm0 2h3v1h-3zm0 2h3v1h-3zm0 2h3v1h-3z"/></g></svg>