<svg xmlns="http://www.w3.org/2000/svg" width="64" height="64" viewBox="0 0 16.933 16.933"><circle cx="8.466" cy="8.466" r="7.144" fill="#4d4d4d" style="paint-order:stroke fill markers"/><g fill="#fff" transform="translate(0 .536) scale(.26458)"><rect width="24" height="5" x="20" y="37.975" paint-order="markers stroke fill" ry="1.025"/><circle cx="16" cy="20" r="2" style="paint-order:stroke fill markers"/><circle cx="22" cy="20" r="2" style="paint-order:stroke fill markers"/><circle cx="28" cy="20" r="2" style="paint-order:stroke fill markers"/><circle cx="34" cy="20" r="2" style="paint-order:stroke fill markers"/><circle cx="40" cy="20" r="2" style="paint-order:stroke fill markers"/><circle cx="46" cy="20" r="2" style="paint-order:stroke fill markers"/><circle cx="13" cy="26" r="2" style="paint-order:stroke fill markers"/><circle cx="19" cy="26" r="2" fill="#ff8080" style="paint-order:stroke fill markers"/><circle cx="25" cy="26" r="2" style="paint-order:stroke fill markers"/><circle cx="31" cy="26" r="2" style="paint-order:stroke fill markers"/><circle cx="37" cy="26" r="2" style="paint-order:stroke fill markers"/><circle cx="43" cy="26" r="2" fill="#ff8080" style="paint-order:stroke fill markers"/><circle cx="49" cy="26" r="2" style="paint-order:stroke fill markers"/><circle cx="15" cy="32" r="2" fill="#ff8080" style="paint-order:stroke fill markers"/><circle cx="21" cy="32" r="2" fill="#ff8080" style="paint-order:stroke fill markers"/><circle cx="27" cy="32" r="2" style="paint-order:stroke fill markers"/><circle cx="33" cy="32" r="2" style="paint-order:stroke fill markers"/><circle cx="39" cy="32" r="2" style="paint-order:stroke fill markers"/><circle cx="45" cy="32" r="2" style="paint-order:stroke fill markers"/><circle cx="51" cy="32" r="2" style="paint-order:stroke fill markers"/></g><circle cx="13.229" cy="13.229" r="3.175" fill="#999"/><path fill="#fff" d="m12.753 11.324-.042.502a1.497 1.497 0 0 0-.438.253l-.456-.215-.476.825.414.287a1.497 1.497 0 0 0-.023.253 1.497 1.497 0 0 0 .022.254l-.413.286.476.825.455-.214a1.497 1.497 0 0 0 .439.251l.042.503h.952l.042-.502a1.497 1.497 0 0 0 .438-.253l.456.215.476-.825-.414-.288a1.497 1.497 0 0 0 .023-.252 1.497 1.497 0 0 0-.022-.254l.413-.286-.476-.825-.455.214a1.497 1.497 0 0 0-.439-.251l-.042-.503zm.476 1.27a.635.635 0 0 1 .635.635.635.635 0 0 1-.635.635.635.635 0 0 1-.635-.635.635.635 0 0 1 .635-.635z"/></svg>