<svg xmlns="http://www.w3.org/2000/svg" width="64" height="64"><path fill="#638df5" d="M32 5A27 27 0 0 0 5 32h27V5z" style="paint-order:stroke fill markers"/><path fill="#4a4a4f" d="M32 5v27H5a27 27 0 0 0 27 27 27 27 0 0 0 27-27A27 27 0 0 0 32 5z" style="paint-order:stroke fill markers"/><path fill-rule="evenodd" d="M32 5v27H5a27 27 0 0 0 .05 1H31v25.965A27 27 0 0 0 32 59a27 27 0 0 0 1-.05V33h25.965A27 27 0 0 0 59 32a27 27 0 0 0-.05-1H33V5.035A27 27 0 0 0 32 5z" opacity=".15" style="paint-order:fill markers stroke"/></svg>