<svg xmlns="http://www.w3.org/2000/svg" width="64" height="64"><circle cx="32" cy="32" r="27" fill="#7bbbeb" style="paint-order:stroke fill markers"/><path fill="#39719b" d="M36 38h15v4H36zm-23 0h15v4H13zm0-16h15v4H13zm23 0h15v4H36zm0 8h15v4H36zm-23 0h15v4H13z"/><path fill="#333" d="M32 8A24 24 0 0 0 8 32a24 24 0 0 0 24 24 24 24 0 0 0 24-24A24 24 0 0 0 32 8zm0 2a22 22 0 0 1 22 22 22 22 0 0 1-22 22 22 22 0 0 1-22-22 22 22 0 0 1 22-22z" style="paint-order:stroke fill markers"/><path fill="#fff" d="M19 11a1 .875 0 0 0-1 .875v40.25a1 .875 0 0 0 2 0v-40.25A1 .875 0 0 0 19 11zm6 0a1 .875 0 0 0-1 .875v40.25a1 .875 0 0 0 2 0v-40.25A1 .875 0 0 0 25 11zm14 0a1 .875 0 0 0-1 .875v40.25a1 .875 0 0 0 2 0v-40.25A1 .875 0 0 0 39 11zm6 0a1 .875 0 0 0-1 .875v40.25a1 .875 0 0 0 2 0v-40.25A1 .875 0 0 0 45 11z"/><rect width="2" height="46" x="31" y="9" fill="#333" fill-rule="evenodd" rx="0" ry="0" style="paint-order:stroke fill markers"/></svg>