<svg xmlns="http://www.w3.org/2000/svg" width="64" height="64"><circle cx="32" cy="32" r="27" fill="#f0f0f0" style="paint-order:markers stroke fill"/><g transform="translate(13.285 8.928) scale(.67858)"><path fill="#2f3133" d="M20.254 22.904c.72-2.852.026-5.884.126-8.824.22-6.42 3.784-7.876 7.438-8.066 4.192-.22 9.154 2.264 9.454 8.32.142 2.898-.37 5.892.378 8.696 1.742 6.54 9.22 11.262 9.328 18.026.1 6.428-2.86 14.004-8.32 17.396-2.82 1.752-6.646-.35-9.96-.126-3.686.252-7.786 3.526-10.966 1.64-5.772-3.426-7.364-12.21-6.932-18.91.44-6.808 7.784-11.536 9.454-18.152z"/><ellipse cx="30.52" cy="17.564" fill="#fcfcfc" fill-opacity=".941" rx="2.964" ry="3.832"/><ellipse cx="23.5" cy="17.698" fill="#fcfcfc" fill-opacity=".941" rx="2.094" ry="3.12"/><ellipse cx="30.152" cy="18.188" fill="#232629" rx="1.214" ry="2.006"/><ellipse cx="23.51" cy="18.188" fill="#232629" rx=".924" ry="1.494"/><path fill="#f7f7f8" d="M30.128 21.514a10.136 10.136 0 0 0-1.09.008c-2.46.144-5.096 1.11-6.428 2.28-2.132 1.874-.868 3.696-1.786 6.328s-3.228 6.076-3.92 9.36c-.28 1.326-.636 2.652-.88 3.984l6.586 8.048c1.294 1.58-2.082.994-5.222-1.04 2.228 3.134 6.648 6.24 11.012 5.946 4.648-.312 10.136-5.172 11.892-9.146-1.704-.288-3.36-2.852-1.996-4.762.474-.662 1.492-.72 2.366-.58-.526-2.036-1.574-3.86-2.1-5.392-.912-2.672-1.972-3.42-2.94-5.792-.97-2.372.054-6.76-2.676-8.468-.768-.48-1.75-.72-2.818-.774z"/><path fill="#f7a931" d="M9.666 46.73c.974-.78 1.43-2.366 2.646-2.648.952-.22 2.02.326 2.774.946 1.722 1.416 1.984 4.028 3.34 5.8.904 1.178 2.436 1.848 3.152 3.15.746 1.36 1.708 3.156 1.008 4.538-.944 1.862-3.648 2.44-5.736 2.52-1.268.05-2.37-.92-3.592-1.26-1.78-.496-3.834-.19-5.42-1.134C6.58 57.896 5.092 56.76 5 55.302c-.038-.576.805-.89.945-1.45.372-1.472-1.054-3.18-.378-4.54.72-1.444 2.836-1.574 4.098-2.582zm28.194-2.192c-.402.36-.742.814-.99 1.264-1.076 1.954-.35 4.48-.954 6.626-.404 1.43-1.578 2.62-1.76 4.092-.19 1.54-.42 3.564.742 4.59 1.568 1.38 4.294.914 6.262.216 1.198-.424 1.86-1.732 2.87-2.5 1.468-1.12 3.49-1.6 4.614-3.062.89-1.16 1.854-2.764 1.4-4.152-.18-.548-1.076-.53-1.414-.998-.89-1.23-.2-3.34-1.33-4.352-.84-.75-2.074-.664-3.266-.696-.576 1.234-2.452 2.074-3.742 1.716-1.092-.304-2.18-1.546-2.432-2.744zM26.462 18.304c1.318-.07 2.53.784 3.72 1.354 1.15.554 3.114.72 3.276 1.986.186 1.438-1.84 2.286-3.024 3.12-1.058.746-2.238 1.62-3.53 1.608-1.306-.014-2.462-.95-3.53-1.702-.88-.62-2.266-1.192-2.3-2.27-.038-1.152 1.38-1.886 2.3-2.584.912-.692 1.944-1.452 3.088-1.512z"/></g></svg>