<svg xmlns="http://www.w3.org/2000/svg" width="64" height="64"><rect width="54" height="54" x="5" y="5" fill="#4d4d4d" rx="27"/><path fill="#fff" d="M31.953 5A27 27 0 0 0 6.768 22.357h.114l5.785-1.929 3.858 3.857v-3.857l3.857-1.928v-1.93l3.857-1.928 3.857-3.857v1.928l1.928-1.928-1.928-1.93h3.857v1.93l3.857-1.93-1.929-1.928V5.096A27 27 0 0 0 31.953 5zm20.009 8.92-.723.723v1.928h2.833a27 27 0 0 0-2.11-2.651zm2.538 3.247-7.118 7.119-1.929 5.785V32l3.857 3.857 3.857 1.929 5.383-1.327a27 27 0 0 0 .403-4.46A27 27 0 0 0 54.5 17.168zM8.81 26.214l-1.929 1.929H5.265a27.18 27.18 0 0 0-.218 1.973v.004L8.81 32l1.929 1.929 3.857 1.928 1.928 1.929-1.928 1.928v3.858l1.928 3.857 3.857 3.857v5.07A27 27 0 0 0 31.952 59c.328-.006.656-.017.984-.035l.945-1.894v-1.928l3.857-1.929 1.929-1.929v-3.857l1.928-1.928v-1.93l-1.928-1.928-5.786-1.929-3.857-3.857h-1.929l-1.928-1.929L20.38 32l-3.857 1.928h-3.857v-3.857h-1.929v-3.857z" opacity=".5"/><path fill="#ffdb4e" d="M30.09 18c-3.554 0-5.044 1.412-5.044 5.02v2.882c0 2.228-.068 4.808-2.03 4.808H22v2.58h1.016c1.962 0 2.03 2.58 2.03 4.808v2.882c0 3.608 1.49 5.02 5.044 5.02v-2.368c-2.37 0-2.402-.956-2.402-4.42V37.18c0-1.662-.41-4.136-2.406-5.16 1.996-1.026 2.406-3.502 2.406-5.164v-2.068c0-3.464.032-4.42 2.4-4.42zm3.788 0v2.368c2.37 0 2.434.956 2.434 4.42v2.068c0 1.66.41 4.14 2.406 5.164-1.996 1.024-2.406 3.498-2.406 5.16v2.032c0 3.464-.064 4.42-2.434 4.42V46c3.554 0 5.076-1.412 5.076-5.02V38.1c0-2.228.136-4.808 2.066-4.808H42v-2.58h-.98c-1.93 0-2.066-2.58-2.066-4.808V23.02c0-3.608-1.52-5.02-5.076-5.02z"/></svg>