<svg xmlns="http://www.w3.org/2000/svg" width="64" height="64"><path fill="#2196f3" d="M32 5A27 27 0 0 0 5 32a27 27 0 0 0 27 27 27 27 0 0 0 27-27A27 27 0 0 0 32 5z" style="paint-order:markers stroke fill" transform="translate(0 -.008) scale(1.00002)"/><path fill="#fff" d="M25 28V12h9l5 5v11zm2-2h10v-9h-3v-3h-7z"/><path d="M5.002 31.955A27 27 0 0 0 5 32a27 27 0 0 0 27 27 27 27 0 0 0 27-27 27 27 0 0 0-.002-.045H5.002z" opacity=".15" style="paint-order:markers stroke fill" transform="translate(0 -.008) scale(1.00002)"/><path fill="#fff" d="M32 37a8 8 0 0 0-1.536.15l-.054.01c-.266.048-.527.11-.784.19a7.888 7.888 0 0 0-1.535.676 7.085 7.085 0 0 0-.736.468 8.078 8.078 0 0 0-.454.346 6.368 6.368 0 0 0-.189.166 7.127 7.127 0 0 0-.448.42 7.995 7.995 0 0 0-.917 1.145 8.064 8.064 0 0 0-.091.128 7.978 7.978 0 0 0-.406.72 8.013 8.013 0 0 0-.344.794c-.052.137-.112.272-.156.413-.022.07-.033.144-.054.214a7.246 7.246 0 0 0-.152.672 8 8 0 0 0-.094.662v.007A8 8 0 0 0 24 45a8 8 0 0 0 .16 1.59c.048.266.11.527.19.784a7.882 7.882 0 0 0 .676 1.535 7.085 7.085 0 0 0 .468.736 7.405 7.405 0 0 0 .512.643c.136.154.272.307.42.448a7.92 7.92 0 0 0 1.147.917c.041.032.085.06.128.091.19.122.385.232.587.336l.131.07a8.013 8.013 0 0 0 .794.344c.137.052.272.112.413.156.07.022.144.033.216.052a7.504 7.504 0 0 0 .67.154 8 8 0 0 0 .645.091l.017.003h.007A8 8 0 0 0 32 53a8 8 0 0 0 1.536-.15l.054-.01c.266-.048.527-.11.784-.19a7.952 7.952 0 0 0 1.288-.544l.164-.08a8 8 0 0 0 1.2-.81c.032-.027.068-.051.102-.08a8 8 0 0 0 .918-.917c.064-.075.133-.144.194-.219a8 8 0 0 0 .675-1c.063-.106.125-.21.183-.32a8 8 0 0 0 .464-1.096c.025-.072.065-.136.088-.208s.033-.144.052-.216l.007-.02.016-.065a8 8 0 0 0 .222-1.232l.003-.017v-.007A8 8 0 0 0 40 45a8 8 0 0 0-.16-1.59 6.827 6.827 0 0 0-.19-.784c-.02-.061-.055-.116-.076-.176a8 8 0 0 0-1.272-2.364c-.046-.057-.08-.128-.128-.185-.083-.103-.18-.192-.272-.285a8 8 0 0 0-1.345-1.18c-.064-.042-.122-.087-.186-.13a8.032 8.032 0 0 0-.144-.09 7.45 7.45 0 0 0-1.102-.592c-.072-.029-.15-.051-.224-.08-.176-.069-.35-.14-.527-.194-.07-.022-.144-.033-.214-.052l-.02-.007a7.342 7.342 0 0 0-1.297-.238l-.017-.003h-.007A8 8 0 0 0 32 37zm0 1.6a6.4 6.4 0 0 1 3.387.98c-.003.009-.01.009-.013.02.03.06.104.064.173.078l.106.072c.04.055.072.112.096.176a.592.592 0 0 1 0 .224c-.045.116-.165.103-.3.1-.036 0-.065.003-.099 0-.225-.015-.448-.087-.55.075.006.123.027.192 0 .3-.02.079-.104.132-.1.2 0 .034.066.101.074.15.007.027-.01.076 0 .1.039.07.133-.011.2 0 .064.01.125.104.125.176a.432.432 0 0 1-.048.199c-.064.096-.184.073-.277.124-.075.045-.104.15-.148.226-.048.08-.096.109-.076.224a.54.54 0 0 1-.275.277.637.637 0 0 0-.224.176c-.053.054-.123.08-.15.123-.021.032-.003.106-.026.15-.032.061-.085.112-.125.176-.019.028-.054.061-.075.1-.048.083-.109.15-.1.224.006.072.095.088.1.15.003.035-.027.062-.025.1.001.055.02.08.025.126.01.107-.054.15-.075.224-.01.035.008.073 0 .1-.016.053-.1.087-.1.15 0 .046.071.086.074.15.004.043-.032.084-.024.124.016.08.164.19.224.252.084.081.165.137.2.224.032.075.044.195.101.25.042.04.122.058.176.1.05.04.12.058.175.1.088.07.208.209.348.2.076-.006.144-.036.226-.05.086-.015.187-.058.275-.05.067.008.13.054.2.05a.835.835 0 0 0 .25-.076c.144-.062.366-.179.576-.148.16.022.161.203.273.275.128.011.224-.026.327 0 .077.017.166.163.174.224.008.064-.041.112-.05.15-.02.085-.035.197-.049.25-.011.043-.027.083-.026.125 0 .038.061.126.1.176.048.06.116.107.176.174.105.122.15.288.224.45.019.041-.016.05 0 .1-.032.244-.114.405-.274.676-.077.086-.152.19-.15.299-.007.262.136.397.124.65v.009a6.4 6.4 0 0 1-7.035 2.334c0-.008.01-.01.01-.019-.003-.041-.042-.06-.075-.099-.028-.032-.007-.07-.024-.1-.036-.05-.087-.076-.101-.15.105-.02.25.117.4.076.072-.021.192-.16.224-.226.011-.02-.01-.1 0-.125.014-.027.048-.035.051-.05.01-.04-.008-.05 0-.075.026-.075.107-.121.15-.176.032-.04.07-.081.1-.124.035-.045.052-.061.075-.1.022-.132-.082-.233-.05-.35.035-.131.224-.216.35-.275.044-.021.089-.063.125-.075.087-.03.192-.021.276-.05.136-.048.182-.2.25-.325.031-.057.068-.109.074-.15.005-.037-.008-.08 0-.125.008-.043.013-.077.024-.125a1.267 1.267 0 0 0 .026-.25c0-.059-.024-.073-.026-.126-.01-.189.056-.197.127-.299.033-.051.05-.14.073-.176.119-.173.316-.26.301-.525-.006-.086-.037-.272-.1-.299-.036-.016-.12-.005-.175-.026-.171-.064-.296-.259-.475-.275h-.1c-.07 0-.147-.065-.223-.073-.052-.007-.148.014-.176 0-.045-.023-.039-.101-.076-.127-.028-.019-.08-.032-.124-.048a.597.597 0 0 0-.2-.051c-.028-.002-.096.005-.125 0-.047-.008-.083-.048-.125-.075-.053-.032-.08-.055-.1-.1.047-.158-.12-.183-.151-.275-.015-.043.016-.112 0-.15-.018-.054-.064-.08-.125-.125a.683.683 0 0 0-.35-.176c-.066-.008-.144.005-.224 0a.394.394 0 0 1-.25-.125c-.062-.07-.072-.14-.126-.174-.05-.032-.14-.042-.175-.075-.016-.015-.011-.042-.024-.075-.027-.053-.083-.061-.051-.125-.058-.029-.037.037-.1.025-.057-.08-.095-.124-.223-.1-.06.01-.109.099-.176.1-.058 0-.101-.09-.176-.1-.056-.008-.135.059-.175.05-.062-.012-.068-.087-.124-.126-.042-.027-.128-.1-.15-.099-.073 0-.126.154-.225.1-.05-.063.083-.066.024-.125-.043-.044-.064.001-.099.025-.042.027-.08.06-.125.075-.1.037-.173.034-.251.076-.072.036-.082.1-.125.174-.032.06-.099.147-.149.15-.062.004-.12-.076-.176-.1-.166-.072-.26.048-.4.05-.128 0-.304-.204-.299-.326.003-.073.042-.182.048-.275.01-.072.075-.133.077-.2 0-.088-.142-.165-.2-.174-.083-.016-.18 0-.278.01a6.4 6.4 0 0 1 .608-1.844c.006 0 .016.008.02.01.047 0 .056-.058.1-.051.043.008.118.097.124.15.007.064-.043.128-.024.2.068.07.202.109.3.15.064-.052.01-.176 0-.25-.002-.033.003-.07 0-.1-.008-.053-.026-.106-.026-.15 0-.208.16-.293.3-.375.06-.035.124-.099.177-.125.073-.036.112-.04.174-.075a2.07 2.07 0 0 0 .3-.2c.04-.096-.004-.208 0-.3.04-.025.057.003.1 0 .066-.015.087-.113.125-.15.02-.022.098-.028.125-.05.067-.052.067-.127.125-.15.02-.007.067-.015.099-.025.045-.011.105-.051.176-.075.045-.016.157-.008.176-.024.02-.023-.008-.117 0-.15.033-.165.277-.17.424-.225.1-.04.211-.123.325-.1-.023.078-.119.054-.101.148.025.133.179-.032.225-.048.09-.038.26-.059.375-.1.102-.037.272-.108.176-.226-.08-.005-.106.07-.176.1-.048.009-.06-.022-.1-.025-.04-.001-.06.032-.1.026-.039-.008-.093-.08-.1-.127-.015-.121.125-.16.177-.25-.036-.11-.183-.006-.277-.049.01-.065.048-.137.126-.15a.502.502 0 0 1 .25.05c.02.019-.008.07.024.1.038.032.1.008.15 0 .018-.083-.113-.046-.099-.1.098-.065.278-.033.4-.049.069-.01.138-.067.2-.1.058-.034.112-.08.174-.026.016.06-.041.096-.075.125-.112.099-.213.21-.299.325.053.052.134.016.224.025.035.005.09.02.125.026.045.008.091-.008.125 0 .062.014.064.099.126.099.098 0 .106-.083.048-.15.02-.07.051-.128.026-.176-.045-.088-.216.016-.224-.1-.007-.072.073-.094.099-.148-.011-.141.115-.15.1-.276-.007-.052-.063-.05-.1-.1-.02-.026-.029-.08-.05-.1-.019-.016-.045-.022-.069-.032A6.4 6.4 0 0 1 32 38.6zm4.328 1.696a6.4 6.4 0 0 1 .722.78c-.053 0-.104.025-.15.025-.063 0-.194-.032-.274-.026-.048.003-.08.023-.125.026-.128.01-.202-.008-.301 0a1.053 1.053 0 0 0-.275.073c-.032.016-.056.055-.1.076-.02.01-.047.012-.075.025-.041.02-.112.064-.15.075-.056.015-.122-.004-.224 0-.075.004-.2-.01-.202-.1 0-.135.248-.077.376-.1.048-.01.068-.067.125-.1.027-.016.048-.032.075-.05.044-.032.117-.09.125-.125.005-.032-.029-.077-.025-.1.006-.031.06-.061.1-.1.061-.06.1-.136.176-.176.05-.027.15-.033.175-.073.006-.048-.002-.06 0-.101l.027-.027zm-10.704 4.166c.04.056.082.112.126.138.004.048-.016.09 0 .125.037.051.112.067.176.1.072.04.104.143.173.175.026.01.064-.011.101 0 .096.029.117.176.2.15.054-.016.066-.097.075-.15.037-.038.067-.1.125-.1.09 0 .117.113.15.2.018.049.061.097.076.15a1.314 1.314 0 0 1 0 .4c-.024.067-.12.102-.176.176-.026.033-.055.076-.076.099-.033.043-.073.06-.099.1-.016.021-.011.07-.025.1-.044.093-.112.163-.076.275.016.045.076.096.076.15 0 .064-.14.08-.15.15-.007.05.058.156.074.225.012.051.096.091.125.125.051.057.104.128.15.2.093.14.137.312.225.45.048.071.144.124.176.2.016.038-.015.116 0 .15.052.118.307.241.425.3.055.028.1.047.15.076.077.043.236.13.274.2.035.06.058.201.075.299.023.128-.006.237 0 .376.004.075.026.123.026.2v.099c-.002.09.008.184 0 .275v.112a6.4 6.4 0 0 1-2.374-5.525z"/></svg>