<svg xmlns="http://www.w3.org/2000/svg" width="64" height="64"><circle cx="32" cy="32" r="27" fill="#f0f0f0" style="paint-order:stroke fill markers"/><g transform="translate(-245.241 -319.367) scale(.67857)"><rect width="32" height="56" x="392.57" y="489.8" fill="#35373a" rx="2" ry="2"/><rect width="28" height="44" x="394.57" y="495.8" fill="#fff" opacity=".2" rx="1" ry="1"/><rect width="12" height="2" x="402.57" y="491.8" fill="#212324" rx="1" ry="1"/><path fill="#fff" d="M405.57 509.8a1 1 0 1 0 0 2 1 1 0 0 0 0-2zm7 0-2 2 4 4-4 4 2 2 6-6-2-2zm-10 6a2 2 0 1 0 0 4 2 2 0 0 0 0-4zm5 6a3 3 0 1 0 0 6 3 3 0 0 0 0-6z"/></g></svg>