<svg xmlns="http://www.w3.org/2000/svg" width="64" height="64"><rect width="55.999" height="55.999" x="4" y="4" fill="#86aeff" ry="28" style="paint-order:stroke markers fill"/><path d="M32 4c-5.96 0-11.47 1.85-16 5h32c-4.53-3.15-10.04-5-16-5z" opacity=".35" style="paint-order:stroke markers fill"/><rect width="10" height="2" x="27" y="5.972" opacity=".35" ry="1.002" style="paint-order:stroke markers fill"/><g stroke-width=".667" transform="matrix(1.5 0 0 1.5 -569.54 -768.7)"><path fill="#fff" d="M388.57 526.8v6h7v-5h-3l-1-1z"/><path fill="#fff" d="M388.57 534.8v6h7v-5h-3l-1-1z" opacity=".75"/><path fill="#ffa86d" d="M398.57 526.8v6h5v-4l-2-2z"/><path fill="#ff7214" fill-rule="evenodd" d="m401.57 526.8 2 2h-2z"/><path fill="#94d669" d="M398.57 534.8v6h5v-4l-2-2z"/><path fill="#67b632" fill-rule="evenodd" d="m401.57 534.8 2 2h-2z"/><rect width="6" height="6" x="406.57" y="526.8" fill="#fff" rx="0"/><rect width="4" height="2" x="407.57" y="528.8" opacity=".15" rx="1"/><rect width="2" height="2" x="409.57" y="528.8" fill="#3daee9" rx="1"/></g></svg>