<svg xmlns="http://www.w3.org/2000/svg" width="64" height="64" viewBox="0 0 16.934 16.934"><circle cx="8.467" cy="8.467" r="7.144" fill="#2d3135" style="paint-order:markers stroke fill"/><g fill="#fff" stroke-width=".265"><path d="M4.559 4.763a.33.33 0 0 0-.325.336v5.942a.33.33 0 0 0 .325.337h1.262l.692.793h3.908l.692-.793h1.262a.33.33 0 0 0 .325-.337V5.099a.33.33 0 0 0-.325-.336zm.733 1.058h6.35v4.498h-1.058l-.794.794H7.144l-.53-.794H5.293z" style="paint-order:markers stroke fill"/><path d="m7.144 11.113-.53-.794H5.293V5.821h6.35v4.498h-1.058l-.794.794z" opacity=".35"/><path d="M6.086 6.615h.793V5.82h-.793zm1.323 0h.793V5.82H7.41zm1.323 0h.793V5.82h-.793zm1.323 0h.793V5.82h-.793z" opacity=".5"/></g></svg>