<svg xmlns="http://www.w3.org/2000/svg" width="64" height="64"><rect width="54" height="54" x="5" y="5" fill="#3e4245" rx="27" ry="27" style="paint-order:stroke markers fill"/><path fill="#fff" d="M16 15h19v2H16z"/><circle cx="40" cy="16" r="2" fill="#72d406"/><circle cx="47" cy="16" r="2" fill="#72d406"/><path fill="#fff" d="M11 31h24v2H11z"/><circle cx="40" cy="32" r="2" fill="#72d406"/><circle cx="47" cy="32" r="2" fill="#72d406"/><path fill="#fff" d="M16 47h19v2H16z"/><path d="M6.906 22c-.386.974-.72 1.974-.992 3h52.172a26.803 26.803 0 0 0-.992-3zM5.672 38c.23 1.023.517 2.025.86 3h50.937c.343-.975.629-1.977.86-3z" opacity=".25" style="paint-order:fill markers stroke"/><circle cx="40" cy="48" r="2" fill="#72d406"/><circle cx="47" cy="48" r="2" fill="#72d406"/><circle cx="46" cy="46" r="18" fill="#6156e3" fill-rule="evenodd" style="paint-order:fill markers stroke"/><path fill="#fff" d="M52 46c-1.662 0-3 1.338-3 3v3h-2v6h10v-6h-2v-3c0-1.662-1.338-3-3-3zm0 2c.554 0 1 .446 1 1v3h-2v-3c0-.554.446-1 1-1zm-7 0a10 9 0 0 0-10 9 10 9 0 0 0 .066 1H45v-2h-7.91A8 7 0 0 1 45 50zm0-14a6 6 0 0 0-6 6 6 6 0 0 0 6 6 6 6 0 0 0 6-6 6 6 0 0 0-6-6zm0 2a4 4 0 0 1 4 4 4 4 0 0 1-4 4 4 4 0 0 1-4-4 4 4 0 0 1 4-4z"/></svg>