<svg xmlns="http://www.w3.org/2000/svg" width="64" height="64"><linearGradient id="b" x1="19.577" x2="16" y1="12.05" y2="12.05" gradientTransform="translate(44.967 1009.3)" gradientUnits="userSpaceOnUse"><stop offset="0" stop-color="#fff" stop-opacity="0"/><stop offset="1" stop-color="#fcfcfc"/></linearGradient><linearGradient id="a" x1="19.514" x2="15" y1="15.555" y2="11" gradientTransform="translate(44.967 1009.3)" gradientUnits="userSpaceOnUse"><stop offset="0" stop-color="#f3f3f3"/><stop offset="1" stop-color="#fcfcfc" stop-opacity="0"/></linearGradient><circle cx="32" cy="32" r="27" fill="#f0f0f0" style="paint-order:stroke fill markers"/><rect width="20" height="15" x="22" y="33" fill="#6d7680" fill-rule="evenodd" rx="2.584" ry="2.584" style="paint-order:stroke fill markers"/><rect width="38" height="28" x="13" y="17" fill="#2f3337" rx="6" ry="6"/><rect width="34" height="24" x="15" y="19" fill="#7e57c2" rx="4" ry="4"/><g stroke-width=".5"><path fill="url(#a)" d="M60.967 1015.3a6 6 0 0 0-6 6 6 6 0 0 0 6 6 6 6 0 0 0 6-6 6 6 0 0 0-6-6zm0 1a5 5 0 0 1 5 5 5 5 0 0 1-5 5 5 5 0 0 1-5-5 5 5 0 0 1 5-5z" transform="translate(-49.29 -1330.74) scale(1.33334)"/><path fill="url(#b)" d="M60.967 1015.3a6 6 0 0 0-6 6 6 6 0 0 0 6 6 6 6 0 0 0 4.215-1.736l-.701-.71a5 5 0 0 1-3.514 1.446 5 5 0 0 1-5-5 5 5 0 0 1 5-5z" transform="translate(-49.29 -1330.74) scale(1.33334)"/></g></svg>