<svg xmlns="http://www.w3.org/2000/svg" width="64" height="64"><circle cx="32" cy="32" r="27" fill="#999" style="paint-order:stroke fill markers"/><path fill="#cacbcf" d="M32 6A26 26 0 0 0 6 32a26 26 0 0 0 1.04 7.236V37.2a3.113 3.113 0 0 1 3.12-3.12h1.274A21.84 21.84 0 0 0 29.92 48.534v5.306a3.113 3.113 0 0 1-3.12 3.12h-2.007A26 26 0 0 0 32 58a26 26 0 0 0 26-26A26 26 0 0 0 32 6z" style="paint-order:stroke fill markers"/><path fill="#85858a" d="M51 15a2 2 0 1 1-4 0 2 2 0 0 1 4 0z"/><path fill="#fff" d="M50 15a1 1 0 1 0-2 0 1 1 0 0 0 2 0z"/><path fill="#85858a" d="M17 15a2 2 0 1 1-4 0 2 2 0 0 1 4 0z"/><path fill="#fff" d="M16 15a1 1 0 1 0-2 0 1 1 0 0 0 2 0z"/><path fill="#fff" fill-rule="evenodd" d="M48 27.122C48 35.837 40.837 43 32 43s-16-7.163-16-15.878C16 18.164 23.163 11 32 11s16 7.164 16 16.122"/><path fill="gray" d="M32 10c-9.388 0-17 7.61-17 17 0 9.388 7.612 17 17 17s17-7.612 17-17c0-9.39-7.612-17-17-17zm10.417 27.418a14.714 14.714 0 0 1-4.683 3.159A14.646 14.646 0 0 1 32 41.732c-1.99 0-3.92-.388-5.734-1.155a14.714 14.714 0 0 1-4.683-3.16A14.67 14.67 0 0 1 17.266 27a14.676 14.676 0 0 1 4.316-10.417 14.658 14.658 0 0 1 4.684-3.16A14.632 14.632 0 0 1 32 12.268c1.99 0 3.92.39 5.734 1.157a14.655 14.655 0 0 1 4.683 3.158A14.676 14.676 0 0 1 46.734 27a14.673 14.673 0 0 1-4.316 10.418z"/><g fill="#949496" fill-rule="evenodd" transform="matrix(-1 0 0 1 44 46)"><rect width="1" height="7" rx=".5"/><rect width="1" height="7" x="2" rx=".5"/><rect width="1" height="7" x="4" rx=".5"/><rect width="1" height="7" x="6" rx=".5"/><rect width="1" height="7" x="8" rx=".5"/></g><path fill="#85858a" d="M50 49a2 2 0 1 1-4 0 2 2 0 0 1 4 0z"/><path fill="#fff" d="M49 49a1 1 0 1 0-2 0 1 1 0 0 0 2 0z"/><path fill="#6a6a6a" d="M17 49a2 2 0 1 1-4 0 2 2 0 0 1 4 0z"/><path fill="#fff" d="M16 49a1 1 0 1 0-2 0 1 1 0 0 0 2 0z"/><path fill="#f55" d="M32 14a5.985 5.985 0 0 0-6 6v6h-4v9.322C24.384 38.173 27.978 40 32 40s7.615-1.827 10-4.678V26h-4v-6a5.985 5.985 0 0 0-6-6zm0 2c2.493 0 4 1.092 4 4v6h-8v-6c0-2.908 1.507-4 4-4z"/></svg>