<svg xmlns="http://www.w3.org/2000/svg" width="64" height="64"><rect width="55.999" height="55.999" x="4" y="4" fill="#86aeff" ry="28" style="paint-order:stroke markers fill"/><path d="M32 4c-5.96 0-11.47 1.85-16 5h32c-4.53-3.15-10.04-5-16-5z" opacity=".35" style="paint-order:stroke markers fill"/><rect width="10" height="2" x="27" y="5.972" opacity=".35" ry="1.002" style="paint-order:stroke markers fill"/><path fill="#fff" d="m22.571 20-.91 1.66-1.661.911 1.66.911.911 1.66.91-1.66 1.661-.91-1.66-.911zm6.857 0-.91 1.66-1.661.911 1.66.911.911 1.66.91-1.66 1.662-.91-1.661-.911zm9.693 0-19.12 19.121 4.878 4.878 19.12-19.12zm0 2.438 2.438 2.44-5.702 5.709-2.441-2.44zM26 25.142l-.91 1.66-1.661.911 1.66.91.911 1.662.91-1.661 1.662-.91-1.661-.911z"/></svg>