<svg xmlns="http://www.w3.org/2000/svg" width="64" height="64"><g stroke-width="3.78"><path fill="#5ad85d" d="m51.062 12.941-2.799 2.8c8.982 8.983 8.982 23.546 0 32.528l2.807 2.806a27 27 0 0 0 .86-37.277 27 27 0 0 0-.868-.857zm7.828 16.674.018.232c-.006-.077-.011-.155-.018-.232zm.104 2.674-.008.267c.002-.089.007-.178.008-.267zm-.162 2.674-.034.275.034-.275zm-.44 2.72-.031.139.031-.139zm-.705 2.631-.027.084.027-.084zm-3.582 7.19-.086.12.086-.12zm-1.627 2.086c-.063.074-.126.149-.19.222.065-.073.127-.149.19-.222z" style="paint-order:stroke fill markers"/><path fill="#ffce3d" d="m51.061 12.943-2.797 2.799c6.456 6.455 8.272 15.795 5.447 23.873.072-.205.147-.407.213-.615l3.813 1.207a27 27 0 0 0 1.074-5.065 27 27 0 0 0 .184-2.822v-.031a27 27 0 0 0-7.934-19.346zm2.65 26.672a22.907 22.907 0 0 1-5.447 8.654l.022.022a22.87 22.87 0 0 0 5.425-8.676zm5.18-10 .018.232c-.006-.077-.011-.155-.018-.232zm-1.203 10.699-.027.084.027-.084zm-3.582 7.19-.086.12.086-.12zm-1.627 2.085c-.063.074-.126.15-.19.223.065-.073.127-.149.19-.223z" style="paint-order:stroke fill markers"/><path fill="#ff584c" d="m51.072 12.932-2.809 2.81a22.884 22.884 0 0 1 5.952 10.311l3.863-1.035a27 27 0 0 0-7.006-12.086zm3.404 14.209.026.111-.026-.111zm.211 1.107.028.17-.028-.17zm.139.977c.016.137.037.273.05.41-.014-.137-.033-.273-.05-.41zm4.064.39.018.233c-.006-.077-.01-.155-.018-.232zm-3.964.604c.015.2.032.4.043.6-.01-.2-.028-.4-.043-.6zm.054.961c.01.264.02.527.02.791 0-.263-.01-.527-.02-.791zm.016 1.006zm3.998.103-.008.268c.002-.09.007-.178.008-.268zm-4.04 1.106zm-.097 1.139zm3.975.43-.033.275.033-.276zm-4.131.72c-.034.211-.068.423-.108.633.04-.21.074-.422.108-.633zm3.691 2-.031.139.031-.139zm-.705 2.631-.027.084.027-.084zm-1.209 3.068-.101.21a27 27 0 0 0 .101-.21zm-1.246 2.368c-.045.076-.094.15-.14.226a27 27 0 0 0 .14-.226zm-5.064.353-.166.213c.056-.07.11-.142.166-.213zm-.602.74c-.117.138-.233.277-.353.412.12-.135.236-.273.353-.412zm4.54.66-.087.122.086-.122zm-5.25.143zm4.898.336-.166.223a27 27 0 0 0 .166-.223zm-1.276 1.607c-.063.074-.125.15-.19.223.065-.073.127-.149.19-.223zm-.465.53-.097.105a27 27 0 0 0 .097-.105z" style="paint-order:stroke fill markers"/></g><path fill="#387fe7" d="M51.093 12.912a27 27 0 0 0-38.185 0 27 27 0 0 0 0 38.185 27 27 0 0 0 38.185 0l-2.828-2.828c8.982-8.983 8.982-23.545 0-32.527zm7.799 16.704c.007.077.01.155.016.232a27 27 0 0 0-.016-.232zm.103 2.672c0 .09-.006.179-.008.268a27 27 0 0 0 .008-.268zm-.163 2.674-.033.276a27 27 0 0 0 .033-.276zm-.439 2.72-.032.14a27 27 0 0 0 .032-.14zm-.706 2.632-.026.084a27 27 0 0 0 .026-.084zm-3.582 7.19-.084.12a27 27 0 0 0 .084-.12zm-1.626 2.087-.19.22a27 27 0 0 0 .19-.22z" style="paint-order:stroke fill markers"/><path fill="#fff" d="M40.002 30.002a4 4 0 0 0-4 4v4h-2v8h12v-8h-2v-4a4 4 0 0 0-4-4zm0 2a2 2 0 0 1 2 2v4h-4v-4a2 2 0 0 1 2-2zm-10 0c-7.756 0-14 6.244-14 14h16v-2h-13.82a11.96 11.96 0 0 1 11.82-10c.686 0 1.352.074 2 .196v-2.024a13.308 13.308 0 0 0-2-.172zm0-14c-3.324 0-6 2.676-6 6s2.676 6 6 6 6-2.676 6-6-2.676-6-6-6zm0 2c2.216 0 4 1.784 4 4s-1.784 4-4 4-4-1.784-4-4 1.784-4 4-4z"/></svg>