<svg xmlns="http://www.w3.org/2000/svg" width="64" height="64"><rect width="54" height="54" x="5" y="5" fill="#3e4245" rx="27" ry="27" style="paint-order:stroke markers fill"/><path fill="#fff" d="M16 15h19v2H16z"/><circle cx="40" cy="16" r="2" fill="#72d406"/><circle cx="47" cy="16" r="2" fill="#72d406"/><path fill="#fff" d="M11 31h24v2H11z"/><circle cx="40" cy="32" r="2" fill="#72d406"/><circle cx="47" cy="32" r="2" fill="#72d406"/><path fill="#fff" d="M16 47h19v2H16z"/><path d="M6.906 22c-.386.974-.72 1.974-.992 3h52.172a26.803 26.803 0 0 0-.992-3zM5.672 38c.23 1.023.517 2.025.86 3h50.937c.343-.975.629-1.977.86-3z" opacity=".25" style="paint-order:fill markers stroke"/><circle cx="40" cy="48" r="2" fill="#72d406"/><circle cx="47" cy="48" r="2" fill="#72d406"/><circle cx="46" cy="46" r="18" fill="#ffb12a" fill-rule="evenodd" style="paint-order:fill markers stroke"/><path fill="#fff" d="M46 34a12 12 0 0 0-12 12 12 12 0 0 0 12 12 12 12 0 0 0 6.94-2.23l-1.428-1.43A10 10 0 0 1 46 56a10 10 0 0 1-10-10 10 10 0 0 1 10-10 10 10 0 0 1 10 10 2 4 0 0 1-2 4 2 2 0 0 1-2-2v-8h-2v1.54A6 6 0 0 0 46 40a6 6 0 0 0-6 6 6 6 0 0 0 6 6 6 6 0 0 0 4.46-2h.08A4 4 0 0 0 54 52a4 6 0 0 0 4-6 12 12 0 0 0-12-12zm0 8a4 4 0 0 1 4 4 4 4 0 0 1-4 4 4 4 0 0 1-4-4 4 4 0 0 1 4-4z"/></svg>