<svg xmlns="http://www.w3.org/2000/svg" width="64" height="64"><rect width="55.999" height="55.999" x="4" y="4" fill="#86aeff" ry="28" style="paint-order:stroke markers fill"/><path d="M32 4c-5.96 0-11.47 1.85-16 5h32c-4.53-3.15-10.04-5-16-5z" opacity=".35" style="paint-order:stroke markers fill"/><rect width="10" height="2" x="27" y="5.972" opacity=".35" ry="1.002" style="paint-order:stroke markers fill"/><path fill="#fff" d="M13.643 15a25.03 25.03 0 0 0-1.672 2h12.03v-2H13.642zM9.53 21a24.52 24.52 0 0 0-.867 2H14v-2H9.53zM18 21v2h24v-2H18zM7.992 25c-.19.656-.361 1.322-.498 2H14v-2H7.992zM18 25v2h36v-2H18zM7.182 29a25.366 25.366 0 0 0-.158 2h6.977v-2H7.182zM18 29v2h32v-2H18zM7.023 33c.027.674.08 1.34.159 2H14v-2H7.023zM18 33v2h20v-2H18zM7.494 37c.137.678.308 1.343.498 2H14v-2H7.494zM18 37v2h28v-2H18zm-9.337 4c.261.681.549 1.35.867 2H14v-2H8.662zM18 41v2h24v-2H18zm-7.38 4c.418.69.87 1.357 1.351 2h2.03v-2H10.62zM18 45v2h28v-2H18zm-4.355 4c.117.126.236.25.355.373V49h-.355zM18 49v2h24v-2H18z" opacity=".5" style="paint-order:stroke markers fill"/></svg>