<svg xmlns="http://www.w3.org/2000/svg" width="64" height="64"><path fill="#e4e4e4" d="M32 5c14.912 0 27 12.088 27 27S46.912 59 32 59 5 46.912 5 32 17.088 5 32 5z"/><path fill="#c0274b" d="M17.362 19.087a.714.714 0 0 0-.623.697v12.694c0 .371.33.698.697.698h6.346v2.347h-4.696v2.348h8.548v-4.66l-2.716-2.383H19.6a.498.498 0 0 1-.476-.477v-8.438c-.005-.22.151-.436.367-.477a.434.434 0 0 1 .11 0h13.06c.248 0 .477.234.477.477v3.375h2.384v-5.503a.721.721 0 0 0-.697-.698"/><path fill="#283751" d="m33.327 26.13 2.898 2.348h8.181c.248 0 .477.229.477.476v8.439a.498.498 0 0 1-.477.476h-13.06a.502.502 0 0 1-.476-.476v-1.321l-2.372-2.09v5.539a.71.71 0 0 0 .698.697h6.346v2.348h-4.696v2.348h14.087v-2.348h-4.695v-2.348h6.333c.37 0 .71-.325.71-.697V26.827c0-.368-.33-.697-.71-.697"/><path fill="#ea8e00" fill-rule="evenodd" d="M21.435 26.13 32 35.521v-5.87l8.217 3.522-11.739-9.39v4.401L21.44 26.13"/></svg>