<svg xmlns="http://www.w3.org/2000/svg" width="64" height="64"><path fill="#ececec" d="M32 5c14.912 0 27 12.088 27 27S46.911 59 32 59 5 46.911 5 32 17.088 5 32 5z"/><g stroke-width=".978"><path fill="#4d4d4d" d="M32 14c-9.941 0-18 8.058-18 18a18 18 0 0 0 9.916 16.076l1.143-9.45A9.6 9.6 0 0 1 22.4 32c0-5.301 4.298-9.6 9.6-9.6s9.6 4.299 9.6 9.6a9.604 9.604 0 0 1-2.663 6.62l1.143 9.442A18 18 0 0 0 50 31.999c0-9.94-8.06-18-18-18"/><path fill="gray" d="M32 25.999a6 6 0 0 0-6 6 6 6 0 0 0 2.87 5.112l-1.49 12.263a18 18 0 0 0 4.62.624 18 18 0 0 0 4.617-.612l-1.49-12.275A6 6 0 0 0 38 31.999a6 6 0 0 0-6-6"/></g></svg>