<svg xmlns="http://www.w3.org/2000/svg" width="64" height="64"><defs><linearGradient id="a" x1="23.876" x2="23.876" y1="16.35" y2="31.354" gradientTransform="translate(.231 -.005)" gradientUnits="userSpaceOnUse"><stop offset="0" stop-color="#f62f09"/><stop offset="1" stop-color="#ff0034"/></linearGradient></defs><circle cx="32.001" cy="32" r="27" fill="#e6e6e6" style="paint-order:normal"/><g transform="matrix(.875 0 0 .875 4 5.75)"><path fill="#fcc431" d="M32 49a14 4.167 0 0 0-14 4.167 14 4.167 0 0 0 .299.833h27.418a14 4.167 0 0 0 .283-.833A14 4.167 0 0 0 32 49z"/><path fill="#1c1c1c" d="M47.447 26.929s4.502 4.097 5.07 14.146c0 0 .737 9.772-3.321.038L46.185 33zm-30.894 0s-4.502 4.097-5.07 14.146c0 0-.737 9.772 3.321.038L17.815 33z"/><rect width="32" height="48" x="16" y="6" fill="#1c1c1c" ry="16"/><path fill="#fff" d="M19 33.434V40c0 7.202 5.798 13 13 13s13-5.798 13-13v-6.064a31.542 21.644 0 0 1-12.203 1.709A31.542 21.644 0 0 1 19 33.434z"/><path fill="#d4001b" d="M22.631 31s-2.392 9.422 1.135 11.297c0 0 1.78 1.225 4.41.585 0 0 2.29-.471 1.892-3.877 0 0-.342-4.476.045-6.472z"/><path fill="url(#a)" d="M37.482 16.884c-2.448 5.129-7.22 8.138-13.251 8.138-5.885 0-10.571-2.612-13.09-7.541-1.07-2.094-3.067 3.726-1.664 6.013 2.815 4.59 8.109 7.737 14.213 7.853 6.681.125 12.484-3.417 15.17-8.625.991-1.92-.563-7.545-1.378-5.838z" transform="matrix(1.1779 .016 -.01105 .81398 3.862 11.658)"/><g transform="translate(-69.815 6.318) scale(.79618)"><ellipse cx="127.88" cy="24.638" fill="#242424" opacity=".41" rx="11.079" ry="3.386"/><g fill="#fdfdfd" transform="translate(98.129 .04) scale(1.2308)"><ellipse cx="20.264" cy="12.583" rx="2.649" ry="4.161"/><ellipse cx="27.55" cy="12.583" rx="2.649" ry="4.161"/></g><ellipse cx="123.88" cy="15.364" rx="1.387" ry="2.062"/><path d="M131.14 14.417c.606 0 1.117.575 1.307 1.376.025.105.08.108.08-.004 0-1.138-.621-2.061-1.387-2.061s-1.387.923-1.387 2.061c0 .112.053.116.077.015.188-.806.702-1.387 1.31-1.387z"/><ellipse cx="21.26" cy="12.431" fill="#fefefe" rx=".462" ry=".633" transform="translate(98.129 .04) scale(1.2308)"/><ellipse cx="20.954" cy="13.103" fill="#fefefe" opacity=".6" rx=".272" ry=".285" transform="matrix(1.2293 -.0594 .0594 1.2293 97.38 1.305)"/><path fill="#fcc431" d="M127.88 21.225c-6.239 0-11.298 2.298-11.298 3.272 0 .72 1.908 1.78 4.808 2.497-1.173-1.02-1.844-1.95-1.87-1.926l.154-.002c.796.725 7.46 7.42 16.376-.158l.13-.002a19.62 19.62 0 0 1-2.4 2.254c3.226-.681 5.398-1.8 5.398-2.664 0-1.207-5.06-3.271-11.299-3.271z"/></g></g></svg>