<svg xmlns="http://www.w3.org/2000/svg" width="64" height="64"><path fill="#61544c" d="M32 5c14.912 0 27 12.088 27 27S46.912 59 32 59 5 46.912 5 32 17.088 5 32 5z"/><path fill="#f48e51" d="M31.78 14.543c-3.998 5.456-17.578 20.845-11.797 29.731 4.48 6.882 19.697 6.918 24.119 0 5.76-8.996-8.918-24.279-12.322-29.731"/><path fill="#ffc675" d="M30.416 25.831c-7.842.504-10.517 11.896-7.517 17.085 3.315 5.093 12.878 6.148 18.8 3.184-1.038-1.107-2.482-2.24-4.365-2.722-4.227-1.092-10.554-7.638-7.38-12.002 3.173-4.364 8.435 0 8.435 0s-1.054-4.364-6.337-5.46c-.33-.063-.708-.069-1.05-.085a5.246 5.246 0 0 0-.582 0"/></svg>