<svg xmlns="http://www.w3.org/2000/svg" width="64" height="64"><circle cx="32" cy="32" r="27" fill="#f0f0f0" style="paint-order:stroke fill markers"/><g fill-rule="evenodd"><path fill="#c8c8c8" d="M36.402 17.049a18.58 14.768 17.344 0 0-22.136 8.558 18.58 14.768 17.344 0 0 13.332 19.635 18.58 14.768 17.344 0 0 22.137-8.558 18.58 14.768 17.344 0 0-13.333-19.635m.891 5.715a13.857 11.009 17.344 0 1 9.945 14.64 13.857 11.009 17.344 0 1-16.51 6.377 13.857 11.009 17.344 0 1-9.944-14.639 13.857 11.009 17.344 0 1 16.508-6.379" color="#000"/><path fill="#4f61eb" d="M47.391 47.997 41.433 48l-4.06-6.002s-.655-1.124-1.057-1.45c-.335-.272-.478-.37-.81-.37h-.753l.002 7.814-5.173.003V28.026h11.262s4.564.842 4.657 5.363c.103 5.04-4.411 6.523-4.411 6.523.619.253 5.599 6.917 6.302 8.081m-8.93-15.636-3.656-.003-.002 3.396 3.659-.001s1.694-.005 1.694-1.727c0-1.756-1.694-1.664-1.694-1.664"/></g></svg>