<svg xmlns="http://www.w3.org/2000/svg" width="64" height="64" viewBox="0 0 16.933 16.933"><circle cx="8.466" cy="8.466" r="7.144" fill="#2196f3" style="paint-order:stroke fill markers"/><path fill="#fff" d="M3.61 3.969a6.622 6.622 0 0 0-.443.529H6.35v-.53H3.61ZM2.52 5.556c-.084.172-.16.35-.229.53h1.412v-.53Zm2.241 0v.53h6.35v-.53ZM2.115 6.614c-.05.174-.096.35-.132.53h1.721v-.53Zm2.647 0v.53h9.525v-.53ZM1.9 7.673a6.711 6.711 0 0 0-.042.529h1.846v-.53zm2.862 0v.529h8.467v-.53zM1.858 8.73c.007.178.021.355.042.53h1.804v-.53zm2.904 0v.53h5.292v-.53zm-2.78 1.06c.037.18.082.356.133.53h1.59v-.53Zm2.78 0v.53h7.409v-.53Zm-2.47 1.059c.07.18.145.357.23.529h1.182v-.53H2.292zm2.47 0v.529h6.35v-.53zM2.81 11.906c.11.183.23.359.357.53h.537v-.53zm1.952 0v.53h7.409v-.53zM3.61 12.964l.094.099v-.099zm1.152 0v.53h6.35v-.53z" opacity=".5" style="stroke-width:.264578;paint-order:stroke markers fill"/><g paint-order="stroke markers fill" transform="translate(.982 -279.17)"><circle cx="11.718" cy="291.87" r="3.175" fill="#f55"/><circle cx="11.718" cy="291.87" r="1.588" opacity=".15"/><g fill="#fff"><path d="M11.718 290.522a1.343 1.343 0 0 0-1.343 1.344 1.343 1.343 0 0 0 1.343 1.343 1.343 1.343 0 0 0 1.343-1.343 1.343 1.343 0 0 0-1.343-1.344zm0 .61a.733.733 0 0 1 .733.734.733.733 0 0 1-.733.732.733.733 0 0 1-.733-.732.733.733 0 0 1 .733-.733z"/><path d="M11.474 289.973h.488v.854h-.488zm0 2.93h.488v.855h-.488zm2.137-1.282v.489h-.855v-.489zm-2.931 0v.489h-.855v-.489zm2.55 1.41-.346.346-.604-.605.345-.345zm-2.073-2.072-.345.345-.605-.604.345-.345zm-.605 2.418-.345-.346.605-.604.345.345zm2.073-2.073-.345-.345.604-.604.345.345z"/></g></g></svg>