<svg xmlns="http://www.w3.org/2000/svg" width="64" height="64" viewBox="0 0 16.933 16.933"><g paint-order="stroke markers fill" transform="translate(0 -280.07)"><circle cx="8.466" cy="288.53" r="7.144" fill="#f0f0f0"/><path fill="#4c8fd8" d="M8.318 284.04a4.498 4.498 0 0 0-3.032 1.313 4.498 4.498 0 0 0-.367 5.935l.945-.945a3.175 3.175 0 0 1 .358-4.054 3.175 3.175 0 0 1 3.303-.744v1.136l1.697-1.697a4.498 4.498 0 0 0-2.904-.944z"/><path fill="#6ddce7" d="m12.015 285.779-.945.945a3.175 3.175 0 0 1-.359 4.054 3.175 3.175 0 0 1-3.303.744v-1.137l-1.122 1.123-.575.574a4.498 4.498 0 0 0 5.936-.368 4.498 4.498 0 0 0 .368-5.935z"/></g></svg>