<svg xmlns="http://www.w3.org/2000/svg" width="64" height="64"><path fill="#f7b15b" d="M32 5c14.912 0 27 12.088 27 27S46.911 59 32 59 5 46.911 5 32 17.088 5 32 5z"/><path fill="#3d3d3d" d="M32 14a18 18 0 0 0-18 18 18 18 0 0 0 18 18 18 18 0 0 0 18-18 18 18 0 0 0-18-18zm0 9.6a8.4 8.4 0 0 1 8.4 8.4 8.4 8.4 0 0 1-8.4 8.4 8.4 8.4 0 0 1-8.4-8.4 8.4 8.4 0 0 1 8.4-8.4z"/><path fill="#faf8f0" d="M31.999 16.4a2.4 2.4 0 0 0-2.4 2.4 2.4 2.4 0 0 0 2.4 2.4 2.4 2.4 0 0 0 2.4-2.4 2.4 2.4 0 0 0-2.4-2.4zm-6.6 1.77a2.4 2.4 0 0 0-2.4 2.4 2.4 2.4 0 0 0 2.4 2.4 2.4 2.4 0 0 0 2.4-2.4 2.4 2.4 0 0 0-2.4-2.4zm13.2 0a2.4 2.4 0 0 0-2.4 2.4 2.4 2.4 0 0 0 2.4 2.4 2.4 2.4 0 0 0 2.4-2.4 2.4 2.4 0 0 0-2.4-2.4zM20.569 23a2.4 2.4 0 0 0-2.4 2.4 2.4 2.4 0 0 0 2.4 2.4 2.4 2.4 0 0 0 2.4-2.4 2.4 2.4 0 0 0-2.4-2.4zm22.861 0a2.4 2.4 0 0 0-2.4 2.4 2.4 2.4 0 0 0 2.4 2.4 2.4 2.4 0 0 0 2.4-2.4 2.4 2.4 0 0 0-2.4-2.4zM18.8 29.6a2.4 2.4 0 0 0-2.4 2.4 2.4 2.4 0 0 0 2.4 2.4 2.4 2.4 0 0 0 2.4-2.4 2.4 2.4 0 0 0-2.4-2.4zm26.4 0a2.4 2.4 0 0 0-2.4 2.4 2.4 2.4 0 0 0 2.4 2.4 2.4 2.4 0 0 0 2.4-2.4 2.4 2.4 0 0 0-2.4-2.4zm-24.63 6.6a2.4 2.4 0 0 0-2.4 2.4 2.4 2.4 0 0 0 2.4 2.4 2.4 2.4 0 0 0 2.4-2.4 2.4 2.4 0 0 0-2.4-2.4zm22.861 0a2.4 2.4 0 0 0-2.4 2.4 2.4 2.4 0 0 0 2.4 2.4 2.4 2.4 0 0 0 2.4-2.4 2.4 2.4 0 0 0-2.4-2.4zm-18.03 4.83a2.4 2.4 0 0 0-2.4 2.4 2.4 2.4 0 0 0 2.4 2.4 2.4 2.4 0 0 0 2.4-2.4 2.4 2.4 0 0 0-2.4-2.4zm13.2 0a2.4 2.4 0 0 0-2.4 2.4 2.4 2.4 0 0 0 2.4 2.4 2.4 2.4 0 0 0 2.4-2.4 2.4 2.4 0 0 0-2.4-2.4zm-6.6 1.77a2.4 2.4 0 0 0-2.4 2.4 2.4 2.4 0 0 0 2.4 2.4 2.4 2.4 0 0 0 2.4-2.4 2.4 2.4 0 0 0-2.4-2.4z"/></svg>