<svg xmlns="http://www.w3.org/2000/svg" width="64" height="64" viewBox="0 0 16.933 16.933"><path fill="#e1415c" d="M15.61 8.466a7.144 7.144 0 0 1-7.144 7.144 7.144 7.144 0 0 1-7.143-7.144 7.144 7.144 0 0 1 7.143-7.143 7.144 7.144 0 0 1 7.144 7.143z"/><rect width="7.937" height="7.937" x="4.498" y="4.498" fill="#303030" rx="1.323" ry="1.323" style="paint-order:markers stroke fill"/><path fill="#f0f0f0" d="M5.05 10.952h3.106v.621H5.05zm.621-5.592v3.417h.621V7.535h.497l.746 1.242h.62L7.38 7.483c.48-.114.777-.428.777-1.02v-.015c0-.692-.337-1.087-1.141-1.087zm2.795 0v3.417h.932l.483-.005c.602-.007 1.38-.61 1.38-1.695V7.06c0-1.074-.647-1.7-1.45-1.7zm-2.174.622h.622c.373 0 .62.121.62.458v.016c0 .28-.247.458-.62.458h-.622zm2.796 0h.62c.375 0 .933.316.933 1.079v.016c0 .774-.558 1.079-.932 1.079h-.621z"/></svg>