<svg xmlns="http://www.w3.org/2000/svg" xmlns:xlink="http://www.w3.org/1999/xlink" width="64" height="64"><defs><path id="a" d="m39.821 11.402 3 5.196c2 3.464-32.641 23.464-34.641 20l-3-5.196c-2-3.464 32.641-23.464 34.641-20" color="#000"/><path id="b" d="M21 4h6c4 0 4 40 0 40h-6c-4 0-4-40 0-40" color="#000"/></defs><circle cx="32" cy="32" r="27" fill="#f0f0f0" style="paint-order:stroke fill markers"/><g stroke-width=".769" transform="matrix(.95 0 0 .95 9.2 -6)"><path fill="#158f76" d="m8.179 27.402-3 5.196c-2 3.464 32.641 23.464 34.641 20l3-5.196c2-3.464-32.641-23.464-34.641-20" color="#000"/><use xlink:href="#a" width="100%" height="100%" fill="#4d0e93" transform="translate(0 16)"/><use xlink:href="#b" width="100%" height="100%" fill="#1b8cf4" transform="translate(0 16)"/></g></svg>