<svg xmlns="http://www.w3.org/2000/svg" width="64" height="64" viewBox="0 0 16.933 16.933"><path fill="#e87778" d="M15.61 8.466a7.144 7.144 0 0 1-7.144 7.144 7.144 7.144 0 0 1-7.143-7.144 7.144 7.144 0 0 1 7.143-7.143 7.144 7.144 0 0 1 7.144 7.143z"/><rect width="7.937" height="7.937" x="4.498" y="4.498" fill="#303030" rx="1.323" ry="1.323" style="paint-order:markers stroke fill"/><path fill="#f0f0f0" d="M8.466 5.36h.622l.931 1.553.932-1.553h.621v3.417h-.62V6.603l-.933 1.553-.931-1.553v2.174h-.622M6.603 5.361c.621 0 1.242.483 1.242 1.087 0 .465-.292.748-.685.97l.685 1.359h-.621l-.621-1.242h-.621v1.242H5.36V5.36zm0 1.553c.484 0 .621-.222.63-.466-.009-.217-.138-.466-.63-.466h-.621v.931zM5.05 10.951h3.106v.621H5.05z"/></svg>