<svg xmlns="http://www.w3.org/2000/svg" width="64" height="64"><circle cx="32" cy="32" r="27" fill="#8331a6" style="paint-order:stroke fill markers"/><path fill="#fff" d="M26.48 15.1a1.27 1.27 0 0 0-1.274 1.266c0 .275.105.527.255.734l-3.185 3.633c-.127-.033-.244-.081-.382-.081-.857 0-1.571.7-1.571 1.55 0 .033.04.051.042.083l-2.802 1.837a1.27 1.27 0 0 0-.722-.245c-.704 0-1.274.566-1.274 1.265 0 .426.227.791.552 1.02l-.51 9.471c-.31.169-.509.522-.509.898 0 .548.467.98 1.02.98.028 0 .056.003.084 0l6.964 7.062v.04c0 .549.424 1.021.976 1.021.196 0 .398-.066.553-.163l3.821 2c-.008.057-.042.105-.042.164 0 .699.569 1.265 1.273 1.265.66 0 1.165-.506 1.232-1.143l10.19-2.98c.232.32.635.53 1.062.53.705 0 1.274-.565 1.274-1.265 0-.295-.126-.56-.297-.775l4.416-9.675c.705 0 1.274-.566 1.274-1.265 0-.614-.435-1.109-1.019-1.225l-1.401-4.613c.22-.182.382-.428.382-.735 0-.548-.467-.98-1.02-.98-.046 0-.081.035-.127.042l-6.411-7.756c.009-.053.042-.108.042-.164 0-.548-.467-.98-1.02-.98-.328 0-.581.166-.763.409l-9.894-.368a1.264 1.264 0 0 0-1.189-.857zm1.189 1.714 9.724.368a.96.96 0 0 0 .382.53l-.255 1.103c-.455.105-.816.41-1.019.816l-10.87 1.306.722-3.347c.048.005.078.041.127.041a1.28 1.28 0 0 0 1.19-.816zm11.083.98 6.242 7.552c-.065.132-.128.251-.128.408 0 .274.117.515.298.694l-.51 1.429-5.435-6.858c.12-.218.212-.47.212-.735 0-.665-.423-1.214-1.019-1.429l.213-1.02c.043-.014.086-.02.127-.04zm-12.91.204-.678 2.98-2.081.245c-.012-.015-.03-.026-.042-.04l2.802-3.185zm10.702 3.389-3.142 12.165c-.099.022-.205.045-.298.081l-8.067-9.103 3.779-.408c.17.308.513.53.891.53.553 0 .977-.472.977-1.02 0-.076-.026-.133-.042-.204l5.435-2 .467-.041zm-2.335.244-3.78 1.388c-.183-.218-.413-.367-.722-.367-.552 0-1.019.432-1.019.98v.04l-3.736.45.297-1.47 8.96-1.02zm4.033.205 5.903 7.51-1.232 3.43-7.388 1.714c-.11-.2-.254-.341-.425-.49zm-13.503.898-.254 1.183-.935-1.061 1.19-.122zm-4.033.408c.075.09.16.173.254.245l-.212 1.184-2.675.326c-.003-.013.002-.027 0-.04zm1.104.571c.028.002.055 0 .084 0s.057.002.085 0l.595.653-.892.123.127-.776zm1.146 1.062 1.104 1.224-.51 2.246a.968.968 0 0 0-.934.98c0 .308.16.552.382.734l-3.354 5.062 1.953-10.083zm-2.293.245L18.54 36c-.377.076-.672.329-.85.654l-.594-.123c0-.41-.235-.788-.594-.939l.51-9.225a1.224 1.224 0 0 0 1.06-1.061l2.591-.286zm3.737 1.428 7.558 8.45c-.015.053-.032.11-.043.164l-12.229 1.306a1.22 1.22 0 0 0-.254-.204l3.906-6a.95.95 0 0 0 .255.04c.552 0 1.02-.432 1.02-.98 0-.392-.263-.737-.595-.898l.382-1.878zm21.146.245c.026.008.057-.006.085 0l1.146 3.92-1.783-2.328.552-1.592zm-1.104 3.062L46.225 32l-2.802.653zm1.91 3.51-4.033 8.777.084-5.47c.427-.087.765-.45.765-.898 0-.364-.245-.664-.552-.816l.297-.776 3.44-.816zm-3.906.94-.212.53a.94.94 0 0 0-.934.939c0 .428.282.79.679.898l-.127 6.246c-.312.095-.563.336-.722.612l-5.563-1.225c0-.548-.467-.98-1.019-.98-.538 0-.996.412-1.02.94l-1.358.326 1.699-5.143a1.958 1.958 0 0 0 1.868-1.592l6.709-1.552zm-10.318 2.122c.117.213.281.417.467.572l-1.953 5.96-4.077 1.02-6.581-6.164c.009-.025.034-.056.042-.082l12.102-1.306zm-14.734 1.061.17.041c.008.05-.014.115 0 .164l-.17-.205zm1.02 1.021c.12.038.248.082.381.082h.085l5.563 5.184a.93.93 0 0 0-.807.122l-5.223-5.388zm15.201 4.164c.143.374.507.612.934.612.414 0 .783-.215.934-.571l4.841 1.061-9.426 2.735 1.146-3.47zm-3.1.775-1.019 3.062c-.056.01-.116.022-.17.04l-2.42-2.244zm-5.095 1.225.637.612-.892-.49v-.081z" opacity=".99"/></svg>