<svg xmlns="http://www.w3.org/2000/svg" xml:space="preserve" width="64" height="64" viewBox="0 0 16.933 16.933"><circle cx="8.466" cy="8.466" r="7.144" fill="#c83737" style="paint-order:stroke fill markers"/><path d="M6.565 12.48a2.311 2.311 0 0 0-.472-.225c-.314-.105-.58-.147-.998-.157a2.764 2.764 0 0 0-.484.015c-.333.045-.705.14-.95.243-.164.068-.22.079-.278.05-.096-.048-.09.113-.09-2.28V7.964l.1-.064c.18-.116.432-.218.698-.282.635-.152 1.457-.122 2.026.076.128.044.382.168.464.227l.06.043v3.972l.177-.085a3.883 3.883 0 0 1 1.404-.347c.319-.014.802.04 1.065.118l.09.026V9.66c0-1.094.003-1.989.007-1.989.017 0 .264.097.335.132.043.02.12.065.174.098l.096.06-.004 2.173c-.004 2.365.002 2.206-.083 2.255-.058.033-.096.028-.235-.035-.58-.26-1.338-.332-2.014-.19a3.83 3.83 0 0 0-.882.296.795.795 0 0 1-.135.06.259.259 0 0 1-.07-.04zm.689-2.903V7.954l.755-.732.755-.732v3.392l-.716.624c-.394.343-.734.64-.755.66l-.04.034zm3.323-.603-.07-.08.017-.31.057-1.07.04-.758.229.009c.126.005.268.012.317.017l.088.008-.006.085c-.004.046-.02.333-.036.637a192.387 192.387 0 0 1-.056 1.08c0 .024-.064.087-.245.246-.135.118-.25.215-.255.215a.48.48 0 0 1-.08-.08zm2.091-1.878a.913.913 0 0 1-.598-.463l-.059-.118-.167-.01-.723-.036-1.784-.089-1.229-.061-.07-.074a.372.372 0 0 1-.07-.087c0-.012.35-.326.452-.404l.04-.032.42.021c1.353.069 1.784.09 1.787.087.005-.006.034-.557.034-.643v-.08l-.088-.047a.863.863 0 0 1-.435-.793c.024-.412.322-.736.743-.81a.905.905 0 0 1 .945.47c.074.15.094.238.092.4a.8.8 0 0 1-.26.595.767.767 0 0 1-.227.163 2.278 2.278 0 0 0-.126.064c-.007.007-.045.703-.039.71.004.003.647.042.72.043.012 0 .04-.035.064-.079.095-.178.33-.355.548-.412.125-.033.349-.033.463 0a.94.94 0 0 1 .567.453.844.844 0 0 1-.221 1.045.924.924 0 0 1-.779.187zm.287-.421a.44.44 0 0 0 .359-.427c0-.16-.093-.31-.24-.384-.064-.033-.088-.037-.208-.037-.123 0-.142.003-.211.04a.506.506 0 0 0-.196.201.552.552 0 0 0 .005.37c.07.127.185.211.322.238a.295.295 0 0 0 .169-.001zm-1.912-.44c.062-.061.043-.151-.038-.181-.045-.017-.082-.007-.12.032-.089.093.065.239.158.148zm.226-1.536a.426.426 0 0 0 .122-.683.454.454 0 0 0-.618-.026.398.398 0 0 0-.15.323.384.384 0 0 0 .115.29c.092.098.183.136.335.138a.337.337 0 0 0 .196-.042z" style="fill:#fff;stroke-width:.0140302"/></svg>