<svg xmlns="http://www.w3.org/2000/svg" width="64" height="64" viewBox="0 0 16.933 16.933"><circle cx="8.467" cy="8.46" r="7.144" fill="#de4f4f" paint-order="stroke markers fill"/><path fill="#fff" d="M6.5 5.187c.528-.593 1.573-.86 2.35-.723.495.081.64.093 1.075.401.277-.121.538-.146.83-.163-.072.59-.042.537.06.869.08.262.11.547-.008.82-.087.207-.146.273-.278.423-.112.126-.25.193-.552.246.02-.137.052-.229.083-.655.048-.66-.135-.725-.335-.965-.592-.703-1.63-.837-2.418-.328-.379.243-.434.529-.414.983.014.298.299.583.442.688.415.305.923.513 1.387.723.17.064.91.342 1.08.417.223.098.475.236.598.33.366.278.583.564.708.897.227.608.259 1.794-.279 2.394-.616.686-1.665.979-2.594.958-.865.007-1.043-.236-2.316-.2-.041-.18-.068-.621-.044-.712-.11-.19-.173-.45-.198-.874-.015-.27-.002-.489.139-.904.165-.492.739-.872 1.266-.922.454.006.909.07 1.28.354.32.247.39.721.34 1.006-.079.446-.357.817-.82.829-.236.007-.595-.274-.589-.488.02-.68.706-.571.83-.477.1.077.2.19.16.397.17-.18.287-.581.06-.84a1.257 1.257 0 0 0-1.852-.08c-.25.27-.16.74-.108 1.112.06.427.39.77.733 1.055.326.272.712.352.814.36.657.04.931.105 1.662-.231.452-.21.703-.446.91-1.055.056-.165.041-.492-.032-.748-.074-.26-.231-.5-.443-.69-.47-.442-1.042-.594-1.636-.843-.536-.224-.941-.386-1.438-.676-.347-.225-.448-.302-.683-.628-.154-.214-.26-.781-.228-1.019.076-.39.152-.717.457-1.036"/></svg>