<svg xmlns="http://www.w3.org/2000/svg" width="64" height="64" viewBox="0 0 16.933 16.933"><rect width="14.287" height="14.287" x="1.323" y="1.323" fill="#1799eb" rx="7.144" ry="7.144"/><path fill="#f0f0f0" d="M8.466 5.016a3.451 3.101 0 0 0-3.45 3.1 3.451 3.101 0 0 0 1.017 2.197l.087 1.473a.143.14 0 0 0 .215.113l1.352-.765a3.451 3.101 0 0 0 .78.083 3.451 3.101 0 0 0 3.45-3.1 3.451 3.101 0 0 0-3.45-3.101z"/><path fill="#b4dcf3" d="m8.25 3.99.013.286a4.42 4.42 0 0 1 1.31.126l.065-.28c-.466-.12-1.147-.162-1.388-.133zm-1.72.392.114.263c.377-.165.702-.238 1.06-.313l-.038-.285c-.404.056-.813.202-1.136.335zm3.576.18c.346.157.694.336.979.525l.16-.238A6.474 6.474 0 0 0 10.2 4.29c-.025.093-.063.181-.094.271zm-5.028.82.201.206c.264-.277.574-.496.864-.69l-.137-.252a4.936 4.936 0 0 0-.928.737zm6.43.052c.288.27.502.572.689.86l.253-.136c-.2-.359-.493-.682-.74-.929zM4.158 6.91l.276.079c.109-.356.283-.663.497-.98l-.238-.162c-.25.348-.394.691-.535 1.063zm8.28-.11c.145.34.202.705.228 1.072l.287-.017c0-.404-.119-.787-.249-1.164zM4.04 8.675l.284-.048c-.08-.363-.056-.731-.016-1.096l-.283-.048c-.074.396-.049.797.015 1.192zm8.313.809.266.109c.171-.385.261-.794.32-1.149-.095-.013-.19-.02-.284-.03-.038.374-.161.724-.302 1.07zM4.191 9.26c.151.38.357.745.562 1.049.068-.068.15-.118.225-.177-.228-.298-.383-.633-.52-.979zm7.158 1.519.181.223a3.94 3.94 0 0 0 .791-.884l-.237-.161c-.196.324-.497.599-.735.822zM5.14 10.75l.124.122.05.865.287-.017-.057-.975-.202-.199zm4.755.83.089.273c.428-.132.724-.302 1.072-.503l-.16-.239a4.83 4.83 0 0 1-1.001.469zm-3.315.614.142.25.792-.449.136.022.045-.284-.235-.038zm1.67-.4-.016.287c.433.03.806-.023 1.183-.079l-.065-.28a4.575 4.575 0 0 1-1.102.072zm-2.902.517.022.366c-.003.139.05.23.17.267.119.038.41-.063.682-.217l-.141-.25c-.118.109-.36.232-.404.205-.044-.027-.036-.274-.042-.388z"/></svg>