<svg xmlns="http://www.w3.org/2000/svg" width="64" height="64"><circle cx="32" cy="32" r="27" fill="#ad5bdb" style="paint-order:stroke fill markers"/><g fill-opacity=".498" transform="translate(-.39 -.966)"><path d="M32.39 16.871c-8.89 0-16.095 7.206-16.095 16.095s7.206 16.095 16.095 16.095c8.89 0 16.095-7.206 16.095-16.095S41.279 16.871 32.39 16.871zm0 1.78c7.898 0 14.315 6.418 14.315 14.315S40.287 47.28 32.39 47.28c-7.898 0-14.315-6.418-14.315-14.315S24.493 18.65 32.39 18.65z"/><path d="M32.39 21.127c.474 0 .946.05 1.393.116-.46-.054-.919-.116-1.393-.116zm0 0c-.474 0-.933.062-1.393.116a9.48 9.48 0 0 1 1.393-.116zm-1.393.116c-5.87.693-10.446 5.668-10.446 11.723 0 6.53 5.31 11.84 11.84 11.84s11.838-5.31 11.838-11.84c0-6.056-4.577-11.03-10.446-11.723 3.131.467 5.494 2.492 5.494 4.914 0 2.767-3.092 4.99-6.887 4.99s-6.887-2.222-6.887-4.99c0-2.422 2.363-4.447 5.494-4.914z"/><ellipse cx="32.39" cy="24.835" rx="5.246" ry="3.708"/></g><path fill-opacity=".498" d="M48 14a2 2 0 1 0 0 4 2 2 0 0 0 0-4z"/></svg>