<svg xmlns="http://www.w3.org/2000/svg" width="64" height="64" viewBox="0 0 16.933 16.933"><circle cx="8.466" cy="8.466" r="7.144" fill="#4c8cff" style="paint-order:stroke fill markers"/><path fill="#457eff" d="M8.467 1.323a7.144 7.144 0 0 0-7.144 7.144A7.144 7.144 0 0 0 6.27 15.26a10.139 10.139 0 0 0 9.283-7.62 7.144 7.144 0 0 0-7.086-6.317z" style="paint-order:stroke fill markers"/><path fill="#00f" d="M8.467 1.323A7.144 7.144 0 0 0 1.97 5.512a8.767 8.767 0 0 0 8.694 7.725 8.767 8.767 0 0 0 3.776-.864 7.144 7.144 0 0 0 1.17-3.907 7.144 7.144 0 0 0-7.144-7.143z" opacity=".1" style="paint-order:stroke fill markers"/><path fill="#fff" d="M5.292 3.969a3.175 3.175 0 0 0 3.175 3.175 3.175 3.175 0 0 0 3.175-3.175h-.794A2.381 2.381 0 0 1 8.467 6.35a2.381 2.381 0 0 1-2.382-2.381z" style="paint-order:stroke markers fill"/><path fill="#fff" d="M29 33v10h-5l8.002 7.998L40 43h-5V33h-6z" style="paint-order:stroke markers fill" transform="scale(.26458)"/></svg>