<svg xmlns="http://www.w3.org/2000/svg" width="64" height="64" version="1"><rect width="54" height="54" x="5" y="5" fill="#029499" rx="27" ry="27"/><path fill="#fff" d="m24.598 13.18-5.195 3 4.715 8.164A11 11 0 0 0 21.427 29H12v6h9.42a11 11 0 0 0 2.692 4.666l-4.71 8.155 5.196 3 4.717-8.168A11 11 0 0 0 32 43a11 11 0 0 0 2.69-.343l4.713 8.164 5.195-3-4.715-8.164A11 11 0 0 0 42.573 35H52v-6h-9.42a11 11 0 0 0-2.691-4.666l4.709-8.154-5.195-3-4.717 8.168A11 11 0 0 0 32 21a11 11 0 0 0-2.69.344l-4.712-8.164zM32 25a7 7 0 0 1 7 7 7 7 0 0 1-7 7 7 7 0 0 1-7-7 7 7 0 0 1 7-7z"/></svg>