<svg xmlns="http://www.w3.org/2000/svg" width="64" height="64"><rect width="54" height="54" x="5" y="5" fill="#f0f0f0" ry="27"/><rect width="46" height="46" x="9" y="9" opacity=".05" ry="23"/><path fill="#5fa1e9" d="M47.154 33.304h5.625L42.875 23.4l-9.904 9.904h5.183v8h9z"/><path fill="#1964c2" d="M27.154 42.304h-4.86l9.905 9.904 9.904-9.904h-4.95v-8h-10z"/><path fill="#b4d100" d="M41.672 16.26v-3.28c0-.705-.61-1.254-1.311-1.18l-13.048 1.38a1.187 1.187 0 0 0-1.061 1.18v23.299c-1.84-.31-4.054-.236-6.36.305-5.418 1.272-9.266 4.623-8.594 7.486s5.634 4.466 11.028 3.092c8.429-2.147 8.67-6.948 8.67-6.948v-22.6c0-.303.229-.558.53-.59l9.085-.963a1.186 1.186 0 0 0 1.06-1.18z"/></svg>