<svg xmlns="http://www.w3.org/2000/svg" width="64" height="64" version="1"><circle cx="32" cy="32" r="27" fill="#1ED760" style="paint-order:markers stroke fill"/><circle cx="32" cy="32" r="22" opacity=".15" paint-order="markers stroke fill"/><path fill="#191414" d="M28.474 21.419a42.47 42.47 0 0 0-10.888 1.415 2.098 2.098 0 1 0 1.081 4.053c8.255-2.201 18.136-1.63 26.21 2.625a2.098 2.098 0 1 0 1.955-3.71c-5.73-3.02-12.12-4.385-18.358-4.383zm-.247 7.713c-3.27-.014-6.46.42-9.303 1.213a1.806 1.806 0 1 0 .968 3.478c6.629-1.846 15.93-1.35 22.207 2.588a1.806 1.806 0 1 0 1.92-3.06c-4.67-2.928-10.342-4.196-15.792-4.22zm.403 7.296c-3.188-.048-6.246.423-9.06 1.05a1.398 1.398 0 1 0 .607 2.729c6.15-1.368 12.895-1.907 19.718 2.165a1.398 1.398 0 1 0 1.433-2.4c-4.288-2.56-8.6-3.481-12.698-3.544z" font-family="sans-serif" font-weight="400" overflow="visible" style="font-feature-settings:normal;font-variant-alternates:normal;font-variant-caps:normal;font-variant-ligatures:normal;font-variant-numeric:normal;font-variant-position:normal;isolation:auto;mix-blend-mode:normal;shape-padding:0;text-decoration-color:#000;text-decoration-line:none;text-decoration-style:solid;text-indent:0;text-orientation:mixed;text-transform:none;white-space:normal"/></svg>