<svg xmlns="http://www.w3.org/2000/svg" width="64" height="64" viewBox="0 0 16.933 16.933"><circle cx="8.466" cy="8.466" r="7.144" fill="#f0f0f0" style="paint-order:stroke fill markers"/><g transform="translate(3.42 3.582) scale(.61538)"><path fill="#e6e6e6" d="M1.323 10.319v3.175a6.879 1.587 0 0 0 6.879 1.587 6.879 1.587 0 0 0 6.879-1.587v-3.175z"/><ellipse cx="8.202" cy="10.319" fill="#ccc" rx="6.879" ry="1.587"/><path fill="#e6e6e6" d="M1.323 6.35v3.175a6.879 1.587 0 0 0 6.879 1.587 6.879 1.587 0 0 0 6.879-1.587V6.35z"/><ellipse cx="8.202" cy="6.35" fill="#ccc" rx="6.879" ry="1.587"/><path fill="#e6e6e6" d="M1.323 2.381v3.175a6.88 1.587 0 0 0 6.879 1.588 6.88 1.587 0 0 0 6.88-1.588V2.381z"/><ellipse cx="8.202" cy="2.381" fill="#ccc" rx="6.879" ry="1.587"/><path fill="#fff" d="M1.852 2.988v3.178a6.88 1.587 0 0 0 .53.233V3.226a6.88 1.587 0 0 1-.53-.238zm0 3.969v3.177a6.88 1.587 0 0 0 .53.234V7.195a6.88 1.587 0 0 1-.53-.238zm0 3.968v3.178a6.88 1.587 0 0 0 .53.233v-3.172a6.88 1.587 0 0 1-.53-.239zm.794-7.611v3.175a6.88 1.587 0 0 0 1.323.318V3.63a6.88 1.587 0 0 1-1.323-.316zm0 3.969v3.175a6.88 1.587 0 0 0 1.323.317V7.6a6.88 1.587 0 0 1-1.323-.316zm0 3.968v3.176a6.88 1.587 0 0 0 1.323.317v-3.177a6.88 1.587 0 0 1-1.323-.316z" opacity=".35"/></g><path fill="#f67d7d" d="M12.048 4.233c-2.089 0-4.81 2.984-6.258 6.047-.418.885-.771 1.842-.905 2.42l.162-.007c.607-1.75 1.306-1.893 1.638-1.948 1.188-.197 2.097-.579 2.975-1.627-1.194 0-1.943-.2-1.943-.326h2.15c.298-.311.604-.669.835-.977-1.043 0-1.911-.132-1.911-.325h2.149c.216-.32.397-.664.546-.977-.931 0-1.555-.21-1.555-.326h1.71c.282-.695.409-1.358.406-1.953z"/></svg>