<svg xmlns="http://www.w3.org/2000/svg" width="64" height="64" image-rendering="optimizeSpeed"><path fill="#374651" d="M58.181 25.135a29.45 29.45 0 0 0-.209-.778c-.057-.194-.114-.392-.18-.6a25.08 25.08 0 0 0-2.331-5.257c-1.161-1.974-2.62-3.845-4.368-5.592-4.153-4.154-8.989-6.674-14.51-7.554a27.673 27.673 0 0 0-2.863-.307 30.584 30.584 0 0 0-3.317-.005c-6.77.349-12.602 2.972-17.495 7.865q-7.909 7.909-7.909 19.091c0 7.457 2.637 13.823 7.909 19.094 3.243 3.241 6.895 5.486 10.932 6.725a27.147 27.147 0 0 0 6.563 1.141h.023c.486.026.95.04 1.402.04h.171c.59 0 1.173-.017 1.722-.046l.398-.025a28.296 28.296 0 0 0 3.357-.44c.455-.09.904-.19 1.34-.295 4.621-1.162 8.702-3.524 12.278-7.1 2.78-2.78 4.828-5.863 6.14-9.255 1.056-2.726 1.64-5.652 1.748-8.781.012-.346.018-.7.018-1.058v-.172a28.095 28.095 0 0 0-.818-6.693z"/><path fill="#fff" d="M30.757 16C22.52 16.497 16 23.483 16 32c0 8.84 7.237 15.998 16.01 15.998 8.512 0 15.583-6.98 15.989-15.283h-3.821c-.404 6.386-5.655 11.453-12.068 11.453-6.677 0-12.308-5.459-12.308-12.186 0-6.403 5.252-11.641 10.956-12.133zm1.903 0v3.848c3.169.203 5.036 1.219 6.911 2.801l2.793-2.716C39.79 17.665 36.463 16.216 32.66 16zm11.262 5.241-2.7 2.705A12.335 12.335 0 0 1 44.16 30.8h3.815c-.256-3.831-1.743-6.98-4.053-9.56zm-4.86 3.577-8.054 4.977.008.007a2.527 2.527 0 0 0-1.29 2.2 2.525 2.525 0 0 0 2.513 2.532c.975 0 1.81-.565 2.228-1.38l.006.005z"/></svg>