<svg xmlns="http://www.w3.org/2000/svg" width="64" height="64" image-rendering="optimizeSpeed"><defs><linearGradient id="a" x1="-20.542" x2="-23.085" y1="40.856" y2="43.297" gradientTransform="translate(130.67 12.607) scale(1.9136)" gradientUnits="userSpaceOnUse"><stop offset="0" stop-color="#a9a9a9"/><stop offset="1" stop-color="#a9a9a9" stop-opacity="0"/></linearGradient><linearGradient id="b" x1="-46.135" x2="-43.234" y1="23.19" y2="22.645" gradientTransform="translate(130.67 12.607) scale(1.9136)" gradientUnits="userSpaceOnUse"><stop offset="0" stop-color="#232323"/><stop offset="1" stop-color="#232323" stop-opacity="0"/></linearGradient></defs><path fill="#f0f0f0" d="M55.9 19.278a25.427 25.427 0 0 0-.438-.778c-1.16-1.973-2.62-3.844-4.367-5.592-4.153-4.153-8.99-6.672-14.51-7.553a27.665 27.665 0 0 0-2.863-.306 30.585 30.585 0 0 0-3.318-.006c-6.77.349-12.602 2.972-17.496 7.865a28.826 28.826 0 0 0-3.129 3.684 25.587 25.587 0 0 0-2.265 3.844h-.002Q5 25.697 5 32c0 7.456 2.637 13.823 7.908 19.094 3.244 3.24 6.896 5.486 10.931 6.724a27.147 27.147 0 0 0 6.564 1.142h.023c.486.025.95.04 1.402.04h.171c.59 0 1.173-.018 1.722-.046l.398-.026a28.296 28.296 0 0 0 3.358-.44c.454-.089.903-.19 1.338-.295 4.622-1.161 8.704-3.524 12.28-7.099 2.78-2.78 4.827-5.863 6.14-9.256 1.055-2.725 1.639-5.651 1.747-8.78.012-.346.018-.701.018-1.058v-.172a28.087 28.087 0 0 0-.818-6.693 29.422 29.422 0 0 0-.21-.778 24.077 24.077 0 0 0-.483-1.507 25.354 25.354 0 0 0-1.59-3.572z"/><path fill="#f0f0f0" d="M51.917 21.398a21.186 21.186 0 0 0-.365-.648c-.967-1.645-2.183-3.204-3.64-4.66-3.46-3.46-7.49-5.56-12.091-6.295a23.06 23.06 0 0 0-2.386-.255 25.487 25.487 0 0 0-2.765-.005c-5.642.291-10.501 2.477-14.58 6.555-.977.977-1.847 2-2.608 3.07a21.33 21.33 0 0 0-1.887 3.203h-.002Q9.5 26.747 9.5 32c0 6.214 2.197 11.52 6.59 15.912 2.703 2.7 5.747 4.572 9.11 5.604 1.752.536 3.565.85 5.47.95h.019c.405.022.791.034 1.168.034H32a27.783 27.783 0 0 0 1.766-.06 23.58 23.58 0 0 0 3.914-.612c3.851-.968 7.253-2.936 10.232-5.916 2.317-2.317 4.023-4.886 5.117-7.713.88-2.271 1.366-4.71 1.456-7.317.01-.288.015-.584.015-.882v-.143a23.403 23.403 0 0 0-.682-5.577 24.482 24.482 0 0 0-.174-.648c-.048-.163-.095-.327-.15-.501a21.126 21.126 0 0 0-1.578-3.733z"/><g stroke-width="3.136"><g fill-rule="evenodd"><path fill="url(#a)" d="m67.711 75.562 27.105 17.889-3.947 9.453S68.412 84.894 67.71 75.562z" transform="translate(14.62 13.901) scale(.28702)"/><path fill="#181818" d="M34.976 26.68c2.904-1.983 7.186-5.384 7.652-6.926.447-1.48 2.29-1.201 1.871.474-.418 1.676-2.709 8.295-6.311 12.707m-17.902 8.742c1.644-.483 2.563-2.378 3.767-3.565 2.18 2.001 13.533 5.85 7.632 5.948-3.032-.175-4.797 1.472-6.449 2.815z"/><path fill="#232323" d="M32.968 14.301c-4.305.079-5.727 3.357-5.727 4.976 0 1.62.532 4.986-.771 7.197-.861 1.462-3.59 4.924-4.363 8.167-.773 3.239-.17 10.072 8.807 10.23 9.242.162 8.607 2.137 8.607 2.137l3.28-6.265c-.858-.41-2.17-1.031-2.116-1.147 1.648-3.493-2.764-9.989-3.593-12.517-.83-2.528.145-3.153.817-4.693.671-1.54.944-8.085-4.941-8.085z"/><path fill="#f5de68" d="M20.843 41.79c-.813-.65-1.512.25-1.025 1.116.487.867 4.64 5.035 5.832 6.349 1.192 1.313 3.269-.605 1.394-1.686-1.874-1.081-5.388-5.129-6.201-5.78z"/><path fill="#232323" d="M21.956 38.15c.338 1.296-1.252 2.85-2.101 3.65-1.105 1.039.028 1.605.394 1.577.366-.029 3.089-1.013 5.202.17"/><path fill="#fdfdfd" d="M35.61 17.156c-1.235-.015-2.097 1.39-1.452 3.042.37.947 2.803.895 2.958-.092.263-1.683-.284-2.937-1.506-2.95z"/><path d="M35.504 18.864a.872 1.058 0 0 1 1.231-.002.872 1.058 0 0 1 .005 1.494.872 1.058 0 0 1-1.231.01.872 1.058 0 0 1-.012-1.494"/><path fill="#f5de68" d="M38.002 23.383c.78.026 5.416-.885 5.468-1.537.052-.65-3.255-.963-3.906-1.25-.651-.286-3.815-1.13-3.776.99.04 2.121 1.432 1.771 2.214 1.797z"/></g><path fill="none" stroke="#ae9300" stroke-width=".18" d="M36.814 22.168c1.647.358 3.646.479 4.75.294"/><path fill="none" d="M38.002 23.383c.78.026 5.416-.885 5.468-1.537.052-.65-3.255-.963-3.906-1.25-.651-.286-3.815-1.13-3.776.99.04 2.121 1.432 1.771 2.214 1.797z"/><path fill="url(#b)" fill-rule="evenodd" d="M45.836 40.168c-13.512 11.442-34.729 38.79-30.485 41.45 3.66 2.293 25.475-16.621 34.7-18.55" transform="translate(14.62 13.901) scale(.28702)"/><path fill="none" d="M26.26 26.863c-2.456 2.603-5.963 6.734-7.068 8.974-1.092 1.727.17 2.372 1.65.954 2.01-1.11 5.024-3.743 6.999-4.156"/><g fill-rule="evenodd"><path fill="#f5de68" d="M42.932 37.913c.11-1.565 2.301-1.825 2.287.09-.016 2.178-2.965 7.447-4.075 8.763-1.07 1.268-2.133.277-1.383-.947s3.023-5.795 3.17-7.906z"/><path fill="#ccc" d="M37.468 29.147c-.745-.33-1.007 1.597-1.626 2.497-.745 1.085-1.463 2.129-.915 3.844l5.67 3.935c.732-2.878-1.229-7.068-3.13-10.276z"/><path fill="#fff" d="M35.898 18.772a.297.19 0 0 1 .42 0 .297.19 0 0 1 .001.267.297.19 0 0 1-.42.001.297.19 0 0 1-.004-.267"/></g></g></svg>