<svg xmlns="http://www.w3.org/2000/svg" xml:space="preserve" width="64" height="64"><path d="M32 5A26.94 26.94 0 0 0 5 32a26.94 26.94 0 0 0 27 27 26.94 26.94 0 0 0 27-27A26.94 26.94 0 0 0 32 5Z" style="fill:#eaa400;fill-opacity:1;stroke:none;stroke-opacity:1"/><g style="fill:#1f1f1f;fill-opacity:1"><path d="M72.064 47.374c-2.788 11.428 2.116 14.086 2.97 14.542-2.69 3.076-2.435 5.971-2.226 6.505-.942 3.032.584 6.16 1.48 6.97.272 1.547.3 2.066.943 3.463-11.658-4.018-10.625-16.39-10.625-16.39s3.627 9.52 5.494 8.303c1.101-.718 1.109-6.506-2.948-5.895.027-1.721-.665-9.604 4.912-17.498zm11.925 4.73c2.497 9.994-2.21 11.208-3.063 11.664 1.253 2.345 1.203 3.848 1.07 4.665.943 3.033-.353 5.302-1.4 6.815-.272 1.547-.3 2.066-.944 3.462 11.511-4.398 10.625-16.39 10.625-16.39s-3.708 9.644-5.574 8.427c-1.102-.718-1.316-6.448 2.74-5.837-.026-1.722 2.123-4.912-3.454-12.806z" style="fill:#1f1f1f;fill-opacity:1;stroke:none;stroke-width:.4;stroke-linecap:butt;stroke-linejoin:miter;stroke-dasharray:none;stroke-opacity:.52695" transform="translate(-74.54 -54.989) scale(1.37581)"/><path d="M73.716 66.518c2.653-2.775 5.115-2.62 7.21.023-.68-2.477-1.697-4.357-3.632-4.336-1.891.02-3.138 2.394-3.578 4.313z" style="fill:#1f1f1f;fill-opacity:1;stroke:none;stroke-width:.4;stroke-linecap:butt;stroke-linejoin:miter;stroke-dasharray:none;stroke-opacity:.481603" transform="translate(-74.54 -54.989) scale(1.37581)"/><path d="M73.78 71.059c0 2.902 2.15 4.421 3.561 4.421 1.84 0 3.68-1.787 3.68-4.693 0-2.905-2.01-4.878-3.923-4.857-1.913.021-3.319 2.227-3.319 5.129z" style="fill:#1f1f1f;fill-opacity:1;stroke:none;stroke-width:.4;stroke-linecap:butt;stroke-linejoin:miter;stroke-dasharray:none;stroke-opacity:.481603" transform="translate(-74.54 -54.989) scale(1.37581)"/></g></svg>