<svg xmlns="http://www.w3.org/2000/svg" width="64" height="64" viewBox="0 0 16.933 16.933"><g paint-order="stroke markers fill" transform="translate(0 -280.07)"><circle cx="8.466" cy="288.53" r="7.144" fill="#f4d035"/><path d="M8.467 282.713a5.82 5.82 0 0 0-5.821 5.82 5.82 5.82 0 0 0 2.131 4.498h.915a5.292 5.292 0 0 0 2.775.794 5.292 5.292 0 0 0 2.78-.794h.908a5.82 5.82 0 0 0 2.132-4.498 5.82 5.82 0 0 0-5.82-5.82z" opacity=".15"/><path fill="#fff" d="M9.743 289.475a1.587 1.587 0 0 1-1.276.646 1.587 1.587 0 0 1-1.276-.645 3.704 2.381 0 0 0-2.429 2.232h7.409a3.704 2.381 0 0 0-2.428-2.233z"/><g fill="#fff" transform="translate(.265 1.323)"><circle cx="8.202" cy="284.83" r="1.587"/><path d="M6.615 284.83a1.587 2.646 0 0 0 1.587 2.645 1.587 2.646 0 0 0 1.588-2.646z"/></g></g></svg>