<svg xmlns="http://www.w3.org/2000/svg" width="64" height="64"><rect width="54" height="54" x="5" y="5" fill="#1897ec" rx="27" ry="27"/><circle cx="32.02" cy="32.044" r="30.001" fill="none"/><path fill="#fff" d="M35.692 16 32 23.385h-8.616l-1.23 3.692h18.462l1.23-3.692h-6.153l3.076-6.154C39.39 15.99 37.185 16 35.693 16zM22.154 28.308c-1.749 5.014-3.692 8.615-3.692 14.769 0 2.462 1.23 4.923 3.692 4.923h13.538c-.57-3.239-.939-5.338-1.23-8.615 1.168 3.309 1.685 5.244 3.691 8.615h3.693c1.883 0 3.723-2.089 3.692-4.923-.013-1.211-.123-2.502-2.882-5.04-2.01-1.847-3.272-3.956-3.272-6.037 0-1.553.197-2.596.616-3.692h-2.462c-.92 0-1.846.276-1.846 1.23 0 2.958.086 6.111 2.461 8.616-3.156-2.817-3.692-3.692-3.692-9.846z"/></svg>