<svg xmlns="http://www.w3.org/2000/svg" width="64" height="64" viewBox="0 0 16.933 16.933"><path fill="#4d4d4d" d="M32 5A27 27 0 0 0 5 32a27 27 0 0 0 27 27 27 27 0 0 0 27-27A27 27 0 0 0 32 5z" style="paint-order:markers stroke fill" transform="scale(.26458)"/><path fill="#1f8fd7" d="M32.002 5v26.998H59A27 27 0 0 0 32.002 5zM5 32.004A27 27 0 0 0 32 59a27 27 0 0 0 .002 0V32.004H5z" style="paint-order:markers stroke fill" transform="scale(.26458)"/><g fill="#fff"><path d="m5.689 3.721.572 1.22 1.28.196-.926.948.218 1.342-1.144-.634-1.145.634.218-1.342-.925-.948 1.279-.196z"/><circle cx="11.112" cy="5.821" r="1.587"/><path d="M9.525 9.525H12.7V12.7H9.525z"/><circle cx="5.821" cy="11.112" r="1.587"/></g></svg>