<svg xmlns="http://www.w3.org/2000/svg" width="64" height="64"><g stroke-width="1.304"><path fill="#33d17a" d="M32 5a27 27.001 0 0 0-.014.002 27 27.001 0 0 0-20.48 9.436l27.242 42.313 15.226-40.426A27 27.001 0 0 0 32.04 5 27 27.001 0 0 0 32 5z"/><path fill="#5799e9" d="M12.955 12.96A27 27.001 0 0 0 5 32a27 27.001 0 0 0 16.424 24.8l24.24-1.576a27 27.001 0 0 0 6.285-5.086L32 32.005 12.955 12.958z"/><path fill="#837f8a" d="m51.091 12.909-5.593 5.596 4.5 9 9 4.5v-.082A27 27.001 0 0 0 51.09 12.91z"/><path fill="#f8db51" d="m31.999 31.999 7.826-7.826L47.65 32l-6.522 11.739z" style="paint-order:normal" transform="translate(-23.201 -23.199) scale(1.725)"/><path fill="#b78860" d="M58.998 32.001 32 59.002a27 27.001 0 0 0 26.998-26.974v-.027z"/><path fill="#ff9536" d="M45.5 45.501H18.499l13.5-13.5z"/><path fill="#f65960" d="m18.498 45.502-5.541 5.544A27 27.001 0 0 0 31.973 59H32l13.5-13.499H18.498z"/></g></svg>