<svg xmlns="http://www.w3.org/2000/svg" width="64" height="64"><rect width="54" height="54" x="5" y="5" fill="#31345e" rx="27" ry="27" style="paint-order:stroke fill markers"/><path fill="#fff" d="M27.854 15.369c-5.776 0-10.416 4.473-11.053 10.088-2.356 2.12-3.793 5.1-3.8 8.313a3 3 0 0 0 0 .007C13 39.982 18.092 45.075 24.296 45.074a3 3 0 0 0 .028 0c.047 0 .093-.012.14-.013 2.11 2.219 5.008 3.566 8.123 3.57a3 3 0 0 0 .012 0c3.214-.007 6.197-1.445 8.318-3.803 5.614-.639 10.083-5.276 10.082-11.05 0-2.548-1.008-4.919-2.57-6.901-.524-5.73-5.237-10.32-11.094-10.32a3 3 0 0 0-.018 0c-1.236.006-2.434.287-3.595.687-1.731-1.077-3.644-1.812-5.705-1.843a3 3 0 0 0-.043-.028v.02c-.042 0-.08-.024-.121-.024zm-.002 3a8.296 8.296 0 0 1 5.598 2.178 8.296 8.296 0 0 1 3.885-.99 8.296 8.296 0 0 1 8.294 8.294 8.296 8.296 0 0 1-.005.114A8.296 8.296 0 0 1 48 33.777a8.296 8.296 0 0 1-8.295 8.297 8.296 8.296 0 0 1-.307-.021 8.296 8.296 0 0 1-6.807 3.578 8.296 8.296 0 0 1-6.888-3.69 8.296 8.296 0 0 1-1.406.133A8.296 8.296 0 0 1 16 33.777a8.296 8.296 0 0 1 3.576-6.803 8.296 8.296 0 0 1-.022-.306 8.296 8.296 0 0 1 8.297-8.3zm-1.135 9.049a1 1 0 0 0-.256.053 1 1 0 0 0-.572.507 1 1 0 0 0 .463 1.338l2.29 1.112-2.29 1.11a1 1 0 0 0-.463 1.337 1 1 0 0 0 1.336.463l4.14-2.012a1 1 0 0 0 0-1.799l-4.14-2.012a1 1 0 0 0-.508-.097zm5.434 6.875a1 1 0 0 0-.8.334 1 1 0 0 0 .08 1.412s.365.311.917.553 1.357.466 2.393.466 1.84-.225 2.392-.466c.553-.242.918-.553.918-.553a1 1 0 0 0 .082-1.412 1 1 0 0 0-1.412-.082s-.065.071-.388.213-.843.3-1.592.3-1.266-.159-1.59-.3c-.324-.142-.389-.213-.389-.213a1 1 0 0 0-.611-.252z" color="#000" style="-inkscape-stroke:none"/></svg>