<svg xmlns="http://www.w3.org/2000/svg" width="64" height="64"><g transform="translate(-1.23 -1.23) scale(1.0385)"><rect width="52" height="52" x="6" y="6" fill="#e2434b" rx="26" ry="26" style="paint-order:stroke fill markers"/><path fill="#fff" d="M36.008 24.191c.067.011 3.687.612 3.676 2.121 0 .055 0 .1-.01.154-.217 1.36-3.933 1.564-6.51 1.705a49.42 49.42 0 0 0-1.42.092c-.334.029-.75.05-1.224.075h-.004c-2.782.144-7.512.39-8.858 2.74a.896.896 0 0 0-.119.416c-.004 1.03 2.198 1.925 4.846 3 3.8 1.542 8.519 3.457 8.957 6.685.022.176.033.362.033.537-.008 4.293-7.136 8.21-17.025 12.436A25.942 25.942 0 0 0 32 58c10.585 0 19.646-6.267 23.711-15.305a16.032 16.032 0 0 0-5.308-4.396c-4.965-2.586-11.5-3.985-16.38-5.03-3.805-.814-6.604-1.413-6.863-2.191a.818.818 0 0 1-.033-.219c.011-1.216 3.784-1.5 6.256-1.621 2.614-.131 6.575-.483 7.057-2.367.014-.06.024-.119.029-.178.002-.028.002-.056.002-.084.01-1.738-4.39-2.407-4.463-2.418z"/></g></svg>