<svg xmlns="http://www.w3.org/2000/svg" width="64" height="64" viewBox="0 0 16.933 16.933"><rect width="14.287" height="14.287" x="1.323" y="1.323" fill="#e6e6e6" rx="7.144" ry="7.144"/><rect width="12.171" height="12.171" x="2.381" y="2.381" fill="#fff" opacity=".35" rx="6.085" ry="6.085"/><path fill="#4d4d4d" d="M11.853 4.233H5.08L4.868 7.62h.635c.085-.586.175-1.159.308-1.534.315-.856.562-.987 1.385-.987.4 0 .635.129.635.422v5.805c0 .492 0 .527-.916.527h-.354v.847h3.81v-.847h-.354c-.97 0-.916-.035-.916-.527V5.52c0-.293.235-.422.635-.422.74 0 1.01.084 1.313.788.182.433.284 1.064.38 1.733h.636z"/></svg>