<svg xmlns="http://www.w3.org/2000/svg" width="64" height="64"><circle cx="32" cy="32" r="27" fill="#d35400" fill-rule="evenodd" style="paint-order:stroke fill markers"/><path fill="#fff" fill-rule="evenodd" d="M6.574 41A27 27 0 0 0 32 59a27 27 0 0 0 25.422-18z" opacity=".5" style="paint-order:stroke fill markers"/><path fill="#232629" d="M32 45c-1.662 0-3 1.338-3 3s1.338 3 3 3a2.993 2.993 0 0 0 2.813-2h8.375A2.99 2.99 0 0 0 49 48c0-1.662-1.338-3-3-3a2.993 2.993 0 0 0-2.813 2h-8.375A2.99 2.99 0 0 0 32 45" opacity=".2"/><path d="M34.81 49h8.375a2.99 2.99 0 0 0 5.813-1c0-1.662-1.338-3-3-3a2.993 2.993 0 0 0-2.813 2H34.81c.188 1 .188 1 0 2" opacity=".5"/><path fill="#d35400" d="M18 45c-1.662 0-3 1.338-3 3s1.338 3 3 3a2.993 2.993 0 0 0 2.813-2h8.375A2.99 2.99 0 0 0 35 48c0-1.662-1.338-3-3-3a2.993 2.993 0 0 0-2.813 2h-8.375A2.99 2.99 0 0 0 18 45"/><path fill="#fcfcfc" d="M30.286 14v17.143l-7.714-7.714L20 26l12 12 12-12-2.571-2.571-7.714 7.714V14z"/></svg>