<svg xmlns="http://www.w3.org/2000/svg" width="64" height="64" version="1"><circle cx="32" cy="32" r="27" fill="#f0f0f0" style="paint-order:stroke fill markers"/><path fill="#b7b7b7" d="M23 10c-1.662 0-3 1.338-3 3v13h24V13c0-1.662-1.338-3-3-3z"/><path fill="#4d4d4d" d="M16 26c-1.662 0-3 1.338-3 3v8c0 10.526 8.474 19 19 19s19-8.474 19-19v-8c0-1.662-1.338-3-3-3z"/><rect width="22" height="2" x="21" y="42" opacity=".4" rx="1" ry="1"/><rect width="18" height="2" x="23" y="46" opacity=".4" rx="1" ry="1"/><rect width="14" height="2" x="25" y="50" opacity=".4" rx="1" ry="1"/><path d="M23 14h7v3h-7zm11 0h7v3h-7z" opacity=".35"/><path fill="#fb5" d="M25 14h3v3h-3zm11 0h3v3h-3z"/><circle cx="48" cy="48" r="14" fill="#4bd296"/><path fill="#fff" d="m41 49 7 8 7-8h-4V39h-6v10z"/></svg>