<svg xmlns="http://www.w3.org/2000/svg" xml:space="preserve" width="64" height="64"><circle cx="32" cy="32" r="21.992" style="fill:#5f3532;fill-opacity:1;stroke:none;stroke-width:.767652;stroke-linecap:square;stroke-dasharray:none;stroke-opacity:1"/><g style="fill:#4b2926;fill-opacity:1"><g style="fill:#4b2926;fill-opacity:1"><path d="m33.847 32.016.458 2.582.615-2.292 1.545.09.583 2.333.364-2.276 1.474-.017.427 2.485.491-2.59 5.427.12.094 3.162 2.49.684-1.556-1.148-.06-2.605 1.802.07.582 3.1L51.037 37l-1.607-1.98-.328-2.7 1.918-.023 1.107 3.551 2.272 1.131-1.431-1.779-.92-2.688L55.287 32l-3.21-.68.626-2.56 1.926-1.183-2.61.774-.91 2.911-2.2.01-.007-1.569 2.042-1.882-2.63 1.226-.247 2.12-1.762-.028.001-2.041 1.973-1.854-2.781 1.527-.118 2.291-5.361.143-.587-2.123-.559 2.086-1.343.015-.161-2.357-.812 2.339-1.7.143-.382-2.034zm-1.79-2.362 2.581-.458-2.291-.615.09-1.546 2.332-.583-2.275-.363-.017-1.475 2.485-.426-2.59-.491.12-5.427 3.161-.094.685-2.49-1.149 1.556-2.605.06.07-1.802 3.101-.582 1.285-2.454-1.98 1.606-2.701.329-.023-1.918 3.552-1.108 1.13-2.272-1.778 1.432-2.689.92-.512-3.24-.679 3.211-2.561-.627-1.183-1.925.774 2.61 2.912.909.01 2.201-1.57.007-1.882-2.043 1.227 2.63 2.12.247-.029 1.763-2.04-.001-1.855-1.973 1.527 2.781 2.291.117.144 5.362-2.123.587 2.086.558.015 1.344-2.358.16 2.34.812.143 1.7-2.035.383z" style="fill:#4b2926;fill-opacity:1;stroke:none;stroke-width:1.41097px;stroke-linecap:butt;stroke-linejoin:miter;stroke-opacity:1" transform="rotate(45 37.844 29.865) scale(1.10685)"/></g><g style="fill:#4b2926;fill-opacity:1"><path d="m33.847 32.016.458 2.582.615-2.292 1.545.09.583 2.333.364-2.276 1.474-.017.427 2.485.491-2.59 5.427.12.094 3.162 2.49.684-1.556-1.148-.06-2.605 1.802.07.582 3.1L51.037 37l-1.607-1.98-.328-2.7 1.918-.023 1.107 3.551 2.272 1.131-1.431-1.779-.92-2.688L55.287 32l-3.21-.68.626-2.56 1.926-1.183-2.61.774-.91 2.911-2.2.01-.007-1.569 2.042-1.882-2.63 1.226-.247 2.12-1.762-.028.001-2.041 1.973-1.854-2.781 1.527-.118 2.291-5.361.143-.587-2.123-.559 2.086-1.343.015-.161-2.357-.812 2.339-1.7.143-.382-2.034zm-1.79-2.362 2.581-.458-2.291-.615.09-1.546 2.332-.583-2.275-.363-.017-1.475 2.485-.426-2.59-.491.12-5.427 3.161-.094.685-2.49-1.149 1.556-2.605.06.07-1.802 3.101-.582 1.285-2.454-1.98 1.606-2.701.329-.023-1.918 3.552-1.108 1.13-2.272-1.778 1.432-2.689.92-.512-3.24-.679 3.211-2.561-.627-1.183-1.925.774 2.61 2.912.909.01 2.201-1.57.007-1.882-2.043 1.227 2.63 2.12.247-.029 1.763-2.04-.001-1.855-1.973 1.527 2.781 2.291.117.144 5.362-2.123.587 2.086.558.015 1.344-2.358.16 2.34.812.143 1.7-2.035.383z" style="fill:#4b2926;fill-opacity:1;stroke:none;stroke-width:1.41097px;stroke-linecap:butt;stroke-linejoin:miter;stroke-opacity:1" transform="rotate(-135 32.819 34.34) scale(1.10685)"/></g></g><path d="M20.622 19.35c1.486-1.713 7.09-1.263 7.288-.921.152.263-1.31 1.605-1.046 2.476 1.73 5.717 5.187 17.48 5.187 17.48s3.835-12.32 5.536-18.094c.152-.513-.52-1.171-.682-1.452-.63-1.097 6.473-.464 6.473-.464s-1.855 1.223-2.033 1.766c-2.202 6.734-9.843 28.953-9.843 28.953s-6.052-21.6-8.351-28.109c-.205-.58-1.654-.945-2.529-1.634z" style="fill:#fff;fill-opacity:1;stroke:none;stroke-width:.664592;stroke-linecap:butt;stroke-linejoin:miter;stroke-dasharray:none;stroke-opacity:1"/><path d="M32 5A26.94 26.94 0 0 0 5 32a26.94 26.94 0 0 0 27 27 26.94 26.94 0 0 0 27-27A26.94 26.94 0 0 0 32 5Zm0 5.771A21.228 21.228 0 0 1 53.229 32 21.228 21.228 0 0 1 32 53.229 21.228 21.228 0 0 1 10.771 32 21.228 21.228 0 0 1 32 10.771Z" style="fill:#412320;fill-opacity:1;stroke:none;stroke-opacity:1"/></svg>