<svg xmlns="http://www.w3.org/2000/svg" width="64" height="64" version="1"><rect width="54" height="54" x="5" y="5" fill="#e4e4e4" rx="27" ry="27"/><rect width="46" height="46" x="9" y="9" fill="#f0f0f0" rx="23" ry="23"/><path fill="#3e9def" d="M36.393 16.553a1.19 1.19 0 0 1 .981-.553c.553-.001 1.08.31 1.4.752.302.423.395.958.396 1.468-.005.718-.17 1.424-.367 2.111-.493 1.621-1.162 3.183-1.662 4.802-.55 1.838-.814 3.886-.075 5.71.387-1.078.77-2.16 1.155-3.24.109-.285.253-.61.559-.727.426-.152.86.293.848.704-.117.6-.343 1.17-.52 1.754-1.442 4.331-3.055 8.603-4.61 12.896 2.067-1.89 4.14-3.773 6.21-5.659.595-.542 1.24-1.132 1.423-1.952.182-.804-.157-1.602-.54-2.292-.443-.824-1.01-1.608-1.217-2.535-.105-.48-.073-1.033.25-1.427.234-.296.66-.45 1.018-.305.355.136.568.476.736.797.562 1.128.913 2.36 1.033 3.616.384-.775.773-1.546 1.157-2.32.233-.457.438-.946.815-1.306.227-.225.559-.366.88-.293.402.089.685.455.793.835.123.404-.007.824-.137 1.208-.388 1.073-.997 2.044-1.585 3.016a43.649 43.649 0 0 1-2.637 3.736c.543-.363 1.114-.744 1.778-.82.629-.084 1.323.284 1.531.898.14.417-.086.89-.464 1.094-.555.31-1.211.305-1.828.333-2.238.061-4.419 1.163-5.807 2.917-1.096 1.398-1.655 3.136-2.767 4.524-.702.845-1.693 1.906-2.783 1.672-1.452-.312-1.452-2.581-1.814-3.706a2.894 2.894 0 0 0-1.022-1.439c-.425-.313-.933-.493-1.447-.592-1.18-.226-2.397-.107-3.574-.35-.59-.12-1.17-.356-1.62-.763-.428-.377-.724-.88-.93-1.407-.443-1.149-.534-2.394-.928-3.557a8.191 8.191 0 0 0-3.17-4.136c-.31-.21-.647-.413-.847-.74-.164-.255-.15-.617.065-.84.36-.392 1.011-.424 1.427-.1.853.605.977 1.78 1.772 2.439.001-1.086-.004-2.171-.006-3.257.002-.313-.033-.651.124-.936a.512.512 0 0 1 .767-.14c.31.259.405.683.449 1.067.154 1.496.303 2.992.458 4.49.78-.701 1.138-1.837.886-2.856-.077-.326-.2-.66-.13-.998a.57.57 0 0 1 .64-.432c.319.043.546.316.665.596.19.465.191.982.153 1.476-.113 1.124-.589 2.161-.917 3.23-.32.945-.54 1.994-.219 2.969.285.911 1.009 1.632 1.858 2.04 1.048.516 2.228.676 3.383.721-.702-1.229-1.465-2.529-1.452-3.99.014-1.472.95-2.712 1.202-4.132.43-2.357-.633-4.919-2.612-6.27-.88-.605-1.935-.874-2.839-1.434-.817-.5-1.55-1.39-1.423-2.404.621-.24 1.314-.087 1.875.236 1.095.584 1.791 1.692 2.892 2.267.386.211.83.316 1.27.289.238-.572 0-1.212-.385-1.657-.723-.872-1.944-1.083-2.7-1.916-.38-.435-.592-1.057-.432-1.625.13-.45.594-.756 1.057-.722.686.043 1.277.472 1.745.945 1.551 1.55 2.444 3.66 2.794 5.802.413 2.528.092 5.106-.417 7.595-.095.508-.273 1.028-.141 1.545.056.24.229.487.495.509.365.023.666-.225.932-.443.832-.68 1.493-1.594 1.766-2.642.213-.763.219-1.563.204-2.349.004-.393-.025-.827.21-1.168.168-.263.482-.47.804-.393.253.048.432.267.51.502.124.387.105.805.03 1.2-.238 1.088-.453 2.191-.884 3.225-.304.742-.714 1.448-1.27 2.03-.613.649-1.37 1.17-1.865 1.927-.337.518-.555 1.16-.409 1.779.107.493.483.896.935 1.101.66.301 1.46.286 2.103-.053.51-.276.873-.753 1.162-1.243.508-.88.816-1.86 1.072-2.84a26.07 26.07 0 0 0 .716-4.831c.104-1.739-.212-3.537-1.088-5.055a6.285 6.285 0 0 0-1.895-2.036c-.693-.515-1.455-.962-2.017-1.63-.526-.618-.89-1.454-.699-2.275a1.41 1.41 0 0 1 1.212-.124c.752.256 1.34.86 1.72 1.542.516.805.946 1.763 1.854 2.2-.739-1.454-1.5-2.895-2.249-4.343-.243-.49-.483-1.024-.42-1.584a.896.896 0 0 1 .87-.774c.38.001.737.215.963.513.258.335.382.748.498 1.148.596 2.075 1.192 4.148 1.79 6.222.751-1.432 1.07-3.092.855-4.699-.093-.851-.343-1.674-.542-2.505-.135-.544-.094-1.154.216-1.633z"/></svg>