<svg xmlns="http://www.w3.org/2000/svg" width="64" height="64"><path fill="#67ac5e" d="M32 5c14.912 0 27 12.088 27 27S46.911 59 32 59 5 46.911 5 32 17.088 5 32 5z"/><path fill="#fff" fill-rule="evenodd" d="M30.586 24.374c-.212-.542-.372-.562-.695-.582a8.57 8.57 0 0 0-.364-.01c-.42 0-.85.134-1.111.418-.318.351-1.112 1.167-1.112 2.848s1.135 3.306 1.295 3.53c.16.232 2.225 3.727 5.429 5.154 2.504 1.114 3.248 1.018 3.82.884.828-.196 1.875-.854 2.137-1.652.265-.797.265-1.48.186-1.624-.08-.139-.293-.226-.607-.398-.32-.169-1.88-.995-2.172-1.11-.293-.115-.563-.077-.784.255-.31.461-.607.932-.856 1.21-.19.222-.5.255-.771.13-.35-.16-1.339-.534-2.553-1.696-.944-.903-1.583-2.023-1.769-2.364-.186-.34-.018-.542.128-.73.16-.212.31-.365.47-.562.16-.202.249-.307.355-.539.107-.226.035-.46-.044-.63-.08-.173-.718-1.854-.98-2.536"/><path fill="#f0f0f0" d="M25.001 11c-6.616 0-12.002 5.384-12 12 0 2.163.655 4.254 1.76 6.106L12 35.998l6.667-2.908C20.57 34.287 22.744 35 25 35c6.615.002 12-5.385 12-12s-5.385-12-12-12zm0 2c5.535 0 10 4.465 10 10a9.984 9.984 0 0 1-9.998 10 9.987 9.987 0 0 1-5.746-1.824l-.461-.324-3.113 1.36 1.285-3.247-.291-.436A10 10 0 0 1 15 23a9.985 9.985 0 0 1 10-9.999z" color="#000" style="font-feature-settings:normal;font-variant-alternates:normal;font-variant-caps:normal;font-variant-ligatures:normal;font-variant-numeric:normal;font-variant-position:normal;isolation:auto;mix-blend-mode:normal;shape-padding:0;text-decoration-color:#000;text-decoration-line:none;text-decoration-style:solid;text-indent:0;text-orientation:mixed;text-transform:none;white-space:normal" transform="translate(3.826 3.826) scale(1.1739)"/></svg>