<svg xmlns="http://www.w3.org/2000/svg" width="64" height="64"><g transform="translate(3 -3)"><circle cx="29" cy="35" r="27" fill="#4d4d4d" style="paint-order:stroke markers fill"/><path d="m27.958 51.152-.577-.083c-1.916-.272-3.896-1.167-5.425-2.451-2.367-1.987-3.762-4.76-3.959-7.867l-.04-.632.513.026c3.616.185 6.8 2.011 8.794 5.041.917 1.394 1.597 3.319 1.715 4.854.02.251.054.456.076.456s.056-.205.076-.456c.084-1.09.497-2.539 1.046-3.669 1.353-2.788 3.813-4.875 6.814-5.781.645-.195 1.5-.36 2.063-.397.262-.017.617-.045.788-.06l.312-.03-.041.652c-.24 3.807-2.313 7.126-5.638 9.03a10.962 10.962 0 0 1-3.97 1.32c-.546.073-2.167.103-2.547.047zm-1.553-8.75c-.3-.157-.34-.29-.553-1.833-.112-.81-.217-1.53-.233-1.602-.021-.095-.172-.202-.562-.397a10.22 10.22 0 0 1-.992-.582l-.46-.316-1.558.62c-1.554.618-1.56.62-1.786.539-.218-.078-.27-.157-1.466-2.216-1.316-2.268-1.403-2.467-1.189-2.73.059-.073.666-.568 1.348-1.1l1.241-.967-.027-.458a7.362 7.362 0 0 1 .013-1.383l.043-.52-1.305-1.01c-.788-.609-1.328-1.067-1.361-1.154a.633.633 0 0 1-.025-.296c.047-.236 2.386-4.273 2.579-4.451.094-.088.237-.159.317-.159.08 0 .828.275 1.661.61l1.516.61.547-.364c.3-.201.747-.456.991-.567.245-.112.456-.241.47-.289.015-.048.125-.787.244-1.642.205-1.463.228-1.567.375-1.732l.157-.176 2.53-.014c1.937-.011 2.563.002 2.669.057.3.157.34.29.554 1.833.112.81.216 1.53.232 1.602.022.095.173.201.563.396.293.147.74.41.993.583l.46.317 1.555-.622 1.555-.62.23.08c.221.08.268.15 1.468 2.218 1.316 2.268 1.403 2.467 1.19 2.73-.06.072-.666.568-1.349 1.102-1.048.82-1.239.993-1.227 1.11.031.328.023 1.954-.01 2.06-.031.097.167.276 1.266 1.138.716.562 1.327 1.07 1.358 1.127a.686.686 0 0 1 .056.269c0 .205-2.35 4.301-2.6 4.533-.095.087-.237.159-.316.159-.079 0-.825-.275-1.658-.611l-1.515-.61-.55.365c-.303.2-.75.456-.995.567-.244.111-.455.241-.47.289a63.05 63.05 0 0 0-.243 1.642c-.205 1.462-.227 1.566-.375 1.732l-.157.175-2.53.015c-1.937.011-2.562-.002-2.669-.058zm3.343-7.4a4.284 4.284 0 0 0 2.368-1.242c.725-.725 1.14-1.569 1.277-2.598.124-.929-.11-1.997-.623-2.845-.28-.462-.987-1.169-1.449-1.448-.85-.515-1.915-.748-2.852-.623-.63.084-1.386.356-1.867.67-.464.304-1.108.96-1.376 1.401-.514.845-.748 1.915-.624 2.845.134 1.013.55 1.87 1.248 2.57.491.492.947.798 1.528 1.025.797.31 1.57.39 2.37.246z" style="fill:#fff;stroke-width:.0577193"/></g></svg>