<svg xmlns="http://www.w3.org/2000/svg" width="64" height="64" viewBox="0 0 16.933 16.933"><circle cx="8.466" cy="8.466" r="7.144" fill="#4d4d4d" style="paint-order:stroke fill markers"/><g fill="#fff"><path d="M5.408 2.91A6.35 6.35 0 0 0 2.91 5.396v.16c0 .293.236.529.529.529h2.117a.527.527 0 0 0 .529-.529V3.44a.528.528 0 0 0-.529-.53z" opacity=".75"/><rect width="3.175" height="3.175" x="6.879" y="2.91" opacity=".75" rx=".529" ry=".529"/><path d="M11.377 2.91a.528.528 0 0 0-.529.529v2.117c0 .293.236.529.529.529h2.117c.293 0 .53-.236.53-.529v-.148a6.35 6.35 0 0 0-2.487-2.498z" opacity=".75"/><rect width="3.175" height="3.175" x="2.91" y="6.88" opacity=".75" rx=".529" ry=".529"/><rect width="3.175" height="3.175" x="6.879" y="6.88" opacity=".75" rx=".529" ry=".529"/><rect width="3.175" height="3.175" x="10.848" y="6.88" opacity=".75" rx=".529" ry=".529"/><path d="M3.439 10.85a.528.528 0 0 0-.53.53v.145a6.35 6.35 0 0 0 2.49 2.5h.157a.528.528 0 0 0 .529-.529V11.38a.528.528 0 0 0-.529-.529z" opacity=".75"/><rect width="3.175" height="3.175" x="6.879" y="10.85" opacity=".75" rx=".529" ry=".529"/><path d="M11.377 10.85a.528.528 0 0 0-.529.53v2.116c0 .293.236.53.529.53h.145a6.35 6.35 0 0 0 2.501-2.489v-.158a.528.528 0 0 0-.529-.53h-2.117z" opacity=".75"/></g></svg>