<svg xmlns="http://www.w3.org/2000/svg" width="64" height="64"><path fill="#298fc4" d="M32 5c14.912 0 27 12.088 27 27S46.911 59 32 59 5 46.911 5 32 17.088 5 32 5z"/><path fill="#19536f" d="M43.335 17.877c-10.936.165-17.058 6.4-20.286 12.472-2.954 5.557-3.399 10.152-3.486 11.042H6.68c.297.802.63 1.585 1 2.348h12.8c.335 0 .661-.152.88-.404.124-.147.217-.324.258-.514a.766.766 0 0 0 0-.147s.55-5.562 3.521-11.152c2.774-5.213 7.706-10.253 16.505-11.042-5.236 10.483.262 22.598.262 22.598.041.05.092.1.147.147.202.298.55.495.912.514h13.353c.37-.763.702-1.546 1-2.348H43.846c-.45-1.004-5.512-12.583.555-21.717.156-.275.197-.614.11-.917a1.203 1.203 0 0 0-.257-.514 1.192 1.192 0 0 0-.917-.368h-.002z"/></svg>