<svg xmlns="http://www.w3.org/2000/svg" width="64" height="64"><circle cx="32" cy="32" r="27" fill="#5793f7"/><path fill="#fff" d="m20.198 39.906-4.334-13.054c-.433-1.305-.468-1.297.867-1.632l2.6-.652c1.301-.327 1.3-.327 1.734.979L23.21 32l4.357 10.516s-.433 1.306-1.733.783l-3.901-1.566c-1.3-.522-1.3-.522-1.735-1.828z"/><path fill="#cee0fd" d="m40.319 45.27.19-.578 5.484-22.166c.324-1.312-.65-3.06-1.95-3.497l-2.602-.875c-1.3-.438-3.082.421-3.468 1.748l-3.34 11.463 2.539 13.326zM25.401 24.385 23.211 32l3.49 10.516a.468.468 0 0 0 .435.328c.18 0 .385-.138.433-.328l1.988-7.977-2.538-11.422s-1.27.367-1.618 1.269z"/><path fill="#fff" d="m31.904 42.099-5.635-17.713c-.275-.773-.867 0-.867 0s.349-1.327 1.618-1.584l4.018-.816c1.302-.264 1.298-.27 1.733 1.087l6.94 21.625c.172.545.647.615.8 0-.325 1.36-.37 1.479-1.67 1.026l-5.202-1.812c-1.3-.453-1.3-.453-1.735-1.813z"/></svg>