<svg xmlns="http://www.w3.org/2000/svg" width="64" height="64" viewBox="0 0 16.933 16.933"><path fill="#f0f0f0" d="M8.953 17.998A27 27 0 0 0 5 32a27 27 0 0 0 27 27 27 27 0 0 0 27-27 27 27 0 0 0-3.943-14.002 27 27 0 0 0-.002 0H8.953z" style="paint-order:stroke fill markers" transform="scale(.26458)"/><path fill="#666" d="M8.467 1.323a7.144 7.144 0 0 0-6.098 3.439h12.198a7.144 7.144 0 0 0-6.1-3.44z" style="paint-order:stroke markers fill"/><rect width=".794" height=".794" x="11.642" y="3.175" opacity=".35" ry=".397" style="paint-order:stroke markers fill"/><rect width=".794" height=".794" x="10.054" y="3.175" opacity=".35" ry=".397" style="paint-order:stroke markers fill"/><rect width=".794" height=".794" x="8.466" y="3.175" opacity=".35" ry=".397" style="paint-order:stroke markers fill"/><rect width="8.467" height=".529" x="4.233" y="6.879" opacity=".35" ry=".265" style="paint-order:stroke markers fill"/><circle cx="10.054" cy="7.143" r="1.058" fill="#308fcf" style="paint-order:stroke markers fill"/><rect width="8.467" height=".529" x="4.233" y="11.112" opacity=".35" ry=".265" style="paint-order:stroke markers fill"/><circle cx="6.615" cy="11.377" r="1.587" opacity=".15" style="paint-order:markers stroke fill"/><circle cx="6.615" cy="11.377" r="1.058" fill="#308fcf" style="paint-order:markers stroke fill"/></svg>