<svg xmlns="http://www.w3.org/2000/svg" width="64" height="64" viewBox="0 0 16.933 16.933"><path fill="#638df5" d="M32 5v27H5a27 27 0 0 0 27 27 27 27 0 0 0 27-27A27 27 0 0 0 32 5z" style="paint-order:stroke fill markers" transform="scale(.26458)"/><path fill="#f0f0f0" d="M32 5A27 27 0 0 0 5 32h27V5z" opacity=".5" style="paint-order:stroke fill markers" transform="scale(.26458)"/><path d="M32 5v27H5a27 27 0 0 0 .035 1H32v26a27 27 0 0 0 1-.035V33h25.95a27 27 0 0 0 .05-1H33V5.05A27 27 0 0 0 32 5z" opacity=".15" style="paint-order:stroke fill markers" transform="scale(.26458)"/><path fill="#f0f0f0" d="M8.466 2.381a6.085 6.085 0 0 0-6.085 6.086h6.085z" style="paint-order:stroke fill markers"/><path d="M8.731 14.816a6.085 6.085 0 0 0 6.085-6.085H8.731z" opacity=".1" style="paint-order:stroke fill markers"/></svg>