<svg xmlns="http://www.w3.org/2000/svg" xmlns:xlink="http://www.w3.org/1999/xlink" width="64" height="64"><defs><linearGradient id="a"><stop offset="0"/><stop offset="1" stop-color="#313131"/></linearGradient><linearGradient id="b" x1="5" x2="5" y1="6" y2="4" gradientTransform="translate(27 22)" gradientUnits="userSpaceOnUse"><stop offset="0" stop-color="#E2E096"/><stop offset="1" stop-color="#F9F8D2"/></linearGradient></defs><path fill="#49494c" fill-rule="evenodd" d="M48 27.122C48 35.837 40.837 43 32 43s-16-7.163-16-15.878C16 18.164 23.163 11 32 11s16 7.164 16 16.122"/><circle cx="32" cy="32" r="27" fill="#999" style="paint-order:stroke fill markers"/><path fill="#cacbcf" d="M32 6A26 26 0 0 0 6 32a26 26 0 0 0 1.04 7.236V37.2a3.113 3.113 0 0 1 3.12-3.12h1.274A21.84 21.84 0 0 0 29.92 48.534v5.306a3.113 3.113 0 0 1-3.12 3.12h-2.007A26 26 0 0 0 32 58a26 26 0 0 0 26-26A26 26 0 0 0 32 6z" style="paint-order:stroke fill markers"/><path fill="#85858a" d="M51 15a2 2 0 1 1-4 0 2 2 0 0 1 4 0z"/><path fill="#fff" d="M50 15a1 1 0 1 0-2 0 1 1 0 0 0 2 0z"/><path fill="#85858a" d="M17 15a2 2 0 1 1-4 0 2 2 0 0 1 4 0z"/><path fill="#fff" d="M16 15a1 1 0 1 0-2 0 1 1 0 0 0 2 0z"/><path fill="#49494c" fill-rule="evenodd" d="M48 27.122C48 35.837 40.837 43 32 43s-16-7.163-16-15.878C16 18.164 23.163 11 32 11s16 7.164 16 16.122"/><path fill="gray" d="M32 10c-9.388 0-17 7.61-17 17 0 9.388 7.612 17 17 17s17-7.612 17-17c0-9.39-7.612-17-17-17zm10.417 27.418a14.714 14.714 0 0 1-4.683 3.159A14.646 14.646 0 0 1 32 41.732c-1.99 0-3.92-.388-5.734-1.155a14.714 14.714 0 0 1-4.683-3.16A14.67 14.67 0 0 1 17.266 27a14.676 14.676 0 0 1 4.316-10.417 14.658 14.658 0 0 1 4.684-3.16A14.632 14.632 0 0 1 32 12.268c1.99 0 3.92.39 5.734 1.157a14.655 14.655 0 0 1 4.683 3.158A14.676 14.676 0 0 1 46.734 27a14.673 14.673 0 0 1-4.316 10.418z"/><g fill="#949496" fill-rule="evenodd" transform="matrix(-1 0 0 1 44 46)"><rect width="1" height="7" rx=".5"/><rect width="1" height="7" x="2" rx=".5"/><rect width="1" height="7" x="4" rx=".5"/><rect width="1" height="7" x="6" rx=".5"/><rect width="1" height="7" x="8" rx=".5"/></g><path fill="#6a6a6a" d="M17 49a2 2 0 1 1-4 0 2 2 0 0 1 4 0z"/><path fill="#fff" d="M16 49a1 1 0 1 0-2 0 1 1 0 0 0 2 0z"/><circle cx="32" cy="27" r="2" fill="#fff" style="paint-order:markers stroke fill"/><g fill-rule="evenodd"><path fill="#fff" d="M18.292 17.277 25 12l14.387 30.27 6.486-5.495Z" opacity=".1"/><use xlink:href="#a" width="100%" height="100%" fill="#1a1a1a" transform="translate(27 22)"/><path fill="#fff" d="M29.432 31.297a5.023 5.023 0 0 1-1.922-2.094l8.979-4.408a5.02 5.02 0 0 0-1.399-1.722l-5.657 8.223z" opacity=".1"/><path fill="#85858a" d="M32 30a3 3 0 1 1 0-6 3 3 0 0 1 0 6z"/><path fill="url(#b)" d="M33 27a1 1 0 1 1-2 0 1 1 0 0 1 2 0"/></g><path fill="gray" d="M32 10c-9.388 0-17 7.61-17 17 0 9.388 7.612 17 17 17s17-7.612 17-17c0-9.39-7.612-17-17-17zm10.417 27.418a14.714 14.714 0 0 1-4.683 3.159A14.646 14.646 0 0 1 32 41.732c-1.99 0-3.92-.388-5.734-1.155a14.714 14.714 0 0 1-4.683-3.16A14.67 14.67 0 0 1 17.266 27a14.676 14.676 0 0 1 4.316-10.417 14.658 14.658 0 0 1 4.684-3.16A14.632 14.632 0 0 1 32 12.268c1.99 0 3.92.39 5.734 1.157a14.655 14.655 0 0 1 4.683 3.158A14.676 14.676 0 0 1 46.734 27a14.673 14.673 0 0 1-4.316 10.418z"/><path fill="#fff" d="m25.298 50.578 12.326-15.323c.176-.205.282-.468.282-.755 0-.643-.533-1.165-1.191-1.165-.293 0-.562.102-.77.276L20.301 45.685a3.47 3.47 0 0 0-1.452 2.815c0 1.935 1.6 3.5 3.574 3.5a3.59 3.59 0 0 0 2.875-1.422z"/><g stroke-linecap="square" transform="translate(-2 -2)"><circle cx="48" cy="48" r="14" fill="#ff8080" style="paint-order:stroke fill markers"/><rect width="2" height="12" x="47" y="40" fill="#fff" rx="1" ry="1" style="paint-order:stroke fill markers"/><circle cx="48" cy="55" r="1" fill="#fff" style="paint-order:stroke fill markers"/></g></svg>