<svg xmlns="http://www.w3.org/2000/svg" width="64" height="64" version="1"><path fill="#4d4d4d" d="M58.182 25.136a25.576 25.576 0 0 0-2.016-5.354 27.163 27.163 0 0 0-.704-1.282h-.001q-1.751-2.975-4.367-5.591C45.824 7.638 39.456 5 32 5s-13.82 2.638-19.092 7.91C7.638 18.18 5 24.544 5 32c0 7.456 2.637 13.823 7.908 19.094 3.893 3.893 8.38 6.347 13.437 7.359A28.66 28.66 0 0 0 32 59c7.457 0 13.823-2.634 19.094-7.905 2.78-2.78 4.828-5.863 6.14-9.256.973-2.514 1.545-5.194 1.714-8.051A30.78 30.78 0 0 0 59 32c0-2.388-.27-4.668-.818-6.864z"/><circle cx="22.192" cy="28.256" r="11.313" fill="#ececec"/><circle cx="22.192" cy="26.066" r="4.014" fill="#479ae5"/><circle cx="22.192" cy="26.066" r="1.095" opacity=".75"/><circle cx="39.222" cy="34.095" r="14.232" fill="#fff"/><circle cx="41.168" cy="31.905" r="6.204" fill="#479ae5"/><circle cx="41.168" cy="31.905" r="1.825" opacity=".75"/></svg>