<svg xmlns="http://www.w3.org/2000/svg" width="64" height="64" viewBox="0 0 16.933 16.933"><circle cx="8.466" cy="8.46" r="7.144" fill="#df4139" style="paint-order:stroke markers fill"/><path fill="#fff" d="M6.63 5.861c-.019 0-.042.003-.067.004-.098.007-1.947.337-2.065.37-.125.036-.23.109-.256.177-.044.118.084.5.252.757.291.443.715.724 1.606 1.068.49.188.591.236.654.307.088.096.016.14-.63.415-1.01.429-1.465.793-1.657 1.33-.059.16-.084.581-.045.687.052.137.084.136 1.06-.042.98-.179 1.025-.189 1.108-.264.066-.062.07-.075.1-.361.015-.163.051-.368.076-.452.058-.197.206-.402.367-.511.612-.413 1.762-.206 2.386.426.234.237.382.491.5.86.067.214.137.307.243.326.098.02.1.02 1.349-.209.693-.126.98-.187 1.023-.219.088-.064.088-.224.001-.488-.15-.456-.41-.785-.892-1.135-.239-.173-.54-.336-1.05-.57-.484-.223-.584-.282-.584-.351 0-.056.06-.082.444-.192.843-.242 1.17-.58 1.17-1.208 0-.275-.052-.497-.138-.568-.112-.097-.231-.1-.702-.018-1.51.26-1.467.251-1.536.36-.037.058-.035.07.032.332.04.15.07.309.07.352a.52.52 0 0 1-.126.303c-.15.135-.491.227-.841.227-.422 0-.74-.14-1.056-.461-.228-.234-.345-.43-.5-.844-.136-.363-.156-.41-.296-.41"/></svg>