<svg xmlns="http://www.w3.org/2000/svg" width="64" height="64"><path fill="#454545" d="M32 5c14.912 0 27 12.088 27 27S46.912 59 32 59 5 46.912 5 32 17.088 5 32 5z"/><path fill="#fab268" d="M36.292 22.797c-5.402 1.44-9.557 6.269-14.344 9.612 2.04-.835 4.604-2.146 5.65-2.237l-3.375 3.742 2.605-1.138c-1.165 3.462-2.545 6.695-5.905 7.96L32 49.258l11.598-9.107c-4.53.123-8.557-.409-8.987-5.613-.11-.623.05-4.952 6.273-6.933-.628-.43-2.733-.142-4.219-.147-.065-.586.298-3.127 5.1-3.41-1.206-1.24-2.724-1.336-4.88-.662-.228-.22-.362-.197-.586-.587M35.05 24.67c.307.133.348.335.404.55-.537.111-1.294.368-1.504.075-.096-.101.56-.472 1.105-.614"/><path fill="#7799b9" d="M24.59 16.042C18.569 18.835 14.391 24.924 14.391 32c0 9.721 7.883 17.604 17.609 17.604 9.721 0 17.604-7.883 17.604-17.604 0-6.988-4.077-13.019-9.978-15.848l-.183.183c4.659 2.614 7.818 7.59 7.818 13.312 0 7.686-5.672 14.014-13.06 15.078L32 48.435l-2.201-3.71c-7.388-1.063-13.06-7.392-13.06-15.078 0-5.783 3.223-10.799 7.96-13.39-.032-.07-.078-.147-.11-.22"/></svg>