<svg xmlns="http://www.w3.org/2000/svg" width="64" height="64"><circle cx="32" cy="32" r="27" fill="#dae0e2" style="paint-order:stroke fill markers"/><g stroke-width=".769"><path fill="#373a3d" d="M16.936 47.99 28.57 32.76 16.59 16.015l7.7.006 9.544 13.168-14.27 18.802h-2.63zm22.772.01L30.23 34.81 44.62 16h2.564L35.5 31.304 47.407 48z"/><path fill="#ec6e28" d="M31.998 21.842c-.925 0-1.914.071-2.804.155 1.586 2.044 2.902 3.775 4.416 5.74-.85-1.807-2.597-3.54-1.993-4.432.598-.882 1.7-.734 1.784-.734 1.766 0 3.466.198 5.055.562l.373-.507c-2.12-.539-4.423-.784-6.83-.784zm9.566 1.65-.343.484c4.897 1.894 8.21 5.513 8.21 9.66 0 6.107-7.181 11.061-16.03 11.061-8.85 0-16.034-4.954-16.034-11.061 0-3.326 2.13-6.31 5.5-8.34l-1.035-1.56c-5.287 2.215-8.795 6.102-8.795 10.526 0 6.885 8.494 12.47 18.962 12.47s18.965-5.585 18.965-12.47c0-4.59-3.778-8.605-9.4-10.77z"/></g></svg>