<svg width="22" height="22" version="1.1" xmlns="http://www.w3.org/2000/svg">
 <defs>
  <style id="current-color-scheme" type="text/css">.ColorScheme-Text { color:#565656; } .ColorScheme-Highlight { color:#5294e2; }</style>
 </defs>
 <path d="m6.6449 1.0002a0.62507 0.62507 0 0 0-0.45655 0.2002l-5.0196 5.3932a0.62507 0.62507 0 0 0-0.14893 0.58351l3.1788 12.2a0.62507 0.62507 0 0 0 1.1206 0.19532l5.6056-8.2276 6.9606 9.402a0.62507 0.62507 0 0 0 1.1206-0.28077l1.9873-13.658a0.62507 0.62507 0 0 0-0.4004-0.67629l-13.728-5.0928a0.62507 0.62507 0 0 0-0.21973-0.039063zm0.17578 1.355 12.864 4.7731-1.6968 11.658-6.5797-8.8942a0.62507 0.62507 0 0 0-1.0205 0.019532l-5.3272 7.82-2.7442-10.537 4.5045-4.839z" style="fill:currentColor" class="ColorScheme-Text"/>
</svg>
