<?xml version="1.0" encoding="UTF-8" standalone="no"?>
<svg
   viewbox="0 0 200 200"
   version="1.1"
   id="svg4"
   sodipodi:docname="abiword.svg"
   width="64"
   height="64"
   inkscape:version="1.1.1 (3bf5ae0d25, 2021-09-20, custom)"
   xmlns:inkscape="http://www.inkscape.org/namespaces/inkscape"
   xmlns:sodipodi="http://sodipodi.sourceforge.net/DTD/sodipodi-0.dtd"
   xmlns="http://www.w3.org/2000/svg"
   xmlns:svg="http://www.w3.org/2000/svg">
  <defs
     id="defs8" />
  <sodipodi:namedview
     id="namedview6"
     pagecolor="#ffffff"
     bordercolor="#666666"
     borderopacity="1.0"
     inkscape:pageshadow="2"
     inkscape:pageopacity="0.0"
     inkscape:pagecheckerboard="0"
     showgrid="false"
     inkscape:zoom="9.1570328"
     inkscape:cx="7.6443976"
     inkscape:cy="42.207996"
     inkscape:window-width="1920"
     inkscape:window-height="996"
     inkscape:window-x="0"
     inkscape:window-y="0"
     inkscape:window-maximized="1"
     inkscape:current-layer="svg4"
     showguides="true" />
  <path
     d="M 2,32 C 2,10.4 10.4,2 32,2 53.6,2 62,10.4 62,32 62,53.6 53.6,62 32,62 10.4,62 2,53.6 2,32"
     id="path2"
     style="stroke-width:0.3;fill:#4b8de6;fill-opacity:1" />
  <path
     id="path2207"
     style="color:#000000;fill:#ffffff;stroke:none;stroke-width:1.00283;stroke-linejoin:round;-inkscape-stroke:none"
     d="m 32.105597,13 a 2.0114142,2.0003116 0 0 0 -1.799093,1.105531 L 13.211193,48.107428 a 2.0114142,2.0003116 0 0 0 2.818448,2.617333 L 33.124952,40.724203 32.076136,38.948714 15.717353,47.949216 32.105597,15.000112 49.198944,49.002009 51,48.107428 33.904689,14.105531 A 2.0114142,2.0003116 0 0 0 32.105597,13 Z" />
</svg>
