<?xml version="1.0" encoding="UTF-8" standalone="no"?>
<svg
   viewbox="0 0 200 200"
   version="1.1"
   id="svg4"
   sodipodi:docname="accessories-text-editor.svg"
   width="64"
   height="64"
   inkscape:version="1.1.1 (3bf5ae0d25, 2021-09-20, custom)"
   xmlns:inkscape="http://www.inkscape.org/namespaces/inkscape"
   xmlns:sodipodi="http://sodipodi.sourceforge.net/DTD/sodipodi-0.dtd"
   xmlns="http://www.w3.org/2000/svg"
   xmlns:svg="http://www.w3.org/2000/svg">
  <defs
     id="defs8" />
  <sodipodi:namedview
     id="namedview6"
     pagecolor="#ffffff"
     bordercolor="#666666"
     borderopacity="1.0"
     inkscape:pageshadow="2"
     inkscape:pageopacity="0.0"
     inkscape:pagecheckerboard="0"
     showgrid="false"
     inkscape:zoom="8"
     inkscape:cx="61"
     inkscape:cy="35.8125"
     inkscape:window-width="1920"
     inkscape:window-height="996"
     inkscape:window-x="0"
     inkscape:window-y="0"
     inkscape:window-maximized="1"
     inkscape:current-layer="svg4"
     showguides="true" />
  <path
     d="M 2,32 C 2,10.4 10.4,2 32,2 53.6,2 62,10.4 62,32 62,53.6 53.6,62 32,62 10.4,62 2,53.6 2,32"
     id="path2"
     style="stroke-width:0.3;fill:#e86a30;fill-opacity:1" />
  <path
     id="rect1511"
     style="fill:#ffffff;stroke-width:4;stroke-linecap:round;stroke-linejoin:round"
     d="m 19,13 c -3.324,0 -6,2.676 -6,6 v 26 c 0,3.324 2.676,6 6,6 H 34 L 38.296875,38.240234 51,34 V 19 c 0,-3.324 -2.676,-6 -6,-6 z m 6,7 h 20 c 0.554,0 1,0.446 1,1 0,0.554 -0.446,1 -1,1 H 25 c -0.554,0 -1,-0.446 -1,-1 0,-0.554 0.446,-1 1,-1 z m 0,7 h 20 c 0.554,0 1,0.446 1,1 0,0.554 -0.446,1 -1,1 H 25 c -0.554,0 -1,-0.446 -1,-1 0,-0.554 0.446,-1 1,-1 z"
     sodipodi:nodetypes="sssscccsssssssssssssssss" />
  <path
     id="rect1654"
     style="fill:#ac4822;fill-opacity:1;stroke-width:4;stroke-linecap:round;stroke-linejoin:round"
     d="M 40,34 H 51 L 34,51 V 40 c 0,-3.324 2.676,-6 6,-6 z"
     sodipodi:nodetypes="sccss" />
  <path
     id="rect2706"
     style="fill:#ffd09b;fill-opacity:1;stroke-width:4;stroke-linecap:round;stroke-linejoin:round"
     d="M 19 13 C 15.676 13 13 15.676 13 19 L 13 45 C 13 48.324 15.676 51 19 51 L 19 13 z " />
</svg>
