<?xml version="1.0" encoding="UTF-8" standalone="no"?>
<svg
   viewbox="0 0 200 200"
   version="1.1"
   id="svg4"
   sodipodi:docname="accessories-notes.svg"
   width="64"
   height="64"
   inkscape:version="1.1.1 (3bf5ae0d25, 2021-09-20, custom)"
   xmlns:inkscape="http://www.inkscape.org/namespaces/inkscape"
   xmlns:sodipodi="http://sodipodi.sourceforge.net/DTD/sodipodi-0.dtd"
   xmlns="http://www.w3.org/2000/svg"
   xmlns:svg="http://www.w3.org/2000/svg">
  <defs
     id="defs8" />
  <sodipodi:namedview
     id="namedview6"
     pagecolor="#ffffff"
     bordercolor="#666666"
     borderopacity="1.0"
     inkscape:pageshadow="2"
     inkscape:pageopacity="0.0"
     inkscape:pagecheckerboard="0"
     showgrid="false"
     inkscape:zoom="4.5549462"
     inkscape:cx="37.322066"
     inkscape:cy="21.405302"
     inkscape:window-width="1920"
     inkscape:window-height="996"
     inkscape:window-x="0"
     inkscape:window-y="0"
     inkscape:window-maximized="1"
     inkscape:current-layer="svg4"
     showguides="true" />
  <path
     d="M 2,32 C 2,10.4 10.4,2 32,2 53.6,2 62,10.4 62,32 62,53.6 53.6,62 32,62 10.4,62 2,53.6 2,32"
     id="path2"
     style="stroke-width:0.3;fill:#e85a30;fill-opacity:1" />
  <path
     id="rect1511"
     style="fill:#ffffff;stroke-width:4;stroke-linecap:round;stroke-linejoin:round"
     d="M 19 13 C 16.373451 13 14.158593 14.674499 13.341797 17.015625 A 4 4 0 0 1 17 21 A 4 4 0 0 1 13 25 L 13 28 A 4 4 0 0 1 17 32 A 4 4 0 0 1 13 36 L 13 39 A 4 4 0 0 1 17 43 A 4 4 0 0 1 13.333984 46.962891 C 14.144616 49.315338 16.365376 51 19 51 L 34 51 L 38.296875 38.240234 L 51 34 L 51 19 C 51 15.676 48.324 13 45 13 L 19 13 z " />
  <path
     id="rect1654"
     style="fill:#c64a00;fill-opacity:1;stroke-width:4;stroke-linecap:round;stroke-linejoin:round"
     d="M 40,34 H 51 L 34,51 V 40 c 0,-3.324 2.676,-6 6,-6 z"
     sodipodi:nodetypes="sccss" />
</svg>
