<?xml version="1.0" encoding="UTF-8" standalone="no"?>
<svg
   viewbox="0 0 200 200"
   version="1.1"
   id="svg4"
   sodipodi:docname="org.gnome.Evince.svg"
   width="64"
   height="64"
   inkscape:version="1.1.1 (3bf5ae0d25, 2021-09-20, custom)"
   xmlns:inkscape="http://www.inkscape.org/namespaces/inkscape"
   xmlns:sodipodi="http://sodipodi.sourceforge.net/DTD/sodipodi-0.dtd"
   xmlns="http://www.w3.org/2000/svg"
   xmlns:svg="http://www.w3.org/2000/svg">
  <defs
     id="defs8" />
  <sodipodi:namedview
     id="namedview6"
     pagecolor="#ffffff"
     bordercolor="#666666"
     borderopacity="1.0"
     inkscape:pageshadow="2"
     inkscape:pageopacity="0.0"
     inkscape:pagecheckerboard="0"
     showgrid="false"
     inkscape:zoom="25.766666"
     inkscape:cx="30.23286"
     inkscape:cy="31.688229"
     inkscape:window-width="1920"
     inkscape:window-height="996"
     inkscape:window-x="0"
     inkscape:window-y="0"
     inkscape:window-maximized="1"
     inkscape:current-layer="svg4"
     showguides="false" />
  <path
     d="M 2,32 C 2,10.4 10.4,2 32,2 53.6,2 62,10.4 62,32 62,53.6 53.6,62 32,62 10.4,62 2,53.6 2,32"
     id="path2"
     style="stroke-width:0.3;fill:#999cae;fill-opacity:1;stroke:none" />
  <path
     id="rect902"
     style="fill:#ffffff;stroke-width:2;stroke-linecap:round;stroke-linejoin:round"
     d="m 26,19 c -1.662,0 -3,1.338 -3,3 v 20 c 0,1.662 1.338,3 3,3 h 12 c 1.662,0 3,-1.338 3,-3 V 25.5 L 35.648437,23.379883 34.5,19 Z"
     sodipodi:nodetypes="sssssscccs" />
  <path
     id="rect1654"
     style="fill:#767990;fill-opacity:1;stroke-width:2.15385;stroke-linecap:round;stroke-linejoin:round"
     d="M 37.230769,25.5 H 41 L 34.5,19 v 3.76923 c 0,1.789847 0.865644,2.73077 2.730769,2.73077 z"
     sodipodi:nodetypes="sccss" />
  <path
     id="rect947"
     style="fill:#5d6073;stroke-linecap:round;stroke-linejoin:round;fill-opacity:1"
     d="M 16 12 C 13.784 12 12 13.784 12 16 L 12 22.5 C 12 23.328427 12.671573 24 13.5 24 C 14.328427 24 15 23.328427 15 22.5 L 15 17 C 15 15.892 15.892 15 17 15 L 22.5 15 C 23.328427 15 24 14.328427 24 13.5 C 24 12.671573 23.328427 12 22.5 12 L 16 12 z M 41.5 12 C 40.671573 12 40 12.671573 40 13.5 C 40 14.328427 40.671573 15 41.5 15 L 47 15 C 48.108 15 49 15.892 49 17 L 49 22.5 C 49 23.328427 49.671573 24 50.5 24 C 51.328427 24 52 23.328427 52 22.5 L 52 16 C 52 13.784 50.216 12 48 12 L 41.5 12 z M 13.5 40 C 12.671573 40 12 40.671573 12 41.5 L 12 48 C 12 50.216 13.784 52 16 52 L 22.5 52 C 23.328427 52 24 51.328427 24 50.5 C 24 49.671573 23.328427 49 22.5 49 L 17 49 C 15.892 49 15 48.108 15 47 L 15 41.5 C 15 40.671573 14.328427 40 13.5 40 z M 50.5 40 C 49.671573 40 49 40.671573 49 41.5 L 49 47 C 49 48.108 48.108 49 47 49 L 41.5 49 C 40.671573 49 40 49.671573 40 50.5 C 40 51.328427 40.671573 52 41.5 52 L 48 52 C 50.216 52 52 50.216 52 48 L 52 41.5 C 52 40.671573 51.328427 40 50.5 40 z " />
  <path
     d="m 26.5,30 h 5 c 0.277,0 0.5,0.223 0.5,0.5 0,0.277 -0.223,0.5 -0.5,0.5 h -5 C 26.223,31 26,30.777 26,30.5 26,30.223 26.223,30 26.5,30 Z m 0,3 h 5 c 0.277,0 0.5,0.223 0.5,0.5 0,0.277 -0.223,0.5 -0.5,0.5 h -5 C 26.223,34 26,33.777 26,33.5 26,33.223 26.223,33 26.5,33 Z m 0,3 h 11 c 0.277,0 0.5,0.223 0.5,0.5 0,0.277 -0.223,0.5 -0.5,0.5 h -11 C 26.223,37 26,36.777 26,36.5 26,36.223 26.223,36 26.5,36 Z m 0,3 h 11 c 0.277,0 0.5,0.223 0.5,0.5 0,0.277 -0.223,0.5 -0.5,0.5 h -11 C 26.223,40 26,39.777 26,39.5 26,39.223 26.223,39 26.5,39 Z"
     style="fill:#5d6073;fill-opacity:1;stroke-width:2;stroke-linecap:round;stroke-linejoin:round"
     id="path1229"
     sodipodi:nodetypes="ssssssssssssssssssssssssssss" />
  <rect
     style="fill:#8b8d98;fill-opacity:1;stroke-linecap:round;stroke-linejoin:round"
     id="rect11034"
     width="4"
     height="4"
     x="34"
     y="30"
     ry="1" />
</svg>
