<?xml version="1.0" encoding="UTF-8" standalone="no"?>
<svg
   viewbox="0 0 200 200"
   version="1.1"
   id="svg4"
   sodipodi:docname="applications-utilities.svg"
   width="64"
   height="64"
   inkscape:version="1.1.1 (3bf5ae0d25, 2021-09-20, custom)"
   xmlns:inkscape="http://www.inkscape.org/namespaces/inkscape"
   xmlns:sodipodi="http://sodipodi.sourceforge.net/DTD/sodipodi-0.dtd"
   xmlns="http://www.w3.org/2000/svg"
   xmlns:svg="http://www.w3.org/2000/svg">
  <defs
     id="defs8" />
  <sodipodi:namedview
     id="namedview6"
     pagecolor="#ffffff"
     bordercolor="#666666"
     borderopacity="1.0"
     inkscape:pageshadow="2"
     inkscape:pageopacity="0.0"
     inkscape:pagecheckerboard="0"
     showgrid="false"
     inkscape:zoom="11.313708"
     inkscape:cx="33.322409"
     inkscape:cy="32.305942"
     inkscape:window-width="1920"
     inkscape:window-height="996"
     inkscape:window-x="0"
     inkscape:window-y="0"
     inkscape:window-maximized="1"
     inkscape:current-layer="svg4"
     showguides="false" />
  <path
     d="M 2,32 C 2,10.4 10.4,2 32,2 53.6,2 62,10.4 62,32 62,53.6 53.6,62 32,62 10.4,62 2,53.6 2,32"
     id="path2"
     style="stroke-width:0.3;fill:#ac85a1;fill-opacity:1;stroke:none" />
  <path
     id="rect37312"
     style="fill:#78526e;fill-opacity:1;stroke-width:2;stroke-linecap:round;stroke-linejoin:round"
     d="m 25,16 c -1.662,0 -3,1.338 -3,3 v 10 c 0,1.662 1.338,3 3,3 V 19 h 14 v 13 c 1.662,0 3,-1.338 3,-3 V 19 c 0,-1.662 -1.338,-3 -3,-3 z" />
  <path
     id="rect36649"
     style="fill:#ffffff;stroke-width:2;stroke-linecap:round;stroke-linejoin:round"
     d="m 16,24 h 32 c 2.216,0 4,1.784 4,4 v 16 c 0,2.216 -1.784,4 -4,4 H 16 c -2.216,0 -4,-1.784 -4,-4 V 28 c 0,-2.216 1.784,-4 4,-4 z" />
  <rect
     style="fill:#c4a8bc;fill-opacity:1;stroke-width:1.73931;stroke-linecap:round;stroke-linejoin:round"
     id="rect37708"
     width="40"
     height="3"
     x="12"
     y="33" />
</svg>
