<?xml version="1.0" encoding="UTF-8" standalone="no"?>
<svg
   viewbox="0 0 200 200"
   version="1.1"
   id="svg4"
   sodipodi:docname="calligraword.svg"
   width="64"
   height="64"
   inkscape:version="1.1.1 (3bf5ae0d25, 2021-09-20, custom)"
   xmlns:inkscape="http://www.inkscape.org/namespaces/inkscape"
   xmlns:sodipodi="http://sodipodi.sourceforge.net/DTD/sodipodi-0.dtd"
   xmlns="http://www.w3.org/2000/svg"
   xmlns:svg="http://www.w3.org/2000/svg">
  <defs
     id="defs8" />
  <sodipodi:namedview
     id="namedview6"
     pagecolor="#ffffff"
     bordercolor="#666666"
     borderopacity="1.0"
     inkscape:pageshadow="2"
     inkscape:pageopacity="0.0"
     inkscape:pagecheckerboard="0"
     showgrid="false"
     inkscape:zoom="6.0390625"
     inkscape:cx="18.711514"
     inkscape:cy="37.340233"
     inkscape:window-width="1920"
     inkscape:window-height="996"
     inkscape:window-x="0"
     inkscape:window-y="0"
     inkscape:window-maximized="1"
     inkscape:current-layer="svg4"
     showguides="true" />
  <path
     d="M 2,32 C 2,10.4 10.4,2 32,2 53.6,2 62,10.4 62,32 62,53.6 53.6,62 32,62 10.4,62 2,53.6 2,32"
     id="path2"
     style="stroke-width:0.3;fill:#0078d4;fill-opacity:1;stroke:none" />
  <path
     id="rect7713"
     style="opacity:1;fill:#ffffff;fill-opacity:1;stroke:none;stroke-width:2;stroke-linecap:round;stroke-linejoin:round;stroke-miterlimit:4;stroke-dasharray:none;stroke-opacity:1"
     d="M 15.5 16 C 14.669 16 14 16.669 14 17.5 C 14 18.331 14.669 19 15.5 19 L 48.5 19 C 49.331 19 50 18.331 50 17.5 C 50 16.669 49.331 16 48.5 16 L 15.5 16 z M 15.5 25 C 14.669 25 14 25.669 14 26.5 C 14 27.331 14.669 28 15.5 28 L 48.5 28 C 49.331 28 50 27.331 50 26.5 C 50 25.669 49.331 25 48.5 25 L 15.5 25 z M 15.5 35 C 14.669 35 14 35.669 14 36.5 C 14 37.331 14.669 38 15.5 38 L 48.5 38 C 49.331 38 50 37.331 50 36.5 C 50 35.669 49.331 35 48.5 35 L 15.5 35 z M 15.5 45 C 14.669 45 14 45.669 14 46.5 C 14 47.331 14.669 48 15.5 48 L 30.5 48 C 31.331 48 32 47.331 32 46.5 C 32 45.669 31.331 45 30.5 45 L 15.5 45 z " />
  <g
     id="g7689"
     transform="matrix(-0.70710678,-0.70710678,-0.70710678,0.70710678,84.805864,38.842077)">
    <path
       id="path1923"
       style="color:#000000;fill:#00569b;fill-opacity:1;stroke:none;stroke-width:2.00031;stroke-linecap:round;stroke-linejoin:round;-inkscape-stroke:none"
       d="m 27.341937,42.580078 a 1.0002402,1.0002699 0 0 0 -0.949352,1.31663 l 2.000281,6.001019 a 1.0002402,1.0002699 0 0 0 1.896749,0 l 2.000281,-6.001019 a 1.0002402,1.0002699 0 0 0 -0.947398,-1.31663 z" />
    <path
       id="rect924"
       style="opacity:1;fill:#c2e6ff;fill-opacity:1;stroke-width:1;stroke-linecap:round;stroke-linejoin:round"
       d="M 27.340557,13.579884 H 31.341 c 0.554,0 0.960547,0.447407 1,1 V 43.58 H 26.340557 V 14.579884 c 0,-0.554 0.446,-1 1,-1 z"
       sodipodi:nodetypes="sssccss" />
  </g>
</svg>
