<?xml version="1.0" encoding="UTF-8" standalone="no"?>
<svg
   viewbox="0 0 200 200"
   version="1.1"
   id="svg4"
   sodipodi:docname="com.github.maoschanz.drawing.svg"
   width="64"
   height="64"
   inkscape:version="1.1.1 (3bf5ae0d25, 2021-09-20, custom)"
   xmlns:inkscape="http://www.inkscape.org/namespaces/inkscape"
   xmlns:sodipodi="http://sodipodi.sourceforge.net/DTD/sodipodi-0.dtd"
   xmlns="http://www.w3.org/2000/svg"
   xmlns:svg="http://www.w3.org/2000/svg">
  <defs
     id="defs8" />
  <sodipodi:namedview
     id="namedview6"
     pagecolor="#ffffff"
     bordercolor="#666666"
     borderopacity="1.0"
     inkscape:pageshadow="2"
     inkscape:pageopacity="0.0"
     inkscape:pagecheckerboard="0"
     showgrid="false"
     inkscape:zoom="12.883333"
     inkscape:cx="31.979301"
     inkscape:cy="32.018111"
     inkscape:window-width="1920"
     inkscape:window-height="996"
     inkscape:window-x="0"
     inkscape:window-y="0"
     inkscape:window-maximized="1"
     inkscape:current-layer="svg4"
     showguides="true" />
  <path
     d="M 2,32 C 2,10.4 10.4,2 32,2 53.6,2 62,10.4 62,32 62,53.6 53.6,62 32,62 10.4,62 2,53.6 2,32"
     id="path2"
     style="stroke-width:0.3;fill:#b0586f;fill-opacity:1;stroke:none" />
  <rect
     style="fill:#ffffff;fill-opacity:1;stroke:none;stroke-width:4;stroke-linecap:round;stroke-linejoin:round"
     id="rect3261"
     width="40"
     height="30"
     x="12"
     y="17"
     ry="4" />
  <path
     style="color:#000000;fill:#e43136;fill-opacity:1;stroke:none;stroke-width:0.778802;stroke-linecap:round;-inkscape-stroke:none"
     d="m 18.143469,24.871573 a 1.3878881,1.3878881 0 0 0 -1.251863,1.510451 1.3878881,1.3878881 0 0 0 1.510451,1.253385 c 2.897761,-0.270206 4.068021,0.17519 4.341214,0.41678 0.136597,0.120796 0.187402,0.210568 0.240333,0.485231 0.05293,0.274663 0.05594,0.707025 0.0289,1.227526 -0.05407,1.041003 -0.291934,2.488883 0.524779,3.91987 0.816713,1.430988 2.586231,2.282445 5.331449,2.458095 1.162637,0.07439 1.855016,0.473744 2.426152,1.075417 0.571137,0.601673 0.985302,1.460607 1.247301,2.371392 0.523997,1.82157 0.419822,3.688663 0.419822,3.688663 a 1.3878881,1.3878881 0 0 0 1.292934,1.475465 1.3878881,1.3878881 0 0 0 1.476987,-1.292933 c 0,0 0.165597,-2.249973 -0.521737,-4.63935 -0.343668,-1.194688 -0.905993,-2.465137 -1.901373,-3.513736 -0.995381,-1.0486 -2.458707,-1.819448 -4.262118,-1.934837 -2.301726,-0.147275 -2.869309,-0.663239 -3.098476,-1.06477 -0.229167,-0.40153 -0.222298,-1.252557 -0.162758,-2.398771 0.02977,-0.573108 0.05712,-1.205732 -0.07606,-1.89681 -0.133181,-0.691077 -0.479502,-1.467077 -1.127134,-2.039792 -1.295264,-1.145432 -3.244472,-1.399136 -6.438809,-1.101276 z"
     id="path10" />
  <path
     id="path1923"
     style="color:#000000;fill:#9b0039;fill-opacity:1;stroke:none;stroke-width:2.00031;stroke-linecap:round;stroke-linejoin:round;-inkscape-stroke:none"
     d="m 39.972864,39.224665 a 1.0002402,1.0002699 35 0 1 0.02248,1.623046 l -5.080578,3.768433 A 1.0002402,1.0002699 35 0 1 33.36104,43.528213 l 1.803509,-6.063061 A 1.0002402,1.0002699 35 0 1 36.6958,36.930037 Z" />
  <path
     id="rect924"
     style="fill:#f0b8b8;fill-opacity:1;stroke-width:1;stroke-linecap:round;stroke-linejoin:round"
     d="m 56.607822,15.469888 -3.276971,-2.29456 c -0.45381,-0.317761 -1.043456,-0.184452 -1.392728,0.245576 L 35.30434,37.176408 40.219615,40.618121 56.853398,16.862617 c 0.317761,-0.45381 0.208235,-1.074967 -0.245576,-1.392729 z"
     sodipodi:nodetypes="sssccss" />
</svg>
