<?xml version="1.0" encoding="UTF-8" standalone="no"?>
<svg
   viewbox="0 0 200 200"
   version="1.1"
   id="svg4"
   sodipodi:docname="com.uploadedlobster.peek.svg"
   width="64"
   height="64"
   inkscape:version="1.1.1 (3bf5ae0d25, 2021-09-20, custom)"
   xmlns:inkscape="http://www.inkscape.org/namespaces/inkscape"
   xmlns:sodipodi="http://sodipodi.sourceforge.net/DTD/sodipodi-0.dtd"
   xmlns="http://www.w3.org/2000/svg"
   xmlns:svg="http://www.w3.org/2000/svg">
  <defs
     id="defs8" />
  <sodipodi:namedview
     id="namedview6"
     pagecolor="#ffffff"
     bordercolor="#666666"
     borderopacity="1.0"
     inkscape:pageshadow="2"
     inkscape:pageopacity="0.0"
     inkscape:pagecheckerboard="0"
     showgrid="false"
     inkscape:zoom="1"
     inkscape:cx="27"
     inkscape:cy="37.5"
     inkscape:window-width="1920"
     inkscape:window-height="996"
     inkscape:window-x="0"
     inkscape:window-y="0"
     inkscape:window-maximized="1"
     inkscape:current-layer="svg4"
     showguides="false" />
  <path
     d="M 2,32 C 2,10.4 10.4,2 32,2 53.6,2 62,10.4 62,32 62,53.6 53.6,62 32,62 10.4,62 2,53.6 2,32"
     id="path2"
     style="stroke-width:0.3;fill:#e69720;fill-opacity:1" />
  <path
     id="rect845"
     style="fill:#fafafa;stroke-width:2;stroke-linejoin:round"
     d="m 17,13 h 30 c 2.216,0 4,1.784 4,4 v 30 c 0,2.216 -1.784,4 -4,4 H 17 c -2.216,0 -4,-1.784 -4,-4 V 17 c 0,-2.216 1.784,-4 4,-4 z" />
  <path
     id="rect1641"
     style="fill:#c47f16;fill-opacity:1;stroke-width:2;stroke-linecap:round"
     d="M 21 18 A 3 3 0 0 0 18 21 L 18 27 L 21 27 L 21 21 L 27 21 L 27 18 L 21 18 z M 37 18 L 37 21 L 43 21 L 43 27 L 46 27 L 46 21 A 3 3 0 0 0 43 18 L 37 18 z M 18 37 L 18 43 A 3 3 0 0 0 21 46 L 27 46 L 27 43 L 21 43 L 21 37 L 18 37 z M 43 37 L 43 43 L 37 43 L 37 46 L 43 46 A 3 3 0 0 0 46 43 L 46 37 L 43 37 z " />
</svg>
