<?xml version="1.0" encoding="UTF-8" standalone="no"?>
<svg
   viewbox="0 0 200 200"
   version="1.1"
   id="svg4"
   sodipodi:docname="de.haeckerfelix.Fragments.svg"
   width="64"
   height="64"
   inkscape:version="1.1.1 (3bf5ae0d25, 2021-09-20, custom)"
   xmlns:inkscape="http://www.inkscape.org/namespaces/inkscape"
   xmlns:sodipodi="http://sodipodi.sourceforge.net/DTD/sodipodi-0.dtd"
   xmlns:xlink="http://www.w3.org/1999/xlink"
   xmlns="http://www.w3.org/2000/svg"
   xmlns:svg="http://www.w3.org/2000/svg">
  <defs
     id="defs8">
    <linearGradient
       inkscape:collect="always"
       id="linearGradient11127">
      <stop
         style="stop-color:#fae42f;stop-opacity:1"
         offset="0"
         id="stop11123" />
      <stop
         style="stop-color:#fae422;stop-opacity:0.94117647"
         offset="0.5"
         id="stop11195" />
      <stop
         style="stop-color:#fae42f;stop-opacity:0"
         offset="1"
         id="stop11125" />
    </linearGradient>
    <linearGradient
       inkscape:collect="always"
       id="linearGradient7945">
      <stop
         style="stop-color:#32a9f4;stop-opacity:1;"
         offset="0"
         id="stop7941" />
      <stop
         style="stop-color:#32a9f4;stop-opacity:0.60000002"
         offset="0.5"
         id="stop8910" />
      <stop
         style="stop-color:#32a9f4;stop-opacity:0;"
         offset="1"
         id="stop7943" />
    </linearGradient>
    <linearGradient
       inkscape:collect="always"
       id="linearGradient6212">
      <stop
         style="stop-color:#ffb25a;stop-opacity:1"
         offset="0"
         id="stop6208" />
      <stop
         style="stop-color:#ffb25a;stop-opacity:0.50196081"
         offset="0.5"
         id="stop6536" />
      <stop
         style="stop-color:#ffb25a;stop-opacity:0"
         offset="1"
         id="stop6210" />
    </linearGradient>
    <linearGradient
       inkscape:collect="always"
       id="linearGradient3695">
      <stop
         style="stop-color:#be3ce9;stop-opacity:1"
         offset="0"
         id="stop3691" />
      <stop
         style="stop-color:#be3ce9;stop-opacity:0.50196081"
         offset="0.5"
         id="stop3955" />
      <stop
         style="stop-color:#be3ce9;stop-opacity:0"
         offset="1"
         id="stop3693" />
    </linearGradient>
    <radialGradient
       inkscape:collect="always"
       xlink:href="#linearGradient3695"
       id="radialGradient3697"
       cx="-1.4092577"
       cy="55.554527"
       fx="-1.4092577"
       fy="55.554527"
       r="30"
       gradientUnits="userSpaceOnUse"
       gradientTransform="matrix(-0.78591697,-0.66463655,0.88715255,-1.0490369,12.649763,79.14937)" />
    <radialGradient
       inkscape:collect="always"
       xlink:href="#linearGradient6212"
       id="radialGradient6214"
       cx="32.31749"
       cy="35.957447"
       fx="32.31749"
       fy="35.957447"
       r="30"
       gradientUnits="userSpaceOnUse"
       gradientTransform="matrix(1.1039003,0.97347395,-0.59305885,0.67251718,-9.3193515,-40.611491)" />
    <radialGradient
       inkscape:collect="always"
       xlink:href="#linearGradient7945"
       id="radialGradient7947"
       cx="4.8273349"
       cy="29.936211"
       fx="4.8273349"
       fy="29.936211"
       r="30"
       gradientUnits="userSpaceOnUse"
       gradientTransform="matrix(1.5488561,-1.3507606,0.96567074,1.1072914,-6.9325795,39.448149)" />
    <radialGradient
       inkscape:collect="always"
       xlink:href="#linearGradient11127"
       id="radialGradient11129"
       cx="-6.7739997"
       cy="37.021408"
       fx="-6.7739997"
       fy="37.021408"
       r="30"
       gradientTransform="matrix(0.72062853,0.61319227,-0.65486537,0.76960319,29.834506,15.832085)"
       gradientUnits="userSpaceOnUse" />
  </defs>
  <sodipodi:namedview
     id="namedview6"
     pagecolor="#ffffff"
     bordercolor="#666666"
     borderopacity="1.0"
     inkscape:pageshadow="2"
     inkscape:pageopacity="0.0"
     inkscape:pagecheckerboard="0"
     showgrid="false"
     inkscape:zoom="12.883333"
     inkscape:cx="31.979302"
     inkscape:cy="32.018112"
     inkscape:window-width="1920"
     inkscape:window-height="996"
     inkscape:window-x="0"
     inkscape:window-y="0"
     inkscape:window-maximized="1"
     inkscape:current-layer="svg4"
     showguides="false" />
  <path
     d="M 32,2 C 53.6,2 62,10.4 62,32 62,53.6 53.6,62 32,62 10.4,62 2,53.6 2,32 2,10.4 10.4,2 32,2"
     id="path2"
     style="fill:#f5466a;fill-opacity:1;stroke-width:0.3" />
  <path
     id="rect10140"
     style="fill:url(#radialGradient11129);fill-opacity:1;stroke-linecap:round;stroke-linejoin:round"
     d="M 62,32 C 62,10.4 53.6,2.0000005 32.000001,2.0000005 10.400009,2.0000005 1.9999995,10.4 1.9999995,32 c 0,21.6 8.4000105,30 30.0000015,30 C 53.6,62 62,53.6 62,32 Z" />
  <path
     id="rect5801"
     style="fill:url(#radialGradient6214);fill-opacity:1;stroke-linecap:round;stroke-linejoin:round"
     d="M 62,32 C 62,10.4 53.6,1.9999995 32,1.9999995 10.400001,1.9999995 2.0000005,10.4 2.0000005,32 2.0000005,53.6 10.4,62 32,62 53.6,62 62,53.6 62,32 Z" />
  <path
     id="rect7310"
     style="fill:url(#radialGradient7947);fill-opacity:1;stroke-linecap:round;stroke-linejoin:round"
     d="M 62,32 C 62,10.4 53.6,1.9999995 32,1.9999995 10.400001,1.9999995 2.0000005,10.4 2.0000005,32 2.0000005,53.6 10.4,62 32,62 53.6,62 62,53.6 62,32 Z" />
  <path
     id="rect3608"
     style="fill:url(#radialGradient3697);fill-opacity:1;stroke-linecap:round;stroke-linejoin:round"
     d="M 62,32 C 62,10.4 53.6,1.9999995 32,1.9999995 10.400001,1.9999995 2.0000005,10.4 2.0000005,32 2.0000005,53.6 10.4,62 32,62 53.6,62 62,53.6 62,32 Z" />
  <path
     id="rect868"
     style="fill:#ffffff;stroke-width:1.9653;stroke-linejoin:round"
     d="M 32 10 C 30.995263 10 29.990585 10.384416 29.220703 11.154297 L 11.154297 29.220703 C 9.6145327 30.760466 9.6145334 33.239534 11.154297 34.779297 L 29.220703 52.845703 C 30.760466 54.385467 33.239534 54.385467 34.779297 52.845703 L 52.845703 34.779297 C 54.385466 33.239534 54.385467 30.760466 52.845703 29.220703 L 34.779297 11.154297 C 34.009415 10.384416 33.004737 10 32 10 z M 32 17 A 2 2 0 0 1 34 19 L 34 39 L 39.070312 33.929688 C 39.853786 33.146214 41.116917 33.146214 41.900391 33.929688 C 42.683866 34.713163 42.683865 35.974339 41.900391 36.757812 L 32 46.65625 L 22.099609 36.757812 C 21.316136 35.974339 21.316136 34.713161 22.099609 33.929688 C 22.883085 33.146214 24.146214 33.146214 24.929688 33.929688 L 30 39 L 30 19 A 2 2 0 0 1 32 17 z " />
</svg>
