<?xml version="1.0" encoding="UTF-8" standalone="no"?>
<svg
   viewbox="0 0 200 200"
   version="1.1"
   id="svg4"
   sodipodi:docname="games-mahjong.svg"
   width="64"
   height="64"
   inkscape:version="1.1.1 (3bf5ae0d25, 2021-09-20, custom)"
   xmlns:inkscape="http://www.inkscape.org/namespaces/inkscape"
   xmlns:sodipodi="http://sodipodi.sourceforge.net/DTD/sodipodi-0.dtd"
   xmlns="http://www.w3.org/2000/svg"
   xmlns:svg="http://www.w3.org/2000/svg">
  <defs
     id="defs8" />
  <sodipodi:namedview
     id="namedview6"
     pagecolor="#ffffff"
     bordercolor="#666666"
     borderopacity="1.0"
     inkscape:pageshadow="2"
     inkscape:pageopacity="0.0"
     inkscape:pagecheckerboard="0"
     showgrid="false"
     inkscape:zoom="8"
     inkscape:cx="12.25"
     inkscape:cy="29.9375"
     inkscape:window-width="1920"
     inkscape:window-height="996"
     inkscape:window-x="0"
     inkscape:window-y="0"
     inkscape:window-maximized="1"
     inkscape:current-layer="svg4"
     showguides="true" />
  <path
     d="M 2,32 C 2,10.4 10.4,2 32,2 53.6,2 62,10.4 62,32 62,53.6 53.6,62 32,62 10.4,62 2,53.6 2,32"
     id="path2"
     style="stroke-width:0.3;fill:#578f19;fill-opacity:1" />
  <path
     id="rect3583"
     style="fill:#ffffff;fill-opacity:1;stroke-width:5;stroke-linecap:round;stroke-linejoin:round"
     d="M 19 13 C 17.338 13 16 14.338 16 16 L 16 48 C 16 49.662 17.338 51 19 51 L 39 51 C 40.662 51 42 49.662 42 48 L 42 16 C 42 14.338 40.662 13 39 13 L 19 13 z M 42 13 C 43.108 13 44 13.892 44 15 L 44 49 C 44 50.108 43.108 51 42 51 L 45 51 C 46.662 51 48 49.662 48 48 L 48 16 C 48 14.338 46.662 13 45 13 L 42 13 z " />
  <path
     d="m 27.944578,33.598494 h -3.281456 v -2.189452 h 3.281456 z m 1.8806,0 v -2.189452 h 3.339026 v 2.189452 z m -7.023466,-5.463941 v 7.188375 h 0.268657 c 0.767592,0 1.592753,-0.426265 1.592753,-0.600646 v -0.561894 h 2.283586 c -1.496804,2.305705 -4.010668,4.630785 -6.946707,6.103337 l 0.172708,0.290635 c 3.127937,-1.046286 5.833699,-2.615716 7.771869,-4.592035 V 41 h 0.383796 c 0.710023,0 1.496804,-0.387513 1.496804,-0.600645 v -6.083962 c 1.420046,2.828848 3.742012,4.902046 6.582102,6.103337 0.230278,-0.89128 0.825161,-1.491926 1.554374,-1.646932 l 0.03838,-0.213132 c -2.87847,-0.678149 -6.063976,-2.266954 -7.810248,-4.398278 h 2.974419 v 0.949408 h 0.307037 c 0.652453,0 1.573563,-0.44564 1.592753,-0.581271 v -5.502691 c 0.383796,-0.0775 0.652453,-0.251884 0.786782,-0.406889 l -1.95736,-1.491927 -0.92111,1.007535 h -3.147128 v -1.918191 h 7.119416 c 0.268658,0 0.479745,-0.09688 0.537315,-0.310011 -0.844351,-0.736275 -2.187637,-1.801937 -2.187637,-1.801937 l -1.208958,1.569428 h -4.260136 v -1.860063 c 0.498935,-0.0775 0.652454,-0.271261 0.690833,-0.54252 L 27.944579,23 v 2.673842 h -7.522402 l 0.172709,0.54252 h 7.349693 v 1.918191 h -3.147127 l -1.995739,-0.813778 z m 5.142866,2.712595 h -3.281456 v -2.1507 h 3.281456 z m 1.8806,0 v -2.1507 h 3.339026 v 2.1507 z"
     style="font-weight:600;font-size:19.1898px;line-height:1.25;font-family:'Noto Serif CJK KR';-inkscape-font-specification:'Noto Serif CJK KR Semi-Bold';stroke-width:0.482061;fill:#ae3f0b;fill-opacity:1"
     id="path16415" />
</svg>
