<?xml version="1.0" encoding="UTF-8" standalone="no"?>
<svg
   viewbox="0 0 200 200"
   version="1.1"
   id="svg4"
   sodipodi:docname="github.svg"
   width="64"
   height="64"
   inkscape:version="1.1.1 (3bf5ae0d25, 2021-09-20, custom)"
   xmlns:inkscape="http://www.inkscape.org/namespaces/inkscape"
   xmlns:sodipodi="http://sodipodi.sourceforge.net/DTD/sodipodi-0.dtd"
   xmlns="http://www.w3.org/2000/svg"
   xmlns:svg="http://www.w3.org/2000/svg">
  <defs
     id="defs8" />
  <sodipodi:namedview
     id="namedview6"
     pagecolor="#ffffff"
     bordercolor="#666666"
     borderopacity="1.0"
     inkscape:pageshadow="2"
     inkscape:pageopacity="0.0"
     inkscape:pagecheckerboard="0"
     showgrid="false"
     inkscape:zoom="1.3730469"
     inkscape:cx="12.01707"
     inkscape:cy="89.217639"
     inkscape:window-width="1567"
     inkscape:window-height="932"
     inkscape:window-x="56"
     inkscape:window-y="50"
     inkscape:window-maximized="0"
     inkscape:current-layer="svg4"
     showguides="true" />
  <path
     d="M 2,32 C 2,10.4 10.4,2 32,2 53.6,2 62,10.4 62,32 62,53.6 53.6,62 32,62 10.4,62 2,53.6 2,32"
     id="path2"
     style="stroke-width:0.3;fill:#333333;fill-opacity:1;stroke:none" />
  <path
     id="path7"
     style="fill:#ffffff;paint-order:stroke markers fill"
     d="M 31.890625 10 C 19.783494 10.060535 9.999848 19.892708 10 32 C 10.0007 41.467364 16.058027 49.87183 25.039062 52.867188 C 25.726664 52.760123 26.259766 52.198658 26.259766 51.480469 L 26.259766 48.404297 L 24.824219 48.404297 C 22.700757 48.404297 20.169618 47.840848 19.384766 45.535156 C 18.338801 42.460449 15.35453 41.708253 16.216797 41.230469 C 16.397599 41.13007 16.584555 41.067793 16.775391 41.039062 C 16.94183 41.013192 17.11052 41.015489 17.28125 41.037109 C 18.474858 41.186464 19.732865 42.383719 20.523438 43.380859 C 21.935209 45.162838 22.717603 45.535156 24.244141 45.535156 C 25.693275 45.535156 26.261716 45.175781 26.261719 45.175781 C 26.261719 43.805574 26.885052 42.753382 27.853516 42.076172 C 22.354075 41.215364 18.369141 38.417528 18.369141 32.621094 C 18.369141 29.841912 19.139258 27.606637 20.449219 25.863281 C 19.86098 23.840287 19.92661 21.786364 20.523438 19.708984 C 22.536412 19.708984 24.793031 20.803407 26.230469 21.978516 C 27.985192 21.423257 29.934716 21.142578 31.998047 21.142578 C 34.056855 21.142567 36.012106 21.419772 37.78125 21.970703 C 39.215998 20.798467 41.472257 19.708984 43.482422 19.708984 C 44.069222 21.750679 44.130911 23.769527 43.574219 25.759766 C 44.955923 27.517302 45.775391 29.787767 45.775391 32.623047 C 45.775391 38.419601 41.691145 41.220848 36.148438 42.080078 C 37.115434 42.7573 37.740234 43.807043 37.740234 45.175781 L 37.740234 51.480469 C 37.740234 52.199943 38.273553 52.761834 38.962891 52.867188 C 47.942956 49.870967 53.999526 41.466716 54 32 C 54 19.849883 44.150112 10 32 10 C 31.963407 9.9999028 31.927225 9.9999028 31.890625 10 z M 25.453125 53.001953 C 25.555541 53.033723 25.656896 53.065403 25.759766 53.095703 C 25.65689 53.065393 25.555544 53.033733 25.453125 53.001953 z M 37.541016 53.291016 C 37.421914 53.321446 37.303197 53.350426 37.183594 53.378906 C 37.303199 53.350436 37.421909 53.321456 37.541016 53.291016 z " />
</svg>
