<?xml version="1.0" encoding="UTF-8" standalone="no"?>
<svg
   viewbox="0 0 200 200"
   version="1.1"
   id="svg4"
   sodipodi:docname="gnome-todo.svg"
   width="64"
   height="64"
   inkscape:version="1.1.1 (3bf5ae0d25, 2021-09-20, custom)"
   xmlns:inkscape="http://www.inkscape.org/namespaces/inkscape"
   xmlns:sodipodi="http://sodipodi.sourceforge.net/DTD/sodipodi-0.dtd"
   xmlns="http://www.w3.org/2000/svg"
   xmlns:svg="http://www.w3.org/2000/svg">
  <defs
     id="defs8" />
  <sodipodi:namedview
     id="namedview6"
     pagecolor="#ffffff"
     bordercolor="#666666"
     borderopacity="1.0"
     inkscape:pageshadow="2"
     inkscape:pageopacity="0.0"
     inkscape:pagecheckerboard="0"
     showgrid="false"
     inkscape:zoom="8"
     inkscape:cx="19.25"
     inkscape:cy="40.8125"
     inkscape:window-width="1920"
     inkscape:window-height="1000"
     inkscape:window-x="0"
     inkscape:window-y="0"
     inkscape:window-maximized="1"
     inkscape:current-layer="svg4"
     showguides="false" />
  <path
     d="M 2,32 C 2,10.4 10.4,2 32,2 53.6,2 62,10.4 62,32 62,53.6 53.6,62 32,62 10.4,62 2,53.6 2,32"
     id="path2"
     style="stroke-width:0.3;fill:#d0ac6f;fill-opacity:1;stroke:none" />
  <path
     id="rect949"
     style="fill:#ffffff;stroke-width:4;stroke-linecap:round;stroke-linejoin:round"
     d="m 20,12 h 24 c 2.216,0 4,1.784 4,4 v 32 c 0,2.216 -1.784,4 -4,4 H 20 c -2.216,0 -4,-1.784 -4,-4 V 16 c 0,-2.216 1.784,-4 4,-4 z" />
  <path
     id="rect1485"
     style="fill:#755e37;fill-opacity:1;stroke-width:3.26599;stroke-linecap:round;stroke-linejoin:round"
     d="M 27.607422 17 L 22.949219 21.65625 L 20.414062 19.121094 L 19 20.535156 L 21.535156 23.070312 L 22.949219 24.484375 L 24.363281 23.070312 L 29.021484 18.414062 L 27.607422 17 z M 27.607422 27.828125 L 22.949219 32.484375 L 20.414062 29.949219 L 19 31.363281 L 21.535156 33.900391 L 22.949219 35.314453 L 24.363281 33.900391 L 29.021484 29.242188 L 27.607422 27.828125 z M 27.607422 38.65625 L 22.949219 43.314453 L 20.414062 40.777344 L 19 42.191406 L 21.535156 44.728516 L 22.949219 46.142578 L 24.363281 44.728516 L 29.021484 40.070312 L 27.607422 38.65625 z " />
  <path
     id="rect2140"
     style="fill:#c29345;fill-opacity:1;stroke-width:4;stroke-linecap:round;stroke-linejoin:round"
     d="M 31 20 L 31 22 L 45 22 L 45 20 L 31 20 z M 31 31 L 31 33 L 45 33 L 45 31 L 31 31 z M 31 42 L 31 44 L 45 44 L 45 42 L 31 42 z " />
</svg>
