<?xml version="1.0" encoding="UTF-8" standalone="no"?>
<!-- Created with Inkscape (http://www.inkscape.org/) -->

<svg
   width="64"
   height="64"
   viewBox="0 0 16.933333 16.933333"
   version="1.1"
   id="svg5"
   inkscape:version="1.1.1 (3bf5ae0d25, 2021-09-20, custom)"
   sodipodi:docname="google-news.svg"
   xmlns:inkscape="http://www.inkscape.org/namespaces/inkscape"
   xmlns:sodipodi="http://sodipodi.sourceforge.net/DTD/sodipodi-0.dtd"
   xmlns="http://www.w3.org/2000/svg"
   xmlns:svg="http://www.w3.org/2000/svg">
  <sodipodi:namedview
     id="namedview7"
     pagecolor="#ffffff"
     bordercolor="#666666"
     borderopacity="1.0"
     inkscape:pageshadow="2"
     inkscape:pageopacity="0.0"
     inkscape:pagecheckerboard="0"
     inkscape:document-units="px"
     showgrid="true"
     units="px"
     height="48px"
     inkscape:zoom="12.328125"
     inkscape:cx="31.918885"
     inkscape:cy="31.959442"
     inkscape:window-width="1920"
     inkscape:window-height="1006"
     inkscape:window-x="0"
     inkscape:window-y="0"
     inkscape:window-maximized="1"
     inkscape:current-layer="svg5"
     inkscape:lockguides="true" />
  <defs
     id="defs2">
    <linearGradient
       id="path29_1_"
       gradientUnits="userSpaceOnUse"
       x1="239.3423"
       y1="1021.4185"
       x2="258.2334"
       y2="1054.1401"
       gradientTransform="matrix(0.04277371,0,0,0.04277371,-1.4422934,-34.435687)">
      <stop
         offset="0"
         style="stop-color:#991700;stop-opacity:0"
         id="stop16" />
      <stop
         offset="1"
         style="stop-color:#991700;stop-opacity:0.1"
         id="stop18" />
    </linearGradient>
  </defs>
  <path
     id="path1039"
     style="fill:#ffffff;fill-opacity:1;stroke-width:0.529167;stroke-linecap:round;stroke-linejoin:round"
     d="m 8.4666668,0.52916666 c -5.7150003,0 -7.93750014,2.22249984 -7.93750014,7.93750024 0,5.7150001 2.22249984,7.9375001 7.93750014,7.9375001 5.7150002,0 7.9375002,-2.2225 7.9375002,-7.9375001 0,-5.7150004 -2.2225,-7.93750024 -7.9375002,-7.93750024 z" />
  <path
     fill="#0c9d58"
     d="m 11.906096,10.165296 c 0,0.162075 -0.13364,0.294826 -0.296959,0.294826 H 5.3239438 c -0.1633187,0 -0.2969593,-0.132751 -0.2969593,-0.294826 V 3.9989935 c 0,-0.1620747 0.1336406,-0.2948267 0.2969593,-0.2948267 h 6.2853702 c 0.163319,0 0.29696,0.132752 0.29696,0.2948267 v 6.1663025 z"
     id="path927"
     style="stroke-width:0.00177714" />
  <polygon
     opacity="0.2"
     fill="#004d40"
     points="5210.8,892 3885.3,721.4 5210.8,1077 "
     id="polygon929"
     transform="matrix(0.00177713,0,0,0.00177713,2.6458014,3.7041668)" />
  <path
     opacity="0.2"
     fill="#004d40"
     d="M 8.5801882,4.0256505 5.0129452,5.6184966 8.9555191,4.1834601 v -0.0039 C 8.8862109,4.030982 8.7173831,3.9616736 8.5801882,4.0256505 Z"
     id="path931"
     style="stroke-width:0.00177714" />
  <path
     opacity="0.2"
     fill="#ffffff"
     d="M 11.609314,3.7041668 H 5.3239438 c -0.1633187,0 -0.2969593,0.132752 -0.2969593,0.2948267 v 0.06611 c 0,-0.1620748 0.1336406,-0.2948267 0.2969593,-0.2948267 h 6.2853702 c 0.163319,0 0.29696,0.1327519 0.29696,0.2948267 v -0.06611 C 11.906096,3.8369188 11.772633,3.7041668 11.609314,3.7041668 Z"
     id="path933"
     style="stroke-width:0.00177714" />
  <path
     fill="#ea4335"
     d="m 6.5522995,9.9758543 c -0.042473,0.1583417 0.042296,0.3198837 0.1883763,0.3589807 l 5.8215382,1.565656 c 0.146081,0.03909 0.300336,-0.05846 0.342632,-0.216811 L 14.276261,6.5655319 C 14.318735,6.4071891 14.233966,6.2456476 14.087885,6.2065506 L 8.2663462,4.6408946 C 8.1202657,4.6017977 7.9660103,4.6993624 7.9237145,4.8577051 Z"
     id="path935"
     style="stroke-width:0.00177714" />
  <polygon
     opacity="0.2"
     fill="#3e2723"
     points="5806.4,2638.1 5978.7,3684.8 5806.4,4328.1 "
     id="polygon937"
     transform="matrix(0.00177713,0,0,0.00177713,2.6458014,3.7041668)" />
  <polygon
     opacity="0.2"
     fill="#3e2723"
     points="3900.8,764.1 4055.2,805.6 4151,1451.6 "
     id="polygon939"
     transform="matrix(0.00177713,0,0,0.00177713,2.6458014,3.7041668)" />
  <path
     opacity="0.2"
     fill="#ffffff"
     d="M 14.088062,6.2065506 8.2665239,4.6408946 C 8.1204434,4.6017977 7.9661881,4.6993624 7.9238923,4.8577051 L 6.5524772,9.9758543 c -0.00231,0.0085 -0.00284,0.01724 -0.00444,0.02577 L 7.9091421,4.9222151 C 7.9516155,4.7638724 8.1058709,4.6663077 8.2517737,4.7054047 l 5.8215383,1.5656559 c 0.138084,0.036964 0.22001,0.183578 0.19282,0.3333905 l 0.01045,-0.038919 c 0.0423,-0.1583428 -0.04247,-0.3198843 -0.188554,-0.3589813 z"
     id="path941"
     style="stroke-width:0.00177714" />
  <path
     fill="#ffc107"
     d="m 11.13713,9.3455041 c 0.05598,0.1540772 -0.0144,0.3223722 -0.156388,0.3740872 L 4.8377197,11.955404 C 4.6955489,12.007119 4.5334742,11.923416 4.4774944,11.769338 L 2.6651721,6.7901617 C 2.6091925,6.6360841 2.6795669,6.4677895 2.8215601,6.4160748 L 8.9645825,4.1802613 c 0.1421708,-0.051714 0.3042455,0.031988 0.3602253,0.186066 z"
     id="path943"
     style="stroke-width:0.00177714" />
  <path
     opacity="0.2"
     fill="#ffffff"
     d="M 2.6884526,6.8528945 C 2.6324729,6.698817 2.7028474,6.5305222 2.8448405,6.4788077 L 8.9878629,4.2428164 c 0.1405714,-0.051182 0.3003359,0.030389 0.3580928,0.1812678 L 9.3248078,4.3661495 C 9.2686503,4.212072 9.1065756,4.1283689 8.9645825,4.1800835 L 2.8215601,6.4160748 C 2.6793893,6.4677895 2.6090147,6.6360841 2.6651721,6.7901617 l 1.8123223,4.9791763 c 5.332e-4,0.0016 0.0016,0.003 0.00231,0.0048 z"
     id="path945"
     style="stroke-width:0.00177714" />
  <path
     fill="#4285f4"
     d="m 12.964558,12.931407 c 0,0.163674 -0.133996,0.29767 -0.297671,0.29767 H 4.2663708 c -0.1636741,0 -0.2976701,-0.133996 -0.2976701,-0.29767 V 6.5815261 c 0,-0.1636741 0.133996,-0.2976702 0.2976701,-0.2976702 h 8.4005162 c 0.163675,0 0.297671,0.1339961 0.297671,0.2976702 z"
     id="path947"
     style="stroke-width:0.00177714" />
  <path
     fill="#ffffff"
     d="M 11.360515,8.7974357 H 8.8469362 V 8.135986 h 2.5135788 c 0.07304,0 0.132219,0.059179 0.132219,0.1322189 v 0.3968342 c 0,0.07304 -0.05918,0.1323966 -0.132219,0.1323966 z m 0,2.5134023 H 8.8469362 v -0.66145 h 2.5135788 c 0.07304,0 0.132219,0.05918 0.132219,0.132219 v 0.396834 c 0,0.07322 -0.05918,0.132397 -0.132219,0.132397 z M 11.75735,10.054047 H 8.8469362 V 9.3925981 H 11.75735 c 0.07304,0 0.132218,0.059179 0.132218,0.1322192 v 0.396834 c 0,0.07322 -0.05918,0.1323957 -0.132218,0.1323957 z"
     id="path949"
     style="stroke-width:0.00177714" />
  <path
     opacity="0.2"
     fill="#1a237e"
     d="M 12.666887,13.162967 H 4.2663708 c -0.1636741,0 -0.2976701,-0.133996 -0.2976701,-0.29767 v 0.06611 c 0,0.163674 0.133996,0.29767 0.2976701,0.29767 h 8.4005162 c 0.163675,0 0.297671,-0.133996 0.297671,-0.29767 v -0.06611 c 0,0.163674 -0.133996,0.29767 -0.297671,0.29767 z"
     id="path951"
     style="stroke-width:0.00177714" />
  <path
     opacity="0.2"
     fill="#ffffff"
     d="m 4.2663708,6.3499654 h 8.4005162 c 0.163675,0 0.297671,0.1339959 0.297671,0.2976701 v -0.06611 c 0,-0.1636741 -0.133996,-0.2976701 -0.297671,-0.2976701 H 4.2663708 c -0.1636741,0 -0.2976701,0.133996 -0.2976701,0.2976701 v 0.06611 c 0,-0.1636742 0.133996,-0.2976701 0.2976701,-0.2976701 z"
     id="path953"
     style="stroke-width:0.00177714" />
  <path
     fill="#ffffff"
     d="m 6.5979719,9.4588853 v 0.5965837 h 0.8560458 c -0.07073,0.363424 -0.3902587,0.626973 -0.8560458,0.626973 -0.5196343,0 -0.940993,-0.439485 -0.940993,-0.9591187 0,-0.5196346 0.4213587,-0.9591201 0.940993,-0.9591201 0.2340486,0 0.4435728,0.080504 0.6090241,0.2381362 v 3.554e-4 L 7.6599878,8.549703 C 7.3848873,8.2932624 7.0260837,8.135986 6.5977942,8.135986 c -0.8766607,0 -1.5875147,0.7106762 -1.5875147,1.5875143 0,0.8768387 0.7106762,1.5875147 1.5875147,1.5875147 0.9168239,0 1.5199835,-0.644567 1.5199835,-1.5514387 0,-0.103962 -0.00959,-0.204193 -0.025058,-0.300691 z"
     id="path955"
     style="stroke-width:0.00177714" />
  <g
     opacity="0.2"
     fill="#1a237e"
     id="g961"
     transform="matrix(0.00177713,0,0,0.00177713,2.6458014,3.7041668)">
    <path
       d="m 2233.2,3573.9 v 37.2 h 472.7 c 3.5,-12.2 6.5,-24.6 9,-37.2 z"
       id="path957" />
    <path
       d="m 2233.2,4280.3 c -487.1,0 -882.9,-389.9 -892.8,-874.7 -0.1,6.2 -0.5,12.4 -0.5,18.6 0,493.4 399.9,893.3 893.3,893.3 515.9,0 855.3,-362.7 855.3,-873 0,-4.1 -0.5,-7.9 -0.5,-12 -11.1,497 -347.4,847.8 -854.8,847.8 z m 342.7,-1299 c -93.1,-88.6 -211.1,-134 -342.7,-134 -292.4,0 -529.5,247.3 -529.5,539.7 0,6.3 0.7,12.4 0.9,18.6 9.9,-284.2 242.4,-521.1 528.6,-521.1 131.7,0 249.6,45.3 342.7,134 v 0.2 l 273.5,-273.5 c -6.4,-6 -13.5,-11.3 -20.1,-17.1 L 2576,2981.5 Z"
       id="path959" />
  </g>
  <path
     opacity="0.2"
     fill="#1a237e"
     d="m 11.492734,8.7311485 v -0.066109 c 0,0.07304 -0.05918,0.1322188 -0.132219,0.1322188 H 8.8469362 v 0.06611 h 2.5135788 c 0.07304,1.777e-4 0.132219,-0.059001 0.132219,-0.1322198 z M 11.360515,11.310838 H 8.8469362 v 0.06611 h 2.5135788 c 0.07304,0 0.132219,-0.05918 0.132219,-0.132219 v -0.06611 c 0,0.07304 -0.05918,0.13222 -0.132219,0.13222 z M 11.75735,10.054047 H 8.8469362 v 0.06611 H 11.75735 c 0.07304,0 0.132218,-0.05918 0.132218,-0.1322187 v -0.06611 c 0,0.07304 -0.05918,0.1322187 -0.132218,0.1322187 z"
     id="path963"
     style="stroke-width:0.00177714" />
  <path
     fill="url(#a)"
     d="m 14.088062,6.2065506 -2.181788,-0.58681 V 3.9989935 c 0,-0.1620747 -0.133641,-0.2948267 -0.29696,-0.2948267 H 5.3239438 c -0.1633187,0 -0.2969593,0.132752 -0.2969593,0.2948267 V 5.6133429 L 2.8215601,6.4160748 C 2.6793893,6.4677895 2.6090147,6.6360841 2.6651721,6.7901617 l 1.3035286,3.5816373 v 2.559608 c 0,0.163674 0.133996,0.29767 0.2976701,0.29767 h 8.4005162 c 0.163675,0 0.297671,-0.133996 0.297671,-0.29767 v -1.469513 l 1.312058,-4.8963621 c 0.04229,-0.1583428 -0.04247,-0.3198843 -0.188554,-0.3589813 z"
     id="path970"
     style="stroke-width:0.00177714" />
</svg>
