<?xml version="1.0" encoding="UTF-8" standalone="no"?>
<!-- Created with Inkscape (http://www.inkscape.org/) -->

<svg
   width="64"
   height="64"
   viewBox="0 0 16.933333 16.933333"
   version="1.1"
   id="svg5"
   inkscape:version="1.1.1 (3bf5ae0d25, 2021-09-20, custom)"
   sodipodi:docname="google-docs.svg"
   xmlns:inkscape="http://www.inkscape.org/namespaces/inkscape"
   xmlns:sodipodi="http://sodipodi.sourceforge.net/DTD/sodipodi-0.dtd"
   xmlns="http://www.w3.org/2000/svg"
   xmlns:svg="http://www.w3.org/2000/svg">
  <sodipodi:namedview
     id="namedview7"
     pagecolor="#ffffff"
     bordercolor="#666666"
     borderopacity="1.0"
     inkscape:pageshadow="2"
     inkscape:pageopacity="0.0"
     inkscape:pagecheckerboard="0"
     inkscape:document-units="px"
     showgrid="true"
     units="px"
     height="48px"
     inkscape:zoom="11.313708"
     inkscape:cx="24.395185"
     inkscape:cy="35.13437"
     inkscape:window-width="1920"
     inkscape:window-height="996"
     inkscape:window-x="0"
     inkscape:window-y="0"
     inkscape:window-maximized="1"
     inkscape:current-layer="svg5"
     inkscape:lockguides="true" />
  <defs
     id="defs2">
    <linearGradient
       id="path29_1_"
       gradientUnits="userSpaceOnUse"
       x1="239.3423"
       y1="1021.4185"
       x2="258.2334"
       y2="1054.1401"
       gradientTransform="matrix(0.04277371,0,0,0.04277371,-1.4422934,-34.435687)">
      <stop
         offset="0"
         style="stop-color:#991700;stop-opacity:0"
         id="stop16" />
      <stop
         offset="1"
         style="stop-color:#991700;stop-opacity:0.1"
         id="stop18" />
    </linearGradient>
  </defs>
  <path
     d="m 0.52916666,8.4666666 c 0,-5.7149999 2.22249994,-7.93749994 7.93749994,-7.93749994 5.7149994,0 7.9374994,2.22250004 7.9374994,7.93749994 0,5.7149994 -2.2225,7.9374994 -7.9374994,7.9374994 -5.715,0 -7.93749994,-2.2225 -7.93749994,-7.9374994"
     id="path2"
     style="fill:#ffffff;fill-opacity:1;stroke-width:0.079375" />
  <path
     id="rect1150"
     style="fill:#3086f6;stroke-width:0.273089"
     d="M 5.3504629,3.1749999 H 9.525 l 2.645833,2.6458332 v 7.3495359 c 0,0.325732 -0.262231,0.587964 -0.587962,0.587964 H 5.3504629 c -0.3257315,0 -0.587963,-0.262232 -0.587963,-0.587964 V 3.7629621 c 0,-0.3257311 0.2622315,-0.5879622 0.587963,-0.5879622 z"
     sodipodi:nodetypes="sccssssss" />
  <path
     id="rect10694"
     style="fill:#0c67d6;stroke-width:0.587963"
     d="M 9.5249997,3.1749999 12.170833,5.8208331 H 9.5249997 Z"
     sodipodi:nodetypes="cccc" />
  <path
     id="rect20359"
     style="fill:#fdffff;stroke-width:0.545397"
     d="M 6.0854163,7.4083328 H 10.847916 V 7.9374995 H 6.0854163 Z"
     sodipodi:nodetypes="ccccc" />
  <path
     id="rect20361"
     style="fill:#fdffff;stroke-width:0.545397"
     d="M 6.0854163,8.7312498 H 10.847916 V 9.2604164 H 6.0854163 Z"
     sodipodi:nodetypes="ccccc" />
  <path
     id="rect20363"
     style="fill:#fdffff;stroke-width:0.50736"
     d="m 6.0854163,10.054167 h 3.175 v 0.529166 h -3.175 z"
     sodipodi:nodetypes="ccccc" />
</svg>
