<?xml version="1.0" encoding="UTF-8" standalone="no"?>
<svg
   width="64"
   height="64"
   version="1.1"
   id="svg24"
   sodipodi:docname="google-earth-pro.svg"
   inkscape:version="1.1.1 (3bf5ae0d25, 2021-09-20, custom)"
   xmlns:inkscape="http://www.inkscape.org/namespaces/inkscape"
   xmlns:sodipodi="http://sodipodi.sourceforge.net/DTD/sodipodi-0.dtd"
   xmlns="http://www.w3.org/2000/svg"
   xmlns:svg="http://www.w3.org/2000/svg">
  <defs
     id="defs28" />
  <sodipodi:namedview
     id="namedview26"
     pagecolor="#ffffff"
     bordercolor="#666666"
     borderopacity="1.0"
     inkscape:pageshadow="2"
     inkscape:pageopacity="0.0"
     inkscape:pagecheckerboard="0"
     showgrid="false"
     inkscape:zoom="4.2205436"
     inkscape:cx="2.2508949"
     inkscape:cy="37.909809"
     inkscape:window-width="1920"
     inkscape:window-height="1006"
     inkscape:window-x="0"
     inkscape:window-y="0"
     inkscape:window-maximized="1"
     inkscape:current-layer="svg24" />
  <path
     id="path1039"
     style="fill:#ffffff;fill-opacity:1;stroke-width:2;stroke-linecap:round;stroke-linejoin:round"
     d="M 32.000001,2 C 10.399999,2 2,10.399999 2,32.000001 c 0,21.600001 8.399999,30.000001 30.000001,30.000001 21.600001,0 30.000001,-8.4 30.000001,-30.000001 C 62.000002,10.399999 53.600002,2 32.000001,2 Z" />
  <path
     style="fill:#255fdb;stroke-width:0.857152"
     d="M 24.551834,36.999118 C 16.370008,26.174561 7.9699998,34.400023 10.162729,41.965486 c 3.766367,8.27728 12.171831,14.034556 21.829108,14.034556 8.563647,0 15.9682,-4.464548 20.173659,-10.963646 -6.32728,5.920916 -17.811835,4.930914 -27.613662,-8.037278 z"
     id="path4" />
  <path
     style="fill:#4285f4;stroke-width:0.857152"
     d="M 31.866385,29.545474 C 20.613647,12.478186 8,21.57365 8,32.005477 c 0,3.578184 0.7800005,6.95455 2.179093,10.003645 -1.4945469,-7.066371 6.624553,-12.515465 14.184559,-2.372731 10.977282,14.727286 21.750018,12.136375 27.777296,5.435462 1.628184,-2.427276 3.215459,-6.150006 3.660005,-9.850918 l -0.0083,0.04637 c -2.579938,8.023637 -14.001766,9.330003 -23.92632,-5.721829 z"
     id="path6" />
  <path
     style="fill:#91bfff;stroke-width:0.857152"
     d="M 39.579118,21.909105 C 31.222747,8.1227273 20.627285,9.3636375 13.462732,16.751826 10.056365,20.894558 8,26.204562 8,32.000022 c 0.7500006,-10.101827 12.954557,-17.113652 24.000022,0 9.831826,15.231833 22.050019,11.263646 23.790021,3.305458 l 0.01097,-0.07636 c 0.174544,-1.093637 0.193635,-2.138185 0.193635,-3.26182 0,-0.362728 0.01372,-0.722728 -0.0028,-1.080001 -4.260002,3.021819 -9.850915,1.846364 -16.41274,-8.97819 z"
     id="path8" />
  <path
     style="fill:#c4e1ff;stroke-width:0.857152"
     d="M 39.636392,24.363651 C 47.289127,36.66639 53.886405,33.519115 55.991861,30.887293 55.91005,29.01093 55.604589,27.194562 55.113678,25.457287 51.546404,25.530919 50.714584,24.936379 47.218216,19.59092 41.84003,11.368185 35.081844,5.8236343 23.283651,9.6336378 19.421829,11.141821 16.045462,13.618187 13.45455,16.762736 21.568195,9.2954555 31.522749,11.321821 39.636392,24.363651 Z"
     id="path10" />
  <path
     style="fill:#f5f5f5;stroke-width:0.857152"
     d="m 46.680944,20.646374 c 3.496368,5.345462 5.626369,5.629097 8.432733,4.810913 C 52.25822,15.369097 43.00185,8 31.991837,8 28.9182,8 25.975471,8.5863641 23.275468,9.636365 33.821842,6.3090893 41.302756,12.42364 46.680944,20.646374 Z"
     id="path12" />
</svg>
