<?xml version="1.0" encoding="UTF-8" standalone="no"?>
<svg
   viewbox="0 0 200 200"
   version="1.1"
   id="svg4"
   sodipodi:docname="hexchat.svg"
   width="64"
   height="64"
   inkscape:version="1.1.1 (3bf5ae0d25, 2021-09-20, custom)"
   xmlns:inkscape="http://www.inkscape.org/namespaces/inkscape"
   xmlns:sodipodi="http://sodipodi.sourceforge.net/DTD/sodipodi-0.dtd"
   xmlns="http://www.w3.org/2000/svg"
   xmlns:svg="http://www.w3.org/2000/svg">
  <defs
     id="defs8" />
  <sodipodi:namedview
     id="namedview6"
     pagecolor="#ffffff"
     bordercolor="#666666"
     borderopacity="1.0"
     inkscape:pageshadow="2"
     inkscape:pageopacity="0.0"
     inkscape:pagecheckerboard="0"
     showgrid="false"
     inkscape:zoom="6.4416667"
     inkscape:cx="17.386805"
     inkscape:cy="60.310479"
     inkscape:window-width="1920"
     inkscape:window-height="996"
     inkscape:window-x="0"
     inkscape:window-y="0"
     inkscape:window-maximized="1"
     inkscape:current-layer="svg4"
     showguides="false" />
  <path
     d="M 2,32 C 2,10.4 10.4,2 32,2 53.6,2 62,10.4 62,32 62,53.6 53.6,62 32,62 10.4,62 2,53.6 2,32"
     id="path2"
     style="stroke-width:0.3;fill:#e8861e;fill-opacity:1" />
  <path
     id="rect6858"
     style="fill:#ffffff;fill-opacity:1;stroke-width:1.06654"
     d="m 19,17 c -3.324,0 -6,2.676 -6,6 v 14 c 0,3.324 2.676,6 6,6 h 4 v 8 l 8,-8 h 14 c 3.324,0 6,-2.676 6,-6 V 23 c 0,-3.324 -2.676,-6 -6,-6 z"
     sodipodi:nodetypes="sssscccsssss" />
  <path
     id="path3093"
     style="color:#000000;fill:#b76613;fill-opacity:1;stroke:none;stroke-width:0.825744;stroke-linecap:round;stroke-linejoin:round;-inkscape-stroke:none"
     d="M 27.833984 21 C 27.228661 21.000211 26.670778 21.322218 26.376953 21.841797 L 22.208984 29.205078 C 21.929711 29.699057 21.929711 30.300943 22.208984 30.794922 L 26.376953 38.158203 C 26.670778 38.677782 27.228661 38.999789 27.833984 39 L 36.166016 39 C 36.771339 38.999789 37.329222 38.677782 37.623047 38.158203 L 41.791016 30.794922 C 42.070289 30.300943 42.070289 29.699057 41.791016 29.205078 L 37.623047 21.841797 C 37.329222 21.322218 36.771339 21.000211 36.166016 21 L 27.833984 21 z M 28.642578 23 L 35.357422 23 L 32 28.222656 L 28.642578 23 z M 36.775391 24.349609 L 40.015625 30 L 36.775391 35.650391 L 33.142578 30 L 36.775391 24.349609 z M 27.226562 24.353516 L 30.857422 30 L 27.226562 35.646484 L 24 30 L 27.226562 24.353516 z M 32 31.777344 L 35.357422 37 L 28.642578 37 L 32 31.777344 z " />
</svg>
