<?xml version="1.0" encoding="UTF-8" standalone="no"?>
<svg
   viewbox="0 0 200 200"
   version="1.1"
   id="svg4"
   sodipodi:docname="ibus.svg"
   width="64"
   height="64"
   inkscape:version="1.1.1 (3bf5ae0d25, 2021-09-20, custom)"
   xmlns:inkscape="http://www.inkscape.org/namespaces/inkscape"
   xmlns:sodipodi="http://sodipodi.sourceforge.net/DTD/sodipodi-0.dtd"
   xmlns="http://www.w3.org/2000/svg"
   xmlns:svg="http://www.w3.org/2000/svg">
  <defs
     id="defs8" />
  <sodipodi:namedview
     id="namedview6"
     pagecolor="#ffffff"
     bordercolor="#666666"
     borderopacity="1.0"
     inkscape:pageshadow="2"
     inkscape:pageopacity="0.0"
     inkscape:pagecheckerboard="0"
     showgrid="false"
     inkscape:zoom="12.883333"
     inkscape:cx="41.448901"
     inkscape:cy="44.01035"
     inkscape:window-width="1920"
     inkscape:window-height="1007"
     inkscape:window-x="0"
     inkscape:window-y="0"
     inkscape:window-maximized="1"
     inkscape:current-layer="svg4"
     showguides="true" />
  <path
     d="M 2,32 C 2,10.4 10.4,2 32,2 53.6,2 62,10.4 62,32 62,53.6 53.6,62 32,62 10.4,62 2,53.6 2,32"
     id="path2"
     style="stroke-width:0.3;fill:#0091b1;fill-opacity:1;stroke:none" />
  <path
     id="rect924"
     style="fill:#ffffff;stroke-width:4;stroke-linecap:round;stroke-linejoin:round"
     d="M 16 18 C 13.784 18 12 19.784 12 22 L 12 42 C 12 44.216 13.784 46 16 46 L 48 46 C 50.216 46 52 44.216 52 42 L 52 22 C 52 19.784 50.216 18 48 18 L 16 18 z M 18.5 22 A 2.5 2.5 0 0 1 21 24.5 A 2.5 2.5 0 0 1 18.5 27 A 2.5 2.5 0 0 1 16 24.5 A 2.5 2.5 0 0 1 18.5 22 z M 25.25 22 A 2.5 2.5 0 0 1 27.75 24.5 A 2.5 2.5 0 0 1 25.25 27 A 2.5 2.5 0 0 1 22.75 24.5 A 2.5 2.5 0 0 1 25.25 22 z M 32 22 A 2.5 2.5 0 0 1 34.5 24.5 A 2.5 2.5 0 0 1 32 27 A 2.5 2.5 0 0 1 29.5 24.5 A 2.5 2.5 0 0 1 32 22 z M 38.75 22 A 2.5 2.5 0 0 1 41.25 24.5 A 2.5 2.5 0 0 1 38.75 27 A 2.5 2.5 0 0 1 36.25 24.5 A 2.5 2.5 0 0 1 38.75 22 z M 45.5 22 A 2.5 2.5 0 0 1 48 24.5 A 2.5 2.5 0 0 1 45.5 27 A 2.5 2.5 0 0 1 43 24.5 A 2.5 2.5 0 0 1 45.5 22 z M 18.5 29 A 2.5 2.5 0 0 1 21 31.5 A 2.5 2.5 0 0 1 18.5 34 A 2.5 2.5 0 0 1 16 31.5 A 2.5 2.5 0 0 1 18.5 29 z M 25.25 29 A 2.5 2.5 0 0 1 27.75 31.5 A 2.5 2.5 0 0 1 25.25 34 A 2.5 2.5 0 0 1 22.75 31.5 A 2.5 2.5 0 0 1 25.25 29 z M 32 29 A 2.5 2.5 0 0 1 34.5 31.5 A 2.5 2.5 0 0 1 32 34 A 2.5 2.5 0 0 1 29.5 31.5 A 2.5 2.5 0 0 1 32 29 z M 38.75 29 A 2.5 2.5 0 0 1 41.25 31.5 A 2.5 2.5 0 0 1 38.75 34 A 2.5 2.5 0 0 1 36.25 31.5 A 2.5 2.5 0 0 1 38.75 29 z M 45.5 29 A 2.5 2.5 0 0 1 48 31.5 A 2.5 2.5 0 0 1 45.5 34 A 2.5 2.5 0 0 1 43 31.5 A 2.5 2.5 0 0 1 45.5 29 z M 23 37 L 41 37 L 41 42 L 23 42 L 23 37 z " />
  <path
     d="M 34,48 C 34,37.92 37.92,34 48,34 58.08,34 62,37.92 62,48 62,58.08 58.08,62 48,62 37.92,62 34,58.08 34,48"
     id="path2-3"
     style="fill:#005b6f;fill-opacity:1;stroke:none;stroke-width:0.14" />
  <path
     id="rect4966"
     style="fill:#ffffff"
     d="M 47.835938 38 C 47.24652 38 46.79025 38.165662 46.46875 38.496094 C 46.15618 38.826524 46 39.242075 46 39.742188 C 46 40.233369 46.15618 40.644179 46.46875 40.974609 C 46.79025 41.29611 47.24652 41.457031 47.835938 41.457031 C 48.425355 41.457031 48.879671 41.29611 49.201172 40.974609 C 49.522672 40.644179 49.683594 40.233369 49.683594 39.742188 C 49.683594 39.242075 49.522672 38.826524 49.201172 38.496094 C 48.879671 38.165662 48.425355 38 47.835938 38 z M 46.201172 43.505859 L 46.201172 58 L 49.457031 58 L 49.457031 43.505859 L 46.201172 43.505859 z " />
</svg>
