<?xml version="1.0" encoding="UTF-8" standalone="no"?>
<!-- Created with Inkscape (http://www.inkscape.org/) -->

<svg
   width="64"
   height="64"
   viewBox="0 0 16.933333 16.933333"
   version="1.1"
   id="svg5"
   inkscape:version="1.1.1 (3bf5ae0d25, 2021-09-20, custom)"
   sodipodi:docname="instagram.svg"
   xmlns:inkscape="http://www.inkscape.org/namespaces/inkscape"
   xmlns:sodipodi="http://sodipodi.sourceforge.net/DTD/sodipodi-0.dtd"
   xmlns:xlink="http://www.w3.org/1999/xlink"
   xmlns="http://www.w3.org/2000/svg"
   xmlns:svg="http://www.w3.org/2000/svg">
  <sodipodi:namedview
     id="namedview7"
     pagecolor="#ffffff"
     bordercolor="#666666"
     borderopacity="1.0"
     inkscape:pageshadow="2"
     inkscape:pageopacity="0.0"
     inkscape:pagecheckerboard="0"
     inkscape:document-units="px"
     showgrid="false"
     units="px"
     height="48px"
     inkscape:zoom="5.656854"
     inkscape:cx="20.064156"
     inkscape:cy="54.270448"
     inkscape:window-width="1920"
     inkscape:window-height="1006"
     inkscape:window-x="0"
     inkscape:window-y="0"
     inkscape:window-maximized="1"
     inkscape:current-layer="svg5"
     inkscape:lockguides="true" />
  <defs
     id="defs2">
    <radialGradient
       fy="578.08801"
       fx="158.429"
       gradientTransform="matrix(0,-0.84926239,0.79009623,0,-437.8031,198.67989)"
       gradientUnits="userSpaceOnUse"
       xlink:href="#a"
       r="65"
       cy="578.08801"
       cx="158.429"
       id="c" />
    <linearGradient
       id="a">
      <stop
         id="stop9"
         stop-color="#fd5"
         offset="0" />
      <stop
         id="stop11"
         stop-color="#fd5"
         offset=".1" />
      <stop
         id="stop13"
         stop-color="#ff543e"
         offset=".5" />
      <stop
         id="stop15"
         stop-color="#c837ab"
         offset="1" />
    </linearGradient>
    <radialGradient
       fy="473.45499"
       fx="147.694"
       gradientTransform="matrix(0.07453191,0.37223944,-1.5347723,0.3073058,710.44817,-192.31768)"
       gradientUnits="userSpaceOnUse"
       xlink:href="#b"
       r="65"
       cy="473.45499"
       cx="147.694"
       id="d" />
    <linearGradient
       id="b">
      <stop
         id="stop2"
         stop-color="#3771c8"
         offset="0" />
      <stop
         id="stop4"
         offset=".128"
         stop-color="#3771c8" />
      <stop
         id="stop6"
         stop-opacity="0"
         stop-color="#60f"
         offset="1" />
    </linearGradient>
  </defs>
  <path
     id="path22"
     style="fill:url(#c);stroke-width:0.428493"
     d="M 32 2 C 10.400001 2 2 10.4 2 32 C 2 53.599998 10.400001 62 32 62 C 53.6 62 62 53.599998 62 32 C 62 10.4 53.6 2 32 2 z "
     transform="scale(0.26458333)" />
  <path
     id="path24"
     style="fill:url(#d);stroke-width:0.428493"
     d="M 32 2 C 10.399999 2 2 10.4 2 32 C 2 53.599998 10.399999 62 32 62 C 53.600002 62 62 53.599998 62 32 C 62 10.4 53.600002 2 32 2 z "
     transform="scale(0.26458333)" />
  <path
     style="stroke-width:0.118119"
     id="path26"
     d="m 8.4671951,2.7970239 c -1.539796,0 -1.7330383,0.00674 -2.3378063,0.034255 C 5.5258021,2.8589179 5.1138043,2.9544761 4.7533057,3.0946831 4.3804049,3.2394965 4.0640829,3.4332114 3.748942,3.7484702 3.4335648,4.063611 3.2398501,4.3799331 3.0945641,4.7527158 2.9540028,5.1133324 2.8583265,5.5254488 2.8311594,6.1287994 c -0.02705,0.604768 -0.034136,0.7981283 -0.034136,2.3379242 0,1.5397964 0.00685,1.7324464 0.034255,2.3372144 0.027759,0.603587 0.1233151,1.015584 0.2634048,1.376083 0.1449314,0.372902 0.3386463,0.689223 0.6539054,1.004364 0.3150225,0.315377 0.6313445,0.509565 1.0040092,0.654377 0.3607347,0.140207 0.772851,0.235767 1.3763199,0.263406 0.604768,0.02751 0.7978923,0.03425 2.3375697,0.03425 1.5399136,0 1.7325656,-0.0068 2.3373346,-0.03425 0.603586,-0.02764 1.016057,-0.123199 1.376791,-0.263406 0.372783,-0.144812 0.688632,-0.339 1.003655,-0.654377 0.315378,-0.315141 0.509093,-0.631462 0.654378,-1.004246 0.13938,-0.360617 0.235057,-0.772732 0.263405,-1.376082 0.02717,-0.604768 0.03425,-0.797537 0.03425,-2.3373334 0,-1.5397959 -0.0072,-1.7330383 -0.03425,-2.3378062 C 14.073702,5.5253309 13.978024,5.1133324 13.838644,4.752834 13.69336,4.3799331 13.499644,4.063611 13.184267,3.7484702 12.86889,3.4330932 12.553512,3.2393784 12.180257,3.0946831 11.818814,2.9544761 11.406581,2.8589179 10.802993,2.8312783 10.198225,2.8037566 10.005692,2.7970237 8.4654234,2.7970237 Z M 7.9585761,3.818751 c 0.1509559,-2.361e-4 0.319393,0 0.508619,0 1.5138102,0 1.6932329,0.00543 2.2910309,0.032603 0.552795,0.025277 0.852818,0.1176471 1.052675,0.1952501 0.264586,0.102765 0.453221,0.2256069 0.651543,0.4240465 0.19844,0.1984386 0.321282,0.3874296 0.424282,0.6520153 0.0776,0.1996202 0.170091,0.4996422 0.19525,1.0524383 0.02717,0.5976806 0.03308,0.7772212 0.03308,2.2903221 0,1.513102 -0.0059,1.6926427 -0.03308,2.2903227 -0.02528,0.552795 -0.117647,0.852816 -0.19525,1.052438 -0.10276,0.264585 -0.225843,0.452985 -0.424282,0.651306 -0.19844,0.19844 -0.38684,0.321283 -0.651543,0.424047 -0.19962,0.07797 -0.49988,0.17009 -1.052675,0.195367 -0.59768,0.02717 -0.7772207,0.03308 -2.2910309,0.03308 -1.5139277,0 -1.6933502,-0.0059 -2.2910309,-0.03308 C 5.6233681,13.053391 5.3233466,12.961023 5.1233716,12.883419 4.8587859,12.780655 4.6697957,12.657812 4.4713563,12.459372 4.2729167,12.260933 4.1500733,12.072415 4.0470737,11.807711 3.9694697,11.608091 3.8769827,11.308069 3.8518234,10.755272 3.8246561,10.157592 3.8192226,9.9780533 3.8192226,8.4640068 c 0,-1.514046 0.00543,-1.6926412 0.032602,-2.2903221 0.025277,-0.552796 0.117647,-0.8528176 0.19525,-1.0526746 C 4.1498388,4.8564243 4.2729176,4.6674342 4.4713572,4.4689948 4.6697957,4.2705542 4.8587866,4.1477117 5.1233724,4.0447122 5.323229,3.9667527 5.623369,3.8746214 6.1761649,3.8492258 6.6991943,3.8256027 6.9018864,3.8185146 7.9585769,3.817333 Z m 3.5350569,0.9414063 c -0.375617,0 -0.680364,0.3043922 -0.680364,0.680128 0,0.3756173 0.304747,0.6803639 0.680364,0.6803639 0.375619,0 0.680364,-0.3047466 0.680364,-0.6803639 0,-0.3756177 -0.304745,-0.6803641 -0.680364,-0.6803641 z M 8.4671951,5.5550962 c -1.6079502,0 -2.9116268,1.3036768 -2.9116268,2.9116274 0,1.6079494 1.3036766,2.9110354 2.9116268,2.9110354 1.6079509,0 2.9111549,-1.303086 2.9111549,-2.9110354 0,-1.6079506 -1.303323,-2.9116274 -2.9112728,-2.9116274 z m 0,1.0217276 c 1.0436972,0 1.8898999,0.8460845 1.8898999,1.8898998 0,1.0436967 -0.8462027,1.8898994 -1.8898999,1.8898994 -1.0438153,0 -1.8899001,-0.8462027 -1.8899001,-1.8898994 0,-1.0438153 0.8460848,-1.8898998 1.8899001,-1.8898998 z"
     fill="#ffffff" />
</svg>
