<?xml version="1.0" encoding="UTF-8" standalone="no"?>
<svg
   viewbox="0 0 200 200"
   version="1.1"
   id="svg4"
   sodipodi:docname="internet-chat.svg"
   width="64"
   height="64"
   inkscape:version="1.1.1 (3bf5ae0d25, 2021-09-20)"
   xmlns:inkscape="http://www.inkscape.org/namespaces/inkscape"
   xmlns:sodipodi="http://sodipodi.sourceforge.net/DTD/sodipodi-0.dtd"
   xmlns="http://www.w3.org/2000/svg"
   xmlns:svg="http://www.w3.org/2000/svg">
  <defs
     id="defs8" />
  <sodipodi:namedview
     id="namedview6"
     pagecolor="#ffffff"
     bordercolor="#666666"
     borderopacity="1.0"
     inkscape:pageshadow="2"
     inkscape:pageopacity="0.0"
     inkscape:pagecheckerboard="0"
     showgrid="false"
     inkscape:zoom="11.313708"
     inkscape:cx="25.279067"
     inkscape:cy="34.383067"
     inkscape:window-width="1920"
     inkscape:window-height="1009"
     inkscape:window-x="-8"
     inkscape:window-y="-8"
     inkscape:window-maximized="1"
     inkscape:current-layer="svg4"
     showguides="false" />
  <path
     d="M 2,32 C 2,10.4 10.4,2 32,2 53.6,2 62,10.4 62,32 62,53.6 53.6,62 32,62 10.4,62 2,53.6 2,32"
     id="path2"
     style="stroke-width:0.3;fill:#0091ea;fill-opacity:1" />
  <path
     id="rect6858"
     style="fill:#ffffff;fill-opacity:1;stroke-width:1.06654"
     d="m 19,17 c -3.324,0 -6,2.676 -6,6 v 14 c 0,3.324 2.676,6 6,6 h 4 v 8 l 8,-8 h 14 c 3.324,0 6,-2.676 6,-6 V 23 c 0,-3.324 -2.676,-6 -6,-6 z"
     sodipodi:nodetypes="sssscccsssss" />
  <path
     id="path1607"
     style="fill:#005fb5;fill-opacity:1;stroke-width:1.75342;stroke-linecap:round;stroke-linejoin:round"
     d="M 21.5 26 A 3.5 3.5 0 0 0 18 29.5 A 3.5 3.5 0 0 0 21.5 33 A 3.5 3.5 0 0 0 25 29.5 A 3.5 3.5 0 0 0 21.5 26 z M 32 26 A 3.5 3.5 0 0 0 28.5 29.5 A 3.5 3.5 0 0 0 32 33 A 3.5 3.5 0 0 0 35.5 29.5 A 3.5 3.5 0 0 0 32 26 z M 42.5 26 A 3.5 3.5 0 0 0 39 29.5 A 3.5 3.5 0 0 0 42.5 33 A 3.5 3.5 0 0 0 46 29.5 A 3.5 3.5 0 0 0 42.5 26 z " />
</svg>
