<?xml version="1.0" encoding="UTF-8" standalone="no"?>
<svg
   viewbox="0 0 200 200"
   version="1.1"
   id="svg4"
   sodipodi:docname="io.github.seadve.Kooha.svg"
   width="64"
   height="64"
   inkscape:version="1.1.2 (0a00cf5339, 2022-02-04, custom)"
   xmlns:inkscape="http://www.inkscape.org/namespaces/inkscape"
   xmlns:sodipodi="http://sodipodi.sourceforge.net/DTD/sodipodi-0.dtd"
   xmlns:xlink="http://www.w3.org/1999/xlink"
   xmlns="http://www.w3.org/2000/svg"
   xmlns:svg="http://www.w3.org/2000/svg">
  <defs
     id="defs8">
    <linearGradient
       inkscape:collect="always"
       id="linearGradient2974">
      <stop
         style="stop-color:#e02e83;stop-opacity:1;"
         offset="0"
         id="stop2970" />
      <stop
         style="stop-color:#e32be0;stop-opacity:1"
         offset="1"
         id="stop2972" />
    </linearGradient>
    <linearGradient
       inkscape:collect="always"
       xlink:href="#linearGradient2974"
       id="linearGradient2976"
       x1="62"
       y1="62"
       x2="2"
       y2="4"
       gradientUnits="userSpaceOnUse" />
  </defs>
  <sodipodi:namedview
     id="namedview6"
     pagecolor="#ffffff"
     bordercolor="#666666"
     borderopacity="1.0"
     inkscape:pageshadow="2"
     inkscape:pageopacity="0.0"
     inkscape:pagecheckerboard="0"
     showgrid="false"
     inkscape:zoom="12.25"
     inkscape:cx="31.959184"
     inkscape:cy="32"
     inkscape:window-width="1920"
     inkscape:window-height="1011"
     inkscape:window-x="0"
     inkscape:window-y="0"
     inkscape:window-maximized="1"
     inkscape:current-layer="svg4"
     showguides="false" />
  <path
     d="M 2,32 C 2,10.4 10.4,2 32,2 53.6,2 62,10.4 62,32 62,53.6 53.6,62 32,62 10.4,62 2,53.6 2,32"
     id="path2"
     style="stroke-width:0.3;fill:url(#linearGradient2976);fill-opacity:1;stroke:none" />
  <path
     id="rect947"
     style="fill:#f3a1d9;stroke-linecap:round;stroke-linejoin:round;fill-opacity:1"
     d="M 16 12 C 13.784 12 12 13.784 12 16 L 12 22.5 C 12 23.328427 12.671573 24 13.5 24 C 14.328427 24 15 23.328427 15 22.5 L 15 17 C 15 15.892 15.892 15 17 15 L 22.5 15 C 23.328427 15 24 14.328427 24 13.5 C 24 12.671573 23.328427 12 22.5 12 L 16 12 z M 41.5 12 C 40.671573 12 40 12.671573 40 13.5 C 40 14.328427 40.671573 15 41.5 15 L 47 15 C 48.108 15 49 15.892 49 17 L 49 22.5 C 49 23.328427 49.671573 24 50.5 24 C 51.328427 24 52 23.328427 52 22.5 L 52 16 C 52 13.784 50.216 12 48 12 L 41.5 12 z M 13.5 40 C 12.671573 40 12 40.671573 12 41.5 L 12 48 C 12 50.216 13.784 52 16 52 L 22.5 52 C 23.328427 52 24 51.328427 24 50.5 C 24 49.671573 23.328427 49 22.5 49 L 17 49 C 15.892 49 15 48.108 15 47 L 15 41.5 C 15 40.671573 14.328427 40 13.5 40 z M 50.5 40 C 49.671573 40 49 40.671573 49 41.5 L 49 47 C 49 48.108 48.108 49 47 49 L 41.5 49 C 40.671573 49 40 49.671573 40 50.5 C 40 51.328427 40.671573 52 41.5 52 L 48 52 C 50.216 52 52 50.216 52 48 L 52 41.5 C 52 40.671573 51.328427 40 50.5 40 z " />
  <path
     id="rect212"
     style="fill:#ffffff;fill-rule:evenodd"
     d="M 23 25 C 21.338 25 20 26.338 20 28 L 20 36 C 20 37.662 21.338 39 23 39 L 33 39 C 34.662 39 36 37.662 36 36 L 36 34.761719 L 40.75 38.560547 A 2.0002 2.0000519 0 0 0 44 37 L 44 27 A 2.0002 2.0000519 0 0 0 42.867188 25.197266 A 2.0002 2.0000519 0 0 0 41.998047 25 A 2.0002 2.0000519 0 0 0 40.75 25.4375 L 36 29.238281 L 36 28 C 36 26.338 34.662 25 33 25 L 23 25 z " />
</svg>
