<?xml version="1.0" encoding="UTF-8" standalone="no"?>
<svg
   viewbox="0 0 200 200"
   version="1.1"
   id="svg4"
   sodipodi:docname="kdeapp.svg"
   width="64"
   height="64"
   inkscape:version="1.1.1 (3bf5ae0d25, 2021-09-20, custom)"
   xmlns:inkscape="http://www.inkscape.org/namespaces/inkscape"
   xmlns:sodipodi="http://sodipodi.sourceforge.net/DTD/sodipodi-0.dtd"
   xmlns="http://www.w3.org/2000/svg"
   xmlns:svg="http://www.w3.org/2000/svg">
  <defs
     id="defs8" />
  <sodipodi:namedview
     id="namedview6"
     pagecolor="#ffffff"
     bordercolor="#666666"
     borderopacity="1.0"
     inkscape:pageshadow="2"
     inkscape:pageopacity="0.0"
     inkscape:pagecheckerboard="0"
     showgrid="false"
     inkscape:zoom="5.6568542"
     inkscape:cx="4.5961941"
     inkscape:cy="39.863145"
     inkscape:window-width="1920"
     inkscape:window-height="996"
     inkscape:window-x="0"
     inkscape:window-y="0"
     inkscape:window-maximized="1"
     inkscape:current-layer="svg4"
     showguides="true" />
  <path
     d="M 2,32 C 2,10.4 10.4,2 32,2 53.6,2 62,10.4 62,32 62,53.6 53.6,62 32,62 10.4,62 2,53.6 2,32"
     id="path2"
     style="stroke-width:0.3;fill:#1d99f3;fill-opacity:1" />
  <path
     id="path5"
     class="st1"
     d="m 35.434372,9 c -2.438214,0.262174 -4.902646,0.524347 -7.34086,0.786521 v 30.333277 c 2.438214,-0.419478 4.902646,-0.838751 7.34086,-1.232012 V 25.910195 L 45.26588,40.381971 C 47.835181,39.569233 50.430699,38.7567 53,37.970179 49.644178,33.408359 46.262139,28.846232 42.906318,24.284412 46.262139,19.879896 49.617961,15.475687 53,11.097389 50.404482,10.520607 47.80927,9.9173 45.187534,9.340518 41.936582,13.6926 38.685324,18.018771 35.434372,22.370852 Z m -16.608593,7.366975 c -0.0721,0 -0.144196,0.02642 -0.196631,0.07886 l -3.014996,3.014996 c -0.104869,0.104869 -0.104869,0.288391 0,0.39326 1.179781,1.861432 2.359562,3.696442 3.539343,5.557875 -0.602999,0.996259 -1.074911,2.070967 -1.441954,3.198313 -2.149823,0.471912 -4.273429,0.943825 -6.423253,1.441954 -0.157304,0 -0.288288,0.131496 -0.288288,0.2888 v 4.247008 c 0,0.157304 0.130984,0.288288 0.288288,0.288288 2.044954,0.445695 4.116125,0.891697 6.161079,1.36361 0.314609,1.310868 0.786623,2.543083 1.41584,3.67043 -1.205998,1.861432 -2.386087,3.722455 -3.592085,5.610105 -0.10487,0.104869 -0.10487,0.288391 0,0.39326 l 2.988881,2.988881 c 0.104869,0.10487 0.288391,0.10487 0.39326,0 1.835215,-1.179781 3.696545,-2.359664 5.53176,-3.513228 1.074912,0.629217 2.254795,1.127756 3.513228,1.468581 0.471913,2.097389 0.94403,4.168151 1.389725,6.265539 0,0.157305 0.130984,0.2888 0.288289,0.2888 h 4.247007 c 0.157304,0 0.2888,-0.131495 0.2888,-0.2888 0.471912,-2.097388 0.9173,-4.16815 1.389213,-6.265539 1.205998,-0.340825 2.35946,-0.812738 3.434371,-1.441954 1.861433,1.179781 3.696954,2.359562 5.558386,3.539343 0.104869,0.104869 0.288391,0.104869 0.39326,0 l 2.988881,-2.988881 c 0.10487,-0.10487 0.10487,-0.288391 0,-0.393261 -0.602999,-1.101129 -1.28465,-2.176245 -1.966301,-3.224939 -0.262174,0.07865 -0.498232,0.157406 -0.760406,0.236059 -0.970042,-1.363303 -1.939982,-2.726606 -2.910024,-4.063691 -2.018736,3.722865 -5.95134,6.266051 -10.486942,6.266051 -6.580557,0 -11.902782,-5.322226 -11.902782,-11.902782 0,-4.850211 2.910024,-9.044989 7.104801,-10.880204 v -2.77894 c -0.681651,0.235956 -1.3632,0.52404 -1.992417,0.864866 -1.913867,-1.205999 -3.827836,-2.437805 -5.741703,-3.643803 -0.05243,-0.05243 -0.124533,-0.07886 -0.196631,-0.07886 z"
     style="fill:#ffffff;stroke-width:0.262174" />
</svg>
