<?xml version="1.0" encoding="UTF-8" standalone="no"?>
<svg
   viewbox="0 0 200 200"
   version="1.1"
   id="svg4"
   sodipodi:docname="kid3.svg"
   width="64"
   height="64"
   inkscape:version="1.1.1 (3bf5ae0d25, 2021-09-20, custom)"
   xmlns:inkscape="http://www.inkscape.org/namespaces/inkscape"
   xmlns:sodipodi="http://sodipodi.sourceforge.net/DTD/sodipodi-0.dtd"
   xmlns="http://www.w3.org/2000/svg"
   xmlns:svg="http://www.w3.org/2000/svg">
  <defs
     id="defs8" />
  <sodipodi:namedview
     id="namedview6"
     pagecolor="#ffffff"
     bordercolor="#666666"
     borderopacity="1.0"
     inkscape:pageshadow="2"
     inkscape:pageopacity="0.0"
     inkscape:pagecheckerboard="0"
     showgrid="false"
     inkscape:zoom="10.981693"
     inkscape:cx="42.616379"
     inkscape:cy="24.814024"
     inkscape:window-width="1920"
     inkscape:window-height="1000"
     inkscape:window-x="0"
     inkscape:window-y="0"
     inkscape:window-maximized="1"
     inkscape:current-layer="svg4"
     showguides="false" />
  <path
     d="M 2,32 C 2,10.4 10.4,2 32,2 53.6,2 62,10.4 62,32 62,53.6 53.6,62 32,62 10.4,62 2,53.6 2,32"
     id="path2"
     style="stroke-width:0.3;fill:#4ed097;fill-opacity:1" />
  <path
     id="rect1897"
     style="fill:#ffffff;fill-opacity:1;stroke-width:1.86171;stroke-linecap:round;stroke-linejoin:round"
     d="M 13.816337,13.816336 C 13.311582,14.321091 13,15.018718 13,15.792256 v 13.033098 c 0.204458,1.221802 0.752443,1.997021 1.538826,2.698408 l 18.655778,18.655777 c 1.093948,1.093948 2.855319,1.093947 3.949267,0 L 50.17954,37.143871 c 1.093946,-1.093946 1.093947,-2.85532 0,-3.949267 L 31.523762,14.538825 C 30.718976,13.781418 29.782123,13.018039 28.825353,13 H 15.792256 c -0.773537,0 -1.471166,0.311583 -1.975919,0.816336 z"
     sodipodi:nodetypes="ssccssssccss" />
  <circle
     style="fill:#2ba163;fill-opacity:1;stroke-width:1.73833;stroke-linecap:round;stroke-linejoin:round"
     id="path2530"
     cx="18"
     cy="18"
     r="2" />
  <path
     id="rect17629"
     style="opacity:1;fill:#179297;fill-opacity:1;stroke-width:0.999999"
     d="m 32.500116,26 c -0.03267,0 -0.06481,0.0038 -0.0957,0.0098 -0.03257,0.0063 -0.06379,0.01514 -0.09375,0.02734 -0.0019,7.56e-4 -0.004,0.0012 -0.0059,0.002 -0.02286,0.0096 -0.04349,0.02237 -0.06445,0.03516 -0.0053,0.0025 -0.01046,0.0051 -0.01563,0.0078 -0.0015,9.84e-4 -0.0024,0.0029 -0.0039,0.0039 -0.002,0.0013 -0.0039,0.0026 -0.0059,0.0039 -0.02362,0.01643 -0.04601,0.03452 -0.06641,0.05469 l -0.002,0.002 c -0.01926,0.01926 -0.03683,0.0403 -0.05273,0.0625 -0.0026,0.0032 -0.0053,0.0065 -0.0078,0.0098 v 0.002 c -0.0033,0.0045 -0.0066,0.0091 -0.0098,0.01367 -0.01409,0.02249 -0.02669,0.04558 -0.03711,0.07031 -0.01132,0.02685 -0.02081,0.05495 -0.02734,0.08398 -6.72e-4,0.0026 -0.0013,0.0052 -0.0019,0.0078 v 0.002 c -5e-6,0.0013 -5e-6,0.0026 0,0.0039 -0.0056,0.02833 -0.0092,0.05803 -0.0098,0.08789 -5e-6,0.0013 -5e-6,0.0026 0,0.0039 v 0.0019 c -6e-6,0.0013 4e-6,0.0026 4e-6,0.0039 v 7.552739 c -0.65794,-0.672704 -1.559035,-1.052149 -2.5,-1.052735 -1.932996,0 -3.5,1.567003 -3.5,3.5 0,1.932997 1.567004,3.5 3.5,3.5 1.932997,0 3.5,-1.567003 3.5,-3.5 v -9.488281 c 2.487647,0.148132 3.654328,1.408264 4.302735,2.705078 0.690203,1.380404 0.69336,2.78125 0.69336,2.78125 0.003,0.274704 0.227236,0.495444 0.501953,0.494141 0.274717,0.0013 0.498947,-0.219437 0.501953,-0.494141 0,0 0.0047,-1.603922 -0.804688,-3.222656 -0.809364,-1.618733 -2.527683,-3.275391 -5.69336,-3.275391 z"
     sodipodi:nodetypes="sssccccccsccccscccccccsccssccsccccss" />
</svg>
