<?xml version="1.0" encoding="UTF-8" standalone="no"?>
<svg
   viewbox="0 0 200 200"
   version="1.1"
   id="svg4"
   sodipodi:docname="latexila.svg"
   width="64"
   height="64"
   inkscape:version="1.1.1 (3bf5ae0d25, 2021-09-20, custom)"
   xmlns:inkscape="http://www.inkscape.org/namespaces/inkscape"
   xmlns:sodipodi="http://sodipodi.sourceforge.net/DTD/sodipodi-0.dtd"
   xmlns="http://www.w3.org/2000/svg"
   xmlns:svg="http://www.w3.org/2000/svg">
  <defs
     id="defs8" />
  <sodipodi:namedview
     id="namedview6"
     pagecolor="#ffffff"
     bordercolor="#666666"
     borderopacity="1.0"
     inkscape:pageshadow="2"
     inkscape:pageopacity="0.0"
     inkscape:pagecheckerboard="0"
     showgrid="false"
     inkscape:zoom="8"
     inkscape:cx="27.5625"
     inkscape:cy="26.875"
     inkscape:window-width="1920"
     inkscape:window-height="1006"
     inkscape:window-x="0"
     inkscape:window-y="0"
     inkscape:window-maximized="1"
     inkscape:current-layer="svg4"
     showguides="true" />
  <path
     d="M 2,32 C 2,10.4 10.4,2 32,2 53.6,2 62,10.4 62,32 62,53.6 53.6,62 32,62 10.4,62 2,53.6 2,32"
     id="path2"
     style="stroke-width:0.3;fill:#bcd393;fill-opacity:1" />
  <path
     id="rect1511"
     style="fill:#ffffff;stroke-width:4;stroke-linecap:round;stroke-linejoin:round"
     d="M 19 13 C 15.676 13 13 15.676 13 19 L 13 45 C 13 48.324 15.676 51 19 51 L 34 51 L 38.296875 38.240234 L 51 34 L 51 19 C 51 15.676 48.324 13 45 13 L 19 13 z M 23 17 L 35 17 L 35 21 L 34 21 L 34 19 L 26 19 L 31 25 L 26 31 L 34 31 L 34 29 L 35 29 L 35 33 L 23 33 L 23 31 L 28 25 L 23 19 L 23 17 z " />
  <path
     id="rect1654"
     style="fill:#6e8c39;fill-opacity:1;stroke-width:4;stroke-linecap:round;stroke-linejoin:round"
     d="M 40,34 H 51 L 34,51 V 40 c 0,-3.324 2.676,-6 6,-6 z"
     sodipodi:nodetypes="sccss" />
  <path
     id="rect2706"
     style="fill:#9cbf61;fill-opacity:1;stroke-width:4;stroke-linecap:round;stroke-linejoin:round"
     d="M 19 13 C 15.676 13 13 15.676 13 19 L 13 45 C 13 48.324 15.676 51 19 51 L 19 13 z " />
</svg>
