<?xml version="1.0" encoding="UTF-8" standalone="no"?>
<svg
   version="1.1"
   id="Layer_1"
   width="64"
   height="64"
   viewBox="0 0 64 64"
   sodipodi:docname="microsoft-edge-beta.svg"
   inkscape:version="1.1.1 (3bf5ae0d25, 2021-09-20, custom)"
   xmlns:inkscape="http://www.inkscape.org/namespaces/inkscape"
   xmlns:sodipodi="http://sodipodi.sourceforge.net/DTD/sodipodi-0.dtd"
   xmlns="http://www.w3.org/2000/svg"
   xmlns:svg="http://www.w3.org/2000/svg"
   xmlns:rdf="http://www.w3.org/1999/02/22-rdf-syntax-ns#"
   xmlns:cc="http://creativecommons.org/ns#"
   xmlns:dc="http://purl.org/dc/elements/1.1/">
  <sodipodi:namedview
     id="namedview65"
     pagecolor="#ffffff"
     bordercolor="#666666"
     borderopacity="1.0"
     inkscape:pageshadow="2"
     inkscape:pageopacity="0.0"
     inkscape:pagecheckerboard="0"
     showgrid="false"
     inkscape:zoom="4.921875"
     inkscape:cx="53.638095"
     inkscape:cy="28.139682"
     inkscape:window-width="1920"
     inkscape:window-height="996"
     inkscape:window-x="0"
     inkscape:window-y="0"
     inkscape:window-maximized="1"
     inkscape:current-layer="Layer_1" />
  <defs
     id="defs48">
    <style
       id="style2">.cls-1{fill:url(#linear-gradient);}.cls-2{opacity:0.35;fill:url(#radial-gradient);}.cls-2,.cls-4{isolation:isolate;}.cls-3{fill:url(#linear-gradient-2);}.cls-4{opacity:0.41;fill:url(#radial-gradient-2);}.cls-5{fill:url(#radial-gradient-3);}.cls-6{fill:url(#radial-gradient-4);}</style>
    <linearGradient
       id="linear-gradient"
       x1="63.330002"
       y1="84.029999"
       x2="241.67"
       y2="84.029999"
       gradientTransform="matrix(0.17186425,0,0,-0.17186425,9.207705,54.87032)"
       gradientUnits="userSpaceOnUse">
      <stop
         offset="0"
         stop-color="#0c59a4"
         id="stop4" />
      <stop
         offset="1"
         stop-color="#114a8b"
         id="stop6" />
    </linearGradient>
    <radialGradient
       id="radial-gradient"
       cx="161.83"
       cy="68.910004"
       r="95.379997"
       gradientTransform="matrix(0.17186425,0,0,-0.16327104,9.207705,51.921129)"
       gradientUnits="userSpaceOnUse">
      <stop
         offset="0.72"
         stop-opacity="0"
         id="stop9" />
      <stop
         offset="0.95"
         stop-opacity="0.53"
         id="stop11" />
      <stop
         offset="1"
         id="stop13" />
    </radialGradient>
    <linearGradient
       id="linear-gradient-2"
       x1="157.35001"
       y1="161.39"
       x2="45.959999"
       y2="40.060001"
       gradientTransform="matrix(0.17186425,0,0,-0.17186425,9.207705,54.87032)"
       gradientUnits="userSpaceOnUse">
      <stop
         offset="0"
         stop-color="#1b9de2"
         id="stop16" />
      <stop
         offset="0.16"
         stop-color="#1595df"
         id="stop18" />
      <stop
         offset="0.67"
         stop-color="#0680d7"
         id="stop20" />
      <stop
         offset="1"
         stop-color="#0078d4"
         id="stop22" />
    </linearGradient>
    <radialGradient
       id="radial-gradient-2"
       cx="-340.29001"
       cy="62.990002"
       r="143.24001"
       gradientTransform="matrix(0.02577963,-0.17014561,-0.13749141,-0.02062371,39.565808,-12.39735)"
       gradientUnits="userSpaceOnUse">
      <stop
         offset="0.76"
         stop-opacity="0"
         id="stop25" />
      <stop
         offset="0.95"
         stop-opacity="0.5"
         id="stop27" />
      <stop
         offset="1"
         id="stop29" />
    </radialGradient>
    <radialGradient
       id="radial-gradient-3"
       cx="113.37"
       cy="570.21002"
       r="202.42999"
       gradientTransform="matrix(-0.00687457,0.17186425,0.36607087,0.01374914,-193.51307,-9.18177)"
       gradientUnits="userSpaceOnUse">
      <stop
         offset="0"
         stop-color="#35c1f1"
         id="stop32" />
      <stop
         offset="0.11"
         stop-color="#34c1ed"
         id="stop34" />
      <stop
         offset="0.23"
         stop-color="#2fc2df"
         id="stop36" />
      <stop
         offset="0.31"
         stop-color="#2bc3d2"
         id="stop38" />
      <stop
         offset="0.67"
         stop-color="#36c752"
         id="stop40" />
    </radialGradient>
    <radialGradient
       id="radial-gradient-4"
       cx="376.51999"
       cy="567.96997"
       r="97.339996"
       gradientTransform="matrix(0.048122,0.16498968,0.13405412,-0.03952879,-42.997781,-16.367414)"
       gradientUnits="userSpaceOnUse">
      <stop
         offset="0"
         stop-color="#66eb6e"
         id="stop43" />
      <stop
         offset="1"
         stop-color="#66eb6e"
         stop-opacity="0"
         id="stop45" />
    </radialGradient>
  </defs>
  <title
     id="title50">Edge_Logo_265x265</title>
  <path
     d="M 2,32 C 2,10.4 10.4,2 32,2 53.6,2 62,10.4 62,32 62,53.6 53.6,62 32,62 10.4,62 2,53.6 2,32"
     id="path2"
     style="fill:#ffffff;fill-opacity:1;stroke-width:0.3" />
  <path
     class="cls-1"
     d="m 49.712674,42.747016 a 16.108838,16.108838 0 0 1 -1.811449,0.809481 17.507812,17.507812 0 0 1 -6.169927,1.110244 c -8.132617,0 -15.216861,-5.594182 -15.216861,-12.772952 a 5.4102868,5.4102868 0 0 1 2.823729,-4.693614 c -7.35579,0.309356 -9.246296,7.974502 -9.246296,12.465316 0,12.697331 11.702237,13.984594 14.223486,13.984594 1.359446,0 3.409786,-0.395287 4.640334,-0.783701 l 0.225143,-0.07561 A 22.057059,22.057059 0 0 0 50.626992,43.71634 0.68745704,0.68745704 0 0 0 49.712674,42.747025 Z"
     id="path52"
     style="fill:url(#linear-gradient);stroke-width:0.171864" />
  <path
     class="cls-2"
     d="m 49.712674,42.747016 a 16.108838,16.108838 0 0 1 -1.811449,0.809481 17.507812,17.507812 0 0 1 -6.169927,1.110244 c -8.132617,0 -15.216861,-5.594182 -15.216861,-12.772952 a 5.4102868,5.4102868 0 0 1 2.823729,-4.693614 c -7.35579,0.309356 -9.246296,7.974502 -9.246296,12.465316 0,12.697331 11.702237,13.984594 14.223486,13.984594 1.359446,0 3.409786,-0.395287 4.640334,-0.783701 l 0.225143,-0.07561 A 22.057059,22.057059 0 0 0 50.626992,43.71634 0.68745704,0.68745704 0 0 0 49.712674,42.747025 Z"
     id="path54"
     style="fill:url(#radial-gradient);stroke-width:0.171864" />
  <path
     class="cls-3"
     d="m 28.171208,51.491469 a 13.61165,13.61165 0 0 1 -3.908193,-3.667583 13.872883,13.872883 0 0 1 5.075151,-20.623711 c 0.536217,-0.25264 1.452253,-0.709799 2.670771,-0.687457 a 5.5598088,5.5598088 0 0 1 4.415193,2.234236 5.4790325,5.4790325 0 0 1 1.093057,3.206987 c 0,-0.03609 4.203799,-13.680394 -13.749141,-13.680394 -7.544841,0 -13.74914,7.159863 -13.74914,13.441503 a 22.368133,22.368133 0 0 0 2.081276,9.624399 21.998625,21.998625 0 0 0 26.876132,11.53381 12.984345,12.984345 0 0 1 -10.789638,-1.374915 z"
     id="path56"
     style="fill:url(#linear-gradient-2);stroke-width:0.171864" />
  <path
     class="cls-4"
     d="m 28.171208,51.491469 a 13.61165,13.61165 0 0 1 -3.908193,-3.667583 13.872883,13.872883 0 0 1 5.075151,-20.623711 c 0.536217,-0.25264 1.452253,-0.709799 2.670771,-0.687457 a 5.5598088,5.5598088 0 0 1 4.415193,2.234236 5.4790325,5.4790325 0 0 1 1.093057,3.206987 c 0,-0.03609 4.203799,-13.680394 -13.749141,-13.680394 -7.544841,0 -13.74914,7.159863 -13.74914,13.441503 a 22.368133,22.368133 0 0 0 2.081276,9.624399 21.998625,21.998625 0 0 0 26.876132,11.53381 12.984345,12.984345 0 0 1 -10.789638,-1.374915 z"
     id="path58"
     style="fill:url(#radial-gradient-2);stroke-width:0.171864" />
  <path
     class="cls-5"
     d="m 36.180083,35.583714 c -0.139211,0.180458 -0.567153,0.42966 -0.567153,0.972752 0,0.448566 0.29217,0.879945 0.8112,1.242579 2.471408,1.718642 7.130648,1.491781 7.142678,1.491781 a 10.236235,10.236235 0 0 0 5.202332,-1.435066 10.549028,10.549028 0 0 0 5.229829,-9.088182 c 0.04468,-3.851479 -1.374914,-6.412256 -1.94894,-7.546559 C 48.408224,14.097245 40.547153,10 31.998625,10 A 21.998625,21.998625 0 0 0 10,31.68927 c 0.0825,-6.27992 6.324605,-11.351635 13.749141,-11.351635 0.601525,0 4.031935,0.05843 7.218299,1.730674 2.808262,1.474595 4.27942,3.255109 5.302012,5.020155 1.062121,1.833791 1.251172,4.150522 1.251172,5.073433 0,0.922911 -0.470908,2.29095 -1.340541,3.421817 z"
     id="path60"
     style="fill:url(#radial-gradient-3);stroke-width:0.171864" />
  <path
     class="cls-6"
     d="m 36.180083,35.583714 c -0.139211,0.180458 -0.567153,0.42966 -0.567153,0.972752 0,0.448566 0.29217,0.879945 0.8112,1.242579 2.471408,1.718642 7.130648,1.491781 7.142678,1.491781 a 10.236235,10.236235 0 0 0 5.202332,-1.435066 10.549028,10.549028 0 0 0 5.229829,-9.088182 c 0.04468,-3.851479 -1.374914,-6.412256 -1.94894,-7.546559 C 48.408224,14.097245 40.547153,10 31.998625,10 A 21.998625,21.998625 0 0 0 10,31.68927 c 0.0825,-6.27992 6.324605,-11.351635 13.749141,-11.351635 0.601525,0 4.031935,0.05843 7.218299,1.730674 2.808262,1.474595 4.27942,3.255109 5.302012,5.020155 1.062121,1.833791 1.251172,4.150522 1.251172,5.073433 0,0.922911 -0.470908,2.29095 -1.340541,3.421817 z"
     id="path62"
     style="fill:url(#radial-gradient-4);stroke-width:0.171864" />
  <metadata
     id="metadata882">
    <rdf:RDF>
      <cc:Work
         rdf:about="">
        <dc:title>Edge_Logo_265x265</dc:title>
      </cc:Work>
    </rdf:RDF>
  </metadata>
  <path
     id="rect869"
     style="fill:#50e6ff;fill-opacity:1;stroke-width:1.12246"
     d="M 32.154297 43 C 30.961066 43 30 43.961066 30 45.154297 L 30 53.769531 C 30 54.962761 30.961066 55.923828 32.154297 55.923828 L 54.216797 55.923828 C 55.705821 54.620815 56.958609 53.086471 58 51.318359 L 58 45.154297 C 58 43.961066 57.038934 43 55.845703 43 L 32.154297 43 z " />
  <path
     id="path875"
     style="fill:#000000;fill-opacity:1;stroke-width:0.0484793"
     d="m 33.464243,46.064603 v 6.518329 h 2.505108 c 0.739309,0 1.322775,-0.17319 1.749999,-0.521636 0.427224,-0.351475 0.639423,-0.827076 0.639423,-1.423977 0,-0.409044 -0.139813,-0.75635 -0.418569,-1.041166 -0.275726,-0.284813 -0.644891,-0.455649 -1.108474,-0.51322 v -0.01683 c 0.369655,-0.103018 0.672318,-0.287476 0.908654,-0.551081 0.239366,-0.263607 0.359675,-0.571902 0.359675,-0.923377 0,-0.484793 -0.195973,-0.858664 -0.586839,-1.125301 -0.390864,-0.266639 -0.949192,-0.401745 -1.676382,-0.401745 z m 5.967246,0 v 6.518329 h 3.908053 v -1.190505 h -2.439904 v -1.491286 h 2.132812 v -1.190505 h -2.132812 v -1.449218 h 2.290565 v -1.196815 z m 4.431791,0 v 1.196815 h 1.848858 v 5.321514 h 1.472355 v -5.321514 h 1.859375 v -1.196815 z m 7.079927,0 -2.370493,6.518329 h 1.590144 l 0.458534,-1.449219 h 2.31791 l 0.462743,1.449219 h 1.600652 l -2.317904,-6.518329 z m -16.010816,1.083233 h 0.548979 c 0.71507,0 1.072716,0.238514 1.072716,0.717247 0,0.257547 -0.08719,0.461508 -0.262921,0.609976 -0.172707,0.145439 -0.410045,0.216647 -0.71304,0.216647 h -0.645734 z m 16.824816,0.08203 h 0.03791 c 0.02121,0.227248 0.05578,0.421118 0.107261,0.584736 l 0.70042,2.191706 h -1.667966 l 0.708837,-2.208533 c 0.06063,-0.187858 0.09843,-0.377021 0.113583,-0.567909 z m -16.824816,2.553485 h 0.803486 c 0.339354,0 0.603008,0.07449 0.790865,0.222957 0.190888,0.148469 0.288161,0.353607 0.288161,0.614183 0,0.272696 -0.09845,0.486071 -0.292367,0.643629 -0.190887,0.157557 -0.455717,0.23768 -0.795073,0.23768 h -0.795072 z" />
</svg>
