<?xml version="1.0" encoding="UTF-8" standalone="no"?>
<svg
   viewbox="0 0 200 200"
   version="1.1"
   id="svg4"
   sodipodi:docname="org.gnome.TextEditor.svg"
   width="64"
   height="64"
   inkscape:version="1.1.2 (0a00cf5339, 2022-02-04, custom)"
   xmlns:inkscape="http://www.inkscape.org/namespaces/inkscape"
   xmlns:sodipodi="http://sodipodi.sourceforge.net/DTD/sodipodi-0.dtd"
   xmlns="http://www.w3.org/2000/svg"
   xmlns:svg="http://www.w3.org/2000/svg">
  <defs
     id="defs8" />
  <sodipodi:namedview
     id="namedview6"
     pagecolor="#ffffff"
     bordercolor="#666666"
     borderopacity="1.0"
     inkscape:pageshadow="2"
     inkscape:pageopacity="0.0"
     inkscape:pagecheckerboard="0"
     showgrid="false"
     inkscape:zoom="12.859375"
     inkscape:cx="31.961118"
     inkscape:cy="32"
     inkscape:window-width="1920"
     inkscape:window-height="1028"
     inkscape:window-x="0"
     inkscape:window-y="0"
     inkscape:window-maximized="1"
     inkscape:current-layer="svg4"
     showguides="true" />
  <path
     d="M 2,32 C 2,10.4 10.4,2 32,2 53.6,2 62,10.4 62,32 62,53.6 53.6,62 32,62 10.4,62 2,53.6 2,32"
     id="path2"
     style="stroke-width:0.3;fill:#66c5ed;fill-opacity:1" />
  <path
     id="rect1143"
     style="fill:#ffffff;stroke-linejoin:round"
     d="m 20,11 c -2.216,0 -4,1.784 -4,4 v 34 c 0,2.216 1.784,4 4,4 h 16 l 4,-8 8,-4 V 15 c 0,-2.216 -1.784,-4 -4,-4 z m 2,13 h 20 c 0.554,0 1,0.446 1,1 0,0.554 -0.446,1 -1,1 H 22 c -0.554,0 -1,-0.446 -1,-1 0,-0.554 0.446,-1 1,-1 z m 0,7 h 20 c 0.554,0 1,0.446 1,1 0,0.554 -0.446,1 -1,1 H 22 c -0.554,0 -1,-0.446 -1,-1 0,-0.554 0.446,-1 1,-1 z"
     sodipodi:nodetypes="sssscccsssssssssssssssss" />
  <path
     d="m 20,11 c -2.216,0 -4,1.784 -4,4 v 3 h 32 v -3 c 0,-2.216 -1.784,-4 -4,-4 z"
     style="fill:#3390e0;fill-opacity:1;stroke-linejoin:round"
     id="path3209"
     sodipodi:nodetypes="sccccss" />
  <path
     id="rect1265"
     style="fill:#1a66a8;stroke-linejoin:round;fill-opacity:1"
     d="m 40.000002,41 h 8 l -12,12 v -8 c 0,-2.216 1.784,-4 4,-4 z"
     sodipodi:nodetypes="sccss" />
</svg>
