<?xml version="1.0" encoding="UTF-8" standalone="no"?>
<svg
   viewbox="0 0 200 200"
   version="1.1"
   id="svg4"
   sodipodi:docname="org.gnome.Calls.svg"
   width="64"
   height="64"
   inkscape:version="1.1.2 (0a00cf5339, 2022-02-04, custom)"
   xmlns:inkscape="http://www.inkscape.org/namespaces/inkscape"
   xmlns:sodipodi="http://sodipodi.sourceforge.net/DTD/sodipodi-0.dtd"
   xmlns="http://www.w3.org/2000/svg"
   xmlns:svg="http://www.w3.org/2000/svg">
  <defs
     id="defs8" />
  <sodipodi:namedview
     id="namedview6"
     pagecolor="#ffffff"
     bordercolor="#666666"
     borderopacity="1.0"
     inkscape:pageshadow="2"
     inkscape:pageopacity="0.0"
     inkscape:pagecheckerboard="0"
     showgrid="false"
     inkscape:zoom="12.25"
     inkscape:cx="31.959184"
     inkscape:cy="32"
     inkscape:window-width="1920"
     inkscape:window-height="1011"
     inkscape:window-x="0"
     inkscape:window-y="0"
     inkscape:window-maximized="1"
     inkscape:current-layer="svg4"
     showguides="false" />
  <path
     d="M 2,32 C 2,10.4 10.4,2 32,2 53.6,2 62,10.4 62,32 62,53.6 53.6,62 32,62 10.4,62 2,53.6 2,32"
     id="path2"
     style="stroke-width:0.3;fill:#009751;fill-opacity:1" />
  <path
     id="rect923"
     style="fill:#ffffff;fill-opacity:1;stroke-width:12;stroke-linejoin:round"
     d="M 35.000001,13 C 25.16192,13 22,20.236141 22,26.000001 v 12 C 22,43.450838 24.19427,51 35.000001,51 H 37 c 1.662,0 3,-1.337997 3,-3 v -5.999554 c 0,-1.661998 -1.338,-2.999997 -3,-2.999997 h -5 c -1.662001,0 -3,-1.338003 -3,-3 v -8.000002 c 0,-1.662 1.338,-3 3,-3 h 5 c 1.662,0 3,-1.338 3,-3 V 16 c 0,-1.662 -1.338,-3 -3,-3 z"
     sodipodi:nodetypes="sssssssssssssssss" />
</svg>
