<?xml version="1.0" encoding="UTF-8" standalone="no"?>
<svg
   viewbox="0 0 200 200"
   version="1.1"
   id="svg4"
   sodipodi:docname="palapeli.svg"
   width="64"
   height="64"
   inkscape:version="1.1.1 (3bf5ae0d25, 2021-09-20, custom)"
   xmlns:inkscape="http://www.inkscape.org/namespaces/inkscape"
   xmlns:sodipodi="http://sodipodi.sourceforge.net/DTD/sodipodi-0.dtd"
   xmlns="http://www.w3.org/2000/svg"
   xmlns:svg="http://www.w3.org/2000/svg">
  <defs
     id="defs8" />
  <sodipodi:namedview
     id="namedview6"
     pagecolor="#ffffff"
     bordercolor="#666666"
     borderopacity="1.0"
     inkscape:pageshadow="2"
     inkscape:pageopacity="0.0"
     inkscape:pagecheckerboard="0"
     showgrid="false"
     inkscape:zoom="12.883333"
     inkscape:cx="37.645538"
     inkscape:cy="33.803364"
     inkscape:window-width="1920"
     inkscape:window-height="996"
     inkscape:window-x="0"
     inkscape:window-y="0"
     inkscape:window-maximized="1"
     inkscape:current-layer="svg4"
     showguides="false" />
  <path
     d="M 2,32 C 2,10.4 10.4,2 32,2 53.6,2 62,10.4 62,32 62,53.6 53.6,62 32,62 10.4,62 2,53.6 2,32"
     id="path2"
     style="stroke-width:0.3;fill:#24cb47;fill-opacity:1" />
  <path
     id="rect1447"
     style="fill:#ffffff;fill-opacity:1;stroke-width:2;stroke-linecap:round;stroke-linejoin:round"
     d="m 32,13 v 6.685547 C 31.148418,18.623124 29.861589,18.0034 28.5,18 26.014719,18 24,20.014719 24,22.5 c 0,2.485281 2.014719,4.5 4.5,4.5 1.361589,-0.0034 2.648418,-0.623124 3.5,-1.685547 V 32 h 6.671875 C 37.614571,31.14572 37.000074,29.859296 37,28.5 37,26.014719 39.014719,24 41.5,24 c 2.485281,0 4.5,2.014719 4.5,4.5 -0.0034,1.361589 -0.623124,2.648418 -1.685547,3.5 H 51 V 19 c 0,-0.20775 -0.01084,-0.413042 -0.03125,-0.615234 -0.02041,-0.202193 -0.05001,-0.402012 -0.08984,-0.597657 -0.03983,-0.195644 -0.09018,-0.386112 -0.148437,-0.574218 -0.05826,-0.188107 -0.125469,-0.373157 -0.201172,-0.552735 -0.0757,-0.179578 -0.1598,-0.355331 -0.251953,-0.52539 -0.09215,-0.17006 -0.191215,-0.33459 -0.298828,-0.494141 -0.107614,-0.159551 -0.22362,-0.312887 -0.345704,-0.460937 -0.122083,-0.148052 -0.251156,-0.290219 -0.386718,-0.425782 -0.135563,-0.135562 -0.277729,-0.264636 -0.425782,-0.386718 -0.148051,-0.122086 -0.301386,-0.23809 -0.460937,-0.345704 -0.159551,-0.107613 -0.324081,-0.206674 -0.494141,-0.298828 -0.170059,-0.09215 -0.345812,-0.17625 -0.52539,-0.251953 -0.179578,-0.0757 -0.364628,-0.142909 -0.552735,-0.201172 -0.188106,-0.05826 -0.378574,-0.108605 -0.574218,-0.148437 -0.195645,-0.03983 -0.395464,-0.06943 -0.597657,-0.08984 C 45.413038,13.010835 45.20775,13 45,13 Z"
     sodipodi:nodetypes="cccscccccscccsssssssssssssssssc" />
  <path
     id="rect1140"
     style="fill:#d0f6d9;stroke-width:2;stroke-linecap:round;stroke-linejoin:round;fill-opacity:1"
     d="M 40,41.5 A 4.5,4.5 0 0 1 35.5,46 4.5,4.5 0 0 1 32,44.314453 V 51 H 19 c -3.324,0 -6,-2.676 -6,-6 V 32 h 6.685547 A 4.5,4.5 0 0 0 18,35.5 4.5,4.5 0 0 0 22.5,40 4.5,4.5 0 0 0 27,35.5 4.5,4.5 0 0 0 25.328125,32 H 32 v 6.685547 A 4.5,4.5 0 0 1 35.5,37 4.5,4.5 0 0 1 40,41.5 Z" />
</svg>
