<?xml version="1.0" encoding="UTF-8" standalone="no"?>
<svg
   viewbox="0 0 200 200"
   version="1.1"
   id="svg4"
   sodipodi:docname="pdfarranger.svg"
   width="64"
   height="64"
   inkscape:version="1.1.1 (3bf5ae0d25, 2021-09-20, custom)"
   xmlns:inkscape="http://www.inkscape.org/namespaces/inkscape"
   xmlns:sodipodi="http://sodipodi.sourceforge.net/DTD/sodipodi-0.dtd"
   xmlns="http://www.w3.org/2000/svg"
   xmlns:svg="http://www.w3.org/2000/svg">
  <defs
     id="defs8" />
  <sodipodi:namedview
     id="namedview6"
     pagecolor="#ffffff"
     bordercolor="#666666"
     borderopacity="1.0"
     inkscape:pageshadow="2"
     inkscape:pageopacity="0.0"
     inkscape:pagecheckerboard="0"
     showgrid="false"
     inkscape:zoom="8"
     inkscape:cx="17.625"
     inkscape:cy="26.9375"
     inkscape:window-width="1920"
     inkscape:window-height="996"
     inkscape:window-x="0"
     inkscape:window-y="0"
     inkscape:window-maximized="1"
     inkscape:current-layer="svg4"
     showguides="true" />
  <path
     d="M 2,32 C 2,10.4 10.4,2 32,2 53.6,2 62,10.4 62,32 62,53.6 53.6,62 32,62 10.4,62 2,53.6 2,32"
     id="path2"
     style="stroke-width:0.3;fill:#4771b9;fill-opacity:1;stroke:none" />
  <path
     id="rect902-3"
     style="fill:#8cbdcb;fill-opacity:1;stroke-width:4;stroke-linecap:round;stroke-linejoin:round"
     d="m 20,13 c -3.324,0 -6,2.676 -6,6 v 30 c 0,3.324 2.676,6 6,6 h 20 c 3.324,0 6,-2.676 6,-6 V 26 L 35.296875,21.759766 33,13 Z"
     sodipodi:nodetypes="sssssscccs" />
  <path
     id="rect902"
     style="fill:#ffffff;stroke-width:4;stroke-linecap:round;stroke-linejoin:round"
     d="m 24,9 c -3.324,0 -6,2.676 -6,6 v 30 c 0,3.324 2.676,6 6,6 h 20 c 3.324,0 6,-2.676 6,-6 V 22 L 39.296875,17.759766 37,9 Z"
     sodipodi:nodetypes="sssssscccs" />
  <path
     id="rect1654"
     style="fill:#c4d1e9;fill-opacity:1;stroke-width:4;stroke-linecap:round;stroke-linejoin:round"
     d="m 43,22 h 7 L 37,9 v 7 c 0,3.324 2.536196,6 6,6 z"
     sodipodi:nodetypes="sccss" />
  <path
     id="path2697"
     class="st1"
     d="m 32.761706,22.282978 c -0.499375,0.0332 -0.958049,0.318604 -1.189178,0.870744 -0.381546,0.93919 -0.176098,3.521788 0.440244,5.253419 l 0.499002,1.408726 -0.719124,1.893111 c -0.39622,1.041913 -1.100727,2.74425 -1.584997,3.800839 l -0.865872,1.907728 -2.245077,1.11523 c -3.55131,1.775654 -4.872102,3.434083 -3.65409,4.652094 0.616342,0.601668 1.83441,0.557529 2.993722,-0.117513 1.041914,-0.601668 2.494722,-2.274714 3.742083,-4.299841 0.33752,-0.542969 0.850969,-1.291214 0.850969,-1.291214 1.467482,-0.498944 1.966598,-0.6751 2.964488,-0.939246 0.968537,-0.264147 2.934966,-0.660367 2.934966,-0.660367 0,0 0.484212,0.484155 1.188604,0.983098 C 41.25786,39.061012 45,38.899646 45,36.991917 c 0,-1.511508 -1.62885,-2.567923 -6.39817,-1.95158 l -1.497005,0.1906 -1.203222,-1.496718 c -0.631018,-0.807115 -1.364759,-1.805176 -1.614231,-2.230746 l -0.454863,-0.762977 0.51362,-1.981102 c 0.616342,-2.406673 0.675042,-4.328961 0.146747,-5.38555 -0.379711,-0.759422 -1.089119,-1.133559 -1.73117,-1.090866 z m 0.13299,0.643743 c 0.192837,0.02156 0.394787,0.135112 0.58556,0.344228 0.278821,0.42557 0.234854,1.291557 0.132131,2.157372 -0.132074,0.865815 -0.381718,2.010224 -0.543141,2.553192 l -0.278879,0.968768 -0.410724,-1.2915 c -0.220122,-0.704392 -0.381545,-1.848914 -0.440244,-2.523957 -0.121068,-1.507838 0.376787,-2.272764 0.955297,-2.208103 z m 0.629412,8.430004 c 0,0 0.278937,0.528465 0.851255,1.276882 0.440246,0.660368 1.130019,1.540914 1.52624,1.966484 l 0.64575,0.792213 c 0,0 -1.790501,0.352196 -2.670992,0.586993 -0.836465,0.205448 -2.480103,0.748646 -2.480103,0.748646 l 0.308401,-0.601899 1.056473,-2.626565 c 0.352196,-0.807115 0.762976,-2.142754 0.762976,-2.142754 z m 6.706571,4.065099 c 1.526183,-0.01467 1.99572,0.04386 2.582713,0.337351 0.763092,0.381545 0.851256,1.320906 0.190887,1.790501 -0.381545,0.264147 -0.880546,0.293439 -1.746362,0.01462 -0.865814,-0.264148 -2.054591,-0.777652 -2.53886,-1.056475 -0.366871,-0.205446 -1.188604,-0.777878 -1.188604,-0.777878 0.264146,-0.0587 1.761037,-0.249415 2.700226,-0.308114 z m -11.490509,2.890828 -0.381488,0.616515 c -0.953864,1.511508 -2.333298,3.140243 -3.00834,3.565813 -0.880491,0.542969 -1.320735,0.58705 -1.687606,0.132131 -0.645693,-0.777766 0.601611,-2.069209 3.316455,-3.433968 z"
     style="fill:#8ccba5;fill-opacity:1;stroke-width:0.146749" />
</svg>
