<?xml version="1.0" encoding="UTF-8" standalone="no"?>
<svg
   viewbox="0 0 200 200"
   version="1.1"
   id="svg4"
   sodipodi:docname="plank.svg"
   width="64"
   height="64"
   inkscape:version="1.1.1 (3bf5ae0d25, 2021-09-20, custom)"
   xmlns:inkscape="http://www.inkscape.org/namespaces/inkscape"
   xmlns:sodipodi="http://sodipodi.sourceforge.net/DTD/sodipodi-0.dtd"
   xmlns="http://www.w3.org/2000/svg"
   xmlns:svg="http://www.w3.org/2000/svg">
  <defs
     id="defs8" />
  <sodipodi:namedview
     id="namedview6"
     pagecolor="#ffffff"
     bordercolor="#666666"
     borderopacity="1.0"
     inkscape:pageshadow="2"
     inkscape:pageopacity="0.0"
     inkscape:pagecheckerboard="0"
     showgrid="false"
     inkscape:zoom="8"
     inkscape:cx="12.5"
     inkscape:cy="30.5625"
     inkscape:window-width="1920"
     inkscape:window-height="996"
     inkscape:window-x="0"
     inkscape:window-y="0"
     inkscape:window-maximized="1"
     inkscape:current-layer="svg4" />
  <path
     d="M 2,32 C 2,10.4 10.4,2 32,2 53.6,2 62,10.4 62,32 62,53.6 53.6,62 32,62 10.4,62 2,53.6 2,32"
     id="path2"
     style="stroke-width:0.3;fill:#2f7cdd;fill-opacity:1" />
  <path
     id="rect924"
     style="fill:#ffffff;stroke-width:2;stroke-linecap:round;stroke-linejoin:round"
     d="m 15.5,35 c -2.88,0 -4,1.12 -4,4 0,2.88 1.12,4 4,4 2.88,0 4,-1.12 4,-4 0,-2.88 -1.12,-4 -4,-4 z m 11,0 c -2.88,0 -4,1.12 -4,4 0,2.88 1.12,4 4,4 2.88,0 4,-1.12 4,-4 0,-2.88 -1.12,-4 -4,-4 z m 11,0 c -2.88,0 -4,1.12 -4,4 0,2.88 1.12,4 4,4 2.88,0 4,-1.12 4,-4 0,-2.88 -1.12,-4 -4,-4 z m 11,0 c -2.88,0 -4,1.12 -4,4 0,2.88 1.12,4 4,4 2.88,0 4,-1.12 4,-4 0,-2.88 -1.12,-4 -4,-4 z"
     sodipodi:nodetypes="ssssssssssssssssssss" />
  <path
     d="m 13,46 c -1.108,0 -2,0.892 -2,2 0,1.108 0.892,2 2,2 h 38 c 1.108,0 2,-0.892 2,-2 0,-1.108 -0.892,-2 -2,-2 z"
     style="fill:#154583;stroke-width:2;stroke-linecap:round;stroke-linejoin:round;fill-opacity:1"
     id="path1475" />
</svg>
