<?xml version="1.0" encoding="UTF-8" standalone="no"?>
<!-- Created with Inkscape (http://www.inkscape.org/) -->

<svg
   width="64"
   height="64"
   viewBox="0 0 16.933333 16.933333"
   version="1.1"
   id="svg5"
   inkscape:version="1.1.1 (3bf5ae0d25, 2021-09-20, custom)"
   sodipodi:docname="skype.svg"
   xmlns:inkscape="http://www.inkscape.org/namespaces/inkscape"
   xmlns:sodipodi="http://sodipodi.sourceforge.net/DTD/sodipodi-0.dtd"
   xmlns="http://www.w3.org/2000/svg"
   xmlns:svg="http://www.w3.org/2000/svg">
  <sodipodi:namedview
     id="namedview7"
     pagecolor="#ffffff"
     bordercolor="#666666"
     borderopacity="1.0"
     inkscape:pageshadow="2"
     inkscape:pageopacity="0.0"
     inkscape:pagecheckerboard="0"
     inkscape:document-units="px"
     showgrid="false"
     units="px"
     height="48px"
     inkscape:zoom="3.9999998"
     inkscape:cx="47.375002"
     inkscape:cy="12.125001"
     inkscape:window-width="1512"
     inkscape:window-height="937"
     inkscape:window-x="45"
     inkscape:window-y="29"
     inkscape:window-maximized="0"
     inkscape:current-layer="svg5"
     inkscape:lockguides="true" />
  <defs
     id="defs2">
    <linearGradient
       gradientUnits="userSpaceOnUse"
       y2="18.354"
       x2="11.125"
       y1="1.1059999"
       x1="8.3929996"
       id="a"
       gradientTransform="matrix(0.37384357,0,0,0.37384357,2.536573,2.536573)">
      <stop
         id="stop2"
         stop-color="#00b7f0"
         offset=".012" />
      <stop
         id="stop4"
         stop-color="#009de5"
         offset=".339" />
      <stop
         id="stop6"
         stop-color="#0082d9"
         offset=".755" />
      <stop
         id="stop8"
         stop-color="#0078d4"
         offset="1" />
    </linearGradient>
    <linearGradient
       gradientUnits="userSpaceOnUse"
       y2="17.889"
       x2="29.546"
       y1="26.645"
       x1="14.379"
       id="b"
       gradientTransform="matrix(0.37384357,0,0,0.37384357,2.536573,2.536573)">
      <stop
         id="stop11"
         stop-color="#0078d4"
         offset="0" />
      <stop
         id="stop13"
         stop-color="#007ad5"
         offset=".37" />
      <stop
         id="stop15"
         stop-color="#0082d9"
         offset=".573" />
      <stop
         id="stop17"
         stop-color="#0090df"
         offset=".735" />
      <stop
         id="stop19"
         stop-color="#00a3e7"
         offset=".875" />
      <stop
         id="stop21"
         stop-color="#00bcf2"
         offset="1" />
    </linearGradient>
    <linearGradient
       gradientUnits="userSpaceOnUse"
       y2="30.662001"
       x2="24.291"
       y1="6.6890001"
       x1="10.45"
       id="c"
       gradientTransform="matrix(0.37384357,0,0,0.37384357,2.536573,2.536573)">
      <stop
         id="stop24"
         stop-color="#00b7f0"
         offset="0" />
      <stop
         id="stop26"
         stop-color="#007cc1"
         offset="1" />
    </linearGradient>
  </defs>
  <path
     id="path1039"
     style="fill:#ffffff;fill-opacity:1;stroke-width:0.529167;stroke-linecap:round;stroke-linejoin:round"
     d="m 8.4666668,0.52916666 c -5.7150003,0 -7.93750014,2.22249984 -7.93750014,7.93750074 0,5.7149996 2.22249984,7.9374996 7.93750014,7.9374996 5.7150002,0 7.9375002,-2.2225 7.9375002,-7.9374996 0,-5.7150009 -2.2225,-7.93750074 -7.9375002,-7.93750074 z" />
  <path
     id="path31"
     style="fill:url(#a);stroke-width:0.373843"
     d="M 9.4594084,6.1740709 A 3.2744958,3.2636542 0 0 1 6.1849125,9.4377251 3.2744958,3.2636542 0 0 1 2.9104166,6.1740709 3.2744958,3.2636542 0 0 1 6.1849125,2.9104166 3.2744958,3.2636542 0 0 1 9.4594084,6.1740709" />
  <path
     id="path33"
     style="fill:url(#b);stroke-width:0.373843"
     d="M 14.022917,10.860947 A 3.2756175,3.2647759 0 0 1 10.747299,14.125723 3.2756175,3.2647759 0 0 1 7.4716817,10.860947 3.2756175,3.2647759 0 0 1 10.747299,7.5961721 3.2756175,3.2647759 0 0 1 14.022917,10.860947" />
  <path
     id="path35"
     opacity="0.05"
     fill-rule="evenodd"
     d="M 2.9223797,6.4533322 A 3.2741221,3.2741221 0 1 0 6.592402,2.9354642 5.9497206,5.9497206 0 0 0 2.9223797,6.4533322 Z"
     style="stroke-width:0.373843" />
  <path
     id="path37"
     opacity="0.05"
     fill-rule="evenodd"
     d="m 14.014319,10.626547 a 3.2752436,3.2752436 0 1 0 -3.56385,3.485719 5.9497206,5.9497206 0 0 0 3.56385,-3.486092 z"
     style="stroke-width:0.373843" />
  <path
     id="path39"
     opacity="0.1"
     fill-rule="evenodd"
     d="M 3.0756555,7.199524 A 3.2730005,3.2730005 0 1 0 7.3367246,3.1182737 5.5676524,5.5676524 0 0 0 3.0756555,7.199524 Z"
     style="stroke-width:0.373843" />
  <path
     id="path41"
     opacity="0.1"
     fill-rule="evenodd"
     d="M 13.865529,9.8594214 A 3.2741221,3.2741221 0 1 0 9.6814715,13.948896 5.5676524,5.5676524 0 0 0 13.865529,9.8594214 Z"
     style="stroke-width:0.373843" />
  <path
     id="path43"
     opacity="0.1"
     fill-rule="evenodd"
     d="M 3.1960331,7.5090664 A 3.2722529,3.2722529 0 1 0 7.6425287,3.2509881 5.3784875,5.3784875 0 0 0 3.1960331,7.5090664 Z"
     style="stroke-width:0.373843" />
  <path
     id="path45"
     opacity="0.1"
     fill-rule="evenodd"
     d="M 13.744778,9.5435232 A 3.2733744,3.2733744 0 1 0 9.3659475,13.821789 5.3781137,5.3781137 0 0 0 13.744778,9.5435232 Z"
     style="stroke-width:0.373843" />
  <path
     id="path47"
     style="fill:url(#c);stroke-width:0.373843"
     d="M 13.65356,8.5423705 A 5.186332,5.1691352 0 0 1 8.4672276,13.711505 5.186332,5.1691352 0 0 1 3.2808957,8.5423705 5.186332,5.1691352 0 0 1 8.4672276,3.3732353 5.186332,5.1691352 0 0 1 13.65356,8.5423705" />
  <path
     id="path49"
     fill-rule="evenodd"
     fill="#ffffff"
     d="M 7.0088637,8.3629252 A 1.6292103,1.6292103 0 0 1 6.4978196,7.8238427 1.4901405,1.4901405 0 0 1 6.3228608,7.0787726 1.3391076,1.3391076 0 0 1 6.6383848,6.1770618 1.8991254,1.8991254 0 0 1 7.4608407,5.6275117 3.1758012,3.1758012 0 0 1 8.5375101,5.4461976 4.1810665,4.1810665 0 0 1 9.2537944,5.5011526 2.5862498,2.5862498 0 0 1 9.7506326,5.6293809 0.96302106,0.96302106 0 0 1 10.13943,5.8776131 0.50244577,0.50244577 0 0 1 10.259434,6.2114554 0.48375359,0.48375359 0 0 1 10.133075,6.5595038 0.42020018,0.42020018 0 0 1 9.8156816,6.6918444 0.57160683,0.57160683 0 0 1 9.5797861,6.6387586 4.2745275,4.2745275 0 0 0 9.0178991,6.4331447 2.0393168,2.0393168 0 0 0 8.4765737,6.3658528 1.235553,1.235553 0 0 0 7.7984214,6.5393162 0.56412996,0.56412996 0 0 0 7.5277587,7.0458743 0.50954879,0.50954879 0 0 0 7.6683238,7.4021472 1.2807881,1.2807881 0 0 0 8.0470274,7.6731838 q 0.2381383,0.1181345 0.7103028,0.3132809 a 0.73647185,0.73647185 0 0 1 0.1016852,0.040749 5.0457667,5.0457667 0 0 1 0.8792802,0.4519769 1.7727663,1.7727663 0 0 1 0.5413264,0.5555315 1.4654668,1.4654668 0 0 1 0.195519,0.7716133 1.5518247,1.5518247 0 0 1 -0.270662,0.9301226 1.6090228,1.6090228 0 0 1 -0.7570339,0.561887 3.1915026,3.1915026 0 0 1 -1.1379799,0.185426 3.58516,3.58516 0 0 1 -1.551077,-0.293466 0.84413879,0.84413879 0 0 1 -0.3192624,-0.248232 0.55814847,0.55814847 0 0 1 -0.103928,-0.337955 0.44150926,0.44150926 0 0 1 0.1364528,-0.343936 0.50281961,0.50281961 0 0 1 0.3517868,-0.124116 0.89984149,0.89984149 0 0 1 0.411228,0.105797 q 0.2362691,0.118134 0.372722,0.177201 a 1.8722087,1.8722087 0 0 0 0.3215055,0.101682 1.8393104,1.8393104 0 0 0 0.4130972,0.04262 1.1028385,1.1028385 0 0 0 0.6942274,-0.18505 A 0.61123424,0.61123424 0 0 0 9.2702435,9.8713844 0.53833476,0.53833476 0 0 0 9.1236969,9.5012789 1.5578062,1.5578062 0 0 0 8.6922814,9.1872503 Q 8.4070387,9.0369651 7.890013,8.8208836 A 4.968755,4.968755 0 0 1 7.0088637,8.3629252"
     style="stroke-width:0.373843" />
</svg>
