<?xml version="1.0" encoding="UTF-8" standalone="no"?>
<svg
   viewbox="0 0 200 200"
   version="1.1"
   id="svg4"
   sodipodi:docname="utilities-log-viewer.svg"
   width="64"
   height="64"
   inkscape:version="1.1.1 (3bf5ae0d25, 2021-09-20, custom)"
   xmlns:inkscape="http://www.inkscape.org/namespaces/inkscape"
   xmlns:sodipodi="http://sodipodi.sourceforge.net/DTD/sodipodi-0.dtd"
   xmlns="http://www.w3.org/2000/svg"
   xmlns:svg="http://www.w3.org/2000/svg">
  <defs
     id="defs8" />
  <sodipodi:namedview
     id="namedview6"
     pagecolor="#ffffff"
     bordercolor="#666666"
     borderopacity="1.0"
     inkscape:pageshadow="2"
     inkscape:pageopacity="0.0"
     inkscape:pagecheckerboard="0"
     showgrid="false"
     inkscape:zoom="13.0625"
     inkscape:cx="32"
     inkscape:cy="32.038278"
     inkscape:window-width="1920"
     inkscape:window-height="996"
     inkscape:window-x="0"
     inkscape:window-y="0"
     inkscape:window-maximized="1"
     inkscape:current-layer="svg4"
     showguides="true" />
  <path
     d="M 2,32 C 2,10.4 10.4,2 32,2 53.6,2 62,10.4 62,32 62,53.6 53.6,62 32,62 10.4,62 2,53.6 2,32"
     id="path2"
     style="stroke-width:0.3;fill:#33a2b8;fill-opacity:1;stroke:none" />
  <path
     id="path924"
     style="fill:#f9f9f9;stroke-width:4.00001;stroke-linecap:round;stroke-linejoin:round"
     d="m 16.100505,16.100505 c -5.46734,5.46734 -5.46734,14.33165 0,19.79899 4.921113,4.920453 12.709296,5.479357 18.282577,1.312014 l 14.001694,14.001694 c 0.783474,0.783474 2.044953,0.783474 2.828427,0 0.783474,-0.783474 0.783474,-2.044953 0,-2.828427 L 37.211509,34.383082 c 4.167343,-5.573281 3.608439,-13.361464 -1.312014,-18.282577 -5.46734,-5.46734 -14.33165,-5.46734 -19.79899,0 z"
     sodipodi:nodetypes="sccsssccs" />
  <path
     id="rect12064"
     style="fill:#257787;fill-opacity:1;stroke-width:2.99473;stroke-linecap:round;stroke-linejoin:round"
     d="M 18.5 19 C 17.669 19 17 19.669 17 20.5 C 17 21.331 17.669 22 18.5 22 L 33.5 22 C 34.331 22 35 21.331 35 20.5 C 35 19.669 34.331 19 33.5 19 L 18.5 19 z M 18.5 25 C 17.669 25 17 25.669 17 26.5 C 17 27.331 17.669 28 18.5 28 L 33.5 28 C 34.331 28 35 27.331 35 26.5 C 35 25.669 34.331 25 33.5 25 L 18.5 25 z M 18.5 31 C 17.669 31 17 31.669 17 32.5 C 17 33.331 17.669 34 18.5 34 L 24.5 34 C 25.331 34 26 33.331 26 32.5 C 26 31.669 25.331 31 24.5 31 L 18.5 31 z " />
</svg>
