<?xml version="1.0" encoding="UTF-8" standalone="no"?>
<svg
   viewbox="0 0 200 200"
   version="1.1"
   id="svg4"
   sodipodi:docname="wine-winefile.svg"
   width="64"
   height="64"
   inkscape:version="1.1.1 (3bf5ae0d25, 2021-09-20, custom)"
   xmlns:inkscape="http://www.inkscape.org/namespaces/inkscape"
   xmlns:sodipodi="http://sodipodi.sourceforge.net/DTD/sodipodi-0.dtd"
   xmlns="http://www.w3.org/2000/svg"
   xmlns:svg="http://www.w3.org/2000/svg">
  <defs
     id="defs8" />
  <sodipodi:namedview
     id="namedview6"
     pagecolor="#ffffff"
     bordercolor="#666666"
     borderopacity="1.0"
     inkscape:pageshadow="2"
     inkscape:pageopacity="0.0"
     inkscape:pagecheckerboard="0"
     showgrid="false"
     inkscape:zoom="4.5549461"
     inkscape:cx="7.4644133"
     inkscape:cy="61.142327"
     inkscape:window-width="1920"
     inkscape:window-height="996"
     inkscape:window-x="0"
     inkscape:window-y="0"
     inkscape:window-maximized="1"
     inkscape:current-layer="svg4"
     showguides="true" />
  <path
     d="M 2,32 C 2,10.4 10.4,2 32,2 53.6,2 62,10.4 62,32 62,53.6 53.6,62 32,62 10.4,62 2,53.6 2,32"
     id="path2"
     style="stroke-width:0.3;fill:#e7a12e;fill-opacity:1" />
  <path
     id="rect1144"
     style="fill:#b83216;stroke-width:4;stroke-linecap:round;stroke-linejoin:round"
     d="m 16,16 c -1.662,0 -3,1.338 -3,3 v 11 h 20 v -8 c -1.104569,0 -2,-0.895431 -2,-2 v -1 c 0,-1.662 -1.338,-3 -3,-3 z"
     sodipodi:nodetypes="sscccssss" />
  <path
     id="rect1033"
     style="fill:#ffffff;stroke-width:2;stroke-linecap:round;stroke-linejoin:round"
     d="M 31 20 A 2 2 0 0 0 31.134766 20.679688 A 2 2 0 0 1 31 20 z M 31.201172 20.837891 A 2 2 0 0 0 31.585938 21.414062 A 2 2 0 0 1 31.201172 20.837891 z M 31.585938 21.414062 A 2 2 0 0 0 32.162109 21.798828 A 2 2 0 0 1 31.585938 21.414062 z M 32.320312 21.865234 A 2 2 0 0 0 33 22 A 2 2 0 0 1 32.320312 21.865234 z M 33 22 L 17 22 C 14.784 22 13 23.784 13 26 L 13 44 C 13 46.216 14.784 48 17 48 L 47 48 C 49.216 48 51 46.216 51 44 L 51 26 C 51 23.784 49.216 22 47 22 L 33 22 z " />
  <path
     id="rect845"
     style="fill:#cd8918;fill-opacity:1;stroke-width:3.18517;stroke-linecap:round;stroke-linejoin:round"
     d="m 24,27 v 7 h 7 v -7 z m 9,0 v 7 h 7 v -7 z m -9,9 v 7 h 7 v -7 z m 9,0 v 7 h 7 v -7 z" />
</svg>
