<?xml version="1.0" encoding="UTF-8" standalone="no"?>
<svg
   viewbox="0 0 200 200"
   version="1.1"
   id="svg4"
   sodipodi:docname="xchat.svg"
   width="64"
   height="64"
   inkscape:version="1.1.1 (3bf5ae0d25, 2021-09-20, custom)"
   xmlns:inkscape="http://www.inkscape.org/namespaces/inkscape"
   xmlns:sodipodi="http://sodipodi.sourceforge.net/DTD/sodipodi-0.dtd"
   xmlns="http://www.w3.org/2000/svg"
   xmlns:svg="http://www.w3.org/2000/svg">
  <defs
     id="defs8" />
  <sodipodi:namedview
     id="namedview6"
     pagecolor="#ffffff"
     bordercolor="#666666"
     borderopacity="1.0"
     inkscape:pageshadow="2"
     inkscape:pageopacity="0.0"
     inkscape:pagecheckerboard="0"
     showgrid="false"
     inkscape:zoom="12.078125"
     inkscape:cx="31.958603"
     inkscape:cy="32"
     inkscape:window-width="1920"
     inkscape:window-height="996"
     inkscape:window-x="0"
     inkscape:window-y="0"
     inkscape:window-maximized="1"
     inkscape:current-layer="svg4"
     showguides="false" />
  <path
     d="M 2,32 C 2,10.4 10.4,2 32,2 53.6,2 62,10.4 62,32 62,53.6 53.6,62 32,62 10.4,62 2,53.6 2,32"
     id="path2"
     style="stroke-width:0.3;fill:#b2b5bc;fill-opacity:1" />
  <path
     id="rect6858"
     style="fill:#ffffff;fill-opacity:1;stroke-width:1.06654"
     d="m 19,17 c -3.324,0 -6,2.676 -6,6 v 14 c 0,3.324 2.676,6 6,6 h 4 v 8 l 8,-8 h 14 c 3.324,0 6,-2.676 6,-6 V 23 c 0,-3.324 -2.676,-6 -6,-6 z"
     sodipodi:nodetypes="sssscccsssss" />
  <path
     id="rect925"
     style="fill:#e5740c;stroke-width:4;stroke-linecap:round;stroke-linejoin:round;fill-opacity:1"
     d="m 24.221825,22.221825 c -0.587605,0.587606 -0.587605,1.533715 0,2.121321 L 29.87868,30 24.221825,35.656854 c -0.587605,0.587606 -0.587605,1.533715 0,2.121321 0.587606,0.587605 1.533715,0.587605 2.121321,0 L 32,32.12132 l 5.656854,5.656855 c 0.587606,0.587605 1.533715,0.587605 2.121321,0 0.587605,-0.587606 0.587605,-1.533715 0,-2.121321 L 34.12132,30 39.778175,24.343146 c 0.587605,-0.587606 0.587605,-1.533715 0,-2.121321 -0.587606,-0.587605 -1.533715,-0.587605 -2.121321,0 L 32,27.87868 26.343146,22.221825 c -0.587606,-0.587605 -1.533715,-0.587605 -2.121321,0 z" />
</svg>
