<?xml version="1.0" encoding="UTF-8" standalone="no"?>
<!-- Created with Inkscape (http://www.inkscape.org/) -->

<svg
   width="24"
   height="24"
   viewBox="0 0 6.3499999 6.3500002"
   version="1.1"
   id="svg5"
   inkscape:version="1.1.1 (3bf5ae0d25, 2021-09-20, custom)"
   sodipodi:docname="audio-volume-high-panel.svg"
   xmlns:inkscape="http://www.inkscape.org/namespaces/inkscape"
   xmlns:sodipodi="http://sodipodi.sourceforge.net/DTD/sodipodi-0.dtd"
   xmlns="http://www.w3.org/2000/svg"
   xmlns:svg="http://www.w3.org/2000/svg">
  <sodipodi:namedview
     id="namedview7"
     pagecolor="#ffffff"
     bordercolor="#666666"
     borderopacity="1.0"
     inkscape:pageshadow="2"
     inkscape:pageopacity="0.0"
     inkscape:pagecheckerboard="0"
     inkscape:document-units="px"
     showgrid="false"
     units="px"
     width="22px"
     inkscape:zoom="24.46875"
     inkscape:cx="6.3959132"
     inkscape:cy="11.913155"
     inkscape:window-width="1920"
     inkscape:window-height="999"
     inkscape:window-x="0"
     inkscape:window-y="0"
     inkscape:window-maximized="1"
     inkscape:current-layer="svg5" />
  <defs
     id="defs2" />
  <path
     id="rect846"
     style="fill:#dedede;fill-opacity:1;stroke:none;stroke-width:0.264583;stroke-linejoin:round"
     d="m 2.9093831,1.0583913 c -0.070257,2.871e-4 -0.1376674,0.028581 -0.1870687,0.078548 L 1.7425292,2.1167246 H 0.79375 c -0.14657916,0 -0.26458333,0.1180043 -0.26458333,0.2645834 v 1.5874999 c 0,0.1465792 0.11800417,0.2645834 0.26458333,0.2645834 H 1.7451131 L 2.7223144,5.212143 C 2.8887447,5.3812895 3.1763107,5.2629086 3.1749999,5.0255911 V 1.3224579 C 3.1746115,1.215463 3.1096632,1.1190923 3.0106688,1.0785451 2.9784246,1.0651818 2.9442856,1.0583238 2.9093831,1.0583913 Z m 1.8117757,0 C 4.5945363,1.0549245 4.5046619,1.2076235 4.6167724,1.3327932 A 2.5231035,2.5231035 0 0 1 5.4193074,3.175058 2.5231035,2.5231035 0 0 1 4.6136718,5.0204232 c -0.1406631,0.148548 0.056676,0.3624231 0.2134237,0.2299602 A 2.8384918,2.8384918 0 0 0 5.7345336,3.175058 2.8384918,2.8384918 0 0 0 4.8322631,1.1023163 c -0.0376,-0.029528 -0.07565,-0.042954 -0.1111043,-0.043925 z M 3.8462767,1.5053924 C 3.7215016,1.5091179 3.6433262,1.6738206 3.7651448,1.7937469 A 1.8923278,1.8923278 0 0 1 4.3671751,3.175058 1.8923278,1.8923278 0 0 1 3.7630777,4.5589529 c -0.1479167,0.140663 0.054556,0.361792 0.2144572,0.2299599 A 2.2077156,2.2077156 0 0 0 4.6824015,3.175058 2.2077156,2.2077156 0 0 0 3.9811523,1.5627533 C 3.934869,1.5205701 3.8878686,1.5041506 3.8462767,1.5053924 Z" />
</svg>
