<?xml version="1.0" encoding="UTF-8" standalone="no"?>
<!-- Created with Inkscape (http://www.inkscape.org/) -->

<svg
   width="24"
   height="24"
   viewBox="0 0 6.3499999 6.3500002"
   version="1.1"
   id="svg5"
   inkscape:version="1.1.1 (3bf5ae0d25, 2021-09-20, custom)"
   sodipodi:docname="bluetooth-paired.svg"
   xmlns:inkscape="http://www.inkscape.org/namespaces/inkscape"
   xmlns:sodipodi="http://sodipodi.sourceforge.net/DTD/sodipodi-0.dtd"
   xmlns="http://www.w3.org/2000/svg"
   xmlns:svg="http://www.w3.org/2000/svg">
  <sodipodi:namedview
     id="namedview7"
     pagecolor="#ffffff"
     bordercolor="#666666"
     borderopacity="1.0"
     inkscape:pageshadow="2"
     inkscape:pageopacity="0.0"
     inkscape:pagecheckerboard="0"
     inkscape:document-units="px"
     showgrid="false"
     units="px"
     height="22px"
     showguides="false"
     inkscape:zoom="10.875156"
     inkscape:cx="-3.4482265"
     inkscape:cy="21.56291"
     inkscape:window-width="1920"
     inkscape:window-height="999"
     inkscape:window-x="0"
     inkscape:window-y="0"
     inkscape:window-maximized="0"
     inkscape:current-layer="svg5" />
  <defs
     id="defs2" />
  <path
     id="path1958"
     style="fill:#dedede;stroke-width:1.00199;stroke-linejoin:round;-inkscape-stroke:none"
     d="m 3.01222,0.79375 c -0.021718,0 -0.043073,0.005388 -0.062528,0.0165365 C 2.911018,0.8324023 2.886926,0.8729918 2.886647,0.91725672 V 2.9538247 L 1.7228929,2.1802287 1.5931851,2.4122558 2.7491868,3.1796508 1.5875007,4.0173259 1.727027,4.2431517 2.8866461,3.4059937 v 2.0241659 c -10e-4,0.096575 0.1043254,0.1574384 0.1886191,0.1090372 l 1.622123,-1.1280966 c 0.086651,-0.047386 0.086651,-0.1706885 0,-0.2180746 L 3.2680181,3.1739665 4.6973882,2.1549072 c 0.08432,-0.047867 0.08432,-0.1686577 0,-0.2165242 L 3.0752652,0.81028646 C 3.055809,0.79913787 3.033938,0.79374995 3.01222,0.79375 Z M 3.1383103,1.1947591 4.3811286,2.0474202 3.1383103,2.9145508 Z M 1.1875251,2.6458333 c -0.020546,3.551e-4 -0.040692,0.00549 -0.058911,0.014986 -0.043411,0.023022 -0.070443,0.068196 -0.07028,0.1173055 v 0.7942667 c 2.935e-4,0.1060416 0.1189517,0.1681536 0.2067057,0.1085204 l 0.5291666,-0.396358 c 0.077041,-0.052516 0.077041,-0.1660753 0,-0.2185911 L 1.2650397,2.6690877 c -0.022789,-0.015651 -0.049865,-0.023789 -0.077515,-0.023254 z m 3.7000324,0 c -0.024026,0.00141 -0.047239,0.00956 -0.067179,0.023254 L 4.2912116,3.0659628 c -0.077041,0.052516 -0.077041,0.1660747 0,0.2185911 l 0.5291666,0.3963582 c 0.087754,0.059633 0.2064123,-0.00248 0.2067057,-0.1085204 V 2.778125 C 5.0272475,2.729016 5.000215,2.6838412 4.956804,2.6608195 4.938585,2.6513195 4.918439,2.6461885 4.897893,2.6458335 c -0.00346,-6.69e-5 -0.0069,-2.018e-4 -0.010336,-2e-7 z M 3.1383103,3.4437174 4.3790614,4.302063 3.1383103,5.1635091 Z" />
</svg>
