<?xml version="1.0" encoding="UTF-8" standalone="no"?>
<!-- Created with Inkscape (http://www.inkscape.org/) -->

<svg
   width="24"
   height="24"
   viewBox="0 0 6.3499997 6.3500003"
   version="1.1"
   id="svg11945"
   inkscape:version="1.1.1 (3bf5ae0d25, 2021-09-20, custom)"
   sodipodi:docname="mintupdate-installing.svg"
   xmlns:inkscape="http://www.inkscape.org/namespaces/inkscape"
   xmlns:sodipodi="http://sodipodi.sourceforge.net/DTD/sodipodi-0.dtd"
   xmlns="http://www.w3.org/2000/svg"
   xmlns:svg="http://www.w3.org/2000/svg">
  <sodipodi:namedview
     id="namedview11947"
     pagecolor="#ffffff"
     bordercolor="#666666"
     borderopacity="1.0"
     inkscape:pageshadow="2"
     inkscape:pageopacity="0.0"
     inkscape:pagecheckerboard="0"
     inkscape:document-units="px"
     showgrid="false"
     units="in"
     inkscape:zoom="16"
     inkscape:cx="-3.59375"
     inkscape:cy="11.96875"
     inkscape:window-width="1920"
     inkscape:window-height="999"
     inkscape:window-x="0"
     inkscape:window-y="0"
     inkscape:window-maximized="1"
     inkscape:current-layer="svg11945"
     showguides="true" />
  <defs
     id="defs11942" />
  <path
     id="rect923"
     style="fill:#dedede;stroke-width:1.05833;stroke-linecap:round;stroke-linejoin:round"
     d="M 1.3229166,1.5875 C 1.0297583,1.5875 0.79375,1.8235083 0.79375,2.1166666 v 2.116619 c 0,0.2931584 0.2360083,0.5291667 0.5291666,0.5291667 h 3.7041666 c 0.2931584,0 0.5291667,-0.2360083 0.5291667,-0.5291667 V 2.1166666 C 5.5562499,1.8235083 5.3202416,1.5875 5.0270832,1.5875 Z M 3.168282,1.8520833 c 0.00226,-1.139e-4 0.00443,0 0.00672,0 0.07329,0 0.1322917,0.059002 0.1322917,0.1322917 V 3.9139254 L 4.0942905,3.126974 c 0.051824,-0.051824 0.1352447,-0.051824 0.1870689,0 0.051824,0.051823 0.051825,0.1352458 0,0.1870686 L 3.1749999,4.4203543 2.0686406,3.3140426 c -0.051824,-0.051824 -0.051824,-0.1352446 0,-0.1870686 0.051823,-0.051824 0.1352431,-0.051823 0.1870687,0 l 0.786999,0.7869514 V 1.984375 c 0,-0.071 0.055482,-0.1287617 0.1255737,-0.1322917 z"
     sodipodi:nodetypes="ssssssssssssccssccsscss" />
</svg>
