<?xml version="1.0" encoding="UTF-8" standalone="no"?>
<!-- Created with Inkscape (http://www.inkscape.org/) -->

<svg
   width="24"
   height="24"
   viewBox="0 0 6.3499999 6.3500002"
   version="1.1"
   id="svg5"
   inkscape:version="1.1.1 (3bf5ae0d25, 2021-09-20, custom)"
   sodipodi:docname="phone-battery-medium.svg"
   xmlns:inkscape="http://www.inkscape.org/namespaces/inkscape"
   xmlns:sodipodi="http://sodipodi.sourceforge.net/DTD/sodipodi-0.dtd"
   xmlns="http://www.w3.org/2000/svg"
   xmlns:svg="http://www.w3.org/2000/svg">
  <sodipodi:namedview
     id="namedview7"
     pagecolor="#ffffff"
     bordercolor="#666666"
     borderopacity="1.0"
     inkscape:pageshadow="2"
     inkscape:pageopacity="0.0"
     inkscape:pagecheckerboard="0"
     inkscape:document-units="px"
     showgrid="false"
     units="px"
     height="22px"
     showguides="false"
     inkscape:zoom="19.575"
     inkscape:cx="10.753512"
     inkscape:cy="14.227331"
     inkscape:window-width="1920"
     inkscape:window-height="999"
     inkscape:window-x="0"
     inkscape:window-y="0"
     inkscape:window-maximized="1"
     inkscape:current-layer="svg5" />
  <defs
     id="defs2" />
  <path
     id="rect846"
     style="opacity:0.35;fill:#dedede;fill-opacity:1;stroke-width:0.066146;stroke-linejoin:round"
     d="M 1.190625,0.52916667 V 1.0583333 H 0.79375004 c -0.14657927,0 -0.26458337,0.1180042 -0.26458337,0.2645833 v 4.1010417 c 0,0.2198687 0.17700625,0.396875 0.39687502,0.396875 H 2.5135416 c 0.2198688,0 0.396875,-0.1770063 0.396875,-0.396875 V 1.3229166 c 0,-0.1465791 -0.074284,-0.2617499 -0.2645833,-0.2645833 H 2.2489583 V 0.52916667 Z"
     sodipodi:nodetypes="ccssssssscccc" />
  <path
     id="rect942"
     style="fill:#dedede;fill-opacity:1;stroke-width:0.264583;stroke-linejoin:round"
     d="M 3.7041666,0.52916667 C 3.4110083,0.52916667 3.175,0.76517503 3.175,1.0583333 v 4.2333333 c 0,0.2931583 0.2360083,0.5291666 0.5291666,0.5291666 h 1.5875 c 0.2931583,0 0.5291667,-0.2360083 0.5291667,-0.5291666 V 1.0583333 c 0,-0.29315827 -0.2360084,-0.52916663 -0.5291667,-0.52916663 z m 0.390157,4.76249993 c 0.00226,-1.138e-4 0.00443,0 0.00672,0 h 0.79375 c 0.07329,0 0.1322917,0.059002 0.1322917,0.1322916 0,0.07329 -0.059002,0.1322917 -0.1322917,0.1322917 h -0.79375 c -0.07329,0 -0.1322916,-0.059002 -0.1322916,-0.1322917 0,-0.070999 0.055482,-0.1287616 0.1255736,-0.1322916 z" />
  <path
     id="rect844"
     style="fill:#dedede;stroke-width:0.215126;stroke-linejoin:round"
     d="m 0.52916667,2.9104166 v 2.5135416 c 0,0.2198688 0.1770063,0.396875 0.39687499,0.396875 H 2.5135416 c 0.2198688,0 0.396875,-0.1770062 0.396875,-0.396875 V 2.9104166 Z"
     sodipodi:nodetypes="csssscc" />
</svg>
