<svg xmlns="http://www.w3.org/2000/svg" viewBox="0 0 32 32">
  <defs
     id="defs3051">
    <style
       type="text/css"
       id="current-color-scheme">
      .ColorScheme-Text {
        color:#363636;
      }
      </style>
  </defs>
  <path
     style="fill:currentColor;fill-opacity:1;stroke:none" 
     d="M 18 4 L 18 10 L 28 10 L 28 4 L 18 4 z M 4 12 L 4 14 L 28 14 L 28 12 L 4 12 z M 4 16 L 4 28 L 14 28 L 14 16 L 4 16 z M 5 17 L 13 17 L 13 27 L 5 27 L 5 17 z M 18 18 L 18 28 L 28 28 L 28 18 L 18 18 z M 19 19 L 27 19 L 27 27 L 19 27 L 19 19 z "
     id="path8" 
     class="ColorScheme-Text"
     />
</svg>
