<svg xmlns="http://www.w3.org/2000/svg" viewBox="0 0 32 32">
  <defs
     id="defs3051">
    <style
       type="text/css"
       id="current-color-scheme">
      .ColorScheme-Text {
        color:#363636;
      }
      </style>
  </defs>
  <path
     style="fill:currentColor;fill-opacity:1;stroke:none" 
     d="M 6 7 L 6 15 L 4 15 L 4 17 L 6 17 L 6 25 L 14 25 L 14 17 L 18 17 L 18 21 L 26 21 L 26 17 L 28 17 L 28 15 L 26 15 L 26 11 L 18 11 L 18 15 L 14 15 L 14 7 L 6 7 z M 7 8 L 13 8 L 13 24 L 7 24 L 7 8 z M 19 12 L 25 12 L 25 20 L 19 20 L 19 12 z "
     id="path6" 
     class="ColorScheme-Text"
     />
</svg>
