<svg xmlns="http://www.w3.org/2000/svg" viewBox="0 0 32 32">
  <defs
     id="defs3051">
    <style
       type="text/css"
       id="current-color-scheme">
      .ColorScheme-Text {
        color:#363636;
      }
      </style>
  </defs>
  <path
     style="fill:currentColor;fill-opacity:1;stroke:none" 
     d="M 13.494141 3.9941406 C 12.034641 9.1016406 8.4636719 13.493766 6.8886719 17.009766 C 6.3381719 18.055266 5.9941406 19.226641 5.9941406 20.494141 C 5.9941406 24.649141 9.3391406 27.994141 13.494141 27.994141 C 17.649141 27.994141 20.994141 24.649141 20.994141 20.494141 C 20.994141 19.226641 20.653562 18.055266 20.101562 17.009766 C 18.526563 13.495266 14.953641 9.1016406 13.494141 3.9941406 z M 23.5 4 C 21.007 4 19 6.007 19 8.5 C 19 10.993 21.007 13 23.5 13 C 25.993 13 28 10.993 28 8.5 C 28 6.007 25.993 4 23.5 4 z M 16.919922 15.570312 C 18.476922 16.651812 19.494141 18.446641 19.494141 20.494141 C 19.494141 23.818141 16.818141 26.494141 13.494141 26.494141 C 11.446641 26.494141 9.6518125 25.476922 8.5703125 23.919922 C 9.5408125 24.594922 10.717641 24.994141 11.994141 24.994141 C 15.318141 24.994141 17.994141 22.318141 17.994141 18.994141 C 17.994141 17.717641 17.594922 16.540813 16.919922 15.570312 z "
     id="path20" 
     class="ColorScheme-Text"
     />
  <rect
     style="fill:#ffffff"
     id="rect24"
     height="7"
     rx="3.5"
     y="4.9999876"
     x="20.000008"
     width="7" />
</svg>
