<svg xmlns="http://www.w3.org/2000/svg" viewBox="0 0 32 32">
  <defs
     id="defs3051">
    <style
       type="text/css"
       id="current-color-scheme">
      .ColorScheme-Text {
        color:#363636;
      }
      </style>
  </defs>
  <path
     style="fill:currentColor;fill-opacity:1;stroke:none" 
     d="M 6 4 L 6 28 L 15 28 L 15 27 L 7 27 L 7 5 L 18 5 L 18 12 L 25 12 L 25 15 L 26 15 L 26 11 L 19 4 L 18 4 L 6 4 z M 21 16 C 19.343 16 18 17.343 18 19 L 18 20 L 19 20 L 19 19 C 19 17.895 19.895 17 21 17 C 22.105 17 23 17.895 23 19 L 23 22 L 16 22 L 16 28 L 26 28 L 26 22 L 24 22 L 24 19 C 24 17.343 22.657 16 21 16 z M 17 23 L 25 23 L 25 27 L 17 27 L 17 23 z "
     id="path109" 
     class="ColorScheme-Text"
     />
</svg>
