<svg version="1.1" viewBox="0 0 32 32" xmlns="http://www.w3.org/2000/svg">
 <defs>
  <style id="current-color-scheme" type="text/css">.ColorScheme-Text {
        color:#363636;
      }</style>
 </defs>
 <path class="ColorScheme-Text" d="m16 4c-6.6274 0-12 5.3726-12 12s5.3726 12 12 12 12-5.3726 12-12-5.3726-12-12-12zm0 1c6.0751 0 11 4.9249 11 11s-4.9249 11-11 11-11-4.9249-11-11 4.9249-11 11-11zm-0.039062 2c-2.216 0-4 1.784-4 4v4h-1.0938c-1.0341 0-1.8672 0.892-1.8672 2v4c0 1.108 0.83305 2 1.8672 2h10.266c1.0341 0 1.8672-0.892 1.8672-2v-4c0-1.108-0.83305-2-1.8672-2h-1.1719v-4c0-2.216-1.784-4-4-4zm0 1c1.662 0 3 1.561 3 3.5v3.5h-6v-3.5c0-1.939 1.338-3.5 3-3.5zm-4.9609 8h10c0.554 0 1 0.446 1 1v4c0 0.554-0.446 1-1 1h-10c-0.554 0-1-0.446-1-1v-4c0-0.554 0.446-1 1-1z" fill="currentColor"/>
</svg>
