<svg viewBox="0 0 32 32" xmlns="http://www.w3.org/2000/svg">
    <style
        type="text/css"
        id="current-color-scheme">
        .ColorScheme-Text {
            color:#363636;
        }
    </style>
    <g class="ColorScheme-Text" fill="currentColor">
        <path d="M9.79 5.242l-.868.5 2.146 3.717-3.615-.969-.258.967 4.58 1.227L14.844 16H8.707l-3.353-3.354-.708.708L7.293 16H3v1h4.293l-2.647 2.646.708.708L8.707 17h6.137l-3.069 5.316-4.58 1.227.258.967 3.615-.969-2.146 3.717.867.5 2.147-3.717.968 3.615.965-.26-1.226-4.58L16 17l3.357 5.816-1.226 4.58.965.26.968-3.615 2.147 3.717.867-.5-2.146-3.717 3.615.969.258-.967-4.58-1.227L17.156 17h6.137l3.353 3.354.708-.708L24.707 17H29v-1h-4.293l2.647-2.646-.708-.708L23.293 16H16v-.002l-3.357-5.814 1.226-4.58-.965-.26-.968 3.615zM23 4v1h2.293l-2 2-.293.293V8h4V7h-2.293l2-2L27 4.707V4h-.707z"/>
        <path d="M20 10v1h2.293l-2 2-.293.293V14h4v-1h-2.293l2-2 .293-.293V10h-.707zm-4-5v1h2.293l-2 2-.293.293V9h4V8h-2.293l2-2L20 5.707V5h-.707z"/>
    </g>
</svg>
