<svg xmlns="http://www.w3.org/2000/svg" viewBox="0 0 32 32">
  <defs
     id="defs3051">
    <style
       type="text/css"
       id="current-color-scheme">
      .ColorScheme-Text {
        color:#363636;
      }
      </style>
  </defs>
  <path
     style="fill:currentColor;fill-opacity:1;stroke:none" 
     d="M 4 4 L 4 28 L 28 28 L 28 4 L 4 4 z M 5 9 L 27 9 L 27 27 L 5 27 L 5 9 z M 8 11 L 8 17 L 15 17 L 15 11 L 8 11 z M 17 11 L 17 17 L 24 17 L 24 11 L 17 11 z M 9 12 L 14 12 L 14 16 L 9 16 L 9 12 z M 18 12 L 23 12 L 23 16 L 18 16 L 18 12 z M 8 19 L 8 25 L 15 25 L 15 19 L 8 19 z M 17 19 L 17 25 L 24 25 L 24 19 L 17 19 z M 9 20 L 14 20 L 14 24 L 9 24 L 9 20 z M 18 20 L 23 20 L 23 24 L 18 24 L 18 20 z "
     id="path45" 
     class="ColorScheme-Text"
     />
</svg>
