<svg height="32" viewBox="0 0 8.4666663 8.4666671" width="32" xmlns="http://www.w3.org/2000/svg"><style type="text/css" id="current-color-scheme">.ColorScheme-Text{color:#363636;}</style><g style="fill:currentColor;fill-opacity:1;stroke:none" class="ColorScheme-Text" transform="translate(0 -288.53332)"><path d="m1.0583334 289.85624v.26458h1.3229166v-.26458z"/><path d="m1.0583333 293.03124v.26458h3.4395834v-.26458z"/><path d="m1.0583333 293.82498v.26458h3.9687501v-.26458z"/><path d="m1.0583333 295.67707v-.26458h5.0270834v.26458z"/><path d="m1.0583333 294.88332v-.26458h4.4979167v.26458z"/><path d="m6.35 292.23749v-2.1394l-.6066814.60668-.1870686-.18707.9260417-.92604.9260416.92604-.1870686.18707-.6066814-.60668v2.1394z"/><path d="m1.0583333 292.23749v.26458h2.9104167v-.26458z"/><path d="m1.0583333 291.44374v.26458h2.38125v-.26458z"/><path d="m1.0583333 290.64999v.26458h1.8520834v-.26458z"/></g></svg>