<svg width="16" height="16" version="1.1" xmlns="http://www.w3.org/2000/svg">
 <defs>
  <style id="current-color-scheme" type="text/css">.ColorScheme-Text { color:#dfdfdf; } .ColorScheme-Highlight { color:#4285f4; }</style>
 </defs>
 <path class="ColorScheme-Text" d="m6.8644 0.38982c-1.108 0-2 0.892-2 2v6.1797c-0.31917-0.11396-0.65543-0.17897-1-0.17969-1.6569 0-3 1.3431-3 3 0 1.6569 1.3431 3 3 3s3-1.3431 3-3v-9h6v6.1797c-0.31917-0.11396-0.65543-0.17897-1-0.17969-1.6569 0-3 1.3431-3 3 0 1.6569 1.3431 3 3 3s3-1.3431 3-3v-9c0-1.108-0.892-2-2-2zm-3 10c0.55228 0 1 0.44772 1 1s-0.44772 1-1 1-1-0.44772-1-1 0.44772-1 1-1zm8 0c0.55228 0 1 0.44772 1 1s-0.44772 1-1 1-1-0.44772-1-1 0.44772-1 1-1z" fill="currentColor"/>
</svg>
