<svg width="16" height="16" version="1.1" xmlns="http://www.w3.org/2000/svg">
 <defs>
  <style id="current-color-scheme" type="text/css">.ColorScheme-Text { color:#dfdfdf; } .ColorScheme-Highlight { color:#4285f4; }</style>
 </defs>
 <path class="ColorScheme-Text" d="m3 1c-1.662 0-3 1.338-3 3v8c0 1.662 1.338 3 3 3h10c1.662 0 3-1.338 3-3v-8c0-1.662-1.338-3-3-3zm0 2h10c0.554 0 1 0.446 1 1v8c0 0.554-0.446 1-1 1h-10c-0.554 0-1-0.446-1-1v-8c0-0.554 0.446-1 1-1zm0 7v2h4v-2zm6 0v2h4v-2z" fill="currentColor"/>
</svg>
