<svg height="16" width="16" xmlns="http://www.w3.org/2000/svg"><defs><style id="current-color-scheme" type="text/css">.ColorScheme-Text{color:#dfdfdf;}.ColorScheme-Highlight{color:#5294e2;}</style></defs><path d="M2.5 0c-.277 0-.5.223-.5.5V1L0 .998v14.501c0 .277.223.5.5.5h6c.277 0 .5-.223.5-.5V1L6.5 1H5V.5c0-.277-.223-.5-.5-.5z" color="#bebebe" opacity=".35" fill="#e74c3c" stroke-width="0" stroke-linecap="round" stroke-linejoin="round"/><path d="M10 .998c-.554 0-1 .446-1 1v13c0 .554.446 1 1 1h5c.554 0 1-.446 1-1v-13c0-.554-.446-1-1-1h-5zm0 3h1v1h-1v-1zm2 0h1v1h-1v-1zm2 1h1v7h-1v-7zm-4 1h1v1h-1v-1zm2 0h1v1h-1v-1zm-2 2h1v1h-1v-1zm2 0h1v1h-1v-1zm-2 2h1v1h-1v-1zm2 0h1v1h-1v-1zm-2 2h1v1h-1v-1zm2 0h1v1h-1v-1z" fill="#dfdfdf" fill-rule="evenodd"/></svg>