<?xml version="1.0" encoding="UTF-8"?>
<svg version="1.1" viewBox="0 0 16 16" xmlns="http://www.w3.org/2000/svg">
 <path d="m5.2148 1c-2.2801 3.61e-5 -4.1638 1.8416-4.2148 4.1211v0.021489c0 0.9829 0.26727 1.7666 0.49219 2.3711l0.00586 0.021484 0.00977 0.019531c1.1209 2.6536 3.2219 4.7458 5.8086 7.1738l0.68359 0.64258 0.68359-0.64258c2.5867-2.428 4.6877-4.5202 5.8086-7.1738l0.0098-0.019531 0.0059-0.021484c0.22484-0.60452 0.49211-1.3875 0.49211-2.3711v-0.023438c-0.047775-2.0635-1.5037-3.5607-3.1719-3.9863-1.3165-0.33589-2.8192 0.0052079-3.9082 1.0312-0.90788-1.0203-1.6609-1.1643-2.7051-1.1641zm0 2c0.7937-1.44e-4 1.5224 0.42128 1.918 1.1094l0.86523 1.5059 0.86914-1.5039c0.59293-1.0289 1.5596-1.2725 2.4668-1.041 0.90396 0.23064 1.6298 0.90645 1.6621 2.0859-0.002533 0.61728-0.15314 1.0892-0.35547 1.6348-0.82065 1.9319-2.4882 3.7218-4.6406 5.7852-2.1524-2.0634-3.82-3.8533-4.6406-5.7852-0.2021-0.54499-0.3526-1.0176-0.35547-1.6328 0.032041-1.2102 0.99902-2.1582 2.2109-2.1582z" color="#000000" fill="#555" style="-inkscape-stroke:none"/>
</svg>
