<svg height="16.031" width="16" xmlns="http://www.w3.org/2000/svg"><path d="M8 .031c-4.412 0-8 3.588-8 8s3.588 8 8 8 8-3.588 8-8-3.588-8-8-8zm0 1c3.872 0 7 3.128 7 7s-3.128 7-7 7-7-3.128-7-7c0-2.083.912-3.945 2.352-5.227A6.965 6.965 0 0 1 8 1.031zM3.352 2.804c-.592.546-.891 1.163-.891 1.163l.896.441s.231-.462.672-.87c.441-.406 1.007-.727 1.823-.523l.242-.968a2.841 2.841 0 0 0-.846-.084c-.8.043-1.453.432-1.896.841zm7.28-.841a2.82 2.82 0 0 0-.845.084l.242.968c.816-.204 1.382.117 1.823.524.44.407.673.869.673.869l.897-.441s-.302-.617-.893-1.163c-.443-.41-1.097-.798-1.896-.841zm-5.71 3.068c-.73 0-1.254.339-1.543.674a2.01 2.01 0 0 0-.389.693c-.177.643.788.91.965.266 0 0 .037-.142.18-.307.142-.165.341-.326.787-.326.891 0 1.082.676 1.082.676.234.626 1.173.274.937-.352 0 0-.56-1.324-2.02-1.324zm6 0c-.73 0-1.254.339-1.543.674a2.01 2.01 0 0 0-.389.693c-.177.643.788.91.965.266 0 0 .037-.142.18-.307.142-.165.341-.326.787-.326.891 0 1.082.676 1.082.676.234.626 1.173.274.937-.352 0 0-.56-1.324-2.02-1.324zM3.037 7.994s-.043.633-.064.894c0 2.827 2.236 5.143 5 5.143s5-2.316 5-5.143c0-.174-.062-.894-.062-.894zM4 9.031h7.945a4.31 4.31 0 0 1-.19 1.076 6.94 6.94 0 0 1-3.68.992c-2.212-.018-3.886-.996-3.886-.996-.085-.17-.176-.696-.189-1.072zm.729 2.36c1.33.508 3.714 1.084 6.26.07-.013.015-.028.026-.04.04.04-.015.085-.025.125-.04-.726.952-1.809 1.533-3.133 1.533-1.323 0-2.488-.61-3.212-1.604z" fill="#363636" overflow="visible" style="marker:none" color="#bebebe"/></svg>