<svg xmlns="http://www.w3.org/2000/svg" width="24" height="24">
 <defs>
  <clipPath>
   <path d="m7 1023.36h1v1h-1z" style="fill:#f2f2f2"/>
  </clipPath>
 </defs><g transform="translate(1,1)">
 <path d="m11.5 9c-1.213861 0-2.219022.855928-2.449219 2h-6.05078v1h6.05078c.230197 1.144072 1.235358 2 2.449219 2 1.213861 0 2.219022-.855928 2.449219-2h5.05078v-1h-5.05078c-.230197-1.144072-1.235358-2-2.449219-2" style="fill:#2ecc71"/>
 <path d="m5.5 14c-1.385 0-2.5 1.115-2.5 2.5 0 1.385 1.115 2.5 2.5 2.5 1.21386 0 2.219022-.855928 2.449219-2h11.05078v-1h-11.05078c-.230196-1.144072-1.235358-2-2.449219-2m0 1c.831 0 1.5.669 1.5 1.5 0 .831-.669 1.5-1.5 1.5-.831 0-1.5-.669-1.5-1.5 0-.831.669-1.5 1.5-1.5" style="fill:#1d99f3"/>
 <path d="m14.5 3c-1.21386 0-2.219022.855928-2.449219 2h-9.05078v1h9.05078c.230197 1.144072 1.235359 2 2.449219 2 1.21386 0 2.219022-.855928 2.449219-2h2.050781v-1h-2.050781c-.230197-1.144072-1.235359-2-2.449219-2m0 1c.831 0 1.5.669 1.5 1.5 0 .831-.669 1.5-1.5 1.5-.831 0-1.5-.669-1.5-1.5 0-.831.669-1.5 1.5-1.5" style="fill:#da4453"/>
</g></svg>
