<svg xmlns="http://www.w3.org/2000/svg" viewBox="0 0 24 24">
  <defs id="defs3051">
    <style type="text/css" id="current-color-scheme">
      .ColorScheme-Text {
        color:#dedede;
      }
      </style>
  </defs>
 <path style="fill:currentColor;fill-opacity:1;stroke:none" 
     d="M 10 4 L 10 20 L 11 20 L 11 4 L 10 4 z M 13 4 L 13 10 L 14 10 L 20 10 L 20 9 L 20 4 L 19 4 L 13 4 z M 14 5 L 19 5 L 19 9 L 14 9 L 14 5 z M 4 14 L 4 20 L 5 20 L 8 20 L 8 19 L 8 14 L 7 14 L 4 14 z M 14 14 L 14 19 L 14 20 L 15 20 L 19 20 L 20 20 L 20 19 L 20 15 L 20 14 L 14 14 z M 15 15 L 19 15 L 19 19 L 15 19 L 15 15 z "
     class="ColorScheme-Text"
     />
</svg>
