<svg version="1.1" viewBox="0 0 24 24" xmlns="http://www.w3.org/2000/svg"><style type="text/css" id="current-color-scheme">.ColorScheme-Text {
        color:#dedede;
      }</style><g transform="translate(1,1)"><path d="M 6,3 A 2,2 0 0 0 4,5 2,2 0 0 0 4.67969,6.5 2,2 0 0 0 4,8 2,2 0 0 0 6,10 2,2 0 0 0 8,8 2,2 0 0 0 7.32031,6.5 2,2 0 0 0 8,5 2,2 0 0 0 6,3 M 6,4 A 1,1 0 0 1 7,5 1,1 0 0 1 6,6 1,1 0 0 1 5,5 1,1 0 0 1 6,4 M 6,7 A 1,1 0 0 1 7,8 1,1 0 0 1 6,9 1,1 0 0 1 5,8 1,1 0 0 1 6,7" fill="#da4453"/><path d="m17 12a2 2 0 0 0-2 2v3a2 2 0 0 0 2 2 2 2 0 0 0 2-2 2 2 0 0 0-2-2 2 2 0 0 0-1 0.26953v-1.2695a1 1 0 0 1 1-1 1 1 0 0 1 1 1h1a2 2 0 0 0-2-2m0 4a1 1 0 0 1 1 1 1 1 0 0 1-1 1 1 1 0 0 1-1-1 1 1 0 0 1 1-1" fill="#1d99f3"/><path d="m12 12v1h1v6h1v-7h-1z" fill="#1d99f3"/><path d="m11 3v1c2.698 0.0062 5.1523 1.5623 6.3086 4h-3.3086v1h5v-5h-1v3.1699c-1.3977-2.5631-4.0806-4.1613-7-4.1699zm-8 10v5h1v-3.1699c1.3977 2.5631 4.0806 4.1613 7 4.1699v-1c-2.698-0.006155-5.1523-1.5623-6.3086-4h3.3086v-1h-5z" style="fill:currentColor;fill-opacity:1;stroke:none" class="ColorScheme-Text"/></g></svg>
