<svg xmlns="http://www.w3.org/2000/svg" viewBox="0 0 24 24">
  <defs id="defs3051">
    <style type="text/css" id="current-color-scheme">
      .ColorScheme-Text {
        color:#dedede;
      }
      </style>
  </defs>
 <path style="fill:currentColor;fill-opacity:1;stroke:none" 
     d="M 10 4 L 3 11.15625 L 6.875 18 L 10 18 L 9.6875 20 L 14 17.59375 L 18.3125 20 L 17.5 14.9375 L 21 11.34375 L 16.15625 10.59375 L 14 6 L 13.34375 7.40625 L 10 4 z M 10 5.25 L 12.9375 8.25 L 11.84375 10.59375 L 7 11.34375 L 10.5 14.9375 L 10.15625 17.125 L 7.375 17.125 L 4.0625 11.3125 L 10 5.25 z M 14 7.75 L 15.625 11.21875 L 19.25 11.75 L 16.625 14.4375 L 17.25 18.25 L 14 16.46875 L 10.75 18.25 L 11.375 14.4375 L 8.75 11.75 L 12.375 11.21875 L 14 7.75 z "
     class="ColorScheme-Text"
     />
</svg>
