<svg xmlns="http://www.w3.org/2000/svg" viewBox="0 0 24 24">
  <defs id="defs3051">
    <style type="text/css" id="current-color-scheme">
      .ColorScheme-Text {
        color:#dedede;
      }
      .ColorScheme-Highlight {
        color:#3daee9;
      }
      </style>
  </defs>
 <path 
     style="fill:currentColor;fill-opacity:1;stroke:none" 
     d="M 4 4 L 4 9 L 5 9 L 5 5 L 7 5 L 7 8 L 7 9 L 8 9 L 8 8 L 8 5 L 10 5 L 10 9 L 11 9 L 11 5 L 13 5 L 13 9 L 14 9 L 14 5 L 16 5 L 16 8 L 16 9 L 17 9 L 17 8 L 17 5 L 19 5 L 19 9 L 20 9 L 20 5 L 20 4 L 5 4 L 4 4 z M 15 10 L 17.5 15 L 20 10 L 15 10 z M 4 15 L 4 20 L 5 20 L 13 20 L 14 20 L 16 20 L 17 20 L 19 20 L 20 20 L 20 19 L 20 15 L 19 15 L 19 19 L 17 19 L 17 15 L 16 15 L 16 19 L 14 19 L 14 15 L 13 15 L 13 19 L 11 19 L 11 15 L 10 15 L 10 19 L 8 19 L 8 15 L 7 15 L 7 19 L 5 19 L 5 15 L 4 15 z "
     class="ColorScheme-Text"
     />
 <path 
     style="fill:currentColor;fill-opacity:1;stroke:none" 
     d="M 4 9 L 4 10 L 5 10 L 8.28125 10 L 5 13.28125 L 5 13.292969 L 4.2929688 14 L 4 14 L 4 15 L 5 15 L 12 15 L 14 15 L 14 14 L 13.71875 14 L 14 13.71875 L 14 12.28125 L 12.28125 14 L 12 14 L 9.71875 14 L 12 11.71875 L 13.71875 10 L 14 10 L 14 9 L 12 9 L 9.2929688 9 L 5 9 L 4 9 z M 9.71875 10 L 12 10 L 12.28125 10 L 12 10.28125 L 8.28125 14 L 5.71875 14 L 9.71875 10 z "
     class="ColorScheme-Highlight"
     />
</svg>
