<svg xmlns="http://www.w3.org/2000/svg" viewBox="0 0 24 24">
  <defs id="defs3051">
    <style type="text/css" id="current-color-scheme">
      .ColorScheme-Text {
        color:#dedede;
      }
      </style>
  </defs>
 <path style="fill:currentColor;fill-opacity:1;stroke:none" 
     d="M 4 4 L 4 5 L 20 5 L 20 4 L 4 4 z M 6 6 L 6 7 L 18.099609 7 L 18.099609 6 L 6 6 z M 4 10 L 4 11 L 20 11 L 20 10 L 4 10 z M 8 12 L 8 13 L 16 13 L 16 12 L 8 12 z M 4 15 L 4 16 L 20 16 L 20 15 L 4 15 z M 6 17 L 6 18 L 18 18 L 18 17 L 6 17 z M 11 19 L 11 20 L 13 20 L 13 19 L 11 19 z "
     class="ColorScheme-Text"
     />
</svg>
