<svg xmlns="http://www.w3.org/2000/svg" viewBox="0 0 24 24">
  <defs id="defs3051">
    <style type="text/css" id="current-color-scheme">
      .ColorScheme-Text {
        color:#dedede;
      }
      </style>
  </defs>
 <path style="fill:currentColor;fill-opacity:1;stroke:none" 
     d="M 12 4 C 7.58172 4 4 7.58172 4 12 C 4 14.0276 4.75669 15.87132 6 17.28125 C 6.2080306 17.548492 6.4988118 17.786346 6.71875 18 C 8.12868 19.24331 9.9724 20 12 20 C 16.41828 20 20 16.41828 20 12 C 20 9.9724 19.24331 8.12868 18 6.71875 C 17.88864 6.59254 17.77522 6.46272 17.65625 6.34375 L 17.28125 6 C 15.87132 4.75669 14.0276 4 12 4 z M 16.949219 7.0507812 C 17.646582 7.7510892 18.187748 8.5911286 18.537109 9.515625 C 18.538079 9.517625 18.540016 9.5184844 18.541016 9.5214844 C 18.547616 9.5409864 18.554127 9.5605181 18.560547 9.5800781 C 18.844421 10.264917 18.918285 10.963164 18.984375 11.675781 C 18.989375 11.783991 18.998047 11.8904 18.998047 12 L 18.998047 12.042969 C 18.929577 15.588238 16.40522 18.22367 13.044922 18.914062 C 12.916582 18.933263 12.788713 18.954597 12.658203 18.966797 C 12.522354 18.977277 12.386229 18.983798 12.25 18.986328 C 12.166316 18.989332 12.08443 19 12 19 C 11.9851 19 11.969978 18.996094 11.955078 18.996094 C 11.132728 19.009284 10.358311 18.803379 9.5976562 18.564453 C 9.5520562 18.547453 9.5060572 18.531672 9.4609375 18.513672 C 9.2901377 18.446722 9.1220433 18.373111 8.9570312 18.292969 C 8.2509419 17.954803 7.6065835 17.500583 7.0507812 16.949219 L 16.949219 7.0507812 z "
     class="ColorScheme-Text"
     />
</svg>
