<svg xmlns="http://www.w3.org/2000/svg" viewBox="0 0 24 24">
  <defs id="defs3051">
    <style type="text/css" id="current-color-scheme">
      .ColorScheme-Text {
        color:#dedede;
      }
      </style>
  </defs>
 <path style="fill:currentColor;fill-opacity:1;stroke:none" 
     d="M 4 4 L 4 8 L 5 8 L 5 5 L 8 5 L 8 4 L 4 4 z M 16 4 L 16 5 L 19 5 L 19 8 L 20 8 L 20 4 L 16 4 z M 8.5 6 A 2.5 2.5 0 0 0 6 8.5 A 2.5 2.5 0 0 0 8.5 11 A 2.5 2.5 0 0 0 11 8.5 A 2.5 2.5 0 0 0 8.5 6 z M 13 6 L 13 11 L 18 11 L 18 6 L 13 6 z M 7 13 L 7 18 L 10 18 L 10 13 L 7 13 z M 15.5 13 L 13 18 L 18 18 L 15.5 13 z M 4 16 L 4 20 L 8 20 L 8 19 L 5 19 L 5 16 L 4 16 z M 19 16 L 19 19 L 16 19 L 16 20 L 20 20 L 20 16 L 19 16 z "
     class="ColorScheme-Text"
     />
</svg>
