<svg xmlns="http://www.w3.org/2000/svg" viewBox="0 0 24 24">
  <defs id="defs3051">
    <style type="text/css" id="current-color-scheme">
      .ColorScheme-Text {
        color:#dedede;
      }
      </style>
  </defs>
 <path 
    style="fill:currentColor;fill-opacity:1;stroke:none" 
	d="M 12 7 A 10 9.9999752 0 0 0 3.3144531 12.070312 C 3.4995619 12.36174 3.76008 12.597238 4.0664062 12.759766 A 9 8.9999781 0 0 1 12 8 A 4 4 0 0 0 8 12 A 4 4 0 0 0 12 16 A 4 4 0 0 0 16 12 A 4 4 0 0 0 12.34375 8.0175781 A 9 8.9999781 0 0 1 19.931641 12.761719 C 20.241063 12.598077 20.503624 12.359295 20.689453 12.064453 A 10 9.9999752 0 0 0 12 7 z M 12 9 A 3 3 0 0 1 15 12 A 3 3 0 0 1 12 15 A 3 3 0 0 1 9 12 A 3 3 0 0 1 12 9 z "
    class="ColorScheme-Text"
    />
  <path
     style="fill:#da4453;fill-opacity:1;stroke:none"
     d="M 12 10 A 1.9999999 2.0000005 0 0 0 10 12 A 1.9999999 2.0000005 0 0 0 12 14 A 1.9999999 2.0000005 0 0 0 14 12 A 1.9999999 2.0000005 0 0 0 13.910156 11.412109 A 0.99999984 1 0 0 1 13 12 A 0.99999984 1 0 0 1 12 11 A 0.99999984 1 0 0 1 12.589844 10.089844 A 1.9999999 2.0000005 0 0 0 12 10 z "
     id="path10" />
</svg>
