<svg xmlns="http://www.w3.org/2000/svg" viewBox="0 0 24 24">
  <defs id="defs3051">
    <style type="text/css" id="current-color-scheme">
      .ColorScheme-Text {
        color:#dedede;
      }
      </style>
  </defs><g transform="translate(1,1)">
 <path 
     style="fill:currentColor;fill-opacity:1;stroke:none" 
	 d="M 7 3 L 7 5 L 5 5 L 4 5 L 4 19 L 5 19 L 13 19 L 13 18 L 5 18 L 5 6 L 6 6 L 6 8 L 16 8 L 16 6 L 17 6 L 17 13 L 18 13 L 18 5 L 17 5 L 15 5 L 15 3 L 7 3 z M 7 9 L 7 10 L 15 10 L 15 9 L 7 9 z M 7 12 L 7 13 L 13 13 L 13 12 L 7 12 z M 16 13 L 15.425781 14.613281 L 13.878906 13.878906 L 14.613281 15.425781 L 13 16 L 14.613281 16.574219 L 13.878906 18.121094 L 15.425781 17.386719 L 16 19 L 16.574219 17.386719 L 18.121094 18.121094 L 17.386719 16.574219 L 19 16 L 17.386719 15.425781 L 18.121094 13.878906 L 16.574219 14.613281 L 16 13 z M 7 15 L 7 16 L 10 16 L 10 15 L 7 15 z "
	 class="ColorScheme-Text"
     />
</g></svg>
