<svg width="24" height="24" version="1.1" xmlns="http://www.w3.org/2000/svg" xmlns:xlink="http://www.w3.org/1999/xlink">
 <path class="ColorScheme-Text" d="m11.982 19.975c4.02e-4 0.28029 0.22752 0.50741 0.50781 0.50781 0.28105 6.8e-4 0.50937-0.22676 0.50977-0.50781v-1.9746h3.9824v1.9746c4.02e-4 0.28029 0.22752 0.50741 0.50781 0.50781 0.28105 6.8e-4 0.50937-0.22676 0.50977-0.50781v-4.1387c0-0.9124-0.39114-1.6603-0.9668-2.1367s-1.3128-0.69922-2.043-0.69922c-0.73021 0-1.4673 0.22282-2.043 0.69922-0.57566 0.4764-0.96484 1.2243-0.96484 2.1367zm1.0176-2.9922v-1.1465c0-0.63929 0.23386-1.0541 0.5957-1.3535 0.36184-0.29945 0.87475-0.46484 1.3945-0.46484 0.51979 0 1.0327 0.16539 1.3945 0.46484 0.36184 0.29945 0.59766 0.71422 0.59766 1.3535v1.1465z" color="#dedede" fill="currentColor"/>
 <path class="ColorScheme-Text" d="m15.08 3a0.50854 0.50854 0 0 0-0.24414 0.080078 0.50854 0.50854 0 0 0-0.15039 0.70312l0.14062 0.2168h-3.334a0.5086 0.5086 0 0 0-0.50977 0.50781v1a0.50854 0.50854 0 0 0 0.50977 0.50781 0.50854 0.50854 0 0 0 0.50781-0.50781v-0.49219h6.7422v0.49219a0.50854 0.50854 0 0 0 0.50781 0.50781 0.50854 0.50854 0 0 0 0.50781-0.50781v-1a0.5086 0.5086 0 0 0-0.50781-0.50781h-3.2129l-0.49805-0.76758a0.50854 0.50854 0 0 0-0.45898-0.23242zm-2.0371 3a0.50854 0.50854 0 0 0-0.50781 0.50781 0.50854 0.50854 0 0 0 0.50781 0.50781h2.9668l-0.71094 0.60547a0.5086 0.5086 0 0 0-0.17773 0.38672v0.53906l-3.623-0.046875a0.50854 0.50854 0 0 0-0.51562 0.50195 0.50854 0.50854 0 0 0 0.50195 0.51367l3.6367 0.04688v1.4453c0 0.07464-0.05521 0.21327-0.16797 0.32227s-0.26267 0.16992-0.35742 0.16992h-1.0352a0.50854 0.50854 0 0 0-0.50976 0.50781 0.50854 0.50854 0 0 0 0.50976 0.50781h1.0352c0.42248 0 0.78928-0.18908 1.0645-0.45508 0.27517-0.266 0.47852-0.62738 0.47852-1.0527v-1.4316l3.1055 0.04102a0.50854 0.50854 0 0 0 0.51367-0.50196 0.50854 0.50854 0 0 0-0.50195-0.51562l-3.1172-0.039062v-0.31836l1.5801-1.3477a0.5086 0.5086 0 0 0-0.33008-0.89453z" color="#dedede" fill="currentColor"/>
 <path class="ColorScheme-Text" d="m6.4828 21-2.5862-3h2.0689v-15h1.0345v15h2.0689z" color="#dedede" fill="currentColor"/>
 <path class="ColorScheme-Text" d="m20 1c1.662 0 3 1.338 3 3v16c0 1.662-1.338 3-3 3h-16c-1.662 0-3-1.338-3-3v-16c0-1.662 1.338-3 3-3zm0 1h-16c-1.108 0-2 0.892-2 2v16c0 1.108 0.892 2 2 2h16c1.108 0 2-0.892 2-2v-16c0-1.108-0.892-2-2-2z" color="#dedede" fill="currentColor"/>
</svg>
