<svg xmlns="http://www.w3.org/2000/svg" viewBox="0 0 24 24">
  <defs id="defs3051">
    <style type="text/css" id="current-color-scheme">
      .ColorScheme-Text {
        color:#dedede;
      }
      .ColorScheme-Highlight {
        color:#3daee9;
      }
      </style>
  </defs>
 <path 
     style="fill:currentColor;fill-opacity:1;stroke:none" 
     d="M 4 12 L 4 20 L 5 20 L 5 12 L 4 12 z M 6 12 L 6 20 L 7 20 L 7 13 L 8 13 A 2 2 0 0 1 10 15 L 10 20 L 11 20 L 11 15 A 3 3 0 0 0 8 12 L 7 12 L 6 12 z M 14 12 L 14 20 L 15 20 L 15 12 L 14 12 z M 16 12 L 16 16 L 16 20 L 17 20 L 17 16 A 3 2.9999979 0 0 1 20 13 L 20 12 A 3.9999852 4 0 0 0 17 13.361328 L 17 12 L 16 12 z "
     class="ColorScheme-Text"
     />
 <path 
     style="fill:currentColor;fill-opacity:1;stroke:none" 
     d="M 11 4 L 7 7 L 11 10 L 11 4 z M 14 4 L 14 10 L 18 7 L 14 4 z "
     class="ColorScheme-Highlight"
     />
</svg>
