<svg xmlns="http://www.w3.org/2000/svg" viewBox="0 0 24 24">
  <defs id="defs3051">
    <style type="text/css" id="current-color-scheme">
      .ColorScheme-Text {
        color:#dedede;
      }
      </style>
  </defs>
 <path style="fill:currentColor;fill-opacity:1;stroke:none" 
     d="M 11 3 C 10.359239 3 9.7390481 3.0836234 9.1425781 3.2246094 C 8.8645821 3.2903194 8.593898 3.3711117 8.328125 3.4648438 C 8.220761 3.5027088 8.1129925 3.5378301 8.0078125 3.5800781 C 8.0059055 3.5808441 8.0038591 3.5812643 8.0019531 3.5820312 C 7.3901781 3.8283202 6.8200869 4.1511561 6.2949219 4.5332031 C 6.2620669 4.5571001 6.2297356 4.5810837 6.1972656 4.6054688 C 5.9568776 4.7860058 5.7259635 4.9775977 5.5078125 5.1835938 C 5.4964025 5.1943747 5.4840023 5.2039957 5.4726562 5.2148438 C 5.0020692 5.6644667 4.5897344 6.1716194 4.2402344 6.7246094 C 4.2247664 6.7491164 4.2105205 6.7741391 4.1953125 6.7988281 C 4.0310105 7.0651701 3.8807669 7.3408841 3.7480469 7.6269531 C 3.7441229 7.6354251 3.7402231 7.6438547 3.7363281 7.6523438 C 3.4548941 8.2645878 3.2488672 8.9166635 3.1289062 9.6015625 C 3.0493043 10.056036 3 10.522036 3 11 C 3 14.40348 5.1080959 17.289329 8.0917969 18.449219 C 8.0941579 18.45026 8.0953213 18.452084 8.0976562 18.453125 C 8.1039573 18.455568 8.1108795 18.456557 8.1171875 18.458984 C 8.4486415 18.58653 8.789289 18.692258 9.140625 18.775391 C 9.144634 18.776339 9.1483328 18.778354 9.1523438 18.779297 C 9.7457167 18.91873 10.362885 19 11 19 C 11.692897 19 12.360436 18.903131 13 18.738281 L 13 17.701172 C 12.365849 17.88958 11.697021 18 11 18 C 10.152336 18 9.344463 17.841978 8.59375 17.568359 C 8.607355 17.555642 8.6287305 17.549485 8.6328125 17.529297 C 8.6418125 17.489597 8.6231937 17.471683 8.6210938 17.408203 C 8.6360938 17.343003 8.7071031 17.335921 8.7207031 17.269531 C 8.6929031 17.221931 8.6278375 17.253016 8.5859375 17.228516 C 8.5452375 17.204816 8.5274031 17.151972 8.5332031 17.101562 C 8.6028031 17.072163 8.7372194 17.171719 8.7871094 17.074219 C 8.8120094 17.028119 8.7592688 16.915651 8.7929688 16.869141 C 8.8163688 16.837741 8.9447506 16.836325 8.9941406 16.828125 C 9.0650406 16.815825 9.14753 16.801491 9.1875 16.775391 C 9.2311 16.746791 9.2947294 16.664291 9.2871094 16.582031 C 9.2831094 16.542631 9.2564625 16.528841 9.2265625 16.494141 C 9.2014625 16.464941 9.1919281 16.428091 9.1738281 16.400391 C 9.1425281 16.353591 9.0938781 16.361872 9.0800781 16.294922 C 9.1758781 16.276122 9.3223575 16.372984 9.4609375 16.333984 C 9.5266375 16.315484 9.6179475 16.174961 9.6484375 16.113281 C 9.6494375 16.093881 9.6576687 16.064816 9.6679688 16.041016 C 9.6802687 16.015116 9.7050844 15.993869 9.7089844 15.980469 C 9.7099844 15.944069 9.7125031 15.915478 9.7207031 15.892578 C 9.7450031 15.824778 9.8075362 15.803996 9.8476562 15.753906 C 9.8780563 15.716106 9.893075 15.670592 9.921875 15.632812 C 9.953275 15.591712 9.9812531 15.555811 10.001953 15.519531 C 10.021653 15.397661 9.9538219 15.311808 9.9824219 15.205078 C 10.014422 15.085178 10.178782 15.013074 10.294922 14.958984 C 10.334922 14.940384 10.375643 14.909933 10.408203 14.898438 C 10.488603 14.870235 10.588599 14.886375 10.662109 14.859375 C 10.787209 14.813675 10.801601 14.678413 10.863281 14.564453 C 10.892681 14.510553 10.929747 14.456389 10.935547 14.417969 C 10.940547 14.383369 10.923187 14.351387 10.929688 14.310547 C 10.935683 14.270447 10.973375 14.235686 10.984375 14.191406 C 10.998875 14.133706 11.003906 14.048785 11.003906 13.984375 C 11.003906 13.931575 10.978963 13.885661 10.976562 13.837891 C 10.967562 13.664741 11.039506 13.645041 11.103516 13.550781 C 11.135416 13.503981 11.149375 13.449606 11.171875 13.416016 C 11.279395 13.255526 11.464692 13.178127 11.451172 12.935547 C 11.446172 12.855247 11.397071 12.674066 11.337891 12.648438 C 11.304191 12.633736 11.226624 12.648306 11.177734 12.628906 C 11.019934 12.570006 10.927182 12.373838 10.763672 12.361328 C 10.728872 12.359328 10.69549 12.3758 10.65625 12.375 C 10.59155 12.3749 10.495468 12.330466 10.423828 12.322266 C 10.378328 12.317266 10.316385 12.335666 10.289062 12.322266 C 10.247264 12.302066 10.242784 12.224052 10.208984 12.201172 C 10.181884 12.182772 10.130644 12.177809 10.089844 12.162109 C 10.024144 12.136609 9.9704213 12.106765 9.8945312 12.101562 C 9.8711312 12.100563 9.8435063 12.111422 9.8164062 12.107422 C 9.7744063 12.101422 9.7400519 12.050944 9.7011719 12.027344 C 9.6527719 11.997944 9.6079506 11.983606 9.5878906 11.941406 C 9.6317906 11.797616 9.5118819 11.756918 9.4824219 11.673828 C 9.4685219 11.634928 9.4755906 11.589356 9.4628906 11.554688 C 9.4455906 11.504886 9.3957669 11.475074 9.3417969 11.433594 C 9.2451969 11.359294 9.1595654 11.290475 9.0214844 11.273438 C 8.9607844 11.266438 8.901445 11.291809 8.828125 11.287109 C 8.750425 11.282109 8.65189 11.212874 8.59375 11.146484 C 8.53725 11.081584 8.5102485 11.025151 8.4609375 10.994141 C 8.4142375 10.964441 8.3521325 10.963894 8.3203125 10.933594 C 8.3062125 10.920094 8.3074687 10.898288 8.2929688 10.867188 C 8.2695687 10.818687 8.2304656 10.792565 8.2597656 10.734375 C 8.2064656 10.707175 8.2047444 10.783634 8.1464844 10.773438 C 8.0944844 10.699737 8.0514137 10.663957 7.9335938 10.685547 C 7.8797938 10.686547 7.8500794 10.763825 7.7871094 10.765625 C 7.7355094 10.765725 7.6950931 10.709019 7.6269531 10.699219 C 7.5754531 10.692219 7.5150866 10.714531 7.4785156 10.707031 C 7.4216156 10.696031 7.4036825 10.647581 7.3515625 10.613281 C 7.3135625 10.588181 7.240191 10.544322 7.21875 10.544922 C 7.15165 10.545022 7.1042288 10.687702 7.0117188 10.638672 C 6.9666188 10.581772 7.08455 10.55327 7.03125 10.5 C 6.99085 10.4595 6.9581313 10.516762 6.9257812 10.539062 C 6.8888812 10.564566 6.85347 10.590369 6.8125 10.605469 C 6.7208 10.639669 6.6634569 10.623156 6.5917969 10.660156 C 6.5252969 10.694656 6.522035 10.752076 6.484375 10.820312 C 6.453475 10.876316 6.3840106 10.957564 6.3378906 10.960938 C 6.2819906 10.964937 6.2284444 10.881305 6.1777344 10.859375 C 6.0248344 10.793175 5.9511887 10.918122 5.8242188 10.919922 C 5.7063987 10.920022 5.5370488 10.729921 5.5429688 10.619141 C 5.5469687 10.551641 5.5817438 10.448854 5.5898438 10.365234 C 5.5958438 10.298734 5.6419781 10.259959 5.6425781 10.199219 C 5.6426781 10.118219 5.536935 10.054522 5.484375 10.044922 C 5.359635 10.022022 5.1859288 10.095365 5.0429688 10.039062 C 5.0157688 9.9939645 5.0745438 9.9638019 5.0898438 9.9199219 C 5.0988438 9.8949219 5.0943156 9.8595322 5.1035156 9.8320312 C 5.1193156 9.7897313 5.1636937 9.7560375 5.1835938 9.7109375 C 5.1985937 9.6766375 5.2015969 9.6266944 5.2167969 9.5839844 C 5.2340969 9.5354844 5.2657312 9.5067163 5.2695312 9.4726562 C 5.2745312 9.4275563 5.2583563 9.3754131 5.2226562 9.3457031 C 5.1116962 9.3517031 5.0396225 9.3556656 4.9765625 9.3847656 C 4.8320925 9.4504656 4.8591438 9.6452062 4.7148438 9.6914062 C 4.6649437 9.7075062 4.5959456 9.70885 4.5410156 9.71875 C 4.4937156 9.72775 4.4375919 9.7528531 4.3886719 9.7519531 C 4.3309719 9.7518531 4.2296925 9.6952031 4.1953125 9.6582031 C 4.1826095 9.6444651 4.1682835 9.6042061 4.1484375 9.5644531 C 4.2270005 9.1848041 4.3414956 8.8189368 4.4785156 8.4648438 C 4.5717386 8.4138247 4.6519857 8.3374161 4.7617188 8.3300781 C 4.8183188 8.3260781 4.9026022 8.3461219 4.9570312 8.3574219 C 5.0073313 8.3584219 5.0463438 8.4009969 5.0898438 8.4042969 C 5.2132337 8.4052969 5.24309 8.3174619 5.34375 8.2636719 C 5.44772 8.2782719 5.515445 8.2447594 5.609375 8.2558594 C 5.673375 8.2628594 5.7195613 8.3340906 5.7695312 8.3378906 C 5.8116312 8.3398906 5.850045 8.2963344 5.890625 8.3027344 C 5.930125 8.3087344 5.9975362 8.3951694 6.0039062 8.4433594 C 6.0109062 8.5032594 5.9594625 8.55908 5.9765625 8.625 C 6.0394625 8.689 6.1542906 8.7014112 6.2441406 8.7382812 C 6.3026406 8.6899813 6.2531406 8.60105 6.2441406 8.53125 C 6.2421406 8.50035 6.2481406 8.4716594 6.2441406 8.4433594 C 6.2381406 8.3952594 6.2169969 8.3517569 6.2167969 8.3105469 C 6.2161869 8.1205569 6.3706069 8.0320512 6.4980469 7.9570312 C 6.5532469 7.9244312 6.5966623 7.86763 6.6445312 7.84375 C 6.7120312 7.80995 6.7624494 7.8011313 6.8183594 7.7695312 C 6.9195094 7.7127313 7.0068575 7.6659625 7.0859375 7.6015625 C 7.1226375 7.5154625 7.0877969 7.4015362 7.0917969 7.3164062 C 7.1284969 7.2940062 7.1585256 7.3262656 7.1972656 7.3222656 C 7.2583656 7.3092656 7.2642881 7.2219 7.2988281 7.1875 C 7.3188281 7.1678 7.3735375 7.1543656 7.3984375 7.1347656 C 7.4593375 7.0870656 7.478139 7.0146906 7.53125 6.9941406 C 7.55025 6.9871406 7.595 6.9891687 7.625 6.9804688 C 7.6647 6.9694687 7.7207163 6.9223906 7.7851562 6.9003906 C 7.8269563 6.8860906 7.9234231 6.8833875 7.9394531 6.8671875 C 7.9591531 6.8471875 7.9395225 6.7918687 7.9453125 6.7617188 C 7.9777125 6.6109988 8.2056338 6.5780737 8.3398438 6.5273438 C 8.4338437 6.4916437 8.5294625 6.4271756 8.6328125 6.4472656 C 8.6126125 6.5188656 8.5167531 6.4931781 8.5332031 6.5800781 C 8.5560031 6.7008381 8.7171246 6.5452438 8.7597656 6.5273438 C 8.8411656 6.4931437 8.9790775 6.4723937 9.0859375 6.4335938 C 9.1797375 6.3995938 9.3481056 6.3474144 9.2597656 6.2402344 C 9.1860656 6.2352344 9.1501775 6.3260456 9.0859375 6.3535156 C 9.0415375 6.3595156 9.0514719 6.3161 9.0136719 6.3125 C 8.9778719 6.3105 8.9568219 6.3462437 8.9199219 6.3398438 C 8.8832219 6.3338437 8.8318719 6.2753819 8.8261719 6.2324219 C 8.8114719 6.1209819 8.9206069 6.0772606 8.9667969 5.9941406 C 8.9362969 5.8933606 8.7971806 5.9729937 8.7128906 5.9335938 C 8.7218906 5.8734937 8.7834356 5.8318425 8.8535156 5.8203125 C 8.9109156 5.8193125 9.0399988 5.8177031 9.0742188 5.8457031 C 9.0942187 5.8625031 9.0758219 5.9056938 9.1074219 5.9335938 C 9.1415219 5.9643938 9.1822725 5.960425 9.2265625 5.953125 C 9.2426625 5.877125 9.128126 5.8960431 9.140625 5.8457031 C 9.230725 5.7867031 9.3778813 5.8362125 9.4882812 5.8203125 C 9.5517812 5.8193125 9.6175181 5.7642219 9.6738281 5.7324219 C 9.7274281 5.7021219 9.7986377 5.6493187 9.8554688 5.6992188 C 9.8710687 5.7536188 9.8056906 5.7716981 9.7753906 5.7988281 C 9.6732606 5.8897281 9.5676912 5.9940894 9.4882812 6.0996094 C 9.5370812 6.1472094 9.6246012 6.1231125 9.7070312 6.1328125 C 9.7392312 6.1368125 9.7803931 6.1482969 9.8144531 6.1542969 C 9.8542531 6.1612969 9.8965744 6.1589156 9.9277344 6.1660156 C 9.9839344 6.1798156 9.9992755 6.2402344 10.054688 6.2402344 C 10.145986 6.2400644 10.147403 6.1418181 10.095703 6.0800781 C 10.112003 6.0170781 10.137434 5.9836431 10.115234 5.9394531 C 10.074134 5.8571531 9.9218225 5.9371912 9.9140625 5.8320312 C 9.9090625 5.7654312 9.9699406 5.76861 9.9941406 5.71875 C 9.9831406 5.59011 10.100301 5.5801538 10.087891 5.4648438 C 10.081891 5.4165437 10.041716 5.4182469 10.007812 5.3730469 C 9.9903145 5.3497469 9.9820375 5.3030563 9.9609375 5.2851562 C 9.8911375 5.2261562 9.7507775 5.23764 9.7421875 5.125 C 9.7381875 5.0586 9.7578469 5.0037406 9.7480469 4.9316406 C 9.7390469 4.8643406 9.6936256 4.6769125 9.6347656 4.6640625 C 9.5602656 4.6478625 9.4819181 4.7760694 9.3925781 4.8183594 C 9.3439781 4.8414594 9.2752725 4.8666209 9.2265625 4.8574219 C 9.1949625 4.8514219 9.1317531 4.8053106 9.1269531 4.7441406 C 9.1209531 4.6740406 9.1747 4.6724262 9.1875 4.5976562 C 9.1765 4.5535562 9.1291675 4.56435 9.0859375 4.53125 C 9.0369375 4.49395 8.9988537 4.4133769 8.9335938 4.4042969 C 8.9010937 4.3992969 8.8585319 4.4294406 8.8261719 4.4316406 C 8.7664999 4.4352466 8.7202969 4.4201739 8.6699219 4.4042969 C 8.8308009 4.3477729 8.9940653 4.2968541 9.1601562 4.2519531 C 9.1912563 4.2853531 9.2023344 4.3491038 9.2402344 4.3710938 C 9.2655344 4.3855937 9.3092437 4.381225 9.3398438 4.390625 C 9.4378438 4.420325 9.5197431 4.4737719 9.6269531 4.4511719 C 9.6637531 4.3865719 9.55125 4.3690594 9.59375 4.3183594 C 9.66555 4.3243594 9.7122781 4.3545531 9.7675781 4.3769531 C 9.8447781 4.3204531 9.8953381 4.3153694 9.8925781 4.2246094 C 9.8918561 4.1698324 9.8488485 4.1439457 9.8203125 4.1054688 C 9.8798125 4.0954267 9.93999 4.086666 10 4.078125 C 10.01323 4.092633 10.024247 4.1147175 10.041016 4.1171875 C 10.079016 4.1231875 10.192064 4.0676406 10.214844 4.0566406 C 10.219072 4.0545666 10.226306 4.0463077 10.232422 4.0429688 C 10.484937 4.0156098 10.739974 4 11 4 C 12.195632 4 13.318214 4.2980746 14.300781 4.8222656 C 14.26764 4.8324176 14.235115 4.8394636 14.195312 4.8535156 C 14.148212 4.8701156 14.060958 4.9516487 14.048828 4.9804688 C 14.028728 5.0280688 14.053828 5.0791537 14.048828 5.1523438 C 14.086928 5.1689438 14.110671 5.2435769 14.175781 5.2792969 C 14.200381 5.2927969 14.232006 5.2861281 14.253906 5.2988281 C 14.292006 5.3203281 14.322253 5.36809 14.314453 5.40625 C 14.303453 5.46105 14.232484 5.4457281 14.195312 5.4863281 C 14.201315 5.5640281 14.140594 5.5750631 14.121094 5.6269531 C 14.133394 5.6598531 14.1822 5.6538594 14.1875 5.6933594 C 14.1805 5.7359594 14.104594 5.7422094 14.121094 5.7871094 C 14.192594 5.8429094 14.268338 5.7762781 14.335938 5.7675781 C 14.485288 5.7489781 14.636796 5.7868438 14.728516 5.7148438 C 14.716016 5.6434438 14.804575 5.6184275 14.796875 5.5546875 C 14.790875 5.5065875 14.710861 5.4999969 14.675781 5.4667969 C 14.656981 5.4489969 14.651806 5.4075469 14.628906 5.3730469 C 14.602506 5.3334469 14.552776 5.3062281 14.523438 5.2675781 C 14.484234 5.2154781 14.402104 5.1392494 14.402344 5.0996094 C 14.402954 5.0541094 14.45855 5.0427488 14.46875 4.9804688 C 14.45645 4.9232688 14.350047 4.9610906 14.341797 4.9003906 C 14.34385 4.8809846 14.353349 4.8677977 14.363281 4.8554688 C 14.669818 5.0230327 14.958099 5.2177874 15.234375 5.4277344 C 15.231273 5.4281604 15.225536 5.4272104 15.222656 5.4277344 C 15.155756 5.4400344 15.131242 5.5238037 15.076172 5.5898438 C 15.037972 5.6359438 14.965003 5.6844844 14.908203 5.7089844 C 14.880503 5.7212844 14.847666 5.7201281 14.822266 5.7363281 C 14.784766 5.7612281 14.771116 5.8208294 14.728516 5.8496094 C 14.697816 5.8704094 14.581208 5.9290875 14.548828 5.9296875 C 14.510828 5.9302975 14.476419 5.8935437 14.449219 5.9023438 C 14.409119 5.9149437 14.412483 5.9937056 14.367188 6.0097656 C 14.278688 6.0411656 14.132406 5.9306 14.101562 6.0625 C 14.139463 6.1389 14.234551 6.1199094 14.300781 6.1621094 C 14.342481 6.1883094 14.430436 6.3049294 14.441406 6.3496094 C 14.442406 6.3874094 14.437275 6.5360609 14.421875 6.5761719 C 14.380575 6.6827219 14.282706 6.6472313 14.160156 6.6445312 C 14.126656 6.6439213 14.091547 6.6533906 14.060547 6.6503906 C 13.853857 6.6363906 13.646134 6.5616844 13.552734 6.7089844 C 13.559734 6.8222744 13.585647 6.8995859 13.560547 6.9980469 C 13.542247 7.0703469 13.477269 7.1345556 13.480469 7.1972656 C 13.482469 7.2294656 13.519544 7.2610475 13.527344 7.3046875 C 13.532344 7.3279875 13.516344 7.3773375 13.527344 7.3984375 C 13.561344 7.4641375 13.652521 7.4082687 13.712891 7.4179688 C 13.771891 7.4189688 13.840464 7.512085 13.839844 7.578125 C 13.839234 7.624225 13.796878 7.6997906 13.767578 7.7441406 C 13.709178 7.8326406 13.630325 7.8374856 13.546875 7.8847656 C 13.477275 7.9242656 13.44704 7.9899337 13.40625 8.0585938 C 13.36195 8.1327937 13.335316 8.1777973 13.353516 8.2851562 C 13.293816 8.4034662 13.203668 8.4769031 13.080078 8.5332031 C 13.043378 8.5498031 12.992454 8.5557781 12.958984 8.5800781 C 12.932384 8.5992781 12.916806 8.6506994 12.878906 8.6933594 C 12.832206 8.7455594 12.784446 8.7667606 12.759766 8.8066406 C 12.740766 8.8376406 12.733691 8.8981531 12.712891 8.9394531 C 12.684291 8.9954531 12.623346 9.0232881 12.585938 9.0800781 C 12.568734 9.1062781 12.558066 9.1588794 12.539062 9.1933594 C 12.496766 9.2702594 12.423911 9.3269212 12.431641 9.3945312 C 12.438641 9.4600313 12.514531 9.4703528 12.519531 9.5273438 C 12.523531 9.5595437 12.496647 9.5781822 12.498047 9.6132812 C 12.498147 9.6644812 12.535065 9.7008144 12.539062 9.7402344 C 12.540062 9.8394344 12.502975 9.8795056 12.484375 9.9472656 C 12.475375 9.9796656 12.480856 10.015816 12.472656 10.041016 C 12.456356 10.090516 12.385966 10.136554 12.384766 10.195312 C 12.384666 10.237115 12.428041 10.269635 12.431641 10.328125 C 12.433641 10.368325 12.410769 10.412119 12.417969 10.449219 C 12.432169 10.521919 12.562681 10.605649 12.619141 10.662109 C 12.694641 10.737609 12.793622 10.79542 12.826172 10.875 C 12.853672 10.9425 12.85375 11.033034 12.90625 11.083984 C 12.94515 11.121384 13.008694 11.144494 13.058594 11.183594 C 13.105194 11.219794 13.157351 11.250324 13.207031 11.289062 C 13.288331 11.352666 13.409574 11.480473 13.539062 11.470703 C 13.606566 11.465703 13.677216 11.410084 13.753906 11.396484 C 13.832906 11.382584 13.934082 11.374713 14.013672 11.382812 C 14.074772 11.388815 14.137792 11.424975 14.201172 11.421875 C 14.268172 11.417875 14.345845 11.369138 14.421875 11.335938 C 14.553535 11.278636 14.749076 11.202299 14.941406 11.230469 C 15.087906 11.251769 15.082114 11.418172 15.183594 11.482422 C 15.301424 11.483422 15.395061 11.439891 15.488281 11.462891 C 15.558781 11.480291 15.643641 11.586758 15.650391 11.642578 C 15.657391 11.700478 15.617875 11.788489 15.609375 11.824219 C 15.590975 11.902119 15.590172 11.993589 15.576172 12.042969 C 15.565172 12.081169 15.534556 12.104378 15.535156 12.142578 C 15.535766 12.177678 15.579434 12.264657 15.615234 12.310547 C 15.659134 12.366847 15.729953 12.409663 15.783203 12.470703 C 15.880903 12.582393 15.922624 12.717884 15.990234 12.865234 C 16.007397 12.90256 16.025364 12.952877 16.041016 13 L 18.726562 13 C 18.780182 12.782325 18.841293 12.567522 18.878906 12.34375 C 18.892346 12.264527 18.904906 12.185478 18.916016 12.105469 C 18.965752 11.743461 19 11.376104 19 11 C 19 10.697842 18.979577 10.400691 18.947266 10.107422 C 18.914899 9.8136509 18.863849 9.5253175 18.800781 9.2421875 C 18.752423 9.0250915 18.700279 8.8095544 18.634766 8.5996094 C 18.622896 8.5615734 18.606707 8.5257013 18.59375 8.4882812 C 18.554629 8.3692352 18.511262 8.2531897 18.466797 8.1367188 C 18.410771 7.9899657 18.351361 7.845532 18.287109 7.703125 C 18.284825 7.698062 18.28339 7.69263 18.28125 7.6875 C 18.279445 7.683522 18.277202 7.6797553 18.275391 7.6757812 C 18.250757 7.6217242 18.223058 7.569022 18.197266 7.515625 C 18.100634 7.315567 17.997131 7.1199495 17.884766 6.9296875 C 17.883287 6.9271835 17.882341 6.924377 17.880859 6.921875 C 17.822835 6.823871 17.765158 6.7260894 17.703125 6.6308594 C 17.547114 6.3913604 17.381269 6.1601331 17.201172 5.9394531 C 17.021484 5.7192751 16.830759 5.5082267 16.628906 5.3085938 C 16.536244 5.2169498 16.436899 5.1319579 16.339844 5.0449219 C 16.338482 5.0437009 16.3373 5.0422356 16.335938 5.0410156 C 16.053186 4.7878036 15.75652 4.5510768 15.439453 4.3398438 C 14.170485 3.4944437 12.645621 3 11 3 z M 8.484375 4.4707031 C 8.461552 4.5141091 8.4390311 4.5580026 8.3925781 4.5722656 C 8.4048781 4.6374656 8.3164416 4.6788887 8.3066406 4.7304688 C 8.3006406 4.7651687 8.3161594 4.8063406 8.3183594 4.8378906 C 8.3383594 5.1571906 8.0747029 5.3074381 7.7636719 5.2988281 C 7.7025719 5.3572281 7.7186469 5.466815 7.6855469 5.546875 C 7.6575469 5.614175 7.5574954 5.6854275 7.4902344 5.6796875 C 7.4405344 5.6756875 7.3848856 5.6049637 7.3847656 5.5585938 C 7.3846056 5.5014937 7.4673687 5.47151 7.4179688 5.40625 C 7.4249687 5.36185 7.5238787 5.336315 7.5117188 5.265625 C 7.4992187 5.192025 7.3963475 5.23015 7.3046875 5.21875 C 7.2530835 5.211787 7.1928239 5.182168 7.1386719 5.15625 C 7.5570629 4.879955 8.009023 4.6529981 8.484375 4.4707031 z M 13.890625 5.2226562 C 13.863425 5.2266562 13.836653 5.2321928 13.814453 5.2460938 C 13.763653 5.2770937 13.746291 5.3247437 13.707031 5.3398438 C 13.652831 5.3603438 13.615422 5.3427781 13.607422 5.3925781 C 13.601422 5.4336781 13.641925 5.4536875 13.640625 5.4921875 C 13.620925 5.5411875 13.564487 5.5540912 13.554688 5.6132812 C 13.622184 5.7236212 13.785191 5.6251094 13.869141 5.5996094 C 13.906941 5.5886094 13.960009 5.5906479 13.980469 5.5605469 C 14.003769 5.5252469 13.983553 5.4631794 14.001953 5.4121094 C 14.021353 5.3559094 14.074959 5.3490081 14.068359 5.2988281 C 14.062359 5.2490281 13.972435 5.2145562 13.890625 5.2226562 z M 6.5507812 6 C 6.6113812 6.0158 6.7717019 6.1913869 6.6386719 6.2480469 C 6.6260719 6.2540469 6.4436404 6.2729781 6.4121094 6.2675781 C 6.3660094 6.2605781 6.3376856 6.1957 6.2910156 6.1875 C 6.1988156 6.1713 6.0749287 6.2980494 6.0117188 6.1933594 C 6.0278187 6.1340594 6.0936125 6.1323812 6.1640625 6.1132812 C 6.2891625 6.0791813 6.4425413 5.97172 6.5507812 6 z M 6.8046875 6.3222656 C 6.8359875 6.3242656 6.8743694 6.3585281 6.9121094 6.3613281 C 6.9478094 6.3633281 6.9761459 6.3420562 6.9980469 6.3476562 C 7.0538469 6.3623563 7.0779906 6.4470012 7.0253906 6.4882812 C 6.9817906 6.4932812 6.9646406 6.4688094 6.9316406 6.4746094 C 6.8409406 6.4902094 6.8060413 6.6679894 6.7382812 6.6621094 C 6.6743812 6.6561094 6.6401781 6.5014481 6.7050781 6.4550781 C 6.7070781 6.4145781 6.6756344 6.4070875 6.6777344 6.3671875 C 6.6973344 6.3421875 6.7514775 6.3177656 6.8046875 6.3222656 z M 6.5039062 6.3417969 C 6.5224063 6.3424069 6.5380219 6.3478687 6.5449219 6.3554688 C 6.5359219 6.4265688 6.4786981 6.4218481 6.4238281 6.4550781 C 6.3289281 6.5123781 6.2743316 6.6002762 6.2441406 6.7226562 C 6.2351406 6.7585562 6.1428163 6.8511869 6.0976562 6.8417969 C 5.9917263 6.8195969 6.1262906 6.6253731 6.1503906 6.5957031 C 6.1769906 6.5628031 6.2126406 6.5339927 6.2441406 6.4960938 C 6.2746406 6.4592937 6.2948188 6.4090319 6.3242188 6.3886719 C 6.3565188 6.3664719 6.4481263 6.3396969 6.5039062 6.3417969 z M 16.009766 6.3828125 L 16.011719 6.3828125 C 16.059295 6.3956805 16.055643 6.4377016 16.091797 6.4628906 C 16.118397 6.4813906 16.153694 6.4773938 16.183594 6.4960938 C 16.218694 6.5181938 16.237744 6.576005 16.277344 6.609375 C 16.333344 6.656475 16.432849 6.6909156 16.511719 6.7285156 C 16.527401 6.7359746 16.546143 6.7472354 16.564453 6.7558594 C 16.614999 6.8221274 16.666646 6.8869671 16.714844 6.9550781 C 16.713779 6.9639851 16.711617 6.9744879 16.712891 6.9824219 C 16.718891 7.0220219 16.746625 7.0634837 16.765625 7.0898438 C 16.817225 7.1609438 16.890446 7.2242469 16.947266 7.3105469 C 16.946562 7.3930809 16.981199 7.4399136 17.039062 7.4628906 C 17.146622 7.6466946 17.245158 7.8351859 17.335938 8.0292969 C 17.306244 8.0273329 17.275554 8.0252641 17.246094 8.0175781 C 17.180394 7.9017081 16.848782 7.8940131 16.820312 8.0644531 C 16.807613 8.1396531 16.857894 8.2448425 16.746094 8.2578125 C 16.675094 8.2668125 16.603129 8.1851625 16.505859 8.1640625 C 16.465959 8.1550625 16.409926 8.1615906 16.378906 8.1503906 C 16.306106 8.1252906 16.314563 8.0559088 16.251953 8.0117188 C 16.215553 7.9862187 16.121953 7.9496594 16.064453 7.9433594 C 16.028653 7.9393594 15.994791 7.9542188 15.957031 7.9492188 C 15.912131 7.9442188 15.848467 7.913725 15.810547 7.890625 C 15.774347 7.868525 15.700606 7.8343344 15.691406 7.8027344 C 15.677206 7.7535344 15.781656 7.6981 15.785156 7.65625 C 15.787156 7.62475 15.746081 7.6051406 15.738281 7.5566406 C 15.733281 7.5273406 15.750441 7.4960625 15.744141 7.4765625 C 15.743141 7.4420625 15.676837 7.4033438 15.623047 7.4023438 C 15.575447 7.4017338 15.530944 7.4421594 15.490234 7.4433594 C 15.431534 7.4434594 15.336332 7.4103156 15.263672 7.4160156 C 15.219172 7.4200156 15.178129 7.4460188 15.136719 7.4492188 C 15.020369 7.4502188 14.925953 7.4432187 14.835938 7.4492188 C 14.770333 7.4532187 14.656723 7.4741531 14.595703 7.5019531 C 14.564703 7.5160531 14.541853 7.5501125 14.501953 7.5703125 C 14.483953 7.5793125 14.459447 7.5789438 14.435547 7.5898438 C 14.397647 7.6070437 14.358336 7.64715 14.322266 7.65625 C 14.270066 7.66965 14.190103 7.6463906 14.095703 7.6503906 C 14.027903 7.6543906 13.914984 7.6525125 13.914062 7.5703125 C 13.913063 7.4467525 14.125504 7.4924031 14.242188 7.4707031 C 14.286186 7.4617031 14.308858 7.421825 14.361328 7.390625 C 14.386428 7.375625 14.417806 7.3736219 14.441406 7.3574219 C 14.481906 7.3296219 14.542938 7.2625987 14.548828 7.2304688 C 14.554828 7.2007687 14.531656 7.1587188 14.535156 7.1367188 C 14.540156 7.1086187 14.573075 7.0787687 14.609375 7.0429688 C 14.665675 6.9874687 14.725832 6.9133831 14.794922 6.8769531 C 14.842122 6.8520531 14.908014 6.8540062 14.929688 6.8164062 C 14.934684 6.7736063 14.922828 6.7478444 14.923828 6.7089844 C 14.952928 6.6824844 14.971794 6.66145 14.996094 6.65625 C 15.068094 6.64065 15.138866 6.706725 15.222656 6.703125 C 15.258856 6.701125 15.291218 6.6761906 15.330078 6.6503906 C 15.362778 6.6286906 15.397687 6.6120041 15.429688 6.5957031 C 15.464987 6.5774031 15.502142 6.5378563 15.544922 6.5351562 C 15.649992 6.5291562 15.690551 6.6457144 15.738281 6.7089844 C 15.778281 6.7615844 15.891471 6.8517419 15.957031 6.8886719 C 15.993931 6.9093719 16.043364 6.9112875 16.083984 6.9296875 C 16.170684 6.9685875 16.342943 7.0986237 16.345703 7.1835938 C 16.347703 7.2259937 16.3059 7.257805 16.3125 7.296875 C 16.3781 7.307875 16.449642 7.2356319 16.451172 7.1699219 C 16.451782 7.1288219 16.410069 7.10575 16.417969 7.0625 C 16.448669 6.9964 16.538565 7.0641194 16.578125 7.0371094 C 16.571125 6.9624094 16.468057 6.9547956 16.404297 6.9160156 C 16.369897 6.8950156 16.3482 6.8505375 16.3125 6.8359375 C 16.2608 6.8147375 16.204322 6.8201625 16.164062 6.7890625 C 16.126265 6.7598625 16.109466 6.6947706 16.072266 6.6503906 C 16.018066 6.5858906 15.899101 6.5752975 15.931641 6.4296875 C 15.947546 6.4080875 15.984571 6.3752085 16.009766 6.3828125 z M 7.2949219 6.5839844 C 7.3287219 6.5846044 7.3590469 6.5884625 7.3730469 6.6015625 C 7.3513469 6.6897625 7.1612669 6.6684188 7.0917969 6.6367188 C 7.0957969 6.6036187 7.1478063 6.5942437 7.1914062 6.5898438 C 7.2223062 6.5878438 7.2609319 6.5839844 7.2949219 6.5839844 z M 15.5625 6.7441406 C 15.5192 6.7583406 15.4966 6.8516412 15.5625 6.8632812 C 15.5932 6.8448813 15.616975 6.8200719 15.609375 6.7636719 C 15.592475 6.7453719 15.5768 6.7393406 15.5625 6.7441406 z M 6.8613281 6.7460938 C 6.8841281 6.7454838 6.9079406 6.7468594 6.9316406 6.7558594 C 6.8700406 6.8073594 6.8027956 6.8357606 6.6972656 6.8691406 C 6.6464656 6.8852406 6.5593613 6.9063094 6.5507812 6.8496094 C 6.5397812 6.7802094 6.625495 6.7951625 6.671875 6.7890625 C 6.730275 6.7820625 6.7929381 6.7482937 6.8613281 6.7460938 z M 15.544922 6.9316406 C 15.523422 6.9376406 15.499463 6.9525625 15.476562 6.9765625 C 15.477564 7.0511625 15.485703 7.0993125 15.470703 7.1640625 C 15.513703 7.2463625 15.608919 7.1733875 15.630859 7.1171875 C 15.656659 6.9782275 15.609022 6.9141406 15.544922 6.9316406 z M 16.113281 7.3007812 C 16.054615 7.2989333 15.999169 7.3014411 15.964844 7.3300781 C 16.013744 7.4101781 16.115199 7.4372712 16.224609 7.4570312 C 16.264109 7.4274312 16.267156 7.3616169 16.285156 7.3105469 C 16.237799 7.3111499 16.174056 7.3038492 16.115234 7.3007812 L 16.113281 7.3007812 z M 4.2675781 10.011719 C 4.4312781 10.006719 4.5025756 10.219576 4.6347656 10.285156 C 4.6678656 10.301856 4.7111263 10.3028 4.7539062 10.3125 C 4.7886062 10.3195 4.8144563 10.334403 4.8476562 10.345703 C 4.9182562 10.369603 5.00603 10.367478 5.0625 10.392578 C 5.1476 10.430378 5.20806 10.590005 5.28125 10.632812 C 5.28525 10.676013 5.2741094 10.733395 5.2871094 10.765625 C 5.3217094 10.812425 5.3707644 10.803384 5.4277344 10.833984 C 5.4958344 10.870784 5.5174713 10.965141 5.5820312 10.994141 C 5.6040313 10.995141 5.6601425 11.003272 5.6953125 11.013672 C 5.7838125 11.040372 5.8127719 11.143504 5.8886719 11.121094 C 5.9384719 11.106594 5.9335073 11.055382 5.9414062 11.007812 C 5.9743062 10.972017 6.01122 10.915063 6.0625 10.914062 C 6.1455 10.913063 6.1533037 10.999458 6.1835938 11.080078 C 6.2004937 11.125578 6.2441594 11.164881 6.2558594 11.212891 C 6.2763594 11.295891 6.267 11.54415 6.25 11.59375 C 6.229 11.65465 6.1464531 11.680597 6.0957031 11.748047 C 6.0719031 11.779547 6.0611687 11.825456 6.0429688 11.847656 C 6.0104688 11.887456 5.9598969 11.898747 5.9355469 11.935547 C 5.9216469 11.956147 5.9096844 12.001397 5.8964844 12.029297 C 5.8562844 12.114297 5.8022375 12.173411 5.8359375 12.275391 C 5.8497375 12.317291 5.9158156 12.345151 5.9160156 12.394531 C 5.9161456 12.452731 5.7928041 12.504599 5.7832031 12.568359 C 5.7762031 12.615559 5.8210375 12.701962 5.8359375 12.763672 C 5.8469375 12.810372 5.9353706 12.838101 5.9628906 12.869141 C 6.0096906 12.921741 6.0470237 12.99642 6.0898438 13.0625 C 6.1744438 13.19249 6.2417988 13.350644 6.3242188 13.476562 C 6.3675188 13.542563 6.4279912 13.601482 6.4570312 13.669922 C 6.4717313 13.704522 6.470475 13.746294 6.484375 13.777344 C 6.532075 13.885114 6.7428125 13.997331 6.8515625 14.050781 C 6.9024625 14.075781 6.9571962 14.085128 7.0039062 14.111328 C 7.0746063 14.150828 7.2162231 14.256309 7.2519531 14.318359 C 7.2839531 14.374159 7.3027594 14.508986 7.3183594 14.597656 C 7.3389594 14.714866 7.3192188 14.804731 7.3242188 14.931641 C 7.3282187 15.000341 7.3506625 15.069872 7.3515625 15.138672 C 7.3518725 15.162672 7.3387906 15.182331 7.3378906 15.207031 C 7.3358906 15.290231 7.3587625 15.383007 7.3515625 15.466797 C 7.3475625 15.512397 7.3344906 15.549801 7.3378906 15.587891 C 7.3418906 15.629291 7.3620344 15.662949 7.3652344 15.699219 C 7.3672344 15.738319 7.3534219 15.789915 7.3574219 15.820312 C 7.3664219 15.904613 7.4287125 15.969815 7.4453125 16.046875 C 7.4585125 16.108275 7.4668844 16.235084 7.4589844 16.308594 C 7.4539844 16.347194 7.4316813 16.385464 7.4257812 16.427734 C 7.4217813 16.461134 7.4307812 16.496144 7.4257812 16.527344 C 7.4197812 16.574044 7.3897781 16.610767 7.3925781 16.654297 C 7.3985781 16.744297 7.4976187 16.818163 7.5117188 16.908203 C 7.5167187 16.938403 7.5048594 16.972853 7.5058594 17.001953 C 7.5068474 17.029373 7.5174756 17.053229 7.5253906 17.078125 C 5.4177136 15.874477 4 13.610488 4 11 C 4 10.68702 4.0269792 10.381966 4.0664062 10.080078 C 4.1297062 10.080388 4.1977981 10.013619 4.2675781 10.011719 z M 6.984375 10.767578 C 7.048475 10.738178 7.0644188 10.860511 7.0117188 10.869141 C 6.9618187 10.876141 6.935975 10.789908 6.984375 10.767578 z M 14 14 L 14 15 L 14 16 L 14 17 L 14 18 L 15 18 L 16 18 L 16 19 L 19 19 L 19 17 L 16 17 L 15 17 L 15 16 L 16 16 L 19 16 L 19 14 L 16 14 L 16 15 L 15 15 L 15 14 L 14 14 z "
     class="ColorScheme-Text"
     />
</svg>
