<svg xmlns="http://www.w3.org/2000/svg" viewBox="0 0 24 24">
  <defs id="defs3051">
    <style type="text/css" id="current-color-scheme">
      .ColorScheme-Text {
        color:#dedede;
      }
      </style>
  </defs>
  <path
     style="fill:currentColor;fill-opacity:1;stroke:none" 
     d="M 12 4 L 4 8.6230469 L 4 8.9980469 L 4 10 L 5 10 L 5 11 L 5 19 L 4 19 L 4 20 L 20 20 L 20 19 L 19 19 L 19 11 L 19 10 L 20 10 L 20 8.9980469 L 20 8.6230469 L 12 4 z M 12 5.15625 L 18.650391 8.9980469 L 5.3496094 8.9980469 L 12 5.15625 z M 6 10 L 8 10 L 8 11 L 8 19 L 6 19 L 6 11 L 6 10 z M 9 10 L 15 10 L 15 11 L 15 19 L 14 19 L 14 15 L 10 15 L 10 19 L 9 19 L 9 11 L 9 10 z M 16 10 L 18 10 L 18 11 L 18 19 L 16 19 L 16 11 L 16 10 z "
     class="ColorScheme-Text"
     />
</svg>
