<svg width="16" height="16" version="1.1" xmlns="http://www.w3.org/2000/svg">
 <path d="m4.7773 1c-2.6144 0.0010778-4.7773 2.1258-4.7773 4.75 0 1.3639 0.5828 2.6059 1.5039 3.4766l6.4961 6.1504 6.4961-6.1504c0.92111-0.87064 1.5039-2.1126 1.5039-3.4766 0-2.6249-2.164-4.75-4.7793-4.75-1.29 0-2.3623 0.62272-3.2227 1.4609-0.87843-0.85281-1.9643-1.4648-3.2188-1.4609zm0.00195 2h0.0039c0.96681-0.00337 1.8617 0.49848 2.3613 1.3262l0.85353 1.416 0.85742-1.4141c0.48521-0.80133 1.3456-1.3281 2.3652-1.3281 1.5447 0 2.7793 1.2149 2.7793 2.75 0 0.79605-0.33806 1.5141-0.87695 2.0234l-5.123 4.8496-5.123-4.8496c-0.53889-0.50936-0.87695-1.2274-0.87695-2.0234 0-1.5351 1.2346-2.75 2.7793-2.75z" color="#000000" fill="#aaaaaa" style="-inkscape-stroke:none"/>
</svg>
