<svg width="24" height="24" version="1.1" xmlns="http://www.w3.org/2000/svg">
 <g transform="translate(-341.41 -525.77)">
  <g transform="matrix(.28651 0 0 .28651 116.74 490.75)">
   <path d="m799.87 161.34c0-12.105 11.743-21.953 26.177-21.953 14.434 0 26.178 9.848 26.178 21.953 0 12.105-11.743 21.953-26.178 21.953-1.2136 0-2.4314-0.0703-3.6288-0.20901-5.5596 3.5318-9.6638 5.465-12.208 5.7476-0.0886 0.01-0.17753 0.0145-0.26473 0.0145-0.81707 0-1.5733-0.40718-2.0237-1.09-0.50338-0.76379-0.53621-1.7328-0.0878-2.5239 0.0208-0.0376 1.9839-3.6193 1.4176-7.0404-5.9723-4.1794-9.3823-10.287-9.3823-16.852z" fill="#ffffff"/>
  </g>
 </g>
</svg>
