<svg width="24" height="24" version="1.1" xmlns="http://www.w3.org/2000/svg">
 <path d="m17 13c-1.108 0-2 0.911-2 2.031v0.97h-1v4h6v-4h-1v-0.97c0-1.12-0.892-2.03-2-2.03zm0 1c0.554 0 1 0.443 1 1v1h-2v-1c0-0.557 0.446-1 1-1z" fill="#ffffff"/>
 <path d="m11.5 4.9999c-0.277 0-0.5 0.223-0.5 0.5v4.875l-1.7188-1.5c-0.312-0.273-0.7563-0.22025-1.0293 0.09375a0.753 0.753 0 0 0 0.060547 1.0625l2.25 1.9688-2.25 1.9688a0.753 0.753 0 0 0-0.0625 1.0625c0.274 0.313 0.71925 0.36675 1.0312 0.09375l1.7207-1.5v4.875c0 0.277 0.222 0.5 0.5 0.5 0.282 0 0.4363-0.0195 0.6543-0.1875l0.84375-0.75391v-2.0176l-1 0.89648v-3.6875l2.0137 1.7441c0.0081-0.57722 0.18493-1.1168 0.47461-1.5781l-1.6133-1.416 2.8125-2.4688a0.78 0.78 0 0 0 0.21875-0.375 0.712 0.712 0 0 0 0-0.4375 0.78 0.78 0 0 0-0.21875-0.375l-3.5312-3.1562c-0.199-0.16-0.42725-0.1875-0.65625-0.1875zm0.5 2.0625 2.0938 1.875-2.0938 1.8125z" color="#bebebe" fill="#ffffff"/>
</svg>
