<svg width="24" height="24" version="1.1" xmlns="http://www.w3.org/2000/svg">
 <path d="m11.995 8c0.65763 0 1.1922 0.19569 1.6041 0.58594 0.41192 0.38302 0.61719 0.87414 0.61719 1.474 0 0.26016-0.06843 0.52428-0.20573 0.79167-0.13731 0.26739-0.25879 0.4573-0.36719 0.57292-0.10117 0.1084-0.247 0.25104-0.4349 0.42448l-0.05208 0.05469c-0.44083 0.39747-0.66147 0.79263-0.66147 1.1901v0.4349h-1.0208v-0.51042c0-0.3252 0.06842-0.60208 0.20573-0.83334 0.13731-0.23848 0.37968-0.51796 0.72656-0.83594 0.19512-0.18067 0.33196-0.31432 0.41146-0.40104 0.08672-0.09395 0.17051-0.21861 0.25-0.3776 0.08672-0.16621 0.13021-0.33698 0.13021-0.51042 0-0.33243-0.10872-0.59974-0.32552-0.80209-0.20957-0.20235-0.50182-0.3047-0.87761-0.3047-0.6215 0-1.0474 0.3479-1.2786 1.0417l-0.9323-0.39063c0.15176-0.41192 0.41268-0.78158 0.78126-1.1068 0.37579-0.33243 0.85155-0.4974 1.4297-0.4974zm-0.0104 6.526c0.20957 0 0.38352 0.07161 0.52083 0.21615 0.14453 0.14454 0.21615 0.31848 0.21615 0.52083s-0.07161 0.3763-0.21615 0.52083c-0.13731 0.14453-0.31127 0.21615-0.52084 0.21615s-0.38672-0.07161-0.53126-0.21615c-0.13731-0.14454-0.20573-0.31848-0.20573-0.52083s0.06842-0.3763 0.20573-0.52083c0.14453-0.14453 0.32168-0.21615 0.53126-0.21615z" enable-background="new" fill="#ffffff"/>
 <path d="m6.002 7c-0.34766-9.221e-4 -0.67086 0.17879-0.85352 0.47461l-2.8945 3.8613c-0.16267 0.18228-0.25299 0.4178-0.25391 0.66211-1.558e-4 0.21949 0.071909 0.43294 0.20508 0.60742 0.00947 0.0126 0.01924 0.02497 0.029297 0.03711l2.9375 3.918c0.18564 0.27425 0.495 0.43881 0.82617 0.43945 0.55229 0.00108 1.0009-0.44576 1.002-0.99805-1.36e-4 -0.21459-0.069298-0.42344-0.19727-0.5957l0.00195-2e-3 -2.5508-3.4023 2.5508-3.4023-0.00391-0.00195c0.12866-0.172 0.19851-0.38086 0.19923-0.59566 0.0010797-0.55229-0.44576-1.0009-0.99805-1.002zm11.996 0c-0.55228 0.0010776-0.99913 0.44967-0.99805 1.002 7.01e-4 0.21481 0.07055 0.42369 0.19922 0.5957l-0.0039 0.00195 2.5508 3.4023-2.5508 3.4023 2e-3 2e-3c-0.12798 0.17224-0.19716 0.38108-0.19732 0.59566 0.0011 0.55229 0.44967 0.99913 1.002 0.99805 0.33117-6.47e-4 0.64054-0.1652 0.82617-0.43945l2.9375-3.918c0.01006-0.01214 0.01983-0.02451 0.0293-0.03711 0.13317-0.17448 0.20523-0.38793 0.20508-0.60742-9.14e-4 -0.24431-0.09123-0.47983-0.25391-0.66211l-2.8945-3.8613c-0.18266-0.29582-0.50585-0.47553-0.85352-0.47461z" fill="#ffffff"/>
</svg>
