<svg width="24" height="24" version="1.1" xmlns="http://www.w3.org/2000/svg">
 <path d="m12 6.9396c-2.6512 0-5.3024 0.82849-7.6221 2.4855l0.66279 0.66279c4.6396-3.024 9.3408-3.0753 13.919 0l0.66279-0.66279c-2.3198-1.657-4.971-2.4855-7.6221-2.4855zm0 3.1068c-1.9884 0-3.9768 0.66279-5.6338 1.9884l0.6628 0.66279c3.314-2.3198 6.6279-2.3405 9.9419 0l0.66279-0.66279c-1.657-1.3256-3.6454-1.9884-5.6338-1.9884zm0 2.8169c-1.3256 0-2.6512 0.4971-3.6454 1.4913l3.6454 3.6454 3.6454-3.6454c-0.99419-0.99419-2.3198-1.4913-3.6454-1.4913z" fill="#ffffff" stroke-width=".93589"/>
</svg>
