<?xml version="1.0" encoding="UTF-8" standalone="no"?>
<svg
   xmlns:dc="http://purl.org/dc/elements/1.1/"
   xmlns:cc="http://creativecommons.org/ns#"
   xmlns:rdf="http://www.w3.org/1999/02/22-rdf-syntax-ns#"
   xmlns:svg="http://www.w3.org/2000/svg"
   xmlns="http://www.w3.org/2000/svg"
   id="svg8"
   version="1.1"
   width="24"
   height="24">
  <metadata
     id="metadata14">
    <rdf:RDF>
      <cc:Work
         rdf:about="">
        <dc:format>image/svg+xml</dc:format>
        <dc:type
           rdf:resource="http://purl.org/dc/dcmitype/StillImage" />
        <dc:title></dc:title>
      </cc:Work>
    </rdf:RDF>
  </metadata>
  <defs
     id="defs12" />
  <path
     id="path4"
     d="M 6.3515625 4.7363281 L 5.4121094 5.6777344 L 18.955078 19.220703 L 19.894531 18.279297 L 18.488281 16.873047 A 1 1 0 0 0 18.828125 16.560547 L 21.765625 12.642578 A 1 1 0 0 0 21.794922 12.605469 A 1 1 0 0 0 22 11.998047 A 1 1 0 0 0 21.746094 11.335938 L 18.851562 7.4746094 A 1 1 0 0 0 17.998047 7 A 1 1 0 0 0 17 8.0019531 A 1 1 0 0 0 17.199219 8.5976562 L 17.195312 8.5996094 L 19.746094 12.001953 L 17.195312 15.404297 L 17.197266 15.40625 A 1 1 0 0 0 17.128906 15.513672 L 14.447266 12.832031 A 1 1 0 0 0 15 13 A 1 1 0 0 0 15 11 A 1 1 0 0 0 14.169922 12.554688 L 6.3515625 4.7363281 z M 5.5234375 7.1191406 A 1 1 0 0 0 5.1484375 7.4746094 L 2.2539062 11.335938 A 1 1 0 0 0 2 11.998047 A 1 1 0 0 0 2.2050781 12.605469 A 1 1 0 0 0 2.234375 12.642578 L 5.171875 16.560547 A 1 1 0 0 0 5.9980469 17 A 1 1 0 0 0 7 16.001953 A 1 1 0 0 0 6.8027344 15.40625 L 6.8046875 15.404297 L 4.2539062 12.001953 L 6.8046875 8.5996094 L 6.8007812 8.5976562 A 1 1 0 0 0 6.8789062 8.4746094 L 5.5234375 7.1191406 z M 9 11 A 1 1 0 0 0 9 13 A 1 1 0 0 0 9.7773438 11.373047 L 9.6269531 11.222656 A 1 1 0 0 0 9 11 z "
     style="opacity:0.5;vector-effect:none;fill:#ffffff;fill-opacity:1;stroke-width:1;stroke-linecap:butt;stroke-linejoin:miter;stroke-miterlimit:4;stroke-dasharray:none;stroke-dashoffset:0;stroke-opacity:1;font-variant-east_asian:normal;marker:none" />
</svg>
