<svg width="24" height="24" version="1.1" xmlns="http://www.w3.org/2000/svg">
 <g transform="matrix(.9036 0 0 .9036 -281.54 231.71)" stroke-width="1.1067">
  <path d="m322.5-252c-3.578 0-6.5 2.922-6.5 6.5s2.922 6.5 6.5 6.5c1.424 0 2.675-0.555 3.748-1.338l6.045 6.045 1.414-1.414-6.045-6.045c0.783-1.073 1.338-2.324 1.338-3.748 0-3.578-2.922-6.5-6.5-6.5zm0 2c2.497 0 4.5 2.003 4.5 4.5s-2.003 4.5-4.5 4.5a4.485 4.485 0 0 1-4.5-4.5c0-2.497 2.003-4.5 4.5-4.5z" color="#000000" fill="#ffffff" fill-rule="evenodd" font-weight="400" overflow="visible" stroke-width="1.2248" style="isolation:auto;mix-blend-mode:normal;text-decoration-color:#000000;text-decoration-line:none;text-decoration-style:solid;text-indent:0;text-transform:none;white-space:normal"/>
 </g>
</svg>
