<svg xmlns="http://www.w3.org/2000/svg" viewBox="0 0 24 24" xmlns:xlink="http://www.w3.org/1999/xlink">
 <defs>
  <path fill="url(#0)" id="H" d="m24 8c-8.863992 0-16 7.136008-16 16h16v-16"/>
  <path fill="url(#3)" id="I" d="m408.57143 539.798c8.86399 0 16-7.13601 16-16h-16v16"/>
  <path fill="url(#1)" id="J" d="m408.57143 539.798c-8.86399 0-16-7.13601-16-16h16v16"/>
  <linearGradient id="3" y1="523.8" y2="539.8" x1="424.57" x2="408.57" gradientUnits="userSpaceOnUse">
   <stop stop-color="#c1cc00"/>
   <stop offset="0.312" stop-color="#dfcd00"/>
   <stop offset="0.562" stop-color="#f0cc00"/>
   <stop offset="0.75" stop-color="#fd8c08"/>
   <stop offset="1" stop-color="#f25c13"/>
  </linearGradient>
  <linearGradient id="0" y1="24" y2="8" x1="8" x2="24" gradientUnits="userSpaceOnUse">
   <stop stop-color="#e81877"/>
   <stop offset="0.312" stop-color="#dd1d8c"/>
   <stop offset="0.562" stop-color="#6d57b1"/>
   <stop offset="0.75" stop-color="#2a78c1"/>
   <stop offset="1" stop-color="#018dcb"/>
  </linearGradient>
  <linearGradient id="2" y1="523.8" y2="507.8" x1="424.57" x2="408.57" gradientUnits="userSpaceOnUse">
   <stop stop-color="#bec900"/>
   <stop offset="0.312" stop-color="#9ec80a"/>
   <stop offset="0.562" stop-color="#71b93d"/>
   <stop offset="0.75" stop-color="#35a48f"/>
   <stop offset="1" stop-color="#018fca"/>
  </linearGradient>
  <linearGradient id="1" y1="523.8" y2="539.8" x1="392.57" x2="408.57" gradientUnits="userSpaceOnUse">
   <stop stop-color="#e51561"/>
   <stop offset="0.312" stop-color="#e4156c"/>
   <stop offset="0.562" stop-color="#e71e2c"/>
   <stop offset="0.75" stop-color="#e8301e"/>
   <stop offset="1" stop-color="#e6320e"/>
  </linearGradient>
 </defs>
  <g transform="translate(1 1)">
 <g transform="matrix(1.24886 0 0 1.24887 -2.738 -1289.52)">
  <g transform="matrix(0.38637 0.10353 -0.10353 0.38637 -92.63 796.68)">
   <use xlink:href="#H" clip-path="url(#5)" transform="matrix(1 0 0 1 384.57 499.8)"/>
   <use xlink:href="#J" clip-path="url(#6)"/>
   <path fill="url(#2)" d="m408.57143 507.798c8.86399 0 16 7.13601 16 16h-16v-16" clip-path="url(#7)"/>
   <use xlink:href="#I" clip-path="url(#8)"/>
  </g>
  <g opacity="0.7" transform="matrix(0.4 0 0 0.4 -152.43 831.84)">
   <use filter="url(#4)" xlink:href="#H" clip-path="url(#9)" transform="matrix(1 0 0 1 384.57 499.8)"/>
   <use filter="url(#4)" xlink:href="#J" clip-path="url(#A)"/>
   <use filter="url(#4)" xlink:href="#I" clip-path="url(#B)"/>
   <path fill="url(#2)" filter="url(#4)" d="m408.57143 507.798c8.86399 0 16 7.13601 16 16h-16v-16" clip-path="url(#C)"/>
  </g>
  <use opacity="0.35" xlink:href="#H" clip-path="url(#9)" transform="matrix(0.28284 0.28284 -0.28284 0.28284 11 1027.79)"/>
  <path opacity="0.35" fill="url(#1)" d="m408.57143 539.798c-8.86399 0-16-7.13601-16-16h16v16" clip-path="url(#A)" transform="matrix(0.28284 0.28284 -0.28284 0.28284 43.591 777.65)"/>
  <use opacity="0.35" xlink:href="#I" clip-path="url(#B)" transform="matrix(0.28284 0.28284 -0.28284 0.28284 43.591 777.65)"/>
  <path opacity="0.35" fill="url(#2)" d="m408.57143 507.798c8.86399 0 16 7.13601 16 16h-16v-16" clip-path="url(#C)" transform="matrix(0.28284 0.28284 -0.28284 0.28284 43.591 777.65)"/>
  <g transform="matrix(0.10353 0.38637 -0.38637 0.10353 171.08 829.27)">
   <use opacity="0.3" xlink:href="#H" clip-path="url(#D)" transform="matrix(1 0 0 1 384.57 499.8)"/>
   <use opacity="0.3" xlink:href="#J" clip-path="url(#E)"/>
   <use opacity="0.3" xlink:href="#I" clip-path="url(#F)"/>
   <path opacity="0.3" fill="url(#2)" d="m408.57143 507.798c8.86399 0 16 7.13601 16 16h-16v-16" clip-path="url(#G)"/>
  </g>
 </g>
 </g>
</svg>
