<svg version="1.1" viewBox="0 0 24 24" xmlns="http://www.w3.org/2000/svg">
 <style id="current-color-scheme" type="text/css">.ColorScheme-Text {
            color:#dedede;
        }</style>
 <g transform="translate(1,1)">
  <g class="ColorScheme-Text" fill="currentColor">
   <path d="m6.5 5.793-0.70703 0.70703 3.5 3.5c-1.1667 1.1667-2.3333 2.3333-3.5 3.5l0.70703 0.70703c1.4023-1.4023 2.8047-2.8047 4.207-4.207-1.4023-1.4023-2.8047-2.8047-4.207-4.207z"/>
   <path d="m10 15h6v1h-6z"/>
  </g>
 </g>
 <path d="m5 4c-1.108 0-2 0.892-2 2v12c0 1.108 0.892 2 2 2h14c1.108 0 2-0.892 2-2v-12c0-1.108-0.892-2-2-2h-14zm0 1h14c0.554 0 1 0.446 1 1v12c0 0.554-0.446 1-1 1h-14c-0.554 0-1-0.446-1-1v-12c0-0.554 0.446-1 1-1z" class="ColorScheme-Text" fill="currentColor"/>
</svg>
