<!DOCTYPE svg>
<svg viewBox="0 0 24 24" xmlns="http://www.w3.org/2000/svg" version="1.1">
    <defs>
        <style type="text/css" id="current-color-scheme">
            .ColorScheme-Text {
                color:#dedede;
            }
            .ColorScheme-NegativeText {
                color:#da4453;
            }
        </style>
    </defs><g transform="translate(1,1)">
    <path style="fill:currentColor; fill-opacity:1; stroke:none" d="M 13 6 L 15 6 L 15 10 L 19 10 L 19 13 L 20 13 L 20 9 L 16 5 L 12 5 L 13 6 Z M 8 19 L 13 19 L 13 18 L 9 18 L 9 17 L 8 17 L 8 19 Z M 15.707 14 L 15 14.707 L 16.793 16.5 L 15 18.293 L 15.707 19 L 17.5 17.207 L 19.293 19 L 20 18.293 L 18.207 16.5 L 20 14.707 L 19.293 14 L 17.5 15.793 L 15.707 14 Z" class="ColorScheme-NegativeText"/>
    <path style="fill:currentColor; fill-opacity:1; stroke:none" d="M 13 16 L 3 16 L 3 4 L 9 4 L 9 8 L 13 8 L 13 16 Z M 14 11 L 14 7 L 10 3 L 2 3 L 2 17 L 14 17 L 14 11 Z" class="ColorScheme-Text"/>
</g></svg>
