<svg xmlns="http://www.w3.org/2000/svg" viewBox="0 0 24 24">
  <defs id="defs3051">
    <style type="text/css" id="current-color-scheme">
      .ColorScheme-Text {
        color:#dedede;
      }
      </style>
  </defs>
 <path 
    style="fill:currentColor;fill-opacity:1;stroke:none" 
	d="m4 3v1 7 2h2v-2h-1v-7h12v7h1v-8h-13zm4 8v2h2v-2zm7.5 2c-.831 0-1.5.669-1.5 1.5v1.5h-1v3h5v-3h-1v-1.5c0-.831-.669-1.5-1.5-1.5m-9.5 1v2h2v-2zm9.5 0c.277 0 .5.223.5.5v1.5h-1v-1.5c0-.277.223-.5.5-.5m-11.5 3v2h1 1v-2zm4 0v2h2v-2z"
    class="ColorScheme-Text"
     transform="translate(1,1)"
    />
</svg>
