<svg xmlns="http://www.w3.org/2000/svg" viewBox="0 0 24 24">
  <defs id="defs3051">
    <style type="text/css" id="current-color-scheme">
      .ColorScheme-Text {
        color:#dedede;
      }
      </style>
  </defs>
 <path 
    style="fill:currentColor;fill-opacity:1;stroke:none" 
	d="m4 2.998047v.001953 2h2v-2h2v2h2v-2h2v2h2v-2h2v2h2v-2-.001953h-1-12-1m2 3.00195v2h2v-2h-2m4 0v2h2v-2h-2m4 0v2h2v-2h-2m-10 3v2 8h1 8 1v-.009766l.007812.009766 3.992188-3.992188v-.009765-1.40625-2.591797-2h-2v2h1v3h-4v1 3h-8v-7h1v-2h-2m4 0v2h2v-2h-2m4 0v2h2v-2h-2"
    class="ColorScheme-Text"
     transform="translate(1,1)"
    />
</svg>
