<svg xmlns="http://www.w3.org/2000/svg" viewBox="0 0 24 24">
  <defs id="defs3051">
    <style type="text/css" id="current-color-scheme">
      .ColorScheme-Text {
        color:#dedede;
      }
      .ColorScheme-Highlight {
        color:#3daee9;
      }
      </style>
  </defs>
 <path 
     style="fill:currentColor;fill-opacity:1;stroke:none" 
     d="M 8.5 4 C 6.567 4 5 5.7909 5 8 L 5 9 L 5 11 C 5 13.2091 6.567 15 8.5 15 C 10.433 15 12 13.2091 12 11 L 12 9 L 12 8 C 12 5.7909 10.433 4 8.5 4 z M 16.5 4 C 14.567 4 13 5.7909 13 8 L 13 9 L 13 11 C 13 13.2091 14.567 15 16.5 15 C 18.433 15 20 13.2091 20 11 L 20 9 L 20 8 C 20 5.7909 18.433 4 16.5 4 z M 8.5 5 C 9.88071 5 11 6.3432 11 8 L 11 11 C 11 12.6569 9.88071 14 8.5 14 C 7.11929 14 6 12.6569 6 11 L 6 8 C 6 6.3432 7.11929 5 8.5 5 z M 16.5 5 C 17.88071 5 19 6.3431 19 8 L 19 11 C 19 12.6569 17.88071 14 16.5 14 C 15.11929 14 14 12.6569 14 11 L 14 8 C 14 6.3431 15.11929 5 16.5 5 z M 4 14 L 4 15 L 5 15 L 5 14 L 4 14 z "
     class="ColorScheme-Text"
     />
 <path 
     style="fill:currentColor;fill-opacity:1;stroke:none" 
     d="M 16 16 L 16 18 L 14 18 L 14 19 L 16 19 L 16 21 L 17 21 L 17 19 L 19 19 L 19 18 L 17 18 L 17 16 L 16 16 z "
     class="ColorScheme-Highlight"
     />
</svg>
