<svg xmlns="http://www.w3.org/2000/svg" viewBox="0 0 24 24">
  <defs id="defs3051">
    <style type="text/css" id="current-color-scheme">
      .ColorScheme-Text {
        color:#dedede;
      }
      </style>
  </defs>
 <path style="fill:currentColor;fill-opacity:1;stroke:none" 
     d="M 15 4 L 15 6 L 15 7 L 15 9 L 15 10 L 16 10 L 18 10 C 19.108 10 20 9.108 20 8 C 20 7.1891 19.518727 6.4980937 18.828125 6.1835938 C 18.934063 5.9776938 19 5.7483 19 5.5 C 19 4.669 18.330999 4 17.5 4 L 16 4 L 15 4 z M 16 5 L 17.5 5 C 17.777 5 18 5.223 18 5.5 C 18 5.777 17.777 6 17.5 6 L 16 6 L 16 5 z M 9.2167969 6 L 4 20 L 5.6875 20 L 7.3554688 15.570312 L 12.917969 15.570312 L 14.451172 20 L 16.140625 20 L 11.210938 6 L 9.2167969 6 z M 16 7 L 17.5 7 L 18 7 C 18.553999 7 19 7.446 19 8 C 19 8.554 18.553999 9 18 9 L 16 9 L 16 7 z M 10.232422 7.6113281 L 12.361328 14.285156 L 7.8730469 14.285156 L 10.232422 7.6113281 z "
     class="ColorScheme-Text"
     />
</svg>
