<svg xmlns="http://www.w3.org/2000/svg" viewBox="0 0 24 24">
  <defs id="defs3051">
    <style type="text/css" id="current-color-scheme">
      .ColorScheme-Text {
        color:#dedede;
      }
      </style>
  </defs>
 <path style="fill:currentColor;fill-opacity:1;stroke:none" 
     d="M 12 4 C 7.5680032 4 4 7.5680032 4 12 C 4 16.431997 7.5680032 20 12 20 C 16.431997 20 20 16.431997 20 12 C 20 7.5680032 16.431997 4 12 4 z M 12 5 C 15.877998 5 19 8.1220024 19 12 C 19 15.877998 15.877998 19 12 19 C 8.1220024 19 5 15.877998 5 12 C 5 8.1220024 8.1220024 5 12 5 z M 15 9 L 10 14 L 8 12 L 7 13 L 10 16 L 16 10 L 15 9 z "
     class="ColorScheme-Text"
     />
</svg>
