<svg xmlns="http://www.w3.org/2000/svg" viewBox="0 0 24 24">
  <defs id="defs3051">
    <style type="text/css" id="current-color-scheme">
      .ColorScheme-Text {
        color:#dedede;
      }
      </style>
  </defs>
 <path style="fill:currentColor;fill-opacity:1;stroke:none" 
     d="M 4 5 L 4 6 L 4 18 L 4 19 L 11 19 L 11 18 L 5 18 L 5 6 L 15 6 L 15 10 L 19 10 L 19 12 L 20 12 L 20 9 L 16 5 L 5 5 L 4 5 z M 16 12 C 13.79086 12 12 13.790867 12 16 C 12 18.209133 13.79086 20 16 20 C 18.20914 20 20 18.209133 20 16 C 20 13.790867 18.20914 12 16 12 z M 16 12.666016 C 16.11506 12.666016 16.221924 12.676167 16.333984 12.6875 L 16.416016 12.6875 C 16.451082 12.694167 16.486751 12.701698 16.521484 12.707031 C 16.617251 12.722365 16.698202 12.748151 16.791016 12.771484 C 16.962082 12.813484 17.131496 12.869967 17.291016 12.9375 C 17.378969 12.974833 17.457116 13.0181 17.541016 13.0625 C 17.540969 13.069167 17.541549 13.074698 17.541016 13.082031 C 17.560349 13.090698 17.570916 13.128484 17.603516 13.146484 C 17.615516 13.153151 17.613733 13.160016 17.625 13.166016 C 17.644333 13.176682 17.670016 13.188365 17.666016 13.207031 C 17.660682 13.233698 17.622182 13.228047 17.603516 13.248047 C 17.606182 13.286714 17.5725 13.2865 17.5625 13.3125 C 17.5685 13.329167 17.600849 13.334182 17.603516 13.353516 C 17.600182 13.374849 17.5545 13.373198 17.5625 13.394531 C 17.5985 13.422531 17.632016 13.401198 17.666016 13.394531 C 17.740676 13.385198 17.807516 13.388182 17.853516 13.353516 C 17.847516 13.318182 17.920016 13.323016 17.916016 13.291016 C 17.935149 13.305016 17.959582 13.318031 17.978516 13.332031 C 17.971316 13.338698 17.966984 13.348229 17.958984 13.351562 C 17.944984 13.35823 17.928682 13.365047 17.916016 13.373047 C 17.897349 13.385047 17.874849 13.400729 17.853516 13.414062 C 17.838182 13.42473 17.807016 13.476562 17.791016 13.476562 C 17.771682 13.476562 17.742516 13.453031 17.728516 13.457031 C 17.708516 13.463698 17.7101 13.490714 17.6875 13.498047 C 17.6435 13.514047 17.556342 13.473729 17.541016 13.539062 C 17.559682 13.577064 17.632682 13.559411 17.666016 13.580078 C 17.686682 13.593411 17.723249 13.641396 17.728516 13.664062 C 17.733849 13.68273 17.736516 13.769062 17.728516 13.789062 C 17.707849 13.842397 17.645311 13.830745 17.583984 13.830078 L 17.541016 13.830078 C 17.437696 13.823411 17.337682 13.777562 17.291016 13.851562 C 17.294349 13.90823 17.303682 13.94676 17.291016 13.996094 C 17.281682 14.032094 17.226516 14.070496 17.228516 14.101562 C 17.229182 14.117564 17.267484 14.141396 17.271484 14.164062 C 17.274151 14.176064 17.266151 14.193745 17.271484 14.205078 C 17.288818 14.237745 17.322849 14.198411 17.353516 14.205078 C 17.382849 14.211745 17.416016 14.254443 17.416016 14.287109 C 17.416016 14.310443 17.411284 14.348427 17.396484 14.371094 C 17.367151 14.415094 17.313484 14.409594 17.271484 14.433594 C 17.236818 14.453594 17.229651 14.504662 17.208984 14.539062 C 17.186984 14.576397 17.157349 14.589045 17.166016 14.642578 C 17.136016 14.701911 17.103016 14.738911 17.041016 14.767578 C 17.023016 14.775578 16.995116 14.775109 16.978516 14.787109 C 16.965182 14.796443 16.956167 14.830229 16.9375 14.851562 C 16.914167 14.877564 16.887667 14.894062 16.875 14.914062 C 16.865667 14.929397 16.863449 14.955229 16.853516 14.976562 C 16.838849 15.004564 16.809616 15.011062 16.791016 15.039062 C 16.782349 15.052397 16.780751 15.084229 16.771484 15.101562 C 16.750151 15.14023 16.724516 15.171078 16.728516 15.205078 C 16.731849 15.237078 16.769484 15.238245 16.771484 15.267578 C 16.773484 15.283578 16.749333 15.29126 16.75 15.308594 C 16.750667 15.333927 16.769551 15.353047 16.771484 15.373047 C 16.776151 15.42238 16.737849 15.442829 16.728516 15.476562 C 16.723849 15.492564 16.732516 15.504911 16.728516 15.517578 C 16.720516 15.542245 16.688167 15.572229 16.6875 15.601562 C 16.686833 15.62223 16.726516 15.634729 16.728516 15.664062 C 16.729849 15.683397 16.704984 15.707896 16.708984 15.726562 C 16.716318 15.762564 16.784507 15.802078 16.8125 15.830078 C 16.8505 15.868078 16.899356 15.895347 16.916016 15.935547 C 16.930016 15.969547 16.932984 16.035147 16.958984 16.060547 C 16.978318 16.079214 17.016349 16.082229 17.041016 16.101562 C 17.064349 16.119564 17.078916 16.123245 17.103516 16.142578 C 17.144182 16.174578 17.206818 16.25076 17.271484 16.246094 C 17.305484 16.239427 17.336967 16.211078 17.375 16.205078 C 17.414333 16.198411 17.460007 16.18026 17.5 16.183594 C 17.530667 16.19026 17.571516 16.207078 17.603516 16.205078 C 17.636849 16.198411 17.671018 16.197594 17.708984 16.183594 C 17.774984 16.154927 17.882529 16.107427 17.978516 16.121094 C 18.051842 16.13176 18.052182 16.213427 18.103516 16.246094 C 18.162182 16.25276 18.20334 16.23476 18.25 16.246094 C 18.285333 16.25476 18.330651 16.302078 18.333984 16.330078 C 18.337318 16.358745 18.295016 16.396062 18.291016 16.414062 C 18.281682 16.45273 18.297682 16.492911 18.291016 16.517578 C 18.285682 16.536911 18.270818 16.560745 18.271484 16.580078 C 18.271484 16.597411 18.2945 16.641396 18.3125 16.664062 C 18.3345 16.692064 18.369818 16.716094 18.396484 16.746094 C 18.445151 16.802094 18.466 16.859594 18.5 16.933594 C 18.508667 16.95226 18.492 16.974047 18.5 16.998047 C 18.485333 17.10998 18.448333 17.186614 18.375 17.310547 C 18.340333 17.350547 18.290349 17.385614 18.291016 17.435547 C 18.288349 17.555547 18.358882 17.632047 18.353516 17.748047 C 18.341516 17.90398 18.365516 17.91478 18.353516 17.998047 C 18.406182 18.024714 18.368849 18.108662 18.353516 18.164062 C 18.330849 18.230064 18.303682 18.245062 18.291016 18.289062 C 18.326416 18.304397 18.376696 18.298397 18.416016 18.289062 C 18.396149 18.30973 18.373849 18.330896 18.353516 18.351562 C 18.202709 18.502364 18.030849 18.647711 17.853516 18.767578 C 17.509489 18.999978 17.128144 19.176511 16.708984 19.267578 C 16.479958 19.317578 16.243927 19.330078 16 19.330078 C 15.873113 19.330078 15.747913 19.324547 15.625 19.310547 C 15.527093 19.299214 15.429124 19.288865 15.333984 19.269531 C 15.145204 19.230865 14.966702 19.151098 14.791016 19.082031 C 14.785016 19.070698 14.770018 19.052397 14.771484 19.039062 C 14.806151 19.024396 14.871158 19.088397 14.896484 19.039062 C 14.909151 19.015729 14.879818 18.95888 14.896484 18.935547 C 14.908484 18.919547 14.97534 18.920682 15 18.916016 C 15.035333 18.909349 15.085469 18.903865 15.105469 18.894531 C 15.127469 18.880531 15.150484 18.831882 15.146484 18.791016 C 15.144484 18.771682 15.120735 18.76538 15.105469 18.748047 C 15.092802 18.73338 15.114135 18.720365 15.105469 18.707031 C 15.089469 18.683698 15.049569 18.678531 15.042969 18.644531 C 15.090969 18.635198 15.161142 18.685349 15.230469 18.666016 C 15.263135 18.656682 15.318651 18.593233 15.333984 18.5625 C 15.338651 18.553167 15.328651 18.531531 15.333984 18.519531 C 15.339984 18.507531 15.353469 18.484516 15.355469 18.478516 C 15.360135 18.460516 15.351469 18.470984 15.355469 18.458984 C 15.367469 18.424984 15.396016 18.399 15.416016 18.375 C 15.431349 18.356333 15.464516 18.331833 15.478516 18.3125 C 15.494516 18.291833 15.4894 18.290151 15.5 18.271484 C 15.51 18.210818 15.463849 18.156782 15.478516 18.103516 C 15.494516 18.043516 15.588491 18.005849 15.646484 17.978516 C 15.666484 17.969182 15.692384 17.964984 15.708984 17.958984 C 15.748984 17.944984 15.796651 17.930635 15.833984 17.917969 C 15.896651 17.895302 15.906833 17.850235 15.9375 17.792969 C 15.952167 17.766302 15.975849 17.728318 15.978516 17.708984 C 15.981182 17.691651 15.975182 17.687969 15.978516 17.667969 C 15.981849 17.648635 15.973182 17.628135 15.978516 17.605469 C 15.985849 17.576802 16 17.512402 16 17.480469 C 16 17.453802 15.979116 17.441969 15.978516 17.417969 C 15.973849 17.331302 16.009082 17.340302 16.041016 17.292969 C 16.057016 17.269635 16.072718 17.225651 16.083984 17.208984 C 16.137984 17.128984 16.235182 17.101802 16.228516 16.980469 C 16.225849 16.940469 16.195282 16.846651 16.166016 16.833984 C 16.149349 16.826651 16.128116 16.821167 16.103516 16.8125 C 16.024856 16.783167 15.956993 16.694167 15.875 16.6875 L 15.833984 16.6875 C 15.801984 16.6875 15.764509 16.672635 15.728516 16.667969 C 15.705849 16.661302 15.659818 16.674635 15.646484 16.667969 C 15.625818 16.657969 15.620182 16.616802 15.603516 16.605469 C 15.590182 16.596135 15.561616 16.591318 15.541016 16.583984 C 15.508349 16.571984 15.496984 16.544969 15.458984 16.542969 C 15.446984 16.542969 15.429349 16.549635 15.416016 16.542969 C 15.395349 16.536302 15.374735 16.533484 15.355469 16.521484 C 15.331469 16.506818 15.302902 16.501135 15.292969 16.480469 C 15.314969 16.408535 15.245069 16.397469 15.230469 16.355469 C 15.223802 16.336135 15.237135 16.290771 15.230469 16.273438 C 15.221802 16.24877 15.195235 16.229651 15.167969 16.208984 C 15.119969 16.171651 15.090144 16.155151 15.021484 16.146484 C 14.990818 16.139818 14.954629 16.153151 14.917969 16.146484 C 14.879302 16.139818 14.822295 16.117318 14.792969 16.083984 C 14.764969 16.051318 14.755069 16.017353 14.730469 16.001953 C 14.707135 15.987286 14.683969 15.973651 14.667969 15.958984 C 14.660635 15.952318 14.653151 15.953453 14.646484 15.939453 C 14.634484 15.914786 14.610333 15.906953 14.625 15.876953 C 14.598333 15.86362 14.612651 15.901151 14.583984 15.896484 C 14.557984 15.859818 14.539102 15.823451 14.480469 15.833984 C 14.453802 15.840651 14.427818 15.895818 14.396484 15.896484 C 14.370484 15.896484 14.3465 15.839318 14.3125 15.833984 C 14.2865 15.827318 14.248469 15.858802 14.230469 15.855469 C 14.201802 15.848802 14.193902 15.831786 14.167969 15.814453 C 14.148635 15.801786 14.116135 15.77277 14.105469 15.773438 C 14.072135 15.773438 14.045967 15.83912 14 15.814453 C 13.977333 15.785786 14.048218 15.77862 14.021484 15.751953 C 14.001484 15.73262 13.996469 15.762151 13.980469 15.771484 C 13.961802 15.783484 13.938569 15.785635 13.917969 15.792969 C 13.871969 15.810302 13.828962 15.815318 13.792969 15.833984 C 13.759635 15.851318 13.749735 15.862484 13.730469 15.896484 C 13.715135 15.924484 13.691235 15.979135 13.667969 15.980469 C 13.639969 15.980469 13.630802 15.950786 13.605469 15.939453 C 13.528809 15.90612 13.481295 15.957651 13.417969 15.958984 C 13.359302 15.958984 13.268818 15.867833 13.271484 15.8125 C 13.273484 15.7785 13.289035 15.7295 13.292969 15.6875 C 13.296302 15.654167 13.333384 15.614384 13.333984 15.583984 C 13.334651 15.542651 13.257135 15.526151 13.230469 15.521484 C 13.167802 15.510151 13.092811 15.549484 13.021484 15.521484 C 13.008151 15.498818 13.035035 15.481651 13.042969 15.458984 C 13.047635 15.446984 13.038302 15.431302 13.042969 15.417969 C 13.050969 15.396635 13.095535 15.378135 13.105469 15.355469 C 13.112802 15.338135 13.098135 15.314969 13.105469 15.292969 C 13.114135 15.268969 13.144484 15.247802 13.146484 15.230469 C 13.149151 15.207802 13.123402 15.180682 13.105469 15.166016 C 13.050135 15.172682 13.012469 15.1735 12.980469 15.1875 C 12.908475 15.220167 12.928135 15.311318 12.855469 15.333984 C 12.830802 15.341984 12.799484 15.348849 12.771484 15.353516 C 12.759284 15.360182 12.744135 15.353516 12.730469 15.353516 C 12.731802 15.346849 12.729135 15.340651 12.730469 15.333984 C 12.733802 15.318651 12.746733 15.307635 12.75 15.292969 C 12.797533 15.076302 12.871578 14.866569 12.958984 14.667969 L 12.980469 14.667969 C 13.005802 14.674635 13.020969 14.707651 13.042969 14.708984 C 13.104302 14.715651 13.117302 14.651667 13.167969 14.625 C 13.219969 14.632333 13.245642 14.618333 13.292969 14.625 C 13.324969 14.631667 13.371158 14.663349 13.396484 14.666016 C 13.417818 14.666016 13.4175 14.643818 13.4375 14.646484 C 13.4575 14.653151 13.496733 14.684984 13.5 14.708984 C 13.503333 14.738984 13.471735 14.779433 13.480469 14.8125 C 13.511802 14.8445 13.580333 14.856333 13.625 14.875 C 13.654333 14.850333 13.629667 14.806151 13.625 14.771484 C 13.624333 14.756151 13.627 14.722984 13.625 14.708984 C 13.621667 14.684984 13.605469 14.667151 13.605469 14.646484 C 13.605469 14.551151 13.686007 14.515782 13.75 14.478516 C 13.777333 14.462516 13.809984 14.428016 13.833984 14.416016 C 13.867984 14.399349 13.889969 14.410484 13.917969 14.396484 C 13.968635 14.367818 14.003635 14.323482 14.042969 14.291016 C 14.060969 14.247682 14.040969 14.189151 14.042969 14.146484 C 14.060969 14.135151 14.086202 14.146484 14.105469 14.146484 C 14.136135 14.139818 14.150635 14.101318 14.167969 14.083984 C 14.177969 14.073984 14.196984 14.0725 14.208984 14.0625 C 14.239651 14.0385 14.244818 14.010667 14.271484 14 C 14.280818 13.993333 14.297833 13.983182 14.3125 13.978516 C 14.3325 13.971849 14.364484 13.970984 14.396484 13.958984 C 14.417151 13.951651 14.472469 13.946167 14.480469 13.9375 C 14.490469 13.9275 14.477802 13.890333 14.480469 13.875 C 14.496469 13.799733 14.600642 13.796884 14.667969 13.771484 C 14.714635 13.754151 14.7605 13.699784 14.8125 13.708984 C 14.8025 13.744984 14.762818 13.747682 14.771484 13.791016 C 14.782818 13.851682 14.853667 13.780151 14.875 13.771484 C 14.915667 13.754151 14.989635 13.728984 15.042969 13.708984 C 15.089635 13.692318 15.168993 13.679 15.125 13.625 C 15.088333 13.618333 15.074969 13.653349 15.042969 13.666016 C 15.020969 13.672682 15.018667 13.648484 15 13.646484 C 14.982 13.646484 14.976984 13.669349 14.958984 13.666016 C 14.940984 13.659349 14.920635 13.625516 14.917969 13.603516 C 14.910635 13.547516 14.957869 13.541533 14.980469 13.5 C 14.965135 13.449333 14.898129 13.478318 14.855469 13.458984 C 14.860135 13.428984 14.882702 13.401198 14.917969 13.394531 C 14.946635 13.387865 15.025635 13.402016 15.042969 13.416016 C 15.052969 13.424682 15.027702 13.443698 15.042969 13.457031 C 15.060302 13.472365 15.082869 13.463698 15.105469 13.457031 C 15.113469 13.419031 15.055833 13.440682 15.0625 13.416016 C 15.107833 13.386682 15.194673 13.401865 15.25 13.394531 C 15.282 13.387865 15.326802 13.368849 15.355469 13.353516 C 15.382135 13.338182 15.389969 13.308651 15.417969 13.333984 C 15.425969 13.361318 15.411951 13.381818 15.396484 13.396484 C 15.345151 13.441818 15.289993 13.488416 15.25 13.541016 C 15.274667 13.565016 15.314102 13.557833 15.355469 13.5625 C 15.371469 13.569167 15.401369 13.5625 15.417969 13.5625 C 15.437969 13.569167 15.462516 13.555833 15.478516 13.5625 C 15.506516 13.569167 15.513082 13.625 15.541016 13.625 C 15.586349 13.625 15.567016 13.571016 15.541016 13.541016 C 15.549016 13.509682 15.5739 13.480984 15.5625 13.458984 C 15.541833 13.417651 15.462984 13.471302 15.458984 13.417969 C 15.456318 13.384635 15.488 13.380802 15.5 13.355469 C 15.494667 13.291469 15.547682 13.288469 15.541016 13.230469 C 15.537682 13.206469 15.516667 13.210167 15.5 13.1875 C 15.491333 13.1755 15.488449 13.134333 15.478516 13.125 C 15.443849 13.095667 15.379 13.1185 15.375 13.0625 C 15.373 13.029167 15.379667 12.994718 15.375 12.958984 C 15.370333 12.924984 15.341767 12.819167 15.3125 12.8125 C 15.275167 12.8045 15.253684 12.875818 15.208984 12.896484 C 15.184984 12.907818 15.128176 12.920016 15.103516 12.916016 C 15.087516 12.909349 15.0645 12.906333 15.0625 12.875 C 15.059833 12.847 15.093116 12.8345 15.103516 12.8125 C 15.106182 12.805833 15.102182 12.800302 15.103516 12.792969 C 15.151916 12.779635 15.200813 12.761333 15.25 12.75 C 15.277933 12.743333 15.305784 12.735802 15.333984 12.730469 C 15.353918 12.723802 15.376484 12.737135 15.396484 12.730469 C 15.485518 12.713802 15.574649 12.69812 15.666016 12.689453 C 15.776842 12.67812 15.885933 12.667969 16 12.667969 L 16 12.666016 z M 14.646484 12.978516 C 14.625284 13.100182 14.510667 13.149951 14.375 13.146484 C 14.344333 13.175818 14.370316 13.230818 14.353516 13.271484 C 14.339516 13.305484 14.283993 13.336651 14.25 13.333984 C 14.225333 13.333984 14.1875 13.294818 14.1875 13.271484 C 14.1875 13.242818 14.233718 13.241651 14.208984 13.208984 C 14.210318 13.202318 14.221582 13.194167 14.228516 13.1875 C 14.241982 13.178833 14.257884 13.174016 14.271484 13.166016 C 14.392284 13.091682 14.516124 13.037182 14.646484 12.978516 z M 17.4375 13.103516 C 17.425233 13.110182 17.426816 13.118333 17.416016 13.125 C 17.390682 13.140333 17.372849 13.159349 17.353516 13.166016 C 17.326182 13.176016 17.294949 13.182365 17.291016 13.207031 C 17.287682 13.227698 17.313233 13.22938 17.3125 13.248047 C 17.3025 13.272714 17.296349 13.2825 17.291016 13.3125 C 17.325016 13.367833 17.395507 13.299682 17.4375 13.291016 C 17.456167 13.284349 17.468516 13.283531 17.478516 13.269531 C 17.489849 13.251531 17.4914 13.232365 17.5 13.207031 C 17.509333 13.179031 17.544349 13.169198 17.541016 13.144531 C 17.538349 13.119865 17.4788 13.100182 17.4375 13.103516 z M 13.791016 13.521484 C 13.822616 13.546818 13.86774 13.601267 13.8125 13.625 C 13.805833 13.631667 13.724984 13.649151 13.708984 13.646484 C 13.702318 13.646484 13.6931 13.629667 13.6875 13.625 C 13.721967 13.591667 13.755156 13.553484 13.791016 13.521484 z M 13.916016 13.646484 C 13.932016 13.646484 13.940318 13.686833 13.958984 13.6875 C 13.976984 13.6875 13.989333 13.663349 14 13.666016 C 14.028 13.673349 14.048218 13.729333 14.021484 13.75 C 13.999484 13.756667 13.994516 13.725849 13.978516 13.728516 C 13.933182 13.736516 13.909 13.836651 13.875 13.833984 C 13.843 13.827318 13.820782 13.751849 13.853516 13.728516 C 13.854182 13.708516 13.852182 13.708167 13.853516 13.6875 C 13.863516 13.6755 13.889349 13.644484 13.916016 13.646484 z M 13.75 13.666016 C 13.759333 13.666016 13.768218 13.659349 13.771484 13.666016 C 13.766818 13.701349 13.755849 13.711849 13.728516 13.728516 C 13.681182 13.757182 13.640333 13.792516 13.625 13.853516 C 13.620333 13.871516 13.563682 13.920282 13.541016 13.916016 C 13.488349 13.904682 13.571984 13.806282 13.583984 13.791016 C 13.597318 13.774349 13.609667 13.768667 13.625 13.75 C 13.640333 13.731333 13.651349 13.698167 13.666016 13.6875 C 13.682016 13.676167 13.722 13.666635 13.75 13.667969 L 13.75 13.666016 z M 18.271484 13.771484 C 18.324151 13.764818 18.351 13.821516 18.375 13.853516 C 18.395 13.879516 18.445849 13.9195 18.478516 13.9375 C 18.497182 13.9475 18.520349 13.969849 18.541016 13.978516 C 18.584349 13.997849 18.664016 14.060849 18.666016 14.103516 C 18.666682 14.124849 18.643084 14.146016 18.646484 14.166016 C 18.679151 14.172682 18.708318 14.116651 18.708984 14.083984 C 18.770251 14.170651 18.822067 14.261116 18.875 14.353516 C 18.9 14.396849 18.935918 14.433516 18.958984 14.478516 C 18.929584 14.487182 18.920749 14.491531 18.916016 14.519531 C 18.909349 14.556865 18.931 14.6184 18.875 14.625 C 18.839667 14.631667 18.79866 14.595318 18.75 14.583984 C 18.73 14.577318 18.7035 14.590651 18.6875 14.583984 C 18.650833 14.571984 18.656267 14.522 18.625 14.5 C 18.607 14.487333 18.550151 14.461651 18.521484 14.458984 C 18.503484 14.458984 18.497182 14.465651 18.478516 14.458984 C 18.455849 14.452318 18.415151 14.468318 18.396484 14.458984 C 18.378484 14.447651 18.338651 14.411818 18.333984 14.396484 C 18.326651 14.371818 18.395151 14.355318 18.396484 14.333984 C 18.397818 14.317984 18.378267 14.294198 18.375 14.269531 C 18.372333 14.254865 18.378333 14.238516 18.375 14.228516 C 18.370333 14.211182 18.339767 14.209651 18.3125 14.208984 L 18.25 14.208984 L 18.125 14.208984 L 18.0625 14.208984 C 18.0045 14.215651 17.961349 14.202318 17.916016 14.208984 C 17.883349 14.208984 17.821682 14.236667 17.791016 14.25 C 17.775682 14.257333 17.77 14.259531 17.75 14.269531 C 17.740667 14.276198 17.720984 14.285682 17.708984 14.291016 C 17.690318 14.299682 17.664418 14.326698 17.646484 14.332031 C 17.620484 14.338698 17.588316 14.325365 17.541016 14.332031 C 17.507016 14.332031 17.459651 14.310198 17.458984 14.269531 C 17.458318 14.207531 17.56634 14.239849 17.625 14.228516 C 17.647 14.221849 17.660833 14.2035 17.6875 14.1875 C 17.700167 14.180167 17.697051 14.174016 17.708984 14.166016 C 17.728984 14.152016 17.768218 14.119516 17.771484 14.103516 C 17.774151 14.088849 17.769484 14.073833 17.771484 14.0625 C 17.774151 14.0485 17.7945 14.040151 17.8125 14.021484 C 17.8405 13.993484 17.861818 13.9555 17.896484 13.9375 C 17.919818 13.9255 17.948318 13.915151 17.958984 13.896484 C 17.961651 13.875151 17.958318 13.875469 17.958984 13.855469 C 17.973651 13.842135 17.988 13.836651 18 13.833984 C 18.036 13.825984 18.061549 13.833984 18.103516 13.833984 C 18.121516 13.833984 18.146749 13.842651 18.166016 13.833984 C 18.182016 13.823318 18.192984 13.800302 18.208984 13.792969 C 18.226318 13.783635 18.250151 13.772818 18.271484 13.771484 z M 18.646484 14.166016 L 18.5625 14.166016 C 18.533167 14.166016 18.495849 14.150682 18.478516 14.166016 C 18.503182 14.206016 18.548189 14.218516 18.603516 14.228516 C 18.623516 14.213849 18.637151 14.192016 18.646484 14.166016 z M 14.083984 13.791016 L 14.146484 13.791016 C 14.163151 13.791016 14.180833 13.784349 14.1875 13.791016 C 14.176833 13.835016 14.075682 13.8285 14.041016 13.8125 C 14.043016 13.795833 14.062651 13.793682 14.083984 13.791016 z M 13.9375 13.875 C 13.908367 13.896333 13.880218 13.922833 13.833984 13.9375 C 13.808651 13.9455 13.776151 13.944016 13.771484 13.916016 C 13.766151 13.881349 13.811318 13.899818 13.833984 13.896484 C 13.863318 13.889818 13.9035 13.876333 13.9375 13.875 z M 18.271484 13.875 C 18.249484 13.882333 18.238818 13.930833 18.271484 13.9375 C 18.286818 13.928167 18.295082 13.903667 18.291016 13.875 C 18.282349 13.865667 18.278084 13.868333 18.271484 13.875 z M 18.228516 13.978516 C 18.229182 14.015849 18.235849 14.051584 18.228516 14.083984 C 18.249849 14.125318 18.30184 14.0905 18.3125 14.0625 C 18.325167 13.993167 18.303484 13.969849 18.271484 13.978516 C 18.260818 13.985182 18.239782 13.969849 18.228516 13.978516 z M 12.708984 15.541016 C 12.746584 15.575016 12.767533 15.624218 12.8125 15.646484 C 12.829167 15.655151 12.853733 15.660682 12.875 15.666016 C 12.892333 15.672682 12.899349 15.659349 12.916016 15.666016 C 12.951349 15.678016 12.993491 15.694365 13.021484 15.707031 C 13.064151 15.725698 13.109818 15.791167 13.146484 15.8125 C 13.148484 15.833833 13.139818 15.859 13.146484 15.875 C 13.163818 15.898333 13.180984 15.9215 13.208984 15.9375 C 13.242984 15.956167 13.259016 15.985333 13.291016 16 C 13.302349 16.006667 13.316651 15.993333 13.333984 16 C 13.377984 16.013333 13.399467 16.073567 13.4375 16.0625 C 13.462167 16.055167 13.455051 16.024 13.458984 16 C 13.475651 15.982 13.495484 15.958984 13.521484 15.958984 C 13.562818 15.958984 13.568651 16.0223 13.583984 16.0625 C 13.592651 16.085167 13.619 16.101 13.625 16.125 C 13.635 16.166333 13.633667 16.287833 13.625 16.3125 C 13.614333 16.343167 13.566349 16.341 13.541016 16.375 C 13.529016 16.391 13.530751 16.426167 13.521484 16.4375 C 13.505484 16.456833 13.490516 16.462469 13.478516 16.480469 C 13.471849 16.490469 13.464918 16.508151 13.458984 16.521484 C 13.438984 16.564151 13.399349 16.595151 13.416016 16.646484 C 13.422682 16.667151 13.458984 16.684318 13.458984 16.708984 C 13.458984 16.738318 13.401151 16.760969 13.396484 16.792969 C 13.393151 16.816302 13.408749 16.843667 13.416016 16.875 C 13.421349 16.898333 13.464516 16.922167 13.478516 16.9375 C 13.501849 16.9635 13.519749 17.009969 13.541016 17.042969 C 13.583016 17.107635 13.605184 17.186667 13.646484 17.25 C 13.668484 17.282667 13.713849 17.299318 13.728516 17.333984 C 13.735849 17.351318 13.721849 17.380484 13.728516 17.396484 C 13.752516 17.450484 13.862022 17.516369 13.916016 17.542969 C 13.941349 17.555635 13.976667 17.549167 14 17.5625 C 14.035333 17.5825 14.107007 17.636902 14.125 17.667969 C 14.141 17.695969 14.138551 17.7679 14.146484 17.8125 C 14.156484 17.871167 14.143818 17.917069 14.146484 17.980469 C 14.148484 18.015135 14.166016 18.027833 14.166016 18.0625 C 14.166016 18.0745 14.166682 18.112333 14.166016 18.125 C 14.165349 18.166333 14.169349 18.208 14.166016 18.25 C 14.164016 18.272667 14.164682 18.293167 14.166016 18.3125 C 14.168016 18.333167 14.186233 18.337469 14.1875 18.355469 C 14.188833 18.374802 14.163949 18.402635 14.166016 18.417969 C 14.170682 18.459969 14.200984 18.482618 14.208984 18.521484 C 14.215651 18.552151 14.232516 18.631302 14.228516 18.667969 C 14.225849 18.687302 14.211651 18.708469 14.208984 18.730469 C 14.206984 18.747802 14.211651 18.756151 14.208984 18.771484 C 14.206984 18.786818 14.212984 18.799833 14.208984 18.8125 C 14.187718 18.799167 14.167351 18.785484 14.146484 18.771484 C 13.969151 18.651618 13.797291 18.506269 13.646484 18.355469 C 13.626084 18.334802 13.603851 18.312349 13.583984 18.291016 C 13.463598 18.164282 13.349427 18.019467 13.25 17.875 C 13.241 17.861667 13.237316 17.846651 13.228516 17.833984 C 13.113149 17.661118 13.019373 17.486569 12.9375 17.292969 C 12.9315 17.278969 12.921682 17.264 12.916016 17.25 C 12.845762 17.077333 12.790713 16.894651 12.75 16.708984 C 12.742333 16.673651 12.735049 16.640869 12.728516 16.605469 C 12.711982 16.516402 12.696767 16.425384 12.6875 16.333984 C 12.6761 16.220984 12.666016 16.115067 12.666016 16 C 12.666016 15.8416 12.687584 15.693549 12.708984 15.541016 z "
     class="ColorScheme-Text"
     />
</svg>
