<svg xmlns="http://www.w3.org/2000/svg" viewBox="0 0 24 24">
  <defs id="defs3051">
    <style type="text/css" id="current-color-scheme">
      .ColorScheme-Text {
        color:#dedede;
      }
      </style>
  </defs>
 <path style="fill:currentColor;fill-opacity:1;stroke:none" 
     d="M 16 5 L 4 8.4179688 L 4 9.4609375 L 4 14 L 4 14.582031 L 5 14.867188 L 5 17 L 5 17.300781 L 11 19 L 11 18 L 11 16.576172 L 16 18 L 16 16.957031 L 16 6.0429688 L 16 5 z M 20.029297 5.4277344 L 19.257812 6.0585938 C 20.395073 7.8308338 20.99974 9.8922968 21 11.998047 C 20.996 14.101927 20.38858 16.160516 19.25 17.929688 L 20.033203 18.572266 C 21.314753 16.619026 21.99831 14.334187 22 11.998047 C 21.996 9.6628468 21.311497 7.3794244 20.029297 5.4277344 z M 15 6.328125 L 15 16.671875 L 5 13.824219 L 5 9.1757812 L 15 6.328125 z M 17.689453 7.34375 L 16.908203 7.9824219 C 17.619993 9.2012119 17.99667 10.586627 18 11.998047 C 17.998 13.409947 17.621596 14.796065 16.910156 16.015625 L 17.691406 16.65625 C 18.544636 15.25208 18.99719 13.641117 19 11.998047 C 18.996 10.356117 18.542683 8.74659 17.689453 7.34375 z M 3 8.703125 L 2 8.9882812 L 2 9 L 2 10 L 2 13 L 2 14 L 2 14.011719 L 3 14.296875 L 3 14 L 3 13.253906 L 3 9.7460938 L 3 9 L 3 8.703125 z M 6 15.152344 L 10 16.291016 L 10 17.716797 L 6 16.583984 L 6 15.152344 z "
     class="ColorScheme-Text"
     />
</svg>
