<svg xmlns="http://www.w3.org/2000/svg" viewBox="0 0 24 24">
  <defs id="defs3051">
    <style type="text/css" id="current-color-scheme">
      .ColorScheme-Text {
        color:#dedede;
      }
      </style>
  </defs><g transform="translate(1,1)">
 <path 
     style="fill:currentColor;fill-opacity:1;stroke:none" 
     d="M 4.5 3 A 1.4999979 1.5 0 0 0 3 4.5 A 1.4999979 1.5 0 0 0 4 5.9121094 L 4 16.087891 A 1.4999979 1.5 0 0 0 3 17.5 A 1.4999979 1.5 0 0 0 4.5 19 A 1.4999979 1.5 0 0 0 6 17.5 A 1.4999979 1.5 0 0 0 5 16.087891 L 5 11.730469 A 2 2 0 0 0 6 12 L 16 12 A 1 1 0 0 1 17 13 L 17 16.087891 A 1.4999979 1.5 0 0 0 16 17.5 A 1.4999979 1.5 0 0 0 17.5 19 A 1.4999979 1.5 0 0 0 19 17.5 A 1.4999979 1.5 0 0 0 18 16.087891 L 18 13 A 2 2 0 0 0 16 11 L 6 11 A 1 1 0 0 1 5 10 L 5 5.9121094 A 1.4999979 1.5 0 0 0 6 4.5 A 1.4999979 1.5 0 0 0 4.5 3 z M 4.5 4 A 0.5 0.5 0 0 1 5 4.5 A 0.5 0.5 0 0 1 4.5 5 A 0.5 0.5 0 0 1 4 4.5 A 0.5 0.5 0 0 1 4.5 4 z M 4.5 17 A 0.5 0.5 0 0 1 5 17.5 A 0.5 0.5 0 0 1 4.5 18 A 0.5 0.5 0 0 1 4 17.5 A 0.5 0.5 0 0 1 4.5 17 z M 17.5 17 A 0.5 0.5 0 0 1 18 17.5 A 0.5 0.5 0 0 1 17.5 18 A 0.5 0.5 0 0 1 17 17.5 A 0.5 0.5 0 0 1 17.5 17 z "
     class="ColorScheme-Text"
     />
</g></svg>
