<svg xmlns="http://www.w3.org/2000/svg" viewBox="0 0 24 24">
  <defs id="defs3051">
    <style type="text/css" id="current-color-scheme">
      .ColorScheme-Text {
        color:#dedede;
      }
      </style>
  </defs><g transform="translate(1,1)">
 <path 
     style="fill:currentColor;fill-opacity:1;stroke:none" 
     d="M 6.5 3 A 1.500015 1.500015 0 0 0 5 4.5 A 1.500015 1.500015 0 0 0 6 5.9121094 L 6 15 A 2 2 0 0 0 8 17 L 9 17 L 9 19 L 12 16.5 L 9 14 L 9 16 L 8 16 A 1 1 0 0 1 7 15 L 7 5.9121094 A 1.500015 1.500015 0 0 0 8 4.5 A 1.500015 1.500015 0 0 0 6.5 3 z M 13 3 L 10 5.5 L 13 8 L 13 6 L 14 6 A 1 1 0 0 1 15 7 L 15 16.087891 A 1.500015 1.500015 0 0 0 14 17.5 A 1.500015 1.500015 0 0 0 15.5 19 A 1.500015 1.500015 0 0 0 17 17.5 A 1.500015 1.500015 0 0 0 16 16.087891 L 16 7 A 2 2 0 0 0 14 5 L 13 5 L 13 3 z M 6.5 4 A 0.5 0.5 0 0 1 7 4.5 A 0.5 0.5 0 0 1 6.5 5 A 0.5 0.5 0 0 1 6 4.5 A 0.5 0.5 0 0 1 6.5 4 z M 15.5 17 A 0.5 0.5 0 0 1 16 17.5 A 0.5 0.5 0 0 1 15.5 18 A 0.5 0.5 0 0 1 15 17.5 A 0.5 0.5 0 0 1 15.5 17 z "
     class="ColorScheme-Text"
     />
</g></svg>
