<svg xmlns="http://www.w3.org/2000/svg" viewBox="0 0 24 24">
  <defs id="defs3051">
    <style type="text/css" id="current-color-scheme">
      .ColorScheme-Text {
        color:#dedede;
      }
      </style>
  </defs><g transform="translate(1,1)">
 <path 
    style="fill:currentColor;fill-opacity:1;stroke:none" 
	d="M 2 3 L 2 19 L 11 19 L 11 18 L 11 11 L 18 11 L 19 11 L 19 3 L 2 3 z M 18 11 L 17.003906 11.994141 L 17 11.994141 L 12 16.988281 L 12.007812 16.990234 L 12.003906 17.992188 L 12 17.992188 L 12 18.982422 L 14 18.982422 L 14.005859 18.982422 L 14.009766 18.982422 L 14.019531 18.982422 L 14.013672 18.980469 L 15 17.994141 L 19 14.001953 L 18.294922 13.292969 L 13.304688 18.275391 L 12.710938 17.683594 L 17.703125 12.699219 L 18.294922 13.292969 L 19 13.996094 L 20 12.996094 L 18 11 z M 3 4 L 10 4 L 10 10 L 3 10 L 3 4 z M 11 4 L 18 4 L 18 10 L 11 10 L 11 4 z M 6.0800781 5.0019531 C 5.5402063 4.9805793 5.0146542 5.1785419 4.6230469 5.5507812 C 3.9624223 6.1786461 3.8098264 7.1737319 4.2519531 7.9707031 C 4.6945213 8.7673952 5.6197228 9.1641396 6.5019531 8.9355469 C 7.3838742 8.7068867 7.9997998 7.9110819 8 7 L 6 7 L 7.0585938 5.3027344 C 6.7640388 5.1192826 6.4268204 5.0156266 6.0800781 5.0019531 z M 3 11 L 10 11 L 10 18 L 3 18 L 3 11 z "
    class="ColorScheme-Text"
    />
</g></svg>
