<?xml version="1.0" encoding="UTF-8" standalone="no"?>
<svg
   width="24"
   height="24"
   enable-background="new"
   version="1.1"
   id="svg4"
   sodipodi:docname="media-skip-backward.svg"
   inkscape:version="1.1.1 (3bf5ae0d25, 2021-09-20, custom)"
   xmlns:inkscape="http://www.inkscape.org/namespaces/inkscape"
   xmlns:sodipodi="http://sodipodi.sourceforge.net/DTD/sodipodi-0.dtd"
   xmlns="http://www.w3.org/2000/svg"
   xmlns:svg="http://www.w3.org/2000/svg">
  <defs
     id="defs8" />
  <sodipodi:namedview
     id="namedview6"
     pagecolor="#ffffff"
     bordercolor="#666666"
     borderopacity="1.0"
     inkscape:pageshadow="2"
     inkscape:pageopacity="0.0"
     inkscape:pagecheckerboard="0"
     showgrid="false"
     inkscape:zoom="22.15625"
     inkscape:cx="8.0112835"
     inkscape:cy="10.899859"
     inkscape:window-width="1920"
     inkscape:window-height="1011"
     inkscape:window-x="0"
     inkscape:window-y="0"
     inkscape:window-maximized="1"
     inkscape:current-layer="svg4" />
  <path
     id="path2"
     style="fill:#dedede;fill-opacity:1;stroke-width:0.828362"
     d="m 19.197266,7.0007577 c 0.02525,0.00106 0.05036,0.00448 0.07617,0.00781 0.206958,0.02595 0.379032,0.1179235 0.517579,0.2753906 C 19.92956,7.441425 20,7.6255785 20,7.8366952 v 8.3300788 c 0,0.211116 -0.07045,0.393314 -0.208984,0.550781 -0.138547,0.157459 -0.310643,0.249431 -0.517579,0.275391 -0.206958,0.02596 -0.393658,-0.01928 -0.566406,-0.138672 l -5.628906,-3.650391 v 2.962891 c 0,0.211116 -0.07241,0.393313 -0.210937,0.550781 -0.138548,0.157459 -0.308691,0.249431 -0.515626,0.275391 -0.206958,0.02596 -0.395611,-0.01928 -0.568359,-0.138672 L 5.361328,12.690211 C 5.209103,12.584653 5.101109,12.439194 5.042969,12.26443 5.013884,12.176181 5,12.090019 5,12.002711 5,11.915404 5.013884,11.828391 5.042969,11.740992 5.101137,11.56622 5.208846,11.422486 5.359375,11.315211 l 6.423828,-4.1679689 c 0.150658,-0.1059884 0.315401,-0.1539744 0.492188,-0.1464844 0.02526,0.00106 0.05036,0.00448 0.07617,0.00781 0.206959,0.02595 0.377078,0.1179235 0.515626,0.2753906 0.138544,0.1574642 0.210937,0.3416177 0.210937,0.5527344 V 10.799586 L 18.707031,7.1472421 C 18.857689,7.0412537 19.020478,6.9932677 19.197266,7.0007577 Z M 5,12.002711 v 3.998047 c 0,0.554 -0.446,1 -1,1 -0.554,0 -1,-0.446 -1,-1 V 8.0007577 c 0,-0.554 0.446,-1 1,-1 0.554,0 1,0.446 1,1 z" />
</svg>
