<?xml version="1.0" encoding="UTF-8" standalone="no"?>
<svg
   width="24"
   height="24"
   enable-background="new"
   version="1.1"
   id="svg4"
   sodipodi:docname="media-eject.svg"
   inkscape:version="1.1.1 (3bf5ae0d25, 2021-09-20, custom)"
   xmlns:inkscape="http://www.inkscape.org/namespaces/inkscape"
   xmlns:sodipodi="http://sodipodi.sourceforge.net/DTD/sodipodi-0.dtd"
   xmlns="http://www.w3.org/2000/svg"
   xmlns:svg="http://www.w3.org/2000/svg">
  <defs
     id="defs8" />
  <sodipodi:namedview
     id="namedview6"
     pagecolor="#ffffff"
     bordercolor="#666666"
     borderopacity="1.0"
     inkscape:pageshadow="2"
     inkscape:pageopacity="0.0"
     inkscape:pagecheckerboard="0"
     showgrid="false"
     inkscape:zoom="22.627417"
     inkscape:cx="6.9826795"
     inkscape:cy="12.750019"
     inkscape:window-width="1920"
     inkscape:window-height="996"
     inkscape:window-x="0"
     inkscape:window-y="0"
     inkscape:window-maximized="1"
     inkscape:current-layer="svg4" />
  <path
     id="path1402"
     style="color:#000000;fill:#dedede;stroke:none;stroke-width:2;stroke-linecap:round;stroke-linejoin:round;-inkscape-stroke:none"
     d="m 11.845459,5.01219 c -0.208697,0.033205 -0.401512,0.1316642 -0.550781,0.28125 l -7,7.999516 C 3.6651222,13.92295 4.1110726,14.999637 5.0017092,14.999987 H 19.001709 c 0.890637,-3.5e-4 1.180613,-1.095768 0.707031,-1.707031 l -7,-7.999516 C 12.482568,5.0669439 12.161646,4.9623902 11.845459,5.01219 Z M 5.0017092,16.999987 c -0.554,0 -1,0.446 -1,1 0,0.554 0.446,1 1,1 H 19.001709 c 0.554,0 1,-0.446 1,-1 0,-0.554 -0.446,-1 -1,-1 z"
     sodipodi:nodetypes="ccccccccsssssss" />
</svg>
