<svg xmlns="http://www.w3.org/2000/svg" viewBox="0 0 24 24">
  <defs id="defs3051">
    <style type="text/css" id="current-color-scheme">
      .ColorScheme-Text {
        color:#dedede;
      }
      </style>
  </defs>
 <path style="fill:currentColor;fill-opacity:1;stroke:none" 
     d="M 4 4 L 4 7 L 4 20 L 5 20 L 10 20 L 10 19 L 5 19 L 5 7 L 17 7 L 17 11 L 18 11 L 18 7 L 18 6 L 18 4 L 16 4 L 16 5 L 15 5 L 15 4 L 7 4 L 7 5 L 6 5 L 6 4 L 4 4 z M 6 8 L 6 9 L 16 9 L 16 8 L 6 8 z M 6 11 L 6 12 L 16 12 L 16 11 L 6 11 z M 18 12 L 17.003906 12.994141 L 17 12.990234 L 12 17.988281 L 12.007812 17.996094 L 12.003906 19 L 12 19 L 12 19.990234 L 12 20 L 14 20 L 14.005859 19.994141 L 14.009766 19.990234 C 14.013766 19.990214 14.015531 19.992187 14.019531 19.992188 L 14.013672 19.986328 L 15 19 L 19 15.003906 L 18.294922 14.294922 L 13.304688 19.28125 L 12.710938 18.689453 L 17.703125 13.701172 L 18.294922 14.294922 L 19 14.998047 L 20 13.998047 L 18 12 z M 6 14 L 6 15 L 13 15 L 13 14 L 6 14 z "
     class="ColorScheme-Text"
     />
</svg>
