<svg xmlns="http://www.w3.org/2000/svg" viewBox="0 0 24 24">
  <defs id="defs3051">
    <style type="text/css" id="current-color-scheme">
      .ColorScheme-Text {
        color:#dedede;
      }
      </style>
  </defs><g transform="translate(1,1)">
    <path 
        style="fill:currentColor;fill-opacity:1;stroke:none" 
        d="M 10 3 L 10 10 L 12 10 L 12 3 L 10 3 z M 9 3.265625 C 5.5444518 4.1502188 3 7.2610109 3 11 C 3 15.432 6.568 19 11 19 C 15.432 19 19 15.432 19 11 C 19 7.2610109 16.455548 4.1502188 13 3.265625 L 13 4.3027344 C 15.895041 5.15992 18 7.819625 18 11 C 18 14.878 14.878 18 11 18 C 7.122 18 4 14.878 4 11 C 4 7.819625 6.1049587 5.15992 9 4.3027344 L 9 3.265625 z " 
        class="ColorScheme-Text"
        />
</g></svg>
