<svg width="24" height="24" version="1.1" xmlns="http://www.w3.org/2000/svg" xmlns:xlink="http://www.w3.org/1999/xlink">
 <defs>
  <style id="current-color-scheme" type="text/css">.ColorScheme-Text {
        color:#dedede;
      }</style>
 </defs>
 <path class="ColorScheme-Text" d="m12.025 13.982c-0.28029 4.02e-4 -0.50741 0.22752-0.50781 0.50781-6.8e-4 0.28105 0.22676 0.50937 0.50781 0.50977h1.9746v3.9824h-1.9746c-0.28029 4.02e-4 -0.50741 0.22752-0.50781 0.50781-6.8e-4 0.28105 0.22676 0.50937 0.50781 0.50977h4.1387c0.9124 0 1.6603-0.39114 2.1367-0.9668s0.69922-1.3128 0.69922-2.043c0-0.73021-0.22282-1.4673-0.69922-2.043-0.4764-0.57566-1.2243-0.96484-2.1367-0.96484zm2.9922 1.0176h1.1465c0.63929 0 1.0541 0.23386 1.3535 0.5957 0.29945 0.36184 0.46484 0.87475 0.46484 1.3945 0 0.51979-0.16539 1.0327-0.46484 1.3945-0.29945 0.36184-0.71422 0.59766-1.3535 0.59766h-1.1465z" fill="currentColor"/>
 <path class="ColorScheme-Text" d="m20 7.3379a0.50854 0.50854 0 0 0-0.08008-0.24414 0.50854 0.50854 0 0 0-0.70312-0.15039l-0.2168 0.14062v-3.334a0.5086 0.5086 0 0 0-0.50781-0.50977h-1a0.50854 0.50854 0 0 0-0.50781 0.50977 0.50854 0.50854 0 0 0 0.50781 0.50781h0.49219v6.7422h-0.49219a0.50854 0.50854 0 0 0-0.50781 0.50781 0.50854 0.50854 0 0 0 0.50781 0.50781h1a0.5086 0.5086 0 0 0 0.50781-0.50781v-3.2129l0.76758-0.49805a0.50854 0.50854 0 0 0 0.23242-0.45898zm-3-2.0371a0.50854 0.50854 0 0 0-0.50781-0.50781 0.50854 0.50854 0 0 0-0.50781 0.50781v2.9668l-0.60547-0.71094a0.5086 0.5086 0 0 0-0.38672-0.17773h-0.53906l0.04687-3.623a0.50854 0.50854 0 0 0-0.50195-0.51562 0.50854 0.50854 0 0 0-0.51367 0.50195l-0.04688 3.6367h-1.4453c-0.07464 0-0.21327-0.05521-0.32227-0.16797s-0.16992-0.26267-0.16992-0.35742v-1.0352a0.50854 0.50854 0 0 0-0.50781-0.50976 0.50854 0.50854 0 0 0-0.50781 0.50976v1.0352c0 0.42248 0.18908 0.78928 0.45508 1.0645 0.266 0.27517 0.62738 0.47852 1.0527 0.47852h1.4316l-0.04102 3.1055a0.50854 0.50854 0 0 0 0.50196 0.51367 0.50854 0.50854 0 0 0 0.51562-0.50195l0.03906-3.1172h0.31836l1.3477 1.5801a0.5086 0.5086 0 0 0 0.89453-0.33008z" fill="currentColor"/>
 <path class="ColorScheme-Text" d="m6.4828 21-2.5862-3h2.0689v-15h1.0345v15h2.0689z" fill="currentColor"/>
 <path class="ColorScheme-Text" d="m20 1c1.662 0 3 1.338 3 3v16c0 1.662-1.338 3-3 3h-16c-1.662 0-3-1.338-3-3v-16c0-1.662 1.338-3 3-3zm0 1h-16c-1.108 0-2 0.892-2 2v16c0 1.108 0.892 2 2 2h16c1.108 0 2-0.892 2-2v-16c0-1.108-0.892-2-2-2z" fill="currentColor"/>
</svg>
