<svg xmlns="http://www.w3.org/2000/svg" viewBox="0 0 24 24">
  <defs id="defs3051">
    <style type="text/css" id="current-color-scheme">
      .ColorScheme-Text {
        color:#dedede;
      }
      </style>
  </defs>
 <path style="fill:currentColor;fill-opacity:1;stroke:none" 
     d="M 4 4 L 4 8 L 4 9 L 4 19 L 4 20 L 20 20 L 20 19 L 20 18 L 20 17 L 20 9 L 20 8 L 20 5.9003906 L 8 7 L 8 6 L 20 5 L 20 4 L 8 4 L 4 4 z M 5 9 L 19 9 L 19 11 L 5 11 L 5 9 z M 5 12 L 8 12 L 8 15 L 5 15 L 5 12 z M 9 12 L 15 12 L 15 15 L 9 15 L 9 12 z M 16 12 L 19 12 L 19 15 L 16 15 L 16 12 z M 5 16 L 15 16 L 15 17 L 5 17 L 5 16 z M 16 16 L 19 16 L 19 17 L 16 17 L 16 16 z M 5 18 L 15 18 L 16 18 L 19 18 L 19 19 L 5 19 L 5 18 z "
     class="ColorScheme-Text"
     />
</svg>
