<svg xmlns="http://www.w3.org/2000/svg" viewBox="0 0 24 24">
  <defs id="defs3051">
    <style type="text/css" id="current-color-scheme">
      .ColorScheme-Text {
        color:#dedede;
      }
      </style>
  </defs>
  <path style="fill:currentColor;fill-opacity:1;stroke:none" 
    d="m 7,4 c 0,0 -1,-3e-5 -1,1 l -2,0 0,3 0,11 0,1 16,0 0,-1 0,-11 0,-3 -2,0 C 18,3.99997 17,4 17,4 l -3,0 c 0,0 -1,-3e-5 -1,1 L 11,5 C 11,3.99997 10,4 10,4 L 7,4 Z m 0,1 3,0 0,1 -3,0 0,-1 z m 7,0 3,0 0,1 -3,0 0,-1 z M 5,8 19,8 19,19 5,19 5,8 Z m 2,1 0,2 2,0 0,-2 -2,0 z m 4,0 0,2 2,0 0,-2 -2,0 z m 4,0 0,2 2,0 0,-2 -2,0 z m -8,3 0,2 2,0 0,-2 -2,0 z m 4,0 0,2 2,0 0,-2 -2,0 z m 4,0 0,2 2,0 0,-2 -2,0 z m 0,3 0,2 2,0 0,-2 -2,0 z"
    class="ColorScheme-Text"
    />
</svg>
