<?xml version="1.0" encoding="UTF-8" standalone="no"?>
<!-- Created with Inkscape (http://www.inkscape.org/) -->

<svg
   width="24"
   height="24"
   viewBox="0 0 6.35 6.3500003"
   version="1.1"
   id="svg5"
   inkscape:version="1.1.1 (3bf5ae0d25, 2021-09-20, custom)"
   sodipodi:docname="window-maximize.svg"
   xmlns:inkscape="http://www.inkscape.org/namespaces/inkscape"
   xmlns:sodipodi="http://sodipodi.sourceforge.net/DTD/sodipodi-0.dtd"
   xmlns="http://www.w3.org/2000/svg"
   xmlns:svg="http://www.w3.org/2000/svg">
  <sodipodi:namedview
     id="namedview7"
     pagecolor="#ffffff"
     bordercolor="#666666"
     borderopacity="1.0"
     inkscape:pageshadow="2"
     inkscape:pageopacity="0.0"
     inkscape:pagecheckerboard="0"
     inkscape:document-units="px"
     showgrid="false"
     units="px"
     height="24px"
     inkscape:zoom="16.520833"
     inkscape:cx="3.6317781"
     inkscape:cy="10.562421"
     inkscape:window-width="1920"
     inkscape:window-height="996"
     inkscape:window-x="0"
     inkscape:window-y="0"
     inkscape:window-maximized="1"
     inkscape:current-layer="svg5" />
  <defs
     id="defs2" />
  <path
     id="rect846-1"
     style="fill:#dedede;stroke-width:0.0855523"
     d="m 3.5651569,1.0583863 c -0.070091,0.00349 -0.1255736,0.061287 -0.1255736,0.1322918 0,0.073287 0.059007,0.1322916 0.1322916,0.1322916 H 4.8400148 L 1.3229673,4.8401171 V 3.5719265 c 0,-0.073287 -0.059002,-0.1322917 -0.1322916,-0.1322917 -0.07329,0 -0.1322917,0.059007 -0.1322917,0.1322917 v 1.532774 0.048059 c -1.139e-4,0.0023 0,0.00443 0,0.00672 0,0.073287 0.1247454,0.2051918 0.1322917,0.1322917 h 0.054777 l 1.5326727,-5.3e-5 c 0.073289,2e-7 0.1322916,-0.059007 0.1322916,-0.1322914 0,-0.073287 -0.059002,-0.1322948 -0.1322916,-0.1322917 l -1.2680892,5.3e-5 3.5170476,-3.5171497 V 2.778177 c 0,0.073287 0.058996,0.1322917 0.1322916,0.1322917 0.073287,0 0.1322917,-0.059007 0.1322917,-0.1322917 V 1.2454551 1.197396 c 1.146e-4,-0.00229 0,-0.00443 0,-0.00672 0,-0.070996 -0.055484,-0.1287615 -0.1255737,-0.1322918 -0.00229,-1.145e-4 -0.00443,0 -0.00672,0 H 5.1045986 3.5718754 c -0.0023,0 -0.00443,-1.145e-4 -0.00672,0 z"
     sodipodi:nodetypes="cssccsssccssccssccsssccssscscc" />
</svg>
