<svg width="22" height="22" version="1.1" xmlns="http://www.w3.org/2000/svg">
 <defs>
  <style id="current-color-scheme" type="text/css">.ColorScheme-Text {
                color:#dedede;
            }</style>
 </defs>
 <path class="ColorScheme-Text" d="m11 6-2.017 4 2.017 0.016949v2.9831l2-4h-2zm-4 5.9888v3h1v-3zm2 0v3h1v-3zm4.5 0c-0.82843 0-1.5 0.67157-1.5 1.5s0.67157 1.5 1.5 1.5 1.5-0.67157 1.5-1.5-0.67157-1.5-1.5-1.5z" fill="currentColor"/>
 <path class="ColorScheme-Text" d="m6 3c-1.662 0-3 1.338-3 3v10c0 1.662 1.338 3 3 3h10c1.662 0 3-1.338 3-3v-10c0-1.662-1.338-3-3-3zm0 1h10c1.108 0 2 0.892 2 2v10c0 1.108-0.892 2-2 2h-10c-1.108 0-2-0.892-2-2v-10c0-1.108 0.892-2 2-2z" fill="currentColor"/>
</svg>
