<svg width="16" xmlns="http://www.w3.org/2000/svg" height="16"><g fill="#6c7a89"><path d="M2 2v12h12V2zm1 3h10v8c-3.551-.037-6.45-.077-10 0z"/><path d="M8.338 10.19L7.306 9.17l.012-.012a7.109 7.109 0 0 0 1.507-2.652h1.19v-.813H7.172v-.812H6.36v.812H3.517v.808h4.537a6.38 6.38 0 0 1-1.288 2.177 6.294 6.294 0 0 1-.938-1.361h-.812a7.131 7.131 0 0 0 1.211 1.852l-2.068 2.039.577.577 2.031-2.031 1.263 1.263zm2.287-2.06h-.812l-1.828 4.875h.812l.455-1.219h1.93l.459 1.219h.812zm-1.064 2.843l.658-1.759.658 1.759z"/></g></svg>