<svg width="16" xmlns="http://www.w3.org/2000/svg" height="16"><path color="#000" d="M6 2a2.98 2.98 0 0 0-2 2.814v.381c0 .74-.404 1.378-1 1.723v2.166c.596.345 1 .981 1 1.721v.381A2.98 2.98 0 0 0 6 14v-1.092c-.596-.345-1-.983-1-1.723v-.381c0-1.3-.826-2.388-1.98-2.805A2.978 2.978 0 0 0 5 5.194v-.381c0-.74.404-1.378 1-1.723zm4 0v1.092c.596.345 1 .983 1 1.723v.381a2.98 2.98 0 0 0 1.98 2.805A2.977 2.977 0 0 0 11 10.806v.381c0 .74-.404 1.378-1 1.723v1.092a2.98 2.98 0 0 0 2-2.814v-.381c0-.74.404-1.376 1-1.721V6.92c-.596-.345-1-.983-1-1.723v-.381a2.98 2.98 0 0 0-2-2.814" fill="#ffa555"/></svg>