<svg xmlns="http://www.w3.org/2000/svg" width="16" height="16"><path style="line-height:125%;-inkscape-font-specification:Oxygen Italic" d="M6.751 12.576c-.979 0-1.646-.489-1.468-1.734.223-1.557 1.157-2.069 4.115-2.491.022 0 .934-.156.934-.156l-.378 2.758c-.8 1-2.247 1.623-3.203 1.623zm3.047-.133l.045 1.29h1.267l1.157-8.34c.356-2.536-1.09-3.27-3.114-3.27-1.446 0-2.869.423-3.714.912l.245 1.379a7.953 7.953 0 0 1 3.291-.756c1.401 0 1.913.69 1.735 2.024l-.2 1.267-1.045.134c-2.692.422-5.316.845-5.739 3.825C3.415 13.044 4.683 14 6.373 14c1.068 0 2.38-.4 3.425-1.557z" font-style="italic" font-weight="400" letter-spacing="0" word-spacing="0" fill="#4d4d4d" font-family="Oxygen"/></svg>