<svg xmlns="http://www.w3.org/2000/svg" width="16" height="16"><path style="marker:none" d="M2 2v2c5.523 0 10 4.477 10 10h2v-.063c0-.39-.026-.774-.063-1.156-.002-.02.003-.042 0-.062-.038-.381-.113-.756-.187-1.125-.004-.02.004-.043 0-.063a11.798 11.798 0 0 0-1.188-3.25c-.004-.007.005-.023 0-.031a11.94 11.94 0 0 0-8.093-6c-.02-.004-.043.004-.063 0-.37-.076-.743-.147-1.125-.188-.02-.002-.042.002-.062 0-.383-.038-.764-.06-1.156-.062H2zm0 4v2a6 6 0 0 1 6 6h2a8 8 0 0 0-8-8zm2 4a2 2 0 1 0 0 4 2 2 0 0 0 0-4z" color="#000" fill="#f67400" stroke-width=".1" overflow="visible"/></svg>