<svg width="16" xmlns="http://www.w3.org/2000/svg" height="16"><path fill="#6c7a89" d="M5.5 2A1.5 1.5 0 0 0 4 3.5a1.5 1.5 0 0 0 1 1.412v6.178a1.5 1.5 0 0 0-1 1.41A1.5 1.5 0 0 0 5.5 14 1.5 1.5 0 0 0 7 12.5a1.5 1.5 0 0 0-1-1.412V4.912A1.5 1.5 0 0 0 7 3.5 1.5 1.5 0 0 0 5.5 2M9 2L7 3.4 9 5V4h1c.554 0 1 .446 1 1v6.09a1.5 1.5 0 0 0-1 1.41 1.5 1.5 0 0 0 1.5 1.5 1.5 1.5 0 0 0 1.5-1.5 1.5 1.5 0 0 0-1-1.412V5c0-1.108-.89-1.945-2-2H9zM5.5 3a.5.5 0 0 1 .5.5.5.5 0 0 1-.5.5.5.5 0 0 1-.5-.5.5.5 0 0 1 .5-.5m0 9a.5.5 0 0 1 .5.5.5.5 0 0 1-.5.5.5.5 0 0 1-.5-.5.5.5 0 0 1 .5-.5m6 0a.5.5 0 0 1 .5.5.5.5 0 0 1-.5.5.5.5 0 0 1-.5-.5.5.5 0 0 1 .5-.5"/></svg>