<svg xmlns="http://www.w3.org/2000/svg" width="16" height="16" viewBox="0 0 4.233 4.233"><path d="M2.117.53v.264h-.265v.264h.265v.265h.264v-.265h.265V.794H2.38V.529zm1.058 0v.264H2.91v.264h.265v.265h.265v-.265h.264V.794H3.44V.529zM.794 1.851a.264.264 0 0 0-.265.265V3.44c0 .146.118.264.265.264h1.323a.264.264 0 0 0 .264-.264v-.177l-.264-.088a.264.264 0 0 1-.265.265h-.794a.264.264 0 0 1-.264-.265v-.794c0-.146.118-.264.264-.264h.794c.147 0 .265.118.265.264l.264-.088v-.176a.264.264 0 0 0-.264-.265z" fill="#8fca35" stroke-width=".265"/></svg>