<svg height="16" width="16" xmlns="http://www.w3.org/2000/svg">
  <defs>
   <style id="current-color-scheme" type="text/css">.ColorScheme-Text { color:#565656; } .ColorScheme-Highlight { color:#5294e2; }</style>
  </defs><g class="ColorScheme-Text" fill="currentColor"><path d="M474-57.5v2.5h-2.5c-1.306 0-2.421.405-3.265 1.117.79.247 1.417.876 1.654 1.668l.129.432c.56.137 1.063.429 1.424.836.182-.032.368-.053.558-.053h2v2.5l6.469-4.5L474-57.5zm-6.5 4.5a1.496 1.496 0 0 0-.428 2.932 2.524 2.524 0 0 1 1.858-1.86A1.494 1.494 0 0 0 467.5-53Zm2 2a1.5 1.5 0 1 0 0 3 1.5 1.5 0 0 0 0-3zm-2.435 2.033C465.028-48.794 465-47.5 465-47.5v.5h1.655c.28-.287.671-.527 1.158-.705a2.536 2.536 0 0 1-.748-1.262zM469.5-47c-2.5 0-2.5 1.5-2.5 1.5v.5h5v-.5s0-1.5-2.5-1.5z" transform="translate(-465 59.003)"/></g></svg>
