<svg width="16" height="16" version="1.1" xmlns="http://www.w3.org/2000/svg">
 <path d="m6.25 0c-0.51888 1.5486e-4 -0.95146 0.39711-0.99609 0.91406l-0.11719 1.3398c-0.23504 0.11806-0.46067 0.24888-0.67969 0.39453l-1.2207-0.57422c-0.47103-0.22177-1.0334-0.045069-1.293 0.40625l-1.75 3.0293c-0.25943 0.44992-0.13129 1.0235 0.29492 1.3203l1.0488 0.73242c-0.010017 0.14609-0.036985 0.29094-0.037109 0.4375 1.241e-4 0.14591 0.02718 0.2901 0.037109 0.43555l-1.0449 0.7207c-0.42981 0.29586-0.55992 0.87245-0.29883 1.3242l1.75 3.0293c0.2603 0.45166 0.82388 0.62761 1.2949 0.4043l1.2109-0.57422c0.22158 0.14673 0.44964 0.27991 0.6875 0.39844l0.11719 1.3477c0.044639 0.51695 0.47722 0.91391 0.99609 0.91406h3.5c0.52095-4.1e-4 0.95433-0.40065 0.99609-0.91992l0.10938-1.3438c0.23718-0.11834 0.46457-0.25009 0.68555-0.39648l1.2227 0.57422c0.47054 0.2221 1.0328 0.0463 1.293-0.4043l1.75-3.0293c0.26026-0.45085 0.13114-1.0259-0.29688-1.3223l-1.0508-0.72852c0.01082-0.13896 0.03915-0.27653 0.04102-0.41602 3.1e-5 -0.00456 3.1e-5 -0.00911 0-0.013672 1.45e-4 -0.14944-0.02697-0.29635-0.03711-0.44531l1.0449-0.72266c0.4287-0.29572 0.5587-0.87093 0.29883-1.3223l-1.75-3.0293c-0.25955-0.45132-0.82194-0.62802-1.293-0.40625l-1.2227 0.57617c-0.22098-0.14639-0.44836-0.27814-0.68555-0.39648l-0.10938-1.3359c-0.04273-0.5185-0.47584-0.91764-0.99609-0.91797zm0.91602 2h1.6621l0.074219 0.92188c0.032164 0.3873 0.28579 0.72091 0.65039 0.85547 0.4791 0.17704 0.92563 0.43516 1.3184 0.76172 0.29825 0.24821 0.71316 0.3015 1.0645 0.13672l0.84766-0.40039 0.83008 1.4355-0.76172 0.52539c-0.32136 0.22144-0.48455 0.60959-0.41797 0.99414 0.04336 0.25146 0.06621 0.50656 0.06641 0.76172-0.0037 0.25058-0.02895 0.50156-0.07422 0.74805-0.07068 0.38631 0.09129 0.77824 0.41406 1.002l0.77344 0.53516-0.83008 1.4375-0.84766-0.40039c-0.3513-0.16478-0.7662-0.11149-1.0645 0.13672-0.39273 0.32656-0.83926 0.58468-1.3184 0.76172-0.3646 0.13456-0.61823 0.46816-0.65039 0.85547l-0.074219 0.93164h-1.6602l-0.082031-0.93555c-0.033283-0.38536-0.2858-0.71699-0.64844-0.85156-0.4791-0.17704-0.92563-0.43516-1.3184-0.76172-0.29906-0.24836-0.71496-0.30092-1.0664-0.13477l-0.83789 0.39648-0.82812-1.4336 0.76172-0.52734c0.32064-0.22112 0.48374-0.60829 0.41797-0.99219-0.043341-0.25132-0.066189-0.50473-0.066406-0.75977 2.169e-4 -0.25503 0.023066-0.50844 0.066406-0.75977 0.065792-0.38246-0.095608-0.76845-0.41406-0.99023l-0.76758-0.53516 0.83203-1.4395 0.84766 0.40039c0.35219 0.16508 0.76815 0.11099 1.0664-0.13867 0.39026-0.32576 0.83238-0.58189 1.3086-0.75977 0.36187-0.13518 0.61353-0.46668 0.64648-0.85156z" fill="#565656"/>
 <circle cx="8" cy="8" r="2" fill="#565656"/>
</svg>
