<svg width="64" height="64" viewBox="0 0 16.933 16.933" xmlns="http://www.w3.org/2000/svg"><defs><linearGradient id="a" x1="42" x2="44" y1="51" y2="55" gradientTransform="scale(.26458)" gradientUnits="userSpaceOnUse"><stop offset="0"/><stop stop-opacity="0" offset="1"/></linearGradient></defs><circle cx="8.466" cy="8.466" r="7.408" fill="#63463b" style="paint-order:stroke fill markers"/><g stroke-width=".265"><path d="M4.278 3.704a6.35 6.35 0 0 0-2.161 4.763 6.35 6.35 0 0 0 6.35 6.35 6.35 6.35 0 0 0 6.35-6.35 6.35 6.35 0 0 0-2.159-4.763h-8.38z" fill="#fff" style="paint-order:stroke fill markers"/><path d="M8.467 1.058A7.408 7.408 0 0 0 3.58 2.91h9.776a7.408 7.408 0 0 0-4.89-1.852z" opacity=".15" style="paint-order:stroke fill markers"/><path d="M7.937 6.085c-.35 0-.643.278-.793.53l-.318.529H1.184a7.408 7.408 0 0 0-.126 1.323 7.408 7.408 0 0 0 7.409 7.408 7.408 7.408 0 0 0 7.408-7.408 7.408 7.408 0 0 0-.403-2.382z" fill="#795548" style="paint-order:stroke fill markers"/><path d="m15.164 11.613-7.327 4.23a7.408 7.408 0 0 0 .63.032 7.408 7.408 0 0 0 6.697-4.262z" fill="url(#a)" opacity=".1" style="paint-order:stroke fill markers"/></g></svg>