<svg width="64" height="64" viewBox="0 0 16.933 16.933" xmlns="http://www.w3.org/2000/svg"><defs><linearGradient id="a" x1="42" x2="44" y1="51" y2="55" gradientUnits="userSpaceOnUse"><stop offset="0"/><stop stop-opacity="0" offset="1"/></linearGradient></defs><circle cx="8.466" cy="8.466" r="7.408" fill="#3f3f3f" style="paint-order:stroke fill markers"/><path transform="scale(.26458)" d="M16.17 14A24 24 0 0 0 8 32a24 24 0 0 0 24 24 24 24 0 0 0 24-24 24 24 0 0 0-8.158-18H16.17z" fill="#fff" style="paint-order:stroke fill markers"/><path d="M7.937 4.233c-.35 0-.643.278-.793.53l-.318.529H1.783a7.408 7.408 0 0 0-.725 3.175 7.408 7.408 0 1 0 14.817 0 7.408 7.408 0 0 0-.61-2.922 8.525 8.525 0 0 0-.73-1.312z" fill="#4d4d4d" style="paint-order:stroke fill markers"/><path transform="scale(.26458)" d="M32 4a28 28 0 0 0-18.467 7h36.951A28 28 0 0 0 32 4z" opacity=".15" style="paint-order:stroke fill markers"/><path transform="scale(.26458)" d="m57.312 43.891-27.693 15.99a28 28 0 0 0 2.38.12 28 28 0 0 0 25.313-16.11z" fill="url(#a)" opacity=".1" style="paint-order:stroke fill markers"/><path d="M9.868 7.935a.38.38 0 0 0-.223.076c-.175.126-.538.258-1.177.258-.641 0-1.005-.132-1.18-.258a.351.351 0 0 0-.215-.073.596.596 0 0 0-.268.073c-.341.182-.658.772-.83 1.54-.146.657-.199 1.548-.113 1.907.076.311.208.448.443.448.344-.007.777-.392 1.055-.913.199-.288.662-.418 1.108-.404.443-.017.907.116 1.105.404.278.52.71.906 1.058.913.232 0 .364-.137.44-.448.086-.359.033-1.25-.113-1.906-.172-.77-.489-1.359-.83-1.54a.536.536 0 0 0-.26-.077Zm-2.724.994h.33v.331h.331v.33h-.33v.332h-.331V9.59h-.331v-.33h.33zm2.48 0a.165.165 0 0 1 .165.166.165.165 0 0 1-.165.165.165.165 0 0 1-.165-.165.165.165 0 0 1 .165-.166zm-.33.331a.165.165 0 0 1 .165.166.165.165 0 0 1-.166.165.165.165 0 0 1-.165-.165.165.165 0 0 1 .165-.166Zm.66 0a.165.165 0 0 1 .166.166.165.165 0 0 1-.165.165.165.165 0 0 1-.166-.165.165.165 0 0 1 .166-.166Zm-.33.33a.165.165 0 0 1 .165.166.165.165 0 0 1-.165.166.165.165 0 0 1-.165-.166.165.165 0 0 1 .165-.165z" color="#727272" fill="#fff" style="stroke-width:.264578"/></svg>