<svg width="64" height="64" version="1.1" viewBox="0 0 64 64" xmlns="http://www.w3.org/2000/svg" xmlns:xlink="http://www.w3.org/1999/xlink">
 <defs>
  <style id="current-color-scheme" type="text/css">.ColorScheme-Text {
        color:#333333;
      }
      .ColorScheme-Highlight {
        color:#7e57c2;
      }</style>
  <linearGradient id="a">
   <stop offset="0"/>
   <stop stop-opacity="0" offset="1"/>
  </linearGradient>
  <linearGradient id="d" x1="-197.1" x2="-196.91" y1="217.68" y2="219.36" gradientTransform="matrix(1.6326,-1.6326,1.6326,1.6326,22.123,-642.16)" gradientUnits="userSpaceOnUse" xlink:href="#a"/>
 </defs>
 <g transform="matrix(.98215 0 0 .98215 -17.929 15.972)">
  <path class="ColorScheme-Highlight" transform="translate(0 -.28092)" d="m30.064 10.287c-0.6773 0-0.90899 0.62037-1.2207 1.2207h-1.8359a1.2199 1.2199 0 0 0-1.2188 1.2246v4.2754h-1.2246c-0.67582 0-1.2188 0.54293-1.2188 1.2188v19.553c0 0.67582 0.54293 1.2207 1.2188 1.2207h34.215c0.67582 0 1.2207-0.54488 1.2207-1.2207v-21.996c0-0.67345-0.54536-1.2188-1.2227-1.2188h-1.2207v-1.832a1.2199 1.2199 0 0 0-1.2246-1.2246h-16.494c-0.35789-0.57339-0.54146-1.2207-1.2188-1.2207z" fill="#7e57c2" opacity=".35"/>
  <path d="m30.064 10.006c-0.6773 0-0.90899 0.62037-1.2207 1.2207h-1.8359a1.2199 1.2199 0 0 0-1.2188 1.2246v4.2754h13.951l0.71094-1.2207c0.3425-0.58109 0.54726-1.2188 1.2246-1.2188v-0.0039h15.881v-1.832a1.2199 1.2199 0 0 0-1.2246-1.2246h-16.494c-0.35789-0.57339-0.54146-1.2207-1.2188-1.2207z" fill="#000000" opacity=".2"/>
  <path transform="translate(0 -.28092)" d="m28.232 13.34c-0.33898 0-0.61133 0.27235-0.61133 0.61133v3.0566h12.119l0.71094-1.2207c0.3425-0.58109 0.54726-1.2188 1.2246-1.2188v-0.0039h14.049v-0.61328c0-0.33898-0.27235-0.61133-0.61133-0.61133z" fill="#ffffff"/>
  <rect x="30.676" y="10.615" width="7.331" height="1.2199" ry=".61187" opacity=".25" stroke-width="3.8483" style="paint-order:stroke markers fill"/>
  <path d="m59.999 31.386-7.3321 7.3321h6.1111c0.67668 0 1.221-0.54632 1.221-1.223z" fill="url(#d)" opacity=".1" stroke-width="2.309" style="paint-order:stroke markers fill"/>
 </g>
 <g transform="matrix(.98215 0 0 .98215 .071029 .97207)">
  <path class="ColorScheme-Highlight" transform="translate(0 -.28092)" d="m30.064 10.287c-0.6773 0-0.90899 0.62037-1.2207 1.2207h-1.8359a1.2199 1.2199 0 0 0-1.2188 1.2246v4.2754h-1.2246c-0.67582 0-1.2188 0.54293-1.2188 1.2188v19.553c0 0.67582 0.54293 1.2207 1.2188 1.2207h34.215c0.67582 0 1.2207-0.54488 1.2207-1.2207v-21.996c0-0.67345-0.54536-1.2188-1.2227-1.2188h-1.2207v-1.832a1.2199 1.2199 0 0 0-1.2246-1.2246h-16.494c-0.35789-0.57339-0.54146-1.2207-1.2188-1.2207z" fill="#7e57c2"/>
  <path d="m30.064 10.006c-0.6773 0-0.90899 0.62037-1.2207 1.2207h-1.8359a1.2199 1.2199 0 0 0-1.2188 1.2246v4.2754h13.951l0.71094-1.2207c0.3425-0.58109 0.54726-1.2188 1.2246-1.2188v-0.0039h15.881v-1.832a1.2199 1.2199 0 0 0-1.2246-1.2246h-16.494c-0.35789-0.57339-0.54146-1.2207-1.2188-1.2207z" fill="#000000" opacity=".2"/>
  <path transform="translate(0 -.28092)" d="m28.232 13.34c-0.33898 0-0.61133 0.27235-0.61133 0.61133v3.0566h12.119l0.71094-1.2207c0.3425-0.58109 0.54726-1.2188 1.2246-1.2188v-0.0039h14.049v-0.61328c0-0.33898-0.27235-0.61133-0.61133-0.61133z" fill="#ffffff"/>
  <rect x="30.676" y="10.615" width="7.331" height="1.2199" ry=".61187" opacity=".25" stroke-width="3.8483" style="paint-order:stroke markers fill"/>
  <path d="m59.999 31.386-7.3321 7.3321h6.1111c0.67668 0 1.221-0.54632 1.221-1.223z" fill="url(#d)" opacity=".1" stroke-width="2.309" style="paint-order:stroke markers fill"/>
 </g>
</svg>
