<svg width="64" height="64" version="1.1" viewBox="0 0 64 64" xmlns="http://www.w3.org/2000/svg">
 <defs>
  <style id="current-color-scheme" type="text/css">.ColorScheme-Text {
        color:#333333;
      }
      .ColorScheme-Background{
        color:#ffffff;
      }
      .ColorScheme-Highlight {
        color:#7e57c2;
      }</style>
  <linearGradient id="a" x1="42" x2="44" y1="51" y2="55" gradientTransform="matrix(.26458 0 0 .26458 0 -.0012548)" gradientUnits="userSpaceOnUse">
   <stop offset="0"/>
   <stop stop-opacity="0" offset="1"/>
  </linearGradient>
 </defs>
 <g transform="matrix(3.7797 0 0 3.7797 .0010816 .001855)">
  <circle class="ColorScheme-Highlight" cx="8.466" cy="8.4658" r="7.408" fill="#7e57c2"/>
  <path d="m15.164 11.611-7.327 4.2306a7.4082 7.4082 0 0 0 0.6297 0.03175 7.4082 7.4082 0 0 0 6.6973-4.2624z" fill="url(#a)" opacity=".1" stroke-width=".26458"/>
  <path id="shadow" d="m8.466 1.0578a7.408 7.408 0 0 0-6.692 4.2343h5.0518l0.31832-0.52916c0.15-0.252 0.4427-0.52967 0.7927-0.52967h6.6083a7.408 7.408 0 0 0-6.0791-3.1755z" fill="#000000" opacity=".2"/>
  <path transform="scale(.26458)" d="m16.17 14a24 24 0 0 0-4.875 6.0019h14.504l1.2031-2c0.56694-0.95245 1.6732-2.0019 2.9961-2.0019h19.82a24 24 0 0 0-1.9765-2h-31.672z" fill="#ffffff"/>
  <path d="m8.4666 1.0583a7.4082 7.4082 0 0 0-4.886 1.8521h9.7765a7.4082 7.4082 0 0 0-4.8905-1.8521z" opacity=".15" stroke-width=".26458"/>
 </g>
 <path class="ColorScheme-Background" d="m27.041 46.665c-2.6893-0.68226-4.9449-1.2746-5.0123-1.3163-0.16918-0.10458-0.15723-2.4101 0.01247-2.4101 0.07434 0 2.2098 0.52886 4.7454 1.1753 2.5357 0.64642 4.8702 1.1753 5.188 1.1753 0.31775 0 2.6702-0.52763 5.2278-1.1726 2.5576-0.6449 4.7044-1.139 4.7707-1.098 0.16298 0.10073 0.15451 2.2333-0.0091 2.3345-0.09294 0.05749-10.033 2.5905-10.033 2.5567 0-0.0024-2.2003-0.5626-4.8897-1.2449zm-0.16086-5.9177c-2.5497-0.65803-4.7119-1.2467-4.8049-1.3083-0.10984-0.07257-0.16918-0.49715-0.16918-1.2099 0-0.97682 0.02835-1.098 0.25622-1.098 0.14094 0 2.3499 0.52891 4.9088 1.1753 2.5589 0.64642 4.8057 1.1753 4.9929 1.1753 0.18717 0 2.4276-0.52886 4.9788-1.1753 2.5512-0.64642 4.7337-1.1753 4.8501-1.1753 0.17685 0 0.20508 0.19801 0.17171 1.2052l-0.04018 1.2052-4.8395 1.2127c-2.6617 0.66697-5.0262 1.2075-5.2543 1.2011-0.22817-0.0064-2.5009-0.54992-5.0505-1.2079zm0.02608-5.8292c-2.6112-0.66671-4.8072-1.2718-4.88-1.3446-0.07279-0.07279-0.11411-0.65225-0.09181-1.2877l0.04071-1.1553 10.032-2.5011 4.3174 1.0802c2.3746 0.59409 4.6441 1.1709 5.0434 1.2819l0.72593 0.20172v1.1666c0 0.97046-0.04071 1.1879-0.24197 1.2936-0.31469 0.16517-9.7372 2.515-9.9983 2.4934-0.10957-0.0091-2.3356-0.56195-4.9469-1.2287z" fill="#ffffff"/>
</svg>
