<svg width="64" height="64" viewBox="0 0 16.933 16.933" xmlns="http://www.w3.org/2000/svg"><defs><linearGradient id="a" x1="42" x2="44" y1="51" y2="55" gradientUnits="userSpaceOnUse"><stop offset="0"/><stop stop-opacity="0" offset="1"/></linearGradient></defs><circle cx="8.466" cy="8.466" r="7.408" fill="#549957" style="paint-order:stroke fill markers"/><path transform="scale(.26458)" d="M16.17 14A24 24 0 0 0 8 32a24 24 0 0 0 24 24 24 24 0 0 0 24-24 24 24 0 0 0-8.158-18H16.17z" fill="#fff" style="paint-order:stroke fill markers"/><path d="M7.937 4.233c-.35 0-.643.278-.793.53l-.318.529H1.783a7.408 7.408 0 0 0-.725 3.175 7.408 7.408 0 1 0 14.817 0 7.408 7.408 0 0 0-.61-2.922 8.525 8.525 0 0 0-.73-1.312z" fill="#66bb6a" style="paint-order:stroke fill markers"/><path transform="scale(.26458)" d="M32 4a28 28 0 0 0-18.467 7h36.951A28 28 0 0 0 32 4z" opacity=".15" style="paint-order:stroke fill markers"/><path transform="scale(.26458)" d="m57.312 43.891-27.693 15.99a28 28 0 0 0 2.38.12 28 28 0 0 0 25.313-16.11z" fill="url(#a)" opacity=".1" style="paint-order:stroke fill markers"/><path style="fill:#fefefe;fill-opacity:1;stroke-width:.0365836" d="M7.154 12.347a43.272 43.272 0 0 1-1.326-.349c-.044-.027-.041-.637.004-.637.02 0 .584.14 1.255.31.671.172 1.289.312 1.373.312.084 0 .706-.14 1.383-.31.677-.171 1.245-.302 1.262-.291.043.027.041.59-.002.618-.025.015-2.655.685-2.655.676l-1.294-.33zm-.042-1.566c-.675-.174-1.247-.33-1.271-.346-.03-.02-.045-.132-.045-.32 0-.259.007-.29.068-.29.037 0 .621.14 1.298.31.677.171 1.272.311 1.321.311.05 0 .643-.14 1.318-.31a34.327 34.327 0 0 1 1.283-.312c.047 0 .054.053.045.32l-.01.318-1.28.32c-.705.177-1.33.32-1.39.319-.061-.002-.663-.146-1.337-.32zm.007-1.542c-.691-.177-1.272-.337-1.291-.356-.02-.02-.03-.173-.025-.34l.011-.306 1.327-.331 1.327-.331 1.143.286c.628.157 1.228.31 1.334.339l.192.053v.309c0 .257-.01.314-.064.342-.083.044-2.576.665-2.645.66a55.622 55.622 0 0 1-1.31-.325z"/></svg>