<svg width="64" height="64" viewBox="0 0 16.933 16.933" xmlns="http://www.w3.org/2000/svg" xmlns:xlink="http://www.w3.org/1999/xlink"><defs><linearGradient id="a"><stop offset="0"/><stop stop-opacity="0" offset="1"/></linearGradient><linearGradient id="b" x1="-197.1" x2="-196.91" y1="217.68" y2="219.36" gradientTransform="rotate(-45 -738.924 -311.454) scale(2.2677)" gradientUnits="userSpaceOnUse" xlink:href="#a"/><linearGradient id="c" x1="-197.1" x2="-196.91" y1="217.68" y2="219.36" gradientTransform="rotate(-45 -747.544 -341.891) scale(2.2677)" gradientUnits="userSpaceOnUse" xlink:href="#a"/></defs><path d="M3.07 7.09c-.177 0-.237.162-.318.318h-.477a.317.317 0 0 0-.317.317V10.9c0 .176.142.318.317.318h7.62a.317.317 0 0 0 .318-.318V7.725a.317.317 0 0 0-.318-.317H5.61c-.093-.15-.141-.318-.317-.318z" fill="#bdbdbd" style="paint-order:markers stroke fill"/><path d="M3.07 7.09c-.177 0-.237.162-.318.318h-.477a.317.317 0 0 0-.317.317V10.9c0 .176.142.318.317.318h7.62a.317.317 0 0 0 .318-.318V7.725a.317.317 0 0 0-.318-.317H5.61c-.093-.15-.141-.318-.317-.318z" opacity=".18" style="paint-order:markers stroke fill"/><rect x="2.434" y="7.884" width="7.303" height="3.016" ry=".159" fill="#f2f2f2" style="paint-order:markers stroke fill"/><path transform="scale(.26458)" d="M22.998 31c-.661 0-.86.625-1.197 1.203l-.7 1.197H6.2C5.536 33.4 5 33.934 5 34.598v19.205C5 54.466 5.536 55 6.2 55h33.603c.664 0 1.2-.534 1.2-1.197V32.2c0-.666-.538-1.2-1.203-1.2H22.999z" fill="#bdbdbd" style="paint-order:markers stroke fill"/><rect x="3.228" y="7.249" width="1.905" height=".317" ry=".159" opacity=".25" style="paint-order:stroke markers fill"/><path transform="scale(.26458)" d="M41.002 47.799 33.801 55h6.002c.664 0 1.199-.536 1.199-1.201v-6z" fill="url(#b)" opacity=".1" style="paint-order:stroke markers fill"/><path d="M8.096 3.122c-.176 0-.236.161-.317.317h-.477a.317.317 0 0 0-.317.318v3.175c0 .176.142.317.317.317h7.62a.317.317 0 0 0 .318-.317V3.757a.317.317 0 0 0-.318-.318h-4.286c-.093-.149-.141-.317-.317-.317z" fill="#bdbdbd" style="paint-order:markers stroke fill"/><path d="M8.096 3.122c-.176 0-.236.161-.317.317h-.477a.317.317 0 0 0-.317.318v3.175c0 .176.142.317.317.317h7.62a.317.317 0 0 0 .318-.317V3.757a.317.317 0 0 0-.318-.318h-4.286c-.093-.149-.141-.317-.317-.317z" opacity=".18" style="paint-order:markers stroke fill"/><rect x="7.461" y="3.915" width="7.303" height="3.016" ry=".159" fill="#fff" style="paint-order:markers stroke fill"/><path transform="scale(.26458)" d="M11.604 26.797c-.669 0-.895.614-1.201 1.203H8.598a1.198 1.198 0 0 0-1.197 1.197V33.4H6.2c-.664 0-1.2.534-1.2 1.198v19.205C5 54.467 5.536 55 6.2 55h33.604c.663 0 1.199-.533 1.199-1.197V32.2c0-.665-.538-1.2-1.203-1.2h-1.198v-1.802A1.198 1.198 0 0 0 37.4 28H21.204c-.351-.567-.532-1.204-1.197-1.204h-8.402z" fill="#fff" opacity=".35" style="paint-order:markers stroke fill"/><path transform="scale(.26458)" d="M42.002 16v.002c-.665 0-.865.628-1.201 1.2l-.7 1.196H25.2c-.664 0-1.2.536-1.2 1.2V38.8c0 .663.536 1.199 1.2 1.199h33.604c.663 0 1.199-.536 1.199-1.2V17.198a1.2 1.2 0 0 0-1.203-1.198H42.003z" fill="#bdbdbd" style="paint-order:markers stroke fill"/><rect x="8.255" y="3.28" width="1.905" height=".317" ry=".159" opacity=".25" style="paint-order:stroke markers fill"/><path transform="scale(.26458)" d="m60 32.797-7.201 7.201H58.8c.664 0 1.199-.536 1.199-1.201v-6z" fill="url(#c)" opacity=".1" style="paint-order:stroke markers fill"/></svg>