<svg width="64" height="64" xmlns="http://www.w3.org/2000/svg" xmlns:xlink="http://www.w3.org/1999/xlink"><defs><linearGradient id="d"><stop offset="0"/><stop stop-opacity="0" offset="1"/></linearGradient><linearGradient id="a"><stop stop-color="#fff" offset="0"/><stop stop-color="#aeaea3" offset="1"/></linearGradient><linearGradient id="b"><stop stop-color="#dfe2dc" offset="0"/><stop stop-color="#86917a" offset="1"/></linearGradient><linearGradient id="h" x1="22.009" x2="23.585" y1="36.51" y2="14.412" gradientTransform="matrix(-1 0 0 1 -164.71 28.24)" gradientUnits="userSpaceOnUse" xlink:href="#c"/><linearGradient id="c"><stop stop-color="#babdb6" offset="0"/><stop stop-color="#fff" offset="1"/></linearGradient><linearGradient id="i" x1="24.366" x2="32.601" y1="20.246" y2="28.555" gradientTransform="matrix(-1 0 0 1 -164.71 28.24)" gradientUnits="userSpaceOnUse" xlink:href="#c"/><linearGradient id="j" x1="25.633" x2="38.714" y1="10.612" y2="18.39" gradientTransform="matrix(-1 0 0 1 -164.71 28.24)" gradientUnits="userSpaceOnUse" xlink:href="#d"/><linearGradient id="n" x1="22.009" x2="23.585" y1="36.51" y2="14.412" gradientTransform="translate(116.97 34.748) scale(.50094)" gradientUnits="userSpaceOnUse" xlink:href="#c"/><linearGradient id="o" x1="24.366" x2="32.601" y1="20.246" y2="28.555" gradientTransform="translate(122.34 34.748) scale(.50094)" gradientUnits="userSpaceOnUse" xlink:href="#c"/><linearGradient id="p" x1="73.374" x2="89.456" y1="82.789" y2="82.789" gradientTransform="matrix(.51208 0 0 .49005 90.554 .024)" gradientUnits="userSpaceOnUse"><stop stop-color="#555753" offset="0"/><stop stop-color="#d3d7cf" stop-opacity="0" offset="1"/></linearGradient><linearGradient id="s" x1="22.009" x2="23.585" y1="36.51" y2="14.412" gradientTransform="matrix(-.50094 0 0 .50094 127.8 34.543)" gradientUnits="userSpaceOnUse" xlink:href="#c"/><linearGradient id="t" x1="24.366" x2="32.601" y1="20.246" y2="28.555" gradientTransform="matrix(-.50094 0 0 .50094 127.8 34.543)" gradientUnits="userSpaceOnUse" xlink:href="#c"/><linearGradient id="u" x1="25.633" x2="38.714" y1="10.612" y2="18.39" gradientTransform="matrix(-.50094 0 0 .50094 127.8 34.543)" gradientUnits="userSpaceOnUse" xlink:href="#d"/><radialGradient id="f" cx="23.688" cy="14.211" r="22.597" gradientTransform="matrix(-2.1357 0 0 2.1106 -137.81 12.57)" gradientUnits="userSpaceOnUse" xlink:href="#a"/><radialGradient id="g" cx="20.09" cy="10.854" r="22.597" gradientTransform="matrix(-1.7903 0 0 1.7693 -148.9 16.29)" gradientUnits="userSpaceOnUse" xlink:href="#b"/><radialGradient id="k" cx="24.837" cy="40.664" r="21.478" gradientTransform="matrix(1 0 0 .3251 0 27.444)" gradientUnits="userSpaceOnUse" xlink:href="#d"/><radialGradient id="l" cx="23.688" cy="14.211" r="22.597" gradientTransform="matrix(1.7946 0 0 1.292 86.35 19.966)" gradientUnits="userSpaceOnUse" xlink:href="#a"/><radialGradient id="m" cx="20.09" cy="10.854" r="22.597" gradientTransform="matrix(1.5044 0 0 1.083 95.667 22.243)" gradientUnits="userSpaceOnUse" xlink:href="#b"/><radialGradient id="q" cx="23.688" cy="14.211" r="22.597" gradientTransform="matrix(-1.0698 0 0 1.0573 141.27 26.694)" gradientUnits="userSpaceOnUse" xlink:href="#a"/><radialGradient id="r" cx="20.09" cy="10.854" r="22.597" gradientTransform="matrix(-.89682 0 0 .8863 135.72 28.557)" gradientUnits="userSpaceOnUse" xlink:href="#b"/><filter id="e" x="-.012" y="-.012" width="1.024" height="1.024" color-interpolation-filters="sRGB"><feGaussianBlur stdDeviation=".244"/></filter></defs><circle cx="32" cy="32" r="29" fill="#fff" opacity=".9" style="paint-order:stroke fill markers"/><g transform="translate(-62.694 12.515) scale(.74507)" fill-rule="evenodd" filter="url(#e)" opacity=".25"><path transform="matrix(-.50094 0 0 .50094 18.809 -1.829)" d="m-173.729 65.81 1.768 2.828-3.712 1.591-2.652-2.121-11.844.884-3.712 4.95-3.359-5.48-4.243 2.297-5.656-.707 1.414-3.005-3.89-3.889 5.48-6.187-5.303.707-2.298-2.121 3.006.53 3.182-5.48 4.596-1.06-3.713-1.238-.176-3.182 7.248-6.364 2.651-8.485 12.021 3.535 3.005 7.071 1.06-2.298 3.006.177v2.828l3.536-4.066 4.773 5.127V49.9l-8.309 7.248 5.303 3.005-.176 3.005z" fill="url(#f)" overflow="visible" stroke="url(#g)"/><path transform="matrix(-.50094 0 0 .50094 18.809 -1.829)" d="m-184.158 50.96.883 6.541-2.12 3.359 4.595 1.414 2.652 5.303-12.02.884-2.83 4.066-2.297-6.187 4.419-2.828 6.718 1.944-2.652-3.535 1.414-6.188z" fill="url(#h)" opacity=".77" overflow="visible"/><path transform="matrix(-.50094 0 0 .50094 18.809 -1.829)" d="m-185.22 52.021-4.419 6.894-7.247-4.95-4.42 2.475-3.535-3.005-3.182 2.829 3.005-4.95 6.894-1.591 8.662-4.243s12.375 3.713 11.667 3.713c-.707 0-10.253.176-10.253.176l-1.59-2.298-4.243 1.945z" fill="url(#i)" opacity=".618" overflow="visible"/><path d="m116.11 14.047-5.225 1.771-.709 1.948 3.01 2.126 2.835-2.745z" fill="#fff" overflow="visible"/><path transform="matrix(-.50094 0 0 .50094 18.809 -1.829)" d="m-194.41 32.045-2.298 7.425-4.242 3.712 8.662-1.944s2.475 2.828 1.414 2.828c-1.06 0-12.551 1.414-12.551 1.414l.177 2.298 16.263-3.005-7.071-6.54z" fill="url(#j)" opacity=".135" overflow="visible"/><path d="m105.04 19.449-.443 4.428.974-3.011 2.568.797.62-1.328 3.1.442.708-.62-4.516-.177-.443 1.24-1.948-.974zm7.527 6.553 1.505 1.771 3.454-2.302 2.125 1.151 3.454 3.277-3.808-2.923-1.86-.531-3.63 2.48z" fill="#fff" overflow="visible"/><path transform="translate(115.28 32.037) scale(.55454)" d="M46.315 40.664a21.478 6.983 0 1 1-42.956 0 21.478 6.983 0 1 1 42.956 0z" fill="url(#k)" opacity=".326" overflow="visible"/><path d="m116.532 52.556-1.486 1.731 3.12.974 2.228-1.299 9.953.541 3.12 3.03 2.821-3.354 3.566 1.407 4.753-.433-1.188-1.84 3.268-2.38-4.605-3.788 4.456.433 1.931-1.299-2.525.325-2.674-3.355-3.862-.649 3.12-.757.148-1.948-6.09-3.896-2.229-5.194-10.1 2.164-2.526 4.329-.892-1.407-2.525.108v1.732l-2.97-2.49-4.012 3.139v4.437l6.982 4.436-4.456 1.84.148 1.84 2.526 1.623z" fill="url(#l)" overflow="visible" stroke="url(#m)" stroke-width=".717"/><path d="m126.71 46.13-.443 3.276 1.063 1.682-2.303.709-1.328 2.657 6.022.442 1.417 2.037 1.151-3.1-2.214-1.416-3.365.974 1.328-1.771-.708-3.1z" fill="url(#n)" opacity=".77" overflow="visible"/><path d="m132.61 46.66 2.214 3.454 3.63-2.48 2.214 1.24 1.772-1.505 1.594 1.417-1.506-2.48-3.454-.796-4.339-2.126s-6.199 1.86-5.844 1.86c.354 0 5.136.088 5.136.088l.797-1.15 2.125.973-4.339 1.506z" fill="url(#o)" opacity=".618" overflow="visible"/><path d="m131.758 36.477-5.225 1.771-.709 1.948 3.011 2.126 2.834-2.746.089-3.1z" fill="#fff" overflow="visible"/><path d="m131.846 36.654 1.151 3.72 2.126 1.859-4.34-.974s-1.24 1.417-.708 1.417c.531 0 6.287.708 6.287.708l-.088 1.151-8.147-1.505 3.542-3.277.177-3.099z" fill="url(#p)" opacity=".135" overflow="visible"/><path d="m120.688 41.879-.442 4.428.974-3.011 2.568.797.62-1.329 3.099.443.708-.62-4.516-.177-.443 1.24-1.948-.974zm12.896 6.553 1.506 1.77 3.453-2.301 2.125 1.15 3.454 3.277-3.808-2.922-1.86-.531-3.63 2.48z" fill="#fff" overflow="visible"/><path transform="matrix(-.55454 0 0 .55454 134.44 32.718)" d="M46.315 40.664a21.478 6.983 0 1 1-42.956 0 21.478 6.983 0 1 1 42.956 0z" fill="url(#k)" opacity=".326" overflow="visible"/><path transform="matrix(-.50094 0 0 .50094 18.542 6.402)" d="m-173.729 65.81 1.768 2.828-3.712 1.591-2.652-2.121-11.844.884-3.712 4.95-3.359-5.48-4.243 2.297-5.656-.707 1.414-3.005-3.89-3.889 5.48-6.187-5.303.707-2.298-2.121 3.006.53 3.182-5.48 4.596-1.06-3.713-1.238-.176-3.182 7.248-6.364 2.651-8.485 12.021 3.535 3.005 7.071 1.06-2.298 3.006.177v2.828l3.536-4.066 4.773 5.127V49.9l-8.309 7.248 5.303 3.005-.176 3.005z" fill="url(#f)" overflow="visible" stroke="url(#g)"/><path transform="matrix(-.50094 0 0 .50094 18.542 6.402)" d="m-184.158 50.96.883 6.541-2.12 3.359 4.595 1.414 2.652 5.303-12.02.884-2.83 4.066-2.297-6.187 4.419-2.828 6.718 1.944-2.652-3.535 1.414-6.188z" fill="url(#h)" opacity=".77" overflow="visible"/><path transform="matrix(-.50094 0 0 .50094 18.542 6.402)" d="m-185.22 52.021-4.419 6.894-7.247-4.95-4.42 2.475-3.535-3.005-3.182 2.829 3.005-4.95 6.894-1.591 8.662-4.243s12.375 3.713 11.667 3.713c-.707 0-10.253.176-10.253.176l-1.59-2.298-4.243 1.945z" fill="url(#i)" opacity=".618" overflow="visible"/><path d="m115.84 22.277-5.225 1.771-.708 1.949 3.01 2.125 2.835-2.745z" fill="#fff" overflow="visible"/><path transform="matrix(-.50094 0 0 .50094 18.542 6.402)" d="m-194.41 32.045-2.298 7.425-4.242 3.712 8.662-1.944s2.475 2.828 1.414 2.828c-1.06 0-12.551 1.414-12.551 1.414l.177 2.298 16.263-3.005-7.071-6.54z" fill="url(#j)" opacity=".135" overflow="visible"/><path d="m104.773 27.68-.443 4.427.974-3.011 2.568.797.62-1.328 3.1.442.708-.62-4.516-.177-.443 1.24-1.948-.974zm7.527 6.552 1.505 1.771 3.454-2.302 2.125 1.151 3.454 3.277-3.808-2.923-1.86-.531-3.63 2.48z" fill="#fff" overflow="visible"/><path transform="matrix(-.55454 0 0 .55454 129.48 31.832)" d="M46.315 40.664a21.478 6.983 0 1 1-42.956 0 21.478 6.983 0 1 1 42.956 0z" fill="url(#k)" opacity=".326" overflow="visible"/><path d="m123.281 53.363.886 1.417-1.86.797-1.328-1.062-5.933.442-1.86 2.48-1.683-2.745-2.125 1.151-2.834-.354.709-1.506-1.948-1.948 2.745-3.1-2.657.355-1.151-1.063 1.505.266 1.594-2.745 2.303-.532-1.86-.62-.089-1.593 3.631-3.188 1.329-4.251 6.021 1.771 1.506 3.542.531-1.151 1.505.089v1.416l1.772-2.036 2.39 2.568v3.63l-4.162 3.631 2.657 1.506-.088 1.505-1.506 1.328z" fill="url(#q)" overflow="visible" stroke="url(#r)" stroke-width=".501"/><path d="m118.056 45.925.443 3.276-1.062 1.683 2.302.708 1.328 2.657-6.021.443-1.417 2.037-1.152-3.1 2.214-1.417 3.365.974-1.328-1.77.709-3.1z" fill="url(#s)" opacity=".77" overflow="visible"/><path d="m117.525 46.456-2.214 3.454-3.63-2.48-2.214 1.24-1.771-1.505-1.594 1.416 1.505-2.48 3.454-.796 4.339-2.125s6.199 1.86 5.844 1.86c-.354 0-5.136.088-5.136.088l-.797-1.151-2.125.974 4.34 1.505z" fill="url(#t)" opacity=".618" overflow="visible"/><path d="m113.009 36.272 5.225 1.771.708 1.949-3.01 2.125-2.835-2.745-.088-3.1z" fill="#fff" overflow="visible"/><path d="m112.92 36.45-1.15 3.719-2.126 1.86 4.339-.975s1.24 1.417.708 1.417c-.531 0-6.287.709-6.287.709l.088 1.15 8.148-1.505-3.543-3.276-.177-3.1z" fill="url(#u)" opacity=".135" overflow="visible"/><path d="m124.078 41.674.443 4.428-.974-3.01-2.568.796-.62-1.328-3.1.443-.708-.62 4.516-.177.443 1.24 1.948-.975zm-7.527 6.553-1.505 1.771-3.454-2.302-2.125 1.151-3.454 3.277 3.808-2.923 1.86-.531 3.63 2.48z" fill="#fff" overflow="visible"/><path transform="translate(235.65 -4.513) scale(.50094)" d="m-173.729 65.81 1.768 2.828-3.712 1.591-2.652-2.121-11.844.884-3.712 4.95-3.359-5.48-4.243 2.297-5.656-.707 1.414-3.005-3.89-3.889 5.48-6.187-5.303.707-2.298-2.121 3.006.53 3.182-5.48 4.596-1.06-3.713-1.238-.176-3.182 7.248-6.364 2.651-8.485 12.021 3.535 3.005 7.071 1.06-2.298 3.006.177v2.828l3.536-4.066 4.773 5.127V49.9l-8.309 7.248 5.303 3.005-.176 3.005z" fill="url(#f)" overflow="visible" stroke="url(#g)"/><path transform="translate(235.65 -4.513) scale(.50094)" d="m-184.158 50.96.883 6.541-2.12 3.359 4.595 1.414 2.652 5.303-12.02.884-2.83 4.066-2.297-6.187 4.419-2.828 6.718 1.944-2.652-3.535 1.414-6.188z" fill="url(#h)" opacity=".77" overflow="visible"/><path transform="translate(235.65 -4.513) scale(.50094)" d="m-185.22 52.021-4.419 6.894-7.247-4.95-4.42 2.475-3.535-3.005-3.182 2.829 3.005-4.95 6.894-1.591 8.662-4.243s12.375 3.713 11.667 3.713c-.707 0-10.253.176-10.253.176l-1.59-2.298-4.243 1.945z" fill="url(#i)" opacity=".618" overflow="visible"/><path d="m138.348 11.363 5.224 1.771.709 1.948-3.011 2.125-2.834-2.745z" fill="#fff" overflow="visible"/><path transform="translate(235.65 -4.513) scale(.50094)" d="m-194.41 32.045-2.298 7.425-4.242 3.712 8.662-1.944s2.475 2.828 1.414 2.828c-1.06 0-12.551 1.414-12.551 1.414l.177 2.298 16.263-3.005-7.071-6.54z" fill="url(#j)" opacity=".135" overflow="visible"/><path d="m149.417 16.765.443 4.427-.974-3.01-2.568.797-.62-1.329-3.1.443-.708-.62 4.516-.177.443 1.24 1.948-.974zm-7.527 6.553-1.506 1.77-3.453-2.302-2.126 1.152-3.453 3.276 3.808-2.922 1.86-.531 3.63 2.48z" fill="#fff" overflow="visible"/><path transform="matrix(0 -.50094 -.50094 0 151.61 -70.805)" d="m-173.729 65.81 1.768 2.828-3.712 1.591-2.652-2.121-11.844.884-3.712 4.95-3.359-5.48-4.243 2.297-5.656-.707 1.414-3.005-3.89-3.889 5.48-6.187-5.303.707-2.298-2.121 3.006.53 3.182-5.48 4.596-1.06-3.713-1.238-.176-3.182 7.248-6.364 2.651-8.485 12.021 3.535 3.005 7.071 1.06-2.298 3.006.177v2.828l3.536-4.066 4.773 5.127V49.9l-8.309 7.248 5.303 3.005-.176 3.005z" fill="url(#f)" overflow="visible" stroke="url(#g)"/><path transform="matrix(0 -.50094 -.50094 0 151.61 -70.805)" d="m-184.158 50.96.883 6.541-2.12 3.359 4.595 1.414 2.652 5.303-12.02.884-2.83 4.066-2.297-6.187 4.419-2.828 6.718 1.944-2.652-3.535 1.414-6.188z" fill="url(#h)" opacity=".77" overflow="visible"/><path transform="matrix(0 -.50094 -.50094 0 151.61 -70.805)" d="m-185.22 52.021-4.419 6.894-7.247-4.95-4.42 2.475-3.535-3.005-3.182 2.829 3.005-4.95 6.894-1.591 8.662-4.243s12.375 3.713 11.667 3.713c-.707 0-10.253.176-10.253.176l-1.59-2.298-4.243 1.945z" fill="url(#i)" opacity=".618" overflow="visible"/><path d="m135.74 26.495-1.772-5.224-1.948-.709-2.125 3.011 2.745 2.834z" fill="#fff" overflow="visible"/><path transform="matrix(0 -.50094 -.50094 0 151.61 -70.805)" d="m-194.41 32.045-2.298 7.425-4.242 3.712 8.662-1.944s2.475 2.828 1.414 2.828c-1.06 0-12.551 1.414-12.551 1.414l.177 2.298 16.263-3.005-7.071-6.54z" fill="url(#j)" opacity=".135" overflow="visible"/><path d="m130.336 15.426-4.428-.443 3.01.974-.796 2.568 1.328.62-.443 3.1.62.708.177-4.516-1.24-.443.975-1.948zm-6.553 7.527-1.771 1.506 2.302 3.453-1.151 2.126-3.277 3.453 2.923-3.808.53-1.86-2.479-3.63z" fill="#fff" overflow="visible"/><path transform="translate(231.62 8.909) scale(.50094)" d="m-173.729 65.81 1.768 2.828-3.712 1.591-2.652-2.121-11.844.884-3.712 4.95-3.359-5.48-4.243 2.297-5.656-.707 1.414-3.005-3.89-3.889 5.48-6.187-5.303.707-2.298-2.121 3.006.53 3.182-5.48 4.596-1.06-3.713-1.238-.176-3.182 7.248-6.364 2.651-8.485 12.021 3.535 3.005 7.071 1.06-2.298 3.006.177v2.828l3.536-4.066 4.773 5.127V49.9l-8.309 7.248 5.303 3.005-.176 3.005z" fill="url(#f)" overflow="visible" stroke="url(#g)"/><path transform="translate(231.62 8.909) scale(.50094)" d="m-184.158 50.96.883 6.541-2.12 3.359 4.595 1.414 2.652 5.303-12.02.884-2.83 4.066-2.297-6.187 4.419-2.828 6.718 1.944-2.652-3.535 1.414-6.188z" fill="url(#h)" opacity=".77" overflow="visible"/><path transform="translate(231.62 8.909) scale(.50094)" d="m-185.22 52.021-4.419 6.894-7.247-4.95-4.42 2.475-3.535-3.005-3.182 2.829 3.005-4.95 6.894-1.591 8.662-4.243s12.375 3.713 11.667 3.713c-.707 0-10.253.176-10.253.176l-1.59-2.298-4.243 1.945z" fill="url(#i)" opacity=".618" overflow="visible"/><path d="m134.321 24.784 5.225 1.772.708 1.948-3.01 2.125-2.834-2.745z" fill="#fff" overflow="visible"/><path transform="translate(231.62 8.909) scale(.50094)" d="m-194.41 32.045-2.298 7.425-4.242 3.712 8.662-1.944s2.475 2.828 1.414 2.828c-1.06 0-12.551 1.414-12.551 1.414l.177 2.298 16.263-3.005-7.071-6.54z" fill="url(#j)" opacity=".135" overflow="visible"/><path d="m145.39 30.186.443 4.428-.974-3.01-2.568.796-.62-1.328-3.1.443-.708-.62 4.517-.177.442 1.24 1.949-.975zm-7.527 6.554-1.505 1.77-3.454-2.302-2.125 1.151-3.454 3.277 3.808-2.923 1.86-.53 3.63 2.479z" fill="#fff" overflow="visible"/><path transform="matrix(0 .50094 .50094 0 97.571 143.1)" d="m-173.729 65.81 1.768 2.828-3.712 1.591-2.652-2.121-11.844.884-3.712 4.95-3.359-5.48-4.243 2.297-5.656-.707 1.414-3.005-3.89-3.889 5.48-6.187-5.303.707-2.298-2.121 3.006.53 3.182-5.48 4.596-1.06-3.713-1.238-.176-3.182 7.248-6.364 2.651-8.485 12.021 3.535 3.005 7.071 1.06-2.298 3.006.177v2.828l3.536-4.066 4.773 5.127V49.9l-8.309 7.248 5.303 3.005-.176 3.005z" fill="url(#f)" overflow="visible" stroke="url(#g)"/><path transform="matrix(0 .50094 .50094 0 97.571 143.1)" d="m-184.158 50.96.883 6.541-2.12 3.359 4.595 1.414 2.652 5.303-12.02.884-2.83 4.066-2.297-6.187 4.419-2.828 6.718 1.944-2.652-3.535 1.414-6.188z" fill="url(#h)" opacity=".77" overflow="visible"/><path transform="matrix(0 .50094 .50094 0 97.571 143.1)" d="m-185.22 52.021-4.419 6.894-7.247-4.95-4.42 2.475-3.535-3.005-3.182 2.829 3.005-4.95 6.894-1.591 8.662-4.243s12.375 3.713 11.667 3.713c-.707 0-10.253.176-10.253.176l-1.59-2.298-4.243 1.945z" fill="url(#i)" opacity=".618" overflow="visible"/><path d="m113.447 45.804 1.77 5.225 1.95.708 2.124-3.01-2.745-2.834z" fill="#fff" overflow="visible"/><path transform="matrix(0 .50094 .50094 0 97.571 143.1)" d="m-194.41 32.045-2.298 7.425-4.242 3.712 8.662-1.944s2.475 2.828 1.414 2.828c-1.06 0-12.551 1.414-12.551 1.414l.177 2.298 16.263-3.005-7.071-6.54z" fill="url(#j)" opacity=".135" overflow="visible"/><path d="m118.849 56.873 4.427.443-3.01-.974.797-2.568-1.329-.62.443-3.1-.62-.708-.177 4.516 1.24.443-.974 1.948zm6.553-7.527 1.77-1.505-2.302-3.454 1.152-2.125 3.276-3.454-2.922 3.808-.531 1.86 2.48 3.63z" fill="#fff" overflow="visible"/></g><path d="m29.599 49.43-.009-8.103h-5.554l-6.63-1.2 4.37 7.839c.215.38 1.499 1.465 3.667 1.465z" fill="#df5656"/><path d="m24.036 41.327 1.424-2.558 1.821 1.085-1.291-3.734-1.292-3.725-3.774.704-3.767.703 1.523.911-1.241 2.218c-.588 1.06-.696 2.012-.033 3.196l4.37 7.839c.108.19.489.554 1.11.877-2.12-1.531-.895-3.915 1.15-7.516z" fill="#ff9292"/><path d="m21.644 29.266 6.788 4.056a1452.98 1452.98 0 0 0 2.773-4.991L35.534 23h-8.75c-.43 0-1.978.604-3.062 2.541z" fill="#df5656"/><path d="m31.205 28.34 1.432 2.557-1.821 1.093 3.774.703 3.767.704 1.3-3.725 1.29-3.733-1.523.91-1.241-2.227C37.595 23.562 36.85 23 35.533 23h-8.749c-.215 0-.712.149-1.291.546 2.334-1.125 3.725 1.16 5.712 4.793z" fill="#ff9292"/><path d="m44.2 32.346-7.027 4.056a910.9 910.9 0 0 0 2.79 4.81l2.268 6.34 4.602-7.707c.224-.372.522-2.028-.555-3.907z" fill="#df5656"/><path d="m39.963 41.211-2.94.041.034-2.119-5.165 5.977 2.491 2.905 2.5 2.914.025-1.771 2.55-.042c1.208-.016 2.077-.397 2.773-1.564l4.602-7.707c.116-.19.248-.695.207-1.399-.265 2.6-2.939 2.732-7.077 2.765z" fill="#ff9292"/><path d="M32 5a27 27 0 0 0-19 7.87c0 .71 1 2.13 3 2.13h32c2 0 3-1.435 3-2.152A27 27 0 0 0 32 5z" opacity=".35" style="paint-order:stroke fill markers"/><path d="M50.799 12.656C50.417 13.287 49.486 14 48 14H16c-1.481 0-2.41-.7-2.795-1.324-.067.065-.138.126-.205.193 0 .71 1 2.13 3 2.13h32c2 0 3-1.434 3-2.151-.066-.066-.135-.127-.201-.192z" opacity=".1" style="paint-order:stroke fill markers"/><path d="M31.855 2A30 30 0 0 0 2 32a30 30 0 0 0 30 30 30 30 0 0 0 30-30A30 30 0 0 0 32 2a30 30 0 0 0-.145 0zM32 3a29 29 0 0 1 29 29 29 29 0 0 1-29 29A29 29 0 0 1 3 32 29 29 0 0 1 32 3z" opacity=".05" style="paint-order:stroke fill markers"/></svg>