<?xml version="1.0" encoding="UTF-8" standalone="no"?>
<!-- Created with Inkscape (http://www.inkscape.org/) -->

<svg
   width="16"
   height="16"
   viewBox="0 0 4.2333332 4.2333335"
   version="1.1"
   id="svg11945"
   inkscape:version="1.1.1 (3bf5ae0d25, 2021-09-20, custom)"
   sodipodi:docname="weather-showers-small.svg"
   xmlns:inkscape="http://www.inkscape.org/namespaces/inkscape"
   xmlns:sodipodi="http://sodipodi.sourceforge.net/DTD/sodipodi-0.dtd"
   xmlns="http://www.w3.org/2000/svg"
   xmlns:svg="http://www.w3.org/2000/svg">
  <sodipodi:namedview
     id="namedview11947"
     pagecolor="#ffffff"
     bordercolor="#666666"
     borderopacity="1.0"
     inkscape:pageshadow="2"
     inkscape:pageopacity="0.0"
     inkscape:pagecheckerboard="0"
     inkscape:document-units="px"
     showgrid="false"
     units="in"
     inkscape:zoom="32"
     inkscape:cx="5.3125"
     inkscape:cy="10.828125"
     inkscape:window-width="1920"
     inkscape:window-height="996"
     inkscape:window-x="0"
     inkscape:window-y="0"
     inkscape:window-maximized="1"
     inkscape:current-layer="svg11945"
     showguides="true" />
  <defs
     id="defs11942" />
  <path
     id="path1846"
     style="fill:#a7e6fc;stroke-width:1.32292;stroke-linecap:round;stroke-linejoin:round"
     d="m 1.3229166,3.7041667 c 0,0.1461253 -0.118458,0.2645833 -0.2645833,0.2645833 -0.14612534,0 -0.26458334,-0.118458 -0.26458337,-0.2645833 C 0.7937499,3.5580413 1.0583333,3.175 1.0583333,3.175 c 0,0 0.2645833,0.3830414 0.2645833,0.5291667 z"
     sodipodi:nodetypes="ssscs" />
  <path
     id="path2555"
     style="fill:#a7e6fc;stroke-width:1.32292;stroke-linecap:round;stroke-linejoin:round"
     d="m 2.3812498,3.7041667 c 0,0.1461253 -0.1184579,0.2645833 -0.2645832,0.2645833 -0.1461253,0 -0.2645833,-0.118458 -0.2645833,-0.2645833 0,-0.1461254 0.2645833,-0.5291667 0.2645833,-0.5291667 0,0 0.2645832,0.3830414 0.2645832,0.5291667 z"
     sodipodi:nodetypes="ssscs" />
  <path
     id="path2926"
     style="fill:#a7e6fc;stroke-width:1.08016;stroke-linecap:round;stroke-linejoin:round"
     d="M 3.4395832,3.7041667 C 3.4395832,3.850292 3.3211253,3.96875 3.175,3.96875 3.0288747,3.96875 2.9104167,3.8502921 2.9104167,3.7041667 2.9104167,3.5580413 3.175,3.175 3.175,3.175 c 0,0 0.2645832,0.3830413 0.2645832,0.5291667 z"
     sodipodi:nodetypes="ssscs" />
  <path
     id="rect6069"
     style="fill:#d6d6d6;stroke-width:5.00001;stroke-linecap:round;stroke-linejoin:round;fill-opacity:1"
     d="m 8,2 c -2.7614238,-1e-7 -5.0000001,2.2385762 -5,5 H 2 C 0.89199994,7 0,7.8919998 0,9 c 0,1.108 0.89199994,2 2,2 h 12 c 1.108,0 2,-0.892 2,-2 C 16,7.8919998 15.108,7 14,7 H 13 C 13,4.2385762 10.761424,1.9999999 8,2 Z"
     sodipodi:nodetypes="scssccsscs"
     transform="scale(0.26458333)" />
</svg>
