<svg xmlns="http://www.w3.org/2000/svg" viewBox="0 0 16 16">
  <defs id="defs3051">
    <style type="text/css" id="current-color-scheme">
      .ColorScheme-Text {
        color:#363636;
      }
      .ColorScheme-Highlight {
        color:#3daee9;
      }
      </style>
  </defs>
 <path style="fill:currentColor;fill-opacity:1;stroke:none" 
     d="m8 2c-3.314 0-6 2.686-6 6 0 3.314 2.686 6 6 6 1.775 0 3.364-.775 4.463-2h-1.5c-.831.618-1.847 1-2.963 1-2.761 0-5-2.239-5-5 0-2.761 2.239-5 5-5 2.761 0 5 2.239 5 5 0 .342-.034.677-.1 1h1.01c.055-.326.09-.658.09-1 0-3.314-2.686-6-6-6m-1 2v5h5v-1h-4v-4z"
     class="ColorScheme-Text"
     />
 <path style="fill:currentColor;fill-opacity:1;stroke:none" 
     d="m10 10v1h2a1 1 0 0 1 1 1 1 1 0 0 1 -1 1v1a2 2 0 0 0 2 -2 2 2 0 0 0 -2 -2z"
     class="ColorScheme-Highlight"
     />
</svg>
