<svg width="16" height="16" version="1.1" xmlns="http://www.w3.org/2000/svg">
 <defs>
  <style id="current-color-scheme" type="text/css">.ColorScheme-Text { color:#363636; }</style>
 </defs>
 <g fill="#ff9601">
  <path class="ColorScheme-Text" d="m8.0123 0c-0.74516 0-1.3802 0.39746-1.7168 0.99366-0.00391-2.274e-5 -0.00781-2.274e-5 -0.011719 0l-6.0312 11.129c-0.004929 0.03294-0.044057 0.09937-0.044057 0.09937-0.30974 0.59619-0.28662 1.2917 0.11046 1.888 0.35293 0.49683 1.0401 0.89429 1.6543 0.89429h12.107c0.66341 0 1.3195-0.39746 1.668-0.99366 0.26446-0.39746 0.27792-0.89429 0.18164-1.3911-0.0014-0.13709-0.03131-0.27242-0.08789-0.39746-0.0093-0.03368-0.02038-0.06685-0.0332-0.09937l-6.0762-11.129c-0.00195-5.69e-6 -0.00391-5.69e-6 -0.00586 0-0.34915-0.5962-1.0357-0.99366-1.7148-0.99366zm0 0.99366c0.35196 0 0.66752 0.19874 0.8418 0.49683l6.0762 11.129c0.13952 0.29809 0.13811 0.5962-0.03906 0.89429-0.14191 0.29809-0.4591 0.49683-0.81055 0.49683h-12.107c-0.3524 0-0.63384-0.19874-0.80859-0.39746-0.17476-0.29809-0.17318-0.69555-0.03125-0.99366l6.0312-11.129c0.17719-0.29809 0.49524-0.49683 0.84766-0.49683z" stroke-width=".99793"/>
  <path d="m8 4c0.554 0 1 0.446 1 1v4c0 0.554-0.446 1-1 1s-1-0.446-1-1v-4c0-0.554 0.446-1 1-1z" stroke-linecap="round" stroke-linejoin="round"/>
  <path d="m9 12a1 1 0 0 1-1 1 1 1 0 0 1-1-1 1 1 0 0 1 1-1 1 1 0 0 1 1 1z" stroke-linecap="round" stroke-linejoin="round"/>
 </g>
</svg>
