<svg xmlns="http://www.w3.org/2000/svg" viewBox="0 0 16 16">
  <defs id="defs3051">
    <style type="text/css" id="current-color-scheme">
      .ColorScheme-Text {
        color:#363636;
      }
      </style>
  </defs>
 <path style="fill:currentColor;fill-opacity:1;stroke:none" 
     d="M 2 2 L 2 5 L 3 5 L 3 10 L 3 10.111328 L 2 11.125 L 2 12.5 L 2 14 C 2.5669591 14.009969 2.9082961 14.002744 3.5 14 C 4.0300681 13.997542 4.84375 14 4.84375 14 C 4.8476677 14.000164 5.6326634 13.194382 5.8261719 13 L 6 13 L 11 13 L 11 14 L 14 14 L 14 11 L 13 11 L 12 11 L 11 11 L 11 12 L 6.8105469 12 C 9.2200533 9.5566597 13.84375 4.84375 13.84375 4.84375 L 11 2 L 4 9.0976562 L 4 5 L 5 5 L 5 4 L 5 3 L 5 2 L 2 2 z M 3 3 L 4 3 L 4 4 L 3 4 L 3 3 z M 10.28125 4.15625 L 11.6875 5.5625 L 6.2734375 11.123047 L 4.8652344 9.7265625 L 10.28125 4.15625 z M 13.96875 9 C 13.96175 9.00003 13.939141 9.0058594 13.931641 9.0058594 L 14 9.0058594 C 13.9879 9.0038588 13.98115 9.002 13.96875 9 z M 12 12 L 13 12 L 13 13 L 12 13 L 12 12 z "
     class="ColorScheme-Text"
     />
</svg>
