<svg xmlns="http://www.w3.org/2000/svg" viewBox="0 0 16 16">
  <defs id="defs3051">
    <style type="text/css" id="current-color-scheme">
      .ColorScheme-Text {
        color:#363636;
      }
      </style>
  </defs>
 <path style="fill:currentColor;fill-opacity:1;stroke:none" 
     d="M 9.5 2 L 8.78125 2.71875 L 11.09375 5 L 10 5 L 8.8125 5 L 8 5 L 7.5 5 C 5.0147171 5 3 7.0147479 3 9.5 C 3 11.985252 5.0147171 14 7.5 14 L 8 14 L 9 14 L 9 13 L 8 13 L 7.5 13 C 5.5670021 13 4 11.433002 4 9.5 C 4 7.5669984 5.5670021 6 7.5 6 L 8 6 L 8.8125 6 L 10 6 L 11.09375 6 L 8.78125 8.28125 L 9.5 9 L 12.78125 5.71875 L 13 5.5 L 12.78125 5.28125 L 9.5 2 z "
     class="ColorScheme-Text"
     />
</svg>
