<svg xmlns="http://www.w3.org/2000/svg" viewBox="0 0 16 16">
  <defs id="defs3051">
    <style type="text/css" id="current-color-scheme">
      .ColorScheme-Text {
        color:#363636;
      }
      </style>
  </defs>
 <path style="fill:currentColor;fill-opacity:1;stroke:none" 
     d="M8 2A4 4 0 0 0 4 6 4 4 0 0 0 6 9.458984V14L8 12 10 14V9.459A4 4 0 0 0 12 6 4 4 0 0 0 8 2M8 3A3 3 0 0 1 11 6 3 3 0 0 1 8 9 3 3 0 0 1 5 6 3 3 0 0 1 8 3M8 4L7.381 5.316 6 5.527 7 6.553 6.764 8 8 7.316 9.236 8 9 6.553 10 5.527 8.619 5.316z"
     class="ColorScheme-Text"
     />
</svg>
