<svg viewBox="0 0 16 16" xmlns="http://www.w3.org/2000/svg">
    <style type="text/css" id="current-color-scheme">
        .ColorScheme-Text {
            color:#363636;
        }
    </style>
    <g class="ColorScheme-Text" fill="currentColor">
        <path d="M4 6h8v1H4zm0 3h8v1H4z"/>
        <path d="M4.36 10.944q0 1.52 1.104 2.368 1.104.848 2.976.848.96 0 1.776-.144.816-.144 1.36-.4V12.24q-.576.256-1.424.464-.864.208-1.776.208-1.264 0-1.92-.496-.656-.496-.656-1.344 0-.56.24-.944.24-.384.832-.704.592-.32 1.616-.704 1.472-.528 2.208-1.296.736-.768.736-2.096 0-.896-.464-1.552t-1.28-1.008q-.816-.352-1.904-.352-.928 0-1.712.176-.784.176-1.44.464l.448 1.232q.592-.256 1.296-.432.704-.176 1.44-.176 1.072 0 1.616.464.544.448.544 1.2 0 .576-.24.96t-.784.704q-.544.304-1.472.64-1.008.368-1.696.8-.704.416-1.056 1.008-.368.592-.368 1.488z"/>
    </g>
</svg>
