<svg version="1.1" viewBox="0 0 16 16" xmlns="http://www.w3.org/2000/svg">
 <defs>
  <style id="current-color-scheme" type="text/css">.ColorScheme-Text {
        color:#363636;
      }</style>
 </defs>
 <path class="ColorScheme-Text" d="m1 7v1h3v-1zm1 2v1h2v-1z" fill="currentColor"/>
 <path d="m5 2v1h9c0.48888 0 0.87448 0.35406 0.96289 0.81641l-6.4238 5.1152c-0.30559 0.24335-0.77256 0.24335-1.0781 0l-2.4609-1.959v2.0566l0.49805-0.39648 1.1699 0.93164c0.73087 0.58201 1.9332 0.58201 2.6641 0l1.1699-0.93164 4.4609 3.5508c-0.08841 0.46235-0.47401 0.81641-0.96289 0.81641h-9v1h9c1.108 0 2-0.892 2-2v-8c0-1.108-0.892-2-2-2h-9zm10 3.0488v5.9023l-3.7051-2.9512 3.7051-2.9512z" style="fill:currentColor" class="ColorScheme-Text"/>
 <rect y="5" width="4" height="1" ry="0" style="fill:currentColor" class="ColorScheme-Text"/>
</svg>
