<svg xmlns="http://www.w3.org/2000/svg" viewBox="0 0 16 16">
  <defs id="defs3051">
    <style type="text/css" id="current-color-scheme">
      .ColorScheme-Text {
        color:#363636;
      }
      </style>
  </defs>
 <path style="fill:currentColor;fill-opacity:1;stroke:none" 
     d="M 8.5 2 C 7.119294 2 6.0000083 3.1192857 6 4.5 L 6 10.535156 L 6.0019531 10.535156 C 6.0210368 11.349063 6.6858693 11.999164 7.5 12 C 8.3284271 12 9 11.328427 9 10.5 L 9 5 L 8 5 L 8 10.5 C 8 10.776142 7.7761424 11 7.5 11 C 7.2238576 11 7 10.776142 7 10.5 L 7 4.5 C 7 3.6715729 7.6715729 3 8.5 3 C 9.3284271 3 10 3.6715729 10 4.5 L 10 10.5 C 10 11.880712 8.8807119 13 7.5 13 C 6.1192881 13 5 11.880712 5 10.5 L 5 4 L 4 4 L 4 10.5 C 4 12.433 5.567 14.000008 7.5 14 C 9.433 14.000008 11.000008 12.433 11 10.5 L 11 4.4648438 L 10.998047 4.4648438 C 10.978872 3.0986385 9.866332 2.0009322 8.5 2 z "
     class="ColorScheme-Text"
     />
</svg>
