<svg xmlns="http://www.w3.org/2000/svg" viewBox="0 0 16 16">
  <defs id="defs3051">
    <style type="text/css" id="current-color-scheme">
      .ColorScheme-Text {
        color:#363636;
      }
      .ColorScheme-Highlight {
        color:#3daee9;
      }
      </style>
  </defs>
  <path 
        style="fill:currentColor;fill-opacity:1;stroke:none"
        d="M 11 3.5 A 7.5 7.5 0 0 0 3.5 11 L 4.5 11 A 6.5 6.5 0 0 1 11 4.5 L 11 3.5 z M 12.003906 10 A 2 2 0 0 0 10.003906 12 A 2 2 0 0 0 10.283203 13.013672 L 11.039062 12.257812 A 1 1 0 0 1 11.003906 12 A 1 1 0 0 1 12.003906 11 A 1 1 0 0 1 12.261719 11.035156 L 13.017578 10.279297 A 2 2 0 0 0 12.003906 10 z M 13.724609 10.986328 L 12.96875 11.742188 A 1 1 0 0 1 13.003906 12 A 1 1 0 0 1 12.003906 13 A 1 1 0 0 1 11.746094 12.964844 L 10.990234 13.720703 A 2 2 0 0 0 12.003906 14 A 2 2 0 0 0 14.003906 12 A 2 2 0 0 0 13.724609 10.986328 z "
        class="ColorScheme-Text"
        />
  <path
        style="fill:currentColor;fill-opacity:1;stroke:none"
        d="M 11 2 L 11 6 L 15 6 L 15 2 L 11 2 z M 12 3 L 14 3 L 14 5 L 12 5 L 12 3 z M 2 10 L 2 14 L 6 14 L 6 10 L 2 10 z M 3 11 L 5 11 L 5 13 L 3 13 L 3 11 z "
        class="ColorScheme-Highlight"
      />
</svg>
