<svg version="1.1" viewBox="0 0 16 16" xmlns="http://www.w3.org/2000/svg">
 <defs>
  <style id="current-color-scheme" type="text/css">.ColorScheme-Text {
        color:#363636;
      }</style>
 </defs>
 <path d="m7.9941 1-5.9688 0.03125c-0.5477 0.003254-0.99089 0.44645-0.99414 0.99414l-0.03125 5.9688c-0.0013695 0.28107 0.1156 0.54974 0.32227 0.74023l6.5 6c0.39424 0.3637 1.0052 0.35164 1.3848-0.02734l5.5-5.5c0.37898-0.37957 0.39105-0.99053 0.02734-1.3848l-6-6.5c-0.19049-0.20667-0.45916-0.32364-0.74023-0.32227zm0.0058594 1 6 6.5-5.5 5.5-6.5-6 0.03125-5.9688zm-2.5 2c-0.828 0-1.5 0.672-1.5 1.5s0.672 1.5 1.5 1.5 1.5-0.672 1.5-1.5-0.672-1.5-1.5-1.5z" class="ColorScheme-Text" fill="currentColor"/>
</svg>
