<svg version="1.1" viewBox="0 0 16 16" xmlns="http://www.w3.org/2000/svg">
 <defs>
  <style id="current-color-scheme" type="text/css">.ColorScheme-Text {
        color:#363636;
      }</style>
 </defs>
 <g class="ColorScheme-Text" fill="currentColor">
  <path class="ColorScheme-Text" d="m10.336 6.5-3.1484 3.6094-1.5254-1.5527-0.66211 0.67578 2.2266 2.2676 3.7734-4.3223z" fill="currentColor"/>
  <path class="ColorScheme-Text" d="m2 1c-1.108 0-2 0.892-2 2v10c0 1.108 0.892 2 2 2h6.7617c-0.20691-0.31135-0.37421-0.64727-0.49805-1h-6.2637c-0.554 0-1-0.446-1-1v-8c0-0.554 0.446-1 1-1h11c0.554 0 1 0.446 1 1v3.2637c0.35263 0.12322 0.68855 0.28986 1 0.49609v-5.7598c0-1.108-0.892-2-2-2h-11z" fill="currentColor"/>
  <path class="ColorScheme-Text" d="m12.5 9c-1.933 0-3.5 1.567-3.5 3.5s1.567 3.5 3.5 3.5 3.5-1.567 3.5-3.5-1.567-3.5-3.5-3.5zm-0.5 1h1v2h2v1h-2v2h-1v-2h-2v-1h2z" fill="currentColor"/>
 </g>
</svg>
