<svg xmlns="http://www.w3.org/2000/svg" viewBox="0 0 16 16">
  <defs id="defs3051">
    <style type="text/css" id="current-color-scheme">
      .ColorScheme-Text {
        color:#363636;
      }
      </style>
  </defs>
  <path 
     style="fill:currentColor;fill-opacity:1;stroke:none" 
     d="M 1 8 L 1 14 L 2 14 L 2 8 L 1 8 z M 3 8 L 3 14 L 4 14 L 4 9 L 5 9 C 5.552 9 6 9.448 6 10 L 6 14 L 7 14 L 7 10 C 7 8.895 6.105 8 5 8 L 4 8 L 3 8 z M 10 8 L 10 14 L 11 14 L 11 8 L 10 8 z M 12 8 L 12 14 L 13 14 L 13 11 A 2 2 0 0 1 15 9 L 15 8 A 3 3.00001 0 0 0 13 8.7675781 L 13 8 L 12 8 z "
     class="ColorScheme-Text"/>
  <path
     style="fill:#1d99f3"
     d="M 7 2 L 4 4.5 L 7 7 L 7 2 z M 10 2 L 10 7 L 13 4.5 L 10 2 z " />
</svg>
