<svg xmlns="http://www.w3.org/2000/svg" viewBox="0 0 16 16">
  <defs id="defs3051">
    <style type="text/css" id="current-color-scheme">
      .ColorScheme-Text {
        color:#363636;
      }
      .ColorScheme-Highlight {
        color:#3daee9;
      }
      </style>
  </defs>
 <path 
     style="fill:currentColor;fill-opacity:1;stroke:none" 
     d="M 2 2 L 2 4 L 3 3 L 5 5 L 7 3 L 9 5 L 11 3 L 13 5 L 11 7 L 13 9 L 11 11 L 14 11 L 14 2 L 2 2 z M 11 11 L 9 9 L 9 11 L 11 11 z M 9 9 L 11 7 L 9 5 L 7 7 L 9 7 L 9 9 z M 7 7 L 5 5 L 3 7 L 7 7 z M 3 7 L 2 6 L 2 7 L 3 7 z "
     class="ColorScheme-Text"/>
  <path
     style="fill:currentColor;fill-opacity:1;stroke:none" 
     d="m 5.17,14.33 -0.707,-0.707 1.621,-1.621 -4.076,0 0,-1 4.076,0 L 4.463,9.381 5.17,8.674 7.998,11.502 7.291,12.209 Z" 
     class="ColorScheme-Highlight"/>
</svg>
