<svg xmlns="http://www.w3.org/2000/svg" viewBox="0 0 16 16">
  <defs id="defs3051">
    <style type="text/css" id="current-color-scheme">
      .ColorScheme-Text {
        color:#363636;
      }
      </style>
  </defs>
 <path style="fill:currentColor;fill-opacity:1;stroke:none" 
     d="m8 2c-3.314 0-6 2.686-6 6 0 3.314 2.686 6 6 6v-1c-.19 0-.378-.01-.563-.031-.147-.017-.295-.034-.438-.063-.283-.058-.549-.178-.813-.281-.009-.017-.033-.041-.031-.061.052-.022.15.074.188 0 .019-.035-.025-.121 0-.156.018-.024.119-.024.156-.031.053-.01.126-.017.156-.031.033-.021.069-.095.063-.156-.003-.029-.04-.037-.063-.063-.019-.022.013-.043 0-.063-.024-.035-.084-.043-.094-.094.072-.014.177.06.281.031.049-.014.133-.11.156-.156.007-.014-.008-.044 0-.063.009-.018.028-.052.031-.061.007-.027-.006-.013 0-.031.018-.051.064-.089.094-.125.023-.028.073-.065.094-.094.024-.031.015-.034.031-.063.015-.091-.053-.17-.031-.25.024-.09.163-.146.25-.188.03-.014.069-.022.094-.031.06-.021.131-.043.188-.063.094-.034.11-.102.156-.188.022-.04.059-.096.063-.125.004-.026-.005-.031 0-.061.005-.029-.008-.06 0-.094.011-.043.031-.14.031-.187 0-.04-.03-.06-.031-.096-.004-.069.011-.097.031-.119v-.885c-.06-.044-.121-.082-.188-.088h-.063c-.048 0-.102-.024-.156-.031-.034-.01-.105.01-.125 0-.031-.015-.037-.077-.063-.094-.02-.014-.063-.02-.094-.031-.049-.018-.068-.059-.125-.063-.018 0-.043.01-.063 0-.031-.01-.065-.013-.094-.031-.036-.022-.079-.031-.094-.063.033-.108-.072-.124-.094-.188-.01-.029.01-.099 0-.125-.013-.037-.053-.063-.094-.094-.072-.056-.116-.081-.219-.094-.046-.01-.101.01-.156 0-.058-.01-.144-.044-.188-.094-.042-.049-.057-.102-.094-.125-.035-.022-.07-.04-.094-.063-.011-.01-.021-.01-.031-.031-.018-.037-.053-.049-.031-.094-.04-.02-.019.038-.063.031-.039-.055-.068-.11-.156-.094-.04.01-.078.093-.125.094-.039 0-.074-.086-.125-.094-.039-.01-.098.036-.125.031-.043-.01-.055-.037-.094-.063-.029-.019-.078-.064-.094-.063-.05 0-.087.099-.156.063-.034-.043.071-.054.031-.094-.03-.029-.038.017-.063.031-.028.018-.063.02-.094.031-.069.026-.134.033-.188.061-.05.026-.063.045-.092.096-.023.042-.059.123-.094.125-.042 0-.056-.045-.094-.063-.115-.05-.186.029-.281.031-.088 0-.223-.136-.219-.219.003-.051.025-.125.031-.188.005-.05.062-.111.063-.156.001-.062-.116-.087-.156-.094-.094-.017-.206.042-.313 0-.02-.034.019-.062.031-.096.007-.018-.007-.041 0-.061.012-.032.077-.06.092-.094.011-.026-.011-.063 0-.096.013-.036.059-.068.063-.094.004-.034-.036-.072-.063-.094-.083.01-.139.01-.188.031-.108.049-.079.185-.188.219-.037.012-.083.024-.125.031-.018.01-.042 0-.063 0 .002-.01-.002-.021 0-.031.005-.023.026-.04.031-.063.071-.325.181-.64.313-.938h.031c.038.01.061.061.094.063.092.01.111-.085.188-.125.078.011.117-.01.188 0 .048.01.118.059.156.063.032 0 .032-.035.063-.031.03.01.089.058.094.094.005.045-.044.107-.031.156.047.048.152.066.219.094.044-.037.007-.104 0-.156-.001-.023.003-.073 0-.094-.005-.036-.031-.063-.031-.094 0-.143.123-.194.219-.25.041-.024.089-.076.125-.094.051-.025.083-.01.125-.031.076-.043.128-.108.188-.156.027-.065-.003-.155 0-.219.027-.017.065 0 .094 0 .046-.01.068-.068.094-.094.015-.015.045-.016.063-.031.046-.036.054-.078.094-.094.014-.01.04-.024.063-.031.03-.01.077-.013.125-.031.031-.011.113-.018.125-.031.015-.015-.004-.071 0-.094.024-.113.18-.118.281-.156.07-.026.141-.108.219-.094-.015.054-.075.06-.063.125.017.091.124-.018.156-.031.061-.026.17-.064.25-.094.07-.025.191-.044.125-.125-.055-.01-.077.043-.125.063-.033.01-.035-.028-.063-.031-.027 0-.035.036-.063.031-.027-.01-.059-.061-.063-.094-.011-.084.06-.094.094-.156-.023-.076-.124-.034-.188-.063.007-.045.041-.084.094-.094.043-.01.162.01.188.031.015.013-.023.041 0 .061.026.023.06.01.094 0 .012-.057-.072-.024-.063-.061.068-.044.198-.02.281-.031.048-.01.113-.04.156-.063.04-.023.052-.069.094-.031.012.041-.008.072-.031.094-.077.068-.159.14-.219.219.037.036.094.024.156.031.024.01.069 0 .094 0 .03.01.07-.01.094 0 .042.01.052.094.094.094.068 0 .039-.08 0-.125.012-.047.048-.092.031-.125-.031-.062-.15.018-.156-.063-.004-.05.045-.056.063-.094-.008-.096.072-.1.063-.188-.005-.036-.037-.027-.063-.061-.013-.018-.016-.082-.031-.096-.052-.044-.15-.01-.156-.094-.003-.05.007-.103 0-.156-.007-.051-.05-.209-.094-.219-.056-.012-.089.094-.156.125-.036.017-.119.037-.156.031-.024-.01-.059-.015-.063-.063-.004-.042.047-.061.063-.094.004-.01-.002-.02 0-.031.073-.02.145-.044.219-.061.042-.01.083-.023.125-.031.03-.01.064.01.094 0 .134-.025.269-.05.406-.063.166-.017.329-.031.5-.031v-.002c.173 0 .332.014.5.031h.125c.053.01.104.023.156.031.144.023.267.059.406.094.257.063.511.149.75.25.132.056.249.121.375.188 0 .01.001.02 0 .031.029.013.045.067.094.094.018.01.014.022.031.031.029.016.069.033.063.061-.008.04-.066.033-.094.063.004.058-.047.055-.063.094.009.025.059.033.063.062-.005.032-.075.03-.063.063.054.042.105.01.156 0 .112-.014.212-.011.281-.063-.009-.053.1-.046.094-.094.029.021.065.042.094.063-.011.01-.019.026-.031.031-.021.01-.043.017-.063.029-.028.018-.062.043-.094.063-.023.016-.07.094-.094.094-.029 0-.073-.037-.094-.031-.03.01-.029.051-.063.063-.066.024-.196-.035-.219.063.028.057.137.032.188.063.031.02.086.091.094.125.008.028.012.157 0 .188-.031.08-.127.062-.219.061h-.063c-.155-.01-.305-.08-.375.031.005.085.019.145 0 .219-.014.054-.097.11-.094.156.001.024.056.06.063.094.004.018-.008.045 0 .063.026.049.079-.01.125 0 .044.01.094.076.094.125 0 .035-.009.091-.031.125-.044.066-.124.058-.188.094-.052.03-.063.105-.094.156-.033.056-.075.076-.063.156-.045.089-.095.144-.188.188-.027.012-.069.013-.094.031-.02.014-.034.062-.063.094-.035.039-.075.064-.094.094-.014.023-.016.064-.031.096-.022.042-.066.052-.094.094-.013.02-.017.068-.031.094-.032.058-.069.105-.063.156.005.048.059.05.063.094.003.024-.032.037-.031.063.001.038.028.064.031.094.007.074-.049.106-.063.156-.007.024.006.043 0 .063-.012.037-.062.081-.063.125-.001.031.059.05.063.094.002.029-.037.066-.031.094.011.054.114.114.156.156.057.057.131.096.156.156.011.027.025.061.033.098h4.592c0-3.314-2.686-6-6-6m-2.031 1.469c-.032.183-.203.255-.406.25-.046.044-.006.127-.031.188-.021.051-.105.098-.156.094-.037 0-.094-.059-.094-.094 0-.043.068-.045.031-.094.002-.01.021-.021.031-.031.02-.013.042-.019.063-.031.181-.111.367-.193.563-.281m4.188.186v.002c-.018.01-.015.021-.031.031-.038.023-.065.053-.094.063-.041.015-.088.024-.094.061-.005.031.032.034.031.063-.015.037-.023.049-.031.094.051.083.156-.018.219-.031.028-.01.047-.01.063-.031.017-.027.018-.056.031-.094.014-.042.068-.057.063-.094-.004-.037-.094-.067-.156-.063m-5.469.627c.047.038.114.121.031.156-.01.01-.132.035-.156.031-.01 0-.023-.024-.031-.031.052-.05.102-.108.156-.156m.188.189c.023.002.035.06.063.061.027 0 .046-.035.063-.031.042.011.071.094.031.125-.033.01-.038-.035-.063-.031-.068.012-.105.16-.156.156-.048-.01-.08-.121-.031-.156.001-.03-.002-.032 0-.063.015-.018.054-.064.094-.061m-.25.029c.014 0 .026-.01.031 0-.007.053-.021.069-.063.094-.071.043-.133.096-.156.188-.007.027-.091.1-.125.094-.079-.017.045-.165.063-.188.02-.025.04-.035.063-.063.023-.028.04-.078.063-.094.024-.017.083-.033.125-.031m6.781.156c.079-.01.12.077.156.125.03.039.107.098.156.125.028.015.063.05.094.063.065.029.184.123.188.188.001.032-.036.064-.031.094.049.01.093-.076.094-.125.092.13.171.268.25.406.037.065.09.12.125.188-.044.013-.055.021-.063.063-.01.056.021.146-.063.156-.053.01-.115-.045-.188-.063-.03-.01-.07.01-.094 0-.055-.018-.047-.092-.094-.125-.027-.019-.113-.059-.156-.063-.027 0-.034.01-.063 0-.034-.01-.097.014-.125 0-.027-.017-.087-.071-.094-.094-.011-.037.092-.062.094-.094.002-.024-.026-.057-.031-.094-.004-.022.005-.048 0-.063-.007-.026-.053-.03-.094-.031h-.375c-.087.01-.151-.01-.219 0-.049 0-.142.043-.188.063-.023.011-.033.016-.063.031-.014.01-.044.023-.063.031-.028.013-.067.053-.094.061-.039.01-.085-.01-.156 0-.051 0-.124-.033-.125-.094-.001-.093.162-.045.25-.063.033-.01.054-.037.094-.061.019-.011.013-.019.031-.031.03-.021.089-.07.094-.094.004-.022-.003-.045 0-.063.004-.021.036-.035.063-.063.042-.042.073-.098.125-.125.035-.018.078-.035.094-.063.004-.032-.001-.031 0-.061.022-.02.044-.027.063-.031.054-.012.093 0 .156 0 .027 0 .065.013.094 0 .024-.016.039-.051.063-.063.026-.014.062-.029.094-.031zm.563.594h-.125c-.044 0-.099-.023-.125 0 .037.06.105.079.188.094.03-.022.049-.055.063-.094m-6.844-.563h.094c.025 0 .053-.01.063 0-.016.066-.167.055-.219.031.003-.025.03-.027.063-.031m-.219.125c-.044.032-.087.072-.156.094-.038.012-.087.011-.094-.031-.008-.052.06-.026.094-.031.044-.01.105-.029.156-.031m6.5 0c-.033.011-.049.084 0 .094.023-.014.037-.051.031-.094-.013-.014-.021-.01-.031 0m-.063.156c.001.056.011.108 0 .156.032.062.109.011.125-.031.019-.104-.014-.138-.063-.125-.016.01-.046-.013-.063 0m-8.281 2.344c.056.051.089.123.156.156.025.013.062.023.094.031.026.01.038-.01.063 0 .053.018.114.043.156.063.064.028.132.124.188.156.003.032-.01.07 0 .094.026.035.052.07.094.094.051.028.077.072.125.094.017.01.037-.01.063 0 .066.02.099.11.156.094.037-.011.025-.058.031-.094.025-.027.055-.063.094-.063.062 0 .071.096.094.156.013.034.053.058.063.094.015.062.013.244 0 .281-.016.046-.087.043-.125.094-.018.024-.017.079-.031.096-.024.029-.045.034-.063.061-.01.015-.022.043-.031.063-.03.064-.088.111-.063.188.01.031.063.057.063.094 0 .044-.087.077-.094.125-.005.035.02.078.031.125.008.035.073.071.094.094.035.039.062.107.094.156.063.097.094.217.156.313.033.049.103.073.125.125.011.026-.01.07 0 .094.036.081.2.179.281.219.038.019.09.011.125.031.053.03.161.11.188.156.024.042.019.152.031.219.015.088-.004.155 0 .25.003.052.031.073.031.125 0 .018.001.075 0 .094-.001.062.005.124 0 .188-.003.034-.002.067 0 .096.003.031.029.034.031.061.002.029-.034.071-.031.094.007.063.051.098.063.156.01.046.037.164.031.219-.004.029-.027.063-.031.096-.003.026.004.038 0 .061-.003.023.006.043 0 .063-.032-.02-.062-.041-.094-.063-.266-.18-.524-.399-.75-.625-.031-.031-.064-.062-.094-.094-.181-.19-.351-.408-.5-.625-.014-.02-.018-.043-.031-.063-.173-.259-.315-.522-.438-.813-.009-.021-.023-.04-.031-.061-.105-.259-.189-.534-.25-.813-.011-.053-.021-.103-.031-.156-.025-.134-.049-.269-.063-.406-.017-.169-.031-.329-.031-.502 0-.238.03-.459.063-.688m1.938.531c.048-.022.039.056 0 .063-.037.01-.036-.045 0-.063m4 1.156v4h2v1h3v-2h-4v-1h4v-2h-3v1h-1v-1z"
     class="ColorScheme-Text"
     />
</svg>
