<svg version="1.1" viewBox="0 0 16 16" xmlns="http://www.w3.org/2000/svg">
 <defs>
  <style id="current-color-scheme" type="text/css">.ColorScheme-Text {
        color:#363636;
      }</style>
 </defs>
 <path class="ColorScheme-Text" d="M 6.8007812,6 10,9 6.8007812,12 6,11.25 8.4003906,9 6,6.75 Z" fill="currentColor"/>
 <path class="ColorScheme-Text" d="m13 1c1.108 0 2 0.892 2 2v10c0 1.108-0.892 2-2 2h-10c-1.108 0-2-0.892-2-2v-10c0-1.108 0.892-2 2-2zm0 3h-10c-0.554 0-1 0.446-1 1v8c0 0.554 0.446 1 1 1h10c0.554 0 1-0.446 1-1v-8c0-0.554-0.446-1-1-1z" fill="currentColor"/>
</svg>
