<?xml version="1.0" encoding="UTF-8" standalone="no"?>
<svg
   viewbox="0 0 200 200"
   version="1.1"
   id="svg4"
   sodipodi:docname="folder-videos.svg"
   width="22"
   height="22"
   inkscape:version="1.1.1 (3bf5ae0d25, 2021-09-20, custom)"
   xmlns:inkscape="http://www.inkscape.org/namespaces/inkscape"
   xmlns:sodipodi="http://sodipodi.sourceforge.net/DTD/sodipodi-0.dtd"
   xmlns="http://www.w3.org/2000/svg"
   xmlns:svg="http://www.w3.org/2000/svg">
  <defs
     id="defs8" />
  <sodipodi:namedview
     id="namedview6"
     pagecolor="#ffffff"
     bordercolor="#666666"
     borderopacity="1.0"
     inkscape:pageshadow="2"
     inkscape:pageopacity="0.0"
     inkscape:pagecheckerboard="0"
     showgrid="false"
     inkscape:zoom="36.946329"
     inkscape:cx="4.5471364"
     inkscape:cy="11.949766"
     inkscape:window-width="1920"
     inkscape:window-height="996"
     inkscape:window-x="0"
     inkscape:window-y="0"
     inkscape:window-maximized="1"
     inkscape:current-layer="svg4"
     showguides="false"
     inkscape:lockguides="false" />
  <path
     d="M 1,11 C 1,3.8 3.8,1 11,1 18.2,1 21,3.8 21,11 21,18.2 18.2,21 11,21 3.8,21 1,18.2 1,11"
     id="path2"
     style="fill:#e7a12e;fill-opacity:1;stroke-width:0.1" />
  <path
     id="rect20156"
     style="opacity:1;fill:#ffffff;fill-opacity:1;stroke:none;stroke-width:1.14286;stroke-linecap:round;stroke-miterlimit:4;stroke-dasharray:none"
     d="M 6 4 C 4.892 4 4 4.892 4 6 L 4 16 C 4 17.108 4.892 18 6 18 L 16 18 C 17.108 18 18 17.108 18 16 L 18 6 C 18 4.892 17.108 4 16 4 L 6 4 z M 9.0117188 6.9980469 C 9.1880407 7.0006609 9.3605367 7.049845 9.5117188 7.140625 L 14.515625 10.146484 C 15.158362 10.535707 15.158362 11.468199 14.515625 11.857422 L 9.5117188 14.855469 C 8.8453929 15.254235 7.9986223 14.774581 7.9980469 13.998047 L 7.9980469 7.9980469 C 7.9982475 7.6369459 8.1930907 7.3039951 8.5078125 7.1269531 C 8.6614723 7.0402971 8.8353206 6.9958469 9.0117188 6.9980469 z " />
</svg>
