<?xml version="1.0" encoding="UTF-8" standalone="no"?>
<svg
   viewbox="0 0 200 200"
   version="1.1"
   id="svg4"
   sodipodi:docname="folder-template.svg"
   width="22"
   height="22"
   inkscape:version="1.1.1 (3bf5ae0d25, 2021-09-20, custom)"
   xmlns:inkscape="http://www.inkscape.org/namespaces/inkscape"
   xmlns:sodipodi="http://sodipodi.sourceforge.net/DTD/sodipodi-0.dtd"
   xmlns="http://www.w3.org/2000/svg"
   xmlns:svg="http://www.w3.org/2000/svg">
  <defs
     id="defs8" />
  <sodipodi:namedview
     id="namedview6"
     pagecolor="#ffffff"
     bordercolor="#666666"
     borderopacity="1.0"
     inkscape:pageshadow="2"
     inkscape:pageopacity="0.0"
     inkscape:pagecheckerboard="0"
     showgrid="false"
     inkscape:zoom="36.946329"
     inkscape:cx="6.2793789"
     inkscape:cy="10.840048"
     inkscape:window-width="1920"
     inkscape:window-height="996"
     inkscape:window-x="0"
     inkscape:window-y="0"
     inkscape:window-maximized="1"
     inkscape:current-layer="svg4"
     showguides="false"
     inkscape:lockguides="false" />
  <path
     d="M 1,11 C 1,3.8 3.8,1 11,1 18.2,1 21,3.8 21,11 21,18.2 18.2,21 11,21 3.8,21 1,18.2 1,11"
     id="path2"
     style="fill:#e7a12e;fill-opacity:1;stroke-width:0.1" />
  <path
     id="path2103"
     style="color:#000000;fill:#ffffff;fill-opacity:1;stroke:none;stroke-width:3.7818;stroke-linecap:round;stroke-linejoin:round;-inkscape-stroke:none"
     d="M 17.525391 6 C 17.41566 5.99464 17.307215 6.0255286 17.216797 6.0878906 L 4.2109375 15.091797 C 3.8155735 15.371057 4.0080921 15.992731 4.4921875 16 L 17.498047 16 C 17.775777 16.000918 18.001101 15.775594 18 15.498047 L 18 6.5 C 17.999944 6.3150994 17.897779 6.1453252 17.734375 6.0585938 C 17.669844 6.0240148 17.598504 6.0040128 17.525391 6 z M 16 10 L 16 14 L 10 14 L 16 10 z " />
</svg>
