<?xml version="1.0" encoding="UTF-8" standalone="no"?>
<svg
   viewbox="0 0 200 200"
   version="1.1"
   id="svg4"
   sodipodi:docname="folder-yellow.svg"
   width="22"
   height="22"
   inkscape:version="1.1.1 (3bf5ae0d25, 2021-09-20, custom)"
   xmlns:inkscape="http://www.inkscape.org/namespaces/inkscape"
   xmlns:sodipodi="http://sodipodi.sourceforge.net/DTD/sodipodi-0.dtd"
   xmlns="http://www.w3.org/2000/svg"
   xmlns:svg="http://www.w3.org/2000/svg">
  <defs
     id="defs8" />
  <sodipodi:namedview
     id="namedview6"
     pagecolor="#ffffff"
     bordercolor="#666666"
     borderopacity="1.0"
     inkscape:pageshadow="2"
     inkscape:pageopacity="0.0"
     inkscape:pagecheckerboard="0"
     showgrid="false"
     inkscape:zoom="13.0625"
     inkscape:cx="-6.200957"
     inkscape:cy="12.593301"
     inkscape:window-width="1920"
     inkscape:window-height="996"
     inkscape:window-x="0"
     inkscape:window-y="0"
     inkscape:window-maximized="1"
     inkscape:current-layer="svg4"
     showguides="true" />
  <path
     d="M 1,11 C 1,3.8 3.8,1 11,1 18.2,1 21,3.8 21,11 21,18.2 18.2,21 11,21 3.8,21 1,18.2 1,11"
     id="path2"
     style="fill:#fdbc4b;fill-opacity:1;stroke-width:0.1" />
  <path
     id="rect2790"
     style="fill:#ffffff;stroke-width:5.00001;stroke-linecap:round;stroke-linejoin:round"
     d="M 4.9746094,5.0000963 C 4.432669,5.0137403 4,5.4547523 4,6.0000961 v 8.9999989 c 0,1.108 0.8919999,2 1.9999997,2 H 16 c 1.108001,0 2.000001,-1.007075 2.000001,-2 v -4.999999 -1 c 0.01907,-1.1078357 -0.892,-2 -2.000001,-2 H 11.000001 V 6.0000961 c 0,-0.5539997 -0.446,-0.9999998 -1,-0.9999998 H 4.9999999 c -0.00866,0 -0.016781,-2.166e-4 -0.025399,0 z"
     sodipodi:nodetypes="cccsssccscscccc" />
</svg>
