<svg xmlns="http://www.w3.org/2000/svg" width="16" height="16"><path d="M3 0C1 0 1 2 1 2v12c0 2 2 2 2 2h5v-2H3V2h10v4h2V2c0-2-2-2-2-2H3zm2 5a1 1 0 1 0 0 2 1 1 0 0 0 0-2zm6 0c-.553 0-1 .45-1 1h2c0-.55-.447-1-1-1zm1.5 2C10.567 7 9 8.57 9 10.5s1.567 3.5 3.5 3.5 3.5-1.57 3.5-3.5S14.433 7 12.5 7zm0 2c.83 0 1.5.67 1.5 1.5s-.67 1.5-1.5 1.5-1.5-.67-1.5-1.5.67-1.5 1.5-1.5zm-7.326.83l-.707.709A4.98 4.98 0 0 0 8 12v-1c-1.06 0-2.077-.42-2.826-1.17zM10 14c-.312 1.23 0 2 0 2h5s.335-1 0-2c-.18.16-1.566 1-2.5 1-.934 0-2.139-.69-2.5-1z" fill="#555555"/></svg>