<svg width="16" height="16" version="1.0" xmlns="http://www.w3.org/2000/svg" xmlns:xlink="http://www.w3.org/1999/xlink">
 <path d="m12.947 0.99427c-0.5196 0.015482-1.0128 0.23264-1.375 0.60547l-2 2c-0.10001 0.096534-0.18969 0.20323-0.26758 0.31836l-1.0332-1.0332c-0.28516-0.28516-0.73387-0.42239-1.1836 0.027343l-0.80859 0.80859 1.0742 1.0742-4.3792 4.5128c-0.34974 0.34974-0.48799 0.706-0.48799 1.1384v1.6789l-1.8594 1.834 1.3398 1.4648 1.9531-1.9102h1.5957c0.47072 0.0526 0.86178-0.18149 1.1722-0.49194l4.4665-4.426 1.125 1.125 0.83203-0.83203c0.40684-0.40684 0.28906-0.875-0.05078-1.2148l-0.97852-0.97852c0.11513-0.077888 0.22183-0.16757 0.31836-0.26758l2-2c1.3082-1.2716 0.37049-3.4874-1.4531-3.4336zm-4.8867 4.5078 2.3848 2.3848-2.1445 2.127h-4.6172z" fill="#555555"/>
</svg>
