<svg xmlns="http://www.w3.org/2000/svg" width="16.017" height="16.005">
    <path d="M8.017 0L6.922 1.096A6.961 6.961 0 0 1 8.017 1c.374 0 .738.039 1.096.096zm0 2a6 6 0 0 0-6 6 6 6 0 0 0 1.557 4.023 2.941 2.941 0 0 1 1.3-.814c.416-1.36 1.514-2.438 2.99-2.44a1 1 0 0 0 .001 0c.257.001.49.121.738.18.782-.998 1.922-1.718 3.356-1.719.76 0 1.463.253 2.055.676A6 6 0 0 0 8.017 2zm-5.75.25v1.8a7.102 7.102 0 0 1 1.805-1.8zm9.7 0a7.102 7.102 0 0 1 1.8 1.805V2.25zM1.113 6.904L.017 8l1.096 1.096A6.961 6.961 0 0 1 1.017 8c0-.374.04-.738.096-1.096zm13.809 0c.057.358.095.722.095 1.096 0 .286-.038.562-.074.838.033.046.059.098.09.146L16.017 8zM11.709 8.23a3.079 3.079 0 0 0-2.793 1.795 2.308 2.308 0 0 0-1.053-.255 2.306 2.306 0 0 0-2.299 2.154h-.007a1.538 1.538 0 1 0 0 3.076h8.615a1.846 1.846 0 0 0 1.845-1.846 1.846 1.846 0 0 0-1.236-1.74l.006-.105a3.079 3.079 0 0 0-3.076-3.079zm-6.1 2.694l-.002.002a1 1 0 0 1 .01 0c-.032-.002-.035-.003-.008-.002zm-3.342 1.021v1.805h.784c-.013-.096-.034-.19-.034-.29 0-.18.028-.35.069-.513a7.062 7.062 0 0 1-.819-1.002z" style="marker:none" fill="#555555"/>
</svg>
