<svg width="16" height="16" version="1.1" xmlns="http://www.w3.org/2000/svg">
 <title>Gnome Symbolic Icon Theme</title>
 <g transform="translate(-122 -490)" fill="#555555">
  <g transform="translate(122 490)" color="#bebebe">
   <path d="m2.1992 0c-1.207 0-2.1992 1.007-2.1992 2.209v10.582c0 1.202 0.99322 2.209 2.1992 2.209h6.8008v-2h-6.8008c-0.124 0-0.19922-0.070985-0.19922-0.20898v-10.582c0-0.138 0.075219-0.20898 0.19922-0.20898h11.602c0.124 0 0.19922 0.070984 0.19922 0.20898v5.791h2v-5.791c0-1.202-0.99322-2.209-2.1992-2.209h-11.602z" style="font-feature-settings:normal;font-variant-alternates:normal;font-variant-caps:normal;font-variant-ligatures:normal;font-variant-numeric:normal;font-variant-position:normal;isolation:auto;mix-blend-mode:normal;shape-padding:0;text-decoration-color:#000000;text-decoration-line:none;text-decoration-style:solid;text-indent:0;text-orientation:mixed;text-transform:none"/>
   <path d="m4.494 5.895a0.6 0.6 0 0 0-0.418 1.029l1.576 1.576-1.576 1.576a0.6 0.6 0 1 0 0.848 0.848l2-2a0.6 0.6 0 0 0 0-0.848l-2-2a0.6 0.6 0 0 0-0.43-0.181z" font-family="sans-serif" font-weight="400" overflow="visible" style="font-feature-settings:normal;font-variant-alternates:normal;font-variant-caps:normal;font-variant-ligatures:normal;font-variant-numeric:normal;font-variant-position:normal;isolation:auto;mix-blend-mode:normal;shape-padding:0;text-decoration-color:#000000;text-decoration-line:none;text-decoration-style:solid;text-indent:0;text-orientation:mixed;text-transform:none"/>
   <path d="m8 10h1v1h-1z" overflow="visible" stroke-width=".57735"/>
  </g>
  <path d="m137.23 502.26c0.018-0.17417 0.024-0.34835 6e-3 -0.51651l0.64264-0.51051c0.0601-0.048 0.0721-0.12612 0.036-0.19219l-0.61861-1.0751c-0.036-0.0661-0.11412-0.0901-0.18619-0.0661l-0.76877 0.3003c-0.13815-0.1021-0.28829-0.18619-0.45046-0.25225l-0.12012-0.81682c-0.012-0.0781-0.0721-0.13213-0.15014-0.13213h-1.2432c-0.0721 0-0.13815 0.0541-0.15015 0.12613l-0.12012 0.81682c-0.15615 0.0661-0.30631 0.15616-0.44444 0.25225l-0.76877-0.3003c-0.0721-0.03-0.15016 0-0.18619 0.0661l-0.61863 1.0751c-0.036 0.0661-0.024 0.14414 0.036 0.19219l0.64265 0.51652c-0.018 0.17418-0.024 0.34835-6e-3 0.51651l-0.64265 0.51051c-0.06 0.0481-0.0721 0.12612-0.036 0.19219l0.61862 1.0751c0.036 0.0661 0.11412 0.0901 0.1862 0.0661l0.76277-0.30029c0.13814 0.10209 0.28829 0.18619 0.45045 0.25225l0.12013 0.81681c0.012 0.0721 0.0721 0.12612 0.15014 0.12612h1.2432c0.0721 0 0.13813-0.0541 0.15015-0.12612l0.12011-0.81681c0.15616-0.0661 0.30632-0.15616 0.44445-0.25225l0.76877 0.30029c0.0721 0.03 0.15014 0 0.18619-0.0661l0.61862-1.0751c0.036-0.0661 0.024-0.14414-0.036-0.19219zm-2.2283 0.64265c-0.4985 0-0.9009-0.40241-0.9009-0.9009 0-0.49851 0.40241-0.9009 0.9009-0.9009 0.49851 0 0.9009 0.40241 0.9009 0.9009s-0.4024 0.9009-0.9009 0.9009z" stroke-width=".6006"/>
 </g>
</svg>
