<svg width="16px" height="16px" version="1.1" viewBox="0 0 16 16" xmlns="http://www.w3.org/2000/svg">
 <path d="m11 0-4.1833 1.1142-2.8167 6.8858h4l-1.5137 2.7773-1.1914-1.3574-0.7793 5.8496 4.9629-3.5078-1.7305-0.31445 4.252-5.4473h-4z" fill="#555555"/>
 <path d="m8 1a7 7 0 0 0-7 7 7 7 0 0 0 7 7 7 7 0 0 0 7-7 7 7 0 0 0-7-7zm0 2a5 5 0 0 1 5 5 5 5 0 0 1-5 5 5 5 0 0 1-5-5 5 5 0 0 1 5-5z" fill="#555555" fill-rule="evenodd" opacity=".5" stop-color="#000000" style="paint-order:stroke fill markers"/>
</svg>
