<svg width="16.006" height="16" version="1.1" xmlns="http://www.w3.org/2000/svg">
 <path d="m1 0c-0.554 0-1 0.446-1 1v5c0 0.554 0.446 1 1 1h5c0.554 0 1-0.446 1-1v-5c0-0.554-0.446-1-1-1z" fill="#555555" style="paint-order:stroke fill markers"/>
 <path d="m9 0c-0.554 0-1 0.446-1 1v5c0 0.554 0.446 1 1 1h5c0.554 0 1-0.446 1-1v-5c0-0.554-0.446-1-1-1zm1 2h3v3h-3zm-9 6c-0.554 0-1 0.446-1 1v5c0 0.554 0.446 1 1 1h5c0.554 0 1-0.446 1-1v-5c0-0.554-0.446-1-1-1zm8 0c-0.554 0-1 0.446-1 1v5c0 0.554 0.446 1 1 1h5c0.554 0 1-0.446 1-1v-5c0-0.554-0.446-1-1-1zm-7 2h3v3h-3zm8 0h3v3h-3z" fill="#555555" opacity=".5" style="paint-order:stroke fill markers"/>
</svg>
