<svg xmlns="http://www.w3.org/2000/svg" width="16" height="16"><path d="M2 5C0 5 0 7 0 7v7c0 1.97 2 2 2 2h9v-4H8.44c-.01.14-.03.3-.03.43h.43v.5h-.5c-.08.7-.36 1.07-.84 1.07-.12 0-.31-.02-.53-.07l-.09-.5c.26.05.48.07.62.07s.21-.2.25-.57H5.41c.04-.29.06-.62.09-.93h-.69c-.23.66-.52 1.34-.9 1.97l-.5-.41c.32-.51.58-1.03.81-1.56H4V9.59c-.02-.01-.04-.04-.06-.07L4 9.47V7.68c-.02-.02-.04-.05-.06-.06L4 7.56V5zm.09 2.72h1.6v4.78h-.53v-.53h-.54v.78h-.53zm.53.53v3.22h.54V8.25zM6.09 12c-.02.13-.04.3-.06.43h1.78c.02-.15.02-.29.03-.43h-.47l-.21.27c-.1-.1-.21-.17-.32-.27z" opacity=".3" fill="#555555"/><path d="M5 0v11h9s2 0 2-2V2s0-2-2-2zm4.56 2h1.88l2.18 7h-1.65l-.44-1.66H9.41L8.97 9h-1.6zm.88 1.18c-.17.74-.34 1.58-.53 2.29l-.19.62h1.5l-.16-.62c-.19-.71-.41-1.56-.59-2.29z" fill="#555555"/></svg>