<svg width="16" height="16" version="1.1" xmlns="http://www.w3.org/2000/svg">
 <path d="m2 1c-1.108 0-2 0.892-2 2v6c0 1.108 0.892 2 2 2h8c1.108 0 2-0.892 2-2v-6c0-1.108-0.892-2-2-2h-8zm0 2h8v6h-8v-6z" fill="#555555" stroke-linecap="square" stroke-width="1.0541" style="paint-order:fill markers stroke"/>
 <path d="m13 5v2h1v6h-8v-1h-2v1c0 1.108 0.892 2 2 2h8c1.108 0 2-0.892 2-2v-6c0-1.108-0.892-2-2-2h-1z" fill="#555555" opacity=".35" stroke-linecap="square" stroke-width="1.0541" style="paint-order:fill markers stroke"/>
</svg>
