<svg xmlns="http://www.w3.org/2000/svg" width="22" height="22" viewBox="0 0 5.821 5.821"><g transform="translate(0 -291.18)"><rect transform="matrix(0 -1 -1 0 0 0)" width="4.233" height="4.233" x="-296.206" y="-5.027" rx="2.117" ry="2.117" fill="#00acc1"/><path d="M2.91 292.767c-.73 0-1.323.592-1.323 1.323h-.264l.397.661.397-.661h-.265a1.057 1.057 0 0 1 1.463-.978.132.132 0 0 0 .102-.244 1.322 1.322 0 0 0-.506-.1zm1.191.661l-.397.662h.265a1.06 1.06 0 0 1-1.463.978.132.132 0 0 0-.102.244l.014.005a1.323 1.323 0 0 0 1.815-1.227h.265z" fill="#fff"/></g></svg>