<svg width="16" height="16" version="1.1" xmlns="http://www.w3.org/2000/svg">
 <defs>
  <style id="current-color-scheme" type="text/css">.ColorScheme-Text { color:#dedede; } .ColorScheme-Highlight { color:#5294e2; }</style>
 </defs>
 <rect class="ColorScheme-Text" x="4" fill="currentColor" y="1" width="8" height="14" ry="1" opacity=".15"/>
 <path class="ColorScheme-Text" x="4" fill="currentColor" d="m4.9609 0c-1.0865 0-1.9609 0.87448-1.9609 1.9609v12.078c0 1.0865 0.87448 1.9609 1.9609 1.9609h6.0781c1.0865 0 1.9609-0.87448 1.9609-1.9609v-12.078c0-1.0865-0.87448-1.9609-1.9609-1.9609h-6.0781zm0.039062 1h6c0.554 0 1 0.446 1 1v12c0 0.554-0.446 1-1 1h-6c-0.554 0-1-0.446-1-1v-12c0-0.554 0.446-1 1-1z"/>
 <rect class="ColorScheme-Text" x="6" width="4" height="2" rx="1" ry="1" fill="currentColor"/>
 <path class="ColorScheme-Text" d="m6.6375 13h2.7251c0.35315 0 0.63746 0.223 0.63746 0.5s-0.28431 0.5-0.63746 0.5h-2.7251c-0.35315 0-0.63746-0.223-0.63746-0.5s0.28431-0.5 0.63746-0.5z" fill="currentColor" opacity=".5"/>
</svg>
