<svg width="16" height="16.003" version="1.1" xmlns="http://www.w3.org/2000/svg">
 <g transform="translate(-1133 -41)">
  <path transform="translate(1133,41)" d="m8 0.0039062c-3.315 0-6 2.685-6 6v1.9961 2 1h1 1c0.554 0 1-0.446 1-1v-2c0-0.554-0.446-1-1-1h-1v-0.99609c0-2.778 2.222-5 5-5 2.779 0 5 2.222 5 5v0.99609h-1c-0.554 0-1 0.446-1 1v2c0 0.554 0.446 1 1 1h1v1.0039c0 1.662-1.338 3-3 3v-1-0.003906c0-0.554-0.446-1-1-1h-2c-0.554 0-1 0.446-1 1v1c0 0.554 0.446 1 1 1h2v0.003906h1c2.216 0 4-1.784 4-4v-6c0-3.315-2.684-6-6-6zm-5 7.9961h1v2h-1v-2zm9 0h1v2h-1v-2zm-5 6h2v0.003906 0.99609h-2v-1z" fill="#333333" style="font-feature-settings:normal;font-variant-alternates:normal;font-variant-caps:normal;font-variant-ligatures:normal;font-variant-numeric:normal;font-variant-position:normal;isolation:auto;mix-blend-mode:normal;shape-padding:0;text-decoration-color:#000000;text-decoration-line:none;text-decoration-style:solid;text-indent:0;text-orientation:mixed;text-transform:none"/>
 </g>
</svg>
