<svg width="16" height="16" version="1.1" xmlns="http://www.w3.org/2000/svg">
 <path d="m2 3c-1.108 0-2 0.892-2 2v5c0 1.108 0.892 2 2 2 0 0.554 0.446 1 1 1h1c0.554 0 1-0.446 1-1h6c0 0.554 0.446 1 1 1h1c0.554 0 1-0.446 1-1 1.108 0 2-0.892 2-2v-5c0-1.108-0.892-2-2-2h-12zm0 1h12c0.554 0 1 0.446 1 1v5c0 0.554-0.446 1-1 1h-12c-0.554 0-1-0.446-1-1v-5c0-0.554 0.446-1 1-1zm0.5 1c-0.277 0-0.5 0.223-0.5 0.5v4c0 0.277 0.223 0.5 0.5 0.5s0.5-0.223 0.5-0.5v-4c0-0.277-0.223-0.5-0.5-0.5zm2 0c-0.277 0-0.5 0.223-0.5 0.5v4c0 0.277 0.223 0.5 0.5 0.5s0.5-0.223 0.5-0.5v-4c0-0.277-0.223-0.5-0.5-0.5zm2 0c-0.277 0-0.5 0.223-0.5 0.5v4c0 0.277 0.223 0.5 0.5 0.5s0.5-0.223 0.5-0.5v-4c0-0.277-0.223-0.5-0.5-0.5zm5 0a2.5 2.5 0 0 0-2.5 2.5 2.5 2.5 0 0 0 2.5 2.5 2.5 2.5 0 0 0 2.5-2.5 2.5 2.5 0 0 0-2.5-2.5zm0 1a1.5 1.5 0 0 1 1.5 1.5 1.5 1.5 0 0 1-1.5 1.5 1.5 1.5 0 0 1-1.5-1.5 1.5 1.5 0 0 1 1.5-1.5z" fill="#363636" stroke-linecap="round" stroke-linejoin="round" stroke-width="2"/>
</svg>
