<svg width="16" height="16" version="1.1" viewBox="0 0 16 16" xmlns="http://www.w3.org/2000/svg">
 <style id="current-color-scheme" type="text/css">.ColorScheme-Text {
            color:#aaaaaa;
        }</style>
 <path class="ColorScheme-Text" d="m8 0c-3.035 0-5.7841 1.2334-7.7754 3.2246l1.4121 1.4121c1.6288-1.6288 3.8783-2.6367 6.3633-2.6367s4.7345 1.008 6.3633 2.6367l1.4121-1.4121c-1.9912-1.9912-4.7404-3.2246-7.7754-3.2246zm0 4c-1.935 0-3.6849 0.78258-4.9512 2.0488l1.416 1.416c0.905-0.905 2.1552-1.4648 3.5352-1.4648s2.6302 0.55984 3.5352 1.4648l1.416-1.416c-1.2662-1.2662-3.0162-2.0488-4.9512-2.0488zm0 4.5c-1.38 0-2.5 1.12-2.5 2.5 0 1.02 0.62 1.8991 1.5 2.2891v2.7109h2v-2.7109c0.88-0.39 1.5-1.2591 1.5-2.2891 0-1.38-1.12-2.5-2.5-2.5z" fill="currentColor"/>
</svg>
