<svg width="100" height="100" viewBox="0 0 100 100" fill="none" xmlns="http://www.w3.org/2000/svg">
<g clip-path="url(#clip0)">
<path d="M65.0474 9.31178C70.2491 9.31178 75.0792 12.1005 77.6801 16.6155L92.7278 42.6963C95.3287 47.2113 95.3287 52.7887 92.7278 57.3037L77.6801 83.3845C75.0792 87.8995 70.2491 90.6882 65.0474 90.6882H34.9518C29.7501 90.6882 24.92 87.8995 22.3191 83.3845L7.27133 57.3037C4.67048 52.7887 4.67048 47.2113 7.27133 42.6963L22.3191 16.6155C24.92 12.1005 29.7501 9.31178 34.9518 9.31178H65.0474V9.31178ZM65.0474 4H34.9518C27.8393 4 21.2575 7.79792 17.7013 13.9596L2.6535 40.0404C-0.902768 46.2021 -0.902768 53.7979 2.6535 59.9596L17.7013 86.0404C21.2575 92.2021 27.8393 96 34.9518 96H65.0474C72.1599 96 78.7416 92.2021 82.2979 86.0404L97.3457 59.9596C100.902 53.7979 100.902 46.2021 97.3457 40.0404L82.2713 13.9596C78.7416 7.79792 72.1599 4 65.0474 4Z" fill="#000000"/>
<path fill-rule="evenodd" clip-rule="evenodd" d="M49.7375 27.0672C49.7375 22.2087 55.5763 19.7364 59.0652 23.1177L64.1858 28.0804C65.5739 29.4257 65.6086 31.6415 64.2633 33.0296C62.9181 34.4176 60.7023 34.4523 59.3142 33.1071L56.7375 30.6098V54.0937C56.7375 56.0267 55.1705 57.5937 53.2375 57.5937C51.3045 57.5937 49.7375 56.0267 49.7375 54.0937V27.0672Z" fill="#000000"/>
<path fill-rule="evenodd" clip-rule="evenodd" d="M47.9008 55.8953C48.8125 55.8953 49.5516 55.1562 49.5516 54.2445C49.5516 53.3328 48.8125 52.5938 47.9008 52.5938C46.9891 52.5938 46.25 53.3328 46.25 54.2445C46.25 55.1562 46.9891 55.8953 47.9008 55.8953ZM47.9008 62.8953C52.6785 62.8953 56.5516 59.0222 56.5516 54.2445C56.5516 49.4668 52.6785 45.5938 47.9008 45.5938C43.1231 45.5938 39.25 49.4668 39.25 54.2445C39.25 59.0222 43.1231 62.8953 47.9008 62.8953Z" fill="#000000"/>
<path fill-rule="evenodd" clip-rule="evenodd" d="M46.3186 33.2126C47.6854 34.5795 47.6854 36.7955 46.3186 38.1624L31.9479 52.5331C31.3621 53.1189 31.3621 54.0686 31.9479 54.6544L48.9393 71.6458C49.5251 72.2316 50.4748 72.2316 51.0606 71.6458L68.0521 54.6544C68.6379 54.0686 68.6379 53.1189 68.0521 52.5331L59.8376 44.3186C58.4708 42.9518 58.4708 40.7357 59.8376 39.3689C61.2044 38.002 63.4205 38.002 64.7873 39.3689L73.0018 47.5833C76.3213 50.9028 76.3213 56.2847 73.0018 59.6042L56.0104 76.5956C52.6909 79.915 47.309 79.915 43.9896 76.5956L26.9981 59.6042C23.6787 56.2847 23.6787 50.9028 26.9981 47.5833L41.3689 33.2126C42.7357 31.8458 44.9518 31.8458 46.3186 33.2126Z" fill="#000000"/>
</g>
<defs>
<clipPath id="clip0">
<rect width="100" height="92" fill="#000000" transform="translate(0 4)"/>
</clipPath>
</defs>
</svg>