<svg width="100" height="100" viewBox="0 0 100 100" fill="none" xmlns="http://www.w3.org/2000/svg">
<g clip-path="url(#clip0)">
<path d="M68.5775 44.3397C68.0998 44.3397 67.5955 44.2601 67.1178 44.0478L50 37.2802L32.8821 44.0743C30.8386 44.8705 28.5297 43.8885 27.707 41.845C26.9108 39.8015 27.8928 37.4926 29.9363 36.6698L48.5138 29.3185C49.4427 28.9469 50.5042 28.9469 51.4331 29.3185L70.0106 36.6698C72.0541 37.466 73.0626 39.8015 72.2399 41.845C71.656 43.3843 70.1698 44.3397 68.5775 44.3397Z" fill="#000000"/>
<path d="M68.5775 57.6093C68.0998 57.6093 67.5955 57.5297 67.1178 57.3174L50 50.5499L32.8821 57.3439C30.8386 58.1401 28.5297 57.1581 27.707 55.1146C26.9108 53.0711 27.8928 50.7622 29.9363 49.9395L48.5138 42.5881C49.4427 42.2165 50.5042 42.2165 51.4331 42.5881L70.0106 49.9395C72.0541 50.7356 73.0626 53.0711 72.2399 55.1146C71.656 56.6539 70.1698 57.6093 68.5775 57.6093Z" fill="#000000"/>
<path d="M68.5775 70.879C68.0998 70.879 67.5955 70.7993 67.1178 70.587L50 63.8195L32.8821 70.6136C30.8386 71.4098 28.5297 70.4278 27.707 68.3843C26.9108 66.3408 27.8928 64.0318 29.9363 63.2091L48.5138 55.8577C49.4427 55.4862 50.5042 55.4862 51.4331 55.8577L70.0106 63.2091C72.0541 64.0053 73.0626 66.3408 72.2399 68.3843C71.656 69.9236 70.1698 70.879 68.5775 70.879Z" fill="#000000"/>
<path d="M65.0477 9.30786C70.2494 9.30786 75.0796 12.0945 77.6804 16.6062L92.7282 42.6677C95.329 47.1794 95.329 52.7527 92.7282 57.2643L77.6804 83.3259C75.0796 87.8376 70.2494 90.6242 65.0477 90.6242H34.9522C29.7505 90.6242 24.9203 87.8376 22.3195 83.3259L7.27172 57.2643C4.67088 52.7527 4.67088 47.1794 7.27172 42.6677L22.3195 16.6062C24.9203 12.0945 29.7505 9.30786 34.9522 9.30786H65.0477ZM65.0477 4H34.9522C27.8397 4 21.2579 7.79512 17.7017 13.9522L2.65389 40.0138C-0.902371 46.1709 -0.902371 53.7611 2.65389 59.9183L17.7017 85.9798C21.2579 92.1369 27.8397 95.9321 34.9522 95.9321H65.0477C72.1602 95.9321 78.742 92.1369 82.2982 85.9798L97.346 59.9183C100.902 53.7611 100.902 46.1709 97.346 40.0138L82.2717 13.9522C78.742 7.79512 72.1602 4 65.0477 4Z" fill="#000000"/>
</g>
<defs>
<clipPath id="clip0">
<rect width="100" height="91.9321" fill="#000000" transform="translate(0 4)"/>
</clipPath>
</defs>
</svg>