<svg width="22" height="22" version="1.1" xmlns="http://www.w3.org/2000/svg">
 <defs>
  <style id="current-color-scheme" type="text/css">.ColorScheme-Text { color:#363636; } .ColorScheme-Highlight { color:#5294e2; }</style>
 </defs>
 <g class="ColorScheme-Text" transform="translate(3,2)" fill="currentColor">
  <path d="m10.5 6a3.5 3.5 0 0 0-3.5 3.5 3.5 3.5 0 0 0 3.5 3.5 3.5 3.5 0 0 0 3.5-3.5 3.5 3.5 0 0 0-3.5-3.5zm0 1a2.5 2.5 0 0 1 2.5 2.5 2.5 2.5 0 0 1-2.5 2.5 2.5 2.5 0 0 1-2.5-2.5 2.5 2.5 0 0 1 2.5-2.5z"/>
  <path d="m1 3c-1.108 0-2 0.892-2 2v9c0 1.108 0.892 2 2 2h14c1.108 0 2-0.892 2-2v-9c0-1.108-0.892-2-2-2zm0 1h14c0.554 0 1 0.446 1 1v9c0 0.554-0.446 1-1 1h-14c-0.554 0-1-0.446-1-1v-9c0-0.554 0.446-1 1-1z"/>
  <rect x="7" y="1" width="6" height="1" rx="0" ry="0"/>
  <rect x="2" y="6" width="2" height="1" rx="0" ry="0"/>
 </g>
</svg>
