<svg width="22" height="22" version="1.1" xmlns="http://www.w3.org/2000/svg">
 <defs>
  <style id="current-color-scheme" type="text/css">.ColorScheme-Text { color:#363636; } .ColorScheme-Highlight { color:#5294e2; }</style>
 </defs>
 <path class="ColorScheme-Text" d="m3.0001 3.0006v13.999c0 0.83381 0.56395 1.5257 1.0529 1.7696 0.48796 0.24394 0.94692 0.22995 0.94692 0.22995h10.938s0.45896 0.014 0.94692-0.22995c0.48896-0.24394 1.0596-0.93582 1.0529-1.7696v-11.445l-2.5548-2.5544h-0.44496zm0.99992 0.99978h2.9997v1.9996h0.99992v-1.9996h0.99992v1.9996h0.99992v-1.9996h0.99992v1.9996h0.99992v-1.9996h2.9697l0.031 0.031993 1.9368 1.9366v11.031c0 0.99978-0.99992 0.99978-0.99992 0.99978h-10.938s-0.99992 0-0.99992-0.99978z" fill="currentColor" stroke-width=".99985"/>
</svg>
