<svg xmlns="http://www.w3.org/2000/svg" viewBox="0 0 24 24">
  <defs id="defs3051">
    <style type="text/css" id="current-color-scheme">
      .ColorScheme-Text {
        color:#363636;
      }
      .ColorScheme-Highlight {
        color:#3daee9;
      }
      </style>
  </defs>
 <path 
     style="fill:currentColor;fill-opacity:1;stroke:none" 
     d="M 10 3 L 10 7 L 14 7 L 14 3 L 10 3 z M 11 4 L 13 4 L 13 6 L 11 6 L 11 4 z M 4 11 L 4 12 L 5 12 L 5 11 L 4 11 z M 7 11 L 7 12 L 8 12 L 8 11 L 7 11 z M 10 11 L 10 12 L 11 12 L 11 11 L 10 11 z M 13 11 L 13 12 L 14 12 L 14 11 L 13 11 z M 16 11 L 16 12 L 17 12 L 17 11 L 16 11 z M 19 11 L 19 12 L 20 12 L 20 11 L 19 11 z M 4 16 L 4 20 L 8 20 L 8 16 L 4 16 z M 16 16 L 16 20 L 20 20 L 20 16 L 16 16 z M 5 17 L 7 17 L 7 19 L 5 19 L 5 17 z M 17 17 L 19 17 L 19 19 L 17 19 L 17 17 z "
     class="ColorScheme-Text"
     />
 <path 
     style="fill:currentColor;fill-opacity:1;stroke:none" 
     d="M 10 8 L 12 11 L 14 8 L 10 8 z M 6 12 L 4 15 L 8 15 L 6 12 z M 18 12 L 16 15 L 20 15 L 18 12 z "
     class="ColorScheme-Highlight"
     />
</svg>
