<svg xmlns="http://www.w3.org/2000/svg" viewBox="0 0 24 24">
  <defs id="defs3051">
    <style type="text/css" id="current-color-scheme">
      .ColorScheme-Text {
        color:#363636;
      }
      </style>
  </defs>
 <path style="fill:currentColor;fill-opacity:1;stroke:none" 
     d="M 10 4 L 7 6 L 10 8 L 10 4 z M 14 4 L 14 8 L 17 6 L 14 4 z M 7 7 L 7 9 L 4 9 L 4 16 L 7 16 L 7 20 L 8 20 L 8 16 L 11 16 L 11 9 L 8 9 L 8 7 L 7 7 z M 16 7 L 16 9 L 13 9 L 13 18 L 16 18 L 16 20 L 17 20 L 17 18 L 20 18 L 20 9 L 17 9 L 17 7 L 16 7 z M 5 10 L 10 10 L 10 15 L 5 15 L 5 10 z M 14 10 L 19 10 L 19 17 L 14 17 L 14 10 z "
     class="ColorScheme-Text"
     />
</svg>
