<svg xmlns="http://www.w3.org/2000/svg" viewBox="0 0 24 24">
  <defs id="defs3051">
    <style type="text/css" id="current-color-scheme">
      .ColorScheme-Text {
        color:#363636;
      }
      .ColorScheme-Highlight {
        color:#3daee9;
      }
      </style>
  </defs>
 <path 
     style="fill:currentColor;fill-opacity:1;stroke:none" 
     d="M 17 4 L 17 5 L 6.9121094 5 C 6.969602 5.1604624 6.9993244 5.3295502 7 5.5 C 6.9993244 5.6704498 6.969602 5.8395376 6.9121094 6 L 17 6 L 17 7 L 20 7 L 20 4 L 17 4 z M 18 5 L 19 5 L 19 6 L 18 6 L 18 5 z M 5 6.9121094 L 5 17 L 4 17 L 4 20 L 7 20 L 7 17 L 6 17 L 6 6.9121094 C 5.8395376 6.969602 5.6704498 6.9993244 5.5 7 C 5.3295502 6.9993244 5.1604624 6.969602 5 6.9121094 z M 5 18 L 6 18 L 6 19 L 5 19 L 5 18 z "
     class="ColorScheme-Text"
     />
 <path 
     style="fill:currentColor;fill-opacity:1;stroke:none" 
     d="M 5.5 4 A 1.5 1.5 0 0 0 4 5.5 A 1.5 1.5 0 0 0 5.5 7 A 1.5 1.5 0 0 0 7 5.5 A 1.5 1.5 0 0 0 5.5 4 z M 5.5 5 A 0.5 0.5 0 0 1 6 5.5 A 0.5 0.5 0 0 1 5.5 6 A 0.5 0.5 0 0 1 5 5.5 A 0.5 0.5 0 0 1 5.5 5 z "
     class="ColorScheme-Highlight"
     />
</svg>
