<svg xmlns="http://www.w3.org/2000/svg" viewBox="0 0 24 24">
  <defs id="defs3051">
    <style type="text/css" id="current-color-scheme">
      .ColorScheme-Text {
        color:#363636;
      }
      .ColorScheme-Highlight {
        color:#3daee9;
      }
      </style>
  </defs>
 <path 
     style="fill:currentColor;fill-opacity:1;stroke:none" 
     d="M 10 4 L 10 5 L 4 5 L 4 6 L 10 6 L 10 8 L 14 8 L 14 6 L 20 6 L 20 5 L 14 5 L 14 4 L 10 4 z M 11 5 L 13 5 L 13 6 L 13 7 L 11 7 L 11 5 z M 4 17 L 4 20 L 7 20 L 7 19 L 10 19 L 10 18 L 7 18 L 7 17 L 4 17 z M 17 17 L 17 18 L 14 18 L 14 19 L 17 19 L 17 20 L 20 20 L 20 17 L 17 17 z M 5 18 L 6 18 L 6 19 L 5 19 L 5 18 z M 18 18 L 19 18 L 19 19 L 18 19 L 18 18 z "
     class="ColorScheme-Text"
     />
 <path 
     style="fill:currentColor;fill-opacity:1;stroke:none" 
     d="M 10 10.5 L 12 13.5 L 14 10.5 L 10 10.5 z "
     class="ColorScheme-Highlight"
     />
</svg>
