<svg xmlns="http://www.w3.org/2000/svg" viewBox="0 0 24 24">
  <defs id="defs3051">
    <style type="text/css" id="current-color-scheme">
      .ColorScheme-Text {
        color:#363636;
      }
      </style>
  </defs>
 <path style="fill:currentColor;fill-opacity:1;stroke:none" 
     d="M 16 4 L 16 20 L 20 20 L 20 4 L 16 4 z M 17 5 L 19 5 L 19 19 L 17 19 L 17 5 z M 10 9 L 10 20 L 14 20 L 14 9 L 10 9 z M 11 10 L 13 10 L 13 19 L 11 19 L 11 10 z M 4 15 L 4 20 L 8 20 L 8 15 L 4 15 z M 5 16 L 7 16 L 7 19 L 5 19 L 5 16 z "
     class="ColorScheme-Text"
     />
</svg>
