<svg xmlns="http://www.w3.org/2000/svg" viewBox="0 0 24 24">
  <defs id="defs3051">
    <style type="text/css" id="current-color-scheme">
      .ColorScheme-Text {
        color:#363636;
      }
      </style>
  </defs>
 <path style="fill:currentColor;fill-opacity:1;stroke:none" 
     d="M 8.4257812 4 C 5.9817914 4 4 5.9535114 4 8.3632812 C 4 9.1688112 4.223145 9.922642 4.609375 10.570312 C 4.507955 11.058962 4.453125 11.565624 4.453125 12.083984 C 4.453125 16.239964 7.8691748 19.609375 12.083984 19.609375 C 12.561814 19.609375 13.029202 19.565385 13.482422 19.482422 C 14.105252 19.812902 14.817529 20 15.574219 20 C 18.018579 20 20 18.046829 20 15.636719 C 20 14.940609 19.833343 14.283229 19.539062 13.699219 C 19.654293 13.178889 19.716797 12.638284 19.716797 12.083984 C 19.716797 7.9280648 16.300777 4.5585937 12.085938 4.5585938 C 11.641077 4.5585938 11.203597 4.5987018 10.779297 4.6699219 C 10.097057 4.2464619 9.2914114 4 8.4257812 4 z M 12.035156 6.7890625 C 12.716906 6.7890625 13.316016 6.8678945 13.816406 7.0214844 C 14.319126 7.1758844 14.743032 7.383985 15.076172 7.640625 C 15.411772 7.899295 15.661519 8.1757606 15.818359 8.4628906 C 15.976839 8.7535206 16.056641 9.0406825 16.056641 9.3203125 C 16.056641 9.5890825 15.952151 9.834365 15.744141 10.046875 C 15.534811 10.261275 15.269974 10.371094 14.958984 10.371094 C 14.676494 10.371094 14.456054 10.302074 14.302734 10.167969 C 14.159674 10.043699 14.012086 9.8491725 13.847656 9.5703125 C 13.657246 9.2135625 13.426359 8.932455 13.162109 8.734375 C 12.905719 8.541835 12.477772 8.4453125 11.888672 8.4453125 C 11.341552 8.4453125 10.896856 8.552315 10.566406 8.765625 C 10.247906 8.971495 10.091797 9.2090014 10.091797 9.4882812 C 10.091797 9.6597613 10.141377 9.8023713 10.244141 9.9257812 C 10.352601 10.056191 10.505929 10.170255 10.699219 10.265625 C 10.899619 10.365325 11.107663 10.44375 11.314453 10.5 C 11.526753 10.5581 11.881471 10.644399 12.369141 10.755859 C 12.986801 10.886529 13.554661 11.033206 14.056641 11.191406 C 14.564521 11.351936 15.005481 11.549537 15.363281 11.779297 C 15.728931 12.013957 16.017466 12.315681 16.222656 12.675781 C 16.428746 13.036671 16.533203 13.48202 16.533203 14 C 16.533093 14.61966 16.352557 15.185546 15.998047 15.679688 C 15.645427 16.172738 15.125069 16.562854 14.449219 16.839844 C 13.780059 17.114134 12.977633 17.253906 12.064453 17.253906 C 10.968233 17.253906 10.049051 17.06247 9.3320312 16.6875 C 8.8193714 16.41409 8.3951387 16.046484 8.0742188 15.589844 C 7.7501688 15.128554 7.5859375 14.669926 7.5859375 14.228516 C 7.5859375 13.952716 7.6931569 13.714921 7.9042969 13.519531 C 8.1133469 13.325411 8.3818519 13.226563 8.7011719 13.226562 C 8.9635019 13.226562 9.1891969 13.303932 9.3730469 13.457031 C 9.5485769 13.603971 9.6994725 13.821103 9.8203125 14.101562 C 9.9558025 14.407034 10.104086 14.664117 10.259766 14.867188 C 10.409596 15.062658 10.623498 15.227019 10.898438 15.355469 C 11.175379 15.484809 11.549014 15.550781 12.007812 15.550781 C 12.638903 15.550781 13.155912 15.41834 13.544922 15.15625 C 13.924822 14.90079 14.109375 14.593007 14.109375 14.216797 C 14.109375 13.919587 14.012665 13.687026 13.814453 13.503906 C 13.606473 13.312436 13.33319 13.162837 13 13.060547 C 12.65337 12.954407 12.183543 12.83891 11.601562 12.71875 C 10.809632 12.55155 10.136783 12.353576 9.6015625 12.128906 C 9.0544425 11.899576 8.6115725 11.580071 8.2890625 11.181641 C 7.9614325 10.777791 7.796875 10.270288 7.796875 9.6738281 C 7.796875 9.1053981 7.9704331 8.5942038 8.3144531 8.1523438 C 8.6555431 7.7132836 9.1531519 7.3707187 9.7949219 7.1367188 C 10.428372 6.9057787 11.182986 6.7890625 12.035156 6.7890625 z "
     class="ColorScheme-Text"
     />
</svg>
