<svg xmlns="http://www.w3.org/2000/svg" viewBox="0 0 24 24">
  <defs id="defs3051">
    <style type="text/css" id="current-color-scheme">
      .ColorScheme-Text {
        color:#363636;
      }
      </style>
  </defs><g transform="translate(1,1)">
 <path 
     style="fill:currentColor;fill-opacity:1;stroke:none" 
     d="M 16.726562 3 L 15 5.9902344 L 15 7.9902344 L 15 8 L 13.353516 8 L 13 8 L 12 8 L 11 9 L 11 4 L 10 4 L 10 9.9941406 L 9.9941406 10 L 10 10 L 8.9980469 11 L 3 11 L 3 12 L 7.9960938 12 L 7 12.998047 L 6 13.996094 L 6 14 L 6 14.789062 L 6 18 L 3 18 L 3 19 L 7 19 L 7 18 L 7 14.410156 L 7.4101562 14 L 7.4121094 14 L 9.4121094 12 L 10 12 L 10 19 L 11 19 L 11 12 L 18 12 L 18 11 L 11 11 L 11 10.412109 L 12.412109 9 L 16 9 L 16 8 L 16 6.2578125 L 17.302734 4 L 19 4 L 19 3 L 17.880859 3 L 16.726562 3 z "
     class="ColorScheme-Text"
     />
</g></svg>
