<svg xmlns="http://www.w3.org/2000/svg" viewBox="0 0 24 24">
  <defs id="defs3051">
    <style type="text/css" id="current-color-scheme">
      .ColorScheme-Text {
        color:#363636;
      }
      .ColorScheme-Highlight {
        color:#3daee9;
      }
      </style>
  </defs><g transform="translate(1,1)">
 <path 
     style="fill:currentColor;fill-opacity:1;stroke:none" 
     d="m 16.143119,13.381302 c 0.927125,0 1.65587,0.232794 2.186235,0.698381 0.534413,0.465587 0.801619,1.103238 0.801619,1.912955 0,0.923077 -0.293522,1.647773 -0.880566,2.174089 -0.587045,0.522267 -1.40081,0.783401 -2.441296,0.783401 -0.991903,0 -1.759109,-0.159919 -2.30162,-0.479757 l 0,-1.032389 c 0.299595,0.178138 0.659919,0.319838 1.080972,0.425101 0.421053,0.105263 0.831984,0.157895 1.232794,0.157895 0.696356,0 1.234817,-0.165992 1.615384,-0.497976 0.380567,-0.331983 0.570851,-0.805667 0.570851,-1.421052 0,-1.198381 -0.740891,-1.797571 -2.222673,-1.797571 -0.477733,0 -0.983805,0.06073 -1.518218,0.182186 L 13.720042,14.140411 14,10 18.505467,9.9501278 18.505467,11 15,11 14.776722,13.520978 c 0.465587,-0.09312 0.921053,-0.139676 1.366397,-0.139676 z"
     class="ColorScheme-Highlight"
     />
 <path 
     style="fill:currentColor;fill-opacity:1;stroke:none" 
     d="M 3,3 3,5 4,5 4,4 5,4 5,3 3,3 Z m 5,0 0,1 2,0 0,-1 -2,0 z m 4,0 0,1 2,0 0,-1 -2,0 z m 5,0 0,1 1,0 0,1 1,0 0,-2 -2,0 z M 9,7 9,8 11.292969,8 8,11.292969 8.707031,12 12,8.7070312 12,11 13,11 13,7 12,7 9,7 Z M 3,8 3,10 4,10 4,8 3,8 Z m 0,5 0,6 6,0 0,-6 -6,0 z m 1,1 4,0 0,4 -4,0 0,-4 z"
     class="ColorScheme-Text"
     />
</g></svg>
