<svg xmlns="http://www.w3.org/2000/svg" viewBox="0 0 24 24">
  <defs id="defs3051">
    <style type="text/css" id="current-color-scheme">
      .ColorScheme-Text {
        color:#363636;
      }
      </style>
  </defs>
 <path style="fill:currentColor;fill-opacity:1;stroke:none" 
     d="M 11 4.0683594 C 7.0443281 4.5584193 4 7.907464 4 12 C 4 16.092536 7.0443281 19.441581 11 19.931641 L 11 18.921875 C 7.6006429 18.438059 5 15.537215 5 12 C 5 8.4627852 7.6006429 5.5619415 11 5.078125 L 11 4.0683594 z M 13 4.0683594 L 13 5.078125 C 16.399357 5.5619415 19 8.4627852 19 12 C 19 15.537215 16.399357 18.438059 13 18.921875 L 13 19.931641 C 16.955672 19.441581 20 16.092536 20 12 C 20 7.907464 16.955672 4.5584193 13 4.0683594 z M 12 6 C 8.676 6 6 8.676 6 12 C 6 15.324 8.676 18 12 18 C 15.324 18 18 15.324 18 12 C 18 11.118224 17.807518 10.283967 17.46875 9.53125 L 16.6875 10.3125 C 16.877228 10.841775 17 11.403857 17 12 C 17 14.77 14.77 17 12 17 C 9.23 17 7 14.77 7 12 C 7 9.23 9.23 7 12 7 C 13.641573 7 15.079708 7.7951359 15.990234 9.0097656 L 16.712891 8.2871094 C 15.616004 6.8947115 13.918061 6 12 6 z M 12 8 C 10.892 8 9.8929219 8.4469219 9.1699219 9.1699219 L 9.8769531 9.8769531 C 10.419203 9.3347031 11.169 9 12 9 C 13.662 9 15 10.338 15 12 C 15 13.662 13.662 15 12 15 C 10.338 15 9 13.662 9 12 C 9 11.698149 9.056477 11.413074 9.1386719 11.138672 L 8.3574219 10.357422 C 8.1318349 10.858996 8 11.412506 8 12 C 8 14.216 9.784 16 12 16 C 14.216 16 16 14.216 16 12 C 16 9.784 14.216 8 12 8 z "
     class="ColorScheme-Text"
     />
</svg>
