<svg xmlns="http://www.w3.org/2000/svg" viewBox="0 0 24 24">
  <defs id="defs3051">
    <style type="text/css" id="current-color-scheme">
      .ColorScheme-Text {
        color:#363636;
      }
      </style>
  </defs>
 <path style="fill:currentColor;fill-opacity:1;stroke:none" 
     d="M 5 4 L 5 10 L 5 11 L 5 16 L 5 17 L 5 18 L 4 18 L 4 19 L 5 19 L 5 20 L 6 20 L 6 19 L 20 19 L 20 18 L 17 18 L 17 9 L 16 9 L 13 9 L 13 18 L 11 18 L 11 8 L 11 5 L 11 4 L 7 4 L 7 18 L 6 18 L 6 17 L 6 16 L 6 13 L 6 12 L 6 11 L 6 10 L 6 7 L 6 6.9921875 L 6 6 L 6 4 L 5 4 z M 8 5 L 10 5 L 10 18 L 8 18 L 8 5 z M 14 10 L 16 10 L 16 18 L 14 18 L 14 10 z "
     class="ColorScheme-Text"
     />
</svg>
