<svg xmlns="http://www.w3.org/2000/svg" viewBox="0 0 24 24">
  <defs id="defs3051">
    <style type="text/css" id="current-color-scheme">
      .ColorScheme-Text {
        color:#363636;
      }
      .ColorScheme-Highlight {
        color:#3daee9;
      }
      </style>
  </defs>
 <path 
     style="fill:currentColor;fill-opacity:1;stroke:none" 
     d="M 4 4 L 4 5 L 5 5 L 5 4 L 4 4 z M 19.292969 4 L 13.292969 10 L 14 10 L 14 10.707031 L 20 4.7070312 L 19.292969 4 z M 6 6 L 6 7 L 7 7 L 7 6 L 6 6 z M 8 8 L 8 9 L 9 9 L 9 8 L 8 8 z M 10 13.292969 L 4 19.292969 L 4.7070312 20 L 10.707031 14 L 10 14 L 10 13.292969 z M 15 15 L 15 16 L 16 16 L 16 15 L 15 15 z M 17 17 L 17 18 L 18 18 L 18 17 L 17 17 z M 19 19 L 19 20 L 20 20 L 20 19 L 19 19 z "
     class="ColorScheme-Text"
     />
 <path 
     style="fill:currentColor;fill-opacity:1;stroke:none" 
     d="M 10 10 L 10 14 L 14 14 L 14 10 L 10 10 z M 11 11 L 13 11 L 13 13 L 11 13 L 11 11 z "
     class="ColorScheme-Highlight"
     />
</svg>
