<svg xmlns="http://www.w3.org/2000/svg" viewBox="0 0 24 24">
  <defs id="defs3051">
    <style type="text/css" id="current-color-scheme">
      .ColorScheme-Text {
        color:#363636;
      }
      .ColorScheme-Highlight {
        color:#3daee9;
      }
      </style>
  </defs><g transform="translate(1,1)">
 <path 
     style="fill:currentColor;fill-opacity:1;stroke:none" 
     d="M 11 3 C 9.8900076 3 8.8372981 3.2301498 7.8789062 3.6367188 L 8.6542969 4.4121094 C 9.3877048 4.1503133 10.17427 4 11 4 C 14.87797 4 18 7.122 18 11 C 18 11.825723 17.849685 12.612294 17.587891 13.345703 L 18.363281 14.121094 C 18.769865 13.162692 19 12.109985 19 11 C 19 6.568 15.43197 3 11 3 z M 3 5 L 3 6 L 8 6 L 8 5 L 3 5 z M 3.6367188 7.8789062 C 3.2301351 8.8373078 3 9.8900153 3 11 C 3 15.432 6.56803 19 11 19 C 12.109992 19 13.162702 18.76985 14.121094 18.363281 L 13.345703 17.587891 C 12.612295 17.849687 11.82573 18 11 18 C 7.12203 18 4 14.878 4 11 C 4 10.174277 4.1503153 9.3877065 4.4121094 8.6542969 L 3.6367188 7.8789062 z M 16 14 L 16 16 L 14 16 L 14 17 L 16 17 L 16 19 L 17 19 L 17 17 L 19 17 L 19 16 L 17 16 L 17 14 L 16 14 z "
     class="ColorScheme-Text"
     />
</g></svg>
