<svg xmlns="http://www.w3.org/2000/svg" viewBox="0 0 24 24">
  <defs id="defs3051">
    <style type="text/css" id="current-color-scheme">
      .ColorScheme-Text {
        color:#363636;
      }
      </style>
  </defs>
 <path style="fill:currentColor;fill-opacity:1;stroke:none" 
     d="M 12 4 C 9.230001 4 7 6.230001 7 9 L 7 15 L 7 20 L 8 20 L 11 20 L 11 19.900391 L 11 19.724609 L 11 18 L 11 10 L 11 9 C 11 8.446 11.446 8 12 8 C 12.554 8 13 8.446 13 9 L 13 18 L 13 19 L 13 19.724609 L 13 19.900391 L 13 20 L 14 20 L 16 20 L 17 20 L 17 19 L 17 10 L 17 9 C 17 6.23 14.769999 4 12 4 z M 12 5 C 14.215999 5 16 6.784001 16 9 L 16 15 L 16 17.982422 L 16 19 L 14.978516 19 L 14 19 L 14 18.441406 L 14 10 L 14 9 C 14 7.892001 13.107999 7 12 7 C 10.892001 7 10 7.892001 10 9 L 10 18 L 10 19 L 8 19 L 8 17.982422 L 8 15 L 8 10 L 8 9 C 8 6.784001 9.784001 5 12 5 z "
     class="ColorScheme-Text"
     />
</svg>
