<svg xmlns="http://www.w3.org/2000/svg" viewBox="0 0 22 22">
  <defs id="defs3051">
    <style type="text/css" id="current-color-scheme">
      .ColorScheme-Text {
        color:#363636;
      }
      .ColorScheme-Highlight {
        color:#3daee9;
      }
      </style>
  </defs>
 <path 
    style="fill:currentColor;fill-opacity:1;stroke:none" 
	d="M 3 7 L 3 16 L 8 16 L 8 12 L 15 12 L 15 14 L 16 14 L 16 12 L 17 12 L 17 14 L 18 14 L 18 12 L 19 12 L 19 11 L 8 11 L 8 7 L 3 7 z M 4 8 L 7 8 L 7 15 L 4 15 L 4 8 z "
	class="ColorScheme-Text"
    />
  <path
    style="fill:currentColor;fill-opacity:1;stroke:none" 
    d="M 16.5 2 A 3.499991 3.499991 0 0 0 13 5.5 A 3.499991 3.499991 0 0 0 13.699219 7.59375 L 14.416016 6.8769531 A 2.5 2.5 0 0 1 14 5.5 A 2.5 2.5 0 0 1 16.5 3 A 2.5 2.5 0 0 1 17.876953 3.4160156 L 18.59375 2.6992188 A 3.499991 3.499991 0 0 0 16.5 2 z M 19.300781 3.40625 L 18.583984 4.1230469 A 2.5 2.5 0 0 1 19 5.5 A 2.5 2.5 0 0 1 16.5 8 A 2.5 2.5 0 0 1 15.123047 7.5839844 L 14.40625 8.3007812 A 3.499991 3.499991 0 0 0 16.5 9 A 3.499991 3.499991 0 0 0 20 5.5 A 3.499991 3.499991 0 0 0 19.300781 3.40625 z "
	class="ColorScheme-Highlight"
     id="path10" />
</svg>
