<svg xmlns="http://www.w3.org/2000/svg" viewBox="0 0 22 22">
  <defs id="defs3051">
    <style type="text/css" id="current-color-scheme">
      .ColorScheme-Text {
        color:#363636;
      }
      .ColorScheme-Highlight {
        color:#3daee9;
      }
      </style>
  </defs>
 <g transform="translate(-378.85714-540.07647)">
  <path d="m3 3v4 12h1 15v-1-11-2-2h-5v1 3h4v11h-14v-11h4v-3-1h-5m6.427734 6c-1.06609 0-1.513672.352246-1.513672 1.253906v1.222656c0 .556912-.020505 1.201172-.609375 1.201172h-.304688v.644532h.304688c.58889 0 .609375.644261.609375 1.201172v1.222656c0 .90166.447582 1.253906 1.513672 1.253906v-.591797c-.71072 0-.720703-.239159-.720703-1.105469v-1.00781c0-.41546-.123616-1.034666-.722656-1.291016.59904-.25635.722656-.873592.722656-1.289062v-1.017578c0-.866311.010003-1.105469.720703-1.105469v-.591797m3.136719 0v.591797c.71073 0 .728516.239158.728516 1.105469v1.017578c0 .41547.123606 1.032712.722656 1.289062-.59905.25635-.722656.875556-.722656 1.291016v1.00781c0 .86631-.017696 1.105469-.728516 1.105469v.591797c1.0661 0 1.521474-.352246 1.521485-1.253906v-1.222656c0-.556912.0404-1.201172.61914-1.201172h.294922v-.644532h-.294922c-.57874 0-.619151-.644261-.61914-1.201172v-1.222656c0-.90166-.455385-1.253906-1.521485-1.253906" transform="translate(378.85714 540.07647)" 
  style="fill:currentColor;fill-opacity:1;stroke:none" 
  class="ColorScheme-Text"
  />
  <path d="m387.85714 543.07647l2 3 2-3z" style="fill:#f60;fill-rule:evenodd"/>
 </g>
</svg>
