<svg xmlns="http://www.w3.org/2000/svg" viewBox="0 0 22 22">
  <defs id="defs3051">
    <style type="text/css" id="current-color-scheme">
      .ColorScheme-Text {
        color:#363636;
      }
      </style>
  </defs>
 <path 
    style="fill:currentColor;fill-opacity:1;stroke:none" 
	d="M 10,4 3,11.15625 6.875,18 10,18 9.6875,20 14,17.59375 18.3125,20 17.5,14.9375 21,11.34375 16.15625,10.59375 14,6 13.34375,7.40625 10,4 Z m 0,1.25 2.9375,3 -1.09375,2.34375 L 7,11.34375 10.5,14.9375 10.15625,17.125 7.375,17.125 4.0625,11.3125 10,5.25 Z m 4,2.5 1.625,3.46875 L 19.25,11.75 16.625,14.4375 17.25,18.25 14,16.46875 10.75,18.25 11.375,14.4375 8.75,11.75 12.375,11.21875 14,7.75 Z" transform="translate(-1-1)"
    class="ColorScheme-Text"
    />  
</svg>
