<svg xmlns="http://www.w3.org/2000/svg" viewBox="0 0 22 22">
  <defs id="defs3051">
    <style type="text/css" id="current-color-scheme">
      .ColorScheme-Text {
        color:#363636;
      }
      </style>
  </defs>
 <path 
    style="fill:currentColor;fill-opacity:1;stroke:none" 
	d="m3 3v1 14 1h10v-1h-9v-14h14v9h1v-9-1h-1-15m8 2c-1.385 0-2.5 1.115-2.5 2.5 0 1.385 1.115 2.5 2.5 2.5 1.385 0 2.5-1.115 2.5-2.5 0-1.385-1.115-2.5-2.5-2.5m0 1c.831 0 1.5.669 1.5 1.5 0 .831-.669 1.5-1.5 1.5-.831 0-1.5-.669-1.5-1.5 0-.831.669-1.5 1.5-1.5m0 5c-2.49299 0-4.5 2.00701-4.5 4.5v.5 1h.275391.724609.345703 5.154297v-1h-5.5v-.5c0-1.93899 1.56101-3.5 3.5-3.5.955954 0 1.816828.382914 2.447266 1h1.296875c-.805483-1.206782-2.178208-2-3.744141-2m5 3v2h-2v1h2v2h1v-2h2v-1h-2v-2h-1"
    class="ColorScheme-Text"
    />  
</svg>
