<svg xmlns="http://www.w3.org/2000/svg" viewBox="0 0 22 22">
  <defs id="defs3051">
    <style type="text/css" id="current-color-scheme">
      .ColorScheme-Text {
        color:#363636;
      }
      </style>
  </defs>
 <path 
    style="fill:currentColor;fill-opacity:1;stroke:none" 
	d="m4.5 3c-.831 0-1.5.669-1.5 1.5 0 .65424.418077 1.202197 1 1.408203v10.0918h-1v3h3v-3h-1v-10.0918c.424456-.150261.756746-.48554.908203-.908203h10.0918v1h3v-3h-3v1h-10.0918c-.206006-.581923-.753963-1-1.408203-1m0 1c.277 0 .5.223.5.5 0 .277-.223.5-.5.5-.277 0-.5-.223-.5-.5 0-.277.223-.5.5-.5m12.5 0h1v1h-1v-1m-11 2v7l2-2.5h3l-5-4.5m-2 11h1v1h-1v-1"
    class="ColorScheme-Text"
    />  
</svg>
