<svg height="22" viewBox="0 0 5.8208332 5.8208335" width="22" xmlns="http://www.w3.org/2000/svg"><style type="text/css" id="current-color-scheme">.ColorScheme-Text{color:#363636;}.ColorScheme-NegativeText{color:#da4453;}</style><g transform="translate(0 -291.17915)"><path d="m11 8v.9882812l1.011719 1.0117188h1.988281v1.988281l1.867188 1.867188c.27847.084712.566311.143978.863281.144531h2.269531 1v-6h-1-2.269531c-.851739.0015874-1.662651.365115-2.230469 1h-1.5v-1zm-9 1v4h8.982422l-1.0000001-1h-6.9824219v-2h4.9824219l-1-1zm14.730469 0h2.269531v4h-2.269531c-.713964-.000567-1.373481-.381707-1.730469-1v-2h.001953c.356637-.617726 1.01525-.9987528 1.728516-1z" style="fill:currentColor;fill-opacity:1;stroke:none" class="ColorScheme-Text" transform="matrix(.26458333 0 0 .26458333 0 291.17915)"/><path d="m.79375004 292.16.1870889-.18709 4.04624436 4.04624-.1870887.18709z" style="fill:currentColor;fill-opacity:1;stroke:none" class="ColorScheme-NegativeText"/></g></svg>