<svg xmlns="http://www.w3.org/2000/svg" viewBox="0 0 22 22">
  <defs id="defs3051">
    <style type="text/css" id="current-color-scheme">
      .ColorScheme-Text {
        color:#363636;
      }
      </style>
  </defs>
 <path 
    style="fill:currentColor;fill-opacity:1;stroke:none" 
    d="M 12 4 C 9.784 4 8 5.784 8 8 C 8 9.4829714 8.8072919 10.75838 10 11.449219 L 10 20 L 12 18 L 14 20 L 14 11.449219 C 15.192708 10.75838 16 9.4829714 16 8 C 16 5.784 14.216 4 12 4 z M 12 5 C 13.662 5 15 6.338 15 8 C 15 9.662 13.662 11 12 11 C 10.338 11 9 9.662 9 8 C 9 6.338 10.338 5 12 5 z M 12 6 L 11.380859 7.3164062 L 10 7.5273438 L 11 8.5527344 L 10.763672 10 L 12 9.3164062 L 13.236328 10 L 13 8.5527344 L 14 7.5273438 L 12.619141 7.3164062 L 12 6 z "
    class="ColorScheme-Text"
    />  
</svg>
