<svg xmlns="http://www.w3.org/2000/svg" viewBox="0 0 22 22">
  <defs id="defs3051">
    <style type="text/css" id="current-color-scheme">
      .ColorScheme-Text {
        color:#363636;
      }
      </style>
  </defs>
 <path 
     style="fill:currentColor;fill-opacity:0.5;stroke:none" 
     d="M 11 3 A 3.9999902 4.0000296 0 0 0 7 7 A 3.9999902 4.0000296 0 0 0 11 11 A 3.9999902 4.0000296 0 0 0 15 7 A 3.9999902 4.0000296 0 0 0 11 3 z M 11 4 A 3 3.0000296 0 0 1 14 7 A 3 3.0000296 0 0 1 11 10 A 3 3.0000296 0 0 1 8 7 A 3 3.0000296 0 0 1 11 4 z M 11 12 A 7.9999504 8.0000296 0 0 0 3.0722656 19 L 4.0800781 19 A 6.9999604 7.0000296 0 0 1 11 13 A 6.9999604 7.0000296 0 0 1 12 13.080078 L 12 12.070312 A 7.9999504 8.0000296 0 0 0 11 12 z M 15.5 12 C 13.567003 12 12 13.567003 12 15.5 C 12 17.432997 13.567003 19 15.5 19 C 17.432997 19 19 17.432997 19 15.5 C 19 13.567003 17.432997 12 15.5 12 z M 13 15 L 18 15 L 18 16 L 13 16 L 13 15 z "
     class="ColorScheme-Text"
     />
    <path
       style="fill:#ffffff;fill-opacity:1;stroke:none"
       d="M 13 15 L 13 16 L 18 16 L 18 15 L 13 15 z " />
</svg>
