<?xml version="1.0" encoding="UTF-8" standalone="no"?>
<!-- Created with Inkscape (http://www.inkscape.org/) -->
<svg id="svg4337" xmlns:rdf="http://www.w3.org/1999/02/22-rdf-syntax-ns#" xmlns="http://www.w3.org/2000/svg" height="22" viewBox="0 0 22 22" width="22" version="1.1" xmlns:cc="http://creativecommons.org/ns#" xmlns:dc="http://purl.org/dc/elements/1.1/">
 <defs id="defs4339">
  <style id="current-color-scheme" type="text/css">.ColorScheme-Text {
        color:#363636;
      }</style>
 </defs>
 <metadata id="metadata4342">
  <rdf:RDF>
   <cc:Work rdf:about="">
    <dc:format>image/svg+xml</dc:format>
    <dc:type rdf:resource="http://purl.org/dc/dcmitype/StillImage"/>
    <dc:title/>
   </cc:Work>
  </rdf:RDF>
 </metadata>
 <g id="layer1" transform="translate(0,6)">
  <path id="rect4179" class="ColorScheme-Text" style="fill:currentColor" d="m12.013-2.9914v2h-9v1h9v1.7773a1.9977 1.9977 0 0 0 -0.365 -0.1543l-0.0078-0.00195a1.9977 1.9977 0 0 0 -2.4883 1.334 1.9977 1.9977 0 0 0 -0.011719 0.044922h-6.127v1h6.1113a1.9977 1.9977 0 0 0 1.3594 1.4453 1.9977 1.9977 0 0 0 0.30859 0.066407 1.9977 1.9977 0 0 0 -1.6406 1.3984 1.9977 1.9977 0 0 0 -0.023437 0.089844h-6.1152v1h6.1211a1.9977 1.9977 0 0 0 1.3496 1.3984 1.9977 1.9977 0 0 0 0.30664 0.066406 1.9977 1.9977 0 0 0 -1.6387 1.3984 1.9977 1.9977 0 0 0 -0.035156 0.13672h-6.1035v1h6.1328a1.9977 1.9977 0 0 0 1.3379 1.3535 1.9977 1.9977 0 0 0 2.4922 -1.3301 1.9977 1.9977 0 0 0 0.0059 -0.02344h0.03125 6v-1h-6v-3h6v-1h-6v-3h6v-1h-6v-3h6v-1h-6v-2h-1zm-0.94336 5.5527a0.97972 0.97972 0 0 1 0.25586 0.037109l0.02539 0.00586a0.97972 0.97972 0 0 1 0.65234 1.2168 0.97972 0.97972 0 0 1 -1.2129 0.66211 0.97972 0.97972 0 0 1 -0.66797 -1.209 0.97972 0.97972 0 0 1 0.94727 -0.71289zm0.94336 2.7363v0.44141a1.9977 1.9977 0 0 0 -0.36523 -0.1543l-0.0078-0.00195a1.9977 1.9977 0 0 0 -0.30078 -0.064453 1.9977 1.9977 0 0 0 0.67383 -0.2207zm-0.94336 1.2188a0.97972 0.97972 0 0 1 0.25586 0.035157l0.02539 0.00781a0.97972 0.97972 0 0 1 0.65234 1.2168 0.97972 0.97972 0 0 1 -1.2129 0.66016 0.97972 0.97972 0 0 1 -0.66797 -1.209 0.97972 0.97972 0 0 1 0.94727 -0.71094zm0.94336 2.7363v0.44141a1.9977 1.9977 0 0 0 -0.36523 -0.1543l-0.0078-0.00195a1.9977 1.9977 0 0 0 -0.30273 -0.064453 1.9977 1.9977 0 0 0 0.67578 -0.2207zm-0.943 1.2183a0.97972 0.97972 0 0 1 0.25586 0.03516l0.02539 0.0059a0.97972 0.97972 0 0 1 0.65234 1.2188 0.97972 0.97972 0 0 1 -1.2129 0.66016 0.97972 0.97972 0 0 1 -0.66797 -1.209 0.97972 0.97972 0 0 1 0.94727 -0.71094z"/>
 </g>
</svg>
