<svg xmlns="http://www.w3.org/2000/svg" viewBox="0 0 22 22">
  <defs id="defs3051">
    <style type="text/css" id="current-color-scheme">
      .ColorScheme-Text {
        color:#363636;
      }
      .ColorScheme-Highlight {
        color:#3daee9;
      }
      </style>
  </defs>
 <path 
     style="fill:currentColor;fill-opacity:1;stroke:none" 
     d="M 3 11 L 3 19 L 4 19 L 4 11 L 3 11 z M 5 11 L 5 19 L 6 19 L 6 12 L 7 12 A 2 2 0 0 1 9 14 L 9 19 L 10 19 L 10 14 A 3 3 0 0 0 7 11 L 6 11 L 5 11 z M 13 11 L 13 19 L 14 19 L 14 11 L 13 11 z M 15 11 L 15 15 L 15 19 L 16 19 L 16 15 A 3 2.9999979 0 0 1 19 12 L 19 11 A 3.9999852 4 0 0 0 16 12.361328 L 16 11 L 15 11 z "
     class="ColorScheme-Text"
     />
 <path 
     style="fill:currentColor;fill-opacity:1;stroke:none" 
     d="M 10 3 L 6 6 L 10 9 L 10 3 z M 13 3 L 13 9 L 17 6 L 13 3 z "
     class="ColorScheme-Highlight"
     />
</svg>
