<svg version="1.1" viewBox="0 0 22 22" xmlns="http://www.w3.org/2000/svg">
 <defs>
  <style id="current-color-scheme" type="text/css">.ColorScheme-Text {
        color:#363636;
      }</style>
 </defs>
 <path class="ColorScheme-Text" d="m9.5 10c-1.3807 0-2.5 1.1193-2.5 2.5s1.1193 2.5 2.5 2.5c0.34496-4.33e-4 0.6861-0.07225 1.002-0.21094 0.31465 0.13816 0.6544 0.20997 0.99805 0.21094 1.3807 0 2.5-1.1193 2.5-2.5s-1.1193-2.5-2.5-2.5c-0.34496 4.33e-4 -0.6861 0.07225-1.002 0.21094-0.31465-0.13816-0.6544-0.20997-0.99805-0.21094zm0 1h0.00195c-0.32525 0.4325-0.50139 0.95885-0.50195 1.5 0.00113 0.54137 0.17796 1.0677 0.50391 1.5-0.0013 2e-6 -0.0026 2e-6 -0.00391 0-0.82842 0-1.5-0.67157-1.5-1.5s0.67157-1.5 1.5-1.5zm1.9961 0c0.0013-2e-6 0.0026-2e-6 0.0039 0 0.82843 0 1.5 0.67157 1.5 1.5s-0.67157 1.5-1.5 1.5h-2e-3c0.32525-0.4325 0.50138-0.95885 0.50195-1.5-0.0011-0.54137-0.17796-1.0677-0.50391-1.5zm-0.99609 0.38477c0.31742 0.28391 0.4992 0.68937 0.5 1.1152-7.96e-4 0.42587-0.18258 0.83132-0.5 1.1152-0.31742-0.28391-0.4992-0.68937-0.5-1.1152 7.95e-4 -0.42587 0.18258-0.83132 0.5-1.1152z" fill="currentColor"/>
 <path d="m5 3c-1.662 0-3 1.338-3 3v10c0 1.662 1.338 3 3 3h11c1.662 0 3-1.338 3-3v-10c0-1.662-1.338-3-3-3zm0 3h11c1.108 0 2 0.892 2 2v8c0 1.108-0.892 2-2 2h-11c-1.108 0-2-0.892-2-2v-8c0-1.108 0.892-2 2-2z" class="ColorScheme-Text" fill="currentColor"/>
</svg>
