<svg version="1.1" viewBox="0 0 22 22" xmlns="http://www.w3.org/2000/svg">
 <defs>
  <style id="current-color-scheme" type="text/css">.ColorScheme-Text {
        color:#363636;
      }</style>
 </defs>
 <path class="ColorScheme-Text" d="m6 10v5h1v-2h4v2h1v-5h-1v2h-4v-2zm11 3-4 4v2h2l4-4zm-0.31055 1.6895 0.5918 0.5918-2.9688 3-0.59375-0.59375z" fill="currentColor"/>
 <path class="ColorScheme-Text" fill="currentColor" d="m5 3c-1.662 0-3 1.338-3 3v10c0 1.662 1.338 3 3 3h7v-1h-7c-1.108 0-2-0.892-2-2v-8c0-1.108 0.892-2 2-2h11c1.108 0 2 0.892 2 2v4h1v-6c0-1.662-1.338-3-3-3h-11z"/>
</svg>
