<svg xmlns="http://www.w3.org/2000/svg" viewBox="0 0 22 22">
  <defs id="defs3051">
    <style type="text/css" id="current-color-scheme">
      .ColorScheme-Text {
        color:#363636;
      }
      </style>
  </defs>
 <path 
    style="fill:currentColor;fill-opacity:1;stroke:none" 
    d="M 5 3 L 5 14.050781 A 2.5 2.5 0 0 0 3 16.5 A 2.5 2.5 0 0 0 5.5 19 A 2.5 2.5 0 0 0 8 16.5 A 2.5 2.5 0 0 0 6 14.054688 L 6 3 L 5 3 z M 12.292969 6 L 9.5 8.7929688 L 8.7929688 9.5 L 9.5 10.207031 L 12.292969 13 L 13 12.292969 L 10.707031 10 L 17 10 L 17 9 L 15 9 L 10.707031 9 L 13 6.7070312 L 12.292969 6 z M 5.5 15 A 1.5 1.5 0 0 1 7 16.5 A 1.5 1.5 0 0 1 5.5 18 A 1.5 1.5 0 0 1 4 16.5 A 1.5 1.5 0 0 1 5.5 15 z "
    class="ColorScheme-Text"
    />  
</svg>
