<svg version="1.1" viewBox="0 0 22 22" xmlns="http://www.w3.org/2000/svg">
 <defs>
  <style id="current-color-scheme" type="text/css">.ColorScheme-Text {
        color:#363636;
      }</style>
 </defs>
 <path d="m5 3c-1.108 0-2 0.892-2 2v1h1v-1c0-0.554 0.446-1 1-1h1v-1h-1zm11 0v1h1c0.554 0 1 0.446 1 1v1h1v-1c0-1.108-0.892-2-2-2h-1zm-3 2c-0.554 0-1 0.446-1 1v10c0 0.554 0.446 1 1 1h3c0.554 0 1-0.446 1-1v-10c0-0.554-0.446-1-1-1h-3zm-7 3c-0.554 0-1 0.446-1 1v4c0 0.554 0.446 1 1 1h1c0.554 0 1-0.446 1-1v-4c0-0.554-0.446-1-1-1h-1zm3 1v4l2-2-2-2zm-6 7v1c0 1.108 0.892 2 2 2h1v-1h-1c-0.554 0-1-0.446-1-1v-1h-1zm15 0v1c0 0.554-0.446 1-1 1h-1v1h1c1.108 0 2-0.892 2-2v-1h-1z" style="fill:currentColor" class="ColorScheme-Text"/>
</svg>
