<?xml version="1.0" encoding="UTF-8" standalone="no"?>
<svg
   height="496"
   width="496"
   id="svg4"
   version="1.1"
   viewBox="0 0 496 496"
   xmlns="http://www.w3.org/2000/svg"
   xmlns:svg="http://www.w3.org/2000/svg"
   xmlns:rdf="http://www.w3.org/1999/02/22-rdf-syntax-ns#"
   xmlns:cc="http://creativecommons.org/ns#"
   xmlns:dc="http://purl.org/dc/elements/1.1/">
  <metadata
     id="metadata10">
    <rdf:RDF>
      <cc:Work
         rdf:about="">
        <dc:format>image/svg+xml</dc:format>
        <dc:type
           rdf:resource="http://purl.org/dc/dcmitype/StillImage" />
      </cc:Work>
    </rdf:RDF>
  </metadata>
  <defs
     id="defs8">
    <style
       id="style933">.cls-1{fill:#e9500e;}</style>
  </defs>
  <g
     id="g959"
     transform="matrix(0.61580374,0,0,0.61580374,12.468621,21.817361)">
    <circle
       class="cls-1"
       cx="109.02696"
       cy="348.09412"
       r="109.02696"
       id="circle937"
       style="fill:#cccccc;fill-opacity:1" />
    <ellipse
       class="cls-1"
       cx="563.08368"
       cy="109.02698"
       id="circle939"
       rx="109.02662"
       ry="109.02698"
       style="fill:#cccccc;fill-opacity:1" />
    <path
       class="cls-1"
       d="m 354.92039,628.68582 c -77.01891,-15.8253 -145.43904,-68.0075 -181.0712,-138.0982 -28.93817,13.2078 -61.94374,17.2648 -93.21911,11.4583 51.75695,133.1719 190.35352,224.9404 332.95672,222.1315 -21.33123,-25.4775 -29.54323,-61.4497 -33.6059,-91.347 -8.41211,-0.9891 -16.77785,-2.3728 -25.06051,-4.1446 z"
       id="path941"
       style="fill:#cccccc;fill-opacity:1" />
    <circle
       class="cls-1"
       cx="538.52045"
       cy="629.28723"
       r="109.02698"
       id="circle943"
       style="fill:#cccccc;fill-opacity:1" />
    <path
       class="cls-1"
       d="m 690.23645,589.24102 c 85.45532,-105.22585 101.63344,-261.1123 39.28817,-381.54731 -6.39094,-12.73675 -13.54502,-25.09063 -21.41334,-36.97169 -12.438,29.45803 -34.16446,54.90303 -61.30975,71.8031 44.28267,81.68487 40.82043,186.89167 -8.73688,265.4884 25.36982,20.67266 43.92291,49.5585 52.1718,81.2275 z"
       id="path945"
       style="fill:#cccccc;fill-opacity:1" />
    <path
       class="cls-1"
       d="m 100.61489,191.73908 c 31.72478,-1.7424 63.98682,6.52836 90.98772,23.31994 C 239.1057,145.42119 321.41819,101.39883 405.71083,100.54968 405.7585,68.81709 422.81019,34.82283 437.18034,12.00596 323.8486,3.01574 208.0489,52.71326 135.95771,140.54908 c -13.26,15.97642 -25.10697,33.12582 -35.34282,51.19 z"
       id="path947"
       style="fill:#cccccc;fill-opacity:1" />
  </g>
</svg>
