<svg xmlns="http://www.w3.org/2000/svg" width="16" height="16"><path d="M8 1c-2.03 0-3.85.87-5.12 2.25C3.23 3.11 3.6 3 4 3c1.39 0 2.54.97 2.88 2.25C7.23 5.11 7.6 5 8 5c.4 0 .77.11 1.13.25C9.46 3.97 10.61 3 12 3c.4 0 .77.11 1.13.25A6.975 6.975 0 0 0 8 1zM4 4c-1.1 0-2 .9-2 2s.9 2 2 2 2-.9 2-2c0 .55-.45 1-1 1s-1-.45-1-1 .45-1 1-1 1 .45 1 1c0-1.1-.9-2-2-2zm8 0c-1.1 0-2 .9-2 2 0-.55.45-1 1-1s1 .45 1 1-.45 1-1 1-1-.45-1-1c0 1.1.9 2 2 2s2-.9 2-2-.9-2-2-2zM8 6c-.37 0-.73.1-1.03.28C6.82 7.8 5.56 9 4 9c-1.38 0-2.53-.95-2.87-2.22-.07.4-.13.8-.13 1.22 0 3.87 3.13 7 7 7s7-3.13 7-7c0-.42-.05-.82-.12-1.22C14.53 8.05 13.38 9 12 9c-1.56 0-2.82-1.2-2.97-2.72C8.73 6.1 8.37 6 8 6zM5.17 9.83a4.004 4.004 0 0 0 5.66 0l.7.7C10.6 11.47 9.33 12 8 12c-1.33 0-2.6-.53-3.53-1.47z" fill="#aaaaaa"/></svg>