<svg width="16" height="16" version="1.1">
 <defs>
  <style id="current-color-scheme" type="text/css">
   .ColorScheme-Text { color:#aaaaaa; } .ColorScheme-Highlight { color:#5294e2; }
  </style>
 </defs>
 <path d="m4.5156 0a0.50005 0.50005 0 0 0-0.36523 0.16016l-4.0156 4.3145a0.50005 0.50005 0 0 0-0.11914 0.4668l2.543 9.7598a0.50005 0.50005 0 0 0 0.89648 0.15625l4.4844-6.582 5.5684 7.5215a0.50005 0.50005 0 0 0 0.89648-0.22461l1.5898-10.926a0.50005 0.50005 0 0 0-0.32031-0.54102l-10.982-4.0742a0.50005 0.50005 0 0 0-0.17578-0.03125zm0.14062 1.084 10.291 3.8184-1.3574 9.3262-5.2637-7.1152a0.50005 0.50005 0 0 0-0.81641 0.015625l-4.2617 6.2559-2.1953-8.4297 3.6035-3.8711z" style="fill:currentColor" class="ColorScheme-Text"/>
</svg>
