<svg width="16" height="16" version="1.1" xmlns="http://www.w3.org/2000/svg">
 <path d="m6 0v1 3.5859l-1.293-1.293a1 1 0 0 0-0.72266-0.29297h-0.98438v0.98438a1 1 0 0 0 0.29297 0.72266l2.707 2.707v1.1719l-2.707 2.707a1 1 0 0 0-0.29297 0.72266v0.98438h0.98438a1 1 0 0 0 0.72266-0.29297l1.293-1.293v3.5859 1h1v-0.011719a1 1 0 0 0 0.70703-0.28125l4-4a1 1 0 0 0 0-1.4141l-2.293-2.293 2.293-2.293a1 1 0 0 0 0-1.4141l-4-4a1 1 0 0 0-0.70703-0.29102v-0.0019531h-0.015625-0.98438zm2 3.4141 1.5859 1.5859-1.5859 1.5859v-3.1719zm0 6 1.5859 1.5859-1.5859 1.5859v-3.1719z" fill="#aaaaaa" style="font-feature-settings:normal;font-variant-alternates:normal;font-variant-caps:normal;font-variant-ligatures:normal;font-variant-numeric:normal;font-variant-position:normal;isolation:auto;mix-blend-mode:normal;shape-padding:0;text-decoration-color:#000000;text-decoration-line:none;text-decoration-style:solid;text-indent:0;text-orientation:mixed;text-transform:none"/>
</svg>
