<?xml version="1.0" encoding="UTF-8"?>
<svg width="16" height="16" version="1.1" xmlns="http://www.w3.org/2000/svg">
 <g fill="#555" stroke-linecap="round" stroke-linejoin="round" stroke-width="2">
  <rect x="7" y="5" width="2" height="11"/>
  <path d="m1.6172 1.2129a8 8 0 0 0-1.6172 4.7871 8 8 0 0 0 1.6172 4.7871l1.5879-1.1914a6 6 0 0 1-1.2051-3.5957 6 6 0 0 1 1.2051-3.5957l-1.5879-1.1914zm2.3965 1.7969a5 5 0 0 0-1.0137 2.9902 5 5 0 0 0 1.0137 2.9902l1.5938-1.1953a3 3 0 0 1-0.60742-1.7949 3 3 0 0 1 0.60742-1.7949l-1.5938-1.1953z"/>
  <path d="m14.383 1.2129a8 8 0 0 1 1.6172 4.7871 8 8 0 0 1-1.6172 4.7871l-1.5879-1.1914a6 6 0 0 0 1.2051-3.5957 6 6 0 0 0-1.2051-3.5957zm-2.3965 1.7969a5 5 0 0 1 1.0137 2.9902 5 5 0 0 1-1.0137 2.9902l-1.5938-1.1953a3 3 0 0 0 0.60742-1.7949 3 3 0 0 0-0.60742-1.7949z"/>
 </g>
</svg>
