<svg width="16" height="16" version="1.1" viewBox="0 0 16 16">
 <path d="m4 1c-1.662 0-3 1.338-3 3v1h2v-1c0-0.554 0.446-1 1-1h8c0.554 0 1 0.446 1 1v6c0 0.554-0.446 1-1 1h-3v2h3c1.662 0 3-1.338 3-3v-6c0-1.662-1.338-3-3-3zm-1.7188 5c-0.71002 0-1.2812 0.57128-1.2812 1.2812v7.4375c0 0.71002 0.57128 1.2812 1.2812 1.2812h4.4375c0.71002 0 1.2812-0.57128 1.2812-1.2812v-7.4375c0-0.71002-0.57128-1.2812-1.2812-1.2812h-2.7188zm0.12891 1h0.58984c0 0.554 0.446 1 1 1h1c0.554 0 1-0.446 1-1h0.58984c0.22771 0 0.41016 0.18245 0.41016 0.41016v7.1094c0 0.2666-0.21387 0.48047-0.48047 0.48047h-4.0391c-0.2666 0-0.48047-0.21387-0.48047-0.48047v-7.1094c0-0.22771 0.18245-0.41016 0.41016-0.41016zm6.5898 7v2h4v-1c0-0.554-0.446-1-1-1z" fill="#aaaaaa"/>
</svg>
