<svg width="16" height="16" version="1.1" xmlns="http://www.w3.org/2000/svg">
 <path d="m9.5 2a2.517 2.517 0 0 0-2.4551 2.0625c-0.17583-0.039986-0.35799-0.0625-0.54492-0.0625h-4a2.517 2.517 0 0 0-2.5 2.5v3c0 1.368 1.132 2.5 2.5 2.5h4c0.56118 0 1.0801-0.19258 1.5-0.51172 0.4199 0.31914 0.93882 0.51172 1.5 0.51172h4c1.368 0 2.5-1.132 2.5-2.5v-5c0-1.368-1.132-2.5-2.5-2.5h-4zm0 2h4c0.294 0 0.5 0.206 0.5 0.5v5c0 0.294-0.206 0.5-0.5 0.5h-4a0.478 0.478 0 0 1-0.5-0.5v-3-2c0-0.294 0.206-0.5 0.5-0.5zm-7 2h4c0.294 0 0.5 0.206 0.5 0.5v3c0 0.294-0.206 0.5-0.5 0.5h-4a0.478 0.478 0 0 1-0.5-0.5v-3c0-0.294 0.206-0.5 0.5-0.5zm2 7c-2.5 0-2.5 0.5-2.5 0.5 0 0.5 0.5 0.5 0.5 0.5h4c0.5 0 0.5-0.5 0.5-0.5s0-0.5-2.5-0.5zm7 0c-2.5 0-2.5 0.5-2.5 0.5 0 0.5 0.5 0.5 0.5 0.5h4c0.5 0 0.5-0.5 0.5-0.5s0-0.5-2.5-0.5z" fill="#aaaaaa"/>
</svg>
