<svg width="22" height="22" version="1.1" xmlns="http://www.w3.org/2000/svg">
 <defs>
  <style id="current-color-scheme" type="text/css">.ColorScheme-Text { color:#dedede; } .ColorScheme-Highlight { color:#5294e2; }</style>
 </defs>
 <path class="ColorScheme-Text" d="m5.8812 3-0.75287 0.75496 1.5015 1.5037a2.6694 2.6694 0 0 0-0.43797 1.4619 2.6694 2.6694 0 0 0 2.1355 2.6153v4.3838a2.6694 2.6694 0 0 0-2.1355 2.611 2.6694 2.6694 0 0 0 2.6694 2.6694 2.6694 2.6694 0 0 0 2.6694-2.6694 2.6694 2.6694 0 0 0-2.1355-2.6153v-4.3838a2.6694 2.6694 0 0 0 0.92806-0.37748l1.6455 1.6455a2.6694 2.6694 0 0 0-0.43588 1.4619 2.6694 2.6694 0 0 0 2.6694 2.6694 2.6694 2.6694 0 0 0 2.6694-2.6694 2.6694 2.6694 0 0 0-2.6694-2.6694 2.6694 2.6694 0 0 0-1.4807 0.45048l-1.6371-1.6393a2.6694 2.6694 0 0 0 0.44839-1.4807 2.6694 2.6694 0 0 0-2.6694-2.6694 2.6694 2.6694 0 0 0-1.4787 0.45048l-1.5015-1.5015z" fill="currentColor"/>
</svg>
