<svg width="64" height="64" viewBox="0 0 16.933 16.933" xmlns="http://www.w3.org/2000/svg"><defs><clipPath id="a"><circle cx="8.467" cy="288.53" r="6.879" fill="#d86eb0" stroke-opacity=".039" stroke-width=".491" style="paint-order:stroke markers fill"/></clipPath></defs><circle cx="8.466" cy="8.466" r="7.144" fill="#d86eb0" style="paint-order:stroke markers fill"/><rect x="6.879" y="5.291" width="3.175" height="5.292" rx="1.587" ry="1.587" fill="#fff" style="paint-order:stroke markers fill"/><path d="M6.218 8.863a.132.132 0 0 0-.133.133.132.132 0 0 0 .002.016 2.381 2.381 0 0 0 2.38 2.365 2.381 2.381 0 0 0 2.38-2.368.132.132 0 0 0 0-.01 2.381 2.381 0 0 0 0-.003.132.132 0 0 1 0-.001.132.132 0 0 0-.132-.132.132.132 0 0 0-.132.132 2.116 2.116 0 0 1-2.116 2.117 2.116 2.116 0 0 1-2.116-2.117h-.002a.132.132 0 0 0-.131-.132z" fill="#fff" style="paint-order:stroke markers fill"/><path fill="none" d="M1.588 7.237h13.758v4.762H1.588z"/><g transform="translate(-.326 -291.29) scale(1.0385)" clip-path="url(#a)" fill="none" stroke="#fff" stroke-opacity=".937" stroke-width=".127"><path d="M1.485 287.74c.72.155 1.391.625 1.983 1.98.674 1.545 1.623 2.23 2.772 2.284 1.48.07 2.673-1.226 3.459-2.385 1.602-2.362 4.519-2.136 5.816-1.251" opacity=".35"/><path d="M1.493 288.13c.894-.35 2.083-.424 2.872.827.722 1.143 1.576 2.867 4.049 2.709 1.478-.095 2.956-.71 3.718-2.15.53-.933 1.26-1.872 2.293-2.104.382-.081.655-.07.976.057" opacity=".35"/><path d="M1.775 290.25c.947-.444 2.745-.953 4.197-.53 1.297.38 2.937 1.847 6.056 1.504.824-.09 1.522-.563 2.183-1.464.478-.652.75-1.02 1.306-1.167" opacity=".35"/></g></svg>