<svg width="64" height="64" version="1" xmlns="http://www.w3.org/2000/svg"><circle cx="32" cy="32" r="27" fill="#666" style="paint-order:stroke fill markers"/><circle cx="32" cy="32" r="21" fill="#fff" style="paint-order:markers stroke fill"/><circle cx="32" cy="32" r="18" fill="#537bbc" style="paint-order:markers stroke fill"/><path d="M29.309 37.358h5.387v2.02h-5.387zm0 3.368h5.387v2.02h-5.387zm2.693-14.143a4.714 4.714 0 0 0-4.714 4.714 4.714 4.714 0 0 0 4.714 4.714 4.714 4.714 0 0 0 4.714-4.714 4.714 4.714 0 0 0-4.714-4.714zm0 2.02a2.694 2.694 0 0 1 2.694 2.694 2.694 2.694 0 0 1-2.694 2.694 2.694 2.694 0 0 1-2.693-2.694 2.694 2.694 0 0 1 2.693-2.694zm6.188.27-3.809-3.81 3.81-3.809L42 25.064zm-8.571-3.81-3.81 3.81-1.428-1.429 3.81-3.81zm-2.381-2.38-3.81 3.81L22 25.063l3.81-3.808z" fill="#fff"/></svg>