<svg width="64" height="64" version="1" xmlns="http://www.w3.org/2000/svg"><circle cx="32" cy="32" r="27" fill="#666" style="paint-order:stroke fill markers"/><path d="M32 14a18 18 0 0 0-18 18 18 18 0 0 0 18 18 18 18 0 0 0 18-18 18 18 0 0 0-18-18zm0 10.8a7.2 7.2 0 0 1 7.2 7.2 7.2 7.2 0 0 1-7.2 7.2 7.2 7.2 0 0 1-7.2-7.2 7.2 7.2 0 0 1 7.2-7.2z" fill="#4d4d4d"/><path d="M32 22a10 10 0 0 0-10 10v10h10a10 10 0 0 0 10-10 10 10 0 0 0-10-10zm0 5a5 5 0 0 1 5 5 5 5 0 0 1-5 5 5 5 0 0 1-5-5 5 5 0 0 1 5-5z" fill="#fff" style="paint-order:stroke fill markers"/></svg>