<svg width="64" height="64" version="1" xmlns="http://www.w3.org/2000/svg"><circle cx="32" cy="32" r="27" fill="#4f4f4f" style="paint-order:stroke fill markers"/><path d="M14.5 30a2.495 2.495 0 0 0-2.5 2.5v14.459A25 25 0 0 0 20.139 54h23.689A25 25 0 0 0 52 46.95V32.5c0-1.385-1.115-2.5-2.5-2.5h-35z" fill="#fff"/><path d="M12.82 48A25 25 0 0 0 32 57a25 25 0 0 0 19.201-9H12.82z" fill="#ffae3f"/><path d="M32 7a25 25 0 0 0-12 3.1v13.4c0 1.386 1.114 2.5 2.5 2.5h27c1.384 0 2.5-1.114 2.5-2.5v-6.46A25 25 0 0 0 32 7zm5 3.6a22 22 0 0 1 12 7.46V21c0 1.108-.892 2-2 2h-8c-1.108 0-2-.892-2-2V10.6z" fill="#fff" opacity=".35"/></svg>