<svg width="64" height="64" version="1" xmlns="http://www.w3.org/2000/svg"><circle cx="32" cy="32" r="27" fill="#4f4f4f" style="paint-order:stroke fill markers"/><path d="M17.5 33c-1.385 0-2.5.768-2.5 2.707v14.58A25 25 0 0 0 32 57a25 25 0 0 0 17-6.699V36.017C49 34.078 47.885 33 46.5 33z" opacity=".4"/><path d="M32 7a25 25 0 0 0-1 .035V17h3V7.1a25 25 0 0 0-2-.1zm-2 .09a25 25 0 0 0-3 .441v9.47h3V7.09zm5 .111V17h3V7.762a25 25 0 0 0-3-.56zm-9 .555a25 25 0 0 0-3 .924V17h3V7.756zm13 .262V17h3V9.1a25 25 0 0 0-3-1.082zM22 9.12a25 25 0 0 0-3 1.55V17h3V9.121zm21 .463V17h3v-5.703a25 25 0 0 0-3-1.713zm4 2.455V17h3v-2.342a25 25 0 0 0-3-2.619zM15 14v3h3v-3h-3z" fill="#f8c44e"/></svg>