<svg width="64" height="64" xmlns="http://www.w3.org/2000/svg"><circle cx="32" cy="32" r="27" fill="#f2f2f2" style="paint-order:stroke fill markers"/><rect transform="matrix(0 -1 -1 0 0 0)" x="-26" y="-53" width="10" height="42" rx="2" ry="2" fill="#666"/><circle cx="49" cy="21" r="1" fill="#9eee5a"/><rect transform="matrix(0 -1 -1 0 0 0)" x="-37" y="-53" width="10" height="42" rx="2" ry="2" fill="#666"/><circle cx="49" cy="32" r="1" fill="#9eee5a"/><rect transform="matrix(0 -1 -1 0 0 0)" x="-48" y="-53" width="10" height="42" rx="2" ry="2" fill="#666"/><g fill="#9eee5a" stroke-width=".333"><circle cx="49" cy="43" r="1"/><circle cx="45" cy="21" r="1" opacity=".6"/><circle cx="45" cy="32" r="1" opacity=".6"/><circle cx="45" cy="43" r="1" opacity=".6"/><circle cx="41" cy="21" r="1" opacity=".3"/><circle cx="41" cy="32" r="1" opacity=".3"/><circle cx="41" cy="43" r="1" opacity=".3"/></g><g transform="rotate(-45 -.604 -.25)"><rect x="-6.889" y="26.017" width="6" height="1" ry=".5" opacity=".25" style="paint-order:stroke fill markers"/><rect x="-4.768" y="28.138" width="6" height="1" ry=".5" opacity=".25" style="paint-order:stroke fill markers"/><rect x="-2.482" y="30.423" width="6" height="1" ry=".5" opacity=".25" style="paint-order:stroke fill markers"/></g><g transform="rotate(-45 12.675 5.25)"><rect x="-6.889" y="26.017" width="6" height="1" ry=".5" opacity=".25" style="paint-order:stroke fill markers"/><rect x="-4.768" y="28.138" width="6" height="1" ry=".5" opacity=".25" style="paint-order:stroke fill markers"/><rect x="-2.482" y="30.423" width="6" height="1" ry=".5" opacity=".25" style="paint-order:stroke fill markers"/></g><g transform="rotate(-45 25.953 10.75)"><rect x="-6.889" y="26.017" width="6" height="1" ry=".5" opacity=".25" style="paint-order:stroke fill markers"/><rect x="-4.768" y="28.138" width="6" height="1" ry=".5" opacity=".25" style="paint-order:stroke fill markers"/><rect x="-2.482" y="30.423" width="6" height="1" ry=".5" opacity=".25" style="paint-order:stroke fill markers"/></g></svg>