<svg width="64" height="64" version="1" xmlns="http://www.w3.org/2000/svg"><circle cx="32" cy="32" r="27" fill="#ccc" style="paint-order:stroke fill markers"/><g stroke-linecap="round" stroke-linejoin="round"><path d="M18 30.8V16.1c0-1.163.937-2.1 2.1-2.1h23.8c1.163 0 2.1.937 2.1 2.1v14.7z" fill="#fff" style="paint-order:stroke fill markers"/><rect x="12" y="22" width="40" height="20" rx="4.286" ry="4.286" fill="#4d4d4d" style="paint-order:stroke fill markers"/><path d="M18 33v14.9c0 1.163.937 2.1 2.1 2.1h23.8c1.163 0 2.1-.937 2.1-2.1V33z" fill="#fff" style="paint-order:stroke fill markers"/><rect x="15" y="25" width="2" height="2" rx="2" ry="2" fill="#f0f0f0" style="paint-order:stroke fill markers"/><rect x="15" y="30" width="34" height="3" rx="1.478" ry="1.5" fill="#fff" opacity=".35" style="paint-order:stroke fill markers"/></g><circle cx="47" cy="47" r="14" fill="#33a7ff"/><g fill="#fff"><path d="M47.039 40.624c-3.793 0-7.207 1.348-10.039 3.438L47.039 55 57 44.022c-2.82-2.067-6.197-3.399-9.961-3.399z" opacity=".5"/><path d="M47 43.5a13.52 13.52 0 0 0-8.078 2.663L47.042 55l8.036-8.837A13.52 13.52 0 0 0 47 43.5z" opacity=".5"/><path d="M47 46.374a10.14 10.14 0 0 0-6.058 1.998L47.032 55l6.027-6.627A10.139 10.139 0 0 0 47 46.375z"/><path d="M47.001 46.371c-2.266 0-4.37.744-6.06 2l.204.22a10.133 10.133 0 0 1 5.856-1.86 10.125 10.125 0 0 1 5.856 1.862l.201-.222a10.133 10.133 0 0 0-6.057-2z" opacity=".1"/></g></svg>