<svg width="64" height="64" version="1" xmlns="http://www.w3.org/2000/svg"><circle cx="32" cy="32" r="27" fill="#333" style="paint-order:stroke fill markers"/><rect transform="rotate(90)" x="10" y="-42" width="44" height="20" rx="2" ry="2" fill="#e4e4e4"/><g fill="#999" stroke-width=".667" transform="rotate(90)"><circle cx="48" cy="-35" r="2"/><circle cx="41" cy="-35" r="2"/><circle cx="48" cy="-29" r="2"/></g><circle transform="rotate(90)" cx="41" cy="-29" r="2" fill="#d35f5f"/><path d="M31 14c-.554 0-1 .446-1 1v3h-3c-.554 0-1 .446-1 1v2c0 .554.446 1 1 1h3v3c0 .554.446 1 1 1h2c.554 0 1-.446 1-1v-3h3c.554 0 1-.446 1-1v-2c0-.554-.446-1-1-1h-3v-3c0-.554-.446-1-1-1h-2z" fill="#666" style="paint-order:stroke fill markers"/></svg>