<svg width="16" height="16" version="1.1" xmlns="http://www.w3.org/2000/svg">
 <path d="m8-0.046875-0.29688 0.091797-6.7031 2.0859v7.2695c0 2.477 1.9475 4.0384 3.3926 4.9805 1.5153 0.9879 3.2891 1.5664 3.2891 1.5664l0.31836 0.10742 0.31836-0.10742s1.7738-0.57858 3.2891-1.5664h2e-3l2e-3 -2e-3c1.4464-0.95292 3.3886-2.5214 3.3886-4.9785v-7.2695zm0 2.0938 5 1.5566v5.7969c0 1.3493-1.2145 2.466-2.4863 3.3047-1.0692 0.69702-2.2117 1.0871-2.5137 1.1953-0.302-0.10819-1.4445-0.49826-2.5137-1.1953-1.275-0.83123-2.4863-1.9177-2.4863-3.3047v-5.7969z" fill="#555555"/>
 <path d="m7 5h2v3h2l-3 4-3-4h2z" fill="#555555"/>
</svg>
