<svg width="16.029" height="16.03" version="1.1" xmlns="http://www.w3.org/2000/svg">
 <path d="m5.006 2.03c0.554 0 1 0.446 1 1v3c0 0.554-0.446 1-1 1h-0.711a6.972 6.972 0 0 0 4.71 4.71v-0.71c0-0.554 0.447-1 1-1h3c0.555 0 1 0.446 1 1v1.5a2.5 2.5 0 0 1-2.5 2.5h-0.5c-5.504 0-10-4.495-10-10v-0.5a2.5 2.5 0 0 1 2.5-2.5z" color="#000000" fill="#555555" overflow="visible" style="font-feature-settings:normal;font-variant-alternates:normal;font-variant-caps:normal;font-variant-ligatures:normal;font-variant-numeric:normal;font-variant-position:normal;isolation:auto;mix-blend-mode:normal;shape-padding:0;text-decoration-color:#000000;text-decoration-line:none;text-decoration-style:solid;text-indent:0;text-orientation:mixed;text-transform:none"/>
 <path d="m12.995 8.034h1v-0.832a1 1 0 0 0-1-1.168h-1.586l4.293-4.293c0.982-0.942-0.472-2.396-1.414-1.414l-4.293 4.293v-1.586a1 1 0 0 0-1.158-1h-0.842v1l5e-3 4.996z" color="#000000" fill="#555555" overflow="visible" style="font-feature-settings:normal;font-variant-alternates:normal;font-variant-caps:normal;font-variant-ligatures:normal;font-variant-numeric:normal;font-variant-position:normal;isolation:auto;mix-blend-mode:normal;shape-padding:0;text-decoration-color:#000000;text-decoration-line:none;text-decoration-style:solid;text-indent:0;text-orientation:mixed;text-transform:none"/>
</svg>
