<svg width="16" height="16" version="1.1" xmlns="http://www.w3.org/2000/svg">
 <path d="m5 0-0.9082 0.9082 1.4141 1.4141 0.32227-0.32227h4.3438l2 2h1.8281v6.8125l2 2v-8.8125c0-1.108-0.892-2-2-2h-1l-2-2h-4-2zm-1.9688 1.9688-0.03125 0.03125h-1c-1.108 0-2 0.892-2 2v9c0 1.108 0.892 2 2 2h12c0.56995 0 1.0817-0.23714 1.4453-0.61719l-1.4453-1.4453v0.0625h-12v-9h1.8281l0.61719-0.61719-1.4141-1.4141zm5.1641 3.041 2.7949 2.7949c-0.09833-1.4899-1.3051-2.6966-2.7949-2.7949zm-1.7109 0.41211c-0.88361 0.52475-1.4844 1.4858-1.4844 2.5781 0 1.6445 1.5859 3 3 3 0.95006 0 1.9767-0.61341 2.5488-1.5137l-1.5547-1.5547c0.0014938 0.022961 0.0058594 0.044943 0.0058594 0.068359 0 0.5625-0.4375 1-1 1s-1-0.4375-1-1 0.4375-1 1-1c0.023416 0 0.045399 0.0043656 0.068359 0.0058594l-1.584-1.584z" fill="#555555"/>
 <path d="m1.531 0.469-1.061 1.061 14 14 1.062-1.062z" fill="#555555"/>
</svg>
