<svg width="16" height="16" version="1.1" xmlns="http://www.w3.org/2000/svg">
 <path d="m8 0-3 4h6l-3-4zm0 5-0.5 1.0293c0.17-0.01 0.33-0.029297 0.5-0.029297s0.33 0.019297 0.5 0.029297l-0.5-1.0293zm0 2c-3.31 0-6 2.68-6 6h2a4 4 0 0 1 4-4 4 4 0 0 1 4 4h2c0-3.32-2.69-6-6-6zm-5.6602 0.33984 0.38086 1.0898c0.22-0.25 0.46875-0.49875 0.71875-0.71875l-1.0996-0.37109zm11.32 0-1.0996 0.37109c0.25 0.22 0.49875 0.46875 0.71875 0.71875l0.38086-1.0898zm-12.631 5.1602-1.0293 0.5h1c0-0.17 0.019297-0.34 0.029297-0.5zm13.941 0c0.01 0.16 0.029297 0.33 0.029297 0.5h1l-1.0293-0.5zm-13.971 1.5c-0.554 0-1 0.446-1 1v1h1 14 1v-1c0-0.554-0.446-1-1-1h-14z" fill="#555555"/>
</svg>
