<svg width="15.974" height="16" version="1.1" xmlns="http://www.w3.org/2000/svg">
 <path d="m7.9863 0c-0.044152 0-0.081054 0.024432-0.125 0.025391-3.2178 0.070188-5.875 2.6728-5.875 5.9023 0 0.23901 0.020804 0.43772 0.035156 0.57812v0.00586l0.00195 0.00781c7.7e-6 2.179e-4 -1.5e-6 0.00389 0 0.00391 0.016243 0.17864 0.038421 0.35458 0.066406 0.52148 0.57673 3.4689 2.8646 5.7788 4.4961 7.3809l1.3984 1.377 1.4043-1.377c1.6316-1.6021 3.92-3.912 4.4961-7.3828l0.01367-0.082031v-0.025391c0.0198-0.12825 0.0396-0.26183 0.05273-0.41016l2e-3 -0.011719c3.02e-4 -0.00393 0.0017-0.028366 0-0.011719v-0.0019524c0.01492-0.14646 0.0332-0.34141 0.0332-0.57227-3.8e-5 -3.2736-2.723-5.9277-6-5.9277zm0 2c2.2025 0 4 1.7622 4 3.9277 0 0.13181-0.0087 0.24332-0.02148 0.36914-0.0038 0.037612-0.0052 0.05295-2e-3 0.021484l-2e-3 0.00977v0.00977c-0.01073 0.12647-0.02863 0.2524-0.04883 0.37305v0.00391l-2e-3 0.00195c-0.45916 2.7611-2.318 4.7064-3.9217 6.2812h-0.00195c-1.6042-1.5753-3.4652-3.5215-3.9238-6.2832v-0.00195c-0.020353-0.12139-0.037355-0.24976-0.048828-0.37891v-0.00782l-0.00195-0.00195v-0.00391c-3.8e-6 -1.09e-4 2.4e-6 -0.00189 0-0.00195v-0.00781l-0.00195-0.00781c-0.013722-0.13417-0.023444-0.24685-0.023444-0.375 0-2.1655 1.7975-3.9277 4-3.9277z" color="#000000" fill="#555555" style="-inkscape-stroke:none"/>
 <circle cx="8" cy="6" r="2" fill="#555555" opacity=".35" stroke-width="2" style="paint-order:fill markers stroke"/>
</svg>
