<svg width="16" height="16" version="1.1" xmlns="http://www.w3.org/2000/svg">
 <path d="m8 1c-1.662 0-3 1.338-3 3v2h-2v6h6.1719l-2-2h-2.1719v-2h3.9297l0.94922-0.94922 0.94922 0.94922h0.17188v0.17188l1 1 1-1v-2.1719h-2v-2c0-1.662-1.338-3-3-3zm0 2c0.554 0 1 0.446 1 1v1 1h-2v-1-1c0-0.554 0.446-1 1-1zm-6 10v2h4v1h2.9297l-1.8789-1.8789 1.1211-1.1211h-6.1719zm10 1.8281-0.17188 0.17188h0.34375l-0.17188-0.17188z" fill="#555555" fill-rule="evenodd" opacity=".35" stop-color="#000000" stroke-linecap="round" stroke-width="1.8516" style="paint-order:stroke fill markers"/>
 <path d="m14.121 8.4645-2.1213 2.1213-2.1213-2.1213-1.4142 1.4142 2.1213 2.1213-2.1213 2.1213 1.4142 1.4142 2.1213-2.1213 2.1213 2.1213 1.4142-1.4142-2.1213-2.1213 2.1213-2.1213z" color="#000000" fill="#555555" fill-rule="evenodd" stroke-linecap="round" stroke-width="2" style="-inkscape-stroke:none;paint-order:stroke fill markers"/>
</svg>
