<svg width="16" height="16" version="1.1" xmlns="http://www.w3.org/2000/svg">
 <g transform="translate(-265 615)" fill="#555555">
  <path d="m273-613.99c-2.8954 0-5.7909 1.1027-8 3.3106l8 9.6875 2-2.4219v-1.5781h1.3027l4.6973-5.6875c-2.2091-2.2078-5.1046-3.3106-8-3.3106z" opacity=".35"/>
  <path d="m276-604v1c0 0.27614 0.10029 0.53779 0.28125 0.71875l0.78125 0.78125-0.78125 0.78125c-0.18096 0.18096-0.28125 0.44261-0.28125 0.71875v1h1c0.27614 0 0.53779-0.10029 0.71875-0.28125l0.78125-0.78125 0.78125 0.78125c0.18096 0.18096 0.44261 0.28125 0.71875 0.28125h1v-1c0-0.27614-0.10029-0.53779-0.28125-0.71875l-0.78125-0.78125 0.78125-0.78125c0.18096-0.18096 0.28125-0.44261 0.28125-0.71875v-1h-1c-0.27614 0-0.53779 0.10029-0.71875 0.28125l-0.78125 0.78125-0.78125-0.78125c-0.18096-0.18096-0.44261-0.28125-0.71875-0.28125h-1z" enable-background="new"/>
 </g>
</svg>
