<svg width="16" height="16" version="1.1" xmlns="http://www.w3.org/2000/svg">
 <path d="m8 1c-2.2875 0.009378-4.5152 0.73169-6.373 2.0664-0.54386 0.38859-1.0512 0.82595-1.5156 1.3066l7.8887 9.627 0.66016-0.80469a4 4 0 0 1-0.66016-2.1953 4 4 0 0 1 4-4 4 4 0 0 1 1.498 0.29102l2.4062-2.9355c-0.46446-0.48069-0.97177-0.91805-1.5156-1.3066-1.8642-1.3316-4.0977-2.0478-6.3887-2.0488z" fill="#555555"/>
 <path class="success" d="m11.948 8.0006c-0.57758 0.011366-1.1571 0.19123-1.667 0.54792-1.3596 0.95112-1.6883 2.8137-0.73621 4.1721 0.95199 1.3584 2.8155 1.6867 4.1751 0.73554 0.97776-0.68398 1.4219-1.8368 1.241-2.9397-0.04216-0.2577-0.12236-0.49756-0.2264-0.7297l-2.7269 3.1131-0.29516 0.34851-0.33541-0.3217-1.288-1.2868c-0.1616-0.16142-0.16158-0.45514 0-0.61659 0.16158-0.16143 0.4556-0.16144 0.61716 0l0.96599 0.9651 2.586-2.9565c-0.4623-0.53244-1.0773-0.87087-1.7358-0.98689-0.18936-0.033371-0.38187-0.048195-0.5744-0.044403z" color="#000000" fill="#1ea362" stroke-width=".42913"/>
</svg>
