<svg width="16" height="16" version="1.1" xmlns="http://www.w3.org/2000/svg">
 <path d="m8-0.046875-0.29688 0.091797-6.7031 2.0859v7.2695c0 2.477 1.9475 4.0384 3.3926 4.9805 1.5153 0.9879 3.2891 1.5664 3.2891 1.5664l0.31836 0.10742 0.31836-0.10742s1.7738-0.57858 3.2891-1.5664h2e-3l2e-3 -2e-3c1.4464-0.95292 3.3886-2.5214 3.3886-4.9785v-7.2695zm0 2.0938 5 1.5566v5.7969c0 1.3493-1.2145 2.466-2.4863 3.3047-1.0692 0.69702-2.2117 1.0871-2.5137 1.1953-0.302-0.10819-1.4445-0.49826-2.5137-1.1953-1.275-0.83123-2.4863-1.9177-2.4863-3.3047v-5.7969z" fill="#e74c3c"/>
 <path d="m8 3.0938-4 1.2461v5.0605c0 0.40239 0.16683 0.78634 0.5293 1.2168 0.36247 0.43046 0.91202 0.86412 1.5039 1.25 0.80146 0.52249 1.5203 0.76874 1.9668 0.93164 0.44654-0.16292 1.1653-0.40916 1.9668-0.93164 0.58589-0.38682 1.1351-0.8297 1.5-1.2656 0.3659-0.43715 0.5332-0.82655 0.5332-1.2012v-5.0605z" color="#000000" fill="#e74c3c" opacity=".35" stroke-width="2"/>
 <path class="error" d="m5.75 3.9719 2.25 2.25 2.25-2.25 1.24 1.24-2.25 2.25 2.25 2.25-1.24 1.24-2.25-2.25-2.25 2.25-1.24-1.24 2.25-2.25-2.25-2.25z" fill="#e74c3c"/>
</svg>
