<svg width="16" height="16.015" version="1.1" xmlns="http://www.w3.org/2000/svg">
 <path d="m8.072 0a6.996 6.996 0 0 0-3.488 0.891 1 1 0 1 0 0.975 1.746 4.997 4.997 0 0 1 4.97 0.05 4.996 4.996 0 0 1 2.471 4.313v1a1 1 0 1 0 2 0v-1a1 1 0 0 0-0.01-0.136 7 7 0 0 0-3.45-5.904 6.993 6.993 0 0 0-3.468-0.96zm-5.217 2.82a1 1 0 0 0-0.722 0.375l1.465 1.463c0.053-0.1 0.098-0.203 0.158-0.3a1 1 0 0 0-0.8-1.538 1 1 0 0 0-0.1 0zm5.145 0.18c-1.633 0-3.03 1.002-3.645 2.416l1.645 1.645v-0.061c0-1.117 0.884-2 2-2s2 0.883 2 2v4.058l3.012 3.012a1 1 0 0 0-0.305-0.778c-0.382-0.382-0.55-0.736-0.633-0.984s-0.074-0.308-0.074-0.308v-5a1 1 0 0 0-0.022-0.218c-0.116-2.095-1.856-3.782-3.978-3.782zm-6.563 1.62a7.069 7.069 0 0 0-0.425 2.212 1 1 0 0 0-0.012 0.168v5.063a1 1 0 1 0 2 0v-5.063c0-0.254 0.024-0.506 0.062-0.755zm6.547 1.367a1 1 0 0 0-0.984 1.013v1.06l2 1.999v-3.059a1 1 0 0 0-1.016-1.013zm-3.984 1.195v0.818a1 1 0 0 0 1.617 0.8zm0.984 2.805a1 1 0 0 0-0.984 1.013v3a1 1 0 1 0 2 0v-3a1 1 0 0 0-1.016-1.013zm9.016 0.013a1 1 0 0 0-1 1 1 1 0 0 0 1 1 1 1 0 0 0 1-1 1 1 0 0 0-1-1zm-7 0.182v1.818s0 0.595 0.145 1.32c0.145 0.726 0.412 1.652 1.148 2.387a1 1 0 1 0 1.414-1.414c-0.264-0.264-0.497-0.839-0.602-1.363a5.008 5.008 0 0 1-0.095-0.738zm3.525 3.525c0.187 0.325 0.433 0.665 0.768 1a1 1 0 0 0 0.518 0.288z" color="#000000" fill="#555555" font-family="sans-serif" font-weight="400" overflow="visible" solid-color="#000000" style="font-feature-settings:normal;font-variant-alternates:normal;font-variant-caps:normal;font-variant-ligatures:normal;font-variant-numeric:normal;font-variant-position:normal;isolation:auto;mix-blend-mode:normal;shape-padding:0;text-decoration-color:#000000;text-decoration-line:none;text-decoration-style:solid;text-indent:0;text-orientation:mixed;text-transform:none;white-space:normal"/>
 <path d="m1.531 0.47-1.061 1.06 14 14 1.062-1.062z" fill="#555555"/>
 <path d="m1.53 0.47-1.06 1.06 14 14 1.063-1.06z" fill="#555555"/>
</svg>
