<svg width="16" height="16" version="1.1" xmlns="http://www.w3.org/2000/svg">
 <path d="M3 6c-1.11 0-2 .89-2 2a2 2 0 1 0 4 0c0-1.11-.89-2-2-2zm5 0c-1.11 0-2 .89-2 2a2 2 0 1 0 4 0c0-1.11-.89-2-2-2zm5 0c-1.11 0-2 .89-2 2a2 2 0 1 0 4 0c0-1.11-.89-2-2-2z" fill="#555555"/>
 <path d="m8 2c-1.66 0-3 1.34-3 3 0 0.54761 0.1503 1.0608 0.4082 1.5039a3 3 0 0 1 1.6074-1.3301c-0.0099813-0.056691-0.015625-0.11428-0.015625-0.17383 0-0.55228 0.44772-1 1-1s1 0.44772 1 1c0 0.05756-0.0062871 0.11307-0.015625 0.16797a3 3 0 0 1 1.6113 1.3301c0.25571-0.44175 0.4043-0.95296 0.4043-1.498 0-1.66-1.34-3-3-3zm2.6406 7.4082a3 3 0 0 1-2.6406 1.5918 4 2 0 0 1 4 2h-8a4 2 0 0 1 4-2 3 3 0 0 1-2.6367-1.5859 6 4 0 0 0-3.3633 3.5859v2h12v-2a6 4 0 0 0-3.3594-3.5918z" fill="#555555" opacity=".35"/>
</svg>
