<svg width="16" height="16" version="1.1" xmlns="http://www.w3.org/2000/svg">
 <path d="m11 8c-1.3558 0-2.402 0.90846-2.9453 2.0625-1.1641 0.44786-2.0547 1.4689-2.0547 2.7949 0 1.6879 1.3164 3.1426 3 3.1426h4c1.6836 0 3-1.4547 3-3.1426 0-1.327-0.89114-2.3497-2.0566-2.7969-0.54092-1.1573-1.5903-2.0605-2.9434-2.0605zm0 2c0.57908 0 1.0932 0.41268 1.2949 1.0449l0.19141 0.59961 0.62305 0.08594c0.46769 0.06518 0.89062 0.50872 0.89062 1.127 0 0.67906-0.47447 1.1426-1 1.1426h-4c-0.52553 0-1-0.46352-1-1.1426 0-0.61823 0.42294-1.0618 0.89062-1.127l0.61719-0.08594 0.19531-0.59375c0.21022-0.64275 0.7178-1.0508 1.2969-1.0508z" color="#000000" fill="#555555" stroke-width="2" style="-inkscape-stroke:none"/>
 <path d="m7 0-0.5 1.0293c0.16-0.01 0.33-0.029297 0.5-0.029297h0.5l-0.5-1zm0 2c-2.76 0-5 2.24-5 5 0 2.1239 1.3456 3.9075 3.2207 4.6309 0.25082-0.67362 0.70042-1.2399 1.252-1.6836a3 3 0 0 1-2.4727-2.9473 3 3 0 0 1 3-3 3 3 0 0 1 3 3 3 3 0 0 1-0.0097656 0.14258c0.31711-0.090117 0.65299-0.14258 1.0098-0.14258 0.35129 0 0.68276 0.051134 0.99609 0.13867 0.001151-0.046217 0.003906-0.091897 0.003906-0.13867 0-2.76-2.24-5-5-5zm-4.9395 0.060547 0.34961 1.0703c0.22-0.26 0.4607-0.5007 0.7207-0.7207l-1.0703-0.34961zm9.8789 0-1.0996 0.37891h-0.060547c0.14 0.11 0.28016 0.21984 0.41016 0.33984s0.26109 0.24086 0.37109 0.38086l0.37891-1.0996zm-10.939 4.4395-1 0.5 1.0293 0.5c-0.01-0.17-0.029297-0.33-0.029297-0.5v-0.16016l0.029297-0.33984h-0.029297zm11.971 0c0.01 0.17 0.029297 0.33 0.029297 0.5v0.16016l-0.029297 0.33984h0.029297l1-0.5-1.0293-0.5zm-10.531 4.3398-0.37891 1.0996 1.0996-0.37891h0.060547c-0.14-0.11-0.28016-0.21984-0.41016-0.33984s-0.26109-0.24086-0.37109-0.38086z" fill="#555555"/>
</svg>
