<svg width="16" height="16" version="1.1" xmlns="http://www.w3.org/2000/svg">
 <path d="m8.5547 0c-2.0961 0.0034-3.8046 1.2776-4.7988 3l-0.066406 0.078125-0.1543 0.044922c-2.0147 0.41479-3.5352 2.1952-3.5352 4.3535 0 1.8122 1.0545 3.4149 2.584 4.1289 0.13602-0.20441 0.29009-0.39361 0.45898-0.5625l1.0586-1.0586c-1.1696-0.13524-2.1016-1.1852-2.1016-2.5078 0-1.3542 0.99177-2.4161 2.1973-2.5039l0.71094-0.050781 0.30078-0.65234v-0.00195c0.6204-1.3579 1.877-2.2662 3.3516-2.2676h0.00391c1.998 0.0014 3.6325 1.6653 3.7285 3.8125v0.015625l0.05664 0.75195 0.67774 0.28906c0.5896 0.25166 0.97265 0.83437 0.97265 1.4941 0 0.52386-0.22266 0.97716-0.56445 1.2734 0.34549 0.53075 0.56445 1.1671 0.56445 1.8633 0 0.04631-0.0021 0.09278-0.0039 0.13867 1.1902-0.59398 2.0039-1.8565 2.0039-3.2754 0-1.2388-0.71478-2.2929-1.7344-2.9531l-0.0625-0.050781-0.04297-0.18164c-0.3954-2.8718-2.6837-5.1757-5.5996-5.1777z" fill="#555555" style="-inkscape-stroke:none;paint-order:markers fill stroke"/>
 <path d="m10.5 8-1.75 1.75c-0.45 0.45-0.75 1.06-0.75 1.75 0 1.37 1.13 2.5 2.5 2.5s2.5-1.13 2.5-2.5c0-0.69-0.3-1.3-0.75-1.75zm-5 2-1.75 1.75c-0.45 0.45-0.75 1.06-0.75 1.75 0 1.37 1.13 2.5 2.5 2.5s2.5-1.13 2.5-2.5c0-0.69-0.3-1.3-0.75-1.75z" color="#000000" fill="#5294e2" stroke-width="2" style="-inkscape-stroke:none"/>
</svg>
