<svg width="16" height="16" version="1.1" xmlns="http://www.w3.org/2000/svg">
 <path class="warning" d="M7 6v4l.25 2h1.5L9 10V6zm0 7v2h2v-2z" fill="#e74c3c"/>
 <path d="m8.5996 0c-2.0961 0.0034-3.8046 1.2776-4.7988 3l-0.066406 0.078125-0.1543 0.044922c-2.0147 0.41479-3.5352 2.1952-3.5352 4.3535 0 2.4525 1.9306 4.5234 4.3574 4.5234h1.5977v-2h-1.5977c-1.2868 0-2.3555-1.1055-2.3555-2.5234 0-1.3542 0.99177-2.4161 2.1973-2.5039l0.70898-0.050781 0.30273-0.65234v-0.00195c0.6204-1.3579 1.875-2.2662 3.3496-2.2676h0.00391c1.998 0.0014 3.6325 1.6653 3.7285 3.8125v0.015625l0.05664 0.75195 0.67774 0.28906c0.5896 0.25166 0.97461 0.83437 0.97461 1.4941 0 0.9265-0.69663 1.6367-1.5195 1.6367h-2.5273v2h2.5273c1.9632 0 3.5176-1.6723 3.5176-3.6367 0-1.2388-0.71478-2.2929-1.7344-2.9531l-0.06055-0.050781-0.04297-0.18164c-0.3954-2.8718-2.6837-5.1757-5.5996-5.1777h-0.00781z" fill="#555555" style="-inkscape-stroke:none;paint-order:markers fill stroke"/>
</svg>
