<svg width="16" height="16" version="1.1" xmlns="http://www.w3.org/2000/svg">
 <path d="m7.834 1.334c-3.776 0-6.834 3.0753-6.834 6.834-2.2e-7 3.2236 2.257 5.9371 5.2695 6.6484-0.69096-0.7021-1.1351-1.6529-1.2031-2.6816-1.2507-0.87079-2.0664-2.3178-2.0664-3.9668 0-1.5966 0.80694-2.9362 1.9863-3.8145-0.35599 0.80844-0.65448 1.6545-0.65234 2.5645 0 1.2832 0.3878 2.4713 1.0449 3.4688 0.29919-0.6501 0.78401-1.1924 1.3633-1.6055-0.26134-0.56531-0.4082-1.1961-0.4082-1.8633v-0.0039c-0.00402-1.5141 0.76384-2.9219 2.0391-3.7383 0.83994-0.53901 0.45895-1.8407-0.53906-1.8418z" fill="#555555" style="-inkscape-stroke:none"/>
 <path d="m11.057 7c-1.3558 0-2.402 0.90846-2.9453 2.0625-1.1641 0.44786-2.0547 1.4689-2.0547 2.7949 0 1.6879 1.3164 3.1426 3 3.1426h4c1.6836 0 3-1.4547 3-3.1426 0-1.327-0.89114-2.3497-2.0566-2.7969-0.54092-1.1573-1.5903-2.0605-2.9434-2.0605zm0 2c0.57908 0 1.0932 0.41268 1.2949 1.0449l0.19141 0.59961 0.62305 0.08594c0.46769 0.06518 0.89062 0.50872 0.89062 1.127 0 0.67906-0.47447 1.1426-1 1.1426h-4c-0.52553 0-1-0.46352-1-1.1426 0-0.61823 0.42294-1.0618 0.89062-1.127l0.61719-0.08594 0.19531-0.59375c0.21022-0.64275 0.7178-1.0508 1.2969-1.0508z" color="#000000" fill="#555555" stroke-width="2" style="-inkscape-stroke:none"/>
</svg>
