<svg width="16" height="16" version="1.1" xmlns="http://www.w3.org/2000/svg">
 <path d="m13.41 3.002a2.492 2.492 0 0 0-1.816 0.89 0.5 0.5 0 1 0 0.765 0.643 1.495 1.495 0 0 1 1.822-0.375c0.624 0.313 0.946 1.007 0.785 1.686a1.495 1.495 0 0 1-1.459 1.154h-7a0.5 0.5 0 1 0 0 1h7a0.5 0.5 0 0 0 0.1-8e-3 2.502 2.502 0 0 0 2.334-1.916 2.504 2.504 0 0 0-1.31-2.81 2.496 2.496 0 0 0-1.221-0.264zm-4.706 0.01a1.498 1.498 0 0 0-1.338 0.523 0.50005 0.50005 0 1 0 0.766 0.643c0.15-0.18 0.398-0.23 0.608-0.125s0.315 0.334 0.261 0.562a0.495 0.495 0 0 1-0.486 0.385 0.5 0.5 0 0 0-8e-3 0h-7a0.5 0.5 0 1 0 0 1h7a0.5 0.5 0 0 0 8e-3 0h2e-3a0.5 0.5 0 0 0 0.162-0.027 1.492 1.492 0 0 0 1.295-1.127 1.503 1.503 0 0 0-1.27-1.834zm-8.197 3.988a0.5 0.5 0 1 0 0 1h4a0.5 0.5 0 1 0 0-1zm0.951 2.002a0.50062 0.50062 0 0 0 0.05 1h11a0.5 0.5 0 0 0 7e-3 0c0.235 0 0.432 0.155 0.487 0.383a0.496 0.496 0 0 1-0.262 0.562 0.495 0.495 0 0 1-0.608-0.125 0.5 0.5 0 1 0-0.765 0.643 1.499 1.499 0 0 0 1.822 0.377c0.619-0.311 0.945-1.014 0.785-1.688a1.489 1.489 0 0 0-1.293-1.123 0.5 0.5 0 0 0-0.174-0.03h-11a0.5 0.5 0 0 0-0.049 0zm2.05 1.998a0.5 0.5 0 1 0 0 1l5 2e-3a0.5 0.5 0 0 0 7e-3 0c0.235 0 0.432 0.155 0.487 0.383a0.496 0.496 0 0 1-0.262 0.562 0.495 0.495 0 0 1-0.608-0.125 0.5 0.5 0 1 0-0.765 0.643 1.499 1.499 0 0 0 1.822 0.377c0.619-0.31 0.945-1.014 0.785-1.688a1.489 1.489 0 0 0-1.293-1.123 0.5 0.5 0 0 0-0.174-0.029z" fill="#555555"/>
</svg>
