<?xml version="1.0" encoding="UTF-8" standalone="no"?>
<svg
   width="199.99547"
   height="52.983551"
   viewBox="0 0 6884.9998 1824"
   fill="none"
   version="1.1"
   id="svg8"
   sodipodi:docname="illogical-impulse.svg"
   inkscape:version="1.4.2 (ebf0e940d0, 2025-05-08)"
   xmlns:inkscape="http://www.inkscape.org/namespaces/inkscape"
   xmlns:sodipodi="http://sodipodi.sourceforge.net/DTD/sodipodi-0.dtd"
   xmlns="http://www.w3.org/2000/svg"
   xmlns:svg="http://www.w3.org/2000/svg">
  <sodipodi:namedview
     id="namedview8"
     pagecolor="#ffffff"
     bordercolor="#000000"
     borderopacity="0.25"
     inkscape:showpageshadow="2"
     inkscape:pageopacity="0.0"
     inkscape:pagecheckerboard="0"
     inkscape:deskcolor="#d1d1d1"
     inkscape:zoom="1.1189787"
     inkscape:cx="183.20277"
     inkscape:cy="97.410255"
     inkscape:window-width="1432"
     inkscape:window-height="1028"
     inkscape:window-x="0"
     inkscape:window-y="0"
     inkscape:window-maximized="1"
     inkscape:current-layer="svg8" />
  <rect
     width="6885"
     height="1824"
     rx="760"
     fill="#1b1f1e"
     id="rect1"
     x="0"
     y="0" />
  <path
     d="m 2013.62,1110 c -3.96,0 -7.33,-1.19 -10.1,-3.56 -2.38,-2.78 -3.56,-6.14 -3.56,-10.1 V 814.782 c 0,-3.96 1.18,-7.128 3.56,-9.504 2.77,-2.772 6.14,-4.158 10.1,-4.158 h 28.51 c 3.96,0 7.13,1.386 9.5,4.158 2.38,2.376 3.57,5.544 3.57,9.504 v 281.558 c 0,3.96 -1.19,7.32 -3.57,10.1 -2.37,2.37 -5.54,3.56 -9.5,3.56 z m -4.75,-366.498 c -3.96,0 -7.33,-1.188 -10.1,-3.564 -2.38,-2.772 -3.57,-6.138 -3.57,-10.098 v -32.076 c 0,-3.96 1.19,-7.128 3.57,-9.504 2.77,-2.772 6.14,-4.158 10.1,-4.158 h 37.42 c 3.96,0 7.13,1.386 9.5,4.158 2.77,2.376 4.16,5.544 4.16,9.504 v 32.076 c 0,3.96 -1.39,7.326 -4.16,10.098 -2.37,2.376 -5.54,3.564 -9.5,3.564 z M 2158.07,1110 c -3.96,0 -7.32,-1.19 -10.1,-3.56 -2.37,-2.78 -3.56,-6.14 -3.56,-10.1 V 701.922 c 0,-3.96 1.19,-7.128 3.56,-9.504 2.78,-2.772 6.14,-4.158 10.1,-4.158 h 27.92 c 4.36,0 7.72,1.386 10.1,4.158 2.37,2.376 3.56,5.544 3.56,9.504 v 394.418 c 0,3.96 -1.19,7.32 -3.56,10.1 -2.38,2.37 -5.74,3.56 -10.1,3.56 z m 144.44,0 c -3.96,0 -7.33,-1.19 -10.1,-3.56 -2.37,-2.78 -3.56,-6.14 -3.56,-10.1 V 701.922 c 0,-3.96 1.19,-7.128 3.56,-9.504 2.77,-2.772 6.14,-4.158 10.1,-4.158 h 27.92 c 4.35,0 7.72,1.386 10.1,4.158 2.37,2.376 3.56,5.544 3.56,9.504 v 394.418 c 0,3.96 -1.19,7.32 -3.56,10.1 -2.38,2.37 -5.75,3.56 -10.1,3.56 z m 256.71,5.94 c -30.1,0 -55.25,-5.74 -75.44,-17.23 -20.2,-11.48 -35.64,-27.32 -46.33,-47.52 -10.7,-20.59 -16.64,-43.95 -17.82,-70.088 -0.4,-6.732 -0.6,-15.246 -0.6,-25.542 0,-10.692 0.2,-19.206 0.6,-25.542 1.18,-26.532 7.12,-49.896 17.82,-70.092 11.08,-20.196 26.73,-36.036 46.92,-47.52 20.2,-11.484 45.15,-17.226 74.85,-17.226 29.7,0 54.64,5.742 74.84,17.226 20.2,11.484 35.64,27.324 46.33,47.52 11.09,20.196 17.23,43.56 18.42,70.092 0.39,6.336 0.59,14.85 0.59,25.542 0,10.296 -0.2,18.81 -0.59,25.542 -1.19,26.138 -7.13,49.498 -17.82,70.088 -10.7,20.2 -26.14,36.04 -46.34,47.52 -20.19,11.49 -45.34,17.23 -75.43,17.23 z m 0,-45.74 c 24.55,0 44.15,-7.72 58.8,-23.16 14.65,-15.84 22.57,-38.81 23.76,-68.908 0.4,-5.94 0.6,-13.464 0.6,-22.572 0,-9.108 -0.2,-16.632 -0.6,-22.572 -1.19,-30.096 -9.11,-52.866 -23.76,-68.31 -14.65,-15.84 -34.25,-23.76 -58.8,-23.76 -24.56,0 -44.36,7.92 -59.4,23.76 -14.66,15.444 -22.38,38.214 -23.17,68.31 -0.4,5.94 -0.59,13.464 -0.59,22.572 0,9.108 0.19,16.632 0.59,22.572 0.79,30.098 8.51,53.068 23.17,68.908 15.04,15.44 34.84,23.16 59.4,23.16 z m 341.08,170.48 c -26.93,0 -49.1,-3.56 -66.53,-10.69 -17.02,-7.13 -30.49,-15.84 -40.39,-26.14 -9.5,-9.9 -16.43,-20 -20.79,-30.29 -3.96,-9.9 -6.14,-17.82 -6.53,-23.76 -0.4,-3.96 0.79,-7.33 3.56,-10.1 3.17,-2.77 6.54,-4.16 10.1,-4.16 h 28.51 c 3.57,0 6.54,0.79 8.91,2.38 2.38,1.58 4.36,4.95 5.94,10.1 2.38,5.94 5.94,12.47 10.69,19.6 4.76,7.52 12.08,13.86 21.98,19.01 9.9,5.54 23.76,8.31 41.58,8.31 18.61,0 34.26,-2.57 46.93,-7.72 12.67,-4.75 22.17,-13.46 28.51,-26.14 6.73,-12.27 10.1,-29.3 10.1,-51.08 v -40.39 c -9.51,12.27 -21.98,22.57 -37.42,30.89 -15.45,7.92 -34.85,11.88 -58.22,11.88 -22.17,0 -41.18,-3.77 -57.02,-11.29 -15.84,-7.92 -28.91,-18.41 -39.2,-31.48 -9.9,-13.47 -17.43,-28.71 -22.58,-45.74 -4.75,-17.03 -7.52,-34.848 -8.31,-53.46 -0.4,-11.088 -0.4,-21.978 0,-32.67 0.79,-18.612 3.56,-36.432 8.31,-53.46 5.15,-17.028 12.68,-32.274 22.58,-45.738 10.29,-13.464 23.36,-23.958 39.2,-31.482 15.84,-7.92 34.85,-11.88 57.02,-11.88 23.76,0 43.37,4.554 58.81,13.662 15.84,8.712 28.71,19.404 38.61,32.076 v -25.542 c 0,-3.96 1.19,-7.326 3.56,-10.098 2.78,-2.772 6.14,-4.158 10.1,-4.158 h 27.33 c 3.96,0 7.32,1.386 10.09,4.158 2.78,2.772 4.16,6.138 4.16,10.098 v 288.094 c 0,26.53 -4.55,50.09 -13.66,70.68 -8.71,20.59 -23.36,36.83 -43.96,48.71 -20.19,11.88 -47.52,17.82 -81.97,17.82 z m -1.19,-175.82 c 19.8,0 35.64,-4.56 47.52,-13.67 12.28,-9.1 21.19,-20.59 26.73,-34.45 5.94,-13.86 9.11,-27.916 9.51,-42.172 0.39,-5.544 0.59,-12.276 0.59,-20.196 0,-8.316 -0.2,-15.246 -0.59,-20.79 -0.4,-14.256 -3.57,-28.314 -9.51,-42.174 -5.54,-13.86 -14.45,-25.344 -26.73,-34.452 -11.88,-9.108 -27.72,-13.662 -47.52,-13.662 -19.8,0 -35.64,4.554 -47.52,13.662 -11.88,8.712 -20.39,20.394 -25.54,35.046 -5.15,14.256 -8.12,29.7 -8.91,46.332 -0.39,10.296 -0.39,20.79 0,31.482 0.79,16.632 3.76,32.274 8.91,46.924 5.15,14.26 13.66,25.94 25.54,35.05 11.88,8.71 27.72,13.07 47.52,13.07 z m 242.76,45.14 c -3.96,0 -7.33,-1.19 -10.1,-3.56 -2.37,-2.78 -3.56,-6.14 -3.56,-10.1 V 814.782 c 0,-3.96 1.19,-7.128 3.56,-9.504 2.77,-2.772 6.14,-4.158 10.1,-4.158 h 28.51 c 3.96,0 7.13,1.386 9.51,4.158 2.37,2.376 3.56,5.544 3.56,9.504 v 281.558 c 0,3.96 -1.19,7.32 -3.56,10.1 -2.38,2.37 -5.55,3.56 -9.51,3.56 z m -4.75,-366.498 c -3.96,0 -7.33,-1.188 -10.1,-3.564 -2.38,-2.772 -3.56,-6.138 -3.56,-10.098 v -32.076 c 0,-3.96 1.18,-7.128 3.56,-9.504 2.77,-2.772 6.14,-4.158 10.1,-4.158 h 37.42 c 3.96,0 7.13,1.386 9.5,4.158 2.78,2.376 4.16,5.544 4.16,9.504 v 32.076 c 0,3.96 -1.38,7.326 -4.16,10.098 -2.37,2.376 -5.54,3.564 -9.5,3.564 z m 259.69,372.438 c -28.12,0 -52.47,-5.35 -73.06,-16.04 -20.2,-11.09 -35.84,-26.73 -46.93,-46.92 -11.09,-20.6 -17.03,-45.15 -17.82,-73.66 -0.4,-5.94 -0.59,-13.86 -0.59,-23.76 0,-9.9 0.19,-17.82 0.59,-23.76 0.79,-28.512 6.73,-52.866 17.82,-73.062 11.09,-20.592 26.73,-36.234 46.93,-46.926 20.59,-11.088 44.94,-16.632 73.06,-16.632 22.97,0 42.57,3.168 58.8,9.504 16.64,6.336 30.3,14.454 40.99,24.354 10.69,9.9 18.61,20.592 23.76,32.076 5.54,11.484 8.51,22.374 8.91,32.67 0.4,3.96 -0.79,7.128 -3.56,9.504 -2.78,2.376 -6.14,3.564 -10.1,3.564 h -28.51 c -3.96,0 -6.93,-0.792 -8.91,-2.376 -1.98,-1.98 -3.96,-5.148 -5.94,-9.504 -7.13,-19.404 -16.83,-33.066 -29.11,-40.986 -12.28,-7.92 -27.52,-11.88 -45.74,-11.88 -23.76,0 -43.16,7.326 -58.21,21.978 -14.65,14.652 -22.57,38.214 -23.76,70.686 -0.4,14.256 -0.4,28.116 0,41.58 1.19,32.87 9.11,56.63 23.76,71.28 15.05,14.26 34.45,21.38 58.21,21.38 18.22,0 33.46,-3.96 45.74,-11.88 12.28,-7.92 21.98,-21.58 29.11,-40.98 1.98,-4.36 3.96,-7.33 5.94,-8.91 1.98,-1.98 4.95,-2.97 8.91,-2.97 h 28.51 c 3.96,0 7.32,1.19 10.1,3.56 2.77,2.38 3.96,5.55 3.56,9.51 -0.4,8.31 -2.18,16.83 -5.35,25.54 -3.16,8.71 -8.31,17.62 -15.44,26.73 -6.73,8.71 -15.25,16.63 -25.54,23.76 -10.3,6.73 -22.77,12.27 -37.42,16.63 -14.26,3.96 -30.5,5.94 -48.71,5.94 z m 289.13,0 c -19.8,0 -37.82,-3.96 -54.05,-11.88 -16.24,-7.92 -29.31,-18.61 -39.21,-32.08 -9.9,-13.46 -14.85,-28.71 -14.85,-45.73 0,-27.328 11.09,-49.108 33.27,-65.344 22.17,-16.236 51.08,-26.928 86.72,-32.076 l 88.51,-12.474 V 899.13 c 0,-19.008 -5.55,-33.858 -16.63,-44.55 -10.7,-10.692 -28.32,-16.038 -52.87,-16.038 -17.82,0 -32.27,3.564 -43.36,10.692 -10.69,7.128 -18.22,16.236 -22.57,27.324 -2.38,5.94 -6.54,8.91 -12.48,8.91 h -26.73 c -4.35,0 -7.72,-1.188 -10.1,-3.564 -1.98,-2.772 -2.97,-5.94 -2.97,-9.504 0,-5.94 2.18,-13.266 6.54,-21.978 4.75,-8.712 11.88,-17.226 21.38,-25.542 9.51,-8.316 21.58,-15.246 36.24,-20.79 15.04,-5.94 33.26,-8.91 54.64,-8.91 23.76,0 43.76,3.168 60,9.504 16.23,5.94 28.91,14.058 38.01,24.354 9.51,10.296 16.24,21.978 20.2,35.046 4.36,13.068 6.53,26.334 6.53,39.798 v 192.458 c 0,3.96 -1.38,7.32 -4.15,10.1 -2.38,2.37 -5.55,3.56 -9.51,3.56 h -27.32 c -4.36,0 -7.72,-1.19 -10.1,-3.56 -2.38,-2.78 -3.56,-6.14 -3.56,-10.1 v -25.54 c -5.15,7.12 -12.08,14.25 -20.79,21.38 -8.72,6.73 -19.61,12.47 -32.67,17.23 -13.07,4.35 -29.11,6.53 -48.12,6.53 z m 12.48,-44.55 c 16.23,0 31.08,-3.37 44.55,-10.1 13.46,-7.13 23.95,-18.02 31.48,-32.67 7.92,-14.65 11.88,-33.064 11.88,-55.24 v -16.632 l -68.91,10.098 c -28.11,3.96 -49.3,10.692 -63.55,20.196 -14.26,9.108 -21.39,20.788 -21.39,35.048 0,11.09 3.17,20.39 9.51,27.92 6.73,7.12 15.04,12.47 24.94,16.03 10.3,3.57 20.79,5.35 31.49,5.35 z m 243.39,38.61 c -3.96,0 -7.32,-1.19 -10.1,-3.56 -2.37,-2.78 -3.56,-6.14 -3.56,-10.1 V 701.922 c 0,-3.96 1.19,-7.128 3.56,-9.504 2.78,-2.772 6.14,-4.158 10.1,-4.158 h 27.92 c 4.36,0 7.72,1.386 10.1,4.158 2.37,2.376 3.56,5.544 3.56,9.504 v 394.418 c 0,3.96 -1.19,7.32 -3.56,10.1 -2.38,2.37 -5.74,3.56 -10.1,3.56 z m 140.88,-153.252 c -3.96,0 -7.33,-1.188 -10.1,-3.564 -2.38,-2.772 -3.56,-6.138 -3.56,-10.098 v -22.572 c 0,-3.96 1.18,-7.128 3.56,-9.504 2.77,-2.772 6.14,-4.158 10.1,-4.158 h 178.2 c 3.96,0 7.13,1.386 9.5,4.158 2.77,2.376 4.16,5.544 4.16,9.504 v 22.572 c 0,3.96 -1.39,7.326 -4.16,10.098 -2.37,2.376 -5.54,3.564 -9.5,3.564 z M 4373.38,1110 c -3.96,0 -7.33,-1.19 -10.1,-3.56 -2.38,-2.78 -3.57,-6.14 -3.57,-10.1 V 814.782 c 0,-3.96 1.19,-7.128 3.57,-9.504 2.77,-2.772 6.14,-4.158 10.1,-4.158 h 28.51 c 3.96,0 7.13,1.386 9.5,4.158 2.38,2.376 3.57,5.544 3.57,9.504 v 281.558 c 0,3.96 -1.19,7.32 -3.57,10.1 -2.37,2.37 -5.54,3.56 -9.5,3.56 z m -4.76,-366.498 c -3.96,0 -7.32,-1.188 -10.09,-3.564 -2.38,-2.772 -3.57,-6.138 -3.57,-10.098 v -32.076 c 0,-3.96 1.19,-7.128 3.57,-9.504 2.77,-2.772 6.13,-4.158 10.09,-4.158 h 37.43 c 3.96,0 7.12,1.386 9.5,4.158 2.77,2.376 4.16,5.544 4.16,9.504 v 32.076 c 0,3.96 -1.39,7.326 -4.16,10.098 -2.38,2.376 -5.54,3.564 -9.5,3.564 z M 4517.24,1110 c -3.96,0 -7.33,-1.19 -10.1,-3.56 -2.38,-2.78 -3.57,-6.14 -3.57,-10.1 V 814.782 c 0,-3.96 1.19,-7.128 3.57,-9.504 2.77,-2.772 6.14,-4.158 10.1,-4.158 h 26.73 c 3.96,0 7.12,1.386 9.5,4.158 2.77,2.376 4.16,5.544 4.16,9.504 v 20.79 c 9.11,-12.276 20.59,-21.978 34.45,-29.106 13.86,-7.524 30.49,-11.286 49.9,-11.286 44.74,-0.396 76.42,17.82 95.04,54.648 9.1,-16.632 22.37,-29.898 39.79,-39.798 17.43,-9.9 37.23,-14.85 59.4,-14.85 20.6,0 39.21,4.752 55.84,14.256 17.03,9.504 30.29,23.958 39.8,43.362 9.9,19.008 14.85,42.966 14.85,71.874 v 171.668 c 0,3.96 -1.39,7.32 -4.16,10.1 -2.38,2.37 -5.54,3.56 -9.5,3.56 h -27.92 c -3.96,0 -7.33,-1.19 -10.1,-3.56 -2.38,-2.78 -3.56,-6.14 -3.56,-10.1 V 930.018 c 0,-22.176 -3.17,-39.6 -9.51,-52.272 -6.33,-12.672 -14.85,-21.582 -25.54,-26.73 -10.69,-5.148 -22.37,-7.722 -35.05,-7.722 -10.29,0 -20.79,2.574 -31.48,7.722 -10.69,5.148 -19.6,14.058 -26.73,26.73 -6.73,12.672 -10.1,30.096 -10.1,52.272 v 166.322 c 0,3.96 -1.38,7.32 -4.15,10.1 -2.38,2.37 -5.55,3.56 -9.51,3.56 h -27.92 c -3.96,0 -7.32,-1.19 -10.09,-3.56 -2.38,-2.78 -3.57,-6.14 -3.57,-10.1 V 930.018 c 0,-22.176 -3.36,-39.6 -10.1,-52.272 -6.73,-12.672 -15.44,-21.582 -26.13,-26.73 -10.69,-5.148 -21.98,-7.722 -33.86,-7.722 -10.3,0 -20.79,2.574 -31.48,7.722 -10.69,5.148 -19.6,14.058 -26.73,26.73 -6.73,12.672 -10.1,29.898 -10.1,51.678 v 166.916 c 0,3.96 -1.39,7.32 -4.16,10.1 -2.37,2.37 -5.54,3.56 -9.5,3.56 z m 528.46,112.86 c -3.96,0 -7.33,-1.39 -10.1,-4.16 -2.37,-2.37 -3.56,-5.54 -3.56,-9.5 V 814.782 c 0,-3.96 1.19,-7.128 3.56,-9.504 2.77,-2.772 6.14,-4.158 10.1,-4.158 h 27.32 c 3.96,0 7.13,1.386 9.51,4.158 2.77,2.376 4.16,5.544 4.16,9.504 v 26.136 c 9.5,-13.068 22.17,-23.958 38.01,-32.67 15.84,-8.712 35.64,-13.068 59.4,-13.068 22.18,0 40.99,3.762 56.43,11.286 15.84,7.524 28.71,17.82 38.61,30.888 10.3,13.068 18.02,27.918 23.17,44.55 5.15,16.632 7.92,34.452 8.31,53.46 0.4,6.336 0.6,13.068 0.6,20.196 0,7.128 -0.2,13.86 -0.6,20.196 -0.39,18.612 -3.16,36.434 -8.31,53.464 -5.15,16.63 -12.87,31.48 -23.17,44.55 -9.9,12.67 -22.77,22.96 -38.61,30.88 -15.44,7.53 -34.25,11.29 -56.43,11.29 -22.97,0 -42.37,-4.16 -58.21,-12.47 -15.44,-8.72 -28.12,-19.41 -38.02,-32.08 v 137.81 c 0,3.96 -1.18,7.13 -3.56,9.5 -2.38,2.77 -5.74,4.16 -10.1,4.16 z m 125.93,-155.03 c 20.59,0 36.63,-4.36 48.11,-13.07 11.88,-9.11 20.4,-20.79 25.54,-35.05 5.15,-14.65 8.12,-30.292 8.91,-46.924 0.4,-11.484 0.4,-22.968 0,-34.452 -0.79,-16.632 -3.76,-32.076 -8.91,-46.332 -5.14,-14.652 -13.66,-26.334 -25.54,-35.046 -11.48,-9.108 -27.52,-13.662 -48.11,-13.662 -19.41,0 -35.25,4.554 -47.52,13.662 -11.88,9.108 -20.79,20.79 -26.73,35.046 -5.55,13.86 -8.71,28.116 -9.51,42.768 -0.39,6.336 -0.59,13.86 -0.59,22.572 0,8.712 0.2,16.434 0.59,23.166 0.4,13.86 3.57,27.522 9.51,40.982 6.33,13.47 15.64,24.56 27.92,33.27 12.27,8.71 27.72,13.07 46.33,13.07 z m 328.9,48.11 c -25.35,0 -46.93,-5.54 -64.75,-16.63 -17.42,-11.49 -30.69,-27.33 -39.8,-47.52 -9.1,-20.2 -13.66,-43.36 -13.66,-69.5 V 814.782 c 0,-3.96 1.19,-7.128 3.57,-9.504 2.77,-2.772 6.13,-4.158 10.09,-4.158 h 29.7 c 3.96,0 7.13,1.386 9.51,4.158 2.77,2.376 4.16,5.544 4.16,9.504 V 979.32 c 0,59 25.74,88.51 77.22,88.51 24.55,0 44.15,-7.73 58.8,-23.17 15.05,-15.84 22.57,-37.62 22.57,-65.34 V 814.782 c 0,-3.96 1.19,-7.128 3.57,-9.504 2.77,-2.772 6.14,-4.158 10.1,-4.158 h 29.1 c 4.36,0 7.72,1.386 10.1,4.158 2.38,2.376 3.56,5.544 3.56,9.504 v 281.558 c 0,3.96 -1.18,7.32 -3.56,10.1 -2.38,2.37 -5.74,3.56 -10.1,3.56 h -27.32 c -3.96,0 -7.33,-1.19 -10.1,-3.56 -2.38,-2.78 -3.56,-6.14 -3.56,-10.1 v -26.14 c -10.7,13.86 -23.76,24.95 -39.21,33.27 -15.05,8.31 -35.04,12.47 -59.99,12.47 z m 256.35,-5.94 c -3.96,0 -7.33,-1.19 -10.1,-3.56 -2.38,-2.78 -3.57,-6.14 -3.57,-10.1 V 701.922 c 0,-3.96 1.19,-7.128 3.57,-9.504 2.77,-2.772 6.14,-4.158 10.1,-4.158 h 27.91 c 4.36,0 7.73,1.386 10.1,4.158 2.38,2.376 3.57,5.544 3.57,9.504 v 394.418 c 0,3.96 -1.19,7.32 -3.57,10.1 -2.37,2.37 -5.74,3.56 -10.1,3.56 z m 237.1,5.94 c -22.18,0 -41.18,-2.77 -57.02,-8.32 -15.84,-5.54 -28.71,-12.27 -38.61,-20.19 -9.9,-7.92 -17.43,-15.84 -22.58,-23.76 -4.75,-7.92 -7.32,-14.26 -7.72,-19.01 -0.39,-4.36 0.99,-7.72 4.16,-10.1 3.17,-2.37 6.34,-3.56 9.5,-3.56 h 26.14 c 2.38,0 4.16,0.39 5.35,1.19 1.58,0.39 3.56,1.98 5.94,4.75 5.14,5.54 10.89,11.09 17.22,16.63 6.34,5.54 14.06,10.1 23.17,13.66 9.5,3.57 21.18,5.35 35.04,5.35 20.2,0 36.83,-3.76 49.9,-11.29 13.07,-7.92 19.6,-19.4 19.6,-34.45 0,-9.9 -2.77,-17.82 -8.31,-23.76 -5.15,-5.94 -14.66,-11.286 -28.52,-16.038 -13.46,-4.752 -32.07,-9.702 -55.83,-14.85 -23.76,-5.544 -42.57,-12.276 -56.43,-20.196 -13.86,-8.316 -23.76,-18.018 -29.7,-29.106 -5.94,-11.484 -8.91,-24.354 -8.91,-38.61 0,-14.652 4.35,-28.71 13.07,-42.174 8.71,-13.86 21.38,-25.146 38.01,-33.858 17.03,-8.712 38.22,-13.068 63.56,-13.068 20.59,0 38.21,2.574 52.87,7.722 14.65,5.148 26.73,11.682 36.23,19.602 9.5,7.524 16.63,15.048 21.38,22.572 4.76,7.524 7.33,13.86 7.73,19.008 0.39,3.96 -0.8,7.326 -3.57,10.098 -2.77,2.376 -5.94,3.564 -9.5,3.564 h -24.95 c -2.77,0 -5.15,-0.594 -7.13,-1.782 -1.58,-1.188 -3.17,-2.574 -4.75,-4.158 -3.96,-5.148 -8.71,-10.296 -14.26,-15.444 -5.14,-5.148 -12.07,-9.306 -20.79,-12.474 -8.31,-3.564 -19.4,-5.346 -33.26,-5.346 -19.8,0 -34.65,4.158 -44.55,12.474 -9.9,8.316 -14.85,18.81 -14.85,31.482 0,7.524 2.18,14.256 6.53,20.196 4.36,5.94 12.68,11.286 24.95,16.038 12.28,4.752 30.49,9.9 54.65,15.444 26.14,5.148 46.73,12.078 61.78,20.79 15.04,8.712 25.74,18.81 32.07,30.294 6.34,11.484 9.51,24.75 9.51,39.8 0,16.63 -4.95,31.88 -14.85,45.74 -9.51,13.86 -23.76,24.94 -42.77,33.26 -18.61,7.92 -41.78,11.88 -69.5,11.88 z m 318.84,0 c -40.79,0 -73.26,-12.47 -97.42,-37.42 -24.15,-25.35 -37.42,-59.8 -39.8,-103.358 -0.39,-5.148 -0.59,-11.682 -0.59,-19.602 0,-8.316 0.2,-15.048 0.59,-20.196 1.59,-28.116 8.12,-52.668 19.61,-73.656 11.48,-21.384 27.12,-37.818 46.92,-49.302 20.2,-11.484 43.76,-17.226 70.69,-17.226 30.09,0 55.24,6.336 75.44,19.008 20.59,12.672 36.23,30.69 46.92,54.054 10.69,23.364 16.04,50.688 16.04,81.972 v 10.098 c 0,4.356 -1.39,7.722 -4.16,10.098 -2.37,2.376 -5.54,3.564 -9.5,3.564 h -205.53 c 0,0.396 0,1.188 0,2.376 0,1.188 0,2.178 0,2.97 0.8,16.236 4.36,31.48 10.7,45.74 6.33,13.86 15.44,25.14 27.32,33.86 11.88,8.71 26.14,13.06 42.77,13.06 14.25,0 26.13,-2.17 35.64,-6.53 9.5,-4.36 17.22,-9.11 23.16,-14.26 5.94,-5.54 9.9,-9.7 11.88,-12.47 3.57,-5.15 6.34,-8.12 8.32,-8.91 1.98,-1.19 5.15,-1.78 9.5,-1.78 h 28.52 c 3.96,0 7.12,1.19 9.5,3.56 2.77,1.98 3.96,4.95 3.56,8.91 -0.39,5.94 -3.56,13.27 -9.5,21.98 -5.94,8.32 -14.45,16.63 -25.54,24.95 -11.09,8.31 -24.55,15.24 -40.39,20.79 -15.84,5.15 -34.06,7.72 -54.65,7.72 z m -80.79,-182.952 h 162.76 v -1.782 c 0,-17.82 -3.37,-33.66 -10.1,-47.52 -6.33,-13.86 -15.64,-24.75 -27.92,-32.67 -12.27,-8.316 -26.92,-12.474 -43.95,-12.474 -17.03,0 -31.68,4.158 -43.96,12.474 -11.88,7.92 -20.99,18.81 -27.32,32.67 -6.34,13.86 -9.51,29.7 -9.51,47.52 z"
     fill="#ffffff"
     id="path1" />
  <circle
     cx="909.5"
     cy="906.5"
     r="817.5"
     fill="#1e202b"
     id="circle1" />
  <circle
     cx="686.4613"
     cy="-1244.3154"
     r="55.947601"
     transform="rotate(131.714)"
     fill="#51debd"
     id="circle2" />
  <circle
     cx="-328.14859"
     cy="-1291.9602"
     r="91.282997"
     transform="rotate(167)"
     fill="#51debd"
     id="circle3" />
  <ellipse
     cx="-387.40717"
     cy="-1575.8054"
     rx="111.895"
     ry="110.423"
     transform="rotate(167)"
     fill="#51debd"
     id="ellipse3" />
  <path
     d="m 909.5,1535 c 0,22.09 17.925,40.12 39.977,38.8 128.603,-7.7 252.553,-52.43 356.713,-129.22 114.91,-84.72 199.68,-203.99 241.9,-340.37 42.23,-136.376 39.68,-282.688 -7.26,-417.514 C 1493.89,551.871 1405.02,435.614 1287.23,354.947 1169.44,274.279 1028.92,233.439 886.247,238.405 743.57,243.37 606.23,293.882 494.335,382.543 382.441,471.205 301.868,593.359 264.415,731.122 c -33.947,124.867 -30.854,256.612 8.447,379.298 6.739,21.04 30.033,31.24 50.63,23.25 l 161.188,-62.48 c 20.597,-7.99 30.621,-31.13 24.652,-52.4 -20.233,-72.095 -20.675,-148.588 -0.899,-221.327 23.285,-85.651 73.38,-161.598 142.948,-216.721 69.568,-55.124 154.956,-86.528 243.662,-89.615 88.706,-3.088 176.067,22.304 249.307,72.457 73.23,50.153 128.48,122.433 157.67,206.258 29.18,83.825 30.76,174.791 4.51,259.578 -26.25,84.79 -78.95,158.95 -150.4,211.62 -60.67,44.73 -132.15,71.97 -206.69,79.16 -21.99,2.12 -39.94,19.83 -39.94,41.92 z"
     fill="url(#paint0_linear_2053_2)"
     id="path3"
     style="fill:url(#paint0_linear_2053_2)" />
  <path
     d="m 1340.4,762.533 -97.84,-176.165 c -3.36,-6.054 1.09,-13.478 8.01,-13.369 l 191.22,3.026 c 6.75,0.106 10.98,7.33 7.78,13.271 l -93.38,173.139 c -3.38,6.26 -12.34,6.315 -15.79,0.098 z"
     fill="#1e202b"
     stroke="#1e202b"
     stroke-width="25"
     id="path4" />
  <path
     d="m 875.094,1178 c -5.523,0 -10,-4.48 -10,-10 V 996.072 c 0,-3.084 -3.343,-5.008 -6.009,-3.458 l -148.816,86.456 c -4.761,2.76 -10.862,1.16 -13.648,-3.59 l -34.539,-58.86 c -2.803,-4.78 -1.188,-10.93 3.601,-13.71 l 149.428,-86.824 c 2.655,-1.542 2.654,-5.376 -10e-4,-6.918 L 666.155,822.702 c -4.778,-2.773 -6.401,-8.896 -3.626,-13.673 l 34.107,-58.69 c 2.774,-4.774 8.894,-6.396 13.669,-3.622 l 148.78,86.433 c 2.666,1.549 6.009,-0.375 6.009,-3.459 V 657 c 0,-5.523 4.477,-10 10,-10 h 67.804 c 5.523,0 10,4.477 10,10 v 172.691 c 0,3.084 3.343,5.008 6.01,3.459 l 148.782,-86.433 c 4.77,-2.774 10.89,-1.152 13.67,3.622 l 34.1,58.684 c 2.78,4.779 1.15,10.905 -3.63,13.677 l -149.19,86.467 c -2.655,1.541 -2.656,5.379 0,6.921 l 149.67,86.822 c 4.79,2.78 6.41,8.93 3.6,13.71 l -34.54,58.86 c -2.78,4.75 -8.89,6.35 -13.65,3.59 L 958.908,992.614 c -2.667,-1.55 -6.01,0.374 -6.01,3.458 V 1168 c 0,5.52 -4.477,10 -10,10 z"
     fill="url(#paint1_linear_2053_2)"
     id="path5"
     style="fill:url(#paint1_linear_2053_2)" />
  <defs
     id="defs8">
    <linearGradient
       id="paint0_linear_2053_2"
       x1="420"
       y1="1489"
       x2="1514.5"
       y2="329.5"
       gradientUnits="userSpaceOnUse">
      <stop
         stop-color="#38DFC0"
         id="stop5" />
      <stop
         offset="1"
         stop-color="#66D9B3"
         id="stop6" />
    </linearGradient>
    <linearGradient
       id="paint1_linear_2053_2"
       x1="726.23102"
       y1="1178"
       x2="1149.24"
       y2="615.16998"
       gradientUnits="userSpaceOnUse">
      <stop
         stop-color="#38C3A7"
         id="stop7" />
      <stop
         offset="1"
         stop-color="#3DE6AC"
         id="stop8" />
    </linearGradient>
  </defs>
</svg>
