<svg version="1.1" viewBox="0 0 22 22" xmlns="http://www.w3.org/2000/svg">
    <g fill="#2e6ad1">
        <path d="m10.992188 2.5a8.242 8.242 0 0 0-2.5761724 0.4140625c-2.567 0.837-4.4463437 2.8795625-5.1523437 5.6015625-0.263 1.007-0.2676719 1.1015313-0.2636719 4.019531 4e-3 2.445 0.0090313 2.654766 0.0820312 3.009766 0.26 1.26 1.0971563 2.249328 2.2851563 2.736328 0.128 0.052 0.2594844 0.105484 0.3964844 0.146484 0.052 0.015 0.1140156 0.023922 0.1660156 0.044922 0.115 0.046 0.2127656 0.109391 0.2597656 0.150391 0.03 0.026 0.0646563 0.038734 0.0976563 0.052734 8e-3 0.03 0.0190625 0.058172 0.0390625 0.076172 0.084 0.078 0.1675156 0.079703 0.2285156 0.095703 0.133 0.057 0.2875938 0.038016 0.4335937 0.041016l0.0625 0.001953c0.194 2e-3 0.3686719-0.016641 0.5136719-0.056641 0.145-0.039 0.27075-0.090843 0.34375-0.214843 0.035-0.061 0.0243438-0.065797 0.0273438-0.091797a1.45 1.45 0 0 0 0.0097656-0.091797c5e-3 -0.072 0.0077188-0.169109 0.0117187-0.287109 0.0037374-0.126002 0.0054063-0.32408 0.0078126-0.492188 0.4037888 1.22433 0.5058014 1.494477 0.5097656 1.337891 3e-3 -0.106 0.5187343-4.037891 0.5527344-4.212891 0.0439999-0.225 0.1669531-0.190687 0.2519531 0.070312 0.04 0.123 0.3419219 1.350516 0.6699219 2.728516h-0.0019532c0.3750004 1.574 0.6107654 2.471969 0.6347654 2.417969 0.021-0.048 0.208063-1.407484 0.414063-3.021485 0.47-3.679999 0.43375-3.468062 0.59375-3.414062 0.094 0.033 0.091015 0.022734 0.666015 2.802734 0.26 1.253 0.480235 2.298219 0.490235 2.324219 0.029 0.074 0.072531-0.186141 0.269531-1.619141 0.313-2.274999 0.451953-3.167843 0.501953-3.214843 0.085-0.079 0.1615 0.049437 0.3125 0.523437l0.128906 0.398438c0.015702 0.96063 0.034372 2.037749 0.03711 2.519531l0.007812 1.353516 0.166016 0.121093a0.86 0.86 0 0 0 0.294922 0.136719h0.003906l0.003906 0.001953 0.009766 0.001953a0.644 0.644 0 0 0 0.078125 0.011719c0.104 0.012 0.246047 0.017719 0.373047 0.011719 0.187-7e-3 0.346515-0.035797 0.478515-0.091797 0.07-0.03 0.134547-0.071094 0.185547-0.121094 0.054-0.033 0.107016-0.070187 0.166016-0.117187 0.029-0.026 0.194969-0.090766 0.292969-0.134766 0.09-0.04 0.201593-0.05775 0.308593-0.09375 0.6-0.2 0.996657-0.449875 1.472657-0.921875 0.473-0.468 0.7265-0.860172 0.9375-1.451172 0.31-1.053 0.204937-2.218547 0.210937-3.310547 0.013-3.1849996-0.046156-3.2497965-0.285156-4.2167965a7.663 7.663 0 0 0-2.13086-3.71875 7.805 7.805 0 0 0-3.015624-1.828125 8.219 8.219 0 0 0-2.560547-0.4296875h-0.001953zm0.15625 1.3242188c0.416375 0 0.823484 0.0233593 1.083984 0.0683593 1.995 0.347 3.746547 1.6624844 4.685547 3.5214844 0.407 0.805 0.509234 1.4866406 0.615234 2.4316406 0.36 2.0169999 0.532922 1.9907659-1.205078 1.3847659a6.259 6.259 0 0 1-0.597656-0.21875l-0.148438-0.115235c-0.222-0.172-0.553187-0.204734-0.867187-0.177734-0.158 0.013-0.31136 0.044656-0.44336 0.097656-0.132 0.052-0.249453 0.124094-0.314453 0.246094-0.028 0.05-0.02239 0.067609-0.02539 0.099609a1.618 1.618 0 0 0-0.009766 0.123047c-5e-3 0.1-0.007812 0.2425-0.007813 0.4375 0 0.163809 0.008544 0.549473 0.011719 0.794922l-0.242187-0.736328c-0.202-0.616-0.312891-0.888078-0.337891-0.830078-0.021 0.047-0.110219 0.67739-0.199219 1.40039-0.177 1.436-0.304656 2.348563-0.347656 2.476563-0.016 0.046-0.060656 0.082031-0.097656 0.082031-0.135 0-0.184453-0.172281-0.814453-2.863281-0.228-0.968-0.443469-1.877531-0.480469-2.019531l-0.066406-0.2578128-0.070313 0.5624998c-0.212 1.705-0.754828 5.50961-0.798828 5.59961-0.061 0.126-0.137125 0.135437-0.203125 0.023437-0.07-0.117-0.6267655-2.241609-1.0097655-3.849609-0.18-0.755-0.3432813-1.373047-0.3632813-1.373047-0.0189999 0-0.0523124 0.195547-0.0703124 0.435547-0.06 0.753-0.40275 3.936609-0.46875 4.349609-0.0630001 0.401-0.1421407 0.507891-0.2441407 0.337891-0.0114106-0.019398-0.081487-0.245635-0.1191406-0.353516 0.0080722-0.675573 0.0109112-1.204829 0.0234375-1.882812 0.025-1.335 0.0428594-1.950157 0.0058594-2.285157-0.019-0.167-0.0546719-0.283281-0.1386719-0.363281s-0.1719062-0.096859-0.2539063-0.130859c-0.2389999-0.097-0.5558437-0.103407-0.8398437-0.066406a1.567 1.567 0 0 0-0.3828125 0.09375 0.46 0.46 0 0 0-0.2207031 0.15039 3.964 3.964 0 0 1-0.4492188 0.171875c-1.776 0.94-1.7041562 0.452188-1.2851562-1.3828124 0.48-3.341 2.3995937-5.4310625 5.5585941-5.9140625 0.297-0.045 0.722296-0.0683593 1.138672-0.0683593z"/>
    </g>
</svg>
