<svg width="22" xmlns="http://www.w3.org/2000/svg" height="22"><g transform="translate(-326 -534.362)" fill="#f27935"><path d="M336.492 537.362a.5.5 0 0 0-.346.147.5.5 0 0 0 0 .707l4.217 4.217a5.5 5.5 0 0 0-.863-.07h-10a.5.5 0 0 0-.5.5.5.5 0 0 0 .5.5h6.844a5.5 5.5 0 0 0-1.203 1.153l-5.995 5.993a.5.5 0 0 0 0 .707.5.5 0 0 0 .708 0L334.07 547a5.5 5.5 0 0 0-.07.861 5.5 5.5 0 0 0 5.5 5.5 5.5 5.5 0 0 0 5.5-5.5 5.5 5.5 0 0 0-2.158-4.363l-5.988-5.99a.5.5 0 0 0-.362-.147zm3.008 6a4.5 4.5 0 0 1 4.5 4.5 4.5 4.5 0 0 1-4.5 4.5 4.5 4.5 0 0 1-4.5-4.5 4.5 4.5 0 0 1 4.5-4.5z"/><circle cx="339.5" cy="547.862" r="1.5"/></g></svg>