<svg xmlns="http://www.w3.org/2000/svg" width="22" height="22"><path style="line-height:125%;-inkscape-font-specification:oxygen" d="M10.045 3c-1.777 0-2.522.706-2.522 2.51V7.95c0 1.114-.034 2.404-1.015 2.404H6v1.29h.508c.981 0 1.015 1.29 1.015 2.404v2.441c0 1.804.745 2.51 2.522 2.51v-1.184c-1.185 0-1.201-.478-1.201-2.21V13.59c0-.831-.205-2.068-1.203-2.58.998-.513 1.203-1.751 1.203-2.582V6.395c0-1.733.016-2.211 1.2-2.211V3zm1.894 0v1.184c1.185 0 1.217.478 1.217 2.21v2.034c0 .83.205 2.07 1.203 2.582-.998.512-1.203 1.749-1.203 2.58v2.015c0 1.733-.032 2.211-1.217 2.211V19c1.777 0 2.538-.706 2.538-2.51V14.05c0-1.114.068-2.404 1.033-2.404H16v-1.29h-.49c-.965 0-1.033-1.29-1.033-2.404V5.51c0-1.804-.76-2.51-2.538-2.51zM11 8a1 1 0 0 0-1 1 1 1 0 0 0 1 1 1 1 0 0 0 1-1 1 1 0 0 0-1-1zm0 4a1 1 0 0 0-1 1 1 1 0 0 0 1 1v1h.13c.238-.257.687-1.01.815-1.676a1 1 0 0 0 .055-.293A1 1 0 0 0 12 13a1 1 0 0 0-1-1z" font-weight="400" font-family="oxygen" letter-spacing="0" word-spacing="0" fill="#ffa555"/></svg>