<svg width="22" height="22" version="1.1" xmlns="http://www.w3.org/2000/svg">
 <defs>
  <style id="current-color-scheme" type="text/css">.ColorScheme-Text { color:#363636; }</style>
 </defs>
 <path class="ColorScheme-Text" d="m11 6.0206c-2.6432 0-5.1397 1.1665-6.85 3.2009a0.63845 0.63845 0 0 0 0.49005 1.0491c0.18222 0 0.36305-0.0773 0.48971-0.22742 1.4657-1.7438 3.6057-2.7446 5.8703-2.7446 2.2646 0 4.4046 1.0012 5.8703 2.7446 0.12631 0.15116 0.30714 0.22777 0.48971 0.22777a0.63776 0.63776 0 0 0 0.4897-1.0495c-1.7097-2.0344-4.2068-3.2009-6.8504-3.2009zm0 2.707c-1.8877 0-3.6709 0.83378-4.8922 2.2863a0.63894 0.63894 0 1 0 0.97838 0.82204 5.1055 5.1055 0 0 1 3.9135-1.8301c1.5102 0 2.9369 0.66744 3.9142 1.8301 0.12631 0.15116 0.30784 0.22777 0.48971 0.22777a0.63845 0.63845 0 0 0 0.48833-1.0495c-1.2217-1.4529-3.0038-2.2867-4.8922-2.2867zm0 2.8126a3.8272 3.8272 0 0 0-2.9358 1.3704 0.63845 0.63845 0 0 0 0.079374 0.90038 0.63603 0.63603 0 0 0 0.90038-0.07765 2.5507 2.5507 0 0 1 1.9561-0.91453c0.75475 0 1.4677 0.33303 1.9568 0.91453a0.63707 0.63707 0 0 0 0.90004 0.07765 0.63845 0.63845 0 0 0 0.07937-0.90038 3.8272 3.8272 0 0 0-2.9362-1.3704zm-0.05452 2.4264c-0.49971 0.04832-0.98079 0.42172-0.99736 0.97838a1.0522 1.0522 0 0 0 2.1041 0c-0.08869-0.74716-0.6067-1.026-1.1068-0.97838z" fill="currentColor"/>
</svg>
