<?xml version="1.0" encoding="UTF-8" standalone="no"?>
<svg
   viewbox="0 0 200 200"
   version="1.1"
   id="svg4"
   sodipodi:docname="folder-images.svg"
   width="64"
   height="64"
   inkscape:version="1.1.1 (3bf5ae0d25, 2021-09-20)"
   xmlns:inkscape="http://www.inkscape.org/namespaces/inkscape"
   xmlns:sodipodi="http://sodipodi.sourceforge.net/DTD/sodipodi-0.dtd"
   xmlns="http://www.w3.org/2000/svg"
   xmlns:svg="http://www.w3.org/2000/svg">
  <defs
     id="defs8" />
  <sodipodi:namedview
     id="namedview6"
     pagecolor="#ffffff"
     bordercolor="#666666"
     borderopacity="1.0"
     inkscape:pageshadow="2"
     inkscape:pageopacity="0.0"
     inkscape:pagecheckerboard="0"
     showgrid="false"
     inkscape:zoom="16"
     inkscape:cx="30.75"
     inkscape:cy="34.75"
     inkscape:window-width="1920"
     inkscape:window-height="1009"
     inkscape:window-x="-8"
     inkscape:window-y="-8"
     inkscape:window-maximized="1"
     inkscape:current-layer="svg4"
     showguides="false" />
  <path
     d="M 2,32 C 2,10.4 10.4,2 32,2 53.6,2 62,10.4 62,32 62,53.6 53.6,62 32,62 10.4,62 2,53.6 2,32"
     id="path2"
     style="stroke-width:0.3;fill:#e7a12e;fill-opacity:1" />
  <path
     id="rect1033"
     style="fill:#ffffff;stroke-width:2;stroke-linecap:round;stroke-linejoin:round"
     d="M 16 16 C 14.338 16 13 17.338 13 19 L 13 44 C 13 46.216 14.784 48 17 48 L 47 48 C 49.216 48 51 46.216 51 44 L 51 26 C 51 23.784 49.216 22 47 22 L 33 22 A 2 2 0 0 1 31 20 L 31 19 C 31 17.338 29.662 16 28 16 L 16 16 z " />
  <path
     id="rect9754"
     style="fill:#c5660a;fill-opacity:1;stroke:none;stroke-width:6;stroke-linecap:round;stroke-linejoin:round;stroke-miterlimit:4;stroke-dasharray:none;stroke-opacity:1"
     d="M 27 27 C 25.338 27 24 28.338 24 30 L 24 40 C 24 41.662 25.338 43 27 43 L 37 43 C 38.662 43 40 41.662 40 40 L 40 30 C 40 28.338 38.662 27 37 27 L 27 27 z M 28.5 30 A 1.5 1.5 0 0 1 30 31.5 A 1.5 1.5 0 0 1 28.5 33 A 1.5 1.5 0 0 1 27 31.5 A 1.5 1.5 0 0 1 28.5 30 z M 35.171875 34 C 35.427494 34 35.683038 34.0971 35.878906 34.292969 L 37.632812 36.046875 C 37.860138 36.307948 37.98609 36.456971 38 37 L 38 40 C 38 40.554 37.554 41 37 41 L 27 41 C 26.446 41 26 40.554 26 40 L 26 39.5 C 25.998253 39.186764 26.130032 38.883092 26.263672 38.736328 L 28.121094 36.878906 C 28.316962 36.683034 28.572506 36.583984 28.828125 36.583984 C 29.083744 36.583984 29.339288 36.683037 29.535156 36.878906 L 30.394531 37.738281 C 30.619325 37.958341 30.814687 37.956094 31.015625 37.742188 L 34.464844 34.292969 C 34.660713 34.0971 34.916256 34 35.171875 34 z " />
</svg>
