<?xml version="1.0" encoding="UTF-8" standalone="no"?>
<svg
   viewbox="0 0 200 200"
   version="1.1"
   id="svg4"
   sodipodi:docname="folder-template.svg"
   width="64"
   height="64"
   inkscape:version="1.1.1 (3bf5ae0d25, 2021-09-20, custom)"
   xmlns:inkscape="http://www.inkscape.org/namespaces/inkscape"
   xmlns:sodipodi="http://sodipodi.sourceforge.net/DTD/sodipodi-0.dtd"
   xmlns="http://www.w3.org/2000/svg"
   xmlns:svg="http://www.w3.org/2000/svg">
  <defs
     id="defs8" />
  <sodipodi:namedview
     id="namedview6"
     pagecolor="#ffffff"
     bordercolor="#666666"
     borderopacity="1.0"
     inkscape:pageshadow="2"
     inkscape:pageopacity="0.0"
     inkscape:pagecheckerboard="0"
     showgrid="false"
     inkscape:zoom="8"
     inkscape:cx="15.6875"
     inkscape:cy="41.875"
     inkscape:window-width="1920"
     inkscape:window-height="1006"
     inkscape:window-x="0"
     inkscape:window-y="0"
     inkscape:window-maximized="1"
     inkscape:current-layer="svg4"
     showguides="false" />
  <path
     d="M 2,32 C 2,10.4 10.4,2 32,2 53.6,2 62,10.4 62,32 62,53.6 53.6,62 32,62 10.4,62 2,53.6 2,32"
     id="path2"
     style="stroke-width:0.3;fill:#e7a12e;fill-opacity:1" />
  <path
     id="rect1033"
     style="fill:#ffffff;stroke-width:2;stroke-linecap:round;stroke-linejoin:round"
     d="M 16 16 C 14.338 16 13 17.338 13 19 L 13 44 C 13 46.216 14.784 48 17 48 L 47 48 C 49.216 48 51 46.216 51 44 L 51 26 C 51 23.784 49.216 22 47 22 L 33 22 A 2 2 0 0 1 31 20 L 31 19 C 31 17.338 29.662 16 28 16 L 16 16 z " />
  <path
     id="path2103"
     style="color:#000000;fill:#c5660a;fill-opacity:1;stroke:none;stroke-width:3.7818;stroke-linecap:round;stroke-linejoin:round;-inkscape-stroke:none"
     d="m 40.526874,28.000604 c -0.109731,-0.0054 -0.218176,0.02553 -0.308594,0.08789 L 21.21242,41.0924 c -0.395363,0.27926 -0.202845,0.900934 0.28125,0.908203 h 19.00586 c 0.27773,9.18e-4 0.503054,-0.224406 0.501953,-0.501953 V 28.500603 c -5.6e-5,-0.184901 -0.102221,-0.354675 -0.265625,-0.441406 -0.06453,-0.03458 -0.135871,-0.05458 -0.208984,-0.05859 z M 38,33 v 6 h -9 z"
     sodipodi:nodetypes="cccccccccccccc" />
</svg>
