<?xml version="1.0" encoding="UTF-8" standalone="no"?>
<svg
   viewbox="0 0 200 200"
   version="1.1"
   id="svg4"
   sodipodi:docname="user-home.svg"
   width="64"
   height="64"
   inkscape:version="1.1.1 (3bf5ae0d25, 2021-09-20)"
   xmlns:inkscape="http://www.inkscape.org/namespaces/inkscape"
   xmlns:sodipodi="http://sodipodi.sourceforge.net/DTD/sodipodi-0.dtd"
   xmlns="http://www.w3.org/2000/svg"
   xmlns:svg="http://www.w3.org/2000/svg">
  <defs
     id="defs8" />
  <sodipodi:namedview
     id="namedview6"
     pagecolor="#ffffff"
     bordercolor="#666666"
     borderopacity="1.0"
     inkscape:pageshadow="2"
     inkscape:pageopacity="0.0"
     inkscape:pagecheckerboard="0"
     showgrid="false"
     inkscape:zoom="4"
     inkscape:cx="1.75"
     inkscape:cy="79.25"
     inkscape:window-width="1920"
     inkscape:window-height="1009"
     inkscape:window-x="-8"
     inkscape:window-y="-8"
     inkscape:window-maximized="1"
     inkscape:current-layer="svg4"
     showguides="true" />
  <path
     d="M 2,32 C 2,10.4 10.4,2 32,2 53.6,2 62,10.4 62,32 62,53.6 53.6,62 32,62 10.4,62 2,53.6 2,32"
     id="path2"
     style="stroke-width:0.3;fill:#e7a12e;fill-opacity:1" />
  <path
     id="rect1033"
     style="fill:#ffffff;stroke-width:2;stroke-linecap:round;stroke-linejoin:round"
     d="M 16 16 C 14.338 16 13 17.338 13 19 L 13 44 C 13 46.216 14.784 48 17 48 L 47 48 C 49.216 48 51 46.216 51 44 L 51 26 C 51 23.784 49.216 22 47 22 L 33 22 A 2 2 0 0 1 31 20 L 31 19 C 31 17.338 29.662 16 28 16 L 16 16 z " />
  <path
     id="path3442"
     style="color:#000000;fill:#c5660a;fill-opacity:1;stroke:none;stroke-width:0.888907;stroke-linecap:round;stroke-linejoin:round;-inkscape-stroke:none"
     d="m 32,27 c -0.682355,0 -1.364059,0.260742 -1.884766,0.78125 L 24.78125,32.226562 C 24.281153,32.72661 24.000136,33.404108 24,34.111328 v 6.222656 C 24.000148,41.80673 25.193317,42.999852 26.666016,43 H 29 v -6 c 0,-0.554 0.446,-1 1,-1 h 4 c 0.554,0 0.908923,0.453538 1,1 v 6 h 2.333984 C 38.806683,42.999852 39.999852,41.80673 40,40.333984 v -6.222656 c -1.36e-4,-0.70722 -0.281153,-1.384719 -0.78125,-1.884766 L 33.884766,27.78125 C 33.364059,27.260742 32.682355,27 32,27 Z"
     sodipodi:nodetypes="sccccccssssccccccs" />
</svg>
