<?xml version="1.0" encoding="UTF-8" standalone="no"?>
<svg
   viewbox="0 0 200 200"
   version="1.1"
   id="svg4"
   sodipodi:docname="user-trash-full.svg"
   width="64"
   height="64"
   inkscape:version="1.1.1 (3bf5ae0d25, 2021-09-20)"
   xmlns:inkscape="http://www.inkscape.org/namespaces/inkscape"
   xmlns:sodipodi="http://sodipodi.sourceforge.net/DTD/sodipodi-0.dtd"
   xmlns="http://www.w3.org/2000/svg"
   xmlns:svg="http://www.w3.org/2000/svg">
  <defs
     id="defs8" />
  <sodipodi:namedview
     id="namedview6"
     pagecolor="#ffffff"
     bordercolor="#666666"
     borderopacity="1.0"
     inkscape:pageshadow="2"
     inkscape:pageopacity="0.0"
     inkscape:pagecheckerboard="0"
     showgrid="false"
     inkscape:zoom="5.6568542"
     inkscape:cx="-1.5909903"
     inkscape:cy="18.561553"
     inkscape:window-width="1920"
     inkscape:window-height="1009"
     inkscape:window-x="-8"
     inkscape:window-y="-8"
     inkscape:window-maximized="1"
     inkscape:current-layer="svg4" />
  <path
     d="M 2,32 C 2,10.4 10.4,2 32,2 53.6,2 62,10.4 62,32 62,53.6 53.6,62 32,62 10.4,62 2,53.6 2,32"
     id="path2"
     style="stroke-width:0.3;fill:#d370a0;fill-opacity:1" />
  <path
     id="rect7923"
     style="fill:#ffffff;stroke-width:1.84273;stroke-linecap:round;stroke-linejoin:round"
     d="M 26 12 C 24.892 12 24 12.892 24 14 L 24 18 L 16.5 18 C 15.669 18 15 18.669 15 19.5 C 15 20.331 15.669 21 16.5 21 L 47.5 21 C 48.331 21 49 20.331 49 19.5 C 49 18.669 48.331 18 47.5 18 L 40 18 L 40 14 C 40 12.892 39.108 12 38 12 L 26 12 z M 27 15 L 37 15 L 37 18 L 27 18 L 27 15 z M 19 23 C 18.446 23 18 23.446 18 24 L 19 46 C 19.28125 49.199 21.676 52 25 52 L 39 52 C 42.324 52 44.625 49.324 45 46 L 46 24 C 46 23.446 45.554 23 45 23 L 19 23 z " />
  <path
     id="rect11344"
     style="fill:#b76c91;fill-opacity:1;stroke-width:1.24813;stroke-linecap:round;stroke-linejoin:round"
     d="M 24.5 27 C 23.669 27 23 27.737331 23 28.654297 L 23 45.345703 C 23 46.262669 23.669 47 24.5 47 C 25.331 47 26 46.262669 26 45.345703 L 26 28.654297 C 26 27.737331 25.331 27 24.5 27 z M 32 27 C 31.169 27 30.5 27.669 30.5 28.5 L 30.5 45.5 C 30.5 46.331 31.169 47 32 47 C 32.831 47 33.5 46.331 33.5 45.5 L 33.5 28.5 C 33.5 27.669 32.831 27 32 27 z M 39.5 27 C 38.669 27 38 27.669 38 28.5 L 38 45.5 C 38 46.331 38.669 47 39.5 47 C 40.331 47 41 46.331 41 45.5 L 41 28.5 C 41 27.669 40.331 27 39.5 27 z " />
</svg>
