<?xml version="1.0" encoding="UTF-8" standalone="no"?>
<svg
   viewbox="0 0 200 200"
   version="1.1"
   id="svg4"
   sodipodi:docname="folder-videos.svg"
   width="24"
   height="24"
   inkscape:version="1.1.1 (3bf5ae0d25, 2021-09-20, custom)"
   xmlns:inkscape="http://www.inkscape.org/namespaces/inkscape"
   xmlns:sodipodi="http://sodipodi.sourceforge.net/DTD/sodipodi-0.dtd"
   xmlns="http://www.w3.org/2000/svg"
   xmlns:svg="http://www.w3.org/2000/svg">
  <defs
     id="defs8" />
  <sodipodi:namedview
     id="namedview6"
     pagecolor="#ffffff"
     bordercolor="#666666"
     borderopacity="1.0"
     inkscape:pageshadow="2"
     inkscape:pageopacity="0.0"
     inkscape:pagecheckerboard="0"
     showgrid="false"
     inkscape:zoom="13.0625"
     inkscape:cx="2.1818182"
     inkscape:cy="7.770335"
     inkscape:window-width="1567"
     inkscape:window-height="932"
     inkscape:window-x="56"
     inkscape:window-y="50"
     inkscape:window-maximized="0"
     inkscape:current-layer="svg4"
     showguides="false"
     inkscape:lockguides="false" />
  <path
     d="M 2,12 C 2,4.8 4.8,2 12,2 19.2,2 22,4.8 22,12 22,19.2 19.2,22 12,22 4.8,22 2,19.2 2,12"
     id="path2"
     style="fill:#e7a12e;fill-opacity:1;stroke-width:0.1" />
  <path
     id="rect20156"
     style="opacity:1;fill:#ffffff;fill-opacity:1;stroke:none;stroke-width:1.14286;stroke-linecap:round;stroke-miterlimit:4;stroke-dasharray:none"
     d="M 7,5 C 5.892,5 5,5.892 5,7 v 10 c 0,1.108 0.892,2 2,2 h 10 c 1.108,0 2,-0.892 2,-2 V 7 C 19,5.892 18.108,5 17,5 Z m 3.011719,2.9980469 c 0.176322,0.00261 0.348818,0.051798 0.5,0.1425781 l 5.003906,3.005859 c 0.642737,0.389223 0.642737,1.321715 0,1.710938 l -5.003906,2.998047 C 9.8453929,16.254235 8.9986223,15.774581 8.9980469,14.998047 V 8.9980469 C 8.9982475,8.6369459 9.1930907,8.3039951 9.5078125,8.1269531 9.6614723,8.0402971 9.8353206,7.9958469 10.011719,7.9980469 Z" />
</svg>
