<?xml version="1.0" encoding="UTF-8" standalone="no"?><!-- Generator: Gravit.io --><svg xmlns="http://www.w3.org/2000/svg" xmlns:xlink="http://www.w3.org/1999/xlink" style="isolation:isolate" viewBox="0 0 48 48" width="48pt" height="48pt"><linearGradient id="_lgradient_19" x1="0.6718099850460906" y1="0.020570018975650584" x2="0.4221494918345081" y2="0.9601645064179158" gradientTransform="matrix(37,0,0,46,5.5,1)" gradientUnits="userSpaceOnUse"><stop offset="0%" stop-opacity="1" style="stop-color:rgb(26,108,255)"/><stop offset="100%" stop-opacity="1" style="stop-color:rgb(197,34,255)"/></linearGradient><path d=" M 34.511 43.636 L 32.83 43.636 L 32.83 43.636 L 32.83 41.955 L 34.511 41.955 L 34.511 43.636 L 34.511 43.636 L 34.511 43.636 L 34.511 43.636 Z  M 37.034 43.411 C 38.29 43.12 39.136 42.577 39.136 41.955 L 39.136 41.955 L 37.034 41.955 L 37.034 43.411 L 37.034 43.411 L 37.034 43.411 L 37.034 43.411 Z  M 30.307 43.636 L 28.625 43.636 L 28.625 43.636 L 28.625 41.955 L 30.307 41.955 L 30.307 43.636 L 30.307 43.636 L 30.307 43.636 L 30.307 43.636 L 30.307 43.636 Z  M 34.511 32.955 L 32.83 32.955 L 32.83 32.955 L 32.83 34.636 L 34.511 34.636 L 34.511 32.955 L 34.511 32.955 L 34.511 32.955 L 34.511 32.955 L 34.511 32.955 L 34.511 32.955 L 34.511 32.955 Z  M 37.034 32.955 L 39.136 32.955 L 39.136 32.955 C 39.136 33.577 38.29 34.12 37.034 34.411 L 37.034 32.955 L 37.034 32.955 L 37.034 32.955 L 37.034 32.955 L 37.034 32.955 L 37.034 32.955 L 37.034 32.955 Z  M 30.307 32.955 L 28.625 32.955 L 28.625 32.955 L 28.625 34.636 L 30.307 34.636 L 30.307 32.955 L 30.307 32.955 L 30.307 32.955 L 30.307 32.955 L 30.307 32.955 L 30.307 32.955 L 30.307 32.955 L 30.307 32.955 Z  M 8.864 8.568 L 8.864 8.568 C 8.864 9.496 8.11 10.25 7.182 10.25 L 7.182 10.25 C 6.254 10.25 5.5 9.496 5.5 8.568 L 5.5 8.568 L 5.5 6.886 C 5.5 3.638 8.138 1 11.386 1 L 36.614 1 C 39.862 1 42.5 3.638 42.5 6.886 L 42.5 26.227 L 42.5 26.227 C 42.5 27.155 41.746 27.909 40.818 27.909 L 40.818 27.909 C 39.89 27.909 39.136 27.155 39.136 26.227 L 39.136 26.227 L 39.136 8.568 C 39.136 6.248 37.252 4.364 34.932 4.364 L 13.068 4.364 C 10.748 4.364 8.864 6.248 8.864 8.568 L 8.864 8.568 L 8.864 8.568 L 8.864 8.568 L 8.864 8.568 L 8.864 8.568 L 8.864 8.568 L 8.864 8.568 L 8.864 8.568 L 8.864 8.568 L 8.864 8.568 Z  M 18.131 9.119 L 18.131 9.119 C 17.787 9.428 17.256 9.398 16.947 9.051 L 16.947 9.051 C 16.638 8.704 16.67 8.172 17.02 7.863 L 17.02 7.863 C 19.431 5.715 22.712 4.795 25.896 5.379 C 28.634 5.882 31.072 7.457 32.653 9.748 C 34.233 12.038 34.841 14.877 34.339 17.615 C 33.836 20.352 32.261 22.791 29.97 24.371 C 27.68 25.951 24.841 26.559 22.103 26.057 C 19.423 25.565 17.034 24.05 15.448 21.835 C 13.864 19.613 13.197 16.866 13.605 14.171 L 13.605 14.171 C 13.671 13.711 14.097 13.392 14.557 13.46 L 14.557 13.46 C 15.016 13.528 15.336 13.956 15.27 14.416 L 15.27 14.416 C 14.932 16.679 15.482 18.995 16.816 20.855 C 18.151 22.716 20.157 23.99 22.407 24.403 C 24.706 24.825 27.091 24.313 29.011 22.981 C 30.938 21.659 32.263 19.611 32.684 17.311 C 33.106 15.012 32.595 12.627 31.263 10.707 C 29.941 8.78 27.892 7.455 25.593 7.034 C 22.921 6.543 20.164 7.312 18.131 9.119 L 18.131 9.119 L 18.131 9.119 Z  M 23.352 9.83 L 23.352 9.83 C 22.888 9.816 22.525 9.428 22.541 8.963 L 22.541 8.963 C 22.557 8.499 22.947 8.134 23.411 8.148 L 23.411 8.148 C 25.102 8.207 26.725 8.829 28.02 9.914 C 29.315 10.998 30.214 12.487 30.559 14.135 L 30.559 14.135 C 30.657 14.59 30.368 15.038 29.916 15.136 L 29.916 15.136 C 29.463 15.233 29.017 14.943 28.919 14.488 L 28.919 14.488 C 28.642 13.202 27.944 12.041 26.943 11.2 C 25.934 10.359 24.673 9.872 23.352 9.83 L 23.352 9.83 Z  M 26.102 43.636 L 13.068 43.636 C 10.748 43.636 8.864 41.752 8.864 39.432 L 8.864 37.433 L 8.864 37.433 C 9.628 37.796 10.484 38 11.386 38 L 36.614 38 C 39.862 38 42.5 35.362 42.5 32.114 L 42.5 31.273 C 42.5 30.345 41.746 29.591 40.818 29.591 L 15.591 29.591 L 15.591 29.591 C 14.663 29.591 13.909 30.345 13.909 31.273 L 13.909 31.273 C 13.909 32.201 14.663 32.955 15.591 32.955 L 15.591 32.955 L 26.102 32.955 L 26.102 32.955 L 26.102 32.955 L 26.102 32.955 L 26.102 34.636 L 13.068 34.636 C 10.748 34.636 8.864 32.752 8.864 30.432 L 8.864 25.136 L 8.864 25.136 L 8.864 25.136 L 8.864 16.136 L 8.864 16.136 C 8.864 15.208 8.11 14.455 7.182 14.455 L 7.182 14.455 C 6.254 14.455 5.5 15.208 5.5 16.136 L 5.5 16.136 L 5.5 25.136 L 5.5 32.114 L 5.5 32.114 L 5.5 41.114 C 5.5 44.362 8.138 47 11.386 47 L 36.614 47 C 39.862 47 42.5 44.362 42.5 41.114 L 42.5 40.273 C 42.5 39.345 41.746 38.591 40.818 38.591 L 15.591 38.591 L 15.591 38.591 C 14.663 38.591 13.909 39.345 13.909 40.273 L 13.909 40.273 C 13.909 41.201 14.663 41.955 15.591 41.955 L 15.591 41.955 L 26.102 41.955 L 26.102 43.636 L 26.102 43.636 L 26.102 43.636 L 26.102 43.636 L 26.102 43.636 L 26.102 43.636 Z  M 22.739 15.716 C 22.739 15.38 22.873 15.06 23.109 14.825 C 23.344 14.589 23.664 14.455 24 14.455 C 24.336 14.455 24.656 14.589 24.891 14.825 C 25.127 15.06 25.261 15.38 25.261 15.716 C 25.261 16.052 25.127 16.372 24.891 16.607 C 24.656 16.843 24.336 16.977 24 16.977 C 23.664 16.977 23.344 16.843 23.109 16.607 C 22.873 16.372 22.739 16.052 22.739 15.716 L 22.739 15.716 Z  M 20.216 15.716 C 20.216 14.715 20.611 13.748 21.326 13.042 C 22.032 12.327 22.999 11.932 24 11.932 C 25.001 11.932 25.968 12.327 26.674 13.042 C 27.389 13.748 27.784 14.715 27.784 15.716 C 27.784 16.717 27.389 17.684 26.674 18.39 C 25.968 19.105 25.001 19.5 24 19.5 C 22.999 19.5 22.032 19.105 21.326 18.39 C 20.611 17.684 20.216 16.717 20.216 15.716 L 20.216 15.716 Z " fill-rule="evenodd" fill="url(#_lgradient_19)"/></svg>