<?xml version="1.0" encoding="UTF-8" standalone="no"?><!-- Generator: Gravit.io --><svg xmlns="http://www.w3.org/2000/svg" xmlns:xlink="http://www.w3.org/1999/xlink" style="isolation:isolate" viewBox="0 0 48 48" width="48pt" height="48pt"><linearGradient id="_lgradient_15" x1="0.34027777777777773" y1="0.036585365853658625" x2="1.0087187958883996" y2="1.012732351993124" gradientTransform="matrix(32,0,0,44,8,2)" gradientUnits="userSpaceOnUse"><stop offset="0%" stop-opacity="1" style="stop-color:rgb(156,51,196)"/><stop offset="51.30434782608696%" stop-opacity="1" style="stop-color:rgb(255,25,80)"/><stop offset="98.69565217391305%" stop-opacity="1" style="stop-color:rgb(255,135,36)"/></linearGradient><path d=" M 36 32 L 36 32 C 36 30.896 36.896 30 38 30 L 38 30 C 39.104 30 40 30.896 40 32 L 40 32 L 40 41 C 40 43.76 37.76 46 35 46 L 13 46 C 10.24 46 8 43.76 8 41 L 8 38 L 8 38 C 8 36.896 8.896 36 10 36 L 10 36 C 11.104 36 12 36.896 12 38 L 12 38 L 12 39 C 12 40.656 13.344 42 15 42 L 33 42 C 34.656 42 36 40.656 36 39 L 36 32 L 36 32 L 36 32 L 36 32 L 36 32 L 36 32 Z  M 38 24 L 38 24 C 39.104 24 40 24.896 40 26 L 40 26 C 40 27.104 39.104 28 38 28 L 38 28 C 36.896 28 36 27.104 36 26 L 36 26 C 36 24.896 36.896 24 38 24 L 38 24 L 38 24 L 38 24 L 38 24 Z  M 10 30 L 10 30 C 11.104 30 12 30.896 12 32 L 12 32 C 12 33.104 11.104 34 10 34 L 10 34 C 8.896 34 8 33.104 8 32 L 8 32 C 8 30.896 8.896 30 10 30 L 10 30 L 10 30 L 10 30 Z  M 20.5 7 L 22.5 7 L 22.5 11 L 20.5 11 L 20.5 7 L 20.5 7 L 20.5 7 Z  M 25.5 7 L 27.5 7 L 27.5 11 L 25.5 11 L 25.5 7 L 25.5 7 Z  M 16 12 L 32 12 L 32 8 C 32 6.896 31.104 6 30 6 L 18 6 C 16.896 6 16 6.896 16 8 L 16 12 L 16 12 L 16 12 L 16 12 L 16 12 L 16 12 L 16 12 Z  M 12 12.1 C 9.719 12.564 8 14.583 8 17 L 8 26 L 8 26 C 8 27.104 8.896 28 10 28 L 10 28 C 11.104 28 12 27.104 12 26 L 12 26 L 12 19 C 12 17.344 13.344 16 15 16 L 33 16 C 34.656 16 36 17.344 36 19 L 36 20 L 36 20 C 36 21.104 36.896 22 38 22 L 38 22 C 39.104 22 40 21.104 40 20 L 40 20 L 40 17 C 40 14.583 38.281 12.564 36 12.1 L 36 12 L 36 7 C 36 4.24 33.76 2 31 2 L 17 2 C 14.24 2 12 4.24 12 7 L 12 12 L 12 12.1 L 12 12.1 L 12 12.1 L 12 12.1 L 12 12.1 L 12 12.1 L 12 12.1 Z  M 24 20 L 21.188 24.5 L 22.875 24.5 L 22.875 30.125 L 19.5 30.125 L 19.5 28.697 C 20.197 28.292 20.625 27.549 20.625 26.75 C 20.625 25.512 19.613 24.5 18.375 24.5 C 17.138 24.5 16.125 25.512 16.125 26.75 C 16.125 27.549 16.553 28.292 17.25 28.697 L 17.25 30.125 C 17.25 32.375 19.5 32.375 19.5 32.375 L 22.875 32.375 L 22.875 33.804 C 22.178 34.209 21.75 34.951 21.75 35.75 C 21.75 36.988 22.762 38 24 38 C 25.238 38 26.25 36.988 26.25 35.75 C 26.25 34.951 25.822 34.209 25.125 33.804 L 25.125 32.375 L 28.5 32.375 C 28.5 32.375 30.75 32.375 30.75 30.125 L 30.75 29 C 31.373 29 31.875 28.498 31.875 27.875 L 31.875 25.625 C 31.875 25.002 31.373 24.5 30.75 24.5 L 28.5 24.5 C 27.877 24.5 27.375 25.002 27.375 25.625 L 27.375 27.875 C 27.375 28.498 27.877 29 28.5 29 L 28.5 30.125 L 25.125 30.125 L 25.125 24.5 L 26.813 24.5 L 24 20 Z " fill-rule="evenodd" fill="url(#_lgradient_15)"/></svg>