<?xml version="1.0" encoding="UTF-8" standalone="no"?><!-- Generator: Gravit.io --><svg xmlns="http://www.w3.org/2000/svg" xmlns:xlink="http://www.w3.org/1999/xlink" style="isolation:isolate" viewBox="0 0 48 48" width="48pt" height="48pt"><linearGradient id="_lgradient_23" x1="0" y1="0.5" x2="1" y2="0.5" gradientTransform="matrix(30.08,0,0,43.5,8.96,2.5)" gradientUnits="userSpaceOnUse"><stop offset="0%" stop-opacity="1" style="stop-color:rgb(84,51,255)"/><stop offset="51.73913043478261%" stop-opacity="1" style="stop-color:rgb(32,189,255)"/><stop offset="98.26086956521739%" stop-opacity="1" style="stop-color:rgb(165,254,203)"/></linearGradient><path d=" M 36.957 25.169 C 36.984 25.172 37.01 25.174 37.036 25.176 L 37.036 25.176 C 38.055 25.237 38.932 24.457 38.994 23.436 L 38.994 23.436 C 39.021 22.991 39.04 22.547 39.04 22.103 C 39.04 22.103 39.04 22.103 39.04 22.094 L 39.04 21.992 L 39.04 18.077 C 39.058 13.986 37.485 10.052 34.662 7.091 C 31.886 4.175 28.026 2.519 24 2.5 C 19.974 2.519 16.114 4.175 13.338 7.091 C 10.515 10.052 8.942 13.986 8.96 18.077 L 8.96 30.423 C 8.942 34.514 10.515 38.448 13.338 41.409 C 16.114 44.325 19.965 45.981 24 46 C 27.785 45.991 31.432 44.501 34.135 41.844 C 36.837 39.16 38.503 35.597 38.799 31.802 L 38.799 31.802 C 38.881 30.786 38.122 29.894 37.106 29.812 L 37.106 29.812 C 36.089 29.731 35.197 30.49 35.116 31.506 L 35.116 31.506 L 35.116 31.506 C 34.875 34.422 33.607 37.152 31.534 39.207 C 29.525 41.178 26.814 42.289 24 42.298 C 20.983 42.279 18.095 41.039 16.013 38.855 C 13.856 36.587 12.653 33.57 12.662 30.433 C 12.662 30.433 12.662 30.433 12.662 30.423 L 12.662 18.077 C 12.662 18.067 12.662 18.067 12.662 18.067 C 12.653 14.93 13.856 11.913 16.013 9.645 C 18.095 7.461 20.983 6.221 24 6.202 C 27.017 6.221 29.905 7.461 31.987 9.645 C 34.144 11.913 35.347 14.93 35.338 18.067 C 35.338 18.067 35.338 18.067 35.338 18.077 L 35.338 21.473 L 16.745 21.473 C 15.641 21.473 14.745 22.303 14.745 23.324 L 14.745 23.324 C 14.745 24.346 15.641 25.176 16.745 25.176 L 36.957 25.176 L 36.957 25.169 Z  M 24 10.069 L 24 10.069 C 25.022 10.069 25.851 10.928 25.851 11.985 L 25.851 16.084 C 25.851 17.142 25.022 18 24 18 L 24 18 C 22.978 18 22.149 17.142 22.149 16.084 L 22.149 11.985 C 22.149 10.928 22.978 10.069 24 10.069 L 24 10.069 Z " fill-rule="evenodd" fill="url(#_lgradient_23)"/></svg>