<svg height="16" width="16" xmlns="http://www.w3.org/2000/svg"><path d="M2.5 1C1.678 1 1 1.678 1 2.5v11c0 .822.678 1.5 1.5 1.5h11c.823 0 1.5-.678 1.5-1.5v-11c0-.822-.677-1.5-1.5-1.5zm0 1h11c.286 0 .5.214.5.5v11c0 .286-.214.5-.5.5h-11a.488.488 0 0 1-.5-.5v-11c0-.286.215-.5.5-.5zm4.701 2.002v1.187l-.175.063a3.33 3.33 0 0 0-.276.123l-.168.082-.834-.832c0-.003-.01-.004-.012-.006 0 .002-.012.004-.012.006l-1.1 1.1c.012-.011.012.03 0 .02l.833.835-.082.17a3.07 3.07 0 0 0-.121.273l-.065.178h-1.19v1.598h1.19l.065.178c.029.08.072.173.12.273l.083.17-.832.836c.01-.01.01.03 0 .02l1.1 1.099c-.012-.01.032-.01.022 0l.834-.832.168.082c.1.047.193.093.276.123l.175.062v1.188h1.6V10.81l.178-.062c.082-.03.173-.075.273-.123l.172-.082.832.832c-.011-.01.034-.01.023 0l1.1-1.1c-.011.011-.011-.03 0-.02l-.834-.835.082-.17c.048-.1.092-.192.12-.274l.065-.177h1.188V7.201h-1.188l-.064-.178a2.75 2.75 0 0 0-.121-.273l-.082-.17.834-.836c-.011.01-.011-.03 0-.02l-1.1-1.099c.011.01-.034.01-.022 0l-.834.832-.17-.082a3.18 3.18 0 0 0-.275-.123l-.176-.063V4.002zm.801 2.666c.733 0 1.332.6 1.332 1.332 0 .733-.599 1.332-1.332 1.332-.733 0-1.334-.6-1.334-1.332 0-.733.601-1.332 1.334-1.332z" fill="#dedede" overflow="visible" style="marker:none"/></svg>