<?xml version="1.0" encoding="UTF-8" standalone="no"?>
<svg
   id="svg8"
   version="1.1"
   height="496"
   width="496"
   xmlns="http://www.w3.org/2000/svg"
   xmlns:svg="http://www.w3.org/2000/svg"
   xmlns:rdf="http://www.w3.org/1999/02/22-rdf-syntax-ns#"
   xmlns:cc="http://creativecommons.org/ns#"
   xmlns:dc="http://purl.org/dc/elements/1.1/">
  <metadata
     id="metadata14">
    <rdf:RDF>
      <cc:Work
         rdf:about="">
        <dc:format>image/svg+xml</dc:format>
        <dc:type
           rdf:resource="http://purl.org/dc/dcmitype/StillImage" />
        <dc:title />
      </cc:Work>
    </rdf:RDF>
  </metadata>
  <defs
     id="defs12" />
  <path
     id="path4"
     d="m 247.93344,17.871894 c -20.49358,50.233214 -32.85373,83.091376 -55.67015,131.826236 13.9889,14.826 31.1605,32.09056 59.04738,51.59003 -29.98068,-12.33447 -50.43052,-24.71727 -65.71321,-37.56731 -29.20024,60.91971 -74.95051,147.69601 -167.7909,314.47259 72.96954,-42.11649 123.77827,-68.0824 176.49709,-77.99095 -2.26368,-9.73362 -3.55081,-20.26245 -3.46331,-31.24816 l 0.0805,-2.33732 c 1.15775,-46.73933 31.74236,-84.002 60.03547,-84.06511 28.29312,-0.0633 55.80715,46.15485 54.64917,92.8942 -0.2175,8.79569 -1.21012,17.25536 -2.94362,25.10278 52.1433,10.19855 103.4958,36.09772 175.4777,77.64456 -14.1938,-26.12472 -26.86242,-49.67506 -38.96013,-72.10451 -19.05704,-14.7673 -38.93365,-33.98597 -79.47881,-54.79276 27.86845,7.23979 47.82218,15.59244 63.3754,24.92903 C 300.07316,147.25839 290.11644,116.83076 247.92986,17.860386 Z"
     style="fill:#cccccc;fill-rule:evenodd;stroke-width:11.50832653" />
</svg>
