<?xml version="1.0" encoding="UTF-8" standalone="no"?>
<!-- Created with Inkscape (http://www.inkscape.org/) -->

<svg
   version="1.1"
   id="svg2"
   xml:space="preserve"
   width="496"
   height="496"
   viewBox="0 0 496 496"
   xmlns="http://www.w3.org/2000/svg"
   xmlns:svg="http://www.w3.org/2000/svg"><defs
     id="defs6" /><g
     id="g8"
     transform="matrix(1.3333333,0,0,-1.3333333,0,746.66667)"><g
       id="g3535"
       transform="matrix(1.1203307,0,0,1.1203307,-116.81136,-14.94012)"><g
         id="g54"
         transform="matrix(1.680604,0,0,1.680604,423.99221,497.23047)"
         style="fill:#cccccc;fill-opacity:1"><path
           d="m 0,0 c 9.895,-9.89 -17.535,-53.361 -22.171,-58 -4.637,-4.63 -16.413,-0.371 -26.305,9.522 -9.894,9.89 -14.156,21.67 -9.519,26.307 C -53.359,-17.533 -9.89,9.893 0,0"
           style="fill:#cccccc;fill-opacity:1;fill-rule:nonzero;stroke:none"
           id="path56" /></g><g
         id="g58"
         transform="matrix(1.680604,0,0,1.680604,190.81866,479.64379)"
         style="fill-opacity:1;fill:#cccccc"><path
           d="M 0,0 C -15.106,8.571 -36.597,18.104 -43.435,11.267 -50.364,4.341 -40.48,-17.636 -31.82,-32.769 -24.114,-19.37 -13.149,-8.09 0,0"
           style="fill:#cccccc;fill-opacity:1;fill-rule:nonzero;stroke:none"
           id="path60" /></g><g
         id="g62"
         transform="matrix(1.680604,0,0,1.680604,398.63593,405.48899)"
         style="fill:#cccccc;fill-opacity:1"><path
           d="m 0,0 c 1.39,-4.718 1.139,-8.616 -1.115,-10.867 -5.271,-5.271 -19.503,0.339 -32.332,12.55 -0.897,0.803 -1.784,1.636 -2.658,2.511 -4.637,4.641 -8.248,9.583 -10.557,14.132 -4.494,8.06 -5.618,15.18 -2.221,18.576 1.851,1.851 4.812,2.355 8.424,1.704 2.357,1.489 5.136,3.15 8.186,4.849 -12.4,6.467 -26.497,10.121 -41.453,10.121 -49.601,0 -89.814,-40.206 -89.814,-89.812 0,-49.599 40.213,-89.809 89.814,-89.809 49.602,0 89.815,40.21 89.815,89.809 0,16.019 -4.204,31.041 -11.551,44.063 C 2.952,4.931 1.408,2.275 0,0"
           style="fill:#cccccc;fill-opacity:1;fill-rule:nonzero;stroke:none"
           id="path64" /></g></g><g
       id="g22"
       transform="matrix(1.680604,0,0,1.680604,504.44542,140.54832)" /><g
       id="g34"
       transform="matrix(1.680604,0,0,1.680604,-5.3409333,90.456741)" /></g></svg>
