<?xml version="1.0" encoding="UTF-8" standalone="no"?>
<svg
   id="svg16"
   version="1"
   height="496"
   width="496"
   xmlns="http://www.w3.org/2000/svg"
   xmlns:svg="http://www.w3.org/2000/svg"
   xmlns:rdf="http://www.w3.org/1999/02/22-rdf-syntax-ns#"
   xmlns:cc="http://creativecommons.org/ns#"
   xmlns:dc="http://purl.org/dc/elements/1.1/">
  <metadata
     id="metadata22">
    <rdf:RDF>
      <cc:Work
         rdf:about="">
        <dc:format>image/svg+xml</dc:format>
        <dc:type
           rdf:resource="http://purl.org/dc/dcmitype/StillImage" />
        <dc:title />
      </cc:Work>
    </rdf:RDF>
  </metadata>
  <defs
     id="defs20" />
  <g
     id="g4"
     transform="matrix(0.063902,0,0,0.064257,3.3583,450.3601)"
     style="fill:#705db3">
    <path
       id="path2"
       d="m 3208.5873,-6664.1875 c -111.4456,2.8403 -221.0763,13.9377 -327.0025,33.3094 -1273.5088,232.8432 -2169.62347,1334.506 -2245.50934,2060.3757 -37.22554,356.1 154.83459,622.2976 260.70426,740.0185 286.22418,317.914 856.57788,561.129 1223.41048,762.3389 -530.1956,452.0165 -773.2554,672.5944 -1012.7753,924.0787 -358.35932,376.3224 -610.76447,790.5171 -611.53272,1087.1914 -0.27049,95.57774 -15.53661,400.25139 108.77064,640.77705 46.74941,90.49354 179.60587,392.391365 580.45538,618.45612 256.0483,144.48485 620.7718,197.59793 977.8998,146.63001 1105.2425,-157.71433 2585.6047,-1095.33614 3641.9175,-1968.34548 673.1553,-556.3496 1165.1847,-1095.4077 1307.3196,-1360.8784 114.6863,-214.2021 127.6435,-598.49 61.1189,-839.603 -189.0087,-684.9726 -1725.2864,-2088.0355 -2981.3519,-2652.734 -300.2558,-135.0016 -649.0876,-200.1358 -983.4248,-191.6149 z m 922.9967,1089.252 a 793.68409,659.13367 25.483077 0 1 431.6297,94.7772 793.68409,659.13367 25.483077 0 1 420.9251,939.188 793.68409,659.13367 25.483077 0 1 -1004.8337,242.4376 793.68409,659.13367 25.483077 0 1 -421.2704,-939.1879 793.68409,659.13367 25.483077 0 1 573.5493,-337.2149 z"
       style="fill:#cccccc;fill-rule:evenodd;stroke-width:11.29758358" />
  </g>
</svg>
