<?xml version="1.0" encoding="UTF-8" standalone="no"?>
<svg
   id="svg40"
   version="1.1"
   height="496"
   width="496"
   xmlns="http://www.w3.org/2000/svg"
   xmlns:svg="http://www.w3.org/2000/svg"
   xmlns:rdf="http://www.w3.org/1999/02/22-rdf-syntax-ns#"
   xmlns:cc="http://creativecommons.org/ns#"
   xmlns:dc="http://purl.org/dc/elements/1.1/">
  <metadata
     id="metadata46">
    <rdf:RDF>
      <cc:Work
         rdf:about="">
        <dc:format>image/svg+xml</dc:format>
        <dc:type
           rdf:resource="http://purl.org/dc/dcmitype/StillImage" />
        <dc:title />
      </cc:Work>
    </rdf:RDF>
  </metadata>
  <defs
     id="defs44" />
  <path
     id="path4"
     d="m 178.15569,26.101695 c -51.67616,0 -95.003815,16.766174 -95.003818,68.269865 -10e-7,24.00867 9.169213,48.54242 24.123158,67.96771 5.87851,6.10638 5.51387,9.91653 3.71126,17.02436 -3.20292,11.61441 -7.93183,25.47952 -12.27735,35.66682 -30.106709,28.97981 -36.71323,80.29381 -9.73126,113.58168 10.65053,17.1135 6.859926,42.07037 21.31814,59.03485 14.41787,20.28313 36.28772,38.01905 61.86145,40.11177 17.57736,24.40008 46.89696,39.53233 76.59858,40.24125 29.70162,-0.70925 59.02121,-15.84117 76.59859,-40.24125 25.57371,-2.09272 47.44357,-19.82864 61.86144,-40.11177 14.45822,-16.96448 10.6676,-41.92135 21.31815,-59.03485 26.98196,-33.28787 20.37543,-84.60198 -9.73127,-113.58168 -4.34551,-10.1873 -9.07443,-24.05241 -12.27735,-35.66682 -1.80262,-7.10783 -2.16726,-10.91798 3.71126,-17.02436 14.95395,-19.42529 24.12316,-43.95904 24.12316,-67.96771 0,-51.503691 -43.32765,-68.269865 -95.00382,-68.269865 -19.49191,0 -48.50524,17.628428 -70.60016,17.628428 -22.09491,0 -51.10824,-17.628428 -70.60016,-17.628428 z m 5.86896,55.237285 c 6.78869,2.52159 10.27896,5.78357 13.96037,8.99761 1.24825,-1.68927 3.18475,-2.93653 0.86313,-7.01249 4.82005,2.78628 8.44845,6.07456 11.13377,9.75281 2.98226,-1.90436 1.77433,-4.50449 1.7909,-6.90466 5.00926,4.08656 8.1919,8.41904 12.08316,12.66569 0.78381,-0.57226 1.46544,-2.49662 2.07139,-5.56682 11.95094,11.62734 28.83317,40.90653 4.33699,52.51851 -20.8368,-17.24696 -45.72645,-29.78163 -73.31887,-39.1839 35.46732,18.33801 56.0678,33.17375 67.3636,45.80807 -5.78477,23.25158 -35.9606,24.3223 -46.99485,23.67006 2.25935,-1.05503 4.14321,-2.33124 4.81169,-4.27227 -2.76884,-1.97341 -12.58696,-0.19444 -19.44094,-4.05641 2.6329,-0.54685 3.8822,-1.0937 5.11377,-3.04247 -6.47554,-2.07118 -13.46143,-3.84021 -17.56374,-7.27144 2.21385,0.0221 4.29381,0.47946 7.18517,-1.53195 -5.80008,-3.13471 -11.99991,-5.60835 -16.80853,-10.40018 2.99888,-0.0773 6.22355,-0.0332 7.16358,-1.14353 -5.30876,-3.29833 -9.77838,-6.97072 -13.48566,-10.98272 4.1967,0.50819 5.97647,0.0884 6.99096,-0.64738 -4.01288,-4.12202 -9.1005,-7.60794 -11.52215,-12.68734 3.11602,1.07713 5.97202,1.49804 8.02667,-0.0884 -1.3636,-3.08511 -7.20936,-4.917 -10.57276,-12.12635 3.28031,0.31927 6.7482,0.71808 7.44408,0 -1.52539,-6.22337 -4.12652,-9.71116 -6.68889,-13.33461 7.02066,-0.11048 17.65724,0.011 17.17535,-0.58221 l -4.33704,-4.44505 c 6.85757,-1.85167 13.87222,0.3038 18.96623,1.89873 2.28726,-1.81002 -0.0365,-4.09309 -2.8266,-6.42996 5.82789,0.77995 11.07731,2.11924 15.83757,3.97024 2.54329,-2.30295 -1.63911,-4.60171 -3.66809,-6.90466 9.00382,1.71313 12.82338,4.10612 16.61433,6.51623 2.75049,-2.64399 0.15157,-4.88342 -1.70459,-7.18516 z m 134.01515,0 c -1.85613,2.30174 -4.43349,4.54117 -1.683,7.18516 3.79096,-2.41011 7.58894,-4.80332 16.59276,-6.51623 -2.02898,2.30295 -6.21138,4.6017 -3.66811,6.90466 4.76028,-1.851 10.0097,-3.18996 15.83757,-3.97024 -2.79013,2.33687 -5.11383,4.61994 -2.82659,6.42995 5.09401,-1.59536 12.10868,-3.75039 18.96624,-1.89872 l -4.33698,4.44483 c -0.48189,0.59436 10.15469,0.47725 17.17533,0.5822 -2.56237,3.62346 -5.16351,7.11125 -6.68889,13.33462 0.69588,0.71808 4.16379,0.31927 7.44409,0 -3.36341,7.20935 -9.20916,9.04124 -10.57276,12.12635 2.05465,1.5842 4.91066,1.1633 8.02667,0.0884 -2.42164,5.0794 -7.48771,8.56542 -11.50058,12.68734 1.01449,0.73355 2.77269,1.15534 6.9694,0.64738 -3.70728,4.012 -8.17691,7.68439 -13.48567,10.98272 0.94002,1.10596 4.1647,1.06939 7.16359,1.14352 -4.80863,4.79184 -10.98688,7.26547 -16.78696,10.40019 2.89135,2.01097 4.94973,1.55957 7.16358,1.53195 -4.10231,3.43123 -11.06663,5.20026 -17.54214,7.27144 1.23154,1.94877 2.45927,2.4954 5.09218,3.04247 -6.85399,3.86164 -16.67211,2.083 -19.44094,4.0564 0.66848,1.94104 2.55233,3.21757 4.81168,4.27228 -11.03423,0.6518 -41.21007,-0.4187 -46.99484,-23.67007 11.29579,-12.63431 31.89628,-27.47005 67.36359,-45.80806 -27.59241,9.40227 -52.48207,21.93694 -73.31886,39.1839 -24.49621,-11.61198 -7.61394,-40.89117 4.33699,-52.51851 0.60595,3.0702 1.30916,4.99444 2.09298,5.56681 3.89125,-4.24664 7.05232,-8.57912 12.06158,-12.66569 0.0166,2.40017 -1.19136,5.0003 1.79089,6.90466 2.68532,-3.67836 6.33531,-6.96652 11.15535,-9.7528 -2.32166,4.07596 -0.40666,5.32322 0.84148,7.01248 3.68144,-3.21381 7.17168,-6.4758 13.96037,-8.99738 z m -67.55778,95.78058 c 17.37043,-0.19223 38.88173,12.99048 38.79556,25.41777 -0.0762,10.96869 -15.0912,19.84753 -38.64452,19.67828 -23.06424,-0.27619 -38.61235,-11.14247 -38.55821,-21.77122 0.0453,-8.74738 18.83157,-23.83545 38.40717,-23.32483 z m -59.09958,7.40091 c 3.88297,-0.0773 7.89703,0.2331 11.99684,0.92799 12.08245,2.03582 -57.9128,63.32259 -58.9917,49.64882 -0.96124,-31.20885 19.814,-50.06918 46.99486,-50.57659 z m 114.61737,1.03515 c 27.18084,0.50708 47.95609,19.38928 46.99485,50.59824 -1.0789,13.67377 -71.07415,-47.63465 -58.9917,-49.67037 4.09982,-0.69378 8.11387,-1.0009 11.99685,-0.92798 z m -11.56531,38.08357 a 45.046857,38.137683 56.426594 0 1 29.56058,80.63351 45.046857,38.137683 56.426594 1 1 -49.56252,-75.21772 45.046857,38.137683 56.426594 0 1 20.00194,-5.41579 z m -85.83357,2.07139 a 38.137683,45.046857 33.573406 0 1 18.31894,5.43745 38.137683,45.046857 33.573406 1 1 -49.58411,75.21761 38.137683,45.046857 33.573406 0 1 29.58217,-80.63351 38.137683,45.046857 33.573406 0 1 1.683,-0.0221 z m 149.96061,23.30318 c 31.53617,18.06016 26.07202,58.23789 9.06237,71.9596 -15.46363,6.88931 -28.06987,-77.06706 -9.06237,-71.9596 z m -219.61137,1.03515 c 19.00749,-5.10746 6.40127,78.87045 -9.06238,71.98114 -17.00964,-13.72171 -22.4738,-53.92098 9.06238,-71.98114 z m 113.79744,54.05057 a 42.484004,39.287753 0 0 1 41.23377,39.27028 42.485241,39.288898 0 0 1 -84.97048,0 42.484004,39.287753 0 0 1 43.73671,-39.27028 z m 92.65192,14.62926 c 3.31845,-0.0884 6.43403,0.84845 9.23498,3.02082 7.54227,7.53425 11.95253,35.91252 -1.25147,52.90694 -18.18393,25.30342 -42.78729,26.27306 -51.95757,19.22522 -9.59109,-9.07361 -2.27218,-37.22628 10.87484,-52.66963 11.28324,-12.77672 23.14387,-22.22307 33.09922,-22.48335 z m -190.71968,6.01998 c 10.69608,0.45958 23.50373,8.93231 33.9623,21.10241 12.15123,14.68119 17.69252,40.49203 7.55197,48.09522 -9.59355,5.80422 -32.89537,3.4014 -49.45463,-20.45503 -11.16779,-20.01855 -9.71823,-40.38442 -1.87721,-46.36905 2.9315,-1.79091 6.25221,-2.52678 9.81757,-2.37355 z m 97.01048,70.31972 c 17.06741,-0.74681 39.95859,5.52649 40.00388,13.83087 0.28326,8.0642 -20.77112,26.26632 -41.14747,25.91402 -21.10223,0.91252 -41.78548,-17.3233 -41.51427,-23.64841 -0.31584,-9.2739 25.69714,-16.52203 42.65786,-16.09648 z"
     style="fill:#cccccc;stroke-width:11.0474577" />
</svg>
