<svg width="400" height="400" viewBox="0 0 400 400" fill="none" xmlns="http://www.w3.org/2000/svg">
<mask id="path-1-inside-1_1_2" fill="white">
<path d="M201.5 21.6C201.5 15.5014 201.5 12.4522 202.846 9.98781C203.959 7.94905 206.036 6.06184 208.171 5.14767C210.752 4.04266 213.526 4.308 219.074 4.83869C237.539 6.60517 255.674 11.1493 272.87 18.3487C290.151 25.5832 306.225 35.3908 320.571 47.4184C324.808 50.9713 326.927 52.7477 327.953 55.337C328.802 57.4818 328.932 60.2568 328.285 62.4713C327.504 65.1446 325.379 67.2927 321.128 71.5889L286.543 106.545C282.207 110.927 280.04 113.118 277.839 113.967C275.656 114.809 274.04 114.949 271.746 114.495C269.431 114.038 266.452 111.921 260.492 107.686C254.346 103.319 247.728 99.6368 240.754 96.7168C233.745 93.7824 226.452 91.65 219.012 90.3471C211.869 89.0961 208.297 88.4706 206.356 87.1636C204.429 85.8662 203.398 84.6386 202.453 82.5168C201.5 80.3794 201.5 77.3279 201.5 71.225L201.5 21.6Z"/>
</mask>
<path d="M201.5 21.6C201.5 15.5014 201.5 12.4522 202.846 9.98781C203.959 7.94905 206.036 6.06184 208.171 5.14767C210.752 4.04266 213.526 4.308 219.074 4.83869C237.539 6.60517 255.674 11.1493 272.87 18.3487C290.151 25.5832 306.225 35.3908 320.571 47.4184C324.808 50.9713 326.927 52.7477 327.953 55.337C328.802 57.4818 328.932 60.2568 328.285 62.4713C327.504 65.1446 325.379 67.2927 321.128 71.5889L286.543 106.545C282.207 110.927 280.04 113.118 277.839 113.967C275.656 114.809 274.04 114.949 271.746 114.495C269.431 114.038 266.452 111.921 260.492 107.686C254.346 103.319 247.728 99.6368 240.754 96.7168C233.745 93.7824 226.452 91.65 219.012 90.3471C211.869 89.0961 208.297 88.4706 206.356 87.1636C204.429 85.8662 203.398 84.6386 202.453 82.5168C201.5 80.3794 201.5 77.3279 201.5 71.225L201.5 21.6Z" fill="#1E1E1E" fill-opacity="0.85" stroke="#626262" stroke-width="2.8" mask="url(#path-1-inside-1_1_2)"/>
</svg>
