<svg width="400" height="400" viewBox="0 0 400 400" fill="none" xmlns="http://www.w3.org/2000/svg">
<mask id="path-1-inside-1_1_2" fill="white">
<path d="M200.5 23.6C200.5 17.5014 200.5 14.4522 201.846 11.9878C202.959 9.94905 205.036 8.06184 207.171 7.14767C209.752 6.04266 212.526 6.308 218.074 6.83869C236.539 8.60517 254.674 13.1493 271.87 20.3487C289.151 27.5832 305.225 37.3908 319.571 49.4184C323.808 52.9713 325.927 54.7477 326.953 57.337C327.802 59.4818 327.932 62.2568 327.285 64.4713C326.504 67.1446 324.379 69.2927 320.128 73.5889L285.543 108.545C281.207 112.927 279.04 115.118 276.839 115.967C274.656 116.809 273.04 116.949 270.746 116.495C268.431 116.038 265.452 113.921 259.492 109.686C253.346 105.319 246.728 101.637 239.754 98.7168C232.745 95.7824 225.452 93.65 218.012 92.3471C210.869 91.0961 207.297 90.4706 205.356 89.1636C203.429 87.8662 202.398 86.6386 201.453 84.5168C200.5 82.3794 200.5 79.3279 200.5 73.225L200.5 23.6Z"/>
</mask>
<path d="M200.5 23.6C200.5 17.5014 200.5 14.4522 201.846 11.9878C202.959 9.94905 205.036 8.06184 207.171 7.14767C209.752 6.04266 212.526 6.308 218.074 6.83869C236.539 8.60517 254.674 13.1493 271.87 20.3487C289.151 27.5832 305.225 37.3908 319.571 49.4184C323.808 52.9713 325.927 54.7477 326.953 57.337C327.802 59.4818 327.932 62.2568 327.285 64.4713C326.504 67.1446 324.379 69.2927 320.128 73.5889L285.543 108.545C281.207 112.927 279.04 115.118 276.839 115.967C274.656 116.809 273.04 116.949 270.746 116.495C268.431 116.038 265.452 113.921 259.492 109.686C253.346 105.319 246.728 101.637 239.754 98.7168C232.745 95.7824 225.452 93.65 218.012 92.3471C210.869 91.0961 207.297 90.4706 205.356 89.1636C203.429 87.8662 202.398 86.6386 201.453 84.5168C200.5 82.3794 200.5 79.3279 200.5 73.225L200.5 23.6Z" fill="#1E1E1E" fill-opacity="0.85" stroke="#626262" stroke-width="2.8" mask="url(#path-1-inside-1_1_2)"/>
<mask id="path-2-inside-2_1_2" fill="white">
<path d="M327.479 80.0884C331.757 75.9008 333.896 73.807 336.552 73.0372C338.753 72.3996 341.508 72.5272 343.64 73.3656C346.214 74.3776 347.985 76.4655 351.527 80.6412C375.691 109.124 390.543 144.081 394.144 180.927C394.684 186.461 394.955 189.228 393.852 191.814C392.941 193.951 391.05 196.036 389.012 197.151C386.545 198.5 383.497 198.5 377.4 198.5L327.775 198.5C321.676 198.5 318.626 198.5 316.494 197.552C314.371 196.609 313.154 195.591 311.852 193.667C310.543 191.735 309.902 188.154 308.621 180.991C306.008 166.396 300.159 152.533 291.491 140.387C287.195 134.368 285.047 131.359 284.587 129.032C284.131 126.721 284.274 125.103 285.129 122.908C285.989 120.698 288.213 118.521 292.66 114.169L327.479 80.0884Z"/>
</mask>
<path d="M327.479 80.0884C331.757 75.9008 333.896 73.807 336.552 73.0372C338.753 72.3996 341.508 72.5272 343.64 73.3656C346.214 74.3776 347.985 76.4655 351.527 80.6412C375.691 109.124 390.543 144.081 394.144 180.927C394.684 186.461 394.955 189.228 393.852 191.814C392.941 193.951 391.05 196.036 389.012 197.151C386.545 198.5 383.497 198.5 377.4 198.5L327.775 198.5C321.676 198.5 318.626 198.5 316.494 197.552C314.371 196.609 313.154 195.591 311.852 193.667C310.543 191.735 309.902 188.154 308.621 180.991C306.008 166.396 300.159 152.533 291.491 140.387C287.195 134.368 285.047 131.359 284.587 129.032C284.131 126.721 284.274 125.103 285.129 122.908C285.989 120.698 288.213 118.521 292.66 114.169L327.479 80.0884Z" fill="#1E1E1E" fill-opacity="0.85" stroke="#626262" stroke-width="2.8" mask="url(#path-2-inside-2_1_2)"/>
<mask id="path-3-inside-3_1_2" fill="white">
<path d="M377.4 202.5C383.497 202.5 386.545 202.5 389.012 203.849C391.05 204.964 392.941 207.049 393.852 209.186C394.955 211.772 394.684 214.539 394.144 220.073C390.543 256.919 375.691 291.876 351.527 320.359C347.985 324.534 346.214 326.622 343.64 327.634C341.508 328.473 338.753 328.6 336.552 327.963C333.896 327.193 331.757 325.099 327.479 320.912L292.66 286.831C288.213 282.479 285.989 280.302 285.129 278.092C284.274 275.897 284.131 274.279 284.587 271.968C285.047 269.641 287.195 266.632 291.491 260.613C300.159 248.467 306.008 234.604 308.621 220.009C309.902 212.846 310.543 209.265 311.852 207.333C313.154 205.409 314.371 204.391 316.494 203.448C318.626 202.5 321.676 202.5 327.775 202.5L377.4 202.5Z"/>
</mask>
<path d="M377.4 202.5C383.497 202.5 386.545 202.5 389.012 203.849C391.05 204.964 392.941 207.049 393.852 209.186C394.955 211.772 394.684 214.539 394.144 220.073C390.543 256.919 375.691 291.876 351.527 320.359C347.985 324.534 346.214 326.622 343.64 327.634C341.508 328.473 338.753 328.6 336.552 327.963C333.896 327.193 331.757 325.099 327.479 320.912L292.66 286.831C288.213 282.479 285.989 280.302 285.129 278.092C284.274 275.897 284.131 274.279 284.587 271.968C285.047 269.641 287.195 266.632 291.491 260.613C300.159 248.467 306.008 234.604 308.621 220.009C309.902 212.846 310.543 209.265 311.852 207.333C313.154 205.409 314.371 204.391 316.494 203.448C318.626 202.5 321.676 202.5 327.775 202.5L377.4 202.5Z" fill="#1E1E1E" fill-opacity="0.85" stroke="#626262" stroke-width="2.8" mask="url(#path-3-inside-3_1_2)"/>
<mask id="path-4-inside-4_1_2" fill="white">
<path d="M320.128 327.411C324.379 331.707 326.504 333.856 327.285 336.529C327.932 338.743 327.803 341.518 326.953 343.663C325.928 346.252 323.809 348.029 319.57 351.583C290.742 375.755 255.361 390.596 218.075 394.162C212.526 394.692 209.752 394.958 207.171 393.853C205.035 392.938 202.959 391.051 201.846 389.012C200.5 386.548 200.5 383.499 200.5 377.4L200.5 327.775C200.5 321.672 200.5 318.621 201.453 316.484C202.398 314.362 203.429 313.134 205.356 311.837C207.297 310.53 210.869 309.904 218.013 308.653C232.934 306.04 247.104 300.117 259.492 291.314C265.452 287.08 268.432 284.963 270.746 284.505C273.041 284.051 274.657 284.191 276.839 285.033C279.04 285.882 281.208 288.073 285.543 292.455L320.128 327.411Z"/>
</mask>
<path d="M320.128 327.411C324.379 331.707 326.504 333.856 327.285 336.529C327.932 338.743 327.803 341.518 326.953 343.663C325.928 346.252 323.809 348.029 319.57 351.583C290.742 375.755 255.361 390.596 218.075 394.162C212.526 394.692 209.752 394.958 207.171 393.853C205.035 392.938 202.959 391.051 201.846 389.012C200.5 386.548 200.5 383.499 200.5 377.4L200.5 327.775C200.5 321.672 200.5 318.621 201.453 316.484C202.398 314.362 203.429 313.134 205.356 311.837C207.297 310.53 210.869 309.904 218.013 308.653C232.934 306.04 247.104 300.117 259.492 291.314C265.452 287.08 268.432 284.963 270.746 284.505C273.041 284.051 274.657 284.191 276.839 285.033C279.04 285.882 281.208 288.073 285.543 292.455L320.128 327.411Z" fill="#1E1E1E" fill-opacity="0.85" stroke="#626262" stroke-width="2.8" mask="url(#path-4-inside-4_1_2)"/>
<mask id="path-5-inside-5_1_2" fill="white">
<path d="M194.5 377.4C194.5 383.501 194.5 386.551 193.157 389.013C192.045 391.053 189.978 392.936 187.843 393.853C185.267 394.96 182.486 394.7 176.924 394.179C139.197 390.648 103.393 375.817 74.2186 351.637C69.9177 348.073 67.7673 346.29 66.7284 343.686C65.8679 341.528 65.7374 338.734 66.3931 336.506C67.1847 333.815 69.3416 331.659 73.6555 327.345L108.746 292.254C113.063 287.937 115.222 285.778 117.414 284.94C119.584 284.111 121.197 283.974 123.476 284.425C125.778 284.88 128.728 286.967 134.63 291.142C147.26 300.075 161.736 306.071 176.984 308.685C184.109 309.906 187.671 310.517 189.621 311.823C191.551 313.115 192.595 314.353 193.543 316.474C194.5 318.616 194.5 321.669 194.5 327.775L194.5 377.4Z"/>
</mask>
<path d="M194.5 377.4C194.5 383.501 194.5 386.551 193.157 389.013C192.045 391.053 189.978 392.936 187.843 393.853C185.267 394.96 182.486 394.7 176.924 394.179C139.197 390.648 103.393 375.817 74.2186 351.637C69.9177 348.073 67.7673 346.29 66.7284 343.686C65.8679 341.528 65.7374 338.734 66.3931 336.506C67.1847 333.815 69.3416 331.659 73.6555 327.345L108.746 292.254C113.063 287.937 115.222 285.778 117.414 284.94C119.584 284.111 121.197 283.974 123.476 284.425C125.778 284.88 128.728 286.967 134.63 291.142C147.26 300.075 161.736 306.071 176.984 308.685C184.109 309.906 187.671 310.517 189.621 311.823C191.551 313.115 192.595 314.353 193.543 316.474C194.5 318.616 194.5 321.669 194.5 327.775L194.5 377.4Z" fill="#1E1E1E" fill-opacity="0.85" stroke="#626262" stroke-width="2.8" mask="url(#path-5-inside-5_1_2)"/>
</svg>
