<?xml version="1.0" encoding="utf-8"?>
<svg viewBox="0 0 100 100" xmlns="http://www.w3.org/2000/svg">
  <defs>
    <clipPath id="clip-2">
      <rect x="-240" y="-180" transform="scale(0.5,0.5)" width="1440" height="1080" fill="none" stroke-width="0.5"/>
    </clipPath>
  </defs>
  <g transform="matrix(1, 0, 0, 1, -189.999952, -129.999998)">
    <g clip-path="url(#clip-2)" data-paper-data="{&quot;isPaintingLayer&quot;:true}" fill-rule="nonzero" stroke="none" stroke-linecap="butt" stroke-linejoin="miter" stroke-miterlimit="10" stroke-dasharray="" stroke-dashoffset="0" style="mix-blend-mode: normal">
      <path d="M224.9523,139.31178c-5.2017,0 -10.0318,2.78872 -12.6327,7.30372l-15.04776,26.0808c-2.60085,4.515 -2.60085,10.0924 0,14.6074l15.04776,26.0808c2.6009,4.515 7.431,7.3037 12.6327,7.3037h30.0956c5.2017,0 10.0318,-2.7887 12.6327,-7.3037l15.0477,-26.0808c2.6009,-4.515 2.6009,-10.0924 0,-14.6074l-15.0477,-26.0808c-2.6009,-4.515 -7.431,-7.30372 -12.6327,-7.30372zM272.2719,143.9596l15.0743,26.0808c3.5558,6.1617 3.5558,13.7575 0,19.9192l-15.0478,26.0808c-3.5563,6.1617 -10.138,9.9596 -17.2505,9.9596h-30.0956c-7.1125,0 -13.6943,-3.7979 -17.2505,-9.9596l-15.04779,-26.0808c-3.55627,-6.1617 -3.55627,-13.7575 0,-19.9192l15.04779,-26.0808c3.5562,-6.16168 10.138,-9.9596 17.2505,-9.9596h30.0956c7.1125,0 13.6942,3.79792 17.224,9.9596z" fill="#000000" stroke-width="1"/>
      <path d="M259.3737,192.5889h-33.5457c-2.2027,0 -3.9809,-1.7794 -3.9809,-3.9838v-21.7252l-5.7059,-5.179c-1.6189,-1.4873 -1.7516,-3.9838 -0.2654,-5.6305c1.4862,-1.6201 3.9809,-1.7529 5.6263,-0.2656l7.0064,6.3476c0.8227,0.7437 1.3004,1.8326 1.3004,2.9481v19.5207h25.5839v-11.4734l-16.189,-2.1778c-2.1762,-0.2922 -3.7155,-2.3107 -3.4235,-4.4885c0.2919,-2.1778 2.2823,-3.7182 4.4851,-3.4261l19.6391,2.6293c1.9639,0.2656 3.4501,1.9654 3.4501,3.9573v18.9365c0,2.231 -1.7782,4.0104 -3.9809,4.0104z" fill="#000000" stroke-width="1"/>
      <path d="M251.1465,201.2471c0,-2.2002 1.7823,-3.9838 3.9809,-3.9838c2.1986,0 3.9809,1.7836 3.9809,3.9838c0,2.2002 -1.7823,3.9838 -3.9809,3.9838c-2.1986,0 -3.9809,-1.7836 -3.9809,-3.9838z" fill="#000000" stroke-width="1"/>
      <path d="M225.138,201.2471c0,-2.2002 1.7823,-3.9838 3.9809,-3.9838c2.1986,0 3.9809,1.7836 3.9809,3.9838c0,2.2002 -1.7823,3.9838 -3.9809,3.9838c-2.1986,0 -3.9809,-1.7836 -3.9809,-3.9838z" fill="#000000" stroke-width="1"/>
    </g>
  </g>
</svg>