<?xml version="1.0" encoding="UTF-8" standalone="no"?>
<svg
   width="20"
   height="20"
   viewBox="0 0 20 20"
   fill="none"
   version="1.1"
   id="svg9"
   sodipodi:docname="oxygen.svg"
   inkscape:version="1.3.2 (091e20ef0f, 2023-11-25, custom)"
   xmlns:inkscape="http://www.inkscape.org/namespaces/inkscape"
   xmlns:sodipodi="http://sodipodi.sourceforge.net/DTD/sodipodi-0.dtd"
   xmlns="http://www.w3.org/2000/svg"
   xmlns:svg="http://www.w3.org/2000/svg">
  <defs
     id="defs9" />
  <sodipodi:namedview
     id="namedview9"
     pagecolor="#ffffff"
     bordercolor="#000000"
     borderopacity="0.25"
     inkscape:showpageshadow="2"
     inkscape:pageopacity="0.0"
     inkscape:pagecheckerboard="0"
     inkscape:deskcolor="#d1d1d1"
     inkscape:zoom="7.6782609"
     inkscape:cx="-11.916761"
     inkscape:cy="11.786523"
     inkscape:window-width="1627"
     inkscape:window-height="1028"
     inkscape:window-x="0"
     inkscape:window-y="0"
     inkscape:window-maximized="1"
     inkscape:current-layer="svg9" />
  <g
     id="g9"
     transform="translate(0.7158741,-0.307456)">
    <path
       d="m 12.821126,8.892686 c 0,2.99523 -2.42813,5.42337 -5.4233602,5.42337 -2.99523,0 -5.42334,-2.42814 -5.42334,-5.42337 0,-2.99523 2.42811,-5.42334 5.42334,-5.42334 2.9952302,0 5.4233602,2.42811 5.4233602,5.42334 z"
       fill="white"
       id="path7"
       style="fill:#000000" />
    <path
       d="m 16.593826,4.412536 c 0,1.04182 -0.8445,1.88638 -1.8863,1.88638 -1.0419,0 -1.8864,-0.84456 -1.8864,-1.88638 0,-1.041819 0.8445,-1.88638 1.8864,-1.88638 1.0418,0 1.8863,0.844561 1.8863,1.88638 z"
       fill="white"
       id="path8"
       style="fill:#000000" />
    <path
       d="m 16.593826,15.495056 c 0,1.4325 -1.1612,2.5937 -2.5937,2.5937 -1.4325,0 -2.5938,-1.1612 -2.5938,-2.5937 0,-1.4325 1.1613,-2.5938 2.5938,-2.5938 1.4325,0 2.5937,1.1613 2.5937,2.5938 z"
       fill="white"
       id="path9"
       style="fill:#000000" />
  </g>
</svg>
