<?xml version="1.0" encoding="UTF-8" standalone="no"?>
<!-- Created with Inkscape (http://www.inkscape.org/) -->

<svg
   version="1.0"
   width="20"
   height="19.999941"
   id="svg2424"
   sodipodi:docname="archlinux-logo-black-scalable.f931920e6cdb.svg"
   viewBox="0 0 166.18749 166.187"
   inkscape:version="1.3.2 (091e20ef0f, 2023-11-25)"
   xmlns:inkscape="http://www.inkscape.org/namespaces/inkscape"
   xmlns:sodipodi="http://sodipodi.sourceforge.net/DTD/sodipodi-0.dtd"
   xmlns:xlink="http://www.w3.org/1999/xlink"
   xmlns="http://www.w3.org/2000/svg"
   xmlns:svg="http://www.w3.org/2000/svg">
  <sodipodi:namedview
     id="namedview1"
     pagecolor="#505050"
     bordercolor="#ffffff"
     borderopacity="1"
     inkscape:showpageshadow="0"
     inkscape:pageopacity="0"
     inkscape:pagecheckerboard="1"
     inkscape:deskcolor="#505050"
     inkscape:zoom="16.650008"
     inkscape:cx="13.093087"
     inkscape:cy="16.366359"
     inkscape:window-width="1340"
     inkscape:window-height="768"
     inkscape:window-x="0"
     inkscape:window-y="0"
     inkscape:window-maximized="1"
     inkscape:current-layer="g2424" />
  <defs
     id="defs2426">
    <linearGradient
       x1="112.49854"
       y1="6.1372099"
       x2="112.49853"
       y2="129.3468"
       id="path1082_2_"
       gradientUnits="userSpaceOnUse"
       gradientTransform="translate(287,-83)">
      <stop
         id="stop193"
         style="stop-color:#ffffff;stop-opacity:0"
         offset="0" />
      <stop
         id="stop195"
         style="stop-color:#ffffff;stop-opacity:0.27450982"
         offset="1" />
      <midPointStop
         offset="0"
         style="stop-color:#FFFFFF"
         id="midPointStop197" />
      <midPointStop
         offset="0.5"
         style="stop-color:#FFFFFF"
         id="midPointStop199" />
      <midPointStop
         offset="1"
         style="stop-color:#000000"
         id="midPointStop201" />
    </linearGradient>
    <linearGradient
       x1="541.33502"
       y1="104.50665"
       x2="606.91248"
       y2="303.14029"
       id="linearGradient2544"
       xlink:href="#path1082_2_"
       gradientUnits="userSpaceOnUse"
       gradientTransform="matrix(-0.3937741,0,0,0.393752,357.51969,122.00151)" />
    <linearGradient
       id="linearGradient3388">
      <stop
         id="stop3390"
         style="stop-color:#000000;stop-opacity:0"
         offset="0" />
      <stop
         id="stop3392"
         style="stop-color:#000000;stop-opacity:0.37113401"
         offset="1" />
    </linearGradient>
    <linearGradient
       x1="490.72305"
       y1="237.72447"
       x2="490.72305"
       y2="183.9644"
       id="linearGradient4416"
       xlink:href="#linearGradient3388"
       gradientUnits="userSpaceOnUse"
       gradientTransform="matrix(0.749107,0,0,0.749107,-35.459862,91.44108)" />
  </defs>
  <g
     transform="translate(-57.527313,-146.42741)"
     id="layer1">
    <g
       transform="matrix(0.8746356,0,0,0.8746356,14.730518,23.408954)"
       id="g2424"
       style="fill:#000000">
      <g
         transform="matrix(0.6378586,0,0,0.6378586,36.486487,2.17139)"
         id="g2809"
         style="fill:#000000;fill-opacity:1" />
      <path
         d="m 143.91698,140.65081 c -8.45709,20.73453 -13.55799,34.29734 -22.97385,54.41552 5.7731,6.11948 12.85931,13.24593 24.36729,21.29458 -12.37221,-5.09109 -20.81157,-10.20242 -27.11844,-15.50646 -12.0505,25.14523 -30.930177,60.96349 -69.243121,129.80406 30.112687,-17.38458 53.455511,-28.10236 75.209891,-32.19198 -0.93414,-4.01773 -1.46524,-8.36369 -1.42916,-12.89823 l 0.0357,-0.96469 c 0.47781,-19.2924 10.51371,-34.12825 22.40218,-33.12093 11.88848,1.00732 21.12927,17.4729 20.65146,36.76531 -0.0899,3.63022 -0.49934,7.12245 -1.21479,10.36146 21.51819,4.20934 44.61141,14.89968 74.31666,32.04906 -5.85729,-10.78369 -11.08544,-20.5044 -16.07812,-29.7624 -7.86429,-6.09535 -16.06714,-14.02847 -32.79938,-22.61656 11.50078,2.98839 19.73519,6.43619 26.15375,10.29 -50.76203,-94.51003 -54.87267,-107.06846 -72.2801,-147.91874 z"
         id="path2518"
         style="fill:#000000;fill-opacity:1;fill-rule:evenodd;stroke:none;stroke-width:1.14333" />
    </g>
  </g>
</svg>
