<svg width="24" height="24" version="1.1" xmlns="http://www.w3.org/2000/svg">
 <defs>
  <style id="current-color-scheme" type="text/css">.ColorScheme-Text { color:#363636; }</style>
 </defs>
 <g class="ColorScheme-Text" transform="translate(3.9999 4)" fill="currentColor">
  <path d="m5 2c-1.4995 0-2.5425 1.0366-2.9316 2.0332l-2.8691 7.4844c-0.003232 0.0076-0.004654 0.01581-0.007813 0.02344l-0.058594 0.15039h0.011719c-0.08705 0.25475-0.14453 0.52362-0.14453 0.80859 0 1.385 1.115 2.5 2.5 2.5h13c1.385 0 2.5-1.115 2.5-2.5 0-0.28498-0.05748-0.55384-0.14453-0.80859h0.01172l-0.05859-0.15039-0.0039-0.01563c-0.0011-0.0027-0.0028-0.0051-0.0039-0.0078l-2.8692-7.4844c-0.38916-0.99659-1.4322-2.0332-2.9316-2.0332h-3zm0 1h6c1.108 0 1.7085 0.6499 2 1.3965l2.1875 5.7109c-0.21961-0.0627-0.44722-0.10742-0.6875-0.10742h-13c-0.24028 0-0.46789 0.04472-0.6875 0.10742l2.1875-5.7109c0.29153-0.74658 0.892-1.3965 2-1.3965zm-3.5 8h13c0.831 0 1.5 0.669 1.5 1.5s-0.669 1.5-1.5 1.5h-13c-0.831 0-1.5-0.669-1.5-1.5s0.669-1.5 1.5-1.5z"/>
  <circle cx="12.5" cy="12.5" r=".5"/>
 </g>
</svg>
