<svg width="24" height="24" version="1.1" xmlns="http://www.w3.org/2000/svg">
 <defs>
  <style id="current-color-scheme" type="text/css">.ColorScheme-Text { color:#363636; } .ColorScheme-Highlight { color:#5294e2; }</style>
 </defs>
 <g class="ColorScheme-Text" fill="currentColor">
  <path x="4" d="m7.9804 3.0001c-1.0865 0-1.9609 0.87448-1.9609 1.9609v14.078c0 1.0865 0.87448 1.9609 1.9609 1.9609h8.0391c1.0865 0 1.9609-0.87448 1.9609-1.9609v-14.078c0-1.0865-0.87448-1.9609-1.9609-1.9609zm0.039062 1h7.961c0.554 0 1 0.446 1 1v14c0 0.554-0.446 1-1 1h-7.961c-0.554 0-1-0.446-1-1v-14c0-0.554 0.446-1 1-1z"/>
  <rect x="9.0196" y="3.0001" width="6" height="2" rx="1" ry="1"/>
  <rect x="9" y="18.5" width="6" height=".5" rx=".25" ry=".25" opacity=".5"/>
 </g>
</svg>
