<svg width="24" height="24" fill="none" viewBox="0 0 24 24" xmlns="http://www.w3.org/2000/svg"><path d="M12 2.004c1.875 0 3.334 1.206 3.928 3.003a.75.75 0 1 1-1.425.47C14.102 4.262 13.185 3.504 12 3.504c-1.407 0-2.42.958-2.496 2.551l-.005.195v1.749h8.251a2.25 2.25 0 0 1 2.245 2.097l.005.154v9.496a2.25 2.25 0 0 1-2.096 2.245l-.154.005H6.25A2.25 2.25 0 0 1 4.005 19.9L4 19.746V10.25a2.25 2.25 0 0 1 2.096-2.245L6.25 8l1.749-.001v-1.75C8 3.712 9.71 2.005 12 2.005ZM17.75 9.5H6.25a.75.75 0 0 0-.743.648l-.007.102v9.496c0 .38.282.693.648.743l.102.007h11.5a.75.75 0 0 0 .743-.648l.007-.102V10.25a.75.75 0 0 0-.648-.744L17.75 9.5Zm-5.75 4a1.499 1.499 0 1 1 0 2.996 1.499 1.499 0 0 1 0-2.997Z" fill="#212121"/></svg>