<svg width="24" height="24" fill="none" viewBox="0 0 24 24" xmlns="http://www.w3.org/2000/svg"><path d="M3.5 13h9.309A6.478 6.478 0 0 0 11 17.5c0 1.087.267 2.112.739 3.013-1.05.35-2.208.487-3.239.487-2.722 0-6.335-.956-6.495-4.27L2 16.5v-2a1.5 1.5 0 0 1 1.356-1.493L3.5 13ZM21 7.5a3.5 3.5 0 1 1-7 0 3.5 3.5 0 0 1 7 0ZM8.5 2a4.5 4.5 0 1 1 0 9 4.5 4.5 0 0 1 0-9Zm5.777 11.975a2 2 0 0 1-1.441 2.497l-.584.144a5.729 5.729 0 0 0 .006 1.807l.54.13a2 2 0 0 1 1.45 2.51l-.187.632c.44.386.94.699 1.485.921l.493-.518a2 2 0 0 1 2.899 0l.499.525a5.282 5.282 0 0 0 1.482-.913l-.198-.686a2 2 0 0 1 1.442-2.496l.583-.144a5.729 5.729 0 0 0-.006-1.808l-.54-.13a2 2 0 0 1-1.449-2.51l.186-.63a5.278 5.278 0 0 0-1.484-.923l-.493.519a2 2 0 0 1-2.9 0l-.498-.525c-.544.22-1.044.53-1.483.912l.198.686ZM17.5 19c-.8 0-1.45-.672-1.45-1.5 0-.829.65-1.5 1.45-1.5.8 0 1.45.671 1.45 1.5 0 .828-.65 1.5-1.45 1.5Z" fill="#212121"/></svg>