<svg width="24" height="24" fill="none" viewBox="0 0 24 24" xmlns="http://www.w3.org/2000/svg"><path d="m16.242 2.932 4.826 4.826a2.75 2.75 0 0 1-.715 4.404l-4.87 2.435a.75.75 0 0 0-.374.426l-1.44 4.166a1.25 1.25 0 0 1-2.065.476L8.5 16.561 4.06 21H3v-1.06l4.44-4.44-3.105-3.104a1.25 1.25 0 0 1 .476-2.066l4.166-1.44a.75.75 0 0 0 .426-.373l2.435-4.87a2.75 2.75 0 0 1 4.405-.715Zm3.766 5.886-4.826-4.826a1.25 1.25 0 0 0-2.002.325l-2.435 4.871a2.25 2.25 0 0 1-1.278 1.12l-3.789 1.31 6.705 6.704 1.308-3.789a2.25 2.25 0 0 1 1.12-1.277l4.872-2.436a1.25 1.25 0 0 0 .325-2.002Z" fill="#212121"/></svg>