<svg width="24" height="24" fill="none" viewBox="0 0 24 24" xmlns="http://www.w3.org/2000/svg"><path d="M3.28 2.22a.75.75 0 0 0-1.06 1.06l3.364 3.365a11.99 11.99 0 0 0-2.033 1.634c-.49.489-.964 1.069-1.394 1.689a.75.75 0 1 0 1.233.855c.381-.55.8-1.062 1.222-1.484a10.468 10.468 0 0 1 2.063-1.604l1.591 1.592a8.062 8.062 0 0 0-1.923 1.424c-.61.61-1.109 1.3-1.491 2.056a.75.75 0 1 0 1.338.677 6.51 6.51 0 0 1 1.214-1.673 6.546 6.546 0 0 1 1.984-1.362l1.93 1.93a5.07 5.07 0 0 0-2.876 1.44 5.11 5.11 0 0 0-1.061 1.57.75.75 0 0 0 1.374.602c.185-.422.437-.8.747-1.111a3.59 3.59 0 0 1 3.36-.958l7.858 7.858a.75.75 0 0 0 1.06-1.06L3.28 2.22Zm8.304 6.182 1.584 1.584a6.532 6.532 0 0 1 3.516 1.825 6.798 6.798 0 0 1 1.217 1.692.75.75 0 1 0 1.336-.683 8.292 8.292 0 0 0-1.492-2.07 8.042 8.042 0 0 0-6.16-2.348ZM8.487 5.305 9.713 6.53a10.44 10.44 0 0 1 10.908 4.297.75.75 0 1 0 1.235-.852 11.946 11.946 0 0 0-13.369-4.67Zm4.573 11.134a1.5 1.5 0 1 1-2.121 2.122 1.5 1.5 0 0 1 2.121-2.122Z" fill="#212121"/></svg>