<?xml version="1.0" encoding="UTF-8" standalone="no"?>
<svg
   height="496"
   width="496"
   id="svg4"
   version="1.1"
   viewBox="0 0 496 496"
   xmlns="http://www.w3.org/2000/svg"
   xmlns:svg="http://www.w3.org/2000/svg"
   xmlns:rdf="http://www.w3.org/1999/02/22-rdf-syntax-ns#"
   xmlns:cc="http://creativecommons.org/ns#"
   xmlns:dc="http://purl.org/dc/elements/1.1/">
  <metadata
     id="metadata10">
    <rdf:RDF>
      <cc:Work
         rdf:about="">
        <dc:format>image/svg+xml</dc:format>
        <dc:type
           rdf:resource="http://purl.org/dc/dcmitype/StillImage" />
        <dc:title />
      </cc:Work>
    </rdf:RDF>
  </metadata>
  <defs
     id="defs8" />
  <path
     d="m 248.1215,22.133185 c -127.11688,0 -230.03813,101.032375 -230.263,225.765625 H 17.818 v 174.76598 h 0.0405 c 0.0607,28.28815 23.45355,51.20203 52.30388,51.20203 H 248.1439 C 375.2833,473.78702 478.182,372.76698 478.182,248.10118 478.1822,123.36794 375.1483,22.335565 247.9191,22.335565 Z m 46.7721,92.963945 c 38.6545,0 75.1503,29.03021 75.1503,69.07888 0,3.71479 0.023,7.43183 -0.5966,11.64358 -1.071,10.65415 -10.9982,18.31084 -21.8075,16.80874 -10.8093,-1.51965 -18.1445,-11.58736 -16.1454,-22.12009 0.1821,-1.20214 0.2485,-3.08966 0.2485,-6.33448 0,-22.71148 -18.945,-31.48126 -36.8556,-31.48126 -17.9061,0 -34.0447,14.76921 -34.0672,31.48126 0.3094,19.32275 0,38.49709 0,57.7906 l 33.2352,-0.24375 c 25.9496,-0.52709 26.2419,37.8 0.2993,37.62011 l -33.5275,0.24375 c -0.081,15.54275 0.1214,12.73192 0.041,20.55951 0,0 0.281,19.01019 -0.2973,33.41512 -4.0116,42.31981 -40.7458,76.13968 -84.88698,76.13968 -46.79465,0 -85.33671,-37.50768 -85.33671,-83.51529 1.40496,-47.31185 39.86877,-84.52719 88.32743,-84.09995 l 27.02886,-0.20013 v 37.55265 l -27.02886,0.24353 h -0.14167 c -26.62415,0.77286 -49.44807,18.51098 -49.87531,46.47983 0,25.47734 20.98901,45.89519 47.042,45.89519 26.01701,0 46.83964,-18.5672 46.83964,-45.85021 l -0.04,-142.22785 c 0.023,-2.63993 0.1012,-4.73793 0.3971,-7.64995 4.3916,-34.78679 36.1135,-61.2985 72.0246,-61.2985 z"
     style="fill:#cccccc;fill-opacity:1;stroke-width:2.24866"
     id="path8" />
</svg>
