<?xml version="1.0" encoding="UTF-8" standalone="no"?>
<svg
   id="svg14"
   version="1.1"
   height="496"
   width="496"
   xmlns="http://www.w3.org/2000/svg"
   xmlns:svg="http://www.w3.org/2000/svg"
   xmlns:rdf="http://www.w3.org/1999/02/22-rdf-syntax-ns#"
   xmlns:cc="http://creativecommons.org/ns#"
   xmlns:dc="http://purl.org/dc/elements/1.1/">
  <metadata
     id="metadata20">
    <rdf:RDF>
      <cc:Work
         rdf:about="">
        <dc:format>image/svg+xml</dc:format>
        <dc:type
           rdf:resource="http://purl.org/dc/dcmitype/StillImage" />
        <dc:title />
      </cc:Work>
    </rdf:RDF>
  </metadata>
  <defs
     id="defs18" />
  <path
     id="circle4"
     d="M 248.30508,17.389831 A 230.30508,230.30508 0 0 0 100.54099,71.34513 c 9.35043,0.728916 18.684,1.579202 28.00095,2.653921 7.32362,0.879765 14.66196,1.618239 21.90597,3.013657 7.57179,1.681112 15.31909,2.461962 22.89556,4.138352 17.4334,3.226344 34.67822,7.50887 51.52628,13.06705 4.66857,1.01219 8.84261,3.35589 13.31451,4.94799 9.5666,3.82571 18.8864,8.35328 27.48366,14.05679 -1.95263,13.67321 -2.87925,28.64707 3.86841,41.24798 3.69458,7.38911 10.01902,13.45224 17.7452,16.46313 11.20083,4.82789 23.70236,3.22888 35.53534,3.82353 10.74193,1.94319 20.82626,6.34479 30.99223,10.16578 4.03642,1.56861 7.98675,3.30798 12.03254,4.85794 0.0518,-1.32518 0.114,-2.6378 0.17998,-3.95837 4.54683,5.33352 10.62158,9.23604 17.09296,11.8302 -0.36526,-2.25239 -0.8025,-4.48174 -1.2145,-6.7248 3.14674,2.9547 6.10825,6.12024 9.31116,9.01886 2.93133,2.40209 6.1814,4.36993 9.46861,6.25233 -0.009,-3.10452 -0.55492,-6.15871 -0.96706,-9.22119 4.90738,5.57235 10.23725,10.74765 15.0463,16.41822 3.8257,0.0576 7.65302,0.11515 11.49276,0.17964 0.28305,0.48709 0.63265,0.93389 0.92214,1.41695 10e-6,-0.31552 -7.7e-4,-0.62988 0,-0.94425 8.66785,9.03095 -0.24297,-0.32934 7.93923,8.25413 0.22754,0.23837 0.15476,0.0806 -0.15741,0.85444 -1.1897,-0.47443 -2.34378,-1.04444 -3.50855,-1.57437 1.86249,2.8232 3.63889,5.70063 5.53272,8.50148 0.87585,1.49284 1.47238,2.49156 2.11412,4.20572 0.90544,2.01574 -3.49949,0.84637 -2.45148,2.13665 6.64463,8.29767 16.60828,11.97794 26.74147,14.50658 -3.90063,1.94792 -8.46219,2.57711 -11.51525,5.78008 -0.30113,0.33164 -0.14728,0.0921 -0.35986,0.31436 -0.39036,0.75656 -0.60927,1.27981 -1.95669,3.44111 -4.04107,-3.65253 -7.56049,-7.84016 -11.80763,-11.26791 -5.73621,-4.67323 -12.12676,-7.36573 -18.86972,-10.39067 -3.54007,-1.64358 -7.52432,-3.39194 -9.37864,-7.03962 -1.38138,-3.56824 -1.68227,-7.43091 -2.02416,-11.20043 -13.04578,-6.37772 -26.63659,-11.58596 -40.14595,-16.86801 -16.51093,-6.04527 -33.32274,-12.23012 -51.00899,-13.49449 -17.11965,-1.66695 -34.53828,5.29022 -46.48833,17.49789 -14.72216,14.58637 -20.98593,36.15513 -15.33869,56.15932 4.36889,18.4168 18.41521,31.85557 36.23258,38.25666 7.71695,2.87985 15.99607,3.96068 24.20002,3.91346 33.94898,-0.023 68.16822,4.06627 100.51108,14.68644 15.13552,5.07604 29.74082,11.95238 42.86733,21.07384 A 230.30508,230.30508 0 0 0 478.61017,247.69492 230.30508,230.30508 0 0 0 248.30508,17.389831 Z M 94.648411,76.518013 A 230.30508,230.30508 0 0 0 45.303748,139.13221 c 5.739606,-0.99607 11.490174,-1.98546 17.227899,-2.9463 63.084253,-10.19883 127.135323,-13.13326 190.968793,-12.5948 0.72581,3.93798 1.63402,7.85731 2.51897,11.7626 -26.47084,-2.65496 -53.11456,-3.50651 -79.70715,-3.3286 -44.27535,0.97995 -88.445539,4.64191 -132.402938,10.00837 A 230.30508,230.30508 0 0 0 18,247.69492 230.30508,230.30508 0 0 0 248.30508,478 230.30508,230.30508 0 0 0 441.79284,372.15858 c -1.51353,-1.94539 -2.92982,-3.99038 -4.54313,-5.82511 -9.34182,-12.00615 -21.70523,-21.31093 -34.79315,-28.87807 -24.92558,-14.25393 -54.48386,-18.78863 -82.85586,-16.50815 -23.54421,2.71587 -47.70324,-7.53524 -63.22144,-25.21219 -7.73568,-8.66281 -13.43176,-16.7973 -16.62066,-27.95593 -2.93593,-12.46987 -3.64224,-24.53682 -0.24735,-36.99724 2.78148,-12.17946 9.27894,-23.27993 17.63274,-32.47659 5.86732,-6.21858 12.57251,-11.79692 20.33162,-15.49619 -7.29075,-12.33399 -12.43521,-25.82791 -16.48571,-39.53867 -2.15399,-7.32358 -3.08797,-14.92077 -4.85799,-22.33326 -0.24815,-1.2129 -1.63863,-1.50158 -2.51896,-2.09163 -6.81322,-3.41369 -13.65442,-6.75565 -20.66898,-9.73856 -4.69199,-2.13528 -9.80425,-3.07216 -14.52902,-5.12786 -7.72637,-2.28037 -15.35021,-4.90135 -23.1655,-6.88221 -4.67793,-1.20334 -9.08079,-3.29843 -13.78682,-4.40815 -9.72111,-2.47244 -19.35862,-5.44545 -29.32791,-6.747249 -19.00531,-4.087915 -38.21675,-7.004268 -57.486309,-9.423508 z M 257.66123,140.88644 c 0.79605,3.79762 1.89745,7.51889 3.05874,11.22288 -60.55564,3.09991 -119.79647,19.20088 -175.697592,42.19259 -8.597289,3.40425 -16.875273,7.53477 -25.369544,11.17785 7.529652,-4.73875 15.543283,-8.60512 23.480323,-12.59481 22.350153,-11.182 45.548333,-20.65997 69.181483,-28.76556 34.18783,-11.318 69.43558,-19.85679 105.34659,-23.23295 z m 71.20566,11.80763 c 14.8954,3.61026 29.09,9.77564 42.66491,16.82309 16.10822,8.42399 31.01164,19.15505 43.99186,31.89185 2.56608,2.68777 5.86186,4.83007 7.66935,8.16408 -1.60614,-0.24873 -3.67521,0.78304 -4.92547,-0.58497 -4.75286,-5.97504 -10.24917,-11.34115 -16.12586,-16.21579 -16.24869,-13.36425 -34.71905,-23.84175 -53.95526,-32.25169 -6.29812,-2.96886 -12.97927,-4.97505 -19.31953,-7.8268 z m 66.03278,172.52637 c 15.94432,8.18988 29.8852,19.95605 41.31547,33.71367 2.79603,3.06191 5.32736,6.32338 7.75931,9.67097 a 230.30508,230.30508 0 0 0 12.14499,-22.28835 c -8.13258,-4.82949 -16.77755,-8.77773 -25.68442,-11.96504 -11.54266,-4.03172 -23.37927,-7.56724 -35.53535,-9.13125 z"
     style="fill:#cccccc;stroke-width:11.51525402" />
</svg>
