<?xml version="1.0" encoding="UTF-8" standalone="no"?>
<svg
   id="svg"
   version="1.1"
   width="496"
   height="496"
   viewBox="0 0 496 496"
   xmlns="http://www.w3.org/2000/svg"
   xmlns:svg="http://www.w3.org/2000/svg">
  <defs
     id="defs71" />
  <g
     id="svgg">
    <path
       id="path0"
       d="m 314.14177,11.917999 c -12.75863,2.375043 -17.6149,4.435936 -27.81069,8.22109 -5.22986,2.130702 -6.14098,2.716944 -11.40072,5.167429 -8.26891,3.490382 -9.82334,4.450249 -15.9337,8.247215 -1.9903,1.595917 -5.67646,3.929928 -8.19193,5.189196 -4.71103,2.356548 -11.28212,7.040065 -16.83967,12.00107 -1.74257,1.555069 -5.0635,4.506037 -7.37797,6.555515 -7.89324,6.989356 -21.2605,25.619188 -23.44474,32.673338 -0.80546,2.60164 -2.20263,6.50481 -3.10436,8.67401 -1.72558,4.153888 -5.67079,16.125378 -6.84429,20.772268 -1.27261,5.03848 -4.00466,7.19501 -10.46818,8.26271 -3.92963,0.65077 -16.13199,5.67735 -22.66487,9.52136 -4.96724,2.48896 -3.65632,2.20645 -4.7463,2.60789 -1.08999,0.40286 -1.63641,0.74937 -1.21456,0.77191 0.42041,0.0211 4.24246,-1.33956 8.49344,-3.02562 14.71631,-5.83715 19.22937,-5.1231 31.76143,-4.8104 1.86856,0.0479 4.15279,-0.73774 4.93136,-0.75323 0.77856,-0.0141 4.15785,-0.3045 7.27212,0.42936 3.11425,0.73246 4.05805,2.46263 5.42126,2.68096 1.8091,0.28876 0.91873,1.06388 0.34826,1.45407 -0.52517,0.36058 1.39923,-0.27382 2.73128,-0.50906 1.36178,-0.24087 1.87705,0.45907 1.32781,0.83377 -0.57756,0.3944 -1.15066,2.90492 1.18362,3.19509 6.15633,0.76626 6.80439,-0.50305 1.62905,2.77893 -1.78928,1.13391 -0.66274,1.73526 -1.16103,2.49026 -1.0277,1.5607 -2.47177,9.89663 -1.04662,7.79681 0,0 0.35723,-1.4283 0.36147,-2.14104 0.24206,-5.46951 2.84112,-5.34199 11.42941,-7.8239 5.14985,-1.48745 8.39718,-2.05229 24.20631,-4.20883 4.35997,-0.59442 13.53289,-2.47486 20.38427,-4.17924 21.87911,-5.44133 29.28257,-7.05978 36.23869,-7.92606 25.83566,-3.21859 26.62271,-3.36791 50.67756,-9.67833 6.38425,-1.67338 15.17496,-3.79893 19.53493,-4.72014 24.50925,-5.18215 35.36746,-21.318788 30.07043,-41.160708 0,0 -0.91502,-5.728511 -3.03657,-10.090747 -3.77664,-12.080501 -6.76059,-15.76856 -10.96201,-20.54786 l -3.94648,-4.691561 c -3.35974,-4.259717 -5.77775,-6.061661 -9.65109,-9.106397 -3.43133,-2.498272 -5.24844,-3.637079 -8.42375,-5.688948 -8.51067,-3.667994 -8.32869,-4.190907 -19.84585,-6.722588 -17.87731,-4.040163 -29.47622,-3.039994 -39.88732,-2.539592 m 35.6484,30.937973 c 5.09466,1.438157 5.47988,1.825781 11.63183,5.768574 3.91911,3.029582 2.29918,1.38565 6.88244,6.456679 1.99537,2.489953 3.28491,3.188054 6.40877,8.054028 2.67281,3.500235 2.80096,4.177476 4.63087,8.059499 4.73509,8.30919 1.32543,11.1563 -9.79391,13.43256 -2.4461,0.50003 -5.72175,1.37899 -7.27888,1.95228 -9.19132,3.38199 -33.70765,8.97123 -46.71394,10.65166 -16.04553,2.07201 -20.47487,2.821378 -26.89592,4.551108 -3.42568,0.92261 -9.03136,2.42133 -12.45705,3.32987 -3.42569,0.90852 -8.64916,2.31851 -11.6077,3.13126 -8.71995,2.3974 -33.36651,6.09914 -35.42334,5.3216 -4.57655,-1.73114 2.80709,-19.389048 11.9064,-28.477188 2.81275,-2.80869 6.20446,-6.41324 7.5351,-8.00916 3.79516,-4.54829 26.51511,-19.504555 33.25184,-21.887866 2.80283,-0.991639 7.78283,-3.074923 11.06695,-4.627174 13.69851,-6.478043 16.51408,-7.333049 28.85224,-8.758528 5.26169,-0.607096 24.71875,0.122546 28.0043,1.050798 M 292.69016,156.10128 c -6.02092,3.39277 -7.02241,4.54007 -10.86566,9.65115 l -2.56738,5.74291 7.04499,-4.47388 c 6.4904,-7.01753 4.64048,-2.12364 15.08317,-0.63617 6.31912,0.90007 4.88384,1.96841 10.22338,6.21386 2.02853,1.61282 5.20912,7.67662 7.23339,8.72882 2.02427,1.05362 8.91326,-2.17346 10.61054,-0.54655 1.69727,1.6269 21.67276,14.6183 21.79003,14.62556 1.31119,0.0811 -7.92073,-11.65006 -13.4394,-17.68264 -3.53912,-4.11895 -5.61931,-5.42009 -14.99099,-13.80709 -4.66973,-3.60367 -4.38558,-3.12745 -9.21403,-5.31651 -10.10367,-4.55492 -15.75196,-3.91741 -20.90804,-2.49946 M 136.06253,383.76527 c 0,0 -0.15981,0.0289 -0.24034,0.0442 -2.57557,0.48942 -9.11035,2.37651 -19.02784,7.3947 -2.59382,1.33755 -4.37164,2.00525 -6.25036,3.53808 -11.145339,9.0934 -13.591219,17.07817 -12.092509,28.74907 1.03358,6.36483 0.1591,4.76032 3.757899,14.10614 3.18114,6.89582 4.71279,10.62965 8.99895,17.08891 l 5.47615,6.64068 c 3.70514,4.16598 3.10191,3.33261 6.81849,6.89421 3.04102,2.6294 5.264,4.22011 7.85544,6.14856 8.22981,4.4706 8.53653,4.51179 21.40791,8.18309 20.68405,4.28521 45.21344,1.97617 71.36997,-6.74908 8.78885,-3.86349 12.92337,-6.02779 15.00707,-6.77812 9.37792,-5.19188 11.78152,-5.9805 20.815,-11.63625 4.2228,-2.77541 3.89072,-2.39988 7.17642,-4.93953 3.64067,-2.60295 3.69997,-2.64172 7.0524,-5.75402 l 7.29162,-6.76934 c 4.43163,-3.62343 4.40956,-3.63585 8.56755,-8.16804 1.11673,-1.21724 3.2813,-4.52716 5.58727,-6.8147 2.15879,-3.35753 3.3143,-5.18216 4.86484,-7.00655 1.88839,-3.71019 12.83929,-23.15549 11.0064,-20.08029 0,0 -0.62744,-3.27906 -5.19124,0.41 -2.02428,1.63535 -4.86217,2.10264 -6.63588,3.8211 -3.96078,3.83555 3.30585,1.5607 -14.76159,16.2576 -1.84934,1.50434 0.1767,-3.40225 -0.55089,-3.40225 -1.28678,0 -18.50004,11.35816 -19.24604,10.30736 -1.08291,-1.52689 1.33414,-6.99576 5.43081,-11.33841 5.54511,-4.37496 9.55437,-8.31235 -0.003,-1.28461 -2.82631,2.07829 -1.75443,1.48082 -8.91332,7.58717 -3.87997,3.38715 -3.7486,3.02283 -8.28818,7.15838 -2.61133,2.22375 -3.1139,2.77337 -6.83582,5.8403 -5.0685,3.70131 -5.44496,3.87062 -10.55593,6.56503 -4.90908,2.6843 -7.36058,4.21665 -14.49407,7.46264 -11.49205,6.53842 -15.48068,7.81823 -28.77432,9.5536 -4.55783,0.92169 -7.41059,0.78817 -7.41059,0.78817 -8.70053,0.97735 -16.3612,1.1987 -27.66739,-1.48323 -7.89221,-2.77243 -9.14526,-3.25001 -14.20104,-7.67533 -2.1385,-1.97395 -4.09668,-4.96523 -6.09688,-7.03866 -3.89424,-4.03979 -9.53814,-15.74084 -10.14117,-21.02723 -0.63842,-5.58923 6.799,-8.63458 26.16406,-10.71363 2.93307,-0.31552 21.04817,-4.51026 38.78672,-8.98108 2.95856,-0.74655 5.8888,-1.46774 6.51165,-1.60437 0.62285,-0.13663 -0.12174,-0.13804 -1.65623,-0.003 -1.53306,0.13522 -4.97291,0.724 -7.6441,1.30856 -4.82569,1.05784 -18.016,3.5468 -28.41199,5.36386 -7.14864,1.248 -29.31936,0.96488 -35.04819,-0.44934 -2.02427,-0.49863 -5.88777,-1.7318 -8.91285,-2.40087 -7.63984,-1.69171 -8.00042,-1.91641 -1.75917,-7.85356 25.53549,-9.13336 32.19592,-11.90196 34.5732,-11.34538 32.78239,-2.14394 42.96456,-12.36829 -13.70905,0.0852"
       stroke="none"
       fill="#cccccc"
       fill-rule="evenodd"
       style="stroke-width:1.41208" />
    <path
       id="path1"
       d="m 192.16204,130.91875 c -0.0858,0.086 -2.76957,0.25918 -5.96236,0.38454 -6.25976,0.24791 -12.10344,1.79735 -21.80765,5.78362 -2.67376,1.09869 -6.33713,1.81628 -9.56424,2.82482 -12.94705,4.04543 -32.05216,20.57304 -38.71512,33.49251 -1.76012,3.41157 -4.09216,7.77533 -5.18311,9.69805 -7.83113,13.79418 -6.64866,37.6611 2.77243,55.97682 0.7864,1.5269 1.99603,4.52998 2.68949,6.67243 1.63858,5.05679 3.00405,7.68941 5.32609,10.25866 3.0012,3.32142 7.61523,10.40233 10.75226,16.49866 2.05037,3.98344 4.03067,6.82455 6.79022,9.73467 2.64947,2.79461 4.574,5.51598 6.01527,8.50639 1.39693,2.90026 3.33148,5.66811 5.6821,8.1289 1.96029,2.05088 5.206,6.05264 7.21203,8.89234 4.70698,6.65834 15.03888,17.50156 22.02068,23.11051 9.67275,7.7683 11.56297,9.07546 14.35257,9.92905 1.50417,0.46061 5.37899,1.6593 8.61039,2.66221 14.05943,4.368 27.24669,-4.90747 30.86128,-21.70757 1.24966,-5.81038 1.41837,-40.72899 0.25594,-52.96247 -1.58139,-16.6536 -3.59458,-32.89308 -4.71127,-38.03157 -0.64056,-2.94392 -1.66861,-8.01479 -2.28344,-11.2686 -0.61482,-3.25381 -1.38406,-6.67666 -1.70862,-7.60632 -0.56621,-1.61563 -2.15904,-10.184 -4.60976,-24.79094 -1.39836,-8.33032 -2.13615,-17.88329 -2.35348,-30.44498 -0.1916,-11.18268 0.2924,-10.41666 4.29336,-14.66999 3.61084,-3.53355 0.0541,-4.2865 -1.13115,-5.00835 -1.46682,-0.91226 -0.69587,-0.40209 -2.84266,-1.42368 -1.60682,-0.65207 -1.3475,-0.72438 -3.19343,-1.2918 l -1.75916,-0.51481 c -1.27679,-0.31809 -0.52806,-0.2525 -2.35537,-0.5413 -1.37692,-0.21832 -1.02574,-0.10152 -4.32863,-0.8903 -4.98436,-1.19166 -12.2382,-1.27006 -15.12466,-1.40154 m -3.1456,24.93321 c 2.27626,1.20011 2.65947,3.1693 3.01549,15.47744 0.21732,7.56546 0.77782,14.67596 1.55421,19.72007 0.66916,4.33841 1.55278,10.2967 1.96601,13.24062 0.41322,2.94393 2.05609,12.32504 3.65177,20.84692 5.71642,30.53513 8.19431,81.21852 4.07785,83.38914 -2.94401,1.55085 -21.98781,-17.85089 -29.41431,-29.96888 -1.45984,-2.38189 -4.411,-6.23717 -6.55859,-8.56554 -2.14759,-2.32979 -4.35666,-5.19765 -4.91,-6.37381 -2.78815,-5.93997 -3.99493,-7.90353 -6.81168,-11.07845 -4.05927,-4.57647 -7.78109,-10.34319 -11.23125,-17.40156 -1.55135,-3.17634 -3.79331,-7.55983 -4.9815,-9.74312 -6.6644,-12.24476 -6.56574,-25.84175 0.27166,-37.44419 6.96324,-11.81655 11.12688,-15.8648 22.32383,-21.69912 4.63547,-2.41429 10.09167,-5.42443 12.12631,-6.68651 6.04386,-3.75104 12.02624,-5.2399 14.9202,-3.71301 m 116.18604,9.4111 c 0,0 -2.88047,-1.61463 -4.81867,-4.48419 -1.30659,-1.93444 -2.47875,-3.2252 -5.48183,-1.67113 -5.04545,2.61094 -12.99698,6.71292 -15.64486,12.38764 -4.52968,8.70923 -3.86229,61.77338 0.42576,85.19378 0.76638,4.18347 2.19477,11.91656 3.17278,17.18463 0.97798,5.26808 2.24195,12.3673 2.8053,15.77605 0.56478,3.40876 1.29256,7.33869 1.61714,8.73318 1.81015,7.77252 3.47732,47.78455 2.12328,50.97498 -1.03948,2.45092 -3.35579,3.24253 -14.91305,5.09199 -5.03298,0.80572 -10.78801,1.98892 -12.78976,2.62841 -3.53023,1.12827 -6.97895,2.04947 -19.52421,5.21878 -3.30289,0.83528 -7.67814,2.0199 -9.7228,2.63403 -2.04464,0.61415 -11.76029,2.25232 -21.59175,3.63977 -9.83001,1.38744 -18.58053,2.79039 -19.44557,3.11859 -0.86362,0.32678 -4.14506,1.18038 -7.29067,1.89876 -3.1456,0.71696 -17.37305,3.16052 -21.94809,4.57471 -14.27544,2.99116 -8.10025,1.78241 -20.6606,5.47688 -13.57302,3.99235 -18.40699,5.8708 -26.22151,11.3855 -6.30407,5.93715 -6.43764,6.25019 1.38026,7.97493 3.05553,0.66906 7.35453,1.7809 9.39918,2.27954 5.78649,1.4142 28.18035,1.69733 35.40095,0.44933 10.72081,-1.8551 23.86517,-4.31588 28.93961,-5.41879 4.94004,-1.07334 13.35168,-2.20442 31.17155,-4.19052 8.06848,-0.90008 16.00257,-2.51994 28.8824,-5.89912 34.34146,-9.01065 36.18451,-8.59232 29.0111,6.5851 -1.58425,3.351 -3.32292,7.45982 -3.86338,9.12757 -0.5419,1.66917 -1.90596,4.0398 -3.03123,5.26808 -1.12671,1.22828 -2.91112,3.15802 -3.96632,4.28911 -3.26455,4.34279 -12.48363,11.01723 -14.60825,18.40728 9.98203,-3.96606 13.32215,-5.87805 18.72887,-8.28432 11.25205,-5.00782 7.01115,-2.94389 15.66965,-6.77852 8.19095,-6.00524 2.14109,-1.08823 9.73044,-7.9635 2.75038,-2.86377 4.57261,-5.20589 7.85135,-8.87121 5.07674,-3.78227 5.51531,-4.14335 5.51531,-4.14335 1.8931,-4.02854 4.29676,-10.21252 5.62935,-14.39599 3.40298,-10.68265 2.8725,-10.26994 17.80843,-13.86321 12.73375,-4.22594 15.24467,-5.52183 27.0937,-11.54892 4.58512,-2.45844 3.36136,-1.98281 7.02729,-4.24256 6.82058,-4.13606 5.14547,-3.00151 9.79742,-6.92041 2.99824,-2.52578 4.84996,-4.83987 6.94179,-6.33719 3.79313,-4.0839 2.90615,-3.10755 6.22973,-7.37249 1.33545,-2.55797 3.53737,-6.42451 4.89143,-8.59372 12.84266,-20.56944 12.10201,-44.14056 -2.20479,-70.1471 -1.10812,-2.01427 -2.59656,-5.26526 -3.30719,-7.226 -1.95778,-3.42503 -2.44922,-3.99293 -5.23171,-7.8345 -2.53228,-3.13037 -3.6453,-4.32468 -6.29836,-8.26975 -6.92454,-11.10133 -7.35324,-11.59858 -11.61873,-17.21704 -1.84414,-2.6565 -3.97653,-5.79014 -5.95379,-8.41201 -3.03914,-3.9587 -3.62735,-4.83385 -5.77361,-7.47532 -4.61897,-4.59922 -4.09319,-4.52881 -6.93054,-6.61961 -4.87301,-5.15033 0,0 -9.46527,-7.62852 -4.14934,-3.91866 -7.80118,-3.40817 -10.26189,-4.67167 -2.04466,-1.0508 -4.52589,-1.0442 -6.57482,-2.65701 -4.43101,-3.48764 -2.13125,-1.98853 -6.41288,-4.13582 0,0 -3.58579,-2.54091 -6.37615,-3.99102 m 4.02481,22.60866 c 2.0904,1.88749 5.80078,5.86249 8.24435,8.83176 2.44357,2.96788 6.02241,7.11191 7.9541,9.20787 1.93026,2.09597 4.40815,5.5667 5.50482,7.71337 2.16908,2.94032 3.91801,5.11952 6.22688,8.35989 3.46569,4.51484 3.94884,5.66354 6.49853,9.19097 2.0456,3.16857 3.26217,5.07485 4.53683,7.54856 4.21654,6.31723 7.61586,11.97542 11.19408,17.31845 0.89221,2.08609 2.89252,5.85686 4.44674,8.37821 9.55121,15.49011 9.51261,34.55097 -0.0914,44.92654 -1.53278,1.65789 0,0 -4.30091,5.63431 -4.02631,4.2841 -3.94054,4.21651 -8.99359,8.35849 -3.03935,2.32349 -2.88161,2.55181 -7.12017,4.86469 -6.34454,3.59875 -7.49935,4.16208 -15.73553,7.39134 -10.38909,2.96504 -11.58442,2.12553 -12.39083,-8.69514 -2.06467,-27.72784 -2.23053,-29.17022 -4.84854,-42.28125 -2.79816,-14.01252 -4.63262,-22.80907 -6.87887,-32.98604 -1.40837,-6.38225 -3.73612,-28.60115 -4.84852,-46.29991 -1.40123,-22.25409 0.96941,-26.15726 10.60213,-17.46211"
       stroke="none"
       fill="#cccccc"
       fill-rule="evenodd"
       style="stroke-width:1.41917" />
  </g>
</svg>
