<svg width="16" height="16" version="1.1" xmlns="http://www.w3.org/2000/svg">
 <title>Gnome Symbolic Icon Theme</title>
 <g fill="#dedede" stroke-width=".99999">
  <path d="m8.0024 2.4e-4a7.9999 7.9999 0 0 0-7.9999 7.9999 7.9999 7.9999 0 0 0 7.9999 7.9999 7.9999 7.9999 0 0 0 7.9999-7.9999 7.9999 7.9999 0 0 0-7.9999-7.9999zm0 0.88888a7.111 7.111 0 0 1 7.111 7.111 7.111 7.111 0 0 1-7.111 7.111 7.111 7.111 0 0 1-7.111-7.111 7.111 7.111 0 0 1 7.111-7.111z"/>
  <path d="m8.0024 2.6669c-2.9455 0-5.3333 2.3878-5.3333 5.3333s2.3878 5.3333 5.3333 5.3333 5.3333-2.3878 5.3333-5.3333-2.3878-5.3333-5.3333-5.3333zm0 0.44444c2.7 0 4.8888 2.1888 4.8888 4.8888s-2.1888 4.8888-4.8888 4.8888-4.8888-2.1888-4.8888-4.8888 2.1888-4.8888 4.8888-4.8888z" opacity=".5"/>
  <path d="m8.0024 5.3335c-1.4727 0-2.6666 1.1939-2.6666 2.6666s1.1939 2.6666 2.6666 2.6666 2.6666-1.1939 2.6666-2.6666-1.1939-2.6666-2.6666-2.6666zm0 0.44444c1.2273 0 2.2222 0.99492 2.2222 2.2222s-0.99492 2.2222-2.2222 2.2222-2.2222-0.99492-2.2222-2.2222 0.99492-2.2222 2.2222-2.2222z" opacity=".5"/>
  <rect transform="rotate(45)" x="10.902" y="-7.4556" width=".88888" height="7.4266" rx="0" ry="0"/>
 </g>
</svg>
