<svg width="16" height="16" version="1.1" xmlns="http://www.w3.org/2000/svg">
 <defs>
  <style id="current-color-scheme" type="text/css">.ColorScheme-Text { color:#dedede; }</style>
 </defs>
 <path d="m7.9843 0.0017971c-0.37956 0.032046-0.37947 0.35122-0.51556 1.1384a6.9121 6.8773 0 0 0-0.7633 0.10714c-0.33662-0.81051-0.45426-1.0939-0.77222-0.98662-0.36559 0.12329-0.27991 0.4363-0.22318 1.2567a6.9121 6.8773 0 0 0-0.70973 0.29242c-0.56773-0.68407-0.76189-0.92236-1.0356-0.72546-0.30876 0.22213-0.14378 0.49731 0.14507 1.2411a6.9121 6.8773 0 0 0-0.61599 0.47322c-0.71545-0.52763-0.96246-0.70981-1.1806-0.45313-0.24763 0.29127-0.01621 0.51493 0.44861 1.1764a6.9121 6.8773 0 0 0-0.46423 0.60046c-0.74985-0.27814-1.0269-0.44059-1.2453-0.12947-0.19323 0.27516 0.046313 0.46784 0.73651 1.0223a6.9121 6.8773 0 0 0-0.29684 0.71207c-0.7889-0.074569-1.0979-0.15678-1.2275 0.19867-0.11408 0.31278 0.16413 0.43842 0.95747 0.78796a6.9121 6.8773 0 0 0-0.098203 0.75448c-0.77777 0.15025-1.0986 0.15603-1.1226 0.5335-0.020826 0.32783 0.27951 0.37312 1.1137 0.48216a6.9121 6.8773 0 0 0 0.10936 0.80358c-0.71466 0.31243-1.0217 0.39251-0.96193 0.76341 0.05321 0.33031 0.35815 0.30188 1.232 0.22099a6.9121 6.8773 0 0 0 0.31022 0.74109c-0.60932 0.47117-0.88678 0.62559-0.73874 0.96877 0.13308 0.30851 0.42387 0.20499 1.2588-0.08929a6.9121 6.8773 0 0 0 0.45083 0.5826c-0.45954 0.67322-0.68979 0.90066-0.43744 1.1897 0.22011 0.25216 0.46485 0.06687 1.1628-0.46207a6.9121 6.8773 0 0 0 0.61823 0.47546c-0.27971 0.77686-0.448 1.0561-0.12945 1.2745 0.27899 0.19135 0.46793-0.0524 1.0244-0.75448l-0.13614-0.08036a6.9121 6.8773 0 0 0 0.8124 0.34598c-0.05392 0.79768-0.13153 1.1094 0.22988 1.23 0.31289 0.10434 0.43118-0.1731 0.75213-0.95314a6.9121 6.8773 0 0 0 0.78339 0.10492c0.14789 0.88252 0.19657 1.1852 0.53342 1.1518 0.37819-0.0374 0.37164-0.35779 0.49547-1.1429a6.9121 6.8773 0 0 0 0.79008-0.10268c0.32547 0.7911 0.44402 1.0715 0.75883 0.96653 0.36153-0.12056 0.28379-0.43164 0.22988-1.23a6.9121 6.8773 0 0 0 0.71642-0.29242c0.54043 0.68182 0.73108 0.92108 1.0066 0.73215 0.31275-0.2145 0.15444-0.49169-0.11605-1.2366a6.9121 6.8773 0 0 0 0.63831-0.48662c0.66856 0.5065 0.91329 0.68277 1.1293 0.43528 0.24602-0.28187 0.03035-0.51256-0.4062-1.1473a6.9121 6.8773 0 0 0 0.46646-0.59376c0.81632 0.2877 1.1047 0.38809 1.2364 0.08259 0.14717-0.34116-0.12584-0.49521-0.72759-0.95983a6.9121 6.8773 0 0 0 0.31469-0.75001c0.85862 0.07945 1.1635 0.10683 1.2164-0.22099 0.05917-0.3673-0.24424-0.45178-0.94407-0.75671a6.9121 6.8773 0 0 0 0.10267-0.81028c0.82479-0.10787 1.1232-0.15593 1.1025-0.48216-0.023711-0.37332-0.34117-0.38352-1.1003-0.52903a6.9121 6.8773 0 0 0-0.1049-0.76788c0.77968-0.34358 1.0551-0.46858 0.94184-0.77903-0.1286-0.35254-0.43509-0.27496-1.2097-0.2009a6.9121 6.8773 0 0 0-0.29907-0.72322c0.67654-0.54355 0.91246-0.73616 0.72089-1.0089-0.21756-0.30981-0.49379-0.14875-1.2364 0.12724a6.9121 6.8773 0 0 0-0.47762-0.61385c0.50168-0.70733 0.67637-0.9573 0.41735-1.1674-0.29102-0.23606-0.51319-0.0136-1.136 0.4442a6.9121 6.8773 0 0 0-0.63161-0.48216c0.33203-0.80857 0.44816-1.0895 0.14731-1.2366-0.3463-0.16931-0.50635 0.11088-1.0445 0.73215a6.9121 6.8773 0 0 0-0.71642-0.29242c0.0744-0.88468 0.10365-1.1906-0.22988-1.2411-0.37407-0.056607-0.45044 0.2522-0.76107 0.97547a6.9121 6.8773 0 0 0-0.78339-0.095983c-0.13234-0.86628-0.17683-1.1688-0.5111-1.1406zm-0.27675 2.1139c0.76515-0.012789 1.6733 0.12202 1.9685 0.25 1.2846 0.3907 2.4723 1.11 3.4839 2.7813 0.18841 0.31126 0.32516 0.61259 0.38611 0.8884 0.06052 0.29002 0.03822 0.62906-0.14954 0.8951-0.1609 0.21157-0.36024 0.40984-0.63831 0.43528-0.86537 0.080888-2.0401 0.034547-2.9661 0.024554-0.15582-0.00169-0.30337-0.064767-0.34817-0.11384-0.27434-0.17249-0.45959-0.54601-0.76553-0.65179-0.48844-0.22576-0.68644-0.036937-0.96193-0.375-0.50749-0.81224-0.99777-1.6468-1.4485-2.4755-0.32656-0.56714-0.11276-1.1361 0.37941-1.442 0.19257-0.14903 0.60103-0.20886 1.0601-0.21652zm-3.4103 1.7478c0.039842-0.00123 0.079956 3.687e-4 0.12052 0.00446 0.26373 0.036046 0.53542 0.11228 0.69411 0.34153 0.49534 0.71256 1.0318 1.755 1.4775 2.5647 0.075 0.13628 0.092292 0.29636 0.07142 0.35938-0.016016 0.32314-0.25193 0.66652-0.19417 0.9844 0.042545 0.53538 0.30512 0.61472 0.14507 1.0201-0.46031 0.83976-0.95035 1.6771-1.453 2.4755-0.33503 0.5622-0.93529 0.65271-1.444 0.375-0.59911-0.25136-1.4045-2.1363-1.4574-2.6474-0.28925-1.3085-0.24444-2.6956 0.71866-4.3952 0.17936-0.31653 0.37602-0.58176 0.58698-0.77011 0.19564-0.17056 0.45535-0.30379 0.73428-0.31251zm3.7026 3.5647a0.57136 0.57144 0 0 1 0.57136 0.57144 0.57136 0.57144 0 0 1-0.57136 0.57144 0.57136 0.57144 0 0 1-0.57136-0.57144 0.57136 0.57144 0 0 1 0.57136-0.57144zm3.1425 1.1965h0.0022c0.47969 0.00249 0.95912 0.011555 1.4307 0.029019 0.65554 0.00837 1.0357 0.48413 1.049 1.0625 0.08136 0.64333-1.1541 2.2814-1.5712 2.5827-0.99118 0.90415-2.2166 1.5582-4.1735 1.5759-0.36446 0.0033-0.69296-0.03467-0.96193-0.12277-0.28098-0.095716-0.56017-0.2859-0.69407-0.58259-0.10057-0.24588-0.17098-0.52062-0.051333-0.77233 0.37086-0.78425 1.0063-1.7681 1.4864-2.5581 0.080795-0.13294 0.21161-0.22762 0.27675-0.24108 0.2885-0.14773 0.70594-0.11484 0.953-0.32366 0.44346-0.30445 0.38048-0.57177 0.8124-0.63617 0.4788-0.011069 0.96207-0.015849 1.4418-0.013393z" style="fill:currentColor" class="ColorScheme-Text"/>
</svg>
