<svg width="16" height="16" version="1.1">
 <defs>
  <style id="current-color-scheme" type="text/css">.ColorScheme-Text { color:#dedede; }</style>
 </defs>
 <path d="m8 0-7 4.2344v7.5312l7 4.2344 7-4.2344v-7.5312l-7-4.2344zm1.1934 5c0.14721 0.00754 0.22438 0.070402 0.20703 0.16992l-0.52148 2.9629 1.4062-0.017578c0.14758-0.00188 0.23506 0.085423 0.19531 0.19531-0.039792 0.11003-0.19176 0.20115-0.33984 0.20312l-1.6387 0.021484c-0.13393 0.0017883-0.22177-0.06907-0.20312-0.16797l0.27148-1.5469-2.0293 3.998c-0.048049 0.09418-0.17746 0.17092-0.30859 0.17969-0.00768 4.66e-4 -0.013451 0.001853-0.021484 0.001953-0.11959 0.0016-0.20491-0.055984-0.20508-0.14258l-0.035156-2.3008-1.2988 1.2285c-0.078021 0.073938-0.20352 0.12032-0.30859 0.10938-0.10722-0.0084281-0.17539-0.068631-0.17383-0.14844l0.033203-1.2402-2.0176 0.027344c-0.14734 0.0020236-0.23506-0.085424-0.19531-0.19531 0.039925-0.11039 0.19253-0.20312 0.33984-0.20508l2.2266-0.029297c0.12275-0.00165 0.2078 0.059892 0.20508 0.14844l-0.023438 0.88672 1.2773-1.209c0.076843-0.073575 0.19829-0.11862 0.30273-0.10938 0.10558 0.00717 0.17714 0.062718 0.17969 0.14062l0.027344 1.7969 2.3223-4.5762c0.050354-0.10003 0.18966-0.17826 0.32617-0.18164zm4.6016 3.0684c0.14684-0.0019557 0.23508 0.085352 0.19531 0.19531-0.039795 0.11003-0.193 0.2012-0.33984 0.20312l-0.90234 0.013672c-0.14694 0.0019566-0.2351-0.087235-0.19531-0.19727 0.039745-0.10989 0.19291-0.2012 0.33984-0.20312l0.90234-0.011719zm-1.8242 0.023438c0.14694-0.0019572 0.23508 0.087305 0.19531 0.19727-0.039795 0.11003-0.19291 0.2012-0.33984 0.20312l-0.84766 0.011719c-0.14723 0.001961-0.2351-0.087235-0.19531-0.19727 0.039744-0.10989 0.19262-0.2012 0.33984-0.20312l0.84766-0.011719z" style="fill:currentColor" class="ColorScheme-Text"/>
</svg>
