<svg width="16" height="16" version="1.1" xmlns="http://www.w3.org/2000/svg">
 <path d="M12.42 1.006c-.453-.053-.516.329-.469.633-.004 3.026.01 6.054-.006 9.078-.11.104-.322-.066-.463-.022-1.534-.084-3.211.919-3.365 2.366-.18 1.15 1.168 2.096 2.371 1.918 1.516-.145 2.7-1.524 2.502-2.885.004-2.396-.009-4.795.006-7.19.103-.106.258.122.367.133 1.22.65 1.91 1.722 1.983 3.057.08 1.043-.27 2.062-.664 3.029 1.321-1.465 1.744-3.603.826-5.334-.47-1.005-1.142-1.623-1.735-2.557-.437-.623-.77-1.32-.875-2.056-.085-.154-.311-.172-.478-.17zM1.5 2a.499.499 0 1 0 0 1h7a.499.499 0 1 0 0-1h-7zm0 3a.499.499 0 1 0 0 1h7a.499.499 0 1 0 0-1h-7zm0 3a.499.499 0 1 0 0 1h7a.499.499 0 1 0 0-1h-7zm0 3a.499.499 0 1 0 0 1h4a.499.499 0 1 0 0-1h-4z" fill="#dedede"/>
</svg>
