<svg width="24" height="24" fill="none" viewBox="0 0 24 24" xmlns="http://www.w3.org/2000/svg"><path d="m12.858 14.273 7.434 7.434a1 1 0 0 0 1.414-1.414l-17.999-18a1 1 0 1 0-1.414 1.414L5.39 6.804c-.643.429-1.254.927-1.821 1.495a12.382 12.382 0 0 0-1.39 1.683 1 1 0 0 0 1.644 1.14c.363-.524.761-1.01 1.16-1.41a9.94 9.94 0 0 1 1.855-1.46L7.99 9.405a8.14 8.14 0 0 0-3.203 3.377 1 1 0 0 0 1.784.903 6.08 6.08 0 0 1 1.133-1.563 6.116 6.116 0 0 1 1.77-1.234l1.407 1.407A5.208 5.208 0 0 0 8.336 13.7a5.25 5.25 0 0 0-1.09 1.612 1 1 0 0 0 1.832.802c.167-.381.394-.722.672-1a3.23 3.23 0 0 1 3.108-.841Zm-1.332-5.93 2.228 2.229a6.1 6.1 0 0 1 2.616 1.55c.444.444.837.995 1.137 1.582a1 1 0 1 0 1.78-.911 8.353 8.353 0 0 0-1.503-2.085 8.108 8.108 0 0 0-6.258-2.365ZM8.51 5.327l1.651 1.651a9.904 9.904 0 0 1 10.016 4.148 1 1 0 1 0 1.646-1.136A11.912 11.912 0 0 0 8.51 5.327Zm4.552 11.114a1.501 1.501 0 1 1-2.123 2.123 1.501 1.501 0 0 1 2.123-2.123Z" fill="white"/></svg>