<svg width="24" height="24" version="1.1" viewBox="0 0 24 24" xmlns="http://www.w3.org/2000/svg">
 <defs>
  <style id="current-color-scheme" type="text/css">.ColorScheme-Text { color:#727272; } .ColorScheme-Highlight { color:#5294e2; }</style>
 </defs>
 <path d="m16.67 13.13c1.37 0.93 2.33 2.19 2.33 3.87v3h4v-3c0-2.18-3.57-3.47-6.33-3.87z" class="ColorScheme-Text" style="fill:currentColor"/>
 <path d="m15 12c2.21 0 4-1.79 4-4 0-2.21-1.79-4-4-4-0.47 0-0.91 0.1-1.33 0.24 0.83 1.03 1.33 2.34 1.33 3.76s-0.5 2.73-1.33 3.76c0.42 0.14 0.86 0.24 1.33 0.24z" class="ColorScheme-Text" style="fill:currentColor"/>
 <path d="m9.0001 12c2.21 0 4-1.79 4-4 0-2.21-1.79-4-4-4-2.21 0-4 1.79-4 4 0 2.21 1.79 4 4 4zm0-6c1.1 0 2 0.9 2 2s-0.9 2-2 2c-1.1 0-2-0.9-2-2s0.9-2 2-2z" class="ColorScheme-Text" style="fill:currentColor"/>
 <path d="m9.0001 13c-2.67 0-8 1.34-8 4v3h16v-3c0-2.66-5.33-4-8-4zm6 5h-12v-0.99c0.2-0.72 3.3-2.01 6-2.01 2.7 0 5.8 1.29 6 2z" class="ColorScheme-Text" style="fill:currentColor"/>
</svg>
