<svg width="24" height="24" version="1.1" xmlns="http://www.w3.org/2000/svg">
 <defs>
  <style id="current-color-scheme" type="text/css">.ColorScheme-Text { color:#727272; } .ColorScheme-Highlight { color:#5294e2; }</style>
 </defs>
 <path class="ColorScheme-Text" d="m15.949 11a3 3 0 0 0-2.9492 3 3 3 0 0 0 3 3 3 3 0 0 0 3-3 3 3 0 0 0-3-3 3 3 0 0 0-0.05078 0zm-0.44922 1c0.277 0 0.5 0.223 0.5 0.5v1.5h1.5c0.277 0 0.5 0.223 0.5 0.5s-0.223 0.5-0.5 0.5h-2c-0.277 0-0.5-0.223-0.5-0.5v-2c0-0.277 0.223-0.5 0.5-0.5z" fill="currentColor"/>
 <path d="m20 6h-8l-2-2h-6c-1.1 0-1.99 0.9-1.99 2l-0.01 12c0 1.1 0.9 2 2 2h16c1.1 0 2-0.9 2-2v-10c0-1.1-0.9-2-2-2zm0 12h-16v-10h16z" class="ColorScheme-Text" style="fill:currentColor"/>
</svg>
