<svg width="16" height="16" version="1.1" viewBox="0 0 16 16" xmlns="http://www.w3.org/2000/svg">
 <g id="layercompo">
  <path d="m0 0h16v16h-16z" opacity="0"/>
  <path d="m7.7845 2.4763c-0.69334 0-1.2587 0.56491-1.2587 1.2582 0 0.06805 0.0075 0.13454 0.01746 0.19972-0.26113 0.31095-0.42836 0.68958-0.49964 1.0861-0.14557 0.80812-0.022446 1.7135 0.12242 2.6542 0.22388 1.45 0.47395 2.956 0.24728 4.0516-0.01995 0-0.04115-3e-3 -0.06194-3e-3 -0.31832 0-0.60672 0.12305-0.82881 0.31924-1.2509-0.48343-1.8722-0.97757-2.1067-1.388-0.31554-0.55255-0.14353-1.1234 0.18942-1.8554 0.33291-0.73206 0.85675-1.5078 0.79984-2.4245-0.028682-0.45841-0.25485-0.93172-0.67697-1.2956-0.42183-0.36399-1.0194-0.64762-1.8626-0.89425l-0.28282 0.96656c0.7616 0.22273 1.2325 0.47024 1.4874 0.69013 0.25485 0.21994 0.31583 0.38146 0.32917 0.59468 0.0266 0.42662-0.3453 1.1436-0.71047 1.9464-0.36517 0.80278-0.69509 1.8098-0.14657 2.7703 0.4027 0.70475 1.1995 1.2901 2.5514 1.8111v0.0181c0 0.69323 0.56565 1.2587 1.2587 1.2587 0.6933 0 1.2602-0.56549 1.2602-1.2587 0-0.28557-0.09951-0.54642-0.26117-0.758 0.45105-1.4545 0.043064-3.2023-0.18888-4.7034-0.14204-0.91969-0.2287-1.7573-0.12695-2.3217 0.027019-0.1513 0.061479-0.27801 0.10579-0.3891 0.18913 0.11396 0.40823 0.18349 0.64446 0.18349 0.36721 0 0.69534-0.16151 0.92554-0.41368 0.60618 0.29174 0.86909 0.56957 0.97791 0.80028 0.16519 0.35029 0.05915 0.80595-0.01 1.4614-0.06647 0.65553 0.01247 1.5259 0.77316 2.2661 0.75981 0.74025 2.0904 1.3884 4.5141 2.0379l0.26213-0.97441c-2.3466-0.62891-3.5366-1.2618-4.0733-1.7846-0.53643-0.52276-0.52961-0.89699-0.47395-1.4427 0.05516-0.5458 0.26694-1.2502-0.08364-1.9931-0.24404-0.51686-0.72984-0.94809-1.5599-1.3271-0.056656-0.6415-0.59712-1.1471-1.2527-1.1471zm0 0.50369c0.42282 0 0.75449 0.33155 0.75449 0.75455 0 0.42292-0.33167 0.75506-0.75449 0.75506-0.42312 0-0.75503-0.33213-0.75503-0.75506 0-0.423 0.33192-0.75455 0.75503-0.75455zm-1.4335 9.2469c0.42282 0 0.75653 0.33203 0.75653 0.75506 0 0.42289-0.3337 0.75454-0.75653 0.75454-0.42287 0-0.75503-0.33165-0.75503-0.75454 0-0.42303 0.33216-0.75506 0.75503-0.75506z" fill="#dedede"/>
 </g>
</svg>
