<svg width="16" height="16" version="1.1" xmlns="http://www.w3.org/2000/svg" xmlns:xlink="http://www.w3.org/1999/xlink">
 <path d="m9.5 1a0.50005 0.50005 0 0 0-0.5 0.5v3.5h1v-3h1v3h1v-3.5a0.50005 0.50005 0 0 0-0.5-0.5h-2zm-0.5 10v3.5a0.50005 0.50005 0 0 0 0.5 0.5h2a0.50005 0.50005 0 0 0 0.5-0.5v-3.5h-1v3h-1v-3h-1z" color="#000000" fill="#dedede" stroke-linejoin="round" style="-inkscape-stroke:none"/>
 <path d="m10.5 3.5a4.5 4.5 0 0 0-4.5 4.5 4.5 4.5 0 0 0 4.5 4.5 4.5 4.5 0 0 0 4.5-4.5 4.5 4.5 0 0 0-4.5-4.5zm0 2a2.5 2.5 0 0 1 2.5 2.5 2.5 2.5 0 0 1-2.5 2.5 2.5 2.5 0 0 1-2.5-2.5 2.5 2.5 0 0 1 2.5-2.5z" fill="#61a1ff"/>
</svg>
