<svg xmlns="http://www.w3.org/2000/svg" viewBox="0 0 16 16">
  <defs id="defs3051">
    <style type="text/css" id="current-color-scheme">
      .ColorScheme-Text {
        color:#dedede;
      }
      </style>
  </defs>
 <path style="fill:currentColor;fill-opacity:1;stroke:none" 
     d="M 3 2 L 3 7 L 4 7 L 4 9 L 2 9 L 2 14 L 7 14 L 7 9 L 5 9 L 5 7 L 10 7 L 10 5 L 11 5 L 11 10 L 9 10 L 9 14 L 14 14 L 14 10 L 12 10 L 12 5 L 12 4 L 10 4 L 10 2 L 3 2 z M 4 3 L 9 3 L 9 6 L 4 6 L 4 3 z M 3 10 L 6 10 L 6 13 L 3 13 L 3 10 z "
     class="ColorScheme-Text"
     />
</svg>
