<!DOCTYPE svg>
<svg version="1.1" viewBox="0 0 16 16" xmlns="http://www.w3.org/2000/svg">
    <defs>
        <style id="current-color-scheme" type="text/css">
            .ColorScheme-Text {
                color:#dedede;
            }
        </style>
    </defs>
    <path class="ColorScheme-Text" style="fill:currentColor; fill-opacity:1; stroke:none" d="M 8 2 L 8 3 L 8.55469 3 L 8.67383 3 L 12.5 13 L 11.5 13 L 11.2773 13 L 11.2636 13 L 10.8359 11.877 L 10.207 10.2734 L 8 10.2734 L 8 14 L 14 14 L 14 2 L 8 2 Z M 8 10.2734 L 8 9.36328 L 6.14648 9.36328 L 8 4.35938 L 8 3 L 7.44531 3 L 7.32617 3 L 3.5 13 L 4.5 13 L 4.72266 13 L 4.73636 13 L 5.16409 11.877 L 5.793 10.2734 L 8 10.2734 Z M 8 4.35938 L 8 9.36328 L 9.85352 9.36328 L 8 4.35938 Z"/>
</svg>
