<svg xmlns="http://www.w3.org/2000/svg" viewBox="0 0 16 16">
  <defs id="defs3051">
    <style type="text/css" id="current-color-scheme">
      .ColorScheme-Text {
        color:#dedede;
      }
      </style>
  </defs>
 <path style="fill:currentColor;fill-opacity:1;stroke:none" 
       d="M 9.5234375 2 C 9.5234375 3.42386 10.528776 4.6025519 11.285156 5.3261719 C 10.386066 6.2394919 9.27789 6.65197 7.25 7 L 7.4570312 8 C 11.977561 7.22418 14 4.38164 14 2 L 12.892578 2 C 12.892578 2.69264 12.542719 4.0299619 11.943359 4.5449219 C 11.331519 3.9651119 10.591954 3.067795 10.414062 2.015625 L 9.5234375 2 z M 4 6 L 2 9 L 6 9 L 4 6 z M 11.759766 9.0332031 C 10.892178 9.0514032 10.226425 9.1883116 9.7421875 9.3886719 L 10.013672 10.289062 C 10.2457 10.216164 11.124172 9.9609375 11.638672 9.9609375 L 11.708984 9.9609375 C 12.42525 9.9882375 12.474609 10.225699 12.474609 10.78125 L 12.474609 11 L 12.101562 11.054688 C 10.366377 11.282376 9.4394531 11.47359 9.4394531 12.675781 C 9.4394531 13.513672 10.115183 14.033203 11.09375 14.033203 C 11.769663 14.033203 12.214004 13.777721 12.667969 13.431641 L 12.808594 13.941406 L 13.876953 13.941406 L 13.876953 10.572266 C 13.876953 9.5431234 13.091454 9.0332031 11.880859 9.0332031 L 11.759766 9.0332031 z M 2 11 L 4 14 L 6 11 L 2 11 z M 12.474609 11.710938 L 12.474609 12.830078 C 12.101351 13.057768 11.820175 13.222656 11.335938 13.222656 C 10.902142 13.222656 10.689453 12.97694 10.689453 12.630859 C 10.689453 11.975118 11.324762 11.865805 12.101562 11.765625 L 12.474609 11.710938 z "
     class="ColorScheme-Text"
     />
</svg>
