<svg xmlns="http://www.w3.org/2000/svg" viewBox="0 0 16 16">
  <defs id="defs3051">
    <style type="text/css" id="current-color-scheme">
      .ColorScheme-Text {
        color:#dedede;
      }
      </style>
  </defs>
 <path style="fill:currentColor;fill-opacity:1;stroke:none" 
     d="M 8.1308594 2.0039062 C 5.2311494 2.1223362 2.8303544 4.66121 2.9589844 7.65625 C 2.9831844 8.21886 3.1173938 8.7510325 3.3085938 9.2578125 L 4.7714844 8.7714844 C 4.6260844 8.4198044 4.5222606 8.04906 4.4941406 7.65625 C 4.3397206 5.49901 6.0545894 3.6528013 8.1308594 3.5195312 C 10.456709 3.3702513 12.438483 5.30969 12.564453 7.65625 C 12.703573 10.24776 10.634179 12.451212 8.1308594 12.576172 C 5.9526894 12.684912 4.0575238 11.242932 3.3085938 9.2578125 L 2 9.6914062 C 2.92184 12.239646 5.3516994 14.092144 8.1308594 13.996094 C 11.403899 13.882984 14.116914 11.03165 13.996094 7.65625 C 13.883034 4.49694 11.247609 1.8766063 8.1308594 2.0039062 z M 4.7714844 8.7714844 C 5.3255044 10.111504 6.6402094 11.069487 8.1308594 10.935547 C 9.7358694 10.791317 11.059146 9.33494 10.878906 7.65625 C 10.731236 6.28093 9.5139394 5.1424894 8.1308594 5.3496094 C 7.0721394 5.5081694 6.1844112 6.53225 6.4257812 7.65625 C 6.4631812 7.83039 6.5376656 7.9996369 6.6347656 8.1542969 L 8.1308594 7.65625 C 8.8588994 7.65625 8.5850994 8.530305 8.1308594 8.734375 C 7.5462494 8.997035 6.9530456 8.6611569 6.6347656 8.1542969 L 4.7714844 8.7714844 z "
     class="ColorScheme-Text"
     />
</svg>
