<svg width="16" height="16" version="1.1" viewBox="0 0 16 16" xmlns="http://www.w3.org/2000/svg">
 <g id="edit-select-all" transform="translate(-45 -707.36)">
  <path transform="translate(45 707.36)" d="m0 0v1h1v-1h-1zm2 0v1h1v-1h-1zm2 0v1h1v-1h-1zm2 0v1h1v-1h-1zm2 0v1h1v-1h-1zm2 0v1h1v-1h-1zm2 0v1h1v-1h-1zm2 0v1h1v-1h-1zm-14 2v1h1v-1h-1zm2 0v11h11v-11h-11zm12 0v1h1v-1h-1zm-11 1h9v9h-9v-9zm-3 1v1h1v-1h-1zm4 0v7h7v-7h-7zm10 0v1h1v-1h-1zm-14 2v1h1v-1h-1zm14 0v1h1v-1h-1zm-14 2v1h1v-1h-1zm14 0v1h1v-1h-1zm-14 2v1h1v-1h-1zm14 0v1h1v-1h-1zm-14 2v1h1v-1h-1zm14 0v1h1v-1h-1zm-14 2v1h1v-1h-1zm2 0v1h1v-1h-1zm2 0v1h1v-1h-1zm2 0v1h1v-1h-1zm2 0v1h1v-1h-1zm2 0v1h1v-1h-1zm2 0v1h1v-1h-1zm2 0v1h1v-1h-1z" fill="#dedede"/>
 </g>
</svg>
