<svg width="16" height="16" version="1.1" viewBox="0 0 16 16" xmlns="http://www.w3.org/2000/svg">
 <g id="edit-clone" transform="translate(-45 -607.36)">
  <path transform="translate(45 607.36)" d="m0 0v9h2c-0.12036-2.7682 0.753-5 3-5h3v-4h-8zm11.582 2.8438c-1.4464 0.36182-2.2503 2.1506-2.002 3.3398-1.3369 0.91068-2.5364 2.0701-3.4785 3.4141-0.97225-1.0978-1.3126-2.6406-0.88281-4.0605-1.7366 1.6684-1.5239 4.7177-0.30859 6.1758-0.5773 1.327-0.91016 2.7697-0.91016 4.2871h1c0-1.2769 0.25721-2.504 0.71094-3.6465 0.046075 0.021808 0.091194 0.042567 0.13867 0.060546 2.9406 1.1136 5.2218 0.071105 6.2246-2.4531-1.3422 1.1702-3.3221 1.4322-4.9434 0.48242-0.10469-0.061327-0.20539-0.12671-0.30273-0.19531 0.85759-1.2689 1.9673-2.3683 3.2168-3.2285 1.3484 1.4344 2.6702 1.1976 4.0293 0.31445-1.0412 0.23959-2.1591-0.15028-2.7969-1.0605 1.494-0.78835 3.1202-1.2479 4.7227-1.2734l0.052734-1.0137c-1.7269 0.027547-3.5179 0.53514-5.1758 1.4141-0.23175-0.90942 0.035362-1.8861 0.70508-2.5566z" fill="#dedede"/>
 </g>
</svg>
