<svg version="1.1" viewBox="0 0 16 16" xmlns="http://www.w3.org/2000/svg">
 <defs>
  <style id="current-color-scheme" type="text/css">.ColorScheme-Text {
        color:#dedede;
      }</style>
 </defs>
 <g style="fill:currentColor" class="ColorScheme-Text">
  <path d="m3.2679 12a2 2 0 0 0 0.73205 2.7321 2 2 0 0 0 2.7321-0.73205 2 2 0 0 0-0.33126-2.4262l5.5322-9.5821-0.86603-0.5-5.5332 9.5838a2 2 0 0 0-2.2658 0.92454zm0.86602 0.5a1 1 0 0 1 1.366-0.36603 1 1 0 0 1 0.36603 1.366 1 1 0 0 1-1.366 0.36602 1 1 0 0 1-0.36603-1.366z"/>
  <path d="m12.732 12a2 2 0 0 1-0.73205 2.7321 2 2 0 0 1-2.732-0.73205 2 2 0 0 1 0.33126-2.4262l-5.5322-9.5821 0.86603-0.5 5.5332 9.5838a2 2 0 0 1 2.2658 0.92454zm-0.86602 0.5a1 1 0 0 0-1.366-0.36603 1 1 0 0 0-0.36602 1.366 1 1 0 0 0 1.366 0.36602 1 1 0 0 0 0.36603-1.366z"/>
  <path d="m7 8.6855v1.043c0.3037 0.17677 0.64861 0.27041 1 0.27148 0.35122-4.809e-4 0.69611-0.093442 1-0.26953v-1.0449h-0.27344c-0.18862 0.20031-0.45143-0.18595-0.72656-0.18555-0.27513-4.036e-4 -0.53795 0.38585-0.72656 0.18555z"/>
 </g>
</svg>
