<svg xmlns="http://www.w3.org/2000/svg" width="16" height="16" version="1.1" id="svg7">
  <defs id="defs3">
    <style id="current-color-scheme" type="text/css">
      .ColorScheme-Text { color:#dedede; }
    </style>
  </defs>
<path style="fill:currentColor;fill-opacity:1;stroke:none"
d="M 1 2 C 0.446 2 0 2.446 0 3 L 0 13 C 0 13.554 0.446 14 1 14 L 14 14 C 14.554 14 15 13.554 15 13 L 15 3 C 15 2.446 14.554 2 14 2 L 1 2 z M 1 3 L 14 3 L 14 13 L 1 13 L 1 3 z M 2 4 L 2 6 L 4 6 L 4 4 L 2 4 z M 5 4 L 5 6 L 7 6 L 7 4 L 5 4 z M 8 4 L 8 6 L 10 6 L 10 4 L 8 4 z M 11 4 L 11 6 L 13 6 L 13 4 L 11 4 z M 2 7 L 2 9 L 4 9 L 4 7 L 2 7 z M 5 7 L 5 9 L 7 9 L 7 7 L 5 7 z M 8 7 L 8 9 L 10 9 L 10 7 L 8 7 z M 11 7 L 11 9 L 13 9 L 13 7 L 11 7 z M 4 10 L 4 12 L 11 12 L 11 10 L 4 10 z "
class="ColorScheme-Text" />
</svg>
