<svg version="1.1" viewBox="0 0 16 16" xmlns="http://www.w3.org/2000/svg">
 <defs>
  <style id="current-color-scheme" type="text/css">.ColorScheme-Text {
        color:#dedede;
      }</style>
 </defs>
 <g class="ColorScheme-Text" fill="currentColor">
  <path d="m6 3c-1.108 0-2 0.892-2 2v8c0 1.108 0.892 2 2 2h2v-1h-2c-0.554 0-1-0.446-1-1v-8c0-0.554 0.446-1 1-1h7c0.554 0 1 0.446 1 1v2h1v-2c0-1.108-0.892-2-2-2z"/>
  <path d="m3 1c-1.108 0-2 0.892-2 2v8c0 1.108 0.892 2 2 2h1v-1h-1c-0.554 0-1-0.446-1-1v-8c0-0.554 0.446-1 1-1h7c0.554 0 1 0.446 1 1h1c0-1.108-0.892-2-2-2z"/>
  <path d="m12.5 8a3.5 3.5 0 0 0-3.5 3.5 3.5 3.5 0 0 0 3.5 3.5 3.5 3.5 0 0 0 3.5-3.5 3.5 3.5 0 0 0-3.5-3.5zm-1.5 2h1v2h2v1h-3v-1z"/>
 </g>
</svg>
