<svg width="16" height="16" version="1.1" viewBox="0 0 16 16" xmlns="http://www.w3.org/2000/svg">
 <g id="layercompo" fill="#dedede">
  <path d="m5.084 0.90039c-0.26681-0.021135-0.55139-0.018445-0.85547 0.0097656l0.089843 0.9707c1.0226-0.09487 1.6116 0.13112 2.125 0.51758 0.51345 0.38646 0.94138 0.97824 1.4648 1.6133 0.52346 0.63504 1.1568 1.3099 2.1094 1.7559 0.95261 0.446 2.1994 0.65034 3.9082 0.44531l-0.11719-0.96875c-1.579 0.18945-2.6138-0.004051-3.377-0.36133-0.7631-0.35728-1.278-0.89357-1.7715-1.4922-0.49344-0.59862-0.95105-1.2632-1.6289-1.7734-0.50839-0.38265-1.1468-0.65339-1.9473-0.7168zm-2.457 2.752a0.48791 0.48791 0 0 0-0.13867 0.94922c0.92138 0.33092 1.0001 0.64598 0.93555 1.2715-0.064542 0.6255-0.47467 1.5197-0.85547 2.4609-0.38089 0.94121-0.74448 1.9604-0.52734 2.9824 0.21723 1.0221 1.0757 1.9054 2.7402 2.4531a0.48824 0.48824 0 0 0 0.30469-0.92773c-1.481-0.4872-1.953-1.0757-2.0918-1.7285-0.13867-0.6528 0.11394-1.511 0.47852-2.4121 0.36466-0.9011 0.82774-1.8166 0.92188-2.7285 0.094047-0.9118-0.38131-1.862-1.5762-2.291a0.48791 0.48791 0 0 0-0.19141-0.029297zm11.377 5.1758a0.48794 0.48794 0 0 0-0.47461 0.48633c0 1.8418-0.38195 2.5851-0.76368 2.8516-0.38162 0.26655-0.99727 0.20874-1.752 0.02148-0.75468-0.18717-1.5576-0.50849-2.3652-0.37305-0.40376 0.06731-0.81615 0.30663-1.0645 0.71094-0.2484 0.40431-0.35818 0.92914-0.37109 1.625a0.48836 0.48836 0 1 0 0.97656 0.01758c0.011064-0.59573 0.11629-0.95143 0.22656-1.1309 0.11018-0.17943 0.19969-0.2274 0.39258-0.25977 0.38578-0.06454 1.1562 0.15782 1.9687 0.35938 0.81259 0.20155 1.7591 0.37821 2.5469-0.17188 0.78787-0.55017 1.1816-1.676 1.1816-3.6504a0.48794 0.48794 0 0 0-0.50195-0.48633z"/>
  <path d="m2.4316 4.0108 2.0263-2.7356 2.229 0.54036 1.486 1.7224 1.9588 1.8237 3.0395 0.6079 0.6079-0.30395 0.33773 3.6136-0.33773 2.7018-0.67544 0.6079-1.0807 0.3715-1.486-0.40527-1.5873-0.0676-1.0807 0.13509-0.40527 0.77677 0.06754 0.87807-2.4654-0.9118-2.0601-1.0807-0.57413-1.3509s0.06754-0.94562 0.20263-1.2496c0.13509-0.30395 0.40527-1.4522 0.6079-1.7562 0.20263-0.30395 0.6079-1.3171 0.57413-1.6886-0.033772-0.37149-0.20263-1.2158-0.20263-1.2158l-0.13509-0.40527z" opacity=".3"/>
 </g>
</svg>
