<svg xmlns="http://www.w3.org/2000/svg" viewBox="0 0 16 16">
  <defs id="defs3051">
    <style type="text/css" id="current-color-scheme">
      .ColorScheme-Text {
        color:#dedede;
      }
      </style>
  </defs>
 <path style="fill:currentColor;fill-opacity:1;stroke:none" 
     d="m8 2c-3.314 0-6 2.686-6 6 0 3.314 2.686 6 6 6 3.314 0 6-2.686 6-6 0-3.314-2.686-6-6-6m0 1c1.2 0 2.263.452 3.125 1.156l-3.125 3.125-3.125-3.125c.862-.704 1.925-1.156 3.125-1.156m-3.844 1.875l3.125 3.125-3.125 3.125c-.704-.862-1.156-1.925-1.156-3.125 0-1.2.452-2.263 1.156-3.125m7.688 0c.704.862 1.156 1.925 1.156 3.125 0 1.2-.452 2.263-1.156 3.125l-3.125-3.125zm-3.844 3.844l3.125 3.125c-.862.704-1.925 1.156-3.125 1.156-1.2 0-2.263-.452-3.125-1.156z"
     class="ColorScheme-Text"
     />
</svg>
