<?xml version="1.0" encoding="UTF-8" standalone="no"?>
<!-- Created with Inkscape (http://www.inkscape.org/) -->

<svg
   width="16"
   height="16"
   viewBox="0 0 4.2333332 4.2333335"
   version="1.1"
   id="svg11945"
   inkscape:version="1.1.1 (3bf5ae0d25, 2021-09-20, custom)"
   sodipodi:docname="go-down-skip.svg"
   xmlns:inkscape="http://www.inkscape.org/namespaces/inkscape"
   xmlns:sodipodi="http://sodipodi.sourceforge.net/DTD/sodipodi-0.dtd"
   xmlns="http://www.w3.org/2000/svg"
   xmlns:svg="http://www.w3.org/2000/svg">
  <sodipodi:namedview
     id="namedview11947"
     pagecolor="#ffffff"
     bordercolor="#666666"
     borderopacity="1.0"
     inkscape:pageshadow="2"
     inkscape:pageopacity="0.0"
     inkscape:pagecheckerboard="0"
     inkscape:document-units="px"
     showgrid="false"
     units="in"
     inkscape:zoom="31.068504"
     inkscape:cx="4.5383582"
     inkscape:cy="8.4168842"
     inkscape:window-width="1920"
     inkscape:window-height="996"
     inkscape:window-x="0"
     inkscape:window-y="0"
     inkscape:window-maximized="1"
     inkscape:current-layer="svg11945"
     showguides="true" />
  <defs
     id="defs11942" />
  <path
     id="rect923"
     style="fill:#dedede;fill-opacity:1;stroke-width:1.32292;stroke-linecap:round;stroke-linejoin:round"
     d="m 2.1166666,3.5719857 c -0.033816,3e-7 -0.067623,-0.012845 -0.093534,-0.038757 -0.00162,-0.00162 -0.00365,-0.00349 -0.00517,-0.00517 L 0.56792399,2.07802 c -0.051821,-0.051827 -0.0518239,-0.1352454 0,-0.1870687 0.051824,-0.051824 0.13524547,-0.051824 0.18706867,0 l 1.36167394,1.361674 1.3616739,-1.361674 c 0.051823,-0.051824 0.1352455,-0.051824 0.1870689,0 0.051824,0.051824 0.051824,0.1352453 0,0.1870687 L 2.210201,3.5332283 c -0.025914,0.025911 -0.059719,0.038757 -0.093534,0.038757 z m 0,-1.0583334 c -0.033816,4e-7 -0.067623,-0.012845 -0.093534,-0.038757 -0.00162,-0.00162 -0.00365,-0.00349 -0.00517,-0.00517 L 0.56792399,1.0196868 c -0.0518209,-0.0518271 -0.0518238,-0.13524546 0,-0.18706887 0.0518239,-0.0518239 0.1352455,-0.0518239 0.18706867,0 L 2.1166666,2.194292 3.4783405,0.83261793 c 0.051823,-0.0518239 0.1352455,-0.0518239 0.1870689,0 0.051824,0.0518242 0.051824,0.13524548 0,0.18706887 L 2.210201,2.474895 c -0.025914,0.02591 -0.059719,0.038757 -0.093534,0.038757 z" />
</svg>
