<svg width="16" height="16" version="1.1" viewBox="0 0 16 16" xmlns="http://www.w3.org/2000/svg">
 <g id="layercompo" fill="#dedede">
  <path d="m10.098 2.748 0.76367 0.16992 0.16797-0.76367-0.76368-0.16797zm-8.168 0.10352h0.7793v-0.78125h-0.7793zm7.918 1.4785 0.77539 0.08594 0.0879-0.77539-0.77539-0.08789zm-7.918 0.082031h0.7793v-0.7793h-0.7793zm7.8887 0.74609 0.0098 0.55664v0.0293l0.0039 0.0293 0.03711 0.2207 0.77148-0.12891-0.0332-0.19141-0.01-0.5293zm-7.8887 0.81641h0.7793v-0.78125h-0.7793zm8.1055 0.8457 0.21093 0.61328 0.01 0.0293 0.0137 0.02734 0.0625 0.11719 0.68945-0.36523-0.0488-0.09375-0.19922-0.58008zm-8.1055 0.71484h0.7793v-0.7793h-0.7793zm8.8164 0.79297 0.27344 0.38281 0.01 0.01367 0.0117 0.01367 0.20312 0.23633 0.5918-0.50976-0.19922-0.23242-4e-3 -0.0039-0.25-0.35352zm-8.8164 0.76953h0.7793v-0.78125h-0.7793zm9.8457 0.46875 0.53125 0.57226 0.57227-0.53125-0.53125-0.57227zm-9.8457 1.0918h0.7793v-0.77929h-0.7793zm10.805 0.0371 0.22851 0.375 0.0996 0.25391 0.72656-0.28711-0.11328-0.28711-0.0117-0.0332-0.0195-0.0273-0.24414-0.40234zm-10.805 1.5254h0.7793v-0.78125h-0.7793zm11.313-0.21875 0.0371 0.20508-6e-3 0.49805 0.78125 8e-3 6e-3 -0.53516v-0.0371l-6e-3 -0.0371-0.0449-0.24024zm-11.313 1.7793h0.7793v-0.7793h-0.7793zm11.141 0.32406 0.76953 0.13477 0.11914-0.69129-0.76953-0.13477z" opacity=".5"/>
  <path d="m8.3945 1.9844c-0.83484 3.6206-6.6e-4 5.4862 0.87891 6.9512 0.87956 1.4649 1.7356 2.4732 1.252 4.9297l0.76758 0.15039c0.52799-2.6818-0.50062-4.0684-1.3496-5.4824-0.84899-1.414-1.5871-2.9122-0.78906-6.373zm-2.0859 0.019531c-0.55684 3.0893-0.009142 4.9855 0.57226 6.6191 0.58141 1.6337 1.1723 2.9786 0.84766 5.2617l0.77344 0.10937c0.34994-2.461-0.31382-4.0285-0.88476-5.6328-0.57094-1.6043-1.0728-3.2703-0.54102-6.2207zm-2.0859 0.025391c-0.2773 2.5467-0.007656 4.4774 0.28125 6.2812 0.28891 1.8039 0.5941 3.4776 0.42969 5.5996l0.77734 0.0605c0.17262-2.228-0.15033-3.9901-0.4375-5.7832-0.28717-1.793-0.54229-3.6211-0.27539-6.0723z"/>
 </g>
</svg>
