<svg width="16" height="16" version="1.1" xmlns="http://www.w3.org/2000/svg">
 <path d="m5.303 0.70019c-0.74815-0.020355-1.4211 0.23775-1.8743 0.75496-0.4532 0.51691-0.65675 1.2029-0.74061 1.9065-0.16793 1.4072 0.09058 3.0418 0.35815 4.6532 0.26716 1.6113 0.55355 3.1999 0.5562 4.2339 0 0.51691-0.083455 0.86916-0.14788 0.9863-0.065136 0.11704-0.041728 0.13852-0.32303 0.13048-0.63579-0.01832-0.85318-0.26044-1.0788-0.79842s-0.32537-1.4104-0.30482-2.3153c0.041728-1.8098 0.1202-2.1762 0.1202-2.1762l-1.4064-0.012213s-0.034603 0.44781-0.082438 2.542c-0.023408 1.0471-0.041728 1.7388 0.35499 2.6837 0.39651 0.94488 1.248 1.7125 2.3604 1.7447 0.64647 0.01832 1.2831-0.34064 1.5969-0.90803 0.31387-0.56739 0.37494-1.2066 0.37331-1.8821 0-1.3504-0.31947-2.9561-0.58205-4.5402-0.26258-1.5842-0.46033-3.1443-0.34441-4.1158 0.058012-0.48587 0.18157-0.78672 0.32456-0.94976 0.14279-0.16304 0.33514-0.27866 0.80453-0.26614 0.46297 0.012213 0.70326 0.12701 0.83659 0.24355 0.13332 0.11643 0.21118 0.25769 0.26665 0.54103 0.11093 0.56648-0.012213 1.6149-0.21637 2.7084-0.20365 1.0938-0.46959 2.2231-0.44496 3.2738 0.012213 0.52546 0.099739 1.0714 0.42063 1.5343 0.3209 0.46297 0.8547 0.72525 1.4202 0.75842 0.46877 0.02748 0.89664-0.0519 1.2586-0.27835 0.36201-0.22706 0.62296-0.60068 0.76647-0.97582 0.287-0.75059 0.24192-1.508 0.21637-2.1953-0.025444-0.68739-0.041728-1.3241 0.021373-1.6004 0.03155-0.13821 0.056994-0.15775 0.058012-0.15826 6.106e-4 -6.106e-4 0.02239-0.034603 0.20416-0.029515 0.22187 0 0.24243 0.043763 0.27581 0.075313 0.03359 0.03155 0.09363 0.12457 0.19816 0.32873 0.10401 0.20416 0.2526 0.51691 0.54704 0.78804s0.71598 0.44638 1.1931 0.46959c1.638-0.28069 2.3245-1.022 3.4666-0.085491v-1.6908c-1.5139-0.74916-2.3346-0.16386-3.4042 0.10778-0.24436-0.012213-0.29291-0.060047-0.33677-0.10076-0.043763-0.04071-0.10208-0.1317-0.20263-0.32883-0.10076-0.19724-0.23988-0.50175-0.52729-0.7741-0.28751-0.27235-0.70825-0.44394-1.1733-0.45748-0.42104-0.012213-0.83669 0.10971-1.1506 0.39489-0.31387 0.28548-0.47987 0.68016-0.5622 1.0437-0.16488 0.72687-0.092615 1.438-0.068189 2.091 0.024426 0.65319-0.010178 1.2281-0.09465 1.4543-0.043763 0.11317-0.067171 0.14025-0.12956 0.17912-0.062082 0.038674-0.19978 0.091597-0.47997 0.075313-0.28049-0.016284-0.31184-0.071242-0.34899-0.12528-0.037657-0.053941-0.099739-0.22044-0.10666-0.54449-0.015266-0.648 0.20375-1.7505 0.41453-2.8824 0.21078-1.1316 0.43122-2.3052 0.21332-3.4182-0.109-0.5565-0.36456-1.1172-0.80606-1.5029-0.4417-0.38573-1.0178-0.57167-1.69-0.58968z" color="#000000" fill="#dedede" stroke-width="1.3231"/>
</svg>
