<svg version="1.1" viewBox="0 0 16 16" xmlns="http://www.w3.org/2000/svg">
    <defs>
        <style id="current-color-scheme" type="text/css">.ColorScheme-Text {
        color:#dedede;
      }</style>
    </defs>
    <path style="fill:currentColor;fill-opacity:1;stroke:none" class="ColorScheme-Text" d="m8 3v1h1v1.0507812c-1.6854106 0.2473954-3 1.6992853-3 3.4492188 0 1.921152 1.578848 3.5 3.5 3.5s3.5-1.578848 3.5-3.5c0-0.78264-0.271421-1.497759-0.712891-2.0800781l0.557422-0.5574219 0.444531 0.4445312 0.708985-0.7050781-1.592188-1.6-0.708984 0.7070313 0.442578 0.4445312-0.561328 0.5613282c-0.456726-0.339231-0.992024-0.578031-1.578125-0.6640626v-1.0507812h1v-1zm-3 1-3 4 3 4zm4.5 2c1.380712 0 2.5 1.119288 2.5 2.5s-1.119288 2.5-2.5 2.5c-1.3807119 0-2.5-1.119288-2.5-2.5s1.1192881-2.5 2.5-2.5z"/>
</svg>
