<svg xmlns="http://www.w3.org/2000/svg" viewBox="0 0 16 16">
  <defs id="defs3051">
    <style type="text/css" id="current-color-scheme">
      .ColorScheme-Text {
        color:#dedede;
      }
      .ColorScheme-Highlight {
        color:#3daee9;
      }
      .ColorScheme-PositiveText {
        color:#27ae60;
      }
      </style>
  </defs>
  <path 
        style="fill:currentColor;fill-opacity:1;stroke:none"
        d="m 2,2 0,12 12,0 0,-12 z m 1,1 10,0 0,8 -5,0 0,1 -2,0 0,-1 -3,0 0,-1 z m 1,1 0,6 8,0 0,-6 z m 1,1 1,0 0,2 4,0 0,-2 1,0 0,4 -6,0 z m -2,7 2,0 0,1 -2,0 z m 6,0 3,0 0,1 -3,0 z"
        class="ColorScheme-Text"
        />
  <path
       style="fill:currentColor;fill-opacity:1;stroke:none" 
     class="ColorScheme-PositiveText"
     d="m 6,5.9999852 c 2.216,0 4,1.784 4,4 0,2.2159998 -1.784,3.9999998 -4,3.9999998 -2.216,0 -4,-1.784 -4,-3.9999998 0,-2.216 1.784,-4 4,-4 z"
      />
  <path
     d="M 8,8 5,11 4,10 3,11 5,13 9,9 Z"
     style="fill:#ffffff;fill-rule:evenodd"
      />
</svg>
