<svg xmlns="http://www.w3.org/2000/svg" viewBox="0 0 16 16">
  <defs id="defs3051">
    <style type="text/css" id="current-color-scheme">
      .ColorScheme-Text {
        color:#dedede;
      }
      </style>
  </defs>
 <path style="fill:currentColor;fill-opacity:1;stroke:none" 
     d="m8 2c-3.314 0-6 2.686-6 6 0 3.314 2.686 6 6 6 3.314 0 6-2.686 6-6 0-3.314-2.686-6-6-6m0 1c2.761 0 5 2.239 5 5 0 2.761-2.239 5-5 5-2.761 0-5-2.239-5-5 0-2.761 2.239-5 5-5m0 2c-1.657 0-3 1.343-3 3 0 1.657 1.343 3 3 3 .943-.001 1.831-.446 2.396-1.201l-.799-.6c-.377.503-.969.8-1.598.801-1.105 0-2-.895-2-2 0-1.105.895-2 2-2 .63 0 1.222.297 1.6.801l.797-.6c-.566-.755-1.453-1.2-2.396-1.201"
     class="ColorScheme-Text"
     />
</svg>
