<svg xmlns="http://www.w3.org/2000/svg" viewBox="0 0 16 16">
  <defs id="defs3051">
    <style type="text/css" id="current-color-scheme">
      .ColorScheme-Text {
        color:#dedede;
      }
      .ColorScheme-NegativeText {
        color:#da4453;
      }
      </style>
  </defs>
  <path style="fill:currentColor;fill-opacity:1;stroke:none" 
     d="M 7 2 C 5.343 2 4 3.343 4 5 C 4 6.657 5.343 8 7 8 C 8.657 8 10 6.657 10 5 C 10 3.343 8.657 2 7 2 z M 7 3 C 8.105 3 9 3.895 9 5 C 9 6.105 8.105 7 7 7 C 5.895 7 5 6.105 5 5 C 5 3.895 5.895 3 7 3 z M 7 9 C 4.239 9 2 11.01 2 13.5 C 2.001 13.667 2.0122031 13.834 2.0332031 14 L 11.962891 14 C 11.985891 13.834 11.998 13.667 12 13.5 C 12 11.015 9.761 9 7 9 z M 7 10 C 8.987 10.002 10.671078 11.279 10.955078 13 L 3.0449219 13 C 3.3289219 11.279 5.013 10.002 7 10 z "
     class="ColorScheme-Text"
     />
  <path
     style="fill:currentColor;fill-opacity:1;stroke:none" 
     class="ColorScheme-NegativeText"
    d="M 13 2 A 1 1 0 0 0 12 3 A 1 1 0 0 0 13 4 A 1 1 0 0 0 14 3 A 1 1 0 0 0 13 2 z M 13 5 A 1 1 0 0 0 12 6 A 1 1 0 0 0 13 7 A 1 1 0 0 0 14 6 A 1 1 0 0 0 13 5 z M 13 8 A 1 1 0 0 0 12 9 A 1 1 0 0 0 13 10 A 1 1 0 0 0 14 9 A 1 1 0 0 0 13 8 z "/>
</svg>
