<svg width="16" height="16" version="1.1" xmlns="http://www.w3.org/2000/svg">
 <path d="m13.463 2.5374c4.6822 4.6822-3.1215 7.8037 0 10.925-4.6822 4.6822-7.8037-3.1215-10.925 0-4.6822-4.6822 3.1215-7.8037 0-10.925 4.6822-4.6822 7.8037 3.1215 10.925 0z" fill="#3daee9" opacity=".35"/>
 <path d="m2 0c-1.108 0-2 0.892-2 2v12c0 1.108 0.892 2 2 2h12c1.108 0 2-0.892 2-2v-12c0-1.108-0.892-2-2-2h-12zm0 1h12c0.554 0 1 0.446 1 1v12c0 0.554-0.446 1-1 1h-12c-0.554 0-1-0.446-1-1v-12c0-0.554 0.446-1 1-1z" fill="#dedede" stroke-linecap="round" stroke-linejoin="round" stroke-width="2"/>
</svg>
