<svg width="16" height="16" version="1.1" viewBox="0 0 16 16" xmlns="http://www.w3.org/2000/svg">
 <g id="layercompo" fill="#dedede">
  <path d="m1.6285 1.2645v1.6676h0.61698v9.6889h-0.61698v1.6676h1.6676v-0.74351l9.6582-2.1314v0.35826h1.6676v-1.6676h-0.52716v-4.6486h0.52716v-1.6676h-1.6676v0.38571l-9.6582-2.1314v-0.77793zm0.47645 0.47644h0.71467v0.71467h-0.71467zm1.1911 0.7877 6.3729 1.407-1.6187 2.3999-5.3279 0.18565v-3.5891h0.57369zm6.5534 1.447 3.1048 0.68536v0.79469h0.66395v1.5898l-2.3366-0.47411zm3.5812 0.28894h0.71467v0.71467h-0.71467zm-10.708 2.4185 4.0191 2.4692-0.84681 3.3314-2.5986 0.57321v-0.43597h-0.57369zm10.896 0.5946v2.8266h-0.66395v0.82212l-0.53274 0.11773-0.38247-2.2473zm-3.8623 2.8154 2.4092 1.0073-5.7992 1.2795zm3.6748 0.48761h0.71467v0.71467h-0.71467zm-11.326 2.5167h0.71467v0.71467h-0.71467z"/>
  <path d="m3.0929 2.0224v0.46063h-0.57461v10.165h0.57461v0.49414l10.135-2.2361v-0.77468h0.66349v-5.125h-0.66349v-0.74816z" opacity=".2"/>
 </g>
</svg>
