<svg width="16" height="16" version="1.1" viewBox="0 0 16 16" xmlns="http://www.w3.org/2000/svg">
 <g id="layercompo">
  <path d="m0 0h16v16h-16z" opacity="0"/>
  <path d="m7.278 0.91409v3.5722h0.72201v-0.48632c1.3009 0.11731 2.4732 0.85684 3.134 2.0013 0.72184 1.2503 0.72184 2.7892 0 4.0394-0.66074 1.1444-1.8331 1.8844-3.134 2.0017v-0.53205h-0.72201v3.618h0.71641v-2.3662c0.41532-0.03136 0.82049-0.11628 1.206-0.25063l0.40464 0.9269 0.6562-0.28563-0.40417-0.92923c0.36363-0.19215 0.70153-0.43073 1.0053-0.71127l0.74114 0.68934 0.48865-0.52365-0.74114-0.69027c0.1475-0.18469 0.28392-0.38024 0.40418-0.58853 0.08733-0.15126 0.16352-0.30709 0.23289-0.46485l2.2332 0.78595 0.23802-0.6758-2.2318-0.78548c0.1078-0.40006 0.16291-0.81078 0.16428-1.2219l1.0072-0.072339-0.05087-0.71641-1.0095 0.073742c-0.060079-0.4047-0.17244-0.80284-0.33744-1.185l0.89703-0.46905-0.33323-0.6352-0.89656 0.47091c-0.22102-0.35399-0.48454-0.67243-0.78221-0.95116l1.4828-1.8463-0.55912-0.44805-1.4823 1.844c-0.33924-0.23286-0.70754-0.42107-1.0963-0.55959l0.26603-0.97543-0.69167-0.18902-0.26556 0.97497c-0.17919-0.034692-0.36153-0.05891-0.54559-0.072808v-2.3662zm0 4.5509v1.0356h0.72201v-1.0356zm0 2.0162v1.0338h0.72201v-1.0338zm0 2.0143v1.0356h0.72201v-1.0356z" fill="#dedede"/>
  <path d="m7.4419 3.2654c-1.6986 0-3.2695 0.90676-4.1188 2.3778-0.84932 1.4711-0.84932 3.2846 0 4.7556 0.84932 1.4711 2.4202 2.3778 4.1188 2.3778v-0.71617c-1.4437 0-2.7761-0.76948-3.4979-2.0197-0.72183-1.2503-0.72183-2.7892 0-4.0395 0.72184-1.2503 2.0543-2.0197 3.4979-2.0197z" fill="#dedede" opacity=".4"/>
 </g>
</svg>
