<svg width="16" height="16" version="1.1" viewBox="0 0 16 16" xmlns="http://www.w3.org/2000/svg">
 <g id="layercompo">
  <path d="m8.2995 0.81173v0.65073c0.45032 0.018513 0.77533 0.31317 0.94891 0.67814 0.17575 0.36953 0.25062 0.8188 0.31983 1.2832 0.069214 0.46439 0.1303 0.94274 0.23999 1.3433 0.10969 0.40055 0.26767 0.7094 0.49634 0.87821 0.22019 0.16256 0.55538 0.21832 0.96527 0.19959 0.40987-0.01872 0.87941-0.10829 1.3375-0.18516 0.45809-0.07688 0.90269-0.14414 1.3-0.0909 0.39732 0.05324 0.77436 0.28226 0.90323 0.71613 0.13076 0.44026-0.0515 0.84748-0.34869 1.1288-0.2972 0.28131-0.7012 0.49236-1.1216 0.70171-0.42036 0.20933-0.85811 0.41349-1.2053 0.64159-0.34714 0.2281-0.59208 0.47397-0.68198 0.74355-0.0859 0.2575-0.0309 0.59412 0.12024 0.9797 0.15111 0.38558 0.39007 0.80574 0.61417 1.2197 0.2241 0.41395 0.43631 0.8187 0.51654 1.2144 0.0401 0.19785 0.0468 0.3978-0.013 0.59061-0.0598 0.19282-0.19092 0.36757-0.37803 0.49634-0.37447 0.2577-0.81583 0.20619-1.1759 9e-3 -0.36008-0.19692-0.69002-0.51747-1.0215-0.85258-0.33151-0.33513-0.66185-0.68667-0.98162-0.94507-0.26979-0.21803-0.52521-0.359-0.75365-0.39823-0.02221 0.0268-0.04201 0.0528-0.06974 0.0818-0.0032 3e-3 -0.0078 7e-3 -0.01106 0.0106v0.55497h-0.6815v-0.0375c-0.03892 0.0211-0.07629 0.045-0.11639 0.063-0.10492 0.0472-0.22574 0.0459-0.34196 0.0582-0.06989 0.22212-0.15904 0.43989-0.30733 0.61609-0.09821 0.11671-0.19799 0.21701-0.29963 0.29242-0.05083 0.0377-0.0996 0.0712-0.17074 0.0947-0.0094 3e-3 -0.03014-0.0116-0.04184-9e-3 -0.08202 0.0541-0.11631 0.0959-0.11639 0.0962-9.4e-5 3.2e-4 -0.0026 8e-3 0.01635 0.0673 0.0094 0.0296 0.02572 0.0688 0.03078 0.13851 0.0051 0.0698-0.02569 0.1894-0.10004 0.25779-0.1019 0.0938-0.21571 0.0779-0.32897 0.0818-0.04345 0.0785-0.08057 0.16209-0.14525 0.22364-0.09743 0.0927-0.23559 0.16097-0.38187 0.16352-0.29257 5e-3 -0.5342-0.19326-0.78347-0.51991a0.24627 0.24627 0 0 1-0.01635-0.0255c-0.15122-0.25992-0.25836-0.3256-0.35254-0.50499-0.04709-0.0897-0.0552-0.26106 0-0.3636 0.03068-0.057 0.08052-0.0968 0.12168-0.13996-0.01492-0.26999-0.10113-0.49706-0.19286-0.67429-0.05029-0.0972-0.10215-0.16927-0.12697-0.30204-0.01242-0.0664-0.01-0.17444 0.05435-0.26163 0.03124-0.0424 0.07113-0.0428 0.10918-0.0635 0.18927-0.4682 0.46736-0.82293 0.75605-1.0071 0.15772-0.10062 0.31177-0.16473 0.45257-0.19622 0.06978-0.0156 0.13859 0.0154 0.20537 0.0163 0.013349-0.1318 0.00247-0.41889-0.016358-0.75803-0.27668-0.16245-0.51108-0.33854-0.63245-0.42756-0.073786-0.05412-0.11973-0.076206-0.15631-0.083205-0.03657-7e-3 -0.08015-0.0085-0.17651 0.03078a0.24627 0.24627 0 0 1-0.33811-0.22172c-0.003666-0.16531-0.1422-0.44116-0.31406-0.62908-0.085929-0.093962-0.17907-0.16758-0.24192-0.202-0.031421-0.017203-0.04828-0.017816-0.049538-0.018757a0.24627 0.24627 0 0 1-0.28136-0.097151c-0.29545-0.44438-0.4797-0.46865-0.53434-0.46748-0.01154 2.46e-4 -0.0185 0.0023-0.02116 0.0029-0.0098 0.0097-0.01756 0.01997-0.05146 0.03367-0.0102 0.0041-0.04514 0.01239-0.04569 0.0125-2.71e-4 5.7e-5 -0.045 0.0058-0.04521 0.0058-2.07e-4 1e-5 -0.08162-0.01294-0.08176-0.01299-6.4e-5 -1.7e-5 -0.06006-0.02882-0.06012-0.02886-5.5e-5 -3.9e-5 -0.06008-0.0567-0.06012-0.05675-3.9e-5 -4.7e-5 -0.03798-0.07401-0.03799-0.07407 0 0 1.7e-5 -0.0018 0-0.0019-0.02196-0.01302-0.0326-0.01931-0.05819-0.03463-0.15358-0.091933-0.36424-0.22288-0.56705-0.37279-0.20282-0.14992-0.3984-0.31027-0.52375-0.51269-0.062682-0.10121-0.11185-0.2227-0.10004-0.3636 0.0066-0.07865 0.07454-0.13396 0.12024-0.20152 0.0052-0.07299 0.01003-0.13848 0.03799-0.20729 0.03141-0.0773 0.12345-0.18077 0.23615-0.20152 0.1127-0.02076 0.18372 0.01632 0.23278 0.04136 0.04905 0.02504 0.08386 0.05034 0.11831 0.0731 0.06888 0.04554 0.12973 0.07852 0.15968 0.08513 0.02995 0.0066 0.02365 0.01625 0.07647-0.02886 0.10776-0.12971 0.15462-0.21082 0.28568-0.28184 0.03592-0.01947 0.08933-0.03884 0.15438-0.03655 0.06505 0.0023 0.12879 0.03155 0.16545 0.06012 0.07333 0.05713 0.08319 0.09404 0.10004 0.12024 0.03367 0.0524 0.0531 0.08607 0.12505 0.13611 0.07194 0.05004 0.19895 0.11162 0.43478 0.1491a0.24627 0.24627 0 0 1 0.04184 0.0091c0.69016 0.23764 1.0571 0.69461 1.276 0.9215 0.0809 0.08387 0.13429 0.1149 0.14717 0.12553 0.0035-0.0022 0.0037-0.0016 0.01106-0.0072 0.0292-0.02236 0.08092-0.0785 0.14525-0.16737 7.44e-4 -1e-3 0.0012-8.91e-4 0.0019-0.0019 0.07996-0.5114 0.0051-0.52999 0.49249-1.2216a0.24627 0.24627 0 0 1 0.17847-0.1034c0.18882-0.018168 0.22697-0.058169 0.23951-0.074549 0.012555-0.01638 0.029475-0.069744 0.032706-0.18901 0.006466-0.23856-0.012701-0.69109 0.37081-1.0509 0.18429-0.29009 0.33653-0.46518 0.45642-0.57618 0.10663-0.098718 0.20432-0.21188 0.3256-0.37802-0.0048-0.05204-0.0063-0.10276 0.0014-0.14525 0.0204-0.11153 0.06116-0.21381 0.10917-0.33089 0.09054-0.22077 0.20814-0.48569 0.29098-0.75269-0.02758-0.07689-0.06186-0.14338-0.04906-0.24721 0.0046-0.03704 0.01596-0.08801 0.0582-0.14188 0.02299-0.02933 0.05693-0.05283 0.09282-0.0707v-0.74162zm-0.018759 0.74355h-0.41169c0.01113 7e-3 0.02499 0.01405 0.03415 0.01972 0.07067 0.04373 0.1125 0.08593 0.15246 0.12168 0.03996 0.03575 0.09694 0.06597 0.04377 0.04184l-0.09811 0.21643a0.24627 0.24627 0 0 1 0.0053 0.15102c-0.0069 0.02359-0.01532 0.04552-0.0226 0.06877h0.3155v0.74355h-0.60362c-0.0042 0.01014-0.01041 0.02483-0.01443 0.03463-0.04063 0.09907-0.06506 0.17326-0.07455 0.2145a0.24627 0.24627 0 0 1-0.007209 0.26019c-0.19923 0.3033-0.35395 0.43949-0.47614 0.55261-0.1222 0.11312-0.22276 0.20899-0.41266 0.52327a0.24627 0.24627 0 0 1-0.04184 0.0529c-0.24146 0.22652-0.20683 0.4199-0.2145 0.70315-0.003844 0.14161-0.013007 0.31781-0.13467 0.47662-0.087233 0.11386-0.25599 0.14855-0.41794 0.19046-0.47774 0.67585-0.31732 0.40067-0.44007 1.0961a0.24627 0.24627 0 0 1-0.043767 0.10196c-0.082022 0.11387-0.15789 0.20238-0.24721 0.27077-0.089319 0.068395-0.20146 0.11589-0.31791 0.11447-0.23289-0.002867-0.36856-0.15087-0.49442-0.28136-0.24971-0.25888-0.51698-0.599-1.0692-0.79308-0.27432-0.047094-0.47024-0.12672-0.60888-0.22316-0.072168-0.050192-0.088268-0.08837-0.13082-0.13803-0.03478 0.03469-0.01706 0.01861-0.07262 0.0832a0.24627 0.24627 0 0 1-0.02741 0.02549c-0.15168 0.1295-0.35388 0.1677-0.50356 0.13467-0.10421-0.022997-0.16098-0.06737-0.22508-0.10725a0.24627 0.24627 0 0 1-0.06733 0.07455c-0.01037 0.0076-0.0101 0.0074-0.0125 0.0091 3.54e-4 -0.0031-2e-3 0.01461 0.02501 0.0582 0.05762 0.09305 0.21801 0.24481 0.39822 0.37802 0.18022 0.13321 0.3806 0.25651 0.52904 0.34532 0.06662 0.03986 0.1178 0.0691 0.16016 0.09475 0.01507-0.0013 0.01975-0.01071 0.03607-0.01106 0.23993-0.0051 0.55548 0.20546 0.871 0.62523 0.08165 0.0127 0.17546-0.01592 0.24143 0.0202 0.13142 0.07196 0.25425 0.1762 0.36889 0.30156 0.16872 0.18447 0.25169 0.44361 0.3256 0.69786 0.0783-0.0112 0.15965-0.04479 0.23278-0.03078 0.14282 0.02734 0.25757 0.09681 0.35638 0.16929 0.19762 0.14496 0.36644 0.31673 0.69257 0.47614a0.24627 0.24627 0 0 1 0.13803 0.20537c0.02774 0.43281 0.03812 0.74103 0.01443 0.96334-0.01185 0.11114-0.01518 0.20293-0.10341 0.31454-0.04411 0.0558-0.13176 0.11381-0.22172 0.11976-0.08995 6e-3 -0.15835-0.0268-0.20729-0.0577l0.0091 7e-3c0.05995 0.0342 0.01166 3e-3 -0.06397 0.0197-0.07563 0.0169-0.18363 0.0575-0.29627 0.12937-0.22527 0.14372-0.47521 0.40502-0.62331 0.84311a0.24627 0.24627 0 0 1-0.03655 0.0673c0.01412 0.0313 0.01363 0.0329 0.03992 0.0837 0.10515 0.20317 0.27198 0.53594 0.26741 0.97055a0.24627 0.24627 0 0 1-0.0784 0.17651c-0.05529 0.0515-0.06259 0.0619-0.07984 0.0818 0.03007 0.0351 0.13808 0.16209 0.28568 0.40737 0.20772 0.2722 0.35666 0.32562 0.38524 0.32512 0.01429-2.5e-4 0.02028-3e-5 0.04905-0.0274 0.02878-0.0274 0.07039-0.0861 0.10725-0.17266a0.24627 0.24627 0 0 1 0.22557-0.14909c0.08759-4.5e-4 0.04957 0.0113 0.07407 6e-3 -0.01602-0.0691-0.04418-0.12851-0.01443-0.23278 0.04509-0.15802 0.17372-0.29275 0.36745-0.40352a0.24627 0.24627 0 0 1 0.13611-0.0327c0.0039-3e-3 0.0014-6.1e-4 0.0058-4e-3 0.05236-0.0389 0.13625-0.1198 0.21595-0.2145 0.1594-0.18941 0.2911-0.47103 0.2929-0.51799a0.24627 0.24627 0 0 1 0.29434-0.23277c0.03035 6e-3 0.12236-5e-3 0.23615-0.0563 0.10036-0.0451 0.21386-0.11648 0.32031-0.19382v-0.126h0.16016c0.06905-0.0589 0.13272-0.11635 0.17795-0.16352 0.03496-0.0365 0.0602-0.0673 0.0707-0.0818h0.0019c-0.0052 0.0109-0.03799 0.0311-0.01299 0.13803l0.23999-0.0558v-0.24577c0.43868-5e-5 0.82762 0.22951 1.187 0.51991 0.35938 0.29042 0.69864 0.65325 1.0235 0.98162s0.63869 0.61976 0.90707 0.76663c0.26838 0.14688 0.43876 0.17044 0.65986 0.0183 0.11046-0.076 0.15951-0.14722 0.18709-0.23615 0.0276-0.0889 0.0292-0.20345 0-0.34724-0.0583-0.28761-0.24499-0.67125-0.46508-1.0778-0.22006-0.40639-0.46939-0.84023-0.6401-1.2758-0.17071-0.43558-0.27156-0.88668-0.1289-1.3144 0.14369-0.43083 0.48844-0.7409 0.87966-0.99797 0.39123-0.25707 0.84202-0.46706 1.2543-0.67237 0.41229-0.20531 0.78448-0.41048 1.0037-0.61802 0.21926-0.20755 0.29396-0.36156 0.2145-0.62908-0.07681-0.25858-0.20854-0.33224-0.49633-0.37081-0.2878-0.038567-0.70487 0.013553-1.1543 0.088976s-0.93321 0.17171-1.3962 0.19286c-0.46299 0.021155-0.91879-0.029742-1.2798-0.29626-0.36539-0.26975-0.55595-0.69226-0.67958-1.1437-0.12362-0.45144-0.18317-0.94603-0.25106-1.4015-0.067883-0.45546-0.14642-0.87255-0.27606-1.1451-0.12965-0.27259-0.25575-0.39111-0.53482-0.39823zm0.01876 1.983v0.74354h-0.68151v-0.74354zm0 1.3635v0.74354h-0.68151v-0.74354zm0 1.363v0.74354h-0.68151v-0.74354zm-5.6949 0.95276c-0.01 0.0011-0.02032 0.0019-0.0202 0.0019 5.49e-4 -1.11e-4 -0.03137 0.0071-0.03992 0.01058-0.02011 0.0081-0.0013-0.0011-0.0072 0.0019-0.0011 0.0013-4e-3 0.0052-0.0058 0.0072 0.01891-0.01188 0.0513-0.0123 0.0731-0.02164zm5.6949 0.41073v0.74354h-0.6815v-0.74354zm-5.5117 0.0202c-2.68e-4 2.04e-4 -0.0012-1.87e-4 -0.0014 0-0.0016 0.0013-0.0029 0.0026-0.0043 0.0038 1e-3 -6.97e-4 3.24e-4 -1.2e-4 0.0058-0.0038zm5.5117 1.3433v0.74354h-0.6815v-0.74354zm0 1.363v0.74355h-0.6815v-0.74355zm-2.6265 0.17459c-0.0045 2.9e-4 -0.0065 5e-3 -0.01106 6e-3 0.02175 7e-3 0.0407-6e-3 0.06349 5e-3 -0.01468-6e-3 -0.01962-0.0132-0.05242-0.0111zm2.6265 2.5524v0.74315h-0.6815v-0.74315zm0 1.363v0.74354h-0.6815v-0.74354z" fill="#dedede"/>
 </g>
</svg>
