<svg width="15.505" height="16.123" version="1.1" xmlns="http://www.w3.org/2000/svg">
 <path d="m0.5 0a0.50005 0.50005 0 0 0-0.5 0.5v4.0176a0.50005 0.50005 0 0 0 0.5 0.5h1.5039v5.1055a0.5 0.5 0 0 0 0.5 0.5 0.5 0.5 0 0 0 0.5-0.5v-5.1055h1.5059a0.50005 0.50005 0 0 0 0.5-0.5v-4.0176a0.50005 0.50005 0 0 0-0.5-0.5h-4.0098zm0.5 1h3.0098v3.0176h-3.0098v-3.0176zm10.504 7.373v3h1v-3h-1zm1 3v0.5 0.5h3v-0.5-0.5h-3zm0 1h-1v3h1v-3zm-1 0v-1h-3v1h3z" color="#000000" fill="#dedede" stroke-linecap="round" stroke-linejoin="round" style="-inkscape-stroke:none"/>
 <g fill="#3daee9">
  <path d="m6.5049 9.3731 6-9" color="#000000" stroke-width="1px" style="-inkscape-stroke:none"/>
  <path d="m12.088 0.095703-2.0703 3.1055a1.75 1.75 0 0 1 0.83398 0.55469l2.0703-3.1055-0.83398-0.55469zm-3.9297 5.8926-2.0703 3.1074 0.83398 0.55469 2.0703-3.1055a1.75 1.75 0 0 1-0.83398-0.55664z" color="#000000" style="-inkscape-stroke:none"/>
  <path d="m11.255 4.8731a1.75 1.75 0 0 1-1.75 1.75 1.75 1.75 0 0 1-1.75-1.75 1.75 1.75 0 0 1 1.75-1.75 1.75 1.75 0 0 1 1.75 1.75z" color="#000000" fill-rule="evenodd" opacity=".35" stroke-linecap="round" style="-inkscape-stroke:none"/>
  <path d="m9.5059 2.623c-1.2367 0-2.25 1.0133-2.25 2.25s1.0133 2.25 2.25 2.25c1.2367 0 2.25-1.0133 2.25-2.25s-1.0133-2.25-2.25-2.25zm0 1c0.69628 0 1.25 0.55372 1.25 1.25s-0.55372 1.25-1.25 1.25c-0.69628 0-1.25-0.55372-1.25-1.25s0.55372-1.25 1.25-1.25z" color="#000000" fill-rule="evenodd" stroke-linecap="round" style="-inkscape-stroke:none"/>
  <path d="m5.7549 13.873a1.75 1.75 0 0 1-1.75 1.75 1.75 1.75 0 0 1-1.75-1.75 1.75 1.75 0 0 1 1.75-1.75 1.75 1.75 0 0 1 1.75 1.75z" color="#000000" fill-rule="evenodd" opacity=".35" stroke-linecap="round" style="-inkscape-stroke:none"/>
  <path d="m4.0059 11.623c-1.2367 0-2.25 1.0133-2.25 2.25s1.0133 2.25 2.25 2.25c1.2367 0 2.25-1.0133 2.25-2.25s-1.0133-2.25-2.25-2.25zm0 1c0.69628 0 1.25 0.55372 1.25 1.25 0 0.69628-0.55372 1.25-1.25 1.25s-1.25-0.55372-1.25-1.25c0-0.69628 0.55372-1.25 1.25-1.25z" color="#000000" fill-rule="evenodd" stroke-linecap="round" style="-inkscape-stroke:none"/>
 </g>
</svg>
