<svg xmlns="http://www.w3.org/2000/svg" viewBox="0 0 16 16">
  <defs id="defs3051">
    <style type="text/css" id="current-color-scheme">
      .ColorScheme-Text {
        color:#dedede;
      }
      </style>
  </defs>
 <path style="fill:currentColor;fill-opacity:1;stroke:none" 
     d="m8 2c-2.77 0-5 2.23-5 5v7h4v-7c0-.554.446-1 1-1 .554 0 1 .446 1 1v7h4v-7c0-2.77-2.23-5-5-5m0 1c2.216 0 4 1.784 4 4v6h-2v-6c0-1.108-.892-2-2-2-1.108 0-2 .892-2 2v6h-2v-6c0-2.216 1.784-4 4-4"
     class="ColorScheme-Text"
     />
</svg>
