<svg width="17.074" height="17" version="1.1" xmlns="http://www.w3.org/2000/svg">
 <g id="symbol-fit" transform="translate(-319.08 -107.69)">
  <path d="m319.15 107.69v2h1v-1h1v-1h-1.5zm3 0v1h2v-1h-1.5zm3 0v1h2v-1h-1.5zm3 0v1h2v-1h-1.5zm3 0v1h2v-1h-1.5zm3 0v1h2v-1h-1.5zm1 2v2h1v-2zm-16 1v2h1v-2zm16 2v2h1v-2zm-16 1v2h1v-2zm16 2v2h1v-2zm-16 1v2h1v-2zm16 2v2h1v-2zm-16 1v2h1v-2zm16 2v2h1v-2zm0 2h-2v1h2zm-16-1v2h1v-2zm2 1v1h2v-1h-1.5zm3 0v1h2v-1h-1.5zm3 0v1h2v-1h-1.5zm3 0v1h2v-1h-1.5z" color="#000000" fill="#3daee9" fill-rule="evenodd" stroke-dasharray="1, 2" stroke-linecap="square" style="-inkscape-stroke:none"/>
  <g transform="matrix(2.8941 0 0 2.8333 -656.74 -353.7)" fill-rule="evenodd" stroke-linejoin="round" stroke-miterlimit="0">
   <path d="m341.31 163.02a3.9635 4.113 0 0 1-3.9635 4.113v-4.113z" color="#000000" fill="#3daee9" opacity=".35" stroke-width=".34921" style="-inkscape-stroke:none"/>
   <path d="m337.34 162.85a0.17462 0.17462 0 0 0-0.17383 0.17578v4.1133a0.17462 0.17462 0 0 0 0.17383 0.17382c2.2869 0 4.1387-1.9246 4.1387-4.2871a0.17462 0.17462 0 0 0-0.17383-0.17578zm0.17578 0.34961h3.5801c-0.0895 2.0304-1.6337 3.629-3.5801 3.7266z" color="#000000" fill="#dedede" style="-inkscape-stroke:none"/>
  </g>
  <ellipse cx="327.61" cy="116.19" rx="4.4855" ry="4.4906" color="#000000" fill="none" stroke="#c80000" stroke-dasharray="1.01888, 1.01888" stroke-linejoin="round" stroke-miterlimit="0" stroke-width="1.0189"/>
 </g>
</svg>
