<svg width="28" height="28" version="1.1" xmlns="http://www.w3.org/2000/svg">
 <rect id="text_outer_style_rect" width="28" height="28" fill="none"/>
 <g id="BigT" fill="#dedede">
  <path d="m2.2812 2.4199h13.438v2.8418h-4.834v11.738h-3.7598v-11.738h-4.8438z" color="#000000" opacity=".35" stroke-width=".75" style="-inkscape-stroke:none"/>
  <path d="m1.9062 2.0449v3.5918h4.8438v11.738h4.5098v-11.738h4.834v-3.5918zm0.75 0.75h12.688v2.0918h-4.834v11.738h-3.0098v-11.738h-4.8438z" color="#000000" style="-inkscape-stroke:none"/>
 </g>
 <g id="LittleT" fill="#dedede">
  <path d="m13.969 13.252h8.0625v1.7051h-2.9004v7.043h-2.2559v-7.043h-2.9062z" color="#000000" opacity=".35" stroke-width=".75" style="-inkscape-stroke:none"/>
  <path d="m13.594 12.877v2.4551h2.9062v7.043h3.0059v-7.043h2.9004v-2.4551zm0.75 0.75h7.3125v0.95508h-2.9004v7.043h-1.5059v-7.043h-2.9062z" color="#000000" style="-inkscape-stroke:none"/>
 </g>
 <path d="m20 1.25a0.75 0.75 0 0 0-0.75 0.75 0.75 0.75 0 0 0 0.75 0.75h5.25v22.5h-22.5v-15.25a0.75 0.75 0 0 0-0.75-0.75 0.75 0.75 0 0 0-0.75 0.75v16a0.75008 0.75008 0 0 0 0.75 0.75h24a0.75008 0.75008 0 0 0 0.75-0.75v-24a0.75008 0.75008 0 0 0-0.75-0.75z" color="#000000" fill="#dedede" stroke-linecap="round" stroke-linejoin="round" style="-inkscape-stroke:none"/>
</svg>
