<svg xmlns="http://www.w3.org/2000/svg" viewBox="0 0 16 16">
  <defs id="defs3051">
    <style type="text/css" id="current-color-scheme">
      .ColorScheme-Text {
        color:#dedede;
      }
      </style>
  </defs>
  <path 
     style="fill:currentColor;fill-opacity:1;stroke:none" 
     d="M 10.560547 4.6601562 L 9.0078125 10.455078 L 9.9726562 10.714844 L 10.171875 9.9726562 A 3 3 0 0 0 11.904297 11.232422 A 3 3 0 0 0 15.578125 9.1113281 A 3 3 0 0 0 13.457031 5.4375 A 3 3 0 0 0 11.326172 5.6621094 L 11.525391 4.9199219 L 10.560547 4.6601562 z M 4.0039062 5 A 3 3 0 0 0 1.0039062 8 A 3 3 0 0 0 4.0039062 11 A 3 3 0 0 0 6.0039062 10.232422 L 6.0039062 11.001953 L 7.0039062 11.001953 L 7.0039062 5.0019531 L 6.0039062 5.0019531 L 6.0039062 5.7714844 A 3 3 0 0 0 4.0039062 5.0019531 L 4.0039062 5 z M 4.0039062 6.0019531 A 2 2 0 0 1 6.0039062 8.0019531 A 2 2 0 0 1 4.0039062 10.001953 A 2 2 0 0 1 2.0039062 8.0019531 A 2 2 0 0 1 4.0039062 6.0019531 z M 12.664062 6.3339844 A 2 2 0 0 1 13.199219 6.4023438 A 2 2 0 0 1 14.613281 8.8515625 A 2 2 0 0 1 12.164062 10.265625 A 2 2 0 0 1 10.75 7.8164062 A 2 2 0 0 1 12.664062 6.3339844 z "
     class="ColorScheme-Text"/>
  <path
     style="fill:#1d99f3"
     d="M 7.5 2 L 7.5 14 L 8.5 14 L 8.5 12.388672 L 14.501953 13.998047 L 14.761719 13.03125 L 8.5 11.355469 L 8.5 2 L 7.5 2 z " />
</svg>
