<svg width="249.51" height="249.51" version="1.1" xmlns="http://www.w3.org/2000/svg">
 <path d="m44.206 53.627c6.5382 8.7764 7.1792 14.93 7.1846 20.8 0.0043 4.6812-10.77 1.8977-15.869-0.2132-7.694-3.1853-15.824-9.7844-17.69-16.915-1.1584-4.429 0.74948-10.229 5.199-11.624 6.4951-2.0356 16.872 2.1767 21.175 7.9524zm-14.197 152.37c9.1005-17.448 19.58-23.918 30.209-29.205 8.4755-4.2161 14.636 14.034 16.114 23.384 2.2296 14.109-1.2711 31.926-12.25 41.065-6.8188 5.6759-19.31 8.1036-26.462 2.8547-10.441-7.6619-13.6-26.616-7.6108-38.099zm143.63-82.899c1.4357-39.914 54.537 19.127 69.592-3.6389 8.9396-13.518 5.3246-38.561-7.8646-47.979-9.6868-6.917-50.667 5.5572-60.77-0.73751-18.812-11.722 7.9332-34.93-8.7027-49.577-24.862-21.889-44.625-21.294-68.539 1.6256-15.178 14.547 10.872 22.047 3.1924 41.618-10.607 27.033-39.064 8.1205-45.546 36.427-4.1047 17.923 1.3571 48.934 19.082 53.826 13.317 3.6749 13.818-22.594 38.883-4.9064 25.064 17.688 4.4552 41.492 10.1 65.11 5.6453 23.618 22.849 17.716 35.421 15.118 15.977-3.3023 11.126-30.422 33.709-33.397 22.583-2.9749 16.698 21.865 41.586-0.63804 41.602-37.614-49.858-50.128-60.143-72.851l1e-5 -2e-5z" fill="#dedede" fill-rule="evenodd"/>
</svg>
