<svg xmlns="http://www.w3.org/2000/svg" viewBox="0 0 16 16">
  <defs id="defs3051">
    <style type="text/css" id="current-color-scheme">
      .ColorScheme-Text {
        color:#dedede;
      }
      </style>
  </defs>
 <path style="fill:currentColor;fill-opacity:1;stroke:none" 
       d="M 5 3 C 3 3 1.97917 4.5 1 4.5 C 0.0208 4.5 0 4 0 4 L 0 12 C 0 12 -0.0417 12.5 1 12.5 C 2.04167 12.5 3 11 5 11 C 7 11 8 12 8 12 C 8 12 9 11 11 11 C 13 11 13.89583 12.5 15 12.5 C 16.10417 12.5 16 12 16 12 L 16 4.0625 C 15.9629 4.2031 15.78125 4.5 15 4.5 C 13.95833 4.5 13 3 11 3 C 9 3 8 4 8 4 C 8 4 7 3 5 3 z M 5 4 C 5.83333 4 6.9477275 4.38525 7.28125 4.71875 C 7.647717 4.99995 8.352283 4.99995 8.71875 4.71875 C 8.989183 4.44835 10.16667 4 11 4 C 13 4 13.3125 5.5 15 5.5 L 15 11.5 C 14.138351 11.5 13.144932 10 11 10 C 9.83333 10 8.589844 10.2227 8 10.8125 C 7.4395 10.252 6.16667 10 5 10 C 2.9489806 10 1.6429856 11.5 1 11.5 L 1 5.5 C 2.53147 5.5 3 4 5 4 z "
     class="ColorScheme-Text"
     />
</svg>
