<svg version="1.1" viewBox="0 0 16 16" xmlns="http://www.w3.org/2000/svg">
 <defs>
  <style id="current-color-scheme" type="text/css">.ColorScheme-Text {
        color:#dedede;
      }</style>
 </defs>
 <path class="ColorScheme-Text" d="m3 2c-0.554 0-1 0.446-1 1v10c0 0.554 0.446 1 1 1h3c0.554 0 1-0.446 1-1v-10c0-0.554-0.446-1-1-1h-3zm6 0c-0.554 0-1 0.446-1 1v10c0 0.554 0.446 1 1 1h4c0.554 0 1-0.446 1-1v-10c0-0.554-0.446-1-1-1h-4zm-6 1h3v2h-3v-2zm6 0h4v2h-4v-2zm-6 3h3v7h-3v-7zm6 0h4v7h-4v-7z" fill="currentColor"/>
</svg>
