<?xml version="1.0" encoding="UTF-8" standalone="no"?>
<!-- Created with Inkscape (http://www.inkscape.org/) -->

<svg
   width="16"
   height="16"
   viewBox="0 0 4.2333333 4.2333335"
   version="1.1"
   id="svg5"
   inkscape:version="1.1.1 (3bf5ae0d25, 2021-09-20, custom)"
   sodipodi:docname="window-restore-symbolic.svg"
   xmlns:inkscape="http://www.inkscape.org/namespaces/inkscape"
   xmlns:sodipodi="http://sodipodi.sourceforge.net/DTD/sodipodi-0.dtd"
   xmlns="http://www.w3.org/2000/svg"
   xmlns:svg="http://www.w3.org/2000/svg">
  <sodipodi:namedview
     id="namedview7"
     pagecolor="#ffffff"
     bordercolor="#666666"
     borderopacity="1.0"
     inkscape:pageshadow="2"
     inkscape:pageopacity="0.0"
     inkscape:pagecheckerboard="0"
     inkscape:document-units="px"
     showgrid="false"
     units="px"
     height="24px"
     inkscape:zoom="16.520833"
     inkscape:cx="-0.060529636"
     inkscape:cy="8.9281212"
     inkscape:window-width="1920"
     inkscape:window-height="996"
     inkscape:window-x="0"
     inkscape:window-y="0"
     inkscape:window-maximized="1"
     inkscape:current-layer="svg5" />
  <defs
     id="defs2" />
  <path
     id="rect846-1"
     style="fill:#dedede;stroke-width:0.0855522"
     d="m 3.6654423,0.5676357 c 0.023937,0.0239369 0.038729,0.0570184 0.038733,0.0935443 3.6e-6,0.0350831 -0.013929,0.0687325 -0.038733,0.0935443 l -0.00365,0.003654 -1.0384882,1.0384882 h 0.738854 c 0.073284,0 0.1322775,0.05899 0.1322775,0.1322776 -6e-7,0.071004 -0.055609,0.1287874 -0.1257002,0.1322775 -0.00229,1.132e-4 -0.00427,0 -0.00658,0 l -1.0037746,3.655e-4 -0.054446,-3.655e-4 c -0.00229,0 -0.00465,4.787e-4 -0.00694,3.655e-4 -0.035045,-0.00176 -0.066527,-0.017169 -0.089159,-0.040926 -0.022633,-0.023758 -0.036175,-0.056219 -0.036175,-0.091717 -10e-8,-0.00229 -1.132e-4,-0.00429 -10e-8,-0.00658 L 2.1712944,1.874696 2.1716597,0.87092136 c 10e-8,-0.0732846 0.05899,-0.13227742 0.1322775,-0.13227755 0.073296,-5e-8 0.1322776,0.0589903 0.1322777,0.13227768 l -10e-8,0.73885411 1.0384883,-1.03848837 c 0,0 3.654e-4,-3.6541e-4 3.654e-4,-3.6541e-4 0,0 3.655e-4,-3.6541e-4 3.655e-4,-3.6541e-4 0,0 3.654e-4,-3.6541e-4 3.654e-4,-3.6541e-4 0,0 3.654e-4,-3.654e-4 3.654e-4,-3.654e-4 0,0 3.654e-4,-3.6541e-4 3.654e-4,-3.6541e-4 0,0 3.654e-4,-3.6541e-4 3.654e-4,-3.6541e-4 0,0 3.654e-4,-3.6541e-4 3.654e-4,-3.6541e-4 0,0 3.654e-4,-3.654e-4 3.654e-4,-3.654e-4 0,0 3.654e-4,-3.6541e-4 3.654e-4,-3.6541e-4 0,0 3.654e-4,-3.6541e-4 3.654e-4,-3.6541e-4 0.024812,-0.0248046 0.05846,-0.0387374 0.093544,-0.0387332 0.036526,3.82e-6 0.069607,0.0147963 0.093544,0.0387332 z m -1.6425069,1.642507 c 0.023908,0.023909 0.038733,0.056901 0.038733,0.093544 0,0.00229 1.202e-4,0.00427 0,0.00658 v 0.048234 1.0034091 c 1e-7,0.073285 -0.058987,0.1322775 -0.1322776,0.1322777 -0.07329,2e-7 -0.1322775,-0.05899 -0.1322776,-0.1322776 l 10e-8,-0.7388542 -1.03739213,1.0373921 c -0.00152,0.00168 -0.00314,0.00314 -0.00475,0.00475 -0.050049,0.050049 -0.130407,0.051671 -0.1823384,0.00475 -0.00168,-0.00152 -0.00314,-0.00314 -0.00475,-0.00475 -0.051663,-0.051663 -0.051663,-0.1354255 0,-0.1870887 l 0.00475,-0.00475 1.03739213,-1.0373921 -0.73885423,2e-7 c -0.073289,4.9e-6 -0.1322775,-0.05899 -0.1322777,-0.1322777 -10e-8,-0.073284 0.058989,-0.1322774 0.1322777,-0.1322776 l 1.00340923,1e-7 h 0.054811 c 0.036645,-1e-7 0.069636,0.014825 0.093544,0.038733 z" />
</svg>
