<svg version="1.1" viewBox="0 0 16 16" xmlns="http://www.w3.org/2000/svg">
 <defs>
  <style id="current-color-scheme" type="text/css">.ColorScheme-Text {
        color:#dedede;
      }</style>
 </defs>
 <path class="ColorScheme-Text" d="m10 4c-0.554 0-1 0.446-1 1v6c0 0.554 0.446 1 1 1h1c0.554 0 1-0.446 1-1v-6c0-0.554-0.446-1-1-1zm-7 2v4h2v-4zm3 0v4l2-2z" fill="currentColor"/>
 <path class="ColorScheme-Text" d="m3 1c-1.108 0-2 0.892-2 2v1h1v-1c0-0.554 0.446-1 1-1h1v-1zm9 0v1h1c0.554 0 1 0.446 1 1v1h1v-1c0-1.108-0.89638-2.0984-2-2zm-11 11v1c0 1.108 0.89864 1.8788 2 2h1v-1h-1c-0.554 0-1-0.446-1-1v-1zm13 0v1c0 0.554-0.446 1-1 1h-1v1h1c1.108 0 2-0.892 2-2v-1z" fill="currentColor"/>
</svg>
