<?xml version="1.0" encoding="UTF-8" standalone="no"?>
<!-- Generator: Gravit.io -->
<svg xmlns="http://www.w3.org/2000/svg" xmlns:xlink="http://www.w3.org/1999/xlink" style="isolation:isolate" viewBox="0 0 48 48" width="48pt" height="48pt"><linearGradient id="_lgradient_14" x1="0" y1="0.5" x2="1" y2="0.5" gradientTransform="matrix(47,0,0,42.614,0.5,2.693)" gradientUnits="userSpaceOnUse"><stop offset="0%" stop-opacity="1" style="stop-color:rgb(24,208,173)"/><stop offset="90.44964029999998%" stop-opacity="1" style="stop-color:rgb(7,195,242)"/></linearGradient><path d=" M 20.344 6.871 L 20.344 6.871 C 19.192 6.871 18.256 5.935 18.256 4.782 L 18.256 4.782 C 18.256 3.629 19.192 2.693 20.344 2.693 L 20.344 2.693 L 43.322 2.693 C 45.628 2.693 47.5 4.565 47.5 6.871 L 47.5 31.937 C 47.5 34.243 45.628 36.115 43.322 36.115 L 36.262 36.115 L 32.079 44.472 C 31.563 45.503 30.583 45.591 29.891 44.669 L 23.478 36.115 L 20.344 36.115 L 20.344 36.115 C 19.192 36.115 18.256 35.179 18.256 34.026 L 18.256 34.026 C 18.256 32.873 19.192 31.937 20.344 31.937 L 20.344 31.937 L 25.567 31.937 L 30.434 38.423 L 33.672 31.937 L 41.233 31.937 C 42.386 31.937 43.322 31.001 43.322 29.849 L 43.322 8.96 C 43.322 7.807 42.386 6.871 41.233 6.871 L 20.344 6.871 L 20.344 6.871 L 20.344 6.871 Z  M 11.989 31.937 L 11.989 31.937 C 13.142 31.937 14.078 32.873 14.078 34.026 L 14.078 34.026 C 14.078 35.179 13.142 36.115 11.989 36.115 L 11.989 36.115 L 4.678 36.115 C 2.372 36.115 0.5 34.243 0.5 31.937 L 0.5 6.871 C 0.5 4.565 2.372 2.693 4.678 2.693 L 11.989 2.693 L 11.989 2.693 C 13.142 2.693 14.078 3.629 14.078 4.782 L 14.078 4.782 C 14.078 5.935 13.142 6.871 11.989 6.871 L 11.989 6.871 L 6.767 6.871 C 5.614 6.871 4.678 7.807 4.678 8.96 L 4.678 29.849 C 4.678 31.001 5.614 31.937 6.767 31.937 L 11.989 31.937 L 11.989 31.937 L 11.989 31.937 Z  M 29.292 13.998 L 29.292 13.998 C 28.932 13.998 28.64 13.705 28.64 13.345 L 28.64 13.345 C 28.64 12.985 28.932 12.693 29.292 12.693 L 29.292 12.693 L 36.468 12.693 C 37.188 12.693 37.772 13.278 37.772 13.998 L 37.772 21.825 C 37.772 22.545 37.188 23.13 36.468 23.13 L 34.263 23.13 L 32.957 25.739 C 32.795 26.061 32.489 26.089 32.273 25.801 L 30.271 23.13 L 29.292 23.13 L 29.292 23.13 C 28.932 23.13 28.64 22.837 28.64 22.477 L 28.64 22.477 C 28.64 22.117 28.932 21.825 29.292 21.825 L 29.292 21.825 L 30.923 21.825 L 32.443 23.85 L 33.454 21.825 L 35.815 21.825 C 36.175 21.825 36.468 21.533 36.468 21.173 L 36.468 14.65 C 36.468 14.29 36.175 13.998 35.815 13.998 L 29.292 13.998 L 29.292 13.998 Z  M 26.683 21.825 L 26.683 21.825 C 27.043 21.825 27.335 22.117 27.335 22.477 L 27.335 22.477 C 27.335 22.837 27.043 23.13 26.683 23.13 L 26.683 23.13 L 24.4 23.13 C 23.68 23.13 23.095 22.545 23.095 21.825 L 23.095 13.998 C 23.095 13.278 23.68 12.693 24.4 12.693 L 26.683 12.693 L 26.683 12.693 C 27.043 12.693 27.335 12.985 27.335 13.345 L 27.335 13.345 C 27.335 13.705 27.043 13.998 26.683 13.998 L 26.683 13.998 L 25.052 13.998 C 24.692 13.998 24.4 14.29 24.4 14.65 L 24.4 21.173 C 24.4 21.533 24.692 21.825 25.052 21.825 L 26.683 21.825 Z " fill-rule="evenodd" fill="url(#_lgradient_14)"/></svg>