<svg width="16" height="16" version="1.1" xmlns="http://www.w3.org/2000/svg">
 <path d="m8 1.3425a6.6569 6.6569 0 0 0-6.6575 6.6575 6.6569 6.6569 0 0 0 6.6575 6.6575 6.6569 6.6569 0 0 0 6.6575-6.6575 6.6569 6.6569 0 0 0-6.6575-6.6575zm2.2922 4.1192c0.11224 0 0.2067 0.040255 0.28525 0.11886l0.5722 0.5722c0.07854 0.0786 0.11891 0.17301 0.11886 0.28525 0 0.11229-0.04031 0.20834-0.11886 0.28695l-3.0478 3.0478-0.5722 0.5739c-0.0786 0.07854-0.17471 0.11715-0.28695 0.11715-0.11229 0-0.2067-0.03856-0.28525-0.11715l-2.0969-2.0969c-0.0786-0.078548-0.11886-0.17471-0.11886-0.28695 0-0.11229 0.040254-0.20834 0.11886-0.28695l0.5722-0.5722c0.0786-0.0786 0.17466-0.11716 0.28695-0.11716 0.11224 0 0.20665 0.038557 0.28525 0.11716l1.2378 1.2429 2.7625-2.7659c0.07855-0.0786 0.17466-0.11886 0.28695-0.11886z" fill="#ffffff" fill-rule="evenodd" stroke="#ffffff" stroke-linecap="round" stroke-width=".68491"/>
 <g transform="translate(-22.836,-1042.4)"></g>
</svg>
