<svg xmlns="http://www.w3.org/2000/svg" viewBox="0 0 22 22"><path d="M11 3.089844A7.910653 7.910654 0 0 0 3.089844 11 7.910653 7.910654 0 0 0 11 18.910156 7.910653 7.910654 0 0 0 18.910156 11 7.910653 7.910654 0 0 0 11 3.089844zM11 3.963C11.414 3.963 11.75 4.299 11.75 4.713 11.75 5.126 11.414 5.463 11 5.463 10.586 5.463 10.25 5.126 10.25 4.713 10.25 4.299 10.586 3.963 11 3.963zM10.998 6C13.755 6 16 8.244 16 11 16 13.757 13.755 16 10.998 16 8.241 16 6 13.757 6 11 6 8.244 8.241 6 10.998 6zM11 7.5C9.07 7.5 7.5 9.07 7.5 11 7.5 12.93 9.07 14.5 11 14.5 12.93 14.5 14.5 12.93 14.5 11 14.5 9.07 12.93 7.5 11 7.5z" transform="translate(0-.002)" fill-rule="evenodd" stroke="#ffffff" stroke-linecap="round" stroke-width=".179" fill="#ffffff"/></svg>