<svg width="16" height="16" version="1.1" xmlns="http://www.w3.org/2000/svg">
 <defs>
  <style id="current-color-scheme" type="text/css"/>
 </defs>
 <path d="m7.75 2v2.5h0.5v-2.5zm-3.8965 1.5-0.35352 0.35352 1.7676 1.7676 0.35352-0.35352zm8.1465 0-1.7676 1.7676 0.35352 0.35352 1.7676-1.7676zm-4 1.5a3 3 0 0 0-3 3 3 3 0 0 0 3 3 3 3 0 0 0 3-3 3 3 0 0 0-3-3zm0.011719 0.98242a2.0292 2.0292 0 0 1 2.0293 2.0293 2.0292 2.0292 0 0 1-2.0293 2.0293 2.0292 2.0292 0 0 1-2.0293-2.0293 2.0292 2.0292 0 0 1 2.0293-2.0293zm-6.0117 1.7676v0.5h2.5v-0.5zm9.5 0v0.5h2.5v-0.5zm-6.2324 2.6289-1.7676 1.7676 0.35352 0.35352 1.7676-1.7676zm5.4648 0-0.35352 0.35352 1.7676 1.7676 0.35352-0.35352zm-2.9824 1.1211v2.5h0.5v-2.5z" fill="#ffffff" opacity=".35" style="paint-order:fill markers stroke"/>
</svg>
