<svg width="16" height="16" version="1.1" xmlns="http://www.w3.org/2000/svg">
 <defs>
  <style id="current-color-scheme" type="text/css">.ColorScheme-Text { color:#ffffff; } .ColorScheme-Highlight { color:#4285f4; }</style>
 </defs>
 <path class="ColorScheme-Text" fill="currentColor" d="m15.375 1.2581c-0.14518-0.014164-0.30808 0.010623-0.46743 0.088528l-14.161 5.4923c-0.97027 0.38952-0.95964 0.93485-0.17351 1.1721l3.6332 1.1438 8.4137-5.34c0.40015-0.24434 0.7578-0.11332 0.46389 0.15581l-6.8166 6.1863-0.19476 1.6112-0.98797-3.1658-0.87466 0.55595c0.42847 1.3598 0.84633 2.7196 1.2819 4.0794 0.13456 0.36474 0.48513 0.46388 0.79321 0.47097 0.46389 0.01416 1.2429-0.63386 1.2429-0.63386l1.25-1.0553 3.4207 2.5425c0.67635 0.37536 1.165 0.1806 1.335-0.63386l2.4115-11.431c0.18414-0.74363-0.1204-1.1863-0.55595-1.2358m-8.1871 9.5858 0.7578 0.5595-0.92069 0.77904 0.15935-1.3385" opacity=".35"/>
 <circle class="ColorScheme-Text" fill="currentColor" cx="2" cy="14" r="2" opacity=".35"/>
</svg>
