<svg width="16" height="16" version="1.1" xmlns="http://www.w3.org/2000/svg">
 <defs>
  <style id="current-color-scheme" type="text/css">
   .ColorScheme-Text { color:#ffffff; } .ColorScheme-Highlight { color:#5294e2; }
  </style>
 </defs>
<g style="fill:currentColor" class="ColorScheme-Text">
<path d="M7.75 1.032c-2.763.102-5.309 1.805-6.312 4.563a7.026 7.026 0 0 0-.159 4.316c.404-1.318 1.485-2.334 2.838-2.683.17-.29.372-.56.59-.813.01-.71.13-1.429.387-2.133.514-1.412 1.474-2.508 2.656-3.25zm-2.543 7.98l-.406.061A1.97 1.97 0 0 0 3.1 11.036c0 1.116.883 2 2 2h6.375c.186 0 .36-.038.525-.094a6.389 6.389 0 0 1-3.031-.316 6.461 6.461 0 0 1-3.762-3.613z"/>
<path d="M8.099 5.786c-1.553 0-2.876.951-3.445 2.297a2.986 2.986 0 0 0-2.555 2.953 3 3 0 0 0 3 3h6.375a2.625 2.625 0 0 0 2.625-2.625 2.618 2.618 0 0 0-2.32-2.601 3.759 3.759 0 0 0-3.68-3.024z"/>
</g>
</svg>
