<svg width="16" height="16" version="1.1" xmlns="http://www.w3.org/2000/svg">
 <defs>
  <style id="current-color-scheme" type="text/css">
   .ColorScheme-Text { color:#ffffff; } .ColorScheme-Highlight { color:#5294e2; }
  </style>
 </defs>
 <path d="m6 1.1429c-0.19786 0-0.35714 0.15929-0.35714 0.35714v1.4286c0 0.19786 0.15929 0.35714 0.35714 0.35714 0.19786 0 0.35714-0.15929 0.35714-0.35714v-1.4286c0-0.19786-0.15929-0.35714-0.35714-0.35714zm-3.2826 1.3602c-0.091293 0-0.18256 0.034679-0.25251 0.10463-0.13991 0.13991-0.13991 0.36512 0 0.50502l1.01 1.01c0.13991 0.13991 0.36512 0.13991 0.50502 0 0.13991-0.13991 0.13991-0.36512 0-0.50502l-1.01-1.01c-0.069953-0.069953-0.16122-0.10463-0.25251-0.10463zm6.5653 0c-0.091292 0-0.18256 0.034679-0.25251 0.10463l-1.01 1.01c-0.13991 0.13991-0.13991 0.36512 0 0.50502 0.13991 0.13991 0.36512 0.13991 0.50502 0l1.01-1.01c0.13991-0.13991 0.13991-0.36512 0-0.50502-0.069954-0.069953-0.16122-0.10463-0.25251-0.10463zm-3.2826 1.4969a2.1429 2.1429 0 0 0-2.1429 2.1429 2.1429 2.1429 0 0 0 2.1429 2.1429 2.1429 2.1429 0 0 0 2.1429-2.1429 2.1429 2.1429 0 0 0-2.1429-2.1429zm-4.6429 1.7857c-0.19786 0-0.35714 0.15929-0.35714 0.35714 0 0.19786 0.15929 0.35714 0.35714 0.35714h1.4286c0.19786 0 0.35714-0.15929 0.35714-0.35714 0-0.19786-0.15929-0.35714-0.35714-0.35714zm7.8571 0c-0.19786 0-0.35714 0.15929-0.35714 0.35714 0 0.19786 0.15929 0.35714 0.35714 0.35714h1.4286c0.19786 0 0.35714-0.15929 0.35714-0.35714 0-0.19786-0.15929-0.35714-0.35714-0.35714zm-5.4869 2.2726c-0.091293 0-0.18256 0.03468-0.25251 0.10463l-1.01 1.01c-0.13991 0.13991-0.13991 0.36512 0 0.50502s0.36512 0.13991 0.50502 0l1.01-1.01c0.13991-0.1399 0.13991-0.36512 0-0.50502-0.069953-0.06995-0.16122-0.10463-0.25251-0.10463zm4.5452 0c-0.091293 0-0.18256 0.03468-0.25251 0.10463-0.13991 0.13991-0.13991 0.36512 0 0.50502l1.01 1.01c0.13991 0.13991 0.36512 0.13991 0.50502 0 0.13991-0.13991 0.13991-0.36512 0-0.50502l-1.01-1.01c-0.06995-0.06995-0.16122-0.10463-0.25251-0.10463zm-2.2726 0.94168c-0.19786 0-0.35714 0.15929-0.35714 0.35714v1.4286c0 0.19786 0.15929 0.35714 0.35714 0.35714 0.19786 0 0.35714-0.15929 0.35714-0.35714v-1.4286c0-0.19786-0.15929-0.35714-0.35714-0.35714z" style="fill:currentColor" class="ColorScheme-Text" opacity=".5"/>
 <path d="m9.729 7.3451c-1.3829 0-2.5354 0.90814-2.9652 2.1488-1.2976 0.16501-2.3062 1.2648-2.3062 2.6117 0 1.4607 1.1801 2.6448 2.6357 2.6448h5.7986c1.1645 0 2.1086-0.94728 2.1086-2.1158 0-1.1686-0.94405-2.1158-2.1086-2.1158 0-1.7527-1.416-3.1738-3.1629-3.1738z" style="fill:currentColor" class="ColorScheme-Text"/>
</svg>
