<svg width="16" height="16" version="1.1" xmlns="http://www.w3.org/2000/svg">
 <defs>
  <style id="current-color-scheme" type="text/css">
   .ColorScheme-Text { color:#ffffff; } .ColorScheme-Highlight { color:#5294e2; }
  </style>
 </defs>
 <g transform="translate(-465 331)" style="fill:currentColor" class="ColorScheme-Text">
  <g transform="translate(465 -333.28)">
   <path d="m8 3.28c-1.8363 0-3.3668 1.2019-3.9375 2.8437-1.7232 0.21835-3.0625 1.6743-3.0625 3.4567 0 1.6336 1.123 2.9955 2.6364 3.3815a4.375 4.375 0 0 1 4.081-4.0947 4.375 4.375 0 0 1 4.6484 4.0833 4.375 4.375 0 0 1 0.0023 0.11394c1.4665-0.08869 2.6319-1.2957 2.6319-2.7845 0-1.5464-1.254-2.7981-2.8005-2.7981 0-2.3196-1.88-4.2018-4.1995-4.2018z" fill="#ffffff"/>
  </g>
  <g transform="matrix(.58333 0 0 .58333 198.94 -119.24)">
   <circle transform="rotate(-93.69)" cx="313.1" cy="490.98" r="6"/>
   <path d="m469.81-347.59c-0.30124 0-0.54297 0.2418-0.54297 0.543v3.8223c0 0.3013 0.24173 0.5429 0.54297 0.5429h4e-3c0.30123 0 0.54297-0.2416 0.54297-0.5429v-3.8223c0-0.3012-0.24174-0.543-0.54297-0.543zm2e-3 6c-0.30219 0-0.54492 0.2428-0.54492 0.545 0 0.3021 0.24273 0.5449 0.54492 0.5449 0.30218 0 0.54492-0.2428 0.54492-0.5449 0-0.3022-0.24274-0.545-0.54492-0.545z"/>
  </g>
 </g>
</svg>
