<svg width="16" height="16" version="1.1" xmlns="http://www.w3.org/2000/svg">
 <defs>
  <style id="current-color-scheme" type="text/css">
   .ColorScheme-Text { color:#ffffff; } .ColorScheme-Highlight { color:#5294e2; }
  </style>
 </defs>
 <g transform="matrix(-.5 0 0 .5 594.48 -45.334)" opacity=".5" style="fill:currentColor" class="ColorScheme-Text">
  <path d="m1181.6 94.668c-2.158 2e-3 -3.992 1.331-4.868 3.232l-0.061 0.13-0.139 0.01c-1.994 0.144-3.572 1.87-3.572 3.968 0 2.193 1.716 3.992 3.838 3.992h9.284c1.592 0 2.878-1.35 2.878-2.988 0-1.1921-0.7072-2.2703-1.805-2.735l-0.137-0.058-0.01-0.149c-0.135-2.993-2.487-5.4-5.404-5.402z"/>
 </g>
 <g transform="matrix(.875 0 0 .875 -1024.3 -79.834)" style="fill:currentColor" class="ColorScheme-Text">
  <path d="m1181.6 94.668c-2.158 2e-3 -3.992 1.331-4.868 3.232l-0.061 0.13-0.139 0.01c-1.994 0.144-3.572 1.87-3.572 3.968 0 2.193 1.716 3.992 3.838 3.992h9.284c1.592 0 2.878-1.35 2.878-2.988 0-1.1921-0.7072-2.2703-1.805-2.735l-0.137-0.058-0.01-0.149c-0.135-2.993-2.487-5.4-5.404-5.402z"/>
 </g>
</svg>
