<svg width="22" height="22" version="1.1" xmlns="http://www.w3.org/2000/svg">
 <defs>
  <style id="current-color-scheme" type="text/css">
   .ColorScheme-Text { color:#ffffff; } .ColorScheme-Highlight { color:#4285f4; }
  </style>
 </defs>
 <path d="m15.738 4.2894c-0.376 0.027-0.625 0.488-0.283 0.87a8 8 0 0 1 2.545 5.84 8 8 0 0 1-2.555 5.85c-0.445 0.472 0.18 1.15 0.678 0.73a9 9 0 0 0 2.877-6.58 9 9 0 0 0-2.862-6.573 0.579 0.579 0 0 0-0.4-0.137zm-2.39 1.416c-0.396 0.012-0.643 0.534-0.256 0.914a6 6 0 0 1 1.908 4.38 6 6 0 0 1-1.916 4.388c-0.469 0.446 0.173 1.147 0.68 0.728a7 7 0 0 0 2.236-5.116 7 7 0 0 0-2.225-5.111c-0.147-0.134-0.296-0.186-0.428-0.182zm-4.348 0.294-3 3h-2c-0.554 0-1 0.446-1 1v2c0 0.554 0.446 1 1 1h2l3 3zm2.017 1.184c-0.376 0.016-0.644 0.513-0.29 0.896a4 4 0 0 1 1.273 2.92 4 4 0 0 1-1.278 2.926c-0.472 0.43 0.14 1.152 0.68 0.73a5 5 0 0 0 1.598-3.656 5 5 0 0 0-1.59-3.65 0.536 0.536 0 0 0-0.393-0.166z" class="ColorScheme-Text" fill="currentColor" opacity=".5"/>
</svg>
