<svg width="22" height="22" version="1.1" xmlns="http://www.w3.org/2000/svg">
 <defs>
  <style id="current-color-scheme" type="text/css">
   .ColorScheme-Text { color:#ffffff; } .ColorScheme-Highlight { color:#4285f4; }
  </style>
 </defs>
 <g transform="translate(-1,-1)" class="ColorScheme-Text" fill="currentColor">
  <path d="m4 7c-1.108 0-2 0.892-2 2v6c0 1.108 0.892 2 2 2h13c1.108 0 2-0.892 2-2v-6c0-1.108-0.892-2-2-2zm0 1h13c0.554 0 1 0.446 1 1v6c0 0.554-0.446 1-1 1h-13c-0.554 0-1-0.446-1-1v-6c0-0.554 0.446-1 1-1zm16 2v4a2 2 0 0 0 2-2 2 2 0 0 0-2-2z"/>
  <path d="m10.834 8-3.334 5h3l-0.75 3h0.416l3.334-5h-3l0.75-3z"/>
  <path d="M 4.482,9 C 4.215,9 4,9.243 4,9.545 v 4.91 C 4,14.758 4.215,15 4.482,15 H 6.518 C 6.785,15 7,14.758 7,14.455 V 13.863 A 0.998,0.998 0 0 1 6.668,12.445 L 7,11.947 V 9.545 C 7,9.243 6.785,9 6.518,9 Z"/>
 </g>
</svg>
