<svg width="22" height="22" version="1.1" xmlns="http://www.w3.org/2000/svg">
 <defs>
  <style id="current-color-scheme" type="text/css">
   .ColorScheme-Text { color:#ffffff; } .ColorScheme-Highlight { color:#4285f4; }
  </style>
 </defs>
 <path d="m14.999 12c-1.108 0-2 0.911-2 2.031v0.97h-1v4h6v-4h-1v-0.97c0-1.12-0.892-2.03-2-2.03zm0 1c0.554 0 1 0.443 1 1v1h-2v-1c0-0.557 0.446-1 1-1z" class="ColorScheme-Text" fill="currentColor"/>
 <path d="m9.499 4c-0.277 0-0.5 0.223-0.5 0.5v4.875l-1.719-1.5c-0.312-0.273-0.756-0.22-1.03 0.094a0.753 0.753 0 0 0 0.061 1.062l2.25 1.969-2.25 1.969a0.753 0.753 0 0 0-0.062 1.062c0.274 0.313 0.72 0.367 1.031 0.094l1.72-1.5v4.875c0 0.277 0.223 0.5 0.5 0.5 0.283 0 0.437-0.02 0.655-0.188l0.844-0.752v-2.02l-1 0.896v-3.686l2.014 1.744a3.043 3.043 0 0 1 0.474-1.578l-1.613-1.416 2.812-2.469a0.78 0.78 0 0 0 0.22-0.375 0.712 0.712 0 0 0 0-0.437 0.78 0.78 0 0 0-0.22-0.375l-3.53-3.157c-0.2-0.16-0.428-0.187-0.657-0.187zm0.5 2.062 2.094 1.875-2.094 1.813z" class="ColorScheme-Text" fill="currentColor"/>
</svg>
