<svg width="22" height="22" version="1.1" xmlns="http://www.w3.org/2000/svg">
 <defs>
  <style id="current-color-scheme" type="text/css">.ColorScheme-Text { color:#ffffff; } .ColorScheme-Highlight { color:#4285f4; }</style>
 </defs>
 <path d="m10.75 3.5a0.25 0.25 0 0 0-0.25 0.25v1.5c0 0.139 0.112 0.25 0.25 0.25h0.5a0.25 0.25 0 0 0 0.25-0.25v-1.5a0.25 0.25 0 0 0-0.25-0.25zm-4.699 1.947a0.25 0.25 0 0 0-0.178 0.073l-0.353 0.353a0.25 0.25 0 0 0 0 0.354l1.06 1.06a0.25 0.25 0 0 0 0.354 0l0.353-0.353a0.25 0.25 0 0 0 0-0.354l-1.06-1.06a0.246 0.246 0 0 0-0.176-0.073zm9.898 0a0.246 0.246 0 0 0-0.175 0.073l-1.06 1.06a0.25 0.25 0 0 0 0 0.354l0.353 0.353a0.25 0.25 0 0 0 0.353 0l1.06-1.06a0.25 0.25 0 0 0 0-0.354l-0.353-0.353a0.25 0.25 0 0 0-0.178-0.073zm-4.949 2.053a3.5 3.5 0 0 0-3.5 3.5 3.5 3.5 0 0 0 3.5 3.5 3.5 3.5 0 0 0 3.5-3.5 3.5 3.5 0 0 0-3.5-3.5zm0 1a2.5 2.5 0 0 1 2.5 2.5 2.5 2.5 0 0 1-2.5 2.5 2.5 2.5 0 0 1-2.5-2.5 2.5 2.5 0 0 1 2.5-2.5zm-7.25 2a0.25 0.25 0 0 0-0.25 0.25v0.5c0 0.139 0.112 0.25 0.25 0.25h1.5a0.25 0.25 0 0 0 0.25-0.25v-0.5a0.25 0.25 0 0 0-0.25-0.25zm13 0a0.25 0.25 0 0 0-0.25 0.25v0.5c0 0.139 0.112 0.25 0.25 0.25h1.5a0.25 0.25 0 0 0 0.25-0.25v-0.5a0.25 0.25 0 0 0-0.25-0.25zm-9.992 4.139a0.252 0.252 0 0 0-0.178 0.074l-1.06 1.06a0.25 0.25 0 0 0 0 0.354l0.353 0.353a0.25 0.25 0 0 0 0.354 0l1.06-1.06a0.25 0.25 0 0 0 0-0.354l-0.353-0.353a0.248 0.248 0 0 0-0.176-0.074zm8.484 0a0.248 0.248 0 0 0-0.175 0.074l-0.354 0.353a0.25 0.25 0 0 0 0 0.354l1.06 1.06a0.25 0.25 0 0 0 0.354 0l0.354-0.353a0.25 0.25 0 0 0 0-0.354l-1.06-1.06a0.252 0.252 0 0 0-0.179-0.074zm-4.492 1.861a0.25 0.25 0 0 0-0.25 0.25v1.5c0 0.139 0.112 0.25 0.25 0.25h0.5a0.25 0.25 0 0 0 0.25-0.25v-1.5a0.25 0.25 0 0 0-0.25-0.25z" class="ColorScheme-Text" fill="currentColor"/>
</svg>
