<?xml version="1.0" encoding="UTF-8" standalone="no"?>
<!-- Created with Inkscape (http://www.inkscape.org/) -->

<svg
   width="16"
   height="16"
   viewBox="0 0 4.2333332 4.2333335"
   version="1.1"
   id="svg11945"
   inkscape:version="1.1.1 (3bf5ae0d25, 2021-09-20, custom)"
   sodipodi:docname="audio-volume-overamplified-symbolic.svg"
   xmlns:inkscape="http://www.inkscape.org/namespaces/inkscape"
   xmlns:sodipodi="http://sodipodi.sourceforge.net/DTD/sodipodi-0.dtd"
   xmlns="http://www.w3.org/2000/svg"
   xmlns:svg="http://www.w3.org/2000/svg">
  <sodipodi:namedview
     id="namedview11947"
     pagecolor="#ffffff"
     bordercolor="#666666"
     borderopacity="1.0"
     inkscape:pageshadow="2"
     inkscape:pageopacity="0.0"
     inkscape:pagecheckerboard="0"
     inkscape:document-units="px"
     showgrid="false"
     units="in"
     inkscape:zoom="22.627417"
     inkscape:cx="2.4527766"
     inkscape:cy="5.6347572"
     inkscape:window-width="1920"
     inkscape:window-height="1011"
     inkscape:window-x="0"
     inkscape:window-y="0"
     inkscape:window-maximized="1"
     inkscape:current-layer="svg11945"
     showguides="true" />
  <defs
     id="defs11942" />
  <path
     id="rect924"
     style="fill:#363636;fill-opacity:1;stroke:none;stroke-width:0.499997"
     d="M 8.2539062,2 C 8.1056996,2.0076649 7.9598781,2.0644227 7.8398438,2.1660156 L 5,5 H 2 C 1.446,5 1,5.4459999 1,6 v 4 c 0,0.554 0.446,1 1,1 h 3 l 2.8398438,2.833984 C 8.3080573,14.226231 9.0005155,13.876795 9,13.248047 V 2.7480469 C 8.9995767,2.4597238 8.8415604,2.1967206 8.59375,2.0722656 8.4853411,2.0184229 8.3691769,1.9940392 8.2539062,2 Z M 14.5,2 C 14.223,2 14,2.223 14,2.5 v 11 c 0,0.277 0.223,0.5 0.5,0.5 0.277,0 0.5,-0.223 0.5,-0.5 V 2.5 C 15,2.223 14.777,2 14.5,2 Z M 11.474609,4.0000001 C 11.209695,4.0133422 11,4.2316564 11,4.5000001 V 11.5 c 0,0.277 0.223,0.5 0.5,0.5 0.277,0 0.5,-0.223 0.5,-0.5 V 4.5000001 c 0,-0.277 -0.223,-0.5 -0.5,-0.5 -0.0087,0 -0.01685,-4.304e-4 -0.02539,0 z"
     transform="scale(0.26458333)"
     sodipodi:nodetypes="sccsssscccccssssssssssssssss" />
</svg>
