<svg width="16" height="16" version="1.1" xmlns="http://www.w3.org/2000/svg">
 <path d="m8.152 3.006a2.992 2.992 0 0 0-1.3 0.223 3.005 3.005 0 0 0-1.852 2.771h2c0-0.407 0.24-0.768 0.617-0.924a0.994 0.994 0 0 1 1.09 0.217 0.994 0.994 0 0 1 0.216 1.09 0.994 0.994 0 0 1-0.923 0.617 1 1 0 0 0-1 1v2h2v-1.18a2.998 2.998 0 0 0 1.771-1.672 3.006 3.006 0 0 0-0.65-3.27 3.001 3.001 0 0 0-1.97-0.872zm-0.152 7.994a1 1 0 0 0-1 1 1 1 0 0 0 1 1 1 1 0 0 0 1-1 1 1 0 0 0-1-1z" color="#000000" fill="#363636" font-family="sans-serif" font-weight="400" overflow="visible" solid-color="#000000" style="font-feature-settings:normal;font-variant-alternates:normal;font-variant-caps:normal;font-variant-ligatures:normal;font-variant-numeric:normal;font-variant-position:normal;isolation:auto;mix-blend-mode:normal;shape-padding:0;text-decoration-color:#000000;text-decoration-line:none;text-decoration-style:solid;text-indent:0;text-orientation:mixed;text-transform:none;white-space:normal"/>
 <path class="ColorScheme-Text" d="m6 1-4 4v8c0 1.108 0.892 2 2 2h8c1.108 0 2-0.892 2-2v-10c0-1.108-0.892-2-2-2zm0.41406 1h5.5859c0.554 0 1 0.446 1 1v10c0 0.554-0.446 1-1 1h-8c-0.554 0-1-0.446-1-1v-7.5859zm-2.4141 5v3h2v-3zm7.8652 0c-0.26916 1.034-0.94081 1.9174-1.8652 2.4531v0.54688h2v-3zm-7.8652 4v2h2v-2zm6 0v2h2v-2z" color="#363636" fill="#363636" opacity=".35"/>
</svg>
