<svg width="16" height="16" version="1.1" xmlns="http://www.w3.org/2000/svg">
 <path d="m12.949 9c-1.0843 0.027342-1.9492 0.92647-1.9492 2.0293v0.9707c-0.554 0-1 0.446-1 1v2c0 0.554 0.446 1 1 1h4c0.554 0 1-0.446 1-1v-2c0-0.554-0.446-1-1-1v-0.9707c0-1.12-0.892-2.0293-2-2.0293h-0.050781zm0.050781 0.99805c0.554 0 1 0.443 1 1v1h-2v-1c0-0.557 0.446-1 1-1zm-2 3.002h4v2h-4v-2z" color="#000000" fill="#363636" stroke-linecap="round" stroke-width="2" style="-inkscape-stroke:none"/>
 <path d="m7.4707 0c-0.050014 0.0029067-0.099928 0.014761-0.14844 0.033203-0.19404 0.073773-0.32227 0.25921-0.32227 0.4668v6.3281l-2.1914-1.7207c-0.21714-0.1706-0.53056-0.13316-0.70117 0.083984s-0.13316 0.53056 0.083984 0.70117l2.6816 2.1074-2.6816 2.1074c-0.21714 0.1706-0.25459 0.48407-0.083984 0.70117 0.17061 0.2172 0.48403 0.25458 0.70117 0.083984l2.1914-1.7207v6.3281c0 0.2076 0.12823 0.393 0.32227 0.4668s0.41286 0.020434 0.55078-0.13477l1.127-1.2676v-1.5039l-1 1.125v-5.2988l2.0488 1.6074c0.063233-0.35164 0.18738-0.68413 0.36133-0.98438l-1.9199-1.5098 3.3184-2.6074c0.10841-0.08518 0.17718-0.21034 0.18945-0.34766 0.01227-0.13733-0.03341-0.2739-0.125-0.37695l-4-4.5c-0.10344-0.11637-0.2523-0.17669-0.40234-0.16797zm0.5293 1.8145 2.7734 3.1211-2.7734 2.1777v-5.2988z" fill="#363636"/>
</svg>
