<svg width="16" height="16" version="1.1" xmlns="http://www.w3.org/2000/svg">
 <g color="#000000" fill="#363636" font-family="sans-serif" font-weight="400">
  <path d="m3.479 1a2.485 2.485 0 0 0-2.479 2.479v9.042a2.485 2.485 0 0 0 2.479 2.479h9.044a2.483 2.483 0 0 0 2.477-2.479v-9.042a2.483 2.483 0 0 0-2.477-2.479zm0 0.992h9.044c0.833 0 1.487 0.654 1.487 1.487v9.042c0 0.833-0.654 1.489-1.487 1.489h-9.044a1.474 1.474 0 0 1-1.487-1.489v-9.042c0-0.833 0.654-1.487 1.487-1.487z" overflow="visible" style="font-feature-settings:normal;font-variant-alternates:normal;font-variant-caps:normal;font-variant-ligatures:normal;font-variant-numeric:normal;font-variant-position:normal;isolation:auto;mix-blend-mode:normal;shape-padding:0;text-decoration-color:#000000;text-decoration-line:none;text-decoration-style:solid;text-indent:0;text-orientation:mixed;text-transform:none"/>
  <path d="m3.898 7.053v2h8.13v-2h-7.13z" overflow="visible" style="font-feature-settings:normal;font-variant-alternates:normal;font-variant-caps:normal;font-variant-ligatures:normal;font-variant-numeric:normal;font-variant-position:normal;isolation:auto;mix-blend-mode:normal;shape-padding:0;text-decoration-color:#000000;text-decoration-line:none;text-decoration-style:solid;text-indent:0;text-orientation:mixed;text-transform:none"/>
 </g>
</svg>
