<svg width="16" height="16" version="1.1" xmlns="http://www.w3.org/2000/svg">
 <g fill="#363636" stroke-linecap="round" stroke-linejoin="round" stroke-width="2">
  <path d="m7.4629 0a7.5 7.5 0 0 0-7.4629 7.5 7.5 7.5 0 0 0 7.5 7.5 7.5 7.5 0 0 0 7.5-7.5 7.5 7.5 0 0 0-7.5-7.5 7.5 7.5 0 0 0-0.037109 0zm0.037109 1a6.5 6.5 0 0 1 6.5 6.5 6.5 6.5 0 0 1-6.5 6.5 6.5 6.5 0 0 1-6.5-6.5 6.5 6.5 0 0 1 6.5-6.5z"/>
  <rect x="7" y="3" width="1" height="6"/>
  <rect x="7" y="11" width="1" height="1"/>
 </g>
</svg>
