<svg width="16.031" height="16" version="1.1" xmlns="http://www.w3.org/2000/svg">
 <path d="m8 3c-2.8405-3e-7 -5.4324 1.0071-7.4863 2.6582a0.5 0.5 0 0 0-0.095703 0.072266 0.5 0.5 0 0 0-0.1543 0.35938 0.5 0.5 0 0 0 0.16602 0.37109 3.0002 3.0002 0 0 1 0.35938-0.48828 3.0002 3.0002 0 0 1 2.5977-0.94336c1.4012-0.65692 2.9619-1.0293 4.6133-1.0293 1.6498-2e-7 3.2092 0.37158 4.6094 1.0273a3.0002 3.0002 0 0 1 2.4102 0.75391l0.029297 0.027344a3.0002 3.0002 0 0 1 0.52344 0.65234 0.5 0.5 0 0 0 0.16406-0.37109 0.5 0.5 0 0 0-0.1543-0.35938 0.5 0.5 0 0 0-0.095703-0.072266c-2.0539-1.6511-4.6459-2.6582-7.4863-2.6582zm-2.498 6.6543a3.0002 3.0002 0 0 1-0.30273 0.38672 3.0002 3.0002 0 0 1-0.93164 0.67578c0.050299 0.22297 0.24034 0.39258 0.47852 0.39258 0.12436-3.26e-4 0.24413-0.04698 0.33594-0.13086 0.33454-0.24539 0.70419-0.4415 1.0918-0.60156a3.0002 3.0002 0 0 1-0.20703-0.17188 3.0002 3.0002 0 0 1-0.46484-0.55078zm5 0c-0.09017 0.13696-0.19142 0.2663-0.30273 0.38672-0.11537 0.12229-0.24081 0.23466-0.375 0.33594 0.38823 0.16015 0.75871 0.35582 1.0938 0.60156 0.09181 0.08388 0.21158 0.13053 0.33594 0.13086 0.23884 0 0.42891-0.17062 0.47852-0.39453-0.27989-0.12956-0.53814-0.3015-0.76562-0.50977-0.17652-0.16425-0.33259-0.34918-0.46484-0.55078z" fill="#363636" fill-rule="evenodd" style="paint-order:stroke fill markers"/>
 <circle cx="8" cy="13" r="1" fill="#363636" fill-rule="evenodd" style="paint-order:stroke fill markers"/>
 <g fill="#202020">
  <g fill="#363636" fill-rule="evenodd">
   <path d="m4.3653 6.5386a2 2 0 0 1 0.10046 2.8221 2 2 0 0 1-2.8217 0.10941 2 2 0 0 1-0.11836-2.8213 2 2 0 0 1 2.8209-0.1273" style="paint-order:normal"/>
   <path d="m9.3653 6.5386a2 2 0 0 1 0.10046 2.8221 2 2 0 0 1-2.8217 0.10941 2 2 0 0 1-0.11836-2.8213 2 2 0 0 1 2.8209-0.1273" style="paint-order:normal"/>
   <path d="m14.365 6.5386a2 2 0 0 1 0.10046 2.8221 2 2 0 0 1-2.8217 0.10941 2 2 0 0 1-0.11836-2.8213 2 2 0 0 1 2.8209-0.1273" style="paint-order:normal"/>
  </g>
 </g>
</svg>
