<svg width="16" height="16" version="1.1" xmlns="http://www.w3.org/2000/svg">
 <path d="m1 2c-0.554 0-1 0.446-1 1v4c0 0.554 0.446 1 1 1h1v6h1v-3h5v2h-3v1h7v-1h-3v-2h6c0.554 0 1-0.446 1-1v-7c0-0.554-0.446-1-1-1h-12zm0 1h3v1h-3zm4 0h10v7h-12v-2h1c0.554 0 1-0.446 1-1zm-4 2h1v1h1v-1h1v2h-3z" fill="#363636" stroke-linecap="round" stroke-linejoin="round" stroke-width="10" style="paint-order:stroke fill markers"/>
 <path d="m10.879 4.3789-0.70703 0.70703 0.91406 0.91406h-4.0859v1h4.0859l-0.91406 0.91406 0.70703 0.70703 2.1211-2.1211-2.1211-2.1211z" fill="#363636" stroke-linecap="square" stroke-width="1.6903" style="paint-order:stroke fill markers"/>
</svg>
