<svg width="16" height="16" version="1.1" xmlns="http://www.w3.org/2000/svg">
 <g transform="translate(-1093,327)" fill="#363636">
  <circle cx="1096.5" cy="-318.5" r="1.5"/>
  <circle cx="1100.5" cy="-318.5" r="1.5"/>
  <circle cx="1104.5" cy="-318.5" r="1.5"/>
  <path d="m1102-326.01c-1.013 0-2.008 0.838-2.008 2.008v3h1v-3c0-0.555 0.6-1.008 1.008-1.008 0.403 0 1.008 0.468 1.008 1.008v3h1v-3c0-1.164-0.99-2.008-2.008-2.008zm5.504 1.927s-0.357-0.015-0.73 0.168c-0.374 0.183-0.782 0.658-0.782 1.332v1.581h1v-1.581c0-0.347 0.094-0.372 0.221-0.434s0.27-0.066 0.27-0.066zm-11.512 1.642v1.439h1v-1.44zm0 6.439v2.46c0 1.506 1.273 2.55 2.52 2.5a2.68 2.68 0 0 0 1.666-0.681c0.474-0.424 0.814-1.06 0.814-1.819v-2.46h-1v2.46c0 0.47-0.189 0.814-0.48 1.075-0.291 0.26-0.694 0.412-1.04 0.425-0.636 0.026-1.48-0.574-1.48-1.5v-2.46zm7.016 0v2c0 0.636 0.266 1.169 0.654 1.504s0.873 0.488 1.338 0.488c0.986 0 1.992-0.801 1.992-1.992v-2h-1v2c0 0.604-0.57 0.992-0.992 0.992a1.08 1.08 0 0 1-0.683-0.244c-0.183-0.158-0.309-0.371-0.309-0.748v-2zm-8.008-11v2h-1v1c0 1.108 0.892 2 2 2h1c1.108 0 2-0.892 2-2v-1h-1v-2h-1v2h-1v-2z" opacity=".5"/>
 </g>
</svg>
