<svg width="16" height="16" version="1.1" xmlns="http://www.w3.org/2000/svg">
 <path d="m3 0c-0.554 0-1 0.446-1 1s0.446 1 1 1v1c0 2.0554 1.2347 3.802 3 4.5723v0.85547c-1.7653 0.77022-3 2.5169-3 4.5723v1c-0.554 0-1 0.446-1 1s0.446 1 1 1h10c0.554 0 1-0.446 1-1s-0.446-1-1-1v-1c0-2.0554-1.2347-3.802-3-4.5723v-0.85547c1.7653-0.77022 3-2.5169 3-4.5723v-1c0.554 0 1-0.446 1-1s-0.446-1-1-1h-10zm1 2h8v1c0 1.8686-1.2737 3.4176-3 3.8613v1.0391 0.19922 1.0391c1.7263 0.44369 3 1.9928 3 3.8613v1h-2v-1a2 2 0 0 0-2-2 2 2 0 0 0-0.048828 0 2 2 0 0 0-1.9512 2 2 2 0 0 0 0 0.048828v0.95117h-2v-1c0-1.8686 1.2737-3.4176 3-3.8613v-0.13867-1.0996-1.0391c-1.7263-0.44369-3-1.9928-3-3.8613v-1zm1.1738 2a3 3 0 0 0 2.8262 2 3 3 0 0 0 2.8281-2h-5.6543z" fill="#363636" stroke-width=".8165"/>
</svg>
