<svg height="16" width="16" xmlns="http://www.w3.org/2000/svg"><path d="M2 1C.892 1 0 1.892 0 3v8c0 1.108.892 2 2 2h1.522L6 16l2-3h6c1.108 0 2-.892 2-2V3c0-1.108-.892-2-2-2zm0 1h12c.554 0 1 .446 1 1v8c0 .554-.446 1-1 1H7.566L6 14.4 4.033 12H2c-.554 0-1-.446-1-1V3c0-.554.446-1 1-1zm6 2.5V6H4v2h4.002v1.5c.76-.348 1.534-.736 2.322-1.166.78-.43 1.533-.876 2.258-1.334-.725-.45-1.477-.89-2.258-1.32A43.085 43.085 0 008 4.5zM1.3 13c.153.017.322.021.524 0z" style="line-height:125%;-inkscape-font-specification:Ubuntu;text-align:center" font-weight="400" font-size="15" font-family="Ubuntu" letter-spacing="0" word-spacing="0" text-anchor="middle" fill="#363636" stroke-width=".087"/></svg>