<svg width="16" height="16" version="1.1" xmlns="http://www.w3.org/2000/svg">
 <path class="warning" d="m12.48 9.729a0.443 0.443 0 0 0-0.36 0.22l-3.061 5.397a0.437 0.437 0 0 0 0.379 0.654h6.125a0.437 0.437 0 0 0 0.378-0.654l-3.058-5.397a0.442 0.442 0 0 0-0.402-0.22zm-0.48 1.271h1v0.168c0 0.348-0.016 0.667-0.047 0.957s-0.069 0.581-0.115 0.875h-0.666a12.898 12.898 0 0 1-0.125-0.875 9.146 9.146 0 0 1-0.047-0.957zm0.5 3a0.5 0.5 0 1 1 0 1 0.5 0.5 0 0 1 0-1z" color="#000000" fill="#fdc92b" fill-rule="evenodd" font-family="sans-serif" font-weight="400" overflow="visible" style="isolation:auto;mix-blend-mode:normal;text-decoration-color:#000000;text-decoration-line:none;text-decoration-style:solid;text-indent:0;text-transform:none;white-space:normal"/>
 <path d="m8 1.334-3.5 3.666h-2.629s-0.871 0.894-0.871 3.002 0.871 2.998 0.871 2.998h2.629l3.5 3.666zm4.644 1.47-0.706 0.708 0.353 0.353a5.999 5.999 0 0 1 1.758 4.242c0 0.516-0.073 1.023-0.201 1.514l0.664 1.172a6.99 6.99 0 0 0-1.514-7.635zm-2.12 2.122-0.708 0.707 0.354 0.353a2.999 2.999 0 0 1 0 4.243l-0.354 0.353 0.508 0.508 0.928-1.637v-3e-3c0.165-0.287 0.424-0.494 0.725-0.611 0.045-0.24 0.072-0.483 0.072-0.73a4 4 0 0 0-1.172-2.829z" fill="#363636" stroke-width="4.364"/>
</svg>
