<svg height="16" width="16" xmlns="http://www.w3.org/2000/svg"><path d="M8.641 1.668C6.482 1.67 4.648 2.999 3.771 4.9l-.06.13-.139.01C1.578 5.183 0 6.91 0 9.007 0 11.2 1.716 13 3.838 13h9.285C14.714 13 16 11.65 16 10.012a2.958 2.958 0 0 0-1.805-2.735l-.136-.058-.01-.149c-.136-2.993-2.487-5.4-5.405-5.402zm0 1c2.368.002 4.291 1.952 4.404 4.447v.01l.051.775.703.297a1.944 1.944 0 0 1 1.196 1.815c.01 1.114-.846 1.988-1.871 1.988H3.838c-1.556 0-2.837-1.321-2.837-2.992C1 7.41 2.185 6.142 3.645 6.035l.723-.05.31-.663v-.004c.728-1.58 2.213-2.648 3.961-2.65z" style="line-height:normal;-inkscape-font-specification:sans-serif;text-indent:0;text-align:start;text-decoration-line:none;text-transform:none;marker:none" color="#000" font-weight="400" font-family="sans-serif" overflow="visible" fill="#363636"/></svg>