<svg height="16" width="16" xmlns="http://www.w3.org/2000/svg"><path d="M8.297.246a5.725 5.725 0 0 1 1.1 5.096 5.729 5.729 0 0 1-7.016 4.05A5.728 5.728 0 0 1 .248 8.293a6.507 6.507 0 0 0 4.56 4.484c.089.024.177.037.265.057.067-.337.188-.655.35-.947-.119-.024-.237-.043-.354-.075a5.506 5.506 0 0 1-2.395-1.365c3.399.611 6.78-1.452 7.69-4.845V5.6a6.708 6.708 0 0 0 .1-2.897 5.472 5.472 0 0 1 1.527 4.127 5.56 5.56 0 0 1-.18 1.09c-.01.036-.023.07-.033.105.343.022.673.083.99.18 0-.009.01-.018.01-.027A6.507 6.507 0 0 0 8.298.246zM11.5 9a3.5 3.5 0 0 0-3.16 2.006A2.5 2.5 0 0 0 8.5 16H14a2 2 0 0 0 .992-3.734A3.5 3.5 0 0 0 11.5 9zm0 1a2.486 2.486 0 0 1 2.492 2.332l.037.535.465.268a.996.996 0 0 1 .504.867.985.985 0 0 1-1 .998h-5.5c-.84 0-1.5-.66-1.5-1.5 0-.8.605-1.445 1.404-1.496l.588-.037.252-.533A2.497 2.497 0 0 1 11.498 10z" fill="#363636" overflow="visible" style="marker:none" color="#000"/></svg>