<svg width="16" xmlns="http://www.w3.org/2000/svg" height="16"><g fill="#51db51"><path d="M10.06 1.988a3.938 3.938 0 0 0-3.939 3.936c0 .591.134 1.15.367 1.652l-.674.797-.059.748c-.006.005-.734.027-.734.027l-.375.271s.003.816 0 .805v.002l-.803.014-.338.387-.008.732s-.692-.045-.762.02v.002c-.442.407-.74.697-.74.697l.002 1.918.633-.004h-.26L7.474 8.89c.307.267.662.474 1.041.637.476.205.993.334 1.545.334a3.938 3.938 0 1 0 0-7.874m.752 1.877a1.313 1.313 0 1 1 0 2.625 1.313 1.313 0 0 1 0-2.625"/><path opacity=".525" d="M10.814 3.865a1.313 1.313 0 1 0-.001 2.627 1.313 1.313 0 0 0 .001-2.627m0 .75a.563.563 0 1 1 0 1.126.563.563 0 0 1 0-1.126M7.476 8.89l-5.104 5.102h1.877l4.453-4.377a3.962 3.962 0 0 1-1.227-.725"/></g></svg>