<?xml version="1.0" encoding="UTF-8" standalone="no"?>
<svg
   viewbox="0 0 200 200"
   version="1.1"
   id="svg4"
   sodipodi:docname="applications-office.svg"
   width="22"
   height="22"
   inkscape:version="1.1.1 (3bf5ae0d25, 2021-09-20, custom)"
   xmlns:inkscape="http://www.inkscape.org/namespaces/inkscape"
   xmlns:sodipodi="http://sodipodi.sourceforge.net/DTD/sodipodi-0.dtd"
   xmlns="http://www.w3.org/2000/svg"
   xmlns:svg="http://www.w3.org/2000/svg">
  <defs
     id="defs8" />
  <sodipodi:namedview
     id="namedview6"
     pagecolor="#ffffff"
     bordercolor="#666666"
     borderopacity="1.0"
     inkscape:pageshadow="2"
     inkscape:pageopacity="0.0"
     inkscape:pagecheckerboard="0"
     showgrid="false"
     inkscape:zoom="26.125"
     inkscape:cx="4.784689"
     inkscape:cy="9.2057417"
     inkscape:window-width="1920"
     inkscape:window-height="996"
     inkscape:window-x="0"
     inkscape:window-y="0"
     inkscape:window-maximized="1"
     inkscape:current-layer="svg4"
     showguides="true" />
  <path
     d="M 1,11 C 1,3.8 3.8,1 11,1 18.2,1 21,3.8 21,11 21,18.2 18.2,21 11,21 3.8,21 1,18.2 1,11"
     id="path2"
     style="fill:#438cd9;fill-opacity:1;stroke-width:0.1" />
  <path
     id="rect844"
     style="fill:#ffffff;stroke-width:4;stroke-linecap:round;stroke-linejoin:round"
     d="M 8 4 C 6.892 4 6 4.892 6 6 L 6 16 C 6 17.108 6.892 18 8 18 L 14 18 C 15.108 18 16 17.108 16 16 L 16 8 L 13 7 L 12 4 L 8 4 z M 7.5 9 L 14.5 9 C 14.777 9 15 9.223 15 9.5 C 15 9.777 14.777 10 14.5 10 L 7.5 10 C 7.223 10 7 9.777 7 9.5 C 7 9.223 7.223 9 7.5 9 z M 7.5 11 L 14.5 11 C 14.777 11 15 11.223 15 11.5 C 15 11.777 14.777 12 14.5 12 L 7.5 12 C 7.223 12 7 11.777 7 11.5 C 7 11.223 7.223 11 7.5 11 z M 7.5 13 L 14.5 13 C 14.777 13 15 13.223 15 13.5 C 15 13.777 14.777 14 14.5 14 L 7.5 14 C 7.223 14 7 13.777 7 13.5 C 7 13.223 7.223 13 7.5 13 z M 7.5 15 L 12.5 15 C 12.777 15 13 15.223 13 15.5 C 13 15.777 12.777 16 12.5 16 L 7.5 16 C 7.223 16 7 15.777 7 15.5 C 7 15.223 7.223 15 7.5 15 z " />
  <path
     id="rect1082"
     style="fill:#2264a9;stroke-width:4;stroke-linecap:round;stroke-linejoin:round"
     d="M 16,8 H 13 C 12.446,8 12,7.554 12,7 V 4 Z"
     sodipodi:nodetypes="csscc" />
</svg>
