<?xml version="1.0" encoding="UTF-8" standalone="no"?>
<svg
   viewbox="0 0 200 200"
   version="1.1"
   id="svg4"
   sodipodi:docname="applications-graphics.svg"
   width="22"
   height="22"
   inkscape:version="1.1.1 (3bf5ae0d25, 2021-09-20, custom)"
   xmlns:inkscape="http://www.inkscape.org/namespaces/inkscape"
   xmlns:sodipodi="http://sodipodi.sourceforge.net/DTD/sodipodi-0.dtd"
   xmlns="http://www.w3.org/2000/svg"
   xmlns:svg="http://www.w3.org/2000/svg">
  <defs
     id="defs8" />
  <sodipodi:namedview
     id="namedview6"
     pagecolor="#ffffff"
     bordercolor="#666666"
     borderopacity="1.0"
     inkscape:pageshadow="2"
     inkscape:pageopacity="0.0"
     inkscape:pagecheckerboard="0"
     showgrid="false"
     inkscape:zoom="19.325"
     inkscape:cx="7.0375162"
     inkscape:cy="15.653299"
     inkscape:window-width="1920"
     inkscape:window-height="996"
     inkscape:window-x="0"
     inkscape:window-y="0"
     inkscape:window-maximized="1"
     inkscape:current-layer="svg4"
     showguides="true" />
  <path
     d="M 1,11 C 1,3.8 3.8,1 11,1 18.2,1 21,3.8 21,11 21,18.2 18.2,21 11,21 3.8,21 1,18.2 1,11"
     id="path2"
     style="fill:#9a80ff;fill-opacity:1;stroke-width:0.1" />
  <path
     class="st2"
     d="M 15.094507,14.597163 13.245,13.52735 c 1.45966,-2.384413 2.919319,-4.7688264 4.37898,-7.1532399 0.226655,-0.3717144 0.71623,-0.4986418 1.097011,-0.2810527 l 0.09066,0.054396 c 0.40798,0.2266551 0.553039,0.7434288 0.326383,1.151409 -1.278335,2.4116115 -2.565737,4.8141576 -3.835006,7.2257686 -0.03626,0.09066 -0.135993,0.117862 -0.208523,0.07253 z"
     id="path12"
     style="fill:#ffffff;stroke-width:0.0906625" />
  <path
     class="st2"
     d="m 11.853106,19.156545 c -0.275216,0.01059 -0.486921,-0.317558 -0.529262,-0.381069 -0.783309,-0.82565 -1.037355,-2.011198 -0.635115,-3.048553 0.391654,-1.037354 1.280815,-1.49252 1.757151,-1.683054 0.190535,-0.0741 0.40224,-0.05293 0.582189,0.05293 l 1.704225,0.984428 c 0.169364,0.09527 0.190535,0.328143 0.05293,0.465751 -1.02677,0.899746 -1.439595,1.577202 -1.640714,2.064124 -0.190535,0.476336 -0.444581,0.772723 -0.973843,1.354912 -0.04234,0.05293 -0.148194,0.179949 -0.317558,0.190535 z"
     id="path14"
     style="fill:#ffffff;stroke-width:0.105853" />
  <path
     class="st2"
     d="M 12.151107,13.315241 16,7.3751437 C 15.337841,6.4112428 14.432612,5.9334822 13.938089,5.6820301 12.194684,4.7851823 10.526716,4.9947259 9.747212,5.095307 9.0766717,5.1875064 7.7774998,5.3551415 6.5202373,6.2855163 4.7181602,7.6182152 3.4273699,10.208177 4.2571636,11.431913 c 0.3017431,0.435851 0.8046483,0.603486 1.1650638,0.72083 1.567388,0.511287 2.6067254,-0.544814 3.2940287,-0.04191 0.5951047,0.435851 -0.167635,1.609297 0.5196691,2.430709 0.3268886,0.393942 0.4537035,0.592491 0.6568913,0.569959 0.4346985,0.0046 0.7643575,-1.389166 2.2582905,-1.79626 z M 11.574435,6.5621139 c 0.452614,0 0.829793,0.3687971 0.829793,0.8297937 0,0.4526151 -0.368797,0.8297938 -0.829793,0.8297938 -0.460997,0 -0.829794,-0.3687972 -0.829794,-0.8297938 0.0084,-0.4609966 0.377178,-0.8297937 0.829794,-0.8297937 z M 6.5789097,10.191413 c -0.3771794,0 -0.6873041,-0.310125 -0.6873041,-0.6873036 0,-0.3771787 0.3101247,-0.6873034 0.6873041,-0.6873034 0.3771787,0 0.6873034,0.3101247 0.6873034,0.6873034 0.00839,0.385561 -0.3017431,0.6873036 -0.6873034,0.6873036 z M 8.6408205,8.59888 c -0.4274696,0 -0.7711212,-0.3436516 -0.7711212,-0.7711212 0,-0.4274696 0.3436516,-0.7711213 0.7711212,-0.7711213 0.4274696,0 0.7711213,0.3436517 0.7711213,0.7711213 0,0.4274696 -0.3436517,0.7711212 -0.7711213,0.7711212 z"
     id="path18"
     style="fill:#ffffff;stroke-width:0.0838179"
     sodipodi:nodetypes="cccccccccccssscsssscssssss" />
</svg>
