<svg xmlns="http://www.w3.org/2000/svg" width="24" height="24"><defs><style id="current-color-scheme" type="text/css">.ColorScheme-Text{color:#dfdfdf;}.ColorScheme-Highlight{color:#5294e2;}</style></defs><path d="M15.152 5.697a4.988 4.988 0 0 0-5.92 2.24l-2.25 3.897-2.732.732L4 13l1.732 1 8.66 5 1.733 1 .25-.434-.732-2.732 1.25-2.164 1-1.733a4.961 4.961 0 0 0 .632-2.986c-.152.024-.304.049-.462.049-1.646 0-3-1.355-3-3 0-.436.099-.849.272-1.222 0 0-.18-.08-.183-.08zM8.064 16.5c0 .714.38 1.375.998 1.732.619.356 1.38.355 1.999-.002z" fill="currentColor" class="ColorScheme-Text"/><circle cx="18.062" cy="6.999" r="2" fill="currentColor" class="ColorScheme-Highlight"/></svg>