<svg width="16" height="16" version="1.1" xmlns="http://www.w3.org/2000/svg">
 <path d="m4 0c-0.554 0-1 0.446-1 1v14c0 0.554 0.446 1 1 1h8c0.554 0 1-0.446 1-1v-14c0-0.554-0.446-1-1-1h-1.3047-5.3906-1.3047zm0.55078 1h0.94922l0.5 0.69531c0.098713 0.13719 0.13567 0.30469 0.30469 0.30469h3.3906c0.16902 0 0.20597-0.16749 0.30469-0.30469l0.5-0.69531h0.94922c0.30548 0 0.55078 0.2453 0.55078 0.55078v12.898c0 0.30548-0.2453 0.55078-0.55078 0.55078h-6.8984c-0.30548 0-0.55078-0.2453-0.55078-0.55078v-12.898c0-0.30548 0.2453-0.55078 0.55078-0.55078z" fill="#dedede" fill-rule="evenodd" style="paint-order:stroke fill markers"/>
 <rect x="6" y="14" width="4" height=".418" ry=".209" fill="#dedede" fill-rule="evenodd" opacity=".35" style="paint-order:stroke fill markers"/>
</svg>
