<?xml version="1.0" encoding="UTF-8" standalone="no"?>
<svg
   width="16"
   height="16"
   version="1.1"
   viewBox="0 0 16 16"
   id="svg11"
   sodipodi:docname="folder-camera.svg"
   inkscape:version="1.1 (c4e8f9ed74, 2021-05-24)"
   xmlns:inkscape="http://www.inkscape.org/namespaces/inkscape"
   xmlns:sodipodi="http://sodipodi.sourceforge.net/DTD/sodipodi-0.dtd"
   xmlns:xlink="http://www.w3.org/1999/xlink"
   xmlns="http://www.w3.org/2000/svg"
   xmlns:svg="http://www.w3.org/2000/svg"
   xmlns:rdf="http://www.w3.org/1999/02/22-rdf-syntax-ns#"
   xmlns:cc="http://creativecommons.org/ns#"
   xmlns:dc="http://purl.org/dc/elements/1.1/">
  <sodipodi:namedview
     id="namedview13"
     pagecolor="#ffffff"
     bordercolor="#999999"
     borderopacity="1"
     inkscape:pageshadow="0"
     inkscape:pageopacity="0"
     inkscape:pagecheckerboard="0"
     showgrid="true"
     inkscape:zoom="35.266951"
     inkscape:cx="13.085906"
     inkscape:cy="8.0812204"
     inkscape:window-width="1920"
     inkscape:window-height="954"
     inkscape:window-x="0"
     inkscape:window-y="40"
     inkscape:window-maximized="1"
     inkscape:current-layer="svg11"
     inkscape:snap-bbox="true"
     inkscape:bbox-nodes="true"
     inkscape:snap-bbox-edge-midpoints="false"
     inkscape:snap-others="false"
     inkscape:object-nodes="false">
    <inkscape:grid
       type="xygrid"
       id="grid1117" />
  </sodipodi:namedview>
  <metadata
     id="metadata2">
    <rdf:RDF>
      <cc:Work
         rdf:about="">
        <dc:format>image/svg+xml</dc:format>
        <dc:type
           rdf:resource="http://purl.org/dc/dcmitype/StillImage" />
        <dc:title />
      </cc:Work>
    </rdf:RDF>
  </metadata>
  <defs
     id="defs5">
    <linearGradient
       inkscape:collect="always"
       id="linearGradient14448">
      <stop
         style="stop-color:#ffffff;stop-opacity:1"
         offset="0"
         id="stop14444" />
      <stop
         style="stop-color:#e2f2ff;stop-opacity:1"
         offset="1"
         id="stop14446" />
    </linearGradient>
    <style
       id="current-color-scheme"
       type="text/css">.ColorScheme-Text { color:#363636; } .ColorScheme-Text { color:#363636; }</style>
    <linearGradient
       id="linearGradient873"
       x1="-48.646"
       x2="-32.771999"
       y1="-6.3007002"
       y2="9.5740004"
       gradientTransform="matrix(1.0078741,0,0,1.0078741,49.029467,6.350299)"
       gradientUnits="userSpaceOnUse">
      <stop
         stop-color="#28afea"
         offset="0"
         id="stop2"
         style="stop-color:#1a9de2;stop-opacity:0.99607843" />
      <stop
         stop-color="#838be4"
         offset="1"
         id="stop4"
         style="stop-color:#0669bd;stop-opacity:0.99607843" />
    </linearGradient>
    <linearGradient
       inkscape:collect="always"
       xlink:href="#linearGradient14448"
       id="linearGradient1224"
       gradientUnits="userSpaceOnUse"
       gradientTransform="matrix(0.33678673,0,0,0.33678673,-2.8377161,-2.6916628)"
       x1="33.949287"
       y1="31"
       x2="33.949287"
       y2="56" />
  </defs>
  <path
     class="ColorScheme-Text"
     d="m22.993 1c-1.108 0-2 0.892-2 2v9c0 1.108 0.892 2 2 2h12c1.108 0 2-0.892 2-2v-9c0-1.108-0.892-2-2-2zm0 1h12c0.554 0 1 0.446 1 1v9l-5-5-3.4794 4-2.5206-2-3 3v-9c0-0.554 0.446-1 1-1zm2.5 2c-0.82843 0-1.5 0.67157-1.5 1.5s0.67157 1.5 1.5 1.5 1.5-0.67157 1.5-1.5-0.67157-1.5-1.5-1.5z"
     fill="currentColor"
     id="path7" />
  <g
     id="g837"
     transform="matrix(0.875,0,0,0.875,1,1)">
    <rect
       x="0"
       y="0"
       width="16"
       height="16"
       ry="2.2857144"
       fill="url(#linearGradient873)"
       id="rect11"
       style="fill:url(#linearGradient873);stroke-width:1.00787" />
    <path
       id="path1218"
       style="fill:url(#linearGradient1224);fill-opacity:1;stroke:none;stroke-width:0.336787;stroke-linecap:round;stroke-linejoin:round;paint-order:stroke fill markers"
       d="m 8,7.7480469 c -0.215364,0 -0.4306792,0.089612 -0.5957031,0.2675781 L 0.5625,15.392578 C 0.92559186,15.767361 1.4345453,16 2,16 h 12 c 0.565455,0 1.074408,-0.232639 1.4375,-0.607422 L 8.5957031,8.015625 C 8.4306792,7.8376584 8.2153653,7.7480469 8,7.7480469 Z" />
    <circle
       style="fill:#feffff;fill-opacity:1;stroke-width:0.685715;stroke-linecap:round;stroke-linejoin:round;paint-order:stroke fill markers"
       id="circle1220"
       cx="10.857143"
       cy="4"
       r="1.7142856" />
  </g>
</svg>
