<?xml version="1.0" encoding="UTF-8" standalone="no"?>
<svg
   width="16"
   height="16"
   version="1.1"
   viewBox="0 0 16 16"
   id="svg11"
   sodipodi:docname="folder-video.svg"
   inkscape:version="1.1 (c4e8f9ed74, 2021-05-24)"
   xmlns:inkscape="http://www.inkscape.org/namespaces/inkscape"
   xmlns:sodipodi="http://sodipodi.sourceforge.net/DTD/sodipodi-0.dtd"
   xmlns:xlink="http://www.w3.org/1999/xlink"
   xmlns="http://www.w3.org/2000/svg"
   xmlns:svg="http://www.w3.org/2000/svg"
   xmlns:rdf="http://www.w3.org/1999/02/22-rdf-syntax-ns#"
   xmlns:cc="http://creativecommons.org/ns#"
   xmlns:dc="http://purl.org/dc/elements/1.1/">
  <sodipodi:namedview
     id="namedview13"
     pagecolor="#ffffff"
     bordercolor="#999999"
     borderopacity="1"
     inkscape:pageshadow="0"
     inkscape:pageopacity="0"
     inkscape:pagecheckerboard="0"
     showgrid="true"
     inkscape:zoom="3.1171875"
     inkscape:cx="-17.804511"
     inkscape:cy="35.929825"
     inkscape:window-width="1920"
     inkscape:window-height="954"
     inkscape:window-x="0"
     inkscape:window-y="40"
     inkscape:window-maximized="1"
     inkscape:current-layer="svg11"
     inkscape:snap-nodes="false"
     inkscape:snap-bbox="true"
     inkscape:bbox-nodes="true">
    <inkscape:grid
       type="xygrid"
       id="grid934" />
  </sodipodi:namedview>
  <metadata
     id="metadata2">
    <rdf:RDF>
      <cc:Work
         rdf:about="">
        <dc:format>image/svg+xml</dc:format>
        <dc:type
           rdf:resource="http://purl.org/dc/dcmitype/StillImage" />
        <dc:title />
      </cc:Work>
    </rdf:RDF>
  </metadata>
  <defs
     id="defs5">
    <style
       id="current-color-scheme"
       type="text/css">.ColorScheme-Text { color:#363636; }</style>
    <linearGradient
       inkscape:collect="always"
       xlink:href="#linearGradient1194"
       id="linearGradient1196"
       x1="-6.9782867"
       y1="1.008647"
       x2="1.9884033"
       y2="15.054346"
       gradientUnits="userSpaceOnUse"
       gradientTransform="matrix(1.3333333,0,0,1,11.333334,0)" />
    <linearGradient
       inkscape:collect="always"
       id="linearGradient1194">
      <stop
         style="stop-color:#bf83f9;stop-opacity:0.99607843"
         offset="0"
         id="stop1190" />
      <stop
         style="stop-color:#8e4beb;stop-opacity:1"
         offset="1"
         id="stop1192" />
    </linearGradient>
    <linearGradient
       id="linearGradient1056"
       x1="8.7996998"
       x2="14.091"
       y1="-42.897999"
       y2="-42.897999"
       gradientTransform="matrix(0.91664862,0,0,0.91664862,14.961794,34.277537)"
       gradientUnits="userSpaceOnUse">
      <stop
         stop-color="#ebebeb"
         offset="0"
         id="stop878" />
      <stop
         stop-color="#fff"
         offset="1"
         id="stop880" />
    </linearGradient>
    <linearGradient
       inkscape:collect="always"
       xlink:href="#linearGradient1056"
       id="linearGradient11640"
       gradientUnits="userSpaceOnUse"
       gradientTransform="matrix(0.68442826,0,0,0.65082246,0.35540104,35.911474)"
       x1="8.7996998"
       y1="-42.897999"
       x2="14.091"
       y2="-42.897999" />
  </defs>
  <path
     class="ColorScheme-Text"
     d="m18.64 1c-1.108 0-2 0.892-2 2v9c0 1.108 0.892 2 2 2h12c1.108 0 2-0.892 2-2v-9c0-1.108-0.892-2-2-2zm0 1h1v1h-2c0-0.554 0.446-1 1-1zm2 0h8v5h-8zm9 0h1c0.554 0 1 0.446 1 1h-2zm-12 2h2v1h-2zm12 0h2v1h-2zm-12 2h2v1h-2zm12 0h2v1h-2zm-12 2h2v1h-2zm3 0h8v5h-8zm9 0h2v1h-2zm-12 2h2v1h-2zm12 0h2v1h-2zm-12 2h2v1h-1c-0.554 0-1-0.446-1-1zm12 0h2c0 0.554-0.446 1-1 1h-1z"
     fill="currentColor"
     id="path7" />
  <rect
     style="fill:url(#linearGradient1196);fill-opacity:1;stroke-width:0.570763;stroke-linecap:round;stroke-linejoin:round"
     id="rect883"
     width="12"
     height="14"
     x="2"
     y="1"
     ry="1" />
  <path
     style="fill:url(#linearGradient11640)"
     d="M 9.8888026,7.784502 6.8979196,5.6293689 A 0.31682867,0.27349512 0 0 0 6.3783218,5.8426955 V 10.14203 a 0.31682867,0.27349512 0 0 0 0.5195978,0.213326 l 2.990883,-2.1551349 a 0.31682867,0.27349512 0 0 0 0.038015,-0.3828916 z"
     fill="url(#linearGradient1056)"
     stroke-width="0.00328862"
     p-id="47316"
     id="path11638" />
  <rect
     style="fill:#5a428b;fill-opacity:1;stroke-width:0.342857;stroke-linecap:round;stroke-linejoin:round;paint-order:stroke fill markers"
     id="rect11642"
     width="1.7142866"
     height="1.7142866"
     x="3.1428564"
     y="2"
     rx="0"
     ry="0.28571469" />
  <rect
     style="fill:#5a428b;fill-opacity:1;stroke-width:0.342857;stroke-linecap:round;stroke-linejoin:round;paint-order:stroke fill markers"
     id="rect11644"
     width="1.7142866"
     height="1.7142866"
     x="3.1428564"
     y="4.5714278"
     rx="0"
     ry="0.28571469" />
  <rect
     style="fill:#5a428b;fill-opacity:1;stroke-width:0.342857;stroke-linecap:round;stroke-linejoin:round;paint-order:stroke fill markers"
     id="rect11646"
     width="1.7142866"
     height="1.7142866"
     x="3.1428564"
     y="7.1428566"
     rx="0"
     ry="0.28571469" />
  <rect
     style="fill:#5a428b;fill-opacity:1;stroke-width:0.342857;stroke-linecap:round;stroke-linejoin:round;paint-order:stroke fill markers"
     id="rect11648"
     width="1.7142866"
     height="1.7142866"
     x="3.1428564"
     y="9.7142849"
     rx="0"
     ry="0.28571469" />
  <rect
     style="fill:#5a428b;fill-opacity:1;stroke-width:0.342857;stroke-linecap:round;stroke-linejoin:round;paint-order:stroke fill markers"
     id="rect11650"
     width="1.7142866"
     height="1.7142866"
     x="3.1428564"
     y="12.285714"
     rx="0"
     ry="0.28571469" />
  <rect
     style="fill:#5a428b;fill-opacity:1;stroke-width:0.342857;stroke-linecap:round;stroke-linejoin:round;paint-order:stroke fill markers"
     id="rect11652"
     width="1.7142866"
     height="1.7142866"
     x="11.160317"
     y="2"
     rx="0"
     ry="0.28571469" />
  <rect
     style="fill:#5a428b;fill-opacity:1;stroke-width:0.342857;stroke-linecap:round;stroke-linejoin:round;paint-order:stroke fill markers"
     id="rect11654"
     width="1.7142866"
     height="1.7142866"
     x="11.160317"
     y="4.5714278"
     rx="0"
     ry="0.28571469" />
  <rect
     style="fill:#5a428b;fill-opacity:1;stroke-width:0.342857;stroke-linecap:round;stroke-linejoin:round;paint-order:stroke fill markers"
     id="rect11656"
     width="1.7142866"
     height="1.7142866"
     x="11.160317"
     y="7.1428566"
     rx="0"
     ry="0.28571469" />
  <rect
     style="fill:#5a428b;fill-opacity:1;stroke-width:0.342857;stroke-linecap:round;stroke-linejoin:round;paint-order:stroke fill markers"
     id="rect11658"
     width="1.7142866"
     height="1.7142866"
     x="11.160317"
     y="9.7142849"
     rx="0"
     ry="0.28571469" />
  <rect
     style="fill:#5a428b;fill-opacity:1;stroke-width:0.342857;stroke-linecap:round;stroke-linejoin:round;paint-order:stroke fill markers"
     id="rect11660"
     width="1.7142866"
     height="1.7142866"
     x="11.160317"
     y="12.285714"
     rx="0"
     ry="0.28571469" />
</svg>
