<?xml version="1.0" encoding="UTF-8" standalone="no"?>
<svg
   viewbox="0 0 200 200"
   version="1.1"
   id="svg4"
   sodipodi:docname="application-apk.svg"
   width="64"
   height="64"
   inkscape:version="1.1.1 (3bf5ae0d25, 2021-09-20, custom)"
   xmlns:inkscape="http://www.inkscape.org/namespaces/inkscape"
   xmlns:sodipodi="http://sodipodi.sourceforge.net/DTD/sodipodi-0.dtd"
   xmlns="http://www.w3.org/2000/svg"
   xmlns:svg="http://www.w3.org/2000/svg">
  <defs
     id="defs8" />
  <sodipodi:namedview
     id="namedview6"
     pagecolor="#ffffff"
     bordercolor="#666666"
     borderopacity="1.0"
     inkscape:pageshadow="2"
     inkscape:pageopacity="0.0"
     inkscape:pagecheckerboard="0"
     showgrid="false"
     inkscape:zoom="6.53125"
     inkscape:cx="43.023923"
     inkscape:cy="32.995215"
     inkscape:window-width="1920"
     inkscape:window-height="996"
     inkscape:window-x="0"
     inkscape:window-y="0"
     inkscape:window-maximized="1"
     inkscape:current-layer="svg4"
     showguides="true" />
  <path
     d="M 2,32 C 2,10.4 10.4,2 32,2 53.6,2 62,10.4 62,32 62,53.6 53.6,62 32,62 10.4,62 2,53.6 2,32"
     id="path2"
     style="stroke-width:0.3;fill:#81c95a;fill-opacity:1;stroke:none" />
  <path
     id="path16283"
     style="fill:#ffffff;stroke-width:0.56821"
     d="m 19.431709,24 -5.910496,15.773102 h 1.978845 l 1.670115,-4.681157 h 6.572591 l 1.575264,4.681157 h 2.114611 L 21.886667,24 Z m 10.249448,0 v 15.773102 h 1.887713 v -5.499476 h 2.681855 c 3.522902,0 5.886319,-2.091015 5.886319,-5.250262 C 40.137044,26.000488 37.909417,24 34.591072,24 Z m 13.411136,0 v 15.773102 h 1.885853 v -8.129257 l 7.249564,8.129257 h 2.477275 L 47.198767,31.456004 54.411134,24 h -2.31919 l -7.113798,7.49506 V 24 Z m -22.539114,1.614321 2.639079,7.840985 h -5.438102 z m 11.015691,0.02232 h 2.795304 c 2.295568,0 3.840521,1.49969 3.840521,3.727073 0,2.136468 -1.272599,3.273276 -3.613623,3.273276 H 31.56887 Z M 10.454376,37.091247 C 9.5906974,37.091247 9,37.704674 9,38.545623 9,39.386574 9.5906974,40 10.454376,40 c 0.86368,0 1.454377,-0.613426 1.454377,-1.454377 0,-0.840949 -0.590697,-1.454376 -1.454377,-1.454376 z" />
</svg>
