<?xml version="1.0" encoding="UTF-8" standalone="no"?>
<svg
   viewbox="0 0 200 200"
   version="1.1"
   id="svg4"
   sodipodi:docname="application-x-java-archive.svg"
   width="64"
   height="64"
   inkscape:version="1.1.1 (3bf5ae0d25, 2021-09-20, custom)"
   xmlns:inkscape="http://www.inkscape.org/namespaces/inkscape"
   xmlns:sodipodi="http://sodipodi.sourceforge.net/DTD/sodipodi-0.dtd"
   xmlns="http://www.w3.org/2000/svg"
   xmlns:svg="http://www.w3.org/2000/svg">
  <defs
     id="defs8" />
  <sodipodi:namedview
     id="namedview6"
     pagecolor="#ffffff"
     bordercolor="#666666"
     borderopacity="1.0"
     inkscape:pageshadow="2"
     inkscape:pageopacity="0.0"
     inkscape:pagecheckerboard="0"
     showgrid="false"
     inkscape:zoom="9.2365823"
     inkscape:cx="38.325864"
     inkscape:cy="36.214694"
     inkscape:window-width="1920"
     inkscape:window-height="996"
     inkscape:window-x="0"
     inkscape:window-y="0"
     inkscape:window-maximized="1"
     inkscape:current-layer="svg4"
     showguides="true" />
  <path
     d="M 2,32 C 2,10.4 10.4,2 32,2 53.6,2 62,10.4 62,32 62,53.6 53.6,62 32,62 10.4,62 2,53.6 2,32"
     id="path2"
     style="stroke-width:0.3;fill:#e58645;fill-opacity:1;stroke:none" />
  <path
     id="path5663"
     style="font-size:22.7273px;line-height:1.25;font-family:Cantarell;-inkscape-font-specification:Cantarell;stroke-width:0.568182;fill:#ffffff"
     d="M 21.136719 24.109375 L 21.136719 35.541016 C 21.136719 37.404654 20.296167 38.449219 18.773438 38.449219 C 18.091618 38.449219 17.181286 38.245916 16.544922 37.927734 L 16 39.335938 C 16.909092 39.881392 17.863813 40.109375 18.818359 40.109375 C 21.500181 40.109375 23.023437 38.404123 23.023438 35.335938 L 23.023438 24.109375 L 21.136719 24.109375 z M 30.910156 24.109375 L 25 39.882812 L 26.976562 39.882812 L 28.648438 35.199219 L 35.21875 35.199219 L 36.794922 39.882812 L 38.910156 39.882812 L 33.363281 24.109375 L 30.910156 24.109375 z M 41.160156 24.109375 L 41.160156 39.882812 L 43.044922 39.882812 L 43.044922 33.496094 L 46.160156 33.496094 C 46.325669 33.496094 46.486473 33.488936 46.646484 33.478516 L 50.318359 39.882812 L 52.568359 39.882812 L 48.574219 33.058594 C 50.478304 32.305377 51.660156 30.634909 51.660156 28.517578 C 51.660156 25.744847 49.613996 24.109375 46.386719 24.109375 L 41.160156 24.109375 z M 32.03125 25.722656 L 34.669922 33.564453 L 29.232422 33.564453 L 32.03125 25.722656 z M 43.044922 25.746094 L 46.160156 25.746094 C 48.410159 25.746094 49.726562 26.904827 49.726562 28.859375 C 49.726562 30.791196 48.545812 31.904297 46.386719 31.904297 L 43.044922 31.904297 L 43.044922 25.746094 z M 12.886719 37.199219 C 12.023082 37.199219 11.431641 37.813387 11.431641 38.654297 C 11.431641 39.495207 12.023082 40.109375 12.886719 40.109375 C 13.750356 40.109375 14.341797 39.495207 14.341797 38.654297 C 14.341797 37.813387 13.750356 37.199219 12.886719 37.199219 z " />
</svg>
