<?xml version="1.0" encoding="UTF-8" standalone="no"?>
<svg
   viewbox="0 0 200 200"
   version="1.1"
   id="svg4"
   sodipodi:docname="application-x-perl.svg"
   width="64"
   height="64"
   inkscape:version="1.1.1 (3bf5ae0d25, 2021-09-20, custom)"
   xmlns:inkscape="http://www.inkscape.org/namespaces/inkscape"
   xmlns:sodipodi="http://sodipodi.sourceforge.net/DTD/sodipodi-0.dtd"
   xmlns="http://www.w3.org/2000/svg"
   xmlns:svg="http://www.w3.org/2000/svg">
  <defs
     id="defs8" />
  <sodipodi:namedview
     id="namedview6"
     pagecolor="#ffffff"
     bordercolor="#666666"
     borderopacity="1.0"
     inkscape:pageshadow="2"
     inkscape:pageopacity="0.0"
     inkscape:pagecheckerboard="0"
     showgrid="false"
     inkscape:zoom="6.53125"
     inkscape:cx="43.023923"
     inkscape:cy="32.995215"
     inkscape:window-width="1920"
     inkscape:window-height="996"
     inkscape:window-x="0"
     inkscape:window-y="0"
     inkscape:window-maximized="1"
     inkscape:current-layer="svg4"
     showguides="true" />
  <path
     d="M 2,32 C 2,10.4 10.4,2 32,2 53.6,2 62,10.4 62,32 62,53.6 53.6,62 32,62 10.4,62 2,53.6 2,32"
     id="path2"
     style="stroke-width:0.3;fill:#507ba7;fill-opacity:1;stroke:none" />
  <path
     id="rect5723"
     style="fill:#ffffff;fill-opacity:1;stroke-width:4;stroke-linecap:round;stroke-linejoin:round"
     d="M 11 25 L 11 38.322266 L 12.59375 38.322266 L 12.59375 33.675781 L 14.857422 33.675781 C 17.83274 33.675781 19.830078 31.910376 19.830078 29.242188 C 19.830078 26.689173 17.949042 25 15.146484 25 L 11 25 z M 22.326172 25 L 22.326172 38.322266 L 30.695312 38.322266 L 30.695312 36.939453 L 23.917969 36.939453 L 23.917969 32.121094 L 30.175781 32.121094 L 30.175781 30.740234 L 23.917969 30.740234 L 23.917969 26.382812 L 30.695312 26.382812 L 30.695312 25 L 22.326172 25 z M 33.535156 25 L 33.535156 38.322266 L 35.128906 38.322266 L 35.128906 32.927734 L 37.757812 32.927734 C 37.898167 32.927734 38.036205 32.922934 38.171875 32.914062 L 41.271484 38.322266 L 43.171875 38.322266 L 39.798828 32.560547 C 41.406967 31.924356 42.404297 30.512878 42.404297 28.724609 C 42.404297 26.382745 40.676947 25 37.951172 25 L 33.535156 25 z M 45.4375 25 L 45.4375 38.322266 L 53 38.322266 L 53 36.900391 L 47.029297 36.900391 L 47.029297 25 L 45.4375 25 z M 12.59375 26.382812 L 14.955078 26.382812 C 16.893834 26.382812 18.199219 27.648128 18.199219 29.529297 C 18.199219 31.333683 17.123631 32.294922 15.146484 32.294922 L 12.59375 32.294922 L 12.59375 26.382812 z M 35.128906 26.382812 L 37.757812 26.382812 C 39.658178 26.382812 40.771484 27.360897 40.771484 29.011719 C 40.771484 30.643345 39.774754 31.583984 37.951172 31.583984 L 35.128906 31.583984 L 35.128906 26.382812 z " />
</svg>
