<?xml version="1.0" encoding="UTF-8" standalone="no"?>
<svg
   viewbox="0 0 200 200"
   version="1.1"
   id="svg4"
   sodipodi:docname="application-x-osm+xml.svg"
   width="64"
   height="64"
   inkscape:version="1.1.1 (3bf5ae0d25, 2021-09-20, custom)"
   xmlns:inkscape="http://www.inkscape.org/namespaces/inkscape"
   xmlns:sodipodi="http://sodipodi.sourceforge.net/DTD/sodipodi-0.dtd"
   xmlns="http://www.w3.org/2000/svg"
   xmlns:svg="http://www.w3.org/2000/svg">
  <defs
     id="defs8" />
  <sodipodi:namedview
     id="namedview6"
     pagecolor="#ffffff"
     bordercolor="#666666"
     borderopacity="1.0"
     inkscape:pageshadow="2"
     inkscape:pageopacity="0.0"
     inkscape:pagecheckerboard="0"
     showgrid="false"
     inkscape:zoom="6.4416665"
     inkscape:cx="19.094438"
     inkscape:cy="40.284606"
     inkscape:window-width="1920"
     inkscape:window-height="996"
     inkscape:window-x="0"
     inkscape:window-y="0"
     inkscape:window-maximized="1"
     inkscape:current-layer="svg4"
     showguides="true" />
  <path
     d="M 2,32 C 2,10.4 10.4,2 32,2 53.6,2 62,10.4 62,32 62,53.6 53.6,62 32,62 10.4,62 2,53.6 2,32"
     id="path2"
     style="stroke-width:0.3;fill:#f9f9f9;fill-opacity:1;stroke:none" />
  <path
     id="path14"
     style="fill:#66cc33;fill-opacity:1;stroke-width:0.247233"
     d="m 31.114428,11 c -0.716974,0 -7.886712,0.0988 -12.608851,6.08182 -5.241324,6.625828 -3.065776,14.957654 -1.829614,17.034406 0.148339,0.247233 1.705999,2.793436 1.705999,2.793436 L 31.089805,53 c 0,0 12.040023,-14.977688 13.276187,-16.856654 1.038375,-1.582287 1.68137,-3.164767 1.68137,-3.164767 0.395574,-0.988929 0.618082,-1.829134 0.741698,-2.447215 0,0 0.370848,-1.681277 0.370848,-3.436625 0.02472,-6.798891 -4.994381,-11.595295 -4.994381,-11.595295 -0.890037,-0.84059 -4.895008,-4.474713 -11.051095,-4.499437 z m 0.04924,8.207921 c 3.95572,0 7.16974,3.214023 7.16974,7.169739 0,3.955718 -3.21402,7.169737 -7.16974,7.169737 -3.955717,0 -7.169737,-3.214019 -7.169737,-7.169737 0,-3.955716 3.21402,-7.169739 7.169737,-7.169739 z"
     sodipodi:nodetypes="scccccccccsssssss" />
</svg>
