<?xml version="1.0" encoding="UTF-8" standalone="no"?>
<svg
   viewbox="0 0 200 200"
   version="1.1"
   id="svg4"
   sodipodi:docname="text-richtext.svg"
   width="64"
   height="64"
   inkscape:version="1.1.1 (3bf5ae0d25, 2021-09-20, custom)"
   xmlns:inkscape="http://www.inkscape.org/namespaces/inkscape"
   xmlns:sodipodi="http://sodipodi.sourceforge.net/DTD/sodipodi-0.dtd"
   xmlns="http://www.w3.org/2000/svg"
   xmlns:svg="http://www.w3.org/2000/svg">
  <defs
     id="defs8" />
  <sodipodi:namedview
     id="namedview6"
     pagecolor="#ffffff"
     bordercolor="#666666"
     borderopacity="1.0"
     inkscape:pageshadow="2"
     inkscape:pageopacity="0.0"
     inkscape:pagecheckerboard="0"
     showgrid="false"
     inkscape:zoom="12.883333"
     inkscape:cx="31.979301"
     inkscape:cy="32.018111"
     inkscape:window-width="1920"
     inkscape:window-height="996"
     inkscape:window-x="0"
     inkscape:window-y="0"
     inkscape:window-maximized="1"
     inkscape:current-layer="svg4"
     showguides="true" />
  <path
     d="M 2,32 C 2,10.4 10.4,2 32,2 53.6,2 62,10.4 62,32 62,53.6 53.6,62 32,62 10.4,62 2,53.6 2,32"
     id="path2"
     style="stroke-width:0.3;fill:#f9f9f9;fill-opacity:1;stroke:none" />
  <path
     id="rect944"
     style="fill:#b3b3b3;stroke-width:4;stroke-linecap:round;stroke-linejoin:round"
     d="M 19.601562,15 13.333984,33.886719 11,34.158203 V 35 h 6.105469 V 34.158203 L 14.5,33.859375 l 1.791016,-5.5625 h 6.8125 l 1.818359,5.589844 -2.958984,0.271484 V 35 h 8.195312 V 34.158203 L 27.796875,33.941406 21.367188,15 Z M 33,15 v 2 h 20 v -2 z m -13.34375,2.740234 3.148438,9.689454 H 16.5625 Z M 33,23 v 2 h 20 v -2 z m 0,8 v 2 h 20 v -2 z m -22,8 v 2 h 42 v -2 z m 0,8 v 2 h 42 v -2 z"
     sodipodi:nodetypes="cccccccccccccccccccccccccccccccccccccccccccccc" />
</svg>
