<?xml version="1.0" encoding="UTF-8" standalone="no"?>
<svg
   viewbox="0 0 200 200"
   version="1.1"
   id="svg4"
   sodipodi:docname="text-x-python.svg"
   width="64"
   height="64"
   inkscape:version="1.1.1 (3bf5ae0d25, 2021-09-20, custom)"
   xmlns:inkscape="http://www.inkscape.org/namespaces/inkscape"
   xmlns:sodipodi="http://sodipodi.sourceforge.net/DTD/sodipodi-0.dtd"
   xmlns="http://www.w3.org/2000/svg"
   xmlns:svg="http://www.w3.org/2000/svg">
  <defs
     id="defs8" />
  <sodipodi:namedview
     id="namedview6"
     pagecolor="#ffffff"
     bordercolor="#666666"
     borderopacity="1.0"
     inkscape:pageshadow="2"
     inkscape:pageopacity="0.0"
     inkscape:pagecheckerboard="0"
     showgrid="false"
     inkscape:zoom="6.53125"
     inkscape:cx="30.62201"
     inkscape:cy="50.602871"
     inkscape:window-width="1920"
     inkscape:window-height="996"
     inkscape:window-x="0"
     inkscape:window-y="0"
     inkscape:window-maximized="1"
     inkscape:current-layer="svg4"
     showguides="true" />
  <path
     d="M 2,32 C 2,10.4 10.4,2 32,2 53.6,2 62,10.4 62,32 62,53.6 53.6,62 32,62 10.4,62 2,53.6 2,32"
     id="path2"
     style="stroke-width:0.3;fill:#f9f9f9;fill-opacity:1;stroke:none" />
  <path
     id="path17"
     style="fill:#347ab4;fill-opacity:1;stroke-width:0.342052"
     d="m 31.154797,12 c -4.547929,0 -8.209199,1.830636 -8.209199,4.1046 v 5.472799 h 8.209199 v 1.368199 H 16.104598 C 13.830637,22.945598 12,26.606868 12,31.154795 v 1.368199 c 0,4.547925 1.830637,8.209199 4.104598,8.209199 h 5.472803 v -4.104596 c 0,0 -4.1e-5,-5.472802 5.472797,-5.472802 h 10.945599 c 0,0 2.736395,2e-5 2.736395,-2.7364 V 16.1046 C 40.732192,13.830636 37.070921,12 32.522994,12 Z m -4.104599,2.7364 c 0.755627,0 1.368197,0.612572 1.368197,1.3682 0,0.755627 -0.61257,1.368199 -1.368197,1.368199 -0.75563,0 -1.368199,-0.612572 -1.368199,-1.368199 0,-0.755628 0.612569,-1.3682 1.368199,-1.3682 z" />
  <path
     id="path19"
     style="fill:#ffd43b;fill-opacity:1;stroke-width:0.342052"
     d="m 42.422604,23.267749 v 5.472798 c 0,4.104628 -4.104597,4.1046 -4.104597,4.1046 H 27.372408 c -4.104625,0 -4.1046,4.104602 -4.1046,4.104602 v 10.945592 c 0,2.273967 3.661271,4.104598 8.209199,4.104598 h 1.368198 c 4.547927,0 8.209198,-1.830631 8.209198,-4.104598 V 42.422543 H 32.845205 V 41.054346 H 47.895403 C 50.169371,41.054346 52,37.393072 52,32.845147 v -1.3682 c 0,-4.547926 -1.830629,-8.209198 -4.104597,-8.209198 z m -5.4728,21.891195 c 0.755629,0 1.368203,0.612567 1.368203,1.368201 0,0.755628 -0.612574,1.368196 -1.368203,1.368196 -0.755625,0 -1.368199,-0.612568 -1.368199,-1.368196 0,-0.755634 0.612574,-1.368201 1.368199,-1.368201 z" />
</svg>
