<?xml version="1.0" encoding="UTF-8" standalone="no"?>
<svg
   viewbox="0 0 200 200"
   version="1.1"
   id="svg4"
   sodipodi:docname="text-x-qml.svg"
   width="64"
   height="64"
   inkscape:version="1.1.1 (3bf5ae0d25, 2021-09-20, custom)"
   xmlns:inkscape="http://www.inkscape.org/namespaces/inkscape"
   xmlns:sodipodi="http://sodipodi.sourceforge.net/DTD/sodipodi-0.dtd"
   xmlns="http://www.w3.org/2000/svg"
   xmlns:svg="http://www.w3.org/2000/svg">
  <defs
     id="defs8" />
  <sodipodi:namedview
     id="namedview6"
     pagecolor="#ffffff"
     bordercolor="#666666"
     borderopacity="1.0"
     inkscape:pageshadow="2"
     inkscape:pageopacity="0.0"
     inkscape:pagecheckerboard="0"
     showgrid="false"
     inkscape:zoom="9.1098921"
     inkscape:cx="25.686363"
     inkscape:cy="31.998183"
     inkscape:window-width="1920"
     inkscape:window-height="996"
     inkscape:window-x="0"
     inkscape:window-y="0"
     inkscape:window-maximized="1"
     inkscape:current-layer="svg4"
     showguides="true" />
  <path
     d="M 2,32 C 2,10.4 10.4,2 32,2 53.6,2 62,10.4 62,32 62,53.6 53.6,62 32,62 10.4,62 2,53.6 2,32"
     id="path2"
     style="stroke-width:0.3;fill:#89d535;fill-opacity:1;stroke:none" />
  <path
     id="rect924"
     style="fill:#ffffff;stroke-width:2;stroke-linecap:round;stroke-linejoin:round"
     d="M 16 17 C 14.338 17 13 18.338 13 20 L 13 44 C 13 45.661999 14.338 47 16 47 L 48 47 C 49.662 47 51 45.661999 51 44 L 51 20 C 51 18.338 49.662 17 48 17 L 16 17 z M 38 19 L 40 19 L 40 21 L 38 21 L 38 19 z M 42 19 L 44 19 L 44 21 L 42 21 L 42 19 z M 46 19 L 48 19 L 48 21 L 46 21 L 46 19 z M 15 23 L 25 23 L 25 45 L 16 45 C 15.446 45 15 44.554 15 44 L 15 23 z M 27 23 L 49 23 L 49 44 C 49 44.554 48.554 45 48 45 L 27 45 L 27 23 z " />
</svg>
