<?xml version="1.0" encoding="UTF-8" standalone="no"?>
<svg
   viewbox="0 0 200 200"
   version="1.1"
   id="svg4"
   sodipodi:docname="text-x-go.svg"
   width="64"
   height="64"
   inkscape:version="1.1.1 (3bf5ae0d25, 2021-09-20, custom)"
   xmlns:inkscape="http://www.inkscape.org/namespaces/inkscape"
   xmlns:sodipodi="http://sodipodi.sourceforge.net/DTD/sodipodi-0.dtd"
   xmlns="http://www.w3.org/2000/svg"
   xmlns:svg="http://www.w3.org/2000/svg">
  <defs
     id="defs8" />
  <sodipodi:namedview
     id="namedview6"
     pagecolor="#ffffff"
     bordercolor="#666666"
     borderopacity="1.0"
     inkscape:pageshadow="2"
     inkscape:pageopacity="0.0"
     inkscape:pagecheckerboard="0"
     showgrid="false"
     inkscape:zoom="6.53125"
     inkscape:cx="43.023923"
     inkscape:cy="32.995215"
     inkscape:window-width="1920"
     inkscape:window-height="996"
     inkscape:window-x="0"
     inkscape:window-y="0"
     inkscape:window-maximized="1"
     inkscape:current-layer="svg4"
     showguides="true" />
  <path
     d="M 2,32 C 2,10.4 10.4,2 32,2 53.6,2 62,10.4 62,32 62,53.6 53.6,62 32,62 10.4,62 2,53.6 2,32"
     id="path2"
     style="stroke-width:0.3;fill:#f9f9f9;fill-opacity:1;stroke:none" />
  <path
     id="path17-3"
     style="fill:#31c6b7;stroke-width:0.278385"
     d="m 23.41681,21 c -0.715272,-1.22e-4 -1.440921,0.0706 -2.176904,0.203701 -3.201443,0.584611 -5.818099,2.228666 -7.794643,4.817658 -1.837349,2.394122 -2.72778,5.121004 -2.36588,8.155413 0.306224,2.56115 1.474037,4.620794 3.534094,6.179758 2.227091,1.670314 4.759677,2.200125 7.487864,1.83822 3.312795,-0.445406 5.93015,-2.087091 7.934532,-4.731764 0.454371,-0.598941 0.845118,-1.229909 1.170669,-1.887304 0.469182,1.694926 1.412664,3.152014 2.783099,4.336631 1.948704,1.670316 4.259998,2.393644 6.79331,2.449325 0.723808,-0.08349 1.474346,-0.111115 2.225996,-0.250343 2.588986,-0.528931 4.843068,-1.698356 6.680416,-3.563549 2.588996,-2.616831 3.676039,-5.678306 3.202769,-9.43652 -0.3619,-2.672497 -1.725067,-4.70591 -3.924313,-6.209196 -2.421965,-1.642479 -5.094994,-1.919642 -7.934535,-1.418546 -3.312796,0.584611 -5.762417,1.975806 -7.794638,4.648314 -0.871083,1.140094 -1.524237,2.344794 -1.926572,3.619995 h -8.957947 c -0.417581,0 -0.613485,0.277183 -0.697003,0.444215 -0.38974,0.723804 -1.059097,2.170433 -1.421,3.03343 -0.194872,0.473257 -0.0545,0.836893 0.530115,0.836894 h 5.372313 c -0.278386,0.38974 -0.500448,0.722098 -0.750995,1.028323 -1.252737,1.419769 -2.838733,2.088762 -4.73176,1.838218 -2.19925,-0.306223 -3.732052,-2.143895 -3.759882,-4.370985 -0.02784,-2.254929 0.946518,-4.063972 2.839546,-5.28887 1.586802,-1.03003 3.284705,-1.280219 5.038539,-0.417219 0.58461,0.278383 0.892981,0.584516 1.310559,1.057774 0.3619,0.41758 0.38741,0.388679 0.804988,0.277328 1.725995,-0.445415 2.923934,-0.779243 4.677767,-1.224661 0.33406,-0.08353 0.446817,-0.223119 0.279784,-0.473665 C 31.151131,24.87793 30.092774,23.542607 28.617327,22.568254 26.996598,21.467759 25.244722,21.000313 23.41681,21 Z m 19.452239,5.362497 c 2.162513,0.03571 4.031612,1.508116 4.454432,3.83351 0.05546,0.278383 0.05542,0.555981 0.08343,0.917884 -0.139224,2.394121 -1.334842,4.176939 -3.534094,5.31832 -1.475447,0.751644 -3.006749,0.835016 -4.537868,0.166911 -2.00437,-0.89086 -3.063302,-3.090484 -2.562207,-5.261897 0.612449,-2.616829 2.282655,-4.260042 4.871648,-4.844654 0.413238,-0.0957 0.824198,-0.136689 1.224662,-0.130077 z" />
</svg>
