<?xml version="1.0" encoding="UTF-8" standalone="no"?>
<svg
   viewbox="0 0 200 200"
   version="1.1"
   id="svg4"
   sodipodi:docname="text-wiki.svg"
   width="64"
   height="64"
   inkscape:version="1.1.1 (3bf5ae0d25, 2021-09-20, custom)"
   xmlns:inkscape="http://www.inkscape.org/namespaces/inkscape"
   xmlns:sodipodi="http://sodipodi.sourceforge.net/DTD/sodipodi-0.dtd"
   xmlns="http://www.w3.org/2000/svg"
   xmlns:svg="http://www.w3.org/2000/svg">
  <defs
     id="defs8" />
  <sodipodi:namedview
     id="namedview6"
     pagecolor="#ffffff"
     bordercolor="#666666"
     borderopacity="1.0"
     inkscape:pageshadow="2"
     inkscape:pageopacity="0.0"
     inkscape:pagecheckerboard="0"
     showgrid="false"
     inkscape:zoom="6.53125"
     inkscape:cx="15.004785"
     inkscape:cy="23.349282"
     inkscape:window-width="1920"
     inkscape:window-height="996"
     inkscape:window-x="0"
     inkscape:window-y="0"
     inkscape:window-maximized="1"
     inkscape:current-layer="svg4"
     showguides="false" />
  <path
     d="M 2,32 C 2,10.4 10.4,2 32,2 53.6,2 62,10.4 62,32 62,53.6 53.6,62 32,62 10.4,62 2,53.6 2,32"
     id="path2"
     style="stroke-width:0.3;fill:#f9f9f9;fill-opacity:1;stroke:none" />
  <path
     id="path11711"
     style="fill:#b3b3b3;fill-opacity:1;stroke-width:0.969703"
     d="m 43,22 c -3.313708,0 -6,2.686292 -6,6 0,3.313708 2.686292,6 6,6 3.313708,0 6,-2.686292 6,-6 0,-3.313708 -2.686292,-6 -6,-6 z m 0,15 C 36.372583,37 31,42.372583 31,49 H 55 C 55,42.372583 49.627417,37 43,37 Z" />
  <path
     id="path11711-3"
     style="fill:#949494;fill-opacity:1;stroke-width:1.34423"
     d="m 26,14 c -4.593548,0 -8.316406,3.722858 -8.316406,8.316406 -1e-6,4.593548 3.722858,8.31836 8.316406,8.31836 4.593548,0 8.318359,-3.724812 8.318359,-8.31836 C 34.318359,17.722858 30.593548,14 26,14 Z m 0,20 C 17.715729,34 11,40.715729 11,49 H 41 C 41,40.715729 34.284271,34 26,34 Z"
     sodipodi:nodetypes="ssssssccs" />
</svg>
