<?xml version="1.0" encoding="UTF-8" standalone="no"?>
<svg
   viewbox="0 0 200 200"
   version="1.1"
   id="svg4"
   sodipodi:docname="text-x-chdr.svg"
   width="64"
   height="64"
   inkscape:version="1.1.1 (3bf5ae0d25, 2021-09-20, custom)"
   xmlns:inkscape="http://www.inkscape.org/namespaces/inkscape"
   xmlns:sodipodi="http://sodipodi.sourceforge.net/DTD/sodipodi-0.dtd"
   xmlns="http://www.w3.org/2000/svg"
   xmlns:svg="http://www.w3.org/2000/svg">
  <defs
     id="defs8" />
  <sodipodi:namedview
     id="namedview6"
     pagecolor="#ffffff"
     bordercolor="#666666"
     borderopacity="1.0"
     inkscape:pageshadow="2"
     inkscape:pageopacity="0.0"
     inkscape:pagecheckerboard="0"
     showgrid="false"
     inkscape:zoom="6.53125"
     inkscape:cx="43.023923"
     inkscape:cy="32.995215"
     inkscape:window-width="1920"
     inkscape:window-height="996"
     inkscape:window-x="0"
     inkscape:window-y="0"
     inkscape:window-maximized="1"
     inkscape:current-layer="svg4"
     showguides="true" />
  <path
     d="M 2,32 C 2,10.4 10.4,2 32,2 53.6,2 62,10.4 62,32 62,53.6 53.6,62 32,62 10.4,62 2,53.6 2,32"
     id="path2"
     style="stroke-width:0.3;fill:#f9f9f9;fill-opacity:1;stroke:none" />
  <path
     id="rect4930"
     style="fill:#b55c7f;stroke-width:4;stroke-linecap:round;stroke-linejoin:round;fill-opacity:1"
     d="M 22 13 L 22 51 L 26.113281 51 L 26.113281 31.800781 C 28.001876 30.125957 30.293929 29.300781 32.695312 29.300781 C 36.706136 29.300781 38.917969 31.563397 38.917969 35.574219 L 38.917969 51 L 43.03125 51 L 43.03125 34.751953 C 43.03125 29.249928 39.379618 25.701172 33.826172 25.701172 C 31.098208 25.701172 28.401641 26.590107 26.113281 28.339844 L 26.113281 13 L 22 13 z " />
</svg>
