<?xml version="1.0" encoding="UTF-8" standalone="no"?>
<svg
   viewbox="0 0 200 200"
   version="1.1"
   id="svg4"
   sodipodi:docname="text-xml.svg"
   width="64"
   height="64"
   inkscape:version="1.1.1 (3bf5ae0d25, 2021-09-20, custom)"
   xmlns:inkscape="http://www.inkscape.org/namespaces/inkscape"
   xmlns:sodipodi="http://sodipodi.sourceforge.net/DTD/sodipodi-0.dtd"
   xmlns="http://www.w3.org/2000/svg"
   xmlns:svg="http://www.w3.org/2000/svg">
  <defs
     id="defs8" />
  <sodipodi:namedview
     id="namedview6"
     pagecolor="#ffffff"
     bordercolor="#666666"
     borderopacity="1.0"
     inkscape:pageshadow="2"
     inkscape:pageopacity="0.0"
     inkscape:pagecheckerboard="0"
     showgrid="false"
     inkscape:zoom="6.53125"
     inkscape:cx="55.578947"
     inkscape:cy="32.995215"
     inkscape:window-width="1920"
     inkscape:window-height="996"
     inkscape:window-x="0"
     inkscape:window-y="0"
     inkscape:window-maximized="1"
     inkscape:current-layer="svg4"
     showguides="true" />
  <path
     d="M 2,32 C 2,10.4 10.4,2 32,2 53.6,2 62,10.4 62,32 62,53.6 53.6,62 32,62 10.4,62 2,53.6 2,32"
     id="path2"
     style="stroke-width:0.3;fill:#3459b5;fill-opacity:1;stroke:none" />
  <path
     id="path21666"
     style="font-size:40px;line-height:1.25;font-family:Cantarell;-inkscape-font-specification:Cantarell;stroke-width:0.568182;fill:#ffffff"
     d="M 10.455078 24 L 15.576172 31.585938 L 10 39.773438 L 12.136719 39.773438 L 16.556641 33.044922 L 21.068359 39.773438 L 23.318359 39.773438 L 17.591797 31.496094 L 22.726562 24 L 20.591797 24 L 16.617188 30.025391 L 12.705078 24 L 10.455078 24 z M 25.523438 24 L 25.523438 39.773438 L 27.318359 39.773438 L 27.318359 27.388672 L 32.431641 37.318359 L 33.908203 37.318359 L 39.068359 27.173828 L 39.068359 39.773438 L 40.863281 39.773438 L 40.863281 24 L 39 24 L 33.226562 35.296875 L 27.455078 24 L 25.523438 24 z M 45.044922 24 L 45.044922 39.773438 L 54 39.773438 L 54 38.091797 L 46.931641 38.091797 L 46.931641 24 L 45.044922 24 z " />
</svg>
