<?xml version="1.0" encoding="UTF-8" standalone="no"?>
<svg
   viewbox="0 0 200 200"
   version="1.1"
   id="svg4"
   sodipodi:docname="text--x-cpp.svg"
   width="64"
   height="64"
   inkscape:version="1.1.1 (3bf5ae0d25, 2021-09-20, custom)"
   xmlns:inkscape="http://www.inkscape.org/namespaces/inkscape"
   xmlns:sodipodi="http://sodipodi.sourceforge.net/DTD/sodipodi-0.dtd"
   xmlns="http://www.w3.org/2000/svg"
   xmlns:svg="http://www.w3.org/2000/svg">
  <defs
     id="defs8" />
  <sodipodi:namedview
     id="namedview6"
     pagecolor="#ffffff"
     bordercolor="#666666"
     borderopacity="1.0"
     inkscape:pageshadow="2"
     inkscape:pageopacity="0.0"
     inkscape:pagecheckerboard="0"
     showgrid="false"
     inkscape:zoom="6.53125"
     inkscape:cx="43.023923"
     inkscape:cy="32.995215"
     inkscape:window-width="1920"
     inkscape:window-height="996"
     inkscape:window-x="0"
     inkscape:window-y="0"
     inkscape:window-maximized="1"
     inkscape:current-layer="svg4"
     showguides="true" />
  <path
     d="M 2,32 C 2,10.4 10.4,2 32,2 53.6,2 62,10.4 62,32 62,53.6 53.6,62 32,62 10.4,62 2,53.6 2,32"
     id="path2"
     style="stroke-width:0.3;fill:#f9f9f9;fill-opacity:1;stroke:none" />
  <path
     id="rect15998"
     style="fill:#50a9d2;fill-opacity:1;stroke-width:4;stroke-linecap:round;stroke-linejoin:round"
     d="M 19.132812 22 C 13.047904 22 9 26.13292 9 32.302734 C 9 38.217831 12.877796 42.179688 18.679688 42.179688 C 20.575914 42.179688 22.555903 41.754349 24.423828 40.933594 L 23.886719 39.207031 C 22.471624 39.773069 20.716797 40.113281 19.216797 40.113281 C 14.518681 40.113281 11.40625 36.773108 11.40625 31.763672 C 11.40625 26.980651 14.263817 24.066406 18.990234 24.066406 C 20.575141 24.066406 22.359375 24.406618 23.859375 24.972656 L 24.537109 23.216797 C 23.093712 22.452646 21.057341 22 19.132812 22 z M 32.859375 25.792969 L 32.859375 31.396484 L 27.283203 31.396484 L 27.283203 33.490234 L 32.859375 33.490234 L 32.859375 39.09375 L 35.009766 39.09375 L 35.009766 33.490234 L 40.583984 33.490234 L 40.583984 31.396484 L 35.009766 31.396484 L 35.009766 25.792969 L 32.859375 25.792969 z M 49.273438 25.792969 L 49.273438 31.396484 L 43.697266 31.396484 L 43.697266 33.490234 L 49.273438 33.490234 L 49.273438 39.09375 L 51.423828 39.09375 L 51.423828 33.490234 L 57 33.490234 L 57 31.396484 L 51.423828 31.396484 L 51.423828 25.792969 L 49.273438 25.792969 z " />
</svg>
