<?xml version="1.0" encoding="UTF-8" standalone="no"?>
<svg
   viewbox="0 0 200 200"
   version="1.1"
   id="svg4"
   sodipodi:docname="gnome-mime-application-vnd.oasis.opendocument.graphics.svg"
   width="64"
   height="64"
   inkscape:version="1.1.1 (3bf5ae0d25, 2021-09-20, custom)"
   xmlns:inkscape="http://www.inkscape.org/namespaces/inkscape"
   xmlns:sodipodi="http://sodipodi.sourceforge.net/DTD/sodipodi-0.dtd"
   xmlns="http://www.w3.org/2000/svg"
   xmlns:svg="http://www.w3.org/2000/svg">
  <defs
     id="defs8" />
  <sodipodi:namedview
     id="namedview6"
     pagecolor="#ffffff"
     bordercolor="#666666"
     borderopacity="1.0"
     inkscape:pageshadow="2"
     inkscape:pageopacity="0.0"
     inkscape:pagecheckerboard="0"
     showgrid="false"
     inkscape:zoom="12.078125"
     inkscape:cx="31.958603"
     inkscape:cy="32"
     inkscape:window-width="1920"
     inkscape:window-height="996"
     inkscape:window-x="0"
     inkscape:window-y="0"
     inkscape:window-maximized="1"
     inkscape:current-layer="svg4"
     showguides="true" />
  <path
     d="M 2,32 C 2,10.4 10.4,2 32,2 53.6,2 62,10.4 62,32 62,53.6 53.6,62 32,62 10.4,62 2,53.6 2,32"
     id="path2"
     style="stroke-width:0.3;fill:#f9c224;fill-opacity:1;stroke:none" />
  <circle
     style="opacity:1;fill:#ffffff;stroke-width:2;stroke-linecap:round;stroke-linejoin:round"
     id="path843"
     cx="24"
     cy="27"
     r="12" />
  <rect
     style="opacity:1;fill:#fdf1ce;fill-opacity:1;stroke-width:2;stroke-linecap:round;stroke-linejoin:round"
     id="rect1079"
     width="22"
     height="22"
     x="30"
     y="20"
     ry="3" />
  <path
     id="path6249"
     style="color:#000000;fill:#f58203;stroke:none;stroke-width:4.00017;stroke-linecap:round;stroke-linejoin:round;-inkscape-stroke:none"
     d="m 33,25 a 2.0003749,2.0002 0 0 0 -1.752106,1.037109 l -11.000962,20 A 2.0003749,2.0002 0 0 0 21.999038,49 h 22.001924 a 2.0003749,2.0002 0 0 0 1.752106,-2.962891 l -11.000962,-20 A 2.0003749,2.0002 0 0 0 33,25 Z" />
</svg>
