<?xml version="1.0" encoding="UTF-8" standalone="no"?>
<svg
   viewbox="0 0 200 200"
   version="1.1"
   id="svg4"
   sodipodi:docname="x-office-address-book.svg"
   width="64"
   height="64"
   inkscape:version="1.1.1 (3bf5ae0d25, 2021-09-20, custom)"
   xmlns:inkscape="http://www.inkscape.org/namespaces/inkscape"
   xmlns:sodipodi="http://sodipodi.sourceforge.net/DTD/sodipodi-0.dtd"
   xmlns="http://www.w3.org/2000/svg"
   xmlns:svg="http://www.w3.org/2000/svg">
  <defs
     id="defs8" />
  <sodipodi:namedview
     id="namedview6"
     pagecolor="#ffffff"
     bordercolor="#666666"
     borderopacity="1.0"
     inkscape:pageshadow="2"
     inkscape:pageopacity="0.0"
     inkscape:pagecheckerboard="0"
     showgrid="false"
     inkscape:zoom="5.6568542"
     inkscape:cx="33.410796"
     inkscape:cy="49.585863"
     inkscape:window-width="1920"
     inkscape:window-height="996"
     inkscape:window-x="0"
     inkscape:window-y="0"
     inkscape:window-maximized="1"
     inkscape:current-layer="svg4"
     showguides="true" />
  <path
     d="M 2,32 C 2,10.4 10.4,2 32,2 53.6,2 62,10.4 62,32 62,53.6 53.6,62 32,62 10.4,62 2,53.6 2,32"
     id="path2"
     style="stroke-width:0.3;fill:#ff7b22;fill-opacity:1" />
  <path
     id="path11711"
     style="fill:#ffffff;fill-opacity:1;stroke-width:1.41414"
     d="m 31.937136,12 a 8.75,8.75 0 0 0 -8.75,8.75 8.75,8.75 0 0 0 8.75,8.75 8.75,8.75 0 0 0 8.75,-8.75 8.75,8.75 0 0 0 -8.75,-8.75 z m 0,21.25 A 17.5,17.5 0 0 0 15.172,45.75 v 0.15625 A 26.25,26.25 0 0 0 31.937136,52 26.25,26.25 0 0 0 48.83655,45.806152 V 45.75 H 48.704714 A 17.5,17.5 0 0 0 31.937136,33.25 Z" />
</svg>
