<svg xmlns="http://www.w3.org/2000/svg" viewBox="0 0 16 16">
  <defs id="defs3051">
    <style type="text/css" id="current-color-scheme">
      .ColorScheme-Text {
        color:#4d4d4d;
      }
      </style>
  </defs>
    <path 
        style="fill:currentColor;fill-opacity:1;stroke:none" 
        d="M 7.5 2 A 4.5 4.5 0 0 0 3 6.5 A 4.5 4.5 0 0 0 3.0527344 7.15625 A 3 3 0 0 0 1 10 A 3 3 0 0 0 4 13 L 11.5 13 A 3.5 3.5 0 0 0 15 9.5 A 3.5 3.5 0 0 0 11.970703 6.0351562 A 4.5 4.5 0 0 0 7.5 2 z M 7.5 3 A 3.5 3.5 0 0 1 11 6.5 A 3.5 3.5 0 0 1 10.949219 7.0644531 A 2.5 2.5 0 0 1 11.5 7 A 2.5 2.5 0 0 1 14 9.5 A 2.5 2.5 0 0 1 11.5 12 L 4 12 A 2 2 0 0 1 2 10 A 2 2 0 0 1 4 8 A 2 2 0 0 1 4.3574219 8.0332031 A 3.5 3.5 0 0 1 4 6.5 A 3.5 3.5 0 0 1 7.5 3 z " 
        id="path4139" 
        class="ColorScheme-Text"/>
</svg>
