<svg xmlns="http://www.w3.org/2000/svg" viewBox="0 0 16 16">
  <defs id="defs3051">
    <style type="text/css" id="current-color-scheme">
      .ColorScheme-Text {
        color:#4d4d4d;
      }
      </style>
  </defs>
    <path 
        style="fill:currentColor;fill-opacity:1;stroke:none" 
        d="m 2,2 0,3 0,1 0,1 0,3 0,1 0,3 12,0 0,-3 0,-1 0,-3 0,-1 0,-1 0,-3 z m 9,1 2,0 0,1.001 -2,0 z M 3,6 13,6 13,7 3,7 Z m 8,2 2,0 0,1 -2,0 z m -8,2 10,0 0,1 -10,0 z m 8,2 2,0 0,1 -2,0 z" id="rect4188" 
        class="ColorScheme-Text"/>
</svg>
