<svg width="16" height="16" version="1.1" viewBox="0 0 16 16" xmlns="http://www.w3.org/2000/svg">
 <style/>
 <g id="layercompo">
  <path d="m10.776 2.9616a5.038 5.038 0 0 0-2.7762 0.83717 5.038 5.038 0 0 1 2.2632 4.2023 5.038 5.038 0 0 1-2.2612 4.2002 5.038 5.038 0 0 0 2.7742 0.83717 5.038 5.038 0 0 0 5.0374-5.0374 5.038 5.038 0 0 0-5.0374-5.0394zm-5.5524 0a5.038 5.038 0 0 0-5.0374 5.0394 5.038 5.038 0 0 0 5.0374 5.0374 5.038 5.038 0 0 0 2.7783-0.83717 5.038 5.038 0 0 1-0.069764-0.04309 5.038 5.038 0 0 1-0.40217-0.30368 5.038 5.038 0 0 1-0.36729-0.34472 5.038 5.038 0 0 1-0.33241-0.37755 5.038 5.038 0 0 1-0.29342-0.41038 5.038 5.038 0 0 1-0.25033-0.43705 5.038 5.038 0 0 1-0.20519-0.45962 5.038 5.038 0 0 1-0.16005-0.47809 5.038 5.038 0 0 1-0.1108-0.4904 5.038 5.038 0 0 1-0.059505-0.50066 5.038 5.038 0 0 1-0.012311-0.35498 5.038 5.038 0 0 1 0.024623-0.50271 5.038 5.038 0 0 1 0.07592-0.49861 5.038 5.038 0 0 1 0.12311-0.48835 5.038 5.038 0 0 1 0.17236-0.47193 5.038 5.038 0 0 1 0.21955-0.45347 5.038 5.038 0 0 1 0.26264-0.4309 5.038 5.038 0 0 1 0.30573-0.40012 5.038 5.038 0 0 1 0.34267-0.36934 5.038 5.038 0 0 1 0.3796-0.33241 5.038 5.038 0 0 1 0.35498-0.25443 5.038 5.038 0 0 0-2.7762-0.83717z" fill="#363636"/>
 </g>
</svg>
