<svg width="16" height="16" version="1.1" xmlns="http://www.w3.org/2000/svg" xmlns:xlink="http://www.w3.org/1999/xlink">
 <g transform="matrix(1 0 0 -1 0 16)">
  <g id="boundingbox_bottom_left">
   <path d="m4.5 1a0.50005 0.50005 0 0 0-0.5 0.5v5.6484a0.50005 0.50005 0 0 0 0.64453 0.47852c0.27743-0.083482 0.56576-0.12606 0.85547-0.12695 0.29029 1.631e-4 0.57929 0.041898 0.85742 0.125a0.50005 0.50005 0 0 0 0.64258-0.47852v-5.6465a0.50005 0.50005 0 0 0-0.5-0.5zm0.5 1h1v4.5742c-0.1676-0.021471-0.33059-0.074124-0.5-0.074219a0.50005 0.50005 0 0 0-0.00195 0c-0.16877 4.105e-4 -0.33111 0.052597-0.49805 0.074219zm3.8535 7a0.50005 0.50005 0 0 0-0.47852 0.64258c0.083102 0.27814 0.12484 0.56714 0.125 0.85742-8.922e-4 0.28971-0.043471 0.57804-0.12695 0.85547a0.50005 0.50005 0 0 0 0.47852 0.64453h5.6484a0.50005 0.50005 0 0 0 0.5-0.5v-2a0.50005 0.50005 0 0 0-0.5-0.5zm0.57227 1h4.5742v1h-4.5742c0.021622-0.16694 0.073808-0.32928 0.074219-0.49805a0.50005 0.50005 0 0 0 0-2e-3c-9.52e-5 -0.16941-0.052748-0.3324-0.074219-0.5z" fill="#363636"/>
  </g>
  <path d="m5.5 6a4.5 4.5 0 0 0-4.5 4.5 4.5 4.5 0 0 0 4.5 4.5 4.5 4.5 0 0 0 4.5-4.5 4.5 4.5 0 0 0-4.5-4.5zm0 2a2.5 2.5 0 0 1 2.5 2.5 2.5 2.5 0 0 1-2.5 2.5 2.5 2.5 0 0 1-2.5-2.5 2.5 2.5 0 0 1 2.5-2.5z" fill="#61a1ff"/>
 </g>
</svg>
