<svg xmlns="http://www.w3.org/2000/svg" viewBox="0 0 16 16">
  <defs id="defs3051">
    <style type="text/css" id="current-color-scheme">
      .ColorScheme-Text {
        color:#363636;
      }
      </style>
  </defs>
 <path style="fill:currentColor;fill-opacity:1;stroke:none" 
     d="M 6.5 3 C 4.014748 3 2 5.0147171 2 7.5 L 2 8 L 2 9 L 3 9 L 3 8 L 3 7.5 C 3 5.5670021 4.566998 4 6.5 4 C 8.4330016 4 10 5.5670021 10 7.5 L 10 8 L 10 8.8125 L 10 10 L 10 11.09375 L 7.71875 8.78125 L 7 9.5 L 10.28125 12.78125 L 10.5 13 L 10.71875 12.78125 L 14 9.5 L 13.28125 8.78125 L 11 11.09375 L 11 10 L 11 8.8125 L 11 8 L 11 7.5 C 11 5.0147171 8.9852521 3 6.5 3 z "
     class="ColorScheme-Text"
     />
</svg>
