<svg version="1.1" viewBox="0 0 16 16" xmlns="http://www.w3.org/2000/svg">
 <defs>
  <style id="current-color-scheme" type="text/css">.ColorScheme-Text {
        color:#363636;
      }</style>
 </defs>
 <path d="m4 3c-1.0907 0-2 0.9093-2 2v5c0 1.0907 0.9093 2 2 2h0.25586l2.7441 1.9199v-1.9199h5c1.0907 0 2-0.9093 2-2v-5c0-1.0907-0.9093-2-2-2h-8zm0 1h8c0.554 0 1 0.446 1 1v5c0 0.554-0.446 1-1 1h-6v1l-1.4297-1h-0.57031c-0.554 0-1-0.446-1-1v-5c0-0.554 0.446-1 1-1z" class="ColorScheme-Text" fill="currentColor"/>
</svg>
