<svg version="1.1" viewBox="0 0 16 16" xmlns="http://www.w3.org/2000/svg">
 <defs>
  <style id="current-color-scheme" type="text/css">.ColorScheme-Text {
        color:#363636;
      }</style>
 </defs>
 <path class="ColorScheme-Text" d="m11.5 9c-0.82843 0-1.5 0.67157-1.5 1.5v1.5h-1v3h5v-3h-1v-1.5c0-0.82843-0.67157-1.5-1.5-1.5zm0 1c0.27614 0 0.5 0.22386 0.5 0.5v1.5h-1v-1.5c0-0.27614 0.22386-0.5 0.5-0.5z" fill="currentColor"/>
 <path d="m4 1c-1.108 0-2 0.892-2 2v10c0 1.108 0.892 2 2 2h4v-1h-4c-0.554 0-1-0.446-1-1v-10c0-0.554 0.446-1 1-1h4v5h5v1h1v-2l-5-5h-1zm5 1.4141 3.5859 3.5859h-3.5859z" class="ColorScheme-Text" fill="currentColor"/>
</svg>
