<svg xmlns="http://www.w3.org/2000/svg" viewBox="0 0 16 16">
  <defs id="defs3051">
    <style type="text/css" id="current-color-scheme">
      .ColorScheme-Text {
        color:#363636;
      }
      </style>
  </defs>
 <path style="fill:currentColor;fill-opacity:1;stroke:none" 
     d="m5 2v2a1 1 0 0 1 -1 1h-2v6h2a1 1 0 0 1 1 1v2h6v-2a1 1 0 0 1 1 -1h2v-6h-2a1 1 0 0 1 -1 -1v-2zm1 1h4v1a2 2 0 0 0 2 2h1v4h-1a2 2 0 0 0 -2 2v1h-4v-1a2 2 0 0 0 -2 -2h-1v-4h1a2 2 0 0 0 2 -2z"
     class="ColorScheme-Text"
     />
</svg>
