<svg width="16" height="16" version="1.1" viewBox="0 0 16 16" xmlns="http://www.w3.org/2000/svg">
 <style/>
 <g id="layercompo">
  <path d="m0 0h16v16h-16z" opacity="0"/>
  <path d="m8 1.6348 0.27344 10.053 1.1582 0.57617-1.3398-10.451zm-0.47852 0.67188-0.16016 0.34375-0.71289 9.8027 1.1309-0.62891zm1.2402 0.78711 1.209 9.4395 1.3262 0.66016-2.1484-9.3594zm-1.9941 0.83008-0.45508 0.97656-1.4707 8.5547 1.2852-0.71289zm3.2656 1.5352 1.8418 8.0215 0.29492 0.14648-0.86133-4.416 0.31641-0.32227-1.1191-3.3711zm1.0234 0.125 0.96289 2.9023 0.52344-0.53516-1.0039-2.3066zm-5.3691 0.015625-0.45703 0.076172-0.86719 3.2109 0.40198 0.29662-0.76527 4.8167 0.28516-0.23438zm6.4277 0.11523 0.80664 1.8516 0.41992-0.42773-0.73633-1.3652zm-7.4258 0.052734-0.45898 0.078125-0.79883 2.1719 0.51758 0.48438zm8.5254 0.080078 0.49414 0.91602 0.33203-0.33984-0.33008-0.51562zm-9.5566 0.09375-0.45898 0.076172-0.57812 1.2461 0.41016 0.38281zm10.699 0.046875 0.04297 0.068359 0.056639-0.05664zm-11.756 0.13086-0.45508 0.076172-0.23047 0.41016 0.32031 0.29883z" fill="#363636"/>
 </g>
</svg>
