<svg width="16" height="16" version="1.1" viewBox="0 0 16 16" xmlns="http://www.w3.org/2000/svg">
 <g id="layercompo">
  <path d="m0 0h16v16h-16z" opacity="0"/>
  <path d="m12.554 0.44327c-0.39589 0-0.72165 0.32717-0.72165 0.72307 0 0.3959 0.32575 0.72167 0.72165 0.72167 0.3959 0 0.72307-0.32578 0.72307-0.72167 0-0.39589-0.32717-0.72307-0.72307-0.72307zm-6.8358 0.76774c-0.39589 0-0.72167 0.32527-0.72167 0.72119 0 0.39587 0.32578 0.72353 0.72167 0.72353s0.72307-0.32766 0.72307-0.72353c0-0.3959-0.32717-0.72119-0.72307-0.72119zm4.2303 0.61776c-1.4091 0.0678-2.5841 0.87392-3.6464 1.7451-0.92613 0.75959-1.7806 1.5735-2.6055 2.0484h-0.59473c-0.26253 0-0.48141 0.21935-0.48141 0.48188v1.4852c0 0.11578 0.044603 0.22176 0.1147 0.30557-0.010764 0.024555-0.019779 0.047927-0.031027 0.072845-0.33601 0.74379-0.74523 1.5499-0.88667 2.3582-0.14624 0.77145-0.076263 1.4858 0.18475 2.2421a0.24073 0.24073 0 0 0 0.00269 0.0036c0.33653 0.9267 1.0488 1.5608 1.2064 2.1607a0.24073 0.24073 0 0 0 0.2487 0.17771c1.6784-0.11571 4.3907-0.10503 5.958-0.09402a0.24073 0.24073 0 0 0 0.0027 0c0.62358 0 1.16-0.0094 1.7856-0.02312 0.70026-0.0113 1.421-0.0027 2.1608 0.03525a0.24073 0.24073 0 0 0 0.22048-0.36248c-0.56479-0.96335-0.93024-1.6225-1.1283-2.2496a0.24073 0.24073 0 0 0 0-0.0054c-0.20719-0.6184-0.30366-1.2806-0.25953-2.0366v-0.0027c4.4e-5 0-2.7e-5 0 0-0.0027 0.04856-0.69749 0.22022-1.5984 0.51529-2.4254 0.06196-0.17379 0.13214-0.34096 0.20544-0.50493h1.2125c0.26254 0 0.48142-0.21888 0.48142-0.48142v-1.4851c0-0.26256-0.21888-0.4819-0.48142-0.4819h-0.5148c-0.29658-0.53919-0.63215-1.1666-1.1076-1.7395a0.24073 0.24073 0 0 0-0.0027-0.00538 0.24073 0.24073 0 0 0-0.03193-0.051264 0.24073 0.24073 0 0 0-0.0036-0.00363 0.24073 0.24073 0 0 0-0.0036-0.00363c-0.64882-0.74526-1.554-1.2015-2.518-1.1603a0.24073 0.24073 0 0 0-0.0027 0zm0.021673 0.48048c0.79802-0.034082 1.5649 0.34342 2.1321 0.99293a0.24073 0.24073 0 0 0 0.0027 0.00269l0.0027 0.00269c0.39733 0.46424 0.68888 0.98859 0.96048 1.487h-0.39351c-0.26253 0-0.48142 0.21935-0.48142 0.4819v1.4851c0 0.17334 0.09604 0.32651 0.23649 0.41138-0.05989 0.13455-0.11684 0.27154-0.16737 0.41324-0.31261 0.87631-0.49177 1.81-0.54349 2.5571a0.24073 0.24073 0 0 0 0 0.0027c-0.04811 0.8152 0.05755 1.5454 0.28396 2.2209 0.18537 0.58541 0.55644 1.2313 0.98636 1.9779-0.6076-0.02266-1.2119-0.03804-1.7912-0.02869-0.62563 0.01348-1.1581 0.02266-1.7767 0.02168-1.5306-0.01076-4.125-0.0152-5.8442 0.09402-0.26914-0.72545-0.85985-1.3119-1.118-2.0188-0.2404-0.6965-0.29896-1.3036-0.16691-1.9971a0.24073 0.24073 0 0 0 0-0.0036c0.12292-0.70256 0.51085-1.4852 0.85284-2.2421 0.014652-0.032279 0.026345-0.063844 0.039921-0.095921h1.378c0.26254 0 0.48142-0.21934 0.48142-0.48188v-1.4852c0-0.26252-0.21889-0.48188-0.48142-0.48188h-0.018258c0.69058-0.48773 1.364-1.1018 2.0653-1.677 1.0388-0.85204 2.1254-1.5764 3.3619-1.6365zm2.7028 2.9656h1.4589v1.4852h-1.4589zm-9.5705 0.82977h1.4588v1.4852h-1.4588z" fill="#363636"/>
  <path d="m12.753 1.5786a0.24474 0.24474 0 0 0-0.02536 0.00269 0.24474 0.24474 0 0 0-0.04685 0.011033 0.24474 0.24474 0 0 0-0.04343 0.021488 0.24474 0.24474 0 0 0-0.02149 0.014383 0.24474 0.24474 0 0 0-0.03633 0.032548 0.24474 0.24474 0 0 0-0.0268 0.039652 0.24474 0.24474 0 0 0-0.01292 0.022039 0.24474 0.24474 0 0 0-0.0091 0.021488 0.24474 0.24474 0 0 0-0.0063 0.025269 0.24474 0.24474 0 0 0-0.0054 0.072119 0.24474 0.24474 0 0 0 0.0036 0.027246l0.64858 3.1828a0.24474 0.24474 0 0 0 0.01438 0.04685 0.24474 0.24474 0 0 0 0.01103 0.022039 0.24474 0.24474 0 0 0 0.01438 0.019604 0.24474 0.24474 0 0 0 0.01438 0.020048 0.24474 0.24474 0 0 0 0.07797 0.059794 0.24474 0.24474 0 0 0 0.02149 0.00901 0.24474 0.24474 0 0 0 0.02356 0.00713 0.24474 0.24474 0 0 0 0.02356 0.00538 0.24474 0.24474 0 0 0 0.02536 0.00269 0.24474 0.24474 0 0 0 0.07258-0.00538 0.24474 0.24474 0 0 0 0.06645-0.028686 0.24474 0.24474 0 0 0 0.02204-0.012917 0.24474 0.24474 0 0 0 0.06304-0.074097 0.24474 0.24474 0 0 0 0.01292-0.021488 0.24474 0.24474 0 0 0 0.0091-0.021488 0.24474 0.24474 0 0 0 0.0071-0.12475l-0.64803-3.1828a0.24474 0.24474 0 0 0-0.0081-0.024004 0.24474 0.24474 0 0 0-0.03255-0.06492 0.24474 0.24474 0 0 0-0.09223-0.079317 0.24474 0.24474 0 0 0-0.1171-0.02356zm-7.376 0.69877a0.24474 0.24474 0 0 0-0.095589 0.01807 0.24474 0.24474 0 0 0-0.021492 0.010495 0.24474 0.24474 0 0 0-0.022032 0.013051 0.24474 0.24474 0 0 0-0.017626 0.014383 0.24474 0.24474 0 0 0-0.034441 0.036328 0.24474 0.24474 0 0 0-0.014387 0.017626 0.24474 0.24474 0 0 0-0.013038 0.022039 0.24474 0.24474 0 0 0-0.0027 0.00363l-1.606 3.3009a0.24474 0.24474 0 0 0-0.00901 0.02356 0.24474 0.24474 0 0 0-0.00807 0.021488 0.24474 0.24474 0 0 0-0.00713 0.048734 0.24474 0.24474 0 0 0 0.016092 0.095611 0.24474 0.24474 0 0 0 0.011033 0.023923 0.24474 0.24474 0 0 0 0.010495 0.021488 0.24474 0.24474 0 0 0 0.031027 0.037768 0.24474 0.24474 0 0 0 0.017626 0.016186 0.24474 0.24474 0 0 0 0.01807 0.016186 0.24474 0.24474 0 0 0 0.043527 0.02356 0.24474 0.24474 0 0 0 0.04685 0.014922 0.24474 0.24474 0 0 0 0.072119 0.00363 0.24474 0.24474 0 0 0 0.025363-0.00269 0.24474 0.24474 0 0 0 0.02356-0.00807 0.24474 0.24474 0 0 0 0.045411-0.01807 0.24474 0.24474 0 0 0 0.019604-0.012513 0.24474 0.24474 0 0 0 0.083179-0.094145l1.606-3.3004a0.24474 0.24474 0 0 0 0.00908-0.021488 0.24474 0.24474 0 0 0 0.0081-0.02356 0.24474 0.24474 0 0 0 0.0054-0.074097 0.24474 0.24474 0 0 0-0.0027-0.023923 0.24474 0.24474 0 0 0-0.0063-0.02356 0.24474 0.24474 0 0 0-0.0081-0.02356 0.24474 0.24474 0 0 0-0.010522-0.02356 0.24474 0.24474 0 0 0-0.01106-0.019967 0.24474 0.24474 0 0 0-0.014387-0.019604 0.24474 0.24474 0 0 0-0.034441-0.036328 0.24474 0.24474 0 0 0-0.039657-0.028686 0.24474 0.24474 0 0 0-0.021492-0.011033 0.24474 0.24474 0 0 0-0.047301-0.014383 0.24474 0.24474 0 0 0-0.04829-0.00632zm3.8084 0.28633c-0.78657 1.2468-1.7513 3.1633-2.3172 4.0642l-2.1805 0.60939v0.48707c0 0.13557-0.10915 0.24471-0.24471 0.24471h-0.6099l1.8775 1.7771-1.4707 4.924 3.3654-2.4161 2.4156 2.4037-0.087408-3.9719 2.1475-2.2646-2.6025-1.2126c-0.002691-1.6587-0.029495-3.2155-0.293-4.6449z" fill="#363636" opacity=".3"/>
 </g>
</svg>
