<svg xmlns="http://www.w3.org/2000/svg" viewBox="0 0 16 16">
  <defs id="defs3051">
    <style type="text/css" id="current-color-scheme">
      .ColorScheme-Text {
        color:#363636;
      }
      </style>
  </defs>
 <path style="fill:currentColor;fill-opacity:1;stroke:none" 
     d="M 9 3 L 9 13 L 10 13 L 10 12.232422 A 3 3 0 0 0 12 13 A 3 3 0 0 0 15 10 A 3 3 0 0 0 12 7 A 3 3 0 0 0 10 7.7675781 L 10 3 L 9 3 z M 3.8964844 3.0058594 L 1.0078125 13.005859 L 2.1757812 13.005859 L 3.0078125 10.005859 L 6.0078125 10.005859 L 6.8417969 13.005859 L 8.0078125 13.005859 L 5.3632812 3.0058594 L 3.8964844 3.0058594 z M 4.6289062 4.5566406 L 5.7226562 8.7207031 L 3.4199219 8.7207031 L 4.6289062 4.5566406 z M 12 8 A 2 2 0 0 1 14 10 A 2 2 0 0 1 12 12 A 2 2 0 0 1 10 10 A 2 2 0 0 1 12 8 z "
     class="ColorScheme-Text"
     />
</svg>
