<svg xmlns="http://www.w3.org/2000/svg" viewBox="0 0 16 16">
  <defs id="defs3051">
    <style type="text/css" id="current-color-scheme">
      .ColorScheme-Text {
        color:#363636;
      }
      </style>
  </defs>
<g transform="translate(-421.71429,-531.79074)">
 <path style="fill:currentColor;fill-opacity:1;stroke:none" 
     d="m 436.71429,532.79074 0,1 0,5 0,1 0,5 0,1 -1,0 -5,0 -1,0 -5,0 -1,0 0,-1 0,-5 0,-1 0,-5 0,-1 1,0 5,0 1,0 5,0 1,0 z m -1,1 -5,0 0,5 5,0 0,-5 z m -6,0 -5,0 0,5 5,0 0,-5 z m 6,6 -5,0 0,5 5,0 0,-5 z m -6,0 -5,0 0,5 5,0 0,-5 z"
     class="ColorScheme-Text"
     />
 <path style="fill:currentColor;fill-opacity:0.5;stroke:none" 
     d="m 435.71429,533.79074 0,5 -5,0 0,-5 5,0 z m -6,0 0,5 -5,0 0,-5 5,0 z m 6,6 0,5 -5,0 0,-5 5,0 z m -6,0 0,5 -5,0 0,-5 5,0 z"
     class="ColorScheme-Text"
     />
  </g>
</svg>
