<svg xmlns="http://www.w3.org/2000/svg" viewBox="0 0 16 16">
  <defs id="defs3051">
    <style type="text/css" id="current-color-scheme">
      .ColorScheme-Text {
        color:#363636;
      }
      .ColorScheme-ViewBackground {
        color:#fcfcfc;
      }
      </style>
  </defs>
<g transform="translate(-421.71429,-531.79074)">
 <path style="fill:currentColor;fill-opacity:1;stroke:none" 
     d="m 436.71428,532.79073 -1,0 -5,0 0,1 5,0 0,5 -5,0 0,1 5,0 0,5 -5,0 0,1 5,0 1,0 0,-1 0,-5 0,-1 0,-5 0,-1 z m -7,0 -5,0 0,1 5,0 0,-1 z m 0,6 -5,0 0,1 5,0 0,-1 z m 0,6 -5,0 0,1 5,0 0,-1 z"
     class="ColorScheme-ViewBackground"
     />
 <path style="fill:currentColor;fill-opacity:1;stroke:none" 
     d="m 424.71431,532.79073 0,13 -1,0 0,-13 z"
     class="ColorScheme-Text"
     />
 <path style="fill:currentColor;fill-opacity:0.5;stroke:none" 
     d="m 435.71428,544.79073 -5,0 0,-5 5,0 0,5 z m 0,-6 -5,0 0,-5 5,0 0,5 z m -6,6 -5,0 0,-5 5,0 0,5 z m 0,-6 -5,0 0,-5 5,0 0,5 z"
     class="ColorScheme-Text"
     />
  </g>
</svg>
