<svg viewBox="0 0 16 16" xmlns="http://www.w3.org/2000/svg">
    <style type="text/css" id="current-color-scheme">
        .ColorScheme-Text {
            color:#363636;
        }
        .ColorScheme-Highlight {
            color:#3daee9;
        }
    </style>
    <path d="M8 2a4 4 0 0 0-4 4v4a4 4 0 0 0 4 4h1a4 4 0 0 0 4-4V6a4 4 0 0 0-4-4zm0 1h1a3 3 0 0 1 3 3v4a3 3 0 0 1-3 3H8a3 3 0 0 1-3-3V6a3 3 0 0 1 3-3z" fill="currentColor" class="ColorScheme-Text"/>
    <path d="M8 3a3 3 0 0 0-1 .176V8h3V3.174A3 3 0 0 0 9 3zm0 1h1v3H8z" fill="currentColor" class="ColorScheme-Highlight"/>
</svg>
