<svg width="16" height="16" version="1.1" viewBox="0 0 16 16" xmlns="http://www.w3.org/2000/svg">
 <g id="layercompo">
  <path d="m7.7492 0.97632v0.73412h0.67437v-0.73412zm-5.413 1.0005-0.48496 0.75841 3.7436 2.3832-4.3352 2.7584 4.2739 2.766-3.3285 2.3147 0.51394 0.73844 4.4285-3.0803-4.2215-2.7317 4.3437-2.7655zm7.8415 0.26057v0.0024l-0.48351 0.76026c0.23786 0.15164 0.5899 0.31401 1.0313 0.52306 0.44114 0.20896 0.95727 0.45097 1.4432 0.70422 0.48595 0.25322 0.94364 0.52092 1.2562 0.75841 0.22739 0.17295 0.33282 0.33599 0.37469 0.38848-7e-3 0.01004-7e-3 0.01241-0.0263 0.02998-0.0725 0.06997-0.21424 0.17222-0.39878 0.27676-0.36912 0.20886-0.90326 0.43652-1.4452 0.66664-0.54192 0.23004-1.0921 0.46178-1.5362 0.71325-0.22227 0.1257-0.41948 0.25529-0.58453 0.41512-0.16482 0.15983-0.32209 0.37572-0.32331 0.66711 0 0.28784 0.1546 0.50339 0.31625 0.66286 0.16141 0.15946 0.35422 0.28674 0.57163 0.41178 0.43432 0.2501 0.9726 0.48117 1.5026 0.70992 0.52976 0.22884 1.0508 0.45669 1.412 0.66475 0.18089 0.10403 0.32014 0.20426 0.39196 0.27484 0.022 0.0229 0.0266 0.0298 0.0346 0.0409-0.0341 0.0484-0.12514 0.20304-0.32892 0.37231-0.2751 0.22847-0.68191 0.48833-1.116 0.73511-0.43408 0.2468-0.8947 0.48397-1.2906 0.68853-0.39586 0.20465-0.71284 0.36269-0.93244 0.51544l0.51394 0.73893c0.10371-0.0718 0.43749-0.25085 0.83164-0.45457 0.3944-0.20382 0.86452-0.44694 1.321-0.70661 0.45673-0.25967 0.89738-0.53431 1.2472-0.82497 0.34985-0.29069 0.68047-0.58921 0.67244-1.087-0.01-0.28661-0.15947-0.50005-0.32185-0.65951-0.16261-0.15952-0.35495-0.28957-0.57309-0.41508-0.43602-0.25113-0.97649-0.4811-1.5062-0.70994-0.53001-0.22875-1.0496-0.45638-1.4091-0.66332-0.17943-0.10342-0.31796-0.20431-0.38782-0.2734-0.0122-0.01265-0.0122-0.01265-0.0194-0.02092 7e-3 -0.0088 7e-3 -0.0092 0.0194-0.02288 0.0728-0.07083 0.21618-0.17259 0.40096-0.27722 0.36957-0.20916 0.90298-0.43652 1.4452-0.66666 0.54194-0.23012 1.0926-0.46203 1.5362-0.71322 0.22178-0.12562 0.41777-0.2534 0.58258-0.41322 0.16458-0.15983 0.32331-0.37736 0.32331-0.66904 0-0.52464-0.36689-0.81928-0.75471-1.1141-0.38783-0.29483-0.87815-0.57454-1.386-0.83927-0.50809-0.26473-1.032-0.51216-1.4717-0.72039-0.43968-0.20832-0.8112-0.39072-0.93438-0.46931zm-2.4285 0.08655v0.7341h0.67437v-0.7341zm0 1.348v0.73411h0.67437v-0.73411zm0 1.348v0.7342h0.67437v-0.7342zm0 1.3476v0.73458h0.67437v-0.73459zm0 1.348v0.73412h0.67437v-0.73412zm0 1.3476v0.73453h0.67437v-0.73452zm0 1.348v0.73412h0.67437v-0.73412zm0 1.348v0.7343h0.67437v-0.7343zm0 1.3476v0.7347h0.67437v-0.7347zm0 1.348v0.73402h0.67437v-0.73402z" fill="#363636"/>
 </g>
</svg>
