<svg width="16" height="16" version="1.1" viewBox="0 0 16 16" xmlns="http://www.w3.org/2000/svg">
 <g id="layercompo">
  <path d="m0 0h16v16h-16z" opacity="0"/>
  <path d="m9.1753 1.837c-2.6612 0.051321-4.7748 1.2613-6.0438 3.0839-1.6921 2.4302-2.0055 5.7635-0.9996 8.7848a1.0817 1.0817 0 1 0 2.0527-0.68342c-0.80782-2.4264-0.4962-5.1133 0.72234-6.8634 1.0141-1.4564 2.5714-2.39 4.9858-2.1597-1.0691 2.0551-0.8401 4.2291-0.24565 5.8492 0.37034 1.0094 0.86246 1.8458 1.2647 2.4394 0.20111 0.2968 0.37884 0.5324 0.51074 0.69802 0.13191 0.16561 0.0639 0.0887 0.23105 0.27483a1.0817 1.0817 0 1 0 1.6101-1.4447c-0.11706-0.13025-0.04645-0.04968-0.14836-0.17754-0.10174-0.12782-0.24809-0.32019-0.41346-0.56425-0.33075-0.48811-0.73556-1.1841-1.0239-1.97-0.57675-1.5719-0.76656-3.3407 0.85855-5.1415a6.6612 6.6612 0 0 1 1.3182-1.1236 12.11 12.11 0 0 0-1.846-0.64694c-0.99793-0.26114-1.9464-0.3722-2.8334-0.35509zm0.01459 0.95582c0.78979-0.0087 1.647 0.09877 2.5708 0.3405a12.037 12.037 0 0 1 0.17511 0.04621 7.1585 7.1585 0 0 0-0.12154 0.13133c-1.883 2.0865-1.7013 4.356-1.0507 6.1289 0.32526 0.8865 0.77045 1.6436 1.1334 2.1792 0.18146 0.26779 0.34189 0.48022 0.45724 0.62505 0.11531 0.14483 0.0453 0.0659 0.18485 0.22133a0.10847 0.10847 0 1 1-0.16053 0.14591c-0.1446-0.16102-0.0738-0.0824-0.19213-0.23104-0.11836-0.14861-0.28436-0.36659-0.4694-0.63964-0.37007-0.54614-0.8218-1.3166-1.1553-2.2254-0.65311-1.78-0.8395-4.102 0.97528-6.2165-7.1339-1.7536-10.056 4.6867-8.2765 10.033a0.10817 0.10817 0 1 1-0.2043 0.0681c-1.6043-4.8188 0.60535-10.546 6.1338-10.606z" fill="#363636"/>
 </g>
</svg>
