<svg version="1.1" viewBox="0 0 16 16" xmlns="http://www.w3.org/2000/svg">
    <defs>
        <style id="current-color-scheme" type="text/css">.ColorScheme-Text {
        color:#363636;
      }</style>
    </defs>
    <path style="fill:currentColor;fill-opacity:1;stroke:none" class="ColorScheme-Text" d="M 13.292969,2 2,13.267578 2.7070312,14 14,2.7070312 Z M 5,3 V 4 H 7 V 5.0507812 C 4.7620407,5.3045267 3,7.1975144 3,9.5 3,9.9102928 3.0734186,10.301196 3.1777344,10.679688 3.4628967,10.395187 3.7480459,10.110676 4.0332031,9.8261719 4.0229517,9.7170535 4,9.6117994 4,9.5 4,7.5670034 5.5670034,6 7.5,6 7.6144503,6 7.7223495,6.0224656 7.8339844,6.0332031 8.1168502,5.750964 8.4007276,5.4697388 8.6835938,5.1875 8.4612839,5.1258676 8.2345522,5.0773754 8,5.0507812 V 4 H 9.8730469 C 9.9154118,3.9577296 9.957635,3.9153172 10,3.8730469 V 3 Z m 6.162109,3.9589844 c -0.232764,0.23273 -0.4645,0.4664894 -0.697265,0.6992187 C 10.798571,8.1943178 11,8.8220128 11,9.5 11,11.432997 9.432997,13 7.5,13 6.8220128,13 6.1943178,12.798571 5.6582031,12.464844 5.4180072,12.705117 5.177678,12.945256 4.9375,13.185547 5.6667387,13.695257 6.5486654,14 7.5,14 9.973437,14 12,11.973437 12,9.5 12,8.5476656 11.676037,7.6824723 11.162109,6.9589844 Z"/>
</svg>
