<svg width="16" height="16" version="1.1" viewBox="0 0 16 16" xmlns="http://www.w3.org/2000/svg">
 <g id="layercompo">
  <path d="m0 0h16v16h-16z" opacity="0"/>
  <path d="m5.2537 1.7157c-1.0246-0.050167-1.9785 0.21942-2.6487 0.88954-0.94884 0.94885-1.0919 2.4325-0.66992 3.9686 0.42195 1.5361 1.4089 3.1835 2.8594 4.634 0.32849 0.32849 0.66621 0.63218 1.0116 0.91173l0.35049 0.28394 0.56789-0.70099-0.35049-0.28394c-0.32062-0.25954-0.63649-0.54332-0.94278-0.84962-1.3525-1.3525-2.2567-2.8887-2.6265-4.2347-0.36975-1.346-0.20687-2.444 0.43923-3.0901 0.45631-0.45631 1.1215-0.66911 1.9654-0.62778l0.45031 0.02218 0.044408-0.90063zm6.3776 0.039933c-0.68107-0.102-1.4347-0.031301-2.2028 0.17968-1.5361 0.42196-3.1835 1.4089-4.634 2.8594-0.32849 0.32849-0.6344 0.66623-0.91393 1.0115l-0.28394 0.3505 0.70098 0.56789 0.28394-0.3505c0.25955-0.32061 0.54333-0.63649 0.84961-0.94277 1.3525-1.3525 2.8887-2.2567 4.2348-2.6265 1.346-0.36975 2.444-0.20688 3.0901 0.43921 0.45631 0.45632 0.67134 1.1215 0.63 1.9654l-0.02215 0.45032 0.89841 0.044363 0.02215-0.45031c0.0502-1.0246-0.21942-1.9785-0.88954-2.6487-0.47442-0.47441-1.0825-0.74761-1.7635-0.8496zm-1.788 1.8412-0.56789 0.70099 0.35049 0.28394c0.32061 0.25951 0.63649 0.54332 0.94278 0.84961 1.3525 1.3525 2.2589 2.8887 2.6287 4.2347 0.36975 1.346 0.20466 2.444-0.44144 3.0901-0.45632 0.45632-1.1215 0.67134-1.9654 0.63l-0.45031-0.02218-0.04441 0.90063 0.45032 0.01996c1.0246 0.05018 1.9785-0.21942 2.6487-0.88955 0.94884-0.94884 1.0919-2.4302 0.66992-3.9663-0.42195-1.5361-1.4066-3.1835-2.8572-4.634-0.32849-0.32849-0.66843-0.6344-1.0138-0.91394zm1.8589 5.6811-0.28394 0.34828c-0.25954 0.32061-0.54332 0.63648-0.84962 0.94277-1.3525 1.3525-2.8887 2.259-4.2348 2.6287-1.346 0.36974-2.444 0.20466-3.0901-0.44145-0.45632-0.45631-0.66912-1.1214-0.62778-1.9654l0.022148-0.45032-0.90063-0.04437-0.022148 0.45031c-0.050202 1.0246 0.21941 1.9785 0.88954 2.6487 0.94884 0.94885 2.4325 1.0919 3.9685 0.66994 1.5361-0.42196 3.1835-1.4067 4.634-2.8572 0.32849-0.32849 0.63217-0.66842 0.91172-1.0138l0.28394-0.3505z" fill="#363636"/>
 </g>
</svg>
