<svg width="16" height="16" version="1.1" xmlns="http://www.w3.org/2000/svg">
 <path d="m4.4271 1.812a7.1459 7.1459 0 0 0-3.5729 6.188h7.1459zm3.5729 6.188h7.1459a7.1459 7.1459 0 0 0-3.5729-6.188zm0 0-3.5729 6.188a7.1459 7.1459 0 0 0 7.1459 0z" fill="#363636" opacity=".35" stroke-width=".7522"/>
 <path d="m8 0a8 8 0 0 0-8 8 8 8 0 0 0 8 8 8 8 0 0 0 8-8 8 8 0 0 0-8-8zm0 1a7 7 0 0 1 7 7 7 7 0 0 1-7 7 7 7 0 0 1-7-7 7 7 0 0 1 7-7z" fill="#363636" stroke-linecap="round" stroke-linejoin="round" stroke-width="1.6"/>
</svg>
