<svg width="16" height="16" version="1.1" viewBox="0 0 16 16" xmlns="http://www.w3.org/2000/svg">
 <style/>
 <g id="layercompo" fill="#363636">
  <path d="m3 1c-1.108 0-2 0.892-2 2v10c0 1.108 0.892 2 2 2h10c1.108 0 2-0.892 2-2v-10c0-1.108-0.892-2-2-2h-10zm5.0586 1.2266 2.0234 3.3242 3.7168 1.1504-2.5352 2.9512 0.052734 3.8906-3.5918-1.4961-3.6816 1.25 0.31641-3.877-2.3301-3.1152 3.7852-0.89844 2.2441-3.1797z" stroke-width=".94856"/>
  <path d="m15 11a4 4 0 0 0-4-4 4 4 0 0 0-4 4 4 4 0 0 0 4 4 4 4 0 0 0 4-4z" opacity=".3" stroke-width="1.0232"/>
 </g>
</svg>
