<svg width="16" height="16" version="1.1" viewBox="0 0 16 16" xmlns="http://www.w3.org/2000/svg">
 <g id="layercompo">
  <path d="m0 0h16v16h-16z" opacity="0"/>
  <path d="m7.7005 0.81173v0.65073c-0.45032 0.018513-0.77533 0.31317-0.94891 0.67814-0.17575 0.36953-0.25062 0.8188-0.31983 1.2832-0.069214 0.46439-0.1303 0.94274-0.23999 1.3433-0.10969 0.40055-0.26767 0.7094-0.49634 0.87821-0.22019 0.16256-0.55538 0.21832-0.96527 0.19959-0.40988-0.018724-0.87941-0.10829-1.3375-0.18516-0.4581-0.076886-0.90269-0.14415-1.3-0.090899-0.39731 0.053243-0.77436 0.28226-0.90322 0.71613-0.13076 0.44026 0.05148 0.84748 0.34869 1.1288 0.2972 0.28131 0.7012 0.49236 1.1216 0.70171 0.42037 0.20933 0.85811 0.41349 1.2053 0.64159 0.34714 0.2281 0.59208 0.47397 0.68199 0.74355 0.085886 0.2575 0.030879 0.59412-0.12024 0.97969-0.15112 0.38558-0.39008 0.80574-0.61417 1.2197-0.2241 0.41394-0.43631 0.8187-0.51654 1.2144-0.040114 0.19785-0.046821 0.3978 0.012985 0.59061 0.059806 0.19282 0.19092 0.36757 0.37803 0.49634 0.37447 0.2577 0.81584 0.20619 1.1759 0.009138 0.36009-0.19706 0.69003-0.51761 1.0215-0.85272 0.3315-0.33513 0.66185-0.68666 0.98162-0.94507 0.26979-0.21802 0.52521-0.359 0.75365-0.39823 0.022206 0.026846 0.042007 0.052842 0.069737 0.081762 0.0031962 0.003332 0.0077937 0.007217 0.011061 0.010581v0.55502h0.68151v-0.037514c0.038917 0.021063 0.076288 0.044964 0.11639 0.063004 0.10492 0.047196 0.22574 0.045911 0.34195 0.058195 0.069885 0.22212 0.15904 0.4399 0.30733 0.6161 0.098216 0.11671 0.19799 0.217 0.29963 0.29242 0.050825 0.037704 0.099597 0.071164 0.17074 0.094749 0.0094288 0.003126 0.030135-0.011643 0.041842-0.009138 0.082014 0.054127 0.11631 0.09591 0.11639 0.096188 9.39e-5 3.28e-4 0.0025515 0.008171-0.01635 0.067334-0.0094486 0.029586-0.025718 0.068766-0.030781 0.13851-0.0050655 0.069747 0.025694 0.18939 0.10004 0.25779 0.1019 0.093768 0.21571 0.0779 0.32897 0.081764 0.043455 0.078514 0.080565 0.16209 0.14525 0.22364 0.097435 0.092717 0.23559 0.16097 0.38187 0.16352 0.29257 0.005099 0.5342-0.19326 0.78347-0.51991a0.24627 0.24627 0 0 0 0.016351-0.025488c0.15122-0.25993 0.25836-0.32561 0.35254-0.505 0.047092-0.089692 0.055199-0.26106 0-0.3636-0.030678-0.056995-0.080517-0.096754-0.12168-0.13995 0.01492-0.27 0.10113-0.49706 0.19286-0.67429 0.050293-0.097201 0.10215-0.16927 0.12697-0.30204 0.012417-0.066386 0.009993-0.17444-0.054347-0.26164-0.031242-0.042348-0.071127-0.042852-0.10918-0.063486-0.18927-0.4682-0.46736-0.82293-0.75605-1.0071-0.15772-0.10063-0.31177-0.16473-0.45257-0.19623-0.069784-0.015607-0.13859 0.015421-0.20537 0.016352-0.013353-0.13175-0.002474-0.41884 0.016354-0.75798 0.27668-0.16245 0.51108-0.33854 0.63245-0.42756 0.073786-0.05412 0.11973-0.076206 0.15631-0.083205 0.036567-0.007008 0.080155-0.008522 0.17651 0.030781a0.24627 0.24627 0 0 0 0.33811-0.22172c0.003666-0.16531 0.1422-0.44117 0.31406-0.62908 0.085929-0.093963 0.17907-0.16758 0.24192-0.202 0.031421-0.017203 0.04828-0.017816 0.049538-0.018757a0.24627 0.24627 0 0 0 0.28136-0.097152c0.29545-0.44438 0.4797-0.46865 0.53434-0.46748 0.011541 2.463e-4 0.018497 0.0022728 0.021162 0.002886 0.009848 0.0097119 0.017559 0.019973 0.051461 0.033667 0.010202 0.0041223 0.045142 0.012394 0.04569 0.012504 2.71e-4 5.66e-5 0.044997 0.005772 0.045209 0.005772 2.07e-4 9.8e-6 0.081624-0.01294 0.081763-0.012987 6.4e-5 -1.72e-5 0.060063-0.028818 0.060119-0.028855 5.5e-5 -3.94e-5 0.060081-0.056698 0.060118-0.056752 3.9e-5 -4.68e-5 0.037978-0.074012 0.037995-0.074066 0 0-1.7e-5 -0.001832 0-0.0019256 0.021955-0.013019 0.0326-0.019308 0.058194-0.034627 0.15356-0.09188 0.36423-0.22282 0.56704-0.37274 0.20282-0.14992 0.3984-0.31027 0.52375-0.51269 0.062682-0.10121 0.11185-0.2227 0.10004-0.3636-0.006588-0.078654-0.07454-0.13396-0.12024-0.20152-0.005176-0.072995-0.010027-0.13847-0.037995-0.20729-0.031412-0.077304-0.12345-0.18077-0.23615-0.20152-0.1127-0.020756-0.18372 0.016316-0.23278 0.041362-0.049053 0.025043-0.083865 0.050338-0.11831 0.073103-0.068882 0.045538-0.12973 0.07852-0.15968 0.085127-0.029952 0.0066093-0.023654 0.016245-0.076472-0.028855-0.10776-0.12971-0.15462-0.21082-0.28568-0.28184-0.035915-0.019468-0.089328-0.03884-0.15438-0.03655-0.065046 0.0022975-0.12879 0.031554-0.16545 0.060118-0.073328 0.057127-0.083191 0.094039-0.10004 0.12024-0.033674 0.052399-0.053105 0.086066-0.12505 0.13611-0.071941 0.050045-0.19895 0.11162-0.43478 0.14909a0.24627 0.24627 0 0 0-0.041842 0.0091383c-0.69016 0.23764-1.0571 0.69461-1.276 0.9215-0.080905 0.083874-0.13429 0.1149-0.14717 0.12553-0.00352-0.0022434-0.003677-0.0015613-0.011062-0.0072151-0.029198-0.022357-0.080916-0.078498-0.14525-0.16737-7.44e-4 -0.0010317-0.001169-8.915e-4 -0.001923-0.0019232-0.079957-0.5114-0.005135-0.52999-0.49249-1.2216a0.24627 0.24627 0 0 0-0.17843-0.1034c-0.18882-0.018168-0.22697-0.058168-0.23951-0.074549-0.012555-0.01638-0.029475-0.069744-0.032706-0.18901-0.006466-0.23856 0.012701-0.69109-0.37081-1.0509-0.18429-0.29009-0.33653-0.46518-0.45642-0.57618-0.10663-0.098718-0.20432-0.21188-0.3256-0.37802 0.0047844-0.052044 0.0063286-0.10276-0.0014435-0.14525-0.020399-0.11153-0.06116-0.21381-0.10917-0.33089-0.09054-0.22077-0.20814-0.48569-0.29098-0.75269 0.027577-0.076893 0.061864-0.14338 0.049058-0.24721-0.0045683-0.037043-0.01596-0.088013-0.058196-0.14188-0.02299-0.02933-0.056934-0.052835-0.092823-0.0707v-0.74162zm0.018759 0.74355h0.41169c-0.01113 0.0070156-0.024986 0.014051-0.034146 0.01972-0.070668 0.043733-0.1125 0.085932-0.15246 0.12168-0.039964 0.035748-0.096938 0.065974-0.043768 0.041842l0.098114 0.21643a0.24627 0.24627 0 0 0-0.0052891 0.15102c0.0068801 0.02359 0.015317 0.045521 0.022603 0.068774h-0.3155v0.74355h0.60359c0.0042235 0.01014 0.010412 0.024832 0.014428 0.034627 0.040634 0.099072 0.065064 0.17326 0.074546 0.2145a0.24627 0.24627 0 0 0 0.0072158 0.26019c0.19923 0.3033 0.35395 0.43949 0.47614 0.55261 0.1222 0.11313 0.22276 0.20899 0.41266 0.52327a0.24627 0.24627 0 0 0 0.041842 0.052904c0.24146 0.22651 0.20682 0.4199 0.2145 0.70315 0.0038437 0.14161 0.013007 0.31781 0.13467 0.47662 0.087233 0.11386 0.25599 0.14855 0.41794 0.19046 0.47774 0.67585 0.31732 0.40067 0.44007 1.0961a0.24627 0.24627 0 0 0 0.043767 0.10196c0.082022 0.11387 0.15789 0.20238 0.24721 0.27077 0.089319 0.068395 0.20146 0.11589 0.31791 0.11447 0.23289-0.0028664 0.36856-0.15087 0.49442-0.28136 0.24971-0.25888 0.51698-0.599 1.0692-0.79309 0.27432-0.047094 0.47024-0.12672 0.60888-0.22316 0.072168-0.050192 0.088268-0.08837 0.13082-0.13803 0.03478 0.034686 0.017062 0.018614 0.072623 0.083204a0.24627 0.24627 0 0 0 0.027415 0.025491c0.15168 0.1295 0.35387 0.1677 0.50356 0.13466 0.10421-0.022997 0.16098-0.067371 0.22508-0.10725a0.24627 0.24627 0 0 0 0.067335 0.074546c0.010367 0.0075746 0.010098 0.007402 0.012504 0.0091381-3.54e-4 -0.0030657 0.001975 0.014615-0.025011 0.058195-0.05762 0.093049-0.21801 0.24481-0.39822 0.37802-0.18022 0.13321-0.3806 0.25651-0.52904 0.34532-0.06662 0.03986-0.1178 0.069097-0.16016 0.094746-0.015068-0.0013123-0.019747-0.010707-0.036073-0.011061-0.23993-0.0051096-0.55548 0.20546-0.871 0.62523-0.081648 0.012696-0.17546-0.01592-0.24143 0.0202-0.13142 0.071963-0.25425 0.1762-0.36889 0.30156-0.16872 0.18447-0.25169 0.44361-0.3256 0.69786-0.0783-0.011197-0.15965-0.044788-0.23278-0.030781-0.14282 0.027343-0.25757 0.096812-0.35638 0.16929-0.19762 0.14496-0.36644 0.31673-0.69257 0.47614a0.24627 0.24627 0 0 0-0.13803 0.20537c-0.027744 0.43281-0.038123 0.74104-0.01443 0.96334 0.01185 0.11114 0.015176 0.20293 0.10341 0.31454 0.044114 0.055805 0.13176 0.11381 0.22172 0.11976 0.089951 0.005957 0.15835-0.026759 0.20729-0.057714l-0.009137 0.007214c-0.059946 0.034214-0.01166 0.002807 0.063966 0.019719 0.075629 0.01691 0.18363 0.057516 0.29627 0.12938 0.22527 0.14372 0.47521 0.40502 0.62331 0.84311a0.24627 0.24627 0 0 0 0.036551 0.067331c-0.014116 0.031281-0.013634 0.032899-0.039918 0.083687-0.10515 0.20317-0.27198 0.53595-0.26741 0.97055a0.24627 0.24627 0 0 0 0.078395 0.17651c0.055292 0.051449 0.062591 0.061866 0.079835 0.081762-0.030069 0.035114-0.13808 0.16209-0.28568 0.40737-0.20772 0.2722-0.35666 0.32562-0.38524 0.32512-0.014294-2.42e-4 -0.020278-3.2e-5 -0.049054-0.027415-0.02878-0.02738-0.070387-0.086152-0.10725-0.17266a0.24627 0.24627 0 0 0-0.22557-0.1491c-0.087588-4.45e-4 -0.04957 0.011321-0.074067 0.005772 0.016019-0.069066 0.044176-0.1285 0.014431-0.23278-0.045093-0.15802-0.17372-0.29275-0.36745-0.40352a0.24627 0.24627 0 0 0-0.13611-0.032706c-0.0039077-0.002569-0.0014059-6.08e-4 -0.0057693-0.003847-0.052362-0.038858-0.13625-0.1198-0.21595-0.2145-0.1594-0.18941-0.2911-0.47103-0.2929-0.51798a0.24627 0.24627 0 0 0-0.29434-0.23278c-0.03035 0.005916-0.12236-0.005083-0.23615-0.056273-0.10036-0.045146-0.21386-0.11648-0.32031-0.19382v-0.12601h-0.16016c-0.069055-0.058907-0.13272-0.11635-0.17795-0.16352-0.034964-0.036476-0.060199-0.067271-0.070698-0.081763h-0.0019256c0.0052402 0.01088 0.037986 0.031087 0.012988 0.13803l-0.23999-0.055791v-0.24576c-0.43868-5.7e-5 -0.82762 0.2295-1.187 0.51991-0.35938 0.29041-0.69864 0.65325-1.0235 0.98162-0.32482 0.32837-0.63869 0.61976-0.90707 0.76663-0.26838 0.14687-0.43876 0.17044-0.65986 0.018277-0.11045-0.07601-0.1595-0.14722-0.18709-0.23615-0.027587-0.088928-0.029158-0.20345 0-0.34724 0.058309-0.2876 0.24499-0.67125 0.46508-1.0778 0.2201-0.40655 0.46944-0.84038 0.64014-1.276 0.17071-0.43558 0.27156-0.88668 0.1289-1.3144-0.14369-0.43083-0.48843-0.7409-0.87966-0.99797-0.39123-0.25707-0.84202-0.46706-1.2543-0.67237-0.41229-0.20531-0.78448-0.41049-1.0037-0.61802-0.21926-0.20755-0.29396-0.36156-0.2145-0.62908 0.076809-0.25858 0.20854-0.33224 0.49634-0.37081 0.2878-0.038567 0.70487 0.013553 1.1543 0.088976 0.4494 0.075423 0.9332 0.17171 1.3962 0.19286 0.46298 0.021155 0.91879-0.029742 1.2798-0.29626 0.36539-0.26975 0.55595-0.69226 0.67958-1.1437 0.12362-0.45144 0.18317-0.94603 0.25106-1.4015 0.067883-0.45546 0.14642-0.87255 0.27606-1.1451 0.12965-0.27259 0.25575-0.39111 0.53481-0.39823zm-0.018759 1.983v0.74355h0.68151v-0.74355zm0 1.3635v0.74355h0.68151v-0.74355zm0 1.363v0.74355h0.68151v-0.74355zm5.6949 0.95276c0.009968 0.0010983 0.020321 0.001943 0.0202 0.0019233-5.49e-4 -1.109e-4 0.031365 0.007119 0.039919 0.010581 0.02011 0.0081162 0.001285-0.0010638 0.007213 0.0019231 0.001118 0.0013126 0.004013 0.0051688 0.005771 0.0072151-0.018911-0.011884-0.051297-0.012298-0.073103-0.021643zm-5.6949 0.41073v0.74355h0.68151v-0.74355zm5.5117 0.0202c2.68e-4 2.045e-4 0.001182-1.871e-4 0.001443 0 0.001622 0.0012731 0.002935 0.002561 0.004325 0.0038465-0.001016-6.969e-4 -3.24e-4 -1.207e-4 -0.005768-0.0038465zm-5.5117 1.3433v0.74355h0.68151v-0.74355zm0 1.363v0.74355h0.68151v-0.74355zm2.6265 0.17459c0.004542 2.99e-4 0.006502 0.005008 0.011063 0.005771-0.021752 0.006785-0.040702-0.006008-0.063485 0.005291 0.014676-0.005716 0.019616-0.013232 0.052422-0.011062zm-2.6265 2.5524v0.74307h0.68151v-0.74307zm0 1.363v0.74355h0.68151v-0.74355z" fill="#363636"/>
 </g>
</svg>
