<svg width="16" height="16" version="1.1" viewBox="0 0 16 16" xmlns="http://www.w3.org/2000/svg">
 <g id="layercompo">
  <path d="m2.9983 1.8113-0.54787 0.70831-1.6009-0.66052-0.3516 0.85338 4.639 1.9167 0.82437 0.63492 0.85168 2.0481c-0.20281-0.097918-0.34471-0.22165-0.58031-0.30551l-0.31063 0.87216c0.70965 0.25261 1.1481 0.56267 1.502 0.89776l0.029012 0.06998 0.35159 1.0855-0.29185-0.12972-0.37549 0.84656 1.0497 0.46424 0.01366 0.044374 0.049495-0.015362 0.19457 0.087046 0.73392 1.7597 0.85338-0.35671-0.35842-0.86021 5.4531 2.4168 0.37549-0.84485-6.3458-2.8128-0.21847-0.52568 0.29698-0.10923c-0.13153-0.35897-0.29288-0.71621-0.51544-1.0599-0.11386-0.17584-0.30665-0.32426-0.45571-0.48813l-0.56323-1.7409 1.0036 0.77317 0.078508-0.1007c0.25997 0.51009 0.4795 1.0278 0.97457 1.5105 0.32406 0.31593 0.70846 0.61878 1.1691 0.90458l0.48813-0.78511c-0.40823-0.25326-0.73859-0.51505-1.0121-0.78171-0.59829-0.58327-0.93092-1.1931-1.1794-1.8348l-0.27479 0.10753-0.54958-0.42499 0.17579 0.073398 0.35331-0.8551-1.944-0.80218-0.59225-1.8331-0.88069 0.28332 0.3516 1.0855-0.25602-0.10411zm0.65369 6.8988-0.79876 0.46766c0.36604 0.62654 0.54863 1.3841 0.81754 2.2171 0.149 0.46158 0.32738 0.94502 0.59054 1.4286l0.81242-0.44205c-0.22306-0.40988-0.38157-0.83568-0.52226-1.2715-0.25391-0.78654-0.4419-1.6165-0.89947-2.3997z" fill="#363636"/>
 </g>
</svg>
