<svg width="16" height="16" version="1.1" viewBox="0 0 16 16" xmlns="http://www.w3.org/2000/svg">
 <g id="layercompo">
  <path d="m0 0h16v16h-16z" opacity="0"/>
  <path d="m5.4766 3.6188c-0.37913-0.0097463-0.75603 0.053263-1.1095 0.17168-0.47032 0.15757-0.89595 0.41015-1.2697 0.71471-0.64292 0.52393-1.1348 1.2016-1.4886 1.9311-0.37164 0.76622-0.59824 1.6-0.67339 2.4462-0.064765 0.72909-0.017622 1.5193 0.34886 2.2208 0.18388 0.35196 0.44675 0.67318 0.78586 0.9075 0.34064 0.23537 0.75094 0.37702 1.1797 0.37135 0.34736-0.004587 0.6764-0.1064 0.96626-0.25522 0.28877-0.14827 0.53792-0.34133 0.76015-0.5467 0.41049-0.37934 0.72831-0.7729 1.1017-0.98507 0.282-0.16026 0.61956-0.22758 0.94422-0.20151v0.57516h1.6447v-1.6461h-1.6447v0.35896c-0.44866-0.025465-0.90106 0.077875-1.2931 0.30066-0.53225 0.30247-0.87705 0.75156-1.2316 1.0792-0.19124 0.17673-0.39201 0.33041-0.60408 0.43929-0.21098 0.10833-0.43668 0.17204-0.65228 0.17489-0.26439 0.003492-0.54056-0.08733-0.77025-0.24604-0.23119-0.15976-0.42473-0.39027-0.56185-0.65274-0.27548-0.52732-0.32873-1.1801-0.27083-1.832 0.067715-0.76235 0.27238-1.5148 0.60546-2.2015 0.3166-0.65275 0.75152-1.2449 1.2995-1.6915 0.31814-0.25926 0.67201-0.46757 1.048-0.59352 0.37502-0.12564 0.77648-0.16927 1.1535-0.10925 0.42722 0.068006 0.84354 0.27148 1.2059 0.55175 0.36361 0.28126 0.67912 0.63996 0.96809 1.0305 0.60529 0.81804 1.0774 1.7513 1.5717 2.6908 0.19521 0.37101 0.39985 0.75512 0.66284 1.1191 0.26355 0.36475 0.58868 0.70924 0.99747 0.95937 0.40565 0.24821 0.87675 0.38927 1.3587 0.39063 0.48284 0.001368 0.9634-0.1385 1.367-0.41496 0.34254-0.23466 0.6102-0.55398 0.80146-0.90566 0.19079-0.35079 0.30574-0.73094 0.36585-1.1104 0.062667-0.39555 0.070157-0.81921-0.041314-1.2352-0.11242-0.41964-0.34794-0.8215-0.72343-1.0929-0.25484-0.18423-0.55762-0.29415-0.87124-0.31719-0.15494-0.011382-0.30983-0.0013467-0.46086 0.029378v-0.28276h-1.6447v1.6465h1.6447v-0.63438c0.13058-0.046556 0.27203-0.066521 0.40899-0.05646 0.18089 0.013288 0.36298 0.07964 0.50998 0.18591 0.21725 0.15705 0.37942 0.41913 0.45627 0.70599 0.077823 0.29046 0.076115 0.61508 0.02433 0.94193-0.049825 0.3145-0.1429 0.61674-0.28781 0.88317-0.14441 0.26554-0.34266 0.49674-0.57975 0.65917-0.27792 0.19038-0.62487 0.29429-0.96809 0.29332-0.34408-9.76e-4 -0.69345-0.10488-0.99242-0.28781-0.30352-0.18571-0.56725-0.45815-0.79274-0.77025-0.22606-0.31286-0.41688-0.66804-0.61051-1.036-0.49056-0.93232-0.97627-1.8985-1.6291-2.7808-0.31214-0.42186-0.66957-0.83068-1.1053-1.1678-0.43707-0.33808-0.95405-0.59951-1.5249-0.69038-0.12608-0.020071-0.25278-0.031636-0.37916-0.034887zm6.2956 2.6128h0.70461v0.70599h-0.70461zm-4.2795 3.5611h0.70599v0.70598h-0.70599z" fill="#363636"/>
 </g>
</svg>
