<svg version="1.1" viewBox="0 0 16 16" xmlns="http://www.w3.org/2000/svg">
 <defs>
  <style id="current-color-scheme" type="text/css">.ColorScheme-Text {
        color:#363636;
      }</style>
 </defs>
 <g class="ColorScheme-Text" fill="currentColor">
  <path d="m2 1c-1.108 0-2 0.892-2 2v10c0 1.108 0.892 2 2 2h11c1.108 0 2-0.892 2-2v-10c0-1.108-0.892-2-2-2zm0 3h11c0.554 0 1 0.446 1 1v8c0 0.554-0.446 1-1 1h-11c-0.554 0-1-0.446-1-1v-8c0-0.554 0.446-1 1-1z"/>
  <rect x="4" y="6" width="7" height="4" ry=".8" stroke-width="2.6458"/>
  <rect x="11" y="10" width="2" height="2" ry=".5"/>
  <rect x="2" y="10" width="2" height="2" ry=".5"/>
 </g>
</svg>
