<svg version="1.1" viewBox="0 0 16 16" xmlns="http://www.w3.org/2000/svg">
 <defs>
  <style id="current-color-scheme" type="text/css">.ColorScheme-Text {
        color:#363636;
      }</style>
 </defs>
 <path d="m3.5 0a0.5 0.5 0 0 0-0.5 0.5 0.5 0.5 0 0 0 0.5 0.5 0.5 0.5 0 0 0 0.5-0.5 0.5 0.5 0 0 0-0.5-0.5zm4 0a0.5 0.5 0 0 0-0.5 0.5 0.5 0.5 0 0 0 0.5 0.5 0.5 0.5 0 0 0 0.5-0.5 0.5 0.5 0 0 0-0.5-0.5zm4 0a0.5 0.5 0 0 0-0.5 0.5 0.5 0.5 0 0 0 0.5 0.5 0.5 0.5 0 0 0 0.5-0.5 0.5 0.5 0 0 0-0.5-0.5zm-8 2c-0.277 0-0.5 0.223-0.5 0.5v1.5h-1c-1.108 0-2 0.892-2 2v6c0 1.108 0.892 2 2 2h11c1.108 0 2-0.892 2-2v-6c0-1.108-0.892-2-2-2h-1v-1.5c0-0.277-0.223-0.5-0.5-0.5s-0.5 0.223-0.5 0.5v1.5h-3v-1.5c0-0.277-0.223-0.5-0.5-0.5s-0.5 0.223-0.5 0.5v1.5h-3v-1.5c0-0.277-0.223-0.5-0.5-0.5zm-1.5 3h11c0.554 0 1 0.446 1 1v2.9551a3 3 0 0 1-2.502-2.9551h-1a3 3 0 0 1-3 3 3 3 0 0 1-3-3h-1a3 3 0 0 1-2.498 2.957v-2.957c0-0.554 0.446-1 1-1zm1.9961 2.9297a4 4 0 0 0 3.502 2.0703 4 4 0 0 0 3.498-2.0703 4 4 0 0 0 3.0039 2.0332v2.0371c0 0.554-0.446 1-1 1h-11c-0.554 0-1-0.446-1-1v-2.0371a4 4 0 0 0 2.9961-2.0332z" class="ColorScheme-Text" fill="currentColor"/>
</svg>
