<svg version="1.1" viewBox="0 0 16 16" xmlns="http://www.w3.org/2000/svg">
 <defs>
  <style id="current-color-scheme" type="text/css">.ColorScheme-Text {
        color:#363636;
      }</style>
 </defs>
 <path d="m3 1c-1.108 0-2 0.892-2 2v10c0 1.108 0.892 2 2 2h1v-1h-1c-0.554 0-1-0.446-1-1v-8c0-0.554 0.446-1 1-1h10c0.554 0 1 0.446 1 1h1v-2c0-1.108-0.892-2-2-2h-10z" style="fill:currentColor" class="ColorScheme-Text"/>
 <path class="ColorScheme-Text" d="m7 6c-1.108 0-2 0.892-2 2v5c0 1.108 0.892 2 2 2h6c1.108 0 2-0.892 2-2v-5c0-1.108-0.892-2-2-2zm0 3h6c0.554 0 1 0.446 1 1v3c0 0.554-0.446 1-1 1h-6c-0.554 0-1-0.446-1-1v-3c0-0.554 0.446-1 1-1z" fill="currentColor"/>
</svg>
