<svg width="22" height="22" version="1.1" xmlns="http://www.w3.org/2000/svg">
 <defs>
  <style id="current-color-scheme" type="text/css">.ColorScheme-Text { color:#363636; } .ColorScheme-Highlight { color:#5294e2; }</style>
 </defs>
 <path class="ColorScheme-Text" d="m11 3c-4.432 0-8 3.568-8 8 0 3.573 2.32 6.5801 5.541 7.6133v-1.6621c-2.025 0.44688-2.4512-0.89062-2.4512-0.89062-0.33119-0.85462-0.80859-1.082-0.80859-1.082-0.66103-0.45857 0.04883-0.45117 0.04883-0.45117 0.73072 0.05219 1.1152 0.76367 1.1152 0.76367 0.6494 1.1303 1.7044 0.80459 2.1191 0.61523 0.06615-0.47773 0.25507-0.8054 0.46289-0.99023-1.6165-0.1867-3.0176-1.2204-3.0176-4.055 0-0.8074 0.58653-1.8677 1.0522-2.3844-0.0751-0.1871-0.32609-1.3393 0.07031-2.3574 0 0 0.03819-0.01202 0.11719-0.01563 0.2369-0.0111 0.7698 0.43835 1.8125 1.1562 0.62954-0.18086 1.435-0.26543 1.938-0.26953 0.56713-0.0047 1.2238 0.09289 1.8156 0.26953 1.043-0.7179 1.7093-1.1692 1.9453-1.1582h2e-3c0.0789 0.0037 0.11719 0.01563 0.11719 0.01563 0.39732 1.0181 0.1469 2.1723 0.07227 2.3594 0.46652 0.5168 1.0476 1.577 1.0476 2.3844 0 2.8418-1.7009 3.8661-3.3223 4.0492 0.26101 0.2284 0.32617 0.68128 0.32617 1.3711 0 0.83312-0.0021 1.3746-0.0039 1.7188v0.74023c3.4566-0.88468 6-4.0003 6-7.7402 0-4.432-3.568-8-8-8z" fill="currentColor" opacity=".8"/>
</svg>
