<svg width="22" height="22" version="1.1" viewBox="0 0 22 22" xmlns="http://www.w3.org/2000/svg">
 <defs>
  <style id="current-color-scheme" type="text/css">.ColorScheme-Text { color:#363636; }</style>
 </defs>
 <path class="ColorScheme-Text" d="m11 5.5974c-3.021 0-5.8745 1.3333-7.8289 3.6583-0.2596 0.30878-0.21871 0.76933 0.090567 1.0289 0.13683 0.11493 0.30311 0.17074 0.46917 0.17074 0.20844 0 0.41511-0.0879 0.55974-0.25982 1.6754-1.9934 4.1209-3.1372 6.7094-3.1372 2.5885 0 5.0341 1.1443 6.7094 3.1372 0.14465 0.17192 0.35127 0.25982 0.55974 0.25982 0.16609 0 0.33382-0.05532 0.47065-0.17074 0.30878-0.25913 0.34868-0.72062 0.08908-1.0289-1.9539-2.3251-4.8079-3.6583-7.8289-3.6583zm0 3.0941c-2.158 0-4.1956 0.9528-5.5914 2.6131-0.25958 0.30878-0.22019 0.76933 0.089083 1.0289 0.13683 0.11493 0.30308 0.17074 0.46917 0.17074 0.20844 0 0.41558-0.08791 0.55974-0.25982 1.1167-1.3291 2.7479-2.092 4.4734-2.092 1.7255 0 3.3562 0.76288 4.4734 2.092 0.14465 0.17242 0.35179 0.25982 0.55974 0.25982 0.16609 0 0.33231-0.05532 0.46917-0.17074 0.30925-0.25958 0.34863-0.7206 0.08908-1.0289-1.3963-1.6603-3.4334-2.6131-5.5914-2.6131zm0 3.2144c-1.2955 0-2.5188 0.57041-3.3554 1.5664-0.2596 0.30878-0.21871 0.76933 0.090567 1.0289 0.13683 0.11493 0.30308 0.17223 0.46917 0.17223 0.20844 0 0.41558-0.08939 0.55974-0.26131 0.55863-0.6648 1.3735-1.0452 2.236-1.0452 0.86252 0 1.6774 0.38044 2.236 1.0452 0.14465 0.17242 0.35177 0.26131 0.55974 0.26131 0.16609 0 0.33233-0.0568 0.46917-0.17223 0.30928-0.2596 0.35014-0.72015 0.09057-1.0289-0.83672-0.99596-2.06-1.5664-3.3554-1.5664zm-0.06236 2.7734c-0.57137 0.05444-1.1209 0.48183-1.1403 1.118 0 0.6642 0.53844 1.2026 1.2026 1.2026s1.2026-0.53842 1.2026-1.2026c-0.10164-0.85392-0.6936-1.1724-1.265-1.118z" fill="currentColor"/>
</svg>
