<svg height="16" width="16" xmlns="http://www.w3.org/2000/svg"><g fill="#363636"><path color="#bebebe" d="M3 0c-.554 0-1 .446-1 1v14c0 .554.446 1 1 1h10c.554 0 1-.446 1-1V5c0-.554-4.446-5-5-5zm.5 1H9v4h4v9.5c0 .277-.223.5-.5.5h-9a.499.499 0 0 1-.5-.5v-13c0-.277.223-.5.5-.5z" overflow="visible" style="marker:none"/><path color="#000" d="M8.568 10.33c-.466-.064-1.047-.104-1.533.275-.403.316-.777.714-1.105 1.018-.329.304-.652.44-.586.44H3v1h2.344c.582 0 .901-.368 1.265-.706.364-.337.732-.72 1.043-.964.107-.084.407-.124.78-.073.372.052.705.18 1.1.18.146 0 .217.035.325.127.109.092.231.254.366.447.134.194.28.417.498.621.218.204.544.383.92.383H13.5v-1h-1.86c-.098 0-.14-.021-.238-.113-.099-.092-.22-.262-.359-.463-.14-.201-.298-.433-.537-.637a1.523 1.523 0 0 0-.975-.365c-.033 0-.496-.106-.963-.17zM6.432 5.864c-.86 0-1.568.707-1.568 1.568 0 .86.708 1.568 1.568 1.568C7.292 9 8 8.292 8 7.432c0-.86-.708-1.568-1.568-1.568zm0 .999c.32 0 .569.249.569.569 0 .32-.25.568-.569.568a.562.562 0 0 1-.569-.568c0-.32.25-.57.57-.57z" font-family="sans-serif" font-weight="400" overflow="visible" style="line-height:normal;font-variant-ligatures:normal;font-variant-position:normal;font-variant-caps:normal;font-variant-numeric:normal;font-variant-alternates:normal;font-feature-settings:normal;text-indent:0;text-align:start;text-decoration-line:none;text-decoration-style:solid;text-decoration-color:#000;text-transform:none;text-orientation:mixed;shape-padding:0;isolation:auto;mix-blend-mode:normal;marker:none"/></g></svg>