<?xml version="1.0" encoding="UTF-8" standalone="no"?><!-- Generator: Gravit.io --><svg xmlns="http://www.w3.org/2000/svg" xmlns:xlink="http://www.w3.org/1999/xlink" style="isolation:isolate" viewBox="0 0 48 48" width="48pt" height="48pt"><path d=" M 14.346 10 C 13.968 10.023 13.561 10 13.116 10.309 C 9.137 12.021 11.806 16.719 16.877 20.292 C 16.908 19.618 17.188 18.151 17.181 17.505 C 12.854 14.538 10.323 11.651 13.08 10.506 C 15.988 9.299 16.891 12.594 16.942 17.377 C 17.213 17.658 19.089 18.904 19.374 19.101 C 19.268 14.739 16.95 10.287 14.722 10.032 C 14.603 10.009 14.472 10.009 14.346 10.009 M 18.397 17.598 L 17.492 17.245 L 16.742 17.751 L 16.59 19.342 L 17.538 20.069 L 17.932 20.597 C 20.851 22.534 23.337 24.026 26.61 25.258 L 28.65 25.561 L 29.992 25.561 C 31.23 24.831 30.492 24.55 34.989 23.989 L 29.921 24.382 C 26.012 22.867 22.023 20.69 18.394 18.315 M 27.314 24.664 C 27.9 24.664 32.473 24.267 34.293 24.099 C 36.093 23.818 38.305 23.734 37.886 25.839 C 38.362 24.717 37.277 22.811 35.733 22.475 C 33.346 21.941 29.559 23.404 28.198 23.853 M 30.392 24.436 C 29.682 24.717 28.06 24.919 27.294 25.172 C 28.38 25.734 33.832 27.747 36.083 27.325 C 36.443 27.325 37.963 26.232 38 25.446 C 37.883 26.877 31.218 25.81 30.392 24.407 M 31.875 24.432 C 31.291 24.152 28.555 24.166 27.953 23.942 C 24.528 25.14 19.92 27.953 16.623 29.85 L 15.668 30.131 C 15.483 31.441 14.676 31.892 13.94 32.741 L 15.056 33.864 L 15.929 32.432 C 19.789 30.103 27.421 26.338 31.872 24.531 M 15.929 32.432 C 15.457 32.713 15.006 32.994 14.579 33.274 C 13.589 36.083 12.435 37.975 11.333 37.894 C 13.036 38.708 16.702 34.697 17.939 30.925 M 11.333 37.894 C 8.736 36.35 14.233 33.537 15.468 32.72 C 15.745 31.935 14.986 30.632 15.234 29.706 C 11.357 32.12 9.066 35.611 10.366 37.268 C 10.679 37.661 11.011 37.858 11.34 37.886 M 15.112 32.004 C 15.292 31.281 17.687 29.636 18.119 29.383 C 18.698 24.822 18.726 24.371 19.218 20.826 C 18.924 20.545 17.113 19.134 16.832 18.938 C 16.485 22.727 15.831 27.861 14.906 31.291" fill="rgb(255,52,52)"/><linearGradient id="_lgradient_32" x1="0.5180870166680417" y1="0.03333118384844386" x2="0.5073273481398528" y2="0.9681890995036899" gradientTransform="matrix(-47,0,0,-44,47.5,46)" gradientUnits="userSpaceOnUse"><stop offset="0%" stop-opacity="1" style="stop-color:rgb(244,97,51)"/><stop offset="98.75%" stop-opacity="1" style="stop-color:rgb(240,80,129)"/></linearGradient><path d=" M 28.75 5 L 42.5 5 C 43.604 5 44.5 5.896 44.5 7 L 44.5 28.5 L 44.5 28.5 C 44.5 29.328 45.172 30 46 30 L 46 30 C 46.828 30 47.5 29.328 47.5 28.5 L 47.5 28.5 L 47.5 6 C 47.5 3.792 45.708 2 43.5 2 L 20 2 C 18.896 2 18 2.672 18 3.5 L 18 3.5 C 18 4.328 18.896 5 20 5 L 28.75 5 L 28.75 5 Z  M 5.5 5 C 4.396 5 3.5 5.896 3.5 7 L 3.5 18.5 L 3.5 18.5 C 3.5 19.328 2.828 20 2 20 L 2 20 C 1.172 20 0.5 19.328 0.5 18.5 L 0.5 18.5 L 0.5 6 C 0.5 3.792 2.292 2 4.5 2 L 11 2 C 12.104 2 13 2.672 13 3.5 L 13 3.5 C 13 4.328 12.104 5 11 5 L 5.5 5 L 5.5 5 Z  M 3.5 30.5 L 3.5 30.5 C 3.5 29.672 2.828 29 2 29 L 2 29 C 1.172 29 0.5 29.672 0.5 30.5 L 0.5 30.5 L 0.5 42 C 0.5 44.208 2.292 46 4.5 46 L 43.5 46 C 45.708 46 47.5 44.208 47.5 42 L 47.5 40.5 L 47.5 40.5 C 47.5 39.672 46.828 39 46 39 L 46 39 C 45.172 39 44.5 39.672 44.5 40.5 L 44.5 40.5 L 44.5 41 C 44.5 42.104 43.604 43 42.5 43 L 5.5 43 C 4.396 43 3.5 42.104 3.5 41 L 3.5 30.5 Z " fill-rule="evenodd" fill="url(#_lgradient_32)"/></svg>