<?xml version="1.0" encoding="UTF-8" standalone="no"?>
<!-- Generator: Gravit.io -->
<svg xmlns="http://www.w3.org/2000/svg" xmlns:xlink="http://www.w3.org/1999/xlink" style="isolation:isolate" viewBox="0 0 48 48" width="48pt" height="48pt"><linearGradient id="_lgradient_5" x1="0" y1="0.5" x2="1" y2="0.5" gradientTransform="matrix(33.608,0,0,36.97,6.755,9.03)" gradientUnits="userSpaceOnUse"><stop offset="0%" stop-opacity="1" style="stop-color:rgb(17,153,142)"/><stop offset="99.1304347826087%" stop-opacity="1" style="stop-color:rgb(56,239,125)"/></linearGradient><path d=" M 33.923 31.233 L 39.913 41.623 L 39.913 41.623 C 40.007 41.791 40.063 41.96 40.082 42.148 L 40.363 45.615 C 40.363 45.746 40.307 45.859 40.194 45.934 L 40.194 45.934 L 40.194 45.934 C 40.082 45.99 39.951 45.99 39.838 45.915 L 36.952 43.947 C 36.802 43.853 36.671 43.722 36.577 43.553 L 30.798 33.567 C 28.663 34.764 26.191 35.457 23.57 35.457 C 20.946 35.457 18.472 34.763 16.335 33.564 L 10.544 43.591 L 10.544 43.591 C 10.45 43.741 10.319 43.872 10.169 43.984 L 7.283 45.934 C 7.17 46.009 7.039 46.027 6.927 45.952 L 6.927 45.952 L 6.927 45.952 C 6.814 45.877 6.739 45.765 6.758 45.634 L 7.02 42.148 C 7.039 41.96 7.095 41.791 7.189 41.623 L 18.903 21.344 L 21.733 24.174 L 18.247 30.228 C 19.803 31.09 21.621 31.596 23.551 31.596 C 25.482 31.596 27.3 31.108 28.874 30.228 L 28.874 30.228 L 28.874 30.228 L 25.388 24.174 L 28.218 21.344 L 31.921 27.74 C 33.583 25.793 34.59 23.287 34.59 20.556 L 34.59 20.556 L 38.432 20.575 C 38.432 24.751 36.692 28.534 33.923 31.233 Z  M 23.57 20.556 L 23.551 20.556 L 23.551 20.556 C 21.977 20.556 20.684 19.263 20.684 17.67 C 20.684 16.077 21.977 14.784 23.551 14.784 L 23.551 14.746 L 23.57 14.784 C 25.144 14.803 26.437 16.077 26.437 17.67 C 26.437 19.263 25.144 20.538 23.57 20.556 L 23.57 20.556 Z  M 27.15 12.891 L 25.95 12.891 L 25.95 9.049 L 25.95 9.03 L 23.551 9.03 L 21.171 9.03 L 21.171 9.049 L 21.171 12.891 L 19.953 12.891 C 18.772 12.891 17.797 13.866 17.797 15.046 L 17.797 19.938 L 17.816 19.938 C 17.797 20.125 17.91 20.332 18.153 20.575 L 22.483 24.905 C 22.783 25.205 23.176 25.355 23.551 25.355 L 23.551 25.336 L 23.57 25.355 C 23.963 25.355 24.357 25.205 24.638 24.905 L 28.968 20.575 C 29.211 20.332 29.305 20.107 29.305 19.938 L 29.324 19.938 L 29.324 15.065 C 29.305 13.866 28.349 12.891 27.15 12.891 L 27.15 12.891 Z " fill-rule="evenodd" fill="url(#_lgradient_5)"/><linearGradient id="_lgradient_6" x1="0" y1="0.5" x2="1" y2="0.5" gradientTransform="matrix(48,0,0,48,0,0)" gradientUnits="userSpaceOnUse"><stop offset="0%" stop-opacity="1" style="stop-color:rgb(17,153,142)"/><stop offset="99.1304347826087%" stop-opacity="1" style="stop-color:rgb(56,239,125)"/></linearGradient><path d=" M 6.48 33.65 L 6.48 33.65 C 7.015 34.616 6.666 35.835 5.7 36.37 L 5.7 36.37 C 4.734 36.905 3.515 36.551 2.98 35.58 L 2.98 35.58 C 1.02 32.04 0 28.05 0 24 C 0 17.64 2.53 11.53 7.03 7.03 C 11.53 2.53 17.64 0 24 0 C 30.36 0 36.47 2.53 40.97 7.03 C 45.47 11.53 48 17.64 48 24 C 48 28.05 46.98 32.04 45.02 35.58 L 45.02 35.58 C 44.485 36.551 43.266 36.905 42.3 36.37 L 42.3 36.37 C 41.334 35.835 40.985 34.616 41.52 33.65 L 41.52 33.65 C 43.15 30.7 44 27.38 44 24 C 44 18.7 41.89 13.61 38.14 9.86 C 34.39 6.11 29.3 4 24 4 C 18.7 4 13.61 6.11 9.86 9.86 C 6.11 13.61 4 18.7 4 24 C 4 27.38 4.85 30.7 6.48 33.65 Z  M 30.75 42.68 L 30.75 42.68 C 31.782 42.283 32.94 42.796 33.335 43.825 L 33.335 43.825 C 33.73 44.854 33.212 46.013 32.18 46.41 L 32.18 46.41 C 29.44 47.46 26.52 48 23.58 48 C 20.69 48 17.81 47.48 15.1 46.46 L 15.1 46.46 C 14.068 46.068 13.546 44.912 13.935 43.88 L 13.935 43.88 C 14.324 42.848 15.478 42.324 16.51 42.71 L 16.51 42.71 C 18.77 43.57 21.17 44 23.58 44 C 26.03 44 28.46 43.55 30.75 42.68 Z " fill-rule="evenodd" fill="url(#_lgradient_6)"/></svg>