<?xml version="1.0" encoding="UTF-8" standalone="no"?>
<!-- Generator: Gravit.io -->
<svg xmlns="http://www.w3.org/2000/svg" xmlns:xlink="http://www.w3.org/1999/xlink" style="isolation:isolate" viewBox="0 0 48 48" width="48pt" height="48pt"><linearGradient id="_lgradient_4" x1="0" y1="0.5" x2="0.9074880558539661" y2="0.9200778838291643" gradientTransform="matrix(47,0,0,46.826,0.5,0.674)" gradientUnits="userSpaceOnUse"><stop offset="0%" stop-opacity="1" style="stop-color:rgb(69,104,220)"/><stop offset="98.69565217391305%" stop-opacity="1" style="stop-color:rgb(176,106,179)"/></linearGradient><path d=" M 9.07 36.53 L 10.35 37.79 C 9.706 38.572 8.696 39.532 8.696 39.532 C 7.92 40.143 6.712 39.955 6.001 39.111 L 6 39.11 C 2.45 34.88 0.5 29.53 0.5 24 C 0.5 18.23 2.63 12.66 6.47 8.36 L 6.47 8.36 C 7.204 7.538 8.468 7.466 9.29 8.2 L 9.29 8.2 C 10.112 8.934 10.184 10.198 9.45 11.02 L 9.45 11.02 C 6.26 14.59 4.5 19.21 4.5 24 C 4.5 28.58 6.12 33.02 9.07 36.53 Z  M 26.49 4.66 L 26.49 4.66 C 25.392 4.517 24.614 3.513 24.755 2.42 L 24.755 2.42 C 24.896 1.327 25.897 0.552 26.99 0.69 L 26.99 0.69 C 32.66 1.42 37.87 4.18 41.65 8.47 C 45.42 12.76 47.5 18.29 47.5 24 C 47.5 30.23 45.02 36.21 40.62 40.62 C 36.21 45.02 30.23 47.5 24 47.5 C 21.33 47.5 18.68 47.05 16.16 46.16 L 16.16 46.16 C 15.117 45.79 14.57 44.645 14.94 43.605 L 14.94 43.605 C 15.31 42.565 16.452 42.02 17.49 42.39 L 17.49 42.39 C 19.58 43.12 21.78 43.5 24 43.5 C 29.17 43.5 34.13 41.44 37.79 37.79 C 41.44 34.13 43.5 29.17 43.5 24 C 43.5 19.26 41.78 14.68 38.64 11.12 C 35.51 7.56 31.19 5.26 26.49 4.66 Z " fill-rule="evenodd" fill="url(#_lgradient_4)"/><linearGradient id="_lgradient_5" x1="0" y1="0.5" x2="0.9074880558539661" y2="0.9200778838291643" gradientTransform="matrix(32.971,0,0,40.314,7.819,4.936)" gradientUnits="userSpaceOnUse"><stop offset="0%" stop-opacity="1" style="stop-color:rgb(69,104,220)"/><stop offset="98.69565217391305%" stop-opacity="1" style="stop-color:rgb(176,106,179)"/></linearGradient><path d=" M 22.836 14.982 C 22.596 15.122 22.411 15.34 22.31 15.6 C 22.19 15.91 22.19 16.25 22.32 16.55 C 22.45 16.86 22.7 17.1 23.01 17.22 L 23.01 17.22 C 23.72 17.5 24.46 17.69 25.21 17.79 C 25.8 17.86 26.38 17.89 26.97 17.89 C 27.32 17.89 27.66 17.91 28.01 17.95 C 28.15 17.96 28.3 18 28.43 18.06 C 28.77 18.39 29.06 18.77 29.29 19.19 C 29.64 19.8 29.96 20.42 30.25 21.06 C 30.53 21.68 30.84 22.29 31.17 22.9 C 31.51 23.54 31.92 24.14 32.4 24.69 C 32.91 25.25 33.5 25.73 34.15 26.12 C 34.75 26.49 35.36 26.84 35.99 27.17 C 36.47 27.42 36.94 27.68 37.39 27.97 C 37.53 28.06 37.66 28.16 37.78 28.27 C 37.8 28.29 37.82 28.31 37.83 28.33 C 38.13 28.92 38.28 29.58 38.29 30.24 C 38.29 30.76 38.19 31.28 37.99 31.76 C 37.83 32.18 37.59 32.56 37.27 32.88 C 37.06 33.1 36.8 33.26 36.51 33.38 C 36.21 33.49 35.89 33.54 35.57 33.54 C 35.17 33.53 34.78 33.48 34.4 33.37 C 33.95 33.25 33.52 33.08 33.1 32.87 C 32.42 32.54 31.77 32.16 31.14 31.74 C 30.7 31.42 30.27 31.09 29.86 30.73 C 29.86 30.73 29.85 30.73 29.85 30.72 L 29.66 30.56 C 29.65 30.56 29.65 30.55 29.64 30.55 C 29.03 30.05 28.32 29.67 27.56 29.45 C 26.78 29.22 25.98 29.1 25.17 29.09 C 25.17 29.09 25.17 29.09 25.17 29.09 L 24.97 29.09 C 24.95 29.09 24.94 29.09 24.93 29.09 C 24.38 29.1 23.83 29.13 23.28 29.19 C 22.82 29.25 22.36 29.28 21.9 29.28 C 21.59 29.29 21.29 29.25 20.99 29.17 C 20.77 29.11 20.57 28.99 20.4 28.84 C 20.1 28.55 19.89 28.18 19.79 27.77 C 19.68 27.2 19.63 26.62 19.65 26.04 C 19.65 26.03 19.65 26.02 19.65 26 L 19.65 25.7 L 19.66 25.42 C 19.68 24.61 19.61 23.81 19.45 23.02 C 19.39 22.7 19.2 22.41 18.92 22.23 C 18.65 22.04 18.31 21.98 17.98 22.04 C 17.66 22.11 17.37 22.3 17.19 22.57 C 17 22.85 16.94 23.19 17 23.51 C 17.12 24.12 17.18 24.74 17.16 25.36 C 17.16 25.37 17.16 25.38 17.16 25.39 L 17.15 25.7 L 17.15 25.98 C 17.13 26.75 17.19 27.53 17.35 28.29 C 17.55 29.19 18.01 30.02 18.69 30.66 C 19.15 31.09 19.71 31.4 20.31 31.58 C 20.84 31.73 21.39 31.79 21.95 31.78 C 22.005 31.779 22.06 31.778 22.115 31.775 C 22.132 31.78 22.151 31.78 22.17 31.778 C 22.17 31.778 22.17 31.779 22.17 31.78 C 22.19 33 22.34 34.23 22.63 35.42 C 22.93 36.72 23.34 38 23.85 39.23 C 24.34 40.44 24.96 41.59 25.71 42.66 C 26.05 43.15 26.44 43.62 26.87 44.04 C 27.27 44.45 27.73 44.8 28.23 45.08 C 28.52 45.25 28.86 45.29 29.18 45.21 C 29.5 45.12 29.77 44.91 29.94 44.62 C 30.1 44.34 30.15 43.99 30.06 43.67 C 29.97 43.35 29.76 43.08 29.47 42.92 L 29.47 42.92 C 29.17 42.74 28.89 42.52 28.64 42.27 C 28.31 41.95 28.02 41.6 27.76 41.23 C 27.12 40.31 26.58 39.32 26.16 38.28 C 25.7 37.17 25.33 36.02 25.07 34.85 C 24.821 33.844 24.691 32.808 24.67 31.763 C 24.679 31.762 24.687 31.76 24.696 31.759 C 24.685 31.747 24.676 31.735 24.671 31.724 C 24.67 31.687 24.671 31.649 24.674 31.611 C 24.672 31.605 24.677 31.601 24.68 31.596 L 24.68 31.596 C 24.771 31.591 24.86 31.59 24.95 31.59 L 25.13 31.59 C 25.72 31.6 26.3 31.69 26.86 31.85 C 27.29 31.98 27.7 32.19 28.05 32.48 L 28.23 32.63 C 28.71 33.04 29.2 33.43 29.71 33.79 C 30.44 34.29 31.21 34.73 32 35.11 C 32.55 35.39 33.13 35.61 33.73 35.78 C 34.32 35.95 34.93 36.03 35.55 36.04 C 36.18 36.04 36.8 35.93 37.39 35.71 C 38.02 35.48 38.58 35.11 39.05 34.64 C 39.6 34.08 40.03 33.41 40.32 32.68 C 40.63 31.9 40.79 31.07 40.79 30.23 C 40.78 29.17 40.53 28.12 40.05 27.17 C 39.89 26.87 39.68 26.61 39.43 26.39 C 39.21 26.2 38.98 26.02 38.73 25.86 C 38.22 25.53 37.68 25.23 37.14 24.95 C 36.57 24.65 36.01 24.33 35.46 23.99 C 35.02 23.72 34.61 23.4 34.26 23.02 C 33.92 22.62 33.62 22.18 33.37 21.71 C 33.07 21.16 32.78 20.59 32.52 20.02 C 32.2 19.32 31.85 18.63 31.47 17.96 C 31.06 17.22 30.52 16.56 29.88 16 C 29.39 15.71 28.85 15.53 28.28 15.46 C 28.003 15.428 27.722 15.408 27.44 15.397 C 27.457 15.402 27.474 15.409 27.49 15.43 C 27.328 14.717 27.262 13.989 27.28 13.26 C 27.28 12.89 27.29 12.52 27.3 12.15 C 27.31 11.83 27.32 11.5 27.32 11.18 C 27.32 10.84 27.31 10.49 27.27 10.16 C 27.24 9.79 27.15 9.43 27.01 9.08 C 26.79 8.62 26.51 8.18 26.17 7.78 C 25.84 7.36 25.49 6.97 25.12 6.59 C 24.79 6.24 24.44 5.91 24.07 5.6 C 23.94 5.49 23.79 5.38 23.64 5.27 C 23.4 5.09 23.1 4.97 22.79 4.94 C 22.42 4.91 22.05 5.04 21.79 5.3 C 21.52 5.56 21.37 5.92 21.39 6.29 C 21.39 6.34 21.39 6.38 21.4 6.43 L 21.41 6.48 C 21.41 6.51 21.42 6.54 21.43 6.57 C 21.5 6.9 21.53 7.25 21.52 7.6 C 21.51 8.41 21.45 9.22 21.35 10.02 C 21.26 10.77 21.16 11.51 21.04 12.24 C 20.75 12.22 20.46 12.2 20.17 12.2 C 19.83 12.21 19.5 12.23 19.16 12.28 C 18.92 11.92 18.69 11.55 18.49 11.16 C 18.13 10.5 17.8 9.83 17.48 9.15 C 17.24 8.64 16.99 8.13 16.71 7.63 C 16.61 7.43 16.48 7.24 16.34 7.06 C 16.1 6.71 15.73 6.48 15.31 6.41 C 15.18 6.39 15.04 6.39 14.91 6.41 L 14.88 6.41 C 14.79 6.42 14.7 6.45 14.62 6.48 C 14.34 6.58 14.1 6.76 13.92 7 C 13.81 7.15 13.71 7.31 13.63 7.49 C 13.48 7.81 13.37 8.16 13.3 8.51 C 13.12 9.34 13.03 10.18 13.04 11.03 C 13.03 11.75 13.1 12.48 13.25 13.18 C 13.36 13.6 13.52 14.01 13.72 14.39 C 13.93 14.87 14.16 15.34 14.39 15.81 C 14.41 15.84 14.43 15.88 14.44 15.92 C 14.25 16.09 14.06 16.26 13.86 16.41 C 13.45 16.72 13.07 17.06 12.72 17.43 C 12.29 17.89 11.95 18.43 11.7 19.01 C 11.52 19.47 11.37 19.94 11.26 20.42 C 11.14 20.94 11.04 21.47 10.96 22 C 10.8 23.2 10.66 24.4 10.56 25.61 C 10.47 26.6 10.37 27.6 10.25 28.59 C 10.14 29.57 9.99 30.55 9.8 31.53 C 9.62 32.43 9.38 33.31 9.08 34.18 C 8.82 34.93 8.47 35.65 8.03 36.31 C 7.85 36.59 7.78 36.92 7.84 37.25 C 7.91 37.57 8.1 37.86 8.38 38.04 C 8.66 38.22 8.99 38.29 9.32 38.23 C 9.64 38.16 9.93 37.97 10.11 37.69 C 10.67 36.85 11.11 35.95 11.44 35 C 11.78 34.02 12.05 33.02 12.25 32 C 12.45 30.97 12.61 29.93 12.74 28.88 C 12.85 27.86 12.96 26.85 13.05 25.83 C 13.15 24.66 13.28 23.5 13.44 22.35 C 13.51 21.88 13.59 21.43 13.7 20.97 C 13.77 20.63 13.88 20.3 14.01 19.97 C 14.14 19.67 14.32 19.39 14.54 19.14 C 14.8 18.87 15.09 18.62 15.38 18.39 C 16.14 17.81 16.83 17.14 17.44 16.41 C 17.18 15.84 16.91 15.27 16.63 14.71 C 16.4 14.24 16.18 13.77 15.96 13.29 C 15.85 13.07 15.75 12.84 15.68 12.6 C 15.58 12.08 15.53 11.56 15.54 11.03 C 15.54 10.98 15.54 10.94 15.54 10.89 L 15.54 10.89 L 15.54 10.89 C 15.78 11.37 16.02 11.85 16.28 12.33 C 16.8 13.32 17.44 14.24 18.19 15.06 C 18.83 14.85 19.5 14.73 20.18 14.7 C 21.049 14.727 21.91 14.842 22.756 15.048 C 22.778 15.017 22.804 14.995 22.836 14.982 Z  M 23.095 14.897 C 23.404 13.381 23.649 11.865 23.83 10.33 C 23.89 9.9 23.93 9.46 23.96 9.02 C 24.06 9.14 24.15 9.25 24.24 9.36 C 24.43 9.59 24.59 9.83 24.72 10.09 C 24.76 10.19 24.78 10.28 24.78 10.38 C 24.81 10.64 24.82 10.9 24.82 11.16 C 24.82 11.46 24.81 11.77 24.8 12.08 C 24.79 12.46 24.79 12.84 24.78 13.22 C 24.767 13.894 24.808 14.573 24.914 15.24 C 24.914 15.219 24.925 15.208 24.953 15.209 C 24.605 15.136 24.263 15.031 23.93 14.9 C 23.63 14.78 23.28 14.78 22.98 14.91 C 22.97 14.914 22.961 14.918 22.952 14.924 C 22.912 14.94 22.873 14.96 23.095 14.897 Z " fill-rule="evenodd" fill="url(#_lgradient_5)"/></svg>