<?xml version="1.0" encoding="UTF-8" standalone="no"?><!-- Generator: Gravit.io --><svg xmlns="http://www.w3.org/2000/svg" xmlns:xlink="http://www.w3.org/1999/xlink" style="isolation:isolate" viewBox="0 0 48 48" width="48pt" height="48pt"><linearGradient id="_lgradient_56" x1="0" y1="0.5" x2="0.9074880558539661" y2="0.9200778838291643" gradientTransform="matrix(49.077,0,0,49.651,-1.017,-0.909)" gradientUnits="userSpaceOnUse"><stop offset="0%" stop-opacity="1" style="stop-color:rgb(0,196,255)"/><stop offset="83.88839793817618%" stop-opacity="1" style="stop-color:rgb(0,114,255)"/></linearGradient><path d=" M 20.509 12.697 L 20.509 12.697 C 20.231 13.956 18.981 14.758 17.719 14.487 L 17.719 14.487 C 16.456 14.216 15.657 12.968 15.934 11.703 L 15.934 11.703 L 17.418 4.81 C 18.097 1.654 20.503 0.944 22.787 3.226 L 30.956 11.387 L 42.229 10.477 C 45.447 10.217 46.884 12.349 45.436 15.234 L 40.502 25.063 L 44.328 34.978 C 45.49 37.99 43.847 40.016 40.66 39.499 L 29.342 37.663 L 20.403 45.023 C 17.911 47.076 15.574 46.14 15.187 42.935 L 13.887 32.164 L 3.917 25.818 C 1.194 24.084 1.396 21.655 4.369 20.396 L 12.553 16.932 L 12.553 16.932 C 13.742 16.429 15.115 16.984 15.619 18.172 L 15.619 18.172 C 16.122 19.36 15.567 20.734 14.378 21.238 L 14.378 21.238 L 9.009 23.519 L 18.263 29.403 L 19.503 39.699 L 28.008 32.703 L 39.134 34.504 L 35.39 24.806 L 40.151 15.341 L 29.178 16.23 L 21.41 8.474 L 20.509 12.697 Z " fill="url(#_lgradient_56)"/></svg>