<?xml version="1.0" encoding="UTF-8" standalone="no"?>
<!-- Generator: Gravit.io -->
<svg xmlns="http://www.w3.org/2000/svg" xmlns:xlink="http://www.w3.org/1999/xlink" style="isolation:isolate" viewBox="0 0 48 48" width="48pt" height="48pt"><linearGradient id="_lgradient_9" x1="0" y1="0.5" x2="1" y2="0.5" gradientTransform="matrix(33,0,0,33,7.5,7.5)" gradientUnits="userSpaceOnUse"><stop offset="0%" stop-opacity="1" style="stop-color:rgb(71,118,230)"/><stop offset="98.26086956521739%" stop-opacity="1" style="stop-color:rgb(142,84,233)"/></linearGradient><path d=" M 22.216 7.595 C 15.389 8.366 9.727 13.295 8.02 19.935 C 7.647 21.374 7.692 21.759 8.314 23.028 C 9.218 24.863 10.653 26.37 12.27 27.186 C 13.49 27.809 14.349 28.002 16.056 28.059 C 17.672 28.115 18.825 27.979 20.261 27.572 L 20.848 27.402 L 20.848 25.169 C 20.848 22.711 21.029 21.068 21.493 19.277 C 22.657 14.79 25.494 11.64 29.269 10.655 C 30.365 10.36 31.902 10.247 32.761 10.394 C 33.586 10.53 33.507 10.428 32.106 9.635 C 29.167 7.958 25.573 7.221 22.216 7.595 L 22.216 7.595 Z  M 30.829 11.096 C 28.738 11.391 26.714 12.468 25.46 13.952 C 24.364 15.266 23.764 16.377 23.12 18.326 L 22.679 19.629 L 24.115 20.433 C 26.647 21.849 28.274 23.073 29.857 24.705 C 31.959 26.903 33.1 29.135 33.417 31.719 C 33.688 33.951 32.987 36.591 31.665 38.324 C 31.439 38.619 31.303 38.857 31.349 38.857 C 31.529 38.857 33.349 37.713 34.174 37.078 C 35.271 36.24 36.887 34.506 37.633 33.373 C 39.905 29.951 40.877 25.883 40.368 22.019 C 39.859 18.167 38.266 14.949 35.519 12.218 C 34.739 11.436 34.445 11.221 34.106 11.164 C 33.315 11.04 31.541 10.995 30.829 11.096 L 30.829 11.096 Z  M 7.568 24.693 C 7.715 28.999 9.286 32.602 12.371 35.696 C 14.315 37.633 16.316 38.891 18.746 39.707 C 20.769 40.375 21.572 40.5 24.024 40.5 C 26.421 40.5 27.2 40.387 29.19 39.752 C 30.377 39.367 30.546 39.208 31.371 37.769 C 32.196 36.33 32.524 35.186 32.581 33.532 C 32.637 32.33 32.603 31.957 32.4 31.163 C 31.948 29.339 30.795 27.424 29.246 25.895 L 28.568 25.237 L 27.506 25.883 C 25.109 27.379 22.103 28.614 19.786 29.067 C 18.283 29.362 15.909 29.339 14.609 29.022 C 11.512 28.251 9.184 26.404 7.85 23.64 L 7.5 22.937 L 7.568 24.693 Z " fill-rule="evenodd" fill="url(#_lgradient_9)"/><linearGradient id="_lgradient_10" x1="0" y1="0.5" x2="1" y2="0.5" gradientTransform="matrix(48,0,0,48,0,0)" gradientUnits="userSpaceOnUse"><stop offset="0%" stop-opacity="1" style="stop-color:rgb(71,118,230)"/><stop offset="98.26086956521739%" stop-opacity="1" style="stop-color:rgb(142,84,233)"/></linearGradient><path d=" M 43.01 17.78 L 43.01 17.78 C 42.668 16.731 43.241 15.602 44.29 15.26 L 44.29 15.26 C 45.339 14.918 46.468 15.491 46.81 16.54 L 46.81 16.54 C 47.6 18.94 48 21.45 48 23.97 C 48 32.32 43.66 40.1 36.54 44.46 C 32.78 46.77 28.44 48 24.03 48 C 15.68 48 7.9 43.66 3.54 36.54 C 1.23 32.78 0 28.45 0 24.03 C 0 15.68 4.34 7.9 11.46 3.54 C 15.22 1.23 19.55 0 23.97 0 C 29.61 0 35.08 1.98 39.41 5.59 L 39.41 5.59 C 40.254 6.302 40.366 7.568 39.66 8.415 L 39.66 8.415 C 38.954 9.262 37.69 9.372 36.84 8.66 L 36.84 8.66 C 33.23 5.65 28.68 4 23.97 4 C 20.3 4 16.69 5.02 13.55 6.95 C 7.62 10.59 4 17.07 4 24.03 C 4 27.71 5.02 31.31 6.95 34.45 C 10.59 40.38 17.07 44 24.03 44 C 27.7 44 31.31 42.98 34.45 41.05 C 40.38 37.41 44 30.93 44 23.97 C 44 21.87 43.67 19.78 43.01 17.78 Z " fill="url(#_lgradient_10)"/></svg>