<?xml version="1.0" encoding="UTF-8" standalone="no"?><!-- Generator: Gravit.io --><svg xmlns="http://www.w3.org/2000/svg" xmlns:xlink="http://www.w3.org/1999/xlink" style="isolation:isolate" viewBox="0 0 48 48" width="48pt" height="48pt"><linearGradient id="_lgradient_3" x1="0" y1="0.5" x2="1" y2="0.5" gradientTransform="matrix(47.5,0,0,47.5,0.25,0.25)" gradientUnits="userSpaceOnUse"><stop offset="0%" stop-opacity="1" style="stop-color:rgb(34,216,143)"/><stop offset="51.73913043478261%" stop-opacity="1" style="stop-color:rgb(147,135,218)"/><stop offset="98.69565217391305%" stop-opacity="1" style="stop-color:rgb(255,89,230)"/></linearGradient><path d=" M 45.091 26.089 C 45.091 26.218 45.001 26.327 44.872 26.347 L 40.705 27.041 C 40.179 27.131 39.762 27.518 39.633 28.024 C 39.256 29.482 38.681 30.881 37.907 32.181 C 37.639 32.638 37.658 33.203 37.966 33.64 L 40.417 37.093 C 40.486 37.192 40.477 37.341 40.387 37.43 L 37.43 40.387 C 37.361 40.457 37.291 40.467 37.242 40.467 C 37.182 40.467 37.133 40.447 37.093 40.417 L 33.65 37.966 C 33.223 37.659 32.647 37.639 32.191 37.907 C 30.891 38.681 29.492 39.256 28.033 39.633 C 27.517 39.762 27.13 40.189 27.051 40.705 L 26.347 44.872 C 26.327 45.001 26.218 45.091 26.089 45.091 L 21.911 45.091 C 21.782 45.091 21.673 45.001 21.653 44.872 L 20.959 40.705 C 20.869 40.179 20.482 39.762 19.976 39.633 C 18.557 39.266 17.188 38.7 15.908 37.966 C 15.7 37.847 15.461 37.788 15.233 37.788 C 14.965 37.788 14.687 37.867 14.459 38.036 L 10.986 40.506 C 10.937 40.536 10.887 40.556 10.837 40.556 C 10.798 40.556 10.718 40.546 10.649 40.477 L 7.692 37.52 C 7.603 37.43 7.593 37.291 7.662 37.182 L 10.103 33.759 C 10.411 33.322 10.431 32.747 10.163 32.29 C 9.389 31 8.793 29.601 8.416 28.143 C 8.277 27.637 7.861 27.25 7.345 27.16 L 3.147 26.446 C 3.018 26.426 2.929 26.317 2.929 26.188 L 2.929 22.01 C 2.929 21.882 3.018 21.772 3.147 21.753 L 7.285 21.058 C 7.811 20.969 8.238 20.582 8.367 20.066 C 8.734 18.607 9.299 17.198 10.063 15.898 C 10.331 15.442 10.302 14.876 9.994 14.449 L 7.523 10.976 C 7.454 10.877 7.464 10.728 7.553 10.639 L 10.51 7.682 C 10.579 7.613 10.649 7.603 10.698 7.603 C 10.758 7.603 10.808 7.623 10.847 7.652 L 14.271 10.093 C 14.707 10.401 15.283 10.421 15.739 10.153 C 17.029 9.379 18.428 8.784 19.887 8.406 C 20.393 8.268 20.78 7.851 20.869 7.335 L 21.584 3.138 C 21.604 3.009 21.713 2.919 21.842 2.919 L 26.019 2.919 C 26.148 2.919 26.257 3.009 26.277 3.138 L 26.972 7.275 C 27.061 7.801 27.448 8.228 27.964 8.357 C 29.462 8.734 30.891 9.319 32.221 10.103 C 32.677 10.371 33.243 10.351 33.679 10.044 L 37.103 7.583 C 37.152 7.553 37.202 7.533 37.252 7.533 C 37.291 7.533 37.371 7.543 37.44 7.613 L 40.397 10.57 C 40.486 10.659 40.496 10.798 40.427 10.907 L 37.976 14.35 C 37.668 14.777 37.649 15.352 37.916 15.809 C 38.69 17.109 39.266 18.508 39.643 19.966 C 39.772 20.482 40.199 20.869 40.715 20.949 L 44.882 21.653 C 45.011 21.673 45.1 21.782 45.1 21.911 L 45.1 26.089 L 45.091 26.089 L 45.091 26.089 Z  M 45.319 19.014 L 41.985 18.448 C 41.637 17.327 41.191 16.245 40.645 15.213 L 42.61 12.465 C 43.443 11.294 43.314 9.696 42.292 8.684 L 39.335 5.727 C 38.78 5.172 38.045 4.864 37.262 4.864 C 36.646 4.864 36.061 5.053 35.565 5.41 L 32.806 7.375 C 31.735 6.809 30.613 6.343 29.452 5.995 L 28.897 2.701 C 28.659 1.282 27.438 0.25 25.999 0.25 L 21.822 0.25 C 20.383 0.25 19.163 1.282 18.924 2.701 L 18.349 6.075 C 17.238 6.422 16.156 6.878 15.124 7.434 L 12.395 5.469 C 11.899 5.112 11.304 4.924 10.689 4.924 C 9.905 4.924 9.16 5.231 8.615 5.787 L 5.648 8.744 C 4.636 9.756 4.497 11.354 5.33 12.524 L 7.315 15.313 C 6.769 16.355 6.332 17.436 5.995 18.557 L 2.701 19.113 C 1.282 19.351 0.25 20.572 0.25 22.01 L 0.25 26.188 C 0.25 27.627 1.282 28.847 2.701 29.085 L 6.074 29.661 C 6.422 30.772 6.878 31.854 7.434 32.886 L 5.479 35.605 C 4.646 36.775 4.775 38.373 5.797 39.385 L 8.754 42.342 C 9.309 42.898 10.044 43.205 10.827 43.205 C 11.443 43.205 12.028 43.017 12.524 42.66 L 15.313 40.675 C 16.315 41.201 17.367 41.628 18.448 41.965 L 19.004 45.299 C 19.242 46.718 20.462 47.75 21.901 47.75 L 26.089 47.75 C 27.527 47.75 28.748 46.718 28.986 45.299 L 29.552 41.965 C 30.673 41.618 31.754 41.171 32.786 40.625 L 35.535 42.59 C 36.031 42.947 36.627 43.136 37.242 43.136 L 37.242 43.136 C 38.026 43.136 38.76 42.828 39.316 42.273 L 42.273 39.316 C 43.285 38.304 43.424 36.706 42.59 35.535 L 40.625 32.777 C 41.171 31.735 41.628 30.653 41.965 29.542 L 45.299 28.986 C 46.718 28.748 47.75 27.528 47.75 26.089 L 47.75 21.911 C 47.77 20.472 46.738 19.252 45.319 19.014 L 45.319 19.014 L 45.319 19.014 Z  M 19.01 26.822 L 19.01 29.156 L 9.313 24.879 L 9.313 23.482 L 19.01 18.639 L 19.01 20.982 L 12.33 24.078 L 19.01 26.822 L 19.01 26.822 Z  M 25.328 16.861 L 28.033 16.861 L 22.711 31.139 L 20.006 31.139 L 25.328 16.861 L 25.328 16.861 Z  M 28.99 29.156 L 28.99 26.822 L 35.67 24.078 L 28.99 20.982 L 28.99 18.639 L 38.687 23.482 L 38.687 24.879 L 28.99 29.156 L 28.99 29.156 Z " fill-rule="evenodd" fill="url(#_lgradient_3)"/></svg>