<?xml version="1.0" encoding="UTF-8" standalone="no"?><!-- Generator: Gravit.io --><svg xmlns="http://www.w3.org/2000/svg" xmlns:xlink="http://www.w3.org/1999/xlink" style="isolation:isolate" viewBox="0 0 48 48" width="48pt" height="48pt"><linearGradient id="_lgradient_19" x1="-0.014458464773922156" y1="0.009839246119734024" x2="1.0164565923220248" y2="1.0722930524759795" gradientTransform="matrix(45,0,0,45.004,1.5,1.498)" gradientUnits="userSpaceOnUse"><stop offset="0%" stop-opacity="1" style="stop-color:rgb(249,212,35)"/><stop offset="51.56237565086822%" stop-opacity="1" style="stop-color:rgb(255,78,80)"/><stop offset="99.1304347826087%" stop-opacity="1" style="stop-color:rgb(138,35,135)"/></linearGradient><path d=" M 23.996 1.498 C 21.992 6.409 20.786 9.619 18.555 14.384 C 19.923 15.833 21.599 17.523 24.325 19.429 C 21.394 18.223 19.394 17.011 17.9 15.755 C 15.046 21.711 10.576 30.197 1.5 46.502 C 8.462 42.483 12.296 39.979 17.268 38.96 C 15.808 37.318 15 35.198 14.996 33.001 C 14.996 30.614 15.944 28.324 17.632 26.636 C 19.319 24.948 21.609 24 23.996 24 C 28.966 24 32.996 28.03 32.996 33.001 C 32.991 35.202 32.179 37.326 30.715 38.969 C 35.69 40 39.579 42.507 46.5 46.502 C 45.112 43.948 43.873 41.645 42.69 39.453 C 40.827 38.009 38.884 36.129 34.92 34.095 C 37.645 34.803 39.596 35.617 41.117 36.53 C 29.093 14.145 28.12 11.174 23.996 1.498 Z  M 23.996 28.5 L 21.746 33.001 L 17.246 33.001 L 20.247 36.003 L 17.246 42.002 L 23.996 39.752 L 30.746 42.002 L 27.744 36.003 L 30.746 33.001 L 26.246 33.001 L 23.996 28.5 Z " fill-rule="evenodd" fill="url(#_lgradient_19)"/></svg>