<?xml version="1.0" encoding="UTF-8" standalone="no"?><!-- Generator: Gravit.io --><svg xmlns="http://www.w3.org/2000/svg" xmlns:xlink="http://www.w3.org/1999/xlink" style="isolation:isolate" viewBox="0 0 48 48" width="48pt" height="48pt"><linearGradient id="_lgradient_41" x1="0" y1="0.5" x2="2.2930751085278067" y2="0.5294039253142848" gradientTransform="matrix(22.51,0,0,23.5,0.352,12.25)" gradientUnits="userSpaceOnUse"><stop offset="0%" stop-opacity="1" style="stop-color:rgb(24,208,173)"/><stop offset="90.44964029999998%" stop-opacity="1" style="stop-color:rgb(7,195,242)"/></linearGradient><path d=" M 18.972 28.56 L 19.942 27.1 L 22.862 29.04 L 21.892 30.5 C 19.712 33.77 16.032 35.75 12.102 35.75 C 8.992 35.75 5.992 34.51 3.792 32.31 C 1.592 30.11 0.352 27.12 0.352 24 C 0.352 20.88 1.592 17.89 3.792 15.69 C 5.992 13.49 8.982 12.25 12.102 12.25 C 14.732 12.25 17.282 13.13 19.352 14.76 L 19.352 14.76 C 20.114 15.356 20.248 16.456 19.652 17.215 L 19.652 17.215 C 19.056 17.974 17.954 18.106 17.192 17.51 L 17.192 17.51 C 15.742 16.37 13.952 15.75 12.102 15.75 C 9.912 15.75 7.812 16.62 6.272 18.17 C 4.722 19.71 3.852 21.81 3.852 24 C 3.852 26.19 4.722 28.29 6.272 29.83 C 7.812 31.38 9.912 32.25 12.102 32.25 C 14.862 32.25 17.452 30.86 18.972 28.56 Z  M 8.819 22.804 L 14.56 22.804 C 15.089 22.804 15.517 23.233 15.517 23.761 L 15.517 24.239 C 15.517 24.767 15.089 25.196 14.56 25.196 L 8.819 25.196 C 8.291 25.196 7.862 24.767 7.862 24.239 L 7.862 23.761 C 7.862 23.233 8.291 22.804 8.819 22.804 Z " fill-rule="evenodd" fill="url(#_lgradient_41)"/><linearGradient id="_lgradient_42" x1="-0.6197934288048712" y1="0.476063829787234" x2="1.0654424955715707" y2="0.5025273625700902" gradientTransform="matrix(29.006,0,0,23.5,18.642,12.25)" gradientUnits="userSpaceOnUse"><stop offset="0%" stop-opacity="1" style="stop-color:rgb(24,208,173)"/><stop offset="90.44964029999998%" stop-opacity="1" style="stop-color:rgb(7,195,242)"/></linearGradient><path d=" M 35.374 22.804 L 33.7 22.804 L 33.7 22.804 C 33.172 22.804 32.743 23.233 32.743 23.761 L 32.743 24.239 C 32.743 24.767 33.172 25.196 33.7 25.196 L 35.374 25.196 L 35.374 26.871 C 35.374 27.399 35.803 27.828 36.331 27.828 L 36.81 27.828 C 37.338 27.828 37.767 27.399 37.767 26.871 L 37.767 25.196 L 39.442 25.196 C 39.97 25.196 40.399 24.767 40.399 24.239 L 40.399 23.761 C 40.399 23.233 39.97 22.804 39.442 22.804 L 37.767 22.804 L 37.767 21.129 C 37.767 20.601 37.338 20.172 36.81 20.172 L 36.331 20.172 C 35.803 20.172 35.374 20.601 35.374 21.129 L 35.374 22.804 Z  M 26.257 23.928 L 29.549 29.01 C 31.102 31.039 33.525 32.25 36.102 32.25 C 38.482 32.25 40.752 31.22 42.322 29.42 L 42.322 29.42 C 42.957 28.691 44.064 28.615 44.792 29.25 L 44.792 29.25 C 45.521 29.885 45.597 30.991 44.962 31.72 L 44.962 31.72 C 42.732 34.28 39.492 35.75 36.102 35.75 C 32.358 35.75 28.852 33.962 26.643 30.969 L 26.643 30.969 L 26.642 30.97 L 26.628 30.948 C 26.495 30.766 26.366 30.58 26.242 30.39 L 25.292 28.93 L 25.312 28.917 L 24.138 27.106 L 21.562 30.97 L 20.102 30 L 20.102 30 L 18.642 29.03 L 25.782 18.32 L 26.262 17.59 C 26.36 17.44 26.46 17.292 26.564 17.147 L 26.642 17.03 L 26.647 17.033 C 28.846 14.037 32.359 12.25 36.102 12.25 C 38.802 12.25 41.432 13.18 43.522 14.89 C 45.622 16.59 47.062 18.97 47.612 21.62 L 47.612 21.62 C 47.805 22.569 47.194 23.497 46.247 23.69 L 46.247 23.69 C 45.301 23.883 44.375 23.274 44.182 22.33 L 44.182 22.33 C 43.802 20.47 42.782 18.8 41.312 17.6 C 39.842 16.4 38.002 15.75 36.102 15.75 C 33.509 15.75 31.08 16.968 29.529 19.019 L 29.529 19.019 L 26.257 23.928 L 26.257 23.928 Z " fill-rule="evenodd" fill="url(#_lgradient_42)"/></svg>