<?xml version="1.0" encoding="UTF-8" standalone="no"?> <svg xmlns:xlink="http://www.w3.org/1999/xlink" xmlns="http://www.w3.org/2000/svg" xmlns:svg="http://www.w3.org/2000/svg" style="isolation:isolate" viewBox="0 0 48 48" width="48pt" height="48pt" version="1.1" id="svg9"><defs id="defs13"><linearGradient xlink:href="#linearGradient29045-3" id="linearGradient27948" x1="302.36658" y1="138.92476" x2="246.80409" y2="202.42476" gradientUnits="userSpaceOnUse"/><linearGradient id="linearGradient29045-3"><stop style="stop-color:#a553a8;stop-opacity:1" offset="0" id="stop29041"/><stop style="stop-color:#00ffff;stop-opacity:1" offset="1" id="stop29043"/></linearGradient><linearGradient xlink:href="#linearGradient2000" id="linearGradient30855" gradientUnits="userSpaceOnUse" x1="280.79636" y1="172.75725" x2="294.04291" y2="181.85429" gradientTransform="translate(-23.813863)"/><linearGradient id="linearGradient2000"><stop style="stop-color:#a900ff;stop-opacity:1" offset="0" id="stop1996"/><stop style="stop-color:#fff100;stop-opacity:1" offset="1" id="stop1998"/></linearGradient><linearGradient xlink:href="#linearGradient1484" id="linearGradient28611" gradientUnits="userSpaceOnUse" x1="284.5072" y1="170.67476" x2="284.50723" y2="154.79976"/><linearGradient id="linearGradient1484"><stop style="stop-color:#a900ff;stop-opacity:1" offset="0" id="stop1480"/><stop style="stop-color:#00ff85;stop-opacity:1" offset="1" id="stop1482"/></linearGradient><linearGradient xlink:href="#linearGradient2000" id="linearGradient28651" gradientUnits="userSpaceOnUse" x1="280.79636" y1="172.75725" x2="294.04291" y2="181.85429"/><linearGradient xlink:href="#linearGradient1484" id="linearGradient28959" gradientUnits="userSpaceOnUse" x1="210" y1="240" x2="1.1368684e-13" y2="0" gradientTransform="matrix(0.26458333,0,0,0.26458333,246.51732,138.92449)"/><linearGradient xlink:href="#linearGradient1484" id="linearGradient28609" gradientUnits="userSpaceOnUse" x1="67.5" y1="120" x2="67.5" y2="60"/></defs><linearGradient id="_lgradient_56" x1="0" y1="0.5" x2="0.9074880558539661" y2="0.9200778838291643" gradientTransform="matrix(49.077,0,0,49.651,-1.017,-0.909)" gradientUnits="userSpaceOnUse"><stop offset="0%" stop-opacity="1" style="stop-color:rgb(0,196,255)" id="stop2"/><stop offset="83.88839793817618%" stop-opacity="1" style="stop-color:rgb(0,114,255)" id="stop4"/></linearGradient><g id="g26117" transform="matrix(0.69642608,0,0,0.69642608,-167.02868,-94.862163)" style="fill:url(#linearGradient27948);fill-opacity:1"><path id="path30853" style="fill:url(#linearGradient30855);fill-opacity:1;stroke:none;stroke-width:0.264583" d="m 260.69336,174.64351 c -1.09935,0 -1.98438,0.88503 -1.98438,1.98437 0,1.09935 0.88503,1.98438 1.98438,1.98438 h 3.96875 c 1.09934,0 1.98437,-0.88503 1.98437,-1.98438 0,-1.09934 -0.88503,-1.98437 -1.98437,-1.98437 z"/><path id="path26107" style="fill:url(#linearGradient28611);fill-opacity:1;stroke:none;stroke-width:0.264583" d="m 284.50722,154.79976 c -1.09935,0 -1.98438,0.88503 -1.98438,1.98437 v 11.90625 c 0,1.09935 0.88503,1.98438 1.98438,1.98438 1.09934,0 1.98437,-0.88503 1.98437,-1.98438 v -11.90625 c 0,-1.09934 -0.88503,-1.98437 -1.98437,-1.98437 z"/><path id="path26109" style="fill:url(#linearGradient28651);fill-opacity:1;stroke:none;stroke-width:0.264583" d="m 284.50722,174.64351 c -1.09935,0 -1.98438,0.88503 -1.98438,1.98437 0,1.09935 0.88503,1.98438 1.98438,1.98438 h 3.96875 c 1.09934,0 1.98437,-0.88503 1.98437,-1.98438 0,-1.09934 -0.88503,-1.98437 -1.98437,-1.98437 z"/><path id="path26111" style="fill:url(#linearGradient28959);fill-opacity:1;stroke:none;stroke-width:0.264583" d="m 254.45482,138.92449 c -4.39737,0 -7.9375,3.54013 -7.9375,7.9375 v 47.625 c 0,4.39737 3.54013,7.9375 7.9375,7.9375 h 19.84375 19.84375 c 4.39738,0 7.9375,-3.54013 7.9375,-7.9375 v -47.625 c 0,-4.39737 -3.54012,-7.9375 -7.9375,-7.9375 h -19.84375 z m 2.83497,3.96875 h 17.00878 17.00878 c 3.76918,0 6.80372,2.43384 6.80372,5.45703 v 32.74219 c 0,3.02319 -3.03454,5.45703 -6.80372,5.45703 h -17.00878 -17.00878 c -3.76918,0 -6.80372,-2.43384 -6.80372,-5.45703 v -32.74219 c 0,-3.02319 3.03454,-5.45703 6.80372,-5.45703 z"/><path id="path26115" style="fill:url(#linearGradient28609);fill-opacity:1;stroke:none;stroke-width:0.999999" d="M 67.5,60 C 63.345,60 60,63.345 60,67.5 v 45 c 0,4.155 3.345,7.5 7.5,7.5 4.155,0 7.5,-3.345 7.5,-7.5 v -45 C 75,63.345 71.655,60 67.5,60 Z" transform="matrix(0.26458333,0,0,0.26458333,246.80409,138.92476)"/></g></svg>
