<?xml version="1.0" encoding="UTF-8" standalone="no"?><!-- Generator: Gravit.io --><svg xmlns="http://www.w3.org/2000/svg" xmlns:xlink="http://www.w3.org/1999/xlink" style="isolation:isolate" viewBox="0 0 48 48" width="48pt" height="48pt"><linearGradient id="_lgradient_18" x1="0.4839594684914077" y1="1.017857142857143" x2="0.504275119631145" y2="0.03359030837004395"><stop offset="0%" stop-opacity="1" style="stop-color:rgb(52,148,230)"/><stop offset="98.69565217391305%" stop-opacity="1" style="stop-color:rgb(236,110,173)"/></linearGradient><path d=" M 29.205 14.994 L 29.205 14.994 C 28.05 11.066 26.148 8.513 24 8.513 C 21.854 8.513 19.953 11.061 18.802 14.996 L 18.802 14.996 C 20.43 15.371 22.203 15.981 24.025 16.802 L 24.025 16.802 C 22.962 17.262 21.876 17.818 20.792 18.444 C 19.708 19.07 18.684 19.732 17.753 20.423 L 17.753 20.423 C 17.953 18.434 18.312 16.594 18.802 14.996 L 18.802 14.996 L 18.802 14.996 C 14.818 14.026 11.661 14.398 10.588 16.256 C 9.514 18.116 10.773 21.041 13.599 24.004 L 13.599 24.004 C 10.77 26.967 9.515 29.886 10.588 31.744 C 11.66 33.601 14.815 33.974 18.795 33.006 L 18.795 33.006 C 19.95 36.934 21.852 39.487 24 39.487 C 26.146 39.487 28.047 36.939 29.198 33.004 L 29.198 33.004 C 33.182 33.974 36.339 33.602 37.412 31.744 C 38.486 29.884 37.227 26.959 34.401 23.996 L 34.401 23.996 C 37.23 21.033 38.485 18.114 37.412 16.256 C 36.34 14.399 33.185 14.026 29.205 14.994 L 29.205 14.994 Z  M 23.975 31.198 L 23.975 31.198 C 25.797 32.019 27.57 32.629 29.198 33.004 L 29.198 33.004 C 29.688 31.406 30.047 29.566 30.247 27.577 L 30.247 27.577 C 29.316 28.268 28.292 28.93 27.208 29.556 C 26.124 30.182 25.038 30.738 23.975 31.198 L 23.975 31.198 Z  M 29.205 14.994 L 29.205 14.994 C 29.683 16.592 30.033 18.425 30.224 20.407 L 30.224 20.407 C 31.844 21.563 33.257 22.782 34.401 23.996 L 34.401 23.996 C 33.283 25.208 31.878 26.427 30.247 27.577 L 30.247 27.577 C 30.356 26.427 30.416 25.23 30.416 24 C 30.416 22.758 30.355 21.55 30.224 20.407 L 30.224 20.407 C 29.3 19.721 28.284 19.065 27.208 18.444 C 26.143 17.828 25.076 17.282 24.025 16.802 L 24.025 16.802 C 25.837 15.964 27.596 15.357 29.205 14.994 L 29.205 14.994 Z  M 18.795 33.006 L 18.795 33.006 C 18.317 31.408 17.967 29.575 17.776 27.593 L 17.776 27.593 C 16.156 26.437 14.743 25.218 13.599 24.004 L 13.599 24.004 C 14.717 22.792 16.122 21.573 17.753 20.423 L 17.753 20.423 C 17.644 21.573 17.584 22.77 17.584 24 C 17.584 25.242 17.645 26.45 17.776 27.593 L 17.776 27.593 C 18.7 28.279 19.716 28.935 20.792 29.556 C 21.857 30.172 22.924 30.718 23.975 31.198 L 23.975 31.198 C 22.163 32.036 20.404 32.643 18.795 33.006 L 18.795 33.006 Z " fill-rule="evenodd" fill="none" vector-effect="non-scaling-stroke" stroke-width="2.5" stroke="url(#_lgradient_18)" stroke-linejoin="miter" stroke-linecap="square" stroke-miterlimit="3"/><linearGradient id="_lgradient_19" x1="0" y1="0.5" x2="0.9074880558539661" y2="0.9200778838291643" gradientTransform="matrix(6,0,0,6,21,21)" gradientUnits="userSpaceOnUse"><stop offset="0%" stop-opacity="1" style="stop-color:rgb(0,196,255)"/><stop offset="83.88839793817618%" stop-opacity="1" style="stop-color:rgb(0,114,255)"/></linearGradient><circle vector-effect="non-scaling-stroke" cx="24" cy="24" r="3" fill="url(#_lgradient_19)"/><linearGradient id="_lgradient_20" x1="0.5" y1="1.0000000000000002" x2="0.5263858296622614" y2="0.03457734110241373" gradientTransform="matrix(48,0,0,47.7,0,0)" gradientUnits="userSpaceOnUse"><stop offset="0%" stop-opacity="1" style="stop-color:rgb(52,148,230)"/><stop offset="98.69565217391305%" stop-opacity="1" style="stop-color:rgb(236,110,173)"/></linearGradient><path d=" M 18.81 43.32 L 18.81 43.32 C 19.875 43.607 20.507 44.705 20.22 45.77 L 20.22 45.77 C 19.933 46.835 18.835 47.467 17.77 47.18 L 17.77 47.18 C 12.67 45.81 8.16 42.79 4.95 38.6 C 1.74 34.41 0 29.28 0 24 C 0 17.64 2.53 11.53 7.03 7.03 C 11.53 2.53 17.64 0 24 0 C 30.36 0 36.47 2.53 40.97 7.03 C 45.47 11.53 48 17.64 48 24 C 48 29.26 46.27 34.37 43.09 38.55 C 39.9 42.73 35.43 45.75 30.36 47.15 L 30.36 47.15 C 29.295 47.443 28.193 46.815 27.9 45.75 L 27.9 45.75 C 27.607 44.685 28.235 43.583 29.3 43.29 L 29.3 43.29 C 33.52 42.13 37.25 39.61 39.91 36.13 C 42.56 32.64 44 28.38 44 24 C 44 18.7 41.89 13.61 38.14 9.86 C 34.39 6.11 29.3 4 24 4 C 18.7 4 13.61 6.11 9.86 9.86 C 6.11 13.61 4 18.7 4 24 C 4 28.4 5.45 32.68 8.13 36.17 C 10.8 39.66 14.56 42.18 18.81 43.32 Z " fill="url(#_lgradient_20)"/></svg>