<?xml version="1.0" encoding="UTF-8" standalone="no"?><!-- Generator: Gravit.io --><svg xmlns="http://www.w3.org/2000/svg" xmlns:xlink="http://www.w3.org/1999/xlink" style="isolation:isolate" viewBox="0 0 48 48" width="48pt" height="48pt"><linearGradient id="_lgradient_11" x1="0" y1="0.5" x2="1" y2="0.5" gradientTransform="matrix(43.5,0,0,46,2.25,1)" gradientUnits="userSpaceOnUse"><stop offset="0%" stop-opacity="1" style="stop-color:rgb(255,153,102)"/><stop offset="98.26086956521739%" stop-opacity="1" style="stop-color:rgb(255,94,98)"/></linearGradient><path d=" M 13.75 5 L 18.75 5 L 18.75 18.38 L 16.957 16.587 C 16.567 16.197 15.933 16.197 15.543 16.587 L 13.75 18.38 L 13.75 5 L 13.75 5 L 13.75 5 Z  M 10.75 35 L 7.25 35 C 6.908 35 6.573 35.034 6.25 35.1 L 6.25 8 C 6.25 6.344 7.594 5 9.25 5 L 10.75 5 L 10.75 5 L 10.75 22.62 C 10.75 24.276 11.701 24.669 12.871 23.499 L 16.25 20.12 L 19.629 23.499 C 20.799 24.669 21.75 24.276 21.75 22.62 L 21.75 5 L 33.25 5 C 34.906 5 36.25 6.344 36.25 8 L 36.25 17 L 36.25 17 C 36.25 18.104 37.146 19 38.25 19 L 38.25 19 C 39.354 19 40.25 18.104 40.25 17 L 40.25 17 L 40.25 6 C 40.25 3.24 38.01 1 35.25 1 L 7.25 1 C 4.49 1 2.25 3.24 2.25 6 L 2.25 39 L 2.25 40 L 2.25 41 L 2.25 42 C 2.25 44.76 4.49 47 7.25 47 L 21.25 47 L 21.25 47 C 22.354 47 23.25 46.104 23.25 45 L 23.25 45 C 23.25 43.896 22.354 43 21.25 43 L 21.25 43 L 8.25 43 C 7.146 43 6.25 42.104 6.25 41 L 6.25 41 L 6.25 41 C 6.25 39.896 7.146 39 8.25 39 L 17.25 39 C 18.354 39 19.25 38.104 19.25 37 L 19.25 37 C 19.25 35.896 18.354 35 17.25 35 L 13.75 35 L 13.75 30 L 13.75 30 C 13.75 29.172 13.078 28.5 12.25 28.5 L 12.25 28.5 C 11.422 28.5 10.75 29.172 10.75 30 L 10.75 30 L 10.75 35 L 10.75 35 Z  M 23.932 32.483 L 23.932 32.483 C 23.887 33.082 23.362 33.533 22.761 33.49 L 22.761 33.49 C 22.159 33.446 21.708 32.922 21.753 32.32 L 21.753 32.32 C 21.977 29.303 23.337 26.478 25.56 24.416 C 27.782 22.36 30.704 21.214 33.735 21.214 C 36.919 21.214 39.977 22.48 42.233 24.727 C 44.483 26.98 45.75 30.034 45.75 33.214 C 45.75 36.394 44.483 39.449 42.233 41.702 C 39.977 43.949 36.919 45.214 33.735 45.214 L 33.735 45.214 C 33.132 45.214 32.643 44.725 32.643 44.123 L 32.643 44.123 C 32.643 43.521 33.132 43.032 33.735 43.032 L 33.735 43.032 C 36.34 43.032 38.841 41.996 40.687 40.158 C 42.528 38.314 43.565 35.816 43.565 33.214 C 43.565 30.612 42.528 28.114 40.687 26.271 C 38.841 24.432 36.34 23.396 33.735 23.396 C 31.256 23.396 28.864 24.329 27.045 26.014 C 25.226 27.7 24.118 30.012 23.932 32.483 L 23.932 32.483 L 23.932 32.483 L 23.932 32.483 L 23.932 32.483 Z  M 29.164 41.909 L 29.164 41.909 C 29.698 42.189 29.903 42.849 29.623 43.382 L 29.623 43.382 C 29.343 43.914 28.682 44.12 28.148 43.84 L 28.148 43.84 C 25.876 42.645 24.041 40.752 22.922 38.445 L 22.922 38.445 C 22.657 37.903 22.882 37.249 23.424 36.986 L 23.424 36.986 C 23.967 36.723 24.623 36.949 24.888 37.491 L 24.888 37.491 C 25.805 39.383 27.302 40.927 29.164 41.909 L 29.164 41.909 L 29.164 41.909 L 29.164 41.909 L 29.164 41.909 Z  M 27.729 31.576 L 27.729 36.222 C 27.729 36.589 28.027 36.888 28.395 36.888 L 31.111 36.888 L 33.632 38.779 C 34.22 39.22 34.698 38.981 34.698 38.246 L 34.698 29.253 C 34.698 28.518 34.239 28.303 33.674 28.774 L 31.111 30.91 L 28.395 30.91 C 28.027 30.91 27.729 31.208 27.729 31.576 L 27.729 31.576 L 27.729 31.576 L 27.729 31.576 Z  M 36.102 31.611 L 36.102 31.611 C 35.742 31.541 35.507 31.192 35.579 30.832 L 35.579 30.832 C 35.651 30.472 36.001 30.236 36.362 30.306 L 36.362 30.306 C 37.121 30.459 37.801 30.865 38.287 31.465 C 38.78 32.064 39.046 32.81 39.046 33.583 C 39.046 34.262 38.84 34.922 38.453 35.475 C 38.074 36.034 37.527 36.461 36.895 36.7 L 36.895 36.7 C 36.553 36.833 36.169 36.661 36.039 36.317 L 36.039 36.317 C 35.908 35.974 36.08 35.59 36.422 35.461 L 36.422 35.461 C 37.201 35.162 37.714 34.416 37.714 33.583 C 37.714 33.117 37.554 32.67 37.261 32.311 C 36.968 31.951 36.555 31.704 36.102 31.611 L 36.102 31.611 L 36.102 31.611 Z  M 37.321 29.813 L 37.321 29.813 C 36.983 29.673 36.822 29.283 36.961 28.943 L 36.961 28.943 C 37.101 28.603 37.492 28.441 37.834 28.58 L 37.834 28.58 C 38.82 28.993 39.666 29.686 40.265 30.572 C 40.858 31.465 41.178 32.51 41.178 33.583 C 41.178 35.601 40.045 37.46 38.247 38.386 L 38.247 38.386 C 37.923 38.555 37.523 38.426 37.354 38.099 L 37.354 38.099 C 37.185 37.772 37.314 37.372 37.641 37.207 L 37.641 37.207 C 38.993 36.507 39.846 35.102 39.846 33.583 C 39.846 32.777 39.606 31.984 39.159 31.318 C 38.707 30.645 38.067 30.126 37.321 29.813 L 37.321 29.813 Z " fill-rule="evenodd" fill="url(#_lgradient_11)"/></svg>