<?xml version="1.0" encoding="UTF-8" standalone="no"?><!-- Generator: Gravit.io --><svg xmlns="http://www.w3.org/2000/svg" xmlns:xlink="http://www.w3.org/1999/xlink" style="isolation:isolate" viewBox="0 0 48 48" width="48pt" height="48pt"><linearGradient id="_lgradient_66" x1="0.22078557924020603" y1="0.04723996636961164" x2="0.9022490870014594" y2="0.9061460265379022" gradientTransform="matrix(46.5,0,0,43,0.75,1.5)" gradientUnits="userSpaceOnUse"><stop offset="2.608695652173913%" stop-opacity="1" style="stop-color:rgb(237,184,212)"/><stop offset="98.69565217391305%" stop-opacity="1" style="stop-color:rgb(162,110,245)"/></linearGradient><path d=" M 43.293 11 L 43.293 9.634 C 43.293 7.071 41.211 4.989 38.648 4.989 L 35.406 4.989 L 38.41 8 L 35.416 11 L 43.293 11 L 43.293 11 Z  M 4.707 11 L 4.707 9.634 C 4.707 7.071 6.789 4.989 9.352 4.989 L 11.57 4.989 L 14.59 8 L 11.581 11 L 4.707 11 L 4.707 11 Z  M 14.416 11 L 17.41 8 L 14.406 4.989 L 22.57 4.989 L 25.59 8 L 22.581 11 L 14.416 11 L 14.416 11 Z  M 25.416 11 L 28.41 8 L 25.406 4.989 L 32.57 4.989 L 35.59 8 L 32.581 11 L 25.416 11 L 25.416 11 Z  M 43.293 14 L 43.293 36.366 C 43.293 38.929 41.211 41.011 38.648 41.011 L 31.737 41.011 C 31.212 41.011 30.708 41.194 30.332 41.525 C 29.966 41.848 29.758 42.293 29.758 42.755 C 29.758 43.218 29.966 43.663 30.332 43.985 C 30.708 44.317 31.212 44.5 31.737 44.5 L 40.747 44.5 C 44.336 44.5 47.25 41.586 47.25 37.997 L 47.25 8.003 C 47.25 4.414 44.336 1.5 40.747 1.5 L 7.253 1.5 C 3.664 1.5 0.75 4.414 0.75 8.003 L 0.75 37.997 C 0.75 41.586 3.664 44.5 7.253 44.5 L 16.263 44.5 C 16.788 44.5 17.292 44.317 17.668 43.985 C 18.034 43.663 18.242 43.218 18.242 42.755 C 18.242 42.293 18.034 41.848 17.668 41.525 C 17.292 41.194 16.788 41.011 16.263 41.011 L 9.352 41.011 C 6.789 41.011 4.707 38.929 4.707 36.366 L 4.707 14 L 43.293 14 L 43.293 14 Z  M 30.753 26.774 L 30.753 27.227 L 31.128 27.601 L 34.986 31.459 L 34.986 31.459 L 34.986 22.541 L 31.128 26.399 L 30.753 26.774 L 30.753 26.774 Z  M 30.753 23.123 L 30.753 20.939 C 30.753 19.869 29.884 19 28.814 19 L 11.722 19 L 11.722 19 C 11.008 19 10.429 19.579 10.429 20.292 L 10.429 20.292 C 10.429 21.006 11.008 21.585 11.722 21.585 L 11.722 21.585 L 27.522 21.585 C 27.879 21.585 28.168 21.874 28.168 22.231 L 28.168 31.77 C 28.168 32.126 27.879 32.416 27.522 32.416 L 13.66 32.416 C 13.304 32.416 13.014 32.126 13.014 31.77 L 13.014 24.835 L 13.014 24.835 C 13.014 24.122 12.435 23.543 11.722 23.543 L 11.722 23.543 C 11.008 23.543 10.429 24.122 10.429 24.835 L 10.429 24.835 L 10.429 33.062 C 10.429 34.132 11.298 35.001 12.368 35.001 L 28.814 35.001 C 29.884 35.001 30.753 34.132 30.753 33.062 L 30.753 30.878 L 30.753 30.878 L 33.773 33.898 C 34.025 34.15 34.519 34.354 34.876 34.354 L 36.925 34.354 C 37.281 34.354 37.571 34.065 37.571 33.708 L 37.571 20.292 C 37.571 19.936 37.281 19.646 36.925 19.646 L 34.876 19.646 C 34.519 19.646 34.025 19.851 33.773 20.103 L 30.753 23.123 L 30.753 23.123 Z " fill-rule="evenodd" fill="url(#_lgradient_66)"/></svg>