<?xml version="1.0" encoding="UTF-8" standalone="no"?><!-- Generator: Gravit.io --><svg xmlns="http://www.w3.org/2000/svg" xmlns:xlink="http://www.w3.org/1999/xlink" style="isolation:isolate" viewBox="0 0 48 48" width="48pt" height="48pt"><linearGradient id="_lgradient_21" x1="0" y1="0.5" x2="1" y2="0.5" gradientTransform="matrix(6.989,0,0,-6.331,1.011,9.746)" gradientUnits="userSpaceOnUse"><stop offset="0%" stop-opacity="1" style="stop-color:rgb(132,250,176)"/><stop offset="98.26086956521739%" stop-opacity="1" style="stop-color:rgb(143,211,244)"/></linearGradient><path d=" M 4.177 6.251 C 4.337 6.134 4.097 5.977 3.981 5.985 C 3.667 6.006 3.559 6.388 3.645 6.643 C 3.798 7.098 4.357 7.234 4.764 7.05 C 5.361 6.78 5.528 6.024 5.242 5.469 C 4.861 4.729 3.901 4.53 3.199 4.92 C 2.316 5.411 2.085 6.577 2.579 7.425 C 3.179 8.452 4.552 8.715 5.546 8.115 C 6.718 7.408 7.013 5.826 6.307 4.686 C 5.493 3.37 3.702 3.044 2.416 3.855 C 0.956 4.777 0.597 6.777 1.514 8.208 C 2.543 9.813 4.753 10.204 6.329 9.18 C 8.079 8.044 8.502 5.625 7.372 3.904" fill-rule="evenodd" fill="url(#_lgradient_21)"/><linearGradient id="_lgradient_22" x1="0" y1="0.5" x2="1" y2="0.5" gradientTransform="matrix(-23.528,0,0,22.178,23.828,12.239)" gradientUnits="userSpaceOnUse"><stop offset="0%" stop-opacity="1" style="stop-color:rgb(17,153,142)"/><stop offset="99.1304347826087%" stop-opacity="1" style="stop-color:rgb(56,239,125)"/></linearGradient><path d=" M 2.847 28.896 L 2.847 28.896 C 1.441 29.225 0.579 30.595 0.924 31.955 L 0.924 31.955 C 1.268 33.314 2.694 34.145 4.107 33.81 L 4.107 33.81 C 6.471 33.253 8.768 32.429 10.948 31.366 C 12.943 30.365 14.768 29.074 16.37 27.542 C 17.946 25.984 19.285 24.199 20.348 22.261 C 21.491 20.134 22.423 17.905 23.106 15.588 L 23.617 13.217 C 23.733 12.677 23.437 12.459 22.956 12.73 C 22.539 12.965 20.744 13.913 19.305 13.458 C 18.779 13.292 18.232 13.588 18.085 14.12 L 18.064 14.195 C 17.473 16.17 16.672 18.095 15.688 19.919 C 14.873 21.413 13.849 22.78 12.628 23.983 C 11.434 25.136 10.055 26.098 8.545 26.858 C 6.733 27.744 4.83 28.428 2.847 28.896 Z " fill="url(#_lgradient_22)"/><linearGradient id="_lgradient_23" x1="0.10075293967265184" y1="0.10455894555851192" x2="0.9640879692656711" y2="0.9541976643783026" gradientTransform="matrix(22.692,0,0,21.261,2.339,9.402)" gradientUnits="userSpaceOnUse"><stop offset="0%" stop-opacity="1" style="stop-color:rgb(178,254,250)"/><stop offset="98.26086956521739%" stop-opacity="1" style="stop-color:rgb(14,210,247)"/></linearGradient><path d=" M 22.574 25.142 L 22.574 25.142 C 23.93 25.47 24.761 26.841 24.429 28.2 L 24.429 28.2 C 24.097 29.559 22.721 30.391 21.358 30.055 L 21.358 30.055 C 19.079 29.498 16.863 28.675 14.761 27.611 C 12.836 26.611 11.076 25.319 9.531 23.787 C 8.012 22.229 6.72 20.444 5.694 18.507 C 4.593 16.379 3.694 14.151 3.035 11.833 L 2.614 10.363 C 2.462 9.833 2.701 9.665 3.148 9.989 C 3.718 10.403 5.509 10.433 6.722 9.841 C 7.218 9.598 7.736 9.835 7.878 10.368 L 7.898 10.44 C 8.468 12.416 9.24 14.341 10.19 16.164 C 10.975 17.658 11.963 19.026 13.14 20.229 C 14.292 21.381 15.622 22.343 17.078 23.103 C 18.826 23.99 20.662 24.673 22.574 25.142 Z " fill="url(#_lgradient_23)"/><linearGradient id="_lgradient_24" x1="0.20366897880896492" y1="0.340016434883778" x2="0.8683714006363232" y2="0.9508043203917516" gradientTransform="matrix(-1.878,23.453,21.99,1.761,25.406,5.375)" gradientUnits="userSpaceOnUse"><stop offset="0%" stop-opacity="1" style="stop-color:rgb(78,84,200)"/><stop offset="83.88839793817618%" stop-opacity="1" style="stop-color:rgb(0,114,255)"/></linearGradient><path d=" M 40.217 27.609 L 40.217 27.609 C 40.432 29.036 41.73 30.005 43.112 29.77 L 43.112 29.77 C 44.494 29.535 45.437 28.18 45.215 26.744 L 45.215 26.744 C 44.849 24.344 44.212 21.988 43.325 19.731 C 42.487 17.662 41.346 15.739 39.946 14.02 C 38.519 12.326 36.846 10.848 35 9.633 C 32.971 8.325 30.823 7.218 28.568 6.352 L 27.135 5.799 C 26.62 5.6 26.303 5.875 26.427 6.413 C 26.765 7.876 25.884 9.268 25.602 9.642 C 25.27 10.083 25.406 10.629 25.907 10.862 L 26.777 11.267 C 28.699 12.013 30.554 12.965 32.293 14.092 C 33.717 15.023 34.999 16.153 36.1 17.466 C 37.154 18.749 38.003 20.2 38.64 21.766 C 39.379 23.643 39.908 25.595 40.217 27.609 Z " fill="url(#_lgradient_24)"/><linearGradient id="_lgradient_25" x1="0" y1="0.5" x2="1" y2="0.5" gradientTransform="matrix(22.62,-6.473,-5.85,-20.44,29.575,34.418)" gradientUnits="userSpaceOnUse"><stop offset="0%" stop-opacity="1" style="stop-color:rgb(132,250,176)"/><stop offset="98.26086956521739%" stop-opacity="1" style="stop-color:rgb(143,211,244)"/></linearGradient><path d=" M 45.415 13.512 L 45.415 13.512 C 46.676 12.81 47.128 11.255 46.423 10.043 L 46.423 10.043 C 45.718 8.831 44.118 8.424 42.851 9.136 L 42.851 9.136 C 40.733 10.322 38.75 11.745 36.947 13.367 C 35.304 14.878 33.905 16.622 32.787 18.536 C 31.7 20.467 30.904 22.552 30.415 24.707 C 29.902 27.067 29.619 29.466 29.6 31.881 L 29.585 33.418 C 29.579 33.969 29.903 34.112 30.307 33.736 C 30.887 33.196 32.652 32.704 33.844 32.817 C 34.393 32.869 34.836 32.463 34.831 31.911 L 34.83 31.833 C 34.855 29.772 35.095 27.701 35.54 25.677 C 35.912 24.016 36.52 22.42 37.363 20.927 C 38.195 19.491 39.255 18.186 40.498 17.04 C 41.996 15.69 43.638 14.508 45.415 13.512 Z " fill="url(#_lgradient_25)"/><linearGradient id="_lgradient_26" x1="0" y1="0.5" x2="0.9074880558539661" y2="0.9200778838291643" gradientTransform="matrix(12.484,0,0,11.31,27.734,34.418)" gradientUnits="userSpaceOnUse"><stop offset="0%" stop-opacity="1" style="stop-color:rgb(78,84,200)"/><stop offset="83.88839793817618%" stop-opacity="1" style="stop-color:rgb(0,114,255)"/></linearGradient><path d=" M 33.388 40.659 C 33.675 40.869 33.246 41.149 33.039 41.135 C 32.477 41.097 32.284 40.415 32.437 39.96 C 32.712 39.147 33.71 38.904 34.437 39.232 C 35.503 39.714 35.802 41.066 35.291 42.057 C 34.61 43.378 32.895 43.734 31.641 43.037 C 30.063 42.161 29.651 40.078 30.535 38.563 C 31.605 36.727 34.059 36.258 35.834 37.33 C 37.927 38.593 38.454 41.419 37.193 43.455 C 35.738 45.806 32.54 46.389 30.243 44.94 C 27.634 43.293 26.994 39.721 28.632 37.165 C 30.47 34.297 34.416 33.599 37.232 35.427 C 40.358 37.457 41.114 41.777 39.096 44.852" fill-rule="evenodd" fill="url(#_lgradient_26)"/><linearGradient id="_lgradient_27" x1="0" y1="0.5" x2="1" y2="0.5" gradientTransform="matrix(-9.987,0,0,-9.048,24.72,11.946)" gradientUnits="userSpaceOnUse"><stop offset="0%" stop-opacity="1" style="stop-color:rgb(178,254,250)"/><stop offset="98.26086956521739%" stop-opacity="1" style="stop-color:rgb(14,210,247)"/></linearGradient><path d=" M 20.196 6.953 C 19.967 6.785 20.31 6.561 20.476 6.572 C 20.925 6.602 21.08 7.148 20.957 7.512 C 20.737 8.163 19.939 8.357 19.357 8.094 C 18.504 7.709 18.265 6.628 18.674 5.835 C 19.219 4.777 20.591 4.493 21.594 5.05 C 22.856 5.751 23.186 7.418 22.479 8.63 C 21.623 10.098 19.66 10.474 18.239 9.616 C 16.565 8.606 16.144 6.345 17.152 4.716 C 18.316 2.836 20.875 2.369 22.712 3.528 C 24.799 4.846 25.312 7.703 24.001 9.748 C 22.53 12.042 19.374 12.601 17.121 11.138 C 14.62 9.515 14.016 6.058 15.63 3.598" fill-rule="evenodd" fill="url(#_lgradient_27)"/></svg>