<?xml version="1.0" encoding="UTF-8" standalone="no"?><!-- Generator: Gravit.io --><svg xmlns="http://www.w3.org/2000/svg" xmlns:xlink="http://www.w3.org/1999/xlink" style="isolation:isolate" viewBox="0 0 48 48" width="48pt" height="48pt"><linearGradient id="_lgradient_1" x1="0" y1="0.5" x2="1" y2="0.5" gradientTransform="matrix(48,0,0,46.985,0.495,0.559)" gradientUnits="userSpaceOnUse"><stop offset="0%" stop-opacity="1" style="stop-color:rgb(255,229,59)"/><stop offset="98.69565217391305%" stop-opacity="1" style="stop-color:rgb(255,0,91)"/></linearGradient><path d=" M 14 19 C 14 17.896 14.896 17 16 17 C 17.104 17 18 17.896 18 19 C 18 20.104 17.104 21 16 21 C 14.896 21 14 20.104 14 19 L 14 19 L 14 19 L 14 19 L 14 19 L 14 19 L 14 19 L 14 19 L 14 19 L 14 19 L 14 19 L 14 19 L 14 19 L 14 19 Z  M 19 19 C 19 17.896 19.896 17 21 17 C 22.104 17 23 17.896 23 19 C 23 20.104 22.104 21 21 21 C 19.896 21 19 20.104 19 19 L 19 19 L 19 19 L 19 19 L 19 19 L 19 19 L 19 19 L 19 19 L 19 19 L 19 19 L 19 19 L 19 19 L 19 19 L 19 19 Z  M 24 19 C 24 17.896 24.896 17 26 17 C 27.104 17 28 17.896 28 19 C 28 20.104 27.104 21 26 21 C 24.896 21 24 20.104 24 19 L 24 19 L 24 19 L 24 19 L 24 19 L 24 19 L 24 19 L 24 19 L 24 19 L 24 19 L 24 19 L 24 19 L 24 19 Z  M 29 19 C 29 17.896 29.896 17 31 17 C 32.104 17 33 17.896 33 19 C 33 20.104 32.104 21 31 21 C 29.896 21 29 20.104 29 19 L 29 19 L 29 19 L 29 19 L 29 19 L 29 19 L 29 19 L 29 19 L 29 19 L 29 19 L 29 19 L 29 19 Z  M 14 24 C 14 22.896 14.896 22 16 22 C 17.104 22 18 22.896 18 24 C 18 25.104 17.104 26 16 26 C 14.896 26 14 25.104 14 24 L 14 24 L 14 24 L 14 24 L 14 24 L 14 24 L 14 24 L 14 24 L 14 24 L 14 24 L 14 24 Z  M 19 24 C 19 22.896 19.896 22 21 22 C 22.104 22 23 22.896 23 24 C 23 25.104 22.104 26 21 26 C 19.896 26 19 25.104 19 24 L 19 24 L 19 24 L 19 24 L 19 24 L 19 24 L 19 24 L 19 24 L 19 24 L 19 24 Z  M 24 24 C 24 22.896 24.896 22 26 22 C 27.104 22 28 22.896 28 24 C 28 25.104 27.104 26 26 26 C 24.896 26 24 25.104 24 24 L 24 24 L 24 24 L 24 24 L 24 24 L 24 24 L 24 24 L 24 24 L 24 24 Z  M 29 24 C 29 22.896 29.896 22 31 22 C 32.104 22 33 22.896 33 24 C 33 25.104 32.104 26 31 26 C 29.896 26 29 25.104 29 24 L 29 24 L 29 24 L 29 24 L 29 24 L 29 24 L 29 24 L 29 24 Z  M 34 24 C 34 22.896 34.896 22 36 22 C 37.104 22 38 22.896 38 24 C 38 25.104 37.104 26 36 26 C 34.896 26 34 25.104 34 24 L 34 24 L 34 24 L 34 24 L 34 24 L 34 24 L 34 24 Z  M 9 24 C 9 22.896 9.896 22 11 22 C 12.104 22 13 22.896 13 24 C 13 25.104 12.104 26 11 26 C 9.896 26 9 25.104 9 24 L 9 24 L 9 24 L 9 24 L 9 24 L 9 24 Z  M 9 29 C 9 27.896 9.896 27 11 27 C 12.104 27 13 27.896 13 29 C 13 30.104 12.104 31 11 31 C 9.896 31 9 30.104 9 29 L 9 29 L 9 29 L 9 29 L 9 29 Z  M 14 29 C 14 27.896 14.896 27 16 27 C 17.104 27 18 27.896 18 29 C 18 30.104 17.104 31 16 31 C 14.896 31 14 30.104 14 29 L 14 29 L 14 29 L 14 29 Z  M 34 29 C 34 27.896 34.896 27 36 27 C 37.104 27 38 27.896 38 29 C 38 30.104 37.104 31 36 31 C 34.896 31 34 30.104 34 29 L 34 29 L 34 29 Z  M 29 29 C 29 27.896 29.896 27 31 27 C 32.104 27 33 27.896 33 29 C 33 30.104 32.104 31 31 31 C 29.896 31 29 30.104 29 29 L 29 29 Z  M 22.856 43.272 L 22.856 43.272 C 24.053 43.371 24.946 44.407 24.847 45.584 L 24.847 45.584 C 24.749 46.76 23.693 47.635 22.489 47.536 L 22.489 47.536 C 16.461 47.044 10.835 44.331 6.751 39.942 C 2.679 35.553 0.441 29.811 0.496 23.875 C 0.553 17.64 3.139 11.674 7.675 7.297 C 12.22 2.93 18.352 0.504 24.712 0.56 C 31.072 0.616 37.158 3.152 41.622 7.598 C 46.076 12.054 48.551 18.066 48.494 24.301 L 48.494 24.301 C 48.483 25.481 47.497 26.431 46.292 26.42 L 46.292 26.42 C 45.088 26.41 44.119 25.443 44.13 24.262 L 44.13 24.262 C 44.177 19.161 42.15 14.244 38.507 10.597 C 34.853 6.96 29.876 4.884 24.672 4.838 C 19.469 4.792 14.454 6.779 10.734 10.351 C 7.024 13.933 4.906 18.813 4.859 23.914 C 4.814 28.769 6.637 33.47 9.975 37.061 C 13.312 40.652 17.918 42.864 22.856 43.272 L 22.856 43.272 Z  M 40.99 33.194 L 40.99 33.194 C 41.548 32.154 42.846 31.763 43.886 32.321 L 43.886 32.321 C 44.925 32.88 45.316 34.177 44.758 35.217 L 44.758 35.217 C 42.376 39.645 38.632 43.205 34.088 45.356 L 34.088 45.356 C 33.021 45.866 31.743 45.413 31.237 44.346 L 31.237 44.346 C 30.73 43.279 31.185 41.999 32.252 41.489 L 32.252 41.489 C 35.979 39.726 39.032 36.823 40.99 33.194 L 40.99 33.194 Z " fill-rule="evenodd" fill="url(#_lgradient_1)"/></svg>