<?xml version="1.0" encoding="UTF-8" standalone="no"?><!-- Generator: Gravit.io --><svg xmlns="http://www.w3.org/2000/svg" xmlns:xlink="http://www.w3.org/1999/xlink" style="isolation:isolate" viewBox="0 0 48 48" width="48pt" height="48pt"><linearGradient id="_lgradient_0" x1="0" y1="0.5" x2="0.9074880558539661" y2="0.9200778838291643" gradientTransform="matrix(36,0,0,40.014,6,7.155)" gradientUnits="userSpaceOnUse"><stop offset="0%" stop-opacity="1" style="stop-color:rgb(0,196,255)"/><stop offset="83.88839793817618%" stop-opacity="1" style="stop-color:rgb(0,114,255)"/></linearGradient><path d=" M 10.9 25.37 L 10.9 25.37 C 10.552 24.321 9.419 23.752 8.37 24.1 L 8.37 24.1 C 7.321 24.448 6.752 25.581 7.1 26.63 L 7.1 26.63 L 7.72 28.5 C 7.72 28.5 7.72 28.51 7.72 28.51 C 8.41 30.55 9.3 32.51 10.38 34.36 C 11.46 36.25 12.71 38.05 14.1 39.72 C 15.42 41.32 16.89 42.8 18.5 44.11 C 19.24 44.72 20.02 45.28 20.84 45.79 C 21.6 46.27 22.41 46.68 23.25 47.02 C 23.71 47.21 24.23 47.22 24.7 47.04 L 25.72 46.66 C 25.73 46.66 25.73 46.66 25.74 46.66 C 28.06 45.76 30.22 44.48 32.13 42.88 C 34.09 41.25 35.81 39.36 37.25 37.27 C 38.71 35.18 39.87 32.9 40.71 30.5 C 41.54 28.15 41.98 25.68 42 23.19 C 42 23.18 42 23.18 42 23.17 L 42 11.11 C 42 8.902 40.602 7.15 38.88 7.2 L 38.88 7.2 C 36.59 7.18 8.94 7.13 7.91 7.17 C 7.4 7.2 6.91 7.42 6.55 7.79 C 6.2 8.16 6 8.66 6 9.17 L 6 16.17 L 6 16.17 C 6 17.274 6.896 18.17 8 18.17 L 8 18.17 C 9.104 18.17 10 17.274 10 16.17 L 10 16.17 L 10 11 C 10.63 10.91 35.49 11.06 38 11.18 L 38 23.16 C 37.98 25.21 37.62 27.24 36.94 29.17 C 36.22 31.24 35.22 33.2 33.97 34.99 C 32.73 36.79 31.25 38.41 29.56 39.81 C 28 41.13 26.22 42.18 24.31 42.92 L 24.06 43.01 C 23.68 42.83 23.31 42.62 22.96 42.4 C 22.29 41.98 21.64 41.52 21.03 41.02 C 19.63 39.87 18.34 38.58 17.19 37.17 C 15.94 35.67 14.82 34.06 13.84 32.36 C 12.89 30.74 12.11 29.02 11.52 27.24 L 10.9 25.37 Z  M 26.5 16.5 L 32.5 16.5 L 32.5 24.29 C 32.5 24.842 32.374 25.72 32.22 26.25 C 31.89 27.38 30.89 29.33 29.55 31.04 C 28.65 32.17 27.62 34.2 26.5 35.11 L 26.5 27.42 L 26.5 16.5 L 26.5 16.5 Z  M 24.5 13.5 L 34.5 13.5 C 35.052 13.5 35.5 13.948 35.5 14.5 L 35.5 23.5 Q 35.5 25.5 35.5 25.64 C 35.5 25.64 35.48 25.77 35.48 25.77 C 35.458 25.842 35.2 26.763 34.904 27.827 C 34.73 28.45 33.53 30.83 31.9 32.91 C 30.19 35.04 28.12 37.86 25.78 39.28 C 25.32 39.56 24.74 39.57 24.26 39.31 C 23.79 39.04 23.5 38.54 23.5 38 L 23.5 27.42 L 23.5 14.5 C 23.5 13.948 23.948 13.5 24.5 13.5 L 24.5 13.5 Z " fill-rule="evenodd" fill="url(#_lgradient_0)"/></svg>