<?xml version="1.0" encoding="UTF-8" standalone="no"?><!-- Generator: Gravit.io --><svg xmlns="http://www.w3.org/2000/svg" xmlns:xlink="http://www.w3.org/1999/xlink" style="isolation:isolate" viewBox="0 0 48 48" width="48pt" height="48pt"><linearGradient id="_lgradient_26" x1="0" y1="0.5" x2="1" y2="0.5" gradientTransform="matrix(44.636,0,0,42.29,0.904,2.51)" gradientUnits="userSpaceOnUse"><stop offset="0%" stop-opacity="1" style="stop-color:rgb(255,224,49)"/><stop offset="98.69565217391305%" stop-opacity="1" style="stop-color:rgb(252,82,82)"/></linearGradient><path d=" M 26.521 12.212 C 26.603 12.197 26.685 12.185 26.767 12.173 L 26.41 11.897 C 26.458 11.996 26.498 12.1 26.521 12.212 L 26.521 12.212 L 26.521 12.212 Z  M 19.022 15.18 L 19.022 15.18 L 5.998 15.263 C 4.9 15.27 4.001 14.385 3.992 13.287 L 3.988 12.884 C 3.979 11.786 4.862 10.889 5.96 10.882 L 24.599 10.763 C 24.733 10.762 24.863 10.775 24.99 10.799 L 19.433 6.504 C 18.504 5.787 18.333 4.45 19.051 3.521 L 19.193 3.336 C 19.911 2.407 21.248 2.236 22.177 2.954 L 35.595 13.324 C 37.497 14.138 39.247 15.311 40.74 16.8 C 43.81 19.88 45.54 24.05 45.54 28.4 C 45.54 32.75 43.81 36.92 40.74 40 C 37.66 43.07 33.49 44.8 29.14 44.8 C 24.82 44.8 20.66 43.09 19.017 41.452 C 18.235 40.673 18.23 39.404 19.005 38.62 L 19.005 38.62 C 19.78 37.836 21.045 37.832 21.827 38.611 C 22.73 39.51 25.87 40.8 29.14 40.8 C 32.43 40.8 35.58 39.49 37.91 37.17 C 40.23 34.84 41.54 31.69 41.54 28.4 C 41.54 25.11 40.23 21.96 37.91 19.63 C 35.58 17.31 32.43 16 29.14 16 C 25.85 16 22.7 17.31 20.37 19.63 C 18.05 21.96 16.74 25.11 16.74 28.4 C 16.74 29.86 17 31.3 17 31.3 C 17.276 32.056 16.658 32.979 15.62 33.36 L 15.62 33.36 C 14.582 33.741 13.444 33.239 13.08 32.24 C 13.08 32.24 12.74 30.33 12.74 28.4 C 12.74 27.537 12.808 26.68 12.941 25.838 L 4.663 32.449 C 3.595 33.301 2.11 33.227 1.348 32.284 L 1.348 32.284 C 0.586 31.341 0.83 29.878 1.892 29.019 L 19.022 15.18 L 19.022 15.18 Z  M 22.64 28.4 C 22.64 26.68 23.33 25.02 24.54 23.8 C 25.76 22.59 27.42 21.9 29.14 21.9 C 30.86 21.9 32.52 22.59 33.74 23.8 C 34.95 25.02 35.64 26.68 35.64 28.4 C 35.64 30.12 34.95 31.78 33.74 33 C 32.52 34.21 30.86 34.9 29.14 34.9 C 27.42 34.9 25.76 34.21 24.54 33 C 23.33 31.78 22.64 30.12 22.64 28.4 L 22.64 28.4 Z  M 19.64 28.4 C 19.64 25.88 20.64 23.46 22.42 21.68 C 24.2 19.9 26.62 18.9 29.14 18.9 C 31.66 18.9 34.08 19.9 35.86 21.68 C 37.64 23.46 38.64 25.88 38.64 28.4 C 38.64 30.92 37.64 33.34 35.86 35.12 C 34.08 36.9 31.66 37.9 29.14 37.9 C 26.62 37.9 24.2 36.9 22.42 35.12 C 20.64 33.34 19.64 30.92 19.64 28.4 L 19.64 28.4 Z " fill-rule="evenodd" fill="url(#_lgradient_26)"/><linearGradient id="_lgradient_27" x1="-0.000038208333333289435" y1="0.5000000833333331" x2="0.9999618333333335" y2="0.5000000833333331" gradientTransform="matrix(7,0,0,7,25.619,24.9)" gradientUnits="userSpaceOnUse"><stop offset="0%" stop-opacity="1" style="stop-color:rgb(0,198,255)"/><stop offset="98.69565217391305%" stop-opacity="1" style="stop-color:rgb(0,114,255)"/></linearGradient><circle vector-effect="non-scaling-stroke" cx="29.119124219156404" cy="28.399999618530277" r="3.5" fill="url(#_lgradient_27)"/></svg>