<?xml version="1.0" encoding="UTF-8" standalone="no"?>
<!-- Generator: Gravit.io -->
<svg xmlns="http://www.w3.org/2000/svg" xmlns:xlink="http://www.w3.org/1999/xlink" style="isolation:isolate" viewBox="0 0 48 48" width="48pt" height="48pt"><linearGradient id="_lgradient_0" x1="0" y1="0.5" x2="1" y2="0.5" gradientTransform="matrix(48,0,0,48,0,0)" gradientUnits="userSpaceOnUse"><stop offset="0%" stop-opacity="1" style="stop-color:rgb(255,224,49)"/><stop offset="98.69565217391305%" stop-opacity="1" style="stop-color:rgb(252,82,82)"/></linearGradient><path d=" M 32.881 11.172 C 32.881 11.172 37.495 16.757 37.495 17.95 C 37.495 19.144 36.915 19.459 36.331 20.079 C 35.747 20.7 33.199 23.41 32.871 23.758 C 32.544 24.106 31.862 24.634 32.263 25.583 C 32.664 26.533 33.255 27.742 32.598 28.967 C 31.94 30.193 30.814 31.011 30.092 30.876 C 29.37 30.741 27.675 29.854 27.051 29.449 C 26.428 29.043 24.452 27.412 24.452 26.787 C 24.452 26.163 26.495 25.042 26.872 24.788 C 27.249 24.533 28.97 23.548 29.006 23.161 C 29.041 22.774 29.027 22.66 28.52 21.704 C 28.012 20.748 27.097 19.473 27.249 18.624 C 27.401 17.775 28.877 17.334 29.929 16.936 C 30.982 16.538 33.009 15.786 33.262 15.669 C 33.515 15.552 33.45 15.441 32.683 15.368 C 31.916 15.295 29.739 15.006 28.758 15.28 C 27.777 15.554 26.1 15.97 25.964 16.191 C 25.829 16.412 25.709 16.42 25.848 17.182 C 25.988 17.944 26.706 21.601 26.775 22.251 C 26.845 22.9 26.981 23.33 26.282 23.49 C 25.582 23.65 24.405 23.928 24 23.928 C 23.595 23.928 22.418 23.65 21.718 23.49 C 21.018 23.33 21.155 22.9 21.225 22.251 C 21.294 21.601 22.012 17.944 22.152 17.182 C 22.291 16.42 22.171 16.412 22.036 16.191 C 21.9 15.97 20.223 15.554 19.242 15.28 C 18.261 15.006 16.084 15.295 15.317 15.368 C 14.55 15.441 14.485 15.552 14.738 15.669 C 14.991 15.786 17.018 16.538 18.071 16.936 C 19.123 17.334 20.599 17.775 20.751 18.624 C 20.903 19.473 19.988 20.748 19.48 21.704 C 18.973 22.66 18.959 22.774 18.994 23.161 C 19.03 23.548 20.751 24.533 21.128 24.788 C 21.505 25.042 23.548 26.163 23.548 26.787 C 23.548 27.412 21.572 29.043 20.949 29.449 C 20.325 29.854 18.63 30.741 17.908 30.876 C 17.186 31.011 16.06 30.193 15.402 28.967 C 14.745 27.742 15.336 26.533 15.737 25.583 C 16.137 24.634 15.456 24.106 15.129 23.758 C 14.801 23.41 12.253 20.7 11.669 20.079 C 11.085 19.459 10.505 19.144 10.505 17.95 C 10.505 16.757 15.119 11.172 15.119 11.172 C 15.119 11.172 19.013 11.917 19.538 11.917 C 20.063 11.917 21.2 11.478 22.25 11.128 C 23.3 10.778 24 10.775 24 10.775 C 24 10.775 24.7 10.778 25.75 11.128 C 26.8 11.478 27.937 11.917 28.462 11.917 C 28.987 11.917 32.881 11.172 32.881 11.172 L 32.881 11.172 Z  M 29.422 32.535 C 29.707 32.714 29.533 33.052 29.273 33.236 C 29.013 33.42 25.516 36.131 25.177 36.43 C 24.838 36.73 24.339 37.225 24 37.225 C 23.661 37.225 23.162 36.73 22.823 36.43 C 22.484 36.131 18.987 33.42 18.727 33.236 C 18.467 33.052 18.293 32.714 18.578 32.535 C 18.864 32.356 19.757 31.904 20.991 31.265 C 22.223 30.626 23.76 30.083 24 30.083 C 24.24 30.083 25.776 30.626 27.009 31.265 C 28.242 31.904 29.136 32.356 29.422 32.535 L 29.422 32.535 Z  M 4.99 17.78 L 4.99 17.78 C 5.332 16.731 4.759 15.602 3.71 15.26 L 3.71 15.26 C 2.661 14.918 1.532 15.491 1.19 16.54 L 1.19 16.54 C 0.4 18.94 0 21.45 0 23.97 C 0 32.32 4.34 40.1 11.46 44.46 C 15.22 46.77 19.56 48 23.97 48 C 32.32 48 40.1 43.66 44.46 36.54 C 46.77 32.78 48 28.45 48 24.03 C 48 15.68 43.66 7.9 36.54 3.54 C 32.78 1.23 28.45 0 24.03 0 C 18.39 0 12.92 1.98 8.59 5.59 L 8.59 5.59 C 7.746 6.302 7.634 7.568 8.34 8.415 L 8.34 8.415 C 9.046 9.262 10.31 9.372 11.16 8.66 L 11.16 8.66 C 14.77 5.65 19.32 4 24.03 4 C 27.7 4 31.31 5.02 34.45 6.95 C 40.38 10.59 44 17.07 44 24.03 C 44 27.71 42.98 31.31 41.05 34.45 C 37.41 40.38 30.93 44 23.97 44 C 20.3 44 16.69 42.98 13.55 41.05 C 7.62 37.41 4 30.93 4 23.97 C 4 21.87 4.33 19.78 4.99 17.78 Z " fill-rule="evenodd" fill="url(#_lgradient_0)"/></svg>