<?xml version="1.0" encoding="UTF-8" standalone="no"?><!-- Generator: Gravit.io --><svg xmlns="http://www.w3.org/2000/svg" xmlns:xlink="http://www.w3.org/1999/xlink" style="isolation:isolate" viewBox="0 0 48 48" width="48pt" height="48pt"><linearGradient id="_lgradient_50" x1="0.0681818181817685" y1="0.23295454545454564" x2="0.9384302091713562" y2="0.779389581657281" gradientTransform="matrix(38,0,0,46,2.752,1)" gradientUnits="userSpaceOnUse"><stop offset="1.3043478260869565%" stop-opacity="1" style="stop-color:rgb(55,236,186)"/><stop offset="97.82608695652173%" stop-opacity="1" style="stop-color:rgb(114,175,211)"/></linearGradient><path d=" M 11.252 35 L 7.752 35 C 7.409 35 7.075 35.034 6.752 35.1 L 6.752 8 C 6.752 6.344 8.096 5 9.752 5 L 11.252 5 L 11.252 5 L 11.252 22.62 C 11.252 24.276 12.202 24.669 13.373 23.499 L 16.752 20.12 L 20.13 23.499 C 21.301 24.669 22.252 24.276 22.252 22.62 L 22.252 5 L 33.752 5 C 35.407 5 36.752 6.344 36.752 8 L 36.752 20 L 36.752 20 C 36.752 21.104 37.648 22 38.752 22 L 38.752 22 C 39.855 22 40.752 21.104 40.752 20 L 40.752 20 L 40.752 6 C 40.752 3.24 38.511 1 35.752 1 L 7.752 1 C 4.992 1 2.752 3.24 2.752 6 L 2.752 39 L 2.752 40 L 2.752 41 L 2.752 42 C 2.752 44.76 4.992 47 7.752 47 L 23.752 47 L 23.752 47 C 24.855 47 25.752 46.104 25.752 45 L 25.752 45 C 25.752 43.896 24.855 43 23.752 43 L 23.752 43 L 8.752 43 C 7.648 43 6.752 42.104 6.752 41 L 6.752 41 L 6.752 41 C 6.752 39.896 7.648 39 8.752 39 L 19.752 39 C 20.855 39 21.752 38.104 21.752 37 L 21.752 37 C 21.752 35.896 20.855 35 19.752 35 L 14.252 35 L 14.252 30 L 14.252 30 C 14.252 29.172 13.58 28.5 12.752 28.5 L 12.752 28.5 C 11.924 28.5 11.252 29.172 11.252 30 L 11.252 30 L 11.252 35 Z  M 14.252 5 L 19.252 5 L 19.252 18.38 L 17.459 16.587 C 17.068 16.197 16.435 16.197 16.045 16.587 L 14.252 18.38 L 14.252 5 L 14.252 5 Z " fill-rule="evenodd" fill="url(#_lgradient_50)"/><linearGradient id="_lgradient_51" x1="0" y1="0.5" x2="1" y2="0.5" gradientTransform="matrix(13.421,0,0,8,28.538,31)" gradientUnits="userSpaceOnUse"><stop offset="0%" stop-opacity="1" style="stop-color:rgb(255,224,49)"/><stop offset="100%" stop-opacity="1" style="stop-color:rgb(250,0,117)"/></linearGradient><path d=" M 35.248 31 C 32.684 31 30.359 32.403 28.643 34.682 C 28.503 34.868 28.503 35.129 28.643 35.316 C 30.359 37.597 32.684 39 35.248 39 C 37.813 39 40.138 37.597 41.854 35.318 C 41.994 35.132 41.994 34.871 41.854 34.684 C 40.138 32.403 37.813 31 35.248 31 Z  M 35.432 37.817 C 33.73 37.924 32.325 36.521 32.432 34.816 C 32.519 33.41 33.659 32.271 35.064 32.183 C 36.767 32.076 38.172 33.479 38.065 35.184 C 37.975 36.587 36.835 37.726 35.432 37.817 Z  M 35.347 36.515 C 34.43 36.573 33.673 35.818 33.733 34.901 C 33.78 34.143 34.395 33.531 35.152 33.482 C 36.069 33.424 36.827 34.179 36.767 35.096 C 36.717 35.857 36.102 36.469 35.347 36.515 Z " fill="url(#_lgradient_51)"/><linearGradient id="_lgradient_52" x1="0" y1="0.5" x2="1" y2="0.5" gradientTransform="matrix(20,0,0,20,25.248,25)" gradientUnits="userSpaceOnUse"><stop offset="0%" stop-opacity="1" style="stop-color:rgb(255,224,49)"/><stop offset="100%" stop-opacity="1" style="stop-color:rgb(250,0,117)"/></linearGradient><linearGradient id="_lgradient_53" x1="0" y1="0.5" x2="1" y2="0.5"><stop offset="0%" stop-opacity="1" style="stop-color:rgb(255,224,49)"/><stop offset="100%" stop-opacity="1" style="stop-color:rgb(250,0,117)"/></linearGradient><path d=" M 27.067 34.391 L 27.067 34.391 C 27.029 34.89 26.592 35.266 26.091 35.23 L 26.091 35.23 C 25.59 35.193 25.213 34.756 25.251 34.255 L 25.251 34.255 C 25.438 31.741 26.571 29.386 28.423 27.668 C 30.275 25.955 32.71 25 35.236 25 C 37.889 25 40.438 26.055 42.317 27.927 C 44.193 29.805 45.248 32.35 45.248 35 C 45.248 37.65 44.193 40.195 42.317 42.073 C 40.438 43.945 37.889 45 35.236 45 L 35.236 45 C 34.734 45 34.326 44.593 34.326 44.091 L 34.326 44.091 C 34.326 43.589 34.734 43.182 35.236 43.182 L 35.236 43.182 C 37.407 43.182 39.491 42.318 41.03 40.786 C 42.563 39.25 43.428 37.168 43.428 35 C 43.428 32.832 42.563 30.75 41.03 29.214 C 39.491 27.682 37.407 26.818 35.236 26.818 C 33.17 26.818 31.176 27.595 29.661 29 C 28.145 30.405 27.222 32.332 27.067 34.391 Z  M 31.427 42.245 L 31.427 42.245 C 31.871 42.479 32.043 43.029 31.809 43.473 L 31.809 43.473 C 31.575 43.917 31.025 44.088 30.58 43.855 L 30.58 43.855 C 28.687 42.859 27.158 41.282 26.225 39.359 L 26.225 39.359 C 26.004 38.908 26.191 38.363 26.644 38.143 L 26.644 38.143 C 27.096 37.924 27.642 38.112 27.863 38.564 L 27.863 38.564 C 28.628 40.141 29.875 41.427 31.427 42.245 Z " fill-rule="evenodd" fill="url(#_lgradient_52)" vector-effect="non-scaling-stroke" stroke-width="1" stroke="url(#_lgradient_53)" stroke-linejoin="miter" stroke-linecap="square" stroke-miterlimit="3"/></svg>