<?xml version="1.0" encoding="UTF-8" standalone="no"?><!-- Generator: Gravit.io --><svg xmlns="http://www.w3.org/2000/svg" xmlns:xlink="http://www.w3.org/1999/xlink" style="isolation:isolate" viewBox="0 0 48 48" width="48pt" height="48pt"><linearGradient id="_lgradient_0" x1="0.5840564266095207" y1="0.0694444444444674" x2="1.0054970516307113" y2="1.0122980910425845" gradientTransform="matrix(34.885,0,0,45,7,2)" gradientUnits="userSpaceOnUse"><stop offset="0%" stop-opacity="1" style="stop-color:rgb(34,216,143)"/><stop offset="51.73913043478261%" stop-opacity="1" style="stop-color:rgb(147,135,218)"/><stop offset="98.69565217391305%" stop-opacity="1" style="stop-color:rgb(255,89,230)"/></linearGradient><path d=" M 15.612 26.656 L 14.455 28.589 C 15.015 29.308 15.513 30.073 15.942 30.876 C 16.56 32.062 16.975 33.336 17.162 34.66 C 17.218 35.112 17.26 35.569 17.257 36.021 C 17.629 35.848 18.004 35.688 18.383 35.541 C 19.588 35.085 20.85 34.826 22.138 34.758 C 22.971 34.709 23.822 34.728 24.654 34.818 L 25.799 32.753 L 15.612 26.656 L 15.612 26.656 Z  M 17.665 23.223 L 18.85 21.243 L 18.85 21.243 C 19.416 20.296 19.107 19.067 18.16 18.5 L 18.16 18.5 C 17.213 17.933 15.984 18.242 15.417 19.189 L 15.417 19.189 L 10.283 27.771 C 10.057 28.149 9.962 28.581 10.014 29.02 C 10.057 29.454 10.246 29.858 10.545 30.177 C 11.277 30.941 11.897 31.813 12.401 32.743 C 12.805 33.509 13.073 34.346 13.201 35.203 C 13.309 36.037 13.267 36.886 13.088 37.711 C 12.858 38.68 12.49 39.626 11.994 40.494 Q 11.741 40.937 11.782 41.94 L 13.123 42.288 L 14.552 42.607 L 15.302 42.717 Q 16.663 41.201 17.468 40.576 C 18.178 40.033 18.959 39.603 19.791 39.285 C 20.612 38.984 21.477 38.803 22.361 38.748 C 23.352 38.689 24.35 38.773 25.326 38.973 C 26.179 39.145 27.056 38.749 27.482 37.979 L 41.503 12.653 C 42.305 11.204 41.803 9.338 40.382 8.488 L 31.002 2.877 L 30.282 2.446 C 28.861 1.596 26.924 1.998 25.959 3.343 L 19.62 12.183 L 19.62 12.183 C 18.973 13.082 19.228 14.324 20.189 14.953 L 20.189 14.953 C 21.15 15.583 22.347 15.388 22.861 14.518 L 22.861 14.518 L 28.812 6.227 L 28.949 6.31 L 37.591 11.479 L 27.739 29.252 L 17.665 23.223 L 17.665 23.223 Z  M 9 43 L 39 43 C 40.104 43 41 43.896 41 45 L 41 45 C 41 46.104 40.104 47 39 47 L 9 47 C 7.896 47 7 46.104 7 45 L 7 45 C 7 43.896 7.896 43 9 43 Z " fill-rule="evenodd" fill="url(#_lgradient_0)"/></svg>