<?xml version="1.0" encoding="UTF-8" standalone="no"?><!-- Generator: Gravit.io --><svg xmlns="http://www.w3.org/2000/svg" xmlns:xlink="http://www.w3.org/1999/xlink" style="isolation:isolate" viewBox="0 0 48 48" width="48pt" height="48pt"><linearGradient id="_lgradient_2" x1="-0.014458464773922156" y1="0.009839246119734024" x2="1.0164565923220248" y2="1.0722930524759795" gradientTransform="matrix(47,0,0,44,0.5,0.5)" gradientUnits="userSpaceOnUse"><stop offset="0%" stop-opacity="1" style="stop-color:rgb(249,212,35)"/><stop offset="51.56237565086822%" stop-opacity="1" style="stop-color:rgb(255,78,80)"/><stop offset="99.1304347826087%" stop-opacity="1" style="stop-color:rgb(138,35,135)"/></linearGradient><path d=" M 47.5 33.5 L 47.5 28.5 L 47.5 28.5 L 47.5 25.5 L 47.5 19.5 L 47.5 19.5 L 47.5 16.5 L 47.5 3.5 C 47.5 1.844 46.156 0.5 44.5 0.5 L 3.5 0.5 C 1.844 0.5 0.5 1.844 0.5 3.5 L 0.5 8.5 L 0.5 11.5 L 0.5 11.5 L 0.5 41.5 C 0.5 43.156 1.844 44.5 3.5 44.5 L 11 44.5 L 12.5 44.5 L 12.5 42.5 L 12.5 41.5 L 12.5 41.5 L 12.5 41 L 12.5 36.5 L 12.5 33.5 L 12.5 33.5 L 12.5 28.5 L 12.5 28.5 L 12.5 25.5 L 12.5 19.5 L 12.5 19.5 L 12.5 16.5 L 12.5 4 L 12.5 3.5 L 35.5 3.5 L 35.5 4 L 35.5 8.5 L 35.5 11.5 L 35.5 11.5 L 35.5 41 L 35.5 41.5 L 35.5 42.5 L 35.5 42.5 L 35.5 44.5 L 37 44.5 L 44.5 44.5 C 46.156 44.5 47.5 43.156 47.5 41.5 L 47.5 36.5 L 47.5 33.5 Z  M 44.5 33.5 L 44.5 28.5 L 44.5 28.5 L 38.5 28.5 L 38.5 33.5 L 44.5 33.5 Z  M 44.5 36.5 L 44.5 41.5 L 38.5 41.5 L 38.5 41.5 L 38.5 41.5 L 38.5 41.5 L 38.5 41.5 L 38.5 41.5 L 38.5 41 L 38.5 36.5 L 44.5 36.5 Z  M 44.5 25.5 L 44.5 19.5 L 44.5 19.5 L 44.5 19.5 L 38.5 19.5 L 38.5 25.5 L 44.5 25.5 L 44.5 25.5 Z  M 44.5 11.5 L 44.5 16.5 L 44.5 16.5 L 38.5 16.5 L 38.5 11.5 L 44.5 11.5 L 44.5 11.5 L 44.5 11.5 Z  M 44.5 8.5 L 44.5 3.5 L 38.5 3.5 L 38.5 4 L 38.5 8.5 L 44.5 8.5 L 44.5 8.5 L 44.5 8.5 Z  M 3.5 33.5 L 3.5 28.5 L 3.5 28.5 L 9.5 28.5 L 9.5 33.5 L 3.5 33.5 L 3.5 33.5 L 3.5 33.5 L 3.5 33.5 L 3.5 33.5 Z  M 3.5 36.5 L 3.5 41.5 L 9.5 41.5 L 9.5 41.5 L 9.5 41.5 L 9.5 41.5 L 9.5 41 L 9.5 36.5 L 3.5 36.5 L 3.5 36.5 L 3.5 36.5 L 3.5 36.5 L 3.5 36.5 Z  M 3.5 25.5 L 3.5 19.5 L 3.5 19.5 L 3.5 19.5 L 9.5 19.5 L 9.5 25.5 L 3.5 25.5 L 3.5 25.5 L 3.5 25.5 L 3.5 25.5 L 3.5 25.5 L 3.5 25.5 Z  M 3.5 11.5 L 3.5 16.5 L 3.5 16.5 L 9.5 16.5 L 9.5 11.5 L 3.5 11.5 L 3.5 11.5 L 3.5 11.5 L 3.5 11.5 L 3.5 11.5 L 3.5 11.5 L 3.5 11.5 Z  M 3.5 8.5 L 3.5 3.5 L 9.5 3.5 L 9.5 4 L 9.5 8.5 L 3.5 8.5 L 3.5 8.5 L 3.5 8.5 L 3.5 8.5 L 3.5 8.5 L 3.5 8.5 L 3.5 8.5 Z  M 25.144 14.64 L 25.144 14.64 C 25.144 14.009 25.656 13.496 26.288 13.496 L 26.288 13.496 C 26.919 13.496 27.432 14.009 27.432 14.64 L 27.432 14.64 L 27.432 15.614 L 27.432 15.614 C 27.432 16.245 26.919 16.758 26.288 16.758 L 26.288 16.758 C 25.656 16.758 25.144 16.245 25.144 15.614 L 25.144 15.614 L 25.144 14.64 L 25.144 14.64 L 25.144 14.64 L 25.144 14.64 L 25.144 14.64 L 25.144 14.64 L 25.144 14.64 L 25.144 14.64 L 25.144 14.64 L 25.144 14.64 L 25.144 14.64 L 25.144 14.64 Z  M 25.144 21.551 L 25.144 21.551 C 25.144 20.919 25.656 20.407 26.288 20.407 L 26.288 20.407 C 26.919 20.407 27.432 20.919 27.432 21.551 L 27.432 21.551 L 27.432 26.508 L 31.336 26.508 C 33.44 26.508 34.02 27.79 32.63 29.37 L 26.518 36.319 C 25.128 37.899 22.872 37.899 21.482 36.319 L 15.37 29.37 C 13.98 27.79 14.56 26.508 16.664 26.508 L 20.568 26.508 L 20.568 14.64 L 20.568 14.64 C 20.568 14.009 21.081 13.496 21.712 13.496 L 21.712 13.496 C 22.344 13.496 22.856 14.009 22.856 14.64 L 22.856 14.64 L 22.856 28.795 L 19.135 28.795 C 18.714 28.795 18.583 29.064 18.844 29.395 L 23.528 35.349 C 23.789 35.68 24.211 35.68 24.472 35.349 L 29.156 29.395 C 29.417 29.064 29.286 28.795 28.865 28.795 L 25.144 28.795 L 25.144 21.551 L 25.144 21.551 L 25.144 21.551 L 25.144 21.551 L 25.144 21.551 L 25.144 21.551 L 25.144 21.551 L 25.144 21.551 L 25.144 21.551 L 25.144 21.551 L 25.144 21.551 L 25.144 21.551 Z " fill-rule="evenodd" fill="url(#_lgradient_2)"/></svg>