<?xml version="1.0" encoding="UTF-8" standalone="no"?><!-- Generator: Gravit.io --><svg xmlns="http://www.w3.org/2000/svg" xmlns:xlink="http://www.w3.org/1999/xlink" style="isolation:isolate" viewBox="0 0 48 48" width="48pt" height="48pt"><linearGradient id="_lgradient_86" x1="0" y1="0.5" x2="1" y2="0.5" gradientTransform="matrix(47,0,0,47,0.5,0.5)" gradientUnits="userSpaceOnUse"><stop offset="0%" stop-opacity="1" style="stop-color:rgb(34,216,143)"/><stop offset="51.73913043478261%" stop-opacity="1" style="stop-color:rgb(147,135,218)"/><stop offset="98.69565217391305%" stop-opacity="1" style="stop-color:rgb(255,89,230)"/></linearGradient><path d=" M 43.5 23.999 C 42.586 31.312 33.323 29.058 29.132 29.131 C 19.064 30.398 32.61 41.525 28.394 42.983 C 26.953 43.321 25.548 43.5 24.001 43.5 C 13.198 43.5 4.5 34.802 4.5 23.999 C 4.5 13.197 13.198 4.5 24.001 4.5 C 34.803 4.5 43.5 13.197 43.5 23.999 Z  M 29.64 33.14 C 29.65 33.16 29.66 33.18 29.67 33.2 C 30.07 34.06 30.5 34.91 30.98 35.73 C 31.46 36.57 31.91 37.43 32.33 38.3 C 32.55 38.78 32.75 39.28 32.9 39.78 C 33.11 40.41 33.22 41.06 33.23 41.72 C 33.26 42.83 32.94 43.91 32.32 44.82 C 31.61 45.82 30.58 46.54 29.4 46.86 C 27.63 47.28 25.82 47.5 24.01 47.5 C 17.77 47.51 11.78 45.03 7.37 40.63 C 2.97 36.22 0.49 30.23 0.5 24 C 0.49 17.77 2.97 11.78 7.37 7.37 C 11.78 2.97 17.77 0.49 24 0.5 C 30.23 0.49 36.22 2.97 40.63 7.37 C 45.03 11.78 47.51 17.77 47.5 24 C 47.5 24.14 47.49 24.27 47.48 24.41 C 47.31 26.06 46.74 27.65 45.82 29.03 C 44.94 30.28 43.76 31.3 42.4 31.99 C 41.23 32.57 39.98 32.97 38.69 33.16 C 37.55 33.33 36.39 33.42 35.24 33.4 C 33.99 33.39 32.74 33.33 31.5 33.24 C 30.88 33.18 30.26 33.15 29.64 33.14 Z  M 47.5 24 M 47.5 24 L 47.5 24 L 47.5 24 C 47.5 24 47.5 24 47.5 24 Z " fill-rule="evenodd" fill="url(#_lgradient_86)"/><linearGradient id="_lgradient_87" x1="0" y1="0.5" x2="1" y2="0.5" gradientTransform="matrix(7,0,0,7,13,30)" gradientUnits="userSpaceOnUse"><stop offset="0%" stop-opacity="1" style="stop-color:rgb(84,51,255)"/><stop offset="51.73913043478261%" stop-opacity="1" style="stop-color:rgb(32,189,255)"/><stop offset="98.26086956521739%" stop-opacity="1" style="stop-color:rgb(165,254,203)"/></linearGradient><path d=" M 13 33.5 C 13 31.568 14.568 30 16.5 30 C 18.432 30 20 31.568 20 33.5 C 20 35.432 18.432 37 16.5 37 C 14.568 37 13 35.432 13 33.5 Z " fill="url(#_lgradient_87)"/><linearGradient id="_lgradient_88" x1="0" y1="0.5" x2="1" y2="0.5" gradientTransform="matrix(7,0,0,7,8,19)" gradientUnits="userSpaceOnUse"><stop offset="0%" stop-opacity="1" style="stop-color:rgb(255,229,59)"/><stop offset="98.69565217391305%" stop-opacity="1" style="stop-color:rgb(255,0,91)"/></linearGradient><path d=" M 8 22.5 C 8 20.568 9.568 19 11.5 19 C 13.432 19 15 20.568 15 22.5 C 15 24.432 13.432 26 11.5 26 C 9.568 26 8 24.432 8 22.5 Z " fill="url(#_lgradient_88)"/><linearGradient id="_lgradient_89" x1="0" y1="0.5" x2="0.9074880558539661" y2="0.9200778838291643" gradientTransform="matrix(7,0,0,7,15,9)" gradientUnits="userSpaceOnUse"><stop offset="0%" stop-opacity="1" style="stop-color:rgb(0,255,216)"/><stop offset="83.88839793817618%" stop-opacity="1" style="stop-color:rgb(0,255,184)"/></linearGradient><path d=" M 15 12.5 C 15 10.568 16.568 9 18.5 9 C 20.432 9 22 10.568 22 12.5 C 22 14.432 20.432 16 18.5 16 C 16.568 16 15 14.432 15 12.5 Z " fill="url(#_lgradient_89)"/><linearGradient id="_lgradient_90" x1="0" y1="0.5" x2="0.9074880558539661" y2="0.9200778838291643" gradientTransform="matrix(7,0,0,7,27,8)" gradientUnits="userSpaceOnUse"><stop offset="0%" stop-opacity="1" style="stop-color:rgb(247,241,7)"/><stop offset="83.88839793817618%" stop-opacity="1" style="stop-color:rgb(255,187,36)"/></linearGradient><path d=" M 27 11.5 C 27 9.568 28.568 8 30.5 8 C 32.432 8 34 9.568 34 11.5 C 34 13.432 32.432 15 30.5 15 C 28.568 15 27 13.432 27 11.5 Z " fill="url(#_lgradient_90)"/></svg>