<?xml version="1.0" encoding="UTF-8" standalone="no"?><!-- Generator: Gravit.io --><svg xmlns="http://www.w3.org/2000/svg" xmlns:xlink="http://www.w3.org/1999/xlink" style="isolation:isolate" viewBox="0 0 48 48" width="48pt" height="48pt"><linearGradient id="_lgradient_25" x1="0.54298682191" y1="-0.2655597284837264" x2="0.5197544986776772" y2="0.9833570139497876" gradientTransform="matrix(47,0,0,47,0.5,0.5)" gradientUnits="userSpaceOnUse"><stop offset="3.0434782608695654%" stop-opacity="1" style="stop-color:rgb(166,124,243)"/><stop offset="98.69565217391305%" stop-opacity="1" style="stop-color:rgb(88,78,123)"/></linearGradient><path d=" M 20.48 36 L 20.48 36 C 21.54 36.309 22.147 37.42 21.835 38.48 L 21.835 38.48 C 21.523 39.54 20.41 40.145 19.35 39.83 L 19.35 39.83 C 15.93 38.83 12.93 36.74 10.79 33.89 C 8.65 31.04 7.5 27.56 7.5 24 C 7.5 19.63 9.24 15.43 12.33 12.33 C 15.43 9.24 19.63 7.5 24 7.5 C 28.23 7.5 32.29 9.12 35.36 12.03 C 38.42 14.94 40.26 18.92 40.48 23.14 L 40.48 23.14 C 40.535 24.238 39.686 25.177 38.585 25.235 L 38.585 25.235 C 37.484 25.293 36.541 24.448 36.48 23.35 L 36.48 23.35 C 36.32 20.15 34.93 17.13 32.61 14.93 C 30.28 12.73 27.2 11.5 24 11.5 C 20.69 11.5 17.5 12.82 15.16 15.16 C 12.82 17.5 11.5 20.69 11.5 24 C 11.5 26.7 12.37 29.33 13.99 31.49 C 15.61 33.66 17.89 35.24 20.48 36 L 20.48 36 Z  M 7.5 4.5 L 40.5 4.5 C 42.156 4.5 43.5 5.844 43.5 7.5 L 43.5 40.5 C 43.5 42.156 42.156 43.5 40.5 43.5 L 7.5 43.5 C 5.844 43.5 4.5 42.156 4.5 40.5 L 4.5 7.5 C 4.5 5.844 5.844 4.5 7.5 4.5 L 7.5 4.5 L 7.5 4.5 Z  M 5.5 0.5 L 42.5 0.5 C 45.26 0.5 47.5 2.74 47.5 5.5 L 47.5 42.5 C 47.5 45.26 45.26 47.5 42.5 47.5 L 5.5 47.5 C 2.74 47.5 0.5 45.26 0.5 42.5 L 0.5 5.5 C 0.5 2.74 2.74 0.5 5.5 0.5 L 5.5 0.5 L 5.5 0.5 Z  M 35.25 29.45 L 35.25 29.45 C 35.73 28.457 36.927 28.042 37.92 28.525 L 37.92 28.525 C 38.913 29.008 39.33 30.207 38.85 31.2 L 38.85 31.2 C 36.57 35.9 32.19 39.25 27.05 40.22 L 27.05 40.22 C 25.968 40.424 24.924 39.71 24.72 38.625 L 24.72 38.625 C 24.516 37.54 25.228 36.494 26.31 36.29 L 26.31 36.29 C 30.2 35.55 33.52 33.02 35.25 29.45 Z " fill-rule="evenodd" fill="url(#_lgradient_25)"/><linearGradient id="_lgradient_26" x1="0.18336115895060273" y1="0.24917751794896525" x2="0.9027436828643176" y2="0.9034772483231972" gradientTransform="matrix(12,0,0,12,18,18)" gradientUnits="userSpaceOnUse"><stop offset="2.608695652173913%" stop-opacity="1" style="stop-color:rgb(179,255,171)"/><stop offset="98.69565217391305%" stop-opacity="1" style="stop-color:rgb(18,255,247)"/></linearGradient><path d=" M 18 24 C 18 20.689 20.689 18 24 18 C 27.311 18 30 20.689 30 24 C 30 27.311 27.311 30 24 30 C 20.689 30 18 27.311 18 24 Z " fill="url(#_lgradient_26)"/></svg>