<?xml version="1.0" encoding="UTF-8" standalone="no"?><!-- Generator: Gravit.io --><svg xmlns="http://www.w3.org/2000/svg" xmlns:xlink="http://www.w3.org/1999/xlink" style="isolation:isolate" viewBox="0 0 48 48" width="48pt" height="48pt"><linearGradient id="_lgradient_4" x1="0.9941176470588236" y1="0.4801559760374085" x2="0.00018059855521146417" y2="0.45213064394988733" gradientTransform="matrix(47.058,0,0,46.985,0.495,0.559)" gradientUnits="userSpaceOnUse"><stop offset="0%" stop-opacity="1" style="stop-color:rgb(17,153,142)"/><stop offset="99.1304347826087%" stop-opacity="1" style="stop-color:rgb(56,239,125)"/></linearGradient><path d=" M 25.631 43.272 L 25.631 43.272 C 24.457 43.371 23.582 44.407 23.678 45.584 L 23.678 45.584 C 23.774 46.76 24.81 47.635 25.99 47.536 L 25.99 47.536 C 31.9 47.044 37.416 44.331 41.419 39.942 C 45.412 35.553 47.606 29.811 47.552 23.875 C 47.496 17.64 44.96 11.674 40.514 7.297 C 36.057 2.93 30.046 0.504 23.811 0.56 C 17.576 0.616 11.61 3.152 7.233 7.598 C 2.866 12.054 0.439 18.066 0.496 24.301 L 0.496 24.301 C 0.506 25.481 1.474 26.431 2.654 26.42 L 2.654 26.42 C 3.835 26.41 4.784 25.443 4.774 24.262 L 4.774 24.262 C 4.727 19.161 6.715 14.244 10.287 10.597 C 13.869 6.96 18.748 4.884 23.85 4.838 C 28.951 4.792 33.868 6.779 37.515 10.351 C 41.152 13.933 43.228 18.813 43.274 23.914 C 43.318 28.769 41.532 33.47 38.259 37.061 C 34.987 40.652 30.472 42.864 25.631 43.272 L 25.631 43.272 Z  M 7.058 33.194 L 7.058 33.194 C 6.499 32.154 5.202 31.763 4.162 32.321 L 4.162 32.321 C 3.122 32.88 2.731 34.177 3.29 35.217 L 3.29 35.217 C 5.672 39.645 9.416 43.205 13.959 45.356 L 13.959 45.356 C 15.026 45.866 16.304 45.413 16.811 44.346 L 16.811 44.346 C 17.318 43.279 16.863 41.999 15.796 41.489 L 15.796 41.489 C 12.069 39.726 9.016 36.823 7.058 33.194 L 7.058 33.194 Z  M 22.937 20.579 L 22.937 20.579 L 19.579 20.579 L 19.579 20.579 Q 19.272 19.247 18.695 18.709 L 18.695 18.709 L 18.695 18.709 Q 18.119 18.171 17.068 18.171 L 17.068 18.171 L 17.068 18.171 Q 15.479 18.171 14.864 19.298 L 14.864 19.298 L 14.864 19.298 Q 14.198 20.605 14.198 22.501 L 14.198 22.501 L 14.198 22.501 Q 14.198 24.423 14.954 25.538 L 14.954 25.538 L 14.954 25.538 Q 15.71 26.653 17.042 26.653 L 17.042 26.653 L 17.042 26.653 Q 18.093 26.653 18.67 26.102 L 18.67 26.102 L 18.67 26.102 Q 19.246 25.551 19.579 24.27 L 19.579 24.27 L 22.937 24.27 L 22.937 24.27 Q 22.68 26.832 20.886 28.242 L 20.886 28.242 L 20.886 28.242 Q 19.323 29.497 17.017 29.497 L 17.017 29.497 L 17.017 29.497 Q 13.788 29.497 12.122 27.422 L 12.122 27.422 L 12.122 27.422 Q 10.661 25.628 10.661 22.578 L 10.661 22.578 L 10.661 22.578 Q 10.661 18.888 12.583 16.992 L 12.583 16.992 L 12.583 16.992 Q 14.249 15.326 17.094 15.326 L 17.094 15.326 L 17.094 15.326 Q 19.81 15.326 21.399 16.889 L 21.399 16.889 L 21.399 16.889 Q 22.757 18.273 22.937 20.579 L 22.937 20.579 Z  M 30.932 25.5 L 33.725 15.608 L 37.339 15.608 L 31.752 31.65 L 31.752 31.65 Q 31.163 33.367 30.189 34.021 L 30.189 34.021 L 30.189 34.021 Q 29.215 34.674 27.293 34.674 L 27.293 34.674 L 27.293 34.674 Q 25.525 34.674 24.833 34.213 L 24.833 34.213 L 25.371 31.829 L 25.371 31.829 Q 26.294 32.06 26.909 32.06 L 26.909 32.06 L 26.909 32.06 Q 27.806 32.06 28.446 31.458 L 28.446 31.458 L 28.446 31.458 Q 29.087 30.856 29.087 30.036 L 29.087 30.036 L 29.087 29.754 L 24.038 15.608 L 27.908 15.608 L 30.932 25.5 L 30.932 25.5 Z " fill-rule="evenodd" fill="url(#_lgradient_4)"/></svg>