<?xml version="1.0" encoding="UTF-8" standalone="no"?><!-- Generator: Gravit.io --><svg xmlns="http://www.w3.org/2000/svg" xmlns:xlink="http://www.w3.org/1999/xlink" style="isolation:isolate" viewBox="0 0 54 54" width="54pt" height="54pt"><linearGradient id="_lgradient_61" x1="0.04062500000000003" y1="0.054347826086956486" x2="0.9683507709251103" y2="0.9739513503160315" gradientTransform="matrix(34.87,0,0,24.82,0.98,29.03)" gradientUnits="userSpaceOnUse"><stop offset="0%" stop-opacity="1" style="stop-color:rgb(240,107,169)"/><stop offset="98.69565217391305%" stop-opacity="1" style="stop-color:rgb(66,216,246)"/></linearGradient><path d=" M 33.89 49.54 L 35.85 49.93 L 35.07 53.85 L 33.11 53.46 L 0.98 47.04 L 5.58 30.95 L 6.13 29.03 L 9.97 30.13 L 9.42 32.05 L 6.02 43.96 L 33.89 49.54 Z " fill="url(#_lgradient_61)"/><linearGradient id="_lgradient_62" x1="-0.000038208333333289435" y1="0.5000000833333331" x2="0.9999618333333335" y2="0.5000000833333331" gradientTransform="matrix(20.23,0,0,14.3,19.77,39.7)" gradientUnits="userSpaceOnUse"><stop offset="0%" stop-opacity="1" style="stop-color:rgb(211,0,220)"/><stop offset="100%" stop-opacity="1" style="stop-color:rgb(135,0,255)"/></linearGradient><path d=" M 34.59 42.91 L 35.18 41 L 40 40 L 38.41 44.09 L 35.18 54 L 23.31 44.1 L 19.77 41 L 24.11 39.7 L 25.71 40.9 L 33.43 46.69 L 34.59 42.91 Z " fill="url(#_lgradient_62)"/><linearGradient id="_lgradient_63" x1="0.3802574274249695" y1="-0.21428571428571438" x2="0.5618713233757501" y2="1.0689855976448497" gradientTransform="matrix(26.05,0,0,12.25,22.95,0.02)" gradientUnits="userSpaceOnUse"><stop offset="0%" stop-opacity="1" style="stop-color:rgb(24,208,173)"/><stop offset="90.44964029999998%" stop-opacity="1" style="stop-color:rgb(7,195,242)"/></linearGradient><path d=" M 27.01 9.06 L 25.759 9.82 L 22.95 7.19 L 24.51 5.94 L 31.89 0.02 L 45.61 7.84 L 49 9.82 L 45.06 12.27 L 43.39 11.16 L 32.1 4.98 L 27.01 9.06 Z " fill="url(#_lgradient_63)"/><linearGradient id="_lgradient_64" x1="-0.000038208333333289435" y1="0.500000083333333" x2="1.5833333333333321" y2="0.909090909090909" gradientTransform="matrix(9.51,0,0,25.35,44.77,9.88)" gradientUnits="userSpaceOnUse"><stop offset="0%" stop-opacity="1" style="stop-color:rgb(211,0,220)"/><stop offset="100%" stop-opacity="1" style="stop-color:rgb(135,0,255)"/></linearGradient><path d=" M 46.05 12.71 L 45.61 10.76 L 49.51 9.88 L 49.95 11.83 L 54.28 30.9 L 48.5 34.23 L 46.77 35.23 L 44.77 31.77 L 46.5 30.77 L 49.72 28.91 L 46.05 12.71 Z " fill="url(#_lgradient_64)"/><linearGradient id="_lgradient_65" x1="0" y1="0.5" x2="1" y2="0.5" gradientTransform="matrix(48.19,0,0,40.02,1.5,2.16)" gradientUnits="userSpaceOnUse"><stop offset="0%" stop-opacity="1" style="stop-color:rgb(34,216,143)"/><stop offset="51.73913043478261%" stop-opacity="1" style="stop-color:rgb(147,135,218)"/><stop offset="98.69565217391305%" stop-opacity="1" style="stop-color:rgb(255,89,230)"/></linearGradient><path d=" M 12.82 30.99 L 14.32 32.31 L 12.82 35.97 L 10.18 34.01 L 1.5 26.41 L 1.5 2.16 L 49.69 9.82 L 46.22 42.18 L 40.87 40.4 L 38.97 39.76 L 40.24 35.97 L 42.13 36.6 L 42.78 36.82 L 45.31 13.18 L 5.5 6.84 L 5.5 24.59 L 12.82 30.99 Z " fill="url(#_lgradient_65)"/><linearGradient id="_lgradient_66" x1="-0.35344827586206895" y1="0.4051724137931035" x2="1.2100486100562058" y2="0.47504936958833355" gradientTransform="matrix(29,0,0,29,12,13)" gradientUnits="userSpaceOnUse"><stop offset="0%" stop-opacity="1" style="stop-color:rgb(34,216,143)"/><stop offset="51.73913043478261%" stop-opacity="1" style="stop-color:rgb(147,135,218)"/><stop offset="98.69565217391305%" stop-opacity="1" style="stop-color:rgb(255,89,230)"/></linearGradient><path d=" M 38.478 34.718 L 38.478 34.718 C 38.478 34.023 39.043 33.458 39.739 33.458 L 39.739 33.458 C 40.435 33.458 41 34.023 41 34.718 L 41 34.718 L 41 38.848 C 41 40.588 39.588 42 37.848 42 L 15.152 42 C 13.412 42 12 40.588 12 38.848 L 12 26.87 L 12 26.87 C 12 26.174 12.565 25.609 13.261 25.609 L 13.261 25.609 C 13.957 25.609 14.522 26.174 14.522 26.87 L 14.522 26.87 L 14.522 37.587 C 14.522 38.631 15.369 39.478 16.413 39.478 L 36.587 39.478 C 37.631 39.478 38.478 38.631 38.478 37.587 L 38.478 34.718 L 38.478 34.718 L 38.478 34.718 Z  M 14.522 20.282 L 14.522 20.282 C 14.522 20.977 13.957 21.542 13.261 21.542 L 13.261 21.542 C 12.565 21.542 12 20.977 12 20.282 L 12 20.282 L 12 16.152 C 12 14.412 13.412 13 15.152 13 L 37.848 13 C 39.588 13 41 14.412 41 16.152 L 41 28.647 L 41 28.647 C 41 29.343 40.435 29.908 39.739 29.908 L 39.739 29.908 C 39.043 29.908 38.478 29.343 38.478 28.647 L 38.478 28.647 L 38.478 17.413 C 38.478 16.369 37.631 15.522 36.587 15.522 L 16.413 15.522 C 15.369 15.522 14.522 16.369 14.522 17.413 L 14.522 20.282 L 14.522 20.282 L 14.522 20.282 Z  M 16.5 34 L 25.5 34 L 25.5 36.5 L 16.5 36.5 L 16.5 34 L 16.5 34 Z  M 22.889 23.792 L 22.889 23.792 L 22.889 23.792 Q 22.889 20.333 19.834 20.333 L 19.834 20.333 L 18.622 20.333 L 18.622 27.325 L 19.599 27.325 L 19.599 27.325 Q 22.889 27.325 22.889 23.792 L 22.889 23.792 Z  M 30.585 25.07 L 30.585 23.175 L 34.845 23.175 L 34.845 28.743 L 34.845 28.743 Q 33.809 29.081 32.895 29.217 L 32.895 29.217 L 32.895 29.217 Q 31.98 29.352 31.026 29.352 L 31.026 29.352 L 31.026 29.352 Q 28.594 29.352 27.313 27.924 L 27.313 27.924 L 27.313 27.924 Q 26.031 26.495 26.031 23.822 L 26.031 23.822 L 26.031 23.822 Q 26.031 21.222 27.518 19.767 L 27.518 19.767 L 27.518 19.767 Q 29.006 18.313 31.643 18.313 L 31.643 18.313 L 31.643 18.313 Q 33.295 18.313 34.83 18.974 L 34.83 18.974 L 34.074 20.796 L 34.074 20.796 Q 32.899 20.208 31.628 20.208 L 31.628 20.208 L 31.628 20.208 Q 30.152 20.208 29.263 21.2 L 29.263 21.2 L 29.263 21.2 Q 28.374 22.191 28.374 23.866 L 28.374 23.866 L 28.374 23.866 Q 28.374 25.614 29.09 26.536 L 29.09 26.536 L 29.09 26.536 Q 29.806 27.457 31.173 27.457 L 31.173 27.457 L 31.173 27.457 Q 31.885 27.457 32.619 27.311 L 32.619 27.311 L 32.619 25.07 L 30.585 25.07 L 30.585 25.07 Z  M 25.254 23.734 L 25.254 23.734 L 25.254 23.734 Q 25.254 26.385 23.745 27.795 L 23.745 27.795 L 23.745 27.795 Q 22.236 29.205 19.386 29.205 L 19.386 29.205 L 16.345 29.205 L 16.345 18.467 L 19.716 18.467 L 19.716 18.467 Q 22.346 18.467 23.8 19.855 L 23.8 19.855 L 23.8 19.855 Q 25.254 21.244 25.254 23.734 L 25.254 23.734 Z " fill-rule="evenodd" fill="url(#_lgradient_66)"/></svg>