<?xml version="1.0" encoding="UTF-8" standalone="no"?><!-- Generator: Gravit.io --><svg xmlns="http://www.w3.org/2000/svg" xmlns:xlink="http://www.w3.org/1999/xlink" style="isolation:isolate" viewBox="0 0 48 48" width="48pt" height="48pt"><linearGradient id="_lgradient_0" x1="0" y1="0.5" x2="1" y2="0.5" gradientTransform="matrix(48,0,0,48,0,0)" gradientUnits="userSpaceOnUse"><stop offset="0%" stop-opacity="1" style="stop-color:rgb(84,51,255)"/><stop offset="51.73913043478261%" stop-opacity="1" style="stop-color:rgb(32,189,255)"/><stop offset="98.26086956521739%" stop-opacity="1" style="stop-color:rgb(165,254,203)"/></linearGradient><path d=" M 33.886 41.178 L 33.886 41.178 C 34.885 40.607 36.165 40.953 36.742 41.949 L 36.742 41.949 C 37.319 42.945 36.976 44.223 35.976 44.799 L 35.976 44.799 C 32.089 47.037 27.656 48.139 23.182 47.986 C 19.125 47.848 15.166 46.679 11.677 44.597 L 11.677 44.597 C 10.689 44.005 10.368 42.721 10.96 41.733 L 10.96 41.733 C 11.553 40.745 12.836 40.424 13.825 41.016 L 13.825 41.016 C 16.7 42.743 19.966 43.7 23.324 43.815 C 27.027 43.941 30.68 43.032 33.886 41.178 L 33.886 41.178 L 33.886 41.178 L 33.886 41.178 L 33.886 41.178 L 33.886 41.178 L 33.886 41.178 L 33.886 41.178 Z  M 41.748 15.156 L 41.748 15.156 C 41.23 14.124 41.647 12.868 42.679 12.353 L 42.679 12.353 C 43.711 11.838 44.964 12.257 45.477 13.289 L 45.477 13.289 C 47.265 16.858 48.122 20.824 47.986 24.818 C 47.882 27.863 47.206 30.857 45.983 33.635 L 45.983 33.635 C 45.521 34.691 44.288 35.173 43.232 34.71 L 43.232 34.71 C 42.176 34.248 41.694 33.015 42.157 31.959 L 42.157 31.959 C 43.175 29.665 43.729 27.189 43.814 24.676 C 43.927 21.38 43.214 18.109 41.748 15.156 L 41.748 15.156 L 41.748 15.156 L 41.748 15.156 L 41.748 15.156 L 41.748 15.156 L 41.748 15.156 L 41.748 15.156 Z  M 15.411 6.135 L 15.411 6.135 C 14.374 6.63 13.126 6.19 12.625 5.153 L 12.625 5.153 C 12.125 4.116 12.56 2.867 13.597 2.367 L 13.597 2.367 C 17.089 0.69 20.938 -0.118 24.818 0.014 C 28.551 0.141 32.214 1.133 35.493 2.926 L 35.493 2.926 C 36.506 3.479 36.879 4.75 36.326 5.763 L 36.326 5.763 C 35.773 6.775 34.502 7.148 33.489 6.595 L 33.489 6.595 C 30.783 5.114 27.762 4.291 24.676 4.185 C 21.474 4.076 18.298 4.741 15.411 6.135 L 15.411 6.135 L 15.411 6.135 L 15.411 6.135 L 15.411 6.135 L 15.411 6.135 L 15.411 6.135 Z  M 5.19 30.291 L 5.19 30.291 C 5.557 31.381 4.967 32.564 3.874 32.93 L 3.874 32.93 C 2.781 33.296 1.596 32.703 1.23 31.608 L 1.23 31.608 C 0.331 28.894 -0.083 26.04 0.014 23.182 C 0.143 19.407 1.156 15.704 2.992 12.394 L 2.992 12.394 C 3.545 11.387 4.813 11.023 5.823 11.582 L 5.823 11.582 C 6.833 12.141 7.199 13.412 6.64 14.419 L 6.64 14.419 C 5.127 17.155 4.292 20.206 4.185 23.324 C 4.105 25.692 4.442 28.042 5.19 30.291 L 5.19 30.291 L 5.19 30.291 L 5.19 30.291 L 5.19 30.291 L 5.19 30.291 Z  M 41.964 8.836 C 41.924 9.988 40.958 10.89 39.807 10.851 C 38.656 10.812 37.753 9.845 37.792 8.694 C 37.831 7.543 38.798 6.64 39.949 6.68 C 41.1 6.719 42.003 7.685 41.964 8.836 L 41.964 8.836 L 41.964 8.836 L 41.964 8.836 L 41.964 8.836 Z  M 9.362 37.763 C 9.323 38.914 8.357 39.817 7.206 39.778 C 6.054 39.738 5.152 38.772 5.191 37.621 C 5.23 36.47 6.197 35.567 7.348 35.606 C 8.499 35.645 9.402 36.612 9.362 37.763 L 9.362 37.763 L 9.362 37.763 L 9.362 37.763 Z  M 42.771 38.902 C 42.81 37.751 41.907 36.785 40.756 36.745 C 39.605 36.706 38.639 37.609 38.599 38.76 C 38.56 39.911 39.463 40.878 40.614 40.917 C 41.765 40.956 42.732 40.053 42.771 38.902 L 42.771 38.902 L 42.771 38.902 Z  M 10.865 7.776 C 10.904 6.625 10.002 5.658 8.851 5.619 C 7.699 5.58 6.733 6.483 6.694 7.634 C 6.654 8.785 7.557 9.751 8.708 9.791 C 9.86 9.83 10.826 8.927 10.865 7.776 L 10.865 7.776 Z  M 39.28 16.839 C 38.717 17.444 38.815 19.706 38.932 19.687 C 39.506 19.57 39.452 16.657 39.28 16.839 L 39.28 16.839 Z  M 40.909 17.183 C 40.843 16.999 39.362 19.078 39.624 19.843 C 39.741 20.175 41.108 17.765 40.909 17.183 L 40.909 17.183 Z  M 33.218 20.718 C 33.238 20.698 33.261 20.726 33.284 20.749 C 33.456 21.319 33.647 21.862 34.78 21.999 C 34.913 22.015 34.151 22.46 33.628 22.187 C 33.151 21.898 33.108 20.847 33.218 20.718 L 33.218 20.718 Z  M 36.156 23.589 C 36.261 23.573 36.336 23.577 36.41 23.589 C 36.687 23.659 34.4 24.851 34.222 24.687 C 34.113 24.582 35.441 23.722 36.16 23.589 L 36.156 23.589 L 36.156 23.589 Z  M 36.754 24.343 C 36.992 24.363 35.43 25.98 35.254 25.812 C 35.125 25.695 36.266 24.304 36.754 24.343 L 36.754 24.343 Z  M 7.219 14.499 C 7.145 14.644 7.071 14.788 7 14.933 C 8.125 15.558 11.367 17.187 12.906 18.152 C 14.851 19.343 17.48 21.773 17.687 22.182 C 15.664 25.705 16.582 28.823 16.343 29.155 C 16.171 29.432 14.581 31.178 15.093 31.436 C 15.601 31.69 16.409 31.291 16.531 31.213 C 16.785 31.057 17.047 30.83 16.937 31.279 C 16.722 32.197 15.746 34.404 17.093 33.935 C 17.257 33.841 19.425 31.451 19.687 31.369 C 24 32.494 28.824 31.978 29.717 31.56 C 30.182 31.591 31.498 32.419 32.248 32.814 C 32.998 33.205 35.041 34.185 34.436 32.404 C 34.248 31.841 32.905 30.404 33.123 30.31 C 33.603 30.119 34.791 30.806 35.248 30.935 C 36.615 31.318 36.799 30.787 35.936 29.619 C 35.084 28.451 34.956 28.631 34.686 28.092 C 34.475 27.658 34.686 27.178 34.842 27.061 C 35.119 26.85 39.201 24.584 40.158 23.717 C 41.576 22.428 40.158 20.819 39.81 20.592 C 36.869 18.475 33.849 18.928 33.81 18.592 C 33.79 18.209 33.798 17.104 33.747 16.721 C 33.454 14.127 32.255 14.78 32.091 14.78 C 30.892 14.968 31.333 16.803 31.841 18.53 C 31.88 18.971 31.423 18.776 31.153 18.311 C 30.231 15.838 29.844 15.881 29.59 15.807 C 29.344 15.752 28.477 16.28 28.492 17.28 C 28.496 17.565 28.836 18.925 28.836 19.343 C 28.27 19.839 28.242 20.964 27.648 21.374 C 25.918 21.733 21.761 20.519 21.242 20.464 C 19.445 20.128 18.66 21.476 18.371 21.152 C 16.039 18.48 12.476 16.496 10.933 16.152 C 10.335 16.023 8.316 15.132 7.589 14.683 C 7.472 14.613 7.339 14.562 7.21 14.495 L 7.219 14.499 L 7.219 14.499 Z " fill-rule="evenodd" fill="url(#_lgradient_0)"/></svg>