<?xml version="1.0" encoding="UTF-8" standalone="no"?><!-- Generator: Gravit.io --><svg xmlns="http://www.w3.org/2000/svg" xmlns:xlink="http://www.w3.org/1999/xlink" style="isolation:isolate" viewBox="0 0 48 48" width="48pt" height="48pt"><linearGradient id="_lgradient_10" x1="0" y1="0.5" x2="0.9877902644462152" y2="0.3442104192659979" gradientTransform="matrix(34.445,0,0,40.476,6.778,3.762)" gradientUnits="userSpaceOnUse"><stop offset="100%" stop-opacity="1" style="stop-color:rgb(34,216,143)"/><stop offset="100%" stop-opacity="1" style="stop-color:rgb(33,214,145)"/></linearGradient><path d=" M 12.341 32.687 L 12.341 8.531 L 16.713 8.531 L 16.713 32.687 L 27.44 32.687 C 27.94 32.675 28.429 32.567 28.894 32.389 C 29.371 32.234 29.812 32.007 30.206 31.697 C 31.219 30.862 32.161 29.944 33.02 28.955 C 33.771 28.096 34.415 27.166 34.975 26.177 C 35.917 24.531 36.418 22.671 36.453 20.776 C 36.418 18.856 35.905 16.96 34.951 15.279 C 34.391 14.254 33.735 13.3 32.972 12.406 C 32.113 11.369 31.16 10.415 30.134 9.532 C 29.753 9.223 29.324 8.996 28.859 8.841 C 28.405 8.65 27.929 8.543 27.44 8.531 L 23.469 8.531 L 23.469 8.531 C 22.153 8.531 21.085 7.462 21.085 6.146 L 21.085 6.146 C 21.085 4.83 22.153 3.762 23.469 3.762 L 23.469 3.762 L 27.476 3.762 C 27.499 3.762 27.523 3.762 27.535 3.762 C 28.56 3.786 29.574 3.988 30.528 4.37 C 31.493 4.716 32.4 5.228 33.198 5.884 C 34.426 6.933 35.571 8.09 36.62 9.33 C 37.574 10.451 38.409 11.667 39.124 12.966 C 40.459 15.351 41.187 18.033 41.222 20.776 C 41.187 23.494 40.471 26.165 39.124 28.526 C 38.409 29.789 37.574 30.982 36.62 32.079 C 35.571 33.283 34.426 34.403 33.198 35.405 C 32.388 36.049 31.482 36.538 30.516 36.872 C 29.562 37.241 28.549 37.432 27.535 37.456 C 27.511 37.456 27.499 37.456 27.476 37.456 L 16.713 37.456 L 16.713 39.785 L 21.085 39.785 L 14.527 44.238 L 7.97 39.785 L 12.341 39.785 L 12.341 37.456 L 9.162 37.456 L 9.162 37.456 C 7.846 37.456 6.778 36.387 6.778 35.071 L 6.778 35.071 C 6.778 33.755 7.846 32.687 9.162 32.687 L 9.162 32.687 L 12.341 32.687 Z  M 9.162 3.762 L 14.329 3.762 C 15.645 3.762 16.713 4.83 16.713 6.146 L 16.713 8.531 L 9.162 8.531 C 7.846 8.531 6.778 7.462 6.778 6.146 L 6.778 6.146 C 6.778 4.83 7.846 3.762 9.162 3.762 Z " fill-rule="evenodd" fill="url(#_lgradient_10)"/><linearGradient id="_lgradient_11" x1="0" y1="0.5" x2="1" y2="0.5" gradientTransform="matrix(0.198,-13.388,17.85,0.263,17.342,25.129)" gradientUnits="userSpaceOnUse"><stop offset="0%" stop-opacity="1" style="stop-color:rgb(255,224,49)"/><stop offset="98.69565217391305%" stop-opacity="1" style="stop-color:rgb(252,82,82)"/></linearGradient><path d=" M 23.825 22.745 L 23.825 22.745 C 24.509 22.755 25.056 23.319 25.046 24.003 L 25.046 24.003 C 25.036 24.687 24.472 25.235 23.788 25.224 L 23.788 25.224 L 21.474 25.19 C 19.194 25.157 18.392 23.604 19.685 21.725 L 24.122 15.277 C 25.415 13.399 27.469 13.429 28.706 15.345 L 32.951 21.921 C 34.188 23.837 33.341 25.365 31.061 25.332 L 28.747 25.298 L 28.747 25.298 C 28.062 25.288 27.515 24.724 27.525 24.04 L 27.525 24.04 C 27.535 23.356 28.099 22.808 28.783 22.818 L 28.783 22.818 L 30.601 22.845 L 27.296 17.725 C 26.801 16.958 25.979 16.946 25.462 17.698 L 22.007 22.718 L 23.825 22.745 Z " fill="url(#_lgradient_11)"/></svg>