<?xml version="1.0" encoding="UTF-8" standalone="no"?><!-- Generator: Gravit.io --><svg xmlns="http://www.w3.org/2000/svg" xmlns:xlink="http://www.w3.org/1999/xlink" style="isolation:isolate" viewBox="0 0 48 48" width="48pt" height="48pt"><linearGradient id="_lgradient_1" x1="0.18336115895060273" y1="0.24917751794896525" x2="0.9027436828643176" y2="0.9034772483231972" gradientTransform="matrix(46.3,0,0,46.674,0,1.243)" gradientUnits="userSpaceOnUse"><stop offset="2.608695652173913%" stop-opacity="1" style="stop-color:rgb(179,255,171)"/><stop offset="98.69565217391305%" stop-opacity="1" style="stop-color:rgb(18,255,247)"/></linearGradient><path d=" M 12.649 8.402 C 13.488 8.07 14.349 7.795 15.228 7.579 L 12.84 5.9 L 12.649 8.402 L 12.649 8.402 Z  M 20.996 7.025 C 22.282 7.089 23.551 7.277 24.787 7.583 L 22.87 5.22 L 20.996 7.025 L 20.996 7.025 Z  M 29.095 9.191 C 30.357 9.835 31.552 10.615 32.659 11.52 L 33.38 7.96 L 29.095 9.191 L 29.095 9.191 Z  M 35.672 14.58 C 36.497 15.62 37.212 16.735 37.81 17.906 L 40.12 14.58 L 35.672 14.58 L 35.672 14.58 Z  M 39.671 23.388 C 39.877 24.512 39.988 25.658 39.999 26.815 L 41.76 24.95 L 39.671 23.388 L 39.671 23.388 Z  M 39.685 30.522 C 39.432 31.927 39.028 33.304 38.48 34.63 C 38.645 34.642 38.805 34.668 38.959 34.708 L 41.64 31.5 L 39.685 30.522 L 39.685 30.522 Z  M 41.31 36.62 C 41.666 37.114 42 37.66 42.33 38.21 C 42.399 38.324 42.469 38.438 42.537 38.552 L 43.02 37.6 L 41.31 36.62 L 41.31 36.62 Z  M 37 27 C 37 29.297 36.537 31.484 35.711 33.482 C 38.187 37.078 42.657 44.041 42.023 44.854 C 42.003 44.879 41.974 44.899 41.939 44.918 C 39.35 44.074 33.375 41.447 30.746 39 L 29.918 39 C 29.042 41.228 27.655 44.017 26.059 44 C 23.294 43.971 22.167 40.087 19.389 40 C 16.608 39.913 14.892 43.946 12.705 44 C 9.813 44.071 8.236 35.676 8.236 35.676 L 8.299 35.676 C 7.547 35.249 6.895 34.818 6.371 34.395 C 6.371 34.395 4.212 33.307 3.383 30.602 C 3.324 30.41 3.253 30.232 3.209 30.023 C 3.072 29.165 3 28.285 3 27.389 C 3 27.321 3.009 27.256 3.01 27.189 C 3.009 27.126 3 27.064 3 27 C 3 17.611 10.611 10 20 10 C 29.389 10 37 17.611 37 27 L 37 27 L 37 27 Z  M 19.29 43 L 19.34 43 L 19.25 43 L 19.29 43 L 19.29 43 L 19.29 43 Z  M 9.523 9.967 C 8.204 10.779 6.973 11.747 5.86 12.86 C 2.11 16.61 0 21.7 0 27 C 0 27.05 0 27.1 0 27.15 L 0.01 27.19 L 0.01 27.25 L 0.01 27.35 L 0.01 27.04 L 0.01 27.14 L 0.01 27.19 L 0 27.25 C 0 27.29 0 27.34 0 27.39 C 0 28.43 0.08 29.47 0.25 30.5 C 0.27 30.62 0.29 30.74 0.33 30.86 L 0.46 31.31 L 0.52 31.51 C 1.01 33.09 1.9 34.52 3.09 35.66 C 3.58 36.14 4.12 36.56 4.7 36.9 C 4.98 37.11 5.27 37.32 5.56 37.51 C 5.83 38.65 6.16 39.76 6.55 40.85 C 6.77 41.46 7.01 42.05 7.29 42.63 C 7.57 43.24 7.9 43.83 8.28 44.38 C 8.71 45.02 9.23 45.57 9.84 46.03 C 10.63 46.63 11.59 46.97 12.58 47 C 12.62 47 12.67 47 12.71 47 L 12.74 47 C 12.81 47 12.87 47 12.94 46.99 C 14.06 46.9 15.12 46.49 16 45.8 C 16.62 45.33 17.2 44.82 17.73 44.27 C 18.15 43.85 18.6 43.46 19.08 43.11 C 19.15 43.06 19.22 43.03 19.31 43.01 L 19.31 43.01 C 19.35 43.02 19.39 43.04 19.43 43.07 C 19.82 43.36 20.18 43.69 20.52 44.05 C 21.11 44.69 21.76 45.27 22.46 45.79 C 23.48 46.53 24.69 46.95 25.95 47 C 25.98 47 26.01 47 26.04 47 L 26.06 47 C 26.11 47 26.16 47 26.22 47 C 27.31 46.94 28.36 46.52 29.19 45.8 C 29.81 45.27 30.34 44.65 30.78 43.96 C 30.96 43.7 31.12 43.43 31.28 43.15 C 31.41 43.24 31.55 43.32 31.68 43.4 C 32.77 44.07 33.88 44.69 35.03 45.25 C 36.1 45.78 37.19 46.28 38.3 46.75 C 39.18 47.12 40.08 47.46 40.99 47.76 C 41.93 48.08 42.98 47.9 43.77 47.3 L 43.85 47.23 C 44.11 47.03 44.34 46.79 44.52 46.51 C 44.93 45.9 45.13 45.16 45.08 44.43 C 45.04 43.85 44.91 43.29 44.69 42.75 C 44.568 42.419 44.43 42.089 44.277 41.766 L 44.32 41.68 L 46.08 38.186 C 46.577 37.2 46.202 35.955 45.244 35.407 L 43.24 34.26 L 45.083 32.039 C 45.788 31.19 45.558 30.099 44.571 29.606 L 42.48 28.56 L 44.87 26.017 C 45.626 25.213 45.523 24.023 44.639 23.361 L 40.06 19.93 L 44.71 13.224 C 45.339 12.316 44.954 11.58 43.85 11.58 L 35.96 11.58 L 36.783 5.213 C 36.925 4.119 36.182 3.488 35.125 3.806 L 27.46 6.11 L 24.391 2.332 C 23.695 1.476 22.486 1.403 21.692 2.171 L 17.93 5.81 L 11.876 1.551 C 10.973 0.916 10.173 1.294 10.09 2.394 L 9.55 9.6 L 9.523 9.967 L 9.523 9.967 Z  M 11 21 C 11 19.896 11.896 19 13 19 C 14.104 19 15 19.896 15 21 C 15 22.104 14.104 23 13 23 C 11.896 23 11 22.104 11 21 Z " fill-rule="evenodd" fill="url(#_lgradient_1)"/></svg>