<?xml version="1.0" encoding="UTF-8"?>
<svg width="48pt" height="48pt" style="isolation:isolate" version="1.1" viewBox="0 0 48 48" xmlns="http://www.w3.org/2000/svg" xmlns:cc="http://creativecommons.org/ns#" xmlns:dc="http://purl.org/dc/elements/1.1/" xmlns:rdf="http://www.w3.org/1999/02/22-rdf-syntax-ns#" xmlns:xlink="http://www.w3.org/1999/xlink">
 <metadata>
  <rdf:RDF>
   <cc:Work rdf:about="">
    <dc:format>image/svg+xml</dc:format>
    <dc:type rdf:resource="http://purl.org/dc/dcmitype/StillImage"/>
    <dc:title/>
   </cc:Work>
  </rdf:RDF>
 </metadata>
 <defs>
  <linearGradient id="linearGradient847" x2=".90749" y1=".5" y2=".92008" gradientTransform="matrix(45.953 0 0 32.341 1.048 7.0376)" gradientUnits="userSpaceOnUse" xlink:href="#_lgradient_1"/>
  <linearGradient id="linearGradient849" x2=".90749" y1=".5" y2=".92008" gradientTransform="matrix(45.953 0 0 38.048 1.0478 5.1258)" gradientUnits="userSpaceOnUse" xlink:href="#_lgradient_1"/>
 </defs>
 <linearGradient id="_lgradient_1" x2=".90749" y1=".5" y2=".92008" gradientTransform="matrix(45.953,0,0,38.048,1.048,4.184)" gradientUnits="userSpaceOnUse">
  <stop stop-color="#f3eb24" offset="0"/>
  <stop stop-color="#f3a324" offset=".83888"/>
 </linearGradient>
 <path d="m16.563 7.0903c-0.207-0.0561-0.433-0.0646-0.663-0.0391-1.26 0.136-2.51 0.357-3.72 0.6715-0.94 0.238-1.84 0.5865-2.67 1.037-0.69 0.3825-1.31 0.8585-1.83 1.394-0.43 0.459-0.83 0.9265-1.2 1.4195-0.25 0.3145-0.5 0.629-0.76 0.9435-1.6 2.227-2.79 4.6495-3.53 7.1825-0.79 2.737-1.17 5.5505-1.14 8.364 0 2.193 0.19 4.3775 0.55 6.545 0.71 0.731 1.46 1.445 2.24 2.125 0.6 0.5185 1.25 0.9945 1.96 1.4025 0.73 0.4165 1.53 0.7395 2.37 0.9435 0.91 0.2125 1.84 0.3145 2.77 0.2975 0.87 0 1.74-0.068 2.59-0.1785 1.04-0.136 2.06-0.306 3.08-0.51 0.58-0.1105 1.06-0.442 1.33-0.8925l1.85-3.145 0.405-0.6919c1.053 0.08585 2.113 0.12665 3.176 0.1224 1.476-0.0059 2.951-0.08245 4.416-0.2295l0.473 0.799 1.85 3.145c0.26 0.4505 0.75 0.782 1.32 0.8925 1.02 0.204 2.05 0.374 3.08 0.51 0.86 0.1105 1.73 0.1785 2.6 0.1785 0.93 0.017 1.86-0.085 2.76-0.2975 0.85-0.204 1.65-0.527 2.38-0.9435 0.7-0.408 1.36-0.884 1.96-1.4025 0.78-0.68 1.53-1.394 2.24-2.125 0.36-2.1675 0.54-4.352 0.55-6.545 0.03-2.8135-0.36-5.627-1.14-8.364-0.74-2.533-1.93-4.9555-3.53-7.1825-0.26-0.3145-0.52-0.629-0.76-0.9435-0.37-0.493-0.77-0.9605-1.2-1.4195-0.53-0.5355-1.15-1.0115-1.83-1.394-0.83-0.4505-1.73-0.799-2.67-1.037-1.22-0.3145-3.46-0.5355-4.72-0.6715-0.235-0.02635-0.466-0.01615-0.677 0.0425-1.093-0.1054-2.029 0.21675-2.333 0.8585l-1.582 3.3626c-1.06-0.0765-2.124-0.1156-3.187-0.1156-0.982-0.0043-1.961 0.02975-2.935 0.102l-1.576-3.349c-0.301-0.6341-1.22-0.9571-2.297-0.8619zm-0.814 3.4144c-0.819 0.1122-1.63 0.272-2.429 0.47345-0.57 0.1445-1.12 0.357-1.63 0.629-0.34 0.1955-0.65 0.4335-0.92 0.7055-0.33 0.3485-0.65 0.7225-0.93 1.105-0.26 0.3315-0.52 0.6545-0.78 0.969-1.35 1.904-2.36 3.9695-2.98 6.12-0.71 2.4735-1.06 4.998-1.03 7.5395 0 1.717 0.12 3.4255 0.36 5.1255 0.42 0.408 0.85 0.8075 1.3 1.19 0.41 0.357 0.85 0.68 1.34 0.9605 0.37 0.2125 0.78 0.374 1.21 0.4845 0.53 0.119 1.08 0.1785 1.64 0.17 0.68 0 1.35-0.051 2.03-0.136 0.62-0.085 1.24-0.1785 1.86-0.289l1.27-2.1658c-1.379-0.272-2.738-0.62135-4.069-1.0472-1.033-0.3332-1.552-1.3158-1.16-2.193 0.391-0.8772 1.547-1.3192 2.58-0.986 3.17 1.02 6.55 1.5385 9.94 1.5215 1.84 0 3.68-0.136 5.5-0.3825 1.98-0.2805 3.94-0.6715 5.86-1.173 1.054-0.2771 2.174 0.2261 2.5 1.122 0.325 0.8959-0.266 1.8479-1.32 2.125-1.307 0.3451-2.634 0.6409-3.975 0.88655l1.344 2.2924c0.62 0.1105 1.24 0.204 1.86 0.289 0.67 0.085 1.35 0.136 2.03 0.136 0.55 0.0085 1.11-0.051 1.64-0.17 0.43-0.1105 0.84-0.272 1.21-0.4845 0.48-0.2805 0.93-0.6035 1.34-0.9605 0.44-0.3825 0.87-0.782 1.29-1.19 0.24-1.7 0.36-3.4085 0.37-5.1255 0.02-2.5415-0.32-5.066-1.03-7.5395-0.63-2.1505-1.63-4.216-2.98-6.12-0.27-0.3145-0.53-0.6375-0.78-0.969-0.29-0.3825-0.6-0.7565-0.94-1.105-0.26-0.272-0.57-0.51-0.91-0.7055-0.51-0.272-1.06-0.4845-1.64-0.629-0.828-0.2108-2.363-0.3757-3.462-0.48875l-0.616 1.309c1.776 0.28645 3.529 0.6545 5.249 1.1092 1.054 0.2771 1.645 1.2291 1.32 2.125-0.326 0.8959-1.446 1.3991-2.5 1.122-1.833-0.47855-3.703-0.8568-5.591-1.1339l-0.01 0.0204-0.113-0.03825c-0.049-0.0076-0.098-0.01445-0.146-0.02125-1.82-0.255-3.66-0.3825-5.5-0.3825-1.825-0.0094-3.646 0.13685-5.433 0.43265l-0.028 0.0094-2e-3 -0.0043c-1.524 0.2533-3.023 0.6154-4.477 1.0838-1.033 0.3332-2.189-0.1088-2.58-0.986-0.392-0.8772 0.127-1.8598 1.16-2.193 1.431-0.46155 2.896-0.83215 4.382-1.111zm0.089 12.56c-10.559-13.056-5.2793-6.528 0 0z" fill="url(#linearGradient847)" fill-rule="evenodd" stroke-width=".92195"/>
 <path d="m15.838 23.982c0-1.932 1.568-3.5 3.5-3.5s3.5 1.568 3.5 3.5-1.568 3.5-3.5 3.5-3.5-1.568-3.5-3.5zm9.324 0c0-1.932 1.568-3.5 3.5-3.5s3.5 1.568 3.5 3.5-1.568 3.5-3.5 3.5-3.5-1.568-3.5-3.5z" fill="url(#linearGradient849)" fill-rule="evenodd"/>
</svg>
