<?xml version="1.0" encoding="UTF-8" standalone="no"?><!-- Generator: Gravit.io --><svg xmlns="http://www.w3.org/2000/svg" xmlns:xlink="http://www.w3.org/1999/xlink" style="isolation:isolate" viewBox="0 0 48 48" width="48pt" height="48pt"><linearGradient id="_lgradient_33" x1="0" y1="0.5" x2="1" y2="0.5" gradientTransform="matrix(46.808,0,0,47,0.564,0.5)" gradientUnits="userSpaceOnUse"><stop offset="0%" stop-opacity="1" style="stop-color:rgb(255,95,109)"/><stop offset="98.26086956521739%" stop-opacity="1" style="stop-color:rgb(255,195,113)"/></linearGradient><path d=" M 32.917 6.952 L 32.917 6.952 C 31.873 6.403 31.47 5.109 32.019 4.064 L 32.019 4.064 C 32.568 3.02 33.862 2.617 34.907 3.166 L 34.907 3.166 C 39.356 5.508 42.949 9.219 45.142 13.743 L 45.142 13.743 C 45.661 14.806 45.22 16.088 44.158 16.604 L 44.158 16.604 C 43.095 17.121 41.811 16.678 41.292 15.615 L 41.292 15.615 C 39.495 11.904 36.564 8.877 32.917 6.952 L 32.917 6.952 L 32.917 6.952 L 32.917 6.952 Z  M 23.817 4.5 L 23.817 4.5 C 24.92 4.494 25.812 3.594 25.807 2.49 L 25.807 2.49 C 25.801 1.386 24.9 0.494 23.797 0.5 L 23.797 0.5 C 18.037 0.53 12.487 2.68 8.207 6.53 C 3.927 10.39 1.207 15.68 0.577 21.41 L 0.577 21.41 C 0.455 22.508 1.248 23.499 2.347 23.62 L 2.347 23.62 C 3.445 23.741 4.435 22.948 4.557 21.85 L 4.557 21.85 C 5.077 17.1 7.337 12.7 10.887 9.51 C 14.437 6.31 19.037 4.53 23.817 4.5 L 23.817 4.5 L 23.817 4.5 L 23.817 4.5 Z  M 5.737 31 L 5.737 31 C 5.339 29.968 4.179 29.453 3.147 29.85 L 3.147 29.85 C 2.114 30.247 1.599 31.408 1.997 32.44 L 1.997 32.44 C 3.907 37.37 7.417 41.52 11.967 44.22 L 11.967 44.22 C 12.916 44.783 14.144 44.469 14.707 43.52 L 14.707 43.52 C 15.27 42.571 14.956 41.343 14.007 40.78 L 14.007 40.78 C 10.227 38.54 7.317 35.1 5.737 31 L 5.737 31 L 5.737 31 Z  M 23.307 43.49 L 23.307 43.49 C 22.203 43.473 21.293 44.356 21.277 45.46 L 21.277 45.46 C 21.26 46.564 22.143 47.473 23.247 47.49 L 23.247 47.49 L 23.907 47.5 C 23.917 47.5 23.927 47.5 23.937 47.5 C 29.847 47.5 35.547 45.27 39.887 41.26 C 44.227 37.25 46.907 31.74 47.367 25.85 L 47.367 25.85 C 47.449 24.752 46.625 23.788 45.527 23.7 L 45.527 23.7 C 44.428 23.612 43.465 24.436 43.377 25.54 L 43.377 25.54 C 42.997 30.42 40.777 34.99 37.177 38.32 C 33.577 41.65 28.857 43.5 23.957 43.5 L 23.307 43.49 L 23.307 43.49 Z  M 30.93 9.119 C 30.794 9.111 30.66 9.112 30.528 9.121 C 29.647 9.183 28.831 9.671 28.356 10.494 C 27.598 11.809 28.052 13.48 29.369 14.24 C 30.684 14.998 32.358 14.557 33.116 13.238 C 33.876 11.927 33.44 10.225 32.125 9.467 C 31.755 9.253 31.338 9.145 30.93 9.119 L 30.93 9.119 L 30.93 9.119 Z  M 23.713 12.033 C 21.812 12.033 20.034 12.482 18.44 13.273 L 20.35 16.723 C 21.379 16.242 22.506 15.959 23.713 15.959 C 27.915 15.959 31.383 19.174 31.744 23.285 L 35.645 23.236 C 35.45 20.207 34.125 17.481 32.09 15.48 C 31.042 15.873 29.853 15.813 28.809 15.207 C 27.765 14.603 27.105 13.595 26.924 12.486 C 25.906 12.207 24.819 12.033 23.713 12.033 L 23.713 12.033 L 23.713 12.033 Z  M 17.092 14.049 C 14.684 15.657 12.91 18.125 12.164 21.006 C 13.037 21.715 13.561 22.774 13.561 23.988 C 13.561 25.194 13.038 26.293 12.164 27.006 C 12.91 29.886 14.684 32.343 17.092 33.951 L 19.107 30.562 C 17.04 29.109 15.695 26.707 15.695 23.988 C 15.695 21.266 17.04 18.867 19.107 17.414 L 17.092 14.049 L 17.092 14.049 Z  M 9.705 21.244 C 8.184 21.244 6.961 22.467 6.961 23.988 C 6.961 25.504 8.184 26.732 9.705 26.732 C 11.228 26.732 12.463 25.504 12.463 23.988 C 12.463 22.467 11.228 21.244 9.705 21.244 L 9.705 21.244 Z  M 31.744 24.717 C 31.383 28.821 27.915 32.043 23.713 32.043 C 22.505 32.043 21.379 31.772 20.35 31.291 L 18.44 34.715 C 20.034 35.509 21.812 35.943 23.713 35.943 C 24.819 35.943 25.906 35.796 26.924 35.514 C 27.105 34.407 27.764 33.401 28.809 32.795 C 29.855 32.191 31.042 32.133 32.09 32.531 C 34.125 30.528 35.45 27.808 35.645 24.775 L 31.744 24.717 L 31.744 24.717 Z  M 30.539 33.391 C 30.141 33.424 29.739 33.557 29.369 33.771 C 28.052 34.526 27.598 36.194 28.356 37.506 C 29.116 38.825 30.809 39.267 32.125 38.51 C 33.442 37.751 33.875 36.077 33.115 34.762 C 32.64 33.939 31.813 33.453 30.932 33.391 C 30.8 33.38 30.672 33.38 30.539 33.391 L 30.539 33.391 L 30.539 33.391 Z " fill-rule="evenodd" fill="url(#_lgradient_33)"/></svg>