<?xml version="1.0" encoding="UTF-8" standalone="no"?><!-- Generator: Gravit.io --><svg xmlns="http://www.w3.org/2000/svg" xmlns:xlink="http://www.w3.org/1999/xlink" style="isolation:isolate" viewBox="0 0 48 48" width="48pt" height="48pt"><linearGradient id="_lgradient_13" x1="0" y1="0.5" x2="0.9074880558539661" y2="0.9200778838291643" gradientTransform="matrix(47.515,0,0,42.206,0.245,2.926)" gradientUnits="userSpaceOnUse"><stop offset="0%" stop-opacity="1" style="stop-color:rgb(0,196,255)"/><stop offset="83.88839793817618%" stop-opacity="1" style="stop-color:rgb(0,114,255)"/></linearGradient><path d=" M 20.676 7.113 L 20.676 7.113 C 19.516 7.192 18.512 6.318 18.434 5.162 L 18.434 5.162 C 18.356 4.007 19.235 3.005 20.394 2.926 L 20.394 2.926 L 34.383 2.926 C 35.542 2.926 36.921 3.758 37.461 4.782 L 47.389 23.606 C 47.929 24.63 47.872 26.261 47.262 27.246 L 37.272 43.365 C 36.662 44.349 35.226 45.141 34.067 45.132 L 26.947 45.074 L 16.977 45.074 C 15.819 45.074 15.193 44.188 15.582 43.096 L 15.837 42.378 C 16.225 41.286 17.481 40.39 18.639 40.377 L 34.29 40.208 L 43.523 25.311 L 34.064 7.256 L 20.676 7.113 L 20.676 7.113 Z  M 11.034 36.609 L 11.034 36.609 C 11.559 37.643 11.149 38.91 10.12 39.438 L 10.12 39.438 C 9.092 39.965 7.828 39.558 7.3 38.529 L 7.3 38.529 L 0.643 26.555 C 0.08 25.543 0.119 23.922 0.729 22.937 L 8.703 10.072 C 9.313 9.087 10.616 8.769 11.611 9.362 L 11.612 9.362 C 12.607 9.955 12.92 11.236 12.309 12.221 L 4.435 24.925 L 11.034 36.609 L 11.034 36.609 Z  M 19 17 L 8 29 L 13 29 L 19 22 L 25 29 L 30 29 L 26.652 25.348 L 29 23 L 35 29 L 40 29 L 29 18 L 23.914 22.359 L 19 17 L 19 17 Z  M 18 26 L 15 29 L 18 29 L 18 26 L 18 26 Z " fill-rule="evenodd" fill="url(#_lgradient_13)"/></svg>