<?xml version="1.0" encoding="UTF-8" standalone="no"?><!-- Generator: Gravit.io --><svg xmlns="http://www.w3.org/2000/svg" xmlns:xlink="http://www.w3.org/1999/xlink" style="isolation:isolate" viewBox="0 0 48 48" width="48pt" height="48pt"><linearGradient id="_lgradient_0" x1="0.18336115895060273" y1="0.24917751794896525" x2="0.9027436828643176" y2="0.9034772483231972" gradientTransform="matrix(43,0,0,43,2.5,2.5)" gradientUnits="userSpaceOnUse"><stop offset="2.608695652173913%" stop-opacity="1" style="stop-color:rgb(179,255,171)"/><stop offset="98.69565217391305%" stop-opacity="1" style="stop-color:rgb(18,255,247)"/></linearGradient><path d=" M 24 2.5 C 19.461 2.507 15.042 3.95 11.373 6.623 L 16.203 11.452 C 18.543 9.995 21.243 9.222 24 9.219 C 32.163 9.219 38.781 15.837 38.781 24 C 38.775 26.755 37.998 29.453 36.54 31.79 L 41.372 36.621 C 44.045 32.955 45.49 28.537 45.5 24 C 45.5 12.126 35.874 2.5 24 2.5 L 24 2.5 Z  M 6.628 11.379 C 3.955 15.045 2.51 19.463 2.5 24 C 2.5 35.874 12.126 45.5 24 45.5 C 28.539 45.493 32.958 44.05 36.627 41.377 L 31.797 36.548 C 29.457 38.005 26.757 38.778 24 38.781 C 15.837 38.781 9.219 32.163 9.219 24 C 9.225 21.245 10.002 18.547 11.46 16.21 L 6.628 11.379 L 6.628 11.379 Z  M 15.938 24 C 15.938 19.55 19.55 15.938 24 15.938 C 28.45 15.938 32.063 19.55 32.063 24 C 32.063 28.45 28.45 32.063 24 32.063 C 19.55 32.063 15.938 28.45 15.938 24 Z " fill-rule="evenodd" fill="url(#_lgradient_0)"/></svg>