<?xml version="1.0" encoding="UTF-8" standalone="no"?><!-- Generator: Gravit.io --><svg xmlns="http://www.w3.org/2000/svg" xmlns:xlink="http://www.w3.org/1999/xlink" style="isolation:isolate" viewBox="0 0 48 48" width="48pt" height="48pt"><linearGradient id="_lgradient_27" x1="0" y1="0.5" x2="1" y2="0.5" gradientTransform="matrix(45,0,0,45,1.5,1.5)" gradientUnits="userSpaceOnUse"><stop offset="0%" stop-opacity="1" style="stop-color:rgb(255,224,49)"/><stop offset="100%" stop-opacity="1" style="stop-color:rgb(250,0,117)"/></linearGradient><path d=" M 3.346 1.513 C 2.601 1.575 2.092 1.856 1.773 2.36 C 1.32 3.079 1.441 4.921 2.062 6.755 C 2.63 8.432 3.93 11.031 5.21 13.265 C 7.356 10.009 10.324 7.35 13.817 5.568 C 10.794 3.74 7.66 2.272 5.531 1.761 C 5.026 1.639 4.574 1.562 4.171 1.525 C 3.869 1.498 3.594 1.492 3.346 1.513 Z  M 44.654 1.513 C 44.406 1.492 44.131 1.498 43.829 1.525 C 43.426 1.562 42.974 1.639 42.469 1.761 C 39.904 2.377 35.866 4.351 32.34 6.714 C 30.545 7.917 30.428 8.072 30.429 9.291 C 30.429 10.162 30.498 10.451 30.937 11.363 C 32.154 13.887 34.875 16.467 37.202 17.301 C 38.235 17.672 39.557 17.66 40.046 17.276 C 41.275 16.313 44.884 9.866 45.938 6.755 C 46.559 4.921 46.68 3.079 46.227 2.36 C 45.908 1.856 45.399 1.575 44.654 1.513 Z  M 24 4.714 C 12.461 4.714 3.107 14.068 3.107 25.607 C 3.107 37.146 12.461 46.5 24 46.5 C 35.539 46.5 44.893 37.146 44.893 25.607 C 44.888 22.423 44.156 19.283 42.752 16.426 C 42.727 16.464 42.698 16.52 42.673 16.558 C 42.112 17.397 41.73 17.999 41.038 18.541 C 40.247 19.162 39.557 19.172 38.841 19.179 C 38.125 19.185 37.386 19.075 36.659 18.814 C 33.716 17.759 30.928 15.045 29.49 12.063 C 29.022 11.092 28.822 10.251 28.821 9.294 C 28.821 8.633 28.895 7.749 29.421 7.04 C 29.789 6.545 30.234 6.211 30.752 5.857 C 28.579 5.107 26.298 4.721 24 4.714 Z " fill="url(#_lgradient_27)"/></svg>