<?xml version="1.0" encoding="UTF-8" standalone="no"?><!-- Generator: Gravit.io --><svg xmlns="http://www.w3.org/2000/svg" xmlns:xlink="http://www.w3.org/1999/xlink" style="isolation:isolate" viewBox="0 0 48 48" width="48pt" height="48pt"><linearGradient id="_lgradient_14" x1="0" y1="0.5" x2="1" y2="0.5" gradientTransform="matrix(41.584,0,0,42.854,3.566,0.461)" gradientUnits="userSpaceOnUse"><stop offset="0%" stop-opacity="1" style="stop-color:rgb(255,229,59)"/><stop offset="98.69565217391305%" stop-opacity="1" style="stop-color:rgb(255,0,91)"/></linearGradient><path d=" M 3.634 12.148 C 3.589 12.309 3.566 12.491 3.566 12.69 L 3.566 33.457 C 3.566 34.588 4.369 35.954 5.357 36.505 L 17.047 43.022 L 17.047 43.022 C 18.015 43.605 19.274 43.292 19.857 42.325 L 19.857 42.325 C 20.439 41.357 20.127 40.094 19.159 39.505 L 19.159 39.505 L 19.159 39.505 L 7.667 33.2 L 7.667 14.093 L 23.877 4.736 L 35.288 11.154 L 35.288 11.154 C 36.21 11.816 37.494 11.607 38.153 10.687 L 38.153 10.687 C 38.812 9.768 38.599 8.484 37.676 7.822 L 37.676 7.822 L 25.891 0.895 C 24.915 0.321 23.327 0.315 22.347 0.881 L 4.325 11.286 C 4.226 11.329 4.134 11.385 4.051 11.453 C 4.041 11.456 4.035 11.46 4.032 11.466 C 3.747 11.662 3.607 11.905 3.634 12.148 L 3.634 12.148 Z  M 19.891 17.856 L 16.491 19.819 L 16.491 27.359 L 22.707 30.97 C 22.922 31.095 23.097 30.995 23.097 30.746 L 23.097 28.352 L 23.097 28.352 C 23.097 27.854 23.502 27.449 24 27.449 L 24 27.449 C 24.498 27.449 24.903 27.854 24.903 28.352 L 24.903 28.352 L 24.903 33.811 C 24.903 34.31 24.554 34.51 24.123 34.259 L 15.465 29.197 C 15.034 28.945 14.685 28.336 14.685 27.838 L 14.685 19.679 C 14.685 19.18 15.035 18.573 15.467 18.324 L 23.272 13.818 C 23.704 13.569 24.403 13.571 24.833 13.824 L 30.023 16.875 L 30.023 16.875 C 30.43 17.166 30.524 17.732 30.233 18.137 L 30.233 18.137 C 29.943 18.542 29.378 18.634 28.971 18.342 L 28.971 18.342 L 28.971 18.342 L 28.971 18.342 L 23.946 15.516 L 21.578 16.882 L 28.24 20.86 L 28.695 21.128 L 28.916 21 L 32.533 18.911 C 32.965 18.662 33.315 18.864 33.315 19.363 L 33.315 28.605 C 33.315 29.104 32.962 29.705 32.526 29.948 L 27.377 32.818 L 27.377 32.818 C 26.951 33.075 26.397 32.937 26.14 32.511 L 26.14 32.511 C 25.884 32.085 26.021 31.529 26.447 31.269 L 26.447 31.269 L 26.447 31.269 L 26.447 31.269 L 31.509 28.492 L 31.509 21.589 L 24.732 25.499 C 24.301 25.748 23.6 25.748 23.168 25.499 L 17.981 22.505 L 17.981 22.505 C 17.572 22.216 17.474 21.652 17.762 21.245 L 17.762 21.245 C 18.05 20.839 18.615 20.742 19.024 21.029 L 19.024 21.029 L 23.655 23.591 C 23.873 23.712 24.225 23.709 24.441 23.584 L 27.006 22.103 L 20.56 18.25 L 19.891 17.856 L 19.891 17.856 L 19.891 17.856 Z  M 29.557 39.505 L 29.557 39.505 C 28.589 40.094 28.277 41.357 28.859 42.325 L 28.859 42.325 C 29.442 43.292 30.701 43.605 31.669 43.022 L 31.669 43.022 L 43.359 36.505 C 44.347 35.954 45.15 34.588 45.15 33.457 L 45.15 19.05 C 45.15 17.919 44.242 17.116 43.124 17.259 L 43.124 17.259 C 41.979 17.406 41.049 18.466 41.049 19.625 L 41.049 33.2 L 29.557 39.505 Z " fill-rule="evenodd" fill="url(#_lgradient_14)"/></svg>