<svg xmlns="http://www.w3.org/2000/svg" xmlns:xlink="http://www.w3.org/1999/xlink" style="isolation:isolate" viewBox="0 0 48 48" width="64" height="64"><defs><linearGradient id="a"><stop offset="0" stop-color="#f7f107"/><stop offset="1" stop-color="#ffbb24"/></linearGradient><linearGradient xlink:href="#a" id="c" x1="12.684" y1="13.268" x2="36.165" y2="37.166" gradientUnits="userSpaceOnUse" gradientTransform="translate(0 1.5)"/></defs><linearGradient id="b" x1="0" y1=".5" x2=".907" y2=".92" gradientTransform="matrix(44 0 0 44 2 2)" gradientUnits="userSpaceOnUse"><stop offset="0%" stop-color="#ffbb24"/><stop offset="84.348%" stop-color="#ff4b2b"/></linearGradient><path d="M16 42a2 2 0 010 4H7c-2.76 0-5-2.24-5-5V7c0-2.76 2.24-5 5-5h34c2.76 0 5 2.24 5 5v34c0 2.76-2.24 5-5 5h-9a2 2 0 010-4h7c1.656 0 3-1.344 3-3V9c0-1.656-1.344-3-3-3H9C7.344 6 6 7.344 6 9v30c0 1.656 1.344 3 3 3z" fill="url(#b)" fill-rule="evenodd"/><path d="M20.04 42.472l7.19-9.348v0m-6.755.253l7.282 9.17m11.268-21.07s.095-1.588-2.697-1.618c-3.176-.034-3.898 3.125-.072 4.243 4.025 1.176 3.244 4.388.108 4.35-3.332-.04-2.84-1.474-2.84-1.474M8.83 20.351c.035 3.912.015 6.03 0 8.136 5.555.862 5.91-3.255 5.886-4.032-.024-.78-.582-4.483-5.886-4.104zM21.76 8.568c.035 3.912.015 6.029 0 8.135 6.705.97 7.116-3.597 2.614-3.995 4.342-.388 4.38-4.808-2.614-4.14zm2.358 11.989c-2.482-.017-3.348 2.442-3.335 4.314.012 1.768.849 4.125 3.38 4.063 2.515-.061 3.289-2.366 3.307-4.17.019-1.775-.968-4.191-3.352-4.207z" fill="none" stroke="url(#c)" stroke-width="2.325" stroke-linecap="round" stroke-linejoin="round"/><path d="M9.5 38.606l7.652-7.63m21.33 7.562l-8.077-7.804m8.07-21.224l-8.228 8.59M9.477 9.329l8.13 8.606" fill="none" stroke="#ffbb24" stroke-width="3.75" stroke-linecap="round" stroke-linejoin="round"/></svg>