<?xml version="1.0" encoding="UTF-8" standalone="no"?><!-- Generator: Gravit.io --><svg xmlns="http://www.w3.org/2000/svg" xmlns:xlink="http://www.w3.org/1999/xlink" style="isolation:isolate" viewBox="0 0 48 48" width="48pt" height="48pt"><linearGradient id="_lgradient_1" x1="0" y1="0.5" x2="1" y2="0.5" gradientTransform="matrix(45.932,0,0,45.932,1.034,1.034)" gradientUnits="userSpaceOnUse"><stop offset="0%" stop-opacity="1" style="stop-color:rgb(255,229,59)"/><stop offset="98.69565217391305%" stop-opacity="1" style="stop-color:rgb(255,0,91)"/></linearGradient><path d=" M 15.455 1.034 L 32.545 1.034 C 36.37 1.034 40.044 2.551 42.747 5.253 C 45.449 7.956 46.966 11.63 46.966 15.455 L 46.966 32.545 C 46.966 36.37 45.449 40.044 42.747 42.747 C 40.044 45.449 36.37 46.966 32.545 46.966 L 15.455 46.966 C 11.63 46.966 7.956 45.449 5.253 42.747 C 2.551 40.044 1.034 36.37 1.034 32.545 L 1.034 15.455 C 1.034 11.63 2.551 7.956 5.253 5.253 C 7.956 2.551 11.63 1.034 15.455 1.034 Z  M 15.455 4.239 L 32.545 4.239 C 35.515 4.239 38.378 5.424 40.471 7.529 C 42.576 9.622 43.761 12.485 43.761 15.455 L 43.761 32.545 C 43.761 35.515 42.576 38.378 40.471 40.471 C 38.378 42.576 35.515 43.761 32.545 43.761 L 15.455 43.761 C 12.485 43.761 9.622 42.576 7.529 40.471 C 5.424 38.378 4.239 35.515 4.239 32.545 L 4.239 15.455 C 4.239 12.485 5.424 9.622 7.529 7.529 C 9.622 5.424 12.485 4.239 15.455 4.239 Z " fill-rule="evenodd" fill="url(#_lgradient_1)"/><linearGradient id="_lgradient_2" x1="0" y1="0.5" x2="1" y2="0.5" gradientTransform="matrix(47,0,0,29.909,0.5,9.045)" gradientUnits="userSpaceOnUse"><stop offset="0%" stop-opacity="1" style="stop-color:rgb(80,201,195)"/><stop offset="98.33333333333333%" stop-opacity="1" style="stop-color:rgb(150,222,218)"/></linearGradient><path d=" M 0.5 10.114 L 0.5 12.25 C 0.5 12.25 0.5 13.318 1.568 13.318 L 4.773 13.318 C 10.672 13.318 15.455 18.101 15.455 24 C 15.455 29.899 10.672 34.682 4.773 34.682 L 3.705 34.682 L 1.568 34.682 C 0.5 34.682 0.5 35.75 0.5 35.75 L 0.5 37.886 C 0.5 37.886 0.5 38.955 1.568 38.955 L 4.773 38.955 C 13.032 38.955 19.727 32.259 19.727 24 C 19.727 15.741 13.032 9.045 4.773 9.045 L 1.568 9.045 C 0.5 9.045 0.5 10.114 0.5 10.114 Z  M 47.5 10.114 L 47.5 12.25 C 47.5 12.25 47.5 13.318 46.432 13.318 L 43.227 13.318 C 37.328 13.318 32.545 18.101 32.545 24 C 32.545 29.899 37.328 34.682 43.227 34.682 L 44.295 34.682 L 46.432 34.682 C 47.5 34.682 47.5 35.75 47.5 35.75 L 47.5 37.886 C 47.5 37.886 47.5 38.955 46.432 38.955 L 43.227 38.955 C 34.968 38.955 28.273 32.259 28.273 24 C 28.273 15.741 34.968 9.045 43.227 9.045 L 46.432 9.045 C 47.5 9.045 47.5 10.114 47.5 10.114 Z " fill-rule="evenodd" fill="url(#_lgradient_2)"/></svg>