<?xml version="1.0" encoding="UTF-8" standalone="no"?><!-- Generator: Gravit.io --><svg xmlns="http://www.w3.org/2000/svg" xmlns:xlink="http://www.w3.org/1999/xlink" style="isolation:isolate" viewBox="0 0 48 48" width="48pt" height="48pt"><linearGradient id="_lgradient_60" x1="0" y1="0.5" x2="0.9074880558539661" y2="0.9200778838291643" gradientTransform="matrix(42,0,0,-42,3,45)" gradientUnits="userSpaceOnUse"><stop offset="0%" stop-opacity="1" style="stop-color:rgb(247,241,7)"/><stop offset="83.88839793817618%" stop-opacity="1" style="stop-color:rgb(255,187,36)"/></linearGradient><path d=" M 34.5 44.933 C 34.342 44.978 34.174 45 34 45 L 34 45 L 8 45 C 5.24 45 3 42.76 3 40 L 3 21 L 3 21 C 3 19.896 3.896 19 5 19 L 5 19 C 6.104 19 7 19.896 7 21 L 7 21 L 7 21 L 7 21 L 7 38 C 7 39.656 8.344 41 10 41 L 34 41 L 34 41 C 34.174 41 34.342 41.022 34.5 41.067 C 34.658 41.022 34.826 41 35 41 L 35 41 L 38 41 C 39.656 41 41 39.656 41 38 L 41 35 L 41 35 C 41 33.896 41.896 33 43 33 L 43 33 C 44.104 33 45 33.896 45 35 L 45 35 L 45 40 C 45 42.76 42.76 45 40 45 L 35 45 L 35 45 C 34.826 45 34.658 44.978 34.5 44.933 L 34.5 44.933 Z  M 13 7 L 13 7 C 14.104 7 15 6.104 15 5 L 15 5 C 15 3.896 14.104 3 13 3 L 13 3 L 8 3 C 5.24 3 3 5.24 3 8 L 3 13 L 3 13 C 3 14.104 3.896 15 5 15 L 5 15 C 6.104 15 7 14.104 7 13 L 7 13 L 7 10 C 7 8.344 8.344 7 10 7 L 13 7 L 13 7 L 13 7 L 13 7 Z  M 41 26 L 41 26 C 41 27.104 41.896 28 43 28 L 43 28 C 44.104 28 45 27.104 45 26 L 45 26 L 45 8 C 45 5.24 42.76 3 40 3 L 22 3 L 22 3 C 20.896 3 20 3.896 20 5 L 20 5 C 20 6.104 20.896 7 22 7 L 22 7 L 38 7 C 39.656 7 41 8.344 41 10 L 41 26 L 41 26 L 41 26 Z  M 17.233 26.6 L 20.147 21.357 C 19.374 21.182 18.8 20.494 18.8 19.667 L 18.8 14.467 C 18.8 13.506 19.573 12.733 20.533 12.733 L 20.533 12.733 L 27.467 12.733 C 28.427 12.733 29.2 13.506 29.2 14.467 L 29.2 19.667 C 29.2 20.593 28.48 21.345 27.567 21.397 L 30.168 26.6 L 30.168 26.6 L 35.267 26.6 C 36.227 26.6 37 27.373 37 28.333 L 37 33.533 C 37 34.494 36.227 35.267 35.267 35.267 L 28.333 35.267 C 27.373 35.267 26.6 34.494 26.6 33.533 L 26.6 28.333 C 26.6 27.407 27.32 26.654 28.233 26.603 L 25.63 21.4 L 22.099 21.4 L 19.211 26.6 L 19.667 26.6 C 20.627 26.6 21.4 27.373 21.4 28.333 L 21.4 33.533 C 21.4 34.494 20.627 35.267 19.667 35.267 L 12.733 35.267 C 11.773 35.267 11 34.494 11 33.533 L 11 28.333 C 11 27.373 11.773 26.6 12.733 26.6 L 12.733 26.6 L 17.233 26.6 Z " fill-rule="evenodd" fill="url(#_lgradient_60)"/></svg>