<?xml version="1.0" encoding="UTF-8" standalone="no"?><!-- Generator: Gravit.io --><svg xmlns="http://www.w3.org/2000/svg" xmlns:xlink="http://www.w3.org/1999/xlink" style="isolation:isolate" viewBox="0 0 48 48" width="48pt" height="48pt"><linearGradient id="_lgradient_14" x1="0" y1="0.5" x2="1" y2="0.5" gradientTransform="matrix(47,0,0,40,0.5,4)" gradientUnits="userSpaceOnUse"><stop offset="0%" stop-opacity="1" style="stop-color:rgb(67,233,123)"/><stop offset="97.82608695652173%" stop-opacity="1" style="stop-color:rgb(56,249,215)"/></linearGradient><path d=" M 18.253 22.4 C 18.729 21.54 19 20.552 19 19.5 C 19 18.489 18.749 17.536 18.307 16.7 L 29.693 16.7 C 29.251 17.536 29 18.489 29 19.5 L 29 19.5 L 29 19.5 C 29 20.552 29.271 21.54 29.747 22.4 L 18.253 22.4 L 18.253 22.4 L 18.253 22.4 L 18.253 22.4 Z  M 15 39 C 15 38.172 15.672 37.5 16.5 37.5 C 17.328 37.5 18 38.172 18 39 C 18 39.828 17.328 40.5 16.5 40.5 C 15.672 40.5 15 39.828 15 39 L 15 39 L 15 39 L 15 39 L 15 39 L 15 39 L 15 39 L 15 39 L 15 39 L 15 39 L 15 39 L 15 39 Z  M 33 39 C 33 38.172 33.672 37.5 34.5 37.5 C 35.328 37.5 36 38.172 36 39 C 36 39.828 35.328 40.5 34.5 40.5 C 33.672 40.5 33 39.828 33 39 L 33 39 L 33 39 L 33 39 L 33 39 L 33 39 L 33 39 L 33 39 L 33 39 L 33 39 L 33 39 Z  M 19.25 7 L 5.5 7 C 4.396 7 3.5 7.896 3.5 9 L 3.5 30.5 L 3.5 30.5 C 3.5 31.328 2.828 32 2 32 L 2 32 C 1.172 32 0.5 31.328 0.5 30.5 L 0.5 30.5 L 0.5 8 C 0.5 5.792 2.292 4 4.5 4 L 28 4 C 29.104 4 30 4.672 30 5.5 L 30 5.5 C 30 6.328 29.104 7 28 7 L 19.25 7 L 19.25 7 L 19.25 7 L 19.25 7 L 19.25 7 L 19.25 7 L 19.25 7 L 19.25 7 L 19.25 7 L 19.25 7 Z  M 42.5 7 C 43.604 7 44.5 7.896 44.5 9 L 44.5 20.5 L 44.5 20.5 C 44.5 21.328 45.172 22 46 22 L 46 22 C 46.828 22 47.5 21.328 47.5 20.5 L 47.5 20.5 L 47.5 8 C 47.5 5.792 45.708 4 43.5 4 L 37 4 C 35.896 4 35 4.672 35 5.5 L 35 5.5 C 35 6.328 35.896 7 37 7 L 42.5 7 L 42.5 7 L 42.5 7 L 42.5 7 L 42.5 7 L 42.5 7 L 42.5 7 L 42.5 7 L 42.5 7 Z  M 11.5 19.5 C 11.5 18.672 12.172 18 13 18 C 13.828 18 14.5 18.672 14.5 19.5 C 14.5 20.328 13.828 21 13 21 C 12.172 21 11.5 20.328 11.5 19.5 L 11.5 19.5 L 11.5 19.5 Z  M 33.5 19.5 C 33.5 18.672 34.172 18 35 18 C 35.828 18 36.5 18.672 36.5 19.5 C 36.5 20.328 35.828 21 35 21 C 34.172 21 33.5 20.328 33.5 19.5 L 33.5 19.5 Z  M 32 19.5 C 32 18.7 32.32 17.94 32.88 17.38 C 33.44 16.82 34.2 16.5 35 16.5 C 35.8 16.5 36.56 16.82 37.12 17.38 C 37.68 17.94 38 18.7 38 19.5 C 38 20.3 37.68 21.06 37.12 21.62 C 36.56 22.18 35.8 22.5 35 22.5 C 34.2 22.5 33.44 22.18 32.88 21.62 C 32.32 21.06 32 20.3 32 19.5 L 32 19.5 L 32 19.5 L 32 19.5 L 32 19.5 L 32 19.5 L 32 19.5 Z  M 10 19.5 C 10 18.7 10.32 17.94 10.88 17.38 C 11.44 16.82 12.2 16.5 13 16.5 C 13.8 16.5 14.56 16.82 15.12 17.38 C 15.68 17.94 16 18.7 16 19.5 C 16 20.3 15.68 21.06 15.12 21.62 C 14.56 22.18 13.8 22.5 13 22.5 C 12.2 22.5 11.44 22.18 10.88 21.62 C 10.32 21.06 10 20.3 10 19.5 L 10 19.5 L 10 19.5 L 10 19.5 L 10 19.5 L 10 19.5 L 10 19.5 L 10 19.5 Z  M 39.575 41 L 37.07 36 L 12.93 36 L 10.425 41 L 10.425 41 L 39.575 41 L 39.575 41 L 39.575 41 L 39.575 41 L 39.575 41 L 39.575 41 L 39.575 41 L 39.575 41 Z  M 7.131 41 L 7.66 39.83 L 10.623 33.895 C 10.87 33.401 11.518 33 12.07 33 L 37.93 33 C 38.482 33 39.13 33.401 39.377 33.895 L 42.34 39.83 L 42.855 40.969 C 43.79 40.801 44.5 39.983 44.5 39 L 44.5 28.5 L 44.5 28.5 C 44.5 27.672 45.172 27 46 27 L 46 27 C 46.828 27 47.5 27.672 47.5 28.5 L 47.5 28.5 L 47.5 40 C 47.5 42.208 45.708 44 43.5 44 L 4.5 44 C 2.292 44 0.5 42.208 0.5 40 L 0.5 38.5 L 0.5 38.5 C 0.5 37.672 1.172 37 2 37 L 2 37 C 2.828 37 3.5 37.672 3.5 38.5 L 3.5 38.5 L 3.5 39 C 3.5 40.104 4.396 41 5.5 41 L 7.131 41 L 7.131 41 L 7.131 41 L 7.131 41 L 7.131 41 L 7.131 41 L 7.131 41 L 7.131 41 Z  M 14.096 25.4 C 13.74 25.466 13.374 25.5 13 25.5 C 9.689 25.5 7 22.811 7 19.5 L 7 19.5 L 7 19.5 L 7 19.5 C 7 16.189 9.689 13.5 13 13.5 C 13.533 13.5 14.049 13.57 14.541 13.7 L 14.541 13.7 L 15 13.7 L 33 13.7 L 33.459 13.7 C 33.951 13.57 34.467 13.5 35 13.5 C 38.311 13.5 41 16.189 41 19.5 C 41 22.811 38.311 25.5 35 25.5 C 34.626 25.5 34.26 25.466 33.904 25.4 L 33 25.4 L 15 25.4 L 14.096 25.4 L 14.096 25.4 L 14.096 25.4 L 14.096 25.4 Z  M 22.25 18.25 L 25.75 18.25 C 26.44 18.25 27 18.81 27 19.5 L 27 19.5 C 27 20.19 26.44 20.75 25.75 20.75 L 22.25 20.75 C 21.56 20.75 21 20.19 21 19.5 L 21 19.5 C 21 18.81 21.56 18.25 22.25 18.25 Z " fill-rule="evenodd" fill="url(#_lgradient_14)"/></svg>