<?xml version="1.0" encoding="UTF-8" standalone="no"?><!-- Generator: Gravit.io --><svg xmlns="http://www.w3.org/2000/svg" xmlns:xlink="http://www.w3.org/1999/xlink" style="isolation:isolate" viewBox="0 0 48 48" width="48pt" height="48pt"><linearGradient id="_lgradient_10" x1="0" y1="0.5" x2="1" y2="0.5" gradientTransform="matrix(46,0,0,46,1,0)" gradientUnits="userSpaceOnUse"><stop offset="0%" stop-opacity="1" style="stop-color:rgb(84,51,255)"/><stop offset="51.73913043478261%" stop-opacity="1" style="stop-color:rgb(32,189,255)"/><stop offset="98.26086956521739%" stop-opacity="1" style="stop-color:rgb(165,254,203)"/></linearGradient><path d=" M 28.023 20.5 L 15 20.5 L 15 20.5 L 15 20.5 C 14.2 20.5 13.44 20.873 12.88 21.527 C 12.32 22.18 12 23.067 12 24 C 12 24.933 12.32 25.82 12.88 26.473 C 13.44 27.127 14.2 27.5 15 27.5 L 28.023 27.5 C 27.376 26.489 27 25.288 27 24 L 27 24 C 27 22.712 27.376 21.511 28.023 20.5 Z  M 40 24 C 40 20.137 37.311 17 34 17 L 15 17 L 15 17 L 15 17 C 11.689 17 9 20.137 9 24 L 9 24 C 9 27.863 11.689 31 15 31 L 34 31 C 37.311 31 40 27.863 40 24 L 40 24 L 40 24 Z  M 5.381 33.468 L 5.381 33.468 C 5.381 34.676 4.399 35.658 3.19 35.658 L 3.19 35.658 C 1.982 35.658 1 34.676 1 33.468 L 1 33.468 L 1 5.476 C 1 2.454 3.454 0 6.476 0 L 39.134 0 L 39.134 0 C 40.343 0 41.325 0.982 41.325 2.19 L 41.325 2.19 C 41.325 3.399 40.343 4.381 39.134 4.381 L 39.134 4.381 L 8.667 4.381 C 6.853 4.381 5.381 5.853 5.381 7.667 L 5.381 33.468 L 5.381 33.468 L 5.381 33.468 Z  M 42.619 16.628 L 42.619 16.628 C 42.619 15.419 43.601 14.437 44.81 14.437 L 44.81 14.437 C 46.018 14.437 47 15.419 47 16.628 L 47 16.628 L 47 40.524 C 47 43.546 44.546 46 41.524 46 L 11.491 46 L 11.491 46 C 10.282 46 9.301 45.018 9.301 43.81 L 9.301 43.81 C 9.301 42.601 10.282 41.619 11.491 41.619 L 11.491 41.619 L 39.333 41.619 C 41.147 41.619 42.619 40.147 42.619 38.333 L 42.619 16.628 L 42.619 16.628 L 42.619 16.628 Z  M 30.219 24 C 30.219 23.133 30.572 22.299 31.183 21.693 C 31.793 21.086 32.618 20.75 33.486 20.75 C 34.365 20.739 35.19 21.075 35.811 21.682 C 36.422 22.299 36.775 23.133 36.786 24 C 36.775 24.867 36.422 25.701 35.811 26.318 C 35.19 26.925 34.365 27.261 33.497 27.25 C 32.64 27.261 31.804 26.925 31.193 26.318 C 30.572 25.701 30.219 24.867 30.219 24 L 30.219 24 Z " fill-rule="evenodd" fill="url(#_lgradient_10)"/></svg>