<?xml version="1.0" encoding="UTF-8" standalone="no"?><!-- Generator: Gravit.io --><svg xmlns="http://www.w3.org/2000/svg" xmlns:xlink="http://www.w3.org/1999/xlink" style="isolation:isolate" viewBox="0 0 48 48" width="48pt" height="48pt"><linearGradient id="_lgradient_2" x1="0.031182562838213412" y1="0.10866627890091946" x2="0.9583795358695032" y2="0.9751947012019755" gradientTransform="matrix(48,0,0,46.985,0.495,0.559)" gradientUnits="userSpaceOnUse"><stop offset="0%" stop-opacity="1" style="stop-color:rgb(199,81,251)"/><stop offset="97.5%" stop-opacity="1" style="stop-color:rgb(109,68,222)"/></linearGradient><path d=" M 24 18.7 C 22.8 18.7 17.064 23.17 16.082 23.17 C 15.026 23.17 8.383 20.603 7.62 21.115 C 7.192 22.038 14.128 29.3 16.016 29.3 C 17.869 29.3 23.363 25.434 24 25.434 C 24.637 25.434 30.131 29.3 31.984 29.3 C 33.871 29.3 40.807 22.037 40.38 21.115 C 39.617 20.595 32.974 23.17 31.918 23.17 C 30.936 23.17 25.2 18.7 24 18.7 L 24 18.7 Z  M 22.856 43.272 L 22.856 43.272 C 24.053 43.371 24.946 44.407 24.847 45.584 L 24.847 45.584 C 24.749 46.76 23.693 47.635 22.489 47.536 L 22.489 47.536 C 16.461 47.044 10.835 44.331 6.751 39.942 C 2.679 35.553 0.441 29.811 0.496 23.875 C 0.553 17.64 3.139 11.674 7.675 7.297 C 12.22 2.93 18.352 0.504 24.712 0.56 C 31.072 0.616 37.158 3.152 41.622 7.598 C 46.076 12.054 48.551 18.066 48.494 24.301 L 48.494 24.301 C 48.483 25.481 47.497 26.431 46.292 26.42 L 46.292 26.42 C 45.088 26.41 44.119 25.443 44.13 24.262 L 44.13 24.262 C 44.177 19.161 42.15 14.244 38.507 10.597 C 34.853 6.96 29.876 4.884 24.672 4.838 C 19.469 4.792 14.454 6.779 10.734 10.351 C 7.024 13.933 4.906 18.813 4.859 23.914 C 4.814 28.769 6.637 33.47 9.975 37.061 C 13.312 40.652 17.918 42.864 22.856 43.272 L 22.856 43.272 Z  M 40.99 33.194 L 40.99 33.194 C 41.548 32.154 42.846 31.763 43.886 32.321 L 43.886 32.321 C 44.925 32.88 45.316 34.177 44.758 35.217 L 44.758 35.217 C 42.376 39.645 38.632 43.205 34.088 45.356 L 34.088 45.356 C 33.021 45.866 31.743 45.413 31.237 44.346 L 31.237 44.346 C 30.73 43.279 31.185 41.999 32.252 41.489 L 32.252 41.489 C 35.979 39.726 39.032 36.823 40.99 33.194 L 40.99 33.194 Z " fill-rule="evenodd" fill="url(#_lgradient_2)"/></svg>