<?xml version="1.0" encoding="UTF-8" standalone="no"?><!-- Generator: Gravit.io --><svg xmlns="http://www.w3.org/2000/svg" xmlns:xlink="http://www.w3.org/1999/xlink" style="isolation:isolate" viewBox="0 0 48 48" width="48pt" height="48pt"><linearGradient id="_lgradient_4" x1="0.8324468085106383" y1="0.16755319148936168" x2="0.07564637759224357" y2="0.9485927821168866" gradientTransform="matrix(47,0,0,47,0.5,0.5)" gradientUnits="userSpaceOnUse"><stop offset="0%" stop-opacity="1" style="stop-color:rgb(244,97,51)"/><stop offset="98.75%" stop-opacity="1" style="stop-color:rgb(240,80,129)"/></linearGradient><path d=" M 12.25 47.425 C 12.427 47.475 12.615 47.5 12.81 47.5 L 12.81 47.5 L 41.905 47.5 C 44.993 47.5 47.5 44.993 47.5 41.905 L 47.5 20.643 L 47.5 20.643 C 47.5 19.408 46.497 18.405 45.262 18.405 L 45.262 18.405 C 44.027 18.405 43.024 19.408 43.024 20.643 L 43.024 20.643 L 43.024 20.643 L 43.024 20.643 L 43.024 39.667 C 43.024 41.52 41.52 43.024 39.667 43.024 L 12.81 43.024 L 12.81 43.024 C 12.615 43.024 12.427 43.049 12.25 43.099 C 12.073 43.049 11.885 43.024 11.69 43.024 L 11.69 43.024 L 8.333 43.024 C 6.48 43.024 4.976 41.52 4.976 39.667 L 4.976 36.31 L 4.976 36.31 C 4.976 35.074 3.973 34.071 2.738 34.071 L 2.738 34.071 C 1.503 34.071 0.5 35.074 0.5 36.31 L 0.5 36.31 L 0.5 41.905 C 0.5 44.993 3.007 47.5 6.095 47.5 L 11.69 47.5 L 11.69 47.5 C 11.885 47.5 12.073 47.475 12.25 47.425 Z  M 15.743 10.114 L 10.114 35.085 L 14.687 35.085 L 17.344 23.909 L 29.829 23.909 L 18.137 34.376 L 21.186 37.886 L 22.747 37.082 C 25.699 35.564 26.937 36.451 29.177 37.073 C 31.357 37.678 33.405 38.325 37.656 35.875 L 36.812 31.551 C 32.173 34.849 30.706 31.906 27.402 31.79 L 36.859 23.787 L 37.886 19.514 L 18.073 19.514 L 19.349 14.386 L 32.335 14.386 L 33.225 10.114 L 15.742 10.114 L 15.743 10.114 L 15.743 10.114 L 15.743 10.114 L 15.743 10.114 Z  M 36.31 4.976 L 36.31 4.976 C 35.074 4.976 34.071 3.973 34.071 2.738 L 34.071 2.738 C 34.071 1.503 35.074 0.5 36.31 0.5 L 36.31 0.5 L 41.905 0.5 C 44.993 0.5 47.5 3.007 47.5 6.095 L 47.5 11.69 L 47.5 11.69 C 47.5 12.926 46.497 13.929 45.262 13.929 L 45.262 13.929 C 44.027 13.929 43.024 12.926 43.024 11.69 L 43.024 11.69 L 43.024 8.333 C 43.024 6.48 41.52 4.976 39.667 4.976 L 36.31 4.976 L 36.31 4.976 L 36.31 4.976 L 36.31 4.976 Z  M 4.976 26.238 L 4.976 26.238 C 4.976 27.473 3.973 28.476 2.738 28.476 L 2.738 28.476 C 1.503 28.476 0.5 27.473 0.5 26.238 L 0.5 26.238 L 0.5 6.095 C 0.5 3.007 3.007 0.5 6.095 0.5 L 26.238 0.5 L 26.238 0.5 C 27.473 0.5 28.476 1.503 28.476 2.738 L 28.476 2.738 C 28.476 3.973 27.473 4.976 26.238 4.976 L 26.238 4.976 L 8.333 4.976 C 6.48 4.976 4.976 6.48 4.976 8.333 L 4.976 26.238 L 4.976 26.238 Z " fill-rule="evenodd" fill="url(#_lgradient_4)"/></svg>