<?xml version="1.0" encoding="UTF-8" standalone="no"?><!-- Generator: Gravit.io --><svg xmlns="http://www.w3.org/2000/svg" xmlns:xlink="http://www.w3.org/1999/xlink" style="isolation:isolate" viewBox="0 0 48 48" width="48pt" height="48pt"><linearGradient id="_lgradient_5" x1="0" y1="0.5" x2="1" y2="0.5" gradientTransform="matrix(46.5,0,0,41,1,3.5)" gradientUnits="userSpaceOnUse"><stop offset="0%" stop-opacity="1" style="stop-color:rgb(255,229,59)"/><stop offset="98.69565217391305%" stop-opacity="1" style="stop-color:rgb(255,0,91)"/></linearGradient><path d=" M 27.722 32.15 L 27.722 32.15 C 26.581 32.15 25.655 31.254 25.655 30.15 L 25.655 30.15 C 25.655 29.046 26.581 28.15 27.722 28.15 L 27.722 28.15 L 44.45 28.15 C 46.134 28.15 47.5 29.516 47.5 31.2 L 47.5 35.5 C 47.5 37.89 46.518 40.18 44.772 41.86 C 43.036 43.55 40.67 44.5 38.2 44.5 L 10.3 44.5 C 7.83 44.5 5.464 43.55 3.728 41.86 C 1.982 40.18 1 37.89 1 35.5 L 1 12.5 C 1 10.11 1.982 7.82 3.728 6.14 C 5.464 4.45 7.83 3.5 10.3 3.5 L 38.2 3.5 C 40.67 3.5 43.036 4.45 44.772 6.14 C 46.518 7.82 47.5 10.11 47.5 12.5 L 47.5 16.84 L 47.5 16.84 C 47.5 17.944 46.574 18.84 45.433 18.84 L 45.433 18.84 C 44.293 18.84 43.367 17.944 43.367 16.84 L 43.367 16.84 L 43.367 12.5 C 43.367 11.17 42.819 9.9 41.858 8.96 C 40.887 8.03 39.574 7.5 38.2 7.5 L 10.3 7.5 C 8.926 7.5 7.613 8.03 6.642 8.96 C 5.681 9.9 5.133 11.17 5.133 12.5 L 5.133 35.5 C 5.133 36.83 5.681 38.1 6.642 39.04 C 7.613 39.97 8.926 40.5 10.3 40.5 L 38.2 40.5 C 39.574 40.5 40.887 39.97 41.858 39.04 C 42.819 38.1 43.367 36.83 43.367 35.5 L 43.367 32.15 L 27.722 32.15 Z  M 12.868 12.15 C 12.507 12.15 12.161 12.319 11.905 12.62 C 11.65 12.922 11.507 13.331 11.507 13.757 C 11.507 14.184 11.65 14.593 11.905 14.894 C 12.161 15.196 12.507 15.365 12.868 15.365 C 13.619 15.364 14.228 14.644 14.227 13.757 C 14.228 12.87 13.619 12.151 12.868 12.15 L 12.868 12.15 L 12.868 12.15 Z  M 15.436 13.222 C 14.96 13.249 14.585 13.72 14.585 14.292 C 14.585 14.577 14.679 14.849 14.846 15.05 C 15.013 15.252 15.241 15.365 15.477 15.365 C 15.715 15.365 15.942 15.252 16.11 15.051 C 16.278 14.85 16.372 14.577 16.372 14.292 C 16.372 14.008 16.277 13.736 16.11 13.535 C 15.942 13.334 15.714 13.222 15.477 13.222 C 15.464 13.222 15.45 13.222 15.436 13.222 L 15.436 13.222 Z  M 17.419 14.453 C 17.033 14.467 16.727 14.826 16.727 15.265 C 16.728 15.481 16.803 15.687 16.937 15.84 C 17.071 15.992 17.253 16.078 17.442 16.078 C 17.632 16.078 17.814 15.992 17.948 15.84 C 18.082 15.687 18.157 15.481 18.157 15.265 C 18.157 15.049 18.082 14.843 17.948 14.69 C 17.814 14.538 17.632 14.452 17.442 14.453 C 17.435 14.452 17.427 14.452 17.419 14.453 L 17.419 14.453 Z  M 18.97 15.722 C 18.664 15.743 18.425 16.022 18.425 16.359 C 18.425 16.528 18.486 16.691 18.594 16.81 C 18.703 16.93 18.851 16.997 19.005 16.997 C 19.159 16.997 19.306 16.93 19.415 16.81 C 19.524 16.691 19.585 16.528 19.585 16.359 C 19.584 16.007 19.325 15.722 19.005 15.722 C 18.993 15.722 18.981 15.722 18.97 15.722 L 18.97 15.722 Z  M 13.013 16.15 C 12.136 16.162 11.558 16.37 10.999 16.919 C 9.977 17.923 10.185 19.348 11.526 20.57 C 14.433 23.218 14.782 24.992 12.001 26.994 C 10.856 27.818 10.027 29.754 10.384 30.769 C 10.833 32.047 12.543 32.537 14.036 31.816 C 15.436 31.14 17.023 28.826 18.104 26.062 C 18.195 25.832 18.283 25.599 18.366 25.363 C 18.614 24.654 18.825 23.924 18.993 23.191 C 19.5 20.978 19.377 19.255 18.636 18.22 C 18.173 17.574 16.459 16.744 14.974 16.374 C 14.631 16.289 14.299 16.227 13.999 16.199 C 13.63 16.164 13.305 16.146 13.013 16.15 L 13.013 16.15 Z  M 19.808 17.15 C 19.552 17.16 19.349 17.397 19.349 17.685 C 19.348 17.981 19.56 18.221 19.823 18.222 C 19.95 18.222 20.071 18.166 20.161 18.065 C 20.25 17.964 20.3 17.827 20.3 17.685 C 20.3 17.543 20.249 17.407 20.16 17.306 C 20.071 17.206 19.949 17.15 19.823 17.15 C 19.818 17.15 19.813 17.15 19.808 17.15 L 19.808 17.15 Z " fill-rule="evenodd" fill="url(#_lgradient_5)"/></svg>