<?xml version="1.0" encoding="UTF-8" standalone="no"?><!-- Generator: Gravit.io --><svg xmlns="http://www.w3.org/2000/svg" xmlns:xlink="http://www.w3.org/1999/xlink" style="isolation:isolate" viewBox="0 0 48 48" width="48pt" height="48pt"><linearGradient id="_lgradient_4" x1="0.031182562838213412" y1="0.10866627890091946" x2="0.9583795358695032" y2="0.9751947012019755" gradientTransform="matrix(24.765,0,0,21.003,10.128,21.389)" gradientUnits="userSpaceOnUse"><stop offset="0%" stop-opacity="1" style="stop-color:rgb(165,248,106)"/><stop offset="97.91666666666666%" stop-opacity="1" style="stop-color:rgb(47,206,146)"/></linearGradient><path d=" M 24.593 38.833 C 24.593 38.178 25.125 37.646 25.78 37.646 C 26.435 37.646 26.967 38.178 26.967 38.833 C 26.967 39.488 26.435 40.019 25.78 40.019 C 25.125 40.019 24.593 39.488 24.593 38.833 L 24.593 38.833 L 24.593 38.833 L 24.593 38.833 L 24.593 38.833 Z  M 32.306 38.833 C 32.306 38.178 32.838 37.646 33.493 37.646 C 34.148 37.646 34.68 38.178 34.68 38.833 C 34.68 39.488 34.148 40.019 33.493 40.019 C 32.838 40.019 32.306 39.488 32.306 38.833 L 32.306 38.833 L 32.306 38.833 L 32.306 38.833 L 32.306 38.833 Z  M 28.747 41.206 C 28.747 40.551 29.278 40.019 29.933 40.019 C 30.588 40.019 31.12 40.551 31.12 41.206 C 31.12 41.861 30.588 42.393 29.933 42.393 C 29.278 42.393 28.747 41.861 28.747 41.206 L 28.747 41.206 L 28.747 41.206 L 28.747 41.206 Z  M 28.153 32.899 C 28.153 32.579 28.284 32.282 28.497 32.057 C 28.723 31.843 29.019 31.713 29.34 31.713 C 29.66 31.713 29.957 31.843 30.182 32.057 C 30.396 32.282 30.527 32.579 30.527 32.899 C 30.527 33.22 30.396 33.517 30.182 33.742 C 29.957 33.956 29.66 34.086 29.34 34.086 C 29.019 34.086 28.723 33.956 28.497 33.742 C 28.284 33.517 28.153 33.22 28.153 32.899 L 28.153 32.899 L 28.153 32.899 L 28.153 32.899 Z  M 15.694 37.646 C 15.694 37.017 15.943 36.412 16.394 35.973 C 16.833 35.522 17.438 35.273 18.067 35.273 C 18.696 35.273 19.301 35.522 19.74 35.973 C 20.191 36.412 20.44 37.017 20.44 37.646 C 20.44 38.275 20.191 38.88 19.74 39.319 C 19.301 39.77 18.696 40.019 18.067 40.019 C 17.438 40.019 16.833 39.77 16.394 39.319 C 15.943 38.88 15.694 38.275 15.694 37.646 L 15.694 37.646 L 15.694 37.646 Z  M 25.78 32.899 C 25.78 30.935 27.375 29.34 29.34 29.34 C 31.305 29.34 32.9 30.935 32.9 32.899 C 32.9 34.864 31.305 36.459 29.34 36.459 C 27.375 36.459 25.78 34.864 25.78 32.899 L 25.78 32.899 L 25.78 32.899 L 25.78 32.899 Z  M 13.32 37.646 C 13.32 35.026 15.447 32.899 18.067 32.899 C 20.687 32.899 22.813 35.026 22.813 37.646 C 22.813 40.266 20.687 42.393 18.067 42.393 C 15.447 42.393 13.32 40.266 13.32 37.646 L 13.32 37.646 L 13.32 37.646 Z  M 11.896 29.921 L 10.128 29.684 L 11.896 26.563 L 12.371 26.385 C 13.225 26.504 14.092 26.563 14.958 26.563 C 16.251 26.587 17.557 26.397 18.803 26.005 C 19.894 25.661 20.891 25.091 21.757 24.344 C 23.241 23.406 24.843 22.659 26.516 22.125 C 27.999 21.65 29.553 21.401 31.12 21.389 C 32.034 21.389 32.947 21.484 33.837 21.662 L 34.273 23 L 34.893 25.495 L 33.149 25.151 C 32.484 25.02 31.808 24.949 31.132 24.949 C 29.933 24.961 28.735 25.151 27.596 25.519 C 26.278 25.934 25.032 26.504 23.858 27.227 C 22.683 28.2 21.33 28.936 19.871 29.399 C 18.269 29.897 16.595 30.146 14.922 30.123 C 13.914 30.123 12.905 30.052 11.896 29.921 Z " fill-rule="evenodd" fill="url(#_lgradient_4)"/><linearGradient id="_lgradient_5" x1="0" y1="0.5" x2="1" y2="0.5" gradientTransform="matrix(44.5,0,0,47.467,1.75,0.267)" gradientUnits="userSpaceOnUse"><stop offset="0%" stop-opacity="1" style="stop-color:rgb(84,51,255)"/><stop offset="51.73913043478261%" stop-opacity="1" style="stop-color:rgb(32,189,255)"/><stop offset="98.26086956521739%" stop-opacity="1" style="stop-color:rgb(165,254,203)"/></linearGradient><path d=" M 28.34 9.713 L 28.34 10.353 L 28.34 19.158 L 41.894 39.782 C 41.894 39.782 41.894 39.794 41.906 39.794 C 42.156 40.209 42.369 40.66 42.523 41.123 C 42.63 41.455 42.69 41.799 42.69 42.143 C 42.69 42.404 42.642 42.677 42.523 42.915 C 42.417 43.14 42.262 43.33 42.072 43.472 C 41.776 43.698 41.444 43.864 41.088 43.959 C 40.554 44.113 40.008 44.184 39.45 44.173 C 39.438 44.173 39.438 44.173 39.426 44.173 L 8.574 44.173 C 8.562 44.173 8.562 44.173 8.55 44.173 C 7.992 44.184 7.446 44.113 6.912 43.959 C 6.556 43.864 6.224 43.698 5.928 43.472 C 5.738 43.33 5.583 43.14 5.477 42.915 C 5.358 42.677 5.31 42.404 5.31 42.143 C 5.31 41.799 5.37 41.455 5.477 41.123 C 5.631 40.66 5.844 40.209 6.094 39.794 C 6.106 39.794 6.106 39.782 6.106 39.782 L 19.66 19.158 L 19.66 10.353 L 19.66 9.713 C 20.447 9.529 21.033 8.823 21.033 7.98 L 21.033 7.98 C 21.033 6.998 20.236 6.2 19.253 6.2 L 19.253 6.2 L 15.507 6.2 C 15.495 6.2 15.495 6.2 15.483 6.2 C 14.985 6.212 14.486 6.034 14.107 5.726 C 13.881 5.548 13.751 5.286 13.727 5.014 C 13.751 4.741 13.881 4.48 14.107 4.302 C 14.486 3.993 14.985 3.815 15.483 3.827 C 15.495 3.827 15.495 3.827 15.507 3.827 L 32.493 3.827 C 32.505 3.827 32.505 3.827 32.517 3.827 C 33.015 3.815 33.514 3.993 33.893 4.302 C 34.119 4.48 34.249 4.741 34.273 5.014 C 34.249 5.286 34.119 5.548 33.893 5.726 C 33.514 6.034 33.015 6.212 32.517 6.2 C 32.505 6.2 32.505 6.2 32.493 6.2 L 28.747 6.2 L 28.747 6.2 C 27.764 6.2 26.967 6.998 26.967 7.98 L 26.967 7.98 C 26.967 8.823 27.553 9.529 28.34 9.713 Z  M 31.9 9.76 L 31.9 10.353 L 31.9 18.161 L 44.932 37.931 C 45.336 38.583 45.656 39.272 45.905 40.007 C 46.131 40.684 46.238 41.396 46.249 42.108 C 46.261 42.915 46.083 43.71 45.739 44.445 C 45.395 45.169 44.873 45.81 44.232 46.308 C 43.58 46.807 42.832 47.175 42.037 47.388 C 41.183 47.626 40.304 47.744 39.414 47.732 L 8.586 47.732 C 7.696 47.744 6.817 47.626 5.963 47.388 C 5.168 47.175 4.42 46.807 3.768 46.308 C 3.127 45.81 2.605 45.169 2.261 44.445 C 1.917 43.71 1.739 42.915 1.751 42.108 C 1.762 41.396 1.869 40.684 2.095 40.007 C 2.344 39.272 2.664 38.583 3.068 37.931 L 16.1 18.161 L 16.1 10.353 L 16.1 9.76 L 15.519 9.76 C 14.19 9.772 12.908 9.333 11.876 8.502 C 10.82 7.648 10.191 6.366 10.167 5.014 C 10.191 3.661 10.82 2.379 11.876 1.525 C 12.908 0.694 14.19 0.255 15.519 0.267 L 32.481 0.267 C 33.81 0.255 35.092 0.694 36.124 1.525 C 37.18 2.379 37.809 3.661 37.833 5.014 C 37.809 6.366 37.18 7.648 36.124 8.502 C 35.092 9.333 33.81 9.772 32.481 9.76 L 31.9 9.76 Z " fill-rule="evenodd" fill="url(#_lgradient_5)"/></svg>