<?xml version="1.0" encoding="UTF-8" standalone="no"?><!-- Generator: Gravit.io --><svg xmlns="http://www.w3.org/2000/svg" xmlns:xlink="http://www.w3.org/1999/xlink" style="isolation:isolate" viewBox="0 0 48 48" width="48pt" height="48pt"><linearGradient id="_lgradient_8" x1="0" y1="0.5" x2="1" y2="0.5" gradientTransform="matrix(47.15,0,0,39.75,0.425,4.125)" gradientUnits="userSpaceOnUse"><stop offset="0%" stop-opacity="1" style="stop-color:rgb(175,104,229)"/><stop offset="98.26086956521739%" stop-opacity="1" style="stop-color:rgb(250,172,128)"/></linearGradient><path d=" M 10.002 15.556 C 9.536 16.048 9.144 16.602 8.838 17.202 L 8.838 17.202 C 8.401 16.983 7.948 16.8 7.485 16.655 C 6.835 16.455 6.165 16.345 5.495 16.335 C 4.385 16.315 3.305 16.665 2.425 17.315 C 1.735 17.845 1.205 18.545 0.875 19.355 C 0.565 20.135 0.415 20.975 0.425 21.825 C 0.435 22.935 0.645 24.035 1.045 25.065 C 1.475 26.205 2.075 27.285 2.815 28.255 L 2.815 28.255 C 3.745 29.495 4.915 30.545 6.255 31.345 C 6.454 31.462 6.656 31.572 6.863 31.672 C 10.29 33.78 13.974 35.434 17.825 36.595 C 19.625 37.145 21.465 37.565 23.325 37.865 C 25.055 38.145 26.795 38.285 28.545 38.295 C 30.115 38.305 31.685 38.155 33.225 37.855 C 34.021 37.707 34.805 37.491 35.568 37.221 C 35.568 37.246 35.685 37.263 35.921 37.27 L 35.921 37.27 Q 36.068 37.275 36.275 37.275 C 36.275 37.275 38.952 38.043 40.634 38.565 C 40.372 39.722 40.975 41.149 42.531 41.719 C 45.145 42.676 47.575 43.875 47.575 43.875 L 47.575 43.875 C 46.328 39.823 45.886 36.606 42.627 36.893 C 42.502 36.904 42.382 36.923 42.267 36.948 L 38.59 35.064 L 38.59 35.064 C 39.594 34.022 40.469 32.854 41.185 31.595 C 42.195 29.795 42.975 27.865 43.505 25.865 C 44.115 23.585 44.535 21.265 44.755 18.915 C 45.025 16.205 45.155 13.475 45.135 10.745 C 45.135 9.295 45.115 7.845 45.055 6.395 C 44.635 5.705 44.075 5.125 43.405 4.685 C 42.865 4.325 42.225 4.135 41.575 4.125 C 40.925 4.135 40.295 4.325 39.745 4.685 C 39.255 5.005 38.825 5.405 38.455 5.875 C 36.945 7.345 35.385 8.765 33.775 10.125 C 32.965 10.795 32.125 11.425 31.265 12.015 C 30.435 12.585 29.575 13.085 28.675 13.525 L 28.43 13.645 C 27.81 13.467 27.163 13.375 26.505 13.375 C 24.655 13.375 22.865 14.115 21.555 15.425 C 21.266 15.714 21.005 16.026 20.79 16.368 L 20.79 16.368 L 20.79 16.368 C 20.576 16.026 20.314 15.714 20.025 15.425 C 19.457 14.856 18.8 14.395 18.086 14.055 L 13.985 8.585 C 13.795 8.325 13.565 8.085 13.305 7.885 C 12.945 7.585 12.485 7.425 12.025 7.415 C 11.275 7.425 10.595 7.885 10.305 8.575 C 10.125 8.995 10.045 9.445 10.055 9.895 L 10.002 15.556 Z  M 13.021 13.683 C 13.369 13.576 13.726 13.496 14.089 13.445 L 13.035 12.325 L 13.021 13.683 Z  M 11.343 18.961 C 11.58 18.304 11.996 17.725 12.545 17.275 C 13.255 16.695 14.155 16.375 15.075 16.375 C 16.135 16.375 17.155 16.795 17.905 17.545 C 18.655 18.295 19.075 19.315 19.075 20.375 C 19.075 20.4 19.075 20.425 19.073 20.45 L 19.073 20.45 L 19.073 20.45 C 18.944 20.218 18.782 20.016 18.594 19.849 C 18.356 19.637 18.082 19.481 17.791 19.377 C 18.232 21.172 15.541 22.161 14.666 20.511 C 14.488 20.857 14.385 21.267 14.385 21.723 C 14.385 22.519 14.699 23.172 15.176 23.596 C 15.511 23.894 15.916 24.082 16.34 24.167 C 15.937 24.305 15.509 24.375 15.075 24.375 C 14.989 24.375 14.903 24.373 14.816 24.368 C 14.754 24.175 14.688 23.984 14.615 23.795 C 14.185 22.655 13.595 21.575 12.855 20.615 C 12.403 20.013 11.899 19.458 11.343 18.961 L 11.343 18.961 Z  M 31.459 15.429 C 32.767 16.739 33.505 18.517 33.505 20.375 C 33.505 22.235 32.765 24.015 31.455 25.325 C 30.145 26.635 28.365 27.375 26.505 27.375 C 24.655 27.375 22.865 26.635 21.555 25.325 C 21.266 25.036 21.005 24.724 20.79 24.382 L 20.79 24.382 C 20.576 24.724 20.314 25.036 20.025 25.325 C 18.754 26.596 17.04 27.331 15.239 27.37 C 15.214 28.101 15.064 28.827 14.785 29.515 C 14.465 30.315 13.935 31.015 13.245 31.545 C 13.212 31.569 13.178 31.593 13.143 31.615 L 13.143 31.615 C 14.938 32.453 16.796 33.155 18.695 33.725 C 20.365 34.235 22.075 34.625 23.805 34.905 C 25.375 35.155 26.965 35.285 28.555 35.295 C 29.935 35.305 31.305 35.175 32.655 34.915 C 32.711 34.904 32.766 34.893 32.821 34.88 C 30.788 33.566 28.969 32.09 28.048 31.314 C 27.12 32.226 25.756 32.833 24.032 32.873 C 21.781 32.925 18.915 32.049 15.575 30.876 L 15.575 30.874 L 15.575 30.874 C 17.718 30.874 19.672 30.981 21.444 30.874 C 24.387 30.692 26.975 30.372 28.283 29.367 C 27.73 28.655 27.575 27.875 27.575 27.875 C 27.575 27.875 29.24 28.554 30.104 29.665 C 30.66 30.379 30.373 30.554 30.042 30.969 C 31.372 31.531 33.622 32.548 35.687 33.693 C 36.833 32.673 37.808 31.465 38.565 30.125 C 39.455 28.535 40.145 26.845 40.605 25.095 C 41.175 22.975 41.565 20.815 41.775 18.625 C 42.035 16.015 42.155 13.385 42.135 10.755 C 42.135 9.655 42.125 8.555 42.095 7.455 C 41.985 7.355 41.875 7.265 41.755 7.185 C 41.695 7.155 41.635 7.135 41.575 7.125 C 41.515 7.135 41.455 7.155 41.395 7.185 C 41.155 7.345 40.945 7.545 40.775 7.775 C 40.725 7.845 40.665 7.905 40.615 7.955 L 40.565 8.005 C 39.005 9.535 37.375 11.015 35.705 12.425 C 34.815 13.165 33.905 13.855 32.955 14.495 C 32.471 14.83 31.974 15.143 31.459 15.429 L 31.459 15.429 Z  M 30.067 22.2 C 30.352 21.64 30.505 21.015 30.505 20.375 C 30.505 19.315 30.085 18.295 29.335 17.545 C 28.585 16.795 27.565 16.375 26.505 16.375 C 25.445 16.375 24.425 16.795 23.675 17.545 C 22.925 18.295 22.505 19.315 22.505 20.375 L 22.505 20.375 L 22.505 20.375 C 22.505 21.435 22.925 22.455 23.675 23.205 C 24.425 23.955 25.445 24.375 26.505 24.375 C 26.657 24.375 26.809 24.366 26.958 24.351 C 26.558 24.268 26.181 24.085 25.866 23.805 C 25.389 23.381 25.075 22.728 25.075 21.932 C 25.075 21.475 25.179 21.066 25.356 20.72 C 26.231 22.37 28.922 21.381 28.481 19.586 C 28.772 19.69 29.046 19.846 29.284 20.058 C 29.762 20.482 30.075 21.136 30.075 21.932 C 30.075 22.022 30.071 22.111 30.067 22.2 L 30.067 22.2 L 30.067 22.2 L 30.067 22.2 L 30.067 22.2 Z  M 5.205 26.435 C 4.635 25.705 4.185 24.885 3.855 24.015 C 3.575 23.295 3.435 22.545 3.425 21.775 C 3.415 21.335 3.495 20.885 3.665 20.465 C 3.785 20.175 3.975 19.915 4.225 19.715 C 4.585 19.465 5.015 19.325 5.445 19.335 C 5.835 19.345 6.215 19.405 6.585 19.515 C 7.035 19.655 7.475 19.855 7.875 20.095 C 8.885 20.695 9.765 21.485 10.465 22.425 C 11.035 23.165 11.485 23.985 11.815 24.855 C 12.085 25.565 12.235 26.325 12.245 27.085 C 12.255 27.535 12.165 27.975 12.005 28.395 C 11.885 28.695 11.685 28.945 11.435 29.145 C 11.085 29.405 10.655 29.535 10.215 29.525 C 9.835 29.525 9.455 29.465 9.085 29.345 C 8.867 29.277 8.65 29.197 8.434 29.117 C 8.215 29.009 7.996 28.898 7.785 28.775 C 6.785 28.165 5.905 27.375 5.205 26.435 L 5.205 26.435 L 5.205 26.435 L 5.205 26.435 L 5.205 26.435 L 5.205 26.435 Z  M 38.455 5.875 C 38.465 5.865 38.465 5.855 38.475 5.855 C 38.485 5.845 38.485 5.845 38.485 5.835 L 38.535 5.795 L 38.375 5.975 C 38.405 5.935 38.425 5.905 38.455 5.875 L 38.455 5.875 L 38.455 5.875 L 38.455 5.875 L 38.455 5.875 Z " fill-rule="evenodd" fill="url(#_lgradient_8)"/></svg>