<?xml version="1.0" encoding="UTF-8" standalone="no"?><!-- Generator: Gravit.io --><svg xmlns="http://www.w3.org/2000/svg" xmlns:xlink="http://www.w3.org/1999/xlink" style="isolation:isolate" viewBox="0 0 48 48" width="48pt" height="48pt"><linearGradient id="_lgradient_19" x1="0" y1="0.5" x2="1" y2="0.5" gradientTransform="matrix(8.918,0,0,11.793,15,25.207)" gradientUnits="userSpaceOnUse"><stop offset="0%" stop-opacity="1" style="stop-color:rgb(255,229,59)"/><stop offset="98.69565217391305%" stop-opacity="1" style="stop-color:rgb(255,0,91)"/></linearGradient><path d=" M 17.845 34.835 L 19.78 32.84 L 20.18 29.98 L 23.918 25.918 L 23.918 25.918 L 23.207 25.207 L 19.23 29.53 L 18.84 32.37 L 17.125 34.136 C 16.934 34.049 16.723 34 16.5 34 C 15.672 34 15 34.672 15 35.5 C 15 36.328 15.672 37 16.5 37 C 17.328 37 18 36.328 18 35.5 C 18 35.261 17.944 35.035 17.845 34.835 Z " fill-rule="evenodd" fill="url(#_lgradient_19)"/><linearGradient id="_lgradient_20" x1="0" y1="0.5" x2="1" y2="0.5" gradientTransform="matrix(12.815,0,0,7.248,9,22.752)" gradientUnits="userSpaceOnUse"><stop offset="0%" stop-opacity="1" style="stop-color:rgb(253,116,108)"/><stop offset="98.26086956521739%" stop-opacity="1" style="stop-color:rgb(255,144,104)"/></linearGradient><path d=" M 21.815 23.47 L 16.95 27 L 13.81 27 L 11.963 28.167 C 11.987 28.274 12 28.385 12 28.5 C 12 29.328 11.328 30 10.5 30 C 9.672 30 9 29.328 9 28.5 C 9 27.672 9.672 27 10.5 27 C 10.851 27 11.173 27.12 11.429 27.322 L 13.52 26 L 16.63 26 L 21.118 22.752 L 21.815 23.47 L 21.815 23.47 Z " fill="url(#_lgradient_20)"/><linearGradient id="_lgradient_21" x1="0.5180870166680417" y1="0.03333118384844386" x2="0.5073273481398528" y2="0.9681890995036899" gradientTransform="matrix(12.793,0,0,11.918,10,24.082)" gradientUnits="userSpaceOnUse"><stop offset="0%" stop-opacity="1" style="stop-color:rgb(244,97,51)"/><stop offset="98.75%" stop-opacity="1" style="stop-color:rgb(240,80,129)"/></linearGradient><path d=" M 12.2 33.173 C 11.991 33.063 11.753 33 11.5 33 C 10.672 33 10 33.672 10 34.5 C 10 35.328 10.672 36 11.5 36 C 12.328 36 13 35.328 13 34.5 C 13 34.292 12.957 34.093 12.881 33.913 L 22.793 24.793 L 22.793 24.793 L 22.082 24.082 L 12.2 33.173 Z " fill-rule="evenodd" fill="url(#_lgradient_21)"/><linearGradient id="_lgradient_22" x1="0" y1="0.5" x2="1" y2="0.5" gradientTransform="matrix(35.151,0,0,33.279,9.518,4.198)" gradientUnits="userSpaceOnUse"><stop offset="0%" stop-opacity="1" style="stop-color:rgb(24,208,173)"/><stop offset="90.44964029999998%" stop-opacity="1" style="stop-color:rgb(7,195,242)"/></linearGradient><path d=" M 44.284 6.613 L 29.82 36.63 C 29.55 37.19 28.95 37.53 28.32 37.47 C 27.7 37.41 27.18 36.96 27.02 36.35 C 26.51 34.4 25.75 32.52 24.77 30.75 C 23.84 29.08 22.68 27.55 21.32 26.19 C 19.91 24.8 18.33 23.6 16.61 22.62 C 14.7 21.53 12.68 20.65 10.57 20.01 C 9.97 19.82 9.54 19.27 9.52 18.63 C 9.49 18 9.87 17.41 10.46 17.18 L 42.304 4.491 C 44.355 3.673 45.242 4.625 44.284 6.613 Z  M 39.98 8.65 L 28.71 32.01 C 28.33 31.08 27.88 30.17 27.39 29.29 C 26.32 27.37 24.99 25.62 23.44 24.06 C 21.84 22.49 20.05 21.12 18.1 20.01 C 17.15 19.47 16.17 18.98 15.17 18.53 L 39.98 8.65 Z " fill-rule="evenodd" fill="url(#_lgradient_22)"/><linearGradient id="_lgradient_23" x1="0" y1="0.5" x2="1" y2="0.5" gradientTransform="matrix(47,0,0,47.02,0.5,0.49)" gradientUnits="userSpaceOnUse"><stop offset="0%" stop-opacity="1" style="stop-color:rgb(84,51,255)"/><stop offset="51.73913043478261%" stop-opacity="1" style="stop-color:rgb(32,189,255)"/><stop offset="98.26086956521739%" stop-opacity="1" style="stop-color:rgb(165,254,203)"/></linearGradient><path d=" M 3.5 24 C 3.5 24 3.5 24 3.5 24 L 3.5 24 L 3.5 24 C 3.5 29.44 5.66 34.66 9.5 38.5 C 13.34 42.35 18.56 44.51 24 44.51 C 29.44 44.51 34.66 42.35 38.5 38.5 C 42.34 34.66 44.5 29.44 44.5 24 C 44.5 21.57 44.07 19.17 43.23 16.89 L 43.23 16.89 C 42.943 16.112 43.342 15.249 44.12 14.965 L 44.12 14.965 C 44.898 14.681 45.763 15.077 46.05 15.85 L 46.05 15.85 C 47.01 18.46 47.5 21.22 47.5 24 C 47.5 30.23 45.02 36.22 40.62 40.62 C 36.21 45.03 30.23 47.51 24 47.51 C 17.77 47.51 11.79 45.03 7.38 40.62 C 2.97 36.22 0.5 30.23 0.5 24 C 0.5 17.77 2.97 11.78 7.38 7.38 C 11.79 2.97 17.77 0.49 24 0.49 C 27.14 0.48 30.25 1.11 33.14 2.33 L 33.14 2.33 C 33.902 2.656 34.258 3.538 33.935 4.3 L 33.935 4.3 C 33.612 5.062 32.732 5.42 31.97 5.1 L 31.97 5.1 C 29.45 4.03 26.74 3.48 24 3.49 C 18.56 3.49 13.35 5.65 9.5 9.5 C 5.66 13.34 3.5 18.56 3.5 24 Z  M 0.5 24 C 0.5 24 0.5 24 0.5 24 L 0.5 24 L 0.5 24 Z  M 0.5 24" fill-rule="evenodd" fill="url(#_lgradient_23)"/></svg>