<?xml version="1.0" encoding="UTF-8" standalone="no"?><!-- Generator: Gravit.io --><svg xmlns="http://www.w3.org/2000/svg" xmlns:xlink="http://www.w3.org/1999/xlink" style="isolation:isolate" viewBox="0 0 48 48" width="48pt" height="48pt"><linearGradient id="_lgradient_40" x1="-0.004528110464602941" y1="0.5081470527987706" x2="1.17464657326554" y2="0.4394017687017022" gradientTransform="matrix(40.25,0,0,46,6.75,1)" gradientUnits="userSpaceOnUse"><stop offset="1.6666666666666667%" stop-opacity="1" style="stop-color:rgb(242,231,63)"/><stop offset="84.58333333333333%" stop-opacity="1" style="stop-color:rgb(94,239,229)"/></linearGradient><path d=" M 35.5 35.5 L 6.75 35.5 L 6.75 35.5 L 12.5 47 L 35.5 47 L 47 35.5 L 47 29.75 L 35.5 29.75 L 35.5 35.5 Z  M 12.5 1 L 6.75 12.5 L 47 12.5 L 35.5 1 L 12.5 1 L 12.5 1 Z " fill-rule="evenodd" fill="url(#_lgradient_40)"/><linearGradient id="_lgradient_41" x1="-0.28437500000000004" y1="0.14375000000000007" x2="0.9877488938053094" y2="0.5921736725663717" gradientTransform="matrix(46,0,0,46,1,1)" gradientUnits="userSpaceOnUse"><stop offset="0%" stop-opacity="1" style="stop-color:rgb(84,51,255)"/><stop offset="51.73913043478261%" stop-opacity="1" style="stop-color:rgb(32,189,255)"/><stop offset="98.26086956521739%" stop-opacity="1" style="stop-color:rgb(165,254,203)"/></linearGradient><path d=" M 28.6 29.75 L 47 29.75 L 37.8 20.55 L 19.4 20.55 L 28.6 29.75 Z  M 12.5 1 L 1 12.5 L 1 35.5 L 12.5 47 L 12.5 35.5 L 12.5 12.5 L 12.5 1 Z " fill-rule="evenodd" fill="url(#_lgradient_41)"/></svg>