<?xml version="1.0" encoding="UTF-8" standalone="no"?>
<!-- Generator: Gravit.io -->
<svg xmlns="http://www.w3.org/2000/svg" xmlns:xlink="http://www.w3.org/1999/xlink" style="isolation:isolate" viewBox="0 0 48 48" width="48pt" height="48pt"><linearGradient id="_lgradient_13" x1="0" y1="0.5" x2="0.9074880558539661" y2="0.9200778838291643" gradientTransform="matrix(35.07,0,0,6.2,4.33,30.53)" gradientUnits="userSpaceOnUse"><stop offset="2.1739130434782608%" stop-opacity="1" style="stop-color:rgb(0,177,255)"/><stop offset="83.88839793817618%" stop-opacity="1" style="stop-color:rgb(0,114,255)"/></linearGradient><path d=" M 37.9 30.53 L 39.4 30.53 L 39.4 33.53 L 37.9 33.53 L 37.26 33.53 L 37.26 36.73 L 26.78 36.73 L 26.78 33.53 L 21.22 33.53 L 21.22 36.73 L 10.74 36.73 L 10.74 33.53 L 5.83 33.53 L 4.33 33.53 L 4.33 30.53 L 5.83 30.53 L 13.74 30.53 L 13.74 33.73 L 18.22 33.73 L 18.22 30.53 L 29.78 30.53 L 29.78 33.73 L 34.26 33.73 L 34.26 30.53 L 37.9 30.53 Z " fill="url(#_lgradient_13)"/><linearGradient id="_lgradient_14" x1="0" y1="0.5" x2="0.9074880558539661" y2="0.9200778838291643" gradientTransform="matrix(46.4,0,0,42.837,0.8,2.582)" gradientUnits="userSpaceOnUse"><stop offset="0%" stop-opacity="1" style="stop-color:rgb(0,196,255)"/><stop offset="83.88839793817618%" stop-opacity="1" style="stop-color:rgb(0,114,255)"/></linearGradient><path d=" M 12.777 23.476 C 12.777 22.886 13.256 22.407 13.846 22.407 C 14.436 22.407 14.915 22.886 14.915 23.476 C 14.915 24.066 14.436 24.545 13.846 24.545 C 13.256 24.545 12.777 24.066 12.777 23.476 L 12.777 23.476 L 12.777 23.476 L 12.777 23.476 L 12.777 23.476 Z  M 33.085 23.476 C 33.085 22.886 33.564 22.407 34.154 22.407 C 34.744 22.407 35.223 22.886 35.223 23.476 C 35.223 24.066 34.744 24.545 34.154 24.545 C 33.564 24.545 33.085 24.066 33.085 23.476 L 33.085 23.476 L 33.085 23.476 L 33.085 23.476 Z  M 23.466 22.407 L 24.534 22.407 L 24.534 26.682 L 23.466 26.682 L 23.466 22.407 L 23.466 22.407 L 23.466 22.407 Z  M 11.174 23.476 C 11.174 22.77 11.452 22.086 11.954 21.584 C 12.456 21.082 13.14 20.804 13.846 20.804 C 14.551 20.804 15.235 21.082 15.738 21.584 C 16.24 22.086 16.518 22.77 16.518 23.476 C 16.518 24.181 16.24 24.865 15.738 25.368 C 15.235 25.87 14.551 26.148 13.846 26.148 C 13.14 26.148 12.456 25.87 11.954 25.368 C 11.452 24.865 11.174 24.181 11.174 23.476 L 11.174 23.476 L 11.174 23.476 L 11.174 23.476 L 11.174 23.476 L 11.174 23.476 Z  M 31.482 23.476 C 31.482 22.77 31.76 22.086 32.262 21.584 C 32.765 21.082 33.449 20.804 34.154 20.804 C 34.86 20.804 35.544 21.082 36.046 21.584 C 36.548 22.086 36.826 22.77 36.826 23.476 C 36.826 24.181 36.548 24.865 36.046 25.368 C 35.544 25.87 34.86 26.148 34.154 26.148 C 33.449 26.148 32.765 25.87 32.262 25.368 C 31.76 24.865 31.482 24.181 31.482 23.476 L 31.482 23.476 L 31.482 23.476 L 31.482 23.476 Z  M 23.466 20.269 L 24.534 20.269 C 25.714 20.269 26.672 21.227 26.672 22.407 L 26.672 26.682 C 26.672 27.862 25.714 28.82 24.534 28.82 L 23.466 28.82 C 22.286 28.82 21.328 27.862 21.328 26.682 L 21.328 22.407 C 21.328 21.227 22.286 20.269 23.466 20.269 L 23.466 20.269 L 23.466 20.269 Z  M 9.036 23.476 C 9.036 22.204 9.538 20.975 10.447 20.077 C 11.345 19.168 12.574 18.666 13.846 18.666 C 15.118 18.666 16.347 19.168 17.245 20.077 C 18.153 20.975 18.656 22.204 18.656 23.476 C 18.656 24.748 18.153 25.977 17.245 26.875 C 16.347 27.783 15.118 28.286 13.846 28.286 C 12.574 28.286 11.345 27.783 10.447 26.875 C 9.538 25.977 9.036 24.748 9.036 23.476 L 9.036 23.476 L 9.036 23.476 L 9.036 23.476 L 9.036 23.476 L 9.036 23.476 Z  M 29.344 23.476 C 29.344 22.204 29.847 20.975 30.755 20.077 C 31.653 19.168 32.882 18.666 34.154 18.666 C 35.426 18.666 36.655 19.168 37.553 20.077 C 38.462 20.975 38.964 22.204 38.964 23.476 C 38.964 24.748 38.462 25.977 37.553 26.875 C 36.655 27.783 35.426 28.286 34.154 28.286 C 32.882 28.286 31.653 27.783 30.755 26.875 C 29.847 25.977 29.344 24.748 29.344 23.476 L 29.344 23.476 L 29.344 23.476 L 29.344 23.476 Z  M 7.433 25.614 L 7.433 25.614 C 7.433 26.498 6.714 27.217 5.83 27.217 L 5.83 27.217 C 4.945 27.217 4.226 26.498 4.226 25.614 L 4.226 25.614 L 4.226 20.932 L 1.113 17.819 C 0.696 17.401 0.696 16.724 1.113 16.307 L 7.211 10.208 C 7.629 9.791 8.306 9.791 8.723 10.208 L 10.49 11.975 L 13.611 10.724 L 12.752 6.428 C 12.636 5.85 12.987 5.203 13.535 4.984 L 19.341 2.666 C 19.889 2.447 20.6 2.668 20.927 3.159 L 22.717 5.84 L 25.283 5.84 L 27.073 3.159 C 27.4 2.668 28.111 2.447 28.659 2.666 L 34.465 4.984 C 35.013 5.203 35.364 5.85 35.248 6.428 L 34.389 10.724 L 37.51 11.975 L 39.277 10.208 C 39.694 9.791 40.371 9.791 40.789 10.208 L 46.887 16.307 C 47.304 16.724 47.304 17.401 46.887 17.819 L 43.774 20.932 L 43.774 34.164 C 43.774 34.314 43.752 34.464 43.71 34.613 C 43.464 35.479 43.122 36.323 42.705 37.125 C 42.299 37.905 41.807 38.632 41.251 39.295 C 40.685 39.99 40.043 40.61 39.338 41.165 C 38.568 41.764 37.745 42.298 36.88 42.747 C 36.506 42.94 36.131 43.111 35.757 43.282 C 35.351 43.453 34.934 43.613 34.517 43.763 C 33.213 44.233 31.867 44.586 30.499 44.821 C 28.724 45.12 26.939 45.312 25.133 45.387 C 22.717 45.483 20.28 45.355 17.886 45.013 C 16.069 44.746 14.306 44.244 12.617 43.527 C 11.708 43.132 10.832 42.672 9.998 42.138 C 9.207 41.636 8.47 41.069 7.786 40.438 C 7.112 39.808 6.492 39.124 5.936 38.397 C 5.359 37.627 4.846 36.815 4.408 35.971 C 4.29 35.746 4.226 35.49 4.226 35.233 L 4.226 33.096 L 4.226 31.492 L 7.433 31.492 L 7.433 33.096 L 7.433 34.827 C 7.743 35.394 8.106 35.939 8.491 36.462 C 8.929 37.04 9.421 37.585 9.966 38.076 C 10.511 38.589 11.099 39.038 11.719 39.434 C 12.403 39.872 13.13 40.257 13.878 40.577 C 15.31 41.187 16.807 41.614 18.346 41.839 C 20.548 42.159 22.782 42.277 25.005 42.181 C 26.661 42.117 28.318 41.935 29.964 41.657 C 31.14 41.454 32.305 41.144 33.438 40.748 C 33.791 40.62 34.143 40.481 34.485 40.332 C 34.795 40.203 35.105 40.054 35.405 39.904 C 36.089 39.541 36.741 39.124 37.361 38.643 C 37.884 38.226 38.365 37.756 38.793 37.243 C 39.199 36.751 39.562 36.217 39.862 35.639 C 40.15 35.094 40.385 34.517 40.567 33.929 L 40.567 19.607 L 43.111 17.063 L 40.033 13.984 L 38.28 15.737 L 30.712 12.713 L 31.781 7.368 L 28.885 6.203 L 26.993 9.046 L 21.007 9.046 L 19.115 6.203 L 16.219 7.368 L 17.288 12.713 L 9.72 15.737 L 7.967 13.984 L 4.889 17.063 L 7.433 19.607 L 7.433 25.614 Z " fill-rule="evenodd" fill="url(#_lgradient_14)"/></svg>