<?xml version="1.0" encoding="UTF-8" standalone="no"?><!-- Generator: Gravit.io --><svg xmlns="http://www.w3.org/2000/svg" xmlns:xlink="http://www.w3.org/1999/xlink" style="isolation:isolate" viewBox="0 0 48 48" width="48pt" height="48pt"><linearGradient id="_lgradient_3" x1="0.31221262034235875" y1="0.07912717169832595" x2="0.7011466794481722" y2="1.071587229608669" gradientTransform="matrix(22.02,0,0,32.631,26,13.668)" gradientUnits="userSpaceOnUse"><stop offset="0%" stop-opacity="1" style="stop-color:rgb(247,241,7)"/><stop offset="83.88839793817618%" stop-opacity="1" style="stop-color:rgb(255,187,36)"/></linearGradient><path d=" M 41 13.67 L 45.727 13.668 C 46.333 14.909 46.832 16.253 47.195 17.67 L 47.188 17.67 C 47.744 19.715 48.027 21.831 48.02 23.96 C 48.02 23.96 48.02 23.96 48.02 23.96 L 48.02 24.04 C 48.02 24.04 48.02 24.04 48.02 24.04 C 48 30.26 45.56 36.24 41.23 40.7 C 38.959 43.034 36.257 44.859 33.307 46.095 C 30.619 47.221 29.456 43.357 31.67 42.442 C 34.162 41.412 36.443 39.88 38.36 37.91 C 41.97 34.2 44.01 29.22 44.02 24.03 L 44.02 23.96 C 44.028 21.823 43.684 19.699 43.015 17.67 L 43 17.67 L 28 17.67 L 26 17.67 L 26 13.67 L 28 13.67 L 41 13.67 Z " fill-rule="evenodd" fill="url(#_lgradient_3)"/><linearGradient id="_lgradient_4" x1="0.9108086735282703" y1="0.5028208182793182" x2="0.00008595055677873553" y2="0.4654592972028612" gradientTransform="matrix(31.905,0,0,28.837,0.066,19)" gradientUnits="userSpaceOnUse"><stop offset="0%" stop-opacity="1" style="stop-color:rgb(0,255,216)"/><stop offset="83.88839793817618%" stop-opacity="1" style="stop-color:rgb(0,255,184)"/></linearGradient><path d=" M 24.427 43.751 L 22.052 47.837 C 20.675 47.737 19.262 47.493 17.854 47.094 L 17.858 47.088 C 15.81 46.54 13.84 45.721 12.003 44.644 C 12.003 44.644 12.003 44.644 12.003 44.644 L 11.934 44.604 C 11.934 44.604 11.934 44.604 11.934 44.604 C 6.567 41.458 2.626 36.342 0.948 30.356 C 0.073 27.219 -0.146 23.967 0.27 20.795 C 0.648 17.905 4.573 18.844 4.25 21.217 C 3.887 23.889 4.064 26.631 4.803 29.279 C 6.194 34.265 9.473 38.533 13.954 41.151 L 14.014 41.186 C 15.858 42.268 17.866 43.039 19.956 43.481 L 19.964 43.468 L 27.508 30.503 L 28.513 28.774 L 31.971 30.786 L 30.965 32.514 L 24.427 43.751 Z " fill-rule="evenodd" fill="url(#_lgradient_4)"/><linearGradient id="_lgradient_5" x1="0.8049329309895621" y1="1.1485585864046477" x2="0.1950601721100912" y2="0.12939837922701325" gradientTransform="matrix(35.112,0,0,27.588,4.25,0.116)" gradientUnits="userSpaceOnUse"><stop offset="0%" stop-opacity="1" style="stop-color:rgb(255,229,59)"/><stop offset="98.69565217391305%" stop-opacity="1" style="stop-color:rgb(255,0,91)"/></linearGradient><path d=" M 6.679 14.832 L 4.25 10.777 C 5.004 9.62 5.9 8.501 6.93 7.462 L 6.934 7.468 C 8.404 5.941 10.073 4.612 11.904 3.524 C 11.904 3.524 11.904 3.524 11.904 3.524 L 11.973 3.483 C 11.973 3.483 11.973 3.483 11.973 3.483 C 17.32 0.307 23.705 -0.67 29.755 0.755 C 32.925 1.506 35.877 2.887 38.454 4.784 C 40.8 6.512 38.081 9.494 36.159 8.064 C 33.996 6.455 31.51 5.284 28.835 4.651 C 23.798 3.458 18.477 4.265 14.018 6.921 L 13.958 6.957 C 12.12 8.047 10.474 9.433 9.077 11.049 L 9.084 11.062 L 16.787 23.933 L 17.814 25.65 L 14.381 27.704 L 13.354 25.987 L 6.679 14.832 Z " fill-rule="evenodd" fill="url(#_lgradient_5)"/><linearGradient id="_lgradient_6" x1="-0.1071428571428571" y1="0.45833333333333337" x2="1.3467130214917828" y2="0.43410240202275663" gradientTransform="matrix(21,0,0,21,13.5,13.5)" gradientUnits="userSpaceOnUse"><stop offset="0%" stop-opacity="1" style="stop-color:rgb(84,51,255)"/><stop offset="51.73913043478261%" stop-opacity="1" style="stop-color:rgb(32,189,255)"/><stop offset="98.26086956521739%" stop-opacity="1" style="stop-color:rgb(165,254,203)"/></linearGradient><path d=" M 13.5 24 C 13.5 18.205 18.205 13.5 24 13.5 C 29.795 13.5 34.5 18.205 34.5 24 C 34.5 29.795 29.795 34.5 24 34.5 C 18.205 34.5 13.5 29.795 13.5 24 Z  M 17.5 24 C 17.5 22.28 18.19 20.62 19.4 19.4 C 20.62 18.19 22.28 17.5 24 17.5 C 25.72 17.5 27.38 18.19 28.6 19.4 C 29.81 20.62 30.5 22.28 30.5 24 C 30.5 25.72 29.81 27.38 28.6 28.6 C 27.38 29.81 25.72 30.5 24 30.5 C 22.28 30.5 20.62 29.81 19.4 28.6 C 18.19 27.38 17.5 25.72 17.5 24 Z " fill-rule="evenodd" fill="url(#_lgradient_6)"/></svg>