<?xml version="1.0" encoding="UTF-8" standalone="no"?><!-- Generator: Gravit.io --><svg xmlns="http://www.w3.org/2000/svg" xmlns:xlink="http://www.w3.org/1999/xlink" style="isolation:isolate" viewBox="0 0 48 48" width="48pt" height="48pt"><g><linearGradient id="_lgradient_7" x1="0" y1="0.5" x2="0.9074880558539661" y2="0.9200778838291643" gradientTransform="matrix(24.446,0,0,26.348,22.052,5.595)" gradientUnits="userSpaceOnUse"><stop offset="0%" stop-opacity="1" style="stop-color:rgb(247,241,7)"/><stop offset="83.88839793817618%" stop-opacity="1" style="stop-color:rgb(255,187,36)"/></linearGradient><path d=" M 31.795 28.954 L 32.542 30.222 L 30.006 31.726 L 29.249 30.458 L 22.8 19.516 L 22.052 18.248 L 24.589 16.744 L 25.336 18.022 L 31.795 28.954 Z  M 31.698 5.726 L 46.11 29.131 L 46.498 29.76 L 44.379 31.943 L 43.603 30.694 L 28.797 6.843 L 28.01 5.595 L 31.698 5.726 Z " fill-rule="evenodd" fill="url(#_lgradient_7)"/><linearGradient id="_lgradient_8" x1="0" y1="0.5" x2="1" y2="0.5" gradientTransform="matrix(37.571,0,0,14.767,9.68,28.993)" gradientUnits="userSpaceOnUse"><stop offset="0%" stop-opacity="1" style="stop-color:rgb(84,51,255)"/><stop offset="51.73913043478261%" stop-opacity="1" style="stop-color:rgb(32,189,255)"/><stop offset="98.26086956521739%" stop-opacity="1" style="stop-color:rgb(165,254,203)"/></linearGradient><path d=" M 43.327 32.277 L 18.523 31.962 L 17.048 31.943 L 17.088 28.993 L 18.562 29.013 L 45.195 29.347 C 45.648 29.347 46.09 29.475 46.464 29.731 C 46.965 30.085 47.26 30.665 47.25 31.284 C 47.23 31.736 47.073 32.169 46.788 32.523 L 39.67 42.374 C 39.66 42.384 39.65 42.393 39.641 42.403 C 39.326 42.816 38.923 43.15 38.451 43.377 C 37.999 43.622 37.488 43.75 36.966 43.76 C 36.957 43.76 36.937 43.76 36.917 43.76 L 36.898 43.76 L 11.14 43.357 L 10.557 43.349 C 10.065 43.343 9.672 42.937 9.68 42.445 L 9.714 40.388 L 11.189 40.408 L 36.907 40.811 C 36.986 40.811 37.055 40.781 37.124 40.742 C 37.193 40.722 37.252 40.673 37.291 40.624 L 43.327 32.277 Z  M 36.907 40.811 L 36.927 40.811 L 36.947 40.811 L 36.898 40.811 C 36.898 40.811 36.907 40.811 36.907 40.811 Z " fill-rule="evenodd" fill="url(#_lgradient_8)"/><linearGradient id="_lgradient_9" x1="0" y1="0.5" x2="1" y2="0.5" gradientTransform="matrix(31.121,0,0,39.07,0.75,4.24)" gradientUnits="userSpaceOnUse"><stop offset="0%" stop-opacity="1" style="stop-color:rgb(17,153,142)"/><stop offset="99.1304347826087%" stop-opacity="1" style="stop-color:rgb(56,239,125)"/></linearGradient><path d=" M 8.32 42.26 L 1.23 31.35 C 1.22 31.34 1.21 31.32 1.21 31.31 C 0.9 30.81 0.74 30.23 0.75 29.64 C 0.74 29.12 0.87 28.6 1.12 28.14 C 1.13 28.13 1.14 28.12 1.14 28.1 L 13.98 5.83 C 13.99 5.82 14 5.81 14.01 5.8 C 14.29 5.34 14.69 4.95 15.17 4.69 C 15.63 4.41 16.17 4.26 16.71 4.24 C 16.72 4.24 16.74 4.24 16.75 4.24 L 16.77 4.24 L 29.74 4.35 C 30.24 4.34 30.74 4.51 31.14 4.81 C 31.61 5.19 31.88 5.77 31.87 6.38 C 31.86 6.76 31.76 7.14 31.56 7.47 L 20.77 26.88 L 11.95 42.16 C 11.59 42.85 10.89 43.29 10.11 43.31 C 9.37 43.3 8.69 42.9 8.32 42.26 Z  M 28.2 7.34 L 18.16 25.4 L 10.06 39.43 L 3.76 29.74 C 3.75 29.71 3.75 29.67 3.76 29.64 C 3.75 29.62 3.75 29.6 3.76 29.58 L 16.57 7.36 C 16.59 7.33 16.63 7.3 16.66 7.29 C 16.69 7.26 16.73 7.25 16.77 7.24 L 28.2 7.34 Z  M 16.77 7.24 C 16.78 7.24 16.78 7.24 16.79 7.24 L 16.74 7.24 L 16.75 7.24 L 16.77 7.24 Z " fill-rule="evenodd" fill="url(#_lgradient_9)"/></g></svg>