<?xml version="1.0" encoding="UTF-8" standalone="no"?><!-- Generator: Gravit.io --><svg xmlns="http://www.w3.org/2000/svg" xmlns:xlink="http://www.w3.org/1999/xlink" style="isolation:isolate" viewBox="0 0 48 48" width="48pt" height="48pt"><linearGradient id="_lgradient_18" x1="0" y1="0.5" x2="1" y2="0.5" gradientTransform="matrix(13.004,0,0,11.467,27.5,21)" gradientUnits="userSpaceOnUse"><stop offset="0%" stop-opacity="1" style="stop-color:rgb(117,127,154)"/><stop offset="98.69565217391305%" stop-opacity="1" style="stop-color:rgb(215,221,232)"/></linearGradient><path d=" M 34.68 21 L 39 21 C 39.46 21 39.9 21.21 40.18 21.58 C 40.47 21.94 40.57 22.41 40.46 22.86 C 40.12 24.19 39.61 25.47 38.93 26.65 C 38.28 27.76 37.45 28.75 36.47 29.59 C 35.48 30.42 34.36 31.07 33.16 31.53 C 31.87 32.02 30.52 32.33 29.14 32.46 C 28.72 32.5 28.29 32.36 27.98 32.07 C 27.67 31.78 27.49 31.37 27.5 30.94 L 27.6 25.97 C 27.61 25.62 27.74 25.29 27.96 25.02 C 28.19 24.76 28.5 24.58 28.85 24.52 C 29.84 24.35 30.79 24 31.65 23.48 C 32.36 23.03 32.96 22.43 33.4 21.71 C 33.68 21.27 34.16 21 34.68 21 Z  M 35.46 24 L 36.91 24 C 36.74 24.39 36.55 24.78 36.33 25.15 C 35.86 25.96 35.25 26.68 34.54 27.3 C 33.81 27.9 32.98 28.39 32.09 28.73 C 31.59 28.92 31.06 29.08 30.54 29.2 L 30.58 27.2 C 31.51 26.93 32.4 26.53 33.23 26.03 C 34.09 25.49 34.85 24.8 35.46 24 Z " fill-rule="evenodd" fill="url(#_lgradient_18)"/><path d=" M 28 6 L 28 21 L 41.963 21 C 41.987 20.667 42 20.334 42 20 C 42 12.268 35.732 6 28 6 Z " fill="none"/><linearGradient id="_lgradient_19" x1="0" y1="0.5" x2="1" y2="0.5" gradientTransform="matrix(16.96,0,0,17.997,26.5,4.503)" gradientUnits="userSpaceOnUse"><stop offset="0%" stop-opacity="1" style="stop-color:rgb(255,224,49)"/><stop offset="100%" stop-opacity="1" style="stop-color:rgb(250,0,117)"/></linearGradient><path d=" M 41.96 22.5 L 35 22.5 C 34.61 22.5 34.23 22.35 33.95 22.07 C 33.67 21.79 33.51 21.42 33.5 21.03 C 33.49 20.16 33.34 19.3 33.05 18.48 C 32.85 17.88 32.51 17.33 32.07 16.88 C 31.62 16.44 31.08 16.11 30.49 15.91 C 29.69 15.64 28.84 15.5 28 15.5 C 27.6 15.5 27.22 15.34 26.94 15.06 C 26.66 14.78 26.5 14.4 26.5 14 L 26.5 6 C 26.5 5.58 26.68 5.17 26.99 4.89 C 27.3 4.61 27.72 4.47 28.14 4.51 C 29.31 4.62 30.47 4.81 31.61 5.08 C 32.66 5.33 33.68 5.66 34.68 6.08 C 36.52 6.84 38.18 7.98 39.55 9.42 C 40.89 10.88 41.9 12.61 42.5 14.5 C 42.83 15.5 43.07 16.53 43.22 17.58 C 43.38 18.71 43.46 19.86 43.46 21 C 43.46 21.4 43.3 21.78 43.02 22.06 C 42.74 22.34 42.36 22.5 41.96 22.5 Z  M 40.41 19.5 L 36.38 19.5 C 36.28 18.82 36.11 18.15 35.89 17.5 C 35.53 16.47 34.95 15.53 34.19 14.76 C 33.42 13.99 32.48 13.42 31.45 13.06 C 30.82 12.85 30.16 12.7 29.5 12.61 L 29.5 7.71 C 29.98 7.79 30.45 7.89 30.92 8 C 31.81 8.21 32.68 8.49 33.52 8.85 C 34.97 9.44 36.28 10.34 37.36 11.47 C 38.4 12.61 39.18 13.96 39.65 15.42 C 39.93 16.26 40.13 17.12 40.25 18 C 40.32 18.5 40.38 19 40.41 19.5 Z " fill-rule="evenodd" fill="url(#_lgradient_19)"/><path d=" M 27.5 3 C 17.283 3 9 11.283 9 21.5 C 9.004 21.667 9.009 21.833 9.018 22 L 28 22 L 28 3.018 C 27.833 3.009 27.667 3.004 27.5 3 L 27.5 3 Z " fill="none"/><linearGradient id="_lgradient_20" x1="0" y1="0.5" x2="1" y2="0.5" gradientTransform="matrix(22.004,0,0,21.982,7.496,1.518)" gradientUnits="userSpaceOnUse"><stop offset="0%" stop-opacity="1" style="stop-color:rgb(84,51,255)"/><stop offset="51.73913043478261%" stop-opacity="1" style="stop-color:rgb(32,189,255)"/><stop offset="98.26086956521739%" stop-opacity="1" style="stop-color:rgb(165,254,203)"/></linearGradient><path d=" M 29.5 3.02 L 29.5 14 C 29.5 14.4 29.34 14.78 29.06 15.07 C 28.77 15.35 28.39 15.5 27.98 15.5 C 27.03 15.49 26.08 15.64 25.17 15.93 C 24.48 16.17 23.84 16.56 23.31 17.07 C 22.77 17.62 22.36 18.28 22.09 19 C 21.74 19.99 21.54 21.02 21.5 22.06 C 21.48 22.45 21.32 22.81 21.04 23.08 C 20.76 23.35 20.39 23.5 20 23.5 L 9 23.5 C 8.58 23.5 8.19 23.33 7.9 23.02 C 7.62 22.72 7.47 22.31 7.5 21.89 C 7.61 20.41 7.82 18.94 8.12 17.49 C 8.4 16.16 8.79 14.85 9.29 13.58 C 10.2 11.22 11.58 9.07 13.36 7.27 C 15.15 5.5 17.3 4.13 19.65 3.23 C 20.91 2.74 22.21 2.36 23.54 2.09 C 24.98 1.8 26.44 1.61 27.91 1.52 C 28.32 1.5 28.73 1.64 29.03 1.93 C 29.33 2.21 29.5 2.6 29.5 3.02 Z  M 26.5 4.65 L 26.5 12.58 C 25.73 12.68 24.96 12.84 24.23 13.09 C 23.09 13.47 22.05 14.1 21.2 14.94 C 20.34 15.8 19.68 16.84 19.27 17.99 C 18.98 18.8 18.77 19.64 18.64 20.5 L 10.66 20.5 C 10.76 19.7 10.89 18.9 11.06 18.11 C 11.31 16.93 11.65 15.78 12.09 14.66 C 12.85 12.69 14 10.9 15.48 9.39 C 16.98 7.92 18.76 6.77 20.72 6.03 C 21.83 5.6 22.97 5.27 24.14 5.03 C 24.92 4.87 25.71 4.75 26.5 4.65 Z " fill-rule="evenodd" fill="url(#_lgradient_20)"/><path d=" M 6 22 C 6 34.703 16.297 45 29 45 L 29 22 L 6 22 Z " fill="none"/><linearGradient id="_lgradient_21" x1="0" y1="0.5" x2="1" y2="0.5" gradientTransform="matrix(25.997,0,0,26,4.503,20.5)" gradientUnits="userSpaceOnUse"><stop offset="0%" stop-opacity="1" style="stop-color:rgb(247,242,6)"/><stop offset="97.82608695652173%" stop-opacity="1" style="stop-color:rgb(255,187,36)"/></linearGradient><path d=" M 30.5 32 L 30.5 45 C 30.5 45.43 30.32 45.84 30 46.12 C 29.68 46.4 29.25 46.54 28.83 46.49 C 27.09 46.29 25.38 45.98 23.68 45.55 C 22.12 45.16 20.59 44.64 19.1 44.01 C 16.34 42.85 13.83 41.17 11.69 39.07 C 9.6 36.95 7.94 34.45 6.8 31.7 C 6.19 30.24 5.7 28.73 5.34 27.19 C 4.94 25.53 4.67 23.84 4.51 22.14 C 4.47 21.72 4.61 21.3 4.89 20.99 C 5.17 20.68 5.58 20.5 6 20.5 L 20 20.5 C 20.39 20.5 20.77 20.66 21.05 20.93 C 21.33 21.21 21.49 21.58 21.5 21.98 C 21.52 23.23 21.72 24.47 22.1 25.66 C 22.39 26.58 22.87 27.43 23.5 28.15 C 24.13 28.83 24.89 29.37 25.74 29.73 C 26.81 30.17 27.94 30.43 29.1 30.5 C 29.48 30.53 29.83 30.7 30.09 30.97 C 30.35 31.25 30.5 31.62 30.5 32 Z  M 27.5 33.33 L 27.5 43.28 C 26.46 43.11 25.43 42.9 24.41 42.64 C 23 42.29 21.62 41.82 20.28 41.25 C 17.87 40.24 15.67 38.78 13.81 36.94 C 12 35.11 10.56 32.94 9.57 30.55 C 9.02 29.24 8.58 27.88 8.26 26.5 C 8.02 25.51 7.83 24.51 7.69 23.5 L 18.59 23.5 C 18.7 24.54 18.92 25.57 19.24 26.57 C 19.66 27.89 20.35 29.11 21.27 30.16 C 22.19 31.17 23.32 31.97 24.59 32.5 C 25.52 32.88 26.5 33.16 27.5 33.33 Z " fill-rule="evenodd" fill="url(#_lgradient_21)"/></svg>