<?xml version="1.0" encoding="UTF-8" standalone="no"?><!-- Generator: Gravit.io --><svg xmlns="http://www.w3.org/2000/svg" xmlns:xlink="http://www.w3.org/1999/xlink" style="isolation:isolate" viewBox="0 0 48 48" width="48pt" height="48pt"><linearGradient id="_lgradient_1" x1="0" y1="0.5" x2="0.9074880558539661" y2="0.9200778838291643" gradientTransform="matrix(35.732,0,0,44.145,9.408,1.653)" gradientUnits="userSpaceOnUse"><stop offset="0%" stop-opacity="1" style="stop-color:rgb(0,196,255)"/><stop offset="83.88839793817618%" stop-opacity="1" style="stop-color:rgb(0,114,255)"/></linearGradient><path d=" M 11.36 40.541 L 11.37 40.55 C 11.85 40.97 12.45 41.19 13.08 41.19 C 13.09 41.19 13.1 41.19 13.11 41.19 L 13.25 41.19 C 13.26 41.19 13.26 41.19 13.27 41.19 C 13.96 41.14 14.61 40.81 15.06 40.29 L 15.24 40.07 L 15.83 40.58 C 16.19 40.89 16.65 41.06 17.13 41.06 C 17.71 41.06 18.26 40.81 18.64 40.38 C 18.64 40.38 18.64 40.38 18.64 40.37 L 25.893 31.989 L 25.9 31.99 L 27.205 30.483 L 27.26 30.42 L 27.26 30.42 L 36.04 20.28 L 36.57 20.74 C 37.04 21.15 37.64 21.38 38.27 21.38 C 38.28 21.38 38.29 21.38 38.3 21.38 L 38.44 21.37 C 38.45 21.37 38.45 21.37 38.46 21.37 C 39.15 21.32 39.8 21 40.25 20.47 L 40.79 19.85 C 41.2 19.38 41.43 18.77 41.43 18.15 C 41.43 18.14 41.43 18.13 41.43 18.12 L 41.43 17.97 C 41.43 17.97 41.42 17.96 41.42 17.95 C 41.38 17.26 41.05 16.61 40.53 16.16 L 40.099 15.787 L 43.77 11.55 C 43.78 11.54 43.78 11.53 43.79 11.52 C 44.22 11 44.55 10.41 44.77 9.77 C 45 9.14 45.13 8.48 45.14 7.81 C 45.14 7.79 45.14 7.77 45.14 7.74 L 45.14 7.62 C 45.14 7.61 45.14 7.6 45.14 7.58 C 45.12 7.1 45.06 6.61 44.96 6.13 C 44.88 5.72 44.75 5.32 44.59 4.93 C 44.43 4.55 44.23 4.18 43.99 3.84 C 43.76 3.52 43.5 3.22 43.2 2.96 C 42.91 2.72 42.6 2.5 42.26 2.33 C 41.92 2.15 41.56 2 41.18 1.9 C 40.76 1.78 40.32 1.7 39.88 1.67 C 39.37 1.64 38.85 1.65 38.34 1.7 C 36.9 1.84 35.56 2.53 34.61 3.62 L 30.946 7.86 L 30.946 7.86 L 30.83 7.76 C 30.35 7.35 29.75 7.12 29.12 7.12 C 29.11 7.12 29.1 7.12 29.09 7.12 L 28.95 7.13 C 28.94 7.13 28.94 7.13 28.93 7.13 C 28.24 7.18 27.59 7.5 27.14 8.02 L 26.6 8.65 C 26.19 9.12 25.96 9.73 25.96 10.35 C 25.96 10.36 25.96 10.37 25.96 10.38 L 25.97 10.52 C 25.97 10.53 25.97 10.54 25.97 10.54 C 26.01 11.24 26.34 11.88 26.86 12.34 L 27.7 13.06 L 21.45 20.29 C 21.44 20.29 21.44 20.3 21.44 20.3 C 21.26 20.51 21.16 20.79 21.17 21.07 C 21.18 21.48 21.37 21.86 21.68 22.12 C 21.94 22.34 22.26 22.47 22.61 22.48 C 22.95 22.49 23.27 22.35 23.51 22.1 C 23.51 22.1 23.52 22.09 23.52 22.08 L 29.78 14.86 L 33.96 18.49 L 25.192 28.621 L 25.19 28.62 L 24.758 29.12 L 18.03 28.42 L 19.29 26.97 C 19.5 26.72 19.62 26.4 19.62 26.07 C 19.62 25.68 19.45 25.3 19.15 25.04 C 18.9 24.82 18.58 24.7 18.25 24.7 C 17.85 24.7 17.48 24.88 17.22 25.18 C 17.22 25.18 17.22 25.18 17.22 25.18 L 14.86 27.9 L 14.86 27.9 L 13.96 28.93 L 10.3 33.16 C 9.99 33.52 9.82 33.98 9.82 34.46 C 9.82 35.04 10.07 35.59 10.5 35.97 C 10.5 35.97 10.5 35.97 10.51 35.97 L 11.09 36.47 L 10.9 36.69 C 10.49 37.16 10.26 37.77 10.26 38.4 C 10.26 38.41 10.26 38.42 10.26 38.43 L 10.27 38.56 C 10.27 38.57 10.27 38.57 10.27 38.58 C 10.32 39.28 10.64 39.92 11.17 40.37 L 11.268 40.458 Q 9.182 42.682 9.436 43.951 C 9.69 45.225 10.263 45.798 11.282 45.798 C 12.301 45.798 12.938 44.905 13.129 43.951 Q 13.316 43.016 11.36 40.541 Z  M 37.832 13.826 L 41.49 9.6 C 41.69 9.35 41.84 9.07 41.94 8.76 C 42.07 8.45 42.13 8.12 42.14 7.78 L 42.14 7.71 C 42.13 7.38 42.08 7.05 42.02 6.73 C 41.97 6.51 41.91 6.29 41.82 6.08 C 41.75 5.9 41.65 5.73 41.54 5.57 C 41.45 5.45 41.35 5.33 41.23 5.23 C 41.12 5.13 41 5.05 40.87 4.98 C 40.71 4.9 40.54 4.83 40.37 4.78 C 40.15 4.72 39.92 4.68 39.68 4.67 C 39.33 4.64 38.98 4.65 38.63 4.68 C 37.95 4.75 37.33 5.07 36.88 5.59 L 33.214 9.823 L 33.214 9.823 L 33.5 10.07 C 33.5 10.07 33.5 10.07 33.5 10.07 C 33.8 10.33 33.97 10.71 33.97 11.11 C 33.97 11.44 33.85 11.76 33.64 12.01 C 33.38 12.31 33 12.48 32.6 12.48 C 32.27 12.48 31.95 12.36 31.7 12.15 L 29.13 9.92 L 28.75 10.35 L 38.26 18.58 L 38.64 18.15 L 34.06 14.19 C 34.06 14.19 34.06 14.19 34.06 14.19 C 33.76 13.93 33.59 13.55 33.59 13.15 C 33.59 12.82 33.71 12.5 33.92 12.26 C 34.19 11.96 34.56 11.78 34.96 11.78 C 35.29 11.78 35.61 11.9 35.86 12.12 L 37.832 13.826 L 37.832 13.826 Z  M 22.568 31.647 L 17.05 38.01 L 16.47 37.51 C 16.11 37.2 15.65 37.02 15.17 37.02 C 14.59 37.02 14.04 37.27 13.66 37.71 C 13.66 37.71 13.66 37.71 13.66 37.71 L 13.07 38.4 L 13.07 38.4 L 13.06 38.39 L 13.65 37.7 C 13.96 37.34 14.14 36.88 14.14 36.4 C 14.14 35.82 13.89 35.27 13.45 34.89 C 13.45 34.89 13.45 34.89 13.45 34.89 L 12.87 34.39 L 15.846 30.954 L 22.568 31.647 L 22.568 31.647 Z " fill-rule="evenodd" fill="url(#_lgradient_1)"/></svg>