<?xml version="1.0" encoding="UTF-8" standalone="no"?><!-- Generator: Gravit.io --><svg xmlns="http://www.w3.org/2000/svg" xmlns:xlink="http://www.w3.org/1999/xlink" style="isolation:isolate" viewBox="0 0 48 48" width="48pt" height="48pt"><linearGradient id="_lgradient_27" x1="0" y1="0.5" x2="1" y2="0.5" gradientTransform="matrix(42.5,0,0,33.393,2.75,6.545)" gradientUnits="userSpaceOnUse"><stop offset="0%" stop-opacity="1" style="stop-color:rgb(175,104,229)"/><stop offset="98.26086956521739%" stop-opacity="1" style="stop-color:rgb(250,172,128)"/></linearGradient><path d=" M 39.179 24.759 L 42.214 24.759 L 42.214 39.938 L 17.929 39.938 L 17.929 39.938 L 17.929 24.759 L 30.071 24.759 L 30.071 39.938 L 5.786 39.938 L 5.786 39.938 L 5.786 24.759 L 8.821 24.759 L 8.821 24.759 L 39.179 24.759 Z  M 36.143 24.759 L 33.107 24.759 L 33.107 39.938 L 2.75 39.938 L 2.75 39.938 L 2.75 21.723 L 8.821 21.723 L 8.821 6.545 L 39.179 6.545 L 39.179 21.723 L 45.25 21.723 L 45.25 39.938 L 14.893 39.938 L 14.893 39.938 L 14.893 24.759 L 11.857 24.759 L 11.857 24.759 L 36.143 24.759 Z  M 11.857 21.723 L 14.893 21.723 L 33.107 21.723 L 36.143 21.723 L 36.143 9.58 L 11.857 9.58 L 11.857 21.723 Z " fill-rule="evenodd" fill="url(#_lgradient_27)"/><linearGradient id="_lgradient_28" x1="0.06818181818176848" y1="0.2329545454545455" x2="0.9384302091713563" y2="0.7793895816572807" gradientTransform="matrix(42.5,0,0,37.946,2.75,5.027)" gradientUnits="userSpaceOnUse"><stop offset="0%" stop-opacity="1" style="stop-color:rgb(48,207,208)"/><stop offset="98.26086956521739%" stop-opacity="1" style="stop-color:rgb(51,8,103)"/></linearGradient><path d=" M 2.75 33.866 L 8.821 33.866 L 8.821 42.973 L 2.75 42.973 L 2.75 33.866 L 2.75 33.866 L 2.75 33.866 L 2.75 33.866 L 2.75 33.866 L 2.75 33.866 Z  M 14.893 33.866 L 20.964 33.866 L 20.964 42.973 L 14.893 42.973 L 14.893 33.866 L 14.893 33.866 L 14.893 33.866 L 14.893 33.866 L 14.893 33.866 L 14.893 33.866 Z  M 27.036 33.866 L 33.107 33.866 L 33.107 42.973 L 27.036 42.973 L 27.036 33.866 L 27.036 33.866 L 27.036 33.866 L 27.036 33.866 L 27.036 33.866 Z  M 20.964 5.027 L 27.036 5.027 L 27.036 14.134 L 20.964 14.134 L 20.964 5.027 L 20.964 5.027 L 20.964 5.027 L 20.964 5.027 Z  M 8.821 20.205 L 14.893 20.205 L 14.893 29.313 L 8.821 29.313 L 8.821 20.205 L 8.821 20.205 L 8.821 20.205 Z  M 33.107 20.205 L 39.179 20.205 L 39.179 29.313 L 33.107 29.313 L 33.107 20.205 L 33.107 20.205 Z  M 39.179 33.866 L 45.25 33.866 L 45.25 42.973 L 39.179 42.973 L 39.179 33.866 Z " fill-rule="evenodd" fill="url(#_lgradient_28)"/></svg>