<?xml version="1.0" encoding="UTF-8" standalone="no"?><!-- Generator: Gravit.io --><svg xmlns="http://www.w3.org/2000/svg" xmlns:xlink="http://www.w3.org/1999/xlink" style="isolation:isolate" viewBox="0 0 48 48" width="48pt" height="48pt"><linearGradient id="_lgradient_2" x1="0" y1="0.5" x2="1" y2="0.5" gradientTransform="matrix(45.953,0,0,38.048,1.048,4.184)" gradientUnits="userSpaceOnUse"><stop offset="2.608695652173913%" stop-opacity="1" style="stop-color:rgb(198,255,221)"/><stop offset="51.73913043478261%" stop-opacity="1" style="stop-color:rgb(251,215,134)"/><stop offset="99.1304347826087%" stop-opacity="1" style="stop-color:rgb(247,121,125)"/></linearGradient><path d=" M 16.563 4.246 C 16.356 4.18 16.13 4.17 15.9 4.2 L 15.9 4.2 C 14.64 4.36 13.39 4.62 12.18 4.99 C 11.24 5.27 10.34 5.68 9.51 6.21 C 8.82 6.66 8.2 7.22 7.68 7.85 C 7.25 8.39 6.85 8.94 6.48 9.52 C 6.23 9.89 5.98 10.26 5.72 10.63 C 4.12 13.25 2.93 16.1 2.19 19.08 C 1.4 22.3 1.02 25.61 1.05 28.92 C 1.05 31.5 1.24 34.07 1.6 36.62 C 2.31 37.48 3.06 38.32 3.84 39.12 C 4.44 39.73 5.09 40.29 5.8 40.77 C 6.53 41.26 7.33 41.64 8.17 41.88 C 9.08 42.13 10.01 42.25 10.94 42.23 C 11.81 42.23 12.68 42.15 13.53 42.02 C 14.57 41.86 15.59 41.66 16.61 41.42 C 17.19 41.29 17.67 40.9 17.94 40.37 L 19.79 36.67 L 20.195 35.856 C 21.248 35.957 22.308 36.005 23.371 36 C 24.847 35.993 26.322 35.903 27.787 35.73 L 27.787 35.73 L 27.787 35.73 L 27.787 35.73 L 28.26 36.67 L 30.11 40.37 C 30.37 40.9 30.86 41.29 31.43 41.42 C 32.45 41.66 33.48 41.86 34.51 42.02 C 35.37 42.15 36.24 42.23 37.11 42.23 C 38.04 42.25 38.97 42.13 39.87 41.88 C 40.72 41.64 41.52 41.26 42.25 40.77 C 42.95 40.29 43.61 39.73 44.21 39.12 C 44.99 38.32 45.74 37.48 46.45 36.62 C 46.81 34.07 46.99 31.5 47 28.92 C 47.03 25.61 46.64 22.3 45.86 19.08 C 45.12 16.1 43.93 13.25 42.33 10.63 C 42.07 10.26 41.81 9.89 41.57 9.52 C 41.2 8.94 40.8 8.39 40.37 7.85 C 39.84 7.22 39.22 6.66 38.54 6.21 C 37.71 5.68 36.81 5.27 35.87 4.99 C 34.65 4.62 32.41 4.36 31.15 4.2 L 31.15 4.2 C 30.915 4.169 30.684 4.181 30.473 4.25 L 30.473 4.25 C 29.38 4.126 28.444 4.505 28.14 5.26 L 28.14 5.26 L 26.558 9.216 C 25.498 9.126 24.434 9.08 23.371 9.08 C 22.389 9.075 21.41 9.115 20.436 9.2 L 18.86 5.26 L 18.86 5.26 C 18.559 4.514 17.64 4.134 16.563 4.246 Z  M 15.749 8.263 C 14.93 8.395 14.119 8.583 13.32 8.82 C 12.75 8.99 12.2 9.24 11.69 9.56 C 11.35 9.79 11.04 10.07 10.77 10.39 C 10.44 10.8 10.12 11.24 9.84 11.69 C 9.58 12.08 9.32 12.46 9.06 12.83 C 7.71 15.07 6.7 17.5 6.08 20.03 C 5.37 22.94 5.02 25.91 5.05 28.9 C 5.05 30.92 5.17 32.93 5.41 34.93 C 5.83 35.41 6.26 35.88 6.71 36.33 C 7.12 36.75 7.56 37.13 8.05 37.46 C 8.42 37.71 8.83 37.9 9.26 38.03 C 9.79 38.17 10.34 38.24 10.9 38.23 C 11.58 38.23 12.25 38.17 12.93 38.07 C 13.55 37.97 14.17 37.86 14.79 37.73 L 16.06 35.182 L 16.06 35.182 C 14.681 34.862 13.322 34.451 11.991 33.95 L 11.991 33.95 C 10.958 33.558 10.439 32.402 10.831 31.37 L 10.831 31.37 C 11.222 30.338 12.378 29.818 13.411 30.21 L 13.411 30.21 C 16.581 31.41 19.961 32.02 23.351 32 C 25.191 32 27.031 31.84 28.851 31.55 C 30.831 31.22 32.791 30.76 34.711 30.17 L 34.711 30.17 C 35.765 29.844 36.885 30.436 37.211 31.49 L 37.211 31.49 C 37.536 32.544 36.945 33.664 35.891 33.99 L 35.891 33.99 C 34.584 34.396 33.257 34.744 31.916 35.033 L 33.26 37.73 C 33.88 37.86 34.5 37.97 35.12 38.07 C 35.79 38.17 36.47 38.23 37.15 38.23 C 37.7 38.24 38.26 38.17 38.79 38.03 C 39.22 37.9 39.63 37.71 40 37.46 C 40.48 37.13 40.93 36.75 41.34 36.33 C 41.78 35.88 42.21 35.41 42.63 34.93 C 42.87 32.93 42.99 30.92 43 28.9 C 43.02 25.91 42.68 22.94 41.97 20.03 C 41.34 17.5 40.34 15.07 38.99 12.83 C 38.72 12.46 38.46 12.08 38.21 11.69 C 37.92 11.24 37.61 10.8 37.27 10.39 C 37.01 10.07 36.7 9.79 36.36 9.56 C 35.85 9.24 35.3 8.99 34.72 8.82 C 33.892 8.572 32.357 8.378 31.258 8.245 L 30.642 9.785 C 32.418 10.122 34.171 10.555 35.891 11.09 L 35.891 11.09 C 36.945 11.416 37.536 12.536 37.211 13.59 L 37.211 13.59 C 36.885 14.644 35.765 15.236 34.711 14.91 L 34.711 14.91 C 32.878 14.347 31.008 13.902 29.12 13.576 L 29.11 13.6 L 28.997 13.555 C 28.948 13.546 28.899 13.538 28.851 13.53 C 27.031 13.23 25.191 13.08 23.351 13.08 C 21.526 13.069 19.705 13.241 17.918 13.589 L 17.89 13.6 L 17.888 13.595 C 16.364 13.893 14.865 14.319 13.411 14.87 L 13.411 14.87 L 13.411 14.87 L 13.411 14.87 L 13.411 14.87 C 12.378 15.262 11.222 14.742 10.831 13.71 L 10.831 13.71 C 10.439 12.678 10.958 11.522 11.991 11.13 L 11.991 11.13 C 13.422 10.587 14.887 10.151 16.373 9.823 L 15.749 8.263 Z  M 15.838 23.04 C 15.838 21.108 17.406 19.54 19.338 19.54 C 21.27 19.54 22.838 21.108 22.838 23.04 C 22.838 24.972 21.27 26.54 19.338 26.54 C 17.406 26.54 15.838 24.972 15.838 23.04 L 15.838 23.04 L 15.838 23.04 L 15.838 23.04 Z  M 25.162 23.04 C 25.162 21.108 26.73 19.54 28.662 19.54 C 30.594 19.54 32.162 21.108 32.162 23.04 C 32.162 24.972 30.594 26.54 28.662 26.54 C 26.73 26.54 25.162 24.972 25.162 23.04 L 25.162 23.04 L 25.162 23.04 Z " fill-rule="evenodd" fill="url(#_lgradient_2)"/></svg>