<?xml version="1.0" encoding="UTF-8" standalone="no"?><!-- Generator: Gravit.io --><svg xmlns="http://www.w3.org/2000/svg" xmlns:xlink="http://www.w3.org/1999/xlink" style="isolation:isolate" viewBox="0 0 48 48" width="48pt" height="48pt"><linearGradient id="_lgradient_38" x1="0" y1="0.5" x2="1" y2="0.5" gradientTransform="matrix(28.32,0,0,20.591,10.679,12.967)" gradientUnits="userSpaceOnUse"><stop offset="0%" stop-opacity="1" style="stop-color:rgb(255,224,49)"/><stop offset="98.69565217391305%" stop-opacity="1" style="stop-color:rgb(252,82,82)"/></linearGradient><path d=" M 20.872 31.823 C 19.812 31.415 15.371 30.419 13.657 29.386 C 10.83 27.683 10.757 26.196 10.757 26.196 C 10.757 26.196 9.05 14.589 21.577 12.994 C 24.649 12.814 26.833 13.514 28.542 15.228 C 30.913 17.607 32.465 20.897 31.95 24.333 C 31.602 26.66 31.125 27.397 31.664 27.802 C 32.099 28.129 32.166 28.134 32.673 27.872 C 33.748 27.316 34.06 26.432 34.058 24.532 C 34.057 23.59 33.978 22.638 33.881 21.805 C 33.723 20.448 33.739 20.244 34.032 19.845 C 35.088 18.405 36.73 18.944 37.803 21.084 C 39.736 24.936 39.309 28.293 36.642 31.089 C 35.556 32.228 33.839 33.142 32.45 33.401 C 26.553 33.764 25.024 33.593 20.872 31.823" fill="url(#_lgradient_38)"/><linearGradient id="_lgradient_39" x1="0.5500001422856684" y1="0.0833333332596331" x2="0.49888888572698487" y2="1.0203703703720084" gradientTransform="matrix(10,0,0,15,10,18)" gradientUnits="userSpaceOnUse"><stop offset="0%" stop-opacity="1" style="stop-color:rgb(247,242,6)"/><stop offset="97.82608695652173%" stop-opacity="1" style="stop-color:rgb(255,187,36)"/></linearGradient><path d=" M 17.248 32.644 C 18.008 32.34 19.35 31.176 19.705 30.516 C 20.099 29.781 20.098 21.944 19.703 20.867 C 19.02 19.002 17.412 18 15.101 18 C 13.894 18 13.648 18.062 12.921 18.554 C 10.858 19.949 10 22.018 10 25.596 C 10 27.462 10.079 28.128 10.429 29.2 C 10.904 30.655 11.781 31.9 12.693 32.413 C 13.907 33.096 15.873 33.196 17.248 32.644 Z " fill="url(#_lgradient_39)"/><linearGradient id="_lgradient_40" x1="0" y1="0.5" x2="1" y2="0.5" gradientTransform="matrix(8,0,0,5,24,30)" gradientUnits="userSpaceOnUse"><stop offset="0%" stop-opacity="1" style="stop-color:rgb(178,254,250)"/><stop offset="98.26086956521739%" stop-opacity="1" style="stop-color:rgb(14,210,247)"/></linearGradient><path d=" M 30.33 34.482 C 31.456 33.942 32.066 33.056 31.994 32.065 C 31.914 30.961 31.452 30.818 29.607 31.329 C 28.005 31.773 27.967 31.765 26.556 30.72 C 26.12 30.396 25.627 30.086 25.461 30.03 C 24.729 29.783 23.914 31.113 24.007 32.402 C 24.064 33.191 25.373 34.494 26.436 34.82 C 27.531 35.156 29.232 35.009 30.33 34.482 Z " fill="url(#_lgradient_40)"/><linearGradient id="_lgradient_41" x1="0.5757686770476378" y1="0.38670359678755284" x2="0.12794859489947474" y2="0.7917820853291071" gradientTransform="matrix(48,0,0,48,0,0)" gradientUnits="userSpaceOnUse"><stop offset="0%" stop-opacity="1" style="stop-color:rgb(211,0,220)"/><stop offset="100%" stop-opacity="1" style="stop-color:rgb(135,0,255)"/></linearGradient><path d=" M 33.886 41.178 L 33.886 41.178 C 34.885 40.607 36.165 40.953 36.742 41.949 L 36.742 41.949 C 37.319 42.945 36.976 44.223 35.976 44.799 L 35.976 44.799 C 32.089 47.037 27.656 48.139 23.182 47.986 C 19.125 47.848 15.166 46.679 11.677 44.597 L 11.677 44.597 C 10.689 44.005 10.368 42.721 10.96 41.733 L 10.96 41.733 C 11.553 40.745 12.836 40.424 13.825 41.016 L 13.825 41.016 C 16.7 42.743 19.966 43.7 23.324 43.815 C 27.027 43.941 30.68 43.032 33.886 41.178 L 33.886 41.178 L 33.886 41.178 L 33.886 41.178 L 33.886 41.178 L 33.886 41.178 L 33.886 41.178 Z  M 41.748 15.156 L 41.748 15.156 C 41.23 14.124 41.647 12.868 42.679 12.353 L 42.679 12.353 C 43.711 11.838 44.964 12.257 45.477 13.289 L 45.477 13.289 C 47.265 16.858 48.122 20.824 47.986 24.818 C 47.882 27.863 47.206 30.857 45.983 33.635 L 45.983 33.635 C 45.521 34.691 44.288 35.173 43.232 34.71 L 43.232 34.71 C 42.176 34.248 41.694 33.015 42.157 31.959 L 42.157 31.959 C 43.175 29.665 43.729 27.189 43.814 24.676 C 43.927 21.38 43.214 18.109 41.748 15.156 L 41.748 15.156 L 41.748 15.156 L 41.748 15.156 L 41.748 15.156 L 41.748 15.156 L 41.748 15.156 Z  M 15.411 6.135 L 15.411 6.135 C 14.374 6.63 13.126 6.19 12.625 5.153 L 12.625 5.153 C 12.125 4.116 12.56 2.867 13.597 2.367 L 13.597 2.367 C 17.089 0.69 20.938 -0.118 24.818 0.014 C 28.551 0.141 32.214 1.133 35.493 2.926 L 35.493 2.926 C 36.506 3.479 36.879 4.75 36.326 5.763 L 36.326 5.763 C 35.773 6.775 34.502 7.148 33.489 6.595 L 33.489 6.595 C 30.783 5.114 27.762 4.291 24.676 4.185 C 21.474 4.076 18.298 4.741 15.411 6.135 L 15.411 6.135 L 15.411 6.135 L 15.411 6.135 L 15.411 6.135 L 15.411 6.135 Z  M 5.19 30.291 L 5.19 30.291 C 5.557 31.381 4.967 32.564 3.874 32.93 L 3.874 32.93 C 2.781 33.296 1.596 32.703 1.23 31.608 L 1.23 31.608 C 0.331 28.894 -0.083 26.04 0.014 23.182 C 0.143 19.407 1.156 15.704 2.992 12.394 L 2.992 12.394 C 3.545 11.387 4.813 11.023 5.823 11.582 L 5.823 11.582 C 6.833 12.141 7.199 13.412 6.64 14.419 L 6.64 14.419 C 5.127 17.155 4.292 20.206 4.185 23.324 C 4.105 25.692 4.442 28.042 5.19 30.291 L 5.19 30.291 L 5.19 30.291 L 5.19 30.291 L 5.19 30.291 Z  M 41.964 8.836 C 41.924 9.988 40.958 10.89 39.807 10.851 C 38.656 10.812 37.753 9.845 37.792 8.694 C 37.831 7.543 38.798 6.64 39.949 6.68 C 41.1 6.719 42.003 7.685 41.964 8.836 L 41.964 8.836 L 41.964 8.836 L 41.964 8.836 Z  M 9.362 37.763 C 9.323 38.914 8.357 39.817 7.206 39.778 C 6.054 39.738 5.152 38.772 5.191 37.621 C 5.23 36.47 6.197 35.567 7.348 35.606 C 8.499 35.645 9.402 36.612 9.362 37.763 L 9.362 37.763 L 9.362 37.763 Z  M 42.771 38.902 C 42.81 37.751 41.907 36.785 40.756 36.745 C 39.605 36.706 38.639 37.609 38.599 38.76 C 38.56 39.911 39.463 40.878 40.614 40.917 C 41.765 40.956 42.732 40.053 42.771 38.902 L 42.771 38.902 Z  M 10.865 7.776 C 10.904 6.625 10.002 5.658 8.851 5.619 C 7.699 5.58 6.733 6.483 6.694 7.634 C 6.654 8.785 7.557 9.751 8.708 9.791 C 9.86 9.83 10.826 8.927 10.865 7.776 Z " fill-rule="evenodd" fill="url(#_lgradient_41)"/><path d=" M 25.02 23.92 L 25.02 23.92 C 24.799 24.08 24.486 24.031 24.32 23.81 L 24.32 23.81 C 24.154 23.589 24.199 23.276 24.42 23.11 L 24.42 23.11 C 25.14 22.58 26 22.28 26.9 22.25 C 27.7 22.27 28.48 22.53 29.13 23 L 29.13 23 C 29.351 23.166 29.398 23.479 29.235 23.7 L 29.235 23.7 C 29.072 23.921 28.756 23.97 28.53 23.81 L 28.53 23.81 C 28.06 23.46 27.49 23.27 26.9 23.25 C 26.22 23.28 25.57 23.51 25.02 23.92 Z " fill="rgb(0,0,0)"/></svg>