<?xml version="1.0" encoding="UTF-8" standalone="no"?><!-- Generator: Gravit.io --><svg xmlns="http://www.w3.org/2000/svg" xmlns:xlink="http://www.w3.org/1999/xlink" style="isolation:isolate" viewBox="0 0 48 48" width="48pt" height="48pt"><linearGradient id="_lgradient_4" x1="-0.014458464773922156" y1="0.009839246119734024" x2="1.0164565923220248" y2="1.0722930524759795" gradientTransform="matrix(46.478,0,0,47,0.761,0.5)" gradientUnits="userSpaceOnUse"><stop offset="0%" stop-opacity="1" style="stop-color:rgb(249,212,35)"/><stop offset="51.56237565086822%" stop-opacity="1" style="stop-color:rgb(255,78,80)"/><stop offset="99.1304347826087%" stop-opacity="1" style="stop-color:rgb(138,35,135)"/></linearGradient><path d=" M 29.483 23.178 L 29.483 27.134 L 33.438 27.134 L 43.427 17.145 L 39.472 13.19 L 29.483 23.178 L 29.483 23.178 L 29.483 23.178 L 29.483 23.178 Z  M 46.925 13.659 C 47.343 13.241 47.343 12.582 46.925 12.163 L 44.453 9.692 C 44.035 9.273 43.376 9.273 42.958 9.692 L 40.892 11.77 L 44.846 15.725 L 46.925 13.659 L 46.925 13.659 L 46.925 13.659 L 46.925 13.659 Z  M 38.361 27.133 L 38.361 25.567 L 41.494 25.567 L 41.494 27.133 L 41.494 43.322 C 41.494 45.628 39.622 47.5 37.317 47.5 L 4.939 47.5 C 2.633 47.5 0.761 45.628 0.761 43.322 L 0.761 4.678 C 0.761 2.372 2.633 0.5 4.939 0.5 L 37.317 0.5 C 39.622 0.5 41.494 2.372 41.494 4.678 L 41.494 7.289 L 41.494 8.856 L 38.361 8.856 L 38.361 7.289 L 38.361 5.722 C 38.361 4.569 37.425 3.633 36.272 3.633 L 5.983 3.633 C 4.83 3.633 3.894 4.569 3.894 5.722 L 3.894 42.278 C 3.894 43.431 4.83 44.367 5.983 44.367 L 36.272 44.367 C 37.425 44.367 38.361 43.431 38.361 42.278 L 38.361 27.133 L 38.361 27.133 L 38.361 27.133 Z  M 25.306 5.2 L 25.306 5.2 C 26.17 5.2 26.872 5.902 26.872 6.767 L 26.872 6.767 C 26.872 7.631 26.17 8.333 25.306 8.333 L 25.306 8.333 L 16.95 8.333 L 16.95 8.333 C 16.085 8.333 15.383 7.631 15.383 6.767 L 15.383 6.767 C 15.383 5.902 16.085 5.2 16.95 5.2 L 16.95 5.2 L 25.306 5.2 L 25.306 5.2 Z  M 19.039 41.756 C 19.039 40.603 19.975 39.667 21.128 39.667 C 22.281 39.667 23.217 40.603 23.217 41.756 C 23.217 42.908 22.281 43.844 21.128 43.844 C 19.975 43.844 19.039 42.908 19.039 41.756 Z " fill-rule="evenodd" fill="url(#_lgradient_4)"/></svg>