<?xml version="1.0" encoding="UTF-8" standalone="no"?><!-- Generator: Gravit.io --><svg xmlns="http://www.w3.org/2000/svg" xmlns:xlink="http://www.w3.org/1999/xlink" style="isolation:isolate" viewBox="0 0 48 48" width="48pt" height="48pt"><linearGradient id="_lgradient_19" x1="0" y1="0.5" x2="1" y2="0.5" gradientTransform="matrix(48.001,0,0,48.001,0.097,-0.034)" gradientUnits="userSpaceOnUse"><stop offset="0%" stop-opacity="1" style="stop-color:rgb(71,118,230)"/><stop offset="98.26086956521739%" stop-opacity="1" style="stop-color:rgb(142,84,233)"/></linearGradient><path d=" M 33.01 14.636 C 35.544 17.078 36.976 20.456 36.976 23.985 C 36.976 27.423 35.604 30.741 33.176 33.168 C 30.733 35.611 27.431 36.984 23.992 36.984 C 20.464 36.984 17.086 35.536 14.643 33.003 C 14.93 33.018 15.216 33.033 15.518 33.033 C 20.162 33.033 24.611 31.178 27.898 27.891 C 31.185 24.618 33.025 20.155 33.025 15.51 C 33.025 15.224 33.025 14.937 33.01 14.636 L 33.01 14.636 Z  M 24.852 6.492 C 29.346 6.719 33.583 8.664 36.674 11.921 C 39.766 15.163 41.5 19.491 41.5 23.985 C 41.5 28.629 39.66 33.093 36.373 36.365 C 33.086 39.653 28.622 41.508 23.992 41.508 C 19.499 41.492 15.171 39.773 11.914 36.682 C 8.656 33.576 6.726 29.353 6.5 24.86 C 8.913 27.197 12.155 28.509 15.518 28.509 C 18.956 28.509 22.258 27.137 24.701 24.694 C 27.129 22.266 28.501 18.963 28.501 15.51 C 28.501 12.147 27.189 8.92 24.852 6.492 L 24.852 6.492 Z  M 32.425 42.154 L 32.425 42.154 C 33.429 41.695 34.616 42.138 35.074 43.141 L 35.074 43.141 C 35.533 44.144 35.091 45.331 34.087 45.79 L 34.087 45.79 C 29.286 47.989 23.886 48.54 18.741 47.362 C 13.596 46.183 8.983 43.343 5.615 39.277 C 1.557 34.38 -0.393 28.061 0.201 21.725 C 0.795 15.389 3.886 9.542 8.784 5.485 C 13.681 1.427 20 -0.523 26.336 0.071 C 32.673 0.665 38.519 3.756 42.577 8.654 C 45.932 12.704 47.86 17.743 48.079 22.99 C 48.289 28.244 46.774 33.421 43.763 37.734 L 43.763 37.734 C 43.129 38.639 41.88 38.859 40.975 38.226 L 40.975 38.226 C 40.07 37.592 39.85 36.343 40.484 35.438 L 40.484 35.438 C 42.993 31.853 44.258 27.532 44.086 23.155 C 43.9 18.777 42.291 14.578 39.496 11.206 C 36.115 7.124 31.243 4.551 25.963 4.056 C 20.683 3.561 15.417 5.183 11.336 8.565 C 7.255 11.946 4.681 16.818 4.186 22.098 C 3.691 27.379 5.314 32.644 8.695 36.725 C 11.502 40.114 15.349 42.484 19.64 43.462 C 23.922 44.446 28.425 43.987 32.425 42.154 Z " fill-rule="evenodd" fill="url(#_lgradient_19)"/></svg>