<?xml version="1.0" encoding="UTF-8" standalone="no"?><!-- Generator: Gravit.io --><svg xmlns="http://www.w3.org/2000/svg" xmlns:xlink="http://www.w3.org/1999/xlink" style="isolation:isolate" viewBox="0 0 64 64" width="64pt" height="64pt"><linearGradient id="_lgradient_0" x1="0" y1="0.5" x2="1" y2="0.5" gradientTransform="matrix(57.444,0,0,47,3.278,8.5)" gradientUnits="userSpaceOnUse"><stop offset="0%" stop-opacity="1" style="stop-color:rgb(255,117,140)"/><stop offset="98.26086956521739%" stop-opacity="1" style="stop-color:rgb(255,126,179)"/></linearGradient><path d=" M 55.5 29.389 L 55.5 29.389 C 55.5 27.948 56.67 26.778 58.111 26.778 L 58.111 26.778 C 59.552 26.778 60.722 27.948 60.722 29.389 L 60.722 29.389 L 60.722 48.972 C 60.722 52.575 57.797 55.5 54.194 55.5 L 9.806 55.5 C 6.203 55.5 3.278 52.575 3.278 48.972 L 3.278 29.389 L 3.278 29.389 C 3.278 27.948 4.448 26.778 5.889 26.778 L 5.889 26.778 C 7.33 26.778 8.5 27.948 8.5 29.389 L 8.5 29.389 L 8.5 46.361 C 8.5 48.523 10.255 50.278 12.417 50.278 L 51.583 50.278 C 53.745 50.278 55.5 48.523 55.5 46.361 L 55.5 29.389 Z  M 5.889 8.5 L 58.111 8.5 C 59.552 8.5 60.722 9.67 60.722 11.111 L 60.722 17.691 C 60.722 19.132 59.825 21.053 58.719 21.977 L 37.007 40.137 C 34.244 42.448 29.756 42.448 26.993 40.137 L 5.281 21.977 C 4.175 21.053 3.278 19.132 3.278 17.691 L 3.278 11.111 C 3.278 9.67 4.448 8.5 5.889 8.5 Z  M 9.806 13.722 L 54.194 13.722 C 54.915 13.722 55.5 14.307 55.5 15.028 L 55.5 16.281 C 55.5 17.002 55.058 17.97 54.513 18.442 L 34.96 35.388 C 33.326 36.804 30.674 36.804 29.04 35.388 L 9.487 18.442 C 8.942 17.97 8.5 17.002 8.5 16.281 L 8.5 15.028 C 8.5 14.307 9.085 13.722 9.806 13.722 Z " fill-rule="evenodd" fill="url(#_lgradient_0)"/></svg>