<?xml version="1.0" encoding="UTF-8" standalone="no"?><!-- Generator: Gravit.io --><svg xmlns="http://www.w3.org/2000/svg" xmlns:xlink="http://www.w3.org/1999/xlink" style="isolation:isolate" viewBox="0 0 48 48" width="48pt" height="48pt"><linearGradient id="_lgradient_3" x1="0" y1="0.5" x2="1" y2="0.5" gradientTransform="matrix(44,0,0,44,2,2)" gradientUnits="userSpaceOnUse"><stop offset="0%" stop-opacity="1" style="stop-color:rgb(255,153,102)"/><stop offset="98.26086956521739%" stop-opacity="1" style="stop-color:rgb(255,94,98)"/></linearGradient><path d=" M 41.999 25.34 L 41.999 25.34 C 42.082 24.242 43.045 23.415 44.147 23.495 L 44.147 23.495 C 45.249 23.575 46.077 24.536 45.994 25.64 L 45.994 25.64 C 45.584 31.17 43.091 36.35 39.016 40.13 C 34.941 43.9 29.584 46 24.027 46 C 18.19 46 12.583 43.68 8.448 39.56 C 4.323 35.43 2 29.83 2 24 C 2 18.17 4.323 12.57 8.448 8.44 C 12.583 4.32 18.19 2 24.027 2 L 24.027 2 C 25.132 2 26.03 2.896 26.03 4 L 26.03 4 C 26.03 5.104 25.132 6 24.027 6 L 24.027 6 C 19.251 6 14.666 7.9 11.281 11.27 C 7.907 14.65 6.005 19.23 6.005 24 C 6.005 28.77 7.907 33.35 11.281 36.73 C 14.666 40.1 19.251 42 24.027 42 C 28.573 42 32.958 40.29 36.292 37.2 C 39.626 34.11 41.659 29.87 41.999 25.34 L 41.999 25.34 L 41.999 25.34 L 41.999 25.34 L 41.999 25.34 L 41.999 25.34 L 41.999 25.34 L 41.999 25.34 L 41.999 25.34 Z  M 32.408 8.06 L 32.408 8.06 C 31.429 7.547 31.053 6.337 31.566 5.36 L 31.566 5.36 C 32.08 4.383 33.292 4.007 34.27 4.52 L 34.27 4.52 C 38.435 6.71 41.799 10.18 43.852 14.41 L 43.852 14.41 C 44.338 15.403 43.925 16.602 42.93 17.085 L 42.93 17.085 C 41.936 17.568 40.733 17.153 40.247 16.16 L 40.247 16.16 C 38.565 12.69 35.822 9.86 32.408 8.06 L 32.408 8.06 L 32.408 8.06 L 32.408 8.06 L 32.408 8.06 L 32.408 8.06 L 32.408 8.06 L 32.408 8.06 L 32.408 8.06 Z  M 20.326 30.654 C 20.326 30.654 19.256 31.276 21.088 31.486 C 23.306 31.739 24.44 31.703 26.885 31.241 C 26.885 31.241 27.529 31.644 28.427 31.993 C 22.945 34.341 16.02 31.857 20.325 30.654 L 20.326 30.654 L 20.326 30.654 L 20.326 30.654 L 20.326 30.654 L 20.326 30.654 L 20.326 30.654 L 20.326 30.654 L 20.326 30.654 Z  M 19.655 27.588 C 19.655 27.588 18.456 28.477 20.288 28.666 C 22.659 28.911 24.53 28.931 27.77 28.307 C 27.77 28.307 28.217 28.761 28.921 29.01 C 22.294 30.948 14.914 29.162 19.655 27.588 L 19.655 27.588 L 19.655 27.588 L 19.655 27.588 L 19.655 27.588 L 19.655 27.588 L 19.655 27.588 L 19.655 27.588 Z  M 25.302 22.388 C 26.653 23.943 24.947 25.342 24.947 25.342 C 24.947 25.342 28.377 23.572 26.802 21.354 C 25.331 19.287 24.203 18.26 30.309 14.719 C 30.309 14.719 20.724 17.112 25.302 22.388 L 25.302 22.388 L 25.302 22.388 L 25.302 22.388 L 25.302 22.388 L 25.302 22.388 L 25.302 22.388 Z  M 32.552 32.921 C 32.552 32.921 33.343 33.574 31.68 34.078 C 28.516 35.037 18.511 35.326 15.732 34.117 C 14.734 33.682 16.607 33.079 17.196 32.952 C 17.81 32.819 18.161 32.843 18.161 32.843 C 17.05 32.061 10.98 34.38 15.078 35.045 C 26.254 36.856 35.45 34.229 32.551 32.921 L 32.552 32.921 L 32.552 32.921 L 32.552 32.921 L 32.552 32.921 L 32.552 32.921 Z  M 20.84 24.412 C 20.84 24.412 15.751 25.621 19.038 26.06 C 20.426 26.246 23.192 26.203 25.77 25.987 C 27.876 25.81 29.99 25.432 29.99 25.432 C 29.99 25.432 29.248 25.751 28.711 26.117 C 23.542 27.477 13.559 26.844 16.434 25.454 C 18.863 24.278 20.84 24.412 20.84 24.412 L 20.84 24.412 L 20.84 24.412 L 20.84 24.412 L 20.84 24.412 Z  M 29.969 29.514 C 35.223 26.785 32.793 24.162 31.098 24.515 C 30.683 24.602 30.497 24.676 30.497 24.676 C 30.497 24.676 30.652 24.434 30.946 24.33 C 34.3 23.152 36.879 27.808 29.864 29.652 C 29.864 29.652 29.945 29.579 29.969 29.514 L 29.969 29.514 L 29.969 29.514 L 29.969 29.514 Z  M 26.802 9 C 26.802 9 29.711 11.91 24.042 16.385 C 19.497 19.975 23.006 22.022 24.041 24.361 C 21.387 21.967 19.441 19.859 20.746 17.898 C 22.663 15.019 27.976 13.623 26.802 9 L 26.802 9 L 26.802 9 Z  M 21.356 36.912 C 26.398 37.235 34.142 36.733 34.326 34.347 C 34.326 34.347 33.973 35.251 30.159 35.969 C 25.855 36.779 20.546 36.685 17.398 36.165 C 17.398 36.165 18.043 36.699 21.356 36.912 L 21.356 36.912 Z " fill-rule="evenodd" fill="url(#_lgradient_3)"/></svg>