<?xml version="1.0" encoding="UTF-8" standalone="no"?><!-- Generator: Gravit.io --><svg xmlns="http://www.w3.org/2000/svg" xmlns:xlink="http://www.w3.org/1999/xlink" style="isolation:isolate" viewBox="0 0 48 48" width="48pt" height="48pt"><linearGradient id="_lgradient_7" x1="-0.000038208333333289435" y1="0.5000000833333331" x2="0.9999618333333335" y2="0.5000000833333331" gradientTransform="matrix(15.597,0,0,15.107,16.201,19.446)" gradientUnits="userSpaceOnUse"><stop offset="0%" stop-opacity="1" style="stop-color:rgb(0,198,255)"/><stop offset="98.69565217391305%" stop-opacity="1" style="stop-color:rgb(0,114,255)"/></linearGradient><path d=" M 24.001 19.446 C 21.937 19.446 15.292 31.114 16.306 33.084 C 17.32 35.054 30.694 35.033 31.696 33.084 C 32.698 31.136 26.065 19.447 24.001 19.446 Z " fill="url(#_lgradient_7)"/><linearGradient id="_lgradient_8" x1="0.3906059930752183" y1="0.6402966985307723" x2="0.9712616817307094" y2="0.034928747708064534" gradientTransform="matrix(47,0,0,47,0.5,0.5)" gradientUnits="userSpaceOnUse"><stop offset="0%" stop-opacity="1" style="stop-color:rgb(211,0,220)"/><stop offset="100%" stop-opacity="1" style="stop-color:rgb(135,0,255)"/></linearGradient><path d=" M 24.003 0.5 C 17.783 0.5 -2.238 36.799 0.815 42.929 C 3.867 49.059 44.172 48.988 47.192 42.929 C 50.211 36.87 30.222 0.5 24.003 0.5 Z  M 39.199 37.61 C 37.221 41.582 10.814 41.626 8.813 37.61 C 6.811 33.593 19.931 9.809 24.006 9.809 C 28.081 9.809 41.178 33.637 39.199 37.61 Z " fill="url(#_lgradient_8)"/></svg>