<?xml version="1.0" encoding="UTF-8" standalone="no"?><!-- Generator: Gravit.io --><svg xmlns="http://www.w3.org/2000/svg" xmlns:xlink="http://www.w3.org/1999/xlink" style="isolation:isolate" viewBox="0 0 48 48" width="48pt" height="48pt"><linearGradient id="_lgradient_0" x1="0" y1="0.5" x2="1" y2="0.5" gradientTransform="matrix(46.535,0,0,39.773,1,5.5)" gradientUnits="userSpaceOnUse"><stop offset="0%" stop-opacity="1" style="stop-color:rgb(71,118,230)"/><stop offset="98.26086956521739%" stop-opacity="1" style="stop-color:rgb(142,84,233)"/></linearGradient><path d=" M 19.245 27.525 C 20.437 27.16 21.532 26.508 22.43 25.61 C 23.87 24.17 24.68 22.22 24.68 20.18 C 24.68 18.15 23.87 16.19 22.43 14.75 C 20.99 13.31 19.04 12.5 17 12.5 C 14.96 12.5 13.01 13.31 11.57 14.75 C 10.13 16.19 9.32 18.15 9.32 20.18 L 9.32 20.18 L 9.32 20.18 C 9.32 22.22 10.13 24.17 11.57 25.61 C 12.13 26.17 12.766 26.634 13.455 26.993 L 14.244 27.549 L 29.497 38.336 C 29.825 38.568 30.091 39.082 30.091 39.484 L 30.091 41.636 C 30.091 42.038 29.765 42.364 29.364 42.364 L 4.636 42.364 C 4.235 42.364 3.909 42.038 3.909 41.636 L 3.909 39.535 C 3.909 39.133 4.185 38.634 4.525 38.42 L 12.484 33.411 L 12.484 33.411 C 13.162 32.985 13.367 32.088 12.942 31.407 L 12.942 31.407 C 12.516 30.727 11.617 30.523 10.935 30.953 L 10.935 30.953 L 2.848 36.032 C 1.828 36.673 1 38.17 1 39.375 L 1 43.091 C 1 44.295 1.978 45.273 3.182 45.273 L 30.818 45.273 C 32.022 45.273 33 44.295 33 43.091 L 33 39.425 C 33 38.221 32.202 36.679 31.218 35.985 L 19.245 27.525 Z  M 32.72 11.55 C 32.72 10.74 33.04 9.96 33.61 9.39 C 34.18 8.82 34.96 8.5 35.77 8.5 C 36.58 8.5 37.35 8.82 37.92 9.39 C 38.49 9.96 38.81 10.74 38.81 11.55 C 38.81 12.35 38.49 13.13 37.92 13.7 C 37.35 14.27 36.58 14.59 35.77 14.59 C 34.96 14.59 34.18 14.27 33.61 13.7 C 33.04 13.13 32.72 12.35 32.72 11.55 L 32.72 11.55 L 32.72 11.55 L 32.72 11.55 Z  M 12.32 20.18 C 12.32 18.94 12.81 17.75 13.69 16.87 C 14.57 15.99 15.76 15.5 17 15.5 C 18.24 15.5 19.43 15.99 20.31 16.87 C 21.19 17.75 21.68 18.94 21.68 20.18 C 21.68 21.42 21.19 22.61 20.31 23.49 C 19.43 24.37 18.24 24.86 17 24.86 C 15.76 24.86 14.57 24.37 13.69 23.49 C 12.81 22.61 12.32 21.42 12.32 20.18 L 12.32 20.18 L 12.32 20.18 Z  M 37.822 17.232 C 38.649 16.935 39.409 16.457 40.04 15.82 C 41.18 14.69 41.81 13.15 41.81 11.55 C 41.81 9.94 41.18 8.4 40.04 7.27 C 38.91 6.14 37.37 5.5 35.77 5.5 C 34.16 5.5 32.63 6.14 31.49 7.27 C 30.36 8.4 29.72 9.94 29.72 11.55 L 29.72 11.55 C 29.72 13.15 30.36 14.69 31.49 15.82 C 32.302 16.632 33.311 17.185 34.407 17.436 L 44.959 24.899 C 45.2 25.069 45.395 25.447 45.395 25.742 L 45.395 27.326 C 45.395 27.621 45.156 27.86 44.86 27.86 L 26.674 27.86 C 26.379 27.86 26.14 27.621 26.14 27.326 L 26.14 25.78 C 26.14 25.485 26.342 25.117 26.592 24.96 L 32.446 21.276 L 32.446 21.276 C 32.945 20.963 33.096 20.303 32.783 19.802 L 32.783 19.802 C 32.47 19.302 31.808 19.152 31.307 19.468 L 31.307 19.468 L 25.359 23.204 C 24.609 23.675 24 24.776 24 25.662 L 24 28.395 C 24 29.281 24.719 30 25.605 30 L 45.93 30 C 46.816 30 47.535 29.281 47.535 28.395 L 47.535 25.7 C 47.535 24.814 46.948 23.68 46.224 23.169 L 37.822 17.232 L 37.822 17.232 L 37.822 17.232 Z " fill-rule="evenodd" fill="url(#_lgradient_0)"/></svg>