<?xml version="1.0" encoding="UTF-8" standalone="no"?><!-- Generator: Gravit.io --><svg xmlns="http://www.w3.org/2000/svg" xmlns:xlink="http://www.w3.org/1999/xlink" style="isolation:isolate" viewBox="0 0 48 48" width="48pt" height="48pt"><linearGradient id="_lgradient_4" x1="0.40340909090909094" y1="0.06809513125420691" x2="0.4905303030303031" y2="0.9511006406900508" gradientTransform="matrix(44,0,0,44.285,2,1.715)" gradientUnits="userSpaceOnUse"><stop offset="0%" stop-opacity="1" style="stop-color:rgb(247,242,6)"/><stop offset="97.82608695652173%" stop-opacity="1" style="stop-color:rgb(255,187,36)"/></linearGradient><path d=" M 38.959 40.715 L 42 40.715 C 44.208 40.715 46 38.923 46 36.715 L 46 34.715 C 46 32.507 44.208 30.715 42 30.715 L 38 30.715 L 38 15.715 C 38 13.935 37.34 12.215 36.16 10.895 C 34.63 9.175 32.76 7.795 30.66 6.845 C 29.436 6.297 28.152 5.908 26.837 5.686 L 26.837 5.686 C 26.943 5.382 27 5.055 27 4.715 C 27 3.059 25.656 1.715 24 1.715 C 22.344 1.715 21 3.059 21 4.715 C 21 5.095 21.071 5.459 21.208 5.791 C 20.029 6.008 18.878 6.366 17.78 6.845 C 15.6 7.805 13.62 9.175 11.97 10.895 C 10.71 12.185 10 13.915 10 15.715 L 10 17.715 C 10 18.819 10.896 19.715 12 19.715 L 12 19.715 C 13.104 19.715 14 18.819 14 17.715 L 14 15.715 C 14 14.955 14.3 14.225 14.83 13.685 C 16.13 12.335 17.67 11.265 19.38 10.515 C 20.93 9.835 22.59 9.485 24.28 9.475 C 25.91 9.475 27.53 9.825 29.02 10.495 C 30.6 11.215 32.02 12.255 33.17 13.555 C 33.71 14.145 34 14.915 34 15.715 L 34 30.715 C 34 31.775 34.42 32.795 35.17 33.545 C 35.92 34.295 36.94 34.715 38 34.715 L 41 34.715 C 41.552 34.715 42 35.163 42 35.715 L 42 35.715 C 42 36.267 41.552 36.715 41 36.715 L 7 36.715 C 6.448 36.715 6 36.267 6 35.715 L 6 35.715 C 6 35.163 6.448 34.715 7 34.715 L 10 34.715 C 11.06 34.715 12.08 34.295 12.83 33.545 C 13.58 32.795 14 31.775 14 30.715 L 14 29.715 C 14 28.611 13.104 27.715 12 27.715 L 12 27.715 C 10.896 27.715 10 28.611 10 29.715 L 10 30.715 L 6 30.715 C 3.792 30.715 2 32.507 2 34.715 L 2 36.715 C 2 38.923 3.792 40.715 6 40.715 L 31.381 40.715 C 31.244 41.118 31.17 41.551 31.17 42 C 31.17 44.208 32.962 46 35.17 46 C 37.378 46 39.17 44.208 39.17 42 C 39.17 41.551 39.096 41.118 38.959 40.715 Z  M 14 23.715 C 14 22.611 13.104 21.715 12 21.715 C 10.896 21.715 10 22.611 10 23.715 C 10 24.819 10.896 25.715 12 25.715 C 13.104 25.715 14 24.819 14 23.715 L 14 23.715 Z " fill-rule="evenodd" fill="url(#_lgradient_4)"/></svg>