<?xml version="1.0" encoding="UTF-8" standalone="no"?><!-- Generator: Gravit.io --><svg xmlns="http://www.w3.org/2000/svg" xmlns:xlink="http://www.w3.org/1999/xlink" style="isolation:isolate" viewBox="0 0 48 48" width="48pt" height="48pt"><linearGradient id="_lgradient_53" x1="0" y1="0.5" x2="1" y2="0.5" gradientTransform="matrix(45,0,0,-45,1.5,46.5)" gradientUnits="userSpaceOnUse"><stop offset="0%" stop-opacity="1" style="stop-color:rgb(178,254,250)"/><stop offset="98.26086956521739%" stop-opacity="1" style="stop-color:rgb(14,210,247)"/></linearGradient><path d=" M 43.36 17.186 L 43.36 17.186 C 43.36 18.052 44.064 18.756 44.93 18.756 L 44.93 18.756 C 45.797 18.756 46.5 18.052 46.5 17.186 L 46.5 17.186 L 46.5 4.64 C 46.5 2.907 45.093 1.5 43.36 1.5 L 4.64 1.5 C 2.907 1.5 1.5 2.907 1.5 4.64 L 1.5 14.581 L 1.5 14.581 C 1.5 15.448 2.203 16.151 3.07 16.151 L 3.07 16.151 C 3.936 16.151 4.64 15.448 4.64 14.581 L 4.64 14.581 L 4.64 5.686 C 4.64 5.108 5.108 4.64 5.686 4.64 L 42.314 4.64 C 42.892 4.64 43.36 5.108 43.36 5.686 L 43.36 17.186 L 43.36 17.186 L 43.36 17.186 L 43.36 17.186 L 43.36 17.186 L 43.36 17.186 Z  M 4.64 24 L 4.64 24 C 4.64 23.134 3.936 22.43 3.07 22.43 L 3.07 22.43 C 2.203 22.43 1.5 23.134 1.5 24 L 1.5 24 L 1.5 43.36 C 1.5 45.093 2.907 46.5 4.64 46.5 L 43.36 46.5 C 45.093 46.5 46.5 45.093 46.5 43.36 L 46.5 35.605 L 46.5 35.605 C 46.5 34.738 45.093 34.035 43.36 34.035 L 43.36 34.035 L 43.36 34.035 L 43.36 35.605 L 43.36 42.314 C 43.36 42.892 42.892 43.36 42.314 43.36 L 5.686 43.36 C 5.108 43.36 4.64 42.892 4.64 42.314 L 4.64 24 L 4.64 24 L 4.64 24 L 4.64 24 L 4.64 24 L 4.64 24 Z  M 10.395 34.035 L 10.395 34.035 C 9.529 34.035 8.826 34.738 8.826 35.605 L 8.826 35.605 C 8.826 36.471 9.529 37.174 10.395 37.174 L 10.395 37.174 L 41.791 37.174 L 43.36 37.174 L 43.36 34.035 L 43.36 34.035 L 41.791 34.035 L 10.395 34.035 L 10.395 34.035 L 10.395 34.035 L 10.395 34.035 L 10.395 34.035 Z  M 37 40 C 37 41.104 37.896 42 39 42 C 40.104 42 41 41.104 41 40 C 41 38.896 40.104 38 39 38 C 37.896 38 37 38.896 37 40 L 37 40 L 37 40 L 37 40 Z  M 30.826 40 C 30.826 41.104 31.722 42 32.826 42 C 33.929 42 34.826 41.104 34.826 40 C 34.826 38.896 33.929 38 32.826 38 C 31.722 38 30.826 38.896 30.826 40 L 30.826 40 L 30.826 40 Z  M 9.401 21.174 L 20.425 21.174 C 21.294 21.174 22 20.469 22 19.599 L 22 8.575 C 22 7.706 21.294 7 20.425 7 L 9.401 7 C 8.531 7 7.826 7.706 7.826 8.575 L 7.826 19.599 C 7.826 20.469 8.531 21.174 9.401 21.174 L 9.401 21.174 Z  M 24 40 C 24 41.104 24.896 42 26 42 C 27.104 42 28 41.104 28 40 C 28 38.896 27.104 38 26 38 C 24.896 38 24 38.896 24 40 Z " fill-rule="evenodd" fill="url(#_lgradient_53)"/><linearGradient id="_lgradient_54" x1="0.18336115895060273" y1="0.24917751794896525" x2="0.9027436828643176" y2="0.9034772483231972" gradientTransform="matrix(-21.723,-20.688,-17.663,24.885,54.193,17.755)" gradientUnits="userSpaceOnUse"><stop offset="2.608695652173913%" stop-opacity="1" style="stop-color:rgb(179,255,171)"/><stop offset="98.69565217391305%" stop-opacity="1" style="stop-color:rgb(18,255,247)"/></linearGradient><path d=" M 41.274 24.415 L 41.235 24.281 C 40.046 20.21 37.896 16.609 35.036 13.885 C 32.442 11.414 29.345 9.747 26.04 9.033 L 26.04 9.033 C 25.103 8.833 24.201 9.553 24.029 10.639 L 24.029 10.639 C 23.856 11.725 24.477 12.769 25.415 12.969 L 25.415 12.969 C 28.144 13.549 30.695 14.93 32.843 16.975 C 35.2 19.22 36.966 22.173 37.945 25.52 L 37.296 25.281 L 37.296 25.281 C 36.384 24.949 35.411 25.533 35.124 26.585 L 35.124 26.585 C 34.837 27.637 35.339 28.761 36.243 29.094 L 36.243 29.094 L 40.304 30.589 C 41.266 30.943 42.396 30.474 42.825 29.543 L 44.796 25.264 L 44.796 25.264 C 45.245 24.292 44.929 23.08 44.089 22.559 L 44.089 22.559 C 43.25 22.038 42.203 22.405 41.754 23.377 L 41.754 23.377 L 41.274 24.415 Z " fill-rule="evenodd" fill="url(#_lgradient_54)"/></svg>