<?xml version="1.0" encoding="UTF-8" standalone="no"?><!-- Generator: Gravit.io --><svg xmlns="http://www.w3.org/2000/svg" xmlns:xlink="http://www.w3.org/1999/xlink" style="isolation:isolate" viewBox="0 0 48 48" width="48pt" height="48pt"><linearGradient id="_lgradient_2" x1="0" y1="0.5" x2="1" y2="0.5" gradientTransform="matrix(48,0,0,48,0,0)" gradientUnits="userSpaceOnUse"><stop offset="0%" stop-opacity="1" style="stop-color:rgb(84,51,255)"/><stop offset="51.73913043478261%" stop-opacity="1" style="stop-color:rgb(32,189,255)"/><stop offset="98.26086956521739%" stop-opacity="1" style="stop-color:rgb(165,254,203)"/></linearGradient><path d=" M 23.437 15.531 C 24.719 16.813 24.719 18.891 23.437 20.173 C 22.658 20.951 21.541 21.286 20.462 21.066 C 20.682 22.144 20.347 23.262 19.569 24.041 C 18.287 25.322 16.209 25.322 14.927 24.041 C 13.646 22.759 13.646 20.681 14.927 19.399 C 15.707 18.621 16.824 18.286 17.902 18.506 C 17.682 17.427 18.018 16.31 18.795 15.531 C 20.077 14.249 22.155 14.249 23.437 15.531 L 23.437 15.531 L 23.437 15.531 Z  M 24.871 23.165 C 24.911 23.195 24.948 23.231 24.984 23.267 L 30.399 28.682 L 31.947 27.135 L 30.98 26.168 C 30.659 25.848 30.659 25.328 30.98 25.008 L 31.366 24.621 C 31.687 24.301 32.207 24.301 32.527 24.621 L 36.008 28.102 C 36.328 28.422 36.328 28.942 36.008 29.263 L 35.621 29.649 C 35.301 29.97 34.781 29.97 34.461 29.649 L 33.494 28.682 L 31.947 30.23 L 34.267 32.55 C 35.121 33.404 35.295 34.618 34.654 35.258 L 34.654 35.258 C 34.014 35.898 32.801 35.725 31.947 34.871 L 29.046 31.97 L 29.046 31.97 L 28.659 31.583 L 28.659 31.583 L 22.663 25.588 C 22.627 25.551 22.592 25.514 22.561 25.475 C 19.491 27.713 15.625 27.833 13.38 25.588 C 10.817 23.024 11.336 18.349 14.541 15.144 C 17.745 11.94 22.421 11.42 24.984 13.984 L 24.984 13.984 C 27.23 16.229 27.11 20.095 24.871 23.165 L 24.871 23.165 Z  M 33.886 41.178 L 33.886 41.178 C 34.885 40.607 36.165 40.953 36.742 41.949 L 36.742 41.949 C 37.319 42.945 36.976 44.223 35.976 44.799 L 35.976 44.799 C 32.089 47.037 27.656 48.139 23.182 47.986 C 19.125 47.848 15.166 46.679 11.677 44.597 L 11.677 44.597 C 10.689 44.005 10.368 42.721 10.96 41.733 L 10.96 41.733 C 11.553 40.745 12.836 40.424 13.825 41.016 L 13.825 41.016 C 16.7 42.743 19.966 43.7 23.324 43.815 C 27.027 43.941 30.68 43.032 33.886 41.178 L 33.886 41.178 L 33.886 41.178 L 33.886 41.178 L 33.886 41.178 L 33.886 41.178 L 33.886 41.178 L 33.886 41.178 Z  M 41.748 15.156 L 41.748 15.156 C 41.23 14.124 41.647 12.868 42.679 12.353 L 42.679 12.353 C 43.711 11.838 44.964 12.257 45.477 13.289 L 45.477 13.289 C 47.265 16.858 48.122 20.824 47.986 24.818 C 47.882 27.863 47.206 30.857 45.983 33.635 L 45.983 33.635 C 45.521 34.691 44.288 35.173 43.232 34.71 L 43.232 34.71 C 42.176 34.248 41.694 33.015 42.157 31.959 L 42.157 31.959 C 43.175 29.665 43.729 27.189 43.814 24.676 C 43.927 21.38 43.214 18.109 41.748 15.156 L 41.748 15.156 L 41.748 15.156 L 41.748 15.156 L 41.748 15.156 L 41.748 15.156 L 41.748 15.156 L 41.748 15.156 Z  M 15.411 6.135 L 15.411 6.135 C 14.374 6.63 13.126 6.19 12.625 5.153 L 12.625 5.153 C 12.125 4.116 12.56 2.867 13.597 2.367 L 13.597 2.367 C 17.089 0.69 20.938 -0.118 24.818 0.014 C 28.551 0.141 32.214 1.133 35.493 2.926 L 35.493 2.926 C 36.506 3.479 36.879 4.75 36.326 5.763 L 36.326 5.763 C 35.773 6.775 34.502 7.148 33.489 6.595 L 33.489 6.595 C 30.783 5.114 27.762 4.291 24.676 4.185 C 21.474 4.076 18.298 4.741 15.411 6.135 L 15.411 6.135 L 15.411 6.135 L 15.411 6.135 L 15.411 6.135 L 15.411 6.135 L 15.411 6.135 Z  M 5.19 30.291 L 5.19 30.291 C 5.557 31.381 4.967 32.564 3.874 32.93 L 3.874 32.93 C 2.781 33.296 1.596 32.703 1.23 31.608 L 1.23 31.608 C 0.331 28.894 -0.083 26.04 0.014 23.182 C 0.143 19.407 1.156 15.704 2.992 12.394 L 2.992 12.394 C 3.545 11.387 4.813 11.023 5.823 11.582 L 5.823 11.582 C 6.833 12.141 7.199 13.412 6.64 14.419 L 6.64 14.419 C 5.127 17.155 4.292 20.206 4.185 23.324 C 4.105 25.692 4.442 28.042 5.19 30.291 L 5.19 30.291 L 5.19 30.291 L 5.19 30.291 L 5.19 30.291 L 5.19 30.291 Z  M 41.964 8.836 C 41.924 9.988 40.958 10.89 39.807 10.851 C 38.656 10.812 37.753 9.845 37.792 8.694 C 37.831 7.543 38.798 6.64 39.949 6.68 C 41.1 6.719 42.003 7.685 41.964 8.836 L 41.964 8.836 L 41.964 8.836 L 41.964 8.836 L 41.964 8.836 Z  M 9.362 37.763 C 9.323 38.914 8.357 39.817 7.206 39.778 C 6.054 39.738 5.152 38.772 5.191 37.621 C 5.23 36.47 6.197 35.567 7.348 35.606 C 8.499 35.645 9.402 36.612 9.362 37.763 L 9.362 37.763 L 9.362 37.763 L 9.362 37.763 Z  M 42.771 38.902 C 42.81 37.751 41.907 36.785 40.756 36.745 C 39.605 36.706 38.639 37.609 38.599 38.76 C 38.56 39.911 39.463 40.878 40.614 40.917 C 41.765 40.956 42.732 40.053 42.771 38.902 L 42.771 38.902 L 42.771 38.902 Z  M 10.865 7.776 C 10.904 6.625 10.002 5.658 8.851 5.619 C 7.699 5.58 6.733 6.483 6.694 7.634 C 6.654 8.785 7.557 9.751 8.708 9.791 C 9.86 9.83 10.826 8.927 10.865 7.776 L 10.865 7.776 Z " fill-rule="evenodd" fill="url(#_lgradient_2)"/></svg>