<?xml version="1.0" encoding="UTF-8" standalone="no"?>
<!-- Generator: Gravit.io -->
<svg xmlns="http://www.w3.org/2000/svg" xmlns:xlink="http://www.w3.org/1999/xlink" style="isolation:isolate" viewBox="0 0 48 48" width="48pt" height="48pt"><linearGradient id="_lgradient_8" x1="0.22078557924020603" y1="0.04723996636961164" x2="0.9022490870014594" y2="0.9061460265379022" gradientTransform="matrix(44.287,0,0,43.951,1.713,2.049)" gradientUnits="userSpaceOnUse"><stop offset="2.608695652173913%" stop-opacity="1" style="stop-color:rgb(237,184,212)"/><stop offset="98.69565217391305%" stop-opacity="1" style="stop-color:rgb(162,110,245)"/></linearGradient><path d=" M 23.457 7.648 L 24.447 7.353 C 26.562 6.722 28.793 7.927 29.424 10.043 L 30.013 12.014 L 30.7 12.08 C 34.89 12.5 38.78 14.47 41.61 17.59 C 44.44 20.72 46 24.79 46 29 C 46 33.51 44.21 37.83 41.02 41.02 C 37.83 44.21 33.51 46 29 46 C 23.04 46 17.5 42.86 14.42 37.75 L 14.42 37.75 C 13.852 36.806 14.158 35.576 15.105 35.005 L 15.105 35.005 C 16.052 34.434 17.282 34.741 17.85 35.69 L 17.85 35.69 C 20.2 39.6 24.44 42 29 42 C 32.45 42 35.76 40.63 38.19 38.19 C 40.63 35.75 42 32.45 42 29 C 42 25.78 40.8 22.67 38.64 20.28 C 36.48 17.89 33.51 16.38 30.3 16.06 L 30.3 16.06 L 30.3 16.06 L 30.3 16.06 L 30.25 16.055 L 30.25 16.055 L 30.25 16.055 L 30.25 16.055 L 30.25 16.055 L 20.869 18.852 L 20.69 19 C 18.64 20.71 17.16 23.01 16.45 25.59 L 16.45 25.59 L 16.45 25.59 L 16.45 25.59 C 16.163 26.65 15.065 27.275 14 26.985 L 14 26.985 C 12.935 26.695 12.303 25.595 12.59 24.53 L 12.59 24.53 C 13.371 21.701 14.856 19.133 16.904 17.056 L 16.004 14.043 C 15.373 11.927 16.578 9.698 18.693 9.067 L 18.693 9.067 L 20.579 8.506 L 20.54 8.34 C 20.44 7.9 20.3 7.48 20.12 7.07 C 20 6.79 19.85 6.52 19.66 6.28 C 19.51 6.07 19.33 5.88 19.12 5.72 C 18.94 5.57 18.73 5.44 18.51 5.34 C 18.3 5.25 18.07 5.18 17.83 5.13 C 17.51 5.07 17.19 5.04 16.86 5.05 C 16.51 5.05 16.17 5.08 15.82 5.13 C 15.35 5.21 14.87 5.31 14.41 5.44 C 13.95 5.57 13.5 5.76 13.08 5.98 C 12.65 6.22 12.25 6.49 11.88 6.81 C 11.46 7.17 11.09 7.58 10.76 8.02 C 10.34 8.58 9.97 9.19 9.65 9.82 C 9.14 10.84 8.74 11.91 8.45 13.02 C 8.01 14.71 7.69 16.43 7.49 18.17 L 7.49 18.17 C 7.396 18.992 6.652 19.584 5.83 19.49 L 5.83 19.49 C 5.008 19.396 4.416 18.652 4.51 17.83 L 4.51 17.83 C 4.72 15.95 5.07 14.09 5.55 12.26 C 5.89 10.96 6.36 9.69 6.97 8.48 C 7.36 7.69 7.83 6.93 8.35 6.22 C 8.81 5.61 9.34 5.05 9.92 4.54 C 10.45 4.08 11.03 3.68 11.65 3.34 C 12.27 3.01 12.92 2.75 13.59 2.56 C 14.17 2.39 14.76 2.26 15.35 2.17 C 15.84 2.09 16.34 2.05 16.84 2.05 C 17.36 2.04 17.88 2.09 18.39 2.19 C 18.85 2.27 19.29 2.41 19.72 2.6 C 20.18 2.8 20.62 3.07 21.01 3.38 C 21.41 3.71 21.77 4.08 22.07 4.49 C 22.39 4.92 22.66 5.38 22.87 5.87 C 23.118 6.446 23.317 7.042 23.457 7.648 Z  M 37.42 25.34 L 37.42 25.34 C 37.227 24.827 37.487 24.249 38 24.05 L 38 24.05 C 38.513 23.851 39.091 24.111 39.29 24.63 L 39.29 24.63 C 39.83 26.03 40.1 27.51 40.1 29.01 C 40.1 31.33 39.44 33.61 38.19 35.57 C 36.95 37.53 35.18 39.1 33.08 40.09 L 33.08 40.09 C 32.578 40.327 31.98 40.114 31.745 39.615 L 31.745 39.615 C 31.51 39.116 31.723 38.517 32.22 38.28 L 32.22 38.28 C 33.98 37.45 35.46 36.14 36.51 34.5 C 37.55 32.86 38.1 30.95 38.1 29.01 C 38.1 27.76 37.87 26.51 37.42 25.34 L 37.42 25.34 L 37.42 25.34 L 37.42 25.34 L 37.42 25.34 L 37.42 25.34 L 37.42 25.34 L 37.42 25.34 Z  M 12.139 31 C 12.139 29.896 13.035 29 14.139 29 C 15.243 29 16.139 29.896 16.139 31 C 16.139 32.104 15.243 33 14.139 33 C 13.035 33 12.139 32.104 12.139 31 L 12.139 31 L 12.139 31 L 12.139 31 L 12.139 31 L 12.139 31 Z  M 19.84 12.9 L 25.59 11.18 L 26.16 13.1 L 20.41 14.82 L 19.84 12.9 L 19.84 12.9 L 19.84 12.9 L 19.84 12.9 L 19.84 12.9 L 19.84 12.9 Z  M 2.046 20.245 L 2.877 19.633 C 3.24 19.366 3.752 19.444 4.019 19.807 L 4.048 19.847 C 4.315 20.21 4.237 20.721 3.874 20.988 L 3.042 21.6 C 2.679 21.867 2.168 21.789 1.901 21.426 L 1.872 21.386 C 1.605 21.023 1.683 20.512 2.046 20.245 L 2.046 20.245 L 2.046 20.245 L 2.046 20.245 Z  M 9.659 20.576 L 8.754 19.91 C 8.383 19.637 7.859 19.717 7.586 20.088 L 7.579 20.097 C 7.306 20.469 7.386 20.992 7.758 21.266 L 8.663 21.931 C 9.034 22.205 9.558 22.125 9.831 21.753 L 9.838 21.745 C 10.111 21.373 10.031 20.849 9.659 20.576 L 9.659 20.576 L 9.659 20.576 Z  M 5.001 22.152 L 5 20.97 C 5 20.502 5.376 20.122 5.84 20.121 L 5.84 20.121 C 6.305 20.121 6.682 20.501 6.682 20.969 L 6.683 22.151 C 6.684 22.619 6.307 23 5.843 23 L 5.843 23 C 5.379 23 5.001 22.621 5.001 22.152 L 5.001 22.152 Z " fill-rule="evenodd" fill="url(#_lgradient_8)"/></svg>