<?xml version="1.0" encoding="UTF-8" standalone="no"?><!-- Generator: Gravit.io --><svg xmlns="http://www.w3.org/2000/svg" xmlns:xlink="http://www.w3.org/1999/xlink" style="isolation:isolate" viewBox="0 0 48 48" width="48pt" height="48pt"><linearGradient id="_lgradient_8" x1="0" y1="0.5" x2="1" y2="0.5" gradientTransform="matrix(38,0,0,38,5,5)" gradientUnits="userSpaceOnUse"><stop offset="0%" stop-opacity="1" style="stop-color:rgb(88,0,226)"/><stop offset="100%" stop-opacity="1" style="stop-color:rgb(255,0,230)"/></linearGradient><path d=" M 39 31 L 39 31 C 39 29.896 39.896 29 41 29 L 41 29 C 42.104 29 43 29.896 43 31 L 43 31 L 43 38 C 43 40.76 40.76 43 38 43 L 10 43 C 7.24 43 5 40.76 5 38 L 5 10 C 5 7.24 7.24 5 10 5 L 38 5 C 40.76 5 43 7.24 43 10 L 43 17 L 43 17 C 43 18.104 42.104 19 41 19 L 41 19 C 39.896 19 39 18.104 39 17 L 39 17 L 39 12 C 39 10.344 37.656 9 36 9 L 12 9 C 10.344 9 9 10.344 9 12 L 9 36 C 9 37.656 10.344 39 12 39 L 36 39 C 37.656 39 39 37.656 39 36 L 39 31 L 39 31 L 39 31 L 39 31 Z  M 32.549 23.314 L 32.549 23.314 C 32.514 22.438 33.197 21.701 34.073 21.669 L 34.073 21.669 C 34.95 21.638 35.69 22.323 35.725 23.2 L 35.725 23.2 L 35.75 23.936 C 35.75 23.962 35.75 23.975 35.75 24 C 35.75 27.112 34.505 30.11 32.308 32.308 C 30.11 34.505 27.112 35.75 24 35.75 C 20.888 35.75 17.89 34.505 15.692 32.308 C 13.495 30.11 12.25 27.112 12.25 24 C 12.25 20.888 13.495 17.89 15.692 15.692 C 17.89 13.495 20.888 12.25 24 12.25 C 27.277 12.25 30.402 13.622 32.625 16.023 L 32.625 16.023 C 33.221 16.668 33.181 17.675 32.536 18.271 L 32.536 18.271 C 31.891 18.867 30.884 18.827 30.288 18.182 L 30.288 18.182 C 28.675 16.429 26.388 15.426 24 15.426 C 21.726 15.426 19.541 16.328 17.941 17.941 C 16.328 19.541 15.426 21.726 15.426 24 C 15.426 26.274 16.328 28.459 17.941 30.059 C 19.541 31.672 21.726 32.574 24 32.574 C 26.274 32.574 28.446 31.672 30.059 30.072 C 31.66 28.471 32.562 26.299 32.574 24.025 L 32.549 23.314 L 32.549 23.314 L 32.549 23.314 L 32.549 23.314 Z  M 21.814 24 C 21.814 23.421 22.043 22.863 22.459 22.459 C 22.863 22.043 23.421 21.814 24 21.814 C 24.579 21.814 25.137 22.043 25.541 22.459 C 25.957 22.863 26.186 23.421 26.186 24 C 26.186 24.579 25.957 25.137 25.541 25.541 C 25.137 25.957 24.579 26.186 24 26.186 L 24 26.186 C 23.421 26.186 22.863 25.957 22.459 25.541 C 22.043 25.137 21.814 24.579 21.814 24 L 21.814 24 L 21.814 24 L 21.814 24 Z  M 39 24 C 39 22.896 39.896 22 41 22 C 42.104 22 43 22.896 43 24 C 43 25.104 42.104 26 41 26 C 39.896 26 39 25.104 39 24 L 39 24 Z  M 19.628 24 C 19.628 22.841 20.087 21.727 20.907 20.907 C 21.727 20.087 22.841 19.628 24 19.628 C 25.159 19.628 26.273 20.087 27.093 20.907 C 27.913 21.727 28.372 22.841 28.372 24 C 28.372 25.159 27.913 26.273 27.093 27.093 C 26.273 27.913 25.159 28.372 24 28.372 L 24 28.372 C 22.841 28.372 21.727 27.913 20.907 27.093 C 20.087 26.273 19.628 25.159 19.628 24 L 19.628 24 L 19.628 24 L 19.628 24 Z  M 35 35.5 C 35 34.672 35.672 34 36.5 34 C 37.328 34 38 34.672 38 35.5 C 38 36.328 37.328 37 36.5 37 C 35.672 37 35 36.328 35 35.5 L 35 35.5 Z  M 10 35.5 C 10 34.672 10.672 34 11.5 34 C 12.328 34 13 34.672 13 35.5 C 13 36.328 12.328 37 11.5 37 C 10.672 37 10 36.328 10 35.5 L 10 35.5 Z " fill-rule="evenodd" fill="url(#_lgradient_8)"/></svg>