<?xml version="1.0" encoding="UTF-8" standalone="no"?><!-- Generator: Gravit.io --><svg xmlns="http://www.w3.org/2000/svg" xmlns:xlink="http://www.w3.org/1999/xlink" style="isolation:isolate" viewBox="0 0 48 48" width="48pt" height="48pt"><linearGradient id="_lgradient_20" x1="0" y1="0.5" x2="1" y2="0.5" gradientTransform="matrix(47.5,0,0,47.5,0.25,0.25)" gradientUnits="userSpaceOnUse"><stop offset="0%" stop-opacity="1" style="stop-color:rgb(247,242,6)"/><stop offset="97.82608695652173%" stop-opacity="1" style="stop-color:rgb(255,187,36)"/></linearGradient><path d=" M 11.471 9.805 L 11.471 9.805 C 10.476 10.687 8.952 10.594 8.07 9.599 L 8.07 9.599 C 7.189 8.603 7.281 7.079 8.277 6.198 L 8.277 6.198 C 12.614 2.37 18.217 0.25 24 0.25 C 30.292 0.25 36.336 2.756 40.797 7.203 C 45.244 11.664 47.75 17.708 47.75 24 C 47.75 30.292 45.244 36.336 40.797 40.797 C 36.336 45.244 30.292 47.75 24 47.75 C 17.736 47.75 11.719 45.272 7.272 40.866 C 2.825 36.46 0.305 30.457 0.25 24.193 L 0.25 24.193 C 0.242 22.863 1.316 21.774 2.646 21.763 L 2.646 21.763 C 3.975 21.751 5.061 22.822 5.069 24.151 L 5.069 24.151 C 5.11 29.149 7.12 33.927 10.672 37.438 C 14.211 40.962 19.002 42.931 24 42.931 C 29.025 42.931 33.844 40.935 37.383 37.383 C 40.935 33.844 42.931 29.025 42.931 24 C 42.931 18.975 40.935 14.156 37.383 10.617 C 33.844 7.065 29.025 5.069 24 5.069 C 19.388 5.069 14.927 6.762 11.471 9.805 L 11.471 9.805 Z  M 6.294 17.295 L 6.294 17.295 C 5.823 18.541 4.429 19.17 3.183 18.699 L 3.183 18.699 C 1.936 18.228 1.307 16.834 1.778 15.588 L 1.778 15.588 C 2.123 14.72 2.508 13.853 2.935 13.027 L 2.935 13.027 C 3.55 11.841 5.009 11.382 6.191 12.001 L 6.191 12.001 C 7.373 12.62 7.826 14.079 7.203 15.257 L 7.203 15.257 C 6.859 15.918 6.556 16.607 6.294 17.295 L 6.294 17.295 Z  M 19.348 9.99 C 18.055 9.99 17.013 11.032 17.013 12.325 L 17.013 35.675 C 17.013 36.968 18.055 38.009 19.348 38.009 C 20.642 38.009 21.683 36.968 21.683 35.675 L 21.683 29.098 L 21.92 28.686 L 26.629 36.84 C 27.276 37.96 28.696 38.342 29.817 37.695 C 30.937 37.048 31.319 35.625 30.672 34.505 L 24.616 24.018 L 30.672 13.529 C 31.319 12.409 30.937 10.986 29.817 10.339 C 28.696 9.693 27.276 10.074 26.629 11.194 L 21.92 19.348 L 21.683 18.938 L 21.683 12.325 C 21.683 11.032 20.642 9.99 19.348 9.99 Z " fill-rule="evenodd" fill="url(#_lgradient_20)"/></svg>