<?xml version="1.0" encoding="UTF-8" standalone="no"?><!-- Generator: Gravit.io --><svg xmlns="http://www.w3.org/2000/svg" xmlns:xlink="http://www.w3.org/1999/xlink" style="isolation:isolate" viewBox="0 0 48 48" width="48pt" height="48pt"><linearGradient id="_lgradient_8" x1="0.04062500000000003" y1="0.054347826086956486" x2="0.9683507709251103" y2="0.9739513503160315" gradientTransform="matrix(47,0,0,47,0.5,0.5)" gradientUnits="userSpaceOnUse"><stop offset="0%" stop-opacity="1" style="stop-color:rgb(240,107,169)"/><stop offset="98.69565217391305%" stop-opacity="1" style="stop-color:rgb(66,216,246)"/></linearGradient><path d=" M 22 19.414 C 19.673 19.214 17.403 18.667 15.264 17.794 C 15.024 19.186 14.869 20.59 14.797 22 L 14.797 22 L 22 22 L 22 19.414 Z  M 26 19.415 C 28.325 19.215 30.596 18.67 32.739 17.8 L 32.739 17.8 C 32.977 19.19 33.131 20.593 33.203 22 L 26 22 L 26 19.415 Z  M 22 29.586 C 19.73 29.78 17.514 30.305 15.421 31.14 C 15.092 29.444 14.884 27.725 14.797 26 L 14.797 26 L 22 26 L 22 29.586 Z  M 26 29.585 C 28.27 29.78 30.486 30.305 32.579 31.14 C 32.908 29.443 33.116 27.725 33.203 26 L 26 26 L 26 29.585 Z  M 22 33.603 C 20.08 33.801 18.21 34.283 16.448 35.027 L 16.448 35.027 L 16.448 35.027 C 16.825 36.145 17.289 37.234 17.83 38.29 C 18.25 39.1 18.74 39.88 19.3 40.61 C 19.77 41.22 20.3 41.78 20.89 42.27 C 21.234 42.55 21.604 42.788 22 42.989 L 22 33.603 Z  M 26 33.603 C 27.92 33.802 29.79 34.286 31.551 35.031 C 31.174 36.147 30.711 37.235 30.17 38.29 C 29.75 39.1 29.26 39.88 28.7 40.61 C 28.23 41.22 27.7 41.78 27.11 42.27 C 26.766 42.55 26.396 42.788 26 42.989 L 26 33.603 Z  M 22 15.397 C 19.974 15.187 18.003 14.66 16.159 13.844 L 16.159 13.844 L 16.159 13.844 C 16.59 12.421 17.149 11.039 17.83 9.71 C 18.25 8.9 18.74 8.12 19.3 7.39 C 19.77 6.78 20.3 6.22 20.89 5.73 C 21.234 5.45 21.604 5.212 22 5.011 L 22 15.397 Z  M 26 15.397 C 28.024 15.188 29.996 14.665 31.844 13.854 C 31.413 12.429 30.853 11.043 30.17 9.71 C 29.75 8.9 29.26 8.12 28.7 7.39 C 28.23 6.78 27.7 6.22 27.11 5.73 C 26.766 5.45 26.396 5.212 26 5.011 L 26 15.397 Z  M 43.397 22 C 43.066 18.798 41.946 15.734 40.153 13.079 L 40.153 13.079 L 39.6 13.57 C 38.618 14.443 37.57 15.226 36.463 15.904 L 36.463 15.904 C 36.866 17.913 37.114 19.953 37.208 22 L 43.397 22 L 43.397 22 Z  M 43.397 26 C 43.04 29.452 41.767 32.744 39.725 35.537 L 39.725 35.537 C 38.653 34.571 37.5 33.712 36.276 32.981 C 36.292 32.914 36.306 32.847 36.32 32.78 C 36.808 30.551 37.103 28.28 37.208 26 L 43.397 26 L 43.397 26 Z  M 4.603 26 C 4.96 29.454 6.234 32.746 8.277 35.54 C 9.348 34.574 10.5 33.714 11.725 32.983 C 11.708 32.915 11.694 32.848 11.68 32.78 C 11.192 30.551 10.897 28.28 10.792 26 L 4.603 26 L 4.603 26 Z  M 14.911 41.245 C 13.495 40.506 12.168 39.587 10.963 38.508 C 11.578 37.953 12.224 37.441 12.9 36.975 C 13.292 38.045 13.752 39.091 14.27 40.11 C 14.469 40.497 14.681 40.877 14.911 41.245 L 14.911 41.245 L 14.911 41.245 Z  M 35.1 36.976 C 35.776 37.442 36.424 37.953 37.039 38.506 C 35.833 39.586 34.506 40.506 33.089 41.245 C 33.319 40.877 33.531 40.497 33.73 40.11 C 34.248 39.092 34.708 38.046 35.1 36.976 L 35.1 36.976 L 35.1 36.976 Z  M 14.892 6.787 C 13.267 7.634 11.772 8.724 10.451 10.015 C 11.131 10.674 11.856 11.279 12.613 11.833 C 13.064 10.481 13.622 9.165 14.27 7.89 C 14.463 7.514 14.669 7.145 14.892 6.787 L 14.892 6.787 L 14.892 6.787 Z  M 35.38 11.816 C 35.924 11.439 36.442 11.023 36.94 10.58 L 37.585 10.008 L 37.585 10.008 C 36.242 8.708 34.732 7.618 33.099 6.772 C 33.326 7.135 33.534 7.509 33.73 7.89 C 34.375 9.158 34.931 10.469 35.38 11.816 L 35.38 11.816 L 35.38 11.816 Z  M 5.17 18.92 L 5.17 18.92 C 4.872 19.98 3.767 20.598 2.705 20.3 L 2.705 20.3 C 1.643 20.002 1.022 18.895 1.32 17.83 L 1.32 17.83 L 1.43 17.43 L 1.43 17.43 C 1.734 16.365 2.843 15.744 3.905 16.045 L 3.905 16.045 C 4.967 16.346 5.584 17.45 5.28 18.51 L 5.28 18.51 L 5.17 18.92 L 5.17 18.92 L 5.17 18.92 L 5.17 18.92 L 5.17 18.92 L 5.17 18.92 Z  M 4.5 22 C 2.292 22 0.5 22.896 0.5 24 L 0.5 24 L 0.5 24 C 0.5 24 0.5 24 0.5 24 C 0.5 30.23 2.98 36.21 7.38 40.62 C 11.79 45.02 17.77 47.5 24 47.5 L 24 47.5 L 24 47.5 L 24 47.5 C 30.23 47.5 36.21 45.02 40.62 40.62 C 45.02 36.21 47.5 30.23 47.5 24 L 47.5 24 C 47.5 17.77 45.02 11.79 40.62 7.38 C 36.21 2.98 30.23 0.5 24 0.5 L 24 0.5 C 24 0.5 24 0.5 24 0.5 L 24 0.5 C 15.91 0.51 8.37 4.68 4.08 11.54 L 4.08 11.54 C 3.495 12.473 3.78 13.705 4.715 14.29 L 4.715 14.29 C 5.65 14.875 6.885 14.593 7.47 13.66 L 7.47 13.66 L 7.47 13.66 L 7.47 13.66 C 7.594 13.462 7.722 13.266 7.854 13.074 C 8.989 14.147 10.221 15.096 11.536 15.9 L 11.536 15.9 C 11.134 17.913 10.886 19.95 10.792 22 L 4.5 22 L 4.5 22 L 4.5 22 L 4.5 22 Z " fill-rule="evenodd" fill="url(#_lgradient_8)"/></svg>