<?xml version="1.0" encoding="UTF-8" standalone="no"?><!-- Generator: Gravit.io --><svg xmlns="http://www.w3.org/2000/svg" xmlns:xlink="http://www.w3.org/1999/xlink" style="isolation:isolate" viewBox="0 0 48 48" width="48pt" height="48pt"><linearGradient id="_lgradient_13" x1="-0.014458464773922156" y1="0.009839246119734024" x2="1.0164565923220248" y2="1.0722930524759795" gradientTransform="matrix(41,0,0,43.5,3.5,2.5)" gradientUnits="userSpaceOnUse"><stop offset="0%" stop-opacity="1" style="stop-color:rgb(249,212,35)"/><stop offset="51.56237565086822%" stop-opacity="1" style="stop-color:rgb(255,78,80)"/><stop offset="99.1304347826087%" stop-opacity="1" style="stop-color:rgb(138,35,135)"/></linearGradient><path d=" M 24.185 43.752 L 24.185 43.752 C 24.795 43.751 25.292 44.243 25.293 44.852 L 25.293 44.852 C 25.295 45.46 24.804 45.955 24.198 45.957 L 24.198 45.957 L 14.606 46 L 14.606 46 C 13.996 46.001 13.499 45.509 13.497 44.901 L 13.497 44.901 C 13.496 44.292 13.987 43.797 14.593 43.795 L 14.593 43.795 L 24.185 43.752 L 24.185 43.752 L 24.185 43.752 L 24.185 43.752 L 24.185 43.752 L 24.185 43.752 L 24.185 43.752 Z  M 9 42.5 L 9 42.5 C 9.828 42.5 10.5 43.172 10.5 44 L 10.5 44 C 10.5 44.828 9.828 45.5 9 45.5 L 9 45.5 L 6.5 45.5 C 4.844 45.5 3.5 44.156 3.5 42.5 L 3.5 5.5 C 3.5 3.844 4.844 2.5 6.5 2.5 L 37 2.5 L 43 2.5 L 43 2.5 C 43.828 2.5 44.5 3.172 44.5 4 L 44.5 4 C 44.5 4.828 43.828 5.5 43 5.5 L 43 5.5 L 7.5 5.5 C 6.948 5.5 6.5 5.948 6.5 6.5 L 6.5 41.5 C 6.5 42.052 6.948 42.5 7.5 42.5 L 9 42.5 L 9 42.5 L 9 42.5 L 9 42.5 L 9 42.5 L 9 42.5 L 9 42.5 Z  M 41.5 11 L 41.5 11 C 41.5 10.172 42.172 9.5 43 9.5 L 43 9.5 C 43.828 9.5 44.5 10.172 44.5 11 L 44.5 11 L 44.5 42.5 C 44.5 44.156 43.156 45.5 41.5 45.5 L 30 45.5 L 30 45.5 C 29.172 45.5 28.5 44.828 28.5 44 L 28.5 44 C 28.5 43.172 29.172 42.5 30 42.5 L 30 42.5 L 40.5 42.5 C 41.052 42.5 41.5 42.052 41.5 41.5 L 41.5 11 L 41.5 11 L 41.5 11 L 41.5 11 L 41.5 11 L 41.5 11 Z  M 20.781 18 C 18.699 18 17 19.675 17 21.75 C 17 22.83 17.456 23.815 18.188 24.5 L 23.906 30 L 29.812 24.5 C 30.544 23.815 31 22.83 31 21.75 C 31 19.675 29.301 18 27.219 18 C 25.847 18 24.659 18.721 24 19.812 C 23.34 18.721 22.152 18 20.779 18 L 20.781 18 L 20.781 18 L 20.781 18 L 20.781 18 L 20.781 18 Z  M 11.621 14 C 10.728 14 10 14.698 10 15.562 C 10 16.012 10.195 16.422 10.509 16.708 L 12.96 19 L 15.491 16.708 C 15.805 16.423 16 16.012 16 15.562 C 16 14.698 15.272 14 14.379 14 C 13.792 14 13.283 14.3 13 14.755 C 12.717 14.3 12.208 14 11.621 14 L 11.621 14 L 11.621 14 L 11.621 14 L 11.621 14 Z  M 12.323 10.794 L 13.966 10.794 L 13.146 8.407 L 12.323 10.794 L 12.323 10.794 L 12.323 10.794 L 12.323 10.794 L 12.323 10.794 Z  M 36.379 34 C 37.272 34 38 33.302 38 32.438 C 38 31.988 37.805 31.577 37.491 31.292 L 35.04 29 L 32.509 31.292 C 32.195 31.577 32 31.988 32 32.438 C 32 33.302 32.728 34 33.621 34 C 34.208 34 34.717 33.7 35 33.245 C 35.283 33.7 35.792 34 36.379 34 L 36.379 34 Z  M 14.356 11.907 L 11.937 11.907 L 11.555 13 L 10 13 L 12.222 7 L 14.066 7 L 16.288 13 L 14.733 13 L 14.355 11.907 L 14.356 11.907 L 14.356 11.907 L 14.356 11.907 L 14.356 11.907 Z  M 35.678 37.206 L 34.034 37.206 L 34.854 39.593 L 35.677 37.206 L 35.678 37.206 L 35.678 37.206 Z  M 33.644 36.093 L 36.063 36.093 L 36.445 35 L 38 35 L 35.778 41 L 33.933 41 L 31.711 35 L 33.266 35 L 33.644 36.093 L 33.644 36.093 L 33.644 36.093 Z " fill-rule="evenodd" fill="url(#_lgradient_13)"/></svg>