<?xml version="1.0" encoding="UTF-8" standalone="no"?><!-- Generator: Gravit.io --><svg xmlns="http://www.w3.org/2000/svg" xmlns:xlink="http://www.w3.org/1999/xlink" style="isolation:isolate" viewBox="0 0 48 48" width="48pt" height="48pt"><linearGradient id="_lgradient_7" x1="0.41703096539162116" y1="0.019248826291079567" x2="0.679538131811658" y2="0.9641320015277046" gradientTransform="matrix(47,0,0,47.989,0.5,0.006)" gradientUnits="userSpaceOnUse"><stop offset="28.000000000000004%" stop-opacity="1" style="stop-color:rgb(0,205,215)"/><stop offset="94%" stop-opacity="1" style="stop-color:rgb(32,134,215)"/></linearGradient><path d=" M 26.652 28.662 L 19.378 24.416 C 18.499 25.096 17.397 25.5 16.2 25.5 C 13.328 25.5 11 23.172 11 20.3 C 11 17.428 13.328 15.1 16.2 15.1 L 16.2 15.1 C 17.397 15.1 18.499 15.504 19.378 16.184 L 26.652 11.938 C 26.618 11.697 26.6 11.451 26.6 11.2 C 26.6 8.328 28.928 6 31.8 6 L 31.8 6 C 34.672 6 37 8.328 37 11.2 C 37 14.072 34.672 16.4 31.8 16.4 C 30.604 16.4 29.502 15.996 28.623 15.317 L 21.347 19.558 C 21.382 19.8 21.4 20.048 21.4 20.3 C 21.4 20.552 21.382 20.8 21.347 21.042 L 28.623 25.283 C 29.502 24.604 30.604 24.2 31.8 24.2 L 31.8 24.2 C 34.672 24.2 37 26.528 37 29.4 C 37 32.272 34.672 34.6 31.8 34.6 C 28.928 34.6 26.6 32.272 26.6 29.4 C 26.6 29.149 26.618 28.903 26.652 28.662 Z  M 27.205 41.256 L 20.795 41.256 L 20.795 41.256 L 20.795 43.722 L 16.523 43.722 L 16.523 41.256 L 5.841 41.256 C 2.893 41.256 0.5 38.862 0.5 35.915 L 0.5 5.347 C 0.5 2.399 2.893 0.006 5.841 0.006 L 42.159 0.006 C 45.107 0.006 47.5 2.399 47.5 5.347 L 47.5 8.551 L 47.5 8.551 C 47.5 9.73 46.543 10.687 45.364 10.688 L 45.364 10.688 C 44.185 10.687 43.227 9.73 43.227 8.551 L 43.227 8.551 L 43.227 5.347 C 43.227 4.757 42.749 4.278 42.159 4.278 L 5.841 4.278 C 5.251 4.278 4.773 4.757 4.773 5.347 L 4.773 35.915 C 4.773 36.504 5.251 36.983 5.841 36.983 L 42.159 36.983 C 42.749 36.983 43.227 36.504 43.227 35.915 L 43.227 18.165 L 43.227 18.165 L 43.227 18.165 C 43.227 16.986 44.185 16.028 45.364 16.028 L 45.364 16.028 C 46.543 16.028 47.5 16.986 47.5 18.165 L 47.5 18.165 L 47.5 35.915 C 47.5 38.862 45.107 41.256 42.159 41.256 L 31.477 41.256 L 31.477 43.722 L 27.205 43.722 L 27.205 41.256 L 27.205 41.256 L 27.205 41.256 Z  M 10.114 43.722 L 37.886 43.722 C 39.065 43.722 40.023 44.679 40.023 45.858 L 40.023 45.858 C 40.023 47.037 39.065 47.994 37.886 47.994 L 10.114 47.994 C 8.935 47.994 7.977 47.037 7.977 45.858 L 7.977 45.858 C 7.977 44.679 8.935 43.722 10.114 43.722 L 10.114 43.722 L 10.114 43.722 L 10.114 43.722 L 10.114 43.722 Z " fill-rule="evenodd" fill="url(#_lgradient_7)"/></svg>