<?xml version="1.0" encoding="UTF-8" standalone="no"?><!-- Generator: Gravit.io --><svg xmlns="http://www.w3.org/2000/svg" xmlns:xlink="http://www.w3.org/1999/xlink" style="isolation:isolate" viewBox="0 0 48 48" width="48pt" height="48pt"><linearGradient id="_lgradient_33" x1="0" y1="0.5" x2="1" y2="0.5" gradientTransform="matrix(36,0,0,31.97,4,6.09)" gradientUnits="userSpaceOnUse"><stop offset="0%" stop-opacity="1" style="stop-color:rgb(24,208,173)"/><stop offset="90.44964029999998%" stop-opacity="1" style="stop-color:rgb(7,195,242)"/></linearGradient><path d=" M 11.65 34.85 L 11.65 35.89 L 10.66 38.06 L 9.58 37.02 C 6.02 33.63 4 28.92 4 24 C 4 19.33 5.82 14.84 9.07 11.49 L 10.11 10.41 L 11.65 12.5 L 11.22 13.57 C 8.52 16.37 7 20.11 7 24 C 7 28.1 8.68 32.02 11.65 34.85 Z  M 25.19 9.34 L 23.72 9.02 L 24.36 6.09 L 25.82 6.41 C 29.84 7.28 33.44 9.5 36.02 12.7 C 38.6 15.9 40 19.89 40 24 C 40 26.4 39.52 28.78 38.59 30.99 L 38.01 32.37 L 35.24 31.21 L 35.83 29.82 C 36.6 27.98 37 26 37 24 C 37 20.58 35.83 17.25 33.68 14.59 C 31.53 11.92 28.53 10.07 25.19 9.34 Z " fill-rule="evenodd" fill="url(#_lgradient_33)"/><linearGradient id="_lgradient_34" x1="0" y1="0.5" x2="1" y2="0.5" gradientTransform="matrix(39.2,0,0,46,6.4,1)" gradientUnits="userSpaceOnUse"><stop offset="0%" stop-opacity="1" style="stop-color:rgb(247,242,6)"/><stop offset="97.82608695652173%" stop-opacity="1" style="stop-color:rgb(255,187,36)"/></linearGradient><path d=" M 21.172 4 C 22.524 4 23.557 5.168 23.557 6.609 L 23.557 34 L 40.148 34 C 42.164 34.001 43.316 36.28 42.107 37.999 L 39.098 42.956 C 38.636 43.613 37.91 44 37.139 44 L 21.644 44 L 11.852 44 C 9.672 43.999 8.58 41.19 10.121 39.547 L 12.235 36.833 L 12.235 34.435 L 12.235 11.167 L 10.121 8.453 C 8.58 6.81 9.672 4.001 11.852 4 L 21.172 4 Z  M 21.19 1 C 22.69 1.01 24.11 1.65 25.11 2.77 C 26.05 3.83 26.57 5.21 26.56 6.62 L 26.56 31 L 40.14 31 C 41.64 31 43.07 31.61 44.1 32.69 C 45.07 33.72 45.61 35.08 45.6 36.49 C 45.59 37.61 45.25 38.71 44.62 39.63 L 41.66 44.51 C 41.63 44.56 41.6 44.61 41.57 44.65 C 40.57 46.1 38.93 46.98 37.17 47 C 37.16 47 37.15 47 37.14 47 L 21.64 47 L 11.85 47 C 11.85 47 11.85 47 11.85 47 C 10.3 47 8.83 46.32 7.81 45.16 C 6.9 44.11 6.39 42.76 6.4 41.37 C 6.4 39.98 6.91 38.65 7.82 37.62 L 9.24 35.8 L 9.24 34.43 L 9.24 12.2 L 7.82 10.38 C 6.91 9.35 6.4 8.02 6.4 6.63 C 6.39 5.24 6.9 3.89 7.81 2.84 C 8.83 1.68 10.3 1 11.85 1 C 11.85 1 11.85 1 11.85 1 L 21.17 1 C 21.18 1 21.18 1 21.19 1 Z " fill-rule="evenodd" fill="url(#_lgradient_34)"/></svg>