<?xml version="1.0" encoding="UTF-8" standalone="no"?><!-- Generator: Gravit.io --><svg xmlns="http://www.w3.org/2000/svg" xmlns:xlink="http://www.w3.org/1999/xlink" style="isolation:isolate" viewBox="0 0 48 48" width="48pt" height="48pt"><linearGradient id="_lgradient_27" x1="0" y1="0.5" x2="1" y2="0.5" gradientTransform="matrix(47.058,0,0,46.985,0.495,0.559)" gradientUnits="userSpaceOnUse"><stop offset="0%" stop-opacity="1" style="stop-color:rgb(84,51,255)"/><stop offset="51.73913043478261%" stop-opacity="1" style="stop-color:rgb(32,189,255)"/><stop offset="98.26086956521739%" stop-opacity="1" style="stop-color:rgb(165,254,203)"/></linearGradient><path d=" M 25.086 19.979 L 24.006 21.364 L 22.263 21.607 L 23.347 20.222 L 25.086 19.979 L 25.086 19.979 L 25.086 19.979 Z  M 26.946 43.046 C 27.187 42.015 27.593 40.947 28.123 40.343 C 28.849 39.516 28.987 38.857 29.002 36.172 C 29.013 33.95 29.038 33.689 29.324 32.693 C 29.81 30.997 30.614 29.8 31.202 28.941 C 31.501 28.505 31.977 27.726 32.262 27.21 C 32.547 26.695 32.961 26 33.182 25.667 C 33.757 24.797 35.587 23.595 36.195 23.309 C 36.874 22.99 37.622 22.131 37.87 21.385 C 38.124 20.619 38.047 19.41 37.715 18.966 C 37.519 18.705 37.394 18.659 36.892 18.659 C 36.432 18.659 36.233 18.598 36.004 18.383 C 35.69 18.088 35.459 18.128 35.459 18.477 C 35.459 18.751 34.443 19.272 34.321 19.151 C 34.27 19.1 34.322 18.81 34.438 18.506 C 34.865 17.393 35.004 16.684 34.936 15.964 C 34.824 14.778 34.085 12.964 33.682 12.886 C 33.586 12.868 33.06 13.227 32.514 13.686 C 29.668 16.081 27.504 17.126 25.998 18.036 C 25.279 18.47 25.277 18.469 24.065 18.443 C 22.63 18.412 22.879 18.639 20.485 20.09 C 19.656 20.592 18.722 21.551 18.409 21.669 C 18.095 21.789 17.099 21.962 16.18 22.056 C 14.293 22.25 13.788 22.366 13.082 22.773 C 12.384 23.177 12.207 23.477 12.355 24.015 C 12.501 24.542 13.274 25.579 14.203 26.493 L 14.903 27.181 L 14.365 28.016 C 14.067 28.475 13.618 29.324 13.369 29.902 C 12.873 31.05 12.737 31.266 11.749 32.482 C 11.016 33.385 9.886 34.626 9.017 36.055 L 9.017 36.055 C 6.321 32.706 4.813 28.527 4.774 24.189 C 4.73 19.333 6.516 14.633 9.789 11.041 C 13.061 7.45 17.576 5.238 22.417 4.831 L 22.417 4.831 C 23.591 4.732 24.466 3.696 24.37 2.519 L 24.37 2.519 C 24.273 1.342 23.237 0.467 22.058 0.567 L 22.058 0.567 C 16.148 1.059 10.632 3.772 6.629 8.161 C 2.636 12.55 0.442 18.292 0.496 24.227 C 0.552 30.462 3.088 36.429 7.534 40.806 C 11.99 45.172 18.002 47.599 24.237 47.543 C 30.472 47.486 36.438 44.951 40.815 40.505 C 45.181 36.048 47.608 30.037 47.552 23.802 L 47.552 23.802 C 47.541 22.621 46.574 21.672 45.394 21.682 L 45.394 21.682 C 44.213 21.693 43.263 22.66 43.274 23.841 L 43.274 23.841 C 43.32 28.942 41.333 33.858 37.761 37.506 C 34.829 40.483 31.027 42.414 26.946 43.046 L 26.946 43.046 Z  M 40.99 14.909 L 40.99 14.909 C 41.548 15.949 42.846 16.34 43.886 15.781 L 43.886 15.781 C 44.925 15.223 45.316 13.925 44.758 12.886 L 44.758 12.886 C 42.376 8.458 38.632 4.898 34.088 2.747 L 34.088 2.747 C 33.021 2.237 31.743 2.689 31.237 3.756 L 31.237 3.756 C 30.73 4.824 31.185 6.104 32.252 6.614 L 32.252 6.614 C 35.979 8.377 39.032 11.28 40.99 14.909 Z " fill-rule="evenodd" fill="url(#_lgradient_27)"/></svg>