<?xml version="1.0" encoding="UTF-8" standalone="no"?><!-- Generator: Gravit.io --><svg xmlns="http://www.w3.org/2000/svg" xmlns:xlink="http://www.w3.org/1999/xlink" style="isolation:isolate" viewBox="0 0 48 48" width="48pt" height="48pt"><linearGradient id="_lgradient_0" x1="0" y1="0.5" x2="0.9074880558539661" y2="0.9200778838291643" gradientTransform="matrix(20,0,0,20,25.124,26)" gradientUnits="userSpaceOnUse"><stop offset="0%" stop-opacity="1" style="stop-color:rgb(0,196,255)"/><stop offset="83.88839793817618%" stop-opacity="1" style="stop-color:rgb(0,114,255)"/></linearGradient><linearGradient id="_lgradient_1" x1="0" y1="0.5" x2="0.9074880558539661" y2="0.9200778838291643"><stop offset="0%" stop-opacity="1" style="stop-color:rgb(0,196,255)"/><stop offset="83.88839793817618%" stop-opacity="1" style="stop-color:rgb(0,114,255)"/></linearGradient><path d=" M 26.943 35.391 L 26.943 35.391 C 26.905 35.89 26.468 36.266 25.966 36.23 L 25.966 36.23 C 25.465 36.193 25.089 35.756 25.127 35.255 L 25.127 35.255 C 25.313 32.741 26.447 30.386 28.299 28.668 C 30.151 26.955 32.586 26 35.112 26 C 37.765 26 40.314 27.055 42.193 28.927 C 44.068 30.805 45.124 33.35 45.124 36 C 45.124 38.65 44.068 41.195 42.193 43.073 C 40.314 44.945 37.765 46 35.112 46 L 35.112 46 C 34.609 46 34.202 45.593 34.202 45.091 L 34.202 45.091 C 34.202 44.589 34.609 44.182 35.112 44.182 L 35.112 44.182 C 37.283 44.182 39.367 43.318 40.905 41.786 C 42.439 40.25 43.304 38.168 43.304 36 C 43.304 33.832 42.439 31.75 40.905 30.214 C 39.367 28.682 37.283 27.818 35.112 27.818 C 33.046 27.818 31.052 28.595 29.537 30 C 28.021 31.405 27.097 33.332 26.943 35.391 L 26.943 35.391 Z  M 31.303 43.245 L 31.303 43.245 C 31.747 43.479 31.918 44.029 31.685 44.473 L 31.685 44.473 C 31.451 44.917 30.901 45.088 30.456 44.855 L 30.456 44.855 C 28.563 43.859 27.034 42.282 26.101 40.359 L 26.101 40.359 C 25.88 39.908 26.067 39.363 26.519 39.143 L 26.519 39.143 C 26.972 38.924 27.518 39.112 27.739 39.564 L 27.739 39.564 C 28.504 41.141 29.751 42.427 31.303 43.245 L 31.303 43.245 Z  M 37.812 33.503 L 37.812 33.503 C 37.918 33.181 38.265 33.006 38.586 33.113 L 38.586 33.113 C 38.907 33.22 39.08 33.567 38.972 33.887 L 38.972 33.887 L 37.658 38.538 C 37.536 38.972 37.199 39.045 36.907 38.702 L 35.389 36.915 C 35.243 36.743 35.006 36.743 34.86 36.915 L 33.341 38.702 C 33.049 39.045 32.713 38.972 32.59 38.538 L 31.276 33.887 L 31.276 33.887 C 31.168 33.567 31.341 33.22 31.662 33.113 L 31.662 33.113 C 31.984 33.006 32.33 33.181 32.436 33.503 L 32.436 33.503 L 33.351 37.053 L 34.867 35.189 C 35.009 35.014 35.24 35.014 35.382 35.189 L 36.897 37.053 L 37.812 33.503 Z " fill-rule="evenodd" fill="url(#_lgradient_0)" vector-effect="non-scaling-stroke" stroke-width="1" stroke="url(#_lgradient_1)" stroke-linejoin="miter" stroke-linecap="square" stroke-miterlimit="3"/><linearGradient id="_lgradient_2" x1="0" y1="0.5" x2="0.9074880558539661" y2="0.9200778838291643" gradientTransform="matrix(40,0,0,44,2,2)" gradientUnits="userSpaceOnUse"><stop offset="0%" stop-opacity="1" style="stop-color:rgb(0,196,255)"/><stop offset="83.88839793817618%" stop-opacity="1" style="stop-color:rgb(0,114,255)"/></linearGradient><path d=" M 31 6 L 31 6 C 29.896 6 29 5.104 29 4 L 29 4 C 29 2.896 29.896 2 31 2 L 31 2 L 37 2 C 39.76 2 42 4.24 42 7 L 42 13 L 42 13 C 42 14.104 41.104 15 40 15 L 40 15 C 38.896 15 38 14.104 38 13 L 38 13 L 38 9 C 38 7.344 36.656 6 35 6 L 31 6 L 31 6 L 31 6 L 31 6 Z  M 22 42 L 22 42 C 23.104 42 24 42.896 24 44 L 24 44 C 24 45.104 23.104 46 22 46 L 22 46 L 7 46 C 4.24 46 2 43.76 2 41 L 2 7 C 2 4.24 4.24 2 7 2 L 20.77 2 C 22.426 2 24.695 2.975 25.835 4.176 L 41.34 20.51 L 41.34 20.51 C 42.157 21.25 42.222 22.515 41.485 23.335 L 41.485 23.335 C 40.748 24.155 39.482 24.224 38.66 23.49 L 38.66 23.49 L 22.915 6.729 C 22.537 6.327 21.782 6 21.23 6 L 9 6 C 7.344 6 6 7.344 6 9 L 6 39 C 6 40.656 7.344 42 9 42 L 22 42 L 22 42 L 22 42 L 22 42 Z  M 10.5 11 L 20.748 11 C 21.576 11 22.248 11.672 22.248 12.5 L 22.248 13.5 C 22.248 14.328 21.576 15 20.748 15 L 10.5 15 C 9.672 15 9 14.328 9 13.5 L 9 12.5 C 9 11.672 9.672 11 10.5 11 L 10.5 11 L 10.5 11 Z  M 10.5 27 L 22.748 27 C 23.576 27 24.248 27.672 24.248 28.5 L 24.248 29.5 C 24.248 30.328 23.576 31 22.748 31 L 10.5 31 C 9.672 31 9 30.328 9 29.5 L 9 28.5 C 9 27.672 9.672 27 10.5 27 L 10.5 27 Z  M 10.5 19 L 28.748 19 C 29.576 19 30.248 19.672 30.248 20.5 L 30.248 21.5 C 30.248 22.328 29.576 23 28.748 23 L 10.5 23 C 9.672 23 9 22.328 9 21.5 L 9 20.5 C 9 19.672 9.672 19 10.5 19 Z " fill-rule="evenodd" fill="url(#_lgradient_2)"/></svg>