<?xml version="1.0" encoding="UTF-8" standalone="no"?><!-- Generator: Gravit.io --><svg xmlns="http://www.w3.org/2000/svg" xmlns:xlink="http://www.w3.org/1999/xlink" style="isolation:isolate" viewBox="0 0 48 48" width="48pt" height="48pt"><linearGradient id="_lgradient_6" x1="0" y1="0.5" x2="1" y2="0.5" gradientTransform="matrix(20,0,0,20,25.124,26)" gradientUnits="userSpaceOnUse"><stop offset="0%" stop-opacity="1" style="stop-color:rgb(247,242,6)"/><stop offset="97.82608695652173%" stop-opacity="1" style="stop-color:rgb(255,187,36)"/></linearGradient><linearGradient id="_lgradient_7" x1="0" y1="0.5" x2="1" y2="0.5"><stop offset="0%" stop-opacity="1" style="stop-color:rgb(247,242,6)"/><stop offset="97.82608695652173%" stop-opacity="1" style="stop-color:rgb(255,187,36)"/></linearGradient><path d=" M 26.943 35.391 L 26.943 35.391 C 26.905 35.89 26.468 36.266 25.966 36.23 L 25.966 36.23 C 25.465 36.193 25.089 35.756 25.127 35.255 L 25.127 35.255 C 25.313 32.741 26.447 30.386 28.299 28.668 C 30.151 26.955 32.586 26 35.112 26 C 37.765 26 40.314 27.055 42.193 28.927 C 44.068 30.805 45.124 33.35 45.124 36 C 45.124 38.65 44.068 41.195 42.193 43.073 C 40.314 44.945 37.765 46 35.112 46 L 35.112 46 C 34.609 46 34.202 45.593 34.202 45.091 L 34.202 45.091 C 34.202 44.589 34.609 44.182 35.112 44.182 L 35.112 44.182 C 37.283 44.182 39.367 43.318 40.905 41.786 C 42.439 40.25 43.304 38.168 43.304 36 C 43.304 33.832 42.439 31.75 40.905 30.214 C 39.367 28.682 37.283 27.818 35.112 27.818 C 33.046 27.818 31.052 28.595 29.537 30 C 28.021 31.405 27.097 33.332 26.943 35.391 L 26.943 35.391 Z  M 31.303 43.245 L 31.303 43.245 C 31.747 43.479 31.918 44.029 31.685 44.473 L 31.685 44.473 C 31.451 44.917 30.901 45.088 30.456 44.855 L 30.456 44.855 C 28.563 43.859 27.034 42.282 26.101 40.359 L 26.101 40.359 C 25.88 39.908 26.067 39.363 26.519 39.143 L 26.519 39.143 C 26.972 38.924 27.518 39.112 27.739 39.564 L 27.739 39.564 C 28.504 41.141 29.751 42.427 31.303 43.245 L 31.303 43.245 Z  M 33.539 32.676 C 34.015 32.773 34.489 32.903 34.946 33.065 C 35.392 33.223 35.808 33.45 36.177 33.738 C 36.373 33.888 36.55 34.061 36.708 34.253 C 36.85 34.43 36.969 34.619 37.066 34.823 C 37.169 35.038 37.246 35.265 37.293 35.5 C 37.354 35.792 37.385 36.088 37.385 36.384 C 37.385 36.657 37.354 36.93 37.293 37.196 C 37.246 37.4 37.173 37.596 37.073 37.777 C 36.981 37.95 36.866 38.107 36.731 38.25 C 36.573 38.411 36.396 38.557 36.204 38.677 C 36.023 38.788 35.827 38.888 35.627 38.965 C 35.358 39.073 35.081 39.157 34.796 39.227 C 34.508 39.292 34.212 39.342 33.919 39.377 C 33.792 39.392 33.665 39.407 33.539 39.415 L 33.539 32.676 L 33.539 32.676 Z  M 32.865 31.007 C 33.746 31.115 34.615 31.319 35.458 31.615 C 36.058 31.826 36.619 32.13 37.123 32.523 C 37.408 32.746 37.669 33 37.9 33.28 C 38.119 33.553 38.308 33.85 38.454 34.161 C 38.612 34.488 38.727 34.834 38.8 35.188 C 38.881 35.58 38.923 35.98 38.923 36.384 C 38.923 36.773 38.881 37.161 38.793 37.538 C 38.716 37.877 38.593 38.204 38.431 38.507 C 38.269 38.804 38.073 39.073 37.839 39.315 C 37.596 39.569 37.319 39.792 37.019 39.981 C 36.758 40.146 36.481 40.284 36.192 40.396 C 35.85 40.531 35.5 40.642 35.146 40.723 C 34.8 40.804 34.45 40.865 34.096 40.908 C 33.662 40.958 33.227 40.988 32.788 41 C 32.581 41.004 32.381 40.927 32.231 40.781 C 32.085 40.638 32 40.438 32 40.231 L 32 31.769 C 32 31.55 32.096 31.338 32.262 31.192 C 32.427 31.046 32.646 30.976 32.865 31.007 L 32.865 31.007 Z " fill-rule="evenodd" fill="url(#_lgradient_6)" vector-effect="non-scaling-stroke" stroke-width="1" stroke="url(#_lgradient_7)" stroke-linejoin="miter" stroke-linecap="square" stroke-miterlimit="3"/><linearGradient id="_lgradient_8" x1="0" y1="0.5" x2="1" y2="0.5" gradientTransform="matrix(40,0,0,44,2,2)" gradientUnits="userSpaceOnUse"><stop offset="0%" stop-opacity="1" style="stop-color:rgb(247,242,6)"/><stop offset="97.82608695652173%" stop-opacity="1" style="stop-color:rgb(255,187,36)"/></linearGradient><path d=" M 31 6 L 31 6 C 29.896 6 29 5.104 29 4 L 29 4 C 29 2.896 29.896 2 31 2 L 31 2 L 37 2 C 39.76 2 42 4.24 42 7 L 42 13 L 42 13 C 42 14.104 41.104 15 40 15 L 40 15 C 38.896 15 38 14.104 38 13 L 38 13 L 38 9 C 38 7.344 36.656 6 35 6 L 31 6 L 31 6 Z  M 22 42 L 22 42 C 23.104 42 24 42.896 24 44 L 24 44 C 24 45.104 23.104 46 22 46 L 22 46 L 7 46 C 4.24 46 2 43.76 2 41 L 2 7 C 2 4.24 4.24 2 7 2 L 20.77 2 C 22.426 2 24.695 2.975 25.835 4.176 L 41.34 20.51 L 41.34 20.51 C 42.157 21.25 42.222 22.515 41.485 23.335 L 41.485 23.335 C 40.748 24.155 39.482 24.224 38.66 23.49 L 38.66 23.49 L 22.915 6.729 C 22.537 6.327 21.782 6 21.23 6 L 9 6 C 7.344 6 6 7.344 6 9 L 6 39 C 6 40.656 7.344 42 9 42 L 22 42 L 22 42 Z  M 20.23 11.337 L 20.23 11.337 C 20.319 10.515 21.059 9.92 21.881 10.009 L 21.881 10.009 C 22.703 10.098 23.3 10.842 23.212 11.669 L 23.212 11.669 C 23.198 11.803 23.206 11.938 23.245 12.073 C 23.322 12.396 23.409 12.716 23.514 13.029 C 23.63 13.37 23.724 13.709 23.821 14.057 C 23.927 14.455 23.981 14.861 23.999 15.281 C 24.013 15.809 23.898 16.332 23.645 16.799 C 23.359 17.322 22.905 17.736 22.363 18.001 C 22.126 18.11 21.88 18.223 21.633 18.304 C 21.164 18.478 20.685 18.624 20.206 18.77 C 19.723 18.906 19.253 19.049 18.785 19.223 C 18.434 19.342 18.098 19.499 17.785 19.69 C 17.592 19.804 17.433 19.949 17.306 20.124 C 17.221 20.241 17.175 20.375 17.164 20.518 C 17.148 20.876 17.217 21.234 17.361 21.565 C 17.472 21.865 17.602 22.158 17.761 22.441 C 18.402 23.077 19.002 23.772 19.53 24.504 C 20.011 25.168 20.409 25.895 20.707 26.669 C 20.967 27.341 21.105 28.058 21.12 28.788 C 21.127 29.468 20.986 30.15 20.707 30.776 C 20.142 31.957 19.122 32.858 17.884 33.286 C 17.121 33.559 16.319 33.696 15.505 33.689 C 14.619 33.687 13.738 33.556 12.898 33.303 C 11.952 33.025 11.036 32.628 10.193 32.109 C 9.234 31.538 8.35 30.852 7.561 30.078 L 7.561 30.078 C 6.974 29.496 6.967 28.543 7.545 27.951 L 7.545 27.951 C 8.123 27.36 9.073 27.351 9.666 27.932 L 9.666 27.932 C 10.291 28.553 10.993 29.092 11.736 29.542 C 12.369 29.925 13.043 30.219 13.75 30.426 C 14.325 30.597 14.923 30.684 15.521 30.686 C 15.992 30.692 16.455 30.616 16.896 30.453 C 17.371 30.297 17.759 29.962 17.987 29.514 C 18.078 29.299 18.121 29.07 18.119 28.836 C 18.11 28.466 18.037 28.098 17.908 27.751 C 17.701 27.22 17.431 26.723 17.099 26.26 C 16.591 25.552 16.009 24.904 15.375 24.318 C 15.054 23.798 14.782 23.237 14.566 22.656 C 14.266 21.935 14.139 21.161 14.166 20.373 C 14.208 19.653 14.45 18.955 14.864 18.375 C 15.239 17.862 15.709 17.432 16.252 17.113 C 16.732 16.827 17.24 16.586 17.778 16.397 C 18.306 16.211 18.838 16.035 19.387 15.874 C 19.804 15.762 20.214 15.631 20.617 15.481 C 20.748 15.432 20.87 15.387 20.998 15.329 C 20.989 15.162 20.967 14.988 20.917 14.826 C 20.845 14.543 20.762 14.264 20.667 13.98 C 20.537 13.601 20.423 13.206 20.33 12.814 C 20.203 12.328 20.167 11.829 20.23 11.337 Z " fill-rule="evenodd" fill="url(#_lgradient_8)"/></svg>