<?xml version="1.0" encoding="UTF-8" standalone="no"?><!-- Generator: Gravit.io --><svg xmlns="http://www.w3.org/2000/svg" xmlns:xlink="http://www.w3.org/1999/xlink" style="isolation:isolate" viewBox="0 0 48 48" width="48pt" height="48pt"><linearGradient id="_lgradient_20" x1="0.34027777777777773" y1="0.036585365853658625" x2="1.0087187958883996" y2="1.012732351993124" gradientTransform="matrix(-54.312,-30.106,-30.197,54.476,66.255,11.815)" gradientUnits="userSpaceOnUse"><stop offset="0%" stop-opacity="1" style="stop-color:rgb(156,51,196)"/><stop offset="51.30434782608696%" stop-opacity="1" style="stop-color:rgb(255,25,80)"/><stop offset="98.69565217391305%" stop-opacity="1" style="stop-color:rgb(255,135,36)"/></linearGradient><path d=" M 7.637 33.823 L 8.056 34.456 L 8.056 34.456 C 9.742 37.026 12.025 39.137 14.71 40.625 C 17.299 42.06 20.187 42.872 23.141 42.989 L 23.141 42.989 C 24.246 43.034 25.107 43.967 25.062 45.072 L 25.062 45.072 C 25.018 46.177 24.084 47.037 22.98 46.993 L 22.98 46.993 C 19.4 46.85 15.902 45.859 12.771 44.124 C 9.727 42.436 7.11 40.085 5.115 37.249 C 4.75 38.248 3.657 38.787 2.636 38.46 L 2.636 38.46 C 1.585 38.124 1.005 36.998 1.341 35.948 L 1.341 35.948 L 2.748 31.538 C 3.083 30.486 4.251 29.671 5.354 29.719 L 9.352 29.892 L 9.352 29.892 C 10.449 29.938 11.303 30.87 11.257 31.971 L 11.257 31.971 C 11.212 33.073 10.278 33.93 9.173 33.886 L 9.173 33.886 L 7.637 33.823 L 7.637 33.823 L 7.637 33.823 Z  M 40.514 14.763 L 40.514 14.763 C 41.053 15.724 42.275 16.071 43.24 15.536 L 43.24 15.536 C 44.206 15.002 44.553 13.783 44.016 12.817 L 44.016 12.817 C 41.924 9.062 38.824 5.971 35.072 3.891 C 31.67 2.005 27.84 1.014 23.946 1.005 L 23.946 1.005 C 22.842 1.005 21.945 1.902 21.945 3.006 L 21.945 3.006 C 21.945 4.111 22.842 5.007 23.946 5.007 L 23.946 5.007 C 27.16 5.005 30.316 5.829 33.133 7.39 C 36.238 9.111 38.792 11.659 40.514 14.763 L 40.514 14.763 L 40.514 14.763 L 40.514 14.763 L 40.514 14.763 Z  M 34.149 40.024 L 34.149 40.024 C 33.214 40.617 32.938 41.854 33.532 42.786 L 33.532 42.786 C 34.126 43.718 35.363 43.992 36.293 43.396 L 36.293 43.396 C 39.522 41.345 42.181 38.508 44.037 35.158 C 45.453 32.604 46.373 29.81 46.738 26.925 L 46.738 26.925 C 46.878 25.829 46.102 24.825 45.007 24.685 L 45.007 24.685 C 43.911 24.544 42.907 25.32 42.766 26.416 L 42.766 26.416 C 42.473 28.803 41.707 31.111 40.539 33.219 C 39.007 35.983 36.808 38.32 34.149 40.024 L 34.149 40.024 L 34.149 40.024 L 34.149 40.024 L 34.149 40.024 Z  M 31.211 45.324 C 31.746 44.359 31.396 43.14 30.431 42.605 C 29.466 42.07 28.247 42.419 27.712 43.385 C 27.177 44.35 27.526 45.569 28.492 46.104 C 29.457 46.639 30.676 46.29 31.211 45.324 L 31.211 45.324 Z  M 30.918 27.886 C 31.946 26.032 32.2 23.84 31.616 21.801 C 31.031 19.762 29.654 18.038 27.8 17.011 C 25.946 15.983 23.754 15.728 21.715 16.313 C 19.676 16.898 17.952 18.275 16.924 20.129 C 15.896 21.983 15.642 24.175 16.227 26.214 C 16.812 28.253 18.189 29.977 20.043 31.004 C 21.897 32.032 24.088 32.287 26.128 31.702 C 28.167 31.117 29.89 29.74 30.918 27.886 L 30.918 27.886 Z  M 34.417 29.825 C 35.958 27.044 36.331 23.752 35.463 20.698 C 34.581 17.648 32.52 15.054 29.739 13.512 C 26.958 11.97 23.666 11.598 20.612 12.466 C 17.562 13.348 14.967 15.408 13.426 18.19 C 11.884 20.971 11.511 24.263 12.38 27.317 C 13.262 30.367 15.322 32.961 18.104 34.503 C 20.885 36.045 24.177 36.417 27.231 35.549 C 30.281 34.667 32.875 32.606 34.417 29.825 L 34.417 29.825 Z " fill-rule="evenodd" fill="url(#_lgradient_20)"/></svg>