<?xml version="1.0" encoding="UTF-8" standalone="no"?><!-- Generator: Gravit.io --><svg xmlns="http://www.w3.org/2000/svg" xmlns:xlink="http://www.w3.org/1999/xlink" style="isolation:isolate" viewBox="0 0 48 48" width="48pt" height="48pt"><linearGradient id="_lgradient_49" x1="0.18336115895060273" y1="0.24917751794896525" x2="0.9027436828643176" y2="0.9034772483231972" gradientTransform="matrix(47,0,0,46.428,0.5,0.786)" gradientUnits="userSpaceOnUse"><stop offset="2.608695652173913%" stop-opacity="1" style="stop-color:rgb(179,255,171)"/><stop offset="98.69565217391305%" stop-opacity="1" style="stop-color:rgb(18,255,247)"/></linearGradient><path d=" M 17.826 7.993 L 17.826 7.993 C 17.098 8.421 16.159 8.179 15.731 7.451 L 15.731 7.451 C 15.302 6.723 15.545 5.784 16.272 5.355 L 16.272 5.355 L 24.031 0.786 L 47.5 16.068 L 47.5 42.941 L 38.658 47.214 L 29.397 42.962 L 29.397 33.251 L 35.183 27.465 L 35.183 21.935 L 23.949 13.778 L 11.642 21.976 L 11.642 27.414 L 18.582 33.588 L 18.582 42.972 L 9.321 47.142 L 0.5 42.951 L 0.5 15.741 L 9.219 9.516 L 9.219 9.516 C 9.907 9.025 10.865 9.185 11.356 9.873 L 11.356 9.873 C 11.846 10.562 11.686 11.519 10.998 12.01 L 10.998 12.01 L 3.567 17.325 L 3.567 41.009 L 9.352 43.759 L 15.516 40.989 L 15.516 34.958 L 8.575 28.784 L 8.575 20.341 L 24.031 10.037 L 38.249 20.381 L 38.249 28.733 L 32.464 34.518 L 32.464 40.999 L 38.627 43.82 L 44.433 41.019 L 44.433 17.724 L 23.949 4.384 L 17.826 7.993 Z " fill="url(#_lgradient_49)"/></svg>