<?xml version="1.0" encoding="UTF-8" standalone="no"?><!-- Generator: Gravit.io --><svg xmlns="http://www.w3.org/2000/svg" xmlns:xlink="http://www.w3.org/1999/xlink" style="isolation:isolate" viewBox="0 0 48 48" width="48pt" height="48pt"><linearGradient id="_lgradient_1" x1="0.6875000000000001" y1="0.08680555555555564" x2="0.46398875814962703" y2="1.1753880853082963" gradientTransform="matrix(4,0,0,36,22,6)" gradientUnits="userSpaceOnUse"><stop offset="0%" stop-opacity="1" style="stop-color:rgb(78,84,200)"/><stop offset="83.88839793817618%" stop-opacity="1" style="stop-color:rgb(0,114,255)"/></linearGradient><path d=" M 23 6 L 25 6 C 25.552 6 26 6.448 26 7 L 26 41 C 26 41.552 25.552 42 25 42 L 23 42 C 22.448 42 22 41.552 22 41 L 22 7 C 22 6.448 22.448 6 23 6 Z " fill="url(#_lgradient_1)"/><linearGradient id="_lgradient_2" x1="0" y1="0.5" x2="1" y2="0.5" gradientTransform="matrix(47,0,0,46,0.5,1)" gradientUnits="userSpaceOnUse"><stop offset="0%" stop-opacity="1" style="stop-color:rgb(84,51,255)"/><stop offset="51.73913043478261%" stop-opacity="1" style="stop-color:rgb(32,189,255)"/><stop offset="98.26086956521739%" stop-opacity="1" style="stop-color:rgb(165,254,203)"/></linearGradient><path d=" M 28 47 L 4.5 47 C 2.292 47 0.5 45.208 0.5 43 L 0.5 22.5 L 0.5 22.5 C 0.5 21.672 1.172 21 2 21 L 2 21 C 2.828 21 3.5 21.672 3.5 22.5 L 3.5 22.5 L 3.5 42 C 3.5 43.104 4.396 44 5.5 44 L 19.25 44 L 28 44 L 30 44 L 42.5 44 C 43.604 44 44.5 43.104 44.5 42 L 44.5 30.5 L 44.5 30.5 C 44.5 29.672 45.172 29 46 29 L 46 29 C 46.828 29 47.5 29.672 47.5 30.5 L 47.5 30.5 L 47.5 43 C 47.5 45.208 45.708 47 43.5 47 L 30 47 L 28 47 L 28 47 L 28 47 Z  M 13 26 L 13 29 L 6 24 L 13 19 L 13 22 L 18 22 L 18 26 L 13 26 L 13 26 L 13 26 Z  M 35 26 L 35 29 L 42 24 L 35 19 L 35 22 L 30 22 L 30 26 L 35 26 L 35 26 Z  M 44.5 16.5 L 44.5 16.5 C 44.5 17.328 45.172 18 46 18 L 46 18 C 46.828 18 47.5 17.328 47.5 16.5 L 47.5 16.5 L 47.5 5 C 47.5 2.792 45.708 1 43.5 1 L 4.5 1 C 2.292 1 0.5 2.792 0.5 5 L 0.5 9.5 L 0.5 9.5 C 0.5 10.328 1.172 11 2 11 L 2 11 C 2.828 11 3.5 10.328 3.5 9.5 L 3.5 9.5 L 3.5 6 C 3.5 4.896 4.396 4 5.5 4 L 42.5 4 C 43.604 4 44.5 4.896 44.5 6 L 44.5 16.5 Z " fill-rule="evenodd" fill="url(#_lgradient_2)"/></svg>