<?xml version="1.0" encoding="UTF-8" standalone="no"?><!-- Generator: Gravit.io --><svg xmlns="http://www.w3.org/2000/svg" xmlns:xlink="http://www.w3.org/1999/xlink" style="isolation:isolate" viewBox="0 0 48 48" width="48pt" height="48pt"><linearGradient id="_lgradient_1" x1="0" y1="0.5" x2="0.9074880558539661" y2="0.9200778838291643" gradientTransform="matrix(44,0,0,43.975,2,2.012)" gradientUnits="userSpaceOnUse"><stop offset="0%" stop-opacity="1" style="stop-color:rgb(0,196,255)"/><stop offset="83.88839793817618%" stop-opacity="1" style="stop-color:rgb(0,114,255)"/></linearGradient><path d=" M 23.503 2.012 C 11.557 2.282 2.01 12.039 2 23.988 C 2 36.138 11.85 45.988 24 45.988 C 36.15 45.988 46 36.138 46 23.988 C 45.978 16.795 42.441 10.068 36.528 5.972 L 36.528 11.41 C 38.585 14.127 39.703 17.438 39.714 20.845 C 39.714 29.524 32.679 36.559 24 36.559 C 15.321 36.559 8.286 29.524 8.286 20.845 C 8.295 13.496 13.397 7.134 20.569 5.53 C 21.468 4.458 22.581 3.119 23.049 2.546 C 23.205 2.354 23.351 2.191 23.503 2.012 Z  M 29.156 5.161 C 29.04 5.213 28.484 5.828 27.916 6.524 C 27.348 7.22 26.108 8.706 25.16 9.833 C 24.212 10.959 22.412 13.115 21.164 14.621 C 18.712 17.579 18.321 18.175 17.917 19.58 C 17.665 20.458 17.642 21.875 17.868 22.699 C 18.486 24.956 20.551 26.647 23.214 27.081 C 23.335 27.101 23.754 27.125 24.141 27.131 C 25.755 27.154 27.127 26.609 28.291 25.479 C 28.904 24.884 29.074 24.65 29.451 23.89 C 29.694 23.4 29.957 22.746 30.04 22.441 C 30.253 21.657 30.353 20.038 30.243 16.333 L 30.243 5.542 C 30.185 5.25 29.418 5.045 29.156 5.161 Z " fill="url(#_lgradient_1)"/></svg>