<?xml version="1.0" encoding="UTF-8" standalone="no"?><!-- Generator: Gravit.io --><svg xmlns="http://www.w3.org/2000/svg" xmlns:xlink="http://www.w3.org/1999/xlink" style="isolation:isolate" viewBox="0 0 48 48" width="48pt" height="48pt"><linearGradient id="_lgradient_13" x1="0.24955340304810814" y1="0.9281914893617024" x2="0.7331744178517607" y2="0.08776595744680826" gradientTransform="matrix(43.422,0,0,47,2.289,0.5)" gradientUnits="userSpaceOnUse"><stop offset="0%" stop-opacity="1" style="stop-color:rgb(198,255,221)"/><stop offset="50%" stop-opacity="1" style="stop-color:rgb(251,215,134)"/><stop offset="100%" stop-opacity="1" style="stop-color:rgb(247,121,125)"/></linearGradient><path d=" M 32.157 8 L 32.157 7.737 C 32.157 6.91 31.837 6.124 31.247 5.535 C 30.668 4.956 29.883 4.635 29.056 4.635 L 18.944 4.635 L 18.944 4.635 L 18.944 4.635 C 18.117 4.635 17.332 4.956 16.753 5.535 C 16.163 6.124 15.843 6.91 15.843 7.737 L 15.843 8 L 15.843 8 L 19 8 C 19.554 8 20 8.446 20 9 C 20 9.554 19.554 10 19 10 L 15.843 10 L 15.843 12 L 15.843 12 L 19 12 C 19.554 12 20 12.446 20 13 C 20 13.554 19.554 14 19 14 L 15.843 14 L 15.843 16 L 15.843 16 L 19 16 C 19.554 16 20 16.446 20 17 C 20 17.554 19.554 18 19 18 L 15.843 18 L 15.843 18.076 C 15.843 18.893 16.163 19.689 16.753 20.268 C 17.332 20.847 18.117 21.177 18.944 21.177 L 29.056 21.177 C 29.883 21.177 30.668 20.847 31.247 20.268 C 31.837 19.689 32.157 18.893 32.157 18.076 L 32.157 18 L 29 18 C 28.446 18 28 17.554 28 17 C 28 16.446 28.446 16 29 16 L 29 16 L 32.157 16 L 32.157 14 L 29 14 C 28.446 14 28 13.554 28 13 C 28 12.446 28.446 12 29 12 L 29 12 L 32.157 12 L 32.157 10 L 29 10 C 28.446 10 28 9.554 28 9 C 28 8.446 28.446 8 29 8 L 29 8 L 32.157 8 Z  M 41.576 30.482 L 41.576 32.55 C 41.576 33.098 41.359 33.625 40.966 34.008 C 40.583 34.401 40.056 34.618 39.508 34.618 L 31.723 34.618 L 34.566 39.363 C 34.783 39.725 34.897 40.149 34.897 40.573 C 34.907 41.358 34.535 42.113 33.894 42.578 L 33.408 42.93 C 32.984 43.219 32.488 43.374 31.981 43.364 C 31.247 43.385 30.544 43.075 30.058 42.537 L 24 35.61 L 17.942 42.537 C 17.456 43.075 16.753 43.385 16.019 43.364 C 15.512 43.374 15.016 43.219 14.592 42.93 L 14.106 42.578 C 13.465 42.113 13.093 41.358 13.103 40.573 C 13.103 40.149 13.217 39.725 13.434 39.363 L 16.277 34.618 L 8.492 34.618 C 7.944 34.618 7.417 34.401 7.034 34.008 C 6.641 33.625 6.424 33.098 6.424 32.55 L 6.424 30.482 C 6.424 29.934 6.641 29.407 7.034 29.014 C 7.417 28.632 7.944 28.414 8.492 28.414 L 39.508 28.414 C 40.056 28.414 40.583 28.632 40.966 29.014 C 41.359 29.407 41.576 29.934 41.576 30.482 L 41.576 30.482 L 41.576 30.482 Z  M 15.216 24.279 L 8.492 24.279 C 6.848 24.279 5.266 24.93 4.108 26.088 C 2.94 27.256 2.289 28.838 2.289 30.482 L 2.289 32.55 C 2.289 34.194 2.94 35.765 4.108 36.933 C 5.266 38.091 6.848 38.753 8.492 38.753 L 9.226 38.753 C 9.05 39.342 8.968 39.952 8.968 40.562 C 8.957 42.682 9.96 44.677 11.676 45.928 C 11.676 45.928 11.687 45.928 11.687 45.938 L 12.193 46.3 C 12.204 46.3 12.204 46.3 12.204 46.311 C 13.32 47.096 14.654 47.51 16.019 47.5 C 17.921 47.52 19.751 46.714 21.022 45.287 C 21.033 45.277 21.033 45.277 21.043 45.266 L 24 41.886 L 26.957 45.266 C 26.967 45.277 26.967 45.277 26.978 45.287 C 28.249 46.714 30.079 47.52 31.981 47.5 C 33.346 47.51 34.68 47.096 35.796 46.311 C 35.796 46.3 35.796 46.3 35.807 46.3 L 36.313 45.938 C 36.313 45.928 36.324 45.928 36.324 45.928 C 38.04 44.677 39.043 42.682 39.032 40.562 C 39.032 39.952 38.95 39.342 38.774 38.753 L 38.774 38.753 L 39.508 38.753 C 41.152 38.753 42.734 38.091 43.892 36.933 C 45.06 35.765 45.711 34.194 45.711 32.55 L 45.711 30.482 C 45.711 28.838 45.06 27.256 43.892 26.088 C 42.734 24.93 41.152 24.279 39.508 24.279 L 32.784 24.279 C 33.286 23.977 33.753 23.614 34.173 23.193 C 35.528 21.829 36.293 19.988 36.293 18.076 L 36.293 7.737 C 36.293 5.814 35.528 3.974 34.173 2.619 C 32.819 1.255 30.979 0.5 29.056 0.5 L 18.944 0.5 L 18.944 0.5 C 17.021 0.5 15.181 1.255 13.827 2.619 C 12.472 3.974 11.707 5.814 11.707 7.737 L 11.707 18.076 C 11.707 19.988 12.472 21.829 13.827 23.193 C 14.247 23.614 14.714 23.977 15.216 24.279 L 15.216 24.279 Z " fill-rule="evenodd" fill="url(#_lgradient_13)"/></svg>