<?xml version="1.0" encoding="UTF-8" standalone="no"?><!-- Generator: Gravit.io --><svg xmlns="http://www.w3.org/2000/svg" xmlns:xlink="http://www.w3.org/1999/xlink" style="isolation:isolate" viewBox="0 0 48 48" width="48pt" height="48pt"><linearGradient id="_lgradient_0" x1="0" y1="0.5" x2="1" y2="0.5" gradientTransform="matrix(43.72,0,0,47.701,2.14,0.15)" gradientUnits="userSpaceOnUse"><stop offset="0%" stop-opacity="1" style="stop-color:rgb(84,51,255)"/><stop offset="51.73913043478261%" stop-opacity="1" style="stop-color:rgb(32,189,255)"/><stop offset="98.26086956521739%" stop-opacity="1" style="stop-color:rgb(165,254,203)"/></linearGradient><path d=" M 9.79 45.66 C 8.62 44.9 7.53 44.04 6.52 43.08 C 5.62 42.22 4.83 41.26 4.16 40.22 C 2.89 38.21 2.21 35.87 2.21 33.49 C 2.23 31.73 2.54 29.99 3.14 28.33 C 3.68 26.84 4.35 25.4 5.15 24.04 C 4.34 22.54 3.66 20.98 3.11 19.36 C 2.49 17.59 2.17 15.73 2.14 13.85 C 2.13 11.44 2.79 9.07 4.05 7.02 C 4.72 5.94 5.52 4.94 6.43 4.06 C 7.49 3.04 8.65 2.13 9.9 1.34 C 12.04 0.57 14.29 0.16 16.56 0.15 C 18.41 0.14 20.25 0.44 21.99 1.03 C 23.66 1.6 25.22 2.46 26.58 3.59 C 27.93 4.71 29.06 6.08 29.89 7.62 C 30.41 8.6 30.82 9.64 31.1 10.71 C 31.59 10.65 32.08 10.62 32.57 10.62 C 35.99 10.64 39.27 11.94 41.77 14.27 C 43.01 15.41 44.01 16.78 44.73 18.3 C 45.47 19.89 45.86 21.62 45.86 23.37 C 45.86 23.39 45.86 23.41 45.86 23.43 L 45.84 23.99 C 45.8 25.94 45.42 27.87 44.73 29.7 C 44.06 31.39 43.02 32.92 41.69 34.17 C 40.3 35.42 38.67 36.39 36.91 37 C 35.28 37.56 33.59 37.93 31.88 38.11 C 31.21 39.34 30.45 40.51 29.61 41.63 C 28.66 42.89 27.55 44.03 26.31 45.01 C 25.14 45.92 23.84 46.64 22.44 47.13 C 21.06 47.61 19.6 47.86 18.14 47.85 C 16.77 47.84 15.4 47.66 14.08 47.3 C 12.6 46.9 11.16 46.35 9.79 45.66 Z  M 11.78 42.18 C 10.89 41.59 10.06 40.93 9.29 40.19 C 8.62 39.55 8.03 38.84 7.54 38.06 C 6.67 36.7 6.21 35.13 6.21 33.52 C 6.22 32.21 6.46 30.92 6.9 29.69 C 7.62 27.71 8.62 25.84 8.685 25.751 C 9.339 24.862 9.376 23.393 8.767 22.472 C 8.62 22.25 7.62 20.21 6.89 18.06 C 6.42 16.7 6.16 15.26 6.14 13.81 C 6.14 12.16 6.59 10.53 7.46 9.11 C 7.95 8.32 8.54 7.59 9.21 6.94 C 9.97 6.21 10.79 5.54 11.67 4.96 C 13.25 4.43 14.91 4.16 16.58 4.15 C 17.99 4.14 19.38 4.37 20.71 4.82 C 21.92 5.23 23.04 5.86 24.03 6.67 C 24.98 7.46 25.78 8.43 26.37 9.51 C 27.47 11.59 27.84 13.98 27.84 13.98 C 27.614 15.255 28.098 15.806 28.92 15.21 C 28.92 15.21 30.72 14.62 32.56 14.62 C 34.97 14.64 37.29 15.56 39.05 17.2 C 39.91 17.99 40.61 18.94 41.11 20 C 41.6 21.05 41.85 22.19 41.86 23.35 L 41.84 23.88 C 41.84 23.89 41.84 23.9 41.84 23.9 C 41.81 25.39 41.53 26.86 41 28.25 C 40.55 29.38 39.86 30.39 38.98 31.23 C 38 32.11 36.85 32.79 35.6 33.22 C 33.58 33.91 31.46 34.26 31.33 34.258 C 30.226 34.243 28.985 35.023 28.56 36 C 28.56 36 27.58 37.68 26.42 39.22 C 25.67 40.21 24.81 41.1 23.83 41.87 C 23.02 42.51 22.1 43.01 21.12 43.36 C 20.17 43.69 19.17 43.85 18.16 43.85 C 17.13 43.84 16.11 43.7 15.13 43.44 C 13.97 43.13 12.85 42.7 11.78 42.18 Z " fill-rule="evenodd" fill="url(#_lgradient_0)"/><linearGradient id="_lgradient_1" x1="0" y1="0.5" x2="1" y2="0.5" gradientTransform="matrix(20.657,0,0,27.542,15.226,10.229)" gradientUnits="userSpaceOnUse"><stop offset="0%" stop-opacity="1" style="stop-color:rgb(247,242,6)"/><stop offset="97.82608695652173%" stop-opacity="1" style="stop-color:rgb(255,187,36)"/></linearGradient><path d=" M 19.051 20.175 L 19.051 20.175 C 19.051 21.23 18.194 22.087 17.139 22.087 L 17.139 22.087 C 16.083 22.087 15.226 21.23 15.226 20.175 L 15.226 20.175 L 15.226 16.604 C 15.226 13.086 17.603 11.814 20.531 13.765 L 30.578 20.464 C 33.506 22.415 33.506 25.585 30.578 27.536 L 20.531 34.235 C 17.603 36.186 15.226 34.914 15.226 31.396 L 15.226 27.825 L 15.226 27.825 C 15.226 26.77 16.083 25.913 17.139 25.913 L 17.139 25.913 C 18.194 25.913 19.051 26.77 19.051 27.825 L 19.051 27.825 L 19.051 30.631 L 26.875 25.415 C 28.046 24.634 28.046 23.366 26.875 22.585 L 19.051 17.369 L 19.051 20.175 Z " fill="url(#_lgradient_1)"/></svg>