<?xml version="1.0" encoding="UTF-8" standalone="no"?><!-- Generator: Gravit.io --><svg xmlns="http://www.w3.org/2000/svg" xmlns:xlink="http://www.w3.org/1999/xlink" style="isolation:isolate" viewBox="0 0 48 48" width="48pt" height="48pt"><linearGradient id="_lgradient_61" x1="0.08333333333333331" y1="-0.016666666666666663" x2="1.0121145374449343" y2="1.013436123348018" gradientTransform="matrix(45,0,0,45,1.5,1.5)" gradientUnits="userSpaceOnUse"><stop offset="0%" stop-opacity="1" style="stop-color:rgb(156,51,196)"/><stop offset="51.30434782608696%" stop-opacity="1" style="stop-color:rgb(255,25,80)"/><stop offset="98.69565217391305%" stop-opacity="1" style="stop-color:rgb(255,135,36)"/></linearGradient><path d=" M 12.214 42.214 L 12.214 42.214 C 13.397 42.214 14.357 43.174 14.357 44.357 L 14.357 44.357 C 14.357 45.54 13.397 46.5 12.214 46.5 L 12.214 46.5 L 6.857 46.5 C 3.9 46.5 1.5 44.1 1.5 41.143 L 1.5 35.786 L 1.5 35.786 C 1.5 34.603 2.46 33.643 3.643 33.643 L 3.643 33.643 C 4.826 33.643 5.786 34.603 5.786 35.786 L 5.786 35.786 L 5.786 39 C 5.786 40.774 7.226 42.214 9 42.214 L 12.214 42.214 L 12.214 42.214 L 12.214 42.214 L 12.214 42.214 Z  M 5.786 27.214 L 5.786 27.214 C 5.786 28.397 4.826 29.357 3.643 29.357 L 3.643 29.357 C 2.46 29.357 1.5 28.397 1.5 27.214 L 1.5 27.214 L 1.5 6.857 C 1.5 3.9 3.9 1.5 6.857 1.5 L 25.714 1.5 L 25.714 1.5 C 26.897 1.5 27.857 2.46 27.857 3.643 L 27.857 3.643 C 27.857 4.826 26.897 5.786 25.714 5.786 L 25.714 5.786 L 9 5.786 C 7.226 5.786 5.786 7.226 5.786 9 L 5.786 27.214 L 5.786 27.214 L 5.786 27.214 L 5.786 27.214 Z  M 42.214 21.857 L 42.214 21.857 C 42.214 20.674 43.174 19.714 44.357 19.714 L 44.357 19.714 C 45.54 19.714 46.5 20.674 46.5 21.857 L 46.5 21.857 L 46.5 41.143 C 46.5 44.1 44.1 46.5 41.143 46.5 L 21.857 46.5 L 21.857 46.5 C 20.674 46.5 19.714 45.54 19.714 44.357 L 19.714 44.357 C 19.714 43.174 20.674 42.214 21.857 42.214 L 21.857 42.214 L 39 42.214 C 40.774 42.214 42.214 40.774 42.214 39 L 42.214 21.857 L 42.214 21.857 L 42.214 21.857 Z  M 35.786 5.786 L 35.786 5.786 C 34.603 5.786 33.643 4.826 33.643 3.643 L 33.643 3.643 C 33.643 2.46 34.603 1.5 35.786 1.5 L 35.786 1.5 L 41.143 1.5 C 44.1 1.5 46.5 3.9 46.5 6.857 L 46.5 12.214 L 46.5 12.214 C 46.5 13.397 45.54 14.357 44.357 14.357 L 44.357 14.357 C 43.174 14.357 42.214 13.397 42.214 12.214 L 42.214 12.214 L 42.214 9 C 42.214 7.226 40.774 5.786 39 5.786 L 35.786 5.786 L 35.786 5.786 Z  M 24 22.666 C 25.105 22.666 26.002 23.576 26.002 24.7 C 26.002 25.824 25.105 26.735 24 26.735 C 22.894 26.735 21.998 25.824 21.998 24.7 C 21.998 23.576 22.894 22.666 24 22.666 L 24 22.666 L 24 22.666 Z  M 15.52 13.002 C 14.214 13.043 12.953 13.633 11.987 14.526 C 11.005 15.434 10.301 16.682 10.159 18.024 C 10.088 18.694 10.157 19.382 10.376 20.019 C 10.595 20.656 10.965 21.241 11.457 21.694 C 12.037 22.228 12.762 22.565 13.428 22.983 C 13.761 23.193 14.083 23.425 14.359 23.707 C 14.634 23.989 14.864 24.324 14.99 24.7 C 15.103 25.035 15.13 25.397 15.08 25.748 C 15.03 26.098 14.902 26.436 14.716 26.735 C 14.345 27.334 13.745 27.77 13.088 28.003 C 12.325 28.273 11.485 28.287 10.749 28.627 C 10.167 28.896 9.678 29.366 9.373 29.936 C 9.068 30.507 8.947 31.177 9.021 31.822 C 9.108 32.581 9.465 33.302 10 33.837 C 10.536 34.373 11.244 34.722 11.987 34.837 C 13.076 35.006 14.24 34.652 15.031 33.873 C 15.427 33.484 15.729 32.997 15.897 32.464 C 16.066 31.931 16.101 31.353 15.991 30.805 C 15.908 30.386 15.743 29.989 15.59 29.591 C 15.438 29.192 15.295 28.784 15.258 28.359 C 15.193 27.607 15.476 26.842 15.968 26.276 C 16.459 25.71 17.145 25.338 17.87 25.173 C 18.338 25.067 18.825 25.043 19.297 25.126 C 19.77 25.208 20.227 25.397 20.609 25.69 C 20.992 25.983 21.298 26.381 21.468 26.837 C 21.637 27.292 21.668 27.804 21.532 28.271 C 21.393 28.75 21.095 29.16 20.793 29.553 C 20.491 29.946 20.175 30.341 19.995 30.805 C 19.797 31.317 19.778 31.894 19.913 32.426 C 20.049 32.959 20.336 33.447 20.711 33.843 C 21.126 34.281 21.652 34.61 22.224 34.789 C 22.796 34.969 23.381 35 23.98 35 C 24.579 35 25.203 34.969 25.775 34.789 C 26.347 34.61 26.873 34.281 27.288 33.843 C 27.664 33.447 27.95 32.959 28.086 32.426 C 28.222 31.894 28.202 31.317 28.004 30.805 C 27.824 30.341 27.508 29.946 27.206 29.553 C 26.904 29.16 26.606 28.75 26.467 28.271 C 26.332 27.804 26.362 27.292 26.532 26.837 C 26.701 26.381 27.007 25.983 27.39 25.69 C 27.773 25.397 28.23 25.208 28.702 25.126 C 29.174 25.043 29.662 25.067 30.129 25.173 C 30.854 25.338 31.54 25.71 32.032 26.276 C 32.523 26.842 32.806 27.607 32.741 28.359 C 32.704 28.785 32.561 29.192 32.409 29.591 C 32.256 29.989 32.092 30.386 32.008 30.805 C 31.899 31.353 31.933 31.931 32.102 32.464 C 32.27 32.997 32.572 33.484 32.968 33.873 C 33.76 34.652 34.923 35.006 36.012 34.837 C 36.755 34.722 37.463 34.373 37.999 33.837 C 38.534 33.302 38.891 32.581 38.978 31.822 C 39.052 31.177 38.932 30.507 38.626 29.936 C 38.321 29.366 37.832 28.896 37.25 28.627 C 36.515 28.287 35.674 28.273 34.911 28.003 C 34.254 27.77 33.654 27.334 33.283 26.735 C 33.097 26.436 32.969 26.098 32.919 25.748 C 32.869 25.397 32.897 25.035 33.009 24.7 C 33.135 24.324 33.365 23.989 33.641 23.707 C 33.916 23.425 34.238 23.193 34.571 22.983 C 35.237 22.565 35.962 22.228 36.542 21.694 C 37.034 21.241 37.404 20.656 37.623 20.019 C 37.842 19.382 37.912 18.694 37.84 18.024 C 37.698 16.682 36.994 15.434 36.012 14.526 C 35.046 13.632 33.785 13.043 32.479 13.002 C 31.826 12.982 31.169 13.098 30.567 13.356 C 29.965 13.614 29.421 14.015 29.005 14.526 C 28.527 15.113 28.228 15.825 27.953 16.533 C 27.678 17.241 27.419 17.963 27.003 18.596 C 26.317 19.639 25.234 20.631 23.999 20.631 C 22.765 20.631 21.682 19.639 20.996 18.596 C 20.58 17.963 20.321 17.241 20.046 16.533 C 19.771 15.825 19.471 15.113 18.994 14.526 C 18.578 14.015 18.034 13.614 17.432 13.356 C 16.83 13.098 16.173 12.982 15.52 13.002 L 15.52 13.002 L 15.52 13.002 Z " fill-rule="evenodd" fill="url(#_lgradient_61)"/></svg>