<?xml version="1.0" encoding="UTF-8" standalone="no"?>
<!-- Created with Inkscape (http://www.inkscape.org/) -->

<svg
   xmlns:dc="http://purl.org/dc/elements/1.1/"
   xmlns:cc="http://creativecommons.org/ns#"
   xmlns:rdf="http://www.w3.org/1999/02/22-rdf-syntax-ns#"
   xmlns:svg="http://www.w3.org/2000/svg"
   xmlns="http://www.w3.org/2000/svg"
   xmlns:xlink="http://www.w3.org/1999/xlink"
   xmlns:sodipodi="http://sodipodi.sourceforge.net/DTD/sodipodi-0.dtd"
   xmlns:inkscape="http://www.inkscape.org/namespaces/inkscape"
   width="48"
   height="48"
   viewBox="0 0 12.7 12.7"
   version="1.1"
   id="svg4559"
   inkscape:version="0.92.5 (2060ec1f9f, 2020-04-08)"
   style="enable-background:new"
   sodipodi:docname="edge-icon5.svg">
  <defs
     id="defs4553">
    <linearGradient
       id="linearGradient5768"
       inkscape:collect="always">
      <stop
         id="stop5764"
         offset="0"
         style="stop-color:#ffffdc;stop-opacity:0" />
      <stop
         id="stop5766"
         offset="1"
         style="stop-color:#00fc00;stop-opacity:0.98431373" />
    </linearGradient>
    <linearGradient
       inkscape:collect="always"
       id="linearGradient4575-3-7-3">
      <stop
         style="stop-color:#00e7ff;stop-opacity:1"
         offset="0"
         id="stop4571" />
      <stop
         style="stop-color:#006aff;stop-opacity:0.98253274"
         offset="1"
         id="stop4573" />
    </linearGradient>
    <linearGradient
       inkscape:collect="always"
       xlink:href="#linearGradient4575-3-7-3"
       id="linearGradient5558"
       x1="-1.1526345"
       y1="290.65015"
       x2="13.844142"
       y2="290.65015"
       gradientUnits="userSpaceOnUse"
       gradientTransform="matrix(0.92526036,0,0,0.92526036,0.4743413,21.72303)" />
    <linearGradient
       inkscape:collect="always"
       xlink:href="#linearGradient5768"
       id="linearGradient5810"
       gradientUnits="userSpaceOnUse"
       gradientTransform="matrix(0.92526036,0,0,0.92526036,0.4743413,21.72303)"
       x1="6.7681732"
       y1="288.19928"
       x2="9.3888521"
       y2="290.67569" />
  </defs>
  <sodipodi:namedview
     id="base"
     pagecolor="#ffffff"
     bordercolor="#666666"
     borderopacity="1.0"
     inkscape:pageopacity="0.0"
     inkscape:pageshadow="2"
     inkscape:zoom="22.4"
     inkscape:cx="22.614085"
     inkscape:cy="28.911859"
     inkscape:document-units="mm"
     inkscape:current-layer="layer1"
     showgrid="false"
     inkscape:window-width="2560"
     inkscape:window-height="1345"
     inkscape:window-x="0"
     inkscape:window-y="0"
     inkscape:window-maximized="1"
     units="px" />
  <metadata
     id="metadata4556">
    <rdf:RDF>
      <cc:Work
         rdf:about="">
        <dc:format>image/svg+xml</dc:format>
        <dc:type
           rdf:resource="http://purl.org/dc/dcmitype/StillImage" />
        <dc:title></dc:title>
      </cc:Work>
    </rdf:RDF>
  </metadata>
  <g
     inkscape:label="Layer 1"
     inkscape:groupmode="layer"
     id="layer1"
     style="display:inline"
     transform="translate(0,-284.3)">
    <path
       d="m 6.0311552,284.78454 c -0.07331,0.0136 -0.1114979,0.012 -0.184041,0.0122 -0.2785152,4.8e-4 -0.9406029,0.13437 -1.2116032,0.2227 -0.5341789,0.17408 -1.0478066,0.40488 -1.518338,0.71407 -1.0461191,0.6874 -1.844244,1.69518 -2.28164785,2.86674 -0.14017802,0.37545 -0.28480343,0.93648 -0.32299181,1.33432 l -0.0305171,0.42942 0.009966,0.16869 v 0.13804 0.18405 c 0.00291,0.20059 0.0107303,0.39906 0.0375736,0.59813 0.15842898,1.17556 0.69199436,2.28164 1.48597746,3.15936 0.5947596,0.65735 1.3550019,1.16267 2.1752116,1.49074 0.4398576,0.17592 0.8804824,0.29078 1.3496337,0.35396 l 0.3834186,0.0417 h 0.2760612 l 0.1993777,0.0152 0.3374084,-0.0152 c 0.2846506,-5.5e-4 0.7622369,-0.0902 1.0428992,-0.16151 0.9942816,-0.25168 1.9810488,-0.79213 2.7017223,-1.52445 0.245544,-0.24939 0.47498,-0.51181 0.67666,-0.79859 0.06716,-0.0955 0.188488,-0.25216 0.19447,-0.36809 0.0079,-0.15521 -0.12883,-0.31255 -0.290786,-0.28634 l -0.552123,0.23388 c -0.341243,0.12868 -0.6973622,0.20904 -1.0582371,0.25614 l -0.2453886,0.0263 -0.2760614,0.014 c -0.065793,0.003 -0.094013,-0.009 -0.1533674,-0.0134 H 8.6384018 c -0.1708515,-9.4e-4 -0.6107098,-0.0725 -0.7821743,-0.11524 -1.2645149,-0.31469 -2.4540328,-1.176 -2.7816264,-2.49267 -0.036043,-0.14462 -0.084658,-0.43741 -0.086344,-0.58278 -0.00231,-0.20585 0.036963,-0.40966 0.1205465,-0.59814 0.053063,-0.11962 0.1266815,-0.22254 0.2105737,-0.32209 0.1233074,-0.14644 0.2499888,-0.24062 0.42038,-0.32574 0.6127036,-0.30627 1.3405853,-0.11545 1.732439,0.44846 0.1473863,0.2121 0.2116475,0.43585 0.231892,0.69013 l 0.010886,0.1227 c -0.00997,0.18729 -0.099228,0.41747 -0.184808,0.5828 -0.1463123,0.28296 -0.3090348,0.34292 -0.3174709,0.53677 -0.01073,0.2431 0.2007581,0.4095 0.3981423,0.50982 0.4113318,0.20918 0.8185225,0.27313 1.2729503,0.30443 l 0.1533675,0.014 c 0.3042809,0.003 0.6220606,0.01 0.9202054,-0.0596 1.0145271,-0.23345 1.8201661,-0.94904 2.1315011,-1.94946 0.07209,-0.23175 0.122696,-0.50886 0.123,-0.7515 v -0.27607 l -0.01534,-0.24539 c -3.96e-4,-0.13987 -0.03174,-0.27728 -0.05736,-0.4141 -0.09356,-0.49828 -0.317009,-0.99059 -0.5716,-1.4263 -0.279741,-0.47882 -0.589085,-0.84169 -0.995355,-1.21804 l -0.09478,-0.094 -0.274682,-0.2121 c -0.6194484,-0.46533 -1.3080696,-0.79231 -2.0551226,-0.9935 -0.3739096,-0.10078 -0.9197445,-0.20798 -1.3036231,-0.21243 l -0.2300515,-0.0122 z m -5.19915732,4.52112 c -0.0322074,-0.0967 0.0605796,-0.31225 0.0898732,-0.41409 0.12054662,-0.41885 0.31701052,-0.80595 0.53463902,-1.18093 0.1579682,-0.27252 0.305968,-0.46349 0.5033522,-0.70549 l 0.1171728,-0.15337 0.2426277,-0.24538 c 0.753034,-0.75305 1.6901092,-1.27756 2.729941,-1.51297 0.264559,-0.06 0.7314092,-0.1402 0.9968884,-0.1434 h 0.6441436 l 0.2913982,0.0307 h 0.1380304 l 0.6441435,0.11261 c 0.9912149,0.21194 1.9279847,0.64382 2.6839331,1.32647 l 0.213334,0.18802 0.189716,0.21333 c 0.282504,0.32485 0.447986,0.56027 0.657332,0.93553 0.2664,0.4776 0.442467,0.97604 0.508262,1.51835 l 0.02639,0.23005 v 0.42943 c -1.57e-4,0.12209 -0.02838,0.27868 -0.0549,0.39877 -0.0934,0.42405 -0.22453,0.73875 -0.487558,1.0889 -0.103829,0.13802 -0.333419,0.37313 -0.469764,0.48049 -0.243394,0.19172 -0.522217,0.33251 -0.812849,0.43635 -0.3539694,0.12668 -0.7321757,0.14569 -1.1042456,0.14139 l -0.153368,-0.0159 H 8.8071228 c -0.3332673,-0.0338 -0.7741991,-0.10677 -1.0735717,-0.25646 -0.1366506,-0.0683 -0.3708436,-0.20641 -0.3470707,-0.38709 0.011497,-0.0874 0.093402,-0.16119 0.1456987,-0.23006 0.094628,-0.12452 0.1634896,-0.23831 0.2228437,-0.38342 0.081591,-0.19982 0.1102707,-0.2894 0.1240737,-0.5061 0.00751,-0.11857 -0.016871,-0.25166 -0.033589,-0.36807 l -0.011343,-0.12272 c -0.031899,-0.20397 -0.090794,-0.42236 -0.1688582,-0.61346 -0.1926316,-0.47197 -0.5344887,-0.89667 -0.9286425,-1.21475 -0.5415409,-0.4371 -1.1566976,-0.69566 -1.8404094,-0.81101 -0.1559753,-0.0263 -0.3168575,-0.0583 -0.4754397,-0.0601 h -0.475439 c -0.3318875,4.8e-4 -0.8513432,0.11344 -1.1655928,0.2253 -0.5921519,0.21072 -1.1399804,0.5653 -1.5617413,1.03232 -0.1771396,0.196 -0.24738188,0.32451 -0.38602619,0.53678 z m 6.67148482,0.32207 -0.3374082,-0.26533 c -0.2085795,-0.13403 -0.485868,-0.24031 -0.736164,-0.24078 H 6.2458701 c -0.3487581,0.004 -0.680799,0.20151 -0.9662155,0.38264 -0.8022654,0.50902 -1.4286181,1.36805 -1.6309098,2.3013 l -0.086193,0.55211 v 0.15338 l -0.015797,0.15335 0.014567,0.16872 0.020395,0.32207 c 0.027301,0.20936 0.0796,0.41286 0.1437053,0.61345 0.2731477,0.85457 0.7952107,1.55668 1.5542264,2.0444 0.2030586,0.13052 0.5522765,0.29676 0.7821738,0.37345 l 0.4754396,0.12807 c -0.071777,0.0285 -0.4068837,0.0157 -0.5061125,0.0153 l -0.5981335,-0.0702 c -0.6967486,-0.10807 -1.3034704,-0.32803 -1.9170934,-0.67481 -0.6482844,-0.36638 -1.1332323,-0.79658 -1.604377,-1.37142 -0.1317428,-0.16073 -0.2624119,-0.3285 -0.3709963,-0.50611 l -0.3058145,-0.53678 -0.1024498,-0.24539 -0.078677,-0.16869 C 0.9687961,292.54695 0.87907589,292.256 0.82386388,292.03561 l -0.0610409,-0.32206 c -0.0653341,-0.31641 -0.0791374,-0.49522 -0.1009154,-0.81286 l -0.013956,-0.18404 0.0168697,-0.29139 v -0.15337 c 0.0680953,-0.53051 0.31931126,-1.032 0.67589072,-1.42631 0.232505,-0.2572 0.4829538,-0.45934 0.7795667,-0.63725 1.0964242,-0.65779 2.527496,-0.715 3.6961558,-0.21503 0.1995316,0.0853 0.3696163,0.1836 0.5521232,0.2994 0.3524387,0.22361 0.704724,0.56699 0.9266468,0.92095 0.071161,0.11331 0.1837343,0.28358 0.2082723,0.41409 z m -2.4998899,0.27606 -0.1041366,0.24538 c -0.059817,0.17776 -0.082052,0.36533 -0.079905,0.55216 0.00309,0.25608 0.073003,0.60178 0.1581225,0.84351 0.1687041,0.4788 0.440778,0.90699 0.7953638,1.27154 l 0.1174795,0.10276 0.1101179,0.10633 0.1838875,0.13696 c 0.5246701,0.39355 1.0784803,0.64106 1.7177158,0.7814 l 0.4907767,0.0907 h 0.092019 l 0.1687049,0.0199 c 0.3760571,0.0233 0.7487395,-0.0211 1.1195839,-0.0794 l 0.1073569,-0.0125 0.1073577,-0.0327 c 0.2025967,-0.0552 0.4211467,-0.10551 0.6134687,-0.18909 l 0.260727,-0.1145 0.153368,-0.0708 c 0.06196,-0.0226 0.129901,-0.0318 0.156742,0.0456 0.02317,0.0663 -0.03849,0.14692 -0.07361,0.19877 l -0.327287,0.44476 c -0.259805,0.31119 -0.542462,0.59874 -0.8600857,0.85134 l -0.122692,0.10322 c -0.2493767,0.18586 -0.5254387,0.34245 -0.7975125,0.49167 -0.2683931,0.1474 -0.55335,0.26166 -0.8435214,0.35842 -0.134349,0.0446 -0.3702284,0.11917 -0.5061117,0.13849 l -0.3527459,0.0199 c -0.2555099,4e-4 -0.5151618,-0.009 -0.7668372,-0.0584 -0.5110249,-0.10147 -1.0840056,-0.35373 -1.4876686,-0.68471 -0.212721,-0.17438 -0.4282023,-0.40504 -0.5979802,-0.62176 -0.181738,-0.2322 -0.3255964,-0.49447 -0.4364813,-0.76685 -0.086806,-0.21302 -0.1521402,-0.38756 -0.2042854,-0.61348 -0.032667,-0.1417 -0.078524,-0.47036 -0.080212,-0.61347 v -0.38341 l 0.02638,-0.27605 c 0.064874,-0.49753 0.2141013,-0.94904 0.4728317,-1.38031 0.1610361,-0.26841 0.2906319,-0.43697 0.5130142,-0.65949 0.08696,-0.0868 0.1690113,-0.18298 0.2760612,-0.24539 z"
       id="Selection"
       inkscape:connector-curvature="0"
       style="display:inline;fill:none;fill-opacity:1;stroke:url(#linearGradient5558);stroke-width:0.80000001;stroke-miterlimit:4;stroke-dasharray:none;stroke-opacity:1"
       sodipodi:nodetypes="ccccccccccccccccccccccccccccccccccccccccccccccccccccccccccccccccccccccccccccccccccccccccccccccccccccccccccccccccccccccccccccccccccccccccccccccccccccccccccccccccccccccccccccccc" />
    <path
       sodipodi:nodetypes="ccccccccccccccccccccccccccccccccccccccccccccccccccccc"
       style="display:inline;fill:none;fill-opacity:1;stroke:url(#linearGradient5810);stroke-width:0.80000001;stroke-miterlimit:4;stroke-dasharray:none;stroke-opacity:1"
       inkscape:connector-curvature="0"
       id="path5808"
       d="m 5.7397573,289.43994 c 0.6127036,-0.30627 1.3405853,-0.11545 1.732439,0.44846 0.1473863,0.2121 0.2116475,0.43585 0.231892,0.69013 l 0.010886,0.1227 c -0.00997,0.18729 -0.099228,0.41747 -0.184808,0.5828 -0.1463123,0.28296 -0.3090348,0.34292 -0.3174709,0.53677 -0.01073,0.2431 0.2007581,0.4095 0.3981423,0.50982 0.4113318,0.20918 0.8185225,0.27313 1.2729503,0.30443 l 0.1533675,0.014 c 0.3042809,0.003 0.6220606,0.01 0.9202054,-0.0596 1.0145271,-0.23345 1.8201661,-0.94904 2.1315011,-1.94946 0.07209,-0.23175 0.122696,-0.50886 0.123,-0.7515 v -0.27607 l -0.01534,-0.24539 c -3.96e-4,-0.13987 -0.03174,-0.27728 -0.05736,-0.4141 -0.09356,-0.49828 -0.317009,-0.99059 -0.5716,-1.4263 -0.279741,-0.47882 -0.589085,-0.84169 -0.995355,-1.21804 l -0.09478,-0.094 -0.274682,-0.2121 c -0.6194484,-0.46533 -1.2253873,-0.72144 -1.9842521,-1.06437 -6.9327295,2.68746 -41.3107279,29.6895 -2.4787356,4.50182 z m 4.7083837,-3.02013 0.213334,0.18802 0.189716,0.21333 c 0.282504,0.32485 0.447986,0.56027 0.657332,0.93553 0.2664,0.4776 0.442467,0.97604 0.508262,1.51835 l 0.02639,0.23005 v 0.42943 c -1.57e-4,0.12209 -0.02838,0.27868 -0.0549,0.39877 -0.0934,0.42405 -0.22453,0.73875 -0.487558,1.0889 -0.103829,0.13802 -0.333419,0.37313 -0.469764,0.48049 -0.243394,0.19172 -0.522217,0.33251 -0.812849,0.43635 -0.3539694,0.12668 -0.7321757,0.14569 -1.1042456,0.14139 l -0.153368,-0.0159 H 8.8071228 c -0.3332673,-0.0338 -0.7741991,-0.10677 -1.0735717,-0.25646 -0.1366506,-0.0683 -0.3708436,-0.20641 -0.3470707,-0.38709 0.011497,-0.0874 0.093402,-0.16119 0.1456987,-0.23006 0.094628,-0.12452 0.1634896,-0.23831 0.2228437,-0.38342 0.081591,-0.19982 0.1102707,-0.2894 0.1240737,-0.5061 0.00751,-0.11857 -0.016871,-0.25166 -0.033589,-0.36807 l -0.011343,-0.12272 c -0.031899,-0.20397 -0.090794,-0.42236 -0.1688582,-0.61346 -0.1926316,-0.47197 -0.5344887,-0.89667 -0.9286425,-1.21475 -1.225643,-4.03857 1.2040658,-3.97539 3.7114772,-1.96258 z m -2.9446583,3.20792 -0.3374082,-0.26533 c -0.2085795,-0.13403 -0.485868,-0.24031 -0.736164,-0.24078 H 6.2458701 c -5.55665638,3.09289 -20.1915031,-13.02349 0.1226876,-0.82888 0.3524387,0.22361 0.704724,0.56699 0.9266468,0.92095 0.071161,0.11331 0.1837343,0.28358 0.2082723,0.41409 z" />
  </g>
</svg>
