<?xml version="1.0" encoding="UTF-8" standalone="no"?><!-- Generator: Gravit.io --><svg xmlns="http://www.w3.org/2000/svg" xmlns:xlink="http://www.w3.org/1999/xlink" style="isolation:isolate" viewBox="0 0 48 48" width="48pt" height="48pt"><linearGradient id="_lgradient_1" x1="0" y1="0.5" x2="1" y2="0.5" gradientTransform="matrix(47,0,0,46.788,0.5,0.5)" gradientUnits="userSpaceOnUse"><stop offset="0%" stop-opacity="1" style="stop-color:rgb(84,51,255)"/><stop offset="51.73913043478261%" stop-opacity="1" style="stop-color:rgb(32,189,255)"/><stop offset="98.26086956521739%" stop-opacity="1" style="stop-color:rgb(165,254,203)"/></linearGradient><path d=" M 38 16.049 L 42.159 15.909 C 42.749 15.909 43.227 16.41 43.227 17.027 L 43.227 18.099 C 43.227 18.716 42.866 19.545 42.42 19.949 L 38 23.956 L 38 16.049 L 38 16.049 Z  M 35 26.676 L 26.422 34.452 C 25.085 35.664 22.915 35.664 21.578 34.452 L 13 26.676 L 13 26 L 13 4.5 C 13 3.948 13.448 3.5 14 3.5 L 34 3.5 C 34.552 3.5 35 3.948 35 4.5 L 35 26 L 35 26.676 L 35 26.676 Z  M 10 23.956 L 5.58 19.949 C 5.134 19.545 4.773 18.716 4.773 18.099 L 4.773 17.027 C 4.773 16.41 5.251 15.909 5.841 15.909 L 10 15.909 L 10 23.956 L 10 23.956 Z  M 43.227 28.925 L 43.227 28.925 C 43.227 27.745 44.185 26.788 45.364 26.788 L 45.364 26.788 C 46.543 26.788 47.5 27.745 47.5 28.925 L 47.5 28.925 L 47.5 41.947 C 47.5 44.895 45.107 47.288 42.159 47.288 L 5.841 47.288 C 2.893 47.288 0.5 44.895 0.5 41.947 L 0.5 28.925 L 0.5 28.925 C 0.5 27.745 1.457 26.788 2.636 26.788 L 2.636 26.788 C 3.815 26.788 4.773 27.745 4.773 28.925 L 4.773 28.925 L 4.773 39.811 C 4.773 41.58 6.209 43.015 7.977 43.015 L 40.023 43.015 C 41.791 43.015 43.227 41.58 43.227 39.811 L 43.227 28.925 L 43.227 28.925 L 43.227 28.925 Z  M 38 11.44 L 38 11.44 L 45.364 11.44 C 46.543 11.44 47.5 12.441 47.5 13.675 L 47.5 19.306 C 47.5 20.54 46.766 22.183 45.861 22.975 L 28.097 38.516 C 25.836 40.495 22.164 40.495 19.903 38.516 L 2.139 22.975 C 1.234 22.183 0.5 20.54 0.5 19.306 L 0.5 13.675 C 0.5 12.441 1.457 11.44 2.636 11.44 L 10 11.44 L 10 3.5 C 10 1.844 11.344 0.5 13 0.5 L 35 0.5 C 36.656 0.5 38 1.844 38 3.5 L 38 11.44 L 38 11.44 Z  M 17.853 16.1 C 17.853 14.468 18.501 12.904 19.652 11.752 C 20.804 10.601 22.368 9.953 24 9.953 C 25.632 9.953 27.196 10.601 28.348 11.752 C 29.499 12.904 30.147 14.468 30.147 16.1 C 30.147 17.732 29.499 19.297 28.348 20.448 C 27.196 21.599 25.632 22.247 24 22.247 C 22.368 22.247 20.804 21.599 19.652 20.448 C 18.501 19.297 17.853 17.732 17.853 16.1 L 17.853 16.1 Z  M 14.5 16.099 C 14.5 10.856 18.757 6.599 24 6.599 C 29.243 6.599 33.5 10.856 33.5 16.099 C 33.5 21.343 29.243 25.599 24 25.599 C 18.757 25.599 14.5 21.343 14.5 16.099 L 14.5 16.099 Z " fill-rule="evenodd" fill="url(#_lgradient_1)"/></svg>