<?xml version="1.0" encoding="UTF-8" standalone="no"?><!-- Generator: Gravit.io --><svg xmlns="http://www.w3.org/2000/svg" xmlns:xlink="http://www.w3.org/1999/xlink" style="isolation:isolate" viewBox="0 0 48 48" width="48pt" height="48pt"><linearGradient id="_lgradient_23" x1="0" y1="0.5" x2="0.9074880558539661" y2="0.9200778838291643" gradientTransform="matrix(44,0,0,44,2,2)" gradientUnits="userSpaceOnUse"><stop offset="0%" stop-opacity="1" style="stop-color:rgb(0,196,255)"/><stop offset="83.88839793817618%" stop-opacity="1" style="stop-color:rgb(0,114,255)"/></linearGradient><path d=" M 6.001 22.66 L 6.001 22.66 C 5.918 23.758 4.955 24.585 3.853 24.505 L 3.853 24.505 C 2.751 24.425 1.923 23.464 2.006 22.36 L 2.006 22.36 C 2.416 16.83 4.909 11.65 8.984 7.87 C 13.059 4.1 18.416 2 23.973 2 C 29.81 2 35.417 4.32 39.552 8.44 C 43.677 12.57 46 18.17 46 24 C 46 29.83 43.677 35.43 39.552 39.56 C 35.417 43.68 29.81 46 23.973 46 L 23.973 46 C 22.868 46 21.97 45.104 21.97 44 L 21.97 44 C 21.97 42.896 22.868 42 23.973 42 L 23.973 42 C 28.749 42 33.334 40.1 36.719 36.73 C 40.093 33.35 41.995 28.77 41.995 24 C 41.995 19.23 40.093 14.65 36.719 11.27 C 33.334 7.9 28.749 6 23.973 6 C 19.427 6 15.042 7.71 11.708 10.8 C 8.374 13.89 6.341 18.13 6.001 22.66 L 6.001 22.66 Z  M 15.592 39.94 L 15.592 39.94 C 16.571 40.453 16.947 41.663 16.434 42.64 L 16.434 42.64 C 15.92 43.617 14.708 43.993 13.73 43.48 L 13.73 43.48 C 9.565 41.29 6.201 37.82 4.148 33.59 L 4.148 33.59 C 3.662 32.597 4.075 31.398 5.07 30.915 L 5.07 30.915 C 6.064 30.432 7.267 30.847 7.753 31.84 L 7.753 31.84 C 9.435 35.31 12.178 38.14 15.592 39.94 L 15.592 39.94 Z  M 35.065 34.918 C 34.916 34.821 34.102 34.357 33.256 33.885 C 31.495 32.904 29.738 31.403 29.738 30.878 C 29.738 30.412 30.314 30.04 31.195 29.936 C 31.617 29.887 32.171 29.805 32.426 29.756 L 32.889 29.665 L 32.203 29.164 C 31.553 28.69 31.051 28.454 29.577 27.934 C 28.623 27.598 27.931 26.813 27.151 25.185 C 25.119 20.944 24.743 20.247 24.052 19.446 C 23.275 18.546 22.153 17.607 20.646 16.597 C 19.167 15.605 18.936 15.516 17.869 15.516 C 17.019 15.516 16.84 15.469 16.311 15.106 C 15.475 14.534 14.645 14.18 14.13 14.177 C 13.467 14.172 13.545 14.646 14.378 15.675 C 15.186 16.673 15.377 17.016 15.779 18.192 C 15.945 18.676 16.393 19.613 16.774 20.274 C 17.155 20.935 17.467 21.535 17.467 21.606 C 17.467 21.677 17.307 22.193 17.112 22.752 C 16.683 23.981 16.564 25.296 16.794 26.27 C 17.194 27.961 17.684 28.192 17.963 26.819 C 18.206 25.628 18.624 24.908 19.073 24.911 C 19.21 24.912 19.65 25.588 20.299 26.795 C 20.855 27.831 21.659 29.139 22.085 29.703 C 22.511 30.266 22.832 30.754 22.798 30.787 C 22.718 30.867 21.616 29.938 20.813 29.114 C 20.465 28.757 19.966 28.11 19.704 27.675 C 19.252 26.925 19.222 26.901 19.107 27.205 C 19.04 27.382 18.943 27.72 18.891 27.956 C 18.742 28.638 18.326 29.07 17.818 29.07 C 17.107 29.07 16.597 28.356 16.182 26.782 C 15.905 25.731 15.975 23.493 16.32 22.377 C 16.543 21.658 16.543 21.657 16.212 21.304 C 15.785 20.85 15.542 20.363 15.017 18.91 C 14.685 17.988 14.377 17.457 13.613 16.482 C 12.926 15.606 12.608 15.077 12.545 14.707 C 12.35 13.558 12.794 12.89 13.742 12.911 C 14.474 12.927 15.973 13.428 16.619 13.873 C 17 14.136 17.381 14.25 18.119 14.324 C 19.932 14.505 21.909 15.66 23.982 17.75 C 25.99 19.775 27.502 22.162 28.064 24.194 C 28.441 25.556 29.036 26.199 30.67 27.008 C 31.87 27.602 32.239 27.872 33.328 28.952 C 34.023 29.641 34.593 30.307 34.593 30.432 C 34.593 30.706 34.028 30.902 32.907 31.015 C 31.335 31.174 31.347 31.143 32.524 31.978 C 34.53 33.401 35.251 34.095 35.464 34.806 C 35.566 35.146 35.459 35.176 35.065 34.918 L 35.065 34.918 L 35.065 34.918 Z  M 17.802 17.879 C 17.692 17.618 17.481 17.339 17.332 17.26 C 17.017 17.092 16.984 16.821 17.253 16.599 C 17.541 16.36 18.378 16.747 18.484 17.168 C 18.736 18.168 18.171 18.758 17.802 17.879 L 17.802 17.879 L 17.802 17.879 Z " fill-rule="evenodd" fill="url(#_lgradient_23)"/></svg>