<?xml version="1.0" encoding="UTF-8" standalone="no"?>
<!-- Generator: Gravit.io -->
<svg xmlns="http://www.w3.org/2000/svg" xmlns:xlink="http://www.w3.org/1999/xlink" style="isolation:isolate" viewBox="0 0 48 48" width="48pt" height="48pt"><linearGradient id="_lgradient_3" x1="0" y1="0.5" x2="1" y2="0.5" gradientTransform="matrix(41.26,0,0,45.921,3.37,1.12)" gradientUnits="userSpaceOnUse"><stop offset="0%" stop-opacity="1" style="stop-color:rgb(0,255,255)"/><stop offset="98.26086956521739%" stop-opacity="1" style="stop-color:rgb(165,83,168)"/></linearGradient><path d=" M 12.99 11.55 L 12.99 11.55 C 12.09 12.196 10.838 11.992 10.195 11.095 L 10.195 11.095 C 9.552 10.198 9.76 8.946 10.66 8.3 L 10.66 8.3 L 22.156 1.543 C 23.107 0.984 24.656 0.978 25.612 1.53 L 42.898 11.51 C 43.854 12.062 44.63 13.406 44.63 14.51 L 44.63 32.58 C 44.63 33.684 43.856 35.032 42.903 35.589 L 23.727 46.801 C 22.774 47.358 22 46.914 22 45.81 L 22 33.72 L 22 33.72 C 22 32.616 22.896 31.72 24 31.72 L 24 31.72 C 25.104 31.72 26 32.616 26 33.72 L 26 33.72 L 26 39.02 C 26 39.572 26.387 39.795 26.865 39.518 L 40.63 31.52 L 40.63 14.82 L 24.12 5.29 L 12.99 11.55 Z  M 18.58 40.18 L 18.58 40.18 C 19.524 40.754 19.828 41.986 19.26 42.93 L 19.26 42.93 C 18.692 43.874 17.464 44.178 16.52 43.61 L 16.52 43.61 L 5.117 37.254 C 4.153 36.716 3.37 35.384 3.37 34.28 L 3.37 13.81 C 3.37 12.706 4.146 12.258 5.102 12.81 L 23.024 23.16 C 23.502 23.436 24.282 23.443 24.765 23.176 L 35.02 17.5 L 35.02 17.5 C 35.925 16.865 37.178 17.08 37.815 17.98 L 37.815 17.98 C 38.452 18.88 38.235 20.13 37.33 20.77 L 37.33 20.77 L 25.842 27.4 C 24.886 27.952 23.334 27.952 22.378 27.4 L 7.37 18.74 L 7.37 34.03 L 18.58 40.18 Z " fill-rule="evenodd" fill="url(#_lgradient_3)"/></svg>