<?xml version="1.0" encoding="UTF-8" standalone="no"?><!-- Generator: Gravit.io --><svg xmlns="http://www.w3.org/2000/svg" xmlns:xlink="http://www.w3.org/1999/xlink" style="isolation:isolate" viewBox="0 0 48 48" width="48pt" height="48pt"><linearGradient id="_lgradient_22" x1="0" y1="0.5" x2="1" y2="0.5" gradientTransform="matrix(36,0,0,22,6,24)" gradientUnits="userSpaceOnUse"><stop offset="0%" stop-opacity="1" style="stop-color:rgb(117,127,154)"/><stop offset="98.69565217391305%" stop-opacity="1" style="stop-color:rgb(215,221,232)"/></linearGradient><path d=" M 38 26 L 38 24 L 42 24 L 42 26 L 42 42 C 42 44.208 40.208 46 38 46 L 10 46 C 7.792 46 6 44.208 6 42 L 6 26 L 6 24 L 10 24 L 10 26 L 10 40 C 10 41.104 10.896 42 12 42 L 36 42 C 37.104 42 38 41.104 38 40 L 38 26 Z " fill="url(#_lgradient_22)"/><linearGradient id="_lgradient_23" x1="0" y1="0.5" x2="1" y2="0.5" gradientTransform="matrix(36,0,0,23,6,3)" gradientUnits="userSpaceOnUse"><stop offset="0%" stop-opacity="1" style="stop-color:rgb(247,242,6)"/><stop offset="97.82608695652173%" stop-opacity="1" style="stop-color:rgb(255,187,36)"/></linearGradient><path d=" M 20 8 L 20 7 L 28 7 L 28 8 L 20 8 L 20 8 L 20 8 L 20 8 Z  M 20 22 L 28 22 C 29.104 22 30 22.896 30 24 L 30 24 C 30 25.104 29.104 26 28 26 L 20 26 C 18.896 26 18 25.104 18 24 L 18 24 C 18 22.896 18.896 22 20 22 L 20 22 L 20 22 Z  M 12 24 C 12 22.896 12.896 22 14 22 C 15.104 22 16 22.896 16 24 C 16 25.104 15.104 26 14 26 C 12.896 26 12 25.104 12 24 L 12 24 Z  M 16 8 L 16 5 C 16 3.896 16.896 3 18 3 L 30 3 C 31.104 3 32 3.896 32 5 L 32 8 L 38 8 C 40.208 8 42 9.792 42 12 L 42 22 L 42 24 L 38 24 L 38 22 L 38 14 C 38 12.896 37.104 12 36 12 L 12 12 C 10.896 12 10 12.896 10 14 L 10 22 L 10 24 L 6 24 L 6 22 L 6 12 C 6 9.792 7.792 8 10 8 L 16 8 L 16 8 L 16 8 L 16 8 Z  M 32 24 C 32 22.896 32.896 22 34 22 C 35.104 22 36 22.896 36 24 C 36 25.104 35.104 26 34 26 C 32.896 26 32 25.104 32 24 Z " fill-rule="evenodd" fill="url(#_lgradient_23)"/></svg>