<?xml version="1.0" encoding="UTF-8" standalone="no"?><!-- Generator: Gravit.io --><svg xmlns="http://www.w3.org/2000/svg" xmlns:xlink="http://www.w3.org/1999/xlink" style="isolation:isolate" viewBox="0 0 48 48" width="48pt" height="48pt"><linearGradient id="_lgradient_40" x1="0.9941176470588236" y1="0.4801559760374085" x2="0.00018059855521146417" y2="0.45213064394988733" gradientTransform="matrix(42.5,0,0,31.496,2.75,8.252)" gradientUnits="userSpaceOnUse"><stop offset="0%" stop-opacity="1" style="stop-color:rgb(17,153,142)"/><stop offset="99.1304347826087%" stop-opacity="1" style="stop-color:rgb(56,239,125)"/></linearGradient><path d=" M 20.053 13.743 L 20.053 13.743 C 20.053 14.902 19.113 15.843 17.954 15.843 L 17.954 15.843 C 16.795 15.843 15.854 14.902 15.854 13.743 L 15.854 13.743 L 15.854 12.452 C 15.854 10.134 17.736 8.252 20.053 8.252 L 41.051 8.252 C 43.368 8.252 45.25 10.134 45.25 12.452 L 45.25 21.407 L 45.25 21.407 C 45.25 22.566 44.309 23.507 43.15 23.507 L 43.15 23.507 C 41.991 23.507 41.051 22.566 41.051 21.407 L 41.051 21.407 L 41.051 14.551 C 41.051 13.392 40.11 12.452 38.951 12.452 L 22.153 12.452 C 20.994 12.452 20.053 13.03 20.053 13.743 L 20.053 13.743 L 20.053 13.743 Z  M 41.051 30.488 L 41.051 30.488 C 41.051 29.329 41.991 28.388 43.15 28.388 L 43.15 28.388 C 44.309 28.388 45.25 29.329 45.25 30.488 L 45.25 30.488 L 45.25 35.548 C 45.25 37.866 43.368 39.748 41.051 39.748 L 20.053 39.748 C 17.736 39.748 15.854 38.496 15.854 36.955 L 15.854 36.955 C 14.479 36.357 13.145 35.643 11.875 34.834 C 10.321 33.837 8.894 32.661 7.634 31.307 C 6.416 30.005 5.377 28.535 4.568 26.95 C 3.613 25.081 2.951 23.076 2.778 22.043 C 2.683 21.472 2.837 20.599 3.123 20.095 C 3.665 19.139 5.104 17.512 6.846 16.231 C 8.432 15.076 10.195 14.194 12.075 13.596 L 12.075 13.596 C 13.176 13.248 14.354 13.862 14.704 14.966 L 14.704 14.966 C 15.055 16.07 14.441 17.253 13.334 17.606 L 13.334 17.606 C 11.896 18.058 10.542 18.74 9.313 19.622 C 8.474 20.252 7.718 20.997 7.077 21.837 C 7.371 22.94 7.781 24.01 8.306 25.039 C 8.946 26.278 9.744 27.423 10.699 28.441 C 11.718 29.533 12.872 30.488 14.132 31.296 C 15.571 32.21 17.103 32.976 18.699 33.585 C 19.518 33.9 20.053 34.677 20.053 35.548 L 38.951 35.548 C 40.11 35.548 41.051 34.608 41.051 33.449 L 41.051 30.488 L 41.051 30.488 L 41.051 30.488 Z  M 20.053 35.548 L 20.053 35.548 L 20.053 35.548 Z  M 21.067 14.097 L 21.067 14.363 C 21.067 14.275 21.075 14.189 21.082 14.103 C 21.077 14.102 21.071 14.099 21.067 14.098 L 21.067 14.097 L 21.067 14.097 Z  M 21.995 16.555 C 21.88 16.556 21.764 16.557 21.647 16.561 C 21.454 16.568 21.26 16.586 21.067 16.601 C 21.066 16.601 21.066 16.601 21.065 16.601 C 14.505 17.129 8.831 22.687 8.831 22.687 C 8.831 22.687 12.043 31.984 21.067 32.836 C 21.501 32.878 21.949 32.916 22.408 32.916 C 27.169 32.916 35.566 30.477 39.169 27.461 C 38.641 26.925 36.065 25.701 35.437 25.198 C 31.647 28.47 27.729 31.233 22.317 31.233 C 21.884 31.233 21.468 31.205 21.067 31.154 C 14.445 30.321 12.182 23.018 12.182 23.018 C 12.182 23.018 15.144 18.643 21.067 18.191 C 21.258 18.177 21.451 18.171 21.647 18.165 C 21.731 18.163 21.813 18.16 21.896 18.16 C 27.119 18.143 30.536 22.766 30.536 22.766 C 30.536 22.766 26.735 28.052 22.66 28.052 C 22.073 28.052 21.541 27.946 21.068 27.786 C 18.246 26.838 17.335 23.556 17.335 23.556 C 17.335 23.556 18.973 21.596 21.068 21.848 C 23.155 22.1 23.587 23.027 24.843 25.12 L 27.628 22.753 C 27.628 22.753 25.595 20.086 22.159 20.086 C 21.785 20.086 21.418 20.113 21.068 20.151 C 17.076 20.582 14.679 23.239 14.679 23.239 C 14.679 23.239 16.063 28.447 21.068 29.34 C 21.536 29.423 22.033 29.473 22.566 29.473 C 28.382 29.473 33.963 22.688 33.963 22.688 C 33.963 22.688 29.258 16.51 21.995 16.557 L 21.995 16.555 L 21.995 16.555 Z " fill-rule="evenodd" fill="url(#_lgradient_40)"/></svg>