<?xml version="1.0" encoding="UTF-8" standalone="no"?><!-- Generator: Gravit.io --><svg xmlns="http://www.w3.org/2000/svg" xmlns:xlink="http://www.w3.org/1999/xlink" style="isolation:isolate" viewBox="0 0 48 48" width="48pt" height="48pt"><linearGradient id="_lgradient_4" x1="0" y1="0.5" x2="1" y2="0.5" gradientTransform="matrix(47,0,0,45.733,0.5,1.133)" gradientUnits="userSpaceOnUse"><stop offset="0%" stop-opacity="1" style="stop-color:rgb(175,104,229)"/><stop offset="98.26086956521739%" stop-opacity="1" style="stop-color:rgb(250,172,128)"/></linearGradient><path d=" M 4.678 23.067 L 4.678 23.067 C 4.678 24.22 3.742 25.156 2.589 25.156 L 2.589 25.156 C 1.436 25.156 0.5 24.22 0.5 23.067 L 0.5 23.067 L 0.5 7.4 C 0.5 5.739 1.158 4.141 2.338 2.972 C 3.508 1.791 5.106 1.133 6.767 1.133 L 25.567 1.133 L 25.567 1.133 C 26.72 1.133 27.656 2.069 27.656 3.222 L 27.656 3.222 C 27.656 4.375 26.72 5.311 25.567 5.311 L 25.567 5.311 L 6.767 5.311 C 6.213 5.311 5.68 5.53 5.294 5.927 C 4.897 6.314 4.678 6.846 4.678 7.4 L 4.678 23.067 L 4.678 23.067 L 4.678 23.067 L 4.678 23.067 L 4.678 23.067 L 4.678 23.067 Z  M 43.322 32.244 L 43.322 32.244 C 43.322 31.092 44.258 30.156 45.411 30.156 L 45.411 30.156 C 46.564 30.156 47.5 31.092 47.5 32.244 L 47.5 32.244 L 47.5 40.6 C 47.5 42.261 46.842 43.859 45.662 45.028 C 44.492 46.209 42.894 46.867 41.233 46.867 L 6.767 46.867 C 5.106 46.867 3.508 46.209 2.338 45.028 C 1.158 43.859 0.5 42.261 0.5 40.6 L 0.5 38.511 L 0.5 38.511 C 0.5 37.358 1.436 36.422 2.589 36.422 L 2.589 36.422 C 3.742 36.422 4.678 37.358 4.678 38.511 L 4.678 38.511 L 4.678 40.6 C 4.678 41.154 4.897 41.686 5.294 42.073 C 5.68 42.47 6.213 42.689 6.767 42.689 L 41.233 42.689 C 41.787 42.689 42.32 42.47 42.706 42.073 C 43.103 41.686 43.322 41.154 43.322 40.6 L 43.322 32.244 L 43.322 32.244 L 43.322 32.244 L 43.322 32.244 L 43.322 32.244 L 43.322 32.244 Z  M 34.967 5.311 L 34.967 5.311 C 33.814 5.311 32.878 4.375 32.878 3.222 L 32.878 3.222 C 32.878 2.069 33.814 1.133 34.967 1.133 L 34.967 1.133 L 41.233 1.133 C 42.894 1.133 44.492 1.791 45.662 2.972 C 46.842 4.141 47.5 5.739 47.5 7.4 L 47.5 16.8 L 47.5 16.8 C 47.5 17.953 46.564 18.889 45.411 18.889 L 45.411 18.889 C 44.258 18.889 43.322 17.953 43.322 16.8 L 43.322 16.8 L 43.322 7.4 C 43.322 6.846 43.103 6.314 42.706 5.927 C 42.32 5.53 41.787 5.311 41.233 5.311 L 34.967 5.311 L 34.967 5.311 L 34.967 5.311 L 34.967 5.311 L 34.967 5.311 Z  M 20.426 19.342 L 18.805 19.342 L 18.805 12.418 L 18.805 12.418 Q 18.805 11.109 18.209 10.465 L 18.209 10.465 L 18.209 10.465 Q 17.613 9.82 16.344 9.82 L 16.344 9.82 L 16.344 9.82 Q 14.664 9.82 13.883 10.729 L 13.883 10.729 L 13.883 10.729 Q 13.102 11.637 13.102 13.727 L 13.102 13.727 L 13.102 19.342 L 11.48 19.342 L 11.48 8.639 L 12.799 8.639 L 13.063 10.104 L 13.141 10.104 L 13.141 10.104 Q 13.639 9.313 14.537 8.878 L 14.537 8.878 L 14.537 8.878 Q 15.436 8.443 16.539 8.443 L 16.539 8.443 L 16.539 8.443 Q 18.473 8.443 19.449 9.376 L 19.449 9.376 L 19.449 9.376 Q 20.426 10.309 20.426 12.359 L 20.426 12.359 L 20.426 19.342 L 20.426 19.342 L 20.426 19.342 L 20.426 19.342 Z  M 31.797 19.205 L 27.48 8.443 L 29.219 8.443 L 31.563 14.547 L 31.563 14.547 Q 32.334 16.637 32.52 17.564 L 32.52 17.564 L 32.598 17.564 L 32.598 17.564 Q 32.725 17.066 33.13 15.86 L 33.13 15.86 L 33.13 15.86 Q 33.535 14.654 35.781 8.443 L 35.781 8.443 L 37.52 8.443 L 32.92 20.631 L 32.92 20.631 Q 32.236 22.438 31.323 23.194 L 31.323 23.194 L 31.323 23.194 Q 30.41 23.951 29.082 23.951 L 29.082 23.951 L 29.082 23.951 Q 28.34 23.951 27.617 23.785 L 27.617 23.785 L 27.617 22.486 L 27.617 22.486 Q 28.154 22.604 28.818 22.604 L 28.818 22.604 L 28.818 22.604 Q 30.488 22.604 31.201 20.729 L 31.201 20.729 L 31.797 19.205 L 31.797 19.205 L 31.797 19.205 Z  M 11.48 38.219 L 15.396 32.74 L 11.676 27.516 L 13.521 27.516 L 16.344 31.617 L 19.156 27.516 L 20.982 27.516 L 17.262 32.74 L 21.178 38.219 L 19.342 38.219 L 16.344 33.883 L 13.316 38.219 L 11.48 38.219 L 11.48 38.219 Z  M 34.204 38.219 L 34.204 38.219 L 34.204 38.219 Q 34.634 38.219 35.034 38.155 L 35.034 38.155 L 35.034 38.155 Q 35.435 38.092 35.669 38.023 L 35.669 38.023 L 35.669 39.264 L 35.669 39.264 Q 35.405 39.391 34.893 39.474 L 34.893 39.474 L 34.893 39.474 Q 34.38 39.557 33.97 39.557 L 33.97 39.557 L 33.97 39.557 Q 30.864 39.557 30.864 36.285 L 30.864 36.285 L 30.864 29.918 L 29.331 29.918 L 29.331 29.137 L 30.864 28.463 L 31.548 26.178 L 32.485 26.178 L 32.485 28.658 L 35.591 28.658 L 35.591 29.918 L 32.485 29.918 L 32.485 36.217 L 32.485 36.217 Q 32.485 37.184 32.944 37.701 L 32.944 37.701 L 32.944 37.701 Q 33.403 38.219 34.204 38.219 Z " fill-rule="evenodd" fill="url(#_lgradient_4)"/></svg>