<?xml version="1.0" encoding="UTF-8" standalone="no"?><!-- Generator: Gravit.io --><svg xmlns="http://www.w3.org/2000/svg" xmlns:xlink="http://www.w3.org/1999/xlink" style="isolation:isolate" viewBox="0 0 56 56" width="56pt" height="56pt"><linearGradient id="_lgradient_18" x1="0" y1="0.5" x2="1" y2="0.5" gradientTransform="matrix(53.3,0,0,44.107,1.35,5.946)" gradientUnits="userSpaceOnUse"><stop offset="0%" stop-opacity="1" style="stop-color:rgb(255,229,59)"/><stop offset="98.69565217391305%" stop-opacity="1" style="stop-color:rgb(255,0,91)"/></linearGradient><path d=" M 42.998 30.144 C 43.18 31.235 44.129 32.068 45.271 32.068 L 45.271 32.068 L 45.271 32.068 C 46.539 32.068 47.748 32.575 48.647 33.474 C 49.534 34.361 50.041 35.582 50.041 36.849 L 50.041 40.663 C 50.041 41.931 49.534 43.14 48.647 44.039 C 47.748 44.938 46.539 45.445 45.271 45.445 L 45.271 45.445 C 43.999 45.445 42.967 46.477 42.967 47.749 L 42.967 47.749 C 42.967 49.021 43.999 50.054 45.271 50.054 L 45.271 50.054 C 47.76 50.054 50.145 49.063 51.908 47.3 C 53.659 45.537 54.65 43.152 54.65 40.663 L 54.65 36.849 C 54.65 34.361 53.659 31.976 51.908 30.213 C 50.7 29.005 49.201 28.16 47.576 27.747 L 47.576 23.231 C 47.576 23.139 47.564 23.035 47.553 22.943 C 47.38 21.525 47.092 20.131 46.7 18.76 C 46.377 17.597 45.939 16.467 45.398 15.384 C 44.914 14.416 44.338 13.495 43.693 12.642 C 43.059 11.824 42.356 11.075 41.584 10.395 C 40.812 9.716 39.96 9.116 39.072 8.598 C 38.116 8.056 37.114 7.596 36.065 7.227 C 34.879 6.812 33.657 6.513 32.424 6.317 C 30.938 6.086 29.44 5.959 27.942 5.948 C 26.606 5.936 25.269 5.994 23.933 6.121 C 22.827 6.224 21.732 6.397 20.649 6.651 C 19.589 6.881 18.564 7.204 17.55 7.607 C 16.674 7.953 15.821 8.379 15.015 8.886 C 14.139 9.428 13.321 10.073 12.584 10.799 C 11.869 11.501 11.236 12.285 10.694 13.138 C 10.13 14.036 9.657 14.993 9.312 15.995 C 8.92 17.113 8.632 18.265 8.459 19.44 C 8.447 19.555 8.436 19.659 8.436 19.774 L 8.436 22.078 L 8.436 22.078 C 8.436 23.35 9.468 24.383 10.74 24.383 L 10.74 24.383 C 12.012 24.383 13.045 23.35 13.045 22.078 L 13.045 22.078 L 13.045 19.947 C 13.171 19.117 13.379 18.311 13.655 17.527 C 13.897 16.848 14.208 16.214 14.589 15.615 C 14.934 15.05 15.349 14.543 15.821 14.082 C 16.317 13.598 16.858 13.161 17.458 12.792 C 18.022 12.435 18.621 12.135 19.243 11.893 C 20.038 11.582 20.845 11.329 21.675 11.144 C 22.562 10.937 23.46 10.799 24.371 10.706 C 25.546 10.591 26.721 10.545 27.908 10.557 C 29.175 10.568 30.454 10.672 31.71 10.868 C 32.678 11.018 33.623 11.259 34.556 11.582 C 35.328 11.859 36.065 12.193 36.78 12.596 C 37.413 12.965 38.001 13.38 38.554 13.863 C 39.096 14.336 39.579 14.866 40.017 15.43 C 40.501 16.064 40.916 16.732 41.273 17.435 C 41.688 18.265 42.022 19.129 42.276 20.028 C 42.587 21.122 42.817 22.24 42.967 23.38 L 42.967 27.839 L 42.967 29.764 L 42.967 29.764 L 42.967 29.764 L 42.967 29.764 L 42.967 30.144 L 42.998 30.144 L 42.998 30.144 L 42.998 30.144 L 42.998 30.144 Z  M 10.74 45.445 L 10.74 45.445 C 12.012 45.445 13.045 46.477 13.045 47.749 L 13.045 47.749 C 13.045 49.021 12.012 50.054 10.74 50.054 L 10.74 50.054 C 8.252 50.054 5.855 49.063 4.104 47.3 C 2.341 45.537 1.35 43.152 1.35 40.663 L 1.35 36.849 C 1.35 34.361 2.341 31.976 4.104 30.213 C 5.855 28.45 8.252 27.459 10.74 27.459 L 10.74 27.459 C 12.012 27.459 13.045 28.492 13.045 29.764 L 13.045 29.764 C 13.045 31.035 12.012 32.068 10.74 32.068 L 10.74 32.068 C 9.473 32.068 8.252 32.575 7.353 33.474 C 6.466 34.361 5.959 35.582 5.959 36.849 L 5.959 40.663 C 5.959 41.931 6.466 43.14 7.353 44.039 C 8.252 44.938 9.473 45.445 10.74 45.445 L 10.74 45.445 L 10.74 45.445 L 10.74 45.445 L 10.74 45.445 Z  M 18.932 45.721 L 18.932 45.721 C 18.932 46.993 17.383 48.026 15.476 48.026 L 15.476 48.026 C 14.84 48.026 14.324 47.509 14.324 46.873 L 14.324 45.721 L 14.324 31.791 L 14.324 30.639 C 14.324 30.003 14.84 29.487 15.476 29.487 L 15.476 29.487 C 17.383 29.487 18.932 30.52 18.932 31.791 L 18.932 31.791 L 18.932 45.721 L 18.932 45.721 L 18.932 45.721 Z  M 41.676 45.721 L 41.676 46.873 C 41.676 47.509 41.16 48.026 40.524 48.026 L 40.524 48.026 C 38.617 48.026 37.068 46.993 37.068 45.721 L 37.068 45.721 L 37.068 31.791 L 37.068 31.791 C 37.068 30.52 38.617 29.487 40.524 29.487 L 40.524 29.487 C 41.16 29.487 41.676 30.003 41.676 30.639 L 41.676 31.791 L 41.676 45.721 L 41.676 45.721 Z  M 21.458 41.377 L 21.458 41.377 C 21.281 41.811 20.786 42.022 20.353 41.847 L 20.353 41.847 C 19.921 41.671 19.71 41.176 19.883 40.741 L 19.883 40.741 L 21.865 35.826 C 22.739 33.658 24.188 33.646 25.098 35.799 L 26.439 38.971 L 26.439 38.971 C 27.071 36.919 28.668 36.547 30.006 38.141 L 30.006 38.141 L 31.303 35.056 C 32.209 32.902 33.543 32.953 34.28 35.172 L 36.147 40.792 L 36.147 40.792 C 36.292 41.236 36.051 41.716 35.609 41.864 L 35.609 41.864 C 35.167 42.011 34.687 41.77 34.538 41.326 L 34.538 41.326 L 33.559 38.376 C 33.117 37.045 32.317 37.013 31.774 38.306 L 30.594 41.111 C 30.232 41.973 29.665 41.967 29.328 41.097 L 29.328 41.097 C 28.823 39.793 27.936 39.768 27.348 41.041 L 27.082 41.617 C 26.69 42.466 26.075 42.457 25.711 41.596 L 24.474 38.676 C 23.927 37.385 23.059 37.393 22.536 38.695 L 21.458 41.377 Z " fill-rule="evenodd" fill="url(#_lgradient_18)"/></svg>