<?xml version="1.0" encoding="UTF-8" standalone="no"?><!-- Generator: Gravit.io --><svg xmlns="http://www.w3.org/2000/svg" xmlns:xlink="http://www.w3.org/1999/xlink" style="isolation:isolate" viewBox="0 0 48 48" width="48pt" height="48pt"><linearGradient id="_lgradient_7" x1="-0.014458464773922156" y1="0.009839246119734024" x2="1.0164565923220248" y2="1.0722930524759795" gradientTransform="matrix(47.058,0,0,46.985,0.495,0.559)" gradientUnits="userSpaceOnUse"><stop offset="1.3043478260869565%" stop-opacity="1" style="stop-color:rgb(254,172,94)"/><stop offset="53.04347826086957%" stop-opacity="1" style="stop-color:rgb(199,121,208)"/><stop offset="99.56521739130434%" stop-opacity="1" style="stop-color:rgb(75,192,200)"/></linearGradient><path d=" M 13 27 C 13 27.27 12.89 27.52 12.71 27.71 C 12.52 27.89 12.27 28 12 28 C 11.73 28 11.48 27.89 11.29 27.71 C 11.11 27.52 11 27.27 11 27 L 11 21 C 11 20.73 11.11 20.48 11.29 20.29 C 11.48 20.11 11.73 20 12 20 C 12.27 20 12.52 20.11 12.71 20.29 C 12.89 20.48 13 20.73 13 21 L 13 27 L 13 27 L 13 27 L 13 27 L 13 27 L 13 27 L 13 27 L 13 27 Z  M 17 32 C 17 32.27 16.89 32.52 16.71 32.71 C 16.52 32.89 16.27 33 16 33 C 15.73 33 15.48 32.89 15.29 32.71 C 15.11 32.52 15 32.27 15 32 L 15 16 C 15 15.73 15.11 15.48 15.29 15.29 C 15.48 15.11 15.73 15 16 15 C 16.27 15 16.52 15.11 16.71 15.29 C 16.89 15.48 17 15.73 17 16 L 17 32 L 17 32 L 17 32 L 17 32 L 17 32 L 17 32 L 17 32 L 17 32 Z  M 21 30 C 21 30.27 20.89 30.52 20.71 30.71 C 20.52 30.89 20.27 31 20 31 C 19.73 31 19.48 30.89 19.29 30.71 C 19.11 30.52 19 30.27 19 30 L 19 18 C 19 17.73 19.11 17.48 19.29 17.29 C 19.48 17.11 19.73 17 20 17 C 20.27 17 20.52 17.11 20.71 17.29 C 20.89 17.48 21 17.73 21 18 L 21 30 L 21 30 L 21 30 L 21 30 L 21 30 L 21 30 L 21 30 Z  M 25 33 C 25 33.27 24.89 33.52 24.71 33.71 C 24.52 33.89 24.27 34 24 34 C 23.73 34 23.48 33.89 23.29 33.71 C 23.11 33.52 23 33.27 23 33 L 23 15 C 23 14.73 23.11 14.48 23.29 14.29 C 23.48 14.11 23.73 14 24 14 C 24.27 14 24.52 14.11 24.71 14.29 C 24.89 14.48 25 14.73 25 15 L 25 33 L 25 33 L 25 33 L 25 33 L 25 33 L 25 33 Z  M 29 29 C 29 29.27 28.89 29.52 28.71 29.71 C 28.52 29.89 28.27 30 28 30 C 27.73 30 27.48 29.89 27.29 29.71 C 27.11 29.52 27 29.27 27 29 L 27 19 C 27 18.73 27.11 18.48 27.29 18.29 C 27.48 18.11 27.73 18 28 18 C 28.27 18 28.52 18.11 28.71 18.29 C 28.89 18.48 29 18.73 29 19 L 29 29 L 29 29 L 29 29 L 29 29 L 29 29 Z  M 33 27 C 33 27.27 32.89 27.52 32.71 27.71 C 32.52 27.89 32.27 28 32 28 C 31.73 28 31.48 27.89 31.29 27.71 C 31.11 27.52 31 27.27 31 27 L 31 21 C 31 20.73 31.11 20.48 31.29 20.29 C 31.48 20.11 31.73 20 32 20 C 32.27 20 32.52 20.11 32.71 20.29 C 32.89 20.48 33 20.73 33 21 L 33 27 L 33 27 L 33 27 L 33 27 Z  M 37 30 C 37 30.27 36.89 30.52 36.71 30.71 C 36.52 30.89 36.27 31 36 31 C 35.73 31 35.48 30.89 35.29 30.71 C 35.11 30.52 35 30.27 35 30 L 35 18 C 35 17.73 35.11 17.48 35.29 17.29 C 35.48 17.11 35.73 17 36 17 C 36.27 17 36.52 17.11 36.71 17.29 C 36.89 17.48 37 17.73 37 18 L 37 30 L 37 30 L 37 30 Z  M 22.417 43.272 L 22.417 43.272 C 23.591 43.371 24.466 44.407 24.37 45.584 L 24.37 45.584 C 24.273 46.76 23.237 47.635 22.058 47.536 L 22.058 47.536 C 16.148 47.044 10.632 44.331 6.629 39.942 C 2.636 35.553 0.442 29.811 0.496 23.875 C 0.552 17.64 3.088 11.674 7.534 7.297 C 11.99 2.93 18.002 0.504 24.237 0.56 C 30.472 0.616 36.438 3.152 40.815 7.598 C 45.181 12.054 47.608 18.066 47.552 24.301 L 47.552 24.301 C 47.541 25.481 46.574 26.431 45.394 26.42 L 45.394 26.42 C 44.213 26.41 43.263 25.443 43.274 24.262 L 43.274 24.262 C 43.32 19.161 41.333 14.244 37.761 10.597 C 34.179 6.96 29.299 4.884 24.198 4.838 C 19.097 4.792 14.18 6.779 10.533 10.351 C 6.896 13.933 4.82 18.813 4.774 23.914 C 4.73 28.769 6.516 33.47 9.789 37.061 C 13.061 40.652 17.576 42.864 22.417 43.272 L 22.417 43.272 Z  M 40.99 33.194 L 40.99 33.194 C 41.548 32.154 42.846 31.763 43.886 32.321 L 43.886 32.321 C 44.925 32.88 45.316 34.177 44.758 35.217 L 44.758 35.217 C 42.376 39.645 38.632 43.205 34.088 45.356 L 34.088 45.356 C 33.021 45.866 31.743 45.413 31.237 44.346 L 31.237 44.346 C 30.73 43.279 31.185 41.999 32.252 41.489 L 32.252 41.489 C 35.979 39.726 39.032 36.823 40.99 33.194 Z " fill-rule="evenodd" fill="url(#_lgradient_7)"/></svg>