<?xml version="1.0" encoding="UTF-8" standalone="no"?><!-- Generator: Gravit.io --><svg xmlns="http://www.w3.org/2000/svg" xmlns:xlink="http://www.w3.org/1999/xlink" style="isolation:isolate" viewBox="0 0 48 48" width="48pt" height="48pt"><linearGradient id="_lgradient_15" x1="0" y1="0.5" x2="1" y2="0.5" gradientTransform="matrix(40.44,0,0,17.21,3.78,26.19)" gradientUnits="userSpaceOnUse"><stop offset="0%" stop-opacity="1" style="stop-color:rgb(255,224,49)"/><stop offset="100%" stop-opacity="1" style="stop-color:rgb(250,0,117)"/></linearGradient><path d=" M 33.11 30.66 L 31.32 29.77 L 33.1 26.19 L 34.89 27.08 L 41.535 30.392 C 43.017 31.13 43.056 32.402 41.622 33.23 L 26.598 41.9 C 25.164 42.728 22.836 42.728 21.402 41.9 L 6.378 33.23 C 4.944 32.402 4.983 31.13 6.465 30.392 L 13.11 27.08 L 14.9 26.19 L 16.68 29.77 L 14.89 30.66 L 13.115 31.544 C 12.621 31.79 12.608 32.214 13.086 32.489 L 23.134 38.281 C 23.612 38.556 24.388 38.556 24.866 38.281 L 34.914 32.489 C 35.392 32.214 35.379 31.79 34.885 31.544 L 33.11 30.66 Z " fill="url(#_lgradient_15)"/><linearGradient id="_lgradient_16" x1="0.39980158730156745" y1="0.20242151662881497" x2="0.36506834215163786" y2="1.11853149718325" gradientTransform="matrix(40.22,0,0,17.48,3.89,16.92)" gradientUnits="userSpaceOnUse"><stop offset="0%" stop-opacity="1" style="stop-color:rgb(67,233,123)"/><stop offset="97.82608695652173%" stop-opacity="1" style="stop-color:rgb(56,249,215)"/></linearGradient><path d=" M 33.05 21.39 L 31.29 20.44 L 33.19 16.92 L 34.95 17.87 L 41.467 21.37 C 42.926 22.154 42.946 23.462 41.512 24.29 L 26.598 32.9 C 25.164 33.728 22.836 33.728 21.402 32.9 L 6.488 24.29 C 5.054 23.462 5.074 22.154 6.533 21.37 L 13.05 17.87 L 14.81 16.92 L 16.71 20.44 L 14.95 21.39 L 12.99 22.446 C 12.504 22.707 12.498 23.144 12.976 23.42 L 23.134 29.28 C 23.612 29.556 24.388 29.556 24.866 29.28 L 35.024 23.42 C 35.502 23.144 35.496 22.707 35.01 22.446 L 33.05 21.39 Z " fill="url(#_lgradient_16)"/><linearGradient id="_lgradient_17" x1="-0.000038208333333289435" y1="0.5000000833333331" x2="0.9999618333333335" y2="0.5000000833333331" gradientTransform="matrix(40,0,0,21.21,4,2.62)" gradientUnits="userSpaceOnUse"><stop offset="0%" stop-opacity="1" style="stop-color:rgb(0,198,255)"/><stop offset="98.69565217391305%" stop-opacity="1" style="stop-color:rgb(0,114,255)"/></linearGradient><path d=" M 21 19.36 L 21 19.36 C 21.955 19.912 22.282 21.137 21.73 22.095 L 21.73 22.095 C 21.178 23.053 19.955 23.382 19 22.83 L 19 22.83 L 6.598 15.67 C 5.164 14.842 5.164 13.498 6.598 12.67 L 21.402 4.12 C 22.836 3.292 25.164 3.292 26.598 4.12 L 41.402 12.67 C 42.836 13.498 42.836 14.842 41.402 15.67 L 29 22.83 L 29 22.83 C 28.045 23.382 26.822 23.053 26.27 22.095 L 26.27 22.095 C 25.718 21.137 26.045 19.912 27 19.36 L 27 19.36 L 35.134 14.67 C 35.612 14.394 35.612 13.946 35.134 13.67 L 24.866 7.74 C 24.388 7.464 23.612 7.464 23.134 7.74 L 12.866 13.67 C 12.388 13.946 12.388 14.394 12.866 14.67 L 21 19.36 Z " fill="url(#_lgradient_17)"/></svg>