<?xml version="1.0" encoding="UTF-8" standalone="no"?><!-- Generator: Gravit.io --><svg xmlns="http://www.w3.org/2000/svg" xmlns:xlink="http://www.w3.org/1999/xlink" style="isolation:isolate" viewBox="0 0 48 48" width="48pt" height="48pt"><linearGradient id="_lgradient_10" x1="0" y1="0.5" x2="0.9074880558539661" y2="0.9200778838291643" gradientTransform="matrix(48,0,0,48,0,0)" gradientUnits="userSpaceOnUse"><stop offset="0%" stop-opacity="1" style="stop-color:rgb(78,84,200)"/><stop offset="83.88839793817618%" stop-opacity="1" style="stop-color:rgb(0,114,255)"/></linearGradient><path d=" M 42.897 18 L 42.897 18 C 43.578 20.15 43.892 22.407 43.814 24.676 C 43.753 26.488 43.447 28.281 42.9 30 L 40 30 L 40 18 L 42.897 18 Z  M 41.564 14.476 C 41.436 13.623 41.867 12.759 42.679 12.353 L 42.679 12.353 C 43.711 11.838 44.964 12.257 45.477 13.289 L 45.477 13.289 C 47.265 16.858 48.122 20.824 47.986 24.818 C 47.882 27.863 47.206 30.857 45.983 33.635 L 45.983 33.635 C 45.521 34.691 44.288 35.173 43.232 34.71 L 43.232 34.71 C 42.393 34.343 41.916 33.488 42.01 32.621 C 41.795 33.092 41.553 33.551 41.293 34 L 40 34 L 36 34 L 26 34 L 22 34 L 12 34 L 8 34 L 6.701 34 C 6.146 33.047 5.672 32.051 5.273 31.025 C 5.266 31.871 4.721 32.646 3.874 32.93 L 3.874 32.93 C 2.781 33.296 1.596 32.703 1.23 31.608 L 1.23 31.608 C 0.331 28.894 -0.083 26.04 0.014 23.182 C 0.143 19.407 1.156 15.704 2.992 12.394 L 2.992 12.394 C 3.545 11.387 4.813 11.023 5.823 11.582 L 5.823 11.582 C 6.697 12.066 7.088 13.083 6.816 14 L 6.816 14 L 41.299 14 C 41.39 14.157 41.48 14.315 41.564 14.476 Z  M 5.096 30 L 5.096 30 C 4.414 27.839 4.108 25.59 4.185 23.324 C 4.247 21.511 4.556 19.72 5.101 18 L 8 18 L 8 30 L 5.096 30 Z  M 33.886 41.178 L 33.886 41.178 C 34.885 40.607 36.165 40.953 36.742 41.949 L 36.742 41.949 C 37.319 42.945 36.976 44.223 35.976 44.799 L 35.976 44.799 C 32.089 47.037 27.656 48.139 23.182 47.986 C 19.125 47.848 15.166 46.679 11.677 44.597 L 11.677 44.597 C 10.689 44.005 10.368 42.721 10.96 41.733 L 10.96 41.733 C 11.553 40.745 12.836 40.424 13.825 41.016 L 13.825 41.016 C 16.7 42.743 19.966 43.7 23.324 43.815 C 27.027 43.941 30.68 43.032 33.886 41.178 L 33.886 41.178 L 33.886 41.178 L 33.886 41.178 L 33.886 41.178 L 33.886 41.178 L 33.886 41.178 L 33.886 41.178 Z  M 15.411 6.135 L 15.411 6.135 C 14.374 6.63 13.126 6.19 12.625 5.153 L 12.625 5.153 C 12.125 4.116 12.56 2.867 13.597 2.367 L 13.597 2.367 C 17.089 0.69 20.938 -0.118 24.818 0.014 C 28.551 0.141 32.214 1.133 35.493 2.926 L 35.493 2.926 C 36.506 3.479 36.879 4.75 36.326 5.763 L 36.326 5.763 C 35.773 6.775 34.502 7.148 33.489 6.595 L 33.489 6.595 C 30.783 5.114 27.762 4.291 24.676 4.185 C 21.474 4.076 18.298 4.741 15.411 6.135 L 15.411 6.135 L 15.411 6.135 L 15.411 6.135 L 15.411 6.135 L 15.411 6.135 L 15.411 6.135 Z  M 41.964 8.836 C 41.924 9.988 40.958 10.89 39.807 10.851 C 38.656 10.812 37.753 9.845 37.792 8.694 C 37.831 7.543 38.798 6.64 39.949 6.68 C 41.1 6.719 42.003 7.685 41.964 8.836 L 41.964 8.836 L 41.964 8.836 L 41.964 8.836 L 41.964 8.836 Z  M 9.362 37.763 C 9.323 38.914 8.357 39.817 7.206 39.778 C 6.054 39.738 5.152 38.772 5.191 37.621 C 5.23 36.47 6.197 35.567 7.348 35.606 C 8.499 35.645 9.402 36.612 9.362 37.763 L 9.362 37.763 L 9.362 37.763 L 9.362 37.763 Z  M 42.771 38.902 C 42.81 37.751 41.907 36.785 40.756 36.745 C 39.605 36.706 38.639 37.609 38.599 38.76 C 38.56 39.911 39.463 40.878 40.614 40.917 C 41.765 40.956 42.732 40.053 42.771 38.902 L 42.771 38.902 L 42.771 38.902 Z  M 10.865 7.776 C 10.904 6.625 10.002 5.658 8.851 5.619 C 7.699 5.58 6.733 6.483 6.694 7.634 C 6.654 8.785 7.557 9.751 8.708 9.791 C 9.86 9.83 10.826 8.927 10.865 7.776 L 10.865 7.776 Z  M 7 15 L 9 15 L 9 17 L 7 17 L 7 15 L 7 15 Z  M 11 15 L 13 15 L 13 17 L 11 17 L 11 15 L 11 15 Z  M 15 15 L 17 15 L 17 17 L 15 17 L 15 15 L 15 15 Z  M 19 15 L 21 15 L 21 17 L 19 17 L 19 15 L 19 15 Z  M 23 15 L 25 15 L 25 17 L 23 17 L 23 15 L 23 15 Z  M 27 15 L 29 15 L 29 17 L 27 17 L 27 15 L 27 15 Z  M 31 15 L 33 15 L 33 17 L 31 17 L 31 15 L 31 15 Z  M 35 15 L 37 15 L 37 17 L 35 17 L 35 15 L 35 15 Z  M 39 15 L 41 15 L 41 17 L 39 17 L 39 15 L 39 15 Z  M 12 18 L 22 18 L 22 30 L 12 30 L 12 18 L 12 18 Z  M 26 18 L 36 18 L 36 30 L 26 30 L 26 18 L 26 18 Z  M 7 31 L 9 31 L 9 33 L 7 33 L 7 31 L 7 31 Z  M 11 31 L 13 31 L 13 33 L 11 33 L 11 31 L 11 31 Z  M 15 31 L 17 31 L 17 33 L 15 33 L 15 31 L 15 31 Z  M 19 31 L 21 31 L 21 33 L 19 33 L 19 31 L 19 31 Z  M 23 31 L 25 31 L 25 33 L 23 33 L 23 31 L 23 31 Z  M 27 31 L 29 31 L 29 33 L 27 33 L 27 31 L 27 31 Z  M 31 31 L 33 31 L 33 33 L 31 33 L 31 31 L 31 31 Z  M 35 31 L 37 31 L 37 33 L 35 33 L 35 31 L 35 31 Z  M 39 31 L 41 31 L 41 33 L 39 33 L 39 31 L 39 31 Z " fill-rule="evenodd" fill="url(#_lgradient_10)"/></svg>