<?xml version="1.0" encoding="UTF-8" standalone="no"?><!-- Generator: Gravit.io --><svg xmlns="http://www.w3.org/2000/svg" xmlns:xlink="http://www.w3.org/1999/xlink" style="isolation:isolate" viewBox="0 0 48 48" width="48pt" height="48pt"><linearGradient id="_lgradient_4" x1="0.05681818181818182" y1="0.9542682926829268" x2="0.9624202551834131" y2="0.05929075738125844" gradientTransform="matrix(47,0,0,43.795,0.5,2.102)" gradientUnits="userSpaceOnUse"><stop offset="0%" stop-opacity="1" style="stop-color:rgb(241,39,17)"/><stop offset="99.1304347826087%" stop-opacity="1" style="stop-color:rgb(245,175,25)"/></linearGradient><path d=" M 6.909 35.216 C 6.909 32.858 8.824 30.943 11.182 30.943 C 13.54 30.943 15.455 32.858 15.455 35.216 C 15.455 37.574 13.54 39.489 11.182 39.489 C 8.824 39.489 6.909 37.574 6.909 35.216 L 6.909 35.216 L 6.909 35.216 L 6.909 35.216 L 6.909 35.216 Z  M 7.08 41.625 L 7.08 41.625 C 8.165 41.625 9.045 42.582 9.045 43.761 L 9.045 43.761 C 9.045 44.94 8.213 45.893 7.187 45.887 L 7.187 45.887 L 6.963 45.898 C 6.941 45.898 6.93 45.898 6.909 45.898 C 5.211 45.898 3.576 45.225 2.38 44.018 C 1.173 42.821 0.5 41.187 0.5 39.489 L 0.5 39.489 C 0.5 38.31 1.457 37.352 2.636 37.352 L 2.636 37.352 C 3.815 37.352 4.773 38.31 4.773 39.489 L 4.773 39.489 C 4.773 40.055 4.997 40.589 5.392 40.995 C 5.787 41.39 6.322 41.614 6.888 41.625 L 7.08 41.625 L 7.08 41.625 L 7.08 41.625 L 7.08 41.625 L 7.08 41.625 Z  M 4.773 30.943 L 4.773 30.943 C 4.773 32.122 3.815 33.08 2.636 33.08 L 2.636 33.08 C 1.457 33.08 0.5 32.122 0.5 30.943 L 0.5 30.943 L 0.5 7.443 C 0.5 4.495 2.893 2.102 5.841 2.102 L 42.159 2.102 C 45.107 2.102 47.5 4.495 47.5 7.443 L 47.5 13.852 L 47.5 13.852 C 47.5 15.031 46.543 15.989 45.364 15.989 L 45.364 15.989 C 44.185 15.989 43.227 15.031 43.227 13.852 L 43.227 13.852 L 43.227 9.58 C 43.227 7.811 41.791 6.375 40.023 6.375 L 7.977 6.375 C 6.209 6.375 4.773 7.811 4.773 9.58 L 4.773 30.943 L 4.773 30.943 L 4.773 30.943 L 4.773 30.943 Z  M 43.227 24.534 L 43.227 24.534 C 43.227 23.355 44.185 22.398 45.364 22.398 L 45.364 22.398 C 46.543 22.398 47.5 23.355 47.5 24.534 L 47.5 24.534 L 47.5 40.557 C 47.5 43.505 45.107 45.898 42.159 45.898 L 15.455 45.898 L 15.455 45.898 C 14.275 45.898 13.318 44.94 13.318 43.761 L 13.318 43.761 C 13.318 42.582 14.275 41.625 15.455 41.625 L 15.455 41.625 L 40.023 41.625 C 41.791 41.625 43.227 40.189 43.227 38.42 L 43.227 24.534 L 43.227 24.534 L 43.227 24.534 Z  M 10.722 25.079 L 10.722 25.079 C 9.838 25.097 9.106 24.393 9.088 23.509 L 9.088 23.509 C 9.07 22.624 9.774 21.892 10.658 21.874 L 10.658 21.874 L 11.15 21.864 C 11.16 21.864 11.171 21.864 11.182 21.864 C 14.365 21.864 17.441 22.996 19.855 25.068 C 22.28 27.13 23.882 29.993 24.374 33.133 L 24.374 33.133 C 24.509 34.005 23.911 34.826 23.039 34.965 L 23.039 34.965 C 22.166 35.103 21.348 34.508 21.212 33.635 L 21.212 33.635 C 20.828 31.253 19.62 29.074 17.783 27.504 C 15.946 25.933 13.617 25.068 11.203 25.068 L 10.722 25.079 L 10.722 25.079 Z  M 10.776 18.659 L 10.776 18.659 C 9.892 18.671 9.166 17.963 9.158 17.078 L 9.158 17.078 C 9.149 16.194 9.86 15.466 10.744 15.455 L 10.744 15.455 L 11.16 15.455 C 11.171 15.455 11.171 15.455 11.182 15.455 C 16.106 15.455 20.849 17.292 24.491 20.603 C 28.134 23.915 30.398 28.476 30.858 33.379 L 30.858 33.379 C 30.94 34.257 30.292 35.037 29.41 35.12 L 29.41 35.12 C 28.529 35.202 27.746 34.556 27.664 33.678 L 27.664 33.678 C 27.29 29.565 25.389 25.752 22.334 22.975 C 19.289 20.197 15.316 18.659 11.193 18.659 L 10.776 18.659 Z " fill-rule="evenodd" fill="url(#_lgradient_4)"/></svg>