<?xml version="1.0" encoding="UTF-8" standalone="no"?><!-- Generator: Gravit.io --><svg xmlns="http://www.w3.org/2000/svg" xmlns:xlink="http://www.w3.org/1999/xlink" style="isolation:isolate" viewBox="0 0 48 48" width="48pt" height="48pt"><linearGradient id="_lgradient_28" x1="0.9941176470588236" y1="0.4801559760374085" x2="0.00018059855521146417" y2="0.45213064394988733" gradientTransform="matrix(47.058,0,0,46.985,0.495,0.559)" gradientUnits="userSpaceOnUse"><stop offset="0%" stop-opacity="1" style="stop-color:rgb(17,153,142)"/><stop offset="99.1304347826087%" stop-opacity="1" style="stop-color:rgb(56,239,125)"/></linearGradient><path d=" M 12.234 11.658 L 13.091 12.302 C 10.371 13.556 17.356 19.28 17.356 19.28 C 17.356 19.28 18.715 18.057 20.707 17.928 C 22.682 15.903 30.904 17.444 30.596 19.105 C 27.832 19.149 26.957 18.795 26.957 18.795 C 26.957 18.795 27.093 18.953 27.149 19.493 C 26.947 19.659 24.09 19.019 23.492 19.064 C 21.792 19.194 20.645 19.237 19.425 19.372 C 20.264 19.649 26.95 20.84 29.088 22.906 C 28.518 23.126 28.268 23.036 28.078 23.106 C 27.911 23.168 27.741 23.509 27.374 23.51 C 27.11 23.512 27.2 23.277 26.657 23.02 C 23.274 23.155 22.177 21.091 21.843 20.837 C 20.349 20.481 17.833 19.675 17.833 19.675 C 17.833 19.675 19.964 21.375 21.132 22.318 C 21.229 22.397 22.83 22.695 24.866 23.688 C 25.96 22.792 28.91 24.312 28.362 25.704 C 27.873 26.943 24.598 25.666 24.718 23.979 C 23.97 23.746 22.589 23.079 21.705 22.76 C 22.552 23.421 25.881 26.194 26.55 26.979 C 29.481 26.619 33.905 27.35 36.649 29.109 C 36.023 29.274 33.045 29.84 32.449 29.681 C 31.34 29.262 29.688 27.904 29.512 27.751 C 28.876 27.644 27.447 27.439 26.898 27.376 C 27.455 27.941 29.293 30.066 29.87 30.959 C 30.11 30.909 31.329 31.202 31.667 31.431 C 32.919 30.154 34.949 32.396 36.198 33.478 C 35.87 34.144 30.72 33.119 31.408 31.628 C 31.04 31.579 30.304 31.174 30.032 31.153 C 30.31 31.516 30.915 32.01 31.713 32.847 C 32.481 32.629 35.374 35.759 35.451 36.445 C 33.286 35.917 32.217 35.458 31.882 35.067 C 31.221 34.294 31.471 33.184 31.534 32.983 C 30.683 32.222 30.524 31.996 30.246 31.845 C 30.238 31.853 30.247 32.079 30.26 32.189 C 31.658 33.22 30.982 36.074 30.178 36.175 C 29.828 36.219 29.022 32.149 30.029 31.997 C 30.052 31.917 30.066 31.676 30.067 31.667 C 29.535 31.088 26.588 27.954 26.396 27.822 C 26.492 28.07 26.648 28.476 26.792 28.978 C 28.532 30.116 28.82 31.936 28.689 34.074 C 28.272 33.343 24.182 30.014 25.971 28.539 C 25.984 28.311 25.916 27.795 26.066 27.504 C 25.499 26.937 23.733 25.194 23.575 25.196 C 23.772 25.6 23.894 25.831 23.992 26.268 C 25.338 26.94 24.947 28.675 24.334 28.712 C 23.688 28.751 22.257 26.759 23.603 26.337 C 23.494 25.835 23.297 25.154 23.217 24.858 C 22.634 24.412 20.705 22.87 20.26 22.511 C 20.807 23.422 21.342 24.84 21.609 25.653 C 23.222 27.48 22.776 30.306 22.613 33.222 C 20.72 31.817 19.546 27.022 20.749 25.829 C 20.347 24.442 19.74 22.096 19.74 22.096 C 17.138 20.077 15.699 18.563 15.699 18.563 C 15.699 18.563 17.432 20.811 17.63 22.016 C 19.148 22.31 20.416 24.955 19.209 25.407 C 17.445 26.066 15.551 23.267 17.056 22.224 C 17.056 22.224 15.723 19.769 14.691 17.616 C 10.622 13.149 11.013 11.807 12.233 11.658 L 12.234 11.658 L 12.234 11.658 Z  M 22.417 43.272 L 22.417 43.272 C 23.591 43.371 24.466 44.407 24.37 45.584 L 24.37 45.584 C 24.273 46.76 23.237 47.635 22.058 47.536 L 22.058 47.536 C 16.148 47.044 10.632 44.331 6.629 39.942 C 2.636 35.553 0.442 29.811 0.496 23.875 C 0.552 17.64 3.088 11.674 7.534 7.297 C 11.99 2.93 18.002 0.504 24.237 0.56 C 30.472 0.616 36.438 3.152 40.815 7.598 C 45.181 12.054 47.608 18.066 47.552 24.301 L 47.552 24.301 C 47.541 25.481 46.574 26.431 45.394 26.42 L 45.394 26.42 C 44.213 26.41 43.263 25.443 43.274 24.262 L 43.274 24.262 C 43.32 19.161 41.333 14.244 37.761 10.597 C 34.179 6.96 29.299 4.884 24.198 4.838 C 19.097 4.792 14.18 6.779 10.533 10.351 C 6.896 13.933 4.82 18.813 4.774 23.914 C 4.73 28.769 6.516 33.47 9.789 37.061 C 13.061 40.652 17.576 42.864 22.417 43.272 L 22.417 43.272 Z  M 40.99 33.194 L 40.99 33.194 C 41.548 32.154 42.846 31.763 43.886 32.321 L 43.886 32.321 C 44.925 32.88 45.316 34.177 44.758 35.217 L 44.758 35.217 C 42.376 39.645 38.632 43.205 34.088 45.356 L 34.088 45.356 C 33.021 45.866 31.743 45.413 31.237 44.346 L 31.237 44.346 C 30.73 43.279 31.185 41.999 32.252 41.489 L 32.252 41.489 C 35.979 39.726 39.032 36.823 40.99 33.194 Z " fill-rule="evenodd" fill="url(#_lgradient_28)"/></svg>