<?xml version="1.0" encoding="UTF-8" standalone="no"?><!-- Generator: Gravit.io --><svg xmlns="http://www.w3.org/2000/svg" xmlns:xlink="http://www.w3.org/1999/xlink" style="isolation:isolate" viewBox="0 0 48 48" width="48pt" height="48pt"><linearGradient id="_lgradient_1" x1="0.02327127659574467" y1="0.0359267892922461" x2="1.1329963754471852" y2="0.8137143193440098" gradientTransform="matrix(37.6,0,0,38.272,2.5,4.864)" gradientUnits="userSpaceOnUse"><stop offset="0%" stop-opacity="1" style="stop-color:rgb(22,181,228)"/><stop offset="98.26086956521739%" stop-opacity="1" style="stop-color:rgb(245,32,250)"/></linearGradient><path d=" M 38.1 31.864 L 40.1 31.864 L 40.1 35.864 L 38.1 35.864 L 24.53 35.864 L 19.852 42.416 C 19.211 43.314 18.087 43.381 17.343 42.565 L 11.24 35.864 L 4.5 35.864 C 3.396 35.864 2.5 34.968 2.5 33.864 L 2.5 26.364 L 2.5 26.364 C 2.5 25.26 3.396 24.364 4.5 24.364 L 4.5 24.364 C 5.604 24.364 6.5 25.26 6.5 26.364 L 6.5 26.364 L 6.5 31.864 L 13.01 31.864 L 18.31 37.684 L 22.47 31.864 L 38.1 31.864 Z  M 6.5 17.024 L 6.5 17.024 C 6.5 18.128 5.604 19.024 4.5 19.024 L 4.5 19.024 C 3.396 19.024 2.5 18.128 2.5 17.024 L 2.5 17.024 L 2.5 6.864 C 2.5 5.76 3.396 4.864 4.5 4.864 L 24.24 4.864 L 26.24 4.864 L 26.24 8.864 L 24.24 8.864 L 6.5 8.864 L 6.5 17.024 Z " fill-rule="evenodd" fill="url(#_lgradient_1)"/><linearGradient id="_lgradient_2" x1="-0.3581776520926892" y1="0.020161290322580627" x2="0.9978597871440014" y2="0.988828668135209" gradientTransform="matrix(31.016,0,0,31,14.484,4.864)" gradientUnits="userSpaceOnUse"><stop offset="0%" stop-opacity="1" style="stop-color:rgb(22,181,228)"/><stop offset="98.26086956521739%" stop-opacity="1" style="stop-color:rgb(245,32,250)"/></linearGradient><path d=" M 35.608 35.864 L 43.278 35.864 C 44.509 35.864 45.5 34.595 45.5 33.364 L 45.5 7.364 C 45.5 6.133 44.509 4.864 43.278 4.864 L 25.164 4.864 L 24.236 4.864 L 25.164 4.864 L 25.164 4.864 C 19.556 6.727 14.843 11.307 14.5 17.387 C 14.176 23.131 18.858 29.611 24.922 29.864 C 28.958 30.033 33.081 26.543 33.188 22.274 C 33.258 19.521 31.26 16.88 28.328 16.864 C 26.505 16.853 24.639 18.022 24.672 19.969 C 24.698 21.129 25.567 22.321 26.817 22.266 C 27.522 22.235 28.252 21.687 28.194 20.922 C 28.162 20.517 27.835 20.095 27.391 20.147 C 27.171 20.173 26.942 20.354 26.983 20.594 C 27.009 20.701 27.096 20.818 27.219 20.79 C 27.266 20.779 27.315 20.732 27.305 20.68 C 27.305 20.662 27.278 20.644 27.26 20.653 C 27.26 20.654 27.234 20.661 27.26 20.669 L 27.26 20.684 C 27.26 20.705 27.224 20.704 27.205 20.694 C 27.155 20.668 27.162 20.601 27.18 20.561 C 27.245 20.457 27.392 20.469 27.483 20.532 C 27.684 20.673 27.646 20.966 27.51 21.137 C 27.233 21.488 26.704 21.421 26.395 21.157 C 25.812 20.658 25.94 19.756 26.42 19.235 C 27.264 18.314 28.728 18.537 29.563 19.342 C 30.964 20.695 30.593 23.264 29.297 24.545 C 27.212 26.604 23.308 26.024 21.408 24.029 C 18.462 20.935 19.344 15.289 22.316 12.557 C 24.219 10.808 27.084 10.038 29.469 10.061 C 32.683 10.093 35.933 11.565 38.135 14.028 C 43.743 20.301 41.904 30.409 35.856 35.669 C 35.773 35.737 35.69 35.796 35.608 35.864 Z " fill-rule="evenodd" fill="url(#_lgradient_2)"/></svg>