<?xml version="1.0" encoding="UTF-8" standalone="no"?><!-- Generator: Gravit.io --><svg xmlns="http://www.w3.org/2000/svg" xmlns:xlink="http://www.w3.org/1999/xlink" style="isolation:isolate" viewBox="0 0 48 48" width="48pt" height="48pt"><linearGradient id="_lgradient_5" x1="0.5798611111111112" y1="0.9597848154139552" x2="0.8784722222222219" y2="0.2395438617886262" gradientTransform="matrix(36,0,0,47.033,6,0.484)" gradientUnits="userSpaceOnUse"><stop offset="0%" stop-opacity="1" style="stop-color:rgb(255,224,49)"/><stop offset="100%" stop-opacity="1" style="stop-color:rgb(250,0,117)"/></linearGradient><path d=" M 26.088 41.883 C 25.406 41.976 24.708 42.016 24 42.016 C 14.066 42.016 6 33.951 6 24.016 L 6 24.016 L 6 24.016 C 6 19.598 7.595 15.55 10.24 12.416 L 10.24 12.416 L 10 12.516 C 12.999 7.433 19.009 2.443 21.412 1.034 C 22.84 0.196 23.243 0.33 22.311 1.332 C 22.311 1.332 21.342 3.36 21.733 6.168 C 22.473 6.065 23.231 6.016 24 6.016 C 33.934 6.016 42 14.082 42 24.016 C 42 28.464 40.383 32.537 37.698 35.672 C 34.666 40.69 28.774 45.575 26.401 46.966 C 24.973 47.804 24.57 47.67 25.502 46.668 C 25.502 46.668 26.459 44.665 26.088 41.883 Z  M 20.5 24.016 C 20.5 23.086 20.87 22.196 21.53 21.546 C 22.18 20.886 23.07 20.516 24 20.516 C 24.93 20.516 25.82 20.886 26.47 21.546 C 27.13 22.196 27.5 23.086 27.5 24.016 C 27.5 24.946 27.13 25.836 26.47 26.486 C 25.82 27.146 24.93 27.516 24 27.516 C 23.07 27.516 22.18 27.146 21.53 26.486 C 20.87 25.836 20.5 24.946 20.5 24.016 L 20.5 24.016 L 20.5 24.016 L 20.5 24.016 Z  M 16.5 24.016 C 16.5 19.877 19.861 16.516 24 16.516 C 28.139 16.516 31.5 19.877 31.5 24.016 C 31.5 28.156 28.139 31.516 24 31.516 C 19.861 31.516 16.5 28.156 16.5 24.016 L 16.5 24.016 L 16.5 24.016 L 16.5 24.016 Z  M 10 24.016 C 10 20.306 11.48 16.746 14.1 14.116 C 16.73 11.496 20.29 10.016 24 10.016 C 27.71 10.016 31.27 11.496 33.9 14.116 C 36.52 16.746 38 20.306 38 24.016 C 38 27.726 36.52 31.286 33.9 33.916 C 31.27 36.536 27.71 38.016 24 38.016 C 20.29 38.016 16.73 36.536 14.1 33.916 C 11.48 31.286 10 27.726 10 24.016 L 10 24.016 L 10 24.016 L 10 24.016 Z " fill-rule="evenodd" fill="url(#_lgradient_5)"/></svg>