<?xml version="1.0" encoding="UTF-8" standalone="no"?><!-- Generator: Gravit.io --><svg xmlns="http://www.w3.org/2000/svg" xmlns:xlink="http://www.w3.org/1999/xlink" style="isolation:isolate" viewBox="0 0 48 48" width="48pt" height="48pt"><linearGradient id="_lgradient_32" x1="0.18336115895060273" y1="0.24917751794896525" x2="0.9027436828643176" y2="0.9034772483231972" gradientTransform="matrix(47.365,0,0,47.432,0.635,0.507)" gradientUnits="userSpaceOnUse"><stop offset="2.608695652173913%" stop-opacity="1" style="stop-color:rgb(179,255,171)"/><stop offset="98.69565217391305%" stop-opacity="1" style="stop-color:rgb(18,255,247)"/></linearGradient><path d=" M 38.607 8.505 L 38.607 8.505 C 39.441 9.243 40.716 9.166 41.454 8.332 L 41.454 8.332 C 42.192 7.499 42.114 6.224 41.281 5.486 L 41.281 5.486 C 37.651 2.282 32.96 0.507 28.12 0.507 C 22.853 0.507 17.793 2.605 14.059 6.327 C 10.337 10.061 8.239 15.121 8.239 20.387 C 8.239 25.654 10.337 30.714 14.059 34.448 C 17.793 38.17 22.853 40.268 28.12 40.268 C 33.363 40.268 38.4 38.193 42.122 34.505 C 45.845 30.817 47.954 25.793 48 20.549 L 48 20.549 C 48.006 19.436 47.108 18.524 45.995 18.515 L 45.995 18.515 C 44.882 18.505 43.973 19.401 43.966 20.514 L 43.966 20.514 C 43.932 24.698 42.249 28.697 39.276 31.636 C 36.314 34.586 32.303 36.234 28.12 36.234 C 23.913 36.234 19.879 34.563 16.918 31.589 C 13.944 28.628 12.273 24.594 12.273 20.387 C 12.273 16.181 13.944 12.147 16.918 9.185 C 19.879 6.212 23.913 4.541 28.12 4.541 C 31.981 4.541 35.715 5.958 38.607 8.505 L 38.607 8.505 L 38.607 8.505 L 38.607 8.505 Z  M 42.941 14.775 L 42.941 14.775 C 43.335 15.818 44.502 16.345 45.545 15.95 L 45.545 15.95 C 46.588 15.556 47.115 14.389 46.721 13.346 L 46.721 13.346 C 46.433 12.62 46.11 11.894 45.753 11.202 L 45.753 11.202 C 45.237 10.21 44.016 9.825 43.027 10.344 L 43.027 10.344 C 42.038 10.862 41.658 12.083 42.18 13.069 L 42.18 13.069 C 42.468 13.622 42.722 14.199 42.941 14.775 L 42.941 14.775 L 42.941 14.775 L 42.941 14.775 Z  M 10.416 35.177 L 10.416 35.177 C 10.992 34.55 10.952 33.575 10.327 33.001 L 10.327 33.001 C 9.702 32.428 8.727 32.468 8.152 33.09 L 8.152 33.09 L 1.723 40.103 C 1.025 40.855 0.641 41.837 0.635 42.857 C 0.629 44.052 1.141 45.197 2.042 45.976 L 3.091 46.895 C 3.091 46.895 3.091 46.895 3.091 46.895 C 3.861 47.568 4.843 47.933 5.854 47.939 C 7.049 47.946 8.194 47.451 8.999 46.577 C 8.999 46.577 8.999 46.577 9.008 46.577 L 15.436 39.564 L 15.436 39.564 C 16.012 38.937 15.972 37.962 15.347 37.389 L 15.347 37.389 C 14.722 36.815 13.748 36.859 13.172 37.486 L 13.172 37.486 L 6.743 44.49 C 6.513 44.735 6.205 44.865 5.871 44.863 C 5.599 44.862 5.327 44.763 5.117 44.578 L 4.067 43.658 C 4.067 43.658 4.067 43.658 4.067 43.658 C 3.84 43.463 3.71 43.181 3.711 42.874 C 3.713 42.619 3.811 42.373 3.979 42.181 C 3.988 42.181 3.988 42.181 3.988 42.181 L 10.416 35.177 L 10.416 35.177 L 10.416 35.177 Z  M 37.578 19.69 L 37.578 19.69 C 37.578 19.11 38.049 18.64 38.629 18.64 L 38.629 18.64 C 39.209 18.64 39.68 19.11 39.68 19.69 L 39.68 19.69 L 39.68 27.573 C 39.68 29.023 38.503 30.2 37.053 30.2 L 19.187 30.2 C 17.736 30.2 16.559 29.023 16.559 27.573 L 16.559 19.69 L 16.559 19.69 C 16.559 19.11 17.03 18.64 17.61 18.64 L 17.61 18.64 C 18.19 18.64 18.661 19.11 18.661 19.69 L 18.661 19.69 L 18.661 26.522 C 18.661 27.392 19.367 28.098 20.238 28.098 L 36.002 28.098 C 36.872 28.098 37.578 27.392 37.578 26.522 L 37.578 19.69 L 37.578 19.69 Z  M 19.187 13.385 L 37.053 13.385 C 37.343 13.385 37.578 13.62 37.578 13.91 L 37.578 14.415 C 37.578 14.705 37.4 15.094 37.181 15.284 L 29.311 22.105 C 28.654 22.675 27.586 22.675 26.928 22.105 L 19.058 15.284 C 18.839 15.094 18.661 14.705 18.661 14.415 L 18.661 13.91 C 18.661 13.62 18.897 13.385 19.187 13.385 L 19.187 13.385 Z  M 17.61 11.283 L 38.629 11.283 C 39.209 11.283 39.68 11.754 39.68 12.334 L 39.68 14.982 C 39.68 15.562 39.319 16.335 38.874 16.707 L 30.135 24.016 C 29.023 24.947 27.217 24.947 26.104 24.016 L 17.365 16.707 C 16.92 16.335 16.559 15.562 16.559 14.982 L 16.559 12.334 C 16.559 11.754 17.03 11.283 17.61 11.283 L 17.61 11.283 Z " fill-rule="evenodd" fill="url(#_lgradient_32)"/></svg>