<?xml version="1.0" encoding="UTF-8" standalone="no"?><!-- Generator: Gravit.io --><svg xmlns="http://www.w3.org/2000/svg" xmlns:xlink="http://www.w3.org/1999/xlink" style="isolation:isolate" viewBox="0 0 48 48" width="48pt" height="48pt"><linearGradient id="_lgradient_6" x1="-0.000038208333333289435" y1="0.5000000833333331" x2="0.9999618333333335" y2="0.5000000833333331" gradientTransform="matrix(25.998,0,0,25.999,11.001,9.001)" gradientUnits="userSpaceOnUse"><stop offset="0%" stop-opacity="1" style="stop-color:rgb(211,0,220)"/><stop offset="100%" stop-opacity="1" style="stop-color:rgb(135,0,255)"/></linearGradient><path d=" M 36.999 22.127 C 36.979 24.484 36.319 26.863 34.958 28.995 C 31.098 35.043 23.054 36.819 17.006 32.959 C 10.958 29.098 9.182 21.054 13.042 15.006 C 16.098 10.219 21.774 8.109 27.007 9.35 L 24 22.001 L 36.999 22.127 Z  M 26.5 20.073 L 35.5 20.073 Q 35.962 16.535 33.5 14.073 Q 31.038 11.611 28.5 12.073 L 26.5 20.073 Z " fill-rule="evenodd" fill="url(#_lgradient_6)"/><linearGradient id="_lgradient_7" x1="-0.000038208333333289435" y1="0.5000000833333331" x2="0.9999618333333335" y2="0.5000000833333331" gradientTransform="matrix(44,0,0,44,2,2)" gradientUnits="userSpaceOnUse"><stop offset="0%" stop-opacity="1" style="stop-color:rgb(211,0,220)"/><stop offset="100%" stop-opacity="1" style="stop-color:rgb(135,0,255)"/></linearGradient><path d=" M 36.5 42 L 34.5 42 L 34.5 42 L 34.5 40 L 36.5 40 L 36.5 42 Z  M 39.5 41.732 C 40.994 41.386 42 40.74 42 40 L 42 40 L 39.5 40 L 39.5 41.732 Z  M 31.5 42 L 29.5 42 L 29.5 42 L 29.5 40 L 31.5 40 L 31.5 42 L 31.5 42 Z  M 6 11 L 6 11 C 6 12.104 5.104 13 4 13 L 4 13 C 2.896 13 2 12.104 2 11 L 2 11 L 2 9 C 2 5.137 5.137 2 9 2 L 39 2 C 42.863 2 46 5.137 46 9 L 46 32 L 46 32 C 46 33.104 45.104 34 44 34 L 44 34 C 42.896 34 42 33.104 42 32 L 42 32 L 42 11 C 42 8.24 39.76 6 37 6 L 11 6 C 8.24 6 6 8.24 6 11 L 6 11 L 6 11 L 6 11 L 6 11 Z  M 26.5 42 L 11 42 C 8.24 42 6 39.76 6 37 L 6 20 L 6 20 C 6 18.896 5.104 18 4 18 L 4 18 C 2.896 18 2 18.896 2 20 L 2 20 L 2 39 C 2 42.863 5.137 46 9 46 L 39 46 C 42.863 46 46 42.863 46 39 L 46 38 C 46 36.896 45.104 36 44 36 L 14 36 L 14 36 C 12.896 36 12 36.896 12 38 L 12 38 C 12 39.104 12.896 40 14 40 L 14 40 L 14 40 L 26.5 40 L 26.5 42 L 26.5 42 L 26.5 42 Z " fill-rule="evenodd" fill="url(#_lgradient_7)"/></svg>