<?xml version="1.0" encoding="UTF-8" standalone="no"?>
<!-- Generator: Gravit.io -->
<svg xmlns="http://www.w3.org/2000/svg" xmlns:xlink="http://www.w3.org/1999/xlink" style="isolation:isolate" viewBox="0 0 48 48" width="48pt" height="48pt"><linearGradient id="_lgradient_8" x1="0" y1="0.5" x2="0.9074880558539661" y2="0.9200778838291643" gradientTransform="matrix(38.852,0,0,41.519,4.574,3.241)" gradientUnits="userSpaceOnUse"><stop offset="0%" stop-opacity="1" style="stop-color:rgb(247,241,7)"/><stop offset="83.88839793817618%" stop-opacity="1" style="stop-color:rgb(255,187,36)"/></linearGradient><path d=" M 27.67 21.725 L 27.67 21.725 C 27.922 20.742 28.936 20.204 29.932 20.526 L 29.932 20.526 C 30.928 20.848 31.531 21.916 31.278 22.909 L 31.278 22.909 L 31.012 23.907 L 34.382 24.461 C 35.113 24.581 35.683 25.28 35.654 26.02 L 35.498 29.985 L 38.668 30.459 L 43.426 36.13 L 42.889 43.361 C 42.834 44.1 42.188 44.704 41.447 44.708 L 33.343 44.759 L 17.497 25.875 L 14.214 26.56 C 13.489 26.711 12.513 26.373 12.037 25.805 L 5.368 17.858 C 4.892 17.29 4.537 16.228 4.577 15.488 L 4.678 13.601 C 4.718 12.861 5.211 11.873 5.779 11.397 L 14.645 3.957 C 15.213 3.481 16.271 3.166 17.007 3.256 L 18.883 3.484 C 19.619 3.573 20.603 4.107 21.079 4.674 L 27.499 12.325 C 27.976 12.893 28.33 13.955 28.29 14.695 L 28.159 17.147 L 28.159 17.147 C 28.104 18.179 27.224 18.917 26.195 18.795 L 26.195 18.795 C 25.166 18.672 24.381 17.731 24.441 16.695 L 24.441 16.695 L 24.553 14.445 L 18.481 7.208 L 17.007 7.029 L 8.394 14.257 L 8.314 15.739 L 14.138 22.679 L 18.726 21.709 L 34.896 40.98 L 39.311 40.948 L 39.592 37.191 L 36.882 33.962 L 32.116 33.258 C 31.383 33.15 30.776 32.46 30.762 31.719 L 30.707 28.874 L 27.337 28.32 C 26.606 28.2 26.164 27.52 26.35 26.803 L 27.67 21.725 Z  M 13.551 13.555 C 13.551 12.451 14.447 11.555 15.551 11.555 C 16.655 11.555 17.551 12.451 17.551 13.555 C 17.551 14.658 16.655 15.555 15.551 15.555 C 14.447 15.555 13.551 14.658 13.551 13.555 Z " fill-rule="evenodd" fill="url(#_lgradient_8)"/></svg>