<?xml version="1.0" encoding="UTF-8" standalone="no"?><!-- Generator: Gravit.io --><svg xmlns="http://www.w3.org/2000/svg" xmlns:xlink="http://www.w3.org/1999/xlink" style="isolation:isolate" viewBox="0 0 48 48" width="48pt" height="48pt"><linearGradient id="_lgradient_5" x1="0" y1="0.5" x2="1" y2="0.5" gradientTransform="matrix(40.162,0,0,47,3.919,0.5)" gradientUnits="userSpaceOnUse"><stop offset="0%" stop-opacity="1" style="stop-color:rgb(255,229,59)"/><stop offset="98.69565217391305%" stop-opacity="1" style="stop-color:rgb(255,0,91)"/></linearGradient><path d=" M 12.565 26.811 L 23.667 12.866 L 23.667 12.866 L 33.844 21.001 L 22.742 34.948 L 12.565 26.811 Z  M 9.894 30.197 C 9.768 30.399 9.661 30.613 9.586 30.827 C 9.457 31.114 9.37 31.431 9.342 31.747 L 8.379 42.67 L 8.379 42.67 L 18.67 39.206 C 18.972 39.091 19.259 38.933 19.503 38.746 C 19.7 38.622 19.883 38.475 20.044 38.311 L 9.894 30.197 Z  M 26.353 9.493 L 27.883 7.571 C 28.4 6.925 29.018 6.35 29.708 5.89 C 30.297 5.502 30.944 5.2 31.62 4.999 C 32.123 4.855 32.655 4.797 33.172 4.826 C 33.747 4.855 34.293 4.984 34.825 5.214 C 35.615 5.545 36.377 5.99 37.053 6.537 C 37.728 7.068 38.332 7.686 38.849 8.376 C 39.18 8.822 39.424 9.339 39.582 9.871 C 39.741 10.374 39.798 10.906 39.755 11.423 C 39.712 12.142 39.568 12.846 39.309 13.507 C 39.151 13.896 38.964 14.284 38.749 14.643 C 38.548 15.017 38.318 15.362 38.059 15.707 L 36.529 17.628 L 26.353 9.493 L 26.353 9.493 Z  M 3.923 44.036 L 5.044 31.33 C 5.044 31.316 5.044 31.301 5.044 31.287 C 5.13 30.583 5.303 29.893 5.576 29.232 C 5.835 28.57 6.18 27.938 6.611 27.377 C 6.625 27.363 6.625 27.349 6.64 27.334 L 24.505 4.884 C 25.31 3.878 26.259 3.015 27.337 2.297 C 28.271 1.679 29.306 1.19 30.384 0.874 C 31.375 0.572 32.396 0.457 33.431 0.514 C 34.494 0.586 35.529 0.831 36.507 1.247 C 37.656 1.736 38.734 2.368 39.712 3.145 C 40.704 3.906 41.566 4.812 42.313 5.818 C 42.946 6.666 43.42 7.629 43.722 8.649 C 44.009 9.641 44.124 10.676 44.067 11.711 C 43.981 12.861 43.736 13.982 43.334 15.06 C 43.104 15.649 42.831 16.224 42.5 16.77 C 42.198 17.331 41.853 17.848 41.465 18.351 C 41.465 18.366 41.451 18.366 41.451 18.38 L 23.585 40.816 C 23.571 40.831 23.557 40.845 23.557 40.859 C 23.097 41.405 22.565 41.88 21.99 42.282 C 21.415 42.699 20.783 43.03 20.121 43.274 C 20.107 43.274 20.093 43.274 20.064 43.288 L 8.149 47.298 C 7.789 47.428 7.416 47.485 7.028 47.5 C 6.165 47.514 5.317 47.155 4.728 46.508 C 4.167 45.89 3.88 45.071 3.923 44.237 C 3.923 44.237 3.923 44.223 3.923 44.223 L 3.923 44.036 L 3.923 44.036 L 3.923 44.036 Z " fill-rule="evenodd" fill="url(#_lgradient_5)"/></svg>