<?xml version="1.0" encoding="UTF-8" standalone="no"?><!-- Generator: Gravit.io --><svg xmlns="http://www.w3.org/2000/svg" xmlns:xlink="http://www.w3.org/1999/xlink" style="isolation:isolate" viewBox="0 0 48 48" width="48pt" height="48pt"><linearGradient id="_lgradient_0" x1="-0.000038208333333289435" y1="0.5000000833333331" x2="0.9999618333333335" y2="0.5000000833333331" gradientTransform="matrix(46,0,0,46,1,1)" gradientUnits="userSpaceOnUse"><stop offset="0%" stop-opacity="1" style="stop-color:rgb(211,0,220)"/><stop offset="100%" stop-opacity="1" style="stop-color:rgb(135,0,255)"/></linearGradient><path d=" M 5 12.55 L 5 12.55 C 5 13.654 4.104 14.55 3 14.55 L 3 14.55 C 1.896 14.55 1 13.654 1 12.55 L 1 12.55 L 1 6 C 1 3.24 3.24 1 6 1 L 42 1 C 44.76 1 47 3.24 47 6 L 47 25 L 47 25 C 47 26.104 46.104 27 45 27 L 45 27 C 43.896 27 43 26.104 43 25 L 43 25 L 43 8 C 43 6.344 41.656 5 40 5 L 8 5 C 6.344 5 5 6.344 5 8 L 5 12.55 Z  M 43 35.45 L 43 35.45 C 43 34.346 43.896 33.45 45 33.45 L 45 33.45 C 46.104 33.45 47 34.346 47 35.45 L 47 35.45 L 47 42 C 47 44.76 44.76 47 42 47 L 6 47 C 3.24 47 1 44.76 1 42 L 1 22.18 L 1 22.18 C 1 21.076 1.896 20.18 3 20.18 L 3 20.18 C 4.104 20.18 5 21.076 5 22.18 L 5 22.18 L 5 40 C 5 41.656 6.344 43 8 43 L 40 43 C 41.656 43 43 41.656 43 40 L 43 35.45 Z " fill-rule="evenodd" fill="url(#_lgradient_0)"/><linearGradient id="_lgradient_1" x1="-0.000038208333333289435" y1="0.5000000833333331" x2="0.9999618333333335" y2="0.5000000833333331"><stop offset="0%" stop-opacity="1" style="stop-color:rgb(211,0,220)"/><stop offset="100%" stop-opacity="1" style="stop-color:rgb(135,0,255)"/></linearGradient><path d=" M 8.521 25.479 C 8.521 25.479 14.521 26.157 14.521 22.479 C 14.521 18.801 8.521 19.479 8.521 19.479 M 8.521 31.479 L 8.521 19.479" fill="none" vector-effect="non-scaling-stroke" stroke-width="3" stroke="url(#_lgradient_1)" stroke-linejoin="bevel" stroke-linecap="round" stroke-miterlimit="4"/><linearGradient id="_lgradient_2" x1="-0.6125700067503197" y1="0.4809169587683597" x2="2.4694888903089867" y2="0.5231360846552"><stop offset="0%" stop-opacity="1" style="stop-color:rgb(255,224,49)"/><stop offset="98.69565217391305%" stop-opacity="1" style="stop-color:rgb(252,82,82)"/></linearGradient><path d=" M 28.512 31.479 L 28.512 19.479 M 19.513 19.479 L 24.012 25.479 L 28.512 19.479 M 19.513 31.479 L 19.513 19.479" fill="none" vector-effect="non-scaling-stroke" stroke-width="3" stroke="url(#_lgradient_2)" stroke-linejoin="round" stroke-linecap="round" stroke-miterlimit="4"/><linearGradient id="_lgradient_3" x1="-2.5765905702305147" y1="0.5225854004045025" x2="2.0253292627927513" y2="0.44870193010253356"><stop offset="0%" stop-opacity="1" style="stop-color:rgb(255,224,49)"/><stop offset="98.69565217391305%" stop-opacity="1" style="stop-color:rgb(252,82,82)"/></linearGradient><path d=" M 33.521 26.479 L 39.521 26.479 M 33.521 31.479 L 33.521 22.525 M 39.521 31.479 L 39.521 22.525 M 33.521 22.525 C 33.521 22.525 33.537 19.479 36.521 19.479 C 39.506 19.479 39.521 22.525 39.521 22.525" fill="none" vector-effect="non-scaling-stroke" stroke-width="3" stroke="url(#_lgradient_3)" stroke-linejoin="bevel" stroke-linecap="round" stroke-miterlimit="4"/></svg>