<?xml version="1.0" encoding="UTF-8" standalone="no"?><!-- Generator: Gravit.io --><svg xmlns="http://www.w3.org/2000/svg" xmlns:xlink="http://www.w3.org/1999/xlink" style="isolation:isolate" viewBox="0 0 48 48" width="48pt" height="48pt"><linearGradient id="_lgradient_10" x1="0.41703096539162116" y1="0.019248826291079567" x2="0.679538131811658" y2="0.9641320015277046" gradientTransform="matrix(47,0,0,42.727,0.5,2.636)" gradientUnits="userSpaceOnUse"><stop offset="28.000000000000004%" stop-opacity="1" style="stop-color:rgb(0,205,215)"/><stop offset="94%" stop-opacity="1" style="stop-color:rgb(32,134,215)"/></linearGradient><path d=" M 24 4.773 C 24.59 4.773 25.068 5.251 25.068 5.841 C 25.068 6.431 24.59 6.909 24 6.909 C 23.41 6.909 22.932 6.431 22.932 5.841 C 22.932 5.251 23.41 4.773 24 4.773 L 24 4.773 Z  M 24 2.636 C 22.23 2.636 20.796 4.071 20.796 5.841 C 20.797 7.198 21.652 8.407 22.932 8.86 L 22.932 11.182 L 18.659 11.182 L 18.659 13.318 L 22.932 13.318 L 22.932 21.864 C 22.932 22.932 21.461 23.565 20.757 23.472 C 17.604 23.059 15.044 22.38 13.572 21.015 L 15.732 21.123 L 13.89 19.406 L 12.048 17.689 C 11.353 19.263 11.27 20.825 11.182 22.507 L 12.323 21.382 C 12.872 23.643 20.358 25.068 21.415 25.999 L 24 28.273 L 26.583 26.001 C 27.643 25.068 35.129 23.639 35.669 21.376 L 36.818 22.507 C 36.818 20.796 36.446 19.297 35.952 17.689 L 34.111 19.406 L 32.546 21.123 L 34.433 21.015 C 32.964 22.374 30.416 23.058 27.274 23.472 C 26.562 23.566 25.068 22.932 25.068 21.864 L 25.068 13.318 L 29.341 13.318 L 29.341 11.182 L 25.068 11.182 L 25.068 8.858 C 26.347 8.406 27.203 7.198 27.205 5.841 C 27.205 4.071 25.77 2.637 24 2.637 L 24 2.636 L 24 2.636 Z  M 2.636 36.818 L 45.364 36.818 C 46.543 36.818 47.5 37.776 47.5 38.955 L 47.5 43.227 C 47.5 44.406 46.543 45.364 45.364 45.364 L 2.636 45.364 C 1.457 45.364 0.5 44.406 0.5 43.227 L 0.5 38.955 C 0.5 37.776 1.457 36.818 2.636 36.818 Z " fill-rule="evenodd" fill="url(#_lgradient_10)"/><linearGradient id="_lgradient_11" x1="0" y1="0.5" x2="1" y2="0.5" gradientTransform="matrix(34.182,0,0,8.545,6.909,32.546)" gradientUnits="userSpaceOnUse"><stop offset="0%" stop-opacity="1" style="stop-color:rgb(247,242,6)"/><stop offset="97.82608695652173%" stop-opacity="1" style="stop-color:rgb(255,187,36)"/></linearGradient><path d=" M 27.421 32.546 L 20.579 32.546 C 20.107 32.546 19.727 32.926 19.727 33.398 L 19.727 40.239 C 19.727 40.711 20.107 41.091 20.579 41.091 L 27.421 41.091 C 27.893 41.091 28.273 40.711 28.273 40.239 L 28.273 33.398 C 28.273 32.926 27.893 32.546 27.421 32.546 L 27.421 32.546 Z  M 40.239 32.546 L 33.398 32.546 C 32.925 32.546 32.545 32.926 32.545 33.398 L 32.545 40.239 C 32.545 40.711 32.925 41.091 33.398 41.091 L 40.239 41.091 C 40.711 41.091 41.091 40.711 41.091 40.239 L 41.091 33.398 C 41.091 32.926 40.711 32.546 40.239 32.546 L 40.239 32.546 Z  M 14.602 32.546 L 7.761 32.546 C 7.289 32.546 6.909 32.926 6.909 33.398 L 6.909 40.239 C 6.909 40.711 7.289 41.091 7.761 41.091 L 14.602 41.091 C 15.075 41.091 15.455 40.711 15.455 40.239 L 15.455 33.398 C 15.455 32.926 15.075 32.546 14.602 32.546 Z " fill-rule="evenodd" fill="url(#_lgradient_11)"/></svg>