<?xml version="1.0" encoding="UTF-8" standalone="no"?><!-- Generator: Gravit.io --><svg xmlns="http://www.w3.org/2000/svg" xmlns:xlink="http://www.w3.org/1999/xlink" style="isolation:isolate" viewBox="0 0 48 48" width="48pt" height="48pt"><linearGradient id="_lgradient_20" x1="0" y1="0.5" x2="0.9074880558539661" y2="0.9200778838291643" gradientTransform="matrix(47,0,0,36.848,0.5,5.576)" gradientUnits="userSpaceOnUse"><stop offset="0%" stop-opacity="1" style="stop-color:rgb(247,241,7)"/><stop offset="83.88839793817618%" stop-opacity="1" style="stop-color:rgb(255,187,36)"/></linearGradient><path d=" M 3.705 37.527 C 3.696 37.527 3.687 37.517 3.677 37.508 L 3.724 37.545 L 3.705 37.527 L 3.705 37.527 L 3.677 37.517 C 3.649 37.498 3.63 37.48 3.602 37.47 C 3.264 37.235 2.944 36.972 2.643 36.681 L 2.643 36.671 L 2.606 36.643 C 2.587 36.624 2.568 36.605 2.559 36.596 C 2.267 36.305 2.013 35.994 1.788 35.665 L 1.76 35.628 L 1.713 35.571 C 1.703 35.553 1.684 35.534 1.675 35.515 C 1.468 35.186 1.28 34.848 1.12 34.49 L 1.102 34.434 L 1.045 34.321 C 1.045 34.302 1.036 34.293 1.026 34.284 C 0.885 33.917 0.763 33.532 0.679 33.146 L 0.669 33.099 L 0.641 32.996 C 0.641 32.986 0.641 32.977 0.632 32.958 C 0.547 32.516 0.5 32.065 0.5 31.605 C 0.5 29.461 1.478 27.44 3.141 26.096 C 2.239 24.733 1.76 23.135 1.76 21.509 C 1.76 19.291 2.643 17.166 4.213 15.596 C 5.773 14.036 7.898 13.152 10.116 13.152 C 11.761 13.152 13.369 13.641 14.741 14.553 C 16.038 11.865 18.078 9.599 20.607 8.011 C 23.135 6.422 26.059 5.585 29.048 5.576 C 33.268 5.576 37.329 7.259 40.309 10.248 C 43.298 13.228 44.971 17.288 44.971 21.509 C 44.971 23.774 44.689 24.846 43.74 26.914 C 46.4 26.895 47.5 30.383 47.5 32.864 C 47.5 34.744 46.757 36.549 45.423 37.884 C 44.097 39.209 42.292 39.961 40.412 39.961 C 39.331 39.952 38.269 39.707 37.301 39.237 C 36.229 39.886 35.101 40.422 33.917 40.835 C 32.592 41.305 31.2 41.55 29.8 41.559 C 28.333 41.559 26.886 41.277 25.523 40.732 C 24.536 40.318 23.586 39.801 22.712 39.19 C 22.477 39.444 22.242 39.689 21.998 39.924 C 21.462 40.431 20.879 40.882 20.249 41.268 C 19.093 42.001 17.749 42.405 16.377 42.424 C 15.662 42.415 14.957 42.311 14.271 42.104 C 13.566 41.888 12.889 41.578 12.25 41.202 C 11.564 40.788 10.906 40.309 10.304 39.783 C 9.862 39.388 9.43 38.974 9.026 38.542 C 8.556 38.645 8.076 38.692 7.597 38.692 C 7.597 38.692 7.597 38.692 7.588 38.692 L 7.588 38.692 C 7.588 38.692 7.588 38.692 7.588 38.692 C 7.108 38.692 6.629 38.645 6.159 38.551 C 6.131 38.542 6.102 38.532 6.074 38.532 C 5.67 38.438 5.275 38.316 4.89 38.156 L 4.862 38.147 L 4.796 38.119 C 4.796 38.119 4.786 38.109 4.777 38.109 C 4.401 37.95 4.044 37.752 3.705 37.527 Z  M 6.074 38.532 C 6.065 38.523 6.055 38.523 6.046 38.523 L 6.027 38.514 L 6.018 38.514 L 6.131 38.542 C 6.112 38.532 6.093 38.532 6.074 38.532 Z  M 7.588 35.872 C 7.588 35.872 7.588 35.872 7.588 35.872 L 7.588 35.872 L 7.588 35.872 C 7.588 35.872 7.588 35.872 7.588 35.872 Z  M 5.172 35.13 L 5.172 35.12 L 5.153 35.111 L 5.134 35.101 L 5.2 35.139 C 5.191 35.139 5.181 35.13 5.172 35.12 C 4.965 34.979 4.777 34.829 4.608 34.65 C 4.598 34.641 4.58 34.622 4.561 34.613 L 4.542 34.594 L 4.542 34.584 L 4.514 34.566 L 4.561 34.613 C 4.561 34.603 4.551 34.594 4.542 34.594 C 4.373 34.425 4.222 34.237 4.091 34.039 C 4.081 34.03 4.072 34.02 4.063 34.002 L 4.034 33.964 L 4.016 33.945 C 3.903 33.757 3.79 33.55 3.705 33.353 C 3.696 33.344 3.696 33.334 3.696 33.325 L 3.668 33.278 L 3.64 33.203 C 3.546 32.986 3.48 32.761 3.433 32.535 C 3.433 32.526 3.423 32.516 3.423 32.516 L 3.414 32.46 L 3.395 32.394 C 3.348 32.131 3.32 31.868 3.32 31.605 C 3.32 29.931 4.307 28.418 5.82 27.722 C 6.243 27.534 6.544 27.149 6.629 26.688 C 6.713 26.228 6.563 25.767 6.234 25.438 C 5.181 24.404 4.58 22.985 4.58 21.509 C 4.58 20.043 5.162 18.633 6.206 17.589 C 7.24 16.555 8.65 15.972 10.116 15.972 C 11.695 15.972 13.199 16.659 14.243 17.834 C 14.581 18.219 15.089 18.388 15.587 18.285 C 16.076 18.181 16.48 17.824 16.64 17.345 C 17.505 14.741 19.178 12.476 21.406 10.878 C 23.624 9.27 26.303 8.405 29.048 8.396 C 32.526 8.396 35.863 9.778 38.316 12.241 C 40.77 14.694 42.151 18.031 42.151 21.5 C 42.151 23.37 41.747 25.213 40.967 26.914 C 41.23 28.512 42.405 28.916 43.289 29.725 C 44.172 30.533 44.68 31.67 44.68 32.864 C 44.68 34.002 44.229 35.083 43.43 35.882 C 42.631 36.69 41.54 37.141 40.412 37.141 C 39.237 37.132 38.119 36.652 37.31 35.806 C 36.004 36.822 34.547 37.63 32.986 38.175 C 31.952 38.542 30.881 38.73 29.79 38.739 C 28.691 38.73 27.6 38.523 26.585 38.119 C 24.94 37.433 23.464 36.389 22.28 35.054 C 21.669 36.098 20.926 37.047 20.052 37.874 C 19.657 38.26 19.215 38.589 18.755 38.88 C 18.04 39.331 17.213 39.585 16.367 39.604 C 15.935 39.595 15.512 39.529 15.098 39.407 C 14.609 39.256 14.139 39.049 13.698 38.786 C 13.152 38.457 12.645 38.081 12.175 37.668 C 11.329 36.925 10.558 36.098 9.872 35.195 C 9.195 35.637 8.396 35.872 7.588 35.872 C 7.315 35.872 7.042 35.844 6.779 35.797 C 6.76 35.788 6.732 35.788 6.713 35.778 C 6.46 35.731 6.206 35.647 5.961 35.553 C 5.961 35.543 5.961 35.543 5.952 35.543 L 5.933 35.534 L 5.886 35.515 C 5.661 35.421 5.435 35.299 5.228 35.158 C 5.209 35.148 5.191 35.139 5.172 35.13 Z  M 6.779 35.797 C 6.76 35.797 6.742 35.788 6.732 35.788 L 6.854 35.816 L 6.836 35.816 L 6.826 35.806 C 6.807 35.806 6.798 35.797 6.779 35.797 Z " fill-rule="evenodd" fill="url(#_lgradient_20)"/><linearGradient id="_lgradient_21" x1="0" y1="0.5" x2="1" y2="0.5" gradientTransform="matrix(6,0,0,6,13,21.096)" gradientUnits="userSpaceOnUse"><stop offset="0%" stop-opacity="1" style="stop-color:rgb(84,51,255)"/><stop offset="51.73913043478261%" stop-opacity="1" style="stop-color:rgb(32,189,255)"/><stop offset="98.26086956521739%" stop-opacity="1" style="stop-color:rgb(165,254,203)"/></linearGradient><path d=" M 13 24.096 C 13 22.44 14.344 21.096 16 21.096 C 17.656 21.096 19 22.44 19 24.096 C 19 25.752 17.656 27.096 16 27.096 C 14.344 27.096 13 25.752 13 24.096 Z " fill="url(#_lgradient_21)"/><linearGradient id="_lgradient_22" x1="0" y1="0.5" x2="1" y2="0.5" gradientTransform="matrix(6,0,0,6,29,21.096)" gradientUnits="userSpaceOnUse"><stop offset="0%" stop-opacity="1" style="stop-color:rgb(84,51,255)"/><stop offset="51.73913043478261%" stop-opacity="1" style="stop-color:rgb(32,189,255)"/><stop offset="98.26086956521739%" stop-opacity="1" style="stop-color:rgb(165,254,203)"/></linearGradient><path d=" M 29 24.096 C 29 22.44 30.344 21.096 32 21.096 C 33.656 21.096 35 22.44 35 24.096 C 35 25.752 33.656 27.096 32 27.096 C 30.344 27.096 29 25.752 29 24.096 Z " fill="url(#_lgradient_22)"/><linearGradient id="_lgradient_23" x1="0" y1="0.5" x2="1" y2="0.5" gradientTransform="matrix(8,0,0,4,20,27.096)" gradientUnits="userSpaceOnUse"><stop offset="0%" stop-opacity="1" style="stop-color:rgb(255,229,59)"/><stop offset="98.69565217391305%" stop-opacity="1" style="stop-color:rgb(255,0,91)"/></linearGradient><path d=" M 28 27.096 C 28 29.305 26.209 31.096 24 31.096 C 21.791 31.096 20 29.305 20 27.096 L 28 27.096 Z " fill="url(#_lgradient_23)"/><path d=" M 16 23.096 C 16 22.544 16.448 22.096 17 22.096 C 17.552 22.096 18 22.544 18 23.096 C 18 23.648 17.552 24.096 17 24.096 C 16.448 24.096 16 23.648 16 23.096 Z " fill="rgb(255,255,255)"/><path d=" M 32 23.096 C 32 22.544 32.448 22.096 33 22.096 C 33.552 22.096 34 22.544 34 23.096 C 34 23.648 33.552 24.096 33 24.096 C 32.448 24.096 32 23.648 32 23.096 Z " fill="rgb(255,255,255)"/></svg>