<?xml version="1.0" encoding="UTF-8" standalone="no"?><!-- Generator: Gravit.io --><svg xmlns="http://www.w3.org/2000/svg" xmlns:xlink="http://www.w3.org/1999/xlink" style="isolation:isolate" viewBox="0 0 48 48" width="48pt" height="48pt"><linearGradient id="_lgradient_2" x1="0.22078557924020603" y1="0.04723996636961164" x2="0.9022490870014594" y2="0.9061460265379022" gradientTransform="matrix(47,0,0,45.22,0.5,2)" gradientUnits="userSpaceOnUse"><stop offset="2.608695652173913%" stop-opacity="1" style="stop-color:rgb(237,184,212)"/><stop offset="98.69565217391305%" stop-opacity="1" style="stop-color:rgb(162,110,245)"/></linearGradient><path d=" M 4.5 15.78 L 19.5 15.78 C 20.052 15.78 20.5 16.228 20.5 16.78 L 20.5 23.5 C 20.5 24.052 20.052 24.5 19.5 24.5 L 4.5 24.5 C 3.948 24.5 3.5 24.052 3.5 23.5 L 3.5 16.78 C 3.5 16.228 3.948 15.78 4.5 15.78 L 4.5 15.78 L 4.5 15.78 L 4.5 15.78 L 4.5 15.78 L 4.5 15.78 Z  M 28.5 15.78 L 43.5 15.78 C 44.052 15.78 44.5 16.228 44.5 16.78 L 44.5 23.5 C 44.5 24.052 44.052 24.5 43.5 24.5 L 28.5 24.5 C 27.948 24.5 27.5 24.052 27.5 23.5 L 27.5 16.78 C 27.5 16.228 27.948 15.78 28.5 15.78 L 28.5 15.78 L 28.5 15.78 L 28.5 15.78 L 28.5 15.78 L 28.5 15.78 Z  M 16.5 35.5 L 31.5 35.5 C 32.052 35.5 32.5 35.948 32.5 36.5 L 32.5 43.22 C 32.5 43.772 32.052 44.22 31.5 44.22 L 16.5 44.22 C 15.948 44.22 15.5 43.772 15.5 43.22 L 15.5 36.5 C 15.5 35.948 15.948 35.5 16.5 35.5 L 16.5 35.5 L 16.5 35.5 L 16.5 35.5 L 16.5 35.5 Z  M 6 9 L 6 9 C 6 10.104 5.104 11 4 11 L 4 11 C 2.896 11 2 10.104 2 9 L 2 9 L 2 4 C 2 2.896 2.896 2 4 2 L 44 2 C 45.104 2 46 2.896 46 4 L 46 9 L 46 9 C 46 10.104 45.104 11 44 11 L 44 11 C 42.896 11 42 10.104 42 9 L 42 9 L 42 7 C 42 6.448 41.552 6 41 6 L 7 6 C 6.448 6 6 6.448 6 7 L 6 9 L 6 9 L 6 9 Z  M 9 42 L 9 42 C 10.104 42 11 42.896 11 44 L 11 44 C 11 45.104 10.104 46 9 46 L 9 46 L 4 46 C 2.896 46 2 45.104 2 44 L 2 32 L 2 32 C 2 30.896 2.896 30 4 30 L 4 30 C 5.104 30 6 30.896 6 32 L 6 32 L 6 41 C 6 41.552 6.448 42 7 42 L 9 42 L 9 42 Z  M 2.5 12.78 L 21.5 12.78 C 22.604 12.78 23.5 13.676 23.5 14.78 L 23.5 25.5 C 23.5 26.604 22.604 27.5 21.5 27.5 L 2.5 27.5 C 1.396 27.5 0.5 26.604 0.5 25.5 L 0.5 14.78 C 0.5 13.676 1.396 12.78 2.5 12.78 L 2.5 12.78 L 2.5 12.78 L 2.5 12.78 L 2.5 12.78 L 2.5 12.78 Z  M 26.5 12.78 L 45.5 12.78 C 46.604 12.78 47.5 13.676 47.5 14.78 L 47.5 25.5 C 47.5 26.604 46.604 27.5 45.5 27.5 L 26.5 27.5 C 25.396 27.5 24.5 26.604 24.5 25.5 L 24.5 14.78 C 24.5 13.676 25.396 12.78 26.5 12.78 L 26.5 12.78 L 26.5 12.78 L 26.5 12.78 L 26.5 12.78 L 26.5 12.78 Z  M 14.5 32.5 L 33.5 32.5 C 34.604 32.5 35.5 33.396 35.5 34.5 L 35.5 45.22 C 35.5 46.324 34.604 47.22 33.5 47.22 L 14.5 47.22 C 13.396 47.22 12.5 46.324 12.5 45.22 L 12.5 34.5 C 12.5 33.396 13.396 32.5 14.5 32.5 L 14.5 32.5 L 14.5 32.5 L 14.5 32.5 L 14.5 32.5 Z  M 42 32 L 42 32 C 42 30.896 42.896 30 44 30 L 44 30 C 45.104 30 46 30.896 46 32 L 46 32 L 46 44 C 46 45.104 45.104 46 44 46 L 39 46 L 39 46 C 37.896 46 37 45.104 37 44 L 37 44 C 37 42.896 37.896 42 39 42 L 39 42 L 41 42 C 41.552 42 42 41.552 42 41 L 42 32 Z " fill-rule="evenodd" fill="url(#_lgradient_2)"/></svg>