<?xml version="1.0" encoding="UTF-8" standalone="no"?><!-- Generator: Gravit.io --><svg xmlns="http://www.w3.org/2000/svg" xmlns:xlink="http://www.w3.org/1999/xlink" style="isolation:isolate" viewBox="0 0 48 48" width="48pt" height="48pt"><linearGradient id="_lgradient_67" x1="0.9941176470588236" y1="0.4801559760374085" x2="0.00018059855521146417" y2="0.45213064394988733" gradientTransform="matrix(30.8,0,0,48.61,-0.04,-0.24)" gradientUnits="userSpaceOnUse"><stop offset="0%" stop-opacity="1" style="stop-color:rgb(17,153,142)"/><stop offset="99.1304347826087%" stop-opacity="1" style="stop-color:rgb(56,239,125)"/></linearGradient><path d=" M 16.89 42.34 L 18.55 41.23 L 22.624 43 L 19.11 45.66 L 15.04 48.37 L -0.04 39.09 L 1.05 7.64 L 20.19 -0.24 L 29.06 5.3 L 30.76 6.36 L 28.64 9.76 L 26.94 8.7 L 19.81 4.24 L 4.95 10.36 L 4.04 36.91 L 14.96 43.63 L 16.89 42.34 Z " fill="url(#_lgradient_67)"/><linearGradient id="_lgradient_68" x1="0.9941176470588227" y1="0.48015597603740856" x2="-4.831911119711044" y2="0.7073325916888952"><stop offset="0%" stop-opacity="1" style="stop-color:rgb(17,153,142)"/><stop offset="99.1304347826087%" stop-opacity="1" style="stop-color:rgb(56,239,125)"/></linearGradient><path d=" M 39 12 L 47 19 L 44 26" fill="none" vector-effect="non-scaling-stroke" stroke-width="4" stroke="url(#_lgradient_68)" stroke-linejoin="miter" stroke-linecap="square" stroke-miterlimit="3"/><linearGradient id="_lgradient_69" x1="1.5627141899860746" y1="0.543163345093069" x2="-0.052491476226457445" y2="0.5389581965419142" gradientTransform="matrix(16.3,0,0,11.89,23.23,-0.12)" gradientUnits="userSpaceOnUse"><stop offset="34.94098066785295%" stop-opacity="1" style="stop-color:rgb(178,229,107)"/><stop offset="53.84922244785295%" stop-opacity="1" style="stop-color:rgb(194,233,100)"/><stop offset="90.40515655585295%" stop-opacity="1" style="stop-color:rgb(236,244,81)"/><stop offset="100%" stop-opacity="1" style="stop-color:rgb(250,247,75)"/></linearGradient><path d=" M 27.11 10.66 L 25.45 11.77 L 23.23 8.45 L 24.89 7.34 L 36.07 -0.12 L 38.9 8.37 L 39.53 10.26 L 35.74 11.53 L 35.1 9.63 L 33.93 6.12 L 27.11 10.66 Z " fill="url(#_lgradient_69)"/><linearGradient id="_lgradient_70" x1="1.5627141899860746" y1="0.543163345093069" x2="-0.052491476226457445" y2="0.5389581965419142" gradientTransform="matrix(37.38,0,0,29.74,12,18.42)" gradientUnits="userSpaceOnUse"><stop offset="34.94098066785295%" stop-opacity="1" style="stop-color:rgb(178,229,107)"/><stop offset="53.84922244785295%" stop-opacity="1" style="stop-color:rgb(194,233,100)"/><stop offset="90.40515655585295%" stop-opacity="1" style="stop-color:rgb(236,244,81)"/><stop offset="100%" stop-opacity="1" style="stop-color:rgb(250,247,75)"/></linearGradient><path d=" M 39.63 23.9 L 37.74 24.53 L 36.47 20.74 L 38.37 20.1 L 43.42 18.42 L 49.38 42.27 L 32.9 48.16 L 17.15 40.81 L 12 38 L 17.03 36.34 L 18.85 37.19 L 33.1 43.84 L 44.62 39.73 L 40.58 23.58 L 39.63 23.9 Z " fill="url(#_lgradient_70)"/><linearGradient id="_lgradient_71" x1="1.5627141899860746" y1="0.543163345093069" x2="-0.052491476226457445" y2="0.5389581965419142" gradientTransform="matrix(29,0,0,29,9.5,9.5)" gradientUnits="userSpaceOnUse"><stop offset="34.94098066785295%" stop-opacity="1" style="stop-color:rgb(178,229,107)"/><stop offset="53.84922244785295%" stop-opacity="1" style="stop-color:rgb(194,233,100)"/><stop offset="90.40515655585295%" stop-opacity="1" style="stop-color:rgb(236,244,81)"/><stop offset="100%" stop-opacity="1" style="stop-color:rgb(250,247,75)"/></linearGradient><path d=" M 35.978 31.218 L 35.978 31.218 C 35.978 30.523 36.543 29.958 37.239 29.958 L 37.239 29.958 C 37.935 29.958 38.5 30.523 38.5 31.218 L 38.5 31.218 L 38.5 35.348 C 38.5 37.088 37.088 38.5 35.348 38.5 L 12.652 38.5 C 10.912 38.5 9.5 37.088 9.5 35.348 L 9.5 23.37 L 9.5 23.37 C 9.5 22.674 10.065 22.109 10.761 22.109 L 10.761 22.109 C 11.457 22.109 12.022 22.674 12.022 23.37 L 12.022 23.37 L 12.022 34.087 C 12.022 35.131 12.869 35.978 13.913 35.978 L 34.087 35.978 C 35.131 35.978 35.978 35.131 35.978 34.087 L 35.978 31.218 L 35.978 31.218 L 35.978 31.218 Z  M 12.022 16.782 L 12.022 16.782 C 12.022 17.477 11.457 18.042 10.761 18.042 L 10.761 18.042 C 10.065 18.042 9.5 17.477 9.5 16.782 L 9.5 16.782 L 9.5 12.652 C 9.5 10.912 10.912 9.5 12.652 9.5 L 35.348 9.5 C 37.088 9.5 38.5 10.912 38.5 12.652 L 38.5 25.147 L 38.5 25.147 C 38.5 25.843 37.935 26.408 37.239 26.408 L 37.239 26.408 C 36.543 26.408 35.978 25.843 35.978 25.147 L 35.978 25.147 L 35.978 13.913 C 35.978 12.869 35.131 12.022 34.087 12.022 L 13.913 12.022 C 12.869 12.022 12.022 12.869 12.022 13.913 L 12.022 16.782 L 12.022 16.782 L 12.022 16.782 Z  M 14 30.5 L 23 30.5 L 23 33 L 14 33 L 14 30.5 L 14 30.5 Z  M 16.288 16.936 L 16.288 20.14 L 17.041 20.14 L 17.041 20.14 Q 18.096 20.14 18.62 19.723 L 18.62 19.723 L 18.62 19.723 Q 19.144 19.306 19.144 18.509 L 19.144 18.509 L 19.144 18.509 Q 19.144 17.704 18.705 17.32 L 18.705 17.32 L 18.705 17.32 Q 18.266 16.936 17.329 16.936 L 17.329 16.936 L 16.288 16.936 L 16.288 16.936 Z  M 27.075 16.811 L 27.075 16.811 L 27.075 16.811 Q 25.783 16.811 25.075 17.782 L 25.075 17.782 L 25.075 17.782 Q 24.366 18.752 24.366 20.487 L 24.366 20.487 L 24.366 20.487 Q 24.366 24.096 27.075 24.096 L 27.075 24.096 L 27.075 24.096 Q 28.212 24.096 29.828 23.527 L 29.828 23.527 L 29.828 25.446 L 29.828 25.446 Q 28.499 26 26.861 26 L 26.861 26 L 26.861 26 Q 24.507 26 23.259 24.572 L 23.259 24.572 L 23.259 24.572 Q 22.012 23.144 22.012 20.472 L 22.012 20.472 L 22.012 20.472 Q 22.012 18.789 22.624 17.523 L 22.624 17.523 L 22.624 17.523 Q 23.237 16.257 24.385 15.582 L 24.385 15.582 L 24.385 15.582 Q 25.532 14.907 27.075 14.907 L 27.075 14.907 L 27.075 14.907 Q 28.647 14.907 30.234 15.667 L 30.234 15.667 L 29.496 17.527 L 29.496 17.527 Q 28.891 17.239 28.278 17.025 L 28.278 17.025 L 28.278 17.025 Q 27.665 16.811 27.075 16.811 L 27.075 16.811 Z  M 21.455 18.427 L 21.455 18.427 L 21.455 18.427 Q 21.455 20.169 20.366 21.092 L 20.366 21.092 L 20.366 21.092 Q 19.277 22.014 17.27 22.014 L 17.27 22.014 L 16.288 22.014 L 16.288 25.852 L 14 25.852 L 14 15.062 L 17.447 15.062 L 17.447 15.062 Q 19.41 15.062 20.432 15.907 L 20.432 15.907 L 20.432 15.907 Q 21.455 16.752 21.455 18.427 L 21.455 18.427 Z " fill-rule="evenodd" fill="url(#_lgradient_71)"/></svg>