<?xml version="1.0" encoding="UTF-8" standalone="no"?><!-- Generator: Gravit.io --><svg xmlns="http://www.w3.org/2000/svg" xmlns:xlink="http://www.w3.org/1999/xlink" style="isolation:isolate" viewBox="0 0 48 48" width="48pt" height="48pt"><linearGradient id="_lgradient_9" x1="-0.014458464773922156" y1="0.009839246119734024" x2="1.0164565923220248" y2="1.0722930524759795" gradientTransform="matrix(44,0,0,44,2,2)" gradientUnits="userSpaceOnUse"><stop offset="1.3043478260869565%" stop-opacity="1" style="stop-color:rgb(254,172,94)"/><stop offset="53.04347826086957%" stop-opacity="1" style="stop-color:rgb(199,121,208)"/><stop offset="99.56521739130434%" stop-opacity="1" style="stop-color:rgb(75,192,200)"/></linearGradient><path d=" M 6 28 L 6 28 C 6 29.104 5.104 30 4 30 L 4 30 C 2.896 30 2 29.104 2 28 L 2 28 L 2 7 C 2 4.24 4.24 2 7 2 L 41 2 C 43.76 2 46 4.24 46 7 L 46 12 L 46 12 C 46 13.104 45.104 14 44 14 L 44 14 C 42.896 14 42 13.104 42 12 L 42 12 L 42 9 C 42 7.344 40.656 6 39 6 L 9 6 C 7.344 6 6 7.344 6 9 L 6 28 L 6 28 L 6 28 Z  M 42 20 L 42 20 C 42 18.896 42.896 18 44 18 L 44 18 C 45.104 18 46 18.896 46 20 L 46 20 L 46 42 C 46 44.208 44.208 46 42 46 L 6 46 C 3.792 46 2 44.208 2 42 L 2 36 L 2 36 C 2 34.896 2.896 34 4 34 L 4 34 C 5.104 34 6 34.896 6 36 L 6 36 L 6 39 C 6 40.656 7.344 42 9 42 L 39 42 C 40.656 42 42 40.656 42 39 L 42 20 L 42 20 L 42 20 Z  M 24 28.5 L 24 24.5 L 24 18.5 L 16 18.5 L 16 24.5 L 24 24.5 L 24 28.5 L 24 28.5 L 24 28.5 Z  M 28 24.5 L 28 28.5 L 28 31.5 L 28 34 L 24 34 L 24 31.5 L 24 28.5 L 12 28.5 L 12 14 L 28 14 L 28 24.5 L 28 28.5 L 28 24.5 L 28 24.5 L 28 24.5 Z  M 36 32 L 36 34 L 32 34 L 32 32 L 32 16 L 32 14 L 36 14 L 36 16 L 36 32 Z " fill-rule="evenodd" fill="url(#_lgradient_9)"/></svg>