<?xml version="1.0" encoding="UTF-8" standalone="no"?>
<!-- Generator: Gravit.io -->
<svg xmlns="http://www.w3.org/2000/svg" xmlns:xlink="http://www.w3.org/1999/xlink" style="isolation:isolate" viewBox="0 0 48 48" width="48pt" height="48pt"><linearGradient id="_lgradient_1" x1="0" y1="0.5" x2="1" y2="0.5" gradientTransform="matrix(44,0,0,40,2,4)" gradientUnits="userSpaceOnUse"><stop offset="0%" stop-opacity="1" style="stop-color:rgb(67,233,123)"/><stop offset="97.82608695652173%" stop-opacity="1" style="stop-color:rgb(56,249,215)"/></linearGradient><path d=" M 29.027 15 L 29.027 19 L 27 19 L 27 21 L 29.027 21 L 29.027 27 C 29.027 31 29.936 32 32.871 32 L 33.461 30 C 32.11 30 32 29 32 27 L 32 21 L 35 21 L 35 19 L 32 19 L 32 15 L 29.027 15 L 29.027 15 L 29.027 15 Z  M 18.012 17 C 21.241 17 22 19 22 23 C 22 27 21.266 29 18.012 29 C 14.758 29 14 27 14 23 C 14 19 14.782 17 18.012 17 L 18.012 17 L 18.012 17 Z  M 20 44 L 7 44 C 4.24 44 2 41.76 2 39 L 2 32 L 2 32 C 2 30.896 2.896 30 4 30 L 4 30 C 5.104 30 6 30.896 6 32 L 6 32 L 6 37 C 6 38.656 7.344 40 9 40 L 20 40 C 21.104 40 22 40.896 22 42 L 22 42 C 22 43.104 21.104 44 20 44 L 20 44 Z  M 18.035 14 C 12.477 14 11 17 11 23 C 11 29 12.451 32 18.035 32 L 19.621 32 L 21.932 36 L 24.609 35 L 22.428 31 C 24.506 30 25 27 25 23 C 25 17 23.594 14 18.035 14 L 18.035 14 L 18.035 14 Z  M 6 22 L 6 22 C 6 23.104 5.104 24 4 24 L 4 24 C 2.896 24 2 23.104 2 22 L 2 22 L 2 15.17 C 2 14.066 2.634 12.536 3.414 11.756 L 9.756 5.414 C 10.536 4.634 12.066 4 13.17 4 L 41 4 C 43.76 4 46 6.24 46 9 L 46 17 L 46 17 C 46 18.104 45.104 19 44 19 L 44 19 C 42.896 19 42 18.104 42 17 L 42 17 L 42 11 C 42 9.344 40.656 8 39 8 L 13.83 8 C 13.278 8 12.513 8.317 12.123 8.707 L 6.707 14.123 C 6.317 14.513 6 15.278 6 15.83 L 6 22 Z " fill-rule="evenodd" fill="url(#_lgradient_1)"/><linearGradient id="_lgradient_2" x1="0" y1="0.5" x2="1" y2="0.5" gradientTransform="matrix(16.3,0,0,15.706,27.043,25.642)" gradientUnits="userSpaceOnUse"><stop offset="0%" stop-opacity="1" style="stop-color:rgb(67,233,123)"/><stop offset="97.82608695652173%" stop-opacity="1" style="stop-color:rgb(56,249,215)"/></linearGradient><path d=" M 27.043 39.872 Q 27.198 33.501 32.485 30.104 C 35.862 27.934 39.491 26.457 43.343 25.642 C 42.943 29.843 40.93 33.452 39.069 36.768 Q 33.627 43.283 27.839 40.531 C 28.712 40.177 29.548 39.733 30.328 39.208 C 31.219 38.622 32.058 37.972 32.845 37.253 C 33.613 36.562 34.326 35.821 34.989 35.029 C 35.574 34.338 36.095 33.598 36.546 32.815 L 36.546 32.815 C 36.67 32.6 36.597 32.324 36.382 32.2 L 36.382 32.2 C 36.167 32.076 35.891 32.149 35.767 32.364 L 35.767 32.364 C 35.342 33.103 34.852 33.802 34.301 34.449 C 33.663 35.208 32.977 35.922 32.241 36.587 C 31.488 37.271 30.68 37.899 29.83 38.461 C 29.045 38.988 28.203 39.428 27.32 39.764 L 27.043 39.872 Z " fill-rule="evenodd" fill="url(#_lgradient_2)"/></svg>