<?xml version="1.0" encoding="UTF-8" standalone="no"?><!-- Generator: Gravit.io --><svg xmlns="http://www.w3.org/2000/svg" xmlns:xlink="http://www.w3.org/1999/xlink" style="isolation:isolate" viewBox="0 0 48 48" width="48pt" height="48pt"><linearGradient id="_lgradient_3" x1="0" y1="0.5" x2="1" y2="0.5" gradientTransform="matrix(25.378,0,0,45,11.311,1.5)" gradientUnits="userSpaceOnUse"><stop offset="6%" stop-opacity="1" style="stop-color:rgb(43,134,208)"/><stop offset="89%" stop-opacity="1" style="stop-color:rgb(33,215,137)"/></linearGradient><linearGradient id="_lgradient_4" x1="0" y1="0.5" x2="1" y2="0.5"><stop offset="6%" stop-opacity="1" style="stop-color:rgb(43,134,208)"/><stop offset="89%" stop-opacity="1" style="stop-color:rgb(33,215,137)"/></linearGradient><path d=" M 15.82 1.505 C 12.228 1.329 9.948 5.429 12.22 8.103 C 14.474 11.451 19.868 13.5 23.523 10.994 C 23.523 22.337 23.572 35.099 23.572 46.442 C 25.749 47.007 24.744 43.286 25.256 41.982 C 26.276 37.058 31.268 34.497 34.482 30.974 C 37.112 28.1 37.46 23.708 35.155 20.526 C 34.502 19.624 32.389 15.924 32.708 16.627 C 34.13 19.512 35.956 22.752 35.094 26.023 C 34.002 29.947 30.027 32.451 25.95 33.06 C 24.909 33.209 24.975 32.909 24.872 31.276 C 24.872 23.168 24.872 15.06 24.872 6.952 C 23.507 3.641 19.53 1.398 15.82 1.505 Z  M 16.251 2.555 C 19.702 2.397 23.864 5.024 23.43 8.586 C 22.535 11.737 17.975 11.502 15.659 9.957 C 13.084 8.779 11.183 4.698 14.3 3.06 C 14.897 2.749 15.574 2.594 16.251 2.555 Z " fill="url(#_lgradient_3)" vector-effect="non-scaling-stroke" stroke-width="2" stroke="url(#_lgradient_4)" stroke-linejoin="miter" stroke-linecap="butt" stroke-miterlimit="4"/></svg>