<?xml version="1.0" encoding="UTF-8" standalone="no"?><!-- Generator: Gravit.io --><svg xmlns="http://www.w3.org/2000/svg" xmlns:xlink="http://www.w3.org/1999/xlink" style="isolation:isolate" viewBox="0 0 48 48" width="48pt" height="48pt"><linearGradient id="_lgradient_8" x1="-0.000038208333333289435" y1="0.5000000833333331" x2="0.9999618333333335" y2="0.5000000833333331" gradientTransform="matrix(26.7,0,0,29.62,6.254,15)" gradientUnits="userSpaceOnUse"><stop offset="0%" stop-opacity="1" style="stop-color:rgb(0,198,255)"/><stop offset="98.69565217391305%" stop-opacity="1" style="stop-color:rgb(0,114,255)"/></linearGradient><linearGradient id="_lgradient_9" x1="0" y1="0.5" x2="0.9074880558539661" y2="0.9200778838291643"><stop offset="0%" stop-opacity="1" style="stop-color:rgb(0,196,255)"/><stop offset="83.88839793817618%" stop-opacity="1" style="stop-color:rgb(0,114,255)"/></linearGradient><path d=" M 23.08 15 C 21.18 15.995 20.35 17.793 19.49 19.488 C 18.943 18.749 18.804 17.713 18.592 16.795 C 16.913 19.007 16.172 22.682 15.496 24.892 C 14.539 28.036 13.32 29.965 11.578 31.088 C 10.544 31.756 9.616 32.098 7.611 32.552 C 7.104 32.703 6.474 32.844 6.254 32.894 C 6.877 34.585 7.746 36.156 8.817 37.563 C 9.075 37.902 9.345 38.231 9.627 38.551 C 9.658 38.587 9.691 38.621 9.723 38.656 C 10.515 39.541 11.397 40.341 12.35 41.053 C 12.464 41.138 12.574 41.227 12.69 41.309 C 12.955 41.498 13.229 41.676 13.505 41.851 C 13.659 41.947 13.815 42.042 13.973 42.134 C 14.243 42.294 14.513 42.45 14.792 42.596 C 14.976 42.692 15.166 42.776 15.355 42.866 C 15.79 43.074 16.235 43.264 16.69 43.437 C 16.951 43.536 17.211 43.636 17.477 43.723 C 17.718 43.802 17.963 43.87 18.208 43.938 C 18.475 44.013 18.742 44.081 19.013 44.144 C 19.337 44.218 19.66 44.296 19.992 44.352 C 20.899 44.509 21.83 44.598 22.78 44.613 L 22.788 44.613 C 22.885 44.615 22.981 44.62 23.08 44.62 C 23.348 44.62 23.613 44.612 23.878 44.602 C 24.922 42.979 25.057 40.444 24.707 38.956 C 24.494 38.114 23.941 36.601 23.978 36.542 C 24.015 36.483 24.916 36.574 25.683 36.574 C 26.59 36.574 27.255 36.607 27.735 36.461 C 28.141 36.338 28.626 36.138 28.915 36.153 C 30.195 36.217 31.817 35.636 32.246 34.497 C 32.378 34.142 32.608 33.686 32.755 33.483 C 32.997 33.15 33.005 33.056 32.85 32.533 C 32.631 31.793 32.185 31.179 31.241 30.316 C 30.526 29.664 30.297 29.597 30.261 28.896 C 30.235 28.383 30.373 28.023 30.094 27.761 C 29.779 27.463 28.849 27.654 28.797 27.649 C 28.466 27.263 28.15 26.861 28.76 26.304 C 29.222 25.882 29.306 25.724 29.306 25.263 C 29.306 24.809 29.223 24.647 28.823 24.296 C 28.559 24.065 28.275 23.876 28.19 23.876 C 28.107 23.876 27.681 23.537 27.248 23.124 C 26.406 22.323 25.755 22.181 25.1 22.181 C 24.569 22.181 23.978 22.05 23.978 21.283 C 24.683 18.729 27.408 17.385 28.466 16.795 C 25.786 16.415 23.961 16.976 22.183 18.59 C 22.099 17.652 22.981 15.606 23.08 15 Z " fill="url(#_lgradient_8)" vector-effect="non-scaling-stroke" stroke-width="3" stroke="url(#_lgradient_9)" stroke-linejoin="miter" stroke-linecap="butt" stroke-miterlimit="4"/><linearGradient id="_lgradient_10" x1="0" y1="0.5" x2="0.9074880558539661" y2="0.9200778838291643" gradientTransform="matrix(47.998,0,0,47.998,0.077,0)" gradientUnits="userSpaceOnUse"><stop offset="0%" stop-opacity="1" style="stop-color:rgb(0,196,255)"/><stop offset="83.88839793817618%" stop-opacity="1" style="stop-color:rgb(0,114,255)"/></linearGradient><path d=" M 42.858 30.879 L 42.858 30.879 C 42.479 31.915 43.013 33.063 44.049 33.442 L 44.049 33.442 C 45.085 33.821 46.233 33.287 46.612 32.251 L 46.612 32.251 C 47.485 29.88 47.973 27.385 48.061 24.867 C 48.352 16.522 44.286 8.595 37.323 3.989 C 33.646 1.549 29.351 0.169 24.944 0.015 C 16.599 -0.277 8.672 3.789 4.066 10.753 C 1.627 14.43 0.246 18.714 0.092 23.132 C -0.199 31.477 3.866 39.403 10.83 44.009 C 14.507 46.449 18.791 47.829 23.209 47.984 C 28.845 48.18 34.381 46.392 38.834 42.936 L 38.834 42.936 C 39.703 42.254 39.859 40.993 39.183 40.121 L 39.183 40.121 C 38.506 39.25 37.247 39.096 36.373 39.778 L 36.373 39.778 C 32.66 42.66 28.055 44.15 23.348 43.986 C 19.681 43.858 16.108 42.713 13.038 40.674 C 7.238 36.829 3.847 30.227 4.09 23.271 C 4.218 19.593 5.363 16.031 7.401 12.961 C 11.246 7.161 17.849 3.77 24.804 4.012 C 28.472 4.14 32.044 5.286 35.115 7.324 C 40.914 11.169 44.306 17.771 44.063 24.727 C 43.99 26.826 43.587 28.903 42.858 30.879 Z " fill-rule="evenodd" fill="url(#_lgradient_10)"/></svg>