<?xml version="1.0" encoding="UTF-8" standalone="no"?><!-- Generator: Gravit.io --><svg xmlns="http://www.w3.org/2000/svg" xmlns:xlink="http://www.w3.org/1999/xlink" style="isolation:isolate" viewBox="0 0 48 48" width="48pt" height="48pt"><path d=" M 25.49 44 L 25.49 45.5 L 22.49 45.5 L 22.49 44 L 22.49 35 L 22.49 33.5 L 25.49 33.5 L 25.49 35 L 25.49 44 Z " fill="rgb(155,255,176)"/><path d=" M 39.19 37.07 L 40.25 38.13 L 38.13 40.25 L 37.07 39.19 L 30.94 33.06 L 29.88 32 L 32 29.88 L 33.06 30.94 L 39.19 37.07 Z " fill="rgb(173,234,65)"/><path d=" M 44 22.5 L 45.5 22.5 L 45.5 25.5 L 44 25.5 L 35 25.5 L 33.5 25.5 L 33.5 22.5 L 35 22.5 L 44 22.5 Z " fill="rgb(255,169,67)"/><path d=" M 36.93 8.82 L 37.98 7.75 L 40.12 9.85 L 39.07 10.92 L 33.07 17.05 L 32.02 18.12 L 29.88 16.02 L 30.93 14.95 L 36.93 8.82 Z " fill="rgb(255,93,78)"/><path d=" M 22.5 4 L 22.5 2.5 L 25.5 2.5 L 25.5 4 L 25.5 12 L 25.5 13.5 L 22.5 13.5 L 22.5 12 L 22.5 4 Z " fill="rgb(254,6,104)"/><path d=" M 8.92 10.92 L 7.88 9.84 L 10.03 7.75 L 11.08 8.83 L 17.02 14.96 L 18.07 16.03 L 15.91 18.12 L 14.87 17.04 L 8.92 10.92 Z " fill="rgb(124,90,255)"/><path d=" M 13 22.5 L 14.5 22.5 L 14.5 25.5 L 13 25.5 L 4 25.5 L 2.5 25.5 L 2.5 22.5 L 4 22.5 L 13 22.5 Z " fill="rgb(84,52,255)"/><path d=" M 14.88 30.94 L 15.94 29.88 L 18.07 31.99 L 17.01 33.06 L 10.92 39.18 L 9.86 40.25 L 7.73 38.13 L 8.79 37.07 L 14.88 30.94 Z " fill="rgb(77,211,237)"/><linearGradient id="_lgradient_2" x1="0" y1="0.5" x2="0.8869989918005107" y2="0.01134464763166343" gradientTransform="matrix(19.91,0,0,10.78,5.87,1)" gradientUnits="userSpaceOnUse"><stop offset="0%" stop-opacity="1" style="stop-color:rgb(84,51,255)"/><stop offset="49.166666666666664%" stop-opacity="1" style="stop-color:rgb(233,72,255)"/><stop offset="97.08333333333333%" stop-opacity="1" style="stop-color:rgb(255,0,91)"/></linearGradient><path d=" M 9.1 10.66 L 8.1 11.78 L 5.87 9.78 L 6.87 8.66 C 11.23 3.79 17.46 1 24 1 C 24 1 24.01 1 24.01 1 L 24.28 1 L 25.78 1.01 L 25.76 4.01 L 24.26 4 L 24 4 C 18.31 4 12.89 6.43 9.1 10.66 Z " fill="url(#_lgradient_2)"/><linearGradient id="_lgradient_3" x1="0" y1="0.5" x2="0.39505050522361146" y2="0.9703483873316718" gradientTransform="matrix(23.18,0,0,39.19,1,7.86)" gradientUnits="userSpaceOnUse"><stop offset="0%" stop-opacity="1" style="stop-color:rgb(84,51,255)"/><stop offset="51.73913043478261%" stop-opacity="1" style="stop-color:rgb(32,189,255)"/><stop offset="98.26086956521739%" stop-opacity="1" style="stop-color:rgb(165,254,203)"/></linearGradient><path d=" M 22.68 43.96 L 24.18 44.06 L 23.99 47.05 L 22.49 46.95 C 16.66 46.57 11.2 43.98 7.21 39.72 C 3.22 35.46 1 29.84 1 24 C 1 18.49 2.98 13.16 6.57 8.99 L 7.55 7.86 L 9.83 9.82 L 8.85 10.95 C 5.72 14.58 4 19.21 4 24 C 4 29.08 5.93 33.97 9.4 37.67 C 12.87 41.38 17.62 43.63 22.68 43.96 Z " fill="url(#_lgradient_3)"/><linearGradient id="_lgradient_4" x1="0.8023959986566804" y1="1.0223066341592832" x2="0.12547690028529068" y2="0.01507308626580195" gradientTransform="matrix(23.03,0,0,39.37,23.97,0.95)" gradientUnits="userSpaceOnUse"><stop offset="0%" stop-opacity="1" style="stop-color:rgb(255,229,59)"/><stop offset="98.69565217391305%" stop-opacity="1" style="stop-color:rgb(255,0,91)"/></linearGradient><path d=" M 25.46 4.05 L 23.97 3.94 L 24.19 0.95 L 25.68 1.06 C 31.48 1.48 36.9 4.09 40.85 8.34 C 44.8 12.59 47 18.19 47 24 C 47 29.59 44.96 35 41.26 39.2 L 40.27 40.32 L 38.02 38.34 L 39.01 37.21 C 42.22 33.56 44 28.86 44 24 C 44 18.95 42.09 14.08 38.65 10.38 C 35.22 6.68 30.5 4.42 25.46 4.05 Z " fill="url(#_lgradient_4)"/><linearGradient id="_lgradient_5" x1="0.11079538891016139" y1="0.9849877358911732" x2="0.9528341389766964" y2="0.19480995005228796" gradientTransform="matrix(18.21,0,0,10.35,23.48,36.7)" gradientUnits="userSpaceOnUse"><stop offset="0%" stop-opacity="1" style="stop-color:rgb(165,254,203)"/><stop offset="49.56869043334445%" stop-opacity="1" style="stop-color:rgb(115,255,68)"/><stop offset="98.69565217391305%" stop-opacity="1" style="stop-color:rgb(255,205,62)"/></linearGradient><path d=" M 38.48 37.79 L 39.52 36.7 L 41.69 38.77 L 40.66 39.85 C 36.59 44.13 31.02 46.69 25.12 46.97 L 23.62 47.05 L 23.48 44.05 L 24.97 43.98 C 30.1 43.73 34.94 41.51 38.48 37.79 Z " fill="url(#_lgradient_5)"/><linearGradient id="_lgradient_6" x1="0.11707961114957174" y1="-0.0641440524333452" x2="1.1671049954362458" y2="1.0497727116983333" gradientTransform="matrix(11.74,0,0,19.62,12.5,15.98)" gradientUnits="userSpaceOnUse"><stop offset="0%" stop-opacity="1" style="stop-color:rgb(84,51,255)"/><stop offset="51.73913043478261%" stop-opacity="1" style="stop-color:rgb(32,189,255)"/><stop offset="98.26086956521739%" stop-opacity="1" style="stop-color:rgb(165,254,203)"/></linearGradient><path d=" M 22.76 32.41 L 24.24 32.63 L 23.81 35.6 L 22.32 35.38 C 19.59 34.98 17.1 33.61 15.29 31.52 C 13.49 29.43 12.5 26.76 12.5 24 C 12.5 21.55 13.28 19.16 14.74 17.19 L 15.63 15.98 L 18.04 17.76 L 17.15 18.97 C 16.08 20.42 15.5 22.19 15.5 24 C 15.5 26.04 16.23 28.01 17.56 29.56 C 18.9 31.1 20.74 32.11 22.76 32.41 Z " fill="url(#_lgradient_6)"/><linearGradient id="_lgradient_7" x1="0" y1="0.5" x2="0.8869989918005107" y2="0.01134464763166343" gradientTransform="matrix(12.25,0,0,9.31,12.95,12.45)" gradientUnits="userSpaceOnUse"><stop offset="0%" stop-opacity="1" style="stop-color:rgb(65,101,255)"/><stop offset="49.166666666666664%" stop-opacity="1" style="stop-color:rgb(233,72,255)"/><stop offset="97.08333333333333%" stop-opacity="1" style="stop-color:rgb(255,0,91)"/></linearGradient><path d=" M 16.3 20.4 L 15.66 21.76 L 12.95 20.49 L 13.58 19.13 C 15.41 15.22 19.28 12.66 23.59 12.51 L 25.09 12.45 L 25.2 15.45 L 23.7 15.51 C 20.51 15.62 17.65 17.51 16.3 20.4 Z " fill="url(#_lgradient_7)"/><linearGradient id="_lgradient_8" x1="0.8055957900856004" y1="1.0458083831210063" x2="-0.0333651092839361" y2="-0.057270532117086326" gradientTransform="matrix(12.13,0,0,20.39,23.37,12.41)" gradientUnits="userSpaceOnUse"><stop offset="0%" stop-opacity="1" style="stop-color:rgb(255,229,59)"/><stop offset="98.69565217391305%" stop-opacity="1" style="stop-color:rgb(255,0,91)"/></linearGradient><path d=" M 24.86 15.54 L 23.37 15.39 L 23.67 12.41 L 25.17 12.56 C 28 12.85 30.63 14.18 32.54 16.29 C 34.44 18.4 35.5 21.15 35.5 24 C 35.5 26.83 34.45 29.57 32.56 31.68 L 31.56 32.8 L 29.32 30.79 L 30.33 29.68 C 31.73 28.12 32.5 26.09 32.5 24 C 32.5 21.89 31.72 19.86 30.31 18.3 C 28.9 16.74 26.96 15.76 24.86 15.54 Z " fill="url(#_lgradient_8)"/><linearGradient id="_lgradient_9" x1="0.05097071143265408" y1="0.9093686270790043" x2="0.9536247734808043" y2="0.1958093215343868" gradientTransform="matrix(11.49,0,0,6.72,21.87,28.78)" gradientUnits="userSpaceOnUse"><stop offset="0%" stop-opacity="1" style="stop-color:rgb(126,235,218)"/><stop offset="49.56869043334445%" stop-opacity="1" style="stop-color:rgb(115,255,68)"/><stop offset="98.69565217391305%" stop-opacity="1" style="stop-color:rgb(255,205,62)"/></linearGradient><path d=" M 30.15 29.86 L 31.19 28.78 L 33.36 30.85 L 32.32 31.93 C 30.16 34.21 27.15 35.5 24 35.5 C 23.99 35.5 23.97 35.5 23.96 35.5 L 23.37 35.48 L 21.87 35.44 L 21.96 32.44 L 23.46 32.48 L 24.02 32.5 C 26.34 32.49 28.55 31.54 30.15 29.86 Z " fill="url(#_lgradient_9)"/></svg>