<?xml version="1.0" encoding="UTF-8" standalone="no"?><!-- Generator: Gravit.io --><svg xmlns="http://www.w3.org/2000/svg" xmlns:xlink="http://www.w3.org/1999/xlink" style="isolation:isolate" viewBox="0 0 48 48" width="48pt" height="48pt"><linearGradient id="_lgradient_52" x1="0" y1="0.5" x2="1" y2="0.5" gradientTransform="matrix(46.864,0,0,47.058,0.532,0.524)" gradientUnits="userSpaceOnUse"><stop offset="0%" stop-opacity="1" style="stop-color:rgb(198,219,35)"/><stop offset="35.298615709993655%" stop-opacity="1" style="stop-color:rgb(11,179,245)"/><stop offset="67.5%" stop-opacity="1" style="stop-color:rgb(234,66,70)"/><stop offset="100%" stop-opacity="1" style="stop-color:rgb(198,219,35)"/></linearGradient><path d=" M 43.135 26.652 L 43.135 26.652 C 43.295 25.484 44.375 24.664 45.545 24.822 L 45.545 24.822 C 46.715 24.979 47.535 26.058 47.375 27.231 L 47.375 27.231 C 46.578 33.108 43.583 38.476 38.992 42.246 C 34.402 46.006 28.554 47.9 22.629 47.539 C 16.405 47.159 10.578 44.318 6.437 39.651 C 2.308 34.975 0.196 28.845 0.575 22.622 C 0.954 16.398 3.795 10.571 8.462 6.43 C 13.139 2.301 19.268 0.188 25.492 0.568 L 25.492 0.568 C 26.67 0.64 27.569 1.655 27.497 2.833 L 27.497 2.833 C 27.425 4.011 26.41 4.91 25.232 4.838 L 25.232 4.838 C 20.14 4.527 15.127 6.258 11.299 9.635 C 7.482 13.024 5.155 17.79 4.845 22.882 C 4.535 27.974 6.265 32.987 9.643 36.814 C 13.032 40.632 17.797 42.958 22.889 43.269 C 27.736 43.564 32.523 42.023 36.279 38.942 C 40.035 35.86 42.478 31.465 43.135 26.652 L 43.135 26.652 L 43.135 26.652 L 43.135 26.652 Z  M 34.033 7.582 L 34.033 7.582 C 33.023 6.97 32.7 5.654 33.312 4.645 L 33.312 4.645 C 33.923 3.635 35.239 3.312 36.249 3.924 L 36.249 3.924 C 40.547 6.532 43.908 10.455 45.821 15.104 L 45.821 15.104 C 46.275 16.196 45.757 17.449 44.665 17.9 L 44.665 17.9 C 43.573 18.351 42.318 17.83 41.864 16.738 L 41.864 16.738 C 40.297 12.924 37.556 9.725 34.033 7.582 L 34.033 7.582 L 34.033 7.582 L 34.033 7.582 Z  M 16.329 33.999 C 16.655 34.008 17.022 33.97 17.388 33.895 C 18.472 33.67 19.393 33.2 20.1 32.368 C 20.53 31.861 20.892 31.311 21.204 30.732 C 21.57 30.051 21.877 29.341 22.144 28.622 C 22.47 27.753 22.747 26.865 22.96 25.967 C 23.079 25.464 22.946 25.148 22.362 24.975 C 21.62 24.754 20.872 24.557 20.11 24.397 C 18.848 24.134 17.577 23.965 16.28 24.006 C 15.913 24.02 15.547 24.058 15.186 24.119 C 14.136 24.293 13.246 24.754 12.519 25.482 C 11.276 26.723 10.782 28.203 11.088 29.891 C 11.529 32.302 13.776 34.018 16.329 33.999 L 16.329 33.999 L 16.329 33.999 Z  M 19.002 15.332 C 18.988 15.703 19.053 16.109 19.161 16.516 C 19.368 17.289 19.71 17.997 20.113 18.666 C 21.031 20.187 22.189 21.49 23.444 22.7 C 23.547 22.799 23.67 22.883 23.801 22.947 C 23.932 23.016 24.063 23.016 24.199 22.957 C 24.33 22.898 24.447 22.813 24.546 22.704 C 24.982 22.248 25.413 21.792 25.825 21.321 C 26.406 20.652 26.959 19.964 27.461 19.225 C 27.916 18.556 28.323 17.853 28.623 17.09 C 28.922 16.331 29.068 15.549 28.969 14.726 C 28.805 13.369 28.257 12.219 27.278 11.317 C 26.12 10.253 24.77 9.826 23.252 10.064 C 20.783 10.451 18.992 12.75 19.002 15.331 L 19.002 15.332 L 19.002 15.332 Z  M 31.671 33.999 C 31.345 34.008 30.978 33.97 30.612 33.895 C 29.528 33.67 28.607 33.2 27.9 32.368 C 27.47 31.861 27.108 31.311 26.796 30.732 C 26.43 30.051 26.123 29.341 25.856 28.622 C 25.53 27.753 25.253 26.865 25.04 25.967 C 24.921 25.464 25.054 25.148 25.638 24.975 C 26.38 24.754 27.128 24.557 27.89 24.397 C 29.152 24.134 30.423 23.965 31.72 24.006 C 32.087 24.02 32.453 24.058 32.814 24.119 C 33.864 24.293 34.754 24.754 35.481 25.482 C 36.724 26.723 37.218 28.203 36.912 29.891 C 36.471 32.302 34.224 34.018 31.671 33.999 Z " fill-rule="evenodd" fill="url(#_lgradient_52)"/></svg>