<?xml version="1.0" encoding="UTF-8" standalone="no"?>
<!-- Generator: Gravit.io -->
<svg xmlns="http://www.w3.org/2000/svg" xmlns:xlink="http://www.w3.org/1999/xlink" style="isolation:isolate" viewBox="0 0 48 48" width="48pt" height="48pt"><linearGradient id="_lgradient_2" x1="0.04062500000000003" y1="0.054347826086956486" x2="0.9683507709251103" y2="0.9739513503160315" gradientTransform="matrix(48,0,0,48,0,0)" gradientUnits="userSpaceOnUse"><stop offset="0%" stop-opacity="1" style="stop-color:rgb(240,107,169)"/><stop offset="98.69565217391305%" stop-opacity="1" style="stop-color:rgb(66,216,246)"/></linearGradient><path d=" M 19.864 22.997 L 21.618 22.997 C 25.88 22.997 27.635 21.493 27.635 19.237 C 27.635 16.73 25.88 15.727 23.373 15.727 C 22.371 15.727 21.117 15.727 19.864 15.978 L 19.864 22.997 L 19.864 22.997 Z  M 30.643 32.273 L 33.15 32.273 L 33.15 34.278 L 29.39 34.278 L 23.123 24.752 L 19.864 24.752 L 19.864 32.022 L 23.123 32.022 L 23.123 34.027 L 14.85 34.027 L 14.85 32.022 L 17.608 32.022 L 17.608 15.978 L 14.85 15.477 L 14.85 13.722 C 15.853 13.973 16.855 14.223 17.858 14.223 C 19.613 14.223 21.368 13.722 23.123 13.722 C 26.382 13.722 29.64 15.226 29.64 18.986 C 29.64 21.995 27.886 23.749 25.128 24.501 L 30.643 32.273 L 30.643 32.273 Z  M 17.78 43.01 L 17.78 43.01 C 16.731 42.668 15.602 43.241 15.26 44.29 L 15.26 44.29 C 14.918 45.339 15.491 46.468 16.54 46.81 L 16.54 46.81 C 18.94 47.6 21.45 48 23.97 48 C 32.32 48 40.1 43.66 44.46 36.54 C 46.77 32.78 48 28.44 48 24.03 C 48 15.68 43.66 7.9 36.54 3.54 C 32.78 1.23 28.45 0 24.03 0 C 15.68 0 7.9 4.34 3.54 11.46 C 1.23 15.22 0 19.55 0 23.97 C 0 29.61 1.98 35.08 5.59 39.41 L 5.59 39.41 C 6.302 40.254 7.568 40.366 8.415 39.66 L 8.415 39.66 C 9.262 38.954 9.372 37.69 8.66 36.84 L 8.66 36.84 C 5.65 33.23 4 28.68 4 23.97 C 4 20.3 5.02 16.69 6.95 13.55 C 10.59 7.62 17.07 4 24.03 4 C 27.71 4 31.31 5.02 34.45 6.95 C 40.38 10.59 44 17.07 44 24.03 C 44 27.7 42.98 31.31 41.05 34.45 C 37.41 40.38 30.93 44 23.97 44 C 21.87 44 19.78 43.67 17.78 43.01 Z " fill-rule="evenodd" fill="url(#_lgradient_2)"/></svg>