<?xml version="1.0" encoding="UTF-8" standalone="no"?><!-- Generator: Gravit.io --><svg xmlns="http://www.w3.org/2000/svg" xmlns:xlink="http://www.w3.org/1999/xlink" style="isolation:isolate" viewBox="0 0 48 48" width="48pt" height="48pt"><linearGradient id="_lgradient_0" x1="-0.014458464773922156" y1="0.009839246119734024" x2="1.0164565923220248" y2="1.0722930524759795" gradientTransform="matrix(-43.76,0,0,44.88,45.88,1.56)" gradientUnits="userSpaceOnUse"><stop offset="1.3043478260869565%" stop-opacity="1" style="stop-color:rgb(254,172,94)"/><stop offset="53.04347826086957%" stop-opacity="1" style="stop-color:rgb(199,121,208)"/><stop offset="99.56521739130434%" stop-opacity="1" style="stop-color:rgb(75,192,200)"/></linearGradient><path d=" M 23.492 26.801 L 23.492 26.801 C 22.795 26.355 21.865 26.559 21.417 27.256 L 21.417 27.256 C 20.97 27.953 21.172 28.88 21.869 29.325 L 21.869 29.325 C 23.023 30.074 24.3 30.616 25.63 30.945 C 28.844 31.739 32.257 31.223 35.09 29.513 C 37.924 27.803 39.97 25.023 40.765 21.81 C 41.559 18.596 41.043 15.183 39.333 12.35 C 37.623 9.516 34.843 7.47 31.63 6.675 C 28.416 5.881 25.003 6.397 22.17 8.107 C 19.336 9.817 17.29 12.597 16.495 15.81 C 16.262 16.752 16.136 17.72 16.132 18.698 L 16.132 18.698 C 16.121 19.525 16.784 20.203 17.612 20.212 L 17.612 20.212 C 18.44 20.22 19.121 19.556 19.132 18.728 L 19.132 18.728 C 19.14 17.989 19.23 17.249 19.408 16.53 C 20.012 14.084 21.564 11.975 23.719 10.674 C 25.874 9.373 28.463 8.983 30.91 9.588 C 33.356 10.192 35.465 11.744 36.766 13.899 C 38.067 16.054 38.457 18.643 37.852 21.09 C 37.248 23.536 35.696 25.645 33.541 26.946 C 31.386 28.247 28.797 28.637 26.35 28.032 C 25.341 27.783 24.372 27.368 23.492 26.801 L 23.492 26.801 L 23.492 26.801 L 23.492 26.801 Z  M 20.004 22.786 L 20.004 22.786 C 19.66 22.036 18.77 21.71 18.015 22.058 L 18.015 22.058 C 17.261 22.406 16.932 23.298 17.281 24.05 L 17.281 24.05 C 17.503 24.527 17.749 24.99 18.032 25.43 L 18.032 25.43 C 18.471 26.136 19.399 26.351 20.102 25.911 L 20.102 25.911 C 20.805 25.471 21.017 24.545 20.577 23.845 L 20.577 23.845 C 20.362 23.503 20.17 23.157 20.004 22.786 L 20.004 22.786 L 20.004 22.786 L 20.004 22.786 Z  M 37.73 8.5 L 37.73 8.5 C 38.453 9.14 39.56 9.073 40.2 8.35 L 40.2 8.35 C 40.84 7.627 40.773 6.52 40.05 5.88 L 40.05 5.88 C 36.9 3.1 32.83 1.56 28.63 1.56 C 24.06 1.56 19.67 3.38 16.43 6.61 C 13.2 9.85 11.38 14.24 11.38 18.81 C 11.38 23.38 13.2 27.77 16.43 31.01 C 19.67 34.24 24.06 36.06 28.63 36.06 C 33.18 36.06 37.55 34.26 40.78 31.06 C 44.01 27.86 45.84 23.5 45.88 18.95 L 45.88 18.95 C 45.886 17.984 45.106 17.193 44.14 17.185 L 44.14 17.185 C 43.174 17.177 42.386 17.954 42.38 18.92 L 42.38 18.92 C 42.35 22.55 40.89 26.02 38.31 28.57 C 35.74 31.13 32.26 32.56 28.63 32.56 C 24.98 32.56 21.48 31.11 18.91 28.53 C 16.33 25.96 14.88 22.46 14.88 18.81 C 14.88 15.16 16.33 11.66 18.91 9.09 C 21.48 6.51 24.98 5.06 28.63 5.06 C 31.98 5.06 35.22 6.29 37.73 8.5 L 37.73 8.5 L 37.73 8.5 Z  M 41.49 13.94 L 41.49 13.94 C 41.832 14.845 42.845 15.302 43.75 14.96 L 43.75 14.96 C 44.655 14.618 45.112 13.605 44.77 12.7 L 44.77 12.7 C 44.52 12.07 44.24 11.44 43.93 10.84 L 43.93 10.84 C 43.483 9.979 42.423 9.645 41.565 10.095 L 41.565 10.095 C 40.707 10.545 40.377 11.605 40.83 12.46 L 40.83 12.46 C 41.08 12.94 41.3 13.44 41.49 13.94 L 41.49 13.94 Z  M 13.2 31.89 L 13.2 31.89 C 13.851 31.173 13.8 30.064 13.085 29.415 L 13.085 29.415 C 12.37 28.766 11.261 28.818 10.61 29.53 L 10.61 29.53 L 3.34 37.55 C 2.55 38.41 2.12 39.53 2.12 40.69 C 2.12 42.05 2.71 43.35 3.74 44.23 L 4.94 45.27 C 4.94 45.27 4.94 45.27 4.94 45.27 C 5.82 46.03 6.94 46.44 8.09 46.44 C 9.45 46.44 10.75 45.87 11.66 44.87 C 11.66 44.87 11.66 44.87 11.67 44.87 L 18.94 36.85 L 18.94 36.85 C 19.591 36.133 19.54 35.024 18.825 34.375 L 18.825 34.375 C 18.11 33.726 17.001 33.783 16.35 34.5 L 16.35 34.5 L 9.08 42.51 C 8.82 42.79 8.47 42.94 8.09 42.94 C 7.78 42.94 7.47 42.83 7.23 42.62 L 6.03 41.58 C 6.03 41.58 6.03 41.58 6.03 41.58 C 5.77 41.36 5.62 41.04 5.62 40.69 C 5.62 40.4 5.73 40.12 5.92 39.9 C 5.93 39.9 5.93 39.9 5.93 39.9 L 13.2 31.89 Z " fill-rule="evenodd" fill="url(#_lgradient_0)"/></svg>