<?xml version="1.0" encoding="UTF-8" standalone="no"?><!-- Generator: Gravit.io --><svg xmlns="http://www.w3.org/2000/svg" xmlns:xlink="http://www.w3.org/1999/xlink" style="isolation:isolate" viewBox="0 0 48 48" width="48pt" height="48pt"><linearGradient id="_lgradient_45" x1="0" y1="0.5" x2="1" y2="0.5" gradientTransform="matrix(47,0,0,44,0.5,2)" gradientUnits="userSpaceOnUse"><stop offset="0%" stop-opacity="1" style="stop-color:rgb(67,233,123)"/><stop offset="97.82608695652173%" stop-opacity="1" style="stop-color:rgb(56,249,215)"/></linearGradient><path d=" M 14.421 21.789 L 14.421 16.632 L 14.421 16.632 L 21.796 16.632 L 21.796 16.632 L 21.796 21.789 L 14.421 21.789 L 14.421 21.789 L 14.421 21.789 L 14.421 21.789 Z  M 14.421 26.211 L 14.421 31.368 L 21.796 31.368 L 21.796 26.211 L 14.421 26.211 L 14.421 26.211 L 14.421 26.211 L 14.421 26.211 Z  M 33.579 21.789 L 33.579 16.632 L 26.217 16.632 L 26.217 16.632 L 26.217 21.789 L 33.579 21.789 L 33.579 21.789 L 33.579 21.789 L 33.579 21.789 Z  M 33.579 26.211 L 33.579 31.368 L 26.217 31.368 L 26.217 26.211 L 33.579 26.211 L 33.579 26.211 L 33.579 26.211 L 33.579 26.211 Z  M 19.25 5 L 5.5 5 C 4.396 5 3.5 5.896 3.5 7 L 3.5 28.5 L 3.5 28.5 C 3.5 29.328 2.828 30 2 30 L 2 30 C 1.172 30 0.5 29.328 0.5 28.5 L 0.5 28.5 L 0.5 6 C 0.5 3.792 2.292 2 4.5 2 L 28 2 C 29.104 2 30 2.672 30 3.5 L 30 3.5 C 30 4.328 29.104 5 28 5 L 19.25 5 L 19.25 5 L 19.25 5 Z  M 42.5 5 C 43.604 5 44.5 5.896 44.5 7 L 44.5 18.5 L 44.5 18.5 C 44.5 19.328 45.172 20 46 20 L 46 20 C 46.828 20 47.5 19.328 47.5 18.5 L 47.5 18.5 L 47.5 6 C 47.5 3.792 45.708 2 43.5 2 L 37 2 C 35.896 2 35 2.672 35 3.5 L 35 3.5 C 35 4.328 35.896 5 37 5 L 42.5 5 L 42.5 5 Z  M 12.947 12.211 L 35.053 12.211 C 36.679 12.211 38 13.531 38 15.158 L 38 32.842 C 38 34.469 36.679 35.789 35.053 35.789 L 12.947 35.789 C 11.321 35.789 10 34.469 10 32.842 L 10 15.158 C 10 13.531 11.321 12.211 12.947 12.211 L 12.947 12.211 L 12.947 12.211 L 12.947 12.211 L 12.947 12.211 L 12.947 12.211 Z  M 44.5 30.5 L 44.5 30.5 C 44.5 29.672 45.172 29 46 29 L 46 29 C 46.828 29 47.5 29.672 47.5 30.5 L 47.5 30.5 L 47.5 42 C 47.5 44.208 45.708 46 43.5 46 L 4.5 46 C 2.292 46 0.5 44.208 0.5 42 L 0.5 40.5 L 0.5 40.5 C 0.5 39.672 1.172 39 2 39 L 2 39 C 2.828 39 3.5 39.672 3.5 40.5 L 3.5 40.5 L 3.5 41 C 3.5 42.104 4.396 43 5.5 43 L 42.5 43 C 43.604 43 44.5 42.104 44.5 41 L 44.5 30.5 Z " fill-rule="evenodd" fill="url(#_lgradient_45)"/></svg>