<?xml version="1.0" encoding="UTF-8" standalone="no"?><!-- Generator: Gravit.io --><svg xmlns="http://www.w3.org/2000/svg" xmlns:xlink="http://www.w3.org/1999/xlink" style="isolation:isolate" viewBox="0 0 48 48" width="48pt" height="48pt"><linearGradient id="_lgradient_12" x1="0.18336115895060273" y1="0.24917751794896525" x2="0.9027436828643176" y2="0.9034772483231972" gradientTransform="matrix(10.868,0,0,15.265,11.837,15.649)" gradientUnits="userSpaceOnUse"><stop offset="2.608695652173913%" stop-opacity="1" style="stop-color:rgb(179,255,171)"/><stop offset="98.69565217391305%" stop-opacity="1" style="stop-color:rgb(18,255,247)"/></linearGradient><path d=" M 18.264 15.656 C 17.341 15.813 13.638 18.366 14.491 22.954 L 14.493 22.956 C 15.302 25.3 20.488 28.415 20.308 27.829 C 18.836 22.991 18.303 19.861 18.468 15.737 C 18.471 15.66 18.396 15.634 18.264 15.657 L 18.264 15.656 Z  M 12.318 22.881 C 11.842 22.818 10.728 28.012 15.17 30.651 C 17.466 31.588 23.225 29.743 22.667 29.488 C 18.056 27.41 15.355 25.746 12.361 22.904 C 12.347 22.891 12.333 22.883 12.318 22.881 L 12.318 22.881 Z " fill="url(#_lgradient_12)"/><linearGradient id="_lgradient_13" x1="0" y1="0.5" x2="1" y2="0.5" gradientTransform="matrix(47.058,0,0,46.985,0.495,0.559)" gradientUnits="userSpaceOnUse"><stop offset="0%" stop-opacity="1" style="stop-color:rgb(178,254,250)"/><stop offset="98.26086956521739%" stop-opacity="1" style="stop-color:rgb(14,210,247)"/></linearGradient><path d=" M 25.631 43.272 L 25.631 43.272 C 24.457 43.371 23.582 44.407 23.678 45.584 L 23.678 45.584 C 23.774 46.76 24.81 47.635 25.99 47.536 L 25.99 47.536 C 31.9 47.044 37.416 44.331 41.419 39.942 C 45.412 35.553 47.606 29.811 47.552 23.875 C 47.496 17.64 44.96 11.674 40.514 7.297 C 36.057 2.93 30.046 0.504 23.811 0.56 C 17.576 0.616 11.61 3.152 7.233 7.598 C 2.866 12.054 0.439 18.066 0.496 24.301 L 0.496 24.301 C 0.506 25.481 1.474 26.431 2.654 26.42 L 2.654 26.42 C 3.835 26.41 4.784 25.443 4.774 24.262 L 4.774 24.262 C 4.727 19.161 6.715 14.244 10.287 10.597 C 13.869 6.96 18.748 4.884 23.85 4.838 C 28.951 4.792 33.868 6.779 37.515 10.351 C 41.152 13.933 43.228 18.813 43.274 23.914 C 43.318 28.769 41.532 33.47 38.259 37.061 C 34.987 40.652 30.472 42.864 25.631 43.272 L 25.631 43.272 Z  M 7.058 33.194 L 7.058 33.194 C 6.499 32.154 5.202 31.763 4.162 32.321 L 4.162 32.321 C 3.122 32.88 2.731 34.177 3.29 35.217 L 3.29 35.217 C 5.672 39.645 9.416 43.205 13.959 45.356 L 13.959 45.356 C 15.026 45.866 16.304 45.413 16.811 44.346 L 16.811 44.346 C 17.318 43.279 16.863 41.999 15.796 41.489 L 15.796 41.489 C 12.069 39.726 9.016 36.823 7.058 33.194 L 7.058 33.194 Z  M 31.905 11.089 C 28.253 11.131 22.619 12.146 20.858 14.245 L 20.854 14.245 C 19.449 16.288 19.27 24.283 19.635 23.79 C 22.625 19.732 29.794 14.719 34.075 12.704 C 36.386 11.612 34.745 11.056 31.905 11.089 L 31.905 11.089 L 31.905 11.089 Z  M 28.379 17.71 C 25.907 17.888 21.56 22.097 22.17 22.072 C 27.226 21.898 30.383 22.187 34.327 23.413 C 34.913 23.595 33.697 18.122 28.379 17.71 L 28.379 17.71 L 28.379 17.71 Z  M 25.705 22.091 C 25.574 22.098 25.52 22.132 25.564 22.195 C 28.453 26.345 29.921 29.156 31.033 33.134 C 31.198 33.725 35.134 29.732 32.593 25.043 C 31.289 23.309 26.618 22.044 25.705 22.091 L 25.705 22.091 L 25.705 22.091 Z  M 27.209 25.417 C 27.18 25.41 27.16 25.423 27.151 25.46 C 25.871 30.354 24.689 33.3 22.389 36.73 C 22.046 37.236 27.637 37.638 29.551 32.656 L 29.552 32.659 C 30.055 30.389 27.638 25.529 27.209 25.417 L 27.209 25.417 L 27.209 25.417 Z  M 25.805 28.544 C 25.793 28.541 25.779 28.543 25.762 28.552 C 21.197 30.734 18.187 31.734 14.077 32.185 C 13.471 32.255 16.769 36.786 21.81 35.036 L 21.815 35.035 C 23.941 33.918 26.167 28.635 25.805 28.544 L 25.805 28.544 L 25.805 28.544 Z " fill-rule="evenodd" fill="url(#_lgradient_13)"/></svg>