<?xml version="1.0" encoding="UTF-8" standalone="no"?><!-- Generator: Gravit.io --><svg xmlns="http://www.w3.org/2000/svg" xmlns:xlink="http://www.w3.org/1999/xlink" style="isolation:isolate" viewBox="0 0 48 48" width="48pt" height="48pt"><linearGradient id="_lgradient_47" x1="0" y1="0.5" x2="0.9074880558539661" y2="0.9200778838291643" gradientTransform="matrix(44,0,0,3,2,22)" gradientUnits="userSpaceOnUse"><stop offset="0%" stop-opacity="1" style="stop-color:rgb(255,65,108)"/><stop offset="84.34782608695653%" stop-opacity="1" style="stop-color:rgb(255,75,43)"/></linearGradient><path d=" M 3 22 L 45 22 C 45.552 22 46 22.448 46 23 L 46 24 C 46 24.552 45.552 25 45 25 L 3 25 C 2.448 25 2 24.552 2 24 L 2 23 C 2 22.448 2.448 22 3 22 Z " fill="url(#_lgradient_47)"/><linearGradient id="_lgradient_48" x1="0" y1="0.5" x2="1" y2="0.5" gradientTransform="matrix(32,0,0,44,8,2)" gradientUnits="userSpaceOnUse"><stop offset="0%" stop-opacity="1" style="stop-color:rgb(52,148,230)"/><stop offset="98.69565217391305%" stop-opacity="1" style="stop-color:rgb(236,110,173)"/></linearGradient><path d=" M 12 18 L 12 18 C 12 19.104 11.104 20 10 20 L 10 20 C 8.896 20 8 19.104 8 18 L 8 18 L 8 5 C 8 3.344 9.344 2 11 2 L 37 2 C 38.656 2 40 3.344 40 5 L 40 18 L 40 18 C 40 19.104 39.104 20 38 20 L 38 20 C 36.896 20 36 19.104 36 18 L 36 18 L 36 7 C 36 6.448 35.552 6 35 6 L 13 6 C 12.448 6 12 6.448 12 7 L 12 18 Z  M 36 30 L 36 30 C 36 28.896 36.896 28 38 28 L 38 28 C 39.104 28 40 28.896 40 30 L 40 30 L 40 35.875 L 40 43 C 40 44.656 38.656 46 37 46 L 11 46 C 9.344 46 8 44.656 8 43 L 8 30 L 8 30 C 8 28.896 8.896 28 10 28 L 10 28 C 11.104 28 12 28.896 12 30 L 12 30 L 12 41 C 12 41.552 12.448 42 13 42 L 35 42 C 35.552 42 36 41.552 36 41 L 36 30 Z " fill-rule="evenodd" fill="url(#_lgradient_48)"/></svg>