<?xml version="1.0" encoding="UTF-8" standalone="no"?><!-- Generator: Gravit.io --><svg xmlns="http://www.w3.org/2000/svg" xmlns:xlink="http://www.w3.org/1999/xlink" style="isolation:isolate" viewBox="0 0 48 48" width="48pt" height="48pt"><linearGradient id="_lgradient_19" x1="0.414322904876257" y1="0.011616530043259687" x2="0.2606351843924247" y2="0.9692092499809822" gradientTransform="matrix(32.983,0,0,32.983,8.674,0.5)" gradientUnits="userSpaceOnUse"><stop offset="0%" stop-opacity="1" style="stop-color:rgb(175,104,229)"/><stop offset="98.26086956521739%" stop-opacity="1" style="stop-color:rgb(250,172,128)"/></linearGradient><path d=" M 24.092 21.027 L 26.973 23.908 L 18.013 32.879 C 17.645 33.247 17.165 33.451 16.654 33.482 C 16.143 33.502 15.642 33.328 15.254 33.002 C 11.085 29.507 8.674 24.337 8.674 18.891 C 8.674 14.018 10.605 9.328 14.048 5.874 C 17.502 2.431 22.192 0.5 27.065 0.5 C 32.511 0.5 37.681 2.911 41.175 7.08 C 41.502 7.468 41.676 7.969 41.656 8.48 C 41.625 8.991 41.421 9.471 41.053 9.839 L 36.23 14.661 L 33.339 11.77 L 36.751 8.357 C 34.115 5.925 30.652 4.587 27.065 4.587 C 23.275 4.587 19.627 6.089 16.94 8.766 C 14.263 11.453 12.761 15.101 12.761 18.891 C 12.761 22.478 14.099 25.941 16.531 28.577 L 24.092 21.027 Z " fill="url(#_lgradient_19)"/><linearGradient id="_lgradient_20" x1="0.15568448680757013" y1="0.9027489984804531" x2="0.9484534639522946" y2="0.047275130488123374" gradientTransform="matrix(32.983,0,0,32.983,6.343,14.517)" gradientUnits="userSpaceOnUse"><stop offset="0%" stop-opacity="1" style="stop-color:rgb(255,229,59)"/><stop offset="98.69565217391305%" stop-opacity="1" style="stop-color:rgb(255,0,91)"/></linearGradient><path d=" M 29.017 21.865 L 26.135 18.983 L 29.987 15.121 C 30.355 14.753 30.835 14.549 31.346 14.518 C 31.857 14.498 32.358 14.672 32.746 14.998 C 36.915 18.493 39.326 23.663 39.326 29.109 C 39.326 33.982 37.395 38.672 33.952 42.126 C 30.498 45.569 25.808 47.5 20.935 47.5 C 15.489 47.5 10.319 45.089 6.825 40.92 C 6.498 40.532 6.324 40.031 6.344 39.52 C 6.375 39.009 6.579 38.529 6.947 38.161 L 12.475 32.634 L 15.366 35.525 L 11.249 39.643 C 13.885 42.075 17.348 43.413 20.935 43.413 C 24.725 43.413 28.373 41.911 31.06 39.234 C 33.737 36.547 35.239 32.899 35.239 29.109 C 35.239 25.522 33.901 22.059 31.469 19.423 L 29.017 21.865 Z " fill="url(#_lgradient_20)"/></svg>