<?xml version="1.0" encoding="UTF-8" standalone="no"?><!-- Generator: Gravit.io --><svg xmlns="http://www.w3.org/2000/svg" xmlns:xlink="http://www.w3.org/1999/xlink" style="isolation:isolate" viewBox="0 0 48 48" width="48pt" height="48pt"><linearGradient id="_lgradient_43" x1="0.06818181818176848" y1="0.2329545454545455" x2="0.9384302091713563" y2="0.7793895816572807" gradientTransform="matrix(47,0,0,44,0.5,2)" gradientUnits="userSpaceOnUse"><stop offset="0%" stop-opacity="1" style="stop-color:rgb(48,207,208)"/><stop offset="98.26086956521739%" stop-opacity="1" style="stop-color:rgb(51,8,103)"/></linearGradient><path d=" M 19.25 43 L 5.5 43 C 4.396 43 3.5 42.104 3.5 41 L 3.5 19.5 L 3.5 19.5 C 3.5 18.672 2.828 18 2 18 L 2 18 C 1.172 18 0.5 18.672 0.5 19.5 L 0.5 19.5 L 0.5 42 C 0.5 44.208 2.292 46 4.5 46 L 28 46 C 29.104 46 30 45.328 30 44.5 L 30 44.5 C 30 43.672 29.104 43 28 43 L 19.25 43 L 19.25 43 L 19.25 43 L 19.25 43 L 19.25 43 L 19.25 43 L 19.25 43 Z  M 42.5 43 C 43.604 43 44.5 42.104 44.5 41 L 44.5 29.5 L 44.5 29.5 C 44.5 28.672 45.172 28 46 28 L 46 28 C 46.828 28 47.5 28.672 47.5 29.5 L 47.5 29.5 L 47.5 42 C 47.5 44.208 45.708 46 43.5 46 L 37 46 C 35.896 46 35 45.328 35 44.5 L 35 44.5 C 35 43.672 35.896 43 37 43 L 42.5 43 L 42.5 43 L 42.5 43 L 42.5 43 L 42.5 43 L 42.5 43 L 42.5 43 Z  M 44.5 17.5 L 44.5 17.5 C 44.5 18.328 45.172 19 46 19 L 46 19 C 46.828 19 47.5 18.328 47.5 17.5 L 47.5 17.5 L 47.5 6 C 47.5 3.792 45.708 2 43.5 2 L 4.5 2 C 2.292 2 0.5 3.792 0.5 6 L 0.5 7.5 L 0.5 7.5 C 0.5 8.328 1.172 9 2 9 L 2 9 C 2.828 9 3.5 8.328 3.5 7.5 L 3.5 7.5 L 3.5 7 C 3.5 5.896 4.396 5 5.5 5 L 42.5 5 C 43.604 5 44.5 5.896 44.5 7 L 44.5 17.5 L 44.5 17.5 L 44.5 17.5 L 44.5 17.5 L 44.5 17.5 L 44.5 17.5 Z  M 15.75 13 C 12.712 13 10.25 15.462 10.25 18.5 C 10.25 21.538 12.712 24 15.75 24 C 18.788 24 21.25 21.538 21.25 18.5 L 15.75 18.5 L 15.75 13 L 15.75 13 L 15.75 13 L 15.75 13 L 15.75 13 Z  M 25.375 13 L 25.375 15.75 L 37.75 15.75 L 37.75 13 L 25.375 13 L 25.375 13 L 25.375 13 L 25.375 13 Z  M 25.375 19.875 L 25.375 22.625 L 37.75 22.625 L 37.75 19.875 L 25.375 19.875 L 25.375 19.875 L 25.375 19.875 Z  M 10.25 26.75 L 10.25 29.5 L 32.25 29.5 L 32.25 26.75 L 10.25 26.75 L 10.25 26.75 Z  M 10.25 32.25 L 10.25 35 L 37.75 35 L 37.75 32.25 L 10.25 32.25 Z " fill-rule="evenodd" fill="url(#_lgradient_43)"/></svg>