<?xml version="1.0" encoding="UTF-8" standalone="no"?><!-- Generator: Gravit.io --><svg xmlns="http://www.w3.org/2000/svg" xmlns:xlink="http://www.w3.org/1999/xlink" style="isolation:isolate" viewBox="0 0 48 48" width="48pt" height="48pt"><linearGradient id="_lgradient_29" x1="0.5055555555555555" y1="-0.047222222222222276" x2="0.5055555555555556" y2="0.9676499508357916" gradientTransform="matrix(45,0,0,45,1.5,1.5)" gradientUnits="userSpaceOnUse"><stop offset="0%" stop-opacity="1" style="stop-color:rgb(84,51,255)"/><stop offset="51.73913043478261%" stop-opacity="1" style="stop-color:rgb(32,189,255)"/><stop offset="98.26086956521739%" stop-opacity="1" style="stop-color:rgb(165,254,203)"/></linearGradient><path d=" M 43.36 21.814 L 43.36 21.814 C 43.36 20.948 44.064 20.244 44.93 20.244 L 44.93 20.244 C 45.797 20.244 46.5 20.948 46.5 21.814 L 46.5 21.814 L 46.5 43.36 C 46.5 45.093 45.093 46.5 43.36 46.5 L 4.64 46.5 C 2.907 46.5 1.5 45.093 1.5 43.36 L 1.5 33.419 L 1.5 33.419 C 1.5 32.552 2.203 31.849 3.07 31.849 L 3.07 31.849 C 3.936 31.849 4.64 32.552 4.64 33.419 L 4.64 33.419 L 4.64 42.314 C 4.64 42.892 5.108 43.36 5.686 43.36 L 42.314 43.36 C 42.892 43.36 43.36 42.892 43.36 42.314 L 43.36 21.814 L 43.36 21.814 L 43.36 21.814 L 43.36 21.814 L 43.36 21.814 L 43.36 21.814 Z  M 4.64 24 L 4.64 24 C 4.64 24.866 3.936 25.57 3.07 25.57 L 3.07 25.57 C 2.203 25.57 1.5 24.866 1.5 24 L 1.5 24 L 1.5 4.64 C 1.5 2.907 2.907 1.5 4.64 1.5 L 43.36 1.5 C 45.093 1.5 46.5 2.907 46.5 4.64 L 46.5 12.395 L 46.5 12.395 C 46.5 13.262 45.093 13.965 43.36 13.965 L 43.36 13.965 L 43.36 13.965 L 43.36 12.395 L 43.36 5.686 C 43.36 5.108 42.892 4.64 42.314 4.64 L 5.686 4.64 C 5.108 4.64 4.64 5.108 4.64 5.686 L 4.64 24 L 4.64 24 L 4.64 24 L 4.64 24 L 4.64 24 L 4.64 24 Z  M 10.395 13.965 L 10.395 13.965 C 9.529 13.965 8.826 13.262 8.826 12.395 L 8.826 12.395 C 8.826 11.529 9.529 10.826 10.395 10.826 L 10.395 10.826 L 41.791 10.826 L 43.36 10.826 L 43.36 13.965 L 43.36 13.965 L 41.791 13.965 L 10.395 13.965 L 10.395 13.965 L 10.395 13.965 L 10.395 13.965 L 10.395 13.965 Z  M 10 21 L 38 21 C 39.104 21 40 21.672 40 22.5 L 40 22.5 C 40 23.328 39.104 24 38 24 L 10 24 C 8.896 24 8 23.328 8 22.5 L 8 22.5 C 8 21.672 8.896 21 10 21 L 10 21 L 10 21 L 10 21 Z  M 9.658 27 L 28.342 27 C 29.257 27 30 27.672 30 28.5 L 30 28.5 C 30 29.328 29.257 30 28.342 30 L 9.658 30 C 8.743 30 8 29.328 8 28.5 L 8 28.5 C 8 27.672 8.743 27 9.658 27 L 9.658 27 L 9.658 27 Z  M 9.837 32 L 33.163 32 C 34.177 32 35 32.672 35 33.5 L 35 33.5 C 35 34.328 34.177 35 33.163 35 L 9.837 35 C 8.823 35 8 34.328 8 33.5 L 8 33.5 C 8 32.672 8.823 32 9.837 32 L 9.837 32 Z  M 9.414 37 L 22.586 37 C 23.366 37 24 37.634 24 38.414 L 24 38.586 C 24 39.366 23.366 40 22.586 40 L 9.414 40 C 8.634 40 8 39.366 8 38.586 L 8 38.414 C 8 37.634 8.634 37 9.414 37 Z " fill-rule="evenodd" fill="url(#_lgradient_29)"/></svg>