<?xml version="1.0" encoding="UTF-8" standalone="no"?><!-- Generator: Gravit.io --><svg xmlns="http://www.w3.org/2000/svg" xmlns:xlink="http://www.w3.org/1999/xlink" style="isolation:isolate" viewBox="0 0 48 48" width="48pt" height="48pt"><linearGradient id="_lgradient_16" x1="0.18336115895060273" y1="0.24917751794896525" x2="0.9027436828643176" y2="0.9034772483231972" gradientTransform="matrix(34.531,0,0,16.92,6.499,0.09)" gradientUnits="userSpaceOnUse"><stop offset="2.608695652173913%" stop-opacity="1" style="stop-color:rgb(179,255,171)"/><stop offset="98.69565217391305%" stop-opacity="1" style="stop-color:rgb(18,255,247)"/></linearGradient><path d=" M 18.449 10.305 C 17.656 8.855 16.605 7.559 15.35 6.48 C 14.71 5.92 14.01 5.44 13.27 5.05 C 12.6 4.69 11.88 4.43 11.13 4.28 C 11.08 4.27 11.03 4.26 10.98 4.26 L 10.6 4.22 C 10.55 4.22 10.5 4.22 10.45 4.22 C 9.66 4.22 8.89 4.48 8.25 4.94 C 7.58 5.41 7.09 6.08 6.85 6.86 C 6.61 7.66 6.49 8.49 6.5 9.32 C 6.51 10.65 6.76 11.97 7.25 13.2 C 7.8 14.6 8.6 15.89 9.61 17.01 L 10.62 16.1 L 12.84 16.1 L 11.83 14.99 L 11.83 14.99 C 11.06 14.15 10.46 13.17 10.04 12.11 C 9.69 11.21 9.51 10.26 9.5 9.3 C 9.49 8.77 9.57 8.25 9.72 7.74 C 9.77 7.6 9.86 7.47 9.99 7.38 C 10.12 7.29 10.26 7.23 10.42 7.22 L 10.62 7.24 C 11.05 7.33 11.47 7.49 11.85 7.7 C 12.4 7.99 12.92 8.34 13.39 8.75 C 14.57 9.76 15.51 11.02 16.17 12.43 L 16.79 13.79 L 19.52 12.53 L 19.45 12.378 L 21.76 11.98 L 21.51 10.51 C 21.41 9.97 21.37 9.43 21.37 8.89 C 21.36 7.71 21.6 6.54 22.05 5.46 C 22.4 4.61 22.93 3.86 23.61 3.25 C 23.74 3.14 23.91 3.08 24.09 3.09 C 24.28 3.08 24.46 3.15 24.6 3.27 C 24.87 3.54 25.11 3.83 25.31 4.16 C 25.58 4.59 25.81 5.04 25.98 5.52 C 26.42 6.7 26.64 7.95 26.63 9.21 C 26.63 9.7 26.6 10.19 26.54 10.67 L 26.35 12.16 L 28.079 12.381 L 28.01 12.53 L 30.73 13.79 L 31.36 12.43 L 31.36 12.43 C 32.01 11.02 32.96 9.76 34.14 8.75 C 34.61 8.34 35.12 7.99 35.67 7.7 C 36.06 7.49 36.48 7.33 36.91 7.24 L 37.11 7.22 C 37.26 7.23 37.41 7.29 37.53 7.38 C 37.66 7.47 37.76 7.6 37.81 7.74 C 37.96 8.25 38.03 8.77 38.03 9.3 C 38.02 10.26 37.84 11.21 37.48 12.11 C 37.07 13.17 36.46 14.15 35.7 14.99 L 35.7 16.1 L 37.11 17.01 L 37.92 17.01 C 38.93 15.89 39.73 14.6 40.28 13.2 C 40.76 11.97 41.02 10.65 41.03 9.32 C 41.03 8.49 40.92 7.66 40.68 6.86 C 40.43 6.08 39.94 5.41 39.28 4.94 C 38.64 4.48 37.87 4.22 37.08 4.22 C 37.03 4.22 36.98 4.22 36.93 4.22 L 36.55 4.26 C 36.5 4.26 36.45 4.27 36.39 4.28 C 35.65 4.43 34.93 4.69 34.26 5.05 C 33.51 5.44 32.81 5.92 32.17 6.48 C 31.186 7.326 30.331 8.306 29.626 9.39 C 29.63 9.333 29.63 9.277 29.63 9.22 C 29.64 7.6 29.36 5.99 28.79 4.47 C 28.55 3.81 28.24 3.17 27.86 2.58 C 27.52 2.02 27.11 1.52 26.64 1.07 C 25.94 0.43 25.03 0.08 24.09 0.09 C 23.19 0.08 22.33 0.4 21.65 0.97 C 20.61 1.89 19.8 3.03 19.28 4.31 C 18.67 5.76 18.36 7.32 18.37 8.9 C 18.37 9.372 18.396 9.839 18.449 10.305 Z " fill-rule="evenodd" fill="url(#_lgradient_16)"/><linearGradient id="_lgradient_17" x1="0.5180870166680417" y1="0.03333118384844386" x2="0.5073273481398528" y2="0.9681890995036899" gradientTransform="matrix(38.045,0,0,36.7,4.977,10.8)" gradientUnits="userSpaceOnUse"><stop offset="0%" stop-opacity="1" style="stop-color:rgb(244,97,51)"/><stop offset="98.75%" stop-opacity="1" style="stop-color:rgb(240,80,129)"/></linearGradient><path d=" M 10.22 24.755 C 10.22 23.466 10.845 22.42 11.615 22.42 C 12.385 22.42 13.01 23.466 13.01 24.755 C 13.01 26.044 12.385 27.09 11.615 27.09 C 10.845 27.09 10.22 26.044 10.22 24.755 L 10.22 24.755 L 10.22 24.755 L 10.22 24.755 L 10.22 24.755 L 10.22 24.755 L 10.22 24.755 L 10.22 24.755 L 10.22 24.755 L 10.22 24.755 Z  M 16.22 23.755 C 16.22 22.466 16.845 21.42 17.615 21.42 C 18.385 21.42 19.01 22.466 19.01 23.755 C 19.01 25.044 18.385 26.09 17.615 26.09 C 16.845 26.09 16.22 25.044 16.22 23.755 L 16.22 23.755 L 16.22 23.755 L 16.22 23.755 L 16.22 23.755 L 16.22 23.755 L 16.22 23.755 L 16.22 23.755 L 16.22 23.755 L 16.22 23.755 Z  M 29.22 23.755 C 29.22 22.466 29.845 21.42 30.615 21.42 C 31.385 21.42 32.01 22.466 32.01 23.755 C 32.01 25.044 31.385 26.09 30.615 26.09 C 29.845 26.09 29.22 25.044 29.22 23.755 L 29.22 23.755 L 29.22 23.755 L 29.22 23.755 L 29.22 23.755 L 29.22 23.755 L 29.22 23.755 L 29.22 23.755 L 29.22 23.755 Z  M 22.31 21.105 C 22.31 19.816 22.935 18.77 23.705 18.77 C 24.475 18.77 25.1 19.816 25.1 21.105 C 25.1 22.394 24.475 23.44 23.705 23.44 C 22.935 23.44 22.31 22.394 22.31 21.105 L 22.31 21.105 L 22.31 21.105 L 22.31 21.105 L 22.31 21.105 L 22.31 21.105 L 22.31 21.105 L 22.31 21.105 Z  M 22.31 30.105 C 22.31 28.816 22.935 27.77 23.705 27.77 C 24.475 27.77 25.1 28.816 25.1 30.105 C 25.1 31.394 24.475 32.44 23.705 32.44 C 22.935 32.44 22.31 31.394 22.31 30.105 L 22.31 30.105 L 22.31 30.105 L 22.31 30.105 L 22.31 30.105 L 22.31 30.105 L 22.31 30.105 Z  M 13.01 30.725 C 13.01 29.436 13.635 28.39 14.405 28.39 C 15.175 28.39 15.8 29.436 15.8 30.725 C 15.8 32.014 15.175 33.06 14.405 33.06 C 13.635 33.06 13.01 32.014 13.01 30.725 L 13.01 30.725 L 13.01 30.725 L 13.01 30.725 L 13.01 30.725 L 13.01 30.725 Z  M 26.615 38.08 C 26.615 36.791 27.24 35.745 28.01 35.745 C 28.78 35.745 29.405 36.791 29.405 38.08 C 29.405 39.369 28.78 40.415 28.01 40.415 C 27.24 40.415 26.615 39.369 26.615 38.08 L 26.615 38.08 L 26.615 38.08 L 26.615 38.08 L 26.615 38.08 Z  M 31.73 30.725 C 31.73 29.436 32.355 28.39 33.125 28.39 C 33.895 28.39 34.52 29.436 34.52 30.725 C 34.52 32.014 33.895 33.06 33.125 33.06 C 32.355 33.06 31.73 32.014 31.73 30.725 L 31.73 30.725 L 31.73 30.725 L 31.73 30.725 Z  M 35.73 24.755 C 35.73 23.466 36.355 22.42 37.125 22.42 C 37.895 22.42 38.52 23.466 38.52 24.755 C 38.52 26.044 37.895 27.09 37.125 27.09 C 36.355 27.09 35.73 26.044 35.73 24.755 L 35.73 24.755 L 35.73 24.755 Z  M 19.52 38.08 C 19.52 36.791 20.145 35.745 20.915 35.745 C 21.685 35.745 22.31 36.791 22.31 38.08 C 22.31 39.369 21.685 40.415 20.915 40.415 C 20.145 40.415 19.52 39.369 19.52 38.08 L 19.52 38.08 Z  M 9.71 18.59 C 11.71 17.05 13.94 15.83 16.32 14.98 C 18.56 14.2 20.92 13.8 23.3 13.8 C 25.81 13.81 28.31 14.22 30.69 15.01 C 33.39 15.91 35.96 17.16 35.96 17.16 C 37.274 18.021 38.439 18.783 38.56 18.86 Q 38.56 18.86 39.81 23.44 C 39.97 24.1 40.04 24.79 40.02 25.47 C 40.02 26.01 39.99 26.55 39.92 27.09 C 39.87 27.53 39.77 27.97 39.64 28.39 C 38.81 30.92 37.77 33.38 36.53 35.73 C 35.7 37.29 34.69 38.74 33.51 40.05 C 32.82 40.81 32.07 41.5 31.25 42.11 C 30.55 42.64 29.8 43.09 29.01 43.45 C 28.25 43.79 27.45 44.05 26.64 44.22 C 25.77 44.41 24.89 44.5 24 44.5 C 23.13 44.5 22.25 44.41 21.4 44.23 C 20.59 44.07 19.81 43.81 19.06 43.48 C 18.28 43.13 17.54 42.7 16.85 42.19 C 16.05 41.6 15.3 40.93 14.63 40.2 C 14.34 39.88 14.05 39.55 13.79 39.22 C 13.49 38.85 13.2 38.47 12.93 38.08 C 12.07 36.84 11.31 35.54 10.66 34.17 C 9.78 32.3 9.01 30.37 8.36 28.39 C 8.23 27.97 8.13 27.53 8.08 27.09 C 8.01 26.55 7.98 26.01 7.98 25.47 C 7.96 24.79 8.03 24.1 8.19 23.44 L 9.21 19.33 C 9.29 19.04 9.46 18.77 9.71 18.59 L 9.71 18.59 Z  M 7.89 16.2 C 10.13 14.48 12.64 13.11 15.31 12.16 C 17.88 11.26 20.59 10.8 23.31 10.8 C 26.14 10.81 28.95 11.28 31.64 12.17 C 34.58 13.15 37.38 14.5 39.98 16.2 C 40.83 16.76 41.45 17.62 41.7 18.61 L 42.73 22.73 C 42.73 22.73 42.73 22.74 42.73 22.75 C 42.94 23.65 43.04 24.57 43.02 25.49 C 43.02 26.15 42.98 26.81 42.9 27.46 C 42.82 28.09 42.69 28.71 42.5 29.31 C 41.61 32.01 40.5 34.62 39.18 37.13 C 38.24 38.91 37.08 40.57 35.73 42.06 C 34.92 42.96 34.02 43.78 33.05 44.51 C 32.18 45.17 31.24 45.73 30.25 46.18 C 29.29 46.61 28.29 46.94 27.26 47.16 C 26.19 47.39 25.1 47.5 24 47.5 C 22.92 47.5 21.84 47.39 20.79 47.17 C 19.77 46.96 18.78 46.64 17.84 46.22 C 16.86 45.78 15.93 45.24 15.07 44.6 C 14.12 43.9 13.23 43.1 12.42 42.23 C 12.08 41.86 11.76 41.48 11.44 41.09 C 11.11 40.67 10.78 40.24 10.47 39.8 C 9.51 38.42 8.67 36.97 7.95 35.45 C 7.01 33.46 6.19 31.41 5.5 29.31 C 5.31 28.71 5.18 28.09 5.1 27.46 C 5.02 26.81 4.98 26.15 4.98 25.49 C 4.96 24.57 5.06 23.65 5.27 22.75 C 5.27 22.74 5.27 22.73 5.27 22.73 L 6.3 18.61 C 6.54 17.65 7.1 16.8 7.89 16.2 L 7.89 16.2 Z " fill-rule="evenodd" fill="url(#_lgradient_17)"/></svg>