<?xml version="1.0" encoding="UTF-8" standalone="no"?><svg xmlns="http://www.w3.org/2000/svg" xmlns:xlink="http://www.w3.org/1999/xlink" style="isolation:isolate" viewBox="0 0 48 48" width="48px" height="48px"><linearGradient id="g_top" x1="118" y1="148.5" x2="358.5" y2="281.5" gradientUnits="userSpaceOnUse" gradientTransform="matrix(0.12154301,0,0,0.12154301,-7.2298824,-7.1757837)"><stop stop-color="#9FEDED"/><stop offset="1" stop-color="#76C4C4"/></linearGradient><linearGradient id="g_bottom" x1="425.5" y1="255" x2="119" y2="365" gradientUnits="userSpaceOnUse" gradientTransform="matrix(0.12154301,0,0,0.12154301,-7.2298824,-7.1757837)"><stop stop-color="#00CDCD"/><stop offset="1" stop-color="#23F0F0"/></linearGradient><path d="M 37.642101,29.287117 H 24.128214 L 5.9011333,16.53932 C 5.0245721,15.926264 4.8076748,14.720429 5.4155708,13.840458 L 9.5609169,7.8395179 C 10.18358,6.9382723 11.427336,6.7288555 12.310704,7.3764361 L 27.774502,18.712883 h 9.867599 c 0.257905,0 0.505256,0.10242 0.687564,0.284767 l 4.31478,4.31478 c 0.379693,0.379707 0.379693,0.995433 0,1.37514 l -4.31478,4.31478 c -0.182308,0.182308 -0.429659,0.284767 -0.687564,0.284767 z" fill="url(#g_top)"/><path d="M 37.642101,18.712883 H 24.128214 L 5.9011333,31.46068 c -0.8765612,0.613056 -1.0934585,1.818891 -0.4855625,2.698862 l 4.1453461,6.00094 c 0.6226631,0.901246 1.8664191,1.110663 2.7497871,0.463082 L 27.774502,29.287117 h 9.867599 c 0.257905,0 0.505256,-0.10242 0.687564,-0.284767 l 4.31478,-4.31478 c 0.379693,-0.379707 0.379693,-0.995433 0,-1.37514 l -4.31478,-4.31478 c -0.182308,-0.182308 -0.429659,-0.284767 -0.687564,-0.284767 z" fill="url(#g_bottom)"/></svg>
