<?xml version="1.0" encoding="UTF-8" standalone="no"?><!-- Generator: Gravit.io --><svg xmlns="http://www.w3.org/2000/svg" xmlns:xlink="http://www.w3.org/1999/xlink" style="isolation:isolate" viewBox="0 0 48 48" width="48px" height="48px">
<linearGradient id="g" x1="0" y1="0.01" x2="1.02" y2="1.07" gradientTransform="matrix(23.985,0,0,33.975,11.008,7.08)" gradientUnits="userSpaceOnUse"><stop offset="0%" stop-opacity="1" style="stop-color:rgb(249,212,35)"/><stop offset="50%" stop-opacity="1" style="stop-color:rgb(255,78,80)"/><stop offset="100%" stop-opacity="1" style="stop-color:rgb(138,35,135)"/></linearGradient><path d=" M 12.583 36.465 L 12.178 35.97 L 12.178 35.97 Q 11.008 34.53 11.008 33.383 L 11.008 33.383 L 11.008 33.383 Q 11.008 32.235 12.943 30.345 L 12.943 30.345 L 12.943 30.345 Q 14.067 29.265 15.328 29.265 L 15.328 29.265 L 15.328 29.265 Q 16.588 29.265 18.838 31.515 L 18.838 31.515 L 18.838 31.515 Q 19.468 32.28 20.638 32.978 L 20.638 32.978 L 20.638 32.978 Q 21.807 33.675 22.798 33.675 L 22.798 33.675 L 22.798 33.675 Q 26.982 33.675 26.982 30.255 L 26.982 30.255 L 26.982 30.255 Q 26.982 29.22 25.835 28.523 L 25.835 28.523 L 25.835 28.523 Q 24.688 27.825 22.978 27.51 L 22.978 27.51 L 22.978 27.51 Q 21.268 27.195 19.288 26.498 L 19.288 26.498 L 19.288 26.498 Q 17.308 25.8 15.598 24.855 L 15.598 24.855 L 15.598 24.855 Q 13.888 23.91 12.74 21.863 L 12.74 21.863 L 12.74 21.863 Q 11.593 19.815 11.593 16.935 L 11.593 16.935 L 11.593 16.935 Q 11.593 12.975 14.54 10.028 L 14.54 10.028 L 14.54 10.028 Q 17.488 7.08 22.572 7.08 L 22.572 7.08 L 22.572 7.08 Q 25.273 7.08 27.5 7.778 L 27.5 7.778 L 27.5 7.778 Q 29.728 8.475 30.583 9.195 L 30.583 9.195 L 31.708 10.05 L 31.708 10.05 Q 33.103 11.355 33.103 12.255 L 33.103 12.255 L 33.103 12.255 Q 33.103 13.155 32.023 14.73 L 32.023 14.73 L 32.023 14.73 Q 30.493 16.98 28.873 16.98 L 28.873 16.98 L 28.873 16.98 Q 27.928 16.98 26.533 16.08 L 26.533 16.08 L 26.533 16.08 Q 26.398 15.99 26.015 15.63 L 26.015 15.63 L 26.015 15.63 Q 25.633 15.27 25.318 15.045 L 25.318 15.045 L 25.318 15.045 Q 24.373 14.46 22.91 14.46 L 22.91 14.46 L 22.91 14.46 Q 21.447 14.46 20.48 15.158 L 20.48 15.158 L 20.48 15.158 Q 19.513 15.855 19.513 17.093 L 19.513 17.093 L 19.513 17.093 Q 19.513 18.33 20.66 19.095 L 20.66 19.095 L 20.66 19.095 Q 21.807 19.86 23.518 20.13 L 23.518 20.13 L 23.518 20.13 Q 25.228 20.4 27.253 20.963 L 27.253 20.963 L 27.253 20.963 Q 29.278 21.525 30.988 22.335 L 30.988 22.335 L 30.988 22.335 Q 32.697 23.145 33.845 25.148 L 33.845 25.148 L 33.845 25.148 Q 34.993 27.15 34.993 30.075 L 34.993 30.075 L 34.993 30.075 Q 34.993 33 33.823 35.228 L 33.823 35.228 L 33.823 35.228 Q 32.653 37.455 30.763 38.67 L 30.763 38.67 L 30.763 38.67 Q 27.118 41.055 22.978 41.055 L 22.978 41.055 L 22.978 41.055 Q 20.863 41.055 18.973 40.537 L 18.973 40.537 L 18.973 40.537 Q 17.083 40.02 15.913 39.255 L 15.913 39.255 L 15.913 39.255 Q 13.528 37.815 12.583 36.465 L 12.583 36.465 L 12.583 36.465 Z " fill="url(#g)"/></svg>
