<?xml version="1.0" encoding="UTF-8" standalone="no"?><!-- Generator: Gravit.io --><svg xmlns="http://www.w3.org/2000/svg" xmlns:xlink="http://www.w3.org/1999/xlink" style="isolation:isolate" viewBox="0 0 48 48" width="48pt" height="48pt"><linearGradient id="_lgradient_27" x1="0" y1="0.5" x2="1" y2="0.5" gradientTransform="matrix(-18.63,0,0,20.735,33.315,13.633)" gradientUnits="userSpaceOnUse"><stop offset="0%" stop-opacity="1" style="stop-color:rgb(255,229,59)"/><stop offset="98.69565217391305%" stop-opacity="1" style="stop-color:rgb(255,0,91)"/></linearGradient><path d=" M 28.971 18.342 L 28.971 18.342 C 29.378 18.634 29.943 18.542 30.233 18.137 L 30.233 18.137 C 30.524 17.732 30.43 17.166 30.023 16.875 L 30.023 16.875 L 24.833 13.824 C 24.403 13.571 23.704 13.569 23.272 13.818 L 15.467 18.324 C 15.035 18.573 14.685 19.18 14.685 19.679 L 14.685 27.838 C 14.685 28.336 15.034 28.945 15.465 29.197 L 24.123 34.259 C 24.554 34.51 24.903 34.31 24.903 33.811 L 24.903 28.352 L 24.903 28.352 C 24.903 27.854 24.498 27.449 24 27.449 L 24 27.449 C 23.502 27.449 23.097 27.854 23.097 28.352 L 23.097 28.352 L 23.097 30.746 C 23.097 30.995 22.922 31.095 22.707 30.97 L 16.491 27.359 L 16.491 19.819 L 23.946 15.516 L 28.971 18.342 Z  M 26.447 31.269 L 26.447 31.269 C 26.021 31.529 25.884 32.085 26.14 32.511 L 26.14 32.511 C 26.397 32.937 26.951 33.075 27.377 32.818 L 27.377 32.818 L 32.526 29.948 C 32.962 29.705 33.315 29.104 33.315 28.605 L 33.315 19.363 C 33.315 18.864 32.965 18.662 32.533 18.911 L 24.441 23.584 C 24.225 23.709 23.873 23.712 23.655 23.591 L 19.024 21.029 L 19.024 21.029 C 18.615 20.742 18.05 20.839 17.762 21.245 L 17.762 21.245 C 17.474 21.652 17.572 22.216 17.981 22.505 L 17.981 22.505 L 23.168 25.499 C 23.6 25.748 24.301 25.748 24.732 25.499 L 31.509 21.589 L 31.509 28.492 L 26.447 31.269 Z " fill-rule="evenodd" fill="url(#_lgradient_27)"/><linearGradient id="_lgradient_28" x1="0" y1="0.5" x2="1" y2="0.5" gradientTransform="matrix(41.584,0,0,42.854,3.566,0.461)" gradientUnits="userSpaceOnUse"><stop offset="0%" stop-opacity="1" style="stop-color:rgb(24,208,173)"/><stop offset="90.44964029999998%" stop-opacity="1" style="stop-color:rgb(7,195,242)"/></linearGradient><path d=" M 41.049 30.449 L 37.63 28.519 L 37.63 28.519 C 36.692 27.929 35.453 28.209 34.865 29.144 L 34.865 29.144 C 34.277 30.08 34.557 31.314 35.49 31.899 L 35.49 31.899 L 35.49 31.899 L 39.392 34.109 L 29.557 39.505 L 29.557 39.505 C 28.589 40.094 28.277 41.357 28.859 42.325 L 28.859 42.325 C 29.442 43.292 30.701 43.605 31.669 43.022 L 31.669 43.022 L 43.359 36.505 C 44.347 35.954 45.15 34.588 45.15 33.457 L 45.15 19.05 C 45.15 17.919 44.242 17.116 43.124 17.259 L 43.124 17.259 C 41.979 17.406 41.049 18.466 41.049 19.625 L 41.049 30.449 Z  M 7.667 30.433 L 7.667 14.093 L 21.948 5.849 L 22.05 10.05 L 22.05 10.05 C 22.078 11.154 22.996 12.028 24.1 12 L 24.1 12 C 25.204 11.972 26.078 11.054 26.05 9.95 L 26.05 9.95 L 25.952 5.903 L 35.288 11.154 L 35.288 11.154 C 36.21 11.816 37.494 11.607 38.153 10.687 L 38.153 10.687 C 38.812 9.768 38.599 8.484 37.676 7.822 L 37.676 7.822 L 25.891 0.895 C 24.915 0.321 23.327 0.315 22.347 0.881 L 22.065 1.044 L 21.83 1.05 L 21.833 1.178 L 4.325 11.286 C 4.226 11.329 4.134 11.385 4.051 11.453 C 4.041 11.456 4.035 11.46 4.032 11.466 C 3.747 11.662 3.607 11.905 3.634 12.148 C 3.589 12.309 3.566 12.491 3.566 12.69 L 3.566 33.457 C 3.566 34.588 4.369 35.954 5.357 36.505 L 17.047 43.022 L 17.047 43.022 C 18.015 43.605 19.274 43.292 19.857 42.325 L 19.857 42.325 C 20.439 41.357 20.127 40.094 19.159 39.505 L 19.159 39.505 L 9.338 34.117 L 13.09 31.68 L 13.09 31.68 C 14.017 31.078 14.282 29.837 13.68 28.91 L 13.68 28.91 C 13.078 27.983 11.837 27.718 10.91 28.32 L 10.91 28.32 L 7.667 30.433 L 7.667 30.433 Z " fill-rule="evenodd" fill="url(#_lgradient_28)"/></svg>