<?xml version="1.0" encoding="UTF-8" standalone="no"?><!-- Generator: Gravit.io --><svg xmlns="http://www.w3.org/2000/svg" xmlns:xlink="http://www.w3.org/1999/xlink" style="isolation:isolate" viewBox="0 0 48 48" width="48pt" height="48pt"><linearGradient id="_lgradient_9" x1="0" y1="0.5" x2="1" y2="0.5" gradientTransform="matrix(47,0,0,44.864,0.5,1.568)" gradientUnits="userSpaceOnUse"><stop offset="0%" stop-opacity="1" style="stop-color:rgb(0,255,255)"/><stop offset="98.26086956521739%" stop-opacity="1" style="stop-color:rgb(165,83,168)"/></linearGradient><path d=" M 29.542 30.217 C 29.141 30.342 28.715 30.409 28.273 30.409 C 26.617 30.409 25.181 29.466 24.471 28.088 L 8.863 29.509 C 8.333 31.265 6.701 32.545 4.773 32.545 C 2.415 32.545 0.5 30.631 0.5 28.273 C 0.5 25.915 2.415 24 4.773 24 C 6.43 24 7.867 24.945 8.576 26.325 L 8.576 26.325 L 8.576 26.325 L 8.576 26.325 L 8.576 26.325 L 24.181 24.904 L 24.181 24.904 L 24.181 24.904 C 24.71 23.146 26.343 21.864 28.273 21.864 C 29.311 21.864 30.262 22.234 31.003 22.851 L 31.003 22.851 L 39.056 18.521 C 38.99 18.222 38.955 17.91 38.955 17.591 L 38.955 17.591 L 38.955 17.591 L 38.955 17.591 L 38.955 17.591 L 38.955 17.591 L 38.955 17.591 C 38.955 15.233 40.869 13.318 43.227 13.318 C 45.585 13.318 47.5 15.233 47.5 17.591 C 47.5 19.949 45.585 21.864 43.227 21.864 C 42.366 21.864 41.564 21.608 40.893 21.169 L 32.52 25.67 C 32.537 25.823 32.545 25.979 32.545 26.136 C 32.545 26.88 32.355 27.579 32.021 28.188 L 36.617 33.806 C 37.018 33.681 37.444 33.614 37.886 33.614 C 40.245 33.614 42.159 35.528 42.159 37.886 C 42.159 40.245 40.245 42.159 37.886 42.159 C 35.528 42.159 33.614 40.245 33.614 37.886 L 33.614 37.886 L 33.614 37.886 L 33.614 37.886 L 33.614 37.886 L 33.614 37.886 L 33.614 37.886 L 33.614 37.886 L 33.614 37.886 C 33.614 37.143 33.804 36.444 34.138 35.835 L 29.542 30.217 Z  M 6.343 19.727 L 6.343 19.727 C 6.066 20.871 4.912 21.575 3.769 21.298 L 3.769 21.298 C 2.625 21.02 1.921 19.867 2.198 18.723 L 2.198 18.723 C 3.373 13.831 6.172 9.483 10.124 6.364 C 14.077 3.256 18.969 1.568 24 1.568 C 30.302 1.568 36.316 4.228 40.557 8.875 L 40.557 8.875 C 41.353 9.747 41.293 11.099 40.423 11.892 L 40.423 11.892 C 39.554 12.685 38.202 12.625 37.406 11.759 L 37.406 11.759 C 33.966 7.988 29.095 5.841 24 5.841 C 19.93 5.841 15.967 7.208 12.773 9.729 C 9.569 12.239 7.304 15.764 6.343 19.727 L 6.343 19.727 L 6.343 19.727 L 6.343 19.727 L 6.343 19.727 Z  M 30.858 40.813 L 30.858 40.813 C 31.954 40.371 33.206 40.898 33.651 41.988 L 33.651 41.988 C 34.096 43.079 33.572 44.328 32.481 44.776 L 32.481 44.776 C 29.79 45.866 26.905 46.432 24 46.432 C 16.971 46.432 10.338 43.12 6.097 37.513 L 6.097 37.513 C 5.39 36.569 5.579 35.227 6.519 34.516 L 6.519 34.516 C 7.46 33.806 8.797 33.995 9.505 34.938 L 9.505 34.938 C 12.934 39.478 18.307 42.159 24 42.159 C 26.35 42.159 28.689 41.7 30.858 40.813 L 30.858 40.813 L 30.858 40.813 L 30.858 40.813 Z  M 42.116 25.271 L 42.116 25.271 C 42.199 24.098 43.221 23.21 44.397 23.29 L 44.397 23.29 C 45.573 23.369 46.461 24.391 46.378 25.57 L 46.378 25.57 C 46.229 27.792 45.737 29.982 44.936 32.065 L 44.936 32.065 C 44.512 33.161 43.275 33.707 42.175 33.282 L 42.175 33.282 C 41.076 32.858 40.528 31.623 40.952 30.527 L 40.952 30.527 C 41.604 28.839 41.988 27.076 42.116 25.271 L 42.116 25.271 L 42.116 25.271 Z " fill-rule="evenodd" fill="url(#_lgradient_9)"/></svg>