<?xml version="1.0" encoding="UTF-8" standalone="no"?><!-- Generator: Gravit.io --><svg xmlns="http://www.w3.org/2000/svg" xmlns:xlink="http://www.w3.org/1999/xlink" style="isolation:isolate" viewBox="0 0 48 48" width="48pt" height="48pt"><linearGradient id="_lgradient_58" x1="-0.014458464773922156" y1="0.009839246119734024" x2="1.0164565923220248" y2="1.0722930524759795" gradientTransform="matrix(46.808,0,0,47,0.596,0.5)" gradientUnits="userSpaceOnUse"><stop offset="0%" stop-opacity="1" style="stop-color:rgb(249,212,35)"/><stop offset="51.56237565086822%" stop-opacity="1" style="stop-color:rgb(255,78,80)"/><stop offset="99.1304347826087%" stop-opacity="1" style="stop-color:rgb(138,35,135)"/></linearGradient><path d=" M 29.102 20.17 L 29.102 20.17 C 28.34 19.37 28.371 18.102 29.172 17.34 L 29.172 17.34 C 29.972 16.578 31.24 16.61 32.002 17.41 L 32.002 17.41 C 32.382 17.81 32.732 18.24 33.042 18.69 C 34.332 20.54 35.032 22.74 35.032 24.99 C 35.032 28.58 33.282 31.95 30.342 34.01 C 28.492 35.3 26.292 36 24.042 36 C 20.452 36 17.082 34.25 15.022 31.31 C 13.732 29.46 13.032 27.26 13.032 25.01 C 13.032 22.19 14.112 19.47 16.052 17.42 L 16.052 17.42 C 16.813 16.62 18.081 16.588 18.882 17.35 L 18.882 17.35 C 19.682 18.112 19.713 19.38 18.952 20.18 L 18.952 20.18 C 17.722 21.48 17.032 23.21 17.032 25.01 C 17.032 26.44 17.472 27.84 18.292 29.01 C 19.612 30.88 21.752 32 24.042 32 C 25.472 32 26.872 31.56 28.042 30.74 C 29.912 29.42 31.032 27.28 31.032 24.99 C 31.032 23.56 30.592 22.16 29.762 20.99 C 29.562 20.7 29.342 20.42 29.102 20.17 L 29.102 20.17 L 29.102 20.17 L 29.102 20.17 L 29.102 20.17 Z  M 24.032 12 L 24.032 12 C 25.136 12 26.032 12.896 26.032 14 L 26.032 24 C 26.032 25.104 25.136 26 24.032 26 L 24.032 26 C 22.928 26 22.032 25.104 22.032 24 L 22.032 14 C 22.032 12.896 22.928 12 24.032 12 L 24.032 12 L 24.032 12 L 24.032 12 L 24.032 12 Z  M 32.949 6.952 L 32.949 6.952 C 31.904 6.403 31.502 5.109 32.051 4.065 L 32.051 4.065 C 32.6 3.02 33.894 2.617 34.938 3.166 L 34.938 3.166 C 39.387 5.508 42.981 9.22 45.173 13.743 L 45.173 13.743 C 45.693 14.806 45.252 16.088 44.189 16.604 L 44.189 16.604 C 43.127 17.121 41.843 16.678 41.323 15.615 L 41.323 15.615 C 39.526 11.904 36.596 8.877 32.949 6.952 L 32.949 6.952 L 32.949 6.952 L 32.949 6.952 Z  M 23.848 4.5 L 23.848 4.5 C 24.952 4.494 25.844 3.594 25.838 2.49 L 25.838 2.49 C 25.833 1.386 24.932 0.494 23.828 0.5 L 23.828 0.5 C 18.068 0.53 12.518 2.68 8.238 6.53 C 3.958 10.39 1.238 15.68 0.608 21.41 L 0.608 21.41 C 0.487 22.508 1.28 23.499 2.378 23.62 L 2.378 23.62 C 3.477 23.741 4.467 22.948 4.588 21.85 L 4.588 21.85 C 5.108 17.1 7.368 12.7 10.918 9.51 C 14.468 6.31 19.068 4.53 23.848 4.5 L 23.848 4.5 L 23.848 4.5 Z  M 5.768 31 L 5.768 31 C 5.371 29.968 4.21 29.453 3.178 29.85 L 3.178 29.85 C 2.146 30.247 1.631 31.408 2.028 32.44 L 2.028 32.44 C 3.938 37.37 7.448 41.52 11.998 44.22 L 11.998 44.22 C 12.948 44.783 14.175 44.469 14.738 43.52 L 14.738 43.52 C 15.301 42.571 14.988 41.343 14.038 40.78 L 14.038 40.78 C 10.258 38.54 7.348 35.1 5.768 31 L 5.768 31 Z  M 23.338 43.49 L 23.338 43.49 C 22.234 43.473 21.325 44.356 21.308 45.46 L 21.308 45.46 C 21.292 46.564 22.174 47.473 23.278 47.49 L 23.278 47.49 L 23.938 47.5 C 23.948 47.5 23.958 47.5 23.968 47.5 C 29.878 47.5 35.578 45.27 39.918 41.26 C 44.258 37.25 46.938 31.74 47.398 25.85 L 47.398 25.85 C 47.481 24.752 46.657 23.788 45.558 23.7 L 45.558 23.7 C 44.46 23.612 43.497 24.436 43.408 25.54 L 43.408 25.54 C 43.028 30.42 40.808 34.99 37.208 38.32 C 33.608 41.65 28.888 43.5 23.988 43.5 L 23.338 43.49 Z " fill-rule="evenodd" fill="url(#_lgradient_58)"/></svg>