<?xml version="1.0" encoding="UTF-8" standalone="no"?><!-- Generator: Gravit.io --><svg xmlns="http://www.w3.org/2000/svg" xmlns:xlink="http://www.w3.org/1999/xlink" style="isolation:isolate" viewBox="0 0 48 48" width="48pt" height="48pt"><linearGradient id="_lgradient_8" x1="0" y1="0.5" x2="1" y2="0.5" gradientTransform="matrix(47,0,0,35.553,0.5,6.224)" gradientUnits="userSpaceOnUse"><stop offset="6%" stop-opacity="1" style="stop-color:rgb(43,134,208)"/><stop offset="89%" stop-opacity="1" style="stop-color:rgb(33,215,137)"/></linearGradient><path d=" M 3.985 6.224 C 2.616 7.833 1.446 9.602 0.5 11.491 L 13.158 11.491 L 8.269 33.876 L 13.66 33.876 L 14.234 31.242 L 30.22 31.242 L 29.562 36.509 L 16.085 36.509 L 5.551 36.509 L 1.215 36.509 C 2.313 38.425 3.647 40.194 5.186 41.776 L 42.76 41.776 C 44.311 40.196 45.656 38.426 46.764 36.509 L 34.87 36.509 L 37.503 15.441 L 17.685 15.441 L 18.546 11.491 L 47.5 11.491 C 46.536 9.599 45.347 7.83 43.959 6.224 L 3.985 6.224 Z  M 16.535 20.708 L 31.537 20.708 L 30.878 25.975 L 15.386 25.975 L 16.535 20.708 Z " fill="url(#_lgradient_8)"/></svg>