<?xml version="1.0" standalone="no"?><!-- Generator: Gravit.io --><svg xmlns="http://www.w3.org/2000/svg" xmlns:xlink="http://www.w3.org/1999/xlink" style="isolation:isolate" viewBox="0 0 48 48" width="48" height="48"><defs><clipPath id="_clipPath_sWJf5PPI9nMkaTYBsuLtZbgui8RQyleM"><rect width="48" height="48"/></clipPath></defs><g clip-path="url(#_clipPath_sWJf5PPI9nMkaTYBsuLtZbgui8RQyleM)"><linearGradient id="_lgradient_3" x1="0.4524999999999999" y1="-0.07687500000000008" x2="0.43687499999999996" y2="1.0168749999999998" gradientTransform="matrix(0,-48,48,0,-0.06,48.47)" gradientUnits="userSpaceOnUse"><stop offset="0%" stop-opacity="1" style="stop-color:rgb(198,255,221)"/><stop offset="50%" stop-opacity="1" style="stop-color:rgb(251,215,134)"/><stop offset="100%" stop-opacity="1" style="stop-color:rgb(247,121,125)"/></linearGradient><path d=" M 40.7 13.56 L 40.7 13.56 C 40.093 12.633 40.351 11.392 41.275 10.79 L 41.275 10.79 C 42.199 10.188 43.443 10.448 44.05 11.37 L 44.05 11.37 C 46.59 15.27 47.94 19.82 47.94 24.47 C 47.94 30.84 45.41 36.95 40.91 41.44 C 36.41 45.94 30.3 48.47 23.94 48.47 C 17.58 48.47 11.47 45.94 6.97 41.44 C 2.47 36.95 -0.06 30.84 -0.06 24.47 C -0.06 18.11 2.47 12 6.97 7.5 C 11.47 3 17.58 0.47 23.94 0.47 C 27.36 0.47 30.74 1.2 33.86 2.62 L 33.86 2.62 C 34.864 3.078 35.31 4.266 34.855 5.27 L 34.855 5.27 C 34.4 6.274 33.214 6.718 32.21 6.26 L 32.21 6.26 C 29.61 5.08 26.79 4.47 23.94 4.47 C 18.64 4.47 13.55 6.58 9.8 10.33 C 6.05 14.08 3.94 19.17 3.94 24.47 C 3.94 29.78 6.05 34.87 9.8 38.62 C 13.55 42.37 18.64 44.47 23.94 44.47 C 29.24 44.47 34.33 42.37 38.08 38.62 C 41.83 34.87 43.94 29.78 43.94 24.47 C 43.94 20.6 42.81 16.81 40.7 13.56 Z " fill="url(#_lgradient_3)"/><linearGradient id="_lgradient_4" x1="9.504568979634698e-7" y1="0.5000000170061136" x2="0.9999999736396193" y2="0.5000000170061136" gradientTransform="matrix(20.968,0,0,13.685,13.456,18.127)" gradientUnits="userSpaceOnUse"><stop offset="0%" stop-opacity="1" style="stop-color:rgb(198,255,221)"/><stop offset="50%" stop-opacity="1" style="stop-color:rgb(251,215,134)"/><stop offset="100%" stop-opacity="1" style="stop-color:rgb(247,121,125)"/></linearGradient><linearGradient id="_lgradient_5" x1="-0.2165141073851897" y1="0.35467064984064844" x2="1.2744376217694584" y2="0.35467064984064844"><stop offset="0%" stop-opacity="1" style="stop-color:rgb(198,255,221)"/><stop offset="50%" stop-opacity="1" style="stop-color:rgb(251,215,134)"/><stop offset="100%" stop-opacity="1" style="stop-color:rgb(247,121,125)"/></linearGradient><path d=" M 15.356 18.127 C 14.972 18.133 14.634 18.381 14.514 18.745 C 14.394 19.109 14.518 19.51 14.822 19.743 L 20.787 24.465 L 13.822 30.188 C 13.557 30.383 13.42 30.707 13.464 31.033 C 13.508 31.36 13.727 31.636 14.034 31.753 C 14.342 31.871 14.689 31.811 14.94 31.598 L 22.797 25.17 C 23.013 25 23.139 24.739 23.139 24.464 C 23.139 24.189 23.013 23.929 22.797 23.758 L 15.94 18.33 C 15.775 18.196 15.568 18.124 15.356 18.127 Z  M 25.238 29.012 C 24.741 29.012 24.338 29.415 24.338 29.912 C 24.338 30.41 24.741 30.813 25.238 30.813 L 33.524 30.813 C 34.021 30.813 34.424 30.41 34.424 29.912 C 34.424 29.415 34.021 29.012 33.524 29.012 L 25.238 29.012 Z " fill-rule="evenodd" fill="url(#_lgradient_4)" vector-effect="non-scaling-stroke" stroke-width="2" stroke="url(#_lgradient_5)" stroke-linejoin="round" stroke-linecap="round" stroke-miterlimit="4"/></g></svg>