<?xml version="1.0" encoding="UTF-8" standalone="no"?><!-- Generator: Gravit.io --><svg xmlns="http://www.w3.org/2000/svg" xmlns:xlink="http://www.w3.org/1999/xlink" style="isolation:isolate" viewBox="0 0 48 48" width="48pt" height="48pt"><linearGradient id="_lgradient_3" x1="0" y1="0.5" x2="0.9074880558539661" y2="0.9200778838291643" gradientTransform="matrix(48,0,0,48,0,0)" gradientUnits="userSpaceOnUse"><stop offset="0%" stop-opacity="1" style="stop-color:rgb(255,65,108)"/><stop offset="84.34782608695653%" stop-opacity="1" style="stop-color:rgb(255,75,43)"/></linearGradient><path d=" M 25.112 34.869 C 22.014 33.776 20.39 33.453 19.116 33.493 C 17.763 33.607 16.611 34.015 15.284 34.442 C 14.557 34.649 14.556 34.638 15.236 33.895 C 15.617 33.479 16.963 32.487 18.228 31.691 C 19.95 30.608 20.904 30.329 22.021 30.329 C 23.781 30.329 24.946 29.281 24.569 28.136 C 23.156 25.886 19.778 22.948 19.778 22.147 C 19.778 21.477 21.084 19.775 22.649 18.16 C 23.341 17.445 23.64 16.873 23.424 16.679 C 22.974 16.274 18.66 15.566 16.645 15.566 C 15.035 15.566 13.615 16.06 13.615 17.1 C 13.615 17.389 13.813 18.19 14.441 18.881 L 15.583 20.137 C 14.828 20.98 14.505 21.893 13.205 21.893 C 11.341 21.893 11.341 20.417 11.351 18.982 C 11.614 15.466 17.101 11.942 22.291 12.446 C 25.573 12.766 28.45 13.227 31.592 13.457 C 33.341 13.541 34.437 13.112 36.076 12.505 C 37.264 12.065 36.507 13.481 34.728 15.025 C 32.588 16.882 31.323 17.972 27.896 17.664 C 25.333 17.433 24.631 17.299 24.044 18.829 C 23.578 20.043 24.087 21.2 26.507 23.671 C 27.701 24.889 28.222 25.676 28.214 26.446 C 28.206 27.136 27.786 27.811 26.86 28.77 C 26.043 29.616 25.576 30.457 25.692 30.64 C 26.059 31.212 28.486 32.438 29.808 32.438 C 30.505 32.438 31.821 32.247 32.604 31.861 C 33.927 31.209 34.489 31.215 34.489 31.881 C 34.489 32.408 30.323 35.608 27.94 35.602 C 27.507 35.601 26.234 35.265 25.112 34.869 Z  M 30.22 4.99 L 30.22 4.99 C 31.269 5.332 32.398 4.759 32.74 3.71 L 32.74 3.71 C 33.082 2.661 32.509 1.532 31.46 1.19 L 31.46 1.19 C 29.06 0.4 26.55 0 24.03 0 C 15.68 0 7.9 4.34 3.54 11.46 C 1.23 15.22 0 19.56 0 23.97 C 0 32.32 4.34 40.1 11.46 44.46 C 15.22 46.77 19.55 48 23.97 48 C 32.32 48 40.1 43.66 44.46 36.54 C 46.77 32.78 48 28.45 48 24.03 C 48 18.39 46.02 12.92 42.41 8.59 L 42.41 8.59 C 41.698 7.746 40.432 7.634 39.585 8.34 L 39.585 8.34 C 38.738 9.046 38.628 10.31 39.34 11.16 L 39.34 11.16 C 42.35 14.77 44 19.32 44 24.03 C 44 27.7 42.98 31.31 41.05 34.45 C 37.41 40.38 30.93 44 23.97 44 C 20.29 44 16.69 42.98 13.55 41.05 C 7.62 37.41 4 30.93 4 23.97 C 4 20.3 5.02 16.69 6.95 13.55 C 10.59 7.62 17.07 4 24.03 4 C 26.13 4 28.22 4.33 30.22 4.99 Z " fill-rule="evenodd" fill="url(#_lgradient_3)"/></svg>