<?xml version="1.0" standalone="no"?><!-- Generator: Gravit.io --><svg xmlns="http://www.w3.org/2000/svg" xmlns:xlink="http://www.w3.org/1999/xlink" style="isolation:isolate" viewBox="0 0 48 48" width="48px" height="48px"><linearGradient id="_lgradient_2" x1="0" y1="0.5" x2="0.9074880558539661" y2="0.9200778838291643" gradientTransform="matrix(44,0,0,44,2,2)" gradientUnits="userSpaceOnUse"><stop offset="0%" stop-opacity="1" style="stop-color:rgb(69,104,220)"/><stop offset="98.69565217391305%" stop-opacity="1" style="stop-color:rgb(176,106,179)"/></linearGradient><path d=" M 42 24.14 L 42 24.14 C 42 23.036 42.896 22.14 44 22.14 L 44 22.14 C 45.104 22.14 46 23.036 46 24.14 L 46 24.14 L 46 39 C 46 42.863 42.863 46 39 46 L 9 46 C 5.137 46 2 42.863 2 39 L 2 9 C 2 5.137 5.137 2 9 2 L 39 2 C 42.863 2 46 5.137 46 9 L 46 10.54 C 46 11.644 45.32 13.123 44.481 13.841 L 25.349 30.239 C 24.51 30.957 23.226 30.878 22.481 30.063 L 14.52 21.35 L 14.52 21.35 C 13.775 20.533 13.833 19.265 14.65 18.52 L 14.65 18.52 C 15.467 17.775 16.735 17.833 17.48 18.65 L 17.48 18.65 L 23.496 25.241 C 23.868 25.649 24.51 25.688 24.929 25.329 L 41.241 11.351 C 41.66 10.992 42 10.252 42 9.7 L 42 9 C 42 7.344 40.656 6 39 6 L 11 6 C 8.24 6 6 8.24 6 11 L 6 37 C 6 39.76 8.24 42 11 42 L 37 42 C 39.76 42 42 39.76 42 37 L 42 24.14 Z " fill="url(#_lgradient_2)"/></svg>