<?xml version="1.0" encoding="UTF-8" standalone="no"?><!-- Generator: Gravit.io --><svg xmlns="http://www.w3.org/2000/svg" xmlns:xlink="http://www.w3.org/1999/xlink" style="isolation:isolate" viewBox="0 0 48 48" width="48pt" height="48pt"><linearGradient id="_lgradient_31" x1="-0.000038208333333289435" y1="0.5000000833333331" x2="0.9999618333333335" y2="0.5000000833333331" gradientTransform="matrix(40.733,0,0,47,3.633,0.5)" gradientUnits="userSpaceOnUse"><stop offset="0%" stop-opacity="1" style="stop-color:rgb(211,0,220)"/><stop offset="100%" stop-opacity="1" style="stop-color:rgb(135,0,255)"/></linearGradient><path d=" M 5.2 0.5 L 3.633 8.333 L 3.633 42.8 L 11.467 42.8 L 11.467 47.5 L 17.733 47.5 L 22.433 42.8 L 28.7 42.8 L 44.367 27.133 L 44.367 0.5 L 5.2 0.5 Z  M 9.9 3.633 L 41.233 3.633 L 41.233 25.438 L 34.967 31.833 L 24 31.833 L 17.733 38.1 L 17.733 31.833 L 9.9 31.833 L 9.9 3.633 Z  M 19.3 11.467 L 19.3 24 L 24 24 L 24 11.467 L 19.3 11.467 Z  M 30.267 11.467 L 30.267 24 L 34.967 24 L 34.967 11.467 L 30.267 11.467 Z " fill-rule="evenodd" fill="url(#_lgradient_31)"/></svg>