<?xml version="1.0" encoding="UTF-8" standalone="no"?><!-- Generator: Gravit.io --><svg xmlns="http://www.w3.org/2000/svg" xmlns:xlink="http://www.w3.org/1999/xlink" style="isolation:isolate" viewBox="0 0 48 48" width="48pt" height="48pt"><linearGradient id="_lgradient_20" x1="0.007491186839012844" y1="0.014835487661574547" x2="0.9703290246768507" y2="0.904475127301214" gradientTransform="matrix(-46,0,0,-46,47,47)" gradientUnits="userSpaceOnUse"><stop offset="2.608695652173913%" stop-opacity="1" style="stop-color:rgb(198,255,221)"/><stop offset="51.73913043478261%" stop-opacity="1" style="stop-color:rgb(251,215,134)"/><stop offset="99.1304347826087%" stop-opacity="1" style="stop-color:rgb(247,121,125)"/></linearGradient><path d=" M 43 35.45 L 43 35.45 C 43 34.346 43.896 33.45 45 33.45 L 45 33.45 C 46.104 33.45 47 34.346 47 35.45 L 47 35.45 L 47 42 C 47 44.76 44.76 47 42 47 L 6 47 C 3.24 47 1 44.76 1 42 L 1 23 L 1 23 C 1 21.896 1.896 21 3 21 L 3 21 C 4.104 21 5 21.896 5 23 L 5 23 L 5 40 C 5 41.656 6.344 43 8 43 L 40 43 C 41.656 43 43 41.656 43 40 L 43 35.45 L 43 35.45 Z  M 5 12.55 L 5 12.55 C 5 13.654 4.104 14.55 3 14.55 L 3 14.55 C 1.896 14.55 1 13.654 1 12.55 L 1 12.55 L 1 6 C 1 3.24 3.24 1 6 1 L 42 1 C 44.76 1 47 3.24 47 6 L 47 25.82 L 47 25.82 C 47 26.924 46.104 27.82 45 27.82 L 45 27.82 C 43.896 27.82 43 26.924 43 25.82 L 43 25.82 L 43 8 C 43 6.344 41.656 5 40 5 L 8 5 C 6.344 5 5 6.344 5 8 L 5 12.55 L 5 12.55 Z  M 35 10 L 12.999 10 L 12 21 L 13.941 21 C 14.208 19.061 14.551 17.368 14.971 16.127 C 15.963 13.296 17.494 12.023 20.089 12.023 C 21.348 12.023 21.882 12.449 21.882 13.419 L 21.882 34.155 C 21.882 35.784 21.523 35.668 18.448 35.978 L 18 35.978 L 18 38 L 30 38 L 30 35.978 L 29.552 35.978 C 26.499 35.978 26.156 35.784 26.156 34.155 L 26.156 13.419 C 26.156 12.449 26.69 12.023 27.949 12.023 C 30.277 12.023 31.846 13.141 32.8 15.468 C 33.373 16.903 33.754 18.789 34.059 21 L 36 21 L 35 10 Z " fill-rule="evenodd" fill="url(#_lgradient_20)"/></svg>