<?xml version="1.0" encoding="UTF-8" standalone="no"?><!-- Generator: Gravit.io --><svg xmlns="http://www.w3.org/2000/svg" xmlns:xlink="http://www.w3.org/1999/xlink" style="isolation:isolate" viewBox="0 0 48 48" width="48pt" height="48pt"><linearGradient id="_lgradient_12" x1="0" y1="0.5" x2="0.9944444444444447" y2="0.47727272727272707" gradientTransform="matrix(45,0,0,44,2,2)" gradientUnits="userSpaceOnUse"><stop offset="0%" stop-opacity="1" style="stop-color:rgb(88,0,226)"/><stop offset="100%" stop-opacity="1" style="stop-color:rgb(255,0,230)"/></linearGradient><path d=" M 19.5 16 L 19.5 16 C 19.5 14.896 20.284 14 21.25 14 L 21.25 14 C 22.216 14 23 14.896 23 16 L 23 16 L 23 43.194 C 23 44.743 21.743 46 20.194 46 L 13.225 46 C 7.03 46 2 40.97 2 34.775 L 2 13.225 C 2 7.03 7.03 2 13.225 2 L 21.25 2 L 21.25 2 C 22.216 2 23 2.896 23 4 L 23 4 C 23 5.104 22.216 6 21.25 6 L 21.25 6 L 13.919 6 C 9.272 6 5.5 9.772 5.5 14.419 L 5.5 33.581 C 5.5 38.228 9.272 42 13.919 42 L 19.5 42 L 19.5 16 L 19.5 16 L 19.5 16 Z  M 9.5 15 C 9.5 13.344 10.844 12 12.5 12 C 14.156 12 15.5 13.344 15.5 15 C 15.5 16.656 14.156 18 12.5 18 C 10.844 18 9.5 16.656 9.5 15 L 9.5 15 L 9.5 15 Z  M 29.5 32 L 29.5 32 C 29.5 33.104 28.716 34 27.75 34 L 27.75 34 C 26.784 34 26 33.104 26 32 L 26 32 L 26 4.806 C 26 3.257 27.257 2 28.806 2 L 35.775 2 C 41.97 2 47 7.03 47 13.225 L 47 34.775 C 47 40.97 41.97 46 35.775 46 L 27.75 46 L 27.75 46 C 26.784 46 26 45.104 26 44 L 26 44 C 26 42.896 26.784 42 27.75 42 L 27.75 42 L 35.081 42 C 39.728 42 43.5 38.228 43.5 33.581 L 43.5 14.419 C 43.5 9.772 39.728 6 35.081 6 L 29.5 6 L 29.5 32 L 29.5 32 Z  M 33.5 33 C 33.5 31.344 34.844 30 36.5 30 C 38.156 30 39.5 31.344 39.5 33 C 39.5 34.656 38.156 36 36.5 36 C 34.844 36 33.5 34.656 33.5 33 Z " fill-rule="evenodd" fill="url(#_lgradient_12)"/></svg>