<?xml version="1.0" encoding="UTF-8" standalone="no"?><!-- Generator: Gravit.io --><svg xmlns="http://www.w3.org/2000/svg" xmlns:xlink="http://www.w3.org/1999/xlink" style="isolation:isolate" viewBox="0 0 48 48" width="48pt" height="48pt"><linearGradient id="_lgradient_4" x1="0.5714285714285714" y1="0.9115513047861693" x2="0.41931216931216875" y2="0.26851300648065235" gradientTransform="matrix(10.74,0,0,14.126,10.915,12.399)" gradientUnits="userSpaceOnUse"><stop offset="0%" stop-opacity="1" style="stop-color:rgb(247,242,6)"/><stop offset="97.82608695652173%" stop-opacity="1" style="stop-color:rgb(255,187,36)"/></linearGradient><path d=" M 17.917 26.426 C 20.189 26.865 21.438 25.782 21.656 24.316 C 19.051 24.859 17.555 23.653 17.157 20.686 C 16.627 18.367 18.065 15.36 20.697 12.425 C 18.724 12.189 16.554 13.535 15.327 15.686 C 13.12 14.999 11.781 15.322 10.915 16.645 C 12.68 17.488 13.835 19.473 14.368 22.59 C 14.602 24.142 15.791 25.809 17.917 26.426 Z " fill="url(#_lgradient_4)"/><linearGradient id="_lgradient_5" x1="-0.014458464773922156" y1="0.009839246119734024" x2="1.0164565923220248" y2="1.0722930524759795" gradientTransform="matrix(5.531,9.207,-12.109,7.274,27.381,6.813)" gradientUnits="userSpaceOnUse"><stop offset="0%" stop-opacity="1" style="stop-color:rgb(249,212,35)"/><stop offset="51.56237565086822%" stop-opacity="1" style="stop-color:rgb(255,78,80)"/><stop offset="99.1304347826087%" stop-opacity="1" style="stop-color:rgb(138,35,135)"/></linearGradient><path d=" M 18.962 20.039 C 19.756 22.212 21.327 22.726 22.696 22.157 C 20.889 20.204 21.153 18.301 23.491 16.431 C 25.207 14.783 28.525 14.467 32.395 15.212 C 31.582 13.399 29.311 12.232 26.835 12.288 C 26.287 10.042 25.321 9.061 23.741 9 C 23.928 10.947 22.82 12.959 20.422 15.021 C 19.213 16.021 18.396 17.899 18.962 20.039 Z " fill="url(#_lgradient_5)"/><linearGradient id="_lgradient_6" x1="0.42168995777368273" y1="0.24417809331922813" x2="0.9126074328967342" y2="0.9637972240577014" gradientTransform="matrix(-5.053,9.477,-12.465,-6.646,40.447,17.915)" gradientUnits="userSpaceOnUse"><stop offset="0%" stop-opacity="1" style="stop-color:rgb(255,95,109)"/><stop offset="98.26086956521739%" stop-opacity="1" style="stop-color:rgb(255,195,113)"/></linearGradient><path d=" M 24.775 17.494 C 23.319 19.292 23.687 20.904 24.878 21.785 C 25.624 19.232 27.392 18.479 30.198 19.524 C 32.493 20.148 34.47 22.831 35.822 26.534 C 36.959 24.904 36.792 22.356 35.471 20.261 C 37.115 18.637 37.46 17.304 36.7 15.917 C 35.126 17.078 32.831 17.163 29.83 16.166 C 28.35 15.643 26.32 15.908 24.775 17.494 Z " fill="url(#_lgradient_6)"/><linearGradient id="_lgradient_7" x1="0.5714285714285714" y1="0.9115513047861693" x2="0.41931216931216875" y2="0.26851300648065235" gradientTransform="matrix(-10.74,0,0,-14.126,37.085,35.601)" gradientUnits="userSpaceOnUse"><stop offset="0%" stop-opacity="1" style="stop-color:rgb(247,242,6)"/><stop offset="97.82608695652173%" stop-opacity="1" style="stop-color:rgb(255,187,36)"/></linearGradient><path d=" M 30.083 21.574 C 27.811 21.135 26.562 22.218 26.344 23.684 C 28.949 23.141 30.445 24.347 30.843 27.314 C 31.373 29.633 29.935 32.64 27.303 35.575 C 29.276 35.811 31.446 34.465 32.673 32.314 C 34.88 33.001 36.219 32.678 37.085 31.355 C 35.32 30.512 34.165 28.527 33.632 25.41 C 33.398 23.858 32.209 22.191 30.083 21.574 Z " fill="url(#_lgradient_7)"/><linearGradient id="_lgradient_8" x1="-0.014458464773922156" y1="0.009839246119734024" x2="1.0164565923220248" y2="1.0722930524759795" gradientTransform="matrix(-5.531,-9.207,12.109,-7.274,20.619,41.187)" gradientUnits="userSpaceOnUse"><stop offset="0%" stop-opacity="1" style="stop-color:rgb(249,212,35)"/><stop offset="51.56237565086822%" stop-opacity="1" style="stop-color:rgb(255,78,80)"/><stop offset="99.1304347826087%" stop-opacity="1" style="stop-color:rgb(138,35,135)"/></linearGradient><path d=" M 29.038 27.961 C 28.244 25.788 26.673 25.274 25.304 25.843 C 27.111 27.796 26.847 29.699 24.509 31.569 C 22.793 33.217 19.475 33.533 15.605 32.788 C 16.418 34.601 18.689 35.768 21.165 35.712 C 21.713 37.958 22.679 38.939 24.259 39 C 24.072 37.053 25.18 35.041 27.578 32.979 C 28.787 31.979 29.604 30.101 29.038 27.961 Z " fill="url(#_lgradient_8)"/><linearGradient id="_lgradient_9" x1="0.42168995777368273" y1="0.24417809331922813" x2="0.9126074328967342" y2="0.9637972240577014" gradientTransform="matrix(5.053,-9.477,12.465,6.646,7.553,30.085)" gradientUnits="userSpaceOnUse"><stop offset="0%" stop-opacity="1" style="stop-color:rgb(255,95,109)"/><stop offset="98.26086956521739%" stop-opacity="1" style="stop-color:rgb(255,195,113)"/></linearGradient><path d=" M 23.225 30.506 C 24.681 28.708 24.313 27.096 23.122 26.215 C 22.376 28.768 20.608 29.521 17.802 28.476 C 15.507 27.852 13.53 25.169 12.178 21.466 C 11.041 23.096 11.208 25.644 12.529 27.739 C 10.885 29.363 10.54 30.696 11.3 32.083 C 12.874 30.922 15.169 30.837 18.17 31.834 C 19.65 32.357 21.68 32.092 23.225 30.506 Z " fill="url(#_lgradient_9)"/><linearGradient id="_lgradient_10" x1="-0.014458464773922156" y1="0.009839246119734024" x2="1.0164565923220248" y2="1.0722930524759795" gradientTransform="matrix(45.51,0,0,46.9,1.245,0.55)" gradientUnits="userSpaceOnUse"><stop offset="0%" stop-opacity="1" style="stop-color:rgb(249,212,35)"/><stop offset="51.56237565086822%" stop-opacity="1" style="stop-color:rgb(255,78,80)"/><stop offset="99.1304347826087%" stop-opacity="1" style="stop-color:rgb(138,35,135)"/></linearGradient><path d=" M 1.319 13.357 C 1.269 13.528 1.245 13.722 1.245 13.934 L 1.245 36.661 C 1.245 37.899 2.123 39.394 3.205 39.997 L 15.999 47.129 L 15.999 47.129 C 17.058 47.767 18.436 47.425 19.074 46.366 L 19.074 46.366 C 19.711 45.307 19.37 43.924 18.311 43.28 L 18.311 43.28 L 5.733 36.38 L 5.733 15.469 L 23.474 5.229 L 35.961 12.252 L 35.961 12.252 C 36.971 12.977 38.376 12.748 39.097 11.742 L 39.097 11.742 C 39.819 10.736 39.585 9.33 38.575 8.606 L 38.575 8.606 L 25.677 1.025 C 24.61 0.398 22.872 0.391 21.799 1.01 L 2.076 12.397 C 1.967 12.444 1.867 12.505 1.776 12.58 C 1.765 12.583 1.758 12.588 1.755 12.594 C 1.437 12.813 1.284 13.086 1.319 13.357 Z  M 29.689 43.28 L 29.689 43.28 C 28.63 43.924 28.289 45.307 28.926 46.366 L 28.926 46.366 C 29.564 47.425 30.942 47.767 32.001 47.129 L 32.001 47.129 L 44.795 39.997 C 45.877 39.394 46.755 37.899 46.755 36.661 L 46.755 20.895 C 46.755 19.656 45.761 18.778 44.538 18.934 L 44.538 18.934 C 43.284 19.095 42.267 20.255 42.267 21.523 L 42.267 36.38 L 29.689 43.28 Z " fill-rule="evenodd" fill="url(#_lgradient_10)"/></svg>