<?xml version="1.0" encoding="UTF-8" standalone="no"?><!-- Generator: Gravit.io --><svg xmlns="http://www.w3.org/2000/svg" xmlns:xlink="http://www.w3.org/1999/xlink" style="isolation:isolate" viewBox="0 0 48 48" width="48pt" height="48pt"><linearGradient id="_lgradient_2" x1="-0.6638665264124907" y1="1.1578947368421053" x2="1.001170311540284" y2="0.21778875908403628" gradientTransform="matrix(45.001,0,0,27.74,1.5,10.13)" gradientUnits="userSpaceOnUse"><stop offset="0%" stop-opacity="1" style="stop-color:rgb(84,51,255)"/><stop offset="51.73913043478261%" stop-opacity="1" style="stop-color:rgb(32,189,255)"/><stop offset="98.26086956521739%" stop-opacity="1" style="stop-color:rgb(165,254,203)"/></linearGradient><path d=" M 22.978 26.79 L 22.978 26.79 C 23.696 25.951 24.959 25.853 25.798 26.57 L 25.798 26.57 C 26.637 27.287 26.736 28.551 26.018 29.39 L 26.018 29.39 L 21.278 35.58 C 20.098 37.01 18.338 37.85 16.478 37.87 C 14.638 37.85 12.888 37.02 11.698 35.61 L 1.988 24.4 L 1.988 24.4 C 1.265 23.567 1.355 22.303 2.188 21.58 L 2.188 21.58 C 3.022 20.857 4.285 20.947 5.008 21.78 L 5.008 21.78 L 14.738 33 C 14.738 33.01 14.748 33.02 14.758 33.03 C 15.188 33.54 15.818 33.85 16.478 33.87 C 17.148 33.85 17.778 33.54 18.208 33.02 C 18.218 33.01 18.228 33 18.238 32.99 L 22.978 26.79 Z  M 33.048 21.14 L 33.048 21.14 C 32.347 21.99 31.086 22.113 30.233 21.415 L 30.233 21.415 C 29.381 20.717 29.253 19.455 29.948 18.6 L 29.948 18.6 L 34.778 12.48 C 35.368 11.75 36.098 11.16 36.928 10.74 C 37.738 10.34 38.628 10.13 39.528 10.13 C 40.418 10.13 41.298 10.34 42.098 10.73 C 42.928 11.14 43.658 11.72 44.238 12.44 L 46.038 14.59 L 46.038 14.59 C 46.745 15.44 46.628 16.704 45.778 17.41 L 45.778 17.41 C 44.928 18.116 43.665 18 42.958 17.15 L 42.958 17.15 L 41.158 14.99 C 41.158 14.99 41.158 14.98 41.148 14.98 C 40.928 14.7 40.648 14.48 40.328 14.32 C 40.078 14.2 39.798 14.13 39.528 14.13 C 39.248 14.13 38.968 14.2 38.718 14.32 C 38.398 14.48 38.118 14.71 37.888 14.99 C 37.888 15 37.888 15 37.878 15.01 L 33.048 21.14 Z " fill-rule="evenodd" fill="url(#_lgradient_2)"/><linearGradient id="_lgradient_3" x1="0" y1="0.5" x2="0.9074880558539661" y2="0.9200778838291643" gradientTransform="matrix(42.61,0,0,27.35,5.668,10.32)" gradientUnits="userSpaceOnUse"><stop offset="0%" stop-opacity="1" style="stop-color:rgb(78,84,200)"/><stop offset="83.88839793817618%" stop-opacity="1" style="stop-color:rgb(0,114,255)"/></linearGradient><path d=" M 9.908 19.5 L 9.908 19.5 C 9.13 20.284 7.864 20.286 7.083 19.505 L 7.083 19.505 C 6.302 18.724 6.305 17.458 7.088 16.68 L 7.088 16.68 L 11.538 12.22 C 12.678 11.04 14.258 10.35 15.908 10.32 C 16.908 10.32 17.888 10.57 18.758 11.06 C 19.638 11.56 20.398 12.26 20.968 13.11 L 38.348 32.83 C 38.348 32.84 38.358 32.85 38.368 32.86 C 38.548 33.13 38.778 33.36 39.058 33.54 C 39.198 33.62 39.358 33.67 39.518 33.67 C 39.688 33.67 39.848 33.62 39.988 33.54 C 40.268 33.37 40.498 33.14 40.678 32.87 C 40.688 32.86 40.698 32.85 40.698 32.84 L 43.858 27.95 L 43.858 27.95 C 44.482 27.045 45.725 26.819 46.633 27.445 L 46.633 27.445 C 47.541 28.071 47.767 29.319 47.138 30.23 L 47.138 30.23 L 43.998 35.1 C 43.488 35.86 42.828 36.49 42.058 36.96 C 41.288 37.42 40.418 37.67 39.518 37.67 C 38.618 37.67 37.738 37.42 36.968 36.95 C 36.188 36.47 35.528 35.82 35.028 35.06 L 17.648 15.35 C 17.648 15.34 17.638 15.34 17.638 15.33 C 17.428 15.01 17.138 14.74 16.798 14.55 C 16.538 14.4 16.248 14.33 15.948 14.32 C 15.368 14.34 14.808 14.59 14.408 15.01 C 14.398 15.02 14.388 15.03 14.378 15.04 L 9.908 19.5 Z " fill="url(#_lgradient_3)"/><line x1="20" y1="30.23" x2="33.048" y2="14.59"/></svg>