<?xml version="1.0" encoding="UTF-8" standalone="no"?>
<svg
   xmlns:dc="http://purl.org/dc/elements/1.1/"
   xmlns:cc="http://creativecommons.org/ns#"
   xmlns:rdf="http://www.w3.org/1999/02/22-rdf-syntax-ns#"
   xmlns:svg="http://www.w3.org/2000/svg"
   xmlns="http://www.w3.org/2000/svg"
   xmlns:xlink="http://www.w3.org/1999/xlink"
   xmlns:sodipodi="http://sodipodi.sourceforge.net/DTD/sodipodi-0.dtd"
   xmlns:inkscape="http://www.inkscape.org/namespaces/inkscape"
   inkscape:version="1.0 (4035a4f, 2020-05-01)"
   sodipodi:docname="appimagekit_01559b8472d3be9fbda8288ba74803ae_winds.png.svg"
   viewBox="0 0 512 512"
   height="512"
   width="512"
   id="svg1463"
   version="1.1">
  <metadata
     id="metadata1469">
    <rdf:RDF>
      <cc:Work
         rdf:about="">
        <dc:format>image/svg+xml</dc:format>
        <dc:type
           rdf:resource="http://purl.org/dc/dcmitype/StillImage" />
        <dc:title></dc:title>
      </cc:Work>
    </rdf:RDF>
  </metadata>
  <defs
     id="defs1467">
    <linearGradient
       id="linearGradient2110"
       inkscape:collect="always">
      <stop
         id="stop2106"
         offset="0"
         style="stop-color:#006fff;stop-opacity:1" />
      <stop
         id="stop2108"
         offset="1"
         style="stop-color:#006fff;stop-opacity:0.18000001" />
    </linearGradient>
    <linearGradient
       id="linearGradient2102"
       inkscape:collect="always">
      <stop
         id="stop2098"
         offset="0"
         style="stop-color:#006fff;stop-opacity:1" />
      <stop
         id="stop2100"
         offset="1"
         style="stop-color:#006fff;stop-opacity:0.18039216" />
    </linearGradient>
    <linearGradient
       id="linearGradient2086"
       inkscape:collect="always">
      <stop
         id="stop2082"
         offset="0"
         style="stop-color:#006fff;stop-opacity:1" />
      <stop
         id="stop2084"
         offset="1"
         style="stop-color:#006fff;stop-opacity:0.18039216" />
    </linearGradient>
    <linearGradient
       id="linearGradient2078"
       inkscape:collect="always">
      <stop
         id="stop2074"
         offset="0"
         style="stop-color:#006fff;stop-opacity:1" />
      <stop
         id="stop2076"
         offset="1"
         style="stop-color:#006fff;stop-opacity:0.18039216" />
    </linearGradient>
    <inkscape:path-effect
       effect="spiro"
       id="path-effect1683"
       is_visible="true"
       lpeversion="1" />
    <inkscape:path-effect
       lpeversion="1"
       is_visible="true"
       id="path-effect1664"
       effect="spiro" />
    <inkscape:path-effect
       lpeversion="1"
       is_visible="true"
       id="path-effect1660"
       effect="spiro" />
    <linearGradient
       gradientTransform="matrix(1.0877424,0,0,1,-31.043414,0)"
       gradientUnits="userSpaceOnUse"
       y2="194.73921"
       x2="438.71614"
       y1="194.73921"
       x1="97.182513"
       id="linearGradient2080"
       xlink:href="#linearGradient2078"
       inkscape:collect="always" />
    <linearGradient
       gradientTransform="matrix(1.0157434,0,0,1,-1.2471107,-3.4979581)"
       gradientUnits="userSpaceOnUse"
       y2="153.05632"
       x2="440.07734"
       y1="153.05632"
       x1="240.18444"
       id="linearGradient2088"
       xlink:href="#linearGradient2086"
       inkscape:collect="always" />
    <linearGradient
       gradientTransform="matrix(1.149643,0,0,1,-58.415233,13.870406)"
       gradientUnits="userSpaceOnUse"
       y2="345.83816"
       x2="439.20844"
       y1="345.83816"
       x1="197.02876"
       id="linearGradient2104"
       xlink:href="#linearGradient2102"
       inkscape:collect="always" />
    <linearGradient
       gradientTransform="matrix(1.0912316,0,0,1.0912316,-25.920823,-32.609461)"
       gradientUnits="userSpaceOnUse"
       y2="254.56445"
       x2="480.28973"
       y1="254.56445"
       x1="36.400761"
       id="linearGradient2114"
       xlink:href="#linearGradient2110"
       inkscape:collect="always" />
  </defs>
  <sodipodi:namedview
     inkscape:current-layer="g1471"
     inkscape:window-maximized="1"
     inkscape:window-y="120"
     inkscape:window-x="0"
     inkscape:cy="258.76167"
     inkscape:cx="171.4094"
     inkscape:zoom="1.1435242"
     showgrid="true"
     id="namedview1465"
     inkscape:window-height="1017"
     inkscape:window-width="1920"
     inkscape:pageshadow="2"
     inkscape:pageopacity="0"
     guidetolerance="10"
     gridtolerance="10"
     objecttolerance="10"
     borderopacity="1"
     bordercolor="#666666"
     pagecolor="#ffffff">
    <inkscape:grid
       id="grid2120"
       type="xygrid" />
  </sodipodi:namedview>
  <g
     id="g1471"
     inkscape:label="Image"
     inkscape:groupmode="layer">
    <path
       inkscape:original-d="m 267.12432,353.45074 c 7.29283,12.78733 14.5845,25.77965 21.87503,38.67097 7.29052,12.89133 -43.08062,17.64386 -64.62266,26.46729 -21.54201,8.82343 -33.17266,-39.15038 -49.76073,-58.72407 -16.58805,-19.57369 30.68046,-38.03668 46.01896,-57.05352 15.3385,-19.01684 38.36663,-2.10274 57.54824,-3.15261 19.18159,-1.04986 52.1351,2.73863 78.20093,4.10944 26.06581,1.37081 55.74508,-2.97583 83.61591,-4.46224"
       inkscape:path-effect="#path-effect1660"
       id="path1658"
       d="m 267.12432,353.45074 c 7.75669,2.47405 14.50912,7.9611 18.51773,15.04758 4.00862,7.08648 5.23284,15.70067 3.3573,23.62339 -1.50406,6.3535 -4.93561,12.19645 -9.54542,16.82016 -4.60982,4.62372 -10.36975,8.04365 -16.54431,10.1659 -12.34911,4.24451 -26.0344,3.26318 -38.53293,-0.51877 -13.15003,-3.97909 -25.49186,-11.1098 -34.66548,-21.33727 -9.17362,-10.22747 -15.00944,-23.6482 -15.09525,-37.3868 -0.0817,-13.08784 5.06357,-25.99773 13.49999,-36.00398 8.43643,-10.00625 20.02241,-17.15926 32.51897,-21.04954 18.45624,-5.74558 38.26597,-4.50843 57.54824,-3.15261 26.04255,1.83117 52.09621,3.7761 78.20093,4.10944 27.92968,0.35665 55.88282,-1.1351 83.61591,-4.46224"
       style="fill:none;stroke:url(#linearGradient2104);stroke-width:38.5997;stroke-linecap:round;stroke-linejoin:miter;stroke-miterlimit:4;stroke-dasharray:none;stroke-opacity:1" />
    <path
       inkscape:original-d="m 170.64795,214.53361 c 9.78247,-17.64 20.22504,-35.88883 30.33592,-53.83476 10.11089,-17.94592 -71.44457,0.001 -107.168391,0 -35.723964,-0.001 0.451956,49.86547 0.676356,74.79672 0.224402,24.93125 67.094025,14.38149 100.639435,21.57073 33.54539,7.18924 42.41543,-5.65882 63.62151,-8.48973 21.20609,-2.83091 120.83256,-0.4904 181.24722,-0.7371"
       inkscape:path-effect="#path-effect1664"
       id="path1662"
       d="m 170.64795,214.53361 c 10.9784,-3.14175 20.6096,-10.74373 26.2155,-20.69208 5.60591,-9.94836 7.11969,-22.1245 4.12042,-33.14268 -2.9774,-10.93783 -10.28933,-20.54337 -19.77417,-26.75134 -9.48483,-6.20796 -21.03162,-9.05843 -32.35304,-8.48708 -11.32142,0.57135 -22.38628,4.49218 -31.83788,10.75062 -9.45161,6.25844 -17.30733,14.80593 -23.203301,24.4878 -6.901737,11.33345 -11.178658,24.39193 -11.371587,37.66008 -0.192928,13.26815 3.838968,26.71101 12.047943,37.13664 5.569485,7.0734 12.928635,12.64747 21.019905,16.59508 8.09127,3.9476 16.90536,6.3018 25.83206,7.47067 17.8534,2.33772 35.95455,-0.006 53.78747,-2.49502 21.19055,-2.95779 42.35669,-6.12426 63.62151,-8.48973 60.16,-6.69212 121.03478,-6.93969 181.24722,-0.7371"
       style="fill:none;stroke:url(#linearGradient2080);stroke-width:36.9657;stroke-linecap:round;stroke-linejoin:miter;stroke-miterlimit:4;stroke-dasharray:none;stroke-opacity:1" />
    <path
       style="fill:none;stroke:url(#linearGradient2088);stroke-width:36.2823;stroke-linecap:round;stroke-linejoin:miter;stroke-miterlimit:4;stroke-dasharray:none;stroke-opacity:1"
       d="m 315.23884,154.57281 c 5.80587,-2.2859 10.7332,-6.72975 13.60445,-12.26955 2.87126,-5.5398 3.66168,-12.12779 2.18237,-18.18957 -1.13019,-4.63119 -3.54539,-8.92092 -6.80171,-12.40253 -3.25632,-3.48161 -7.33859,-6.16093 -11.77025,-7.91751 -8.86333,-3.51316 -18.9345,-3.27173 -28.06504,-0.52688 -10.01605,3.01105 -19.15455,9.02358 -25.64809,17.22247 -6.49353,8.19888 -10.26902,18.5726 -10.26329,29.03145 0.005,9.93812 3.41994,19.81051 9.38457,27.75969 5.96463,7.94918 14.42454,13.95812 23.82645,17.17842 13.21701,4.52702 27.60179,3.55477 41.53143,2.48315 18.79084,-1.4456 37.59168,-2.9753 56.43623,-3.23679 20.16427,-0.27981 40.3486,0.89581 60.34404,3.51467"
       id="path1658-3"
       inkscape:path-effect="#path-effect1683"
       inkscape:original-d="m 315.23884,154.57281 c 5.26304,-10.07192 10.52534,-20.3053 15.78682,-30.45912 5.26139,-10.15384 -31.09053,-13.89716 -46.637,-20.84692 -15.54647,-6.949761 -23.94014,30.83673 -35.91138,46.25392 -11.97131,15.41719 22.14149,29.95953 33.21102,44.93811 11.06946,14.97859 27.68846,1.65622 41.53143,2.48315 13.84306,0.82692 37.62499,-2.15708 56.43623,-3.23679 18.81117,-1.07972 40.23017,2.3439 60.34404,3.51467" />
    <path
       sodipodi:open="true"
       sodipodi:arc-type="arc"
       sodipodi:end="5.8855181"
       sodipodi:start="0.26565299"
       sodipodi:ry="224.005"
       sodipodi:rx="240.21693"
       sodipodi:cy="245.18987"
       sodipodi:cx="260.20956"
       sodipodi:type="arc"
       id="path1685"
       style="fill:none;fill-opacity:1;stroke:url(#linearGradient2114);stroke-width:36;stroke-linecap:round;stroke-linejoin:round;stroke-miterlimit:4;stroke-dasharray:none;stroke-opacity:1;paint-order:normal"
       d="M 491.99999,304.00001 A 240.21693,224.005 0 0 1 236.27021,468.07973 240.21693,224.005 0 0 1 20.515745,259.96505 240.21693,224.005 0 0 1 205.0159,27.177908 240.21693,224.005 0 0 1 481.68163,158.43975" />
  </g>
</svg>
