<?xml version="1.0" encoding="UTF-8" standalone="no"?><!-- Generator: Gravit.io --><svg xmlns="http://www.w3.org/2000/svg" xmlns:xlink="http://www.w3.org/1999/xlink" style="isolation:isolate" viewBox="0 0 48 48" width="48pt" height="48pt"><linearGradient id="_lgradient_127" x1="-0.000038208333333289435" y1="0.5000000833333331" x2="0.9999618333333335" y2="0.5000000833333331" gradientTransform="matrix(46,0,0,46,1,1)" gradientUnits="userSpaceOnUse"><stop offset="0%" stop-opacity="1" style="stop-color:rgb(0,198,255)"/><stop offset="98.69565217391305%" stop-opacity="1" style="stop-color:rgb(0,114,255)"/></linearGradient><path d=" M 39.27 29.27 L 39.27 29.27 C 40.374 29.27 41.27 30.166 41.27 31.27 L 41.27 31.27 C 41.27 32.374 40.374 33.27 39.27 33.27 L 39.27 33.27 L 29.91 33.27 C 29.37 33.27 28.86 33.06 28.48 32.67 C 27.65 31.82 26.94 30.85 26.37 29.8 C 25.76 28.68 25.28 27.48 24.94 26.25 C 24.55 24.88 24.28 23.47 24.12 22.05 C 23.93 20.45 23.85 18.84 23.85 17.23 C 23.06 18 22.37 18.89 21.83 19.85 C 21.25 20.88 20.82 21.98 20.55 23.12 C 20.25 24.42 20.11 25.76 20.11 27.09 C 20.12 28.39 20.23 29.68 20.43 30.96 C 20.52 31.54 20.36 32.13 19.98 32.57 C 19.6 33.02 19.04 33.27 18.45 33.27 L 6 33.27 C 3.24 33.27 1 31.03 1 28.27 L 1 6 C 1 3.24 3.24 1 6 1 L 42 1 C 44.76 1 47 3.24 47 6 L 47 42 C 47 44.76 44.76 47 42 47 L 6 47 C 3.24 47 1 44.76 1 42 L 1 41.18 L 1 41.18 C 1 39.524 1.896 38.18 3 38.18 L 3 38.18 C 4.104 38.18 5 39.524 5 41.18 L 5 41.18 L 5 41.18 C 5 42.184 6.344 43 8 43 L 40 43 C 41.656 43 43 41.656 43 40 L 43 8 C 43 6.344 41.656 5 40 5 L 8 5 C 6.344 5 5 6.344 5 8 L 5 27.27 C 5 28.374 5.896 29.27 7 29.27 L 16.2 29.27 C 16.15 28.55 16.12 27.83 16.11 27.11 C 16.1 25.46 16.29 23.82 16.66 22.21 C 17.01 20.7 17.58 19.24 18.34 17.89 C 19.1 16.55 20.05 15.33 21.17 14.26 C 23.21 12.32 25.65 10.87 27.378 10.316 C 27.903 10.147 28.272 10.454 28.201 11.002 C 28.02 12.4 27.86 14.81 27.85 17.22 C 27.85 18.68 27.93 20.15 28.09 21.6 C 28.23 22.81 28.46 24 28.79 25.17 C 29.06 26.12 29.43 27.04 29.89 27.91 C 30.15 28.39 30.46 28.85 30.8 29.27 L 39.27 29.27 Z " fill="url(#_lgradient_127)"/></svg>