<?xml version="1.0" encoding="UTF-8" standalone="no"?><!-- Generator: Gravit.io --><svg xmlns="http://www.w3.org/2000/svg" xmlns:xlink="http://www.w3.org/1999/xlink" style="isolation:isolate" viewBox="0 0 48 48" width="48pt" height="48pt"><linearGradient id="_lgradient_15" x1="0.2789473684210526" y1="0.28157894736842104" x2="0.7494973512639425" y2="0.8023209283812192" gradientTransform="matrix(47.5,0,0,47.5,0.25,0.25)" gradientUnits="userSpaceOnUse"><stop offset="0%" stop-opacity="1" style="stop-color:rgb(78,84,200)"/><stop offset="83.88839793817618%" stop-opacity="1" style="stop-color:rgb(0,114,255)"/></linearGradient><path d=" M 28.095 28.095 L 28.095 28.095 L 28.095 44.474 L 44.474 44.474 L 44.474 28.095 L 28.095 28.095 Z  M 28.095 24.819 L 28.095 10.624 L 44.474 10.624 L 44.474 24.819 L 28.095 24.819 Z  M 47.75 24.819 L 47.75 10.624 C 47.75 8.816 46.282 7.348 44.474 7.348 L 28.095 7.348 C 26.287 7.348 24.819 8.816 24.819 10.624 L 24.819 24.819 L 7.348 24.819 L 7.348 24.819 L 7.348 24.819 L 7.348 24.819 C 5.54 24.819 4.072 26.287 4.072 28.095 L 4.072 44.474 C 4.072 46.282 5.54 47.75 7.348 47.75 L 44.474 47.75 C 46.282 47.75 47.75 46.282 47.75 44.474 L 47.75 28.095 L 47.75 24.819 Z  M 24.819 28.095 L 7.348 28.095 L 7.348 28.095 L 7.348 28.095 L 7.348 44.474 L 24.819 44.474 L 24.819 28.095 L 24.819 28.095 Z  M 3.526 3.526 L 19.905 3.526 L 19.905 19.905 L 3.526 19.905 L 3.526 3.526 L 3.526 3.526 L 3.526 3.526 L 3.526 3.526 Z  M 3.526 0.25 L 19.905 0.25 C 21.713 0.25 23.181 1.718 23.181 3.526 L 23.181 19.905 C 23.181 21.713 21.713 23.181 19.905 23.181 L 3.526 23.181 C 1.718 23.181 0.25 21.713 0.25 19.905 L 0.25 3.526 C 0.25 1.718 1.718 0.25 3.526 0.25 L 3.526 0.25 L 3.526 0.25 L 3.526 0.25 Z " fill-rule="evenodd" fill="url(#_lgradient_15)"/></svg>