<?xml version="1.0" encoding="UTF-8" standalone="no"?><!-- Generator: Gravit.io --><svg xmlns="http://www.w3.org/2000/svg" xmlns:xlink="http://www.w3.org/1999/xlink" style="isolation:isolate" viewBox="0 0 48 48" width="48pt" height="48pt"><linearGradient id="_lgradient_91" x1="0" y1="0.5" x2="1" y2="0.5" gradientTransform="matrix(42,0,0,42,3,3)" gradientUnits="userSpaceOnUse"><stop offset="0%" stop-opacity="1" style="stop-color:rgb(238,205,163)"/><stop offset="98.26086956521739%" stop-opacity="1" style="stop-color:rgb(239,98,159)"/></linearGradient><path d=" M 34.5 3.067 C 34.342 3.022 34.174 3 34 3 L 34 3 L 8 3 C 5.24 3 3 5.24 3 8 L 3 27 L 3 27 C 3 28.104 3.896 29 5 29 L 5 29 C 6.104 29 7 28.104 7 27 L 7 27 L 7 27 L 7 27 L 7 10 C 7 8.344 8.344 7 10 7 L 34 7 L 34 7 C 34.174 7 34.342 6.978 34.5 6.933 C 34.658 6.978 34.826 7 35 7 L 35 7 L 38 7 C 39.656 7 41 8.344 41 10 L 41 13 L 41 13 C 41 14.104 41.896 15 43 15 L 43 15 C 44.104 15 45 14.104 45 13 L 45 13 L 45 8 C 45 5.24 42.76 3 40 3 L 35 3 L 35 3 C 34.826 3 34.658 3.022 34.5 3.067 L 34.5 3.067 Z  M 13 41 L 13 41 C 14.104 41 15 41.896 15 43 L 15 43 C 15 44.104 14.104 45 13 45 L 13 45 L 8 45 C 5.24 45 3 42.76 3 40 L 3 35 L 3 35 C 3 33.896 3.896 33 5 33 L 5 33 C 6.104 33 7 33.896 7 35 L 7 35 L 7 38 C 7 39.656 8.344 41 10 41 L 13 41 L 13 41 L 13 41 L 13 41 Z  M 41 22 L 41 22 C 41 20.896 41.896 20 43 20 L 43 20 C 44.104 20 45 20.896 45 22 L 45 22 L 45 40 C 45 42.76 42.76 45 40 45 L 22 45 L 22 45 C 20.896 45 20 44.104 20 43 L 20 43 C 20 41.896 20.896 41 22 41 L 22 41 L 38 41 C 39.656 41 41 39.656 41 38 L 41 22 L 41 22 L 41 22 Z  M 20.555 30.004 L 20.555 30.004 C 20.555 29.054 21.327 28.282 22.278 28.282 L 22.278 28.282 C 23.228 28.282 24 29.054 24 30.004 L 24 30.004 L 24 36.032 C 24 36.471 23.836 36.884 23.535 37.203 C 23.242 37.521 22.829 37.72 22.398 37.754 C 21.778 37.797 21.15 37.806 20.53 37.797 C 20.013 37.78 19.505 37.745 18.988 37.668 C 18.411 37.59 17.843 37.461 17.283 37.28 C 16.801 37.134 16.336 36.927 15.897 36.678 C 15.415 36.402 14.976 36.066 14.588 35.679 C 14.201 35.3 13.882 34.861 13.624 34.387 C 13.348 33.888 13.142 33.345 13.021 32.794 C 12.875 32.157 12.806 31.511 12.806 30.865 C 12.806 30.22 12.875 29.565 13.021 28.937 C 13.15 28.377 13.348 27.835 13.624 27.326 C 13.891 26.853 14.218 26.422 14.597 26.035 C 14.993 25.647 15.432 25.312 15.923 25.036 C 16.345 24.795 16.793 24.597 17.258 24.451 C 17.8 24.278 18.351 24.158 18.902 24.072 C 19.427 23.994 19.953 23.951 20.478 23.943 C 21.098 23.925 21.718 23.934 22.338 23.977 L 28.288 23.977 C 28.469 23.977 28.641 23.951 28.813 23.917 C 28.985 23.882 29.157 23.839 29.321 23.77 C 29.528 23.693 29.726 23.589 29.915 23.469 C 30.079 23.366 30.234 23.254 30.38 23.125 C 30.527 22.995 30.656 22.858 30.768 22.703 C 30.897 22.539 31.009 22.367 31.103 22.186 C 31.31 21.798 31.465 21.385 31.551 20.955 C 31.689 20.257 31.758 19.543 31.749 18.828 C 31.741 18.148 31.655 17.467 31.5 16.813 C 31.388 16.357 31.215 15.935 30.983 15.53 C 30.785 15.186 30.535 14.876 30.242 14.609 C 29.924 14.307 29.562 14.058 29.175 13.86 C 29.037 13.791 28.891 13.739 28.736 13.713 C 28.589 13.67 28.443 13.644 28.288 13.644 L 24 13.644 L 24 20.533 L 24 20.533 C 24 21.483 23.228 22.255 22.278 22.255 L 22.278 22.255 C 21.327 22.255 20.555 21.483 20.555 20.533 L 20.555 20.533 L 20.555 11.922 C 20.555 10.972 21.327 10.2 22.278 10.2 L 28.305 10.2 C 28.314 10.2 28.322 10.2 28.339 10.2 C 28.744 10.209 29.149 10.26 29.536 10.364 C 29.941 10.45 30.329 10.587 30.699 10.768 C 31.388 11.113 32.025 11.552 32.584 12.077 C 33.127 12.585 33.592 13.162 33.962 13.799 C 34.367 14.488 34.66 15.229 34.849 16.004 C 35.064 16.916 35.185 17.855 35.193 18.793 C 35.202 19.749 35.116 20.696 34.927 21.635 C 34.772 22.393 34.513 23.125 34.143 23.805 C 33.954 24.158 33.738 24.502 33.489 24.821 C 33.248 25.131 32.981 25.415 32.688 25.682 C 32.386 25.949 32.068 26.19 31.723 26.397 C 31.37 26.62 30.992 26.81 30.604 26.973 C 30.242 27.111 29.864 27.223 29.476 27.292 C 29.106 27.37 28.718 27.413 28.331 27.421 C 28.322 27.421 28.314 27.421 28.305 27.421 L 22.278 27.421 C 22.235 27.421 22.2 27.421 22.157 27.421 C 21.623 27.378 21.098 27.37 20.564 27.378 C 20.177 27.395 19.789 27.421 19.41 27.481 C 19.031 27.533 18.661 27.619 18.308 27.731 C 18.067 27.809 17.835 27.912 17.611 28.041 C 17.395 28.162 17.206 28.308 17.025 28.48 C 16.879 28.627 16.75 28.799 16.646 28.988 C 16.526 29.204 16.44 29.445 16.379 29.686 C 16.293 30.073 16.25 30.469 16.25 30.865 C 16.25 31.262 16.293 31.649 16.379 32.037 C 16.431 32.286 16.526 32.519 16.646 32.743 C 16.741 32.923 16.87 33.096 17.025 33.242 C 17.197 33.414 17.387 33.569 17.602 33.69 C 17.826 33.819 18.067 33.922 18.317 34 C 18.696 34.12 19.074 34.206 19.471 34.258 C 19.832 34.31 20.194 34.336 20.555 34.353 L 20.555 30.004 Z " fill-rule="evenodd" fill="url(#_lgradient_91)"/></svg>