<?xml version="1.0" encoding="UTF-8" standalone="no"?><!-- Generator: Gravit.io --><svg xmlns="http://www.w3.org/2000/svg" xmlns:xlink="http://www.w3.org/1999/xlink" style="isolation:isolate" viewBox="0 0 48 48" width="48pt" height="48pt"><linearGradient id="_lgradient_5" x1="0.54298682191" y1="-0.2655597284837264" x2="0.5197544986776772" y2="0.9833570139497876" gradientTransform="matrix(45,0,0,45,1.5,1.5)" gradientUnits="userSpaceOnUse"><stop offset="3.0434782608695654%" stop-opacity="1" style="stop-color:rgb(166,124,243)"/><stop offset="98.69565217391305%" stop-opacity="1" style="stop-color:rgb(88,78,123)"/></linearGradient><path d=" M 43.36 21.814 L 43.36 21.814 C 43.36 20.948 44.064 20.244 44.93 20.244 L 44.93 20.244 C 45.797 20.244 46.5 20.948 46.5 21.814 L 46.5 21.814 L 46.5 43.36 C 46.5 45.093 45.093 46.5 43.36 46.5 L 4.64 46.5 C 2.907 46.5 1.5 45.093 1.5 43.36 L 1.5 33.419 L 1.5 33.419 C 1.5 32.552 2.203 31.849 3.07 31.849 L 3.07 31.849 C 3.936 31.849 4.64 32.552 4.64 33.419 L 4.64 33.419 L 4.64 42.314 C 4.64 42.892 5.108 43.36 5.686 43.36 L 42.314 43.36 C 42.892 43.36 43.36 42.892 43.36 42.314 L 43.36 21.814 L 43.36 21.814 Z  M 4.64 24 L 4.64 24 C 4.64 24.866 3.936 25.57 3.07 25.57 L 3.07 25.57 C 2.203 25.57 1.5 24.866 1.5 24 L 1.5 24 L 1.5 4.64 C 1.5 2.907 2.907 1.5 4.64 1.5 L 43.36 1.5 C 45.093 1.5 46.5 2.907 46.5 4.64 L 46.5 12.395 L 46.5 12.395 C 46.5 13.262 45.093 13.965 43.36 13.965 L 43.36 13.965 L 43.36 13.965 L 43.36 12.395 L 43.36 5.686 C 43.36 5.108 42.892 4.64 42.314 4.64 L 5.686 4.64 C 5.108 4.64 4.64 5.108 4.64 5.686 L 4.64 24 L 4.64 24 Z  M 10.395 13.965 L 10.395 13.965 C 9.529 13.965 8.826 13.262 8.826 12.395 L 8.826 12.395 C 8.826 11.529 9.529 10.826 10.395 10.826 L 10.395 10.826 L 41.791 10.826 L 43.36 10.826 L 43.36 13.965 L 43.36 13.965 L 41.791 13.965 L 10.395 13.965 Z " fill-rule="evenodd" fill="url(#_lgradient_5)"/><linearGradient id="_lgradient_6" x1="-0.014458464773922156" y1="0.009839246119734024" x2="1.0164565923220248" y2="1.0722930524759795" gradientTransform="matrix(18,0,0,22,15,18)" gradientUnits="userSpaceOnUse"><stop offset="0%" stop-opacity="1" style="stop-color:rgb(249,212,35)"/><stop offset="51.56237565086822%" stop-opacity="1" style="stop-color:rgb(255,78,80)"/><stop offset="99.1304347826087%" stop-opacity="1" style="stop-color:rgb(138,35,135)"/></linearGradient><path d=" M 26.031 26.305 C 26.104 26.387 26.299 26.57 26.614 26.853 C 31.036 31.238 33.162 33.194 32.991 33.72 C 32.868 34.107 32.513 34.434 31.928 34.703 C 31.343 34.957 30.816 35.072 30.347 35.048 C 29.976 35.029 28.212 33.681 25.058 30.003 C 24.422 29.232 24.048 28.797 23.937 28.697 C 23.474 29.177 22.783 30.163 21.864 31.657 C 20.68 34.04 19.123 36.239 18.231 38.756 C 17.959 39.638 17.265 40.051 16.152 39.995 C 15.565 39.965 15.205 39.775 15.071 39.422 C 14.937 39.07 14.992 38.523 15.236 37.781 C 15.704 36.296 17.955 32.694 21.989 26.973 C 21.966 26.721 21.388 25.804 20.255 24.223 C 19.122 22.642 18.222 21.445 17.556 20.83 C 16.835 20.165 16.534 19.655 16.655 19.3 C 16.927 18.418 17.787 18.013 19.233 18.086 C 19.936 18.122 21.19 19.604 22.994 22.334 C 23.764 23.457 24.269 24.142 24.508 24.39 C 24.924 24.018 25.517 23.333 26.287 22.335 C 27.058 21.321 27.591 20.499 27.887 19.87 C 28.179 19.288 28.64 18.824 29.27 18.479 C 29.9 18.133 30.498 17.975 31.065 18.003 C 31.944 18.047 32.263 18.433 32.02 19.159 C 31.747 20.041 30.162 21.98 27.264 24.976 C 26.508 25.755 26.097 26.198 26.031 26.305" fill="url(#_lgradient_6)"/></svg>