<?xml version="1.0" encoding="UTF-8" standalone="no"?><!-- Generator: Gravit.io --><svg xmlns="http://www.w3.org/2000/svg" xmlns:xlink="http://www.w3.org/1999/xlink" style="isolation:isolate" viewBox="0 0 48 48" width="48pt" height="48pt"><linearGradient id="_lgradient_23" x1="-0.014458464773922156" y1="0.009839246119734024" x2="1.0164565923220248" y2="1.0722930524759795" gradientTransform="matrix(21.933,0,0,37.6,25.567,9.9)" gradientUnits="userSpaceOnUse"><stop offset="0%" stop-opacity="1" style="stop-color:rgb(249,212,35)"/><stop offset="51.56237565086822%" stop-opacity="1" style="stop-color:rgb(255,78,80)"/><stop offset="99.1304347826087%" stop-opacity="1" style="stop-color:rgb(138,35,135)"/></linearGradient><path d=" M 28.7 9.9 C 39.083 9.9 47.5 18.317 47.5 28.7 C 47.5 39.083 39.083 47.5 28.7 47.5 L 25.567 47.5 L 25.567 47.215 L 25.567 42.43 L 25.567 14.967 L 25.567 10.166 L 25.567 9.9 L 28.7 9.9 Z  M 30.267 14.704 L 30.267 42.705 C 37.4 41.908 42.796 35.878 42.8 28.7 C 42.792 21.525 37.397 15.501 30.267 14.704 Z " fill="url(#_lgradient_23)"/><linearGradient id="_lgradient_24" x1="0" y1="0.5" x2="0.9074880558539661" y2="0.9200778838291643" gradientTransform="matrix(21.933,0,0,37.6,0.5,0.5)" gradientUnits="userSpaceOnUse"><stop offset="0%" stop-opacity="1" style="stop-color:rgb(0,196,255)"/><stop offset="83.88839793817618%" stop-opacity="1" style="stop-color:rgb(0,114,255)"/></linearGradient><path d=" M 19.3 0.5 C 8.917 0.5 0.5 8.917 0.5 19.3 C 0.5 29.683 8.917 38.1 19.3 38.1 L 22.433 38.1 L 22.433 37.815 L 22.433 33.03 L 22.433 5.567 L 22.433 0.766 L 22.433 0.5 L 19.3 0.5 Z  M 17.733 5.304 L 17.733 33.305 C 10.6 32.508 5.204 26.478 5.2 19.3 C 5.208 12.125 10.603 6.101 17.733 5.304 Z " fill="url(#_lgradient_24)"/></svg>