<svg width="16" height="16" version="1.1" xmlns="http://www.w3.org/2000/svg">
 <path d="m2.3574 0.35742a8 8 0 0 0-2.3574 5.6426 8 8 0 0 0 2.7344 6.0195l0.66992-0.76758a7 7 0 0 1-2.4043-5.252 7 7 0 0 1 2.0508-4.9492l-0.69336-0.69336zm11.285 0-0.69336 0.69336a7 7 0 0 1 2.0508 4.9492 7 7 0 0 1-2.4043 5.252l0.66992 0.76758a8 8 0 0 0 2.7344-6.0195 8 8 0 0 0-2.3574-5.6426zm-9.166 2.1191a5 5 0 0 0-1.4766 3.5234 5 5 0 0 0 1.7129 3.7578l0.66406-0.75977a4 4 0 0 1-1.377-2.998 4 4 0 0 1 1.1719-2.8281l-0.69531-0.69531zm7.0469 0-0.69531 0.69531a4 4 0 0 1 1.1719 2.8281 4 4 0 0 1-1.377 2.998l0.66406 0.75977a5 5 0 0 0 1.7129-3.7578 5 5 0 0 0-1.4766-3.5234zm-3.5234 2.5234a1 1 0 0 0-1 1 1 1 0 0 0 1 1 1 1 0 0 0 1-1 1 1 0 0 0-1-1zm0 4c-0.277 0-0.5 0.223-0.5 0.5v6c0 0.277 0.223 0.5 0.5 0.5s0.5-0.223 0.5-0.5v-6c0-0.277-0.223-0.5-0.5-0.5z" fill="#dedede"/>
</svg>
