<svg xmlns="http://www.w3.org/2000/svg" width="22" height="22"><path d="M3.124 3.001c-.04 0-.07 0-.09.023-.64.604 8.088 8.187 8.088 8.187l3.27 2.945c-1.054 2.328 2.251 2.366 2.964 3.547.314.517-.068 1.22-.637 1.257 1.132.353 2.656-1.704 2.197-2.865-.546-1.386-1.101-1.987-2.14-2.408-.43-.175-1.522-.189-1.903.015l-3.03-3.171S4.363 3.102 3.124 3m1.379 7.362c-.29 0-.379.397-.379.94.055 1.072.772 4.202 4.333 6.482 2.999 1.92 8.486 1.226 8.397.136-1.207-1.418-3.225-.534-3.252-3.93-1.173.013-2.437-.165-2.39.303.197 1.959-3.084.547-4.356-1.45-1.277-1.832-1.981-2.481-2.353-2.48m4.676 2.416c-.195 0-.351.06-.426.182-.148.242.092.637.538.88.445.244.926.244 1.074.002.148-.243-.093-.638-.538-.88-.223-.121-.648.001-.648-.183" fill="#a64d4d"/></svg>