<svg version="1.1" viewBox="0 0 22 22" xmlns="http://www.w3.org/2000/svg">
    <path d="m3.0000001 3.0000001v4h-1v11c0 0.554 0.446 1 1 1h17v-11c0-0.554-0.446-1-1-1h-5v-4zm1 1h8.9999999v3h-2.507812c-0.470484-0.6273203-1.2080451-0.9975468-1.9921881-1-0.786206 6.144e-4 -1.526323 0.3710349-1.9980467 1h-2.5019531zm-1 4h16v2.9999999h-7c-1.108 0-2.0000001 0.892-2.0000001 2s0.8920001 2 2.0000001 2h7v3h-16zm9.9999999 3.9999999c0.552285 0 1 0.447715 1 1s-0.447715 1-1 1-1-0.447715-1-1 0.447715-1 1-1z" fill="#209ae7"/>
</svg>
