<svg xmlns="http://www.w3.org/2000/svg" width="22" height="22"><path d="M11 3C6.582 3 3 4.194 3 5.667v10.666C3 17.806 6.582 19 11 19s8-1.194 8-2.667V5.667C19 4.194 15.418 3 11 3m-.023.984c3.682 0 6.69.946 6.69 1.683C17.667 6.403 14.682 7 11 7s-6.667-.597-6.667-1.333c0-.737 2.962-1.66 6.644-1.66M4.054 6.996c1.478.746 4.238 1.243 6.923 1.244 2.683 0 5.559-.38 7.04-1.125v3.861c0 .736-3.358 1.566-7.04 1.566s-6.923-.946-6.923-1.682zm0 5.38c1.478.746 4.262 1.29 6.946 1.29 2.683 0 5.56-.449 7.04-1.195v3.862c0 .736-3.405 1.636-7.087 1.636s-6.9-.993-6.9-1.73z" fill="#ec2411"/></svg>