<svg width="22" xmlns="http://www.w3.org/2000/svg" height="22"><path d="M7 3a4 4 0 0 0-4 4v1l.314.494.797 1.254.002.002L10 19v-8h5a4 4 0 0 0 0-8H7zm8 1a3 3 0 0 1 .576.059 3 3 0 0 1 .02.002c.018.003.034.01.052.013a3 3 0 0 1 .52.162 3 3 0 0 1 .478.258c.014.009.028.016.041.026a3 3 0 0 1 .006.003 3 3 0 0 1 .41.34l.026.024a3 3 0 0 1 .322.39l.053.075a3 3 0 0 1 .242.449l.024.053a3 3 0 0 1 .154.492l.02.082A3 3 0 0 1 18 7a3 3 0 0 1-.059.576 3 3 0 0 1-.002.02c-.003.018-.01.034-.013.052a3 3 0 0 1-.162.52 3 3 0 0 1-.258.478c-.009.014-.016.028-.026.041a3 3 0 0 1-.003.006 3 3 0 0 1-.34.41l-.024.026a3 3 0 0 1-.39.322l-.075.053a3 3 0 0 1-.449.242l-.053.024a3 3 0 0 1-.492.154l-.082.02A3 3 0 0 1 15 10a3 3 0 0 1-3-3 3 3 0 0 1 3-3z" fill="#3a539b" stroke-width="6"/></svg>