<svg width="100" height="100" viewBox="0 0 100 100" fill="none" xmlns="http://www.w3.org/2000/svg">
<g clip-path="url(#clip0)">
<path d="M65.0471 9.31178C70.2488 9.31178 75.0789 12.1005 77.6798 16.6155L92.7275 42.6963C95.3284 47.2113 95.3284 52.7887 92.7275 57.3037L77.6798 83.3845C75.0789 87.8995 70.2488 90.6882 65.0471 90.6882H34.9515C29.7498 90.6882 24.9197 87.8995 22.3188 83.3845L7.27104 57.3037C4.67019 52.7887 4.67019 47.2113 7.27104 42.6963L22.3188 16.6155C24.9197 12.1005 29.7498 9.31178 34.9515 9.31178H65.0471ZM65.0471 4H34.9515C27.839 4 21.2572 7.79792 17.701 13.9596L2.6532 40.0404C-0.903062 46.2021 -0.903062 53.7979 2.6532 59.9596L17.701 86.0404C21.2572 92.2021 27.839 96 34.9515 96H65.0471C72.1596 96 78.7413 92.2021 82.2976 86.0404L97.3454 59.9596C100.902 53.7979 100.902 46.2021 97.3454 40.0404L82.2711 13.9596C78.7413 7.79792 72.1596 4 65.0471 4Z" fill="#000000"/>
<path d="M43.0733 72.0439C42.4098 72.0439 41.7198 71.8845 41.0828 71.5127L28.0786 63.9965C25.2389 62.3499 23.4607 59.2956 23.4607 56.0023V43.9977C23.4607 40.7044 25.2389 37.6501 28.0786 36.0035L41.0828 28.4873C42.9936 27.3984 45.4087 28.0358 46.5234 29.948C47.6115 31.8603 46.9745 34.2771 45.0637 35.3926L32.0595 42.9088C31.6614 43.1212 31.4225 43.5462 31.4225 43.9977V56.0023C31.4225 56.4538 31.6614 56.8788 32.0595 57.0912L45.0637 64.6074C46.9745 65.6963 47.6115 68.1397 46.5234 70.052C45.8068 71.3268 44.4533 72.0439 43.0733 72.0439Z" fill="#000000"/>
<path d="M56.9002 72.0439C55.5202 72.0439 54.1932 71.3268 53.4501 70.052C52.362 68.1397 52.9989 65.7229 54.9098 64.6074L67.914 57.0912C68.3121 56.8788 68.5509 56.4538 68.5509 56.0023V43.9977C68.5509 43.5462 68.3121 43.1212 67.914 42.9088L54.9098 35.3926C52.9989 34.3037 52.362 31.8603 53.4501 29.948C54.5382 28.0358 56.9798 27.3984 58.8907 28.4873L71.8949 36.0035C74.7346 37.6501 76.5127 40.7044 76.5127 43.9977V56.0023C76.5127 59.2956 74.7346 62.3499 71.8949 63.9965L58.8907 71.5127C58.2803 71.8845 57.5902 72.0439 56.9002 72.0439Z" fill="#000000"/>
</g>
<defs>
<clipPath id="clip0">
<rect width="100" height="92" fill="#000000" transform="translate(0 4)"/>
</clipPath>
</defs>
</svg>