<svg width="100" height="100" viewBox="0 0 100 100" fill="none" xmlns="http://www.w3.org/2000/svg">
<g clip-path="url(#clip0)">
<path d="M65.0478 9.30786C70.2495 9.30786 75.0796 12.0945 77.6804 16.6062L92.7282 42.6677C95.3291 47.1794 95.3291 52.7527 92.7282 57.2643L77.6804 83.3259C75.0796 87.8376 70.2495 90.6242 65.0478 90.6242H34.9522C29.7505 90.6242 24.9204 87.8376 22.3195 83.3259L7.27175 57.2643C4.67091 52.7527 4.67091 47.1794 7.27175 42.6677L22.3195 16.6062C24.9204 12.0945 29.7505 9.30786 34.9522 9.30786H65.0478ZM65.0478 4H34.9522C27.8397 4 21.258 7.79512 17.7017 13.9522L2.65392 40.0138C-0.902341 46.1709 -0.902341 53.7611 2.65392 59.9183L17.7017 85.9798C21.258 92.1369 27.8397 95.9321 34.9522 95.9321H65.0478C72.1603 95.9321 78.742 92.1369 82.2983 85.9798L97.346 59.9183C100.902 53.7611 100.902 46.1709 97.346 40.0138L82.2717 13.9522C78.742 7.79512 72.1603 4 65.0478 4Z" fill="#000000"/>
<path d="M68.5775 43.2781C68.0998 43.2781 67.5956 43.1985 67.1178 42.9862L50 36.2187L32.8822 42.9862C30.8386 43.7824 28.5297 42.8004 27.707 40.7569C26.9108 38.7134 27.8928 36.4045 29.9363 35.5817L48.5138 28.2304C49.4427 27.8588 50.5043 27.8588 51.4331 28.2304L70.0106 35.5817C72.0541 36.3779 73.0626 38.7134 72.2399 40.7569C71.6561 42.3227 70.1699 43.2781 68.5775 43.2781Z" fill="#000000"/>
<path d="M57.3248 71.9671H42.7017C39.4108 71.9671 36.7569 69.2866 36.7569 66.0223V51.3991C36.7569 48.1083 39.4374 45.4543 42.7017 45.4543H57.3248C60.6157 45.4543 63.2696 48.1348 63.2696 51.3991V66.0223C63.2696 69.3132 60.5892 71.9671 57.3248 71.9671ZM44.6921 64.0053H55.3078V53.3896H44.6921V64.0053Z" fill="#000000"/>
</g>
<defs>
<clipPath id="clip0">
<rect width="100" height="91.9321" fill="#000000" transform="translate(0 4)"/>
</clipPath>
</defs>
</svg>