<svg width="100" height="100" viewBox="0 0 100 100" fill="none" xmlns="http://www.w3.org/2000/svg">
<g clip-path="url(#clip0)">
<path d="M65.0476 9.31178C70.2493 9.31178 75.0795 12.1005 77.6803 16.6155L92.7281 42.6963C95.329 47.2113 95.329 52.7887 92.7281 57.3037L77.6803 83.3845C75.0795 87.8995 70.2493 90.6882 65.0476 90.6882H34.9521C29.7504 90.6882 24.9203 87.8995 22.3194 83.3845L7.27163 57.3037C4.67078 52.7887 4.67078 47.2113 7.27163 42.6963L22.3194 16.6155C24.9203 12.1005 29.7504 9.31178 34.9521 9.31178H65.0476ZM65.0476 4H34.9521C27.8396 4 21.2578 7.79792 17.7016 13.9596L2.6538 40.0404C-0.902467 46.2021 -0.902467 53.7979 2.6538 59.9596L17.7016 86.0404C21.2578 92.2021 27.8396 96 34.9521 96H65.0476C72.1602 96 78.7419 92.2021 82.2982 86.0404L97.3459 59.9596C100.902 53.7979 100.902 46.2021 97.3459 40.0404L82.2716 13.9596C78.7419 7.79792 72.1602 4 65.0476 4Z" fill="#000000"/>
<path d="M50 72.0704C37.9246 72.0704 28.1051 62.2436 28.1051 50.1593C28.1051 38.0751 37.9246 28.2483 50 28.2483C62.0754 28.2483 71.8949 38.0751 71.8949 50.1593C71.8949 62.2436 62.0754 72.0704 50 72.0704ZM50 36.2159C42.3036 36.2159 36.0669 42.4838 36.0669 50.1593C36.0669 57.8349 42.3302 64.1028 50 64.1028C57.6699 64.1028 63.9331 57.8349 63.9331 50.1593C63.9331 42.4838 57.6699 36.2159 50 36.2159Z" fill="#000000"/>
<path d="M50 35.8441C47.7972 35.8441 46.0191 34.0647 46.0191 31.8603V28.4873C46.0191 26.2829 47.7972 24.5035 50 24.5035C52.2028 24.5035 53.9809 26.2829 53.9809 28.4873V31.8603C53.9809 34.0647 52.2028 35.8441 50 35.8441Z" fill="#000000"/>
<path d="M58.9968 38.5531C58.2537 38.5531 57.5106 38.3407 56.8206 37.9157C54.9894 36.7206 54.4586 34.2506 55.6529 32.418L57.6699 29.3106C58.8641 27.4781 61.3323 26.9469 63.1635 28.142C64.9947 29.3372 65.5255 31.8072 64.3312 33.6397L62.3142 36.7471C61.5711 37.9157 60.2973 38.5531 58.9968 38.5531Z" fill="#000000"/>
<path d="M65.7378 45.5116C64.3843 45.5116 63.0839 44.821 62.3408 43.5993C61.1996 41.7136 61.81 39.2702 63.6943 38.1282L67.0382 36.1097C68.9225 34.9677 71.3641 35.5785 72.5053 37.4642C73.6465 39.3499 73.0361 41.7933 71.1518 42.9353L67.8079 44.9538C67.1444 45.3256 66.4278 45.5116 65.7378 45.5116Z" fill="#000000"/>
<path d="M32.0064 54.515H27.9724C25.7696 54.515 23.9915 52.7356 23.9915 50.5312C23.9915 48.3268 25.7696 46.5473 27.9724 46.5473H32.0064C34.2091 46.5473 35.9873 48.3268 35.9873 50.5312C35.9873 52.7356 34.2091 54.515 32.0064 54.515Z" fill="#000000"/>
<path d="M69.0817 65.537C68.3917 65.537 67.7017 65.3511 67.0648 64.9792L63.2696 62.7217C61.3854 61.6062 60.7484 59.1628 61.8631 57.2506C62.9777 55.3649 65.4193 54.7275 67.3302 55.843L71.1253 58.1005C73.0096 59.2159 73.6465 61.6594 72.5319 63.5716C71.7622 64.8464 70.4353 65.537 69.0817 65.537Z" fill="#000000"/>
<path d="M34.2622 45.5116C33.5722 45.5116 32.8556 45.3257 32.1921 44.9273L28.8482 42.9088C26.9639 41.7668 26.3535 39.3233 27.4947 37.4377C28.6359 35.552 31.0775 34.9411 32.9618 36.0832L36.3057 38.1016C38.19 39.2437 38.8004 41.6871 37.6592 43.5728C36.9161 44.8476 35.6157 45.5116 34.2622 45.5116Z" fill="#000000"/>
<path d="M40.7909 38.7656C39.3843 38.7656 38.0043 37.9954 37.2877 36.6675L35.483 33.321C34.448 31.3822 35.1646 28.9654 37.1019 27.9296C39.0393 26.8938 41.4544 27.6109 42.4894 29.5497L44.2941 32.8961C45.3291 34.8349 44.6125 37.2517 42.6752 38.2875C42.0648 38.6063 41.4278 38.7656 40.7909 38.7656Z" fill="#000000"/>
<path d="M72.0276 54.515H67.9936C65.7909 54.515 64.0127 52.7356 64.0127 50.5312C64.0127 48.3268 65.7909 46.5473 67.9936 46.5473H72.0276C74.2303 46.5473 76.0085 48.3268 76.0085 50.5312C76.0085 52.7356 74.2303 54.515 72.0276 54.515Z" fill="#000000"/>
<path d="M61.0138 73.6109C59.6603 73.6109 58.3333 72.9203 57.5902 71.6455L55.3344 67.8476C54.2198 65.9619 54.8302 63.5185 56.741 62.3765C58.6253 61.261 61.0669 61.8718 62.2081 63.7841L64.4639 67.582C65.5786 69.4677 64.9682 71.9111 63.0573 73.0531C62.3938 73.425 61.7038 73.6109 61.0138 73.6109Z" fill="#000000"/>
<path d="M50 76.5589C47.7972 76.5589 46.0191 74.7795 46.0191 72.5751V68.0866C46.0191 65.8822 47.7972 64.1028 50 64.1028C52.2028 64.1028 53.9809 65.8822 53.9809 68.0866V72.5751C53.9809 74.7795 52.2028 76.5589 50 76.5589Z" fill="#000000"/>
<path d="M30.9183 65.537C29.5648 65.537 28.2643 64.8464 27.5212 63.6247C26.3801 61.739 26.9905 59.2956 28.8747 58.1536L32.2187 56.1351C34.103 54.9931 36.5446 55.6039 37.6858 57.4896C38.827 59.3753 38.2166 61.8187 36.3323 62.9607L32.9883 64.9792C32.3514 65.351 31.6348 65.537 30.9183 65.537Z" fill="#000000"/>
<path d="M38.9862 73.6108C38.2962 73.6108 37.6062 73.4249 36.9692 73.0531C35.0849 71.9376 34.448 69.4942 35.5626 67.582L37.8185 63.7841C38.9331 61.8984 41.3747 61.261 43.2856 62.3764C45.1699 63.4919 45.8068 65.9353 44.6921 67.8476L42.4363 71.6455C41.6667 72.9203 40.3397 73.6108 38.9862 73.6108Z" fill="#000000"/>
</g>
<defs>
<clipPath id="clip0">
<rect width="100" height="92" fill="#000000" transform="translate(0 4)"/>
</clipPath>
</defs>
</svg>