<svg width="100" height="100" viewBox="0 0 100 100" fill="none" xmlns="http://www.w3.org/2000/svg">
<g clip-path="url(#clip0)">
<path d="M65.0479 9.31178C70.2496 9.31178 75.0797 12.1005 77.6806 16.6155L92.7283 42.6963C95.3292 47.2113 95.3292 52.7887 92.7283 57.3037L77.6806 83.3845C75.0797 87.8995 70.2496 90.6882 65.0479 90.6882H34.9523C29.7506 90.6882 24.9205 87.8995 22.3196 83.3845L7.27184 57.3037C4.67099 52.7887 4.67099 47.2113 7.27184 42.6963L22.3196 16.6155C24.9205 12.1005 29.7506 9.31178 34.9523 9.31178H65.0479ZM65.0479 4H34.9523C27.8398 4 21.258 7.79792 17.7018 13.9596L2.65401 40.0404C-0.902257 46.2021 -0.902257 53.7979 2.65401 59.9596L17.7018 86.0404C21.258 92.2021 27.8398 96 34.9523 96H65.0479C72.1604 96 78.7421 92.2021 82.2984 86.0404L97.3462 59.9596C100.902 53.7979 100.902 46.2021 97.3462 40.0404L82.2719 13.9596C78.7421 7.79792 72.1604 4 65.0479 4Z" fill="#d7e2ff"/>
<path d="M69.3737 62.5889H35.828C33.6253 62.5889 31.8471 60.8095 31.8471 58.6051V36.8799L26.1412 31.7009C24.5223 30.2136 24.3896 27.7171 25.8758 26.0704C27.362 24.4503 29.8567 24.3175 31.5021 25.8048L38.5085 32.1524C39.3312 32.8961 39.8089 33.985 39.8089 35.1005V54.6212H65.3928V43.1478L49.2038 40.97C47.0276 40.6778 45.4883 38.6593 45.7803 36.4815C46.0722 34.3037 48.0626 32.7633 50.2654 33.0554L69.9045 35.6847C71.8684 35.9503 73.3546 37.6501 73.3546 39.642V58.5785C73.3546 60.8095 71.5764 62.5889 69.3737 62.5889Z" fill="#d7e2ff"/>
<path d="M65.1274 75.2309C67.326 75.2309 69.1083 73.4473 69.1083 71.2471C69.1083 69.0469 67.326 67.2633 65.1274 67.2633C62.9288 67.2633 61.1465 69.0469 61.1465 71.2471C61.1465 73.4473 62.9288 75.2309 65.1274 75.2309Z" fill="#d7e2ff"/>
<path d="M39.1189 75.2309C41.3175 75.2309 43.0998 73.4473 43.0998 71.2471C43.0998 69.0469 41.3175 67.2633 39.1189 67.2633C36.9203 67.2633 35.138 69.0469 35.138 71.2471C35.138 73.4473 36.9203 75.2309 39.1189 75.2309Z" fill="#d7e2ff"/>
</g>
<defs>
<clipPath id="clip0">
<rect width="100" height="92" fill="#d7e2ff" transform="translate(0 4)"/>
</clipPath>
</defs>
</svg>