<?xml version="1.0" encoding="UTF-8" standalone="no"?>
<svg
   width="20mm"
   height="20mm"
   inkscape:version="1.3.2 (091e20ef0f, 2023-11-25, custom)"
   sodipodi:docname="EndeavourOS Logo.svg"
   version="1.1"
   viewBox="0 0 48.231007 48.231007"
   id="svg8"
   xmlns:inkscape="http://www.inkscape.org/namespaces/inkscape"
   xmlns:sodipodi="http://sodipodi.sourceforge.net/DTD/sodipodi-0.dtd"
   xmlns="http://www.w3.org/2000/svg"
   xmlns:svg="http://www.w3.org/2000/svg"
   xmlns:rdf="http://www.w3.org/1999/02/22-rdf-syntax-ns#"
   xmlns:cc="http://creativecommons.org/ns#"
   xmlns:dc="http://purl.org/dc/elements/1.1/">
  <defs
     id="defs8" />
  <sodipodi:namedview
     id="cvfa"
     bordercolor="#666666"
     borderopacity="1.0"
     inkscape:current-layer="g3"
     inkscape:cx="52.728754"
     inkscape:cy="60.739468"
     inkscape:document-rotation="0"
     inkscape:document-units="mm"
     inkscape:pageopacity="0.0"
     inkscape:pageshadow="2"
     inkscape:window-height="1028"
     inkscape:window-maximized="1"
     inkscape:window-width="1316"
     inkscape:window-x="0"
     inkscape:window-y="0"
     inkscape:zoom="4.930896"
     pagecolor="#ffffff"
     showgrid="false"
     inkscape:showpageshadow="2"
     inkscape:pagecheckerboard="0"
     inkscape:deskcolor="#d1d1d1" />
  <title
     id="title1">EndeavourOS Logo</title>
  <metadata
     id="metadata1">
    <rdf:RDF>
      <cc:Work
         rdf:about="">
        <dc:format>image/svg+xml</dc:format>
        <dc:type
           rdf:resource="http://purl.org/dc/dcmitype/StillImage" />
        <dc:title>EndeavourOS Logo</dc:title>
      </cc:Work>
    </rdf:RDF>
  </metadata>
  <g
     transform="translate(-66.790568,-123.01834)"
     inkscape:groupmode="layer"
     inkscape:label="Layer 1"
     id="g8">
    <g
       transform="translate(76.2,-12.7)"
       id="g7">
      <g
         transform="matrix(1.47,0,0,1.47,-519,105)"
         id="g6">
        <g
           transform="matrix(0.963,0,0,0.983,13.5,0.76)"
           id="g5">
          <g
             transform="matrix(0.678,0,0,0.678,452,49.2)"
             id="g3">
            <g
               id="g9"
               transform="translate(6.8384014e-4,3.6851185)">
              <path
                 d="m -127,-42.3 c 4.57,6.45 23.8,31.4 10.7,36.6 -6.12,2.81 -34,-1.65 -33.6,-0.921 -2,3.28 -3.59,5.92 -3.59,5.92 0,0 21.5,0.967 38.1,-1.27 23.7,-3.18 -4.88,-33.5 -11.6,-40.3 z"
                 style="fill:#333333;fill-opacity:0.7;stroke-width:0.585"
                 inkscape:connector-curvature="0"
                 id="path1" />
              <path
                 d="m -127,-42.3 c -1.52,0.209 -29.4,34.5 -29.4,34.5 0,0 2.01,0.57 6.58,1.23 1.48,-1.15 22.3,-36.2 22.9,-35.7 -0.0107,-0.0141 -0.028,-0.0193 -0.0522,-0.016 z"
                 style="fill:#333333;fill-opacity:0.7;stroke-width:0.585"
                 inkscape:connector-curvature="0"
                 id="path2" />
              <path
                 d="m -127,-42.3 c -0.96,-0.156 -22.9,35.7 -22.9,35.7 0,0 19.9,2.1 28.1,1.96 23.1,-0.39 0.176,-30.6 -5.16,-37.7 -0.007,-0.007 -0.0151,-0.0108 -0.0248,-0.0124 z"
                 style="fill:#1a1a1a;stroke-width:0.585"
                 inkscape:connector-curvature="0"
                 id="path3" />
            </g>
          </g>
        </g>
      </g>
    </g>
  </g>
</svg>
