<?xml version="1.0" encoding="UTF-8" standalone="no"?>
<!-- Created with Grafika (https://www.grafika.cc/) -->

<svg
   width="256"
   height="256"
   viewBox="0 0 345013.48 345013.48"
   preserveAspectRatio="xMidYMid"
   version="1.1"
   id="svg19"
   sodipodi:docname="nyarch-symbolic.svg"
   inkscape:version="1.4.2 (ebf0e940d0, 2025-05-08)"
   xmlns:inkscape="http://www.inkscape.org/namespaces/inkscape"
   xmlns:sodipodi="http://sodipodi.sourceforge.net/DTD/sodipodi-0.dtd"
   xmlns="http://www.w3.org/2000/svg"
   xmlns:svg="http://www.w3.org/2000/svg">
  <defs
     id="defs19" />
  <sodipodi:namedview
     id="namedview19"
     pagecolor="#ffffff"
     bordercolor="#000000"
     borderopacity="0.25"
     inkscape:showpageshadow="2"
     inkscape:pageopacity="0.0"
     inkscape:pagecheckerboard="0"
     inkscape:deskcolor="#d1d1d1"
     inkscape:zoom="1.25"
     inkscape:cx="123.6"
     inkscape:cy="91.2"
     inkscape:window-width="1293"
     inkscape:window-height="844"
     inkscape:window-x="0"
     inkscape:window-y="0"
     inkscape:window-maximized="1"
     inkscape:current-layer="svg19" />
  <g
     transform="translate(233406,422537.04)"
     id="g19"
     style="fill:#000000">
    <g
       transform="matrix(317.85535,0.04850808,-0.04850808,317.85535,-64224.875,-253376.97)"
       id="g18"
       style="fill:#000000">
      <path
         transform="translate(-11,-465)"
         d="m 0,0 c 3.51,1.75 4.31,6.04 5.75,9.54 0.38,0.88 0.75,1.77 1.13,2.69 1.24,2.94 2.46,5.89 3.68,8.83 0.86,2.05 1.72,4.11 2.58,6.16 1.76,4.21 3.53,8.42 5.29,12.64 3.74,8.94 7.53,17.85 11.32,26.77 0.7,1.63 1.39,3.27 2.09,4.91 5.65,13.3 11.34,26.58 17.04,39.86 0.56,1.3 1.12,2.61 1.68,3.91 1.39,3.25 2.78,6.48 4.2,9.72 0.28,0.64 0.56,1.29 0.85,1.95 0.77,1.78 1.54,3.55 2.32,5.32 1.07,2.7 1.46,3.02 2.41,4.71 0.4,-1.6 1.32,-10.13 2.08,-9.65 1.24,1.61 3.58,5.64 5.58,9.64 0.38,-0.66 0.75,-1.33 1.14,-2.01 2.87,-4.97 5.55,-9.19 9.86,-12.99 -0.24,9.24 -2.86,18.72 -7,27 1.32,-0.66 9.99,-3.96 12.88,-4.77 -1.57,2.66 -4.29,6.43 -7.05,8.15 -3.63,3.52 -4.25,3.72 -8.83,5.62 10.36,23.08 20.76,46.14 31.31,69.14 1.96,4.26 3.91,8.53 5.85,12.81 4.14,9.1 8.28,18.19 12.85,27.09 1.93,3.76 3.72,7.56 5.42,11.43 0.64,1.42 0.64,1.42 1.29,2.87 0.83,1.85 1.64,3.7 2.43,5.57 2.79,6.18 5.69,9.24 11.85,12.09 1.01,0.5 2.02,1 3.06,1.52 4.09,0.67 6.56,-0.85 10,-2.83 1.41,-0.76 2.83,-1.51 4.25,-2.26 1.13,-0.6 1.13,-0.6 2.28,-1.21 14.66,-7.44 30.4,-13.75 46.41,-17.47 0.69,-0.16 1.37,-0.33 2.08,-0.5 11.67,-2.53 23.83,-2.4 35.72,-2.53 1.37,-0.02 2.73,-0.04 4.1,-0.06 5.01,-0.07 10.02,-0.13 15.02,-0.19 4.27,-0.05 8.53,-0.1 12.79,-0.16 1.97,-0.03 3.94,-0.05 5.91,-0.07 6.85,-0.09 13.58,-0.4 20.38,-1.24 0.33,-2.31 3.32,-11.18 3.66,-13.56 0.69,1.65 1.14,3.09 2.03,5.79 0.72,1.62 0.63,2.09 1.31,2.77 0.39,-0.64 0.77,-1.28 1.17,-1.93 0.78,-1.24 0.78,-1.24 1.58,-2.51 0.77,-1.23 0.77,-1.23 1.55,-2.49 1.88,-2.29 2.87,-3.52 5.9,-6.09 0.99,3.26 1.96,9.26 1.8,14.02 0.5,-0.25 1,-0.5 1.51,-0.75 2.26,-1.11 4.53,-2.21 6.8,-3.31 0.79,-0.39 1.57,-0.78 2.38,-1.18 0.76,-0.37 1.52,-0.73 2.3,-1.11 2.09,-1.02 7.62,-2.71 10.07,-1.9 -2.4,7.42 -5.86,12.9 -11.06,18.25 -2.49,2.13 -5.03,4.13 -7.67,6.08 -5.53,4.56 -7.72,9.76 -10.2,16.3 -0.53,1.33 -0.53,1.33 -1.06,2.69 -1.31,3.35 -2.6,6.71 -3.89,10.07 -3.03,7.86 -6.36,15.4 -10.22,22.88 -2.27,4.44 -4.16,8.93 -5.9,13.61 -3.6,9.33 -8.98,17.44 -15.06,25.37 2.97,0 5.94,0 9,0 -0.7,0.8 -1.4,1.61 -2.12,2.44 -5.77,6.25 -5.77,6.25 -8.88,13.56 0.94,-0.13 0.94,-0.13 1.9,-0.25 0.82,-0.11 1.63,-0.21 2.48,-0.31 1.62,-0.21 5.15,-1.42 9.2,-1.75 -1.78,2.88 -7.09,7.45 -8.58,7.94 -5.53,2.67 -8.39,5.56 -12.28,9.66 -4.8,4.79 -10.24,8.73 -15.72,12.71 -0.56,0.41 -1.11,0.81 -1.69,1.23 -9.57,6.95 -18.97,12.34 -30.31,15.77 -0.99,0.33 -1.98,0.66 -3,1 -3.8,8.31 -3.77,17.41 -1,26 2.84,7.23 6.42,14.12 10,21 0.62,1.2 0.62,1.2 1.25,2.43 2.43,4.7 4.91,9.37 7.41,14.04 2.47,4.66 4.9,9.35 7.34,14.03 8.07,15.48 16.22,30.93 24.47,46.31 5.57,10.37 11.07,20.77 16.53,31.19 10.23,20.42 53.93,104.06 56.59,103.8 24.59,-2.37 24.67,-3.22 25.83,-3.33 -5.2,19.17 1.36,22.58 -37.42,41.53 0.89,0.7 1.79,1.4 2.71,2.13 8.37,6.56 16.72,13.15 24.97,19.87 0.66,0.53 1.32,1.07 2,1.63 1.39,1.13 2.77,2.26 4.15,3.41 3.2,2.63 6.37,5.15 9.85,7.4 11.14,7.38 15.95,17.71 21.77,29.46 2.35,4.69 4.89,9.26 7.43,13.85 3.35,6.13 6.67,12.27 9.96,18.43 0.33,0.62 0.66,1.23 1,1.87 1.61,3.02 3.22,6.04 4.82,9.06 3.48,6.52 7.09,12.93 10.84,19.29 1.7,2.95 3.23,5.96 4.69,9.04 0.91,1.81 1.82,3.62 2.74,5.43 0.77,1.54 1.53,3.09 2.27,4.64 6.51,13.41 12.27,21.03 25.82,27.4 3.39,1.87 6.17,4.45 8.98,7.09 -3.18,1.59 -6.28,0.29 -9.62,-0.44 -1.06,-0.22 -1.06,-0.22 -2.15,-0.44 -1.74,-0.37 -3.49,-0.74 -5.23,-1.12 1.65,3.3 3.3,6.6 5,10 -1.98,-0.66 -3.96,-1.32 -6,-2 0,2.64 0,5.28 0,8 -3.94,-2.81 -5.77,-5.22 -7.94,-9.5 -5.71,-8.88 -15.08,-12.52 -24.28,-17.1 -3.97,-2 -7.84,-4.16 -11.72,-6.34 -1.07,-0.59 -1.07,-0.59 -2.15,-1.2 -4.21,-2.34 -8.4,-4.7 -12.58,-7.09 -13.31,-7.59 -13.31,-7.59 -26.93,-14.61 -6.53,-3.19 -12.96,-6.55 -19.4,-9.91 -25.16,-13.1 -25.16,-13.1 -50.88,-25.05 -4.57,-2 -9.02,-4.16 -13.46,-6.43 -8.16,-4.14 -16.55,-7.68 -24.98,-11.23 -2.61,-1.1 -5.22,-2.21 -7.83,-3.31 -14.03,-5.95 -28.02,-11.79 -42.54,-16.48 -7,-2.29 -13.97,-4.59 -20.87,-7.16 -14.02,-5.22 -28.09,-9.64 -42.5,-13.59 -0.87,-0.24 -1.73,-0.48 -2.62,-0.72 C 140.55,776.97 92.58,563.85 72.2,552.86 63.93,529.44 -30,538.71 -57.61,546.39 c -2.54,0.7 -103.78,237.25 -106.32,237.94 -23.44,6.39 -46.52,14.65 -69.07,23.67 -1.03,0.41 -2.07,0.83 -3.14,1.25 -32.63,13.09 -64.34,28.2 -95.86,43.75 -0.63,0.31 -1.26,0.62 -1.9,0.94 -20.61,10.17 -40.94,20.76 -61.01,31.95 -6.01,3.34 -12.03,6.62 -18.14,9.75 -2.2,1.14 -20.58,-24.86 -15.4,-33.25 2.65,-4.37 5.04,-8.89 7.45,-13.39 0.57,-1.06 1.13,-2.11 1.72,-3.2 1.52,-2.86 3.05,-5.71 4.57,-8.57 5.03,-9.41 10.07,-18.81 15.3,-28.11 3.55,-6.33 6.98,-12.72 10.41,-19.12 -0.99,0.02 -1.97,0.03 -2.99,0.05 -3.73,0.05 -7.46,0.09 -11.19,0.11 -1.61,0.02 -3.21,0.04 -4.81,0.07 -10.47,0.16 -19.85,-0.44 -30.01,-3.23 -0.75,-0.2 -1.5,-0.41 -2.27,-0.62 -7.53,-2.23 -13.93,-5.07 -19.73,-10.38 -0.63,-0.53 -1.25,-1.07 -1.89,-1.62 -6.02,-5.48 -9.2,-11.65 -9.64,-19.83 -0.02,-1.94 -0.01,-3.87 0.03,-5.8 0.01,-1.01 0.03,-2.03 0.04,-3.07 0.48,-17.82 8.28,-30.05 20.46,-42.68 1.3,-1.36 1.3,-1.36 2.63,-2.75 6.11,-6.26 12.49,-11.87 19.37,-17.25 1.24,-1 2.49,-1.99 3.73,-2.99 23.81,-18.87 50.53,-31.96 78.52,-43.4 16.63,-6.79 32.79,-14.41 48.62,-22.9 0.9,-0.49 1.81,-0.97 2.75,-1.47 0.8,-0.43 1.6,-0.87 2.42,-1.31 C -291,610 -291,610 -289,610 c 0.27,-0.87 0.54,-1.75 0.82,-2.65 1.12,-3.19 2.45,-5.97 4.06,-8.94 0.87,-1.62 0.87,-1.62 1.77,-3.27 0.63,-1.17 1.27,-2.34 1.91,-3.51 1.01,-1.87 2.02,-3.73 3.02,-5.59 0.71,-1.31 1.42,-2.62 2.12,-3.92 2.62,-4.85 5.22,-9.72 7.79,-14.59 0.37,-0.7 0.75,-1.4 1.13,-2.13 1.46,-2.75 2.91,-5.51 4.37,-8.26 3.97,-7.54 8.04,-15 12.3,-22.38 2.34,-4.07 4.49,-8.16 6.52,-12.38 3.05,-6.24 6.32,-12.32 9.69,-18.38 3.61,-6.5 7.12,-13.02 10.36,-19.72 1.93,-3.97 4,-7.82 6.19,-11.65 5.38,-9.51 9.85,-18.29 11.45,-29.19 0.13,-0.86 0.26,-1.73 0.4,-2.61 0.45,-4.28 0.36,-6.33 -1.66,-10.24 -2.8,-3.24 -5.32,-5.79 -9.24,-7.59 -5.03,-0.09 -8.51,1.65 -12.82,3.95 -5.17,2.49 -12.8,2.7 -18.53,2.7 0.45,-0.8 1.58,-1.17 2.57,-1.73 0.88,-0.39 0.67,-0.3 1.57,-0.7 6.53,-3.16 9.34,-6.6 12.21,-13.22 -1.73,-0.31 -1.73,-0.31 -3.5,-0.62 -8.68,-2.22 -14.97,-8.88 -19.5,-16.38 -1.76,-4.3 -3,-8.34 -3,-13 3.81,0.67 7.34,1.75 11,3 -0.55,-1.07 -1.11,-2.15 -1.68,-3.25 -0.73,-1.44 -1.46,-2.88 -2.2,-4.31 -0.54,-1.06 -0.54,-1.06 -1.1,-2.14 -5.96,-11.76 -8.07,-22.54 -5.27,-35.51 0.43,0.13 2.93,1.08 3.25,1.21 1.32,0.66 2.64,1.32 4,2 -0.67,-3.23 -1.84,-6.18 -3.07,-9.23 -3.51,-8.82 -5.45,-17.42 -6.93,-26.77 -1.84,-11.3 -4.64,-21.83 -8.25,-32.68 -0.72,-2.22 -1.37,-4.45 -2,-6.69 -2.97,-10.45 -7.45,-18.52 -14.25,-27 -2.5,-3.25 -2.5,-3.25 -2.5,-6.5 1,-2.13 1,-2.13 3,-4.13 8.65,0.23 16.39,3.49 24.12,7.06 1.03,0.46 2.06,0.92 3.11,1.4 6.66,2.98 6.66,2.98 9.77,4.54 -0.5,-0.89 -0.99,-1.77 -1.5,-2.69 -2.08,-6.15 -1.76,-8.46 -1.09,-10.34 2.64,1.98 6.87,4.99 9.59,7.03 0.99,-2.97 0.99,-2.97 2,-6 5.19,2.37 7.58,6.01 10,11 0.88,2.67 1.46,5.23 2,8 0.73,-0.05 1.46,-0.09 2.22,-0.14 32.2,-1.07 72.45,9.6 97.44,30.25 2.1,1.7 4.24,3.24 6.46,4.77 1.9,1.4 11.95,10.6 20.2,20.23 1.64,1.84 3.35,3.56 5.12,5.27 2.97,3.04 8.01,6.76 14.37,10.68 7.96,4.84 16.02,9.46 24.19,13.94 0.72,0.39 1.43,0.79 2.17,1.19 9.66,5.27 19.47,10.14 29.45,14.75 1.5,0.69 1.5,0.69 3.02,1.39 5.7,2.6 11.38,4.8 17.36,6.67 -0.44,-0.34 -0.88,-0.67 -1.34,-1.02 -26.54,-20.22 -26.54,-20.22 -37.98,-30 -3.29,-2.81 -6.62,-5.54 -9.99,-8.23 -6.87,-5.59 -13.22,-11.72 -19.64,-17.82 -2.6,-2.45 -5.23,-4.88 -7.86,-7.31 -9.68,-8.98 -19.38,-18.04 -27.92,-28.13 -1.35,-1.62 -1.35,-1.62 -3.27,-3.49 0.34,-4.34 1.62,-7.79 3.48,-11.69 0.52,-1.09 1.04,-2.19 1.57,-3.31 0.56,-1.18 1.12,-2.35 1.7,-3.56 1.2,-2.55 2.4,-5.11 3.6,-7.66 0.31,-0.65 0.62,-1.31 0.93,-1.98 19.27,-40.98 36.6,-82.89 53.72,-124.8 0.31,-0.77 0.63,-1.54 0.95,-2.33 3.5,-8.56 6.98,-17.13 10.44,-25.7 1.71,-4.23 3.43,-8.45 5.14,-12.68 0.62,-1.51 1.23,-3.03 1.85,-4.55 0.93,-2.3 1.86,-4.6 2.8,-6.9 3.44,-8.5 6.89,-17 10.32,-25.51 1.57,-3.91 3.15,-7.82 4.72,-11.72 0.77,-1.9 1.53,-3.8 2.3,-5.7 1.06,-2.64 2.12,-5.28 3.19,-7.93 C -3.81,7.79 -3.81,7.79 -3.32,6.57 -1.11,1.11 -1.11,1.11 0,0 Z m -318,659 c -5.89,2.49 -11.77,5 -17.65,7.51 -1.98,0.85 -3.98,1.7 -5.97,2.54 -10.79,4.57 -21.42,9.31 -31.81,14.74 -1.26,0.66 -1.26,0.66 -2.55,1.33 -8.12,4.33 -15.65,9.38 -23.02,14.88 -0.6,0.45 -1.21,0.9 -1.83,1.36 -8.91,6.67 -17.14,13.95 -25.17,21.64 -0.88,0.83 -1.76,1.66 -2.67,2.51 -7.68,7.15 -7.68,7.15 -10.56,16.81 -0.02,3.24 0.06,6.45 0.23,9.68 17.39,10.29 38.97,8.19 57.94,4.5 1.21,-0.22 2.43,-0.44 3.68,-0.66 6.04,-1.19 4.12,2.07 9.17,-1.2 1.33,-2.06 4.23,-7.39 5.21,-9.64 0.95,-1.75 1.91,-3.49 2.87,-5.22 1.05,-1.95 2.09,-3.89 3.13,-5.84 4.36,-8.12 8.81,-16.18 13.37,-24.19 5.68,-9.97 11.13,-20.05 16.52,-30.17 0.59,-1.12 1.19,-2.23 1.8,-3.38 0.84,-1.59 0.84,-1.59 1.7,-3.21 1.87,-3.48 3.84,-6.89 5.86,-10.29 0.37,-0.84 0.37,-0.84 0.75,-1.7 -0.5,-0.99 -0.5,-0.99 -1,-2 z m 549,11 c 2.24,2.46 4.46,3.95 7.4,5.5 0.88,0.47 1.76,0.94 2.67,1.42 0.95,0.5 1.89,1 2.87,1.52 7.59,4.08 15.1,8.25 22.5,12.69 0.82,0.48 1.64,0.97 2.49,1.48 3.86,2.33 7.6,4.72 11.23,7.4 7.52,5.81 9.02,6.76 14.72,10.66 2.07,-0.39 6.07,-4.19 8.12,-4.67 1.58,-0.27 3.16,-0.53 4.75,-0.77 4.42,-0.7 8.84,-1.45 13.25,-2.23 -1.27,-2.54 -2.2,-2.71 -4.78,-3.81 -0.81,-0.35 -1.61,-0.7 -2.45,-1.06 -0.89,-0.37 -1.79,-0.74 -2.71,-1.13 -0.94,-0.4 -1.89,-0.79 -2.86,-1.2 -3.06,-1.28 -6.13,-2.54 -9.2,-3.8 -0.96,-0.4 -1.91,-0.8 -2.9,-1.21 -14.61,-6.04 -29.46,-10.89 -44.6,-15.41 -1.36,-0.41 -1.36,-0.41 -2.74,-0.82 -2.57,-0.77 -5.15,-1.53 -7.73,-2.29 -0.78,-0.23 -1.56,-0.46 -2.37,-0.7 -3.77,-1.16 -3.77,-1.16 -7.66,-1.57 z"
         style="fill:#000000"
         id="path1" />
      <path
         transform="translate(350.23047,121.76172)"
         d="m 0,0 c 0.75,0 1.49,-0.01 2.26,-0.01 3.95,-0.02 7.91,-0.04 11.86,-0.05 3.2,-0.01 6.4,-0.03 9.6,-0.06 43.17,-0.42 99.46,4.11 134.19,33.15 5.96,5.89 6.81,12.57 6.88,20.7 -0.75,11.47 -8.24,19.42 -16.54,26.72 -51.13,40.4 -117.19,54.35 -179.48,66.79 0.89,0.7 1.79,1.4 2.71,2.12 8.37,6.57 16.72,13.15 24.97,19.87 0.66,0.54 1.32,1.08 2,1.63 1.39,1.14 2.77,2.27 4.15,3.41 3.2,2.64 6.37,5.16 9.85,7.41 11.13,7.38 15.95,17.7 21.77,29.46 2.35,4.69 4.89,9.26 7.42,13.85 3.36,6.12 6.68,12.27 9.97,18.43 0.33,0.62 0.66,1.23 1,1.87 1.61,3.02 3.22,6.04 4.82,9.06 3.48,6.52 7.09,12.92 10.84,19.29 1.7,2.95 3.23,5.96 4.69,9.04 0.91,1.81 1.82,3.62 2.74,5.43 0.77,1.54 1.53,3.09 2.27,4.64 6.51,13.41 12.27,21.03 25.82,27.39 3.39,1.88 6.17,4.45 8.98,7.1 -3.18,1.59 -6.28,0.29 -9.63,-0.44 -1.06,-0.22 -1.06,-0.22 -2.14,-0.45 -1.74,-0.36 -3.49,-0.74 -5.23,-1.11 2.47,4.95 2.47,4.95 5,10 -1.98,-0.66 -3.96,-1.32 -6,-2 0,2.64 0,5.28 0,8 -3.94,-2.82 -5.77,-5.22 -7.94,-9.5 -5.71,-8.88 -15.08,-12.53 -24.28,-17.1 -3.97,-2 -7.84,-4.16 -11.72,-6.34 -0.71,-0.39 -1.42,-0.79 -2.16,-1.2 -4.2,-2.34 -8.39,-4.71 -12.57,-7.09 -13.31,-7.6 -13.31,-7.6 -26.93,-14.61 -6.53,-3.19 -12.96,-6.55 -19.4,-9.91 -25.16,-13.1 -25.16,-13.1 -50.88,-25.05 -4.57,-2 -9.02,-4.16 -13.46,-6.43 -8.16,-4.14 -16.55,-7.69 -24.98,-11.23 -2.61,-1.1 -5.22,-2.21 -7.83,-3.31 -14.03,-5.95 -28.02,-11.8 -42.54,-16.48 -7,-2.29 -13.97,-4.59 -20.87,-7.17 -14.02,-5.21 -28.09,-9.63 -42.5,-13.58 -0.87,-0.24 -1.73,-0.48 -2.62,-0.72 -4.77,-1.31 -9.56,-2.57 -14.36,-3.77 -1.66,-0.43 -3.31,-0.93 -4.95,-1.45 -9.07,-2.47 -17.39,1.21 -25.95,4.13 -1.7,0.56 -3.4,1.11 -5.09,1.67 -36.66,12.15 -72.87,26.93 -103.97,50.14 -0.95,0.7 -1.89,1.4 -2.86,2.12 -19.6,15.06 -35.28,35.95 -45.92,58.16 -2.71,5.43 -5.71,9.52 -11.71,11.57 -6.13,0.55 -10.53,-0.06 -15.51,-3.85 -4.1,-4.52 -5.17,-9.03 -5,-15 0.89,-3.28 2.31,-6.18 3.87,-9.19 0.42,-0.83 0.83,-1.66 1.26,-2.51 10.14,-19.91 24.16,-37.51 39.87,-53.3 0.49,-0.5 0.99,-1 1.49,-1.51 17.54,-17.43 39.34,-29.88 61.48,-40.51 2.06,-1 4.11,-2.02 6.16,-3.05 30.67,-15.21 63.72,-25.75 96.87,-33.93 1.43,-0.36 2.85,-0.72 4.28,-1.08 2.59,-0.65 5.18,-1.3 7.78,-1.94 2.71,-0.67 5.4,-1.37 8.1,-2.09 25.34,-6.71 51.31,-10.91 77.15,-15.14 1.01,-0.17 2.03,-0.33 3.07,-0.51 13.65,-2.24 27.32,-4.19 41.05,-5.92 6.17,-0.77 12.34,-1.58 18.51,-2.38 1.26,-0.16 2.52,-0.33 3.82,-0.49 6.22,-0.82 12.19,-1.81 18.24,-3.45 3.98,-0.82 7.97,-1.45 12,-2 0.86,-0.14 1.71,-0.27 2.59,-0.41 2.38,-0.22 4.12,-0.27 6.41,0.41 2.34,2.32 3.57,5.06 5,8 1.04,1.84 2.11,3.68 3.19,5.5 0.49,0.85 0.97,1.71 1.48,2.59 0.66,0.95 0.66,0.95 1.33,1.91 0.66,0 1.32,0 2,0 0.08,-4.16 -0.02,-7.95 -1,-12 4.31,1.56 8.06,3.68 12,6 -0.29,-0.63 -0.58,-1.25 -0.88,-1.9 -0.37,-0.82 -0.74,-1.63 -1.12,-2.48 -0.37,-0.81 -0.74,-1.62 -1.13,-2.46 -0.87,-2.16 -0.87,-2.16 -0.87,-4.16 4.29,0 8.58,0 13,0 -2.97,-1.65 -5.94,-3.3 -9,-5 3.92,-2.94 5.63,-3.61 10.26,-4.58 1.25,-0.27 2.5,-0.54 3.79,-0.82 0.67,-0.14 1.33,-0.28 2.01,-0.42 3.52,-0.74 7.02,-1.51 10.53,-2.29 1.06,-0.24 1.06,-0.24 2.15,-0.48 39.98,-8.9 80.34,-24.53 113.26,-49.41 -22.73,-18.13 -64.04,-21.6 -92,-22 -1.21,-0.02 -2.42,-0.04 -3.67,-0.06 -23.97,-0.37 -47.81,0.48 -71.69,2.62 -5.15,0.44 -10.23,0.56 -15.39,0.5 -0.8,0 -4.81,0.23 -6.56,0.37 -5.45,-10.45 -14.12,-27.33 -15.08,-29.22 4.88,-1.56 8.2,-1.79 13.1,-2.25 1.27,-0.12 1.27,-0.12 2.56,-0.25 1.79,-0.18 3.58,-0.35 5.37,-0.52 2.69,-0.25 5.38,-0.51 8.07,-0.78 1.75,-0.17 3.5,-0.34 5.25,-0.51 0.78,-0.08 1.56,-0.15 2.37,-0.23 C -25.94,0.69 -13.02,0.06 0,0 Z"
         style="fill:#000000"
         id="path2" />
      <path
         transform="translate(-302,148)"
         d="m -26.18,47.64 c -7.34,3.64 -15.29,5.81 -22.86,8.94 -0.66,0.28 -1.32,0.55 -2,0.83 -1.35,0.56 -2.7,1.12 -4.06,1.68 -18.77,7.78 -36.6,16.69 -52.9,28.91 -0.6,0.45 -1.2,0.89 -1.82,1.35 -8.38,6.28 -16.2,13.07 -23.77,20.3 -1.28,1.22 -2.57,2.43 -3.86,3.64 -7.17,6.82 -7.17,6.82 -9.78,16.04 -0.02,3.23 0.06,6.44 0.23,9.67 21,9.57 42.37,6.46 64.16,1.62 3.84,-0.84 7.71,-1.53 11.59,-2.18 7.04,-1.21 14.05,-2.54 21.06,-3.9 4.46,-0.86 8.93,-1.67 13.41,-2.4 C -19,129.24 -1.52,125.17 16,121 c 1.16,-0.28 2.33,-0.55 3.53,-0.84 13.07,-3.13 25.98,-6.68 38.86,-10.51 4.88,-1.44 9.77,-2.81 14.67,-4.15 138.28,-41.65 -0.53,0.15 137.97,-41.54 35.73,-12.04 71.89,-21.62 108.48,-30.62 8.72,-2.15 17.42,-4.33 26.1,-6.59 0.93,-0.24 1.86,-0.48 2.82,-0.73 4.17,-1.08 8.35,-2.18 12.52,-3.28 1.42,-0.37 2.85,-0.74 4.28,-1.11 1.2,-0.32 2.4,-0.64 3.64,-0.97 2.83,-0.6 8.94,-1.78 12.17,-3.48 2.11,3.68 3.06,10.43 4.09,14.51 0.17,0.71 0.35,1.42 0.54,2.15 1.24,5.17 1.71,9.83 1.33,15.16 -6.91,2.8 -13.93,4.6 -21.16,6.37 -1.3,0.32 -2.6,0.64 -3.9,0.97 -2.75,0.68 -5.51,1.36 -8.27,2.04 -6.54,1.61 -13.07,3.24 -19.6,4.87 -2.2,0.54 -4.4,1.09 -6.59,1.64 -35.94,8.95 -71.45,18.67 -106.69,30.09 -0.73,0.23 -1.46,0.47 -2.21,0.71 -6.86,2.23 -8.44,2.47 -22.58,6.31 0.14,1.26 0.14,1.26 0.28,2.54 3.38,31.69 -308,98.04 -294.28,72.46 -1.48,0.02 -1.48,0.02 -2.99,0.05 -3.73,0.05 -7.46,0.09 -11.19,0.11 -1.61,0.02 -3.21,0.04 -4.81,0.07 -10.47,0.16 -19.85,-0.44 -30.01,-3.23 -0.75,-0.2 -1.5,-0.41 -2.27,-0.62 -7.53,-2.23 -13.93,-5.07 -19.73,-10.38 -0.63,-0.53 -1.25,-1.07 -1.89,-1.62 -6.02,-5.48 -9.2,-11.65 -9.64,-19.83 -0.02,-1.94 -0.01,-3.87 0.03,-5.8 0.01,-1.01 0.03,-2.03 0.04,-3.07 0.48,-17.82 8.28,-30.05 20.46,-42.68 0.87,-0.91 1.74,-1.82 2.63,-2.75 6.11,-6.26 12.49,-11.87 19.37,-17.25 1.24,-1 2.49,-1.99 3.73,-2.99 23.81,-18.87 50.52,-31.97 78.51,-43.39 15.68,-6.41 31.14,-13.35 45.87,-21.71 0.72,-0.4 1.44,-0.8 2.19,-1.21 0.62,-0.35 1.24,-0.71 1.88,-1.07 2.29,-0.79 5.87,-4.37 8.12,-3.6 -11.86,19.82 -13.56,24.02 -28.48,51.61 z"
         style="fill:#000000"
         id="path3" />
      <path
         transform="translate(-45,33)"
         d="m 0,0 c -0.02,0.62 -0.03,1.25 -0.05,1.89 -0.06,2.87 -0.1,5.74 -0.14,8.61 -0.02,0.98 -0.05,1.96 -0.07,2.98 -0.09,8.46 1.11,15.2 7.26,21.52 8.1,5.78 16.21,7.41 26,6 2.55,-0.82 4.78,-1.75 7.13,-3.03 2.1,-1.09 3.5,-1.77 5.87,-1.97 2,1 4,2 6,3 10.19,1.49 18.56,-0.08 27,-6 8.4,-6.85 10.68,-16.63 12,-27 13.31,2.47 24.89,7.02 37,13 1.15,0.56 1.15,0.56 2.32,1.13 13.55,6.68 25.64,14.59 36.59,25.06 3.93,3.41 13.25,11.04 20.14,19.73 5.13,5.8 9.25,10.99 11.89,14.33 3.86,5.05 7.43,10.22 10.87,15.56 0.46,0.71 0.91,1.41 1.38,2.14 7.81,12.19 7.81,12.19 7.81,15.05 0.66,0 1.32,0 2,0 0.11,-0.73 0.23,-1.46 0.35,-2.21 0.67,-2.86 1.62,-4.89 3.09,-7.41 0.65,-1.14 0.65,-1.14 1.31,-2.29 1.03,-1.73 2.13,-3.42 3.25,-5.09 0.66,0 1.32,0 2,0 -0.02,1.88 -0.02,1.88 -0.04,3.8 0,1.65 -0.01,3.3 -0.02,4.95 -0.01,0.83 -0.02,1.65 -0.03,2.5 0,0.8 0,1.6 -0.01,2.42 0,0.74 -0.01,1.47 -0.01,2.22 0.11,2.16 0.52,4.04 1.11,6.11 0.63,-0.87 0.63,-0.87 1.28,-1.75 0.55,-0.74 1.09,-1.48 1.66,-2.25 0.54,-0.74 1.09,-1.48 1.65,-2.25 0.47,-0.58 0.93,-1.15 1.41,-1.75 0.33,0 0.66,0 1,0 0.29,4.79 -0.56,8.01 -2.5,12.38 -0.46,1.05 -0.93,2.11 -1.41,3.21 -0.36,0.79 -0.72,1.59 -1.09,2.41 1.98,0 3.96,0 6,0 -1.5,4.21 -4.23,5.8 -8,8 -0.66,0 -1.32,0 -2,0 0.44,1.06 0.87,2.11 1.32,3.2 4.4,10.86 7.84,21.8 10.91,33.1 0.86,3.01 1.8,5.98 2.74,8.97 2.12,6.82 3.75,13.7 5.28,20.67 0.27,1.18 0.54,2.36 0.81,3.57 0.26,1.14 0.51,2.28 0.77,3.45 0.22,1.02 0.45,2.04 0.68,3.09 0.5,3.03 1.34,5.14 1.62,8.4 -4.32,0.35 -118.5,25.71 -118.99,25.76 0.15,-0.75 0.16,-1.71 0.31,-2.48 3.83,-26.09 -0.05,-52.17 -5.45,-77.73 -1.45,-5.55 -3.07,-19.64 -6,-29 -0.99,1.98 -1.98,3.96 -3,6 -1.07,-3.7 -1.21,-3.4 -1.6,-8.09 -1.49,-3.14 -3.74,-12.93 -5.46,-17.97 -0.32,-0.92 -0.63,-1.84 -0.95,-2.79 C 105.68,92.31 93.86,72.5 77,58 76.5,57.56 76,57.13 75.49,56.68 67.2,49.63 59.48,47.31 48.96,46.21 47.23,46.02 45.5,45.79 43.78,45.54 28.81,43.71 11.67,47 -0.81,55.69 -6.31,60.02 -11.17,64.95 -16,70 c -0.85,0.82 -1.69,1.65 -2.57,2.5 -5.52,5.68 -9.66,12.56 -13.43,19.5 0.62,0.23 1.24,0.45 1.87,0.69 2.74,1.69 3.18,3.3 4.13,6.31 -0.99,0 -1.98,0 -3,0 0.55,0.65 1.11,1.3 1.68,1.98 0.72,0.87 1.45,1.74 2.19,2.65 0.72,0.85 1.44,1.71 2.18,2.6 2.02,2.87 3.01,5.4 3.95,8.77 -5.09,-1.59 -8.87,-4.74 -13,-8 -0.1,1.54 -1.48,10.48 -2.28,14.8 -0.99,-0.99 -2.7,-3.78 -3.72,-4.8 -0.99,4.95 -1.98,9.9 -3,15 -2,-2.67 -4,-5.33 -6,-8 -7.9,30.3 -7.64,28.71 -13.75,59.4 -0.33,0.1 -112.42,33.86 -115.35,34.74 0.74,-5.93 2.07,-11.82 3.41,-17.64 0.23,-0.98 0.45,-1.96 0.69,-2.98 3.88,-16.76 8.87,-33.1 14,-49.52 -0.56,-0.39 -1.12,-0.79 -1.7,-1.19 -1.09,-0.79 -1.09,-0.79 -2.21,-1.6 -0.72,-0.52 -1.45,-1.03 -2.19,-1.57 -2.56,-2.21 -3.28,-4.37 -3.9,-7.64 2.31,0 4.62,0 7,0 -0.5,-1.01 -0.99,-2.02 -1.5,-3.06 -1.62,-3.72 -1.75,-6.88 -1.5,-10.94 1.98,0.99 3.96,1.98 6,3 -0.01,-0.87 -0.02,-1.74 -0.04,-2.63 0,-1.16 -0.01,-2.31 -0.02,-3.49 -0.01,-1.14 -0.03,-2.28 -0.04,-3.45 0.09,-3.24 0.49,-6.25 1.1,-9.43 3.28,3.72 5.06,7.17 6.75,11.81 0.43,1.16 0.86,2.33 1.3,3.52 0.31,0.88 0.63,1.76 0.95,2.67 0.36,-0.64 0.71,-1.28 1.08,-1.94 1.66,-2.96 3.32,-5.91 4.98,-8.87 0.56,-1.01 1.13,-2.01 1.7,-3.05 10.13,-17.99 10.13,-17.99 16.68,-25.7 3.68,-4.4 7.28,-8.84 10.83,-13.35 1.73,-2.09 5.83,-6.4 8.4,-9.41 1.43,-0.43 3.27,-4.68 3.61,-4 4.01,-3.31 7.35,-6.3 9.91,-9.3 8.2,-9.29 17.28,-15.99 27.81,-22.38 0.67,-0.41 1.33,-0.81 2.02,-1.23 C -19.5,-0.33 -19.5,-0.33 0,0 Z"
         style="fill:#000000"
         id="path4" />
      <path
         transform="translate(323.90765,272.59131)"
         d="m -0.97,-0.51 c 0.58,0.49 2.14,1.48 2.75,1.98 0.93,0.75 0.93,0.75 1.88,1.52 1.25,1.01 2.49,2.02 3.74,3.03 2.17,1.78 4.37,3.52 6.57,5.26 2.94,2.36 5.88,4.74 8.8,7.12 0.66,0.54 1.33,1.08 2.01,1.64 1.38,1.13 2.76,2.26 4.14,3.4 3.2,2.64 6.37,5.16 9.86,7.41 11.13,7.38 15.95,17.71 21.76,29.46 2.35,4.69 4.89,9.26 7.43,13.85 3.35,6.12 6.67,12.27 9.96,18.43 0.33,0.62 0.66,1.23 1,1.87 1.61,3.02 3.22,6.04 4.82,9.06 3.48,6.52 7.09,12.92 10.84,19.29 1.71,2.95 3.23,5.96 4.69,9.04 0.91,1.81 1.83,3.62 2.74,5.43 0.78,1.54 1.53,3.09 2.28,4.64 6.5,13.41 12.26,21.03 25.81,27.39 3.4,1.88 6.17,4.45 8.98,7.1 -3.18,1.59 -6.28,0.29 -9.62,-0.44 -0.71,-0.15 -1.42,-0.29 -2.14,-0.45 -1.75,-0.36 -3.49,-0.74 -5.24,-1.11 1.65,3.3 3.3,6.6 5,10 -1.98,-0.66 -3.96,-1.32 -6,-2 0,2.64 0,5.28 0,8 -3.93,-2.82 -5.77,-5.22 -7.94,-9.5 -5.71,-8.88 -15.08,-12.53 -24.28,-17.1 -3.97,-2 -7.84,-4.16 -11.72,-6.34 -0.71,-0.39 -1.42,-0.79 -2.15,-1.2 -4.21,-2.34 -8.4,-4.71 -12.58,-7.09 -13.31,-7.6 -13.31,-7.6 -26.93,-14.61 -6.52,-3.19 -12.96,-6.55 -19.4,-9.91 -25.16,-13.1 -25.16,-13.1 -50.88,-25.05 -4.57,-2 -9.02,-4.16 -13.46,-6.43 -8.15,-4.14 -16.55,-7.69 -24.98,-11.23 -2.61,-1.1 -5.22,-2.21 -7.82,-3.31 -14.04,-5.95 -28.03,-11.8 -42.55,-16.48 -6.99,-2.29 -13.97,-4.59 -20.87,-7.17 -14.05,-5.23 -28.16,-9.64 -42.63,-13.58 -0.87,-0.24 -1.74,-0.48 -2.63,-0.72 -2.51,-0.68 -5.02,-1.36 -7.53,-2.03 -0.74,-0.2 -1.48,-0.4 -2.24,-0.6 -5.11,-1.35 -10.24,-2.54 -15.41,-3.65 0,-0.66 1.02,-0.01 1.02,-0.69 22.95,-6.06 44.82,-13.18 68.3,-16.88 5.31,-0.84 10.57,-1.8 15.83,-2.87 7.73,-2.6 123.87,-17.38 124.85,-17.56 1.2,0.94 1.84,1.44 2.46,1.92 z"
         style="fill:#000000"
         id="path5" />
      <path
         transform="translate(-106,250)"
         d="M -68.93,69.33 C -92.37,75.72 -115.45,83.98 -138,93 c -1.03,0.41 -2.07,0.83 -3.14,1.25 -32.63,13.09 -64.34,28.2 -95.86,43.75 -0.94,0.46 -0.94,0.46 -1.9,0.94 -20.61,10.17 -40.94,20.76 -61.01,31.95 -6.01,3.34 -12.03,6.62 -18.14,9.75 -1.65,0.85 -1.65,0.85 -3.34,1.72 -2.05,1.06 -4.12,2.11 -6.2,3.13 -6.21,3.23 -9.1,5.9 -11.41,12.51 -0.53,1.3 -1.07,2.6 -1.61,3.9 -0.52,1.35 -1.05,2.69 -1.58,4.04 -3.62,9.04 -9.01,21.67 -13.71,30.19 -1.99,-5.54 0.56,-18.03 1.77,-23.44 0.27,-1.17 0.27,-1.17 0.53,-2.36 0.92,-3.93 1.96,-7.63 3.6,-11.33 -0.99,0.59 -1.97,1.18 -2.99,1.79 -1.3,0.75 -2.59,1.51 -3.89,2.27 -0.65,0.39 -1.3,0.78 -1.97,1.18 -1.68,0.98 -6.01,3.66 -9.65,5.84 2.97,-5.45 5.47,-9.52 8.5,-15.08 -1.71,0.64 -6.55,1.63 -8.31,2.29 -9.92,1.62 -13.75,1.87 -19.69,0.71 4.63,-3.69 14.68,-5.74 23.54,-8.92 6.44,-1.18 8.6,-2.6 12.66,-8.01 4.29,-6.64 7.79,-13.73 11.22,-20.84 2.15,-4.44 4.54,-8.65 7.13,-12.84 2.65,-4.37 5.04,-8.89 7.45,-13.39 0.57,-1.06 1.13,-2.11 1.72,-3.2 1.52,-2.86 3.05,-5.71 4.57,-8.57 5.42,-10.14 10.85,-20.27 16.5,-30.28 1.51,-2.68 2.96,-5.37 4.39,-8.08 0.35,-0.66 0.7,-1.31 1.06,-1.98 0.94,-1.75 2.84,-5.13 3.76,-6.89 2.77,0.39 160.57,-36.52 174.9,-40.3 21.47,-5.66 55.25,33.26 50.17,34.63 z"
         style="fill:#000000"
         id="path6" />
      <path
         transform="translate(-275,-215)"
         d="m 0,0 c 3.48,0.61 6.55,1.52 9.81,2.88 3.05,1.25 6.1,2.48 9.19,3.62 5.83,2.17 11.63,4.43 17.3,6.99 3.89,1.59 7.71,2.66 11.76,3.7 20.34,5.46 41.2,12.68 57.94,25.81 0.67,0.51 1.34,1.01 2.03,1.54 6.43,5.19 11.12,11.84 15.97,18.46 0.79,1.06 1.57,2.12 2.38,3.21 5.41,7.37 5.41,7.37 6.62,9.79 -3.76,-1.82 -18.26,-9.73 -23,-12 -2.67,-1.32 -5.34,-2.66 -8,-4 0.94,0.79 1.88,1.57 2.85,2.38 1.26,1.06 2.52,2.12 3.78,3.18 0.61,0.52 1.23,1.03 1.87,1.56 5.85,4.96 11.25,9.94 13.88,17.32 0.31,0.86 0.63,1.73 0.96,2.62 0.22,0.64 0.43,1.28 0.66,1.94 -4.05,-0.61 -7.18,-1.93 -10.81,-3.81 -1.05,-0.54 -2.1,-1.08 -3.18,-1.63 -0.99,-0.52 -1.99,-1.03 -3.01,-1.56 -4.27,-2.18 -8.53,-4.25 -13,-6 -0.09,0.99 -0.17,1.99 -0.26,3.01 -0.96,9.67 -8.2,27.45 -8.74,28.99 -0.96,-0.98 -2.33,-4.33 -3,-13 -4.21,6.22 -8.18,12.53 -12,19 -0.49,0.78 -0.98,1.56 -1.49,2.36 -3.49,6.1 -4.98,11.16 -5.2,18.08 -0.03,0.73 -0.07,1.46 -0.1,2.21 -0.08,1.79 -0.15,3.57 -0.21,5.35 -3.85,-0.66 -5.32,-1.21 -8,-4 -0.93,-0.41 -1.86,-0.82 -2.81,-1.25 -6.63,-3.64 -9.94,-9.84 -13.64,-16.23 -1.47,-2.4 -3.07,-4.48 -4.86,-6.64 C 21.94,96.66 15.13,77.42 14.22,55.65 13.72,44.03 12.96,32.55 11,21.06 10.83,20.09 10.67,19.11 10.5,18.11 9.45,12.32 9.18,12.68 6.74,7.36 3.9,4.24 1.08,1.89 0,0 Z"
         style="fill:#000000"
         id="path7" />
      <path
         transform="translate(268,-184.4375)"
         d="M 0,0 C 0.85,-0.03 1.7,-0.07 2.58,-0.1 8.94,-0.15 13.06,1.41 18,5.44 c 3.19,3.59 3.29,6.68 3.23,11.39 -0.42,4.79 -1.89,9.24 -3.35,13.8 -0.48,1.51 -0.48,1.51 -0.97,3.06 -3.14,9.83 -7.04,19.06 -11.7,28.27 -2.22,4.4 -4.3,8.84 -6.29,13.35 -13.67,30.85 -13.67,30.85 -28.92,39.13 -1.05,0.6 -2.1,1.21 -3.18,1.84 -8.23,4.48 -15.36,6.83 -24.82,7.16 -1,-1 -1,-1 -1.03,-3.15 0.06,-1.84 0.12,-3.67 0.19,-5.5 -0.45,-9.35 -3.48,-17.03 -7.47,-25.41 -0.48,-1.03 -0.95,-2.05 -1.44,-3.11 -5.61,-12.46 -5.61,-12.46 -14.25,-22.83 -3.04,-2.9 -5.24,-5.21 -7,-9 10.16,-1.13 17.96,2.88 27,7 -2.67,-4.01 -5.56,-7.63 -9,-11 1.76,-0.59 1.76,-0.59 3.56,-1.19 4.41,-1.63 7.73,-3.95 11.44,-6.81 -1.12,0.01 -2.25,0.02 -3.4,0.03 -7.61,0.06 -15.05,0.07 -22.6,-1.03 4,-3.2 6,-4.55 6,-5 1.48,-1.17 1.48,-1.17 3.55,-2.47 0.76,-0.48 1.51,-0.97 2.29,-1.47 0.82,-0.51 1.63,-1.03 2.47,-1.56 5.56,-3.59 10.68,-7.15 15.44,-11.75 C -42.17,9.63 -31.34,5.39 -18,2.44 -16.74,2.08 -15.48,1.73 -14.18,1.36 -9.46,0.18 -4.85,0.03 0,0 Z"
         style="fill:#000000"
         id="path8" />
      <path
         transform="translate(-106,250)"
         d="m 0,0 c 1.81,16.68 3.58,33.19 3,50 -5.39,1.86 -10.76,3.53 -16.31,4.88 -1.4,0.34 -2.8,0.68 -4.2,1.03 -0.73,0.17 -1.46,0.35 -2.21,0.54 -13.93,3.39 -27.78,6.97 -41.59,10.81 -2.54,0.7 -5.08,1.38 -7.62,2.07 -12.57,3.43 -24.85,7.59 -37.14,11.89 -1.01,0.35 -1.01,0.35 -2.03,0.71 -1.84,0.64 -3.67,1.28 -5.5,1.93 -3.45,1.16 -6.9,2.17 -10.4,3.14 0.37,-17.5 1.59,-34.66 4,-52 C -99.11,28.13 -6.09,1.46 0,0 Z"
         style="fill:#000000"
         id="path9" />
      <path
         transform="translate(174,-45)"
         d="m 0,0 c 2.76,2.18 4.44,3.87 6,7 0.41,3.62 0.13,5.72 -1.37,9.06 -2.97,3.32 -5.45,4.5 -9.43,6.32 -4.19,2.12 -8.08,4.62 -12.01,7.18 -0.73,0.47 -1.46,0.95 -2.21,1.43 -2.89,1.89 -5.67,3.76 -8.34,5.96 -2.8,2.17 -5.62,3.8 -8.75,5.47 -1.14,0.61 -2.29,1.23 -3.47,1.86 -1.21,0.64 -2.41,1.27 -3.61,1.91 -1.21,0.64 -2.42,1.29 -3.64,1.94 -8.42,4.49 -8.42,4.49 -11.17,5.87 7.83,5.92 15.6,11.58 24.18,16.39 2.81,1.6 5.53,3.3 8.26,5.05 12.95,8.38 12.95,8.38 26.63,15.45 C 3,92 3,92 5,95 c 0.73,4.56 0.59,8.02 -1.81,12 -2.79,2.55 -4.64,2.95 -8.38,3.29 -4.65,-0.35 -7.69,-1.8 -11.75,-3.98 -0.66,-0.34 -1.33,-0.68 -2.01,-1.03 -4.85,-2.51 -9.46,-5.33 -14.05,-8.28 -1.01,-0.65 -1.01,-0.65 -2.05,-1.31 -2.09,-1.35 -4.18,-2.71 -6.26,-4.06 -4.63,-3.01 -9.26,-5.99 -13.92,-8.93 -6.34,-4.03 -12.56,-8.23 -18.77,-12.45 -1.13,-0.76 -2.26,-1.52 -3.39,-2.29 -1.6,-1.08 -1.6,-1.08 -3.24,-2.19 -1.44,-0.98 -1.44,-0.98 -2.91,-1.98 -5.1,-3.71 -5.1,-3.71 -6.15,-6.84 -0.1,-0.75 -0.2,-1.49 -0.31,-2.26 -0.12,-0.74 -0.25,-1.48 -0.38,-2.24 0.59,-3.81 2.56,-6 5.38,-8.45 3.52,-2.29 7.2,-4.21 10.94,-6.12 2.15,-1.14 4.3,-2.28 6.46,-3.42 1.09,-0.58 2.19,-1.15 3.31,-1.74 5.14,-2.69 10.25,-5.41 15.35,-8.16 1.35,-0.7 1.35,-0.7 2.72,-1.43 4.64,-2.49 8.51,-5.1 12.4,-8.63 3.52,-2.91 7.54,-5.02 11.51,-7.25 0.84,-0.48 1.68,-0.96 2.55,-1.46 C -7.29,-1.31 -7.29,-1.31 0,0 Z"
         style="fill:#000000"
         id="path10" />
      <path
         transform="translate(-163,-46)"
         d="M 0,0 C 3.9,1.99 7.41,4.51 11,7 19.14,12.19 27.47,17.03 35.81,21.88 63.69,38.07 63.69,38.07 72,45 c 1.45,1.21 1.45,1.21 2.94,2.44 2.65,3.3 2.99,5.35 3.06,9.56 -0.98,5.68 -2.72,8.24 -7,12 -2.73,1.76 -5.57,3.29 -8.44,4.81 -1.62,0.88 -3.24,1.76 -4.86,2.65 -0.8,0.43 -1.59,0.86 -2.42,1.3 -8.11,4.4 -16.02,8.99 -23.65,14.18 -7.06,4.79 -14.35,9.05 -21.85,13.1 -1.61,0.87 -3.2,1.75 -4.8,2.63 -8.14,4.34 -8.14,4.34 -12.98,3.33 -3.38,-2.15 -5.75,-4.14 -7,-8 -0.61,-4.02 -0.33,-5.53 2.02,-8.9 3.17,-3.63 6.93,-5.61 11.17,-7.79 1.61,-0.86 3.23,-1.73 4.84,-2.6 0.82,-0.44 1.64,-0.89 2.49,-1.34 3.98,-2.2 7.86,-4.55 11.73,-6.93 0.74,-0.46 1.49,-0.92 2.26,-1.39 4.74,-2.93 9.44,-5.94 14.12,-8.99 C 46.03,57 46.03,57 50,57 50,56.34 50,55.68 50,55 49.27,54.73 48.54,54.45 47.79,54.17 45.13,53.05 42.81,51.78 40.35,50.27 36.84,48.12 33.32,46 29.77,43.92 18.74,37.44 7.78,30.88 -3,24 -4.44,23.09 -4.44,23.09 -5.91,22.16 -11.74,18.38 -11.74,18.38 -14,15 -14.74,10.41 -14.61,6.98 -12.13,3 -8.45,-0.46 -4.89,-0.96 0,0 Z"
         style="fill:#000000"
         id="path11" />
      <path
         transform="translate(-15.125,19.9375)"
         d="m 0,0 c 2.77,2.69 3.08,3.48 3.38,7.38 -0.28,4.08 -0.54,5.64 -3.25,8.68 -2.95,1.6 -5.87,2.78 -9.01,4 0,3.96 0,7.92 0,12 2.71,1.36 5.01,1.07 8,1 C 1,29.57 2.4,26.23 3.5,22.44 c 1.35,-4.12 2.65,-6.3 6.63,-8.38 4.99,-0.62 8,-0.08 12,3 2.02,3.04 2.29,4.09 2.56,7.57 0.25,3.34 0.25,3.34 1.44,6.43 4.35,0.43 6.32,0.51 9.87,-2.18 2.13,-2.83 3.13,-4.3 3.13,-7.82 -1.68,-2.72 -3.5,-3.19 -6.5,-4.37 -3.9,-1.81 -4.98,-2.67 -6.5,-6.63 -0.54,-4.27 -0.5,-6.24 1.87,-9.87 2.93,-2.93 4.65,-3.34 8.69,-3.5 6.82,0.1 11.5,2.65 16.45,7.24 4.72,5.09 8.01,10.22 8.42,17.32 -0.39,9.14 -3.62,17.32 -10.06,23.83 -8.09,6.74 -15.49,8.65 -25.93,8.49 -3.69,-0.54 -6.14,-1.86 -9.44,-3.51 -3.04,0.26 -5.23,1.63 -7.88,3.07 -7.25,3.22 -14.96,3.26 -22.48,0.86 -7.7,-3.5 -12.49,-7.8 -15.77,-15.6 -2.16,-8.2 -2.84,-19.88 1.12,-27.58 C -22.36,1.61 -11.06,-7.45 0,0 Z"
         style="fill:#000000"
         id="path12" />
      <path
         transform="translate(213,284)"
         d="M 0,0 C 0,17.82 0,35.64 0,54 -7.81,52.88 -7.81,52.88 -11.63,51.21 -17.65,48.69 -23.8,46.66 -30,44.63 c -2.23,-0.74 -4.46,-1.48 -6.69,-2.22 -1.16,-0.38 -2.33,-0.76 -3.53,-1.16 -2.67,-0.88 -5.33,-1.78 -7.99,-2.69 -10.13,-3.46 -20.33,-6.48 -30.68,-9.23 -2.47,-0.65 -4.93,-1.32 -7.4,-1.98 -1.58,-0.43 -3.17,-0.85 -4.76,-1.28 -0.73,-0.19 -1.45,-0.39 -2.2,-0.59 -3.57,-0.94 -7.14,-1.56 -10.76,-2.23 -1.16,0.02 -4.49,0.35 -7.22,0.88 24.02,-6.35 55.17,-15.27 79.73,-19.22 5.83,-0.95 11.6,-2.08 17.38,-3.3 4.74,-0.93 9.42,-1.59 14.2,-2.32 z"
         style="fill:#000000"
         id="path13" />
      <path
         transform="translate(186,71.25)"
         d="m 0,0 c 6.59,1.65 10.2,8.49 14,13.75 0.48,-0.36 0.97,-0.73 1.47,-1.1 0.67,-0.5 1.34,-1.01 2.03,-1.52 0.72,-0.55 1.45,-1.09 2.19,-1.65 1.53,-1.14 3.06,-2.29 4.59,-3.43 0.71,-0.53 1.42,-1.06 2.16,-1.61 0.66,-0.49 1.31,-0.98 1.99,-1.49 1.52,-1.11 1.52,-1.11 2.57,-2.2 2.34,0.29 4.67,0.62 7,1 0.81,3.19 0.81,3.19 1,7 C 35.18,13.2 30.49,16.53 25.82,20 23.07,22.07 20.67,24.08 18.25,26.55 16,28.75 16,28.75 13.5,28.88 7.72,26.28 4.47,20.81 1,15.75 c -3.77,2.97 -6.94,5.67 -9.44,9.81 -1.45,2.21 -2.1,3.04 -4.65,3.85 -2.22,0.28 -2.22,0.28 -5.91,0.34 -2.86,-3.41 -4.35,-6.91 -6,-11 -5.39,2.82 -8.51,6.95 -12.3,11.6 -3.29,2.93 -5.34,3.36 -9.7,3.4 -2.19,-2.12 -2.19,-2.12 -4,-5 -1.32,-1.68 -2.65,-3.34 -4,-5 -0.8,0.73 -1.59,1.47 -2.41,2.22 -1.07,0.95 -2.14,1.9 -3.22,2.84 -0.78,0.73 -0.78,0.73 -1.58,1.47 -2.8,2.45 -4.29,3.47 -8.06,3.47 -2.73,-1 -2.73,-1 -4.73,-4 0.1,-3.47 0.82,-4.8 3.15,-7.39 5.54,-4.81 5.54,-4.81 7.33,-6.33 1.45,-1.22 2.88,-2.48 4.3,-3.74 0.85,-0.74 1.71,-1.47 2.59,-2.23 0.78,-0.66 1.55,-1.33 2.34,-2.01 2.29,-1.3 2.29,-1.3 4.95,-1.13 2.34,0.83 2.34,0.83 4.34,2.83 0.63,2.16 0.63,2.16 1.12,4.63 0.17,0.81 0.34,1.63 0.51,2.47 0.12,0.63 0.25,1.25 0.37,1.9 0.71,-0.64 0.71,-0.64 1.43,-1.29 2.17,-1.92 4.37,-3.82 6.57,-5.71 1.15,-1 1.15,-1 2.32,-2.02 5.72,-4.76 5.72,-4.76 9.93,-5.73 3.76,1.03 5.35,2.73 7.75,5.75 0.64,2.17 0.64,2.17 1,4 C -11.2,10.76 -8.01,8 -5.44,3.88 -3,0.75 -3,0.75 0,0 Z"
         style="fill:#000000"
         id="path14" />
      <path
         transform="translate(-112,72)"
         d="M 0,0 C 1.81,1.06 1.81,1.06 3,3 3.64,8.98 3.64,8.98 1.94,11.69 0,13 0,13 -3.18,14.78 c -3.78,2.14 -7.3,4.56 -10.82,7.1 -0.61,0.43 -1.22,0.87 -1.86,1.32 -3.22,2.32 -6.24,4.7 -9.14,7.43 -3,2.37 -3,2.37 -6.06,3.18 -5.7,-1.57 -8.32,-6.66 -11.12,-11.56 -0.6,-1.07 -1.2,-2.14 -1.82,-3.25 -2.34,1.51 -4.67,3.03 -7,4.56 -0.69,0.45 -1.38,0.91 -2.09,1.37 -3.75,2.5 -7.15,5.05 -10.41,8.2 -2.79,2.58 -3.36,2.85 -7.38,3.43 C -74,36 -74,36 -76,34 c -1.97,-4.27 -3.54,-8.53 -5,-13 -0.69,0.48 -0.69,0.48 -1.39,0.96 -2.1,1.45 -4.2,2.9 -6.3,4.35 -1.08,0.75 -1.08,0.75 -2.18,1.52 -10.47,7.22 -10.47,7.22 -13.82,6.98 C -107,34 -107,34 -109,32 c -0.41,-2.89 -0.41,-2.89 0,-6 1.91,-1.98 1.91,-1.98 4.62,-3.75 0.99,-0.67 1.98,-1.33 3,-2.02 0.55,-0.35 1.09,-0.71 1.64,-1.07 3.18,-2.12 6.26,-4.37 9.36,-6.6 0.62,-0.43 1.24,-0.87 1.87,-1.32 2.88,-1.97 2.88,-1.97 5.51,-4.24 3.37,-0.31 3.37,-0.31 7,0 3.63,3.09 5.18,8.67 7,13 2.89,0 4.3,-1.38 6.68,-2.99 0.93,-0.62 1.86,-1.25 2.81,-1.89 0.98,-0.66 1.95,-1.32 2.95,-1.99 0.96,-0.66 1.93,-1.31 2.93,-1.98 1.8,-1.21 3.6,-2.42 5.39,-3.64 C -43.05,4 -43.05,4 -40.06,3.81 -37,5 -37,5 -35.79,6.94 c 1.02,2.33 1.91,4.68 2.79,7.06 0.65,1.34 1.31,2.68 2,4 3.77,-1.76 7.25,-3.95 10.75,-6.19 0.62,-0.39 1.25,-0.79 1.89,-1.2 4.27,-2.76 8.04,-5.75 11.61,-9.4 C -4.39,-0.42 -2.81,-0.29 0,0 Z"
         style="fill:#000000"
         id="path15" />
      <path
         transform="translate(-540,-540)"
         d=""
         style="fill:#000000"
         id="path16" />
      <path
         transform="translate(-540,-540)"
         d=""
         style="fill:#000000"
         id="path17" />
      <path
         transform="translate(-540,-540)"
         d=""
         style="fill:#000000"
         id="path18" />
    </g>
  </g>
</svg>
