<?xml version="1.0" encoding="UTF-8" standalone="no"?>
<svg
   xmlns="http://www.w3.org/2000/svg"
   width="16"
   height="16"
   viewBox="0 0 16 16">
  <rect
     style="fill:none;fill-opacity:1;stroke:#209ae7;stroke-width:0.94488192;stroke-linecap:round;stroke-linejoin:round;stroke-miterlimit:4;stroke-dasharray:none;stroke-dashoffset:0;stroke-opacity:1"
     y="2.4724407"
     x="2.472441"
     ry="0.63275403"
     rx="0.63275403"
     height="11.055118"
     width="11.055118" />
  <path
     style="display:inline;overflow:visible;visibility:visible;fill:#209ae7;fill-opacity:1;fill-rule:nonzero;stroke:none;stroke-width:0.30053622;marker:none;enable-background:accumulate"
     d="m 7.0999784,3.2097236 v 1.800007 h -0.956246 l 1.856242,2.100009 1.856243,-2.100009 h -0.956246 v -1.800007 z" />
  <path
     d="m 7.6718764,7.4097416 c -0.05187,0 -0.08437,0.08847 -0.08437,0.196875 v 0.68438 c -0.208817,0.04755 -0.405463,0.13271 -0.581249,0.243749 l -0.487497,-0.4875 c -0.07666,-0.07666 -0.1602,-0.111678 -0.196875,-0.07501 l -0.459373,0.459377 c -0.03668,0.03667 -0.0017,0.120227 0.075,0.196876 l 0.487498,0.487502 c -0.111038,0.175789 -0.196199,0.372439 -0.243748,0.581253 h -0.684372 c -0.108397,0 -0.196874,0.03252 -0.196874,0.08438 v 0.6562534 c 0,0.05187 0.08848,0.08438 0.196874,0.08438 h 0.684373 c 0.04755,0.208816 0.13271,0.405466 0.243748,0.581254 l -0.487498,0.487501 c -0.07664,0.07666 -0.111676,0.160201 -0.075,0.196876 l 0.459373,0.459378 c 0.03667,0.03668 0.120224,0.0017 0.196875,-0.075 l 0.487498,-0.487504 c 0.175785,0.111041 0.372433,0.196202 0.581248,0.243751 v 0.684378 c 0,0.108398 0.03252,0.196876 0.08438,0.196876 h 0.656247 c 0.05186,0 0.08438,-0.08847 0.08438,-0.196876 v -0.684378 c 0.208815,-0.04755 0.405464,-0.132711 0.581248,-0.243751 l 0.487498,0.487503 c 0.07665,0.07666 0.160199,0.111676 0.196874,0.075 L 10.137508,11.78789 c 0.03667,-0.03667 0.0017,-0.120226 -0.075,-0.196877 L 9.5749914,11.103511 c 0.111038,-0.175788 0.1962,-0.372438 0.243748,-0.581254 h 0.6843726 c 0.108397,0 0.196872,-0.03252 0.196872,-0.08438 V 9.7816236 c 0,-0.05186 -0.08847,-0.08438 -0.196872,-0.08438 H 9.8187374 c -0.04755,-0.208814 -0.132709,-0.405464 -0.243748,-0.581251 l 0.4874976,-0.487503 c 0.07665,-0.07666 0.111677,-0.160198 0.07501,-0.196876 L 9.6781254,7.9722366 c -0.03667,-0.03667 -0.120224,-0.0017 -0.196873,0.07501 l -0.487499,0.4875 c -0.175793,-0.111042 -0.372441,-0.196205 -0.581258,-0.243752 v -0.68438 c 0,-0.108399 -0.03252,-0.196875 -0.08438,-0.196875 z m 0.328124,1.865633 c 0.45858,0 0.834368,0.375792 0.834368,0.8343774 0,0.458588 -0.375789,0.834379 -0.834368,0.834379 -0.458583,0 -0.834373,-0.375791 -0.834373,-0.834379 0,-0.4585854 0.37579,-0.8343774 0.834373,-0.8343774 z"
     style="display:inline;overflow:visible;visibility:visible;fill:#209ae7;fill-opacity:1;fill-rule:nonzero;stroke:none;stroke-width:0.30053622;marker:none;enable-background:accumulate" />
</svg>
