<svg version="1.1" viewBox="0 0 16 16" xmlns="http://www.w3.org/2000/svg">
    <g fill="#2e6ad1">
        <path d="m7.9941406 2c-0.64-2e-3 -1.2906406 0.1005937-1.9316406 0.3085938-1.925 0.6209999-3.3352344 2.1391562-3.8652344 4.1601562-0.196 0.748-0.1993125 0.8183281-0.1953125 2.9863281 3e-3 1.8159999 0.0055469 1.9713749 0.0605469 2.2343749 0.194 0.937 0.8218906 1.672203 1.7128906 2.033203 0.096 0.04 0.1968282 0.079375 0.2988282 0.109375 0.0389999 0.012 0.0830468 0.017203 0.1230468 0.033203 0.086 0.034 0.1603125 0.083282 0.1953125 0.113282 0.023 0.019 0.0492188 0.027109 0.0742188 0.037109a0.117 0.117 0 0 0 0.0292969 0.056641c0.062 0.058 0.1249218 0.060265 0.1699218 0.072265 0.1 0.043 0.2171719 0.027297 0.3261719 0.029297l0.046875 0.001953c0.146 2e-3 0.2777188-0.011015 0.3867187-0.041015 0.109-0.03 0.2018594-0.068157 0.2558594-0.160157 0.027-0.045 0.0175313-0.050359 0.0195313-0.068359l0.0078125-0.068359c4e-3 -0.054 0.0067656-0.124891 0.0097656-0.212891 0.0032138-0.093734 0.0041005-0.241761 0.0058594-0.367188 0.3022437 0.909109 0.3778857 1.112067 0.3808594 0.996094 2e-3 -0.078 0.3900156-3.000859 0.4160156-3.130859 0.033-0.167 0.1254531-0.141266 0.1894531 0.052734a87.52 87.52 0 0 1 0.5 2.025391c0.281 1.169 0.4575625 1.836875 0.4765625 1.796875 0.015-0.035 0.1555469-1.045141 0.3105469-2.244141 0.353-2.735 0.3233594-2.576156 0.4433593-2.535156 0.0700001 0.023 0.0700001 0.017031 0.5 2.082031 0.1950001 0.93 0.3611407 1.706563 0.3691407 1.726563 0.021 0.055 0.0541718-0.139125 0.2011719-1.203125 0.235-1.691 0.3399531-2.353672 0.3769531-2.388672 0.063-0.059 0.1203751 0.036672 0.2343751 0.388672l0.097656 0.304687c0.011855 0.709881 0.0253 1.505062 0.027344 1.861328l0.005859 1.00586 0.125 0.091797c0.068 0.05 0.146703 0.083562 0.220703 0.101562h0.001953l0.003907 0.001953h0.007812a1.97 1.97 0 0 0 0.335938 0.017578c0.14-6e-3 0.263328-0.027359 0.361328-0.068359a0.449 0.449 0 0 0 0.138672-0.089844c0.04-0.024 0.081-0.050937 0.125-0.085937 0.022-0.02 0.14475-0.069563 0.21875-0.101563 0.068-0.03 0.151422-0.042359 0.232422-0.068359 0.449-0.15 0.746515-0.334547 1.103515-0.685547 0.355-0.348 0.545125-0.640078 0.703125-1.080078 0.232-0.781 0.153203-1.646031 0.158203-2.4570314 0.01-2.366-0.03389-2.4148125-0.21289-3.1328125a5.68 5.68 0 0 0-1.597656-2.7617187 5.865 5.865 0 0 0-2.2636724-1.3574219 6.218 6.218 0 0 0-1.9199218-0.3203125h-0.0019532zm0.1171875 0.984375c0.31225 0 0.6189532 0.0153281 0.8144531 0.0488281 1.4959998 0.258 2.8077188 1.2361875 3.5117188 2.6171875 0.305 0.598 0.382891 1.1046406 0.462891 1.8066406 0.27 1.499 0.400703 1.4783438-0.904297 1.0273438a4.723 4.723 0 0 1-0.447266-0.1601562l-0.109375-0.0859376c-0.167-0.128-0.418297-0.1528124-0.654297-0.1328124-0.118 0.0099999-0.232078 0.0332656-0.330078 0.0722656a0.435 0.435 0 0 0-0.236328 0.1835937c-0.02 0.038-0.017484 0.0492188-0.021484 0.0742188a1.191 1.191 0 0 0-0.00586 0.0898437c-3e-3 0.075-0.003906 0.1801719-0.003906 0.3261719 0 0.1224432 0.005392 0.4103075 0.007812 0.59375l-0.18164-0.5507813c-0.1520001-0.458-0.2349064-0.6582343-0.2539064-0.6152343-0.016 0.034-0.0833906 0.5010625-0.1503906 1.0390625-0.132 1.0669996-0.2287188 1.7438436-0.2617188 1.8398436-0.011 0.033-0.0432656 0.060547-0.0722656 0.060547-0.101 0-0.1383281-0.127953-0.6113281-2.1269531-0.17-0.72-0.3304219-1.395-0.3574219-1.5l-0.0507812-0.1914063-0.0527344 0.4179688c-0.16 1.267-0.5666094 4.0931566-0.5996094 4.1601566-0.046 0.094-0.1042969 0.098625-0.1542968 0.015625-0.052-0.087-0.4688594-1.664375-0.7558594-2.8593754-0.136-0.56-0.2584375-1.0195312-0.2734375-1.0195312-0.014 0-0.0387344 0.1442656-0.0527344 0.3222656-0.045 0.559-0.3015625 2.925422-0.3515625 3.232422-0.048 0.297-0.1056406 0.378953-0.1816406 0.251953-0.0087102-0.014012-0.0617803-0.182313-0.0898438-0.261719 0.0060554-0.502303 0.0081714-0.896085 0.0175782-1.40039 0.019-0.9920004 0.0338593-1.449266 0.0058593-1.697266-0.014-0.124-0.0424687-0.2095313-0.1054687-0.2695312-0.063-0.06-0.1274531-0.0726563-0.1894532-0.0976563-0.179-0.072-0.4159062-0.0758281-0.6289062-0.0488281a1.185 1.185 0 0 0-0.2890625 0.0703125 0.345 0.345 0 0 0-0.1640625 0.1113281c-0.106 0.046-0.2398906 0.0999531-0.3378906 0.1269531-1.332 0.698-1.2778906 0.3356563-0.9628906-1.0273437 0.3599999-2.482 1.7979687-4.0355313 4.1679687-4.3945313 0.2225-0.0335 0.5412656-0.0488281 0.8535156-0.0488281z"/>
    </g>
</svg>
