<svg width="16" xmlns="http://www.w3.org/2000/svg" height="16"><g fill="#6c7a89"><path d="M11.605 2.092c-.027.02-.146.16-.262.313l-.212.281-.076-.052c-.106-.071-.209-.087-.305-.044-.066.03-.223.23-1.25 1.58a68.681 68.681 0 0 0-1.175 1.567c.001.009.261.215.576.454l.576.437.767-1.009c.421-.555.772-1.004.78-.998.027.02.074.458.064.599a1.46 1.46 0 0 1-.064.305c-.054.164-.06.174-1.01 1.429a48.835 48.835 0 0 0-.97 1.306c-.023.065 0 .186.05.255.08.117.282.155.397.072.08-.057 1.961-2.561 2.021-2.692.176-.373.214-.852.107-1.324a3.06 3.06 0 0 0-.153-.495c-.016-.035.011-.08.187-.314.167-.223.204-.286.208-.344.007-.123-.03-.192-.151-.287l-.113-.089.227-.3c.185-.248.224-.313.228-.371.012-.247-.244-.407-.447-.279"/><path d="M6.425 8.22C5.075 10 4.882 10.264 4.757 10.491c-.248.452-.52 1.14-.7 1.77-.118.405-.123.368.038.283a10.218 10.218 0 0 0 1.523-1.012c.37-.31.433-.39 2.003-2.458l1.51-1.99-.58-.441c-.32-.243-.584-.44-.59-.44-.005.001-.696.909-1.536 2.015M7.935 10.82c-.234.05-.494.252-.62.485a2.1 2.1 0 0 0-.121.301 3.066 3.066 0 0 1-.063.196c-.018.023-.465.13-.728.175-.618.108-.786.148-.847.205-.119.11-.027.22.141.171.045-.014.236-.052.42-.083.184-.032.465-.09.625-.126.16-.038.294-.063.301-.056.007.01-.02.135-.063.285l-.076.27-.169.074c-.092.04-.225.11-.294.157-.211.139-.252.314-.103.427.081.061.305.059.445 0 .124-.056.193-.135.29-.339.052-.106.092-.162.124-.169.025-.01.247-.052.494-.103l.501-.103c.047-.011.052-.01.038.036a1.187 1.187 0 0 1-.092.175.508.508 0 0 0-.076.186c0 .07.058.139.106.121a.13.13 0 0 1 .054-.014.412.412 0 0 0 .11-.081c.092-.083.315-.49.315-.575 0-.043.034-.054.054-.02.007.011.059.032.115.045.079.02.101.036.101.072 0 .07.115.171.216.191.079.014.18 0 .288-.047.038-.016.04-.011.027.047-.009.036-.074.15-.144.256-.148.22-.328.571-.375.726-.038.133-.022.231.047.279.063.04.166.022.22-.036.047-.052.303-.593.398-.84.067-.173.099-.22.252-.382.126-.132.166-.164.139-.112-.045.097-.043.171.007.216.106.097.258 0 .391-.24.079-.144.137-.187.429-.324l.153-.07-.016.083a1.745 1.745 0 0 1-.115.283c-.106.223-.126.364-.063.485.043.083.088.085.294.014.288-.097.663-.319.759-.447.133-.18.173-.353.092-.411-.083-.061-.13-.036-.236.119a1.35 1.35 0 0 1-.485.458c-.079.041-.148.068-.155.061-.009-.01.171-.492.267-.719a.454.454 0 0 0 .036-.13c0-.063-.079-.135-.146-.135-.031 0-.18.061-.328.137-.308.153-.288.166-.209-.121.047-.177.031-.225-.076-.236-.103-.011-.144.023-.238.191a1.327 1.327 0 0 1-.296.353c-.204.188-.213.195-.261.162-.072-.052-.112-.045-.288.043-.171.085-.227.097-.27.045-.036-.043.02-.065.333-.126.303-.059.341-.074.341-.137 0-.101-.083-.198-.231-.263-.256-.115-.285-.121-.398-.092-.121.032-.301.205-.326.312-.025.112-.101.079-.101-.045a.392.392 0 0 0-.099-.205c-.076-.052-.2.061-.294.267l-.074.159-.166.036a74.01 74.01 0 0 1-.926.189c-.054.01-.063.01-.052-.027.009-.023.036-.121.063-.222.07-.278.09-.314.191-.35.121-.043.53-.218.636-.272.049-.025.15-.101.225-.169.227-.211.263-.407.101-.55a.685.685 0 0 0-.13-.09.952.952 0 0 0-.386-.023zm.288.31c.045.045.045.047.005.133a.521.521 0 0 1-.169.171c-.137.094-.566.267-.58.236-.018-.052.119-.36.207-.458.117-.132.151-.146.337-.135.119.01.166.018.2.054M6.758 13c-.029.056-.106.097-.148.081-.049-.02-.036-.047.043-.088.103-.052.135-.05.106.01z"/></g></svg>