<svg xmlns="http://www.w3.org/2000/svg" width="16" height="16"><path d="M3.856 2c-.162.01-.336 0-.527.132-1.704.732-.56 2.741 1.611 4.27.013-.288.133-.915.13-1.191-1.853-1.27-2.937-2.504-1.756-2.994 1.245-.516 1.632.893 1.654 2.939.116.12.92.653 1.041.737-.045-1.866-1.038-3.77-1.992-3.878-.05-.01-.107-.01-.16-.01M5.59 5.251L5.203 5.1l-.321.216-.065.68.406.312.169.226C6.642 7.362 7.707 8 9.108 8.527l.874.13h.575c.53-.312.214-.433 2.14-.673l-2.17.168C8.852 7.504 7.144 6.573 5.59 5.558m3.82 2.715c.251 0 2.21-.17 2.989-.242.77-.12 1.718-.156 1.539.744.204-.48-.261-1.295-.922-1.439-1.022-.228-2.644.398-3.227.59m.94.25c-.304.12-.999.206-1.327.314.465.24 2.8 1.101 3.764.921.154 0 .805-.467.82-.804-.05.613-2.903.156-3.257-.444m.635.011c-.25-.12-1.421-.114-1.68-.21-1.467.513-3.44 1.716-4.852 2.527l-.409.12c-.078.56-.424.753-.74 1.116l.478.48.374-.612c1.653-.996 4.922-2.606 6.828-3.379m-6.828 3.38c-.202.12-.395.24-.578.36-.424 1.201-.918 2.01-1.39 1.975.73.348 2.3-1.367 2.829-2.98m-2.829 2.98c-1.112-.66 1.242-1.863 1.77-2.212.118-.336-.207-.893-.101-1.29-1.66 1.033-2.642 2.526-2.085 3.235.134.168.276.252.417.264m1.616-2.515c.077-.31 1.103-1.014 1.288-1.122.248-1.95.26-2.143.47-3.66a23.06 23.06 0 0 0-1.021-.807c-.15 1.62-.43 3.817-.825 5.283" fill="#ed1515"/></svg>