<svg xmlns="http://www.w3.org/2000/svg" viewBox="0 0 22 22">
  <defs id="defs3051">
    <style type="text/css" id="current-color-scheme">
      .ColorScheme-Text {
        color:#363636;
      }
      </style>
  </defs>
 <path 
     style="fill:currentColor;fill-opacity:1;stroke:none" 
	transform="translate(-1-1)" d="m12 4c-1.104569 0-2 .89543-2 2 0 .93198.637301 1.715537 1.5 1.9375v2.0625h-2.5v1h2.5v7.96875c-2.539039-.162769-4.748393-1.512158-6.09375-3.5l.1875-.09375.90625-.5-.5-.875c.000019.000017-3 1.625-3 1.625l.5.875 1.03125-.5625c1.604162 2.435643 4.335597 4.0625 7.46875 4.0625 3.133153 0 5.863905-1.626857 7.46875-4.0625l1.03125.5625.5-.875c.000014-.000633-3-1.625-3-1.625l-.5.875.90625.5.1875.09375c-1.345357 1.987842-3.554711 3.337231-6.09375 3.5v-7.96875h2.5v-1h-2.5v-2.0625c.862699-.221963 1.5-1.00552 1.5-1.9375 0-1.10457-.895431-2-2-2m0 1c.552285 0 1 .447715 1 1 0 .552285-.447715 1-1 1-.552285 0-1-.447715-1-1 0-.552285.447715-1 1-1z" 
	 class="ColorScheme-Text"
     />
</svg>
