<svg version="1.1" viewBox="0 0 22 22" xmlns="http://www.w3.org/2000/svg">
 <defs>
  <style id="current-color-scheme" type="text/css">.ColorScheme-Text { color:#363636; }</style>
 </defs>
 <g class="ColorScheme-Text" fill="currentColor">
  <path d="m16.5 20a3.5 3.5 0 0 1-3.5-3.5 3.5 3.5 0 0 1 3.5-3.5 3.5 3.5 0 0 1 3.5 3.5 3.5 3.5 0 0 1-3.5 3.5zm0-1.0859 2.5-2.5-0.70703-0.70703-1.293 1.293v-3h-1v3l-1.293-1.293-0.70703 0.70703z"/>
  <path d="m11 4v1h1v-1zm0 1h-1v1h1zm0 1v1h1v-1zm0 1h-1v1h1zm0 1v1h1v-1zm0 1h-1v2h2v-1h-1z"/>
  <path d="m6 3c-1.662 0-3 1.338-3 3v10c0 1.662 1.338 3 3 3h6.7598a4.5 4.5 0 0 1-0.50391-1h-6.2559c-1.108 0-2-0.892-2-2v-10c0-1.108 0.892-2 2-2h10c1.108 0 2 0.892 2 2v6.2578a4.5 4.5 0 0 1 1 0.5v-6.7578c0-1.662-1.338-3-3-3z"/>
 </g>
</svg>
