<svg xmlns="http://www.w3.org/2000/svg" viewBox="0 0 22 22">
  <defs id="defs3051">
    <style type="text/css" id="current-color-scheme">
      .ColorScheme-Text {
        color:#363636;
      }
      </style>
  </defs>
 <path 
     style="fill:currentColor;fill-opacity:1;stroke:none" 
	 d="m389.76455 557.04066c1.81605 1.81605 4.35942 2.40526 6.67057 1.81471l.40051-.40052.7071-.70709c0 0 .7071-.70711-.00001-1.41423l-3.04035-3.04035c-.70711-.70711-1.41422 0-1.41422 0l-.35355.35355c-.58761.58761-1.53372.5876-2.12132 0l-3.32624-3.32622c-.58759-.58759-.58761-1.53372 0-2.12134l.35356-.35355c0 0 .70709-.7071-.00001-1.41421l-3.04055-3.04055c-.70711-.7071-1.41421 0-1.41421 0l-.7071.7071-.40051.40051c-.59055 2.31115-.0001 4.85476 1.81472 6.67056z" 
	 transform="translate(-378.85714-540.07647)"
	 class="ColorScheme-Text"
     />
</svg>
