<svg xmlns="http://www.w3.org/2000/svg" viewBox="0 0 22 22">
  <defs id="defs3051">
    <style type="text/css" id="current-color-scheme">
      .ColorScheme-Text {
        color:#363636;
      }
      </style>
  </defs>
 <path 
     style="fill:currentColor;fill-opacity:1;stroke:none" 
	 d="m10.04492 3c-1.77683 0-2.521484.706446-2.521484 2.509766v2.441406c0 1.11382-.034195 2.404297-1.015625 2.404297h-.507813v1.289062h.507813c.98148 0 1.015625 1.290477 1.015625 2.404297v2.441406c0 1.80332.744654 2.509766 2.521484 2.509766v-1.183594c-1.18455 0-1.201172-.478327-1.201172-2.210937v-2.01563c0-.83093-.204705-2.067378-1.203125-2.580078.99842-.51271 1.203125-1.751092 1.203125-2.582032v-2.033203c0-1.7326.016592-2.210937 1.201172-2.210937v-1.183594m1.894531 0v1.183594c1.18456 0 1.216797.478337 1.216797 2.210937v2.033203c0 .83094.204705 2.069322 1.203125 2.582032-.99842.5127-1.203125 1.749148-1.203125 2.580078v2.01563c0 1.73261-.032187 2.210937-1.216797 2.210937v1.183594c1.77684 0 2.537109-.706446 2.537109-2.509766v-2.441406c0-1.11382.068644-2.404297 1.033204-2.404297h.490234v-1.289062h-.490234c-.96457 0-1.033204-1.290477-1.033204-2.404297v-2.441406c0-1.80332-.760269-2.509766-2.537109-2.509766"
	 class="ColorScheme-Text"
     />
</svg>
