<svg xmlns="http://www.w3.org/2000/svg" viewBox="0 0 22 22">
  <defs id="defs3051">
    <style type="text/css" id="current-color-scheme">
      .ColorScheme-Text {
        color:#363636;
      }
      </style>
  </defs>
 <path 
     style="fill:currentColor;fill-opacity:1;stroke:none" 
	 d="m5 3c-1.108 0-2 .892-2 2 0 1.108.892 2 2 2v3h-2v1 6 1h2v1h14v-3h-14v1h-1v-6h1v2 .652344.347656h14v-.347656-.652344-8h-12c0-1.108-.892-2-2-2m0 1c.554 0 1 .446 1 1 0 .554-.446 1-1 1-.554 0-1-.446-1-1 0-.554.446-1 1-1m1 2h12v7h-12v-7"
	 class="ColorScheme-Text"
     />
</svg>
