<svg xmlns="http://www.w3.org/2000/svg" xmlns:inkscape="http://www.inkscape.org/namespaces/inkscape" viewBox="0 0 22 22">
  <defs id="defs3051">
    <style type="text/css" id="current-color-scheme">
      .ColorScheme-Text {
        color:#363636;
      }
      </style>
  </defs>
 <path 
    style="fill:currentColor;fill-opacity:1;stroke:none" 
	d="M 3 3 L 3 7 L 3 19 L 4 19 L 19 19 L 19 18 L 19 9 L 18 9 L 18 18 L 4 18 L 4 7 L 13 7 L 13 5 L 13 3 L 3 3 z M 9.4277344 9 C 8.3616444 9 7.9140625 9.3522464 7.9140625 10.253906 L 7.9140625 11.476562 C 7.9140625 12.033474 7.8935575 12.677734 7.3046875 12.677734 L 7 12.677734 L 7 13.322266 L 7.3046875 13.322266 C 7.8935775 13.322266 7.9140625 13.966527 7.9140625 14.523438 L 7.9140625 15.746094 C 7.9140625 16.647754 8.3616444 17 9.4277344 17 L 9.4277344 16.408203 C 8.7170144 16.408203 8.7070313 16.169044 8.7070312 15.302734 L 8.7070312 14.294922 C 8.7070312 13.879462 8.583415 13.260256 7.984375 13.003906 C 8.583415 12.747556 8.7070314 12.130314 8.7070312 11.714844 L 8.7070312 10.697266 C 8.7070312 9.8309552 8.7170344 9.5917969 9.4277344 9.5917969 L 9.4277344 9 z M 11 9 C 10.446 9 10 9.446 10 10 C 10 10.554 10.446 11 11 11 C 11.554 11 12 10.554 12 10 C 12 9.446 11.554 9 11 9 z M 12.564453 9 L 12.564453 9.5917969 C 13.275183 9.5917969 13.292969 9.8309552 13.292969 10.697266 L 13.292969 11.714844 C 13.292969 12.130314 13.416575 12.747556 14.015625 13.003906 C 13.416575 13.260256 13.292969 13.879462 13.292969 14.294922 L 13.292969 15.302734 C 13.292969 16.169044 13.275269 16.408203 12.564453 16.408203 L 12.564453 17 C 13.630553 17 14.085927 16.647754 14.085938 15.746094 L 14.085938 14.523438 C 14.085938 13.966526 14.126338 13.322266 14.705078 13.322266 L 15 13.322266 L 15 12.677734 L 14.705078 12.677734 C 14.126338 12.677734 14.085927 12.033473 14.085938 11.476562 L 14.085938 10.253906 C 14.085938 9.3522465 13.630553 9 12.564453 9 z M 10 12 L 10 16 L 12 16 L 12 12 L 10 12 z "
	class="ColorScheme-Text"
    />
  <path
     inkscape:connector-curvature="0"
     id="path8"
     style="fill:#ff6600;fill-rule:evenodd"
     d="m 15.00001,3 2,3 L 19,3 Z" />
</svg>
