<svg width="22" height="22" version="1.1" xmlns="http://www.w3.org/2000/svg" xmlns:xlink="http://www.w3.org/1999/xlink">
  <defs>
    <style type="text/css" id="current-color-scheme">
      .ColorScheme-Text { color:#363636; }
    </style>
  </defs>
 <g transform="translate(-54.999 -190)" style="fill:currentColor" class="ColorScheme-Text">
  <path d="m63.16 208h0.71384v-0.75755h-0.42248c-0.87409 0-1.1072-0.43704-1.1072-1.486 0-0.99064 0.08741-1.8502 0.08741-2.9574 0-1.0343-0.26223-1.5734-0.97607-1.7773v-0.0583c0.71384-0.18939 0.97607-0.71384 0.97607-1.7628 0-1.1218-0.08741-1.9667-0.08741-2.9574 0-1.0489 0.23309-1.5005 1.1072-1.5005h0.42248v-0.74297h-0.71384c-1.2966 0-1.9084 0.48075-1.9084 2.1707 0 1.18 0.14568 2.0395 0.14568 3.1467 0 0.62644-0.29136 1.2529-1.3985 1.2674v0.83038c1.1072 0.0146 1.3985 0.64101 1.3985 1.282 0 1.0926-0.14568 1.9522-0.14568 3.1322 0 1.6899 0.61186 2.1707 1.9084 2.1707z"/>
  <path d="m68.124 208h0.72841c1.282 0 1.8939-0.48075 1.8939-2.1707 0-1.18-0.13111-2.0396-0.13111-3.1322 0-0.641 0.2768-1.2674 1.384-1.282v-0.83038c-1.1072-0.0146-1.384-0.641-1.384-1.2674 0-1.1072 0.13111-1.9667 0.13111-3.1467 0-1.6899-0.61186-2.1707-1.8939-2.1707h-0.72841v0.74298h0.42248c0.88866 0 1.1072 0.45161 1.1072 1.5005 0 0.99064-0.07284 1.8356-0.07284 2.9574 0 1.0489 0.26223 1.5734 0.9615 1.7628v0.0583c-0.69927 0.20396-0.9615 0.74298-0.9615 1.7773 0 1.1072 0.07284 1.9667 0.07284 2.9574 0 1.0489-0.21852 1.486-1.1072 1.486h-0.42248z"/>
 </g>
</svg>
