<svg version="1.1" viewBox="0 0 22 22" xmlns="http://www.w3.org/2000/svg">
 <defs>
  <style id="current-color-scheme" type="text/css">.ColorScheme-Text {
        color:#363636;
      }</style>
 </defs>
 <path d="m5 4c-1.0907 0-2 0.9093-2 2v7c0 1.0907 0.9093 2 2 2h0.69727l4.3027 2.8691v-2.8691h7c1.0907 0 2-0.9093 2-2v-7c0-1.0907-0.9093-2-2-2h-12zm0 1h12c0.554 0 1 0.446 1 1v7c0 0.554-0.446 1-1 1h-8v2l-3-2h-1c-0.554 0-1-0.446-1-1v-7c0-0.554 0.446-1 1-1z" class="ColorScheme-Text" fill="currentColor"/>
</svg>
