<svg version="1.1" viewBox="0 0 22 22" xmlns="http://www.w3.org/2000/svg">
 <defs>
  <style id="current-color-scheme" type="text/css">.ColorScheme-Text {
        color:#363636;
      }</style>
 </defs>
 <path class="ColorScheme-Text" d="m15.5 13a3.5 3.5 0 0 0-3.5 3.5 3.5 3.5 0 0 0 3.5 3.5 3.5 3.5 0 0 0 3.5-3.5 3.5 3.5 0 0 0-3.5-3.5zm0 1 0.47852 1.3457 1.2891-0.61328-0.61328 1.2891 1.3457 0.47852-1.3457 0.47852 0.61328 1.2891-1.2891-0.61328-0.47852 1.3457-0.47852-1.3457-1.2891 0.61328 0.61328-1.2891-1.3457-0.47852 1.3457-0.47852-0.61328-1.2891 1.2891 0.61328z" fill="currentColor"/>
 <path d="m7 3c-1.662 0-3 1.338-3 3v10c0 1.662 1.338 3 3 3h4v-1h-4c-1.108 0-2-0.892-2-2v-10c0-1.108 0.892-2 2-2h5v5h5v3h1v-4l-5-5h-1zm6 1.4141 3.5859 3.5859h-3.5859z" class="ColorScheme-Text" fill="currentColor"/>
</svg>
