<svg xmlns="http://www.w3.org/2000/svg" viewBox="0 0 22 22">
  <defs id="defs3051">
    <style type="text/css" id="current-color-scheme">
      .ColorScheme-Text {
        color:#363636;
      }
      </style>
  </defs>
 <path 
    style="fill:currentColor;fill-opacity:1;stroke:none" 
	d="m18.5 4c-.65424 0-1.202197.418077-1.408203 1h-13.0918v1c3.601 0 6.5 2.899 6.5 6.5 0 1.905514-.822115 3.601777-2.121094 4.787109-.245727-.180239-.548776-.287109-.878906-.287109-.831 0-1.5.669-1.5 1.5 0 .831.669 1.5 1.5 1.5.65424 0 1.202197-.418077 1.408203-1h4.091797v1h3v-3h-3v1h-3.912109c1.479147-1.367931 2.412109-3.317097 2.412109-5.5 0-2.788667-1.510668-5.207469-3.757813-6.5h9.349609c.206006.581923.753963 1 1.408203 1 .831 0 1.5-.669 1.5-1.5 0-.831-.669-1.5-1.5-1.5m0 1c.277 0 .5.223.5.5 0 .277-.223.5-.5.5-.06925 0-.135453-.013828-.195312-.039063-.179579-.075703-.304688-.253188-.304688-.460938 0-.06925.013828-.135453.039062-.195313.075704-.179578.253188-.304688.460938-.304688m-11 13c.277 0 .5.223.5.5 0 .277-.223.5-.5.5-.277 0-.5-.223-.5-.5 0-.277.223-.5.5-.5m6.5 0h1v1h-1v-1z" transform="translate(-.99999-.99999)"
    class="ColorScheme-Text"
    />
</svg>
