<svg xmlns="http://www.w3.org/2000/svg" viewBox="0 0 22 22">
  <defs id="defs3051">
    <style type="text/css" id="current-color-scheme">
      .ColorScheme-Text {
        color:#363636;
      }
      </style>
  </defs>
 <path 
    style="fill:currentColor;fill-opacity:1;stroke:none" 
	d="M19.513672 4.00781A2 9 45 0 0 12.06836 9.105469 2 9 45 0 0 8.525391 13.21875c1.07606.34264 1.915172 1.181743 2.257812 2.257812A2 9 45 0 0 14.896484 11.933594 2 9 45 0 0 19.845703 4.15625 2 9 45 0 0 19.513672 4.00781M8 14.664062C3.99999 15.735863 7 18.26795 4 20c4.00339 0 6-2.00082 6-3.335938 0-.66488.0676-1.88944-2-2z" transform="translate(-.99999-.99999)" 
    class="ColorScheme-Text"
    />
</svg>
