<svg version="1.1" viewBox="0 0 22 22" xmlns="http://www.w3.org/2000/svg">
 <defs>
  <style id="current-color-scheme" type="text/css">.ColorScheme-Text {
        color:#363636;
      }</style>
 </defs>
 <g class="ColorScheme-Text" transform="translate(4,5)" fill="currentColor">
  <path class="ColorScheme-Text" d="m12 8c-1.1046 1e-7 -2 0.89543-2 2v2h-1v3h6v-3h-1v-2c0-1.1046-0.89543-2-2-2zm0 1c0.55228 0 1 0.44772 1 1v2h-2v-2c0-0.55228 0.44772-1 1-1z" fill="currentColor"/>
 </g>
 <path d="m6 2c-1.662 0-3 1.338-3 3v10c0 1.3601 0.90218 2.491 2.1387 2.8613 0.37037 1.2365 1.5012 2.1387 2.8613 2.1387h4v-1h-4c-1.108 0-2-0.892-2-2v-10c0-1.108 0.892-2 2-2h8c1.108 0 2 0.892 2 2v5h1v-5c0-1.3601-0.90218-2.491-2.1387-2.8613-0.37037-1.2365-1.5012-2.1387-2.8613-2.1387h-8zm0 1h8c0.74107 0 1.379 0.4042 1.7246 1h-7.7246c-1.662 0-3 1.338-3 3v9.7246c-0.5958-0.34556-1-0.98355-1-1.7246v-10c0-1.108 0.892-2 2-2z" class="ColorScheme-Text" fill="currentColor"/>
</svg>
