<svg id="svg6" version="1.1" viewBox="0 0 22 22" xmlns="http://www.w3.org/2000/svg">
    <defs id="defs3051">
        <style id="current-color-scheme" type="text/css">.ColorScheme-Text {
        color:#363636;
      }</style>
    </defs>
    <path id="path4" class="ColorScheme-Text" d="m10 2v2.1308594c-0.977173 0.1418826-1.8093123 0.3990784-2.4628906 0.8007812-1.0105468 0.6149-1.515626 1.5580782-1.515625 2.8300782-0.0045556 2.1952922 1.5574743 2.9186712 3.9785156 3.5839842v4.990235c-1.1727187-0.099011-2.2448911-0.319434-3.3769531-0.802735l-0.6230469 1.355469c0.5645099 0.3013 1.3272997 0.562156 2.2890625 0.785156 0.5442785 0.122315 1.1112195 0.200577 1.7109375 0.253906v2.072266h1v-2.023438c0.170103 0.004537 0.31439 0.023438 0.494141 0.023438 0.163513-0.001299 0.336092-0.015301 0.505859-0.023438v2.023438h1v-2.119141c1.996749-0.284852 3.979968-1.202256 3.958984-3.6875-0.069977-1.829093-1.20312-2.50751-3.958984-3.476562v-4.9531251c0.903263 0.1207438 2.002058 0.3722771 3.224609 0.9824219l0.775391-1.5429688c-0.550584-0.2955-1.83109-0.7664063-2.646484-0.9414062-0.433515-0.0926134-0.886519-0.155605-1.353516-0.1992188v-2.0625h-1v2.0136719c-0.092209-0.0017585-0.17809-0.0136719-0.271484-0.0136719-0.256737 0-0.487798 0.0203437-0.728516 0.0332031v-2.0332031zm1.4375 3.6484375c0.151024 8.281e-4 0.362335 0.00945 0.5625 0.017578v4.7011725c-0.157449-0.052711-0.25536-0.093163-0.421875-0.148438-0.178702-0.043982-0.384922-0.108127-0.578125-0.160156v-4.3964846c0.145876-0.00637 0.291583-0.013656 0.4375-0.013672zm-1.4375 0.1113281v3.9960934c-1.2269945-0.434373-2.3570412-1.0911999-2.3242188-2.1894528-0.0595487-1.0413022 1.0044504-1.5907823 2.3242188-1.8066406zm1 5.8535154c0.183874 0.04679 0.329816 0.09211 0.521484 0.140625 0.16101 0.04582 0.317398 0.09735 0.478516 0.144532v4.492187c-0.149465 0.0031-0.311388 0.01879-0.451172 0.01758-0.191477-0.0018-0.36467-0.01399-0.548828-0.01953zm2 0.597657c1.281472 0.448538 2.319699 1.035348 2.296875 2.064453-0.038883 1.395694-1.131612 1.882894-2.296875 2.048828z" fill="currentColor"/>
</svg>
