<?xml version="1.0" encoding="UTF-8" standalone="no"?>
<!-- Created with Inkscape (http://www.inkscape.org/) -->

<svg
   width="22"
   height="22"
   viewBox="0 0 5.8208331 5.8208336"
   version="1.1"
   id="svg11945"
   inkscape:version="1.1.1 (3bf5ae0d25, 2021-09-20, custom)"
   sodipodi:docname="go-up-skip.svg"
   xmlns:inkscape="http://www.inkscape.org/namespaces/inkscape"
   xmlns:sodipodi="http://sodipodi.sourceforge.net/DTD/sodipodi-0.dtd"
   xmlns="http://www.w3.org/2000/svg"
   xmlns:svg="http://www.w3.org/2000/svg">
  <sodipodi:namedview
     id="namedview11947"
     pagecolor="#ffffff"
     bordercolor="#666666"
     borderopacity="1.0"
     inkscape:pageshadow="2"
     inkscape:pageopacity="0.0"
     inkscape:pagecheckerboard="0"
     inkscape:document-units="px"
     showgrid="false"
     units="in"
     inkscape:zoom="15.534252"
     inkscape:cx="1.8990293"
     inkscape:cy="14.902552"
     inkscape:window-width="1920"
     inkscape:window-height="1011"
     inkscape:window-x="0"
     inkscape:window-y="0"
     inkscape:window-maximized="1"
     inkscape:current-layer="svg11945"
     showguides="true" />
  <defs
     id="defs11942" />
  <path
     id="rect923"
     style="fill:#363636;fill-opacity:1;stroke-width:1.32292;stroke-linecap:round;stroke-linejoin:round"
     d="m 2.9105262,1.3229167 c -0.033816,-3e-7 -0.067623,0.012845 -0.093534,0.038757 -0.00162,0.00162 -0.00365,0.00349 -0.00517,0.00517 L 0.83261684,3.3460491 c -0.051821,0.051827 -0.0518239,0.1352453 0,0.1870687 0.051824,0.051824 0.13524548,0.051824 0.18706866,0 L 2.9105262,1.6422771 4.8013667,3.5331178 c 0.051823,0.051824 0.1352455,0.051824 0.1870689,0 0.051824,-0.051824 0.051824,-0.1352454 0,-0.1870687 L 3.0040605,1.3616741 C 2.978147,1.3357635 2.944342,1.3229171 2.9105262,1.3229167 Z m 0,1.0583334 c -0.033816,-4e-7 -0.067623,0.012845 -0.093534,0.038757 -0.00162,0.00162 -0.00365,0.00349 -0.00517,0.00517 L 0.83261684,4.4043823 c -0.0518209,0.051827 -0.0518238,0.1352455 0,0.1870689 0.0518239,0.051824 0.1352455,0.051824 0.18706866,0 L 2.9105262,2.7006104 4.8013667,4.5914512 c 0.051823,0.051824 0.1352455,0.051824 0.1870689,0 0.051824,-0.051824 0.051824,-0.1352455 0,-0.1870689 L 3.0040605,2.4200074 C 2.978147,2.3940969 2.944342,2.3812505 2.9105262,2.3812501 Z"
     sodipodi:nodetypes="ssccscccsccsssccscccsccs" />
</svg>
