<svg xmlns="http://www.w3.org/2000/svg" viewBox="0 0 22 22">
    <defs id="defs3051">
        <style type="text/css" id="current-color-scheme">
            .ColorScheme-NegativeText {
                color:#da4453;
            }
        </style>
    </defs>
    <g style="fill:currentColor;fill-opacity:1;stroke:none" class="ColorScheme-NegativeText" transform="translate(-421.714 -525.79)">
        <path d="M432.714 528.79a4 4 0 0 0-4 4 4 4 0 0 0 4 4 4 4 0 0 0 4-4 4 4 0 0 0-4-4m0 1a3 3 0 0 1 3 3 3 3 0 0 1-3 3 3 3 0 0 1-3-3 3 3 0 0 1 3-3M432.714 537.79a8 8 0 0 0-7.927 7h1.007a7 7 0 0 1 6.92-6 7 7 0 0 1 1 .08v-1.009a8 8 0 0 0-1-.07"/>
        <circle cx="437.214" cy="541.291" r="3.5"/>
    </g>
    <path d="M13 15h5v1h-5z" fill="#fff"/>
</svg>
