<svg xmlns="http://www.w3.org/2000/svg" viewBox="0 0 22 22">
  <defs id="defs3051">
    <style type="text/css" id="current-color-scheme">
      .ColorScheme-Text {
        color:#363636;
      }
      </style>
  </defs>
 <path 
     style="fill:currentColor;fill-opacity:1;stroke:none" 
     d="M 7.4257812 3 C 4.9817913 3 3 4.9535113 3 7.3632812 C 3 8.1688112 3.223145 8.9226425 3.609375 9.5703125 C 3.507955 10.058963 3.453125 10.565624 3.453125 11.083984 C 3.453125 15.239964 6.8691744 18.609375 11.083984 18.609375 C 11.561814 18.609375 12.029202 18.565382 12.482422 18.482422 C 13.105252 18.812902 13.817529 19 14.574219 19 C 17.018579 19 19 17.046829 19 14.636719 C 19 13.940609 18.833343 13.283229 18.539062 12.699219 C 18.654292 12.178889 18.716797 11.638284 18.716797 11.083984 C 18.716797 6.9280644 15.300777 3.5585938 11.085938 3.5585938 C 10.641077 3.5585938 10.203597 3.5987019 9.7792969 3.6699219 C 9.0970569 3.2464619 8.2914113 3 7.4257812 3 z M 11.035156 5.7890625 C 11.716906 5.7890625 12.316016 5.8678944 12.816406 6.0214844 C 13.319126 6.1758844 13.743032 6.383985 14.076172 6.640625 C 14.411772 6.899295 14.661519 7.1757606 14.818359 7.4628906 C 14.976839 7.7535206 15.056641 8.0406825 15.056641 8.3203125 C 15.056641 8.5890825 14.952151 8.834365 14.744141 9.046875 C 14.534811 9.261275 14.269974 9.3710938 13.958984 9.3710938 C 13.676494 9.3710938 13.456054 9.3020687 13.302734 9.1679688 C 13.159674 9.0436987 13.012086 8.8491725 12.847656 8.5703125 C 12.657246 8.2135625 12.426359 7.932455 12.162109 7.734375 C 11.905719 7.541835 11.477772 7.4453125 10.888672 7.4453125 C 10.341552 7.4453125 9.8968562 7.552315 9.5664062 7.765625 C 9.2479063 7.971495 9.0917969 8.2090013 9.0917969 8.4882812 C 9.0917969 8.6597612 9.1413806 8.8023713 9.2441406 8.9257812 C 9.3526006 9.0561912 9.5059288 9.170255 9.6992188 9.265625 C 9.8996188 9.365325 10.107663 9.44375 10.314453 9.5 C 10.526753 9.5581 10.881471 9.6443994 11.369141 9.7558594 C 11.986801 9.8865294 12.554661 10.033206 13.056641 10.191406 C 13.564521 10.351936 14.005481 10.549537 14.363281 10.779297 C 14.728931 11.013957 15.017466 11.315681 15.222656 11.675781 C 15.428746 12.036671 15.533203 12.48202 15.533203 13 C 15.533093 13.61966 15.352557 14.185547 14.998047 14.679688 C 14.645427 15.172738 14.125069 15.562854 13.449219 15.839844 C 12.780059 16.114134 11.977633 16.253906 11.064453 16.253906 C 9.9682331 16.253906 9.0490513 16.06247 8.3320312 15.6875 C 7.8193713 15.41409 7.3951388 15.046484 7.0742188 14.589844 C 6.7501688 14.128554 6.5859375 13.669926 6.5859375 13.228516 C 6.5859375 12.952716 6.6931569 12.714921 6.9042969 12.519531 C 7.1133469 12.325411 7.3818519 12.226562 7.7011719 12.226562 C 7.9635019 12.226562 8.1891969 12.303931 8.3730469 12.457031 C 8.5485769 12.603971 8.6994725 12.821102 8.8203125 13.101562 C 8.9558025 13.407033 9.1040856 13.664117 9.2597656 13.867188 C 9.4095956 14.062658 9.6234975 14.227019 9.8984375 14.355469 C 10.175378 14.484809 10.549013 14.550781 11.007812 14.550781 C 11.638902 14.550781 12.155912 14.41834 12.544922 14.15625 C 12.924822 13.90079 13.109375 13.593007 13.109375 13.216797 C 13.109375 12.919587 13.012663 12.687026 12.814453 12.503906 C 12.606473 12.312436 12.33319 12.162837 12 12.060547 C 11.65337 11.954407 11.183542 11.83891 10.601562 11.71875 C 9.8096325 11.55155 9.1367825 11.353576 8.6015625 11.128906 C 8.0544425 10.899576 7.6115725 10.580071 7.2890625 10.181641 C 6.9614325 9.7777906 6.796875 9.2702881 6.796875 8.6738281 C 6.796875 8.1053981 6.9704331 7.5942038 7.3144531 7.1523438 C 7.6555431 6.7132837 8.1531519 6.3707187 8.7949219 6.1367188 C 9.4283719 5.9057787 10.182986 5.7890625 11.035156 5.7890625 z "
     class="ColorScheme-Text"
     />
</svg>
