<svg xmlns="http://www.w3.org/2000/svg" viewBox="0 0 22 22">
  <defs id="defs3051">
    <style type="text/css" id="current-color-scheme">
      .ColorScheme-Text {
        color:#363636;
      }
      </style>
  </defs>
 <path 
     style="fill:currentColor;fill-opacity:1;stroke:none" 
     d="M 3 6.0332031 L 3.0136719 6.7539062 L 5.1210938 7.0292969 C 5.6989137 7.5316969 8.9124438 11.250178 9.4023438 12.205078 L 9.4511719 14.869141 C 9.1371319 15.283031 7.2167969 15.197266 7.2167969 15.197266 L 7.0527344 15.966797 C 7.0527344 15.966797 14.249659 15.8226 14.287109 15.90625 C 14.269109 15.81035 14.300781 15.185547 14.300781 15.185547 L 11.964844 15.123047 C 11.964844 15.123047 11.812681 13.224531 11.925781 12.119141 C 13.458311 10.422991 16.193359 8.5078125 16.193359 8.5078125 L 18.050781 8.1914062 L 18.478516 7.4472656 L 12.154297 7.4082031 L 12.318359 8.1796875 C 12.318359 8.1796875 14.047908 8.3179 14.236328 8.46875 C 14.211228 8.84567 11.244141 11.222656 11.244141 11.222656 L 8 6.8535156 L 10.273438 6.6777344 L 10.373047 6.1347656 L 3 6.0332031 z M 17.330078 10.509766 L 17.345703 14.576172 L 18.039062 14.667969 L 19 10.736328 L 17.330078 10.509766 z M 17.197266 15.025391 L 17.083984 15.828125 L 17.931641 15.966797 L 18.058594 15.121094 L 17.197266 15.025391 z "
     class="ColorScheme-Text"
     />
</svg>
