<svg xmlns="http://www.w3.org/2000/svg" viewBox="0 0 22 22">
  <defs id="defs3051">
    <style type="text/css" id="current-color-scheme">
      .ColorScheme-Text {
        color:#363636;
      }
      </style>
  </defs>
 <path 
    style="fill:currentColor;fill-opacity:1;stroke:none" 
    d="M 9 4.9980469 C 5.1340067 4.9980469 2 7.6759686 2 10.980469 C 2 14.285069 4.1340067 16.746094 8 16.746094 C 4.7783206 16.746094 3.16599 13.734369 3.1660156 10.980469 C 3.16599 8.2265686 5.7783209 5.9941406 9 5.9941406 C 10.456084 5.9941406 11.7709 6.4666031 12.792969 7.2207031 A 5 3.9164941 0 0 0 11 6.9550781 A 5 3.9164941 0 0 0 6 10.873047 L 6 10.882812 A 5 3.9164941 0 0 0 6.0195312 11.199219 C 6.2124811 14.429519 9.2585111 17 13 17 C 16.865992 17 20 14.258153 20 10.876953 C 20 7.4956532 17.865994 5 14 5 C 17.221678 5 18.83401 8.0573 18.833984 10.875 C 18.83401 13.6927 16.221676 15.976563 13 15.976562 C 11.32749 15.976562 9.8234101 15.357394 8.7597656 14.371094 A 5 3.9164941 0 0 0 11 14.789062 A 5 3.9164941 0 0 0 15.992188 10.980469 L 16 10.980469 C 16 10.961469 15.996294 10.942828 15.996094 10.923828 A 5 3.9164941 0 0 0 16 10.873047 A 5 3.9164941 0 0 0 15.96875 10.472656 C 15.666159 7.4066564 12.665132 4.9980469 9 4.9980469 z "
    class="ColorScheme-Text"
    />  
</svg>
