<svg xmlns="http://www.w3.org/2000/svg" viewBox="0 0 22 22">
  <defs id="defs3051">
    <style type="text/css" id="current-color-scheme">
      .ColorScheme-Text {
        color:#363636;
      }
      </style>
  </defs>
 <path 
    style="fill:currentColor;fill-opacity:1;stroke:none" 
    d="m 11,3 c -2.9455143,1.09e-5 -5.3333226,2.3878192 -5.3333335,5.3333333 0.00209,0.635161 0.1176187,1.2648422 0.3411459,1.8593747 0.16178,0.447121 0.4880312,0.942189 0.6927082,1.283855 L 11,19 15.299478,11.479167 c 0.337613,-0.420547 0.48392,-0.865628 0.695314,-1.286459 C 16.21743,9.5980127 16.332077,8.9683367 16.333334,8.3333333 16.333323,5.3878192 13.945515,3.0000109 11,3 Z m 0,1.3333333 c 1.220404,2.07e-5 2.374033,0.5571766 3.132811,1.5130208 0.166159,0.2089706 0.310978,0.4340514 0.432292,0.6718751 0.242471,0.4768937 0.386811,0.9975825 0.424481,1.53125 0.0068,0.094465 0.01028,0.1891427 0.01042,0.2838541 -3.13e-4,0.4008748 -0.06088,0.799425 -0.179688,1.1822918 -0.06587,0.2077933 -0.148606,0.409855 -0.247394,0.6041669 -0.01107,0.02442 -0.02232,0.04873 -0.03385,0.07292 C 13.848468,11.508121 12.485682,12.332402 11,12.333333 9.5143185,12.332402 8.1515468,11.50812 7.4609373,10.192708 7.4016306,10.079895 7.3477497,9.9643119 7.299479,9.8463541 L 7.291669,9.8281251 C 7.2476408,9.7179393 7.2085396,9.6058493 7.174479,9.4921875 7.1691742,9.4765948 7.1639658,9.4609695 7.158854,9.4453125 7.1292273,9.3387639 7.104032,9.2310324 7.0833332,9.1223959 7.0779289,9.099872 7.0727204,9.0773017 7.0677081,9.0546875 7.047267,8.9425596 7.0316278,8.8296093 7.0208332,8.7161459 7.0189598,8.6970613 7.0172237,8.6779636 7.0156249,8.6588541 7.0059965,8.5506045 7.000784,8.4420075 6.9999998,8.3333333 7.0003121,8.2002569 7.0072652,8.0672791 7.0208332,7.9348959 7.1283117,6.8592501 7.666576,5.8729021 8.5130206,5.2005208 8.7219913,5.0343627 8.947072,4.8895433 9.1848957,4.7682292 9.7471698,4.4821567 10.369136,4.3331348 11,4.3333333 Z"
    class="ColorScheme-Text"
    />  
</svg>
