<svg xmlns="http://www.w3.org/2000/svg" viewBox="0 0 22 22">
  <defs id="defs3051">
    <style type="text/css" id="current-color-scheme">
      .ColorScheme-Text {
        color:#363636;
      }
      </style>
  </defs>
 <path 
     style="fill:currentColor;fill-opacity:1;stroke:none" 
     d="M 4 3 L 4 10 L 3 10 L 3 13 L 4 13 L 4 19 L 5 19 L 5 13 L 6 13 L 6 10 L 5 10 L 5 3 L 4 3 z M 11 10 L 11 13 L 14 13 L 14 12 L 19 12 L 19 11 L 14 11 L 14 10 L 11 10 z M 7 11 L 7 12 L 8 12 L 8 11 L 7 11 z M 9 11 L 9 12 L 10 12 L 10 11 L 9 11 z "
	 class="ColorScheme-Text"
     />
</svg>
