<svg version="1.1" viewBox="0 0 22 22" xmlns="http://www.w3.org/2000/svg">
 <defs>
  <style id="current-color-scheme" type="text/css">.ColorScheme-Text {
        color:#363636;
      }</style>
 </defs>
 <g class="ColorScheme-Text" transform="translate(3,3)" fill="currentColor">
  <circle cx="5" cy="6" r="1"/>
  <circle cx="11" cy="6" r="1"/>
  <path d="m8 9a5 5 0 0 0-4.5762 3h1.1172a4 4 0 0 1 3.459-2 4 4 0 0 1 3.459 2h1.1211a5 5 0 0 0-4.5801-3z"/>
 </g>
 <path class="ColorScheme-Text" d="m10.99 2a9 9 0 0 0-8.9902 9 9 9 0 0 0 9 9 9 9 0 0 0 9-9 9 9 0 0 0-9-9 9 9 0 0 0-0.0098 0zm0.0098 1a8 8 0 0 1 8 8 8 8 0 0 1-8 8 8 8 0 0 1-8-8 8 8 0 0 1 8-8z" fill="currentColor"/>
</svg>
