<svg version="1.1" viewBox="0 0 22 22" xmlns="http://www.w3.org/2000/svg"><style type="text/css" id="current-color-scheme">.ColorScheme-Text { color: #363636; }.ColorScheme-NegativeText { color: #da4453; }</style>
    <path d="m3 3v3h1v-2h14v5h1v-6h-16zm0 4v12h6v-1h-5v-10h8v1h1v-2h-10zm2 3v1h4v-1h-4zm5 0v9h3v-1h-2v-7h7v2h1v-3h-9zm2 2v2h1v-1h4v-1h-5zm-7 1v1h2v-1h-2zm0 2v1h4v-1h-4z" fill="currentColor" class="ColorScheme-Text"/>
    <path d="m14 16v1h5v-1z" fill="currentColor" class="ColorScheme-NegativeText"/>
</svg>
