<svg version="1.1" viewBox="0 0 22 22" xmlns="http://www.w3.org/2000/svg">
 <defs>
  <style id="current-color-scheme" type="text/css">.ColorScheme-Text {
        color:#363636;
      }</style>
 </defs>
 <path d="m6 3c-1.662 0-3 1.338-3 3v1h0.5c0.277 0 0.5 0.223 0.5 0.5s-0.223 0.5-0.5 0.5h-0.5v6h0.5c0.277 0 0.5 0.223 0.5 0.5s-0.223 0.5-0.5 0.5h-0.5v1c0 1.662 1.338 3 3 3h10c1.662 0 3-1.338 3-3v-10c0-1.662-1.338-3-3-3h-10zm2 1h1v4h-3v-2c0-1.108 0.892-2 2-2zm2 0h6c1.108 0 2 0.892 2 2v2h-8v-4zm-4 5h3v4h-3v-4zm4 0h8v4h-8v-4zm-4 5h3v4h-1c-1.108 0-2-0.892-2-2v-2zm4 0h8v2c0 1.108-0.892 2-2 2h-6v-4z" class="ColorScheme-Text" fill="currentColor"/>
</svg>
