<svg version="1.1" viewBox="0 0 22 22" xmlns="http://www.w3.org/2000/svg">
 <defs>
  <style id="current-color-scheme" type="text/css">.ColorScheme-Text {
        color:#363636;
      }</style>
 </defs>
 <path class="ColorScheme-Text" d="m6 9v6h2v-6zm3 2v4h2v-4zm3 2v2h2v-2z" fill="currentColor"/>
 <path d="m5 3c-1.662 0-3 1.338-3 3v10c0 1.662 1.338 3 3 3h11c1.662 0 3-1.338 3-3v-10c0-1.662-1.338-3-3-3zm0 3h11c1.108 0 2 0.892 2 2v8c0 1.108-0.892 2-2 2h-11c-1.108 0-2-0.892-2-2v-8c0-1.108 0.892-2 2-2z" class="ColorScheme-Text" fill="currentColor"/>
</svg>
