<svg version="1.1" viewBox="0 0 22 22" xmlns="http://www.w3.org/2000/svg">
 <defs>
  <style id="current-color-scheme" type="text/css">.ColorScheme-Text {
        color:#363636;
      }
      .ColorScheme-NegativeText {
        color:#da4453;
      }</style>
 </defs>
 <path class="ColorScheme-Text" d="m6 9v3h1v-1h3v1h1v-3h-1v1h-3v-1z" fill="currentColor"/>
 <path class="ColorScheme-NegativeText" d="m16.5 13c-1.933 0-3.5 1.567-3.5 3.5s1.567 3.5 3.5 3.5 3.5-1.567 3.5-3.5-1.567-3.5-3.5-3.5zm-1.666 1 1.666 1.666 1.666-1.666 0.83398 0.83398-1.666 1.666 1.666 1.666-0.83398 0.83398-1.666-1.666-1.666 1.666-0.83398-0.83398 1.666-1.666-1.666-1.666z" fill="currentColor"/>
 <path class="ColorScheme-Text" fill="currentColor" d="m5 3c-1.662 0-3 1.338-3 3v10c0 1.662 1.338 3 3 3h7v-1h-7c-1.108 0-2-0.892-2-2v-8c0-1.108 0.892-2 2-2h11c1.108 0 2 0.892 2 2v4h1v-6c0-1.662-1.338-3-3-3h-11z"/>
</svg>
