<svg xmlns="http://www.w3.org/2000/svg" viewBox="0 0 22 22">
  <defs id="defs3051">
    <style type="text/css" id="current-color-scheme">
      .ColorScheme-Text {
        color:#363636;
      }
      </style>
  </defs>
 <path 
    style="fill:currentColor;fill-opacity:1;stroke:none" 
    d="m3 3v1 15h1 6v-1h-6v-14h14v8h1v-8-1h-15-1m2 2v1 11h1 4v-1h-4v-10h10v3h-1v2h2v-2-4h-12m4 4c-1.108 0-2 .892-2 2 0 1.108.892 2 2 2 1.108 0 2-.892 2-2 0-1.108-.892-2-2-2m0 1c.554 0 1 .446 1 1 0 .554-.446 1-1 1-.554 0-1-.446-1-1 0-.554.446-1 1-1m2 3v6h8v-6h-8m1 1h6v1h-1v2h1v1h-6v-1h1v-2h-1v-1m3 1c-.554 0-1 .446-1 1 0 .554.446 1 1 1 .554 0 1-.446 1-1 0-.554-.446-1-1-1"
	class="ColorScheme-Text"
    />  
</svg>
