<svg version="1.1" viewBox="0 0 22 22" xmlns="http://www.w3.org/2000/svg">
 <defs>
  <style id="current-color-scheme" type="text/css">.ColorScheme-Text {
        color:#363636;
      }
      .ColorScheme-PositiveText {
        color:#27ae60;
      }</style>
 </defs>
 <rect class="ColorScheme-PositiveText" x="14" y="8" width="2" height="2" ry=".5" fill="currentColor"/>
 <rect class="ColorScheme-PositiveText" x="14" y="11" width="2" height="2" ry=".5" fill="currentColor"/>
 <g>
  <rect x="8" y="8" width="2" height="2" ry=".5" class="ColorScheme-Text" fill="currentColor"/>
  <rect x="11" y="8" width="2" height="2" ry=".5" class="ColorScheme-Text" fill="currentColor"/>
  <rect x="8" y="11" width="2" height="2" ry=".5" class="ColorScheme-Text" fill="currentColor"/>
  <rect x="11" y="11" width="2" height="2" ry=".5" class="ColorScheme-Text" fill="currentColor"/>
  <rect x="5" y="11" width="2" height="2" ry=".5" class="ColorScheme-Text" fill="currentColor"/>
  <rect x="5" y="14" width="2" height="2" ry=".5" class="ColorScheme-Text" fill="currentColor"/>
  <rect x="8" y="14" width="2" height="2" ry=".5" class="ColorScheme-Text" fill="currentColor"/>
  <rect x="11" y="14" width="2" height="2" ry=".5" class="ColorScheme-Text" fill="currentColor"/>
 </g>
 <path class="ColorScheme-Text" fill="currentColor" d="m5 3c-1.662 0-3 1.338-3 3v10c0 1.662 1.338 3 3 3h11c1.662 0 3-1.338 3-3v-10c0-1.662-1.338-3-3-3zm0 3h11c1.108 0 2 0.892 2 2v8c0 1.108-0.892 2-2 2h-11c-1.108 0-2-0.892-2-2v-8c0-1.108 0.892-2 2-2z"/>
</svg>
