<svg version="1.1" viewBox="0 0 22 22" xmlns="http://www.w3.org/2000/svg">
 <defs>
  <style id="current-color-scheme" type="text/css">.ColorScheme-Text {
        color:#363636;
      }</style>
 </defs>
 <path d="m5 3c-1.108 0-2 0.892-2 2v1h1v-1c0-0.554 0.446-1 1-1h1v-1h-1zm3 0v1h2v-1h-2zm4 0v1h2v-1h-2zm4 0v1h1c0.554 0 1 0.446 1 1v1h1v-1c0-1.108-0.892-2-2-2h-1zm-5 4v1h2.293l-3.293 3.293 0.70703 0.70703 3.293-3.293v2.293h1v-4h-1-3zm-8 1v2h1v-2h-1zm15 0v2h1v-2h-1zm0 4v2h1v-2h-1zm-13 1c-1.108 0-2 0.892-2 2v2c0 1.108 0.892 2 2 2h2c1.108 0 2-0.892 2-2v-2c0-1.108-0.892-2-2-2h-2zm0 1h2c0.554 0 1 0.446 1 1v2c0 0.554-0.446 1-1 1h-2c-0.554 0-1-0.446-1-1v-2c0-0.554 0.446-1 1-1zm13 2v1c0 0.554-0.446 1-1 1h-1v1h1c1.108 0 2-0.892 2-2v-1h-1z" style="fill:currentColor" class="ColorScheme-Text"/>
</svg>
