<svg width="16" height="16" version="1.1" xmlns="http://www.w3.org/2000/svg">
 <g transform="translate(.89198 -.37964)" fill="#363636" stroke-linecap="square" style="paint-order:stroke fill markers" aria-label="">
  <path transform="translate(-.89198 .37964)" d="m3 1c-1.108 0-2 0.892-2 2v10c0 1.108 0.892 2 2 2h1a4 4 0 0 1 0.29492-1.5078c0.00706-0.0178 0.01-0.037068 0.017578-0.054688 0.00736-0.0173 0.01784-0.031688 0.025391-0.048828a4 4 0 0 1 0.29297-0.54297c0.038423-0.06088 0.079694-0.11942 0.12109-0.17773a4 4 0 0 1 0.32422-0.39648c0.00534-0.0057 0.010249-0.011868 0.015625-0.017578 0.026373-0.02799 0.045025-0.062613 0.072266-0.089844 0.031848-0.03185 0.07068-0.055267 0.10352-0.085937a4 4 0 0 1 0.39062-0.32031c0.063812-0.045799 0.1285-0.090642 0.19531-0.13281a4 4 0 0 1 0.48633-0.26367c0.03147-0.01443 0.057828-0.035058 0.089844-0.048828 0.031564-0.01343 0.065811-0.01868 0.097656-0.03125a4 4 0 0 1 0.60352-0.18555c0.035699-0.0077 0.071407-0.014774 0.10742-0.021484a4 4 0 0 1 0.76172-0.074219 4 4 0 0 1 0.25391 0.009766 4.5 4.5 0 0 1 0.60156-1.1484c-0.27426 0.082525-0.5564 0.13867-0.85547 0.13867-0.41147 0-0.79941-0.078124-1.1641-0.23438-0.36457-0.16145-0.6823-0.37761-0.95312-0.64844s-0.48698-0.58856-0.64844-0.95312c-0.15625-0.36457-0.23438-0.75252-0.23438-1.1641 0-0.41147 0.07812-0.79941 0.23438-1.1641 0.16145-0.36457 0.37761-0.6823 0.64844-0.95312s0.58856-0.48438 0.95312-0.64062c0.36459-0.16145 0.75254-0.24219 1.1641-0.24219 0.41147 0 0.79941 0.08073 1.1641 0.24219 0.36457 0.15624 0.6823 0.3698 0.95313 0.64062 0.27082 0.27083 0.48438 0.58856 0.64062 0.95312 0.16145 0.36457 0.24219 0.75252 0.24219 1.1641 0 0.41147-0.080737 0.79941-0.24219 1.1641-0.037302 0.087042-0.088976 0.16244-0.13281 0.24414a4.5 4.5 0 0 1 1.2344-0.36133c0.002203-0.0079743 0.005656-0.015445 0.007813-0.023438 0.08854-0.3333 0.13281-0.67458 0.13281-1.0234 0-0.55207-0.10418-1.0703-0.3125-1.5547-0.20832-0.48959-0.4948-0.91416-0.85938-1.2734-0.35939-0.36457-0.78396-0.65104-1.2734-0.85938-0.48436-0.20832-1.0026-0.3125-1.5547-0.3125-0.55206 0-1.0729 0.10418-1.5625 0.3125-0.48438 0.20832-0.90895 0.4948-1.2734 0.85938-0.35936 0.35938-0.64324 0.78395-0.85156 1.2734-0.20832 0.48436-0.31055 1.0026-0.31055 1.5547 0 0.34891 0.042317 0.69019 0.13086 1.0234 0.088541 0.33333 0.21616 0.65106 0.38281 0.95312 0.17187 0.29686 0.37762 0.57032 0.61719 0.82031 0.23957 0.24478 0.51043 0.45574 0.8125 0.63281-0.36975 0.16145-0.71103 0.3646-1.0234 0.60937-0.31248 0.24478-0.59115 0.52084-0.83594 0.82813-0.24479 0.30728-0.45313 0.64326-0.625 1.0078-0.16666 0.35935-0.28906 0.73439-0.36719 1.125h-0.09375c-0.554 0-1-0.446-1-1v-10c0-0.554 0.446-1 1-1h10c0.554 0 1 0.446 1 1v5.2578a4.5 4.5 0 0 1 1 0.5v-5.7578c0-1.108-0.892-2-2-2h-10z"/>
 </g>
 <path d="m12.5 9c-1.933 0-3.5 1.567-3.5 3.5s1.567 3.5 3.5 3.5 3.5-1.567 3.5-3.5-1.567-3.5-3.5-3.5zm0.91406 2.1719 0.70703 0.70703-2.1211 2.1211-1.4141-1.4141 0.70703-0.70703 0.70703 0.70703 1.4141-1.4141z" fill="#363636" stroke-linecap="square" stroke-width="1.5556" style="paint-order:stroke fill markers"/>
</svg>
