<svg width="16" height="16" version="1.1" xmlns="http://www.w3.org/2000/svg">
 <path d="m5.7422 1.6719c-0.12781 0-0.25558 0.04855-0.35352 0.14648l-4.2422 4.2422c-0.10901 0.10901-0.151 0.25464-0.13867 0.39648-0.012465 0.14198 0.02955 0.28736 0.13867 0.39648l4.2422 4.2422c0.19587 0.19587 0.51116 0.19587 0.70703 0 0.19587-0.19587 0.19587-0.51116 0-0.70703l-3.3887-3.3887h6.293c2.216 0 4 1.784 4 4s-1.784 4-4 4h-7a0.5 0.5 0 0 0-0.5 0.5 0.5 0.5 0 0 0 0.5 0.5 0.5 0.5 0 0 0 0.011719 0h6.9883c2.77 0 5-2.23 5-5s-2.23-5-5-5h-6.3789l3.4746-3.4746c0.19587-0.19587 0.19587-0.51116 0-0.70703-0.097934-0.097934-0.22571-0.14648-0.35352-0.14648z" fill="#363636"/>
</svg>
