<svg width="16" height="16" version="1.1" xmlns="http://www.w3.org/2000/svg">
 <g fill="#363636">
  <path d="m8 3c-2.8405-3e-7 -5.4324 1.0071-7.4863 2.6582a0.5 0.5 0 0 0-0.095703 0.072266 0.5 0.5 0 0 0-0.1543 0.35938 0.5 0.5 0 0 0 0.5 0.5 0.5 0.5 0 0 0 0.31836-0.11328c1.891-1.5388 4.2898-2.4766 6.918-2.4766 2.6282-3e-7 5.0269 0.93772 6.918 2.4766a0.5 0.5 0 0 0 0.31836 0.11328 0.5 0.5 0 0 0 0.5-0.5 0.5 0.5 0 0 0-0.1543-0.35938 0.5 0.5 0 0 0-0.095703-0.072266c-2.0539-1.6511-4.6459-2.6582-7.4863-2.6582zm0 3c-2.0731 0-3.9681 0.71724-5.4883 1.8965a0.5 0.5 0 0 0-0.10156 0.074219 0.5 0.5 0 0 0-0.15625 0.36133 0.5 0.5 0 0 0 0.5 0.5 0.5 0.5 0 0 0 0.32031-0.11523c1.3588-1.0688 3.0627-1.7168 4.9258-1.7168 0.90287-1e-7 1.7673 0.1551 2.5742 0.43359a4.5 4.5 0 0 1 1.5352-0.41602c-1.2308-0.64334-2.623-1.0176-4.1094-1.0176zm0 3c-1.3525-2e-7 -2.5832 0.46892-3.5859 1.2246-0.11034 0.09497-0.16795 0.23918-0.16797 0.38477 0 0.27614 0.22386 0.5 0.5 0.5 0.12436-3.26e-4 0.24413-0.046979 0.33594-0.13086 0.82215-0.60306 1.8199-0.97852 2.918-0.97852 0.085502 0 0.16575 0.017002 0.25 0.021484a4.5 4.5 0 0 1 0.46875-0.95898c-0.23677-0.029793-0.47332-0.0625-0.71875-0.0625zm0 3a1 1 0 0 0-1 1 1 1 0 0 0 1 1 1 1 0 0 0 0.62305-0.21875 4.5 4.5 0 0 1-0.5957-1.7812 1 1 0 0 0-0.027344 0z"/>
 </g>
 <path class="error" d="m12.5 8c-1.933 0-3.5 1.567-3.5 3.5s1.567 3.5 3.5 3.5 3.5-1.567 3.5-3.5-1.567-3.5-3.5-3.5zm0 1c0.277 0 0.5 0.223 0.5 0.5v2c0 0.277-0.223 0.5-0.5 0.5s-0.5-0.223-0.5-0.5v-2c0-0.277 0.223-0.5 0.5-0.5zm-0.01172 4a0.5 0.5 0 0 1 0.01172 0 0.5 0.5 0 0 1 0.5 0.5 0.5 0.5 0 0 1-0.5 0.5 0.5 0.5 0 0 1-0.5-0.5 0.5 0.5 0 0 1 0.48828-0.5z" fill="#ff5555"/>
</svg>
