<svg height="16" width="16" xmlns="http://www.w3.org/2000/svg"><g color="#363636" fill="#363636"><path d="M13.5 0c-.277 0-.5.223-.5.5v14c0 .277.223.5.5.5h1c.277 0 .5-.223.5-.5V.5c0-.277-.223-.5-.5-.5h-1zm-3 3c-.277 0-.5.223-.5.5V7h1c.139 0 .276.005.406.031.041.01.085.02.125.031.168.046.322.134.47.22V3.5c0-.277-.224-.5-.5-.5h-1zm-3 3c-.277 0-.5.223-.5.5V7h2v-.5c0-.277-.223-.5-.5-.5h-1zM4 10.719V14.5c0 .277.223.5.5.5h1c.277 0 .5-.223.5-.5V11H5c-.183 0-.363-.017-.531-.063-.032-.008-.063-.02-.094-.03-.133-.044-.256-.12-.375-.188zm8 0c-.072.041-.142.092-.219.125a2.038 2.038 0 0 1-.25.093 2.024 2.024 0 0 1-.53.063h-1v3.5c0 .277.222.5.5.5h1c.276 0 .5-.223.5-.5v-3.781zM7 11v3.5c0 .277.223.5.5.5h1c.277 0 .5-.223.5-.5V11H7zm-5.5 1c-.277 0-.5.223-.5.5v2c0 .277.223.5.5.5h1c.277 0 .5-.223.5-.5v-2c0-.277-.223-.5-.5-.5h-1z" style="marker:none" overflow="visible" opacity=".35"/><path d="M5 8a1 1 0 1 0 0 2 1 1 0 0 0 0-2zm3 0a1 1 0 1 0 0 2 1 1 0 0 0 0-2zm3 0a1 1 0 1 0 0 2 1 1 0 0 0 0-2z" style="marker:none" overflow="visible"/></g></svg>