<svg width="16" height="16" version="1.1" xmlns="http://www.w3.org/2000/svg">
 <g fill="#363636">
  <path d="m8 3c-2.8405-3e-7 -5.4324 1.0071-7.4863 2.6582a0.5 0.5 0 0 0-0.095703 0.072266 0.5 0.5 0 0 0-0.1543 0.35938 0.5 0.5 0 0 0 0.5 0.5 0.5 0.5 0 0 0 0.31836-0.11328c1.891-1.5388 4.2898-2.4766 6.918-2.4766 2.6282-3e-7 5.0269 0.93776 6.918 2.4766a0.5 0.5 0 0 0 0.31836 0.11328 0.5 0.5 0 0 0 0.5-0.5 0.5 0.5 0 0 0-0.1543-0.35938 0.5 0.5 0 0 0-0.0957-0.072266c-2.0539-1.6511-4.6459-2.6582-7.4863-2.6582z" fill-rule="evenodd" opacity=".35" style="paint-order:stroke fill markers"/>
  <path d="m8 9c-1.3525-2e-7 -2.5832 0.46891-3.5859 1.2246-0.11034 0.09497-0.16795 0.23918-0.16797 0.38477 0 0.27614 0.22386 0.5 0.5 0.5 0.12436-3.26e-4 0.24413-0.04698 0.33594-0.13086 0.82215-0.60306 1.8199-0.97852 2.918-0.97852 1.0981-2e-7 2.0958 0.37546 2.918 0.97852 0.09181 0.08388 0.21158 0.13053 0.33594 0.13086 0.27614 0 0.5-0.22386 0.5-0.5-1.6e-5 -0.14559-0.05762-0.2898-0.16797-0.38477-1.0027-0.7557-2.2334-1.2246-3.5859-1.2246z"/>
  <path d="m8 6c-2.0731 0-3.9681 0.71726-5.4883 1.8965a0.5 0.5 0 0 0-0.10156 0.074219 0.5 0.5 0 0 0-0.15625 0.36133 0.5 0.5 0 0 0 0.5 0.5 0.5 0.5 0 0 0 0.32031-0.11523c1.3588-1.0688 3.0627-1.7168 4.9258-1.7168 1.8631-2e-7 3.567 0.64796 4.9258 1.7168a0.5 0.5 0 0 0 0.32031 0.11523 0.5 0.5 0 0 0 0.5-0.5 0.5 0.5 0 0 0-0.15625-0.36133 0.5 0.5 0 0 0-0.10156-0.074219c-1.5202-1.1792-3.4152-1.8965-5.4883-1.8965z" fill-rule="evenodd" style="paint-order:stroke fill markers"/>
  <circle cx="8" cy="13" r="1" fill-rule="evenodd" style="paint-order:stroke fill markers"/>
 </g>
</svg>
