<svg width="16" height="16" xmlns="http://www.w3.org/2000/svg"><path d="M2 1C1.178 1 .5 1.678.5 2.5v11c0 .822.678 1.5 1.5 1.5h12c.823 0 1.5-.678 1.5-1.5v-11c0-.822-.677-1.5-1.5-1.5zm0 1h12c.286 0 .5.214.5.5v8.496h-13V2.5c0-.286.215-.5.5-.5zm-.5 9.996h6.01V14H2a.488.488 0 01-.5-.5zm7.01 0h5.99V13.5c0 .286-.214.5-.5.5H8.51z" color="#000" fill="#363636" font-weight="400" overflow="visible" style="font-feature-settings:normal;font-variant-alternates:normal;font-variant-caps:normal;font-variant-ligatures:normal;font-variant-numeric:normal;font-variant-position:normal;isolation:auto;mix-blend-mode:normal;shape-padding:0;text-decoration-color:#000;text-decoration-line:none;text-decoration-style:solid;text-indent:0;text-orientation:mixed;text-transform:none"/></svg>