<svg height="16" width="16" xmlns="http://www.w3.org/2000/svg"><path d="M8.005 14a2.502 2.502 0 0 1-2.375-3.286c0-.025.017-.051.023-.076.063-.21.998-3.275 2.354-6.023v.005c1.448 3 2.368 6.094 2.368 6.094A2.502 2.502 0 0 1 8 14zM13.5 9a1.5 1.5 0 0 1-1.424-1.97c0-.016.015-.031.015-.046.038-.127.599-1.965 1.412-3.613v.002c.868 1.8 1.42 3.656 1.42 3.656a1.5 1.5 0 0 1-1.425 1.97zm-11 0a1.5 1.5 0 0 1-1.424-1.97c0-.016.015-.032.015-.046.038-.127.599-1.965 1.412-3.613v.002c.868 1.8 1.42 3.656 1.42 3.656a1.5 1.5 0 0 1-1.425 1.97z" fill="#363636" overflow="visible" style="marker:none" color="#000"/></svg>