<svg xmlns="http://www.w3.org/2000/svg" width="16" height="16"><defs><style id="current-color-scheme" type="text/css"></style></defs><path d="M2 0C.892 0 0 .892 0 2v12c0 1.108.892 2 2 2h12c1.108 0 2-.892 2-2V2c0-1.108-.892-2-2-2zm4 4h1v4.293L9.293 6H10V4h1v4.293L13.293 6h1.414l-3 3 3 3h-1.414L11 9.707V12H9.293L7 9.707V12H6v-2c0 .583-.154 1.111-.521 1.479C5.11 11.846 4.583 12 4 12c-.583 0-1.11-.154-1.478-.521C2.155 11.111 2 10.583 2 10h1c0 .417.095.639.228.771.132.133.355.229.772.229.417 0 .64-.096.771-.229.133-.132.229-.354.229-.771 0-.417-.096-.64-.229-.771C4.64 9.096 4.417 9 4 9c-.583 0-1.11-.155-1.478-.521C2.155 8.11 2 7.583 2 7c0-.583.155-1.11.522-1.479C2.89 5.154 3.417 5 4 5s1.11.154 1.479.521C5.846 5.89 6 6.417 6 7zm0 3H5c0-.417-.096-.64-.229-.771C4.64 6.096 4.417 6 4 6c-.417 0-.64.096-.772.229C3.095 6.36 3 6.583 3 7c0 .417.095.64.228.771C3.36 7.904 3.583 8 4 8c.583 0 1.11.155 1.479.521C5.846 8.89 6 9.418 6 10zm4-.293L7.707 9 10 11.293z" fill="currentColor" color="#dedede"/></svg>