<svg xmlns="http://www.w3.org/2000/svg" width="16" height="16"><defs><style id="current-color-scheme" type="text/css"></style></defs><path d="M2 0C.892 0 0 .892 0 2v12c0 1.108.892 2 2 2h12c1.108 0 2-.892 2-2V2c0-1.108-.892-2-2-2zm0 4h1v4.293L5.293 6H6V4h1v4.293L9.293 6h1.414l-3 3 3 3H9.293L7 9.707V12H5.293L3 9.707V12H2zm10 2c.583 0 1.111.154 1.479.521.367.368.521.896.521 1.479h-1c0-.417-.096-.64-.229-.771C12.639 7.096 12.417 7 12 7c-.417 0-.639.096-.771.229C11.096 7.36 11 7.583 11 8v2c0 .417.096.639.229.771.132.133.354.229.771.229.417 0 .639-.096.771-.229.133-.132.229-.354.229-.771h1c0 .583-.154 1.111-.521 1.479-.368.367-.896.521-1.479.521-.583 0-1.111-.154-1.479-.521C10.154 11.111 10 10.583 10 10V8c0-.583.154-1.11.521-1.479C10.889 6.154 11.417 6 12 6zm-6 .707L3.707 9 6 11.293z" fill="currentColor" color="#dedede"/></svg>