<?xml version="1.0" encoding="UTF-8" standalone="no"?>
<!-- Created with Inkscape (http://www.inkscape.org/) -->

<svg
   width="16"
   height="16"
   viewBox="0 0 4.2333332 4.2333335"
   version="1.1"
   id="svg11945"
   inkscape:version="1.1.1 (3bf5ae0d25, 2021-09-20, custom)"
   sodipodi:docname="mintupdate-up-to-date.svg"
   xmlns:inkscape="http://www.inkscape.org/namespaces/inkscape"
   xmlns:sodipodi="http://sodipodi.sourceforge.net/DTD/sodipodi-0.dtd"
   xmlns="http://www.w3.org/2000/svg"
   xmlns:svg="http://www.w3.org/2000/svg">
  <sodipodi:namedview
     id="namedview11947"
     pagecolor="#ffffff"
     bordercolor="#666666"
     borderopacity="1.0"
     inkscape:pageshadow="2"
     inkscape:pageopacity="0.0"
     inkscape:pagecheckerboard="0"
     inkscape:document-units="px"
     showgrid="false"
     units="in"
     inkscape:zoom="32"
     inkscape:cx="2.03125"
     inkscape:cy="11.015625"
     inkscape:window-width="1920"
     inkscape:window-height="996"
     inkscape:window-x="0"
     inkscape:window-y="0"
     inkscape:window-maximized="1"
     inkscape:current-layer="svg11945"
     showguides="true" />
  <defs
     id="defs11942" />
  <path
     id="rect923"
     style="fill:#dedede;stroke-width:3.99999;stroke-linecap:round;stroke-linejoin:round"
     d="M 3 3 C 1.8919999 3 1 3.8919999 1 5 L 1 11 C 1 12.108 1.8919999 13 3 13 L 13 13 C 14.108 13 15 12.108 15 11 L 15 5 C 15 3.8919999 14.108 3 13 3 L 3 3 z M 12.621094 4.7617188 C 12.748905 4.7617167 12.876674 4.8122211 12.974609 4.9101562 C 13.170462 5.1060216 13.17048 5.4213173 12.974609 5.6171875 L 7.5 11.091797 L 4.0253906 7.6171875 C 3.82952 7.4213199 3.8295204 7.1060265 4.0253906 6.9101562 C 4.2212578 6.714289 4.5365479 6.7142936 4.7324219 6.9101562 L 7.5 9.6777344 L 12.267578 4.9101562 C 12.365506 4.8122319 12.493283 4.7617208 12.621094 4.7617188 z "
     transform="scale(0.26458333)" />
</svg>
