<?xml version="1.0" encoding="UTF-8" standalone="no"?>
<!-- Created with Inkscape (http://www.inkscape.org/) -->

<svg
   width="16"
   height="16"
   viewBox="0 0 4.2333332 4.2333335"
   version="1.1"
   id="svg11945"
   inkscape:version="1.1.1 (3bf5ae0d25, 2021-09-20, custom)"
   sodipodi:docname="redshift-status-on.svg"
   xmlns:inkscape="http://www.inkscape.org/namespaces/inkscape"
   xmlns:sodipodi="http://sodipodi.sourceforge.net/DTD/sodipodi-0.dtd"
   xmlns="http://www.w3.org/2000/svg"
   xmlns:svg="http://www.w3.org/2000/svg">
  <sodipodi:namedview
     id="namedview11947"
     pagecolor="#ffffff"
     bordercolor="#666666"
     borderopacity="1.0"
     inkscape:pageshadow="2"
     inkscape:pageopacity="0.0"
     inkscape:pagecheckerboard="0"
     inkscape:document-units="px"
     showgrid="false"
     units="in"
     inkscape:zoom="32"
     inkscape:cx="3.90625"
     inkscape:cy="9.265625"
     inkscape:window-width="1920"
     inkscape:window-height="996"
     inkscape:window-x="0"
     inkscape:window-y="0"
     inkscape:window-maximized="1"
     inkscape:current-layer="svg11945"
     showguides="true" />
  <defs
     id="defs11942" />
  <path
     id="path924"
     style="fill:#dedede;fill-opacity:1;stroke-width:4.99997;stroke-linecap:round;stroke-linejoin:round"
     d="M 8 1 A 4.9999997 4.9999997 0 0 0 3 6 A 4.9999997 4.9999997 0 0 0 6 10.578125 L 6 12 L 10 12 L 10 10.578125 A 4.9999997 4.9999997 0 0 0 13 6 A 4.9999997 4.9999997 0 0 0 8 1 z M 6 13 C 6 13.554 6.4459999 14 7 14 C 7.0000001 14.552285 7.4477153 15 8 15 C 8.5522847 15 8.9999999 14.552285 9 14 C 9.5540001 14 10 13.554 10 13 L 6 13 z "
     transform="scale(0.26458333)" />
</svg>
