<svg width="24" height="24" version="1.1" xmlns="http://www.w3.org/2000/svg">
 <style id="current-color-scheme" type="text/css">.ColorScheme-Text {
            color:#363636;
        }</style>
 <path class="ColorScheme-Text" d="m8.9999 4.0021c-1.4995 0-2.5425 1.0366-2.9316 2.0332l-2.8691 6.4844c-0.00323 0.0076-0.00465 0.01581-0.00781 0.02344l-0.058594 0.15039h0.01172c-0.08705 0.25475-0.14453 0.52362-0.14453 0.80859 0 0.67197 0.26493 1.2782 0.69336 1.7266l-0.49414 1.291c-0.00323 0.0076-0.00465 0.01581-0.00781 0.02344l-0.058594 0.15039h0.011719c-0.08705 0.25475-0.14453 0.52362-0.14453 0.80859 0 1.385 1.115 2.5 2.5 2.5h13c1.385 0 2.5-1.115 2.5-2.5 0-0.28498-0.05748-0.55384-0.14453-0.80859h0.01172l-0.05859-0.15039-0.0039-0.01563c-0.0011-0.0027-0.0028-0.0051-0.0039-0.0078l-0.49414-1.291c0.42843-0.44835 0.69336-1.0546 0.69336-1.7266 0-0.28498-0.05748-0.55384-0.14453-0.80859h0.01172l-0.05859-0.15039-0.0039-0.01563c-0.0011-0.0027-0.0028-0.0051-0.0039-0.0078l-2.8691-6.4844c-0.38916-0.99659-1.4345-2.1159-2.9316-2.0332h-6zm0 1h6c1.108 0 1.7085 0.64988 2 1.3965l2.1465 4.709c-0.21961-0.0627-0.4062-0.10547-0.64648-0.10547h-13c-0.24028 0-0.42883 0.03886-0.64844 0.10156l2.1484-4.7051c0.29153-0.74658 0.892-1.3965 2-1.3965zm-3.5 7h13c0.831 0 1.5 0.669 1.5 1.5s-0.669 1.5-1.5 1.5h-13c-0.831 0-1.5-0.669-1.5-1.5s0.669-1.5 1.5-1.5zm6.9883 1c-0.27156 0.0064-0.48836 0.22837-0.48828 0.5 0 0.27614 0.22386 0.5 0.5 0.5s0.5-0.22386 0.5-0.5-0.22386-0.5-0.5-0.5c-0.0039-4.6e-5 -0.0078-4.6e-5 -0.01172 0zm2 0c-0.27156 0.0064-0.48836 0.22837-0.48828 0.5 0 0.27614 0.22386 0.5 0.5 0.5s0.5-0.22386 0.5-0.5-0.22386-0.5-0.5-0.5c-0.0039-4.6e-5 -0.0078-4.6e-5 -0.01172 0zm2 0c-0.27156 0.0064-0.48836 0.22837-0.48828 0.5 0 0.27614 0.22386 0.5 0.5 0.5s0.5-0.22386 0.5-0.5-0.22386-0.5-0.5-0.5c-0.0039-4.6e-5 -0.0078-4.6e-5 -0.01172 0zm-10.988 3h13c0.831 0 1.5 0.669 1.5 1.5s-0.669 1.5-1.5 1.5h-13c-0.831 0-1.5-0.669-1.5-1.5s0.669-1.5 1.5-1.5zm6.9883 1c-0.27156 0.0064-0.48836 0.22837-0.48828 0.5 0 0.27614 0.22386 0.5 0.5 0.5s0.5-0.22386 0.5-0.5-0.22386-0.5-0.5-0.5c-0.0039-4.6e-5 -0.0078-4.6e-5 -0.01172 0zm2 0c-0.27156 0.0064-0.48836 0.22837-0.48828 0.5 0 0.27614 0.22386 0.5 0.5 0.5s0.5-0.22386 0.5-0.5-0.22386-0.5-0.5-0.5c-0.0039-4.6e-5 -0.0078-4.6e-5 -0.01172 0zm2 0c-0.27156 0.0064-0.48836 0.22837-0.48828 0.5 0 0.27614 0.22386 0.5 0.5 0.5 0.27614 0 0.5-0.22386 0.5-0.5s-0.22386-0.5-0.5-0.5c-0.0039-4.6e-5 -0.0078-4.6e-5 -0.01172 0z" fill="currentColor"/>
</svg>
