<svg width="24" height="24" version="1.1" xmlns="http://www.w3.org/2000/svg">
 <style id="current-color-scheme" type="text/css">.ColorScheme-Text {
            color:#363636;
        }</style>
 <g class="ColorScheme-Text" transform="translate(1,1)" fill="currentColor" fill-rule="evenodd">
  <path d="m11 3c-4.4336 0-8 3.5664-8 8 0 1.9609 0.69922 3.75 1.8633 5.1406l0.71094-0.71094c-0.98438-1.207-1.5742-2.7461-1.5742-4.4297 0-3.8789 3.1211-7 7-7s7 3.1211 7 7c0 1.6836-0.58984 3.2227-1.5742 4.4297l0.71484 0.71094c1.1602-1.3906 1.8594-3.1797 1.8594-5.1406 0-4.4336-3.5664-8-8-8zm0 3c-2.7695 0-5 2.2305-5 5 0 1.1289 0.38281 2.1562 1.0078 2.9922l0.71094-0.70703c-0.45312-0.64844-0.71875-1.4336-0.71875-2.2852 0-2.2148 1.7852-4 4-4s4 1.7852 4 4c0 0.85156-0.26562 1.6367-0.71875 2.2852l0.71094 0.70703c0.625-0.83594 1.0078-1.8633 1.0078-2.9922 0-2.7695-2.2305-5-5-5z"/>
  <path d="m11 9c-1.1094 0-2 0.89062-2 2s0.89062 2 2 2 2-0.89062 2-2-0.89062-2-2-2zm0 1c0.55469 0 1 0.44531 1 1s-0.44531 1-1 1-1-0.44531-1-1 0.44531-1 1-1z"/>
  <path d="m10 12h2v7h-2z"/>
 </g>
</svg>
