<?xml version="1.0" encoding="UTF-8" standalone="no"?>
<svg
   width="20"
   height="20.000149"
   viewBox="0 0 853.78869 853.79504"
   fill="none"
   version="1.1"
   id="svg5"
   sodipodi:docname="ollama-symbolic.svg"
   inkscape:version="1.3.2 (091e20ef0f, 2023-11-25, custom)"
   xmlns:inkscape="http://www.inkscape.org/namespaces/inkscape"
   xmlns:sodipodi="http://sodipodi.sourceforge.net/DTD/sodipodi-0.dtd"
   xmlns="http://www.w3.org/2000/svg"
   xmlns:svg="http://www.w3.org/2000/svg">
  <defs
     id="defs5" />
  <sodipodi:namedview
     id="namedview5"
     pagecolor="#505050"
     bordercolor="#eeeeee"
     borderopacity="1"
     inkscape:showpageshadow="0"
     inkscape:pageopacity="0"
     inkscape:pagecheckerboard="0"
     inkscape:deskcolor="#505050"
     showguides="false"
     inkscape:zoom="23.606557"
     inkscape:cx="13.004861"
     inkscape:cy="9.8065973"
     inkscape:window-width="1374"
     inkscape:window-height="848"
     inkscape:window-x="0"
     inkscape:window-y="0"
     inkscape:window-maximized="1"
     inkscape:current-layer="svg5" />
  <g
     id="g5"
     transform="translate(103.8943,1.5259608e-5)">
    <path
       d="M 140.629,0.23994313 C 132.66,1.5272641 123.097,5.6956941 116.354,10.845014 c -20.413,15.5091 -36.2287,48.4278 -42.9105,89.437996 -2.5133,15.509 -4.2297,37.026 -4.2297,53.455 0,19.371 2.2681,44.136 5.5171,61.239 0.7356,3.801 1.1034,7.173 0.7969,7.418 -0.2452,0.245 -3.249,2.697 -6.6206,5.394 -11.5245,9.195 -24.7043,23.356 -33.7768,36.291 -17.4095,24.704 -28.6888898,52.78 -33.4090698,83.185 -1.83902799,12.015 -2.32943599,36.29 -0.85821199,48.305 3.24895199,27.708 11.58588179,51.125 25.86898179,72.581 l 4.6589,6.927 -1.3486,2.268 c -9.563,16.061 -17.716,39.294 -21.5166498,61.607 -3.00375,17.655 -3.37156,22.375 -3.37156,46.037 0,23.847 0.30651,28.567 3.12635,45.057 3.3715598,19.739 10.2372598,40.642 17.8998598,54.558 2.5134,4.536 8.6435,13.976 9.3791,14.467 0.2452,0.122 -0.4904,2.39 -1.6551,5.026 -8.8274,19.31 -16.3674,44.995 -19.4938,66.635 -2.2068,14.834 -2.5133,19.616 -2.5133,35.248 0,19.922 1.1034,29.608 5.2719,45.485 l 0.613,2.329 H 44.019 70.3172 l -1.7165,-3.249 c -10.605,-19.616 -11.5858,-56.029 -2.452,-92.38 4.1685,-16.797 8.8887,-29.118 17.716,-46.099 l 5.2719,-10.298 v -6.314 c 0,-5.885 -0.1226,-6.559 -2.0229,-10.421 -1.4713,-2.943 -3.4329,-5.456 -6.9271,-8.889 -5.9462,-5.762 -10.2372,-11.831 -13.6701,-19.31 -15.08,-32.735 -18.0225,-81.346 -7.4174,-122.786 4.4137,-17.287 11.7085,-32.673 19.3711,-41.071 5.2106,-5.763 7.9078,-12.199 7.9078,-18.881 0,-6.927 -2.452,-12.628 -7.9691,-18.574 -15.8157,-16.919 -25.5625,-37.517 -29.0567,-61.485 -4.9654,-34.145 4.0459,-71.355 24.5204,-100.84 20.0455,-28.935 48.1824,-47.509 79.6304,-52.474 7.049,-1.165 20.229,-0.981 27.585,0.368 8.031,1.41 13.057,0.98 18.207,-1.472 6.375,-3.003 9.563,-6.743 13.302,-15.325 3.31,-7.662 5.885,-11.831 12.812,-20.474 8.337,-10.36 16.367,-17.41 29.24,-25.931 14.713,-9.624 31.448,-16.612 48.122,-19.984 6.068,-1.226 8.888,-1.41 20.229,-1.41 11.341,0 14.161,0.184 20.229,1.41 24.459,4.966 48.735,17.594 68.106,35.493 4.168,3.862 14.16,16.245 17.348,21.395 1.226,2.022 3.372,6.314 4.72,9.501 3.739,8.582 6.927,12.322 13.302,15.325 4.966,2.391 10.176,2.882 17.9,1.594 12.199,-2.084 21.578,-1.9 33.532,0.552 40.704,8.214 76.136,41.746 91.829,86.68 13.67,39.416 9.808,80.672 -10.544,112.18 -3.433,5.334 -6.866,9.625 -11.831,14.897 -10.728,11.463 -10.728,25.685 -0.061,37.455 17.532,19.187 28.505,66.389 25.194,108.012 -2.206,27.463 -9.256,52.045 -18.942,65.96 -1.716,2.452 -5.271,6.62 -7.969,9.195 -3.494,3.433 -5.455,5.946 -6.927,8.889 -1.9,3.862 -2.023,4.536 -2.023,10.421 v 6.314 l 5.272,10.298 c 8.828,16.981 13.548,29.302 17.716,46.099 9.012,35.861 8.215,71.538 -2.084,91.829 -0.858,1.716 -1.594,3.31 -1.594,3.494 0,0.184 11.709,0.306 26.053,0.306 h 25.992 l 0.674,-2.636 c 0.368,-1.409 0.981,-3.555 1.287,-4.781 0.675,-2.697 2.023,-10.666 3.127,-18.329 1.042,-7.724 1.042,-36.168 0,-44.75 -3.923,-31.141 -10.483,-55.845 -21.21,-79.201 -1.165,-2.636 -1.901,-4.904 -1.656,-5.026 0.307,-0.184 2.023,-2.636 3.862,-5.395 13.364,-20.229 21.578,-45.669 25.747,-79.262 1.103,-9.257 1.103,-49.041 0,-57.93 -2.943,-22.926 -6.498,-38.497 -12.383,-54.251 -2.452,-6.559 -8.95,-20.413 -11.708,-24.888 l -1.349,-2.268 4.659,-6.927 c 14.283,-21.456 22.62,-44.873 25.869,-72.581 1.471,-12.015 0.981,-36.29 -0.858,-48.305 -4.782,-30.467 -16,-58.42 -33.409,-83.185 -9.073,-12.935 -22.253,-27.096 -33.777,-36.291 -3.372,-2.697 -6.376,-5.149 -6.621,-5.394 -0.306,-0.245 0.062,-3.617 0.797,-7.418 7.418,-38.681 7.172,-86.924 -0.613,-124.624596 -6.743,-32.8573 -19.003,-58.9716 -34.819,-74.0516 C 523.209,4.2857941 510.336,-0.86349287 494.888,0.11732413 459.456,2.2015541 430.89,42.966714 419.61,107.21001 c -1.839,10.36 -3.432,22.498 -3.432,25.808 0,1.287 -0.246,2.329 -0.552,2.329 -0.307,0 -2.697,-1.226 -5.272,-2.758 -27.34,-16.184 -57.746,-24.827 -87.354,-24.827 -29.608,0 -60.014,8.643 -87.354,24.827 -2.575,1.532 -4.965,2.758 -5.272,2.758 -0.306,0 -0.552,-1.042 -0.552,-2.329 0,-3.433 -1.655,-15.938 -3.432,-25.808 C 216.152,49.525914 192.674,11.335414 161.472,1.7111341 157.181,0.42381313 144.982,-0.43436787 140.629,0.23994313 Z M 151.051,50.139014 c 8.827,6.9883 18.635,26.9724 24.275,49.3473 1.042,4.045696 2.145,8.704696 2.452,10.420696 0.245,1.656 0.919,5.395 1.471,8.276 2.391,12.996 3.494,27.034 3.617,44.137 l 0.061,16.858 -4.23,6.252 -4.229,6.314 h -9.87 c -11.524,0 -22.988,1.472 -33.961,4.414 -3.923,0.981 -7.724,1.962 -8.459,2.146 -1.165,0.245 -1.349,-0.123 -2.023,-5.15 -3.617,-27.279 -3.433,-57.5 0.552,-82.634 4.413,-28.014096 14.712,-53.392696 24.765,-60.871396 2.391,-1.7778 2.82,-1.7165 5.579,0.4904 z m 349.538,-0.4292 c 6.069,4.475 12.751,16.3674 17.716,31.57 9.992,30.405196 12.812,72.151196 7.54,111.874196 -0.674,5.027 -0.858,5.395 -2.023,5.15 -0.735,-0.184 -4.536,-1.165 -8.459,-2.146 -10.973,-2.942 -22.437,-4.414 -33.961,-4.414 h -9.87 l -4.229,-6.314 -4.23,-6.252 0.061,-16.858 c 0.123,-23.785 2.33,-42.359 7.601,-63.017596 5.579,-22.191 15.448,-42.1751 24.214,-49.1634 2.759,-2.2069 3.188,-2.2682 5.64,-0.4292 z"
       fill="#000000"
       id="path1" />
    <path
       d="m 313.498,358.23701 c -13.303,1.288 -16.919,1.778 -23.295,3.066 -10.36,2.145 -24.214,6.927 -33.838,11.647 -33.47,16.367 -56.519,43.646 -63.569,75.216 -1.41,6.253 -1.594,8.337 -1.594,18.881 0,10.421 0.184,12.689 1.533,18.635 9.379,41.256 47.385,71.723 96.549,77.301 10.666,1.165 56.765,1.165 67.431,0 39.478,-4.475 73.439,-25.869 88.703,-55.907 4.045,-8.03 6.007,-13.241 7.846,-21.394 1.349,-5.946 1.533,-8.214 1.533,-18.635 0,-10.544 -0.184,-12.628 -1.594,-18.881 -10.238,-45.853 -54.742,-81.959 -109.3,-88.825 -7.111,-0.858 -25.746,-1.594 -30.405,-1.104 z m 22.926,33.348 c 18.207,1.962 36.536,8.46 51.248,18.268 7.908,5.272 19.065,16.306 23.846,23.54 5.885,8.949 9.256,18.083 10.789,29.179 0.674,5.088 0.307,8.95 -1.533,17.164 -2.881,12.26 -11.831,25.072 -23.907,34.022 -5.64,4.107 -17.348,10.054 -24.52,12.383 -13.609,4.352 -22.498,5.149 -54.252,4.904 -20.719,-0.184 -24.398,-0.368 -30.344,-1.471 -20.29,-3.801 -36.351,-11.893 -47.998,-24.214 -9.441,-9.931 -13.732,-19.003 -16.061,-33.654 -1.042,-6.805 0.919,-18.084 4.904,-27.586 4.843,-11.586 17.348,-25.991 29.731,-34.267 14.344,-9.563 33.225,-16.367 50.573,-18.206 6.682,-0.736 20.842,-0.736 27.524,-0.062 z"
       fill="#000000"
       id="path2" />
    <path
       d="m 299.584,436.33601 c -4.659,2.513 -7.908,8.888 -6.927,13.608 1.103,5.088 5.578,10.238 12.566,14.468 3.74,2.268 3.985,2.574 4.169,4.842 0.122,1.349 -0.368,5.211 -1.042,8.644 -0.736,3.371 -1.288,6.927 -1.288,7.908 0.062,2.636 2.514,6.927 5.088,9.011 2.269,1.839 2.698,1.9 9.073,2.084 5.824,0.184 7.05,0.061 9.379,-1.042 6.008,-2.943 7.54,-8.337 5.333,-18.697 -1.839,-8.643 -1.471,-9.992 3.127,-12.628 4.842,-2.82 9.992,-7.785 11.524,-11.157 2.943,-6.436 0.245,-13.731 -6.253,-17.103 -1.593,-0.797 -3.555,-1.164 -6.436,-1.164 -4.475,0 -7.356,1.042 -12.628,4.413 l -3.004,1.901 -1.9,-1.165 c -7.785,-4.598 -9.195,-5.149 -13.916,-5.088 -3.371,0 -5.21,0.306 -6.865,1.165 z"
       fill="#000000"
       id="path3" />
    <path
       d="m 150.744,365.16501 c -10.85,3.433 -18.942,11.402 -23.11,22.743 -2.023,5.395 -3.004,13.916 -2.146,18.513 2.023,10.973 11.034,20.965 21.272,23.724 12.873,3.371 22.497,1.164 31.018,-7.295 4.965,-4.843 7.663,-9.073 10.36,-15.939 1.961,-4.842 2.084,-5.7 2.084,-12.566 l 0.061,-7.356 -2.574,-5.272 c -4.108,-8.337 -11.525,-14.529 -20.107,-16.797 -4.843,-1.226 -12.628,-1.164 -16.858,0.245 z"
       fill="#000000"
       id="path4" />
    <path
       d="m 478.153,364.98201 c -8.398,2.268 -15.877,8.52 -19.862,16.735 l -2.574,5.272 0.061,7.356 c 0,6.866 0.123,7.724 2.084,12.566 2.698,6.866 5.395,11.096 10.36,15.939 8.521,8.459 18.145,10.666 31.019,7.295 7.417,-1.962 14.834,-8.215 18.39,-15.51 3.065,-6.191 3.8,-10.666 2.82,-17.716 -2.268,-16.122 -11.709,-27.83 -25.747,-31.937 -4.107,-1.226 -12.076,-1.226 -16.551,0 z"
       fill="#000000"
       id="path5" />
  </g>
</svg>
