<svg width="24" height="24" version="1.1" viewBox="0 0 24 24" xmlns="http://www.w3.org/2000/svg">
 <path d="m12 4.0898a7.9107 7.9107 0 0 0-7.9102 7.9102 7.9107 7.9107 0 0 0 7.9102 7.9102 7.9107 7.9107 0 0 0 7.9102-7.9102 7.9107 7.9107 0 0 0-7.9102-7.9102zm0 0.87316c0.414 0 0.75 0.336 0.75 0.75 0 0.413-0.336 0.75-0.75 0.75s-0.75-0.337-0.75-0.75c0-0.414 0.336-0.75 0.75-0.75zm-2e-3 2.037c2.757 0 5.002 2.244 5.002 5 0 2.757-2.245 5-5.002 5s-4.998-2.243-4.998-5c0-2.756 2.241-5 4.998-5zm2e-3 1.5c-1.93 0-3.5 1.57-3.5 3.5s1.57 3.5 3.5 3.5 3.5-1.57 3.5-3.5-1.57-3.5-3.5-3.5z" fill="#ffffff" fill-rule="evenodd" stroke="#ffffff" stroke-linecap="round" stroke-width=".179"/>
</svg>
