<svg width="24" height="24" enable-background="new" version="1.1" xmlns="http://www.w3.org/2000/svg">
 <title>Paper Symbolic Icon Theme</title>
 <g transform="matrix(1 0 0 1.0001 4 3.9979)" fill="#ffffff" fill-rule="evenodd" stroke-width=".99996">
  <path d="m8 1.002c-1.662 0-3 1.338-3 3v4c0 1.662 1.338 3 3 3s3-1.338 3-3v-4c0-1.662-1.338-3-3-3zm0 1c1.108 0 2 0.892 2 2v4c0 1.108-0.892 2-2 2s-2-0.892-2-2v-4c0-1.108 0.892-2 2-2z" style="paint-order:normal"/>
  <path d="m3.5 6.001c-0.277 0-0.5 0.223-0.5 0.5v1.5c0 2.6008 1.967 4.7248 4.5 4.9746v1.0254h-2c-0.277 0-0.5 0.223-0.5 0.5s0.223 0.5 0.5 0.5h5c0.277 0 0.5-0.223 0.5-0.5s-0.223-0.5-0.5-0.5h-2v-1.0254c2.533-0.24983 4.5-2.3738 4.5-4.9746v-1.5c0-0.277-0.223-0.5-0.5-0.5s-0.5 0.223-0.5 0.5v1.5c0 2.216-1.784 4-4 4s-4-1.784-4-4v-1.5c0-0.277-0.223-0.5-0.5-0.5z" style="paint-order:normal"/>
  <path d="m5 6.002v2c0 1.662 1.338 3 3 3s3-1.338 3-3v-2z" style="paint-order:normal"/>
 </g>
</svg>
