<svg height="16" width="16.046" xmlns="http://www.w3.org/2000/svg"><path d="M8 0C3.588 0 0 3.588 0 8s3.588 8 8 8a7.98 7.98 0 0 0 6.082-2.816 2.551 2.551 0 0 0 1.54-1.02 2.34 2.34 0 0 0 .368-1.852 2.747 2.747 0 0 0-.191-.548A7.986 7.986 0 0 0 16 8c0-4.412-3.588-8-8-8zm0 1c3.872 0 7 3.128 7 7 0 .218-.026.43-.047.643l-1.7-1.565a.5.5 0 0 0-.292-.129.472.472 0 0 0 .016-.392s-.561-1.325-2.02-1.325c-.73 0-1.254.34-1.543.674a2.016 2.016 0 0 0-.388.694c-.177.643.787.909.964.265 0 0 .037-.141.18-.306.142-.165.341-.327.787-.327.891 0 1.082.676 1.082.676.138.27.291.344.41.352l-1.05 2.13c-.287.581-.415 1.22-.32 1.837a2.335 2.335 0 0 0 1.011 1.595c.207.14.43.232.658.303A6.95 6.95 0 0 1 8 15c-3.872 0-7-3.128-7-7s3.128-7 7-7zm1.633 1.387l-.86.51c1.201 2.026 3.563 1.925 3.563 1.925l-.045-.998s-1.757.083-2.658-1.437zM6.397 2.4c-.92 1.51-2.676 1.405-2.676 1.405l-.057.998s2.36.13 3.586-1.881zm-1.44 2.832c-.73 0-1.254.34-1.543.674a2.016 2.016 0 0 0-.389.694c-.177.643.788.909.965.265 0 0 .037-.141.18-.306.142-.165.341-.327.787-.327.891 0 1.082.676 1.082.676.234.626 1.173.274.938-.351 0 0-.561-1.325-2.02-1.325zm8.111 3.034l1.286 1.183c.152.14.273.296.378.455v.004c.035.054.062.108.092.162.081.151.155.304.188.455.08.371.032.72-.211 1.067-.07.1-.15.186-.236.263-.02.018-.042.031-.062.047a1.55 1.55 0 0 1-.23.157l-.063.03a1.55 1.55 0 0 1-.258.1l-.07.02a1.608 1.608 0 0 1-.322.045h-.01a1.552 1.552 0 0 1-.908-.262 1.272 1.272 0 0 1-.58-.916c-.057-.375.02-.82.228-1.242a.5.5 0 0 0 0-.002zM8 11.004a5 5 0 0 0-3.533 1.467l.707.707A4 4 0 0 1 8 12.004a4 4 0 0 1 2.826 1.174l.707-.707A4.999 4.999 0 0 0 8 11.004z" fill="#dedede" overflow="visible" style="marker:none" color="#bebebe"/></svg>