<svg width="16" height="16" version="1.1" xmlns="http://www.w3.org/2000/svg">
 <path d="m5 5c0.55 0 1 0.45 1 1s-0.45 1-1 1-1-0.45-1-1 0.45-1 1-1zm6 0c0.55 0 1 0.45 1 1s-0.45 1-1 1-1-0.45-1-1 0.45-1 1-1zm-4.94 4.5c0.76-0.1 1.61 0.19 2.38 0.96 0.58 0.59 0.98 0.65 1.37 0.6 0.39-0.06 0.82-0.3 1.22-0.63 0.62-0.79 1.64 0.45 0.75 0.91-0.47 0.39-1.06 0.8-1.81 0.91-0.76 0.1-1.63-0.17-2.41-0.94-0.59-0.59-0.96-0.68-1.34-0.63s-0.83 0.31-1.25 0.66c-0.62 0.79-1.64-0.45-0.75-0.91 0.49-0.4 1.09-0.83 1.84-0.93z" fill="#dedede"/>
 <path d="m8 0a8 8 0 0 0-8 8 8 8 0 0 0 8 8 8 8 0 0 0 8-8 8 8 0 0 0-8-8zm0 1a7 7 0 0 1 7 7 7 7 0 0 1-7 7 7 7 0 0 1-7-7 7 7 0 0 1 7-7z" fill="#dedede" stroke-linecap="round" stroke-linejoin="round" stroke-width="2" style="paint-order:stroke fill markers"/>
</svg>
