<svg height="16" width="16" xmlns="http://www.w3.org/2000/svg"><path d="M8 0C3.588 0 0 3.588 0 8s3.588 8 8 8 8-3.588 8-8-3.588-8-8-8zm0 1c3.872 0 7 3.128 7 7s-3.128 7-7 7-7-3.128-7-7 3.128-7 7-7zM4.008 4.475l-.516.859 1.783 1.07-1.783 1.07.516.86 3.215-1.93zm7.984 0l-3.215 1.93 3.215 1.929.516-.86-1.783-1.07 1.783-1.07zM8 10.004a5 5 0 0 0-3.533 1.467l.707.707A4 4 0 0 1 8 11.004a4 4 0 0 1 2.826 1.174l.707-.707A4.999 4.999 0 0 0 8 10.004z" fill="#dedede" overflow="visible" style="marker:none" color="#bebebe"/></svg>