<?xml version="1.0" encoding="UTF-8" standalone="no"?>
<!-- Created with Inkscape (http://www.inkscape.org/) -->

<svg
   width="16"
   height="16"
   viewBox="0 0 4.2333332 4.2333335"
   version="1.1"
   id="svg11945"
   inkscape:version="1.1.1 (3bf5ae0d25, 2021-09-20, custom)"
   sodipodi:docname="battery-level-30-charging-symbolic.svg"
   xmlns:inkscape="http://www.inkscape.org/namespaces/inkscape"
   xmlns:sodipodi="http://sodipodi.sourceforge.net/DTD/sodipodi-0.dtd"
   xmlns="http://www.w3.org/2000/svg"
   xmlns:svg="http://www.w3.org/2000/svg">
  <sodipodi:namedview
     id="namedview11947"
     pagecolor="#ffffff"
     bordercolor="#666666"
     borderopacity="1.0"
     inkscape:pageshadow="2"
     inkscape:pageopacity="0.0"
     inkscape:pagecheckerboard="0"
     inkscape:document-units="px"
     showgrid="false"
     units="in"
     inkscape:zoom="45.254834"
     inkscape:cx="3.9995727"
     inkscape:cy="7.7892231"
     inkscape:window-width="1920"
     inkscape:window-height="996"
     inkscape:window-x="0"
     inkscape:window-y="0"
     inkscape:window-maximized="1"
     inkscape:current-layer="svg11945"
     showguides="true" />
  <defs
     id="defs11942" />
  <path
     id="rect15908"
     style="opacity:0.35;fill:#363636;stroke-width:0.999999"
     d="M 6,1 V 3 H 5 C 4.4460003,3 4,3.4460001 4,4 v 9 c 0,1.108 0.8919998,2 2,2 h 4 c 1.108,0 2,-0.892 2,-2 V 4 C 12,3.4460001 11.554,3 11,3 H 10 V 1 Z"
     transform="scale(0.26458333)"
     sodipodi:nodetypes="ccssssssssccc" />
  <path
     id="rect17200"
     style="opacity:1;fill:#363636;stroke-width:0.763763"
     d="M 4 10 L 4 13 C 4 14.108 4.8919998 15 6 15 L 10 15 C 11.108 15 12 14.108 12 13 L 12 10 L 9 10 L 8 12 L 8 10 L 4 10 z "
     transform="scale(0.26458333)" />
  <path
     d="m 2.1166666,1.3229167 v 0.79375 H 2.6458333 L 2.38125,2.6458333 H 2.1166666 l 0,-0.2645833 H 1.5875 Z"
     style="opacity:1;fill:#363636;stroke-width:0.264583"
     id="path846"
     sodipodi:nodetypes="cccccccc" />
</svg>
