<svg width="16" height="16" version="1.0" xmlns="http://www.w3.org/2000/svg" xmlns:xlink="http://www.w3.org/1999/xlink">
 <path d="m7.9832 1.5504e-4c-1.0497 0.023946-2.2319 0.0856-3.2243 0.746-0.026726 0.016367-0.051167 0.035953-0.072728 0.058281-1.0309 1.1573-0.84375 2.6924-1.0061 3.8699-0.00433 0.00763-0.00837 0.015403-0.012104 0.023313-0.18645 3.0175-0.17614 6.0772 0.30304 9.0919v0.01164c0.15586 0.79816 0.67264 1.6453 1.6243 1.865 0.00926 0.0022 0.014888 0.0096 0.02424 0.01164v-0.01164c1.4439 0.42569 3.0031 0.4258 4.4486 0.10491 0.74867-0.16645 1.5244-0.61242 1.794-1.4221 0.0012-0.0033-0.0012-0.0082 0-0.01164 0.3519-0.96729 0.34509-1.9631 0.4485-2.8674 0.0041-0.0038 0.0082-0.0077 0.0121-0.01164 0.19269-2.901 0.17951-5.8298-0.20607-8.7306-0.053384-0.41138-0.13997-0.86418-0.35152-1.2822-0.20927-0.41348-0.55153-0.78748-1.0546-0.99078-0.0023-7.703e-4 0.0023-0.010744 0-0.011638-0.0035-0.00148-0.0085 0.00148-0.0121 0-0.87949-0.37964-1.8403-0.41041-2.691-0.44294-0.00808-2.5336e-4 -0.016162-2.5336e-4 -0.02424 0z" color="#7b7c7e" fill="#363636" fill-rule="evenodd"/>
</svg>
