<?xml version="1.0" encoding="UTF-8" standalone="no"?>
<!-- Created with Inkscape (http://www.inkscape.org/) -->

<svg
   width="16"
   height="16"
   viewBox="0 0 4.2333332 4.2333335"
   version="1.1"
   id="svg11945"
   inkscape:version="1.1.1 (3bf5ae0d25, 2021-09-20, custom)"
   sodipodi:docname="mintupdate-error.svg"
   xmlns:inkscape="http://www.inkscape.org/namespaces/inkscape"
   xmlns:sodipodi="http://sodipodi.sourceforge.net/DTD/sodipodi-0.dtd"
   xmlns="http://www.w3.org/2000/svg"
   xmlns:svg="http://www.w3.org/2000/svg">
  <sodipodi:namedview
     id="namedview11947"
     pagecolor="#ffffff"
     bordercolor="#666666"
     borderopacity="1.0"
     inkscape:pageshadow="2"
     inkscape:pageopacity="0.0"
     inkscape:pagecheckerboard="0"
     inkscape:document-units="px"
     showgrid="false"
     units="in"
     inkscape:zoom="45.254834"
     inkscape:cx="5.2370096"
     inkscape:cy="7.5903494"
     inkscape:window-width="1920"
     inkscape:window-height="996"
     inkscape:window-x="0"
     inkscape:window-y="0"
     inkscape:window-maximized="1"
     inkscape:current-layer="svg11945"
     showguides="true" />
  <defs
     id="defs11942" />
  <path
     id="rect923"
     class="error"
     style="fill:#ef2929;stroke-width:3.99999;stroke-linecap:round;stroke-linejoin:round"
     d="M 3 3 C 1.8919999 3 1 3.8919999 1 5 L 1 11 C 1 12.108 1.8919999 13 3 13 L 13 13 C 14.108 13 15 12.108 15 11 L 15 5 C 15 3.8919999 14.108 3 13 3 L 3 3 z M 5.2324219 4.5253906 L 8 7.2929688 L 10.767578 4.5253906 L 11.474609 5.2324219 L 8.7070312 8 L 11.474609 10.767578 L 10.767578 11.474609 L 8 8.7070312 L 5.2324219 11.474609 L 4.5253906 10.767578 L 7.2929688 8 L 4.5253906 5.2324219 L 5.2324219 4.5253906 z "
     transform="scale(0.26458333)" />
</svg>
