<?xml version="1.0" encoding="UTF-8" standalone="no"?>
<!-- Created with Inkscape (http://www.inkscape.org/) -->

<svg
   width="16"
   height="16"
   viewBox="0 0 4.2333332 4.2333335"
   version="1.1"
   id="svg11945"
   inkscape:version="1.1.1 (3bf5ae0d25, 2021-09-20, custom)"
   sodipodi:docname="mintupdate-updates-available.svg"
   xmlns:inkscape="http://www.inkscape.org/namespaces/inkscape"
   xmlns:sodipodi="http://sodipodi.sourceforge.net/DTD/sodipodi-0.dtd"
   xmlns="http://www.w3.org/2000/svg"
   xmlns:svg="http://www.w3.org/2000/svg">
  <sodipodi:namedview
     id="namedview11947"
     pagecolor="#ffffff"
     bordercolor="#666666"
     borderopacity="1.0"
     inkscape:pageshadow="2"
     inkscape:pageopacity="0.0"
     inkscape:pagecheckerboard="0"
     inkscape:document-units="px"
     showgrid="false"
     units="in"
     inkscape:zoom="32"
     inkscape:cx="5.3125"
     inkscape:cy="10.703125"
     inkscape:window-width="1920"
     inkscape:window-height="996"
     inkscape:window-x="0"
     inkscape:window-y="0"
     inkscape:window-maximized="1"
     inkscape:current-layer="svg11945"
     showguides="true" />
  <defs
     id="defs11942" />
  <path
     id="rect4926"
     style="fill:#363636;fill-opacity:1;stroke-width:3.99999;stroke-linecap:round;stroke-linejoin:round"
     d="M 3 3 C 1.8919999 3 1 3.8919999 1 5 L 1 11 C 1 12.108 1.8919999 13 3 13 L 12.050781 13 A 2.4999999 2.4999999 0 0 1 12 12.5 A 2.4999999 2.4999999 0 0 1 14.5 10 A 2.4999999 2.4999999 0 0 1 15 10.050781 L 15 5 C 15 3.8919999 14.108 3 13 3 L 3 3 z M 9.2519531 4.2851562 C 9.2576151 4.2878362 11.751953 4.2851562 11.751953 4.2851562 C 12.028953 4.2851562 12.251953 4.5081564 12.251953 4.7851562 C 12.251953 5.0621563 12.028953 5.2851562 11.751953 5.2851562 L 10.921875 5.2851562 C 11.60914 6.0205623 11.995899 6.9898527 12 8 C 12 10.209139 10.209139 12 8 12 C 5.790861 12 4.0000001 10.209139 4 8 C 4.0015745 7.210572 4.2367057 6.4392607 4.6757812 5.7832031 A 0.50000002 0.50000002 0 0 0 4.6777344 5.7832031 A 0.50000002 0.50000002 0 0 1 5.09375 5.5605469 A 0.50000002 0.50000002 0 0 1 5.59375 6.0605469 A 0.50000002 0.50000002 0 0 1 5.5078125 6.3398438 C 5.5068073 6.3408019 5.5066101 6.3426282 5.5058594 6.34375 C 5.1779067 6.8338047 5.0025213 7.4102592 5 8 C 4.9999999 9.6568543 6.3431457 11 8 11 C 9.6568543 11 11 9.6568543 11 8 C 10.99989 7.2685433 10.732269 6.5654092 10.251953 6.0195312 L 10.251953 6.7851562 C 10.251953 7.0621563 10.028953 7.2851563 9.7519531 7.2851562 C 9.4749531 7.2851563 9.2519531 7.0621563 9.2519531 6.7851562 L 9.2519531 4.2851562 z "
     transform="scale(0.26458333)" />
  <circle
     style="fill:#5294e2;fill-opacity:1;stroke-width:0.529165;stroke-linecap:round;stroke-linejoin:round"
     class="Highlight"
     id="path3246-3"
     cx="3.8364584"
     cy="3.3072917"
     r="0.39687499" />
</svg>
