<svg width="64" height="64" xmlns="http://www.w3.org/2000/svg"><defs><linearGradient id="a" x1="49.571" x2="51.714" y1="52.714" y2="54.857" gradientTransform="translate(-68.667 -72.001) scale(2.3333)" gradientUnits="userSpaceOnUse"><stop offset="0"/><stop stop-opacity="0" offset="1"/></linearGradient></defs><g><rect x="8" y="4" width="48" height="56" ry="5" fill="#f5980c" style="paint-order:stroke fill markers"/><path d="M56 46 42 60h9c2.77 0 5-2.23 5-5z" fill="url(#a)" fill-rule="evenodd" opacity=".15" style="paint-order:stroke fill markers"/></g><path d="M22 27v1h-1v12h1v1h20v-1h1V28h-1v-1zm1 1h18a1 1 0 0 0 1 1v10a1 1 0 0 0-1 1H23a1 1 0 0 0-1-1V29a1 1 0 0 0 1-1m9 2a4 4 0 0 0-4 4 4 4 0 0 0 4 4 4 4 0 0 0 4-4 4 4 0 0 0-4-4m0 1a3 3 0 0 1 3 3 3 3 0 0 1-3 3 3 3 0 0 1-3-3 3 3 0 0 1 3-3" fill="#fddda3"/></svg>