<svg width="64" height="64" viewBox="0 0 16.933 16.933" xmlns="http://www.w3.org/2000/svg"><defs><linearGradient id="a" x1="49.571" x2="51.714" y1="52.714" y2="54.857" gradientTransform="translate(-68.667 -72.001) scale(2.3333)" gradientUnits="userSpaceOnUse"><stop offset="0"/><stop stop-opacity="0" offset="1"/></linearGradient></defs><g transform="scale(.26458)"><rect x="8" y="4" width="48" height="56" ry="5" fill="#341c05" style="paint-order:stroke fill markers"/><path d="M56 46 42 60h9c2.77 0 5-2.23 5-5z" fill="url(#a)" fill-rule="evenodd" opacity=".5" style="paint-order:stroke fill markers"/></g><path class="st1" d="m6.817 9.703-.384 1.456c-.01.038-.024.048-.072.048h-.713c-.049 0-.059-.014-.049-.073l1.378-4.821c.024-.087.038-.165.048-.403 0-.034.015-.048.039-.048h1.019c.034 0 .048.01.058.048l1.542 5.234c.01.039 0 .063-.038.063h-.806c-.038 0-.063-.01-.072-.044l-.403-1.46zm1.348-.785c-.136-.539-.456-1.713-.577-2.28h-.01c-.102.567-.359 1.528-.562 2.28zm2.183-2.697c0-.31.218-.495.495-.495.296 0 .494.199.494.495 0 .32-.208.494-.504.494-.281 0-.485-.174-.485-.494zm.058 1.1c0-.038.015-.057.058-.057h.762c.039 0 .058.014.058.058v3.827c0 .039-.01.058-.058.058h-.752c-.048 0-.063-.024-.063-.063V7.322z" fill="#ff7c00"/></svg>