<svg width="64" height="64" viewBox="0 0 16.933 16.933" xmlns="http://www.w3.org/2000/svg"><defs><linearGradient id="a" x1="49.571" x2="51.714" y1="52.714" y2="54.857" gradientTransform="translate(-68.667 -72.001) scale(2.3333)" gradientUnits="userSpaceOnUse"><stop offset="0"/><stop stop-opacity="0" offset="1"/></linearGradient></defs><g transform="scale(.26458)"><rect x="8" y="4" width="48" height="56" ry="5" fill="#84c835" style="paint-order:stroke fill markers"/><path d="M56 46 42 60h9c2.77 0 5-2.23 5-5z" fill="url(#a)" fill-rule="evenodd" opacity=".15" style="paint-order:stroke fill markers"/></g><path d="M7.938 6.615v1.72c0 .073.059.132.132.132h.794a.132.132 0 0 0 .132-.133v-1.72zm.265 1.058h.529v.529h-.53zM8.467 1.058h-.53v.53h.53zm0 .53v.529h.53v-.53zm0 .529h-.53v.529h.53zm0 .529v.529h.53v-.53zm0 .529h-.53v.53h.53zm0 .53v.528h.53v-.529zm0 .528h-.53v.53h.53zm0 .53v.529h.53v-.53zm0 .529h-.53v.529h.53zm0 .529v.529h.53v-.53z" color="#000" fill="#fff"/><path d="m10.646 10.77.803-.803c.123-.123.123-.315 0-.438s-.315-.124-.439 0l-.913.914a3.605 3.605 0 0 0-1.63-.39c-.593 0-1.149.143-1.642.39l-.92-.914c-.124-.124-.315-.124-.439 0s-.123.315 0 .438l.81.809a3.694 3.694 0 0 0-1.513 2.982h7.408a3.683 3.683 0 0 0-1.525-2.988zm-3.502 1.665h-.53v-.53h.53zm3.175 0h-.53v-.53h.53z" fill="#0c2809" opacity=".5"/></svg>