<svg width="64" height="64" viewBox="0 0 16.933 16.933" xmlns="http://www.w3.org/2000/svg"><defs><linearGradient id="a" x1="49.571" x2="51.714" y1="52.714" y2="54.857" gradientTransform="translate(-68.667 -72.001) scale(2.3333)" gradientUnits="userSpaceOnUse"><stop offset="0"/><stop stop-opacity="0" offset="1"/></linearGradient></defs><g transform="scale(.26458)"><rect x="8" y="4" width="48" height="56" ry="5" fill="#008a50" style="paint-order:stroke fill markers"/><path d="M56 46 42 60h9c2.77 0 5-2.23 5-5z" fill="url(#a)" fill-rule="evenodd" opacity=".15" style="paint-order:stroke fill markers"/></g><g fill="#fff" stroke-width=".088"><path d="M8.766 4.762c-1.29.23-2.581.535-3.871.76v5.89c1.283.225 2.567.525 3.848.759h.385V4.762zm-.861 2.31c-.225.46-.45.92-.68 1.379.232.471.469.939.7 1.41a48.933 48.933 0 0 1-.607-.038c-.143-.351-.317-.69-.42-1.057-.114.341-.277.664-.409.999-.184-.003-.368-.01-.553-.018.217-.423.425-.85.648-1.27-.189-.434-.397-.86-.592-1.29l.555-.032c.126.329.263.654.366.991.112-.357.277-.694.42-1.04.19-.013.38-.025.572-.034zM9.392 5.82v.53h.794v.53h-.794v.264h.794v.53h-.794v.263h.794v.53h-.794v.264h.794v.53h-.794v.264h.794v.529h-.794v.265h.794v.529h-.794v.529h2.646V5.82zm1.058.53h1.059v.53H10.45zm0 .794h1.059v.53H10.45zm0 .793h1.059v.53H10.45zm0 .794h1.059v.53H10.45zm0 .794h1.059v.529H10.45zm0 .794h1.059v.529H10.45z"/></g></svg>