<svg width="64" height="64" viewBox="0 0 16.933 16.933" xmlns="http://www.w3.org/2000/svg"><defs><linearGradient id="a" x1="49.571" x2="51.714" y1="52.714" y2="54.857" gradientTransform="translate(-18.168 -19.05) scale(.61734)" gradientUnits="userSpaceOnUse"><stop offset="0"/><stop stop-opacity="0" offset="1"/></linearGradient></defs><rect x="2.117" y="1.058" width="12.7" height="14.816" ry="1.323" fill="#fa6a5d" style="paint-order:stroke fill markers"/><path d="m14.816 12.171-3.704 3.704h2.381a1.32 1.32 0 0 0 1.323-1.323z" fill="url(#a)" fill-rule="evenodd" opacity=".15" style="paint-order:stroke fill markers"/><g fill="#fff"><path d="M7.938 6.614v1.72c0 .074.059.133.132.133h.794a.132.132 0 0 0 .132-.133v-1.72zm.265 1.059h.529v.529h-.53zM8.467 1.058h-.53v.53h.53zm0 .53v.529h.53v-.53zm0 .529h-.53v.529h.53zm0 .529v.529h.53v-.53zm0 .529h-.53v.53h.53zm0 .53v.528h.53v-.529zm0 .528h-.53v.53h.53zm0 .53v.529h.53v-.53zm0 .529h-.53v.529h.53zm0 .529v.529h.53v-.53z" color="#000"/><g opacity=".35" stroke-width="1.143"><path d="M5.16 9.128a4.233 4.233 0 0 0-3.043 1.292v.832A3.704 3.704 0 0 1 5.16 9.657a3.704 3.704 0 0 1 3.704 3.704 3.704 3.704 0 0 1-.99 2.514h.686a4.233 4.233 0 0 0 .833-2.514A4.233 4.233 0 0 0 5.16 9.128z"/><path d="M5.16 10.715a2.646 2.646 0 0 0-1.756.671l.375.375a2.117 2.117 0 0 1 1.38-.517 2.117 2.117 0 0 1 2.118 2.117h.529a2.646 2.646 0 0 0-2.646-2.646zm-2.395 1.529a2.646 2.646 0 0 0-.25 1.117h.528a2.117 2.117 0 0 1 .126-.713z"/><path d="m5.871 11.861-1.135 2.634a.635.635 0 0 0-.148.31l-.003.007h.003c-.048.297.117.575.38.641.264.067.54-.1.64-.384h.003v-.015l.013-.04a.644.644 0 0 0 .004-.291z"/></g></g></svg>