<svg width="64" height="64" viewBox="0 0 16.933 16.933" xmlns="http://www.w3.org/2000/svg"><defs><linearGradient id="a" x1="49.571" x2="51.714" y1="52.714" y2="54.857" gradientTransform="translate(-18.168 -19.05) scale(.61734)" gradientUnits="userSpaceOnUse"><stop offset="0"/><stop stop-opacity="0" offset="1"/></linearGradient></defs><rect x="2.117" y="1.058" width="12.7" height="14.816" ry="1.323" fill="#f4f4f4" style="paint-order:stroke fill markers"/><path d="m14.816 12.171-3.704 3.704h2.381a1.32 1.32 0 0 0 1.323-1.323z" fill="url(#a)" fill-rule="evenodd" opacity=".1" style="paint-order:stroke fill markers"/><path transform="scale(.26458)" d="M30.193 18v4.234a9.934 9.934 0 0 0-3.826 1.58l-2.99-2.99-2.553 2.553 2.998 2.998a9.934 9.934 0 0 0-1.586 3.818H18v3.614h4.238a9.934 9.934 0 0 0 1.578 3.824l-2.992 2.992 2.553 2.555 3-3a9.934 9.934 0 0 0 3.816 1.586V46h3.613v-4.238a9.934 9.934 0 0 0 3.823-1.578l2.994 2.994 2.55-2.555-2.997-3a9.934 9.934 0 0 0 1.587-3.816H46v-3.614H41.76a9.934 9.934 0 0 0-1.578-3.822l2.994-2.994-2.554-2.553-3 3a9.934 9.934 0 0 0-3.817-1.588V18h-3.613zM32 26.578A5.418 5.418 0 0 1 37.418 32 5.418 5.418 0 0 1 32 37.418 5.418 5.418 0 0 1 26.578 32 5.418 5.418 0 0 1 32 26.578z" opacity=".35" style="paint-order:stroke markers fill"/><path transform="scale(.26458)" d="M42.918 4a9.934 9.934 0 0 0-.67 2.193H38v3.614h4.238a9.934 9.934 0 0 0 1.58 3.82l-2.996 2.996 2.555 2.555 3.002-3.002a9.934 9.934 0 0 0 3.815 1.588V22h3.613v-4.24A9.934 9.934 0 0 0 56 17.088v-5.443a5.418 5.418 0 0 1-4 1.773A5.418 5.418 0 0 1 46.578 8a5.418 5.418 0 0 1 1.77-4h-5.43zM10.193 42v4.236A9.934 9.934 0 0 0 8 46.908v5.442a5.418 5.418 0 0 1 4-1.772A5.418 5.418 0 0 1 17.418 56a5.418 5.418 0 0 1-1.772 4h5.434a9.934 9.934 0 0 0 .672-2.193H26v-3.614H21.76a9.934 9.934 0 0 0-1.578-3.822l2.994-2.994-2.554-2.555-3.002 3.002a9.934 9.934 0 0 0-3.815-1.586V42h-3.613z" opacity=".15" style="paint-order:stroke markers fill"/></svg>