<svg width="64" height="64" viewBox="0 0 16.933 16.933" xmlns="http://www.w3.org/2000/svg"><defs><linearGradient id="a" x1="49.571" x2="51.714" y1="52.714" y2="54.857" gradientTransform="translate(-68.667 -72.001) scale(2.3333)" gradientUnits="userSpaceOnUse"><stop offset="0"/><stop stop-opacity="0" offset="1"/></linearGradient></defs><g transform="scale(.26458)"><rect x="8" y="4" width="48" height="56" ry="5" fill="#f4f4f4" style="paint-order:stroke fill markers"/><path d="M56 46 42 60h9c2.77 0 5-2.23 5-5z" fill="url(#a)" fill-rule="evenodd" opacity=".1" style="paint-order:stroke fill markers"/></g><g fill="#b3b3b3"><path d="M5.755 6.586h-.31V4.982q0-.338.015-.633l-.479.408-.169-.211.676-.535h.267zM6.656 5.291q0-.661.197-.985.211-.337.62-.337.421 0 .618.337.211.324.211.985 0 .662-.21 1-.198.323-.62.323-.408 0-.62-.323-.196-.338-.196-1zm1.323 0q0-.59-.141-.816-.127-.225-.366-.225-.225 0-.366.225-.126.211-.126.816 0 .62.126.845.14.211.366.211.24 0 .366-.225.14-.225.14-.83zM8.64 5.291q0-.661.197-.985.211-.337.62-.337.422 0 .619.337.21.324.21.985 0 .662-.21 1-.197.323-.62.323-.408 0-.619-.323-.197-.338-.197-1zm1.323 0q0-.59-.14-.816-.127-.225-.366-.225-.226 0-.366.225-.127.211-.127.816 0 .62.127.845.14.211.366.211.239 0 .365-.225.141-.225.141-.83zM10.625 5.291q0-.661.197-.985.211-.337.62-.337.421 0 .618.337.211.324.211.985 0 .662-.21 1-.198.323-.62.323-.408 0-.62-.323-.196-.338-.196-1zm1.323 0q0-.59-.141-.816-.127-.225-.366-.225-.225 0-.366.225-.126.211-.126.816 0 .62.126.845.14.211.366.211.24 0 .366-.225.14-.225.14-.83zM4.672 8.466q0-.66.197-.985.21-.337.619-.337.422 0 .619.337.211.324.211.986 0 .66-.21.999-.198.323-.62.323-.408 0-.62-.323-.196-.338-.196-1zm1.322 0q0-.59-.14-.816-.127-.225-.366-.225-.225 0-.366.225-.127.211-.127.816 0 .62.127.845.14.211.366.211.24 0 .366-.225.14-.225.14-.83zM7.74 9.761h-.31V8.157q0-.338.014-.633l-.478.408-.17-.211.676-.535h.268zM8.64 8.466q0-.66.197-.985.211-.337.62-.337.422 0 .619.337.21.324.21.986 0 .66-.21.999-.197.323-.62.323-.408 0-.619-.323-.197-.338-.197-1zm1.323 0q0-.59-.14-.816-.127-.225-.366-.225-.226 0-.366.225-.127.211-.127.816 0 .62.127.845.14.211.366.211.239 0 .365-.225.141-.225.141-.83zM10.625 8.466q0-.66.197-.985.211-.337.62-.337.421 0 .618.337.211.324.211.986 0 .66-.21.999-.198.323-.62.323-.408 0-.62-.323-.196-.338-.196-1zm1.323 0q0-.59-.141-.816-.127-.225-.366-.225-.225 0-.366.225-.126.211-.126.816 0 .62.126.845.14.211.366.211.24 0 .366-.225.14-.225.14-.83zM4.662 11.641q0-.661.197-.985.21-.337.619-.337.422 0 .619.337.211.324.211.985t-.211 1q-.197.323-.62.323-.407 0-.618-.323-.197-.338-.197-1zm1.322 0q0-.59-.14-.816-.127-.225-.366-.225-.225 0-.366.225-.127.211-.127.816 0 .62.127.845.14.211.366.211.24 0 .366-.225.14-.225.14-.83zM6.646 11.641q0-.661.197-.985.211-.337.62-.337.421 0 .618.337.212.324.212.985t-.212 1q-.197.323-.619.323-.408 0-.619-.323-.197-.338-.197-1zm1.323 0q0-.59-.14-.816-.128-.225-.367-.225-.225 0-.366.225-.126.211-.126.816 0 .62.126.845.141.211.366.211.24 0 .366-.225.14-.225.14-.83zM9.714 12.936h-.31v-1.604q0-.338.014-.633l-.478.408-.169-.211.676-.535h.267zM10.615 11.641q0-.661.197-.985.211-.337.62-.337.421 0 .618.337.211.324.211.985t-.21 1q-.198.323-.62.323-.408 0-.62-.323-.196-.338-.196-1zm1.323 0q0-.59-.141-.816-.127-.225-.366-.225-.225 0-.366.225-.126.211-.126.816 0 .62.126.845.14.211.366.211.24 0 .366-.225.14-.225.14-.83z"/></g></svg>