<svg width="64" height="64" viewBox="0 0 16.933 16.933" xmlns="http://www.w3.org/2000/svg"><defs><linearGradient id="a" x1="49.571" x2="51.714" y1="52.714" y2="54.857" gradientTransform="translate(-68.667 -72.001) scale(2.3333)" gradientUnits="userSpaceOnUse"><stop offset="0"/><stop stop-opacity="0" offset="1"/></linearGradient></defs><g transform="scale(.26458)"><rect x="8" y="4" width="48" height="56" ry="5" fill="#f4f4f4" style="paint-order:stroke fill markers"/><path d="M56 46 42 60h9c2.77 0 5-2.23 5-5z" fill="url(#a)" fill-rule="evenodd" opacity=".1" style="paint-order:stroke fill markers"/></g><g fill="#b3b3b3"><path transform="scale(.26458)" d="M20 28c-2.216 0-4 1.784-4 4s1.784 4 4 4h6a3.975 3.975 0 0 0 3.45-2h-1.247c-.547.605-1.32 1-2.203 1h-6c-1.662 0-3-1.338-3-3s1.338-3 3-3h6c.884 0 1.656.395 2.203 1h1.246A3.975 3.975 0 0 0 26 28h-6zM38 28a3.975 3.975 0 0 0-3.45 2h1.247c.547-.605 1.32-1 2.203-1h6c1.662 0 3 1.338 3 3s-1.338 3-3 3h-6c-.884 0-1.656-.395-2.203-1H34.55c.69 1.193 1.966 2 3.449 2h6c2.216 0 4-1.784 4-4s-1.784-4-4-4h-6z" style="paint-order:fill markers stroke"/></g><path d="M7.673 8.202H9.26a.264.264 0 1 1 0 .53H7.673a.264.264 0 1 1 0-.53z" fill="#b3b3b3" style="paint-order:fill markers stroke"/></svg>