<svg width="64" height="64" viewBox="0 0 16.933 16.933" xmlns="http://www.w3.org/2000/svg"><defs><linearGradient id="a" x1="49.571" x2="51.714" y1="52.714" y2="54.857" gradientTransform="translate(-68.667 -72.001) scale(2.3333)" gradientUnits="userSpaceOnUse"><stop offset="0"/><stop stop-opacity="0" offset="1"/></linearGradient></defs><g transform="scale(.26458)"><rect x="8" y="4" width="48" height="56" ry="5" fill="#55c1ec" style="paint-order:stroke fill markers"/><path d="M56 46 42 60h9c2.77 0 5-2.23 5-5z" fill="url(#a)" fill-rule="evenodd" opacity=".1" style="paint-order:stroke fill markers"/></g><g fill="#fff"><path d="M8.467 6.238a3.44 3.44 0 0 0-3.44 3.44 3.44 3.44 0 0 0 3.44 3.439 3.44 3.44 0 0 0 3.44-3.44 3.44 3.44 0 0 0-3.44-3.44zm0 1.393a2.046 2.046 0 0 1 2.046 2.046 2.046 2.046 0 0 1-2.046 2.045 2.046 2.046 0 0 1-2.046-2.045 2.046 2.046 0 0 1 2.046-2.046z" opacity=".15" style="paint-order:stroke markers fill" transform="translate(.819 -.269) scale(.90322)"/><g style="paint-order:stroke markers fill"><path d="M8.467 5.837a2.628 2.628 0 0 0-2.629 2.629 2.628 2.628 0 0 0 2.629 2.629 2.628 2.628 0 0 0 2.628-2.628 2.628 2.628 0 0 0-2.628-2.629zm0 1.195A1.433 1.433 0 0 1 9.9 8.467 1.433 1.433 0 0 1 8.467 9.9a1.433 1.433 0 0 1-1.435-1.433 1.433 1.433 0 0 1 1.435-1.435z"/><path d="M7.989 4.762h.955v1.673H7.99zm0 5.736h.955v1.673H7.99zm4.182-2.51v.956h-1.673V7.99zm-5.736 0v.956H4.762V7.99zm4.988 2.76-.675.676-1.183-1.184.675-.675zM7.367 6.693l-.674.675-1.184-1.183.676-.676zm-1.182 4.73-.676-.675 1.184-1.183.675.675zm4.055-4.055-.675-.675 1.183-1.184.676.676z"/></g></g></svg>