<svg width="64" height="64" viewBox="0 0 16.933 16.933" xmlns="http://www.w3.org/2000/svg"><defs><linearGradient id="a" x1="49.571" x2="51.714" y1="52.714" y2="54.857" gradientTransform="translate(-68.667 -72.001) scale(2.3333)" gradientUnits="userSpaceOnUse"><stop offset="0"/><stop stop-opacity="0" offset="1"/></linearGradient></defs><g transform="scale(.26458)"><rect x="8" y="4" width="48" height="56" ry="5" fill="#c92429" style="paint-order:stroke fill markers"/><path d="M56 46 42 60h9c2.77 0 5-2.23 5-5z" fill="url(#a)" fill-rule="evenodd" opacity=".15" style="paint-order:stroke fill markers"/></g><path d="M8.632 4.762c-1.29.23-2.581.535-3.871.76v5.89c1.283.225 2.567.525 3.848.759h.384V4.762zm1.521 1.026c-.3.002-.6.027-.895.068v1.095c.83.126 1.695.1 2.495-.17.17-.074.384-.166.419-.372-.048-.251-.33-.346-.54-.424a4.89 4.89 0 0 0-1.479-.197zm2.018 1.047c-.314.252-.719.336-1.107.393a7.075 7.075 0 0 1-1.806.004v1.143c.748.096 1.516.092 2.252-.082.226-.065.477-.132.635-.32.056-.375.007-.759.026-1.138zm-5.08.257c.295.988.575 1.981.867 2.97a23.03 23.03 0 0 1-.61-.047c-.053-.22-.11-.44-.169-.66-.27-.001-.541-.01-.811-.023-.052.209-.105.417-.159.625a52.874 52.874 0 0 0-.517-.037c.258-.929.526-1.854.782-2.783l.616-.045zm-.332.529c-.06.419-.192.822-.28 1.235l.582.003c-.1-.413-.223-.82-.302-1.238zm5.412.625c-.312.251-.714.335-1.101.393-.601.079-1.211.08-1.812.004v1.144c.75.095 1.52.09 2.259-.085.225-.064.475-.131.63-.32.051-.376.007-.758.024-1.136zm0 1.411c-.314.251-.717.336-1.105.393a7.01 7.01 0 0 1-1.808.004c0 .38.003.76-.003 1.14.63.09 1.272.089 1.901-.008.343-.07.74-.12.989-.391.055-.376.008-.76.026-1.138z" fill="#fff"/></svg>