<svg width="64" height="64" viewBox="0 0 16.933 16.933" xmlns="http://www.w3.org/2000/svg"><path d="M3.44 1.058a1.32 1.32 0 0 0-1.323 1.323v12.171c0 .733.59 1.323 1.323 1.323h10.053a1.32 1.32 0 0 0 1.323-1.323V4.233l-3.175-3.175z" fill="#f9f9f9" fill-rule="evenodd" style="paint-order:stroke fill markers"/><path d="M3.44 1.058a1.32 1.32 0 0 0-1.323 1.323v12.171c0 .733.59 1.323 1.323 1.323h10.053a1.32 1.32 0 0 0 1.323-1.323V4.233l-3.174-3.175zm0 .53h7.982l2.865 2.864v10.1a.78.78 0 0 1-.794.793H3.44a.78.78 0 0 1-.793-.794V2.381a.78.78 0 0 1 .793-.794z" color="#000" fill="#b138b4" style="font-feature-settings:normal;font-variant-alternates:normal;font-variant-caps:normal;font-variant-ligatures:normal;font-variant-numeric:normal;font-variant-position:normal;isolation:auto;mix-blend-mode:normal;paint-order:fill markers stroke;shape-padding:0;text-decoration-color:#000;text-decoration-line:none;text-decoration-style:solid;text-indent:0;text-orientation:mixed;text-transform:none;white-space:normal"/><path d="m12.171 1.058 2.646 2.646V2.381a1.32 1.32 0 0 0-1.323-1.323z" fill="#b138b4" fill-rule="evenodd" style="paint-order:stroke fill markers"/><path d="M4.762 5.228v.347h1.62v-.347zm1.852 0v.347H8.35v-.347zm1.968 0v.347h1.736v-.347zm1.968 0v.347h1.62v-.347zm-5.788.579v.463h1.62v-.463zm1.852 0v.463H8.35v-.463zm1.968 0v.463h1.736v-.463zm1.968 0v.463h1.62v-.463zM4.762 6.5v.463h1.62v-.463zm1.852 0v.463H8.35v-.463zm1.968 0v.463h1.736v-.463zm1.968 0v.463h1.62v-.463zm-5.788.695v.463h1.62v-.463zm1.852 0v.463H8.35v-.463zm1.968 0v.463h1.736v-.463zm1.968 0v.463h1.62v-.463zm-5.788.694v.463h1.62V7.89zm1.852 0v.463H8.35V7.89zm1.968 0v.463h1.736V7.89zm1.968 0v.463h1.62V7.89zm-5.788.695v.463h1.62v-.463zm1.852 0v.463H8.35v-.463zm1.968 0v.463h1.736v-.463zm1.968 0v.463h1.62v-.463zm-5.788.694v.463h1.62V9.28zm1.852 0v.463H8.35V9.28zm1.968 0v.463h1.736V9.28zm1.968 0v.463h1.62V9.28zm-5.788.695v.463h1.62v-.463zm1.852 0v.463H8.35v-.463zm1.968 0v.463h1.736v-.463zm1.968 0v.463h1.62v-.463zm-5.788.694v.463h1.62v-.463zm1.852 0v.463H8.35v-.463zm1.968 0v.463h1.736v-.463zm1.968 0v.463h1.62v-.463zm-5.788.695v.347h1.62v-.347zm1.852 0v.347H8.35v-.347zm1.968 0v.347h1.736v-.347zm1.968 0v.347h1.62v-.347z" color="#000" fill="#dc85e9" stroke-width=".571"/><g stroke-width=".571" color="#000"><path d="M5.688 7.08v3.01c0 .415 1.244.752 2.778.752s2.778-.337 2.778-.752V7.08z" fill="#fff"/><path d="M1336.9-1582.9c-4.423 1.105-8 2.64-10.563 4.281-2.562 1.64-4.21 3.592-4.219 5.938-.078 19.65-.062 38.386-.062 54 0 2.294 1.65 4.261 4.22 5.906 2.567 1.645 6.188 3.057 10.593 4.25 8.81 2.386 20.86 3.844 34.188 3.844s25.377-1.458 34.188-3.844c4.405-1.193 8.026-2.605 10.594-4.25 2.568-1.645 4.196-3.623 4.196-5.917v-54c0-2.346-1.696-4.286-4.258-5.927-2.562-1.64-6.162-3.09-10.563-4.281-8.8-2.383-20.826-3.781-34.156-3.781-13.42 0-24.7 1.418-34.157 3.781zm34.156-1.781c13.188-.024 25.115 1.46 33.688 3.781 4.286 1.16 7.736 2.593 10.031 4.063 2.296 1.47 3.462 2.917 3.344 4.156-.21 2.205-2.579 3.735-4.25 4.688-2.711 1.544-5.952 2.709-8.875 3.468-9.98 2.59-19.947 3.535-29.531 3.78-13.261.213-26.41-.73-38.531-3.842-2.813-.733-5.25-1.637-7.656-2.844-2.161-1.082-5.063-2.881-5.28-5.249-.118-1.274 1.047-2.686 3.343-4.156 2.296-1.47 5.697-3.094 10.03-4.063 11.927-2.664 23.655-3.764 33.687-3.782zm-47 16.125a12.121 12.121 0 0 0 2.281 1.812c3.29 1.997 7.309 3.488 10.563 4.281 13.105 3.04 26.118 4.086 38.625 3.72 10.112-.32 20.321-1.07 29.687-3.72 4.635-1.31 9.565-2.896 12.844-6.093v12.875c0 .582 0 1.22-.125 1.719-.273 1.105-1.369 2.436-3.344 3.593-3.264 1.912-6.839 3.083-10 3.938-11.231 2.74-22.915 3.735-33.53 3.75-11.456-.088-23.536-1.125-33.688-3.782-4.357-1.374-8.725-2.561-11.874-5.468-.726-.677-1.134-1.406-1.313-2.031-.162-.567-.124-1.122-.124-1.72v-12.874zm0 18.03c.388.385.835.765 1.313 1.126 3.832 2.648 8.599 4.187 12.75 5.219 11.482 2.606 21.65 3.477 32.938 3.5 11.353-.234 22.474-.814 32.938-3.5 3.704-.967 7.68-2.385 10.688-3.907 1.143-.579 2.937-2.034 3.375-2.438v12.845c0 .581 0 1.22-.125 1.718-.274 1.105-1.403 2.382-3.344 3.594-4.289 2.516-9.373 3.903-13.844 4.875-10.39 2.016-19.91 2.798-29.688 2.812-4.946 0-9.712-.172-14.188-.593-10.05-1.229-18.982-2.152-27.5-6.063a15.468 15.468 0 0 1-3.875-2.593 4.643 4.643 0 0 1-1.312-2.032 2.59 2.59 0 0 1-.124-.718c-.035-4.615 0-9.23 0-13.844zm0 18c1.566 1.542 3.638 2.706 5.531 3.501 8.676 3.597 18.943 5.062 27.125 5.75 4.935.405 9.77.594 14.344.593 11.369-.184 22.449-.886 32.938-3.5 4.219-1.145 8.17-2.41 11.657-4.468.934-.555 1.67-1.193 2.406-1.875v13.844c0 1.296-1.023 2.752-3.312 4.218-2.29 1.466-5.72 2.84-10 4-8.563 2.32-20.506 3.781-33.688 3.781s-25.125-1.462-33.688-3.78c-4.282-1.16-7.71-2.535-10-4-2.29-1.467-3.313-2.923-3.313-4.22v-13.843z" fill="#9a14aa" style="text-decoration-line:none;text-indent:0;text-transform:none" transform="matrix(.05788 0 0 .05788 -70.882 97.98)"/><path d="M11.186 6.963a2.72.695 0 1 1-5.44 0 2.72.695 0 1 1 5.44 0z" fill="#fff"/></g></svg>