<svg width="64" height="64" viewBox="0 0 16.933 16.933" xmlns="http://www.w3.org/2000/svg"><defs><clipPath id="a"><circle transform="translate(-40.845 -23.293) scale(1.0345)" cx="1184.5" cy="675.5" r="16.5" color="#000" fill="#1c99e0" opacity=".228"/></clipPath><clipPath id="b"><circle transform="translate(1987.2 -1698.7) scale(.90909)" cx="1184.5" cy="675.5" r="16.5" color="#000" fill="#1c99e0" opacity=".228"/></clipPath><clipPath id="c"><circle transform="translate(1987.2 -1698.7) scale(.90909)" cx="1184.5" cy="675.5" r="16.5" color="#000" fill="#1c99e0" opacity=".228"/></clipPath><clipPath id="d"><circle transform="translate(1987.2 -1698.7) scale(.90909)" cx="1184.5" cy="675.5" r="16.5" color="#000" fill="#1c99e0" opacity=".228"/></clipPath><clipPath id="e"><circle transform="translate(1987.2 -1698.7) scale(.90909)" cx="1184.5" cy="675.5" r="16.5" color="#000" fill="#1c99e0" opacity=".228"/></clipPath><clipPath id="f"><circle transform="translate(1987.2 -1698.7) scale(.90909)" cx="1184.5" cy="675.5" r="16.5" color="#000" fill="#1c99e0" opacity=".228"/></clipPath><clipPath id="g"><circle transform="translate(1987.2 -1698.7) scale(.90909)" cx="1184.5" cy="675.5" r="16.5" color="#000" fill="#1c99e0" opacity=".228"/></clipPath><clipPath id="h"><circle transform="translate(1987.2 -1698.7) scale(.90909)" cx="1184.5" cy="675.5" r="16.5" color="#000" fill="#1c99e0" opacity=".228"/></clipPath><clipPath id="i"><circle transform="translate(1987.2 -1698.7) scale(.90909)" cx="1184.5" cy="675.5" r="16.5" color="#000" fill="#1c99e0" opacity=".228"/></clipPath></defs><path d="M3.44 1.058a1.32 1.32 0 0 0-1.323 1.323v12.171c0 .733.59 1.323 1.323 1.323h10.053a1.32 1.32 0 0 0 1.323-1.323V4.233l-3.175-3.175z" fill="#f9f9f9" fill-rule="evenodd" style="paint-order:stroke fill markers"/><path d="M3.44 1.058a1.32 1.32 0 0 0-1.323 1.323v12.171c0 .733.59 1.323 1.323 1.323h10.053a1.32 1.32 0 0 0 1.323-1.323V4.233l-3.174-3.175zm0 .53h7.982l2.865 2.864v10.1a.78.78 0 0 1-.794.793H3.44a.78.78 0 0 1-.793-.794V2.381a.78.78 0 0 1 .793-.794z" color="#000" fill="#535353" style="font-feature-settings:normal;font-variant-alternates:normal;font-variant-caps:normal;font-variant-ligatures:normal;font-variant-numeric:normal;font-variant-position:normal;isolation:auto;mix-blend-mode:normal;paint-order:fill markers stroke;shape-padding:0;text-decoration-color:#000;text-decoration-line:none;text-decoration-style:solid;text-indent:0;text-orientation:mixed;text-transform:none;white-space:normal"/><path d="m12.171 1.058 2.646 2.646V2.381a1.32 1.32 0 0 0-1.323-1.323z" fill="#535353" fill-rule="evenodd" style="paint-order:stroke fill markers"/><path d="M4.234 5.292v.529H12.7v-.53zm0 1.058v.53H12.7v-.53zm0 1.058v.53H9.17a2.628 2.628 0 0 1 2.299 0H12.7v-.53zm0 1.058v.53h3.795a2.66 2.66 0 0 1 .401-.53zm7.974 0c.155.158.29.337.402.53h.09v-.53zM4.235 9.525v.529h3.452c.018-.183.058-.36.112-.53zm0 1.058v.53h3.564a2.636 2.636 0 0 1-.112-.53zm0 1.058v.53H8.43a2.66 2.66 0 0 1-.4-.53z" fill="#219bd6"/><circle transform="translate(-154.93 -83.916) scale(.13951)" cx="1184.5" cy="675.5" r="16.5" clip-path="url(#a)" fill="#006eac"/><g fill="none" stroke="#a0dcff" stroke-linecap="round"><path transform="matrix(.15089 0 0 .15078 -452.01 173.84)" d="M3066.2-1069.3c-2.05-12.755-13.592-15.132-19.22-13.189" clip-path="url(#b)" stroke-width=".877"/><g stroke-width=".867"><path transform="translate(-457.4 175.89) scale(.15265)" d="M3068.2-1099.5c-15.829 5.575-16.196 20.815-12.408 27.526" clip-path="url(#c)"/><path transform="translate(-457.36 175.77) scale(.15265)" d="M3078.5-1088.4c-15.558-9.69-30.26-1.165-34.174 5.811" clip-path="url(#d)"/><path transform="translate(-457.4 175.89) scale(.15265)" d="M3062.8-1100.1c15.444 6.567 14.844 21.799 10.639 28.257" clip-path="url(#e)"/><path transform="translate(-457.4 175.89) scale(.15265)" d="M3072.4-1068.2c1.647-20.24-13.394-26.745-21.817-25.116" clip-path="url(#f)"/><path transform="translate(-457.4 175.89) scale(.15265)" d="M3085-1076.9c-15.878-5.435-25.61 6.297-26.798 13.911" clip-path="url(#g)"/><path transform="translate(-457.4 175.89) scale(.15265)" d="M3086.2-1079.9c-14.139-9.04-26.373.053-29.33 7.17" clip-path="url(#h)"/><path transform="translate(-457.4 175.89) scale(.15265)" d="M3078.5-1092.2c-16.771-.62-22.702 13.422-21.641 21.055" clip-path="url(#i)"/></g></g><path d="M4.234 5.82v.133H12.7V5.82zm0 1.059v.132H12.7V6.88zm6.085.794c-.412 0-.8.096-1.149.264H4.234v.132H9.17a2.628 2.628 0 0 1 2.299 0H12.7v-.132h-1.232a2.628 2.628 0 0 0-1.15-.264zm1.968.926c.155.158.24.336.24.529h.174v-.133h-.091a2.68 2.68 0 0 0-.282-.396zm-4.072.124c-.066.087-.13.177-.186.272H4.234v.133h3.878c0-.145.056-.28.103-.405zm-.525 1.302-.004.029H4.234v.132h3.452a1.3 1.3 0 0 0 .004-.161zm-3.456 1.087v.132h3.563l-.037-.132zm0 1.058v.133H8.43a.419.419 0 0 1-.103-.133z" fill="#fff" opacity=".75"/></svg>