<svg width="64" height="64" viewBox="0 0 16.933 16.933" xmlns="http://www.w3.org/2000/svg" xmlns:xlink="http://www.w3.org/1999/xlink"><path d="M3.44 1.058a1.32 1.32 0 0 0-1.323 1.323v12.171c0 .733.59 1.323 1.323 1.323h10.053a1.32 1.32 0 0 0 1.323-1.323V4.233l-3.175-3.175z" fill="#f9f9f9" fill-rule="evenodd" style="paint-order:stroke fill markers"/><path d="M3.44 1.058a1.32 1.32 0 0 0-1.323 1.323v12.171c0 .733.59 1.323 1.323 1.323h10.053a1.32 1.32 0 0 0 1.323-1.323V4.233l-3.174-3.175zm0 .53h7.982l2.865 2.864v10.1a.78.78 0 0 1-.794.793H3.44a.78.78 0 0 1-.793-.794V2.381a.78.78 0 0 1 .793-.794z" color="#000" fill="#ad450d" style="font-feature-settings:normal;font-variant-alternates:normal;font-variant-caps:normal;font-variant-ligatures:normal;font-variant-numeric:normal;font-variant-position:normal;isolation:auto;mix-blend-mode:normal;paint-order:fill markers stroke;shape-padding:0;text-decoration-color:#000;text-decoration-line:none;text-decoration-style:solid;text-indent:0;text-orientation:mixed;text-transform:none;white-space:normal"/><path d="m12.171 1.058 2.646 2.646V2.381a1.32 1.32 0 0 0-1.323-1.323z" fill="#ad450d" fill-rule="evenodd" style="paint-order:stroke fill markers"/><path id="a" d="m8.249 10.639-1.403.926h.565l.197-.064 1.09-.862z" fill="gray" stroke-width=".058"/><use transform="matrix(-1 0 0 1 16.875 0)" width="5033" height="1085" xlink:href="#a"/><g stroke-width=".058"><path d="m8.698 10.639 1.39.926h-.58l-.179-.05-1.094-.876z" fill="gray"/><path color="#000" fill="gray" d="M8.119 10.408h.695v.347h-.695z"/><rect x="4.763" y="5.199" width="7.408" height="5.325" rx=".116" ry=".116" color="#000" fill="#ffe6d5"/><path color="#000" fill="#a40" d="M6.152 7.688h1.736v.232H6.152z"/></g><path d="M5.804 7.802a.116.116 0 1 1-.231 0 .116.116 0 1 1 .231 0z" color="#000" fill="#ff7f2a"/><g stroke-width=".058" color="#000"><path fill="#a40" d="M5.457 5.893h6.019v.289H5.457z"/><path fill="gray" d="M8.467 7.63h3.01v2.083h-3.01z"/><path fill="#f2f2f2" d="M8.64 7.803h2.662v1.736H8.64z"/><path fill="#a40" d="M6.615 6.472h3.704v.289H6.615zM6.152 8.266h1.736v.232H6.152z"/></g><path d="M5.804 8.381a.116.116 0 1 1-.231 0 .116.116 0 1 1 .231 0z" color="#000" fill="#ff7f2a"/><path color="#000" fill="#a40" d="M6.152 8.845h1.736v.232H6.152z"/><path d="M5.804 8.96a.116.116 0 1 1-.231 0 .116.116 0 1 1 .231 0z" color="#000" fill="#ff7f2a"/><path color="#000" fill="#a40" d="M6.152 9.424h1.736v.232H6.152z"/><path d="M5.804 9.539a.116.116 0 1 1-.231 0 .116.116 0 1 1 .231 0z" color="#000" fill="#ff7f2a"/></svg>