<svg width="64" height="64" xmlns="http://www.w3.org/2000/svg"><defs><linearGradient id="a" x1="49.571" x2="51.714" y1="52.714" y2="54.857" gradientTransform="translate(-68.667 -72.001) scale(2.3333)" gradientUnits="userSpaceOnUse"><stop offset="0"/><stop stop-opacity="0" offset="1"/></linearGradient></defs><g><rect x="8" y="4" width="48" height="56" ry="5" fill="#0ac4f0" style="paint-order:stroke fill markers"/><path d="M56 46 42 60h9c2.77 0 5-2.23 5-5z" fill="url(#a)" fill-rule="evenodd" opacity=".15" style="paint-order:stroke fill markers"/></g><path d="M32 17.301 18.637 27.326c-.029.019-.055.042-.082.063l-.016.011v.002c-.326.256-.539.65-.539 1.098v12.199c0 2 1.577 2 2 2h24s2 0 2-2v-12.2c0-.458-.222-.86-.56-1.114l.006-.008L32 17.3zm0 6.398a5 5 0 0 1 5 5v1.5c0 .831-.669 1.5-1.5 1.5a1.496 1.496 0 0 1-1.37-.89 3 3 0 0 1-2.13.89 3 3 0 0 1-3-3 3 3 0 0 1 3-3 3 3 0 0 1 3 3v1.5a.499.499 0 1 0 1 0v-1.5a4 4 0 0 0-4-4 4 4 0 0 0-4 4 4 4 0 0 0 4 4h3.5a.499.499 0 1 1 0 1H32a5 5 0 0 1-5-5 5 5 0 0 1 5-5zm0 3a2 2 0 0 0-2 2 2 2 0 0 0 2 2 2 2 0 0 0 2-2 2 2 0 0 0-2-2z" fill="#fff" opacity=".5"/><path d="M22.5 20.699c-.831 0-1.5.67-1.5 1.5v15.002c0 .83.669 1.498 1.5 1.498h19c.831 0 1.5-.668 1.5-1.498V22.199c0-.83-.669-1.5-1.5-1.5zm9.5 3a5 5 0 0 1 5 5v1.5c0 .831-.669 1.5-1.5 1.5a1.496 1.496 0 0 1-1.37-.89 3 3 0 0 1-2.13.89 3 3 0 0 1-3-3 3 3 0 0 1 3-3 3 3 0 0 1 3 3v1.5a.499.499 0 1 0 1 0v-1.5a4 4 0 0 0-4-4 4 4 0 0 0-4 4 4 4 0 0 0 4 4h3.5a.499.499 0 1 1 0 1H32a5 5 0 0 1-5-5 5 5 0 0 1 5-5zm0 3a2 2 0 0 0-2 2 2 2 0 0 0 2 2 2 2 0 0 0 2-2 2 2 0 0 0-2-2z" fill="#fff"/><path d="m18 28.5 26.6 18.2H20c-1 0-2-.5-2-2z" fill="#bdedfb"/><path d="M44 46.7c2 0 2-2 2-2V28.5L19.4 46.7z" fill="#def8fe"/></svg>