<svg width="64" height="64" viewBox="0 0 16.933 16.933" xmlns="http://www.w3.org/2000/svg"><defs><linearGradient id="a" x1="49.571" x2="51.714" y1="52.714" y2="54.857" gradientTransform="translate(-68.667 -72.001) scale(2.3333)" gradientUnits="userSpaceOnUse"><stop offset="0"/><stop stop-opacity="0" offset="1"/></linearGradient></defs><g transform="scale(.26458)"><rect x="8" y="4" width="48" height="56" ry="5" fill="#f4f4f4" style="paint-order:stroke fill markers"/><path d="M56 46 42 60h9c2.77 0 5-2.23 5-5z" fill="url(#a)" fill-rule="evenodd" opacity=".1" style="paint-order:stroke fill markers"/></g><path d="M6.385 6.614v5.557H5.267V6.614H3.44V5.556H8.2v1.058zm2.082 4.335.9-.395c.087.293.243.517.47.672.229.152.52.228.874.228.335 0 .6-.088.797-.264.2-.176.3-.412.3-.707 0-.386-.34-.729-1.016-1.03a5.24 5.24 0 0 0-.22-.099c-.764-.352-1.222-.67-1.48-.954a1.528 1.528 0 0 1-.378-1.048c0-.534.192-.967.574-1.299.386-.33.89-.497 1.514-.497.512 0 .94.094 1.286.282.344.185.583.453.716.802l-.882.43a1.418 1.418 0 0 0-.46-.452 1.113 1.113 0 0 0-.57-.144c-.304 0-.546.075-.726.224a.745.745 0 0 0-.266.6c0 .394.393.762 1.177 1.102l.142.063c.687.298 1.105.59 1.36.878.258.283.386.638.386 1.065 0 .621-.207 1.116-.622 1.483-.414.364-.974.546-1.68.546-.59 0-1.076-.128-1.456-.385-.376-.257-.623-.624-.74-1.102z" fill="#007acc" font-size="35" font-weight="700" letter-spacing="0" word-spacing="0"/></svg>