<svg width="64" height="64" viewBox="0 0 16.933 16.933" xmlns="http://www.w3.org/2000/svg"><defs><linearGradient id="a" x1="49.571" x2="51.714" y1="52.714" y2="54.857" gradientTransform="translate(-68.667 -72.001) scale(2.3333)" gradientUnits="userSpaceOnUse"><stop offset="0"/><stop stop-opacity="0" offset="1"/></linearGradient></defs><g transform="scale(.26458)"><rect x="8" y="4" width="48" height="56" ry="5" fill="#f4f4f4" style="paint-order:stroke fill markers"/><path d="M56 46 42 60h9c2.77 0 5-2.23 5-5z" fill="url(#a)" fill-rule="evenodd" opacity=".1" style="paint-order:stroke fill markers"/></g><path d="M4.696 10.422c-.234-.052-.365-.144-.44-.31-.035-.078-.04-.134-.049-.605-.01-.493-.012-.524-.053-.608-.053-.11-.157-.166-.33-.18l-.12-.01v-.461l.126-.013c.172-.018.274-.071.325-.17.036-.068.041-.113.046-.37.013-.707.018-.781.05-.859a.446.446 0 0 1 .22-.228c.175-.09.274-.106.753-.116l.45-.01.006 1.3c.005 1.257.007 1.303.043 1.374.066.133.112.153.353.153h.21l.011.082c.007.046.012.132.012.192v.109l-.163.023a1.916 1.916 0 0 1-.33.013c-.297-.018-.48-.12-.578-.325-.092-.19-.1-.307-.1-1.44l-.001-1.045-.098.013c-.14.019-.21.058-.25.138-.029.06-.035.135-.043.541-.009.441-.012.477-.051.558-.055.113-.102.156-.264.242l-.134.072.108.04a.488.488 0 0 1 .288.244c.041.085.044.115.053.57.01.521.016.555.115.63.031.023.091.041.154.046l.145.009v.43l-.195-.002c-.085 0-.206-.013-.269-.027zm7.078-.189v-.217h.13c.121 0 .21-.049.255-.141.033-.068.038-.127.047-.557.009-.452.012-.486.05-.56.05-.095.127-.157.282-.228l.116-.054-.107-.045a.592.592 0 0 1-.291-.254c-.038-.07-.041-.11-.05-.558-.01-.439-.013-.487-.048-.547-.044-.078-.132-.127-.255-.142l-.13-.011v-.437l.227.013c.41.023.614.137.702.374.024.064.032.19.041.609.01.483.015.534.049.594.048.086.179.152.325.165l.112.01v.462l-.12.01c-.154.012-.264.073-.316.174-.035.07-.04.118-.05.595-.012.557-.021.617-.119.747-.093.124-.368.214-.655.215h-.195zm-4.572-.492-.159-.028a1.177 1.177 0 0 1-.496-.25c-.191-.187-.296-.418-.333-.734-.041-.358.033-.717.2-.965a.966.966 0 0 1 .598-.406c.126-.028.4-.028.528 0a.87.87 0 0 1 .594.46c.097.188.128.337.128.61v.23H6.739l.009.07c.03.232.087.353.222.474.116.103.218.135.436.135.205 0 .409-.045.587-.13l.113-.054.075.389-.124.058a1.885 1.885 0 0 1-.268.095c-.14.036-.49.064-.588.046zm.553-1.546c-.02-.244-.148-.413-.351-.463-.317-.077-.585.134-.642.505l-.012.08h1.015zm1.182 1.539c-.276-.032-.572-.131-.556-.187.005-.017.019-.11.031-.205s.026-.175.03-.175.04.017.08.037c.216.112.643.182.818.133.166-.046.257-.204.2-.345-.039-.093-.124-.145-.463-.284-.322-.132-.442-.203-.552-.323-.186-.206-.177-.626.017-.824.169-.17.389-.233.78-.22.268.01.41.038.611.12l.073.029-.064.182a4.54 4.54 0 0 1-.068.187c-.002.002-.07-.02-.152-.05-.463-.166-.828-.102-.828.147 0 .117.108.193.46.325.385.145.561.264.653.44.046.088.05.115.05.304 0 .19-.005.218-.051.314a.699.699 0 0 1-.47.365c-.133.035-.426.05-.6.03zm1.785 0a1.615 1.615 0 0 1-.443-.108l-.112-.045.027-.202c.015-.112.029-.205.032-.209a.26.26 0 0 1 .08.033c.216.112.644.183.818.135.115-.032.207-.124.22-.22.022-.169-.073-.25-.49-.415-.537-.213-.694-.39-.672-.761.018-.313.187-.498.53-.58.097-.022.19-.027.396-.02.27.009.372.028.581.107l.106.04-.065.182c-.036.1-.067.184-.069.186a2.098 2.098 0 0 1-.191-.06c-.328-.111-.59-.107-.72.01-.051.046-.06.068-.06.14 0 .14.066.188.495.352.531.203.682.376.663.761-.01.216-.058.337-.181.454a.731.731 0 0 1-.345.19c-.133.035-.427.05-.6.03z" fill="#234db8"/></svg>