<svg width="64" height="64" xmlns="http://www.w3.org/2000/svg"><defs><linearGradient id="a" x1="49.571" x2="51.714" y1="52.714" y2="54.857" gradientTransform="translate(-68.667 -72.001) scale(2.3333)" gradientUnits="userSpaceOnUse"><stop offset="0"/><stop stop-opacity="0" offset="1"/></linearGradient></defs><g><rect x="8" y="4" width="48" height="56" ry="5" fill="#f4f4f4" style="paint-order:stroke fill markers"/><path d="M56 46 42 60h9c2.77 0 5-2.23 5-5z" fill="url(#a)" fill-rule="evenodd" opacity=".1" style="paint-order:stroke fill markers"/></g><g fill="#95458d"><path d="M23.492 17.5v29h5.02c.018-3.78-.04-7.56.034-11.338.125-1.775.223-4.035 1.914-5.007.93-.535 2.177-.665 3.202-.332 1.503.488 1.755 2.424 1.82 3.819.024 4.286.003 8.572.01 12.858h5c-.01-4.816.038-9.684 0-14.5-.052-2.42-1.043-5.07-3.358-6.175-1.98-.944-4.322-.662-6.33.099-.948.36-2.256 2.108-2.256 2.108L28.512 17.5h-5.02z" color="#000"/><path d="M35 17v3h-3v1h3v3h1v-3h3v-1h-3v-3zM43 17v3h-3v1h3v3h1v-3h3v-1h-3v-3z" opacity=".75"/></g></svg>