<svg width="64" height="64" viewBox="0 0 16.933 16.933" xmlns="http://www.w3.org/2000/svg"><defs><linearGradient id="a" x1="49.571" x2="51.714" y1="52.714" y2="54.857" gradientTransform="translate(-68.667 -72.001) scale(2.3333)" gradientUnits="userSpaceOnUse"><stop offset="0"/><stop stop-opacity="0" offset="1"/></linearGradient></defs><g transform="scale(.26458)"><rect x="8" y="4" width="48" height="56" ry="5" fill="#f4f4f4" style="paint-order:stroke fill markers"/><path d="M56 46 42 60h9c2.77 0 5-2.23 5-5z" fill="url(#a)" fill-rule="evenodd" opacity=".1" style="paint-order:stroke fill markers"/></g><path d="M8.518 10.562q-.4 0-.748-.143-.338-.144-.595-.41-.256-.267-.4-.656-.143-.4-.143-.902 0-.492.154-.87.164-.39.43-.656.267-.277.615-.41.349-.144.728-.144.502 0 .81.144.317.133.43.215l-.195.46q-.154-.081-.4-.173-.235-.103-.645-.103-.564 0-.943.4-.369.4-.369 1.137 0 .759.359 1.168.369.4.994.4.44 0 .686-.092.256-.103.37-.174l.173.491q-.133.082-.471.205-.338.113-.84.113zm3.422-2.1q0 .88-.287 1.567-.287.687-.768 1.168-.472.472-1.107.728-.625.246-1.311.246-.687 0-1.322-.246-.625-.256-1.107-.728-.471-.481-.758-1.168-.287-.686-.287-1.568 0-.87.287-1.557.287-.697.758-1.168.482-.471 1.107-.717.635-.257 1.322-.257.686 0 1.311.257.635.246 1.107.717.481.471.768 1.168.287.687.287 1.557zm-.605 0q0-.708-.215-1.292-.215-.584-.594-.994-.38-.42-.912-.645-.523-.225-1.148-.225T7.31 5.53q-.523.225-.902.645-.38.41-.594.994-.216.584-.216 1.291t.216 1.292q.215.584.594 1.004.38.41.902.645.532.226 1.157.226t1.148-.226q.533-.235.912-.645.38-.42.594-1.004.215-.584.215-1.292z" fill="#999"/></svg>