<svg width="64" height="64" viewBox="0 0 16.933 16.933" xmlns="http://www.w3.org/2000/svg"><defs><linearGradient id="a" x1="49.571" x2="51.714" y1="52.714" y2="54.857" gradientTransform="translate(-68.667 -72.001) scale(2.3333)" gradientUnits="userSpaceOnUse"><stop offset="0"/><stop stop-opacity="0" offset="1"/></linearGradient></defs><g transform="scale(.26458)"><rect x="8" y="4" width="48" height="56" ry="5" fill="#f4f4f4" style="paint-order:stroke fill markers"/><path d="M56 46 42 60h9c2.77 0 5-2.23 5-5z" fill="url(#a)" fill-rule="evenodd" opacity=".1" style="paint-order:stroke fill markers"/></g><path d="M8.372 6.324a2.096 2.096 0 0 0-.991.237l.154.428c.25-.135.505-.202.766-.202.205 0 .362.054.469.16.106.103.16.238.16.404a.585.585 0 0 1-.071.285c-.044.087-.101.17-.173.249-.07.08-.146.158-.225.237-.08.075-.154.159-.226.25-.07.087-.13.182-.178.284A.874.874 0 0 0 7.992 9c0 .088.008.17.024.25h.463a.33.33 0 0 1-.006-.065v-.066c0-.13.026-.247.077-.35.051-.107.115-.204.19-.29.075-.092.158-.179.249-.262s.174-.17.25-.26a1.53 1.53 0 0 0 .19-.292.824.824 0 0 0 .076-.362c0-.106-.017-.217-.053-.332a.759.759 0 0 0-.178-.32.95.95 0 0 0-.35-.232 1.37 1.37 0 0 0-.552-.095zm-1.575 1.11L4.233 8.52v.475l2.564 1.086.154-.457-2.107-.867 2.107-.866zm3.34 0-.155.457 2.106.866-2.106.867.154.457L12.7 8.995V8.52zm-1.86 2.38c-.123 0-.22.04-.29.118-.072.08-.108.172-.108.28s.036.199.107.278c.071.08.168.119.29.119s.22-.04.292-.119.107-.172.107-.279c0-.107-.036-.2-.107-.279a.372.372 0 0 0-.291-.118z" fill="#8f76e4"/></svg>