<svg width="64" height="64" viewBox="0 0 16.933 16.933" xmlns="http://www.w3.org/2000/svg"><defs><linearGradient id="a" x1="49.571" x2="51.714" y1="52.714" y2="54.857" gradientTransform="translate(-68.667 -72.001) scale(2.3333)" gradientUnits="userSpaceOnUse"><stop offset="0"/><stop stop-opacity="0" offset="1"/></linearGradient></defs><g transform="scale(.26458)"><rect x="8" y="4" width="48" height="56" ry="5" fill="#f4f4f4" style="paint-order:stroke fill markers"/><path d="M56 46 42 60h9c2.77 0 5-2.23 5-5z" fill="url(#a)" fill-rule="evenodd" opacity=".1" style="paint-order:stroke fill markers"/></g><g transform="matrix(.00802 0 0 .00802 4.668 4.67)"><path d="M877.79 267.49c49.976 98.079 62.591 210.98 35.499 317.67s-92.043 199.88-182.74 262.21a453.42 453.42 0 0 1-310.24 76.578c-109.28-12.964-210.14-65.22-283.79-147.02-152.35-169.2-155.81-425.03-7.983-598.14 141.02-165.14 378.02-206.18 565.33-101.96a458.041 458.041 0 0 1 26.77 16.117" fill="none" stroke="#888" stroke-dasharray="62.038" stroke-width="16.496"/><circle cx="473.6" cy="473.46" r="362.92" fill="#1a7fd4"/><circle cx="622.07" cy="324.99" r="82.482" fill="#fff"/><circle cx="820.02" cy="127.04" r="82.482" fill="#1a7fd4"/></g></svg>