<svg width="64" height="64" viewBox="0 0 16.933 16.933" xmlns="http://www.w3.org/2000/svg"><defs><linearGradient id="a" x1="49.571" x2="51.714" y1="52.714" y2="54.857" gradientTransform="translate(-68.667 -72.001) scale(2.3333)" gradientUnits="userSpaceOnUse"><stop offset="0"/><stop stop-opacity="0" offset="1"/></linearGradient></defs><g transform="scale(.26458)"><rect x="8" y="4" width="48" height="56" ry="5" fill="#f4f4f4" style="paint-order:stroke fill markers"/><path d="M56 46 42 60h9c2.77 0 5-2.23 5-5z" fill="url(#a)" fill-rule="evenodd" opacity=".1" style="paint-order:stroke fill markers"/></g><path d="m4.42 11.377 1.94-2.91-1.94-2.91h1.456l1.94 2.91-1.94 2.91z" fill="#7839b7"/><path d="m6.36 11.377 1.941-2.91-1.94-2.91h1.455l3.88 5.82h-1.455L9.03 9.557l-1.213 1.82z" fill="#8c59d9"/><path d="m10.37 8.73.705 1.06h1.437V8.73zM9.31 7.143l.706 1.059h2.496V7.143z" fill="#8f76e4"/></svg>