<svg viewBox="0 0 64 64" xmlns="http://www.w3.org/2000/svg"><defs><linearGradient id="a" x1="49.571" x2="51.714" y1="52.714" y2="54.857" gradientTransform="translate(-68.667 -72.001) scale(2.3333)" gradientUnits="userSpaceOnUse"><stop offset="0"/><stop stop-opacity="0" offset="1"/></linearGradient></defs><g><rect x="8" y="4" width="48" height="56" ry="5" fill="#f4f4f4" style="paint-order:stroke fill markers"/><path d="M56 46 42 60h9c2.77 0 5-2.23 5-5z" fill="url(#a)" fill-rule="evenodd" opacity=".1" style="paint-order:stroke fill markers"/></g><path d="M23 21c-1.108 0-2 .892-2 2v18c0 1.108.892 2 2 2h18c1.108 0 2-.892 2-2V23c0-1.108-.892-2-2-2H23zm1 4h1v1h2v-1h1v1h-1v2h1v1h-1v-1h-2v1h-1v-1h1v-2h-1v-1zm12 0h1v1h2v-1h1v1h-1v2h1v1h-1v-1h-2v1h-1v-1h1v-2h-1v-1zm-7 8h6v2h2v2h2v2h-2v-2h-2v-2h-6v2h-2v2h-2v-2h2v-2h2v-2z" color="#000" fill="#d00310" opacity=".75" style="isolation:auto;mix-blend-mode:normal"/></svg>