<svg width="64" height="64" viewBox="0 0 16.933 16.933" xmlns="http://www.w3.org/2000/svg"><defs><linearGradient id="a" x1="49.571" x2="51.714" y1="52.714" y2="54.857" gradientTransform="translate(-68.667 -72.001) scale(2.3333)" gradientUnits="userSpaceOnUse"><stop offset="0"/><stop stop-opacity="0" offset="1"/></linearGradient></defs><g transform="scale(.26458)"><rect x="8" y="4" width="48" height="56" ry="5" fill="#f4f4f4" style="paint-order:stroke fill markers"/><path d="M56 46 42 60h9c2.77 0 5-2.23 5-5z" fill="url(#a)" fill-rule="evenodd" opacity=".1" style="paint-order:stroke fill markers"/></g><g fill="#31c6b7"><path d="M8.376 7.474c-.37.094-.622.164-.985.258-.088.023-.094.03-.17-.059a.785.785 0 0 0-.276-.223c-.369-.181-.726-.128-1.06.088a1.247 1.247 0 0 0-.598 1.114c.005.469.328.856.79.92.4.053.734-.088.997-.386.053-.065.1-.135.159-.217H6.1c-.123 0-.152-.077-.111-.176.076-.182.217-.487.299-.64a.158.158 0 0 1 .146-.093H8.57c-.012.158-.012.317-.035.475a2.5 2.5 0 0 1-.48 1.149c-.423.557-.974.902-1.671.996-.575.076-1.108-.035-1.577-.387a1.841 1.841 0 0 1-.745-1.3c-.076-.64.112-1.214.499-1.718A2.601 2.601 0 0 1 6.2 6.26c.551-.1 1.078-.036 1.553.287.311.205.534.486.68.826.035.053.012.082-.058.1z"/><path d="M10.316 10.715c-.534-.011-1.02-.164-1.43-.515a1.838 1.838 0 0 1-.633-1.132c-.106-.662.076-1.248.474-1.77.428-.563.944-.856 1.642-.979.597-.105 1.16-.047 1.67.3.463.316.75.744.827 1.306.1.792-.13 1.436-.674 1.987a2.686 2.686 0 0 1-1.407.75c-.159.03-.317.036-.47.053zm1.395-2.368c-.006-.076-.006-.135-.018-.193-.105-.58-.639-.909-1.195-.78-.546.123-.897.47-1.026 1.02a.965.965 0 0 0 .539 1.108c.322.14.645.123.955-.035.464-.24.716-.616.745-1.12z"/></g></svg>