<svg width="64" height="64" viewBox="0 0 16.933 16.933" xmlns="http://www.w3.org/2000/svg"><defs><linearGradient id="a" x1="49.571" x2="51.714" y1="52.714" y2="54.857" gradientTransform="translate(-68.667 -72.001) scale(2.3333)" gradientUnits="userSpaceOnUse"><stop offset="0"/><stop stop-opacity="0" offset="1"/></linearGradient></defs><g transform="matrix(0 .26458 .26458 0 0 0)"><rect x="8" y="4" width="48" height="56" ry="5" fill="#4c37d1" style="paint-order:stroke fill markers"/><path d="M56 46 42 60h9c2.77 0 5-2.23 5-5z" fill="url(#a)" fill-rule="evenodd" opacity=".25" style="paint-order:stroke fill markers"/></g><path d="M8.466 4.762a3.704 3.704 0 1 0 0 7.409 3.704 3.704 0 0 0 0-7.409zm0 .794a2.91 2.91 0 1 1 0 5.821 2.91 2.91 0 0 1 0-5.82zm-1.058 1.19v3.44l2.91-1.72z" fill="#fff"/></svg>