<svg width="16" height="16" version="1.1" xmlns="http://www.w3.org/2000/svg">
 <g transform="translate(-812 -443.95)" fill="#363636">
  <path transform="translate(812 443.95)" d="m2.9336 0c-1.6254 0-2.9336 1.3321-2.9336 2.9863v10.027c0 1.6542 1.3082 2.9863 2.9336 2.9863h0.13281c1.6254 0 2.9336-1.3321 2.9336-2.9863v-10.027c0-1.6542-1.3082-2.9863-2.9336-2.9863h-0.13281zm0.066406 1c1.108 0 2 0.892 2 2v10c0 1.108-0.892 2-2 2s-2-0.892-2-2v-10c0-1.108 0.892-2 2-2z"/>
  <path d="M817.408 443.948c.878.713 1.469 1.792 1.469 3v1h2.125c-.074-1.093 1.249-2 2-2 .68 0 1 .011 1 1v1h1.219c1.228-.6 1.78-1.97 1.78-2.688 0-.736-2.385-1.312-3.687-1.312zm1.594 5v4.313c2.766 2.661 6.125 2.406 6.125 2.406s.353-1.52-1.906-4.031l-2.375-2.688h-1.782c-.02.002-.04-.002-.062 0zm2.975 2.532l1.683 1.737c-1.799.165-2.15-.856-1.683-1.737z" overflow="visible"/>
 </g>
</svg>
