<svg width="16" height="16" version="1.1" xmlns="http://www.w3.org/2000/svg">
 <path d="m7.709 0.0039062c-1.0901 0.015676-2.3517 0.20259-3.459 0.78906-1.1073 0.58647-2.0743 1.7558-2.0449 3.291 0.014771 0.77292 0.25319 1.4522 0.68555 1.9102 0.43235 0.45794 0.95666 0.64237 1.3633 0.75195 0.40662 0.10959 0.7364 0.16675 0.88281 0.2207 0.0077899 0.00287 0.0037724-9.967e-4 0.0078124 0 0.21535-0.25989 0.43147-0.51515 0.65039-0.76562-0.78799-0.56379-2.5525-0.080216-2.5918-2.1367-0.044287-2.3123 2.5728-3.0326 4.5195-3.0605 0.13009-0.00187 0.27963-0.00467 0.40234 0 0.72721 0.024067 1.5526 0.2166 2.3262 0.56055 0.28382-0.24332 0.5589-0.46276 0.83789-0.69141-1.0114-0.5333-2.1088-0.83531-3.1309-0.86914-0.16622-0.006073-0.32413-0.001798-0.44922 0zm6.3281 0c-1.8 1.299-4.2053 3.302-6.1133 5.334a23.02 23.02 0 0 0-0.50586 0.54688c-0.103 0.107-0.21145 0.19464-0.31445 0.30664-0.065 0.077-0.12741 0.16323-0.19141 0.24023-0.936 1.035-1.8656 2.2041-2.7109 3.3594-0.33006 0.45105-0.63195 0.89244-0.93164 1.3301-0.31286-0.15951-0.70391-0.18199-1.1211 0.09375-0.754 0.498-0.59644 2.2842-2.1484 2.2832 0.147 0.602 1.7356 0.59417 2.8086 0.32617 1.013-0.253 1.3239-1.1418 1.1309-1.8848-0.026762-0.10285-0.094738-0.20557-0.15625-0.30859 1.9845-1.6435 3.3981-3.0164 4.3594-4.0371 0.24-0.246 0.53056-0.56683 0.85156-0.92383 1.204-1.335 2.925-3.437 5.043-6.666zm-8.0488 1.9961c-1.3356-8.907e-4 -2.0042 1.6137-1.0605 2.5586 0.94364 0.9449 2.5577 0.27696 2.5586-1.0586 0-0.829-0.67105-1.5-1.498-1.5zm7.5098 0.56445c-0.19448 0.27577-0.37441 0.52175-0.56055 0.77734 1.103 1.2428 2.0862 3.0072 2.2383 4.9512 0.38377 4.8859-3.425 7.2933-7.0215 6.5879-2.2448-0.4395-2.5707-1.6483-2.9922-3.0039-0.00904-0.02909-0.011973-0.058701-0.019531-0.087891-0.26726 0.22855-0.53895 0.45718-0.83008 0.69727 0.18337 0.59384 0.39224 1.2399 0.87695 1.8555 0.56837 0.72182 1.4904 1.2683 2.7734 1.5195 2.074 0.40624 4.2312-0.07705 5.834-1.4082 1.6033-1.3316 2.5901-3.525 2.377-6.2383-0.17384-2.2214-1.07-3.8514-2.498-5.4668-0.056414-0.063816-0.12071-0.12015-0.17773-0.18359zm0.10352 3.4375c-1.3333 0-1.3333 2 0 2 1.3333 0 1.3333-2 0-2zm-0.625 3c-1.3333 0-1.3333 2 0 2 1.3333 0 1.3333-2 0-2zm-4.9902 2c-1.3333 0-1.3333 2 0 2 1.2912-0.040846 1.2912-1.9592 0-2zm2.9941 0c-1.3333 0-1.3333 2 0 2 1.2912-0.040846 1.2912-1.9592 0-2z" fill="#363636"/>
</svg>
