<svg xmlns="http://www.w3.org/2000/svg" width="16" height="16"><path d="M2 0v6l1 .75v7.75c0 .831.669 1.5 1.5 1.5S6 15.331 6 14.5V6.75L7 6V0H6v5.5L5 6V0H4v6l-1-.5V0H2zm2 7.11h1v7.39a.499.499 0 1 1-1 0V7.11zM13 0c-1.43 0-2.75.953-3.465 2.5-.714 1.547-.714 3.453 0 5 .134.284.29.551.465.797V14.5c0 .831.669 1.5 1.5 1.5s1.5-.669 1.5-1.5v-7zm-1 1.28V14.5a.499.499 0 1 1-1 0V7.89c-.285-.284-.521-.686-.688-1.167-.347-1.012-.434-2.251-.086-3.263s.95-1.998 1.774-2.18z" style="font-variation-settings:normal" fill="#363636"/></svg>