<svg xmlns="http://www.w3.org/2000/svg" xmlns:xlink="http://www.w3.org/1999/xlink" xmlns:inkscape="http://www.inkscape.org/namespaces/inkscape" viewBox="0 0 32 32">
  <defs
     id="defs3051">
    <style
       type="text/css"
       id="current-color-scheme">
      .ColorScheme-Text {
        color:#363636;
      }
      .ColorScheme-Highlight {
        color:#3daee9;
      }
      </style>
  </defs>
  <defs
     id="defs30">
    <linearGradient
       id="a"
       y1="19.998"
       x1="6"
       y2="7.998"
       gradientUnits="userSpaceOnUse"
       x2="18">
      <stop
         stop-color="#1d99f3"
         id="stop33" />
      <stop
         offset=".417"
         stop-color="#48acf5"
         stop-opacity=".761"
         id="stop35" />
      <stop
         offset=".667"
         stop-color="#73c0f7"
         stop-opacity="0"
         id="stop37" />
      <stop
         offset="1"
         stop-color="#cae7fc"
         stop-opacity="0"
         id="stop39" />
    </linearGradient>
    <path
       id="b"
       d="m11 4c-.973 3.405-3.356 6.344-4.406 8.688-.367.697-.594 1.467-.594 2.313 0 2.77 2.23 5 5 5 2.77 0 5-2.23 5-5 0-.845-.226-1.616-.594-2.313-1.05-2.344-3.433-5.283-4.406-8.688" />
  </defs>
  <use
     fill="#b3b3b3"
     xlink:href="#b"
     transform="matrix(1.5 0 0 1.5-.5-2)"
     id="use42" />
  <path
     style="fill:#777777"
     inkscape:connector-curvature="0"
     id="path46"
     d="M 16,4 C 15.5515,5.572 14.902,7.066 14.1715,8.5 L 16,8.5 Z m 0,4.5 0,6 5.25,0 c -1.0575,-1.821 -2.3175,-3.831 -3.4215,-6 z m 0,6 -5.25,0 c -0.2505,0.432 -0.531,0.855 -0.75,1.266 l 0,4.734 6,0 z m 0,6 0,6 4.5,0 C 21.0715,26.071 21.571,25.5715 22,25 l 0,-4.5 z" />
  <use
     height="100%"
     width="100%"
     y="0"
     x="0"
     style="fill:url(#a)"
     id="use48"
     xlink:href="#b"
     transform="matrix(1.5,0,0,1.5,-0.5,-2)" />
  <path
     style="fill:currentColor;fill-opacity:1;stroke:none" 
     id="path50"
     d="M 16,4 C 14.5405,9.1075 10.966,13.516 9.391,17.032 8.8405,18.0775 8.5,19.2325 8.5,20.5015 c 0,4.155 3.345,7.5 7.5,7.5 4.155,0 7.5,-3.345 7.5,-7.5 0,-1.2675 -0.339,-2.424 -0.891,-3.4695 C 21.034,13.516 17.4595,9.109 16,4 m 0,3 c 1.167,4.1505 4.0365,7.737 5.2965,10.59 0.234,0.45 0.3915,0.9015 0.516,1.407 0.051,0.2085 0.1125,0.438 0.141,0.657 0.0045,0.03 -0.003,0.0645 0,0.0945 C 21.979,19.966 22,20.179 22,20.4055 c 0,0.0315 0,0.0615 0,0.0945 -0.006,0.3885 -0.0675,0.7575 -0.141,1.125 -0.006,0.03 0.006,0.0645 0,0.0945 -0.0795,0.366 -0.1875,0.741 -0.3285,1.0785 -0.006,0.0135 0.006,0.033 0,0.0465 -0.1485,0.351 -0.3555,0.672 -0.5625,0.984 -0.0075,0.012 0.0075,0.036 0,0.0465 -0.21,0.312 -0.441,0.5775 -0.7035,0.8445 -0.2775,0.282 -0.561,0.528 -0.891,0.75 -0.957,0.6555 -2.1285,1.032 -3.375,1.032 -0.4155,0 -0.8265,-0.06 -1.2195,-0.141 C 14.5,26.3035 14.245,26.221 13.9825,26.1265 13.936,26.11 13.888,26.098 13.8415,26.08 c -0.06,-0.024 -0.129,-0.0225 -0.1875,-0.0465 -0.096,-0.0405 -0.1875,-0.0945 -0.282,-0.141 -0.1635,-0.081 -0.3135,-0.186 -0.4695,-0.282 -0.1065,-0.066 -0.225,-0.1155 -0.3285,-0.1875 -0.0285,-0.0195 -0.066,-0.027 -0.0945,-0.0465 -0.2685,-0.195 -0.5175,-0.4215 -0.75,-0.657 -0.225,-0.2295 -0.423,-0.4875 -0.609,-0.75 -0.018,-0.012 -0.0285,-0.0345 -0.0465,-0.0465 -0.6825,-0.9885 -1.0785,-2.211 -1.0785,-3.516 0,-1.0305 0.2625,-1.9635 0.7035,-2.8125 1.26,-2.856 4.1295,-6.444 5.2965,-10.59"
     class="ColorScheme-Text"
     />
</svg>
