<?xml version="1.0" encoding="UTF-8" standalone="no"?>
<svg
   xmlns:dc="http://purl.org/dc/elements/1.1/"
   xmlns:cc="http://creativecommons.org/ns#"
   xmlns:rdf="http://www.w3.org/1999/02/22-rdf-syntax-ns#"
   xmlns:svg="http://www.w3.org/2000/svg"
   xmlns="http://www.w3.org/2000/svg"
   xmlns:xlink="http://www.w3.org/1999/xlink"
   version="1.1"
   id="svg2"
   viewBox="0 0 32 32">
  <metadata
     id="metadata10">
    <rdf:RDF>
      <cc:Work
         rdf:about="">
        <dc:format>image/svg+xml</dc:format>
        <dc:type
           rdf:resource="http://purl.org/dc/dcmitype/StillImage" />
        <dc:title></dc:title>
      </cc:Work>
    </rdf:RDF>
  </metadata>
  <defs
     id="defs8">
    <path
       fill="url(#0)"
       id="H"
       d="m24 8c-8.863992 0-16 7.136008-16 16h16v-16" />
    <path
       fill="url(#3)"
       id="I"
       d="m408.57143 539.798c8.86399 0 16-7.13601 16-16h-16v16" />
    <path
       fill="url(#1)"
       id="J"
       d="m408.57143 539.798c-8.86399 0-16-7.13601-16-16h16v16" />
    <linearGradient
       id="3"
       y1="523.8"
       y2="539.8"
       x1="424.57"
       x2="408.57"
       gradientUnits="userSpaceOnUse">
      <stop
         stop-color="#c1cc00"
         id="stop3346" />
      <stop
         offset="0.312"
         stop-color="#dfcd00"
         id="stop3348" />
      <stop
         offset="0.562"
         stop-color="#f0cc00"
         id="stop3350" />
      <stop
         offset="0.75"
         stop-color="#fd8c08"
         id="stop3352" />
      <stop
         offset="1"
         stop-color="#f25c13"
         id="stop3354" />
    </linearGradient>
    <linearGradient
       id="0"
       y1="24"
       y2="8"
       x1="8"
       x2="24"
       gradientUnits="userSpaceOnUse">
      <stop
         stop-color="#e81877"
         id="stop3357" />
      <stop
         offset="0.312"
         stop-color="#dd1d8c"
         id="stop3359" />
      <stop
         offset="0.562"
         stop-color="#6d57b1"
         id="stop3361" />
      <stop
         offset="0.75"
         stop-color="#2a78c1"
         id="stop3363" />
      <stop
         offset="1"
         stop-color="#018dcb"
         id="stop3365" />
    </linearGradient>
    <linearGradient
       id="2"
       y1="523.8"
       y2="507.8"
       x1="424.57"
       x2="408.57"
       gradientUnits="userSpaceOnUse">
      <stop
         stop-color="#bec900"
         id="stop3368" />
      <stop
         offset="0.312"
         stop-color="#9ec80a"
         id="stop3370" />
      <stop
         offset="0.562"
         stop-color="#71b93d"
         id="stop3372" />
      <stop
         offset="0.75"
         stop-color="#35a48f"
         id="stop3374" />
      <stop
         offset="1"
         stop-color="#018fca"
         id="stop3376" />
    </linearGradient>
    <linearGradient
       id="1"
       y1="523.8"
       y2="539.8"
       x1="392.57"
       x2="408.57"
       gradientUnits="userSpaceOnUse">
      <stop
         stop-color="#e51561"
         id="stop3379" />
      <stop
         offset="0.312"
         stop-color="#e4156c"
         id="stop3381" />
      <stop
         offset="0.562"
         stop-color="#e71e2c"
         id="stop3383" />
      <stop
         offset="0.75"
         stop-color="#e8301e"
         id="stop3385" />
      <stop
         offset="1"
         stop-color="#e6320e"
         id="stop3387" />
    </linearGradient>
    <linearGradient
       y2="507.8"
       x2="408.57"
       y1="523.8"
       x1="424.57"
       gradientUnits="userSpaceOnUse"
       id="linearGradient3480"
       xlink:href="#2" />
    <linearGradient
       y2="507.8"
       x2="408.57"
       y1="523.8"
       x1="424.57"
       gradientUnits="userSpaceOnUse"
       id="linearGradient3482"
       xlink:href="#2" />
    <linearGradient
       y2="539.8"
       x2="408.57"
       y1="523.8"
       x1="392.57"
       gradientUnits="userSpaceOnUse"
       id="linearGradient3484"
       xlink:href="#1" />
    <linearGradient
       y2="507.8"
       x2="408.57"
       y1="523.8"
       x1="424.57"
       gradientUnits="userSpaceOnUse"
       id="linearGradient3486"
       xlink:href="#2" />
    <linearGradient
       y2="507.8"
       x2="408.57"
       y1="523.8"
       x1="424.57"
       gradientUnits="userSpaceOnUse"
       id="linearGradient3488"
       xlink:href="#2" />
  </defs>
  <g
     transform="matrix(1.8733145,0,0,1.8733295,-4.6070532,-1934.8123)"
     id="g3389">
    <g
       transform="matrix(0.38637,0.10353,-0.10353,0.38637,-92.63,796.68)"
       id="g3391">
      <use
         height="100%"
         width="100%"
         y="0"
         x="0"
         xlink:href="#H"
         clip-path="url(#5)"
         transform="translate(384.57,499.8)"
         id="use3393" />
      <use
         height="100%"
         width="100%"
         y="0"
         x="0"
         xlink:href="#J"
         clip-path="url(#6)"
         id="use3395" />
      <path
         style="fill:url(#linearGradient3480)"
         d="m 408.57143,507.798 c 8.86399,0 16,7.13601 16,16 l -16,0 0,-16"
         clip-path="url(#7)"
         id="path3397" />
      <use
         height="100%"
         width="100%"
         y="0"
         x="0"
         xlink:href="#I"
         clip-path="url(#8)"
         id="use3399" />
    </g>
    <g
       style="opacity:0.7"
       transform="matrix(0.4,0,0,0.4,-152.43,831.84)"
       id="g3401">
      <use
         height="100%"
         width="100%"
         y="0"
         x="0"
         style="filter:url(#4)"
         xlink:href="#H"
         clip-path="url(#9)"
         transform="translate(384.57,499.8)"
         id="use3403" />
      <use
         height="100%"
         width="100%"
         y="0"
         x="0"
         style="filter:url(#4)"
         xlink:href="#J"
         clip-path="url(#A)"
         id="use3405" />
      <use
         height="100%"
         width="100%"
         y="0"
         x="0"
         style="filter:url(#4)"
         xlink:href="#I"
         clip-path="url(#B)"
         id="use3407" />
      <path
         style="fill:url(#linearGradient3482);filter:url(#4)"
         d="m 408.57143,507.798 c 8.86399,0 16,7.13601 16,16 l -16,0 0,-16"
         clip-path="url(#C)"
         id="path3409" />
    </g>
    <use
       height="100%"
       width="100%"
       y="0"
       x="0"
       style="opacity:0.35"
       xlink:href="#H"
       clip-path="url(#9)"
       transform="matrix(0.28284,0.28284,-0.28284,0.28284,11,1027.79)"
       id="use3411" />
    <path
       style="opacity:0.35;fill:url(#linearGradient3484)"
       d="m 408.57143,539.798 c -8.86399,0 -16,-7.13601 -16,-16 l 16,0 0,16"
       clip-path="url(#A)"
       transform="matrix(0.28284,0.28284,-0.28284,0.28284,43.591,777.65)"
       id="path3413" />
    <use
       height="100%"
       width="100%"
       y="0"
       x="0"
       style="opacity:0.35"
       xlink:href="#I"
       clip-path="url(#B)"
       transform="matrix(0.28284,0.28284,-0.28284,0.28284,43.591,777.65)"
       id="use3415" />
    <path
       style="opacity:0.35;fill:url(#linearGradient3486)"
       d="m 408.57143,507.798 c 8.86399,0 16,7.13601 16,16 l -16,0 0,-16"
       clip-path="url(#C)"
       transform="matrix(0.28284,0.28284,-0.28284,0.28284,43.591,777.65)"
       id="path3417" />
    <g
       transform="matrix(0.10353,0.38637,-0.38637,0.10353,171.08,829.27)"
       id="g3419">
      <use
         height="100%"
         width="100%"
         y="0"
         x="0"
         style="opacity:0.3"
         xlink:href="#H"
         clip-path="url(#D)"
         transform="translate(384.57,499.8)"
         id="use3421" />
      <use
         height="100%"
         width="100%"
         y="0"
         x="0"
         style="opacity:0.3"
         xlink:href="#J"
         clip-path="url(#E)"
         id="use3423" />
      <use
         height="100%"
         width="100%"
         y="0"
         x="0"
         style="opacity:0.3"
         xlink:href="#I"
         clip-path="url(#F)"
         id="use3425" />
      <path
         style="opacity:0.3;fill:url(#linearGradient3488)"
         d="m 408.57143,507.798 c 8.86399,0 16,7.13601 16,16 l -16,0 0,-16"
         clip-path="url(#G)"
         id="path3427" />
    </g>
  </g>
</svg>
