<svg xmlns="http://www.w3.org/2000/svg" viewBox="0 0 32 32">
  <defs
     id="defs3051">
    <style
       type="text/css"
       id="current-color-scheme">
      .ColorScheme-Text {
        color:#363636;
      }
      .ColorScheme-Highlight {
        color:#3daee9;
      }
      </style>
  </defs>
  <path
     style="fill:currentColor;fill-opacity:1;stroke:none" 
     id="path8"
     d="m 7,4 0,8 -3,0 0,12 6,0 0,4 11,0 0,-1 -10,0 0,-3 11,0 0,-5 -14,0 0,4 -3,0 0,-10 22,0 0,5 1,0 0,-6 -3,0 0,-8 z m 1,1 16,0 0,7 -16,0 z m 2,2 0,1 12,0 0,-1 z m 0,3 0,1 12,0 0,-1 z m 12,5 0,1 4,0 0,-1 z"
     class="ColorScheme-Text"
     />
  <path
     style="fill:currentColor;fill-opacity:1;stroke:none" 
     id="path10"
     d="M 24,28 29,23.5 24,19 Z" 
     class="ColorScheme-Highlight"
     />
</svg>
