<svg xmlns="http://www.w3.org/2000/svg" viewBox="0 0 32 32">
  <defs
     id="defs3051">
    <style
       type="text/css"
       id="current-color-scheme">
      .ColorScheme-Text {
        color:#363636;
      }
      </style>
  </defs>
  <path
     style="fill:currentColor;fill-opacity:1;stroke:none" 
     d="M 6 4 L 6 28 L 15 28 L 15 27 L 7 27 L 7 5 L 18 5 L 18 12 L 25 12 L 25 15 L 26 15 L 26 11 L 19 4 L 18 4 L 6 4 z M 24.5 16 C 23.672 16 23 16.672 23 17.5 C 23 18.328 23.672 19 24.5 19 C 25.328 19 26 18.328 26 17.5 C 26 16.672 25.328 16 24.5 16 z M 21.5 19 C 21.224 19 21 19.224 21 19.5 C 21 19.776 21.224 20 21.5 20 C 21.776 20 22 19.776 22 19.5 C 22 19.224 21.776 19 21.5 19 z M 19.5 20 C 19.224 20 19 20.224 19 20.5 C 19 20.776 19.224 21 19.5 21 C 19.776 21 20 20.776 20 20.5 C 20 20.224 19.776 20 19.5 20 z M 16.5 21 C 15.672 21 15 21.672 15 22.5 C 15 23.328 15.672 24 16.5 24 C 17.328 24 18 23.328 18 22.5 C 18 21.672 17.328 21 16.5 21 z M 19.5 24 C 19.224 24 19 24.224 19 24.5 C 19 24.776 19.224 25 19.5 25 C 19.776 25 20 24.776 20 24.5 C 20 24.224 19.776 24 19.5 24 z M 21.5 25 C 21.224 25 21 25.224 21 25.5 C 21 25.776 21.224 26 21.5 26 C 21.776 26 22 25.776 22 25.5 C 22 25.224 21.776 25 21.5 25 z M 24.5 25 C 23.672 25 23 25.672 23 26.5 C 23 27.328 23.672 28 24.5 28 C 25.328 28 26 27.328 26 26.5 C 26 25.672 25.328 25 24.5 25 z "
     id="path46" 
     class="ColorScheme-Text"
     />
</svg>
