<svg xmlns="http://www.w3.org/2000/svg" viewBox="0 0 32 32">
  <defs
     id="defs3051">
    <style
       type="text/css"
       id="current-color-scheme">
      .ColorScheme-Text {
        color:#363636;
      }
      </style>
  </defs>
  <path
     style="fill:currentColor;fill-opacity:1;stroke:none" 
     d="M 16 4 A 12 12 0 0 0 4 16 A 12 12 0 0 0 16 28 A 12 12 0 0 0 18 27.818359 L 18 26.810547 A 11 11 0 0 1 16 27 A 11 11 0 0 1 5 16 A 11 11 0 0 1 16 5 A 11 11 0 0 1 27 16 A 11 11 0 0 1 26.226562 20 L 27.308594 20 A 12 12 0 0 0 28 16 A 12 12 0 0 0 16 4 z M 15 9 L 15 11 L 17 11 L 17 9 L 15 9 z M 15 13 L 15 23 L 17 23 L 17 13 L 15 13 z M 19 16 L 19.007812 28 L 22.599609 23.076172 L 28 23.076172 L 19 16 z "
     id="path37" 
     class="ColorScheme-Text"
     />
</svg>
