<svg xmlns="http://www.w3.org/2000/svg" viewBox="0 0 32 32">
  <defs id="defs3051">
    <style type="text/css" id="current-color-scheme">
      .ColorScheme-Text {
        color:#363636;
      }
      </style>
  </defs>
 <path 
     style="fill:currentColor;fill-opacity:1;stroke:none" 
     d="M 2,5 2,24.683594 2,27 17,27 17,26 3,26 3,25.111328 3.4296875,24.683594 12.785156,15.541016 16,18.683594 28.976562,6 29,6 l 0,8 1,0 0,-9 z M 3,6 3.0234375,6 12.070312,14.841797 3,23.707031 Z M 4.453125,6 27.546875,6 16,17.285156 Z"
     class="ColorScheme-Text"
     />
    <path
     style="fill:#2ecc71;fill-opacity:1;stroke:none"
     d="M 29.636719,18 22,25.560547 19.089844,22.679687 18.363281,23.40039 21.271484,26.279297 22,27 23.089844,25.919922 30.363281,18.720703 29.636719,18 Z"
     />
</svg>
