<svg xmlns="http://www.w3.org/2000/svg" viewBox="0 0 32 32">
  <defs id="defs3051">
    <style type="text/css" id="current-color-scheme">
      .ColorScheme-Text {
        color:#363636;
      }
      </style>
  </defs>
 <path 
     style="fill:currentColor;fill-opacity:1;stroke:none" 
     d="M 2 5 L 2 24.683594 L 2 27 L 19 27 L 19 26 L 3 26 L 3 25.111328 L 3.4296875 24.683594 L 12.785156 15.541016 L 16 18.683594 L 19.214844 15.541016 L 21 17.285156 L 21 15.888672 L 19.929688 14.841797 L 28.976562 6 L 29 6 L 29 14 L 30 14 L 30 5 L 2 5 z M 3 6 L 3.0234375 6 L 12.070312 14.841797 L 3 23.707031 L 3 6 z M 4.453125 6 L 27.546875 6 L 16 17.285156 L 4.453125 6 z M 26.455078 14.916016 C 25.074372 14.916016 23.955087 16.035301 23.955078 17.416016 L 23.955078 23.451172 L 23.957031 23.451172 C 23.976121 24.265079 24.640948 24.91518 25.455078 24.916016 C 26.283505 24.916016 26.955078 24.244443 26.955078 23.416016 L 26.955078 17.916016 L 25.955078 17.916016 L 25.955078 23.416016 C 25.955078 23.692158 25.731221 23.916016 25.455078 23.916016 C 25.178936 23.916016 24.955078 23.692158 24.955078 23.416016 L 24.955078 17.416016 C 24.955078 16.587589 25.626651 15.916016 26.455078 15.916016 C 27.283505 15.916016 27.955078 16.587589 27.955078 17.416016 L 27.955078 23.416016 C 27.955078 24.796728 26.83579 25.916016 25.455078 25.916016 C 24.074366 25.916016 22.955078 24.796728 22.955078 23.416016 L 22.955078 16.916016 L 21.955078 16.916016 L 21.955078 23.416016 C 21.955078 25.349016 23.522078 26.916024 25.455078 26.916016 C 27.388078 26.916024 28.955086 25.349016 28.955078 23.416016 L 28.955078 17.380859 L 28.953125 17.380859 C 28.933995 16.014653 27.82141 14.916948 26.455078 14.916016 z "
     class="ColorScheme-Text"
     />
</svg>
