<svg version="1.1" viewBox="0 0 32 32" xmlns="http://www.w3.org/2000/svg">
 <defs>
  <style id="current-color-scheme" type="text/css">.ColorScheme-Text {
        color:#363636;
      }</style>
 </defs>
 <path class="ColorScheme-Text" d="m16 4c-0.554 0-1 0.446-1 1v7c0 0.554 0.446 1 1 1s1-0.446 1-1v-7c0-0.554-0.446-1-1-1zm7.5977 2.7148-0.63672 0.77734a11 11 0 0 1 4.0391 8.5078 11 11 0 0 1-11 11 11 11 0 0 1-11-11 11 11 0 0 1 4.0371-8.5098l-0.62891-0.76953a12 12 0 0 0-4.4082 9.2793 12 12 0 0 0 12 12 12 12 0 0 0 12-12 12 12 0 0 0-4.4023-9.2852z" fill="currentColor"/>
</svg>
