<svg version="1.1" viewBox="0 0 32 32" xmlns="http://www.w3.org/2000/svg">
 <linearGradient id="a" x1="12.707" x2="16" y1="5" y2="29.707" gradientUnits="userSpaceOnUse">
  <stop stop-color="#3ab59e" offset="0"/>
  <stop stop-color="#33b097" offset=".25"/>
  <stop stop-color="#16ab8e" offset=".5"/>
  <stop stop-color="#16a68a" offset="1"/>
 </linearGradient>
 <linearGradient id="d" x1="12.195" x2="22.877" y1="1.7285" y2="24.25" gradientUnits="userSpaceOnUse">
  <stop stop-color="#45c9af" offset="0"/>
  <stop stop-color="#38c2a4" offset=".25"/>
  <stop stop-color="#1abf9f" offset=".5"/>
  <stop stop-color="#1abc9c" offset="1"/>
 </linearGradient>
 <linearGradient id="f" x1="12.592" x2="24.107" y1="7.6497" y2="19.165" gradientUnits="userSpaceOnUse">
  <stop stop-color="#17a387" offset="0"/>
  <stop stop-color="#17967d" offset="1"/>
 </linearGradient>
 <linearGradient id="g" x1="8.793" x2="21.207" y1="11.793" y2="24.207" gradientUnits="userSpaceOnUse">
  <stop stop-color="#138770" offset="0"/>
  <stop stop-color="#137a65" offset="1"/>
 </linearGradient>
 <path d="m2.5 5.5v10l13.5 13.5 10-10-13.5-13.5zm5 2.5c1.3807 3e-7 2.5 1.1193 2.5 2.5 0 1.3807-1.1193 2.5-2.5 2.5s-2.5-1.1193-2.5-2.5c0-1.3807 1.1193-2.5 2.5-2.5z" fill="url(#a)"/>
 <path d="m14.5 11.793-5.707 5.707 0.70703 0.70703 5.707-5.707zm3 3-5.707 5.707 0.70703 0.70703 5.707-5.707zm3 3-5.707 5.707 0.70703 0.70703 5.707-5.707z" fill="url(#g)" stroke-linecap="square" stroke-miterlimit="0"/>
 <path d="m12.15 2.2695-9.5215 3.0547 3.0547 9.5215 16.979 8.7305 6.4668-12.576zm-3.2324 3.7871a2.5 2.5 0 0 1 2.5 2.5 2.5 2.5 0 0 1-2.5 2.5 2.5 2.5 0 0 1-2.5-2.5 2.5 2.5 0 0 1 2.5-2.5z" fill="url(#d)"/>
 <path d="m8.918 6.0566c-0.69036 0-1.3171 0.28001-1.7695 0.73242-0.22621 0.22621-0.40865 0.49583-0.53516 0.79492-0.063253 0.14955-0.11123 0.30601-0.14453 0.46875-0.0083256 0.040686-0.017115 0.081667-0.023438 0.12305-0.0055324 0.036207-0.0097105 0.072674-0.013672 0.10938a2.5 2.5 0 0 1 1.0684-0.28516 2.5 2.5 0 0 1 2.5 2.5 2.5 2.5 0 0 1-0.095703 0.35547c0.032744-0.01408 0.065652-0.029501 0.097656-0.044922 0.036431-0.017554 0.071999-0.035444 0.10742-0.054688 0.070847-0.038486 0.13858-0.080073 0.20508-0.125 0.133-0.089854 0.25799-0.19354 0.37109-0.30664 0.45241-0.45241 0.73242-1.0772 0.73242-1.7676 0-0.69036-0.28001-1.3152-0.73242-1.7676-0.45241-0.45241-1.0772-0.73242-1.7676-0.73242z" fill="#15947a" fill-rule="evenodd"/>
 <path d="m15.978 7.6497-3.6908 7.1776 0.88922 0.45725 3.6908-7.1776zm3.773 1.9401-3.6908 7.1776 0.88922 0.45725 3.6908-7.1776zm3.773 1.9401-3.6908 7.1776 0.88922 0.45725 3.6908-7.1776z" fill="url(#f)" stroke-linecap="square" stroke-miterlimit="0"/>
</svg>
