<svg viewBox="0 0 32 32" xmlns="http://www.w3.org/2000/svg">
    <style
        type="text/css"
        id="current-color-scheme">
        .ColorScheme-NegativeText {
            color:#da4453;
        }
    </style>
    <path d="M16 4A12 12 0 0 0 4 16a12 12 0 0 0 12 12 12 12 0 0 0 12-12A12 12 0 0 0 16 4m-5.293 6L16 15.293 21.293 10s.727.716.707.707L16.707 16 22 21.293s-.701.706-.707.707L16 16.707 10.707 22c.001-.005-.707-.707-.707-.707L15.293 16 10 10.707c.02.001.707-.707.707-.707" class="ColorScheme-NegativeText" fill="currentColor"/>
</svg>
