<svg width="16" height="16.008" version="1.1" xmlns="http://www.w3.org/2000/svg">
 <path class="ColorScheme-Text" d="m8.5-7e-8c-0.01105 0-0.02038 0.00516-0.03125 0.00586-0.03143 0.00191-0.06072 0.011509-0.0918 0.019531-0.03629 0.00938-0.07096 0.018351-0.10352 0.035156-0.0076 0.00389-0.01597 0.0035-0.02344 0.00781-0.01553 0.00897-0.02487 0.022903-0.03906 0.033203-0.03202 0.023239-0.06031 0.048078-0.08594 0.078125-0.01913 0.022303-0.03412 0.045374-0.04883 0.070312-0.01685 0.028515-0.03198 0.056063-0.04297 0.087891-0.0121 0.034571-0.0172 0.069033-0.02148 0.10547-0.00228 0.019478-0.011715 0.036534-0.011715 0.056643v11.004c-0.43225-0.32595-0.95863-0.50278-1.5-0.50391-1.3807 0-2.5 1.1193-2.5 2.5s1.1193 2.5 2.5 2.5 2.5-1.1193 2.5-2.5v-11.133l1.5664 2.7129c0.1385 0.23989 0.4437 0.32209 0.68359 0.18359s0.32209-0.4437 0.18359-0.68359l-2.5-4.3301c-0.01057-0.018315-0.02861-0.02848-0.04102-0.044922-0.02179-0.02901-0.04283-0.056481-0.07031-0.080078-0.02193-0.018889-0.04582-0.032266-0.07031-0.046875-0.03036-0.018168-0.05961-0.035411-0.09375-0.046875-0.03061-0.010366-0.06168-0.013295-0.09375-0.017578-0.022073-0.002954-0.041548-0.013672-0.064454-0.013672zm-2.0059 12c0.83163-1.29e-4 1.5059 0.67148 1.5059 1.5s-0.67423 1.5001-1.5059 1.5c-0.83163 1.29e-4 -1.5059-0.67148-1.5059-1.5s0.67423-1.5001 1.5059-1.5z" color="#363636" fill="#363636"/>
</svg>
