<svg width="16" height="16" version="1.1" xmlns="http://www.w3.org/2000/svg">
 <g transform="translate(-1293 127)">
  <path d="M1301-124a5 5 0 1 0 0 10 5 5 0 0 0 0-10zm-1.049 1a3.589 3.589 0 0 0-.691 3.195 3.596 3.596 0 0 0 4.402 2.543c.49-.133.946-.37 1.338-.691a4.084 4.084 0 0 1-2.861 2.814 4.081 4.081 0 0 1-2.188-7.861zM1301.5-127h-1v2h1zm4.803 1.99l-1.414 1.414.707.707 1.415-1.414zm-10.606 0l-.707.707 1.414 1.414.707-.707zM1309-119.5h-2v1h2zm-14 0h-2v1h2zm10.596 4.389l-.707.707 1.414 1.414.707-.707zm-9.192 0l-1.414 1.414.707.707 1.414-1.414zm5.096 2.11h-1v2h1z" fill="#dedede"/>
 </g>
</svg>
