<svg width="16" height="16" version="1.0" xmlns="http://www.w3.org/2000/svg">
 <path d="m8 1a1 1 0 0 0-0.99414 1.0996 4.988 4.988 0 0 0-1.9375 0.84766l0.7207 0.7207a4 4 0 0 1 2.2109-0.66797 4 4 0 0 1 4 4v2.8789l1 1v-3.8789a4.987 4.987 0 0 0-4.0059-4.9004 1 1 0 0 0-0.99414-1.0996zm-4.7344 4.3867a4.988 4.988 0 0 0-0.26562 1.6133v4.5l-2 2v0.5h10.879l-1-1h-7.8789l1-1.0781v-4.9219a4 4 0 0 1 0.080078-0.79883l-0.81445-0.81445zm3.0039 9.6133a2 2 0 0 0 1.7305 1 2 2 0 0 0 1.7285-1h-3.459z" fill="#dedede"/>
 <rect transform="rotate(45)" x="1.3137" y="-.5" width="20" height="1" rx=".5" ry=".5" fill="#dedede"/>
</svg>
