<?xml version="1.0" encoding="UTF-8" standalone="no"?>
<svg
   width="16"
   height="16"
   version="1.1"
   viewBox="0 0 16 16"
   id="svg11"
   sodipodi:docname="folder-download.svg"
   inkscape:version="1.1 (c4e8f9ed74, 2021-05-24)"
   xmlns:inkscape="http://www.inkscape.org/namespaces/inkscape"
   xmlns:sodipodi="http://sodipodi.sourceforge.net/DTD/sodipodi-0.dtd"
   xmlns:xlink="http://www.w3.org/1999/xlink"
   xmlns="http://www.w3.org/2000/svg"
   xmlns:svg="http://www.w3.org/2000/svg"
   xmlns:rdf="http://www.w3.org/1999/02/22-rdf-syntax-ns#"
   xmlns:cc="http://creativecommons.org/ns#"
   xmlns:dc="http://purl.org/dc/elements/1.1/">
  <sodipodi:namedview
     id="namedview13"
     pagecolor="#ffffff"
     bordercolor="#999999"
     borderopacity="1"
     inkscape:pageshadow="0"
     inkscape:pageopacity="0"
     inkscape:pagecheckerboard="0"
     showgrid="false"
     inkscape:zoom="4.4083688"
     inkscape:cx="-7.1455001"
     inkscape:cy="-31.304096"
     inkscape:window-width="1920"
     inkscape:window-height="954"
     inkscape:window-x="0"
     inkscape:window-y="40"
     inkscape:window-maximized="1"
     inkscape:current-layer="svg11" />
  <metadata
     id="metadata2">
    <rdf:RDF>
      <cc:Work
         rdf:about="">
        <dc:format>image/svg+xml</dc:format>
        <dc:type
           rdf:resource="http://purl.org/dc/dcmitype/StillImage" />
        <dc:title />
      </cc:Work>
    </rdf:RDF>
  </metadata>
  <defs
     id="defs5">
    <linearGradient
       inkscape:collect="always"
       id="linearGradient1096">
      <stop
         style="stop-color:#38c494;stop-opacity:1"
         offset="0"
         id="stop1092" />
      <stop
         style="stop-color:#0c98a3;stop-opacity:1"
         offset="1"
         id="stop1094" />
    </linearGradient>
    <style
       id="current-color-scheme"
       type="text/css">.ColorScheme-Text { color:#dedede; } .ColorScheme-Text { color:#dedede; }</style>
    <linearGradient
       inkscape:collect="always"
       xlink:href="#linearGradient1096"
       id="linearGradient1098"
       x1="8"
       y1="0"
       x2="8"
       y2="16.055279"
       gradientUnits="userSpaceOnUse" />
  </defs>
  <path
     class="ColorScheme-Text"
     d="m27.283 0a7.5 7.5 0 0 0-7.5 7.5 7.5 7.5 0 0 0 7.5 7.5 7.5 7.5 0 0 0 7.5-7.5 7.5 7.5 0 0 0-7.5-7.5zm0 1a6.5 6.5 0 0 1 6.5 6.5 6.5 6.5 0 0 1-6.5 6.5 6.5 6.5 0 0 1-6.5-6.5 6.5 6.5 0 0 1 6.5-6.5zm0 3c-0.277 0-0.5 0.223-0.5 0.5v4.793l-1.2676-1.2676c-0.19587-0.19587-0.51116-0.19587-0.70703 0s-0.19587 0.51116 0 0.70703l2.1211 2.1211c0.04701 0.04701 0.10324 0.08408 0.16602 0.10938 0.12034 0.04897 0.25466 0.04897 0.375 0 0.06278-0.0253 0.119-0.06236 0.16602-0.10938l2.1211-2.1211c0.19587-0.19587 0.19587-0.51116 0-0.70703s-0.51116-0.19587-0.70703 0l-1.2676 1.2676v-4.793c0-0.277-0.223-0.5-0.5-0.5z"
     fill="currentColor"
     id="path7" />
  <path
     id="path970"
     style="fill:url(#linearGradient1098);fill-opacity:1;stroke:none;stroke-width:0.489342;stroke-linecap:round;stroke-linejoin:round;paint-order:stroke fill markers"
     d="M 8 0 C 7.5251429 -1.4802974e-16 7.1425781 0.38256478 7.1425781 0.85742188 L 7.1425781 10.787109 L 3.3515625 6.9980469 C 3.0157885 6.6622728 2.4763997 6.6622722 2.140625 6.9980469 C 1.8048504 7.3338216 1.804851 7.8732103 2.140625 8.2089844 L 7.3925781 13.462891 C 7.3929104 13.463223 7.3941984 13.462559 7.3945312 13.462891 C 7.4135963 13.481893 7.4342908 13.50239 7.4550781 13.519531 C 7.4561468 13.520412 7.4579126 13.520609 7.4589844 13.521484 C 7.4813411 13.539729 7.5031796 13.556323 7.5273438 13.572266 C 7.5277776 13.572554 7.5288626 13.571978 7.5292969 13.572266 C 7.5757869 13.602808 7.6254736 13.629248 7.6777344 13.650391 C 7.6997542 13.659299 7.7212439 13.668689 7.7441406 13.675781 C 7.7454949 13.676201 7.7466897 13.677321 7.7480469 13.677734 C 7.7505812 13.678513 7.7533195 13.678933 7.7558594 13.679688 C 7.7564289 13.679858 7.7572427 13.679518 7.7578125 13.679688 C 7.772738 13.684086 7.7876378 13.68784 7.8027344 13.691406 C 7.8106133 13.693245 7.8182097 13.695645 7.8261719 13.697266 C 7.8274117 13.697525 7.8288374 13.697012 7.8300781 13.697266 C 7.8320371 13.697655 7.8339736 13.698842 7.8359375 13.699219 C 7.8365586 13.699341 7.8372693 13.699098 7.8378906 13.699219 C 7.8621303 13.703809 7.8871802 13.706468 7.9121094 13.708984 C 7.9707034 13.715034 8.0292974 13.715044 8.0878906 13.708984 C 8.1128205 13.706468 8.1378691 13.703809 8.1621094 13.699219 C 8.1627307 13.699098 8.1634414 13.699341 8.1640625 13.699219 C 8.173215 13.697439 8.1823037 13.69544 8.1914062 13.693359 C 8.2026655 13.690759 8.2134407 13.686656 8.2246094 13.683594 C 8.2317778 13.681666 8.239002 13.679841 8.2460938 13.677734 C 8.2491475 13.676811 8.2528139 13.67674 8.2558594 13.675781 C 8.2783507 13.668745 8.3002934 13.659331 8.3222656 13.650391 C 8.3750459 13.629038 8.4257681 13.6032 8.4726562 13.572266 C 8.4968204 13.556323 8.5186589 13.539729 8.5410156 13.521484 C 8.5515588 13.512875 8.5620406 13.503327 8.5722656 13.494141 C 8.5836738 13.483875 8.5944847 13.473875 8.6054688 13.462891 C 8.6054688 13.462891 8.6074219 13.462891 8.6074219 13.462891 L 13.859375 8.2089844 C 14.19515 7.8732097 14.195149 7.333821 13.859375 6.9980469 C 13.5236 6.6622713 12.984212 6.6622722 12.648438 6.9980469 L 8.8574219 10.787109 L 8.8574219 0.85742188 C 8.8574219 0.38256477 8.4748571 0 8 0 z M 2.5722656 14.285156 C 2.0974085 14.285156 1.7148438 14.667721 1.7148438 15.142578 C 1.7148437 15.617436 2.0974085 16 2.5722656 16 L 13.427734 16 C 13.90259 16 14.285156 15.617436 14.285156 15.142578 C 14.285156 14.667721 13.90259 14.285156 13.427734 14.285156 L 2.5722656 14.285156 z " />
</svg>
