<?xml version="1.0" encoding="UTF-8" standalone="no"?>
<svg
   width="16"
   height="16"
   version="1.1"
   id="svg11"
   sodipodi:docname="folder-txt.svg"
   inkscape:version="1.1 (c4e8f9ed74, 2021-05-24)"
   xmlns:inkscape="http://www.inkscape.org/namespaces/inkscape"
   xmlns:sodipodi="http://sodipodi.sourceforge.net/DTD/sodipodi-0.dtd"
   xmlns:xlink="http://www.w3.org/1999/xlink"
   xmlns="http://www.w3.org/2000/svg"
   xmlns:svg="http://www.w3.org/2000/svg"
   xmlns:rdf="http://www.w3.org/1999/02/22-rdf-syntax-ns#"
   xmlns:cc="http://creativecommons.org/ns#"
   xmlns:dc="http://purl.org/dc/elements/1.1/">
  <sodipodi:namedview
     id="namedview13"
     pagecolor="#ffffff"
     bordercolor="#999999"
     borderopacity="1"
     inkscape:pageshadow="0"
     inkscape:pageopacity="0"
     inkscape:pagecheckerboard="0"
     showgrid="true"
     inkscape:zoom="16"
     inkscape:cx="-5.40625"
     inkscape:cy="12.0625"
     inkscape:window-width="1920"
     inkscape:window-height="954"
     inkscape:window-x="0"
     inkscape:window-y="40"
     inkscape:window-maximized="1"
     inkscape:current-layer="svg11"
     inkscape:snap-nodes="true"
     inkscape:snap-bbox="true"
     inkscape:bbox-nodes="true"
     inkscape:snap-bbox-edge-midpoints="true"
     inkscape:snap-others="false">
    <inkscape:grid
       type="xygrid"
       id="grid1007" />
  </sodipodi:namedview>
  <metadata
     id="metadata2">
    <rdf:RDF>
      <cc:Work
         rdf:about="">
        <dc:format>image/svg+xml</dc:format>
        <dc:type
           rdf:resource="http://purl.org/dc/dcmitype/StillImage" />
        <dc:title />
      </cc:Work>
    </rdf:RDF>
  </metadata>
  <defs
     id="defs5">
    <linearGradient
       inkscape:collect="always"
       id="linearGradient1194">
      <stop
         style="stop-color:#b2c3d4;stop-opacity:0.99607843"
         offset="0"
         id="stop1190" />
      <stop
         style="stop-color:#6b88a6;stop-opacity:1"
         offset="1"
         id="stop1192" />
    </linearGradient>
    <style
       id="current-color-scheme"
       type="text/css">.ColorScheme-Text { color:#dedede; }</style>
    <linearGradient
       id="linearGradient873"
       x1="-48.646"
       x2="-32.771999"
       y1="-6.3007002"
       y2="9.5740004"
       gradientTransform="matrix(0.62992131,0,0,0.88188984,33.643417,6.5565116)"
       gradientUnits="userSpaceOnUse">
      <stop
         stop-color="#28afea"
         offset="0"
         id="stop2"
         style="stop-color:#b4c5d6;stop-opacity:0.99607843" />
      <stop
         stop-color="#838be4"
         offset="1"
         id="stop4"
         style="stop-color:#6986a4;stop-opacity:1" />
    </linearGradient>
    <linearGradient
       inkscape:collect="always"
       xlink:href="#linearGradient1194"
       id="linearGradient1196"
       x1="-6.9782867"
       y1="1.008647"
       x2="1.9884033"
       y2="15.054346"
       gradientUnits="userSpaceOnUse"
       gradientTransform="matrix(1.1111111,0,0,1,10.777778,0)" />
  </defs>
  <rect
     style="fill:url(#linearGradient1196);fill-opacity:1;stroke-width:0.521033;stroke-linecap:round;stroke-linejoin:round"
     id="rect883"
     width="10"
     height="14"
     x="3"
     y="1"
     ry="1" />
  <path
     class="ColorScheme-Text"
     d="m24.106 0c-1.108 0-2 0.892-2 2v1h-2c-1.108 0-2 0.892-2 2v9c0 1.108 0.892 2 2 2h6c1.108 0 2-0.892 2-2v-1h2c1.108 0 2-0.892 2-2v-6l-5-5h-1zm0 1h2v5h5v5c0 0.554-0.446 1-1 1h-2v-4l-5-5v-1c0-0.1385 0.02766-0.27091 0.07813-0.39062 0.1514-0.35916 0.50638-0.60938 0.92188-0.60938zm3 0.41406 3.5859 3.5859h-3.5859zm-7 2.5859h2v5h5v5c0 0.554-0.446 1-1 1h-6c-0.554 0-1-0.446-1-1v-9c0-0.1385 0.02766-0.27091 0.07813-0.39062 0.15141-0.35916 0.50638-0.60938 0.92188-0.60938zm3 0.41406 3.5859 3.5859h-3.5859z"
     fill="currentColor"
     id="path7" />
  <rect
     style="fill:#ffffff;fill-opacity:1;stroke:none;stroke-width:0.272727;stroke-linecap:round;stroke-linejoin:round;paint-order:stroke fill markers"
     id="rect15679"
     width="3"
     height="3"
     x="9"
     y="5"
     ry="0.59999996" />
  <rect
     style="fill:#ffffff;fill-opacity:1;stroke-width:0.416916;stroke-linecap:round;stroke-linejoin:round"
     id="rect15802"
     width="4"
     height="1"
     x="4"
     y="5"
     ry="0.5" />
  <rect
     style="fill:#ffffff;fill-opacity:1;stroke-width:0.416916;stroke-linecap:round;stroke-linejoin:round"
     id="rect16868"
     width="4"
     height="1"
     x="4"
     y="7"
     ry="0.5" />
  <rect
     style="fill:#ffffff;fill-opacity:1;stroke-width:0.589608;stroke-linecap:round;stroke-linejoin:round"
     id="rect17327"
     width="8"
     height="1"
     x="4"
     y="9"
     ry="0.5" />
  <rect
     style="fill:#ffffff;fill-opacity:1;stroke-width:0.589608;stroke-linecap:round;stroke-linejoin:round"
     id="rect17329"
     width="8"
     height="1"
     x="4"
     y="11"
     ry="0.5" />
</svg>
