<svg width="16" height="16" version="1.1" xmlns="http://www.w3.org/2000/svg">
 <defs>
  <style id="current-color-scheme" type="text/css">.ColorScheme-Text { color:#dedede; }</style>
 </defs>
 <path d="M8 0a6 6 0 0 0-6 6 6 6 0 0 0 1.883 4.36l.435-.985A5 5 0 0 1 3 6a5 5 0 0 1 5-5 5 5 0 0 1 5 5 5 5 0 0 1-1.318 3.375l.433.98A6 6 0 0 0 14 6a6 6 0 0 0-6-6zm0 2a4 4 0 0 0-4 4 4 4 0 0 0 .771 2.352l.256-.579.24-.543A3 3 0 0 1 5 6a3 3 0 0 1 .059-.584c0-.004 0-.008.002-.012l.007-.029a3 3 0 0 1 2.295-2.303c.02-.004.04-.01.06-.013A3 3 0 0 1 8 3a3 3 0 0 1 .584.059 3 3 0 0 1 .012.002l.029.007a3 3 0 0 1 2.303 2.295c.004.02.01.04.013.06A3 3 0 0 1 11 6a3 3 0 0 1-.268 1.232l.497 1.122A4 4 0 0 0 12 6a4 4 0 0 0-4-4zm0 2a2 2 0 1 0 0 4 2 2 0 0 0 0-4zM5.941 8.178L2.48 16h2.185l.443-1h5.786l.443 1h2.185L10.06 8.18a3 3 0 0 1-1.829.81L8.678 10H7.322l.448-1.012a3 3 0 0 1-1.829-.81zM6.436 12h3.128l.444 1H5.992l.444-1z" style="fill:currentColor" class="ColorScheme-Text"/>
</svg>
