<svg width="32" height="32" version="1" xmlns="http://www.w3.org/2000/svg"><circle cx="16.001" cy="16.001" r="14" fill="#f55" style="paint-order:stroke markers fill"/><path d="M2.28 14.33S4 14 5.828 18.404c1.372 3.142 3.303 4.537 5.641 4.646 3.012.143 5.44-2.495 7.04-4.853 3.26-4.807 9.58-3.728 11.413-2.478" fill="none" opacity=".35" stroke="#fff" stroke-opacity=".937" stroke-width=".501"/><path d="M2.203 15.652s2.78-3.452 5.45 1.214c1.47 2.326 3.208 5.835 8.24 5.513 3.008-.193 6.016-1.445 7.567-4.375 2.393-4.415 5.619-4.546 6.2-4.252" fill="none" opacity=".35" stroke="#fff" stroke-opacity=".937" stroke-width=".501"/><path d="M2.705 20.007s3.126-3.207 8.219-1.603c2.64.771 5.977 3.759 12.325 3.06 1.677-.182 3.097-1.145 4.442-2.979 1.133-1.649 1.872-2.119 2.24-2.215" fill="none" opacity=".35" stroke="#fff" stroke-opacity=".937" stroke-width=".501"/><g fill="#fff" stroke-width="1.857"><path d="M16 7.924a7.538 7.538 0 0 0-7.538 7.538v4.846c0 1.923 1.369 2.446 2.154 2.589v-7.435c0-2.983 2.402-5.384 5.385-5.384s5.384 2.401 5.384 5.384V22.9c.785-.144 2.154-.668 2.154-2.59v-4.847a7.538 7.538 0 0 0-7.538-7.538z"/><path d="M10.616 16.54v7.538h2.692v-7.539zm8.077 0v7.538h2.692v-7.539z" opacity=".75"/></g></svg>