<svg xmlns="http://www.w3.org/2000/svg" width="32" height="32" version="1"><g stroke-width="1.857"><path d="M16 2A14 14 0 0 0 2 16a14 14 0 0 0 14 14 14 14 0 0 0 14-14A14 14 0 0 0 16 2zm0 8a6 6 0 0 1 6 6 6 6 0 0 1-6 6 6 6 0 0 1-6-6 6 6 0 0 1 6-6z" fill="#fa4d6f"/><path d="M16 3.615A12.385 12.385 0 0 0 3.615 16 12.385 12.385 0 0 0 16 28.385 12.385 12.385 0 0 0 28.385 16 12.385 12.385 0 0 0 16 3.615zm0 7.077A5.308 5.308 0 0 1 21.308 16 5.308 5.308 0 0 1 16 21.308 5.308 5.308 0 0 1 10.692 16 5.308 5.308 0 0 1 16 10.692z" opacity=".15" fill="#fff"/><path d="M16 7.923A8.077 8.077 0 0 0 7.923 16 8.077 8.077 0 0 0 16 24.077 8.077 8.077 0 0 0 24.077 16 8.077 8.077 0 0 0 16 7.923zm0 4.846A3.23 3.23 0 0 1 19.23 16 3.23 3.23 0 0 1 16 19.23 3.23 3.23 0 0 1 12.77 16 3.23 3.23 0 0 1 16 12.77z" opacity=".35"/></g></svg>