<svg width="32" height="32" version="1" xmlns="http://www.w3.org/2000/svg"><circle cx="16" cy="16" r="14" fill="#4d4d4d" style="paint-order:stroke markers fill"/><path d="M6.375 16C5.613 16 5 16.557 5 17.25v5.668A13 13 0 0 0 11.008 28h9.965A13 13 0 0 0 27 22.898V17.25c0-.693-.613-1.25-1.375-1.25H6.375z" fill="#fff"/><path d="M5.76 24A13 13 0 0 0 16 29a13 13 0 0 0 10.229-5H5.759z" fill="#ffae3f"/><path d="M16 3a13 13 0 0 0-6 1.473v6.797c0 .831.627 1.5 1.406 1.5h15.188c.779 0 1.406-.669 1.406-1.5v-.243A13 13 0 0 0 16 3zm3.19 1.445A12 12 0 0 1 26 9.381V10c0 .554-.446 1-1 1h-5c-.554 0-1-.446-1-1V5c0-.21.08-.394.19-.555z" fill="#fff" opacity=".75"/></svg>