<svg width="32" height="32" version="1" xmlns="http://www.w3.org/2000/svg"><circle cx="16" cy="16" r="14" fill="#4d4d4d" style="paint-order:stroke markers fill"/><path d="M9 18c-1.108 0-2 1.07-2 2.4v4.961A13 13 0 0 0 16 29a13 13 0 0 0 9-3.625V20.4c0-1.33-.892-2.4-2-2.4H9z" opacity=".4"/><path d="M16 3a13 13 0 0 0-1 .043V9h2V3.049a13 13 0 0 0-1-.05zm-2 .164a13 13 0 0 0-2 .484V9h2V3.164zm4 .008V9h2V3.639a13 13 0 0 0-2-.467zm3 .83V9h2V5.062a13 13 0 0 0-2-1.06zm-10 .01a13 13 0 0 0-2 1.035V9h2V4.012zM8 5.76A13 13 0 0 0 6 7.7V9h2V5.76zm16 .011V9h2V7.71a13 13 0 0 0-2-1.939z" fill="#f8c44e"/></svg>