<svg height="64" width="64" xmlns="http://www.w3.org/2000/svg" xmlns:xlink="http://www.w3.org/1999/xlink">
    <linearGradient id="a" gradientUnits="userSpaceOnUse" x1="20" x2="20" y1="40" y2="16">
        <stop offset="0" stop-color="#3e3e3e"/>
        <stop offset="1" stop-color="#5c5c5c"/>
    </linearGradient>
    <linearGradient id="b" gradientUnits="userSpaceOnUse" x1="16" x2="44" xlink:href="#e" y1="16" y2="44"/>
    <linearGradient id="c" gradientUnits="userSpaceOnUse" x1="386.571" x2="386.571" y1="549.798" y2="497.798">
        <stop offset="0" stop-color="#7f8c8d"/>
        <stop offset="1" stop-color="#afb0b3"/>
    </linearGradient>
    <linearGradient id="d" gradientUnits="userSpaceOnUse" x1="12" x2="12" y1="48" y2="10">
        <stop offset="0" stop-color="#eef1f2"/>
        <stop offset="1" stop-color="#f9fafb"/>
    </linearGradient>
    <linearGradient id="e" gradientUnits="userSpaceOnUse" x1="400.571" x2="420.571" y1="511.798" y2="531.798">
        <stop offset="0" stop-color="#292c2f"/>
        <stop offset="1" stop-opacity="0"/>
    </linearGradient>
    <path d="m386.571 497.798h44v52h-44z" fill="url(#c)" transform="translate(-376.571 -491.798)"/>
    <path d="m47 52h7v6h-7zm-37 0h7v6h-7z" fill="#292c2f" opacity=".2"/>
    <path d="m10 52h7v6h-1zm37 0h7v6h-7z" fill="#292c2f" opacity=".2"/>
    <path d="m16 52h32v6h-32z" fill="#292c2e"/>
    <path d="m20 54h14v2h-14zm16 0h8v2h-8z" fill="#f6b44d"/>
    <path d="m390.571 533.798 16 16h24v-38.728l-6.636-6.636z" fill="url(#e)" opacity=".2" transform="translate(-376.571 -491.798)"/>
    <path d="m23 10a9 9 0 0 0 -9 9v8.535a6 6 0 0 1 2 4.465 6 6 0 0 1 -2 4.463v5.537l6 6h24l6-6v-5.535a6 6 0 0 1 -2-4.465 6 6 0 0 1 2-4.463v-8.537a9 9 0 0 0 -9-9z" fill="url(#d)"/>
    <path d="m10 57h44v1h-44z" fill="#292c2f" opacity=".4"/>
    <path d="m36 16-16 24 12 12h12l-12-12 12-2 6 6v-14z" fill="url(#b)" opacity=".2"/>
    <path d="m32 40 12 12h6v-8l-6-6z" fill="url(#b)"/>
    <path d="m32 38h12v2h-12zm0-22-12 24h4l12-24z" fill="url(#a)"/>
</svg>
