<?xml version="1.0" encoding="UTF-8"?>
<svg id="Iterm" width="64" height="64" enable-background="new 0 0 1024 1024" image-rendering="optimizeSpeed" version="1.1" viewBox="0 0 64 64" xmlns="http://www.w3.org/2000/svg" xmlns:cc="http://creativecommons.org/ns#" xmlns:dc="http://purl.org/dc/elements/1.1/" xmlns:rdf="http://www.w3.org/1999/02/22-rdf-syntax-ns#" xmlns:xlink="http://www.w3.org/1999/xlink">
 <metadata>
  <rdf:RDF>
   <cc:Work rdf:about="">
    <dc:format>image/svg+xml</dc:format>
    <dc:type rdf:resource="http://purl.org/dc/dcmitype/StillImage"/>
   </cc:Work>
  </rdf:RDF>
 </metadata>
 <defs>
  <linearGradient id="linearGradient4707" x1="25.8" x2="71.277" y1="-296.56" y2="-296.56" gradientTransform="matrix(1.2084 0 0 1.2084 -26.131 393.96)" gradientUnits="userSpaceOnUse">
   <stop stop-color="#41464a" offset="0"/>
   <stop stop-color="#3e4548" offset="1"/>
  </linearGradient>
  <linearGradient id="linearGradient14301" x1="24.935" x2="69.155" y1="-298.24" y2="-298.24" gradientTransform="matrix(1.2084 0 0 1.2084 -26.131 393.96)" gradientUnits="userSpaceOnUse">
   <stop stop-color="#e2e7eb" offset="0"/>
   <stop stop-color="#9fa6ae" offset=".39191"/>
   <stop stop-color="#979fa1" offset="1"/>
  </linearGradient>
  <linearGradient id="linearGradient49779" x1="25.801" x2="54.86" y1="-303.56" y2="-300.49" gradientTransform="matrix(1.2084 0 0 1.2084 -26.131 393.96)" gradientUnits="userSpaceOnUse">
   <stop stop-color="#b3bfcb" offset="0"/>
   <stop stop-color="#8798aa" offset="1"/>
  </linearGradient>
  <linearGradient id="linearGradient82477" x1="31.707" x2="54.132" y1="-299.77" y2="-310.12" gradientTransform="matrix(1.2084 0 0 1.2084 -26.131 393.96)" gradientUnits="userSpaceOnUse">
   <stop stop-color="#313335" offset="0"/>
   <stop offset="1"/>
  </linearGradient>
  <linearGradient id="linearGradient131847" x1="37.672" x2="38.968" y1="-304.1" y2="-302.43" gradientTransform="matrix(1.2084 0 0 1.2084 -26.131 393.96)" gradientUnits="userSpaceOnUse">
   <stop stop-color="#767d82" offset="0"/>
   <stop stop-color="#161919" offset="1"/>
  </linearGradient>
 </defs>
 <mask>
  <g id="g">
   <path d="m969.75 392.05c-1.1-4.35-2.35-9-3.65-13.6-1-3.4-2-6.85-3.15-10.5-1.6-5.15-3.4-10.5-5.3-15.85-6.45-18.25-14.15-36.05-23.15-53.65-3.8-7.4-7.95-14.95-12.3-22.4-20.3-34.5-45.8-67.2-76.35-97.75-72.6-72.6-157.15-116.65-253.65-132.05-16.25-2.6-32.8-4.4-50.05-5.35-9.7-0.55-19.85-0.85-30.1-0.85-9.35 0-18.6 0.25-27.9 0.75-118.35 6.1-220.3 51.95-305.85 137.5q-138.25 138.25-138.25 333.75c0 130.35 46.1 241.65 138.25 333.8 56.7 56.65 120.55 95.9 191.1 117.55 36.75 11.25 74.8 17.85 114.75 19.95h0.4c8.5 0.45 16.6 0.7 24.5 0.7h3c10.3 0 20.5-0.3 30.1-0.8 2.5-0.15 4.75-0.3 6.95-0.45 20.2-1.45 39.9-4.05 58.7-7.7 7.95-1.55 15.8-3.3 23.4-5.15 80.8-20.3 152.15-61.6 214.65-124.1 48.6-48.6 84.4-102.5 107.35-161.8 18.45-47.65 28.65-98.8 30.55-153.5 0.2-6.05 0.3-12.25 0.3-18.5v-3c-0.2-40.65-4.95-79.5-14.3-117z" fill="#fff"/>
  </g>
 </mask>
 <g>
  <path d="m5.1369 30.644s-1.2091 4.6193 5.2013 6.5072c6.4104 1.8879 15.416 1.9298 18.912 0.17626 3.4958-1.7535 22.561-15.025 28.011-13.277 0 0-6.234-6.6304-14.036-6.5374-7.8017 0.09293-25.483 0.22419-38.088 13.131z" fill="url(#linearGradient49779)"/>
  <path d="m37.756 18.989s-6.8739 0.73788-14.167 4.7353c-7.2932 3.9974-12.671 7.6295-11.486 8.561 1.1856 0.9315 3.1967 1.3568 4.4275 0.71141 1.2308-0.64544 8.8655-5.4514 9.9157-6.1612s11.373-6.3902 12.228-6.6239c0.85454-0.23376 1.2812-1.4002-0.91796-1.2225z" fill="url(#linearGradient82477)"/>
  <path d="m24.975 25.006s-10.793 3.6438-9.9934 6.1147c0.84652 2.6159 11.375-5.1555 11.03-5.6994-0.3448-0.54385-1.0369-0.41534-1.0369-0.41534z"/>
  <path d="m25.067 25.547s-2.6783-0.9126-5.3637 0.52134c-2.6854 1.4339-4.7628 3.2499-4.2246 4.9711 0.5382 1.7212 9.4134-4.6125 9.5273-4.8942 0.11386-0.2817 0.06102-0.59816 0.06102-0.59816z" fill="url(#linearGradient131847)"/>
 </g>
 <path d="m13.406 32.888s-2.1919 2.9095-2.768 4.2755" fill="none" stroke="#000" stroke-width=".24168"/>
 <path d="m5.1369 30.644s-2.4964 5.1583-0.090908 7.6881c2.4055 2.5298 13.199 6.3383 20.811 4.1364 7.6118-2.2019 6.6137-2.4134 8.919-3.8133 2.3054-1.4 19.197-14.079 22.658-13.955 0 0 0.02912-0.54505-0.1734-0.64932-0.20248-0.10428-4.4924-0.47855-11.727 3.6765s-16.651 10.276-19.516 10.656c-2.8649 0.37916-8.6245 0.79092-15.379-1.2187-6.7544-2.0096-5.5012-6.5202-5.5012-6.5202z" fill="url(#linearGradient14301)"/>
 <path d="m5.046 38.329s5.9242 7.0799 14.287 7.9907c8.3625 0.9108 16.195-2.1297 18.549-2.8991 2.3543-0.76939 15.378-4.8706 19.395-7.2275 4.0163-2.3569 3.177-10.366 0.1572-11.493 0 0-2.7728-0.1676-10.785 5.4404-8.0125 5.6081-15.515 12.544-25.284 12.675-9.7695 0.13129-16.318-4.4867-16.318-4.4867z" fill="url(#linearGradient4707)"/>
 <path d="m5.1369 30.644s-0.93546 4.8851 5.3934 6.5273c6.3289 1.6423 14.31 2.3886 18.283 0.25328s17.417-10.287 19.713-11.351c2.2959-1.0636 5.6545-2.3103 8.7346-2.0232" fill="none" stroke="#000" stroke-linecap="round" stroke-width=".24168"/>
</svg>
