<?xml version="1.0" encoding="UTF-8"?>
<svg width="64" height="64" version="1.1" viewBox="0 0 16.933 16.933" xmlns="http://www.w3.org/2000/svg" xmlns:cc="http://creativecommons.org/ns#" xmlns:dc="http://purl.org/dc/elements/1.1/" xmlns:rdf="http://www.w3.org/1999/02/22-rdf-syntax-ns#" xmlns:xlink="http://www.w3.org/1999/xlink">
 <defs>
  <linearGradient id="linearGradient3627" x1="36.257" x2="48.929" y1="7.243" y2="8.9727" gradientUnits="userSpaceOnUse">
   <stop stop-color="#f1f2f4" offset="0"/>
   <stop stop-color="#e1e5e8" offset="1"/>
  </linearGradient>
  <linearGradient id="linearGradient19237" x1="35.736" x2="48.914" y1="7.7553" y2="9.4074" gradientUnits="userSpaceOnUse">
   <stop stop-color="#363739" offset="0"/>
   <stop stop-color="#505356" offset="1"/>
  </linearGradient>
 </defs>
 <metadata>
  <rdf:RDF>
   <cc:Work rdf:about="">
    <dc:format>image/svg+xml</dc:format>
    <dc:type rdf:resource="http://purl.org/dc/dcmitype/StillImage"/>
   </cc:Work>
  </rdf:RDF>
 </metadata>
 <g transform="matrix(1.1247 0 0 1.1247 -39.16 -.93293)">
  <path d="m36.257 7.243 3.6026-1.1548s0.30939-0.1045 0.69396 0.010483c0.38458 0.11498 8.1709 2.7025 8.1709 2.7025s0.39674 0.15315 0.099 0.28266c-0.29774 0.12951-3.5217 1.2669-3.5217 1.2669z" fill="url(#linearGradient3627)"/>
  <path d="m36.257 7.243-0.49679 0.24711 9.051 3.1803 4.1181-1.5687v-0.12898l-3.6275 1.3781z" fill="url(#linearGradient19237)"/>
  <path d="m39.838 6.2954 0.35792-0.094678 0.34539 0.093733-0.37769 0.099907z" fill="#c7d0d4"/>
  <path d="m39.838 6.2954-2.18e-4 0.068328 0.3266 0.088633-9.15e-4 -0.057999z" fill="#dddfe3"/>
  <path d="m40.164 6.3943 9.15e-4 0.057998 0.37581-0.09941 0.0013-0.058494z" fill="#505356"/>
  <path d="m40.297 6.4474 0.35792-0.094678 0.34539 0.093733-0.37769 0.099907z" fill="#c7d0d4"/>
  <path d="m40.297 6.4474-2.19e-4 0.068328 0.3266 0.088633-9.15e-4 -0.057999z" fill="#dddfe3"/>
  <path d="m40.623 6.5464 9.15e-4 0.057998 0.37581-0.09941 0.0013-0.058494z" fill="#505356"/>
  <path d="m40.778 6.5986 0.35792-0.094678 0.34539 0.093733-0.37769 0.099907z" fill="#c7d0d4"/>
  <path d="m40.778 6.5986-2.19e-4 0.068328 0.3266 0.088633-9.14e-4 -0.057999z" fill="#dddfe3"/>
  <path d="m41.104 6.6976 9.14e-4 0.057998 0.37581-0.09941 0.0013-0.058494z" fill="#505356"/>
  <path d="m41.237 6.7507 0.35792-0.094678 0.34539 0.093733-0.37769 0.099907z" fill="#c7d0d4"/>
  <path d="m41.237 6.7507-2.19e-4 0.068328 0.3266 0.088633-9.14e-4 -0.057999z" fill="#dddfe3"/>
  <path d="m41.563 6.8497 9.14e-4 0.057998 0.37581-0.09941 0.0013-0.058494z" fill="#505356"/>
  <path d="m41.684 6.9005 0.35792-0.094678 0.34539 0.093733-0.37769 0.099907z" fill="#c7d0d4"/>
  <path d="m41.684 6.9005-2.19e-4 0.068328 0.3266 0.088633-9.14e-4 -0.057999z" fill="#dddfe3"/>
  <path d="m42.01 6.9994 9.14e-4 0.057998 0.37581-0.09941 0.0013-0.058494z" fill="#505356"/>
  <path d="m42.143 7.0525 0.35792-0.094678 0.34539 0.093733-0.37769 0.099907z" fill="#c7d0d4"/>
  <path d="m42.143 7.0525-2.18e-4 0.068328 0.3266 0.088633-9.15e-4 -0.057999z" fill="#dddfe3"/>
  <path d="m42.469 7.1515 9.15e-4 0.057998 0.37581-0.09941 0.0013-0.058494z" fill="#505356"/>
  <path d="m42.624 7.2037 0.35792-0.094678 0.34539 0.093733-0.37769 0.099907z" fill="#c7d0d4"/>
  <path d="m42.624 7.2037-2.19e-4 0.068328 0.3266 0.088632-9.14e-4 -0.057999z" fill="#dddfe3"/>
  <path d="m42.95 7.3027 9.14e-4 0.057998 0.37581-0.09941 0.0013-0.058494z" fill="#505356"/>
  <path d="m43.083 7.3558 0.35792-0.094678 0.34539 0.093733-0.37769 0.099907z" fill="#c7d0d4"/>
  <path d="m43.083 7.3558-2.19e-4 0.068328 0.3266 0.088633-9.14e-4 -0.057999z" fill="#dddfe3"/>
  <path d="m43.409 7.4548 9.14e-4 0.057998 0.37581-0.09941 0.0013-0.058494z" fill="#505356"/>
  <path d="m43.53 7.5133 0.35792-0.094678 0.34539 0.093733-0.37769 0.099907z" fill="#c7d0d4"/>
  <path d="m43.53 7.5133-2.18e-4 0.068328 0.3266 0.088633-9.15e-4 -0.057999z" fill="#dddfe3"/>
  <path d="m43.856 7.6122 9.15e-4 0.057998 0.37581-0.09941 0.0013-0.058494z" fill="#505356"/>
  <path d="m44.011 7.6645 0.35792-0.094678 0.34539 0.093733-0.37769 0.099907z" fill="#c7d0d4"/>
  <path d="m44.011 7.6645-2.19e-4 0.068328 0.3266 0.088633-9.14e-4 -0.057999z" fill="#dddfe3"/>
  <path d="m44.337 7.7634 9.14e-4 0.057998 0.37581-0.09941 0.0013-0.058494z" fill="#505356"/>
  <path d="m44.47 7.8165 0.35792-0.094678 0.34539 0.093733-0.37769 0.099907z" fill="#c7d0d4"/>
  <path d="m44.47 7.8165-2.19e-4 0.068328 0.3266 0.088633-9.14e-4 -0.057999z" fill="#dddfe3"/>
  <path d="m44.796 7.9155 9.14e-4 0.057998 0.37581-0.09941 0.0013-0.058494z" fill="#505356"/>
  <path d="m44.917 7.9663 0.35792-0.094678 0.34539 0.093733-0.37769 0.099907z" fill="#c7d0d4"/>
  <path d="m44.917 7.9663-2.19e-4 0.068328 0.3266 0.088633-9.14e-4 -0.057999z" fill="#dddfe3"/>
  <path d="m45.243 8.0653 9.14e-4 0.057998 0.37581-0.09941 0.0013-0.058494z" fill="#505356"/>
  <path d="m45.376 8.1184 0.35792-0.094678 0.34539 0.093733-0.37769 0.099907z" fill="#c7d0d4"/>
  <path d="m45.376 8.1184-2.18e-4 0.068328 0.3266 0.088632-9.15e-4 -0.057999z" fill="#dddfe3"/>
  <path d="m45.702 8.2173 9.15e-4 0.057998 0.37581-0.09941 0.0013-0.058494z" fill="#505356"/>
  <path d="m45.857 8.2696 0.35792-0.094678 0.34539 0.093733-0.37769 0.099907z" fill="#c7d0d4"/>
  <path d="m45.857 8.2696-2.19e-4 0.068328 0.3266 0.088632-9.15e-4 -0.057999z" fill="#dddfe3"/>
  <path d="m46.183 8.3685 9.15e-4 0.057998 0.37581-0.09941 0.0013-0.058494z" fill="#505356"/>
  <path d="m46.316 8.4216 0.35792-0.094678 0.34539 0.093733-0.37769 0.099907z" fill="#c7d0d4"/>
  <path d="m46.316 8.4216-2.19e-4 0.068328 0.3266 0.088632-9.14e-4 -0.057999z" fill="#dddfe3"/>
  <path d="m46.642 8.5206 9.14e-4 0.057998 0.37581-0.09941 0.0013-0.058494z" fill="#505356"/>
  <path d="m46.755 8.5813 0.35792-0.094678 0.34539 0.093733-0.37769 0.099907z" fill="#c7d0d4"/>
  <path d="m46.755 8.5813-2.19e-4 0.068328 0.3266 0.088632-9.15e-4 -0.057999z" fill="#dddfe3"/>
  <path d="m47.08 8.6803 9.15e-4 0.057998 0.37581-0.09941 0.0013-0.058494z" fill="#505356"/>
  <path d="m47.236 8.7325 0.35792-0.094678 0.34539 0.093733-0.37769 0.099907z" fill="#c7d0d4"/>
  <path d="m47.236 8.7325-2.19e-4 0.068328 0.3266 0.088633-9.14e-4 -0.057999z" fill="#dddfe3"/>
  <path d="m47.561 8.8315 9.14e-4 0.057998 0.37581-0.09941 0.0013-0.058494z" fill="#505356"/>
  <path d="m47.695 8.8846 0.35792-0.094678 0.34539 0.093733-0.37769 0.099907z" fill="#c7d0d4"/>
  <path d="m47.695 8.8846-2.19e-4 0.068328 0.3266 0.088632-9.14e-4 -0.057999z" fill="#dddfe3"/>
  <path d="m48.02 8.9836 9.14e-4 0.057998 0.37581-0.09941 0.0013-0.058494z" fill="#505356"/>
  <g transform="translate(3.6139 -1.4264)">
   <path d="m34.248 8.4388 0.35135-0.099723 0.75373 0.22833-0.37737 0.10112z" fill="#c7d0d4"/>
   <path d="m34.248 8.4388-3.41e-4 0.06497 0.72899 0.22275-0.0011-0.057996z" fill="#dddfe3"/>
   <path d="m34.976 8.6685 0.0011 0.057995 0.37549-0.10061 0.0011-0.058498z" fill="#505356"/>
  </g>
  <g transform="translate(.083323 .0082681)">
   <path d="m37.15 7.2033 0.35866-0.09186 0.34464 0.096446-0.37846 0.096934z" fill="#c7d0d4"/>
   <path d="m37.15 7.2033-7.56e-4 0.068324 0.32589 0.091199-4.58e-4 -0.058005z" fill="#dddfe3"/>
   <path d="m37.475 7.3048 4.58e-4 0.058004 0.37658-0.096451 0.0017-0.058482z" fill="#505356"/>
   <path d="m37.608 7.3589 0.35866-0.09186 0.34464 0.096446-0.37846 0.096934z" fill="#c7d0d4"/>
   <path d="m37.608 7.3589-7.56e-4 0.068324 0.32589 0.091198-4.58e-4 -0.058005z" fill="#dddfe3"/>
   <path d="m37.933 7.4604 4.58e-4 0.058004 0.37658-0.096452 0.0017-0.058482z" fill="#505356"/>
   <path d="m38.088 7.5139 0.35866-0.09186 0.34464 0.096446-0.37846 0.096934z" fill="#c7d0d4"/>
   <path d="m38.088 7.5139-7.56e-4 0.068324 0.32589 0.091199-4.58e-4 -0.058005z" fill="#dddfe3"/>
   <path d="m38.413 7.6154 4.58e-4 0.058004 0.37658-0.096451 0.0017-0.058482z" fill="#505356"/>
   <path d="m38.546 7.6696 0.35866-0.09186 3.124 1.0287-0.37878 0.09693z" fill="#c7d0d4"/>
   <path d="m38.546 7.6696-7.56e-4 0.068324 3.1051 1.0235-4.58e-4 -0.058004z" fill="#dddfe3"/>
   <path d="m41.65 8.7034 4.58e-4 0.058004 0.37658-0.096452 0.0017-0.058482z" fill="#505356"/>
   <path d="m41.77 8.7608 0.35866-0.09186 0.34464 0.096446-0.37846 0.096934z" fill="#c7d0d4"/>
   <path d="m41.77 8.7608-7.56e-4 0.068324 0.32589 0.091198-4.58e-4 -0.058005z" fill="#dddfe3"/>
   <path d="m42.095 8.8623 4.58e-4 0.058004 0.37658-0.096452 0.0017-0.058482z" fill="#505356"/>
   <path d="m42.216 8.9141 0.35866-0.09186 0.34464 0.096446-0.37846 0.096934z" fill="#c7d0d4"/>
   <path d="m42.216 8.9141-7.56e-4 0.068324 0.32589 0.091199-4.58e-4 -0.058005z" fill="#dddfe3"/>
   <path d="m42.541 9.0156 4.58e-4 0.058004 0.37658-0.096451 0.0017-0.058482z" fill="#505356"/>
   <path d="m42.674 9.0697 0.35866-0.09186 0.34464 0.096446-0.37846 0.096934z" fill="#c7d0d4"/>
   <path d="m42.674 9.0697-7.56e-4 0.068324 0.32589 0.091198-4.58e-4 -0.058005z" fill="#dddfe3"/>
   <path d="m42.999 9.1713 4.59e-4 0.058004 0.37658-0.096451 0.0017-0.058482z" fill="#505356"/>
   <path d="m43.153 9.2247 0.35866-0.09186 0.34464 0.096446-0.37846 0.096934z" fill="#c7d0d4"/>
   <path d="m43.153 9.2247-7.56e-4 0.068324 0.32589 0.091199-4.58e-4 -0.058005z" fill="#dddfe3"/>
   <path d="m43.478 9.3262 4.58e-4 0.058004 0.37658-0.096452 0.0017-0.058482z" fill="#505356"/>
   <path d="m43.611 9.3804 0.35866-0.09186 0.34464 0.096446-0.37846 0.096934z" fill="#c7d0d4"/>
   <path d="m43.611 9.3804-7.56e-4 0.068324 0.32589 0.091199-4.58e-4 -0.058005z" fill="#dddfe3"/>
   <path d="m43.936 9.4819 4.58e-4 0.058004 0.37658-0.096451 0.0017-0.058482z" fill="#505356"/>
   <path d="m44.048 9.5435 0.35866-0.09186 0.34464 0.096446-0.37846 0.096934z" fill="#c7d0d4"/>
   <path d="m44.048 9.5435-7.57e-4 0.068324 0.32589 0.091199-4.58e-4 -0.058005z" fill="#dddfe3"/>
   <path d="m44.373 9.6451 4.58e-4 0.058004 0.37658-0.096452 0.0017-0.058482z" fill="#505356"/>
   <path d="m44.528 9.6985 0.35866-0.09186 0.34464 0.096446-0.37846 0.096934z" fill="#c7d0d4"/>
   <path d="m44.528 9.6985-7.56e-4 0.068324 0.32589 0.091199-4.58e-4 -0.058005z" fill="#dddfe3"/>
   <path d="m44.853 9.8 4.58e-4 0.058004 0.37658-0.096452 0.0017-0.058482z" fill="#505356"/>
   <path d="m44.986 9.8542 0.35866-0.09186 0.34464 0.096446-0.37846 0.096934z" fill="#c7d0d4"/>
   <path d="m44.986 9.8542-7.56e-4 0.068324 0.32589 0.091198-4.58e-4 -0.058005z" fill="#dddfe3"/>
   <path d="m45.311 9.9557 4.58e-4 0.058003 0.37658-0.096451 0.0017-0.058482z" fill="#505356"/>
  </g>
  <g transform="translate(-.61539 .25407)">
   <path d="m39.838 6.2954 0.35792-0.094678 0.34539 0.093733-0.37769 0.099907z" fill="#c7d0d4"/>
   <path d="m39.838 6.2954-2.18e-4 0.068328 0.3266 0.088633-9.15e-4 -0.057999z" fill="#dddfe3"/>
   <path d="m40.164 6.3943 9.15e-4 0.057998 0.37581-0.09941 0.0013-0.058494z" fill="#505356"/>
   <path d="m40.297 6.4474 0.35792-0.094678 0.34539 0.093733-0.37769 0.099907z" fill="#c7d0d4"/>
   <path d="m40.297 6.4474-2.19e-4 0.068328 0.3266 0.088633-9.15e-4 -0.057999z" fill="#dddfe3"/>
   <path d="m40.623 6.5464 9.15e-4 0.057998 0.37581-0.09941 0.0013-0.058494z" fill="#505356"/>
   <path d="m40.778 6.5986 0.35792-0.094678 0.34539 0.093733-0.37769 0.099907z" fill="#c7d0d4"/>
   <path d="m40.778 6.5986-2.19e-4 0.068328 0.3266 0.088633-9.14e-4 -0.057999z" fill="#dddfe3"/>
   <path d="m41.104 6.6976 9.14e-4 0.057998 0.37581-0.09941 0.0013-0.058494z" fill="#505356"/>
   <path d="m41.237 6.7507 0.35792-0.094678 0.34539 0.093733-0.37769 0.099907z" fill="#c7d0d4"/>
   <path d="m41.237 6.7507-2.19e-4 0.068328 0.3266 0.088633-9.14e-4 -0.057999z" fill="#dddfe3"/>
   <path d="m41.563 6.8497 9.14e-4 0.057998 0.37581-0.09941 0.0013-0.058494z" fill="#505356"/>
   <path d="m41.684 6.9005 0.35792-0.094678 0.34539 0.093733-0.37769 0.099907z" fill="#c7d0d4"/>
   <path d="m41.684 6.9005-2.19e-4 0.068328 0.3266 0.088633-9.14e-4 -0.057999z" fill="#dddfe3"/>
   <path d="m42.01 6.9994 9.14e-4 0.057998 0.37581-0.09941 0.0013-0.058494z" fill="#505356"/>
   <path d="m42.143 7.0525 0.35792-0.094678 0.34539 0.093733-0.37769 0.099907z" fill="#c7d0d4"/>
   <path d="m42.143 7.0525-2.18e-4 0.068328 0.3266 0.088633-9.15e-4 -0.057999z" fill="#dddfe3"/>
   <path d="m42.469 7.1515 9.15e-4 0.057998 0.37581-0.09941 0.0013-0.058494z" fill="#505356"/>
   <path d="m42.624 7.2037 0.35792-0.094678 0.34539 0.093733-0.37769 0.099907z" fill="#c7d0d4"/>
   <path d="m42.624 7.2037-2.19e-4 0.068328 0.3266 0.088632-9.14e-4 -0.057999z" fill="#dddfe3"/>
   <path d="m42.95 7.3027 9.14e-4 0.057998 0.37581-0.09941 0.0013-0.058494z" fill="#505356"/>
   <path d="m43.083 7.3558 0.35792-0.094678 0.34539 0.093733-0.37769 0.099907z" fill="#c7d0d4"/>
   <path d="m43.083 7.3558-2.19e-4 0.068328 0.3266 0.088633-9.14e-4 -0.057999z" fill="#dddfe3"/>
   <path d="m43.409 7.4548 9.14e-4 0.057998 0.37581-0.09941 0.0013-0.058494z" fill="#505356"/>
   <path d="m43.53 7.5133 0.35792-0.094678 0.34539 0.093733-0.37769 0.099907z" fill="#c7d0d4"/>
   <path d="m43.53 7.5133-2.18e-4 0.068328 0.3266 0.088633-9.15e-4 -0.057999z" fill="#dddfe3"/>
   <path d="m43.856 7.6122 9.15e-4 0.057998 0.37581-0.09941 0.0013-0.058494z" fill="#505356"/>
   <path d="m44.011 7.6645 0.35792-0.094678 0.34539 0.093733-0.37769 0.099907z" fill="#c7d0d4"/>
   <path d="m44.011 7.6645-2.19e-4 0.068328 0.3266 0.088633-9.14e-4 -0.057999z" fill="#dddfe3"/>
   <path d="m44.337 7.7634 9.14e-4 0.057998 0.37581-0.09941 0.0013-0.058494z" fill="#505356"/>
   <path d="m44.47 7.8165 0.35792-0.094678 0.34539 0.093733-0.37769 0.099907z" fill="#c7d0d4"/>
   <path d="m44.47 7.8165-2.19e-4 0.068328 0.3266 0.088633-9.14e-4 -0.057999z" fill="#dddfe3"/>
   <path d="m44.796 7.9155 9.14e-4 0.057998 0.37581-0.09941 0.0013-0.058494z" fill="#505356"/>
   <path d="m44.917 7.9663 0.35792-0.094678 0.34539 0.093733-0.37769 0.099907z" fill="#c7d0d4"/>
   <path d="m44.917 7.9663-2.19e-4 0.068328 0.3266 0.088633-9.14e-4 -0.057999z" fill="#dddfe3"/>
   <path d="m45.243 8.0653 9.14e-4 0.057998 0.37581-0.09941 0.0013-0.058494z" fill="#505356"/>
   <path d="m45.376 8.1184 0.35792-0.094678 0.34539 0.093733-0.37769 0.099907z" fill="#c7d0d4"/>
   <path d="m45.376 8.1184-2.18e-4 0.068328 0.3266 0.088632-9.15e-4 -0.057999z" fill="#dddfe3"/>
   <path d="m45.702 8.2173 9.15e-4 0.057998 0.37581-0.09941 0.0013-0.058494z" fill="#505356"/>
   <path d="m45.857 8.2696 0.35792-0.094678 0.34539 0.093733-0.37769 0.099907z" fill="#c7d0d4"/>
   <path d="m45.857 8.2696-2.19e-4 0.068328 0.3266 0.088632-9.15e-4 -0.057999z" fill="#dddfe3"/>
   <path d="m46.183 8.3685 9.15e-4 0.057998 0.37581-0.09941 0.0013-0.058494z" fill="#505356"/>
   <path d="m46.316 8.4216 0.35792-0.094678 0.34539 0.093733-0.37769 0.099907z" fill="#c7d0d4"/>
   <path d="m46.316 8.4216-2.19e-4 0.068328 0.3266 0.088632-9.14e-4 -0.057999z" fill="#dddfe3"/>
   <path d="m46.642 8.5206 9.14e-4 0.057998 0.37581-0.09941 0.0013-0.058494z" fill="#505356"/>
   <path d="m46.755 8.5813 0.35792-0.094678 0.34539 0.093733-0.37769 0.099907z" fill="#c7d0d4"/>
   <path d="m46.755 8.5813-2.19e-4 0.068328 0.3266 0.088632-9.15e-4 -0.057999z" fill="#dddfe3"/>
   <path d="m47.08 8.6803 9.15e-4 0.057998 0.37581-0.09941 0.0013-0.058494z" fill="#505356"/>
   <path d="m47.236 8.7325 0.35792-0.094678 0.34539 0.093733-0.37769 0.099907z" fill="#c7d0d4"/>
   <path d="m47.236 8.7325-2.19e-4 0.068328 0.3266 0.088633-9.14e-4 -0.057999z" fill="#dddfe3"/>
   <path d="m47.561 8.8315 9.14e-4 0.057998 0.37581-0.09941 0.0013-0.058494z" fill="#505356"/>
   <path d="m47.695 8.8846 0.35792-0.094678 0.34539 0.093733-0.37769 0.099907z" fill="#c7d0d4"/>
   <path d="m47.695 8.8846-2.19e-4 0.068328 0.3266 0.088632-9.14e-4 -0.057999z" fill="#dddfe3"/>
   <path d="m48.02 8.9836 9.14e-4 0.057998 0.37581-0.09941 0.0013-0.058494z" fill="#505356"/>
  </g>
  <g transform="translate(-1.2822 .48346)">
   <path d="m39.838 6.2954 0.35792-0.094678 0.34539 0.093733-0.37769 0.099907z" fill="#c7d0d4"/>
   <path d="m39.838 6.2954-2.18e-4 0.068328 0.3266 0.088633-9.15e-4 -0.057999z" fill="#dddfe3"/>
   <path d="m40.164 6.3943 9.15e-4 0.057998 0.37581-0.09941 0.0013-0.058494z" fill="#505356"/>
   <path d="m40.297 6.4474 0.35792-0.094678 0.34539 0.093733-0.37769 0.099907z" fill="#c7d0d4"/>
   <path d="m40.297 6.4474-2.19e-4 0.068328 0.3266 0.088633-9.15e-4 -0.057999z" fill="#dddfe3"/>
   <path d="m40.623 6.5464 9.15e-4 0.057998 0.37581-0.09941 0.0013-0.058494z" fill="#505356"/>
   <path d="m40.778 6.5986 0.35792-0.094678 0.34539 0.093733-0.37769 0.099907z" fill="#c7d0d4"/>
   <path d="m40.778 6.5986-2.19e-4 0.068328 0.3266 0.088633-9.14e-4 -0.057999z" fill="#dddfe3"/>
   <path d="m41.104 6.6976 9.14e-4 0.057998 0.37581-0.09941 0.0013-0.058494z" fill="#505356"/>
   <path d="m41.237 6.7507 0.35792-0.094678 0.34539 0.093733-0.37769 0.099907z" fill="#c7d0d4"/>
   <path d="m41.237 6.7507-2.19e-4 0.068328 0.3266 0.088633-9.14e-4 -0.057999z" fill="#dddfe3"/>
   <path d="m41.563 6.8497 9.14e-4 0.057998 0.37581-0.09941 0.0013-0.058494z" fill="#505356"/>
   <path d="m41.684 6.9005 0.35792-0.094678 0.34539 0.093733-0.37769 0.099907z" fill="#c7d0d4"/>
   <path d="m41.684 6.9005-2.19e-4 0.068328 0.3266 0.088633-9.14e-4 -0.057999z" fill="#dddfe3"/>
   <path d="m42.01 6.9994 9.14e-4 0.057998 0.37581-0.09941 0.0013-0.058494z" fill="#505356"/>
   <path d="m42.143 7.0525 0.35792-0.094678 0.34539 0.093733-0.37769 0.099907z" fill="#c7d0d4"/>
   <path d="m42.143 7.0525-2.18e-4 0.068328 0.3266 0.088633-9.15e-4 -0.057999z" fill="#dddfe3"/>
   <path d="m42.469 7.1515 9.15e-4 0.057998 0.37581-0.09941 0.0013-0.058494z" fill="#505356"/>
   <path d="m42.624 7.2037 0.35792-0.094678 0.34539 0.093733-0.37769 0.099907z" fill="#c7d0d4"/>
   <path d="m42.624 7.2037-2.19e-4 0.068328 0.3266 0.088632-9.14e-4 -0.057999z" fill="#dddfe3"/>
   <path d="m42.95 7.3027 9.14e-4 0.057998 0.37581-0.09941 0.0013-0.058494z" fill="#505356"/>
   <path d="m43.083 7.3558 0.35792-0.094678 0.34539 0.093733-0.37769 0.099907z" fill="#c7d0d4"/>
   <path d="m43.083 7.3558-2.19e-4 0.068328 0.3266 0.088633-9.14e-4 -0.057999z" fill="#dddfe3"/>
   <path d="m43.409 7.4548 9.14e-4 0.057998 0.37581-0.09941 0.0013-0.058494z" fill="#505356"/>
   <path d="m43.53 7.5133 0.35792-0.094678 0.34539 0.093733-0.37769 0.099907z" fill="#c7d0d4"/>
   <path d="m43.53 7.5133-2.18e-4 0.068328 0.3266 0.088633-9.15e-4 -0.057999z" fill="#dddfe3"/>
   <path d="m43.856 7.6122 9.15e-4 0.057998 0.37581-0.09941 0.0013-0.058494z" fill="#505356"/>
   <path d="m44.011 7.6645 0.35792-0.094678 0.34539 0.093733-0.37769 0.099907z" fill="#c7d0d4"/>
   <path d="m44.011 7.6645-2.19e-4 0.068328 0.3266 0.088633-9.14e-4 -0.057999z" fill="#dddfe3"/>
   <path d="m44.337 7.7634 9.14e-4 0.057998 0.37581-0.09941 0.0013-0.058494z" fill="#505356"/>
   <path d="m44.47 7.8165 0.35792-0.094678 0.34539 0.093733-0.37769 0.099907z" fill="#c7d0d4"/>
   <path d="m44.47 7.8165-2.19e-4 0.068328 0.3266 0.088633-9.14e-4 -0.057999z" fill="#dddfe3"/>
   <path d="m44.796 7.9155 9.14e-4 0.057998 0.37581-0.09941 0.0013-0.058494z" fill="#505356"/>
   <path d="m44.917 7.9663 0.35792-0.094678 0.34539 0.093733-0.37769 0.099907z" fill="#c7d0d4"/>
   <path d="m44.917 7.9663-2.19e-4 0.068328 0.3266 0.088633-9.14e-4 -0.057999z" fill="#dddfe3"/>
   <path d="m45.243 8.0653 9.14e-4 0.057998 0.37581-0.09941 0.0013-0.058494z" fill="#505356"/>
   <path d="m45.376 8.1184 0.35792-0.094678 0.34539 0.093733-0.37769 0.099907z" fill="#c7d0d4"/>
   <path d="m45.376 8.1184-2.18e-4 0.068328 0.3266 0.088632-9.15e-4 -0.057999z" fill="#dddfe3"/>
   <path d="m45.702 8.2173 9.15e-4 0.057998 0.37581-0.09941 0.0013-0.058494z" fill="#505356"/>
   <path d="m45.857 8.2696 0.35792-0.094678 0.34539 0.093733-0.37769 0.099907z" fill="#c7d0d4"/>
   <path d="m45.857 8.2696-2.19e-4 0.068328 0.3266 0.088632-9.15e-4 -0.057999z" fill="#dddfe3"/>
   <path d="m46.183 8.3685 9.15e-4 0.057998 0.37581-0.09941 0.0013-0.058494z" fill="#505356"/>
   <path d="m46.316 8.4216 0.35792-0.094678 0.34539 0.093733-0.37769 0.099907z" fill="#c7d0d4"/>
   <path d="m46.316 8.4216-2.19e-4 0.068328 0.3266 0.088632-9.14e-4 -0.057999z" fill="#dddfe3"/>
   <path d="m46.642 8.5206 9.14e-4 0.057998 0.37581-0.09941 0.0013-0.058494z" fill="#505356"/>
   <path d="m46.755 8.5813 0.35792-0.094678 0.34539 0.093733-0.37769 0.099907z" fill="#c7d0d4"/>
   <path d="m46.755 8.5813-2.19e-4 0.068328 0.3266 0.088632-9.15e-4 -0.057999z" fill="#dddfe3"/>
   <path d="m47.08 8.6803 9.15e-4 0.057998 0.37581-0.09941 0.0013-0.058494z" fill="#505356"/>
   <path d="m47.236 8.7325 0.35792-0.094678 0.34539 0.093733-0.37769 0.099907z" fill="#c7d0d4"/>
   <path d="m47.236 8.7325-2.19e-4 0.068328 0.3266 0.088633-9.14e-4 -0.057999z" fill="#dddfe3"/>
   <path d="m47.561 8.8315 9.14e-4 0.057998 0.37581-0.09941 0.0013-0.058494z" fill="#505356"/>
   <path d="m47.695 8.8846 0.35792-0.094678 0.34539 0.093733-0.37769 0.099907z" fill="#c7d0d4"/>
   <path d="m47.695 8.8846-2.19e-4 0.068328 0.3266 0.088632-9.14e-4 -0.057999z" fill="#dddfe3"/>
   <path d="m48.02 8.9836 9.14e-4 0.057998 0.37581-0.09941 0.0013-0.058494z" fill="#505356"/>
  </g>
  <path d="m38.859 7.332 0.35792-0.094678 0.34539 0.093733-0.37769 0.099907z" fill="#c7d0d4"/>
  <path d="m38.859 7.332-2.19e-4 0.068328 0.3266 0.088633-9.14e-4 -0.057999z" fill="#dddfe3"/>
  <path d="m39.185 7.431 9.14e-4 0.057998 0.37581-0.09941 0.0013-0.058494z" fill="#505356"/>
  <path d="m39.319 7.4841 0.35792-0.094678 0.34539 0.093733-0.37769 0.099907z" fill="#c7d0d4"/>
  <path d="m39.319 7.4841-2.19e-4 0.068328 0.3266 0.088633-9.14e-4 -0.057999z" fill="#dddfe3"/>
  <path d="m39.644 7.583 9.14e-4 0.057998 0.37581-0.09941 0.0013-0.058494z" fill="#505356"/>
  <path d="m39.766 7.6339 0.35792-0.094678 0.34539 0.093733-0.37769 0.099907z" fill="#c7d0d4"/>
  <path d="m39.766 7.6339-2.19e-4 0.068328 0.3266 0.088633-9.14e-4 -0.057999z" fill="#dddfe3"/>
  <path d="m40.091 7.7328 9.14e-4 0.057998 0.37581-0.09941 0.0013-0.058494z" fill="#505356"/>
  <path d="m40.225 7.7859 0.35792-0.094678 0.34539 0.093733-0.37769 0.099907z" fill="#c7d0d4"/>
  <path d="m40.225 7.7859-2.18e-4 0.068328 0.3266 0.088633-9.15e-4 -0.057999z" fill="#dddfe3"/>
  <path d="m40.55 7.8849 9.15e-4 0.057998 0.37581-0.09941 0.0013-0.058494z" fill="#505356"/>
  <path d="m40.706 7.9371 0.35792-0.094678 0.34539 0.093733-0.37769 0.099907z" fill="#c7d0d4"/>
  <path d="m40.706 7.9371-2.19e-4 0.068328 0.3266 0.088632-9.14e-4 -0.057999z" fill="#dddfe3"/>
  <path d="m41.031 8.0361 9.14e-4 0.057998 0.37581-0.09941 0.0013-0.058494z" fill="#505356"/>
  <path d="m41.165 8.0892 0.35792-0.094678 0.34539 0.093733-0.37769 0.099907z" fill="#c7d0d4"/>
  <path d="m41.165 8.0892-2.19e-4 0.068328 0.3266 0.088633-9.14e-4 -0.057999z" fill="#dddfe3"/>
  <path d="m41.49 8.1881 9.14e-4 0.057998 0.37581-0.09941 0.0013-0.058494z" fill="#505356"/>
  <path d="m41.611 8.2466 0.35792-0.094678 0.34539 0.093733-0.37769 0.099907z" fill="#c7d0d4"/>
  <path d="m41.611 8.2466-2.18e-4 0.068328 0.3266 0.088633-9.15e-4 -0.057999z" fill="#dddfe3"/>
  <path d="m41.937 8.3456 9.15e-4 0.057998 0.37581-0.09941 0.0013-0.058494z" fill="#505356"/>
  <path d="m42.092 8.3978 0.35792-0.094678 0.34539 0.093733-0.37769 0.099907z" fill="#c7d0d4"/>
  <path d="m42.092 8.3978-2.19e-4 0.068328 0.3266 0.088633-9.14e-4 -0.057999z" fill="#dddfe3"/>
  <path d="m42.418 8.4968 9.14e-4 0.057998 0.37581-0.09941 0.0013-0.058494z" fill="#505356"/>
  <path d="m42.551 8.5499 0.35792-0.094678 0.34539 0.093733-0.37769 0.099907z" fill="#c7d0d4"/>
  <path d="m42.551 8.5499-2.19e-4 0.068328 0.3266 0.088633-9.14e-4 -0.057999z" fill="#dddfe3"/>
  <path d="m42.877 8.6489 9.14e-4 0.057998 0.37581-0.09941 0.0013-0.058494z" fill="#505356"/>
  <path d="m42.998 8.6997 0.35792-0.094678 0.34539 0.093733-0.37769 0.099907z" fill="#c7d0d4"/>
  <path d="m42.998 8.6997-2.19e-4 0.068328 0.3266 0.088633-9.14e-4 -0.057999z" fill="#dddfe3"/>
  <path d="m43.324 8.7987 9.14e-4 0.057998 0.37581-0.09941 0.0013-0.058494z" fill="#505356"/>
  <path d="m43.457 8.8517 0.35792-0.094678 0.34539 0.093733-0.37769 0.099907z" fill="#c7d0d4"/>
  <path d="m43.457 8.8517-2.18e-4 0.068328 0.3266 0.088632-9.15e-4 -0.057999z" fill="#dddfe3"/>
  <path d="m43.783 8.9507 9.15e-4 0.057998 0.37581-0.09941 0.0013-0.058494z" fill="#505356"/>
  <path d="m43.938 9.0029 0.35792-0.094678 0.34539 0.093733-0.37769 0.099907z" fill="#c7d0d4"/>
  <path d="m43.938 9.0029-2.19e-4 0.068328 0.3266 0.088632-9.15e-4 -0.057999z" fill="#dddfe3"/>
  <path d="m44.264 9.1019 9.15e-4 0.057998 0.37581-0.09941 0.0013-0.058494z" fill="#505356"/>
  <path d="m44.397 9.155 0.35792-0.094678 0.34539 0.093733-0.37769 0.099907z" fill="#c7d0d4"/>
  <path d="m44.397 9.155-2.19e-4 0.068328 0.3266 0.088632-9.14e-4 -0.057999z" fill="#dddfe3"/>
  <path d="m44.723 9.254 9.14e-4 0.057998 0.37581-0.09941 0.0013-0.058494z" fill="#505356"/>
  <path d="m44.836 9.3147 0.35792-0.094678 0.34539 0.093733-0.37769 0.099907z" fill="#c7d0d4"/>
  <path d="m44.836 9.3147-2.19e-4 0.068328 0.3266 0.088632-9.15e-4 -0.057999z" fill="#dddfe3"/>
  <path d="m45.161 9.4137 9.15e-4 0.057998 0.37581-0.09941 0.0013-0.058494z" fill="#505356"/>
  <g transform="translate(11.146 1.0605)">
   <path d="m34.248 8.4388 0.35135-0.099723 0.75373 0.22833-0.37737 0.10112z" fill="#c7d0d4"/>
   <path d="m34.248 8.4388-3.41e-4 0.06497 0.72899 0.22275-0.0011-0.057996z" fill="#dddfe3"/>
   <path d="m34.976 8.6685 0.0011 0.057995 0.37549-0.10061 0.0011-0.058498z" fill="#505356"/>
  </g>
 </g>
</svg>
