<svg height="64" viewBox="0 0 16.934 16.934" width="64" xmlns="http://www.w3.org/2000/svg" xmlns:xlink="http://www.w3.org/1999/xlink"><linearGradient id="b"><stop offset="0" stop-color="#232629"/><stop offset="1" stop-color="#a2abae"/></linearGradient><linearGradient id="a"><stop offset="0" stop-color="#31363b"/><stop offset="1" stop-color="#31363b" stop-opacity="0"/></linearGradient><linearGradient id="c" gradientUnits="userSpaceOnUse" x1="8.466" x2="8.467" y1="15.347" y2="1.588"><stop offset="0" stop-color="#7f8c8d"/><stop offset="1" stop-color="#bdc3c7"/></linearGradient><linearGradient id="d" gradientUnits="userSpaceOnUse" x1="8.467" x2="8.467" y1="2.646" y2="14.288"><stop offset="0" stop-color="#232629"/><stop offset="1" stop-color="#292c2f"/></linearGradient><linearGradient id="e" gradientTransform="matrix(2 0 0 3.9999 -1.588 -1159.923)" gradientUnits="userSpaceOnUse" x1="4.234" x2="4.234" y1="290.65" y2="291.179"><stop offset="0" stop-color="#fdbc4b" stop-opacity=".8"/><stop offset="1" stop-color="#fdbc4b" stop-opacity="0"/></linearGradient><linearGradient id="f" gradientTransform="matrix(2.5 0 0 2 -2.116 -576.535)" gradientUnits="userSpaceOnUse" x1="4.233" x2="4.233" xlink:href="#a" y1="295.412" y2="294.619"/><linearGradient id="g" gradientTransform="matrix(.75 0 0 2 1.852 -578.125)" gradientUnits="userSpaceOnUse" x1="4.587" x2="4.587" xlink:href="#a" y1="295.413" y2="294.619"/><linearGradient id="h" gradientTransform="matrix(.75 0 0 2 8.732 -578.125)" gradientUnits="userSpaceOnUse" x1="3.88" x2="3.88" xlink:href="#a" y1="295.413" y2="294.619"/><linearGradient id="i" gradientTransform="matrix(.25 0 0 4.00002 14.552 -1173.191)" gradientUnits="userSpaceOnUse" x1="7.411" x2="7.411" xlink:href="#a" y1="295.413" y2="294.619"/><linearGradient id="j" gradientTransform="matrix(.25 0 0 4.00002 .264 -1173.191)" gradientUnits="userSpaceOnUse" x1="1.061" x2="1.061" xlink:href="#a" y1="295.413" y2="294.619"/><linearGradient id="k" gradientTransform="matrix(1.25 0 0 3.33334 -2.38 -973.595)" gradientUnits="userSpaceOnUse" x1="4.444" x2="4.444" xlink:href="#a" y1="295.412" y2="294.618"/><linearGradient id="l" gradientTransform="matrix(1.25 0 0 3.33334 8.732 -973.595)" gradientUnits="userSpaceOnUse" x1="4.021" x2="4.021" xlink:href="#a" y1="295.412" y2="294.618"/><radialGradient id="m" cx="-1.146" cy="-291.923" gradientTransform="matrix(-7.98774 .00034 -.0006 -13.97994 -6.686 -4075.769)" gradientUnits="userSpaceOnUse" r=".265" xlink:href="#b"/><radialGradient id="n" cx="-1.146" cy="-291.923" gradientTransform="matrix(7.98774 .00013 .00023 -13.97902 23.513 -4075.5)" gradientUnits="userSpaceOnUse" r=".265" xlink:href="#b"/><rect fill="url(#c)" height="13.759" rx="1.058" width="15.876" x=".529" y="1.588"/><path d="M1.588 2.646v2.646h-.53v.53h.53v2.116h-.53v.529h.53v2.646h2.645V12.7h1.588v1.587h5.292V12.7H12.7v-1.588h2.645V8.467h.53v-.53h-.53V5.822h.53v-.53h-.53V2.647z" fill="url(#d)"/><g stroke-width="2"><path d="M2.646 2.646h.53v2.117h-.53zm1.588 0h.529v2.117h-.53zm1.587 0h.53v2.117h-.53zm7.938 0h.53v2.117h-.53zm-1.588 0h.53v2.117h-.53zm-1.587 0h.529v2.117h-.53zm-1.588 0h.53v2.117h-.53zm-1.587 0h.529v2.117h-.53z" fill="url(#e)"/><path d="M5.821 12.7h5.292v1.588H5.82z" fill="url(#f)"/><path d="M4.234 11.113H5.82V12.7H4.234z" fill="url(#g)"/><path d="M11.113 11.113H12.7V12.7h-1.588z" fill="url(#h)"/><path d="M15.346 5.292v.53h.53v-.53zm0 2.646v.529h.53v-.53z" fill="url(#i)"/><path d="M1.058 5.292v.53h.53v-.53zm0 2.646v.529h.53v-.53z" fill="url(#j)"/><path d="M1.588 8.467h2.646v2.646H1.588z" fill="url(#k)"/><path d="M12.7 8.467h2.646v2.646H12.7z" fill="url(#l)"/><path d="M2.117 7.938H1.058V5.82h1.059z" fill="url(#m)"/><path d="M14.817 7.938h1.059V5.82h-1.059z" fill="url(#n)"/><path d="M.53 14.023v.265c0 .586.471 1.058 1.058 1.058h13.758c.587 0 1.059-.472 1.059-1.058v-.265c0 .587-.472 1.059-1.059 1.059H1.588a1.056 1.056 0 0 1-1.059-1.059z" fill="#69777b"/></g></svg>